G04 #@! TF.GenerationSoftware,KiCad,Pcbnew,7.0.1*
G04 #@! TF.CreationDate,2023-07-05T16:18:13-05:00*
G04 #@! TF.ProjectId,pn5180 mcp23008 breakout board,706e3531-3830-4206-9d63-703233303038,rev?*
G04 #@! TF.SameCoordinates,Original*
G04 #@! TF.FileFunction,Legend,Top*
G04 #@! TF.FilePolarity,Positive*
%FSLAX46Y46*%
G04 Gerber Fmt 4.6, Leading zero omitted, Abs format (unit mm)*
G04 Created by KiCad (PCBNEW 7.0.1) date 2023-07-05 16:18:13*
%MOMM*%
%LPD*%
G01*
G04 APERTURE LIST*
G04 Aperture macros list*
%AMRoundRect*
0 Rectangle with rounded corners*
0 $1 Rounding radius*
0 $2 $3 $4 $5 $6 $7 $8 $9 X,Y pos of 4 corners*
0 Add a 4 corners polygon primitive as box body*
4,1,4,$2,$3,$4,$5,$6,$7,$8,$9,$2,$3,0*
0 Add four circle primitives for the rounded corners*
1,1,$1+$1,$2,$3*
1,1,$1+$1,$4,$5*
1,1,$1+$1,$6,$7*
1,1,$1+$1,$8,$9*
0 Add four rect primitives between the rounded corners*
20,1,$1+$1,$2,$3,$4,$5,0*
20,1,$1+$1,$4,$5,$6,$7,0*
20,1,$1+$1,$6,$7,$8,$9,0*
20,1,$1+$1,$8,$9,$2,$3,0*%
%AMFreePoly0*
4,1,19,0.550000,-0.750000,0.000000,-0.750000,0.000000,-0.744911,-0.071157,-0.744911,-0.207708,-0.704816,-0.327430,-0.627875,-0.420627,-0.520320,-0.479746,-0.390866,-0.500000,-0.250000,-0.500000,0.250000,-0.479746,0.390866,-0.420627,0.520320,-0.327430,0.627875,-0.207708,0.704816,-0.071157,0.744911,0.000000,0.744911,0.000000,0.750000,0.550000,0.750000,0.550000,-0.750000,0.550000,-0.750000,
$1*%
%AMFreePoly1*
4,1,19,0.000000,0.744911,0.071157,0.744911,0.207708,0.704816,0.327430,0.627875,0.420627,0.520320,0.479746,0.390866,0.500000,0.250000,0.500000,-0.250000,0.479746,-0.390866,0.420627,-0.520320,0.327430,-0.627875,0.207708,-0.704816,0.071157,-0.744911,0.000000,-0.744911,0.000000,-0.750000,-0.550000,-0.750000,-0.550000,0.750000,0.000000,0.750000,0.000000,0.744911,0.000000,0.744911,
$1*%
G04 Aperture macros list end*
%ADD10C,0.150000*%
%ADD11C,0.120000*%
%ADD12R,1.600000X1.600000*%
%ADD13O,1.600000X1.600000*%
%ADD14C,3.000000*%
%ADD15C,1.500000*%
%ADD16R,1.500000X1.500000*%
%ADD17C,3.250000*%
%ADD18C,3.200000*%
%ADD19FreePoly0,90.000000*%
%ADD20R,1.500000X1.000000*%
%ADD21FreePoly1,90.000000*%
%ADD22RoundRect,0.250000X-0.845000X0.620000X-0.845000X-0.620000X0.845000X-0.620000X0.845000X0.620000X0*%
%ADD23O,2.190000X1.740000*%
%ADD24C,1.600000*%
%ADD25RoundRect,0.250000X0.845000X-0.620000X0.845000X0.620000X-0.845000X0.620000X-0.845000X-0.620000X0*%
G04 APERTURE END LIST*
D10*
X93853000Y-96774000D02*
X94234000Y-97155000D01*
X93853000Y-96774000D02*
X94234000Y-96393000D01*
X94869000Y-96774000D02*
X93853000Y-96774000D01*
X202692000Y-97409000D02*
X203708000Y-97409000D01*
X203708000Y-97409000D02*
X203454000Y-97790000D01*
X203708000Y-97409000D02*
X203454000Y-97028000D01*
X95250000Y-76962000D02*
X95250000Y-86042500D01*
X210708857Y-87346619D02*
X211327904Y-87346619D01*
X211327904Y-87346619D02*
X210994571Y-87727571D01*
X210994571Y-87727571D02*
X211137428Y-87727571D01*
X211137428Y-87727571D02*
X211232666Y-87775190D01*
X211232666Y-87775190D02*
X211280285Y-87822809D01*
X211280285Y-87822809D02*
X211327904Y-87918047D01*
X211327904Y-87918047D02*
X211327904Y-88156142D01*
X211327904Y-88156142D02*
X211280285Y-88251380D01*
X211280285Y-88251380D02*
X211232666Y-88299000D01*
X211232666Y-88299000D02*
X211137428Y-88346619D01*
X211137428Y-88346619D02*
X210851714Y-88346619D01*
X210851714Y-88346619D02*
X210756476Y-88299000D01*
X210756476Y-88299000D02*
X210708857Y-88251380D01*
X211613619Y-87346619D02*
X211946952Y-88346619D01*
X211946952Y-88346619D02*
X212280285Y-87346619D01*
X212518381Y-87346619D02*
X213137428Y-87346619D01*
X213137428Y-87346619D02*
X212804095Y-87727571D01*
X212804095Y-87727571D02*
X212946952Y-87727571D01*
X212946952Y-87727571D02*
X213042190Y-87775190D01*
X213042190Y-87775190D02*
X213089809Y-87822809D01*
X213089809Y-87822809D02*
X213137428Y-87918047D01*
X213137428Y-87918047D02*
X213137428Y-88156142D01*
X213137428Y-88156142D02*
X213089809Y-88251380D01*
X213089809Y-88251380D02*
X213042190Y-88299000D01*
X213042190Y-88299000D02*
X212946952Y-88346619D01*
X212946952Y-88346619D02*
X212661238Y-88346619D01*
X212661238Y-88346619D02*
X212566000Y-88299000D01*
X212566000Y-88299000D02*
X212518381Y-88251380D01*
X86153761Y-102586619D02*
X85677571Y-102586619D01*
X85677571Y-102586619D02*
X85629952Y-103062809D01*
X85629952Y-103062809D02*
X85677571Y-103015190D01*
X85677571Y-103015190D02*
X85772809Y-102967571D01*
X85772809Y-102967571D02*
X86010904Y-102967571D01*
X86010904Y-102967571D02*
X86106142Y-103015190D01*
X86106142Y-103015190D02*
X86153761Y-103062809D01*
X86153761Y-103062809D02*
X86201380Y-103158047D01*
X86201380Y-103158047D02*
X86201380Y-103396142D01*
X86201380Y-103396142D02*
X86153761Y-103491380D01*
X86153761Y-103491380D02*
X86106142Y-103539000D01*
X86106142Y-103539000D02*
X86010904Y-103586619D01*
X86010904Y-103586619D02*
X85772809Y-103586619D01*
X85772809Y-103586619D02*
X85677571Y-103539000D01*
X85677571Y-103539000D02*
X85629952Y-103491380D01*
X86487095Y-102586619D02*
X86820428Y-103586619D01*
X86820428Y-103586619D02*
X87153761Y-102586619D01*
X83868048Y-98506619D02*
X83868048Y-97506619D01*
X83868048Y-97506619D02*
X84201381Y-98220904D01*
X84201381Y-98220904D02*
X84534714Y-97506619D01*
X84534714Y-97506619D02*
X84534714Y-98506619D01*
X85201381Y-97506619D02*
X85391857Y-97506619D01*
X85391857Y-97506619D02*
X85487095Y-97554238D01*
X85487095Y-97554238D02*
X85582333Y-97649476D01*
X85582333Y-97649476D02*
X85629952Y-97839952D01*
X85629952Y-97839952D02*
X85629952Y-98173285D01*
X85629952Y-98173285D02*
X85582333Y-98363761D01*
X85582333Y-98363761D02*
X85487095Y-98459000D01*
X85487095Y-98459000D02*
X85391857Y-98506619D01*
X85391857Y-98506619D02*
X85201381Y-98506619D01*
X85201381Y-98506619D02*
X85106143Y-98459000D01*
X85106143Y-98459000D02*
X85010905Y-98363761D01*
X85010905Y-98363761D02*
X84963286Y-98173285D01*
X84963286Y-98173285D02*
X84963286Y-97839952D01*
X84963286Y-97839952D02*
X85010905Y-97649476D01*
X85010905Y-97649476D02*
X85106143Y-97554238D01*
X85106143Y-97554238D02*
X85201381Y-97506619D01*
X86010905Y-98459000D02*
X86153762Y-98506619D01*
X86153762Y-98506619D02*
X86391857Y-98506619D01*
X86391857Y-98506619D02*
X86487095Y-98459000D01*
X86487095Y-98459000D02*
X86534714Y-98411380D01*
X86534714Y-98411380D02*
X86582333Y-98316142D01*
X86582333Y-98316142D02*
X86582333Y-98220904D01*
X86582333Y-98220904D02*
X86534714Y-98125666D01*
X86534714Y-98125666D02*
X86487095Y-98078047D01*
X86487095Y-98078047D02*
X86391857Y-98030428D01*
X86391857Y-98030428D02*
X86201381Y-97982809D01*
X86201381Y-97982809D02*
X86106143Y-97935190D01*
X86106143Y-97935190D02*
X86058524Y-97887571D01*
X86058524Y-97887571D02*
X86010905Y-97792333D01*
X86010905Y-97792333D02*
X86010905Y-97697095D01*
X86010905Y-97697095D02*
X86058524Y-97601857D01*
X86058524Y-97601857D02*
X86106143Y-97554238D01*
X86106143Y-97554238D02*
X86201381Y-97506619D01*
X86201381Y-97506619D02*
X86439476Y-97506619D01*
X86439476Y-97506619D02*
X86582333Y-97554238D01*
X87010905Y-98506619D02*
X87010905Y-97506619D01*
X128332857Y-99047619D02*
X128951904Y-99047619D01*
X128951904Y-99047619D02*
X128618571Y-99428571D01*
X128618571Y-99428571D02*
X128761428Y-99428571D01*
X128761428Y-99428571D02*
X128856666Y-99476190D01*
X128856666Y-99476190D02*
X128904285Y-99523809D01*
X128904285Y-99523809D02*
X128951904Y-99619047D01*
X128951904Y-99619047D02*
X128951904Y-99857142D01*
X128951904Y-99857142D02*
X128904285Y-99952380D01*
X128904285Y-99952380D02*
X128856666Y-100000000D01*
X128856666Y-100000000D02*
X128761428Y-100047619D01*
X128761428Y-100047619D02*
X128475714Y-100047619D01*
X128475714Y-100047619D02*
X128380476Y-100000000D01*
X128380476Y-100000000D02*
X128332857Y-99952380D01*
X129237619Y-99047619D02*
X129570952Y-100047619D01*
X129570952Y-100047619D02*
X129904285Y-99047619D01*
X130142381Y-99047619D02*
X130761428Y-99047619D01*
X130761428Y-99047619D02*
X130428095Y-99428571D01*
X130428095Y-99428571D02*
X130570952Y-99428571D01*
X130570952Y-99428571D02*
X130666190Y-99476190D01*
X130666190Y-99476190D02*
X130713809Y-99523809D01*
X130713809Y-99523809D02*
X130761428Y-99619047D01*
X130761428Y-99619047D02*
X130761428Y-99857142D01*
X130761428Y-99857142D02*
X130713809Y-99952380D01*
X130713809Y-99952380D02*
X130666190Y-100000000D01*
X130666190Y-100000000D02*
X130570952Y-100047619D01*
X130570952Y-100047619D02*
X130285238Y-100047619D01*
X130285238Y-100047619D02*
X130190000Y-100000000D01*
X130190000Y-100000000D02*
X130142381Y-99952380D01*
X83868048Y-101046619D02*
X83868048Y-100046619D01*
X83868048Y-100046619D02*
X84201381Y-100760904D01*
X84201381Y-100760904D02*
X84534714Y-100046619D01*
X84534714Y-100046619D02*
X84534714Y-101046619D01*
X85010905Y-101046619D02*
X85010905Y-100046619D01*
X85439476Y-100999000D02*
X85582333Y-101046619D01*
X85582333Y-101046619D02*
X85820428Y-101046619D01*
X85820428Y-101046619D02*
X85915666Y-100999000D01*
X85915666Y-100999000D02*
X85963285Y-100951380D01*
X85963285Y-100951380D02*
X86010904Y-100856142D01*
X86010904Y-100856142D02*
X86010904Y-100760904D01*
X86010904Y-100760904D02*
X85963285Y-100665666D01*
X85963285Y-100665666D02*
X85915666Y-100618047D01*
X85915666Y-100618047D02*
X85820428Y-100570428D01*
X85820428Y-100570428D02*
X85629952Y-100522809D01*
X85629952Y-100522809D02*
X85534714Y-100475190D01*
X85534714Y-100475190D02*
X85487095Y-100427571D01*
X85487095Y-100427571D02*
X85439476Y-100332333D01*
X85439476Y-100332333D02*
X85439476Y-100237095D01*
X85439476Y-100237095D02*
X85487095Y-100141857D01*
X85487095Y-100141857D02*
X85534714Y-100094238D01*
X85534714Y-100094238D02*
X85629952Y-100046619D01*
X85629952Y-100046619D02*
X85868047Y-100046619D01*
X85868047Y-100046619D02*
X86010904Y-100094238D01*
X86629952Y-100046619D02*
X86820428Y-100046619D01*
X86820428Y-100046619D02*
X86915666Y-100094238D01*
X86915666Y-100094238D02*
X87010904Y-100189476D01*
X87010904Y-100189476D02*
X87058523Y-100379952D01*
X87058523Y-100379952D02*
X87058523Y-100713285D01*
X87058523Y-100713285D02*
X87010904Y-100903761D01*
X87010904Y-100903761D02*
X86915666Y-100999000D01*
X86915666Y-100999000D02*
X86820428Y-101046619D01*
X86820428Y-101046619D02*
X86629952Y-101046619D01*
X86629952Y-101046619D02*
X86534714Y-100999000D01*
X86534714Y-100999000D02*
X86439476Y-100903761D01*
X86439476Y-100903761D02*
X86391857Y-100713285D01*
X86391857Y-100713285D02*
X86391857Y-100379952D01*
X86391857Y-100379952D02*
X86439476Y-100189476D01*
X86439476Y-100189476D02*
X86534714Y-100094238D01*
X86534714Y-100094238D02*
X86629952Y-100046619D01*
X211327904Y-84854238D02*
X211232666Y-84806619D01*
X211232666Y-84806619D02*
X211089809Y-84806619D01*
X211089809Y-84806619D02*
X210946952Y-84854238D01*
X210946952Y-84854238D02*
X210851714Y-84949476D01*
X210851714Y-84949476D02*
X210804095Y-85044714D01*
X210804095Y-85044714D02*
X210756476Y-85235190D01*
X210756476Y-85235190D02*
X210756476Y-85378047D01*
X210756476Y-85378047D02*
X210804095Y-85568523D01*
X210804095Y-85568523D02*
X210851714Y-85663761D01*
X210851714Y-85663761D02*
X210946952Y-85759000D01*
X210946952Y-85759000D02*
X211089809Y-85806619D01*
X211089809Y-85806619D02*
X211185047Y-85806619D01*
X211185047Y-85806619D02*
X211327904Y-85759000D01*
X211327904Y-85759000D02*
X211375523Y-85711380D01*
X211375523Y-85711380D02*
X211375523Y-85378047D01*
X211375523Y-85378047D02*
X211185047Y-85378047D01*
X211804095Y-85806619D02*
X211804095Y-84806619D01*
X211804095Y-84806619D02*
X212375523Y-85806619D01*
X212375523Y-85806619D02*
X212375523Y-84806619D01*
X212851714Y-85806619D02*
X212851714Y-84806619D01*
X212851714Y-84806619D02*
X213089809Y-84806619D01*
X213089809Y-84806619D02*
X213232666Y-84854238D01*
X213232666Y-84854238D02*
X213327904Y-84949476D01*
X213327904Y-84949476D02*
X213375523Y-85044714D01*
X213375523Y-85044714D02*
X213423142Y-85235190D01*
X213423142Y-85235190D02*
X213423142Y-85378047D01*
X213423142Y-85378047D02*
X213375523Y-85568523D01*
X213375523Y-85568523D02*
X213327904Y-85663761D01*
X213327904Y-85663761D02*
X213232666Y-85759000D01*
X213232666Y-85759000D02*
X213089809Y-85806619D01*
X213089809Y-85806619D02*
X212851714Y-85806619D01*
X84629952Y-90839000D02*
X84772809Y-90886619D01*
X84772809Y-90886619D02*
X85010904Y-90886619D01*
X85010904Y-90886619D02*
X85106142Y-90839000D01*
X85106142Y-90839000D02*
X85153761Y-90791380D01*
X85153761Y-90791380D02*
X85201380Y-90696142D01*
X85201380Y-90696142D02*
X85201380Y-90600904D01*
X85201380Y-90600904D02*
X85153761Y-90505666D01*
X85153761Y-90505666D02*
X85106142Y-90458047D01*
X85106142Y-90458047D02*
X85010904Y-90410428D01*
X85010904Y-90410428D02*
X84820428Y-90362809D01*
X84820428Y-90362809D02*
X84725190Y-90315190D01*
X84725190Y-90315190D02*
X84677571Y-90267571D01*
X84677571Y-90267571D02*
X84629952Y-90172333D01*
X84629952Y-90172333D02*
X84629952Y-90077095D01*
X84629952Y-90077095D02*
X84677571Y-89981857D01*
X84677571Y-89981857D02*
X84725190Y-89934238D01*
X84725190Y-89934238D02*
X84820428Y-89886619D01*
X84820428Y-89886619D02*
X85058523Y-89886619D01*
X85058523Y-89886619D02*
X85201380Y-89934238D01*
X85629952Y-90886619D02*
X85629952Y-89886619D01*
X85629952Y-89886619D02*
X85868047Y-89886619D01*
X85868047Y-89886619D02*
X86010904Y-89934238D01*
X86010904Y-89934238D02*
X86106142Y-90029476D01*
X86106142Y-90029476D02*
X86153761Y-90124714D01*
X86153761Y-90124714D02*
X86201380Y-90315190D01*
X86201380Y-90315190D02*
X86201380Y-90458047D01*
X86201380Y-90458047D02*
X86153761Y-90648523D01*
X86153761Y-90648523D02*
X86106142Y-90743761D01*
X86106142Y-90743761D02*
X86010904Y-90839000D01*
X86010904Y-90839000D02*
X85868047Y-90886619D01*
X85868047Y-90886619D02*
X85629952Y-90886619D01*
X86582333Y-90600904D02*
X87058523Y-90600904D01*
X86487095Y-90886619D02*
X86820428Y-89886619D01*
X86820428Y-89886619D02*
X87153761Y-90886619D01*
X211280285Y-102586619D02*
X210804095Y-102586619D01*
X210804095Y-102586619D02*
X210756476Y-103062809D01*
X210756476Y-103062809D02*
X210804095Y-103015190D01*
X210804095Y-103015190D02*
X210899333Y-102967571D01*
X210899333Y-102967571D02*
X211137428Y-102967571D01*
X211137428Y-102967571D02*
X211232666Y-103015190D01*
X211232666Y-103015190D02*
X211280285Y-103062809D01*
X211280285Y-103062809D02*
X211327904Y-103158047D01*
X211327904Y-103158047D02*
X211327904Y-103396142D01*
X211327904Y-103396142D02*
X211280285Y-103491380D01*
X211280285Y-103491380D02*
X211232666Y-103539000D01*
X211232666Y-103539000D02*
X211137428Y-103586619D01*
X211137428Y-103586619D02*
X210899333Y-103586619D01*
X210899333Y-103586619D02*
X210804095Y-103539000D01*
X210804095Y-103539000D02*
X210756476Y-103491380D01*
X211613619Y-102586619D02*
X211946952Y-103586619D01*
X211946952Y-103586619D02*
X212280285Y-102586619D01*
X108986619Y-100758714D02*
X108986619Y-101234904D01*
X108986619Y-101234904D02*
X109462809Y-101282523D01*
X109462809Y-101282523D02*
X109415190Y-101234904D01*
X109415190Y-101234904D02*
X109367571Y-101139666D01*
X109367571Y-101139666D02*
X109367571Y-100901571D01*
X109367571Y-100901571D02*
X109415190Y-100806333D01*
X109415190Y-100806333D02*
X109462809Y-100758714D01*
X109462809Y-100758714D02*
X109558047Y-100711095D01*
X109558047Y-100711095D02*
X109796142Y-100711095D01*
X109796142Y-100711095D02*
X109891380Y-100758714D01*
X109891380Y-100758714D02*
X109939000Y-100806333D01*
X109939000Y-100806333D02*
X109986619Y-100901571D01*
X109986619Y-100901571D02*
X109986619Y-101139666D01*
X109986619Y-101139666D02*
X109939000Y-101234904D01*
X109939000Y-101234904D02*
X109891380Y-101282523D01*
X84963285Y-84854238D02*
X84868047Y-84806619D01*
X84868047Y-84806619D02*
X84725190Y-84806619D01*
X84725190Y-84806619D02*
X84582333Y-84854238D01*
X84582333Y-84854238D02*
X84487095Y-84949476D01*
X84487095Y-84949476D02*
X84439476Y-85044714D01*
X84439476Y-85044714D02*
X84391857Y-85235190D01*
X84391857Y-85235190D02*
X84391857Y-85378047D01*
X84391857Y-85378047D02*
X84439476Y-85568523D01*
X84439476Y-85568523D02*
X84487095Y-85663761D01*
X84487095Y-85663761D02*
X84582333Y-85759000D01*
X84582333Y-85759000D02*
X84725190Y-85806619D01*
X84725190Y-85806619D02*
X84820428Y-85806619D01*
X84820428Y-85806619D02*
X84963285Y-85759000D01*
X84963285Y-85759000D02*
X85010904Y-85711380D01*
X85010904Y-85711380D02*
X85010904Y-85378047D01*
X85010904Y-85378047D02*
X84820428Y-85378047D01*
X85439476Y-85806619D02*
X85439476Y-84806619D01*
X85439476Y-84806619D02*
X86010904Y-85806619D01*
X86010904Y-85806619D02*
X86010904Y-84806619D01*
X86487095Y-85806619D02*
X86487095Y-84806619D01*
X86487095Y-84806619D02*
X86725190Y-84806619D01*
X86725190Y-84806619D02*
X86868047Y-84854238D01*
X86868047Y-84854238D02*
X86963285Y-84949476D01*
X86963285Y-84949476D02*
X87010904Y-85044714D01*
X87010904Y-85044714D02*
X87058523Y-85235190D01*
X87058523Y-85235190D02*
X87058523Y-85378047D01*
X87058523Y-85378047D02*
X87010904Y-85568523D01*
X87010904Y-85568523D02*
X86963285Y-85663761D01*
X86963285Y-85663761D02*
X86868047Y-85759000D01*
X86868047Y-85759000D02*
X86725190Y-85806619D01*
X86725190Y-85806619D02*
X86487095Y-85806619D01*
X111859952Y-100679333D02*
X112526619Y-100679333D01*
X111479000Y-100917428D02*
X112193285Y-101155523D01*
X112193285Y-101155523D02*
X112193285Y-100536476D01*
X210756476Y-95919000D02*
X210899333Y-95966619D01*
X210899333Y-95966619D02*
X211137428Y-95966619D01*
X211137428Y-95966619D02*
X211232666Y-95919000D01*
X211232666Y-95919000D02*
X211280285Y-95871380D01*
X211280285Y-95871380D02*
X211327904Y-95776142D01*
X211327904Y-95776142D02*
X211327904Y-95680904D01*
X211327904Y-95680904D02*
X211280285Y-95585666D01*
X211280285Y-95585666D02*
X211232666Y-95538047D01*
X211232666Y-95538047D02*
X211137428Y-95490428D01*
X211137428Y-95490428D02*
X210946952Y-95442809D01*
X210946952Y-95442809D02*
X210851714Y-95395190D01*
X210851714Y-95395190D02*
X210804095Y-95347571D01*
X210804095Y-95347571D02*
X210756476Y-95252333D01*
X210756476Y-95252333D02*
X210756476Y-95157095D01*
X210756476Y-95157095D02*
X210804095Y-95061857D01*
X210804095Y-95061857D02*
X210851714Y-95014238D01*
X210851714Y-95014238D02*
X210946952Y-94966619D01*
X210946952Y-94966619D02*
X211185047Y-94966619D01*
X211185047Y-94966619D02*
X211327904Y-95014238D01*
X212327904Y-95871380D02*
X212280285Y-95919000D01*
X212280285Y-95919000D02*
X212137428Y-95966619D01*
X212137428Y-95966619D02*
X212042190Y-95966619D01*
X212042190Y-95966619D02*
X211899333Y-95919000D01*
X211899333Y-95919000D02*
X211804095Y-95823761D01*
X211804095Y-95823761D02*
X211756476Y-95728523D01*
X211756476Y-95728523D02*
X211708857Y-95538047D01*
X211708857Y-95538047D02*
X211708857Y-95395190D01*
X211708857Y-95395190D02*
X211756476Y-95204714D01*
X211756476Y-95204714D02*
X211804095Y-95109476D01*
X211804095Y-95109476D02*
X211899333Y-95014238D01*
X211899333Y-95014238D02*
X212042190Y-94966619D01*
X212042190Y-94966619D02*
X212137428Y-94966619D01*
X212137428Y-94966619D02*
X212280285Y-95014238D01*
X212280285Y-95014238D02*
X212327904Y-95061857D01*
X212756476Y-95966619D02*
X212756476Y-94966619D01*
X213327904Y-95966619D02*
X212899333Y-95395190D01*
X213327904Y-94966619D02*
X212756476Y-95538047D01*
X188574380Y-101012571D02*
X188574380Y-101107809D01*
X188574380Y-101107809D02*
X188526761Y-101203047D01*
X188526761Y-101203047D02*
X188479142Y-101250666D01*
X188479142Y-101250666D02*
X188383904Y-101298285D01*
X188383904Y-101298285D02*
X188193428Y-101345904D01*
X188193428Y-101345904D02*
X187955333Y-101345904D01*
X187955333Y-101345904D02*
X187764857Y-101298285D01*
X187764857Y-101298285D02*
X187669619Y-101250666D01*
X187669619Y-101250666D02*
X187622000Y-101203047D01*
X187622000Y-101203047D02*
X187574380Y-101107809D01*
X187574380Y-101107809D02*
X187574380Y-101012571D01*
X187574380Y-101012571D02*
X187622000Y-100917333D01*
X187622000Y-100917333D02*
X187669619Y-100869714D01*
X187669619Y-100869714D02*
X187764857Y-100822095D01*
X187764857Y-100822095D02*
X187955333Y-100774476D01*
X187955333Y-100774476D02*
X188193428Y-100774476D01*
X188193428Y-100774476D02*
X188383904Y-100822095D01*
X188383904Y-100822095D02*
X188479142Y-100869714D01*
X188479142Y-100869714D02*
X188526761Y-100917333D01*
X188526761Y-100917333D02*
X188574380Y-101012571D01*
X185161380Y-101345904D02*
X185161380Y-100774476D01*
X185161380Y-101060190D02*
X186161380Y-101060190D01*
X186161380Y-101060190D02*
X186018523Y-100964952D01*
X186018523Y-100964952D02*
X185923285Y-100869714D01*
X185923285Y-100869714D02*
X185875666Y-100774476D01*
X84487095Y-95919000D02*
X84629952Y-95966619D01*
X84629952Y-95966619D02*
X84868047Y-95966619D01*
X84868047Y-95966619D02*
X84963285Y-95919000D01*
X84963285Y-95919000D02*
X85010904Y-95871380D01*
X85010904Y-95871380D02*
X85058523Y-95776142D01*
X85058523Y-95776142D02*
X85058523Y-95680904D01*
X85058523Y-95680904D02*
X85010904Y-95585666D01*
X85010904Y-95585666D02*
X84963285Y-95538047D01*
X84963285Y-95538047D02*
X84868047Y-95490428D01*
X84868047Y-95490428D02*
X84677571Y-95442809D01*
X84677571Y-95442809D02*
X84582333Y-95395190D01*
X84582333Y-95395190D02*
X84534714Y-95347571D01*
X84534714Y-95347571D02*
X84487095Y-95252333D01*
X84487095Y-95252333D02*
X84487095Y-95157095D01*
X84487095Y-95157095D02*
X84534714Y-95061857D01*
X84534714Y-95061857D02*
X84582333Y-95014238D01*
X84582333Y-95014238D02*
X84677571Y-94966619D01*
X84677571Y-94966619D02*
X84915666Y-94966619D01*
X84915666Y-94966619D02*
X85058523Y-95014238D01*
X86058523Y-95871380D02*
X86010904Y-95919000D01*
X86010904Y-95919000D02*
X85868047Y-95966619D01*
X85868047Y-95966619D02*
X85772809Y-95966619D01*
X85772809Y-95966619D02*
X85629952Y-95919000D01*
X85629952Y-95919000D02*
X85534714Y-95823761D01*
X85534714Y-95823761D02*
X85487095Y-95728523D01*
X85487095Y-95728523D02*
X85439476Y-95538047D01*
X85439476Y-95538047D02*
X85439476Y-95395190D01*
X85439476Y-95395190D02*
X85487095Y-95204714D01*
X85487095Y-95204714D02*
X85534714Y-95109476D01*
X85534714Y-95109476D02*
X85629952Y-95014238D01*
X85629952Y-95014238D02*
X85772809Y-94966619D01*
X85772809Y-94966619D02*
X85868047Y-94966619D01*
X85868047Y-94966619D02*
X86010904Y-95014238D01*
X86010904Y-95014238D02*
X86058523Y-95061857D01*
X86487095Y-95966619D02*
X86487095Y-94966619D01*
X87058523Y-95966619D02*
X86629952Y-95395190D01*
X87058523Y-94966619D02*
X86487095Y-95538047D01*
X128951904Y-101635238D02*
X128856666Y-101587619D01*
X128856666Y-101587619D02*
X128713809Y-101587619D01*
X128713809Y-101587619D02*
X128570952Y-101635238D01*
X128570952Y-101635238D02*
X128475714Y-101730476D01*
X128475714Y-101730476D02*
X128428095Y-101825714D01*
X128428095Y-101825714D02*
X128380476Y-102016190D01*
X128380476Y-102016190D02*
X128380476Y-102159047D01*
X128380476Y-102159047D02*
X128428095Y-102349523D01*
X128428095Y-102349523D02*
X128475714Y-102444761D01*
X128475714Y-102444761D02*
X128570952Y-102540000D01*
X128570952Y-102540000D02*
X128713809Y-102587619D01*
X128713809Y-102587619D02*
X128809047Y-102587619D01*
X128809047Y-102587619D02*
X128951904Y-102540000D01*
X128951904Y-102540000D02*
X128999523Y-102492380D01*
X128999523Y-102492380D02*
X128999523Y-102159047D01*
X128999523Y-102159047D02*
X128809047Y-102159047D01*
X129428095Y-102587619D02*
X129428095Y-101587619D01*
X129428095Y-101587619D02*
X129999523Y-102587619D01*
X129999523Y-102587619D02*
X129999523Y-101587619D01*
X130475714Y-102587619D02*
X130475714Y-101587619D01*
X130475714Y-101587619D02*
X130713809Y-101587619D01*
X130713809Y-101587619D02*
X130856666Y-101635238D01*
X130856666Y-101635238D02*
X130951904Y-101730476D01*
X130951904Y-101730476D02*
X130999523Y-101825714D01*
X130999523Y-101825714D02*
X131047142Y-102016190D01*
X131047142Y-102016190D02*
X131047142Y-102159047D01*
X131047142Y-102159047D02*
X130999523Y-102349523D01*
X130999523Y-102349523D02*
X130951904Y-102444761D01*
X130951904Y-102444761D02*
X130856666Y-102540000D01*
X130856666Y-102540000D02*
X130713809Y-102587619D01*
X130713809Y-102587619D02*
X130475714Y-102587619D01*
X210804095Y-101046619D02*
X210804095Y-100046619D01*
X210804095Y-100046619D02*
X211137428Y-100760904D01*
X211137428Y-100760904D02*
X211470761Y-100046619D01*
X211470761Y-100046619D02*
X211470761Y-101046619D01*
X211946952Y-101046619D02*
X211946952Y-100046619D01*
X212375523Y-100999000D02*
X212518380Y-101046619D01*
X212518380Y-101046619D02*
X212756475Y-101046619D01*
X212756475Y-101046619D02*
X212851713Y-100999000D01*
X212851713Y-100999000D02*
X212899332Y-100951380D01*
X212899332Y-100951380D02*
X212946951Y-100856142D01*
X212946951Y-100856142D02*
X212946951Y-100760904D01*
X212946951Y-100760904D02*
X212899332Y-100665666D01*
X212899332Y-100665666D02*
X212851713Y-100618047D01*
X212851713Y-100618047D02*
X212756475Y-100570428D01*
X212756475Y-100570428D02*
X212565999Y-100522809D01*
X212565999Y-100522809D02*
X212470761Y-100475190D01*
X212470761Y-100475190D02*
X212423142Y-100427571D01*
X212423142Y-100427571D02*
X212375523Y-100332333D01*
X212375523Y-100332333D02*
X212375523Y-100237095D01*
X212375523Y-100237095D02*
X212423142Y-100141857D01*
X212423142Y-100141857D02*
X212470761Y-100094238D01*
X212470761Y-100094238D02*
X212565999Y-100046619D01*
X212565999Y-100046619D02*
X212804094Y-100046619D01*
X212804094Y-100046619D02*
X212946951Y-100094238D01*
X213565999Y-100046619D02*
X213756475Y-100046619D01*
X213756475Y-100046619D02*
X213851713Y-100094238D01*
X213851713Y-100094238D02*
X213946951Y-100189476D01*
X213946951Y-100189476D02*
X213994570Y-100379952D01*
X213994570Y-100379952D02*
X213994570Y-100713285D01*
X213994570Y-100713285D02*
X213946951Y-100903761D01*
X213946951Y-100903761D02*
X213851713Y-100999000D01*
X213851713Y-100999000D02*
X213756475Y-101046619D01*
X213756475Y-101046619D02*
X213565999Y-101046619D01*
X213565999Y-101046619D02*
X213470761Y-100999000D01*
X213470761Y-100999000D02*
X213375523Y-100903761D01*
X213375523Y-100903761D02*
X213327904Y-100713285D01*
X213327904Y-100713285D02*
X213327904Y-100379952D01*
X213327904Y-100379952D02*
X213375523Y-100189476D01*
X213375523Y-100189476D02*
X213470761Y-100094238D01*
X213470761Y-100094238D02*
X213565999Y-100046619D01*
X210756476Y-90839000D02*
X210899333Y-90886619D01*
X210899333Y-90886619D02*
X211137428Y-90886619D01*
X211137428Y-90886619D02*
X211232666Y-90839000D01*
X211232666Y-90839000D02*
X211280285Y-90791380D01*
X211280285Y-90791380D02*
X211327904Y-90696142D01*
X211327904Y-90696142D02*
X211327904Y-90600904D01*
X211327904Y-90600904D02*
X211280285Y-90505666D01*
X211280285Y-90505666D02*
X211232666Y-90458047D01*
X211232666Y-90458047D02*
X211137428Y-90410428D01*
X211137428Y-90410428D02*
X210946952Y-90362809D01*
X210946952Y-90362809D02*
X210851714Y-90315190D01*
X210851714Y-90315190D02*
X210804095Y-90267571D01*
X210804095Y-90267571D02*
X210756476Y-90172333D01*
X210756476Y-90172333D02*
X210756476Y-90077095D01*
X210756476Y-90077095D02*
X210804095Y-89981857D01*
X210804095Y-89981857D02*
X210851714Y-89934238D01*
X210851714Y-89934238D02*
X210946952Y-89886619D01*
X210946952Y-89886619D02*
X211185047Y-89886619D01*
X211185047Y-89886619D02*
X211327904Y-89934238D01*
X211756476Y-90886619D02*
X211756476Y-89886619D01*
X211756476Y-89886619D02*
X211994571Y-89886619D01*
X211994571Y-89886619D02*
X212137428Y-89934238D01*
X212137428Y-89934238D02*
X212232666Y-90029476D01*
X212232666Y-90029476D02*
X212280285Y-90124714D01*
X212280285Y-90124714D02*
X212327904Y-90315190D01*
X212327904Y-90315190D02*
X212327904Y-90458047D01*
X212327904Y-90458047D02*
X212280285Y-90648523D01*
X212280285Y-90648523D02*
X212232666Y-90743761D01*
X212232666Y-90743761D02*
X212137428Y-90839000D01*
X212137428Y-90839000D02*
X211994571Y-90886619D01*
X211994571Y-90886619D02*
X211756476Y-90886619D01*
X212708857Y-90600904D02*
X213185047Y-90600904D01*
X212613619Y-90886619D02*
X212946952Y-89886619D01*
X212946952Y-89886619D02*
X213280285Y-90886619D01*
X84677571Y-93379000D02*
X84820428Y-93426619D01*
X84820428Y-93426619D02*
X85058523Y-93426619D01*
X85058523Y-93426619D02*
X85153761Y-93379000D01*
X85153761Y-93379000D02*
X85201380Y-93331380D01*
X85201380Y-93331380D02*
X85248999Y-93236142D01*
X85248999Y-93236142D02*
X85248999Y-93140904D01*
X85248999Y-93140904D02*
X85201380Y-93045666D01*
X85201380Y-93045666D02*
X85153761Y-92998047D01*
X85153761Y-92998047D02*
X85058523Y-92950428D01*
X85058523Y-92950428D02*
X84868047Y-92902809D01*
X84868047Y-92902809D02*
X84772809Y-92855190D01*
X84772809Y-92855190D02*
X84725190Y-92807571D01*
X84725190Y-92807571D02*
X84677571Y-92712333D01*
X84677571Y-92712333D02*
X84677571Y-92617095D01*
X84677571Y-92617095D02*
X84725190Y-92521857D01*
X84725190Y-92521857D02*
X84772809Y-92474238D01*
X84772809Y-92474238D02*
X84868047Y-92426619D01*
X84868047Y-92426619D02*
X85106142Y-92426619D01*
X85106142Y-92426619D02*
X85248999Y-92474238D01*
X86248999Y-93331380D02*
X86201380Y-93379000D01*
X86201380Y-93379000D02*
X86058523Y-93426619D01*
X86058523Y-93426619D02*
X85963285Y-93426619D01*
X85963285Y-93426619D02*
X85820428Y-93379000D01*
X85820428Y-93379000D02*
X85725190Y-93283761D01*
X85725190Y-93283761D02*
X85677571Y-93188523D01*
X85677571Y-93188523D02*
X85629952Y-92998047D01*
X85629952Y-92998047D02*
X85629952Y-92855190D01*
X85629952Y-92855190D02*
X85677571Y-92664714D01*
X85677571Y-92664714D02*
X85725190Y-92569476D01*
X85725190Y-92569476D02*
X85820428Y-92474238D01*
X85820428Y-92474238D02*
X85963285Y-92426619D01*
X85963285Y-92426619D02*
X86058523Y-92426619D01*
X86058523Y-92426619D02*
X86201380Y-92474238D01*
X86201380Y-92474238D02*
X86248999Y-92521857D01*
X87153761Y-93426619D02*
X86677571Y-93426619D01*
X86677571Y-93426619D02*
X86677571Y-92426619D01*
X183399142Y-100774476D02*
X183446761Y-100822095D01*
X183446761Y-100822095D02*
X183494380Y-100917333D01*
X183494380Y-100917333D02*
X183494380Y-101155428D01*
X183494380Y-101155428D02*
X183446761Y-101250666D01*
X183446761Y-101250666D02*
X183399142Y-101298285D01*
X183399142Y-101298285D02*
X183303904Y-101345904D01*
X183303904Y-101345904D02*
X183208666Y-101345904D01*
X183208666Y-101345904D02*
X183065809Y-101298285D01*
X183065809Y-101298285D02*
X182494380Y-100726857D01*
X182494380Y-100726857D02*
X182494380Y-101345904D01*
X210804095Y-98506619D02*
X210804095Y-97506619D01*
X210804095Y-97506619D02*
X211137428Y-98220904D01*
X211137428Y-98220904D02*
X211470761Y-97506619D01*
X211470761Y-97506619D02*
X211470761Y-98506619D01*
X212137428Y-97506619D02*
X212327904Y-97506619D01*
X212327904Y-97506619D02*
X212423142Y-97554238D01*
X212423142Y-97554238D02*
X212518380Y-97649476D01*
X212518380Y-97649476D02*
X212565999Y-97839952D01*
X212565999Y-97839952D02*
X212565999Y-98173285D01*
X212565999Y-98173285D02*
X212518380Y-98363761D01*
X212518380Y-98363761D02*
X212423142Y-98459000D01*
X212423142Y-98459000D02*
X212327904Y-98506619D01*
X212327904Y-98506619D02*
X212137428Y-98506619D01*
X212137428Y-98506619D02*
X212042190Y-98459000D01*
X212042190Y-98459000D02*
X211946952Y-98363761D01*
X211946952Y-98363761D02*
X211899333Y-98173285D01*
X211899333Y-98173285D02*
X211899333Y-97839952D01*
X211899333Y-97839952D02*
X211946952Y-97649476D01*
X211946952Y-97649476D02*
X212042190Y-97554238D01*
X212042190Y-97554238D02*
X212137428Y-97506619D01*
X212946952Y-98459000D02*
X213089809Y-98506619D01*
X213089809Y-98506619D02*
X213327904Y-98506619D01*
X213327904Y-98506619D02*
X213423142Y-98459000D01*
X213423142Y-98459000D02*
X213470761Y-98411380D01*
X213470761Y-98411380D02*
X213518380Y-98316142D01*
X213518380Y-98316142D02*
X213518380Y-98220904D01*
X213518380Y-98220904D02*
X213470761Y-98125666D01*
X213470761Y-98125666D02*
X213423142Y-98078047D01*
X213423142Y-98078047D02*
X213327904Y-98030428D01*
X213327904Y-98030428D02*
X213137428Y-97982809D01*
X213137428Y-97982809D02*
X213042190Y-97935190D01*
X213042190Y-97935190D02*
X212994571Y-97887571D01*
X212994571Y-97887571D02*
X212946952Y-97792333D01*
X212946952Y-97792333D02*
X212946952Y-97697095D01*
X212946952Y-97697095D02*
X212994571Y-97601857D01*
X212994571Y-97601857D02*
X213042190Y-97554238D01*
X213042190Y-97554238D02*
X213137428Y-97506619D01*
X213137428Y-97506619D02*
X213375523Y-97506619D01*
X213375523Y-97506619D02*
X213518380Y-97554238D01*
X213946952Y-98506619D02*
X213946952Y-97506619D01*
X210756476Y-93379000D02*
X210899333Y-93426619D01*
X210899333Y-93426619D02*
X211137428Y-93426619D01*
X211137428Y-93426619D02*
X211232666Y-93379000D01*
X211232666Y-93379000D02*
X211280285Y-93331380D01*
X211280285Y-93331380D02*
X211327904Y-93236142D01*
X211327904Y-93236142D02*
X211327904Y-93140904D01*
X211327904Y-93140904D02*
X211280285Y-93045666D01*
X211280285Y-93045666D02*
X211232666Y-92998047D01*
X211232666Y-92998047D02*
X211137428Y-92950428D01*
X211137428Y-92950428D02*
X210946952Y-92902809D01*
X210946952Y-92902809D02*
X210851714Y-92855190D01*
X210851714Y-92855190D02*
X210804095Y-92807571D01*
X210804095Y-92807571D02*
X210756476Y-92712333D01*
X210756476Y-92712333D02*
X210756476Y-92617095D01*
X210756476Y-92617095D02*
X210804095Y-92521857D01*
X210804095Y-92521857D02*
X210851714Y-92474238D01*
X210851714Y-92474238D02*
X210946952Y-92426619D01*
X210946952Y-92426619D02*
X211185047Y-92426619D01*
X211185047Y-92426619D02*
X211327904Y-92474238D01*
X212327904Y-93331380D02*
X212280285Y-93379000D01*
X212280285Y-93379000D02*
X212137428Y-93426619D01*
X212137428Y-93426619D02*
X212042190Y-93426619D01*
X212042190Y-93426619D02*
X211899333Y-93379000D01*
X211899333Y-93379000D02*
X211804095Y-93283761D01*
X211804095Y-93283761D02*
X211756476Y-93188523D01*
X211756476Y-93188523D02*
X211708857Y-92998047D01*
X211708857Y-92998047D02*
X211708857Y-92855190D01*
X211708857Y-92855190D02*
X211756476Y-92664714D01*
X211756476Y-92664714D02*
X211804095Y-92569476D01*
X211804095Y-92569476D02*
X211899333Y-92474238D01*
X211899333Y-92474238D02*
X212042190Y-92426619D01*
X212042190Y-92426619D02*
X212137428Y-92426619D01*
X212137428Y-92426619D02*
X212280285Y-92474238D01*
X212280285Y-92474238D02*
X212327904Y-92521857D01*
X213232666Y-93426619D02*
X212756476Y-93426619D01*
X212756476Y-93426619D02*
X212756476Y-92426619D01*
X114193619Y-101330142D02*
X114193619Y-100711095D01*
X114193619Y-100711095D02*
X114574571Y-101044428D01*
X114574571Y-101044428D02*
X114574571Y-100901571D01*
X114574571Y-100901571D02*
X114622190Y-100806333D01*
X114622190Y-100806333D02*
X114669809Y-100758714D01*
X114669809Y-100758714D02*
X114765047Y-100711095D01*
X114765047Y-100711095D02*
X115003142Y-100711095D01*
X115003142Y-100711095D02*
X115098380Y-100758714D01*
X115098380Y-100758714D02*
X115146000Y-100806333D01*
X115146000Y-100806333D02*
X115193619Y-100901571D01*
X115193619Y-100901571D02*
X115193619Y-101187285D01*
X115193619Y-101187285D02*
X115146000Y-101282523D01*
X115146000Y-101282523D02*
X115098380Y-101330142D01*
X84629952Y-87346619D02*
X85248999Y-87346619D01*
X85248999Y-87346619D02*
X84915666Y-87727571D01*
X84915666Y-87727571D02*
X85058523Y-87727571D01*
X85058523Y-87727571D02*
X85153761Y-87775190D01*
X85153761Y-87775190D02*
X85201380Y-87822809D01*
X85201380Y-87822809D02*
X85248999Y-87918047D01*
X85248999Y-87918047D02*
X85248999Y-88156142D01*
X85248999Y-88156142D02*
X85201380Y-88251380D01*
X85201380Y-88251380D02*
X85153761Y-88299000D01*
X85153761Y-88299000D02*
X85058523Y-88346619D01*
X85058523Y-88346619D02*
X84772809Y-88346619D01*
X84772809Y-88346619D02*
X84677571Y-88299000D01*
X84677571Y-88299000D02*
X84629952Y-88251380D01*
X85534714Y-87346619D02*
X85868047Y-88346619D01*
X85868047Y-88346619D02*
X86201380Y-87346619D01*
X86439476Y-87346619D02*
X87058523Y-87346619D01*
X87058523Y-87346619D02*
X86725190Y-87727571D01*
X86725190Y-87727571D02*
X86868047Y-87727571D01*
X86868047Y-87727571D02*
X86963285Y-87775190D01*
X86963285Y-87775190D02*
X87010904Y-87822809D01*
X87010904Y-87822809D02*
X87058523Y-87918047D01*
X87058523Y-87918047D02*
X87058523Y-88156142D01*
X87058523Y-88156142D02*
X87010904Y-88251380D01*
X87010904Y-88251380D02*
X86963285Y-88299000D01*
X86963285Y-88299000D02*
X86868047Y-88346619D01*
X86868047Y-88346619D02*
X86582333Y-88346619D01*
X86582333Y-88346619D02*
X86487095Y-88299000D01*
X86487095Y-88299000D02*
X86439476Y-88251380D01*
X148423619Y-101736904D02*
X149233142Y-101736904D01*
X149233142Y-101736904D02*
X149328380Y-101689285D01*
X149328380Y-101689285D02*
X149376000Y-101641666D01*
X149376000Y-101641666D02*
X149423619Y-101546428D01*
X149423619Y-101546428D02*
X149423619Y-101355952D01*
X149423619Y-101355952D02*
X149376000Y-101260714D01*
X149376000Y-101260714D02*
X149328380Y-101213095D01*
X149328380Y-101213095D02*
X149233142Y-101165476D01*
X149233142Y-101165476D02*
X148423619Y-101165476D01*
X149423619Y-100165476D02*
X149423619Y-100736904D01*
X149423619Y-100451190D02*
X148423619Y-100451190D01*
X148423619Y-100451190D02*
X148566476Y-100546428D01*
X148566476Y-100546428D02*
X148661714Y-100641666D01*
X148661714Y-100641666D02*
X148709333Y-100736904D01*
X171267619Y-101766666D02*
X170791428Y-102099999D01*
X171267619Y-102338094D02*
X170267619Y-102338094D01*
X170267619Y-102338094D02*
X170267619Y-101957142D01*
X170267619Y-101957142D02*
X170315238Y-101861904D01*
X170315238Y-101861904D02*
X170362857Y-101814285D01*
X170362857Y-101814285D02*
X170458095Y-101766666D01*
X170458095Y-101766666D02*
X170600952Y-101766666D01*
X170600952Y-101766666D02*
X170696190Y-101814285D01*
X170696190Y-101814285D02*
X170743809Y-101861904D01*
X170743809Y-101861904D02*
X170791428Y-101957142D01*
X170791428Y-101957142D02*
X170791428Y-102338094D01*
X170362857Y-101385713D02*
X170315238Y-101338094D01*
X170315238Y-101338094D02*
X170267619Y-101242856D01*
X170267619Y-101242856D02*
X170267619Y-101004761D01*
X170267619Y-101004761D02*
X170315238Y-100909523D01*
X170315238Y-100909523D02*
X170362857Y-100861904D01*
X170362857Y-100861904D02*
X170458095Y-100814285D01*
X170458095Y-100814285D02*
X170553333Y-100814285D01*
X170553333Y-100814285D02*
X170696190Y-100861904D01*
X170696190Y-100861904D02*
X171267619Y-101433332D01*
X171267619Y-101433332D02*
X171267619Y-100814285D01*
X134596380Y-101776666D02*
X134644000Y-101824285D01*
X134644000Y-101824285D02*
X134691619Y-101967142D01*
X134691619Y-101967142D02*
X134691619Y-102062380D01*
X134691619Y-102062380D02*
X134644000Y-102205237D01*
X134644000Y-102205237D02*
X134548761Y-102300475D01*
X134548761Y-102300475D02*
X134453523Y-102348094D01*
X134453523Y-102348094D02*
X134263047Y-102395713D01*
X134263047Y-102395713D02*
X134120190Y-102395713D01*
X134120190Y-102395713D02*
X133929714Y-102348094D01*
X133929714Y-102348094D02*
X133834476Y-102300475D01*
X133834476Y-102300475D02*
X133739238Y-102205237D01*
X133739238Y-102205237D02*
X133691619Y-102062380D01*
X133691619Y-102062380D02*
X133691619Y-101967142D01*
X133691619Y-101967142D02*
X133739238Y-101824285D01*
X133739238Y-101824285D02*
X133786857Y-101776666D01*
X134691619Y-100824285D02*
X134691619Y-101395713D01*
X134691619Y-101109999D02*
X133691619Y-101109999D01*
X133691619Y-101109999D02*
X133834476Y-101205237D01*
X133834476Y-101205237D02*
X133929714Y-101300475D01*
X133929714Y-101300475D02*
X133977333Y-101395713D01*
X165298619Y-101766666D02*
X164822428Y-102099999D01*
X165298619Y-102338094D02*
X164298619Y-102338094D01*
X164298619Y-102338094D02*
X164298619Y-101957142D01*
X164298619Y-101957142D02*
X164346238Y-101861904D01*
X164346238Y-101861904D02*
X164393857Y-101814285D01*
X164393857Y-101814285D02*
X164489095Y-101766666D01*
X164489095Y-101766666D02*
X164631952Y-101766666D01*
X164631952Y-101766666D02*
X164727190Y-101814285D01*
X164727190Y-101814285D02*
X164774809Y-101861904D01*
X164774809Y-101861904D02*
X164822428Y-101957142D01*
X164822428Y-101957142D02*
X164822428Y-102338094D01*
X164298619Y-101433332D02*
X164298619Y-100814285D01*
X164298619Y-100814285D02*
X164679571Y-101147618D01*
X164679571Y-101147618D02*
X164679571Y-101004761D01*
X164679571Y-101004761D02*
X164727190Y-100909523D01*
X164727190Y-100909523D02*
X164774809Y-100861904D01*
X164774809Y-100861904D02*
X164870047Y-100814285D01*
X164870047Y-100814285D02*
X165108142Y-100814285D01*
X165108142Y-100814285D02*
X165203380Y-100861904D01*
X165203380Y-100861904D02*
X165251000Y-100909523D01*
X165251000Y-100909523D02*
X165298619Y-101004761D01*
X165298619Y-101004761D02*
X165298619Y-101290475D01*
X165298619Y-101290475D02*
X165251000Y-101385713D01*
X165251000Y-101385713D02*
X165203380Y-101433332D01*
X168219619Y-101903666D02*
X167743428Y-102236999D01*
X168219619Y-102475094D02*
X167219619Y-102475094D01*
X167219619Y-102475094D02*
X167219619Y-102094142D01*
X167219619Y-102094142D02*
X167267238Y-101998904D01*
X167267238Y-101998904D02*
X167314857Y-101951285D01*
X167314857Y-101951285D02*
X167410095Y-101903666D01*
X167410095Y-101903666D02*
X167552952Y-101903666D01*
X167552952Y-101903666D02*
X167648190Y-101951285D01*
X167648190Y-101951285D02*
X167695809Y-101998904D01*
X167695809Y-101998904D02*
X167743428Y-102094142D01*
X167743428Y-102094142D02*
X167743428Y-102475094D01*
X167219619Y-101570332D02*
X167219619Y-100903666D01*
X167219619Y-100903666D02*
X168219619Y-101332237D01*
D11*
X137481000Y-103615000D02*
X160461000Y-103615000D01*
X160461000Y-103615000D02*
X160461000Y-98315000D01*
X137481000Y-101965000D02*
X137481000Y-103615000D01*
X137481000Y-98315000D02*
X137481000Y-99965000D01*
X160461000Y-98315000D02*
X137481000Y-98315000D01*
X137481000Y-101965000D02*
G75*
G03*
X137481000Y-99965000I0J1000000D01*
G01*
X149874000Y-76725000D02*
X165894000Y-76725000D01*
X149874000Y-80165000D02*
X149874000Y-76725000D01*
X149874000Y-95595000D02*
X149874000Y-83665000D01*
X149874000Y-95595000D02*
X165894000Y-95595000D01*
X165894000Y-80165000D02*
X165894000Y-76725000D01*
X165894000Y-95595000D02*
X165894000Y-83665000D01*
X166262000Y-91315000D02*
X166770000Y-91823000D01*
X166770000Y-90807000D02*
X166262000Y-91315000D01*
X166770000Y-91823000D02*
X166770000Y-90807000D01*
X114060000Y-76725000D02*
X130080000Y-76725000D01*
X114060000Y-80165000D02*
X114060000Y-76725000D01*
X114060000Y-95595000D02*
X114060000Y-83665000D01*
X114060000Y-95595000D02*
X130080000Y-95595000D01*
X130080000Y-80165000D02*
X130080000Y-76725000D01*
X130080000Y-95595000D02*
X130080000Y-83665000D01*
X130448000Y-91315000D02*
X130956000Y-91823000D01*
X130956000Y-90807000D02*
X130448000Y-91315000D01*
X130956000Y-91823000D02*
X130956000Y-90807000D01*
X121261000Y-102972000D02*
X120661000Y-102972000D01*
X122461000Y-102422000D02*
X122461000Y-101822000D01*
X119961000Y-102322000D02*
X119961000Y-99522000D01*
X122161000Y-102122000D02*
X122461000Y-102422000D01*
X122161000Y-102122000D02*
X122461000Y-101822000D01*
X121961000Y-99522000D02*
X121961000Y-102322000D01*
X120661000Y-98872000D02*
X121261000Y-98872000D01*
X119961000Y-102272000D02*
G75*
G03*
X120661000Y-102972000I699999J-1D01*
G01*
X121261000Y-102972000D02*
G75*
G03*
X121961000Y-102272000I1J699999D01*
G01*
X120661000Y-98872000D02*
G75*
G03*
X119961000Y-99572000I0J-700000D01*
G01*
X121961000Y-99572000D02*
G75*
G03*
X121261000Y-98872000I-700000J0D01*
G01*
X114681000Y-98322000D02*
X114681000Y-98972000D01*
X115801000Y-98972000D02*
X113561000Y-98972000D01*
X113561000Y-98972000D02*
X113561000Y-103212000D01*
X113561000Y-102372000D02*
X115801000Y-102372000D01*
X113561000Y-102492000D02*
X115801000Y-102492000D01*
X113561000Y-102612000D02*
X115801000Y-102612000D01*
X115801000Y-103212000D02*
X115801000Y-98972000D01*
X113561000Y-103212000D02*
X115801000Y-103212000D01*
X114681000Y-103862000D02*
X114681000Y-103212000D01*
X209391000Y-83674000D02*
X205391000Y-83674000D01*
X210421000Y-83964000D02*
X204401000Y-83964000D01*
X204401000Y-83964000D02*
X204401000Y-104504000D01*
X210421000Y-84544000D02*
X209821000Y-84544000D01*
X209821000Y-84544000D02*
X209821000Y-86144000D01*
X205401000Y-85344000D02*
X205931000Y-85594000D01*
X205401000Y-85344000D02*
X205401000Y-90424000D01*
X204401000Y-85344000D02*
X205401000Y-85344000D01*
X205931000Y-85594000D02*
X205931000Y-90424000D01*
X204401000Y-85594000D02*
X205401000Y-85594000D01*
X209821000Y-86144000D02*
X210421000Y-86144000D01*
X210421000Y-87084000D02*
X209821000Y-87084000D01*
X209821000Y-87084000D02*
X209821000Y-88684000D01*
X209821000Y-88684000D02*
X210421000Y-88684000D01*
X210421000Y-89624000D02*
X209821000Y-89624000D01*
X209821000Y-89624000D02*
X209821000Y-91224000D01*
X205931000Y-90424000D02*
X205401000Y-90424000D01*
X205401000Y-90424000D02*
X204401000Y-90424000D01*
X209821000Y-91224000D02*
X210421000Y-91224000D01*
X210421000Y-92164000D02*
X209821000Y-92164000D01*
X209821000Y-92164000D02*
X209821000Y-93764000D01*
X209821000Y-93764000D02*
X210421000Y-93764000D01*
X210421000Y-94704000D02*
X209821000Y-94704000D01*
X209821000Y-94704000D02*
X209821000Y-96304000D01*
X209821000Y-96304000D02*
X210421000Y-96304000D01*
X210421000Y-97244000D02*
X209821000Y-97244000D01*
X209821000Y-97244000D02*
X209821000Y-98844000D01*
X205931000Y-98044000D02*
X205401000Y-98044000D01*
X205401000Y-98044000D02*
X204401000Y-98044000D01*
X209821000Y-98844000D02*
X210421000Y-98844000D01*
X210421000Y-99784000D02*
X209821000Y-99784000D01*
X209821000Y-99784000D02*
X209821000Y-101384000D01*
X209821000Y-101384000D02*
X210421000Y-101384000D01*
X210421000Y-102324000D02*
X209821000Y-102324000D01*
X209821000Y-102324000D02*
X209821000Y-103924000D01*
X205931000Y-102874000D02*
X205931000Y-98044000D01*
X204401000Y-102874000D02*
X205401000Y-102874000D01*
X205401000Y-103124000D02*
X205401000Y-98044000D01*
X205401000Y-103124000D02*
X205931000Y-102874000D01*
X204401000Y-103124000D02*
X205401000Y-103124000D01*
X209821000Y-103924000D02*
X210421000Y-103924000D01*
X210421000Y-104504000D02*
X210421000Y-83964000D01*
X204401000Y-104504000D02*
X210421000Y-104504000D01*
X185547000Y-103989000D02*
X185547000Y-103339000D01*
X184427000Y-103339000D02*
X186667000Y-103339000D01*
X186667000Y-103339000D02*
X186667000Y-99099000D01*
X184427000Y-102739000D02*
X186667000Y-102739000D01*
X184427000Y-102619000D02*
X186667000Y-102619000D01*
X184427000Y-102499000D02*
X186667000Y-102499000D01*
X184427000Y-99099000D02*
X184427000Y-103339000D01*
X186667000Y-99099000D02*
X184427000Y-99099000D01*
X185547000Y-98449000D02*
X185547000Y-99099000D01*
X169445000Y-104870000D02*
X169445000Y-98330000D01*
X169775000Y-104870000D02*
X169445000Y-104870000D01*
X171855000Y-104870000D02*
X172185000Y-104870000D01*
X172185000Y-104870000D02*
X172185000Y-98330000D01*
X169445000Y-98330000D02*
X169775000Y-98330000D01*
X172185000Y-98330000D02*
X171855000Y-98330000D01*
X126849000Y-102972000D02*
X126249000Y-102972000D01*
X128049000Y-102422000D02*
X128049000Y-101822000D01*
X125549000Y-102322000D02*
X125549000Y-99522000D01*
X127749000Y-102122000D02*
X128049000Y-102422000D01*
X127749000Y-102122000D02*
X128049000Y-101822000D01*
X127549000Y-99522000D02*
X127549000Y-102322000D01*
X126249000Y-98872000D02*
X126849000Y-98872000D01*
X125549000Y-102272000D02*
G75*
G03*
X126249000Y-102972000I699999J-1D01*
G01*
X126849000Y-102972000D02*
G75*
G03*
X127549000Y-102272000I1J699999D01*
G01*
X126249000Y-98872000D02*
G75*
G03*
X125549000Y-99572000I0J-700000D01*
G01*
X127549000Y-99572000D02*
G75*
G03*
X126849000Y-98872000I-700000J0D01*
G01*
X96234000Y-76725000D02*
X112254000Y-76725000D01*
X96234000Y-80165000D02*
X96234000Y-76725000D01*
X96234000Y-95595000D02*
X96234000Y-83665000D01*
X96234000Y-95595000D02*
X112254000Y-95595000D01*
X112254000Y-80165000D02*
X112254000Y-76725000D01*
X112254000Y-95595000D02*
X112254000Y-83665000D01*
X112622000Y-91315000D02*
X113130000Y-91823000D01*
X113130000Y-90807000D02*
X112622000Y-91315000D01*
X113130000Y-91823000D02*
X113130000Y-90807000D01*
X202584000Y-91823000D02*
X202584000Y-90807000D01*
X202584000Y-90807000D02*
X202076000Y-91315000D01*
X202076000Y-91315000D02*
X202584000Y-91823000D01*
X201708000Y-95595000D02*
X201708000Y-83665000D01*
X201708000Y-80165000D02*
X201708000Y-76725000D01*
X185688000Y-95595000D02*
X201708000Y-95595000D01*
X185688000Y-95595000D02*
X185688000Y-83665000D01*
X185688000Y-80165000D02*
X185688000Y-76725000D01*
X185688000Y-76725000D02*
X201708000Y-76725000D01*
X183007000Y-103989000D02*
X183007000Y-103339000D01*
X181887000Y-103339000D02*
X184127000Y-103339000D01*
X184127000Y-103339000D02*
X184127000Y-99099000D01*
X181887000Y-102739000D02*
X184127000Y-102739000D01*
X181887000Y-102619000D02*
X184127000Y-102619000D01*
X181887000Y-102499000D02*
X184127000Y-102499000D01*
X181887000Y-99099000D02*
X181887000Y-103339000D01*
X184127000Y-99099000D02*
X181887000Y-99099000D01*
X183007000Y-98449000D02*
X183007000Y-99099000D01*
X132869000Y-104720000D02*
X133314000Y-104720000D01*
X132869000Y-104720000D02*
X132869000Y-98480000D01*
X135164000Y-104720000D02*
X135609000Y-104720000D01*
X135609000Y-104720000D02*
X135609000Y-98480000D01*
X132869000Y-98480000D02*
X133314000Y-98480000D01*
X135164000Y-98480000D02*
X135609000Y-98480000D01*
X188087000Y-103989000D02*
X188087000Y-103339000D01*
X186967000Y-103339000D02*
X189207000Y-103339000D01*
X189207000Y-103339000D02*
X189207000Y-99099000D01*
X186967000Y-102739000D02*
X189207000Y-102739000D01*
X186967000Y-102619000D02*
X189207000Y-102619000D01*
X186967000Y-102499000D02*
X189207000Y-102499000D01*
X186967000Y-99099000D02*
X186967000Y-103339000D01*
X189207000Y-99099000D02*
X186967000Y-99099000D01*
X188087000Y-98449000D02*
X188087000Y-99099000D01*
X88424000Y-104794000D02*
X92424000Y-104794000D01*
X87394000Y-104504000D02*
X93414000Y-104504000D01*
X93414000Y-104504000D02*
X93414000Y-83964000D01*
X87394000Y-103924000D02*
X87994000Y-103924000D01*
X87994000Y-103924000D02*
X87994000Y-102324000D01*
X92414000Y-103124000D02*
X91884000Y-102874000D01*
X92414000Y-103124000D02*
X92414000Y-98044000D01*
X93414000Y-103124000D02*
X92414000Y-103124000D01*
X91884000Y-102874000D02*
X91884000Y-98044000D01*
X93414000Y-102874000D02*
X92414000Y-102874000D01*
X87994000Y-102324000D02*
X87394000Y-102324000D01*
X87394000Y-101384000D02*
X87994000Y-101384000D01*
X87994000Y-101384000D02*
X87994000Y-99784000D01*
X87994000Y-99784000D02*
X87394000Y-99784000D01*
X87394000Y-98844000D02*
X87994000Y-98844000D01*
X87994000Y-98844000D02*
X87994000Y-97244000D01*
X91884000Y-98044000D02*
X92414000Y-98044000D01*
X92414000Y-98044000D02*
X93414000Y-98044000D01*
X87994000Y-97244000D02*
X87394000Y-97244000D01*
X87394000Y-96304000D02*
X87994000Y-96304000D01*
X87994000Y-96304000D02*
X87994000Y-94704000D01*
X87994000Y-94704000D02*
X87394000Y-94704000D01*
X87394000Y-93764000D02*
X87994000Y-93764000D01*
X87994000Y-93764000D02*
X87994000Y-92164000D01*
X87994000Y-92164000D02*
X87394000Y-92164000D01*
X87394000Y-91224000D02*
X87994000Y-91224000D01*
X87994000Y-91224000D02*
X87994000Y-89624000D01*
X91884000Y-90424000D02*
X92414000Y-90424000D01*
X92414000Y-90424000D02*
X93414000Y-90424000D01*
X87994000Y-89624000D02*
X87394000Y-89624000D01*
X87394000Y-88684000D02*
X87994000Y-88684000D01*
X87994000Y-88684000D02*
X87994000Y-87084000D01*
X87994000Y-87084000D02*
X87394000Y-87084000D01*
X87394000Y-86144000D02*
X87994000Y-86144000D01*
X87994000Y-86144000D02*
X87994000Y-84544000D01*
X91884000Y-85594000D02*
X91884000Y-90424000D01*
X93414000Y-85594000D02*
X92414000Y-85594000D01*
X92414000Y-85344000D02*
X92414000Y-90424000D01*
X92414000Y-85344000D02*
X91884000Y-85594000D01*
X93414000Y-85344000D02*
X92414000Y-85344000D01*
X87994000Y-84544000D02*
X87394000Y-84544000D01*
X87394000Y-83964000D02*
X87394000Y-104504000D01*
X93414000Y-83964000D02*
X87394000Y-83964000D01*
X124055000Y-102972000D02*
X123455000Y-102972000D01*
X125255000Y-102422000D02*
X125255000Y-101822000D01*
X122755000Y-102322000D02*
X122755000Y-99522000D01*
X124955000Y-102122000D02*
X125255000Y-102422000D01*
X124955000Y-102122000D02*
X125255000Y-101822000D01*
X124755000Y-99522000D02*
X124755000Y-102322000D01*
X123455000Y-98872000D02*
X124055000Y-98872000D01*
X122755000Y-102272000D02*
G75*
G03*
X123455000Y-102972000I699999J-1D01*
G01*
X124055000Y-102972000D02*
G75*
G03*
X124755000Y-102272000I1J699999D01*
G01*
X123455000Y-98872000D02*
G75*
G03*
X122755000Y-99572000I0J-700000D01*
G01*
X124755000Y-99572000D02*
G75*
G03*
X124055000Y-98872000I-700000J0D01*
G01*
X109601000Y-103862000D02*
X109601000Y-103212000D01*
X108481000Y-103212000D02*
X110721000Y-103212000D01*
X110721000Y-103212000D02*
X110721000Y-98972000D01*
X108481000Y-102612000D02*
X110721000Y-102612000D01*
X108481000Y-102492000D02*
X110721000Y-102492000D01*
X108481000Y-102372000D02*
X110721000Y-102372000D01*
X108481000Y-98972000D02*
X108481000Y-103212000D01*
X110721000Y-98972000D02*
X108481000Y-98972000D01*
X109601000Y-98322000D02*
X109601000Y-98972000D01*
X163476000Y-104870000D02*
X163476000Y-98330000D01*
X163806000Y-104870000D02*
X163476000Y-104870000D01*
X165886000Y-104870000D02*
X166216000Y-104870000D01*
X166216000Y-104870000D02*
X166216000Y-98330000D01*
X163476000Y-98330000D02*
X163806000Y-98330000D01*
X166216000Y-98330000D02*
X165886000Y-98330000D01*
X166397000Y-104870000D02*
X166397000Y-98330000D01*
X166727000Y-104870000D02*
X166397000Y-104870000D01*
X168807000Y-104870000D02*
X169137000Y-104870000D01*
X169137000Y-104870000D02*
X169137000Y-98330000D01*
X166397000Y-98330000D02*
X166727000Y-98330000D01*
X169137000Y-98330000D02*
X168807000Y-98330000D01*
X112141000Y-98322000D02*
X112141000Y-98972000D01*
X113261000Y-98972000D02*
X111021000Y-98972000D01*
X111021000Y-98972000D02*
X111021000Y-103212000D01*
X111021000Y-102372000D02*
X113261000Y-102372000D01*
X111021000Y-102492000D02*
X113261000Y-102492000D01*
X111021000Y-102612000D02*
X113261000Y-102612000D01*
X113261000Y-103212000D02*
X113261000Y-98972000D01*
X111021000Y-103212000D02*
X113261000Y-103212000D01*
X112141000Y-103862000D02*
X112141000Y-103212000D01*
X131967000Y-76725000D02*
X147987000Y-76725000D01*
X131967000Y-80165000D02*
X131967000Y-76725000D01*
X131967000Y-95595000D02*
X131967000Y-83665000D01*
X131967000Y-95595000D02*
X147987000Y-95595000D01*
X147987000Y-80165000D02*
X147987000Y-76725000D01*
X147987000Y-95595000D02*
X147987000Y-83665000D01*
X148355000Y-91315000D02*
X148863000Y-91823000D01*
X148863000Y-90807000D02*
X148355000Y-91315000D01*
X148863000Y-91823000D02*
X148863000Y-90807000D01*
X167781000Y-76725000D02*
X183801000Y-76725000D01*
X167781000Y-80165000D02*
X167781000Y-76725000D01*
X167781000Y-95595000D02*
X167781000Y-83665000D01*
X167781000Y-95595000D02*
X183801000Y-95595000D01*
X183801000Y-80165000D02*
X183801000Y-76725000D01*
X183801000Y-95595000D02*
X183801000Y-83665000D01*
X184169000Y-91315000D02*
X184677000Y-91823000D01*
X184677000Y-90807000D02*
X184169000Y-91315000D01*
X184677000Y-91823000D02*
X184677000Y-90807000D01*
%LPC*%
D12*
X138811000Y-104775000D03*
D13*
X141351000Y-104775000D03*
X143891000Y-104775000D03*
X146431000Y-104775000D03*
X148971000Y-104775000D03*
X151511000Y-104775000D03*
X154051000Y-104775000D03*
X156591000Y-104775000D03*
X159131000Y-104775000D03*
X159131000Y-97155000D03*
X156591000Y-97155000D03*
X154051000Y-97155000D03*
X151511000Y-97155000D03*
X148971000Y-97155000D03*
X146431000Y-97155000D03*
X143891000Y-97155000D03*
X141351000Y-97155000D03*
X138811000Y-97155000D03*
D14*
X150114000Y-81915000D03*
X165654000Y-81915000D03*
D15*
X153439000Y-93855000D03*
X154709000Y-91315000D03*
X155979000Y-93855000D03*
X157249000Y-91315000D03*
X158519000Y-93855000D03*
X159789000Y-91315000D03*
X161059000Y-93855000D03*
D16*
X162329000Y-91315000D03*
D17*
X152169000Y-84965000D03*
X163599000Y-84965000D03*
D18*
X198501000Y-101727000D03*
D14*
X114300000Y-81915000D03*
X129840000Y-81915000D03*
D15*
X117625000Y-93855000D03*
X118895000Y-91315000D03*
X120165000Y-93855000D03*
X121435000Y-91315000D03*
X122705000Y-93855000D03*
X123975000Y-91315000D03*
X125245000Y-93855000D03*
D16*
X126515000Y-91315000D03*
D17*
X116355000Y-84965000D03*
X127785000Y-84965000D03*
D18*
X88646000Y-79883000D03*
D19*
X120961000Y-102222000D03*
D20*
X120961000Y-100922000D03*
D21*
X120961000Y-99622000D03*
D13*
X114681000Y-97282000D03*
D12*
X114681000Y-104902000D03*
D22*
X207391000Y-85344000D03*
D23*
X207391000Y-87884000D03*
X207391000Y-90424000D03*
X207391000Y-92964000D03*
X207391000Y-95504000D03*
X207391000Y-98044000D03*
X207391000Y-100584000D03*
X207391000Y-103124000D03*
D12*
X185547000Y-105029000D03*
D13*
X185547000Y-97409000D03*
D18*
X210693000Y-79883000D03*
D24*
X170815000Y-105410000D03*
D13*
X170815000Y-97790000D03*
D19*
X126549000Y-102222000D03*
D20*
X126549000Y-100922000D03*
D21*
X126549000Y-99622000D03*
D14*
X96474000Y-81915000D03*
X112014000Y-81915000D03*
D15*
X99799000Y-93855000D03*
X101069000Y-91315000D03*
X102339000Y-93855000D03*
X103609000Y-91315000D03*
X104879000Y-93855000D03*
X106149000Y-91315000D03*
X107419000Y-93855000D03*
D16*
X108689000Y-91315000D03*
D17*
X98529000Y-84965000D03*
X109959000Y-84965000D03*
X199413000Y-84965000D03*
X187983000Y-84965000D03*
D16*
X198143000Y-91315000D03*
D15*
X196873000Y-93855000D03*
X195603000Y-91315000D03*
X194333000Y-93855000D03*
X193063000Y-91315000D03*
X191793000Y-93855000D03*
X190523000Y-91315000D03*
X189253000Y-93855000D03*
D14*
X201468000Y-81915000D03*
X185928000Y-81915000D03*
D12*
X183007000Y-105029000D03*
D13*
X183007000Y-97409000D03*
D24*
X134239000Y-104100000D03*
X134239000Y-99100000D03*
D12*
X188087000Y-105029000D03*
D13*
X188087000Y-97409000D03*
D25*
X90424000Y-103124000D03*
D23*
X90424000Y-100584000D03*
X90424000Y-98044000D03*
X90424000Y-95504000D03*
X90424000Y-92964000D03*
X90424000Y-90424000D03*
X90424000Y-87884000D03*
X90424000Y-85344000D03*
D19*
X123755000Y-102222000D03*
D20*
X123755000Y-100922000D03*
D21*
X123755000Y-99622000D03*
D12*
X109601000Y-104902000D03*
D13*
X109601000Y-97282000D03*
D24*
X164846000Y-105410000D03*
D13*
X164846000Y-97790000D03*
D24*
X167767000Y-105410000D03*
D13*
X167767000Y-97790000D03*
X112141000Y-97282000D03*
D12*
X112141000Y-104902000D03*
D14*
X132207000Y-81915000D03*
X147747000Y-81915000D03*
D15*
X135532000Y-93855000D03*
X136802000Y-91315000D03*
X138072000Y-93855000D03*
X139342000Y-91315000D03*
X140612000Y-93855000D03*
X141882000Y-91315000D03*
X143152000Y-93855000D03*
D16*
X144422000Y-91315000D03*
D17*
X134262000Y-84965000D03*
X145692000Y-84965000D03*
D18*
X100076000Y-101600000D03*
D14*
X168021000Y-81915000D03*
X183561000Y-81915000D03*
D15*
X171346000Y-93855000D03*
X172616000Y-91315000D03*
X173886000Y-93855000D03*
X175156000Y-91315000D03*
X176426000Y-93855000D03*
X177696000Y-91315000D03*
X178966000Y-93855000D03*
D16*
X180236000Y-91315000D03*
D17*
X170076000Y-84965000D03*
X181506000Y-84965000D03*
M02*
