G04 #@! TF.GenerationSoftware,KiCad,Pcbnew,7.0.1*
G04 #@! TF.CreationDate,2023-07-05T16:18:13-05:00*
G04 #@! TF.ProjectId,pn5180 mcp23008 breakout board,706e3531-3830-4206-9d63-703233303038,rev?*
G04 #@! TF.SameCoordinates,Original*
G04 #@! TF.FileFunction,Copper,L2,Bot*
G04 #@! TF.FilePolarity,Positive*
%FSLAX46Y46*%
G04 Gerber Fmt 4.6, Leading zero omitted, Abs format (unit mm)*
G04 Created by KiCad (PCBNEW 7.0.1) date 2023-07-05 16:18:13*
%MOMM*%
%LPD*%
G01*
G04 APERTURE LIST*
G04 Aperture macros list*
%AMRoundRect*
0 Rectangle with rounded corners*
0 $1 Rounding radius*
0 $2 $3 $4 $5 $6 $7 $8 $9 X,Y pos of 4 corners*
0 Add a 4 corners polygon primitive as box body*
4,1,4,$2,$3,$4,$5,$6,$7,$8,$9,$2,$3,0*
0 Add four circle primitives for the rounded corners*
1,1,$1+$1,$2,$3*
1,1,$1+$1,$4,$5*
1,1,$1+$1,$6,$7*
1,1,$1+$1,$8,$9*
0 Add four rect primitives between the rounded corners*
20,1,$1+$1,$2,$3,$4,$5,0*
20,1,$1+$1,$4,$5,$6,$7,0*
20,1,$1+$1,$6,$7,$8,$9,0*
20,1,$1+$1,$8,$9,$2,$3,0*%
G04 Aperture macros list end*
G04 #@! TA.AperFunction,ComponentPad*
%ADD10R,1.600000X1.600000*%
G04 #@! TD*
G04 #@! TA.AperFunction,ComponentPad*
%ADD11O,1.600000X1.600000*%
G04 #@! TD*
G04 #@! TA.AperFunction,ComponentPad*
%ADD12C,3.000000*%
G04 #@! TD*
G04 #@! TA.AperFunction,ComponentPad*
%ADD13C,1.500000*%
G04 #@! TD*
G04 #@! TA.AperFunction,ComponentPad*
%ADD14R,1.500000X1.500000*%
G04 #@! TD*
G04 #@! TA.AperFunction,ComponentPad*
%ADD15RoundRect,0.250000X-0.845000X0.620000X-0.845000X-0.620000X0.845000X-0.620000X0.845000X0.620000X0*%
G04 #@! TD*
G04 #@! TA.AperFunction,ComponentPad*
%ADD16O,2.190000X1.740000*%
G04 #@! TD*
G04 #@! TA.AperFunction,ComponentPad*
%ADD17C,1.600000*%
G04 #@! TD*
G04 #@! TA.AperFunction,ComponentPad*
%ADD18RoundRect,0.250000X0.845000X-0.620000X0.845000X0.620000X-0.845000X0.620000X-0.845000X-0.620000X0*%
G04 #@! TD*
G04 #@! TA.AperFunction,ViaPad*
%ADD19C,0.800000*%
G04 #@! TD*
G04 #@! TA.AperFunction,Conductor*
%ADD20C,0.375000*%
G04 #@! TD*
G04 #@! TA.AperFunction,Conductor*
%ADD21C,1.000000*%
G04 #@! TD*
G04 APERTURE END LIST*
D10*
X138811000Y-104775000D03*
D11*
X141351000Y-104775000D03*
X143891000Y-104775000D03*
X146431000Y-104775000D03*
X148971000Y-104775000D03*
X151511000Y-104775000D03*
X154051000Y-104775000D03*
X156591000Y-104775000D03*
X159131000Y-104775000D03*
X159131000Y-97155000D03*
X156591000Y-97155000D03*
X154051000Y-97155000D03*
X151511000Y-97155000D03*
X148971000Y-97155000D03*
X146431000Y-97155000D03*
X143891000Y-97155000D03*
X141351000Y-97155000D03*
X138811000Y-97155000D03*
D12*
X150114000Y-81915000D03*
X165654000Y-81915000D03*
D13*
X153439000Y-93855000D03*
X154709000Y-91315000D03*
X155979000Y-93855000D03*
X157249000Y-91315000D03*
X158519000Y-93855000D03*
X159789000Y-91315000D03*
X161059000Y-93855000D03*
D14*
X162329000Y-91315000D03*
D12*
X114300000Y-81915000D03*
X129840000Y-81915000D03*
D13*
X117625000Y-93855000D03*
X118895000Y-91315000D03*
X120165000Y-93855000D03*
X121435000Y-91315000D03*
X122705000Y-93855000D03*
X123975000Y-91315000D03*
X125245000Y-93855000D03*
D14*
X126515000Y-91315000D03*
D11*
X114681000Y-97282000D03*
D10*
X114681000Y-104902000D03*
D15*
X207391000Y-85344000D03*
D16*
X207391000Y-87884000D03*
X207391000Y-90424000D03*
X207391000Y-92964000D03*
X207391000Y-95504000D03*
X207391000Y-98044000D03*
X207391000Y-100584000D03*
X207391000Y-103124000D03*
D10*
X185547000Y-105029000D03*
D11*
X185547000Y-97409000D03*
D17*
X170815000Y-105410000D03*
D11*
X170815000Y-97790000D03*
D12*
X96474000Y-81915000D03*
X112014000Y-81915000D03*
D13*
X99799000Y-93855000D03*
X101069000Y-91315000D03*
X102339000Y-93855000D03*
X103609000Y-91315000D03*
X104879000Y-93855000D03*
X106149000Y-91315000D03*
X107419000Y-93855000D03*
D14*
X108689000Y-91315000D03*
X198143000Y-91315000D03*
D13*
X196873000Y-93855000D03*
X195603000Y-91315000D03*
X194333000Y-93855000D03*
X193063000Y-91315000D03*
X191793000Y-93855000D03*
X190523000Y-91315000D03*
X189253000Y-93855000D03*
D12*
X201468000Y-81915000D03*
X185928000Y-81915000D03*
D10*
X183007000Y-105029000D03*
D11*
X183007000Y-97409000D03*
D17*
X134239000Y-104100000D03*
X134239000Y-99100000D03*
D10*
X188087000Y-105029000D03*
D11*
X188087000Y-97409000D03*
D18*
X90424000Y-103124000D03*
D16*
X90424000Y-100584000D03*
X90424000Y-98044000D03*
X90424000Y-95504000D03*
X90424000Y-92964000D03*
X90424000Y-90424000D03*
X90424000Y-87884000D03*
X90424000Y-85344000D03*
D10*
X109601000Y-104902000D03*
D11*
X109601000Y-97282000D03*
D17*
X164846000Y-105410000D03*
D11*
X164846000Y-97790000D03*
D17*
X167767000Y-105410000D03*
D11*
X167767000Y-97790000D03*
X112141000Y-97282000D03*
D10*
X112141000Y-104902000D03*
D12*
X132207000Y-81915000D03*
X147747000Y-81915000D03*
D13*
X135532000Y-93855000D03*
X136802000Y-91315000D03*
X138072000Y-93855000D03*
X139342000Y-91315000D03*
X140612000Y-93855000D03*
X141882000Y-91315000D03*
X143152000Y-93855000D03*
D14*
X144422000Y-91315000D03*
D12*
X168021000Y-81915000D03*
X183561000Y-81915000D03*
D13*
X171346000Y-93855000D03*
X172616000Y-91315000D03*
X173886000Y-93855000D03*
X175156000Y-91315000D03*
X176426000Y-93855000D03*
X177696000Y-91315000D03*
X178966000Y-93855000D03*
D14*
X180236000Y-91315000D03*
D19*
X130429000Y-103759000D03*
X136398000Y-104267000D03*
X177419000Y-105156000D03*
X191516000Y-102362000D03*
X179070000Y-101346000D03*
X153289000Y-100838000D03*
X105537000Y-102997000D03*
X111379000Y-91313000D03*
X107315000Y-96012000D03*
X124968000Y-96393000D03*
X162433000Y-102464000D03*
X149479000Y-91440000D03*
X179832000Y-97536000D03*
X171323000Y-99441000D03*
X160020000Y-100203000D03*
X167767000Y-103505000D03*
X190246000Y-98277500D03*
X105029000Y-98171000D03*
X118364000Y-100965000D03*
X127762000Y-95779500D03*
X139573000Y-101727000D03*
X155829000Y-95779500D03*
X174879000Y-95779500D03*
X189611000Y-89237500D03*
X187403500Y-89237500D03*
X171695500Y-89237500D03*
X169496500Y-89237500D03*
X154108689Y-89237500D03*
X136181214Y-89274714D03*
X133649000Y-89237500D03*
X118061965Y-89237500D03*
X151589500Y-89242097D03*
X115486500Y-89237500D03*
X120961000Y-99622000D03*
X123755000Y-99622000D03*
X126549000Y-99622000D03*
X141351000Y-101074500D03*
X147622494Y-102313506D03*
X149098000Y-103251000D03*
D20*
X108689000Y-94638000D02*
X107315000Y-96012000D01*
X108689000Y-91315000D02*
X108689000Y-94638000D01*
X125222000Y-96647000D02*
X124968000Y-96393000D01*
X128390000Y-96647000D02*
X125222000Y-96647000D01*
X128549500Y-93349500D02*
X128549500Y-96487500D01*
X128549500Y-96487500D02*
X128390000Y-96647000D01*
X126515000Y-91315000D02*
X128549500Y-93349500D01*
X161442000Y-102464000D02*
X162433000Y-102464000D01*
X159131000Y-104775000D02*
X161442000Y-102464000D01*
X152863500Y-98507500D02*
X159131000Y-104775000D01*
X152863500Y-95967501D02*
X152863500Y-98507500D01*
X149479000Y-92583001D02*
X152863500Y-95967501D01*
X149479000Y-91440000D02*
X149479000Y-92583001D01*
X179832000Y-97536000D02*
X180236000Y-97132000D01*
X180236000Y-97132000D02*
X180236000Y-91315000D01*
X167767000Y-97790000D02*
X169418000Y-99441000D01*
X169418000Y-99441000D02*
X171323000Y-99441000D01*
X162329000Y-92352000D02*
X167767000Y-97790000D01*
X162329000Y-91315000D02*
X162329000Y-92352000D01*
X172593000Y-100330000D02*
X160147000Y-100330000D01*
X160147000Y-100330000D02*
X160020000Y-100203000D01*
X172616000Y-100307000D02*
X172593000Y-100330000D01*
X172616000Y-91315000D02*
X172616000Y-100307000D01*
X159131000Y-100965000D02*
X159131000Y-97155000D01*
X159639000Y-101473000D02*
X159131000Y-100965000D01*
X165735000Y-101473000D02*
X159639000Y-101473000D01*
X167767000Y-103505000D02*
X165735000Y-101473000D01*
X193040000Y-95483500D02*
X190246000Y-98277500D01*
X193040000Y-93493332D02*
X193040000Y-95483500D01*
X190861668Y-91315000D02*
X193040000Y-93493332D01*
X190523000Y-91315000D02*
X190861668Y-91315000D01*
X138072000Y-93855000D02*
X134645000Y-97282000D01*
X134645000Y-97282000D02*
X114681000Y-97282000D01*
X105029000Y-98171000D02*
X101069000Y-94211000D01*
X142609494Y-100976506D02*
X140899057Y-102686943D01*
X140899057Y-102686943D02*
X120085943Y-102686943D01*
X101069000Y-94211000D02*
X101069000Y-91315000D01*
X142609494Y-96757127D02*
X142609494Y-100976506D01*
X143399121Y-95967500D02*
X142609494Y-96757127D01*
X120085943Y-102686943D02*
X118364000Y-100965000D01*
X145243500Y-95967500D02*
X143399121Y-95967500D01*
X146431000Y-97155000D02*
X145243500Y-95967500D01*
X120032500Y-90177500D02*
X118895000Y-91315000D01*
X121906168Y-90177500D02*
X120032500Y-90177500D01*
X122572500Y-90843832D02*
X121906168Y-90177500D01*
X122572500Y-91786168D02*
X122572500Y-90843832D01*
X123238832Y-92452500D02*
X122572500Y-91786168D01*
X125451168Y-92452500D02*
X123238832Y-92452500D01*
X127762000Y-95779500D02*
X127762000Y-94763332D01*
X127762000Y-94763332D02*
X125451168Y-92452500D01*
X139573000Y-101727000D02*
X140698500Y-101727000D01*
X140698500Y-101727000D02*
X141351000Y-101074500D01*
X141749500Y-92717500D02*
X140612000Y-93855000D01*
X150158500Y-96663121D02*
X146212879Y-92717500D01*
X146212879Y-92717500D02*
X141749500Y-92717500D01*
X150158500Y-97646879D02*
X150158500Y-96663121D01*
X149462879Y-98342500D02*
X150158500Y-97646879D01*
X145078500Y-98342500D02*
X149462879Y-98342500D01*
X143891000Y-97155000D02*
X145078500Y-98342500D01*
X145664870Y-90177500D02*
X137939500Y-90177500D01*
X151511000Y-96023630D02*
X145664870Y-90177500D01*
X151511000Y-97155000D02*
X151511000Y-96023630D01*
X137939500Y-90177500D02*
X136802000Y-91315000D01*
X154709000Y-96497000D02*
X154709000Y-91315000D01*
X154051000Y-97155000D02*
X154709000Y-96497000D01*
X176426000Y-89260500D02*
X176403000Y-89237500D01*
X176403000Y-89237500D02*
X186183500Y-89237500D01*
X176426000Y-93855000D02*
X176426000Y-89260500D01*
X171695500Y-89237500D02*
X176403000Y-89237500D01*
X158519000Y-89341500D02*
X158623000Y-89237500D01*
X158519000Y-93855000D02*
X158519000Y-89341500D01*
X158623000Y-89237500D02*
X169496500Y-89237500D01*
X154108689Y-89237500D02*
X158623000Y-89237500D01*
X118061965Y-89237500D02*
X133649000Y-89237500D01*
D21*
X134748500Y-93071500D02*
X135532000Y-93855000D01*
X134748500Y-89152500D02*
X134748500Y-93071500D01*
X135763000Y-88138000D02*
X134748500Y-89152500D01*
D20*
X135636000Y-91757668D02*
X135636000Y-89819928D01*
X136595832Y-92717500D02*
X135636000Y-91757668D01*
X139474500Y-92717500D02*
X136595832Y-92717500D01*
X140612000Y-93855000D02*
X139474500Y-92717500D01*
X135636000Y-89819928D02*
X136181214Y-89274714D01*
X106617832Y-89237500D02*
X104879000Y-90976332D01*
X104879000Y-90976332D02*
X104879000Y-93855000D01*
X115486500Y-89237500D02*
X106617832Y-89237500D01*
D21*
X116586000Y-92816000D02*
X117625000Y-93855000D01*
X116586000Y-88138000D02*
X116586000Y-92816000D01*
X116586000Y-88138000D02*
X117475000Y-88138000D01*
X99822000Y-88138000D02*
X116586000Y-88138000D01*
D20*
X117757500Y-89541965D02*
X118061965Y-89237500D01*
X117757500Y-91786168D02*
X117757500Y-89541965D01*
X121567500Y-92717500D02*
X118688832Y-92717500D01*
X122705000Y-93855000D02*
X121567500Y-92717500D01*
X118688832Y-92717500D02*
X117757500Y-91786168D01*
D21*
X138811000Y-97155000D02*
X136866000Y-99100000D01*
X136866000Y-99100000D02*
X134239000Y-99100000D01*
X207391000Y-87978685D02*
X207391000Y-87884000D01*
X195992685Y-99377000D02*
X207391000Y-87978685D01*
X176848000Y-99377000D02*
X195992685Y-99377000D01*
X170815000Y-105410000D02*
X176848000Y-99377000D01*
X169315000Y-106910000D02*
X170815000Y-105410000D01*
X166346000Y-106910000D02*
X169315000Y-106910000D01*
X164846000Y-105410000D02*
X166346000Y-106910000D01*
X163981000Y-106275000D02*
X164846000Y-105410000D01*
X153011000Y-106275000D02*
X163981000Y-106275000D01*
X151511000Y-104775000D02*
X153011000Y-106275000D01*
X150011000Y-106275000D02*
X151511000Y-104775000D01*
X122023000Y-106275000D02*
X150011000Y-106275000D01*
X115570000Y-99822000D02*
X120761000Y-99822000D01*
X101854000Y-99822000D02*
X115570000Y-99822000D01*
X115570000Y-99822000D02*
X122023000Y-106275000D01*
X120761000Y-99822000D02*
X120961000Y-99622000D01*
X97726000Y-95694000D02*
X101854000Y-99822000D01*
X90424000Y-87884000D02*
X97726000Y-95186000D01*
X97726000Y-95186000D02*
X97726000Y-95694000D01*
D20*
X188239000Y-97409000D02*
X191793000Y-93855000D01*
X188087000Y-97409000D02*
X188239000Y-97409000D01*
X155979000Y-95629500D02*
X155829000Y-95779500D01*
X155979000Y-93855000D02*
X155979000Y-95629500D01*
X173886000Y-94786500D02*
X174879000Y-95779500D01*
X173886000Y-93855000D02*
X173886000Y-94786500D01*
X141351000Y-101074500D02*
X141351000Y-97155000D01*
X189611000Y-89237500D02*
X192594168Y-89237500D01*
X194333000Y-90976332D02*
X194333000Y-93855000D01*
X186183500Y-89237500D02*
X187403500Y-89237500D01*
X192594168Y-89237500D02*
X194333000Y-90976332D01*
X136181214Y-89274714D02*
X151556883Y-89274714D01*
X151556883Y-89274714D02*
X151589500Y-89242097D01*
X123755000Y-99622000D02*
X120961000Y-99622000D01*
X126549000Y-99622000D02*
X123755000Y-99622000D01*
X127071000Y-99100000D02*
X126549000Y-99622000D01*
X134239000Y-99100000D02*
X127071000Y-99100000D01*
D21*
X86868000Y-83947000D02*
X86868000Y-99568000D01*
X86868000Y-99568000D02*
X90424000Y-103124000D01*
X87041000Y-83774000D02*
X86868000Y-83947000D01*
X93979243Y-83774000D02*
X87041000Y-83774000D01*
X98343243Y-88138000D02*
X93979243Y-83774000D01*
X99822000Y-88138000D02*
X98343243Y-88138000D01*
X99060000Y-88138000D02*
X99822000Y-88138000D01*
X117475000Y-88138000D02*
X135763000Y-88138000D01*
X135763000Y-88138000D02*
X153543000Y-88138000D01*
X152689000Y-88992000D02*
X153543000Y-88138000D01*
X152689000Y-93105000D02*
X152689000Y-88992000D01*
X153543000Y-88138000D02*
X170561000Y-88138000D01*
X153439000Y-93855000D02*
X152689000Y-93105000D01*
X170596000Y-93105000D02*
X170596000Y-88173000D01*
X171346000Y-93855000D02*
X170596000Y-93105000D01*
X170561000Y-88138000D02*
X188468000Y-88138000D01*
X170596000Y-88173000D02*
X170561000Y-88138000D01*
X188503000Y-88173000D02*
X188468000Y-88138000D01*
X188503000Y-93105000D02*
X188503000Y-88173000D01*
X189253000Y-93855000D02*
X188503000Y-93105000D01*
X188468000Y-88138000D02*
X200660000Y-88138000D01*
X213614000Y-88758497D02*
X213614000Y-96901000D01*
X213614000Y-96901000D02*
X207391000Y-103124000D01*
X208629503Y-83774000D02*
X213614000Y-88758497D01*
X205024000Y-83774000D02*
X208629503Y-83774000D01*
X200660000Y-88138000D02*
X205024000Y-83774000D01*
X99049000Y-88149000D02*
X99060000Y-88138000D01*
X99049000Y-93105000D02*
X99049000Y-88149000D01*
X99799000Y-93855000D02*
X99049000Y-93105000D01*
D20*
X142133115Y-102313506D02*
X147622494Y-102313506D01*
X141576621Y-102870000D02*
X142133115Y-102313506D01*
X142875000Y-103251000D02*
X149098000Y-103251000D01*
X141351000Y-104775000D02*
X142875000Y-103251000D01*
X139671621Y-104775000D02*
X138811000Y-104775000D01*
X141576621Y-102870000D02*
X139671621Y-104775000D01*
X118135000Y-95885000D02*
X120165000Y-93855000D01*
X113538000Y-95885000D02*
X118135000Y-95885000D01*
X112141000Y-97282000D02*
X113538000Y-95885000D01*
X105766000Y-97282000D02*
X102339000Y-93855000D01*
X109601000Y-97282000D02*
X105766000Y-97282000D01*
G04 #@! TA.AperFunction,Conductor*
G36*
X210695562Y-74803605D02*
G01*
X210910373Y-74812490D01*
X211113249Y-74821348D01*
X211123120Y-74822177D01*
X211338510Y-74849026D01*
X211338963Y-74849084D01*
X211541504Y-74875749D01*
X211550718Y-74877319D01*
X211762797Y-74921787D01*
X211763827Y-74922009D01*
X211963566Y-74966290D01*
X211972092Y-74968502D01*
X212109957Y-75009546D01*
X212179503Y-75030251D01*
X212181407Y-75030835D01*
X212232925Y-75047078D01*
X212376404Y-75092316D01*
X212384119Y-75095034D01*
X212585754Y-75173712D01*
X212588027Y-75174626D01*
X212776987Y-75252896D01*
X212783965Y-75256043D01*
X212978405Y-75351098D01*
X212981080Y-75352449D01*
X213071300Y-75399415D01*
X213162482Y-75446882D01*
X213168698Y-75450348D01*
X213354533Y-75561081D01*
X213357685Y-75563024D01*
X213530116Y-75672875D01*
X213535545Y-75676538D01*
X213711570Y-75802218D01*
X213715002Y-75804759D01*
X213877219Y-75929232D01*
X213881874Y-75932985D01*
X214046920Y-76072771D01*
X214050552Y-76075972D01*
X214201327Y-76214132D01*
X214205235Y-76217873D01*
X214358125Y-76370763D01*
X214361866Y-76374671D01*
X214500026Y-76525446D01*
X214503227Y-76529078D01*
X214643013Y-76694124D01*
X214646766Y-76698779D01*
X214771239Y-76860996D01*
X214773780Y-76864428D01*
X214899460Y-77040453D01*
X214903123Y-77045882D01*
X215012974Y-77218313D01*
X215014917Y-77221465D01*
X215125650Y-77407300D01*
X215129116Y-77413516D01*
X215223534Y-77594889D01*
X215224946Y-77597686D01*
X215319942Y-77792004D01*
X215323102Y-77799011D01*
X215401351Y-77987920D01*
X215402307Y-77990298D01*
X215480949Y-78191838D01*
X215483693Y-78199627D01*
X215545163Y-78394591D01*
X215545747Y-78396495D01*
X215607494Y-78603898D01*
X215609710Y-78612441D01*
X215653949Y-78811987D01*
X215654249Y-78813380D01*
X215698675Y-79025260D01*
X215700253Y-79034521D01*
X215726887Y-79236829D01*
X215726996Y-79237676D01*
X215753818Y-79452849D01*
X215754652Y-79462778D01*
X215763512Y-79665701D01*
X215763524Y-79665986D01*
X215772394Y-79880438D01*
X215772500Y-79885562D01*
X215772500Y-102867438D01*
X215772394Y-102872562D01*
X215763524Y-103087013D01*
X215763512Y-103087298D01*
X215754652Y-103290220D01*
X215753818Y-103300149D01*
X215726996Y-103515322D01*
X215726887Y-103516169D01*
X215700253Y-103718477D01*
X215698675Y-103727738D01*
X215654249Y-103939618D01*
X215653949Y-103941011D01*
X215609710Y-104140557D01*
X215607494Y-104149100D01*
X215545747Y-104356503D01*
X215545163Y-104358407D01*
X215483693Y-104553371D01*
X215480949Y-104561160D01*
X215402307Y-104762700D01*
X215401351Y-104765078D01*
X215323102Y-104953987D01*
X215319942Y-104960994D01*
X215224946Y-105155312D01*
X215223534Y-105158109D01*
X215129116Y-105339482D01*
X215125650Y-105345698D01*
X215014917Y-105531533D01*
X215012974Y-105534685D01*
X214903123Y-105707116D01*
X214899460Y-105712545D01*
X214773780Y-105888570D01*
X214771239Y-105892002D01*
X214646766Y-106054219D01*
X214643013Y-106058874D01*
X214503227Y-106223920D01*
X214500026Y-106227552D01*
X214361866Y-106378327D01*
X214358125Y-106382235D01*
X214205235Y-106535125D01*
X214201327Y-106538866D01*
X214050552Y-106677026D01*
X214046920Y-106680227D01*
X213881874Y-106820013D01*
X213877219Y-106823766D01*
X213715002Y-106948239D01*
X213711570Y-106950780D01*
X213535545Y-107076460D01*
X213530116Y-107080123D01*
X213357685Y-107189974D01*
X213354533Y-107191917D01*
X213168698Y-107302650D01*
X213162482Y-107306116D01*
X212981109Y-107400534D01*
X212978312Y-107401946D01*
X212783994Y-107496942D01*
X212776987Y-107500102D01*
X212588078Y-107578351D01*
X212585700Y-107579307D01*
X212384160Y-107657949D01*
X212376371Y-107660693D01*
X212181407Y-107722163D01*
X212179503Y-107722747D01*
X211972100Y-107784494D01*
X211963557Y-107786710D01*
X211764011Y-107830949D01*
X211762618Y-107831249D01*
X211550738Y-107875675D01*
X211541477Y-107877253D01*
X211339169Y-107903887D01*
X211338322Y-107903996D01*
X211123149Y-107930818D01*
X211113220Y-107931652D01*
X210910408Y-107940507D01*
X210910124Y-107940519D01*
X210695563Y-107949394D01*
X210690438Y-107949500D01*
X169974926Y-107949500D01*
X169916959Y-107935117D01*
X169872440Y-107895304D01*
X169851696Y-107839298D01*
X169859540Y-107780091D01*
X169894151Y-107731418D01*
X169912582Y-107715594D01*
X169925114Y-107706144D01*
X169950519Y-107689402D01*
X169992251Y-107647668D01*
X169999123Y-107641300D01*
X170043895Y-107602866D01*
X170062519Y-107578803D01*
X170072880Y-107567039D01*
X170903035Y-106736884D01*
X170938309Y-106712185D01*
X170979907Y-106701040D01*
X170999066Y-106699363D01*
X171041692Y-106695635D01*
X171261496Y-106636739D01*
X171467734Y-106540568D01*
X171654139Y-106410047D01*
X171815047Y-106249139D01*
X171945568Y-106062734D01*
X172032239Y-105876869D01*
X181706500Y-105876869D01*
X181712909Y-105936484D01*
X181715836Y-105944331D01*
X181763204Y-106071331D01*
X181849454Y-106186546D01*
X181964669Y-106272796D01*
X182099517Y-106323091D01*
X182159127Y-106329500D01*
X183854872Y-106329499D01*
X183914483Y-106323091D01*
X184049331Y-106272796D01*
X184164546Y-106186546D01*
X184177731Y-106168931D01*
X184221495Y-106132357D01*
X184277000Y-106119241D01*
X184332505Y-106132357D01*
X184376267Y-106168931D01*
X184389452Y-106186544D01*
X184389453Y-106186544D01*
X184389454Y-106186546D01*
X184504669Y-106272796D01*
X184639517Y-106323091D01*
X184699127Y-106329500D01*
X186394872Y-106329499D01*
X186454483Y-106323091D01*
X186589331Y-106272796D01*
X186704546Y-106186546D01*
X186717731Y-106168931D01*
X186761495Y-106132357D01*
X186817000Y-106119241D01*
X186872505Y-106132357D01*
X186916267Y-106168931D01*
X186929452Y-106186544D01*
X186929453Y-106186544D01*
X186929454Y-106186546D01*
X187044669Y-106272796D01*
X187179517Y-106323091D01*
X187239127Y-106329500D01*
X188934872Y-106329499D01*
X188994483Y-106323091D01*
X189129331Y-106272796D01*
X189244546Y-106186546D01*
X189330796Y-106071331D01*
X189381091Y-105936483D01*
X189387500Y-105876873D01*
X189387499Y-104181128D01*
X189381091Y-104121517D01*
X189330796Y-103986669D01*
X189244546Y-103871454D01*
X189129331Y-103785204D01*
X188994483Y-103734909D01*
X188934873Y-103728500D01*
X188934869Y-103728500D01*
X187239130Y-103728500D01*
X187179515Y-103734909D01*
X187044669Y-103785204D01*
X186929452Y-103871454D01*
X186916266Y-103889070D01*
X186872504Y-103925642D01*
X186817000Y-103938758D01*
X186761496Y-103925642D01*
X186717734Y-103889070D01*
X186704547Y-103871454D01*
X186589331Y-103785204D01*
X186454483Y-103734909D01*
X186394873Y-103728500D01*
X186394869Y-103728500D01*
X184699130Y-103728500D01*
X184639515Y-103734909D01*
X184504669Y-103785204D01*
X184389452Y-103871454D01*
X184376266Y-103889070D01*
X184332504Y-103925642D01*
X184277000Y-103938758D01*
X184221496Y-103925642D01*
X184177734Y-103889070D01*
X184164547Y-103871454D01*
X184049331Y-103785204D01*
X183914483Y-103734909D01*
X183854873Y-103728500D01*
X183854869Y-103728500D01*
X182159130Y-103728500D01*
X182099515Y-103734909D01*
X181964669Y-103785204D01*
X181849454Y-103871454D01*
X181763204Y-103986668D01*
X181712909Y-104121515D01*
X181712909Y-104121517D01*
X181706833Y-104178036D01*
X181706500Y-104181130D01*
X181706500Y-105876869D01*
X172032239Y-105876869D01*
X172041739Y-105856496D01*
X172100635Y-105636692D01*
X172106039Y-105574907D01*
X172117185Y-105533309D01*
X172141884Y-105498035D01*
X175845156Y-101794764D01*
X196646787Y-101794764D01*
X196676413Y-102064016D01*
X196699802Y-102153478D01*
X196744928Y-102326088D01*
X196845605Y-102563000D01*
X196850871Y-102575392D01*
X196991982Y-102806611D01*
X197148580Y-102994783D01*
X197165255Y-103014820D01*
X197366998Y-103195582D01*
X197592910Y-103345044D01*
X197689047Y-103390111D01*
X197838177Y-103460021D01*
X198094913Y-103537261D01*
X198097569Y-103538060D01*
X198365561Y-103577500D01*
X198568631Y-103577500D01*
X198568634Y-103577500D01*
X198771156Y-103562677D01*
X198822013Y-103551348D01*
X199035553Y-103503780D01*
X199288558Y-103407014D01*
X199524777Y-103274441D01*
X199739177Y-103108888D01*
X199927186Y-102913881D01*
X200084799Y-102693579D01*
X200208656Y-102452675D01*
X200296118Y-102196305D01*
X200345319Y-101929933D01*
X200355212Y-101659235D01*
X200325586Y-101389982D01*
X200257072Y-101127912D01*
X200151130Y-100878610D01*
X200051239Y-100714933D01*
X200010017Y-100647388D01*
X199836746Y-100439181D01*
X199800692Y-100406877D01*
X199635002Y-100258418D01*
X199409090Y-100108956D01*
X199403294Y-100106239D01*
X199163822Y-99993978D01*
X198904437Y-99915941D01*
X198904431Y-99915940D01*
X198636439Y-99876500D01*
X198433369Y-99876500D01*
X198433366Y-99876500D01*
X198230843Y-99891322D01*
X197966449Y-99950219D01*
X197713441Y-100046986D01*
X197477223Y-100179559D01*
X197262825Y-100345109D01*
X197074813Y-100540120D01*
X196917201Y-100760420D01*
X196822987Y-100943668D01*
X196796599Y-100994995D01*
X196793342Y-101001329D01*
X196705881Y-101257695D01*
X196656680Y-101524066D01*
X196646787Y-101794764D01*
X175845156Y-101794764D01*
X177226101Y-100413819D01*
X177266330Y-100386939D01*
X177313783Y-100377500D01*
X195978406Y-100377500D01*
X195981547Y-100377539D01*
X196069048Y-100379757D01*
X196127117Y-100369348D01*
X196136421Y-100368043D01*
X196195123Y-100362074D01*
X196224152Y-100352965D01*
X196239385Y-100349226D01*
X196269338Y-100343858D01*
X196324111Y-100321978D01*
X196332986Y-100318819D01*
X196350360Y-100313367D01*
X196389273Y-100301159D01*
X196415879Y-100286390D01*
X196430047Y-100279662D01*
X196458302Y-100268377D01*
X196507564Y-100235909D01*
X196515595Y-100231043D01*
X196567187Y-100202409D01*
X196590272Y-100182589D01*
X196602799Y-100173144D01*
X196628204Y-100156402D01*
X196669936Y-100114668D01*
X196676808Y-100108300D01*
X196721580Y-100069866D01*
X196740204Y-100045803D01*
X196750565Y-100034039D01*
X205751978Y-91032626D01*
X205798969Y-91003175D01*
X205854101Y-90997153D01*
X205906344Y-91015768D01*
X205945245Y-91055293D01*
X206027572Y-91189000D01*
X206060139Y-91241892D01*
X206214270Y-91417019D01*
X206395776Y-91563576D01*
X206436101Y-91586103D01*
X206481217Y-91629343D01*
X206499515Y-91689094D01*
X206486350Y-91750182D01*
X206445064Y-91797092D01*
X206301912Y-91893846D01*
X206133483Y-92055272D01*
X205994760Y-92242838D01*
X205889730Y-92451152D01*
X205828180Y-92652134D01*
X205821417Y-92674220D01*
X205792325Y-92901406D01*
X205791784Y-92905627D01*
X205801685Y-93138704D01*
X205850836Y-93366767D01*
X205934067Y-93573893D01*
X205937821Y-93583235D01*
X206060138Y-93781891D01*
X206122298Y-93852519D01*
X206214270Y-93957019D01*
X206395776Y-94103576D01*
X206436101Y-94126103D01*
X206481217Y-94169343D01*
X206499515Y-94229094D01*
X206486350Y-94290182D01*
X206445064Y-94337092D01*
X206301912Y-94433846D01*
X206133483Y-94595272D01*
X205994760Y-94782838D01*
X205889730Y-94991152D01*
X205821417Y-95214219D01*
X205814103Y-95271332D01*
X205794441Y-95424880D01*
X205791784Y-95445627D01*
X205801685Y-95678704D01*
X205850836Y-95906767D01*
X205935389Y-96117183D01*
X205937821Y-96123235D01*
X206060138Y-96321891D01*
X206066851Y-96329519D01*
X206214270Y-96497019D01*
X206395776Y-96643576D01*
X206436101Y-96666103D01*
X206481217Y-96709343D01*
X206499515Y-96769094D01*
X206486350Y-96830182D01*
X206445064Y-96877092D01*
X206301912Y-96973846D01*
X206133483Y-97135272D01*
X205994760Y-97322838D01*
X205889730Y-97531152D01*
X205822793Y-97749725D01*
X205821417Y-97754220D01*
X205794555Y-97963990D01*
X205791784Y-97985627D01*
X205801685Y-98218704D01*
X205850836Y-98446767D01*
X205926676Y-98635500D01*
X205937821Y-98663235D01*
X206060138Y-98861891D01*
X206208532Y-99030500D01*
X206214270Y-99037019D01*
X206395776Y-99183576D01*
X206436101Y-99206103D01*
X206481217Y-99249343D01*
X206499515Y-99309094D01*
X206486350Y-99370182D01*
X206445064Y-99417092D01*
X206301912Y-99513846D01*
X206133483Y-99675272D01*
X205994760Y-99862838D01*
X205889730Y-100071152D01*
X205821417Y-100294219D01*
X205817253Y-100326738D01*
X205794605Y-100503600D01*
X205791784Y-100525627D01*
X205801685Y-100758704D01*
X205850836Y-100986767D01*
X205934425Y-101194784D01*
X205937821Y-101203235D01*
X206060138Y-101401891D01*
X206172319Y-101529354D01*
X206214270Y-101577019D01*
X206395776Y-101723576D01*
X206436101Y-101746103D01*
X206481217Y-101789343D01*
X206499515Y-101849094D01*
X206486350Y-101910182D01*
X206445064Y-101957092D01*
X206301912Y-102053846D01*
X206133483Y-102215272D01*
X205994760Y-102402838D01*
X205889730Y-102611152D01*
X205822062Y-102832112D01*
X205821417Y-102834220D01*
X205806933Y-102947330D01*
X205791784Y-103065627D01*
X205801685Y-103298704D01*
X205850836Y-103526767D01*
X205933575Y-103732669D01*
X205937821Y-103743235D01*
X206060138Y-103941891D01*
X206199290Y-104099999D01*
X206214270Y-104117019D01*
X206395776Y-104263576D01*
X206599448Y-104377354D01*
X206819418Y-104455074D01*
X207049351Y-104494500D01*
X207049353Y-104494500D01*
X207674216Y-104494500D01*
X207674220Y-104494500D01*
X207797592Y-104483999D01*
X207848453Y-104479670D01*
X207998963Y-104440479D01*
X208074220Y-104420885D01*
X208180510Y-104372838D01*
X208286802Y-104324792D01*
X208480088Y-104194153D01*
X208648516Y-104032728D01*
X208787240Y-103845161D01*
X208892270Y-103636847D01*
X208960583Y-103413780D01*
X208990216Y-103182376D01*
X208982638Y-103004017D01*
X208990983Y-102953745D01*
X209018843Y-102911076D01*
X214311389Y-97618529D01*
X214313559Y-97616413D01*
X214377053Y-97556059D01*
X214410759Y-97507630D01*
X214416428Y-97500113D01*
X214453698Y-97454407D01*
X214467783Y-97427439D01*
X214475918Y-97414015D01*
X214482373Y-97404740D01*
X214493295Y-97389049D01*
X214516568Y-97334815D01*
X214520598Y-97326331D01*
X214522423Y-97322839D01*
X214547909Y-97274049D01*
X214556278Y-97244797D01*
X214561534Y-97230032D01*
X214573540Y-97202058D01*
X214585418Y-97144256D01*
X214587651Y-97135156D01*
X214603887Y-97078418D01*
X214606197Y-97048077D01*
X214608376Y-97032535D01*
X214614500Y-97002741D01*
X214614500Y-96943758D01*
X214614858Y-96934344D01*
X214617136Y-96904422D01*
X214619337Y-96875524D01*
X214615493Y-96845348D01*
X214614500Y-96829683D01*
X214614500Y-88772736D01*
X214614540Y-88769594D01*
X214616756Y-88682135D01*
X214606351Y-88624082D01*
X214605042Y-88614750D01*
X214604067Y-88605161D01*
X214599074Y-88556059D01*
X214589967Y-88527034D01*
X214586223Y-88511783D01*
X214584690Y-88503231D01*
X214580858Y-88481844D01*
X214580857Y-88481842D01*
X214580857Y-88481840D01*
X214558976Y-88427062D01*
X214555816Y-88418186D01*
X214549121Y-88396847D01*
X214538159Y-88361909D01*
X214523395Y-88335309D01*
X214516660Y-88321128D01*
X214505377Y-88292880D01*
X214472917Y-88243628D01*
X214468036Y-88235571D01*
X214439474Y-88184113D01*
X214439409Y-88183995D01*
X214419582Y-88160900D01*
X214410146Y-88148385D01*
X214393402Y-88122978D01*
X214393400Y-88122976D01*
X214393399Y-88122974D01*
X214351693Y-88081269D01*
X214345287Y-88074357D01*
X214306864Y-88029599D01*
X214282804Y-88010975D01*
X214271026Y-88000602D01*
X209347070Y-83076647D01*
X209344915Y-83074438D01*
X209284562Y-83010947D01*
X209236143Y-82977246D01*
X209228621Y-82971575D01*
X209182908Y-82934300D01*
X209155943Y-82920215D01*
X209142522Y-82912084D01*
X209117552Y-82894705D01*
X209117551Y-82894704D01*
X209117549Y-82894703D01*
X209063348Y-82871443D01*
X209054839Y-82867402D01*
X209002556Y-82840092D01*
X208996629Y-82838396D01*
X208973301Y-82831721D01*
X208958523Y-82826459D01*
X208930561Y-82814460D01*
X208872775Y-82802583D01*
X208863631Y-82800338D01*
X208806924Y-82784113D01*
X208776578Y-82781802D01*
X208761037Y-82779622D01*
X208731245Y-82773500D01*
X208731244Y-82773500D01*
X208672261Y-82773500D01*
X208662847Y-82773142D01*
X208637895Y-82771242D01*
X208604027Y-82768663D01*
X208604026Y-82768663D01*
X208573852Y-82772506D01*
X208558186Y-82773500D01*
X205038279Y-82773500D01*
X205035137Y-82773460D01*
X204947637Y-82771242D01*
X204889580Y-82781648D01*
X204880251Y-82782957D01*
X204821562Y-82788926D01*
X204792527Y-82798035D01*
X204777290Y-82801774D01*
X204747350Y-82807141D01*
X204692567Y-82829022D01*
X204683698Y-82832179D01*
X204627410Y-82849841D01*
X204600809Y-82864605D01*
X204586639Y-82871335D01*
X204558385Y-82882622D01*
X204509121Y-82915087D01*
X204501070Y-82919964D01*
X204449498Y-82948590D01*
X204426414Y-82968407D01*
X204413887Y-82977853D01*
X204388481Y-82994598D01*
X204346775Y-83036303D01*
X204339868Y-83042704D01*
X204295103Y-83081135D01*
X204276480Y-83105193D01*
X204266108Y-83116969D01*
X200873790Y-86509288D01*
X200848320Y-86524044D01*
X200832798Y-86550281D01*
X200281899Y-87101181D01*
X200241671Y-87128061D01*
X200194218Y-87137500D01*
X188569741Y-87137500D01*
X188510758Y-87137500D01*
X188501344Y-87137142D01*
X188487266Y-87136070D01*
X188442524Y-87132663D01*
X188442523Y-87132663D01*
X188412349Y-87136506D01*
X188396683Y-87137500D01*
X170662741Y-87137500D01*
X170603758Y-87137500D01*
X170594344Y-87137142D01*
X170580266Y-87136070D01*
X170535524Y-87132663D01*
X170535523Y-87132663D01*
X170505349Y-87136506D01*
X170489683Y-87137500D01*
X153644741Y-87137500D01*
X153557238Y-87137500D01*
X153554096Y-87137460D01*
X153466636Y-87135243D01*
X153464904Y-87135554D01*
X153443024Y-87137500D01*
X135864741Y-87137500D01*
X135777279Y-87137500D01*
X135774137Y-87137460D01*
X135686640Y-87135242D01*
X135685583Y-87135431D01*
X135684894Y-87135555D01*
X135663019Y-87137500D01*
X117576741Y-87137500D01*
X116687741Y-87137500D01*
X116614501Y-87137500D01*
X116608221Y-87137341D01*
X116604297Y-87137142D01*
X116535064Y-87133630D01*
X116520559Y-87135853D01*
X116519142Y-87136070D01*
X116500365Y-87137500D01*
X99923741Y-87137500D01*
X99074238Y-87137500D01*
X99071096Y-87137460D01*
X98983636Y-87135243D01*
X98981904Y-87135554D01*
X98960024Y-87137500D01*
X98809026Y-87137500D01*
X98761573Y-87128061D01*
X98721345Y-87101181D01*
X98661573Y-87041409D01*
X98628099Y-86980136D01*
X98633036Y-86910491D01*
X98674820Y-86854553D01*
X98740203Y-86830059D01*
X98802805Y-86825477D01*
X98855009Y-86813848D01*
X99070775Y-86765784D01*
X99327198Y-86667711D01*
X99566609Y-86533347D01*
X99783904Y-86365557D01*
X99974454Y-86167916D01*
X100134196Y-85944637D01*
X100259727Y-85700479D01*
X100348370Y-85440646D01*
X100398236Y-85170674D01*
X100403242Y-85033678D01*
X108079737Y-85033678D01*
X108109763Y-85306569D01*
X108109764Y-85306571D01*
X108179204Y-85572182D01*
X108257785Y-85757098D01*
X108286577Y-85824852D01*
X108370890Y-85963005D01*
X108429595Y-86059196D01*
X108605209Y-86270218D01*
X108809677Y-86453423D01*
X109038641Y-86604904D01*
X109287221Y-86721433D01*
X109550119Y-86800527D01*
X109821731Y-86840500D01*
X110027547Y-86840500D01*
X110027551Y-86840500D01*
X110232805Y-86825477D01*
X110285009Y-86813848D01*
X110500775Y-86765784D01*
X110757198Y-86667711D01*
X110996609Y-86533347D01*
X111213904Y-86365557D01*
X111404454Y-86167916D01*
X111564196Y-85944637D01*
X111689727Y-85700479D01*
X111778370Y-85440646D01*
X111828236Y-85170674D01*
X111838262Y-84896320D01*
X111808236Y-84623429D01*
X111738796Y-84357818D01*
X111631423Y-84105148D01*
X111621263Y-84088501D01*
X111603110Y-84023957D01*
X111621211Y-83959397D01*
X111670275Y-83913698D01*
X111735957Y-83900222D01*
X112014000Y-83920109D01*
X112299357Y-83899699D01*
X112578902Y-83838888D01*
X112846952Y-83738911D01*
X113097573Y-83602062D01*
X113157000Y-83586894D01*
X113216427Y-83602062D01*
X113467047Y-83738911D01*
X113735097Y-83838888D01*
X114014642Y-83899699D01*
X114299999Y-83920109D01*
X114581852Y-83899950D01*
X114645511Y-83912406D01*
X114694170Y-83955301D01*
X114714515Y-84016894D01*
X114700976Y-84080332D01*
X114624272Y-84229521D01*
X114535629Y-84489352D01*
X114485763Y-84759325D01*
X114475737Y-85033678D01*
X114505763Y-85306569D01*
X114505764Y-85306571D01*
X114575204Y-85572182D01*
X114653785Y-85757098D01*
X114682577Y-85824852D01*
X114766890Y-85963005D01*
X114825595Y-86059196D01*
X115001209Y-86270218D01*
X115205677Y-86453423D01*
X115434641Y-86604904D01*
X115683221Y-86721433D01*
X115946119Y-86800527D01*
X116217731Y-86840500D01*
X116423547Y-86840500D01*
X116423551Y-86840500D01*
X116628805Y-86825477D01*
X116681009Y-86813848D01*
X116896775Y-86765784D01*
X117153198Y-86667711D01*
X117392609Y-86533347D01*
X117609904Y-86365557D01*
X117800454Y-86167916D01*
X117960196Y-85944637D01*
X118085727Y-85700479D01*
X118174370Y-85440646D01*
X118224236Y-85170674D01*
X118229242Y-85033678D01*
X125905737Y-85033678D01*
X125935763Y-85306569D01*
X125935764Y-85306571D01*
X126005204Y-85572182D01*
X126083785Y-85757098D01*
X126112577Y-85824852D01*
X126196890Y-85963005D01*
X126255595Y-86059196D01*
X126431209Y-86270218D01*
X126635677Y-86453423D01*
X126864641Y-86604904D01*
X127113221Y-86721433D01*
X127376119Y-86800527D01*
X127647731Y-86840500D01*
X127853547Y-86840500D01*
X127853551Y-86840500D01*
X128058805Y-86825477D01*
X128111009Y-86813848D01*
X128326775Y-86765784D01*
X128583198Y-86667711D01*
X128822609Y-86533347D01*
X129039904Y-86365557D01*
X129230454Y-86167916D01*
X129390196Y-85944637D01*
X129515727Y-85700479D01*
X129604370Y-85440646D01*
X129654236Y-85170674D01*
X129664262Y-84896320D01*
X129634236Y-84623429D01*
X129564796Y-84357818D01*
X129457423Y-84105148D01*
X129447263Y-84088501D01*
X129429110Y-84023957D01*
X129447211Y-83959397D01*
X129496275Y-83913698D01*
X129561957Y-83900222D01*
X129840000Y-83920109D01*
X130125357Y-83899699D01*
X130404902Y-83838888D01*
X130672952Y-83738911D01*
X130924042Y-83601806D01*
X130949188Y-83582982D01*
X130997141Y-83561082D01*
X131049859Y-83561082D01*
X131097812Y-83582982D01*
X131122957Y-83601806D01*
X131374047Y-83738911D01*
X131642097Y-83838888D01*
X131921642Y-83899699D01*
X132206999Y-83920109D01*
X132488852Y-83899950D01*
X132552511Y-83912406D01*
X132601170Y-83955301D01*
X132621515Y-84016894D01*
X132607976Y-84080332D01*
X132531272Y-84229521D01*
X132442629Y-84489352D01*
X132392763Y-84759325D01*
X132382737Y-85033678D01*
X132412763Y-85306569D01*
X132412764Y-85306571D01*
X132482204Y-85572182D01*
X132560785Y-85757098D01*
X132589577Y-85824852D01*
X132673890Y-85963005D01*
X132732595Y-86059196D01*
X132908209Y-86270218D01*
X133112677Y-86453423D01*
X133341641Y-86604904D01*
X133590221Y-86721433D01*
X133853119Y-86800527D01*
X134124731Y-86840500D01*
X134330547Y-86840500D01*
X134330551Y-86840500D01*
X134535805Y-86825477D01*
X134588009Y-86813848D01*
X134803775Y-86765784D01*
X135060198Y-86667711D01*
X135299609Y-86533347D01*
X135516904Y-86365557D01*
X135707454Y-86167916D01*
X135867196Y-85944637D01*
X135992727Y-85700479D01*
X136081370Y-85440646D01*
X136131236Y-85170674D01*
X136136242Y-85033678D01*
X143812737Y-85033678D01*
X143842763Y-85306569D01*
X143842764Y-85306571D01*
X143912204Y-85572182D01*
X143990785Y-85757098D01*
X144019577Y-85824852D01*
X144103890Y-85963005D01*
X144162595Y-86059196D01*
X144338209Y-86270218D01*
X144542677Y-86453423D01*
X144771641Y-86604904D01*
X145020221Y-86721433D01*
X145283119Y-86800527D01*
X145554731Y-86840500D01*
X145760547Y-86840500D01*
X145760551Y-86840500D01*
X145965805Y-86825477D01*
X146018009Y-86813848D01*
X146233775Y-86765784D01*
X146490198Y-86667711D01*
X146729609Y-86533347D01*
X146946904Y-86365557D01*
X147137454Y-86167916D01*
X147297196Y-85944637D01*
X147422727Y-85700479D01*
X147511370Y-85440646D01*
X147561236Y-85170674D01*
X147571262Y-84896320D01*
X147541236Y-84623429D01*
X147471796Y-84357818D01*
X147364423Y-84105148D01*
X147354263Y-84088501D01*
X147336110Y-84023957D01*
X147354211Y-83959397D01*
X147403275Y-83913698D01*
X147468957Y-83900222D01*
X147747000Y-83920109D01*
X148032357Y-83899699D01*
X148311902Y-83838888D01*
X148579952Y-83738911D01*
X148831042Y-83601806D01*
X148856188Y-83582982D01*
X148904141Y-83561082D01*
X148956859Y-83561082D01*
X149004812Y-83582982D01*
X149029957Y-83601806D01*
X149281047Y-83738911D01*
X149549097Y-83838888D01*
X149828642Y-83899699D01*
X150113999Y-83920109D01*
X150395852Y-83899950D01*
X150459511Y-83912406D01*
X150508170Y-83955301D01*
X150528515Y-84016894D01*
X150514976Y-84080332D01*
X150438272Y-84229521D01*
X150349629Y-84489352D01*
X150299763Y-84759325D01*
X150289737Y-85033678D01*
X150319763Y-85306569D01*
X150319764Y-85306571D01*
X150389204Y-85572182D01*
X150467785Y-85757098D01*
X150496577Y-85824852D01*
X150580890Y-85963005D01*
X150639595Y-86059196D01*
X150815209Y-86270218D01*
X151019677Y-86453423D01*
X151248641Y-86604904D01*
X151497221Y-86721433D01*
X151760119Y-86800527D01*
X152031731Y-86840500D01*
X152237547Y-86840500D01*
X152237551Y-86840500D01*
X152442805Y-86825477D01*
X152495009Y-86813848D01*
X152710775Y-86765784D01*
X152967198Y-86667711D01*
X153206609Y-86533347D01*
X153423904Y-86365557D01*
X153614454Y-86167916D01*
X153774196Y-85944637D01*
X153899727Y-85700479D01*
X153988370Y-85440646D01*
X154038236Y-85170674D01*
X154043242Y-85033678D01*
X161719737Y-85033678D01*
X161749763Y-85306569D01*
X161749764Y-85306571D01*
X161819204Y-85572182D01*
X161897785Y-85757098D01*
X161926577Y-85824852D01*
X162010890Y-85963005D01*
X162069595Y-86059196D01*
X162245209Y-86270218D01*
X162449677Y-86453423D01*
X162678641Y-86604904D01*
X162927221Y-86721433D01*
X163190119Y-86800527D01*
X163461731Y-86840500D01*
X163667547Y-86840500D01*
X163667551Y-86840500D01*
X163872805Y-86825477D01*
X163925009Y-86813848D01*
X164140775Y-86765784D01*
X164397198Y-86667711D01*
X164636609Y-86533347D01*
X164853904Y-86365557D01*
X165044454Y-86167916D01*
X165204196Y-85944637D01*
X165329727Y-85700479D01*
X165418370Y-85440646D01*
X165468236Y-85170674D01*
X165478262Y-84896320D01*
X165448236Y-84623429D01*
X165378796Y-84357818D01*
X165271423Y-84105148D01*
X165261263Y-84088501D01*
X165243110Y-84023957D01*
X165261211Y-83959397D01*
X165310275Y-83913698D01*
X165375957Y-83900222D01*
X165654000Y-83920109D01*
X165939357Y-83899699D01*
X166218902Y-83838888D01*
X166486952Y-83738911D01*
X166738042Y-83601806D01*
X166763188Y-83582982D01*
X166811141Y-83561082D01*
X166863859Y-83561082D01*
X166911812Y-83582982D01*
X166936957Y-83601806D01*
X167188047Y-83738911D01*
X167456097Y-83838888D01*
X167735642Y-83899699D01*
X168020999Y-83920109D01*
X168302852Y-83899950D01*
X168366511Y-83912406D01*
X168415170Y-83955301D01*
X168435515Y-84016894D01*
X168421976Y-84080332D01*
X168345272Y-84229521D01*
X168256629Y-84489352D01*
X168206763Y-84759325D01*
X168196737Y-85033678D01*
X168226763Y-85306569D01*
X168226764Y-85306571D01*
X168296204Y-85572182D01*
X168374785Y-85757098D01*
X168403577Y-85824852D01*
X168487890Y-85963005D01*
X168546595Y-86059196D01*
X168722209Y-86270218D01*
X168926677Y-86453423D01*
X169155641Y-86604904D01*
X169404221Y-86721433D01*
X169667119Y-86800527D01*
X169938731Y-86840500D01*
X170144547Y-86840500D01*
X170144551Y-86840500D01*
X170349805Y-86825477D01*
X170402009Y-86813848D01*
X170617775Y-86765784D01*
X170874198Y-86667711D01*
X171113609Y-86533347D01*
X171330904Y-86365557D01*
X171521454Y-86167916D01*
X171681196Y-85944637D01*
X171806727Y-85700479D01*
X171895370Y-85440646D01*
X171945236Y-85170674D01*
X171950242Y-85033678D01*
X179626737Y-85033678D01*
X179656763Y-85306569D01*
X179656764Y-85306571D01*
X179726204Y-85572182D01*
X179804785Y-85757098D01*
X179833577Y-85824852D01*
X179917890Y-85963005D01*
X179976595Y-86059196D01*
X180152209Y-86270218D01*
X180356677Y-86453423D01*
X180585641Y-86604904D01*
X180834221Y-86721433D01*
X181097119Y-86800527D01*
X181368731Y-86840500D01*
X181574547Y-86840500D01*
X181574551Y-86840500D01*
X181779805Y-86825477D01*
X181832009Y-86813848D01*
X182047775Y-86765784D01*
X182304198Y-86667711D01*
X182543609Y-86533347D01*
X182760904Y-86365557D01*
X182951454Y-86167916D01*
X183111196Y-85944637D01*
X183236727Y-85700479D01*
X183325370Y-85440646D01*
X183375236Y-85170674D01*
X183385262Y-84896320D01*
X183355236Y-84623429D01*
X183285796Y-84357818D01*
X183178423Y-84105148D01*
X183168263Y-84088501D01*
X183150110Y-84023957D01*
X183168211Y-83959397D01*
X183217275Y-83913698D01*
X183282957Y-83900222D01*
X183561000Y-83920109D01*
X183846357Y-83899699D01*
X184125902Y-83838888D01*
X184393952Y-83738911D01*
X184645042Y-83601806D01*
X184670188Y-83582982D01*
X184718141Y-83561082D01*
X184770859Y-83561082D01*
X184818812Y-83582982D01*
X184843957Y-83601806D01*
X185095047Y-83738911D01*
X185363097Y-83838888D01*
X185642642Y-83899699D01*
X185927999Y-83920109D01*
X186209852Y-83899950D01*
X186273511Y-83912406D01*
X186322170Y-83955301D01*
X186342515Y-84016894D01*
X186328976Y-84080332D01*
X186252272Y-84229521D01*
X186163629Y-84489352D01*
X186113763Y-84759325D01*
X186103737Y-85033678D01*
X186133763Y-85306569D01*
X186133764Y-85306571D01*
X186203204Y-85572182D01*
X186281785Y-85757098D01*
X186310577Y-85824852D01*
X186394890Y-85963005D01*
X186453595Y-86059196D01*
X186629209Y-86270218D01*
X186833677Y-86453423D01*
X187062641Y-86604904D01*
X187311221Y-86721433D01*
X187574119Y-86800527D01*
X187845731Y-86840500D01*
X188051547Y-86840500D01*
X188051551Y-86840500D01*
X188256805Y-86825477D01*
X188309009Y-86813848D01*
X188524775Y-86765784D01*
X188781198Y-86667711D01*
X189020609Y-86533347D01*
X189237904Y-86365557D01*
X189428454Y-86167916D01*
X189588196Y-85944637D01*
X189713727Y-85700479D01*
X189802370Y-85440646D01*
X189852236Y-85170674D01*
X189857242Y-85033678D01*
X197533737Y-85033678D01*
X197563763Y-85306569D01*
X197563764Y-85306571D01*
X197633204Y-85572182D01*
X197711785Y-85757098D01*
X197740577Y-85824852D01*
X197824890Y-85963005D01*
X197883595Y-86059196D01*
X198059209Y-86270218D01*
X198263677Y-86453423D01*
X198492641Y-86604904D01*
X198741221Y-86721433D01*
X199004119Y-86800527D01*
X199275731Y-86840500D01*
X199481547Y-86840500D01*
X199481551Y-86840500D01*
X199686805Y-86825477D01*
X199739009Y-86813848D01*
X199954775Y-86765784D01*
X200211198Y-86667711D01*
X200450609Y-86533347D01*
X200667904Y-86365557D01*
X200667908Y-86365552D01*
X200669331Y-86364454D01*
X200684384Y-86357975D01*
X200696838Y-86335546D01*
X200858454Y-86167916D01*
X201018196Y-85944637D01*
X201143727Y-85700479D01*
X201232370Y-85440646D01*
X201282236Y-85170674D01*
X201292262Y-84896320D01*
X201262236Y-84623429D01*
X201192796Y-84357818D01*
X201085423Y-84105148D01*
X201075263Y-84088501D01*
X201057110Y-84023957D01*
X201075211Y-83959397D01*
X201124275Y-83913698D01*
X201189957Y-83900222D01*
X201468000Y-83920109D01*
X201753357Y-83899699D01*
X202032902Y-83838888D01*
X202300952Y-83738911D01*
X202552041Y-83601806D01*
X202694562Y-83495115D01*
X201468000Y-82268553D01*
X201114448Y-81915001D01*
X201821553Y-81915001D01*
X203048115Y-83141562D01*
X203154806Y-82999041D01*
X203291911Y-82747952D01*
X203391888Y-82479902D01*
X203452699Y-82200357D01*
X203473109Y-81915000D01*
X203452699Y-81629642D01*
X203391888Y-81350097D01*
X203291911Y-81082047D01*
X203154806Y-80830958D01*
X203048115Y-80688436D01*
X201821553Y-81915000D01*
X201821553Y-81915001D01*
X201114448Y-81915001D01*
X199887882Y-80688436D01*
X199887882Y-80688437D01*
X199781195Y-80830954D01*
X199644088Y-81082047D01*
X199544111Y-81350097D01*
X199483300Y-81629642D01*
X199462890Y-81915000D01*
X199483300Y-82200357D01*
X199544111Y-82479902D01*
X199644088Y-82747953D01*
X199735868Y-82916035D01*
X199750853Y-82982202D01*
X199728775Y-83046351D01*
X199676243Y-83089281D01*
X199608982Y-83098140D01*
X199550269Y-83089500D01*
X199344453Y-83089500D01*
X199344449Y-83089500D01*
X199139194Y-83104522D01*
X198871225Y-83164215D01*
X198614803Y-83262288D01*
X198375391Y-83396653D01*
X198158094Y-83564443D01*
X197967545Y-83762083D01*
X197807802Y-83985364D01*
X197682272Y-84229521D01*
X197593629Y-84489352D01*
X197543763Y-84759325D01*
X197533737Y-85033678D01*
X189857242Y-85033678D01*
X189862262Y-84896320D01*
X189832236Y-84623429D01*
X189762796Y-84357818D01*
X189655423Y-84105148D01*
X189512405Y-83870804D01*
X189336791Y-83659782D01*
X189132323Y-83476577D01*
X188903359Y-83325096D01*
X188654779Y-83208567D01*
X188391881Y-83129473D01*
X188120269Y-83089500D01*
X187914453Y-83089500D01*
X187914449Y-83089500D01*
X187777812Y-83099500D01*
X187713394Y-83086784D01*
X187664501Y-83042957D01*
X187644842Y-82980308D01*
X187659929Y-82916404D01*
X187751911Y-82747952D01*
X187851888Y-82479902D01*
X187912699Y-82200357D01*
X187933109Y-81915000D01*
X187912699Y-81629642D01*
X187851888Y-81350097D01*
X187751911Y-81082047D01*
X187614806Y-80830958D01*
X187508115Y-80688436D01*
X186015680Y-82180871D01*
X185960093Y-82212965D01*
X185895905Y-82212965D01*
X185840318Y-82180871D01*
X185662127Y-82002680D01*
X185630033Y-81947093D01*
X185630033Y-81882905D01*
X185662127Y-81827318D01*
X187154562Y-80334883D01*
X200241436Y-80334883D01*
X201468000Y-81561446D01*
X201468001Y-81561446D01*
X202694562Y-80334883D01*
X202552042Y-80228193D01*
X202300952Y-80091088D01*
X202032902Y-79991111D01*
X201847429Y-79950764D01*
X208838787Y-79950764D01*
X208868413Y-80220016D01*
X208936928Y-80482087D01*
X209042871Y-80731392D01*
X209183982Y-80962611D01*
X209357253Y-81170818D01*
X209357255Y-81170820D01*
X209558998Y-81351582D01*
X209784910Y-81501044D01*
X209891211Y-81550876D01*
X210030177Y-81616021D01*
X210289562Y-81694058D01*
X210289569Y-81694060D01*
X210557561Y-81733500D01*
X210760631Y-81733500D01*
X210760634Y-81733500D01*
X210963156Y-81718677D01*
X210963155Y-81718677D01*
X211227553Y-81659780D01*
X211480558Y-81563014D01*
X211716777Y-81430441D01*
X211931177Y-81264888D01*
X212119186Y-81069881D01*
X212276799Y-80849579D01*
X212400656Y-80608675D01*
X212488118Y-80352305D01*
X212537319Y-80085933D01*
X212547212Y-79815235D01*
X212517586Y-79545982D01*
X212449072Y-79283912D01*
X212343130Y-79034610D01*
X212202018Y-78803390D01*
X212202017Y-78803388D01*
X212028746Y-78595181D01*
X211923758Y-78501112D01*
X211827002Y-78414418D01*
X211601090Y-78264956D01*
X211601086Y-78264954D01*
X211355822Y-78149978D01*
X211096437Y-78071941D01*
X211096431Y-78071940D01*
X210828439Y-78032500D01*
X210625369Y-78032500D01*
X210625366Y-78032500D01*
X210422843Y-78047322D01*
X210158449Y-78106219D01*
X209905441Y-78202986D01*
X209669223Y-78335559D01*
X209454825Y-78501109D01*
X209266813Y-78696120D01*
X209109201Y-78916420D01*
X208985342Y-79157329D01*
X208897881Y-79413695D01*
X208848680Y-79680066D01*
X208838787Y-79950764D01*
X201847429Y-79950764D01*
X201753357Y-79930300D01*
X201468000Y-79909890D01*
X201182642Y-79930300D01*
X200903097Y-79991111D01*
X200635047Y-80091088D01*
X200383954Y-80228195D01*
X200241437Y-80334882D01*
X200241436Y-80334883D01*
X187154562Y-80334883D01*
X187012042Y-80228193D01*
X186760952Y-80091088D01*
X186492902Y-79991111D01*
X186213357Y-79930300D01*
X185928000Y-79909890D01*
X185642642Y-79930300D01*
X185363097Y-79991111D01*
X185095047Y-80091088D01*
X184843958Y-80228193D01*
X184818810Y-80247019D01*
X184770858Y-80268917D01*
X184718142Y-80268917D01*
X184670190Y-80247019D01*
X184645041Y-80228193D01*
X184393952Y-80091088D01*
X184125902Y-79991111D01*
X183846357Y-79930300D01*
X183561000Y-79909890D01*
X183275642Y-79930300D01*
X182996097Y-79991111D01*
X182728047Y-80091088D01*
X182476954Y-80228195D01*
X182334437Y-80334882D01*
X182334436Y-80334882D01*
X183826872Y-81827318D01*
X183858966Y-81882905D01*
X183858966Y-81947093D01*
X183826872Y-82002680D01*
X183648680Y-82180872D01*
X183593093Y-82212966D01*
X183528905Y-82212966D01*
X183473318Y-82180872D01*
X181980882Y-80688436D01*
X181980882Y-80688437D01*
X181874195Y-80830954D01*
X181737088Y-81082047D01*
X181637111Y-81350097D01*
X181576300Y-81629642D01*
X181555890Y-81915000D01*
X181576300Y-82200357D01*
X181637111Y-82479902D01*
X181737088Y-82747953D01*
X181828868Y-82916035D01*
X181843853Y-82982202D01*
X181821775Y-83046351D01*
X181769243Y-83089281D01*
X181701982Y-83098140D01*
X181643269Y-83089500D01*
X181437453Y-83089500D01*
X181437449Y-83089500D01*
X181232194Y-83104522D01*
X180964225Y-83164215D01*
X180707803Y-83262288D01*
X180468391Y-83396653D01*
X180251094Y-83564443D01*
X180060545Y-83762083D01*
X179900802Y-83985364D01*
X179775272Y-84229521D01*
X179686629Y-84489352D01*
X179636763Y-84759325D01*
X179626737Y-85033678D01*
X171950242Y-85033678D01*
X171955262Y-84896320D01*
X171925236Y-84623429D01*
X171855796Y-84357818D01*
X171748423Y-84105148D01*
X171605405Y-83870804D01*
X171429791Y-83659782D01*
X171225323Y-83476577D01*
X170996359Y-83325096D01*
X170747779Y-83208567D01*
X170484881Y-83129473D01*
X170213269Y-83089500D01*
X170007453Y-83089500D01*
X170007449Y-83089500D01*
X169870812Y-83099500D01*
X169806394Y-83086784D01*
X169757501Y-83042957D01*
X169737842Y-82980308D01*
X169752929Y-82916404D01*
X169844911Y-82747952D01*
X169944888Y-82479902D01*
X170005699Y-82200357D01*
X170026109Y-81915000D01*
X170005699Y-81629642D01*
X169944888Y-81350097D01*
X169844911Y-81082047D01*
X169707806Y-80830958D01*
X169601115Y-80688436D01*
X168108680Y-82180871D01*
X168053093Y-82212965D01*
X167988905Y-82212965D01*
X167933318Y-82180871D01*
X167755127Y-82002680D01*
X167723033Y-81947093D01*
X167723033Y-81882905D01*
X167755127Y-81827318D01*
X169247562Y-80334883D01*
X169105042Y-80228193D01*
X168853952Y-80091088D01*
X168585902Y-79991111D01*
X168306357Y-79930300D01*
X168021000Y-79909890D01*
X167735642Y-79930300D01*
X167456097Y-79991111D01*
X167188047Y-80091088D01*
X166936958Y-80228193D01*
X166911810Y-80247019D01*
X166863858Y-80268917D01*
X166811142Y-80268917D01*
X166763190Y-80247019D01*
X166738041Y-80228193D01*
X166486952Y-80091088D01*
X166218902Y-79991111D01*
X165939357Y-79930300D01*
X165654000Y-79909890D01*
X165368642Y-79930300D01*
X165089097Y-79991111D01*
X164821047Y-80091088D01*
X164569954Y-80228195D01*
X164427437Y-80334882D01*
X164427436Y-80334882D01*
X165919872Y-81827318D01*
X165951966Y-81882905D01*
X165951966Y-81947093D01*
X165919872Y-82002680D01*
X165741680Y-82180872D01*
X165686093Y-82212966D01*
X165621905Y-82212966D01*
X165566318Y-82180872D01*
X164073882Y-80688436D01*
X164073882Y-80688437D01*
X163967195Y-80830954D01*
X163830088Y-81082047D01*
X163730111Y-81350097D01*
X163669300Y-81629642D01*
X163648890Y-81915000D01*
X163669300Y-82200357D01*
X163730111Y-82479902D01*
X163830088Y-82747953D01*
X163921868Y-82916035D01*
X163936853Y-82982202D01*
X163914775Y-83046351D01*
X163862243Y-83089281D01*
X163794982Y-83098140D01*
X163736269Y-83089500D01*
X163530453Y-83089500D01*
X163530449Y-83089500D01*
X163325194Y-83104522D01*
X163057225Y-83164215D01*
X162800803Y-83262288D01*
X162561391Y-83396653D01*
X162344094Y-83564443D01*
X162153545Y-83762083D01*
X161993802Y-83985364D01*
X161868272Y-84229521D01*
X161779629Y-84489352D01*
X161729763Y-84759325D01*
X161719737Y-85033678D01*
X154043242Y-85033678D01*
X154048262Y-84896320D01*
X154018236Y-84623429D01*
X153948796Y-84357818D01*
X153841423Y-84105148D01*
X153698405Y-83870804D01*
X153522791Y-83659782D01*
X153318323Y-83476577D01*
X153089359Y-83325096D01*
X152840779Y-83208567D01*
X152577881Y-83129473D01*
X152306269Y-83089500D01*
X152100453Y-83089500D01*
X152100449Y-83089500D01*
X151963812Y-83099500D01*
X151899394Y-83086784D01*
X151850501Y-83042957D01*
X151830842Y-82980308D01*
X151845929Y-82916404D01*
X151937911Y-82747952D01*
X152037888Y-82479902D01*
X152098699Y-82200357D01*
X152119109Y-81915000D01*
X152098699Y-81629642D01*
X152037888Y-81350097D01*
X151937911Y-81082047D01*
X151800806Y-80830958D01*
X151694115Y-80688436D01*
X150201680Y-82180871D01*
X150146093Y-82212965D01*
X150081905Y-82212965D01*
X150026318Y-82180871D01*
X149848127Y-82002680D01*
X149816033Y-81947093D01*
X149816033Y-81882905D01*
X149848127Y-81827318D01*
X151340562Y-80334883D01*
X151198042Y-80228193D01*
X150946952Y-80091088D01*
X150678902Y-79991111D01*
X150399357Y-79930300D01*
X150114000Y-79909890D01*
X149828642Y-79930300D01*
X149549097Y-79991111D01*
X149281047Y-80091088D01*
X149029958Y-80228193D01*
X149004810Y-80247019D01*
X148956858Y-80268917D01*
X148904142Y-80268917D01*
X148856190Y-80247019D01*
X148831041Y-80228193D01*
X148579952Y-80091088D01*
X148311902Y-79991111D01*
X148032357Y-79930300D01*
X147747000Y-79909890D01*
X147461642Y-79930300D01*
X147182097Y-79991111D01*
X146914047Y-80091088D01*
X146662954Y-80228195D01*
X146520437Y-80334882D01*
X146520436Y-80334882D01*
X148012872Y-81827318D01*
X148044966Y-81882905D01*
X148044966Y-81947093D01*
X148012872Y-82002680D01*
X147834680Y-82180872D01*
X147779093Y-82212966D01*
X147714905Y-82212966D01*
X147659318Y-82180872D01*
X146166882Y-80688436D01*
X146166882Y-80688437D01*
X146060195Y-80830954D01*
X145923088Y-81082047D01*
X145823111Y-81350097D01*
X145762300Y-81629642D01*
X145741890Y-81915000D01*
X145762300Y-82200357D01*
X145823111Y-82479902D01*
X145923088Y-82747953D01*
X146014868Y-82916035D01*
X146029853Y-82982202D01*
X146007775Y-83046351D01*
X145955243Y-83089281D01*
X145887982Y-83098140D01*
X145829269Y-83089500D01*
X145623453Y-83089500D01*
X145623449Y-83089500D01*
X145418194Y-83104522D01*
X145150225Y-83164215D01*
X144893803Y-83262288D01*
X144654391Y-83396653D01*
X144437094Y-83564443D01*
X144246545Y-83762083D01*
X144086802Y-83985364D01*
X143961272Y-84229521D01*
X143872629Y-84489352D01*
X143822763Y-84759325D01*
X143812737Y-85033678D01*
X136136242Y-85033678D01*
X136141262Y-84896320D01*
X136111236Y-84623429D01*
X136041796Y-84357818D01*
X135934423Y-84105148D01*
X135791405Y-83870804D01*
X135615791Y-83659782D01*
X135411323Y-83476577D01*
X135182359Y-83325096D01*
X134933779Y-83208567D01*
X134670881Y-83129473D01*
X134399269Y-83089500D01*
X134193453Y-83089500D01*
X134193449Y-83089500D01*
X134056812Y-83099500D01*
X133992394Y-83086784D01*
X133943501Y-83042957D01*
X133923842Y-82980308D01*
X133938929Y-82916404D01*
X134030911Y-82747952D01*
X134130888Y-82479902D01*
X134191699Y-82200357D01*
X134212109Y-81915000D01*
X134191699Y-81629642D01*
X134130888Y-81350097D01*
X134030911Y-81082047D01*
X133893806Y-80830958D01*
X133787115Y-80688436D01*
X132294680Y-82180871D01*
X132239093Y-82212965D01*
X132174905Y-82212965D01*
X132119318Y-82180871D01*
X131941127Y-82002680D01*
X131909033Y-81947093D01*
X131909033Y-81882905D01*
X131941127Y-81827318D01*
X133433562Y-80334883D01*
X133291042Y-80228193D01*
X133039952Y-80091088D01*
X132771902Y-79991111D01*
X132492357Y-79930300D01*
X132207000Y-79909890D01*
X131921642Y-79930300D01*
X131642097Y-79991111D01*
X131374047Y-80091088D01*
X131122958Y-80228193D01*
X131097810Y-80247019D01*
X131049858Y-80268917D01*
X130997142Y-80268917D01*
X130949190Y-80247019D01*
X130924041Y-80228193D01*
X130672952Y-80091088D01*
X130404902Y-79991111D01*
X130125357Y-79930300D01*
X129840000Y-79909890D01*
X129554642Y-79930300D01*
X129275097Y-79991111D01*
X129007047Y-80091088D01*
X128755954Y-80228195D01*
X128613437Y-80334882D01*
X128613436Y-80334882D01*
X130105872Y-81827318D01*
X130137966Y-81882905D01*
X130137966Y-81947093D01*
X130105872Y-82002680D01*
X129927680Y-82180872D01*
X129872093Y-82212966D01*
X129807905Y-82212966D01*
X129752318Y-82180872D01*
X128259882Y-80688436D01*
X128259882Y-80688437D01*
X128153195Y-80830954D01*
X128016088Y-81082047D01*
X127916111Y-81350097D01*
X127855300Y-81629642D01*
X127834890Y-81915000D01*
X127855300Y-82200357D01*
X127916111Y-82479902D01*
X128016088Y-82747953D01*
X128107868Y-82916035D01*
X128122853Y-82982202D01*
X128100775Y-83046351D01*
X128048243Y-83089281D01*
X127980982Y-83098140D01*
X127922269Y-83089500D01*
X127716453Y-83089500D01*
X127716449Y-83089500D01*
X127511194Y-83104522D01*
X127243225Y-83164215D01*
X126986803Y-83262288D01*
X126747391Y-83396653D01*
X126530094Y-83564443D01*
X126339545Y-83762083D01*
X126179802Y-83985364D01*
X126054272Y-84229521D01*
X125965629Y-84489352D01*
X125915763Y-84759325D01*
X125905737Y-85033678D01*
X118229242Y-85033678D01*
X118234262Y-84896320D01*
X118204236Y-84623429D01*
X118134796Y-84357818D01*
X118027423Y-84105148D01*
X117884405Y-83870804D01*
X117708791Y-83659782D01*
X117504323Y-83476577D01*
X117275359Y-83325096D01*
X117026779Y-83208567D01*
X116763881Y-83129473D01*
X116492269Y-83089500D01*
X116286453Y-83089500D01*
X116286449Y-83089500D01*
X116149812Y-83099500D01*
X116085394Y-83086784D01*
X116036501Y-83042957D01*
X116016842Y-82980308D01*
X116031929Y-82916404D01*
X116123911Y-82747952D01*
X116223888Y-82479902D01*
X116284699Y-82200357D01*
X116305109Y-81915000D01*
X116284699Y-81629642D01*
X116223888Y-81350097D01*
X116123911Y-81082047D01*
X115986806Y-80830958D01*
X115880115Y-80688436D01*
X114387680Y-82180871D01*
X114332093Y-82212965D01*
X114267905Y-82212965D01*
X114212318Y-82180871D01*
X114034127Y-82002680D01*
X114002033Y-81947093D01*
X114002033Y-81882905D01*
X114034127Y-81827318D01*
X115526562Y-80334883D01*
X115384042Y-80228193D01*
X115132952Y-80091088D01*
X114864902Y-79991111D01*
X114585357Y-79930300D01*
X114300000Y-79909890D01*
X114014642Y-79930300D01*
X113735097Y-79991111D01*
X113467046Y-80091088D01*
X113216427Y-80227937D01*
X113157000Y-80243105D01*
X113097573Y-80227937D01*
X112846953Y-80091088D01*
X112578902Y-79991111D01*
X112299357Y-79930300D01*
X112014000Y-79909890D01*
X111728642Y-79930300D01*
X111449097Y-79991111D01*
X111181047Y-80091088D01*
X110929954Y-80228195D01*
X110787437Y-80334882D01*
X110787436Y-80334882D01*
X112279872Y-81827318D01*
X112311966Y-81882905D01*
X112311966Y-81947093D01*
X112279872Y-82002680D01*
X112101680Y-82180872D01*
X112046093Y-82212966D01*
X111981905Y-82212966D01*
X111926318Y-82180872D01*
X110433882Y-80688436D01*
X110433882Y-80688437D01*
X110327195Y-80830954D01*
X110190088Y-81082047D01*
X110090111Y-81350097D01*
X110029300Y-81629642D01*
X110008890Y-81915000D01*
X110029300Y-82200357D01*
X110090111Y-82479902D01*
X110190088Y-82747953D01*
X110281868Y-82916035D01*
X110296853Y-82982202D01*
X110274775Y-83046351D01*
X110222243Y-83089281D01*
X110154982Y-83098140D01*
X110096269Y-83089500D01*
X109890453Y-83089500D01*
X109890449Y-83089500D01*
X109685194Y-83104522D01*
X109417225Y-83164215D01*
X109160803Y-83262288D01*
X108921391Y-83396653D01*
X108704094Y-83564443D01*
X108513545Y-83762083D01*
X108353802Y-83985364D01*
X108228272Y-84229521D01*
X108139629Y-84489352D01*
X108089763Y-84759325D01*
X108079737Y-85033678D01*
X100403242Y-85033678D01*
X100408262Y-84896320D01*
X100378236Y-84623429D01*
X100308796Y-84357818D01*
X100201423Y-84105148D01*
X100058405Y-83870804D01*
X99882791Y-83659782D01*
X99678323Y-83476577D01*
X99449359Y-83325096D01*
X99200779Y-83208567D01*
X98937881Y-83129473D01*
X98666269Y-83089500D01*
X98460453Y-83089500D01*
X98460449Y-83089500D01*
X98323812Y-83099500D01*
X98259394Y-83086784D01*
X98210501Y-83042957D01*
X98190842Y-82980308D01*
X98205929Y-82916404D01*
X98297911Y-82747952D01*
X98397888Y-82479902D01*
X98458699Y-82200357D01*
X98479109Y-81915000D01*
X98458699Y-81629642D01*
X98397888Y-81350097D01*
X98297911Y-81082047D01*
X98160806Y-80830958D01*
X98054115Y-80688436D01*
X96561680Y-82180872D01*
X96506093Y-82212966D01*
X96441905Y-82212966D01*
X96386318Y-82180872D01*
X94893882Y-80688436D01*
X94893882Y-80688437D01*
X94787195Y-80830954D01*
X94650088Y-81082047D01*
X94550111Y-81350097D01*
X94489300Y-81629642D01*
X94468890Y-81915000D01*
X94489300Y-82200357D01*
X94550111Y-82479902D01*
X94649436Y-82746204D01*
X94655858Y-82808088D01*
X94631415Y-82865303D01*
X94582259Y-82903443D01*
X94520766Y-82912907D01*
X94479720Y-82897716D01*
X94478879Y-82899677D01*
X94413088Y-82871443D01*
X94404579Y-82867402D01*
X94352296Y-82840092D01*
X94346369Y-82838396D01*
X94323041Y-82831721D01*
X94308263Y-82826459D01*
X94280301Y-82814460D01*
X94222515Y-82802583D01*
X94213371Y-82800338D01*
X94156664Y-82784113D01*
X94126318Y-82781802D01*
X94110777Y-82779622D01*
X94080985Y-82773500D01*
X94080984Y-82773500D01*
X94022001Y-82773500D01*
X94012587Y-82773142D01*
X93987635Y-82771242D01*
X93953767Y-82768663D01*
X93953766Y-82768663D01*
X93923592Y-82772506D01*
X93907926Y-82773500D01*
X87055279Y-82773500D01*
X87052137Y-82773460D01*
X86964637Y-82771242D01*
X86906580Y-82781648D01*
X86897251Y-82782957D01*
X86838562Y-82788926D01*
X86809527Y-82798035D01*
X86794290Y-82801774D01*
X86764350Y-82807141D01*
X86709567Y-82829022D01*
X86700698Y-82832179D01*
X86644410Y-82849841D01*
X86617809Y-82864605D01*
X86603639Y-82871335D01*
X86575385Y-82882622D01*
X86526121Y-82915087D01*
X86518070Y-82919964D01*
X86466498Y-82948590D01*
X86443414Y-82968407D01*
X86430887Y-82977853D01*
X86405481Y-82994598D01*
X86363776Y-83036302D01*
X86356869Y-83042702D01*
X86312107Y-83081130D01*
X86293482Y-83105191D01*
X86283111Y-83116966D01*
X86170624Y-83229454D01*
X86168375Y-83231646D01*
X86104949Y-83291938D01*
X86071245Y-83340361D01*
X86065573Y-83347882D01*
X86028301Y-83393593D01*
X86014210Y-83420566D01*
X86006082Y-83433983D01*
X85988705Y-83458950D01*
X85965439Y-83513165D01*
X85961399Y-83521671D01*
X85934090Y-83573952D01*
X85925720Y-83603201D01*
X85920459Y-83617978D01*
X85908460Y-83645942D01*
X85896587Y-83703713D01*
X85894342Y-83712860D01*
X85878113Y-83769580D01*
X85875802Y-83799925D01*
X85873622Y-83815466D01*
X85867500Y-83845259D01*
X85867500Y-83904242D01*
X85867142Y-83913656D01*
X85862663Y-83972477D01*
X85866506Y-84002651D01*
X85867500Y-84018317D01*
X85867500Y-99553721D01*
X85867460Y-99556863D01*
X85865242Y-99644362D01*
X85875648Y-99702420D01*
X85876957Y-99711749D01*
X85882926Y-99770438D01*
X85892033Y-99799467D01*
X85895772Y-99814702D01*
X85901141Y-99844652D01*
X85923020Y-99899425D01*
X85926180Y-99908300D01*
X85939332Y-99950219D01*
X85943841Y-99964588D01*
X85958607Y-99991191D01*
X85965337Y-100005364D01*
X85976622Y-100033617D01*
X86009080Y-100082867D01*
X86013961Y-100090923D01*
X86042590Y-100142501D01*
X86062404Y-100165581D01*
X86071856Y-100178116D01*
X86087866Y-100202409D01*
X86088599Y-100203520D01*
X86130300Y-100245221D01*
X86136705Y-100252132D01*
X86175130Y-100296891D01*
X86175131Y-100296892D01*
X86175134Y-100296895D01*
X86199198Y-100315522D01*
X86210968Y-100325889D01*
X88792181Y-102907102D01*
X88819061Y-102947330D01*
X88828500Y-102994783D01*
X88828500Y-103794008D01*
X88839000Y-103896796D01*
X88894186Y-104063334D01*
X88986288Y-104212657D01*
X89110342Y-104336711D01*
X89145517Y-104358407D01*
X89259666Y-104428814D01*
X89371017Y-104465712D01*
X89426202Y-104483999D01*
X89436703Y-104485071D01*
X89528991Y-104494500D01*
X91319008Y-104494499D01*
X91421797Y-104483999D01*
X91588334Y-104428814D01*
X91737656Y-104336712D01*
X91861712Y-104212656D01*
X91953814Y-104063334D01*
X92008999Y-103896797D01*
X92019500Y-103794009D01*
X92019499Y-102453992D01*
X92019364Y-102452675D01*
X92008999Y-102351203D01*
X91996507Y-102313506D01*
X91953814Y-102184666D01*
X91861712Y-102035344D01*
X91861711Y-102035342D01*
X91737657Y-101911288D01*
X91575999Y-101811578D01*
X91577812Y-101808637D01*
X91547030Y-101788584D01*
X91517954Y-101732613D01*
X91520173Y-101669580D01*
X91553110Y-101615794D01*
X91681516Y-101492728D01*
X91820240Y-101305161D01*
X91925270Y-101096847D01*
X91993583Y-100873780D01*
X92023216Y-100642376D01*
X92013314Y-100409293D01*
X91964164Y-100181235D01*
X91877179Y-99964765D01*
X91754862Y-99766109D01*
X91600731Y-99590982D01*
X91596025Y-99587182D01*
X91419221Y-99444421D01*
X91378897Y-99421895D01*
X91333782Y-99378655D01*
X91315484Y-99318904D01*
X91328649Y-99257816D01*
X91369933Y-99210909D01*
X91513088Y-99114153D01*
X91681516Y-98952728D01*
X91820240Y-98765161D01*
X91925270Y-98556847D01*
X91993583Y-98333780D01*
X92023216Y-98102376D01*
X92013314Y-97869293D01*
X91964164Y-97641235D01*
X91961935Y-97635689D01*
X91889893Y-97456405D01*
X91877179Y-97424765D01*
X91754862Y-97226109D01*
X91600731Y-97050982D01*
X91600729Y-97050980D01*
X91419221Y-96904421D01*
X91378897Y-96881895D01*
X91333782Y-96838655D01*
X91315484Y-96778904D01*
X91328649Y-96717816D01*
X91369933Y-96670909D01*
X91513088Y-96574153D01*
X91681516Y-96412728D01*
X91820240Y-96225161D01*
X91925270Y-96016847D01*
X91993583Y-95793780D01*
X92023216Y-95562376D01*
X92013314Y-95329293D01*
X91964164Y-95101235D01*
X91963536Y-95099673D01*
X91890677Y-94918356D01*
X91877179Y-94884765D01*
X91754862Y-94686109D01*
X91600731Y-94510982D01*
X91600729Y-94510980D01*
X91419221Y-94364421D01*
X91378897Y-94341895D01*
X91333782Y-94298655D01*
X91315484Y-94238904D01*
X91328649Y-94177816D01*
X91369933Y-94130909D01*
X91513088Y-94034153D01*
X91681516Y-93872728D01*
X91820240Y-93685161D01*
X91925270Y-93476847D01*
X91993583Y-93253780D01*
X92023216Y-93022376D01*
X92013314Y-92789293D01*
X91964164Y-92561235D01*
X91960134Y-92551207D01*
X91877180Y-92344768D01*
X91877179Y-92344765D01*
X91754862Y-92146109D01*
X91600731Y-91970982D01*
X91596419Y-91967500D01*
X91419221Y-91824421D01*
X91378897Y-91801895D01*
X91333782Y-91758655D01*
X91315484Y-91698904D01*
X91328649Y-91637816D01*
X91369933Y-91590909D01*
X91513088Y-91494153D01*
X91681516Y-91332728D01*
X91820240Y-91145161D01*
X91893896Y-90999071D01*
X91931412Y-90954815D01*
X91984959Y-90932468D01*
X92042810Y-90936928D01*
X92092298Y-90967219D01*
X96689181Y-95564102D01*
X96716061Y-95604330D01*
X96725500Y-95651783D01*
X96725500Y-95679721D01*
X96725460Y-95682863D01*
X96723242Y-95770362D01*
X96733648Y-95828420D01*
X96734957Y-95837749D01*
X96740926Y-95896438D01*
X96750033Y-95925467D01*
X96753772Y-95940702D01*
X96759141Y-95970652D01*
X96781020Y-96025425D01*
X96784180Y-96034300D01*
X96788831Y-96049125D01*
X96801841Y-96090588D01*
X96816607Y-96117191D01*
X96823337Y-96131364D01*
X96834622Y-96159617D01*
X96867080Y-96208867D01*
X96871961Y-96216923D01*
X96900590Y-96268501D01*
X96920404Y-96291581D01*
X96929856Y-96304116D01*
X96941571Y-96321892D01*
X96946599Y-96329520D01*
X96988300Y-96371221D01*
X96994705Y-96378132D01*
X97033130Y-96422891D01*
X97033131Y-96422892D01*
X97033134Y-96422895D01*
X97057198Y-96441522D01*
X97068968Y-96451889D01*
X100154898Y-99537819D01*
X100185148Y-99587182D01*
X100189690Y-99644898D01*
X100167535Y-99698385D01*
X100123512Y-99735985D01*
X100067217Y-99749500D01*
X100008366Y-99749500D01*
X99805843Y-99764322D01*
X99541449Y-99823219D01*
X99288441Y-99919986D01*
X99052223Y-100052559D01*
X98837825Y-100218109D01*
X98649813Y-100413120D01*
X98492201Y-100633420D01*
X98368342Y-100874329D01*
X98280881Y-101130695D01*
X98231680Y-101397066D01*
X98221787Y-101667764D01*
X98251413Y-101937016D01*
X98289089Y-102081126D01*
X98319928Y-102199088D01*
X98425870Y-102448390D01*
X98425871Y-102448392D01*
X98566982Y-102679611D01*
X98736007Y-102882716D01*
X98740255Y-102887820D01*
X98941998Y-103068582D01*
X99167910Y-103218044D01*
X99238212Y-103251000D01*
X99413177Y-103333021D01*
X99672562Y-103411058D01*
X99672569Y-103411060D01*
X99940561Y-103450500D01*
X100143631Y-103450500D01*
X100143634Y-103450500D01*
X100346156Y-103435677D01*
X100389337Y-103426058D01*
X100610553Y-103376780D01*
X100863558Y-103280014D01*
X101099777Y-103147441D01*
X101314177Y-102981888D01*
X101502186Y-102786881D01*
X101659799Y-102566579D01*
X101783656Y-102325675D01*
X101871118Y-102069305D01*
X101920319Y-101802933D01*
X101930212Y-101532235D01*
X101900586Y-101262982D01*
X101832072Y-101000912D01*
X101829556Y-100994992D01*
X101820198Y-100935190D01*
X101840266Y-100878080D01*
X101884979Y-100837275D01*
X101943681Y-100822500D01*
X115104217Y-100822500D01*
X115151670Y-100831939D01*
X115191898Y-100858819D01*
X121305431Y-106972351D01*
X121307624Y-106974600D01*
X121367942Y-107038054D01*
X121416362Y-107071755D01*
X121423871Y-107077416D01*
X121469593Y-107114698D01*
X121496562Y-107128785D01*
X121509982Y-107136916D01*
X121534949Y-107154294D01*
X121534950Y-107154294D01*
X121534951Y-107154295D01*
X121563105Y-107166377D01*
X121589163Y-107177559D01*
X121597673Y-107181601D01*
X121649951Y-107208909D01*
X121679200Y-107217277D01*
X121693970Y-107222535D01*
X121721942Y-107234540D01*
X121721945Y-107234540D01*
X121721946Y-107234541D01*
X121779726Y-107246414D01*
X121788869Y-107248657D01*
X121845582Y-107264886D01*
X121875920Y-107267196D01*
X121891448Y-107269373D01*
X121921259Y-107275500D01*
X121980244Y-107275500D01*
X121989659Y-107275858D01*
X121993806Y-107276173D01*
X122048476Y-107280337D01*
X122075278Y-107276923D01*
X122078652Y-107276494D01*
X122094317Y-107275500D01*
X149996721Y-107275500D01*
X149999862Y-107275539D01*
X150087363Y-107277757D01*
X150145432Y-107267348D01*
X150154736Y-107266043D01*
X150213438Y-107260074D01*
X150242467Y-107250965D01*
X150257700Y-107247226D01*
X150287653Y-107241858D01*
X150342426Y-107219978D01*
X150351301Y-107216819D01*
X150368675Y-107211367D01*
X150407588Y-107199159D01*
X150434194Y-107184390D01*
X150448362Y-107177662D01*
X150476617Y-107166377D01*
X150525879Y-107133909D01*
X150533910Y-107129043D01*
X150585502Y-107100409D01*
X150608587Y-107080589D01*
X150621114Y-107071144D01*
X150646519Y-107054402D01*
X150688251Y-107012668D01*
X150695123Y-107006300D01*
X150739895Y-106967866D01*
X150758519Y-106943803D01*
X150768880Y-106932039D01*
X151423322Y-106277598D01*
X151478905Y-106245507D01*
X151543093Y-106245507D01*
X151598680Y-106277601D01*
X152293450Y-106972371D01*
X152295643Y-106974620D01*
X152355941Y-107038053D01*
X152381583Y-107055900D01*
X152404352Y-107071748D01*
X152411876Y-107077421D01*
X152457594Y-107114699D01*
X152484555Y-107128782D01*
X152497980Y-107136915D01*
X152522951Y-107154295D01*
X152577163Y-107177559D01*
X152585673Y-107181601D01*
X152637951Y-107208909D01*
X152667200Y-107217277D01*
X152681970Y-107222535D01*
X152709942Y-107234540D01*
X152709945Y-107234540D01*
X152709946Y-107234541D01*
X152767726Y-107246414D01*
X152776869Y-107248657D01*
X152833582Y-107264886D01*
X152863920Y-107267196D01*
X152879448Y-107269373D01*
X152909259Y-107275500D01*
X152968244Y-107275500D01*
X152977659Y-107275858D01*
X152981806Y-107276173D01*
X153036476Y-107280337D01*
X153063278Y-107276923D01*
X153066652Y-107276494D01*
X153082317Y-107275500D01*
X163966721Y-107275500D01*
X163969862Y-107275539D01*
X164057363Y-107277757D01*
X164115432Y-107267348D01*
X164124736Y-107266043D01*
X164183438Y-107260074D01*
X164212467Y-107250965D01*
X164227700Y-107247226D01*
X164257653Y-107241858D01*
X164312426Y-107219978D01*
X164321301Y-107216819D01*
X164338675Y-107211367D01*
X164377588Y-107199159D01*
X164404194Y-107184390D01*
X164418362Y-107177662D01*
X164446617Y-107166377D01*
X164495879Y-107133909D01*
X164503910Y-107129043D01*
X164555502Y-107100409D01*
X164578587Y-107080589D01*
X164591114Y-107071144D01*
X164616519Y-107054402D01*
X164658251Y-107012668D01*
X164665123Y-107006300D01*
X164709895Y-106967866D01*
X164728517Y-106943807D01*
X164738886Y-106932034D01*
X164758321Y-106912600D01*
X164813908Y-106880508D01*
X164878095Y-106880508D01*
X164933681Y-106912602D01*
X165628450Y-107607371D01*
X165630643Y-107609620D01*
X165690941Y-107673053D01*
X165716583Y-107690900D01*
X165739352Y-107706748D01*
X165746875Y-107712420D01*
X165767696Y-107729397D01*
X165803776Y-107777756D01*
X165812762Y-107837419D01*
X165792526Y-107894260D01*
X165747859Y-107934821D01*
X165689336Y-107949500D01*
X88648562Y-107949500D01*
X88643437Y-107949394D01*
X88428874Y-107940519D01*
X88428590Y-107940507D01*
X88225778Y-107931652D01*
X88215849Y-107930818D01*
X88000676Y-107903996D01*
X87999829Y-107903887D01*
X87797521Y-107877253D01*
X87788260Y-107875675D01*
X87576380Y-107831249D01*
X87574987Y-107830949D01*
X87375441Y-107786710D01*
X87366898Y-107784494D01*
X87159495Y-107722747D01*
X87157591Y-107722163D01*
X86962627Y-107660693D01*
X86954845Y-107657951D01*
X86886556Y-107631305D01*
X86753298Y-107579307D01*
X86750920Y-107578351D01*
X86562011Y-107500102D01*
X86555004Y-107496942D01*
X86360657Y-107401931D01*
X86357889Y-107400534D01*
X86176516Y-107306116D01*
X86170300Y-107302650D01*
X85984465Y-107191917D01*
X85981313Y-107189974D01*
X85808882Y-107080123D01*
X85803453Y-107076460D01*
X85627428Y-106950780D01*
X85623996Y-106948239D01*
X85461779Y-106823766D01*
X85457124Y-106820013D01*
X85292078Y-106680227D01*
X85288446Y-106677026D01*
X85137671Y-106538866D01*
X85133763Y-106535125D01*
X84980873Y-106382235D01*
X84977132Y-106378327D01*
X84838972Y-106227552D01*
X84835771Y-106223920D01*
X84695985Y-106058874D01*
X84692232Y-106054219D01*
X84567759Y-105892002D01*
X84565218Y-105888570D01*
X84466187Y-105749869D01*
X108300500Y-105749869D01*
X108306066Y-105801642D01*
X108306909Y-105809483D01*
X108357204Y-105944331D01*
X108443454Y-106059546D01*
X108558669Y-106145796D01*
X108693517Y-106196091D01*
X108753127Y-106202500D01*
X110448872Y-106202499D01*
X110508483Y-106196091D01*
X110643331Y-106145796D01*
X110758546Y-106059546D01*
X110771732Y-106041930D01*
X110815492Y-106005358D01*
X110870997Y-105992241D01*
X110926501Y-106005356D01*
X110970265Y-106041929D01*
X110983452Y-106059544D01*
X110983453Y-106059544D01*
X110983454Y-106059546D01*
X111098669Y-106145796D01*
X111233517Y-106196091D01*
X111293127Y-106202500D01*
X112988872Y-106202499D01*
X113048483Y-106196091D01*
X113183331Y-106145796D01*
X113298546Y-106059546D01*
X113311732Y-106041930D01*
X113355492Y-106005358D01*
X113410997Y-105992241D01*
X113466501Y-106005356D01*
X113510265Y-106041929D01*
X113523452Y-106059544D01*
X113523453Y-106059544D01*
X113523454Y-106059546D01*
X113638669Y-106145796D01*
X113773517Y-106196091D01*
X113833127Y-106202500D01*
X115528872Y-106202499D01*
X115588483Y-106196091D01*
X115723331Y-106145796D01*
X115838546Y-106059546D01*
X115924796Y-105944331D01*
X115975091Y-105809483D01*
X115981500Y-105749873D01*
X115981499Y-104054128D01*
X115975091Y-103994517D01*
X115924796Y-103859669D01*
X115838546Y-103744454D01*
X115723331Y-103658204D01*
X115588483Y-103607909D01*
X115528873Y-103601500D01*
X115528869Y-103601500D01*
X113833130Y-103601500D01*
X113773515Y-103607909D01*
X113638669Y-103658204D01*
X113523452Y-103744454D01*
X113510266Y-103762070D01*
X113466504Y-103798642D01*
X113411000Y-103811758D01*
X113355496Y-103798642D01*
X113311734Y-103762070D01*
X113298547Y-103744454D01*
X113183331Y-103658204D01*
X113048483Y-103607909D01*
X113048482Y-103607908D01*
X112988873Y-103601500D01*
X112988869Y-103601500D01*
X111293130Y-103601500D01*
X111233515Y-103607909D01*
X111098669Y-103658204D01*
X110983452Y-103744454D01*
X110970266Y-103762070D01*
X110926504Y-103798642D01*
X110871000Y-103811758D01*
X110815496Y-103798642D01*
X110771734Y-103762070D01*
X110758547Y-103744454D01*
X110643331Y-103658204D01*
X110508483Y-103607909D01*
X110508482Y-103607908D01*
X110448873Y-103601500D01*
X110448869Y-103601500D01*
X108753130Y-103601500D01*
X108693515Y-103607909D01*
X108558669Y-103658204D01*
X108443454Y-103744454D01*
X108357204Y-103859668D01*
X108306909Y-103994516D01*
X108300500Y-104054130D01*
X108300500Y-105749869D01*
X84466187Y-105749869D01*
X84439538Y-105712545D01*
X84435875Y-105707116D01*
X84391009Y-105636690D01*
X84326015Y-105534671D01*
X84324081Y-105531533D01*
X84213348Y-105345698D01*
X84209882Y-105339482D01*
X84140474Y-105206152D01*
X84115449Y-105158080D01*
X84114098Y-105155405D01*
X84019043Y-104960965D01*
X84015896Y-104953987D01*
X83993948Y-104901000D01*
X83937626Y-104765027D01*
X83936712Y-104762754D01*
X83858034Y-104561119D01*
X83855316Y-104553404D01*
X83810078Y-104409925D01*
X83793835Y-104358407D01*
X83793251Y-104356503D01*
X83740119Y-104178036D01*
X83731502Y-104149092D01*
X83729288Y-104140557D01*
X83685009Y-103940827D01*
X83684787Y-103939797D01*
X83640319Y-103727718D01*
X83638749Y-103718504D01*
X83612084Y-103515963D01*
X83612026Y-103515510D01*
X83585177Y-103300120D01*
X83584348Y-103290249D01*
X83575487Y-103087298D01*
X83566605Y-102872562D01*
X83566500Y-102867439D01*
X83566500Y-79950764D01*
X86791787Y-79950764D01*
X86821413Y-80220016D01*
X86889928Y-80482087D01*
X86995871Y-80731392D01*
X87136982Y-80962611D01*
X87310253Y-81170818D01*
X87310255Y-81170820D01*
X87511998Y-81351582D01*
X87737910Y-81501044D01*
X87844211Y-81550876D01*
X87983177Y-81616021D01*
X88242562Y-81694058D01*
X88242569Y-81694060D01*
X88510561Y-81733500D01*
X88713631Y-81733500D01*
X88713634Y-81733500D01*
X88916156Y-81718677D01*
X88916156Y-81718676D01*
X89180553Y-81659780D01*
X89433558Y-81563014D01*
X89669777Y-81430441D01*
X89884177Y-81264888D01*
X90072186Y-81069881D01*
X90229799Y-80849579D01*
X90353656Y-80608675D01*
X90441118Y-80352305D01*
X90444336Y-80334883D01*
X95247436Y-80334883D01*
X96474000Y-81561446D01*
X96474001Y-81561446D01*
X97700562Y-80334883D01*
X97558042Y-80228193D01*
X97306952Y-80091088D01*
X97038902Y-79991111D01*
X96759357Y-79930300D01*
X96474000Y-79909890D01*
X96188642Y-79930300D01*
X95909097Y-79991111D01*
X95641047Y-80091088D01*
X95389954Y-80228195D01*
X95247437Y-80334882D01*
X95247436Y-80334883D01*
X90444336Y-80334883D01*
X90490319Y-80085933D01*
X90500212Y-79815235D01*
X90470586Y-79545982D01*
X90402072Y-79283912D01*
X90296130Y-79034610D01*
X90155018Y-78803390D01*
X90155017Y-78803388D01*
X89981746Y-78595181D01*
X89876758Y-78501112D01*
X89780002Y-78414418D01*
X89554090Y-78264956D01*
X89554086Y-78264954D01*
X89308822Y-78149978D01*
X89049437Y-78071941D01*
X89049431Y-78071940D01*
X88781439Y-78032500D01*
X88578369Y-78032500D01*
X88578366Y-78032500D01*
X88375843Y-78047322D01*
X88111449Y-78106219D01*
X87858441Y-78202986D01*
X87622223Y-78335559D01*
X87407825Y-78501109D01*
X87219813Y-78696120D01*
X87062201Y-78916420D01*
X86938342Y-79157329D01*
X86850881Y-79413695D01*
X86801680Y-79680066D01*
X86791787Y-79950764D01*
X83566500Y-79950764D01*
X83566500Y-79885561D01*
X83566606Y-79880437D01*
X83574893Y-79680066D01*
X83575495Y-79665496D01*
X83584348Y-79462746D01*
X83585177Y-79452883D01*
X83612031Y-79237444D01*
X83612073Y-79237123D01*
X83638750Y-79034486D01*
X83640317Y-79025290D01*
X83684805Y-78813115D01*
X83684994Y-78812240D01*
X83729293Y-78612419D01*
X83731498Y-78603920D01*
X83793267Y-78396440D01*
X83793835Y-78394591D01*
X83855322Y-78199576D01*
X83858027Y-78191898D01*
X83936739Y-77990176D01*
X83937599Y-77988038D01*
X84015908Y-77798983D01*
X84019031Y-77792058D01*
X84114130Y-77597530D01*
X84115416Y-77594983D01*
X84209890Y-77413500D01*
X84213348Y-77407300D01*
X84324108Y-77221420D01*
X84325977Y-77218388D01*
X84435901Y-77045843D01*
X84439511Y-77040491D01*
X84565249Y-76864385D01*
X84567727Y-76861038D01*
X84692258Y-76698746D01*
X84695958Y-76694157D01*
X84835810Y-76529032D01*
X84838931Y-76525492D01*
X84977176Y-76374624D01*
X84980827Y-76370810D01*
X85133810Y-76217827D01*
X85137624Y-76214176D01*
X85288492Y-76075931D01*
X85292032Y-76072810D01*
X85457157Y-75932958D01*
X85461746Y-75929258D01*
X85624038Y-75804727D01*
X85627385Y-75802249D01*
X85803491Y-75676511D01*
X85808843Y-75672901D01*
X85981388Y-75562977D01*
X85984420Y-75561108D01*
X86170301Y-75450347D01*
X86176500Y-75446890D01*
X86357983Y-75352416D01*
X86360530Y-75351130D01*
X86555058Y-75256031D01*
X86561983Y-75252908D01*
X86751038Y-75174599D01*
X86753176Y-75173739D01*
X86954898Y-75095027D01*
X86962576Y-75092322D01*
X87157612Y-75030828D01*
X87159438Y-75030268D01*
X87366920Y-74968498D01*
X87375419Y-74966293D01*
X87575240Y-74921994D01*
X87576115Y-74921805D01*
X87788290Y-74877317D01*
X87797486Y-74875750D01*
X88000123Y-74849073D01*
X88000444Y-74849031D01*
X88215883Y-74822177D01*
X88225746Y-74821348D01*
X88428421Y-74812499D01*
X88643437Y-74803605D01*
X88648561Y-74803500D01*
X210690439Y-74803500D01*
X210695562Y-74803605D01*
G37*
G04 #@! TD.AperFunction*
G04 #@! TA.AperFunction,Conductor*
G36*
X186816457Y-89931569D02*
G01*
X186851023Y-89949181D01*
X186950770Y-90021651D01*
X186950771Y-90021651D01*
X186950772Y-90021652D01*
X187123697Y-90098644D01*
X187308852Y-90138000D01*
X187378500Y-90138000D01*
X187440500Y-90154613D01*
X187485887Y-90200000D01*
X187502500Y-90262000D01*
X187502500Y-93090721D01*
X187502460Y-93093863D01*
X187500242Y-93181362D01*
X187510648Y-93239420D01*
X187511957Y-93248749D01*
X187517926Y-93307438D01*
X187527033Y-93336467D01*
X187530772Y-93351702D01*
X187536141Y-93381652D01*
X187558020Y-93436425D01*
X187561180Y-93445300D01*
X187576215Y-93493221D01*
X187578841Y-93501588D01*
X187593607Y-93528191D01*
X187600337Y-93542364D01*
X187611622Y-93570617D01*
X187644080Y-93619867D01*
X187648961Y-93627923D01*
X187677590Y-93679501D01*
X187697404Y-93702581D01*
X187706856Y-93715116D01*
X187723599Y-93740520D01*
X187765299Y-93782220D01*
X187771704Y-93789130D01*
X187810137Y-93833898D01*
X187834193Y-93852519D01*
X187845972Y-93862893D01*
X187981115Y-93998036D01*
X188005815Y-94033309D01*
X188013660Y-94062586D01*
X188013986Y-94062499D01*
X188016792Y-94072973D01*
X188016793Y-94072977D01*
X188073425Y-94284330D01*
X188165898Y-94482639D01*
X188291402Y-94661877D01*
X188446123Y-94816598D01*
X188625361Y-94942102D01*
X188823670Y-95034575D01*
X189035023Y-95091207D01*
X189097302Y-95096655D01*
X189252995Y-95110277D01*
X189252997Y-95110276D01*
X189253000Y-95110277D01*
X189255237Y-95110081D01*
X189260769Y-95110957D01*
X189263807Y-95111223D01*
X189263788Y-95111435D01*
X189314496Y-95119465D01*
X189362413Y-95155571D01*
X189387769Y-95209947D01*
X189384630Y-95269862D01*
X189353729Y-95321290D01*
X188551990Y-96123029D01*
X188496403Y-96155123D01*
X188432216Y-96155123D01*
X188313690Y-96123364D01*
X188086999Y-96103531D01*
X187860310Y-96123364D01*
X187640502Y-96182261D01*
X187434264Y-96278432D01*
X187247859Y-96408953D01*
X187086953Y-96569859D01*
X186956433Y-96756263D01*
X186929382Y-96814275D01*
X186883625Y-96866450D01*
X186817000Y-96885869D01*
X186750375Y-96866450D01*
X186704618Y-96814275D01*
X186677568Y-96756266D01*
X186677566Y-96756263D01*
X186547046Y-96569859D01*
X186386140Y-96408953D01*
X186199735Y-96278432D01*
X185993497Y-96182261D01*
X185773689Y-96123364D01*
X185547000Y-96103531D01*
X185320310Y-96123364D01*
X185100502Y-96182261D01*
X184894264Y-96278432D01*
X184707859Y-96408953D01*
X184546953Y-96569859D01*
X184416433Y-96756263D01*
X184389382Y-96814275D01*
X184343625Y-96866450D01*
X184277000Y-96885869D01*
X184210375Y-96866450D01*
X184164618Y-96814275D01*
X184137568Y-96756266D01*
X184137566Y-96756263D01*
X184007046Y-96569859D01*
X183846140Y-96408953D01*
X183659735Y-96278432D01*
X183453497Y-96182261D01*
X183233689Y-96123364D01*
X183007000Y-96103531D01*
X182780310Y-96123364D01*
X182560502Y-96182261D01*
X182354264Y-96278432D01*
X182167859Y-96408953D01*
X182006953Y-96569859D01*
X181876432Y-96756264D01*
X181780261Y-96962502D01*
X181721364Y-97182310D01*
X181701531Y-97409000D01*
X181721364Y-97635689D01*
X181780261Y-97855497D01*
X181876432Y-98061735D01*
X181960206Y-98181377D01*
X181982366Y-98244390D01*
X181968620Y-98309757D01*
X181922959Y-98358509D01*
X181858631Y-98376500D01*
X176862238Y-98376500D01*
X176859096Y-98376460D01*
X176771635Y-98374243D01*
X176713581Y-98384648D01*
X176704253Y-98385957D01*
X176645561Y-98391926D01*
X176616527Y-98401035D01*
X176601288Y-98404775D01*
X176571345Y-98410142D01*
X176516568Y-98432021D01*
X176507698Y-98435179D01*
X176451410Y-98452841D01*
X176424809Y-98467605D01*
X176410639Y-98474335D01*
X176382385Y-98485622D01*
X176382384Y-98485622D01*
X176382383Y-98485623D01*
X176381306Y-98486333D01*
X176333121Y-98518087D01*
X176325070Y-98522964D01*
X176273498Y-98551590D01*
X176250414Y-98571407D01*
X176237887Y-98580853D01*
X176212481Y-98597598D01*
X176170775Y-98639303D01*
X176163868Y-98645704D01*
X176119103Y-98684135D01*
X176100480Y-98708193D01*
X176090108Y-98719969D01*
X170726965Y-104083112D01*
X170691690Y-104107813D01*
X170650093Y-104118958D01*
X170588319Y-104124364D01*
X170588308Y-104124365D01*
X170368503Y-104183261D01*
X170162264Y-104279432D01*
X169975859Y-104409953D01*
X169814953Y-104570859D01*
X169684432Y-104757264D01*
X169588261Y-104963503D01*
X169529365Y-105183308D01*
X169523959Y-105245093D01*
X169512813Y-105286690D01*
X169488112Y-105321965D01*
X169281960Y-105528117D01*
X169230533Y-105559018D01*
X169170618Y-105562158D01*
X169116243Y-105536802D01*
X169080136Y-105488886D01*
X169070751Y-105429628D01*
X169072468Y-105409999D01*
X169055189Y-105212500D01*
X169052635Y-105183308D01*
X168993739Y-104963504D01*
X168897568Y-104757266D01*
X168767047Y-104570861D01*
X168767046Y-104570859D01*
X168606140Y-104409953D01*
X168449726Y-104300432D01*
X168406427Y-104246643D01*
X168398610Y-104178035D01*
X168428698Y-104115885D01*
X168499533Y-104037216D01*
X168524187Y-103994515D01*
X168594179Y-103873284D01*
X168623444Y-103783216D01*
X168652674Y-103693256D01*
X168672460Y-103505000D01*
X168652674Y-103316744D01*
X168597664Y-103147441D01*
X168594179Y-103136715D01*
X168499533Y-102972783D01*
X168372870Y-102832110D01*
X168219730Y-102720848D01*
X168046802Y-102643855D01*
X167869422Y-102606152D01*
X167836035Y-102593835D01*
X167807522Y-102572543D01*
X166464660Y-101229681D01*
X166434410Y-101180318D01*
X166429868Y-101122602D01*
X166452023Y-101069115D01*
X166496046Y-101031515D01*
X166552341Y-101018000D01*
X172568462Y-101018000D01*
X172575949Y-101018226D01*
X172578569Y-101018384D01*
X172634846Y-101021789D01*
X172692915Y-101011146D01*
X172700270Y-101010026D01*
X172758858Y-101002914D01*
X172767970Y-100999457D01*
X172789598Y-100993428D01*
X172799185Y-100991672D01*
X172852991Y-100967454D01*
X172859890Y-100964597D01*
X172915078Y-100943668D01*
X172923104Y-100938127D01*
X172942657Y-100927100D01*
X172951543Y-100923101D01*
X172998016Y-100886690D01*
X173003983Y-100882300D01*
X173052579Y-100848758D01*
X173086213Y-100810790D01*
X173096790Y-100800213D01*
X173134758Y-100766579D01*
X173168300Y-100717983D01*
X173172690Y-100712016D01*
X173209101Y-100665543D01*
X173213100Y-100656656D01*
X173224127Y-100637104D01*
X173229668Y-100629078D01*
X173250597Y-100573890D01*
X173253459Y-100566982D01*
X173270915Y-100528199D01*
X173277672Y-100513185D01*
X173279428Y-100503598D01*
X173285457Y-100481970D01*
X173288914Y-100472858D01*
X173296026Y-100414270D01*
X173297146Y-100406915D01*
X173307789Y-100348846D01*
X173304226Y-100289949D01*
X173304000Y-100282462D01*
X173304000Y-95476841D01*
X173317515Y-95420546D01*
X173355115Y-95376523D01*
X173408602Y-95354368D01*
X173466318Y-95358910D01*
X173515681Y-95389160D01*
X173950419Y-95823898D01*
X173974658Y-95858195D01*
X173986059Y-95898616D01*
X173993326Y-95967757D01*
X174051820Y-96147784D01*
X174146466Y-96311716D01*
X174273129Y-96452389D01*
X174426269Y-96563651D01*
X174599197Y-96640644D01*
X174784352Y-96680000D01*
X174784354Y-96680000D01*
X174973646Y-96680000D01*
X174973648Y-96680000D01*
X175144999Y-96643578D01*
X175158803Y-96640644D01*
X175331730Y-96563651D01*
X175416220Y-96502266D01*
X175484870Y-96452389D01*
X175568422Y-96359596D01*
X175611533Y-96311716D01*
X175706179Y-96147784D01*
X175764674Y-95967756D01*
X175784460Y-95779500D01*
X175764674Y-95591244D01*
X175727502Y-95476841D01*
X175706179Y-95411215D01*
X175611533Y-95247283D01*
X175484870Y-95106610D01*
X175331730Y-94995348D01*
X175158802Y-94918355D01*
X174981422Y-94880652D01*
X174948035Y-94868335D01*
X174919522Y-94847043D01*
X174874533Y-94802054D01*
X174844508Y-94753376D01*
X174839523Y-94696401D01*
X174860638Y-94643253D01*
X174973102Y-94482639D01*
X175043617Y-94331417D01*
X175089375Y-94279241D01*
X175156000Y-94259822D01*
X175222625Y-94279241D01*
X175268382Y-94331417D01*
X175338898Y-94482639D01*
X175464402Y-94661877D01*
X175619123Y-94816598D01*
X175798361Y-94942102D01*
X175996670Y-95034575D01*
X176208023Y-95091207D01*
X176426000Y-95110277D01*
X176643977Y-95091207D01*
X176855330Y-95034575D01*
X177053639Y-94942102D01*
X177232877Y-94816598D01*
X177387598Y-94661877D01*
X177513102Y-94482639D01*
X177583617Y-94331417D01*
X177629375Y-94279241D01*
X177696000Y-94259822D01*
X177762625Y-94279241D01*
X177808382Y-94331417D01*
X177878898Y-94482639D01*
X178004402Y-94661877D01*
X178159123Y-94816598D01*
X178338361Y-94942102D01*
X178536670Y-95034575D01*
X178748023Y-95091207D01*
X178966000Y-95110277D01*
X179183977Y-95091207D01*
X179395330Y-95034575D01*
X179593639Y-94942102D01*
X179772877Y-94816598D01*
X179927598Y-94661877D01*
X180053102Y-94482639D01*
X180145575Y-94284330D01*
X180202207Y-94072977D01*
X180221277Y-93855000D01*
X180202207Y-93637023D01*
X180145575Y-93425670D01*
X180053102Y-93227362D01*
X179927598Y-93048123D01*
X179772877Y-92893402D01*
X179626022Y-92790573D01*
X179585697Y-92743358D01*
X179573318Y-92682510D01*
X179591990Y-92623290D01*
X179637032Y-92580547D01*
X179697148Y-92565000D01*
X179986000Y-92565000D01*
X179986000Y-91565000D01*
X180486000Y-91565000D01*
X180486000Y-92565000D01*
X181033824Y-92565000D01*
X181093375Y-92558597D01*
X181228089Y-92508352D01*
X181343188Y-92422188D01*
X181429352Y-92307089D01*
X181479597Y-92172375D01*
X181486000Y-92112824D01*
X181486000Y-91565000D01*
X180486000Y-91565000D01*
X179986000Y-91565000D01*
X179986000Y-91189000D01*
X180002613Y-91127000D01*
X180048000Y-91081613D01*
X180110000Y-91065000D01*
X181486000Y-91065000D01*
X181486000Y-90517176D01*
X181479597Y-90457624D01*
X181429352Y-90322910D01*
X181343188Y-90207811D01*
X181264316Y-90148767D01*
X181225832Y-90101011D01*
X181214943Y-90040654D01*
X181234312Y-89982460D01*
X181279200Y-89940668D01*
X181338627Y-89925500D01*
X186141885Y-89925500D01*
X186225115Y-89925500D01*
X186778139Y-89925500D01*
X186816457Y-89931569D01*
G37*
G04 #@! TD.AperFunction*
G04 #@! TA.AperFunction,Conductor*
G36*
X157927625Y-97697549D02*
G01*
X157973381Y-97749724D01*
X157975478Y-97754220D01*
X158000431Y-97807733D01*
X158095616Y-97943672D01*
X158130953Y-97994139D01*
X158291861Y-98155047D01*
X158390123Y-98223850D01*
X158428989Y-98268168D01*
X158443000Y-98325425D01*
X158443000Y-100940462D01*
X158442774Y-100947949D01*
X158439211Y-101006847D01*
X158449847Y-101064888D01*
X158450974Y-101072291D01*
X158458086Y-101130858D01*
X158461543Y-101139974D01*
X158467568Y-101161587D01*
X158469326Y-101171183D01*
X158493540Y-101224984D01*
X158496405Y-101231901D01*
X158517331Y-101287077D01*
X158522875Y-101295109D01*
X158533895Y-101314649D01*
X158537899Y-101323543D01*
X158574286Y-101369989D01*
X158578715Y-101376008D01*
X158612242Y-101424579D01*
X158643602Y-101452361D01*
X158656412Y-101463710D01*
X158661865Y-101468844D01*
X159135162Y-101942141D01*
X159140282Y-101947579D01*
X159148710Y-101957092D01*
X159179423Y-101991760D01*
X159227990Y-102025284D01*
X159234015Y-102029716D01*
X159280457Y-102066101D01*
X159289351Y-102070104D01*
X159308888Y-102081122D01*
X159316922Y-102086668D01*
X159372108Y-102107596D01*
X159378995Y-102110449D01*
X159432814Y-102134672D01*
X159442400Y-102136428D01*
X159464024Y-102142455D01*
X159473142Y-102145914D01*
X159531735Y-102153028D01*
X159539092Y-102154148D01*
X159597154Y-102164788D01*
X159656039Y-102161226D01*
X159663527Y-102161000D01*
X165398659Y-102161000D01*
X165446112Y-102170439D01*
X165486340Y-102197319D01*
X166838419Y-103549398D01*
X166862658Y-103583695D01*
X166874059Y-103624116D01*
X166881326Y-103693257D01*
X166939820Y-103873284D01*
X167034466Y-104037216D01*
X167105300Y-104115885D01*
X167135389Y-104178036D01*
X167127572Y-104246643D01*
X167084273Y-104300432D01*
X166927860Y-104409952D01*
X166766953Y-104570859D01*
X166636432Y-104757264D01*
X166540261Y-104963502D01*
X166481364Y-105183310D01*
X166468568Y-105329565D01*
X166443416Y-105394244D01*
X166387450Y-105435279D01*
X166318201Y-105439818D01*
X166257359Y-105406438D01*
X166172887Y-105321966D01*
X166148185Y-105286689D01*
X166137040Y-105245091D01*
X166136435Y-105238181D01*
X166131635Y-105183308D01*
X166072739Y-104963504D01*
X165976568Y-104757266D01*
X165846047Y-104570861D01*
X165846046Y-104570859D01*
X165685140Y-104409953D01*
X165498735Y-104279432D01*
X165292497Y-104183261D01*
X165072689Y-104124364D01*
X164846000Y-104104531D01*
X164619310Y-104124364D01*
X164399502Y-104183261D01*
X164193264Y-104279432D01*
X164006859Y-104409953D01*
X163845953Y-104570859D01*
X163715432Y-104757264D01*
X163619261Y-104963502D01*
X163560556Y-105182594D01*
X163535770Y-105230206D01*
X163493186Y-105262882D01*
X163440781Y-105274500D01*
X160504619Y-105274500D01*
X160449775Y-105261712D01*
X160406243Y-105225986D01*
X160383002Y-105174691D01*
X160384844Y-105118406D01*
X160409872Y-105025000D01*
X159005000Y-105025000D01*
X158943000Y-105008387D01*
X158897613Y-104963000D01*
X158881000Y-104901000D01*
X158881000Y-103496128D01*
X159381000Y-103496128D01*
X159381000Y-104525000D01*
X160409872Y-104525000D01*
X160409871Y-104524999D01*
X160357266Y-104328673D01*
X160261134Y-104122519D01*
X160130658Y-103936180D01*
X159969819Y-103775341D01*
X159783480Y-103644865D01*
X159577326Y-103548733D01*
X159381000Y-103496128D01*
X158881000Y-103496128D01*
X158880999Y-103496128D01*
X158684673Y-103548733D01*
X158478519Y-103644865D01*
X158292180Y-103775341D01*
X158131341Y-103936180D01*
X158000863Y-104122522D01*
X157973656Y-104180866D01*
X157927899Y-104233041D01*
X157861274Y-104252460D01*
X157794650Y-104233040D01*
X157748893Y-104180865D01*
X157747573Y-104178035D01*
X157721568Y-104122266D01*
X157721042Y-104121515D01*
X157591046Y-103935859D01*
X157430140Y-103774953D01*
X157243735Y-103644432D01*
X157037497Y-103548261D01*
X156817689Y-103489364D01*
X156591000Y-103469531D01*
X156364310Y-103489364D01*
X156144502Y-103548261D01*
X155938264Y-103644432D01*
X155751859Y-103774953D01*
X155590953Y-103935859D01*
X155460433Y-104122263D01*
X155459453Y-104124365D01*
X155434427Y-104178035D01*
X155433382Y-104180275D01*
X155387625Y-104232450D01*
X155321000Y-104251869D01*
X155254375Y-104232450D01*
X155208618Y-104180275D01*
X155207574Y-104178036D01*
X155181568Y-104122266D01*
X155181042Y-104121515D01*
X155051046Y-103935859D01*
X154890140Y-103774953D01*
X154703735Y-103644432D01*
X154497497Y-103548261D01*
X154277689Y-103489364D01*
X154051000Y-103469531D01*
X153824310Y-103489364D01*
X153604502Y-103548261D01*
X153398264Y-103644432D01*
X153211859Y-103774953D01*
X153050953Y-103935859D01*
X152920433Y-104122263D01*
X152919453Y-104124365D01*
X152894427Y-104178035D01*
X152893382Y-104180275D01*
X152847625Y-104232450D01*
X152781000Y-104251869D01*
X152714375Y-104232450D01*
X152668618Y-104180275D01*
X152667574Y-104178036D01*
X152641568Y-104122266D01*
X152641042Y-104121515D01*
X152511046Y-103935859D01*
X152350140Y-103774953D01*
X152163735Y-103644432D01*
X151957497Y-103548261D01*
X151737689Y-103489364D01*
X151511000Y-103469531D01*
X151284310Y-103489364D01*
X151064502Y-103548261D01*
X150858264Y-103644432D01*
X150671859Y-103774953D01*
X150510953Y-103935859D01*
X150380433Y-104122263D01*
X150379453Y-104124365D01*
X150354427Y-104178035D01*
X150353382Y-104180275D01*
X150307625Y-104232450D01*
X150241000Y-104251869D01*
X150174375Y-104232450D01*
X150128618Y-104180275D01*
X150127574Y-104178036D01*
X150101568Y-104122266D01*
X150101042Y-104121515D01*
X149971046Y-103935859D01*
X149893373Y-103858186D01*
X149864532Y-103812915D01*
X149857526Y-103759697D01*
X149873665Y-103708507D01*
X149925179Y-103619284D01*
X149983674Y-103439256D01*
X150003460Y-103251000D01*
X149983674Y-103062744D01*
X149946909Y-102949594D01*
X149925179Y-102882715D01*
X149830533Y-102718783D01*
X149703870Y-102578110D01*
X149550730Y-102466848D01*
X149377802Y-102389855D01*
X149192648Y-102350500D01*
X149192646Y-102350500D01*
X149003354Y-102350500D01*
X149003352Y-102350500D01*
X148818199Y-102389854D01*
X148701492Y-102441816D01*
X148638095Y-102451857D01*
X148578171Y-102428853D01*
X148537777Y-102378970D01*
X148529459Y-102326451D01*
X148529316Y-102326467D01*
X148529027Y-102323718D01*
X148527737Y-102315572D01*
X148527954Y-102313506D01*
X148515928Y-102199087D01*
X148508168Y-102125250D01*
X148461006Y-101980101D01*
X148449673Y-101945221D01*
X148355027Y-101781289D01*
X148228364Y-101640616D01*
X148075224Y-101529354D01*
X147902296Y-101452361D01*
X147717142Y-101413006D01*
X147717140Y-101413006D01*
X147527848Y-101413006D01*
X147527846Y-101413006D01*
X147342691Y-101452361D01*
X147169766Y-101529353D01*
X147070019Y-101601824D01*
X147035451Y-101619437D01*
X146997133Y-101625506D01*
X143233766Y-101625506D01*
X143169617Y-101607623D01*
X143123970Y-101559133D01*
X143109992Y-101494021D01*
X143131715Y-101431068D01*
X143151854Y-101401891D01*
X143161779Y-101387511D01*
X143166184Y-101381522D01*
X143202595Y-101335049D01*
X143206594Y-101326162D01*
X143217621Y-101306610D01*
X143223162Y-101298584D01*
X143244091Y-101243396D01*
X143246953Y-101236488D01*
X143250594Y-101228400D01*
X143271166Y-101182691D01*
X143272922Y-101173104D01*
X143278951Y-101151476D01*
X143282408Y-101142364D01*
X143289520Y-101083776D01*
X143290640Y-101076421D01*
X143301283Y-101018352D01*
X143297720Y-100959455D01*
X143297494Y-100951968D01*
X143297494Y-98503948D01*
X143310282Y-98449104D01*
X143346008Y-98405572D01*
X143397303Y-98382331D01*
X143453587Y-98384172D01*
X143664308Y-98440635D01*
X143891000Y-98460468D01*
X144128500Y-98439690D01*
X144128614Y-98440999D01*
X144180517Y-98440995D01*
X144236112Y-98473091D01*
X144574662Y-98811641D01*
X144579782Y-98817079D01*
X144618921Y-98861258D01*
X144619840Y-98861892D01*
X144667479Y-98894775D01*
X144673512Y-98899214D01*
X144719958Y-98935602D01*
X144719959Y-98935602D01*
X144719960Y-98935603D01*
X144728847Y-98939603D01*
X144748394Y-98950627D01*
X144756422Y-98956168D01*
X144811591Y-98977090D01*
X144818501Y-98979952D01*
X144872315Y-99004173D01*
X144881915Y-99005932D01*
X144903526Y-99011956D01*
X144912642Y-99015414D01*
X144971223Y-99022527D01*
X144978569Y-99023644D01*
X145036654Y-99034289D01*
X145095556Y-99030726D01*
X145103044Y-99030500D01*
X149438341Y-99030500D01*
X149445828Y-99030726D01*
X149448448Y-99030884D01*
X149504725Y-99034289D01*
X149562794Y-99023646D01*
X149570149Y-99022526D01*
X149628737Y-99015414D01*
X149637849Y-99011957D01*
X149659477Y-99005928D01*
X149669064Y-99004172D01*
X149722875Y-98979953D01*
X149729769Y-98977097D01*
X149784957Y-98956168D01*
X149792983Y-98950627D01*
X149812536Y-98939600D01*
X149821422Y-98935601D01*
X149867895Y-98899190D01*
X149873868Y-98894796D01*
X149922458Y-98861258D01*
X149961597Y-98817076D01*
X149966699Y-98811657D01*
X150569733Y-98208623D01*
X150618408Y-98178600D01*
X150675383Y-98173615D01*
X150728535Y-98194731D01*
X150858264Y-98285567D01*
X150858265Y-98285567D01*
X150858266Y-98285568D01*
X151064504Y-98381739D01*
X151284308Y-98440635D01*
X151511000Y-98460468D01*
X151737692Y-98440635D01*
X151957496Y-98381739D01*
X152163734Y-98285568D01*
X152350139Y-98155047D01*
X152511047Y-97994139D01*
X152641568Y-97807734D01*
X152668618Y-97749724D01*
X152714375Y-97697549D01*
X152781000Y-97678129D01*
X152847625Y-97697549D01*
X152893381Y-97749724D01*
X152895478Y-97754220D01*
X152920431Y-97807733D01*
X153050953Y-97994140D01*
X153211859Y-98155046D01*
X153398264Y-98285567D01*
X153398265Y-98285567D01*
X153398266Y-98285568D01*
X153604504Y-98381739D01*
X153824308Y-98440635D01*
X154051000Y-98460468D01*
X154277692Y-98440635D01*
X154497496Y-98381739D01*
X154703734Y-98285568D01*
X154890139Y-98155047D01*
X155051047Y-97994139D01*
X155181568Y-97807734D01*
X155208618Y-97749724D01*
X155254375Y-97697549D01*
X155321000Y-97678129D01*
X155387625Y-97697549D01*
X155433381Y-97749724D01*
X155435478Y-97754220D01*
X155460431Y-97807733D01*
X155590953Y-97994140D01*
X155751859Y-98155046D01*
X155938264Y-98285567D01*
X155938265Y-98285567D01*
X155938266Y-98285568D01*
X156144504Y-98381739D01*
X156364308Y-98440635D01*
X156591000Y-98460468D01*
X156817692Y-98440635D01*
X157037496Y-98381739D01*
X157243734Y-98285568D01*
X157430139Y-98155047D01*
X157591047Y-97994139D01*
X157721568Y-97807734D01*
X157748618Y-97749724D01*
X157794375Y-97697549D01*
X157861000Y-97678129D01*
X157927625Y-97697549D01*
G37*
G04 #@! TD.AperFunction*
G04 #@! TA.AperFunction,Conductor*
G36*
X133007710Y-103390229D02*
G01*
X133052648Y-103432318D01*
X133071802Y-103490833D01*
X133060449Y-103551348D01*
X133012733Y-103653673D01*
X132953858Y-103873397D01*
X132934033Y-104099999D01*
X132953858Y-104326602D01*
X133012733Y-104546326D01*
X133108866Y-104752484D01*
X133159972Y-104825471D01*
X133159973Y-104825472D01*
X134151318Y-103834127D01*
X134206905Y-103802033D01*
X134271093Y-103802033D01*
X134326680Y-103834127D01*
X135318025Y-104825472D01*
X135369134Y-104752480D01*
X135465266Y-104546326D01*
X135524141Y-104326602D01*
X135543966Y-104100000D01*
X135524141Y-103873397D01*
X135465266Y-103653673D01*
X135417551Y-103551348D01*
X135406198Y-103490833D01*
X135425352Y-103432318D01*
X135470290Y-103390229D01*
X135529933Y-103374943D01*
X137604850Y-103374943D01*
X137664277Y-103390111D01*
X137709165Y-103431903D01*
X137728534Y-103490097D01*
X137717644Y-103550454D01*
X137679161Y-103598209D01*
X137672317Y-103603332D01*
X137653453Y-103617454D01*
X137567204Y-103732668D01*
X137529362Y-103834127D01*
X137516909Y-103867517D01*
X137510500Y-103927127D01*
X137510500Y-104570861D01*
X137510501Y-105150500D01*
X137493888Y-105212500D01*
X137448501Y-105257887D01*
X137386501Y-105274500D01*
X135091442Y-105274500D01*
X135026346Y-105256039D01*
X134980632Y-105206152D01*
X134978036Y-105192589D01*
X134239001Y-104453553D01*
X134239000Y-104453553D01*
X133499962Y-105192589D01*
X133497367Y-105206152D01*
X133451653Y-105256039D01*
X133386557Y-105274500D01*
X122488783Y-105274500D01*
X122441330Y-105265061D01*
X122401102Y-105238181D01*
X120749545Y-103586624D01*
X120719295Y-103537261D01*
X120714753Y-103479545D01*
X120736908Y-103426058D01*
X120780931Y-103388458D01*
X120837226Y-103374943D01*
X132948067Y-103374943D01*
X133007710Y-103390229D01*
G37*
G04 #@! TD.AperFunction*
G04 #@! TA.AperFunction,Conductor*
G36*
X88828769Y-84787777D02*
G01*
X88872640Y-84824765D01*
X88895160Y-84877544D01*
X88891509Y-84934810D01*
X88854907Y-85054326D01*
X88849827Y-85094000D01*
X91996576Y-85094000D01*
X91996575Y-85093999D01*
X91961460Y-84931064D01*
X91963084Y-84930713D01*
X91956786Y-84885366D01*
X91977353Y-84829064D01*
X92021925Y-84788987D01*
X92080089Y-84774500D01*
X93513460Y-84774500D01*
X93560913Y-84783939D01*
X93601141Y-84810819D01*
X97625674Y-88835351D01*
X97627867Y-88837600D01*
X97688185Y-88901054D01*
X97736605Y-88934755D01*
X97744114Y-88940416D01*
X97789836Y-88977698D01*
X97816805Y-88991785D01*
X97830225Y-88999916D01*
X97855192Y-89017294D01*
X97855193Y-89017294D01*
X97855194Y-89017295D01*
X97883348Y-89029377D01*
X97909406Y-89040559D01*
X97917906Y-89044595D01*
X97951529Y-89062159D01*
X97981372Y-89077748D01*
X97980107Y-89080169D01*
X98005292Y-89093743D01*
X98037181Y-89136053D01*
X98048500Y-89187811D01*
X98048500Y-93090721D01*
X98048460Y-93093863D01*
X98046242Y-93181362D01*
X98056648Y-93239420D01*
X98057957Y-93248749D01*
X98063926Y-93307438D01*
X98073033Y-93336467D01*
X98076772Y-93351702D01*
X98082141Y-93381652D01*
X98104020Y-93436425D01*
X98107180Y-93445300D01*
X98122215Y-93493221D01*
X98124841Y-93501588D01*
X98139607Y-93528191D01*
X98146337Y-93542364D01*
X98157622Y-93570617D01*
X98190080Y-93619867D01*
X98194961Y-93627923D01*
X98223590Y-93679501D01*
X98243404Y-93702581D01*
X98252856Y-93715116D01*
X98269599Y-93740520D01*
X98311299Y-93782220D01*
X98317704Y-93789130D01*
X98356137Y-93833898D01*
X98380193Y-93852519D01*
X98391972Y-93862893D01*
X98527115Y-93998036D01*
X98551815Y-94033309D01*
X98559660Y-94062586D01*
X98559986Y-94062499D01*
X98562792Y-94072973D01*
X98562793Y-94072977D01*
X98606032Y-94234345D01*
X98619425Y-94284330D01*
X98652821Y-94355948D01*
X98664331Y-94413529D01*
X98648058Y-94469949D01*
X98607652Y-94512556D01*
X98552174Y-94531796D01*
X98494064Y-94523355D01*
X98446354Y-94489125D01*
X98418866Y-94457105D01*
X98418861Y-94457101D01*
X98394804Y-94438478D01*
X98383026Y-94428105D01*
X95245162Y-91290241D01*
X92051967Y-88097047D01*
X92022300Y-88049432D01*
X92016654Y-87993615D01*
X92023216Y-87942376D01*
X92013314Y-87709295D01*
X91988513Y-87594219D01*
X91964164Y-87481235D01*
X91877179Y-87264765D01*
X91754862Y-87066109D01*
X91600731Y-86890982D01*
X91600729Y-86890980D01*
X91419221Y-86744421D01*
X91378408Y-86721622D01*
X91333293Y-86678383D01*
X91314995Y-86618631D01*
X91328160Y-86557543D01*
X91369447Y-86510633D01*
X91512773Y-86413761D01*
X91681139Y-86252396D01*
X91819812Y-86064898D01*
X91924803Y-85856660D01*
X91993092Y-85633673D01*
X91998173Y-85594000D01*
X88851425Y-85594000D01*
X88884317Y-85746621D01*
X88971267Y-85963005D01*
X89093543Y-86161594D01*
X89247618Y-86336657D01*
X89429057Y-86483160D01*
X89469565Y-86505789D01*
X89514680Y-86549029D01*
X89532979Y-86608780D01*
X89519814Y-86669868D01*
X89478529Y-86716778D01*
X89334910Y-86813848D01*
X89166483Y-86975272D01*
X89027760Y-87162838D01*
X88922730Y-87371152D01*
X88854417Y-87594219D01*
X88824784Y-87825627D01*
X88834685Y-88058704D01*
X88883836Y-88286767D01*
X88962225Y-88481844D01*
X88970821Y-88503235D01*
X89093138Y-88701891D01*
X89210597Y-88835351D01*
X89247270Y-88877019D01*
X89428776Y-89023576D01*
X89469101Y-89046103D01*
X89514217Y-89089343D01*
X89532515Y-89149094D01*
X89519350Y-89210182D01*
X89478064Y-89257092D01*
X89334912Y-89353846D01*
X89166483Y-89515272D01*
X89027760Y-89702838D01*
X88922730Y-89911152D01*
X88854417Y-90134219D01*
X88851217Y-90159210D01*
X88825325Y-90361406D01*
X88824784Y-90365627D01*
X88834685Y-90598704D01*
X88883836Y-90826767D01*
X88970819Y-91043231D01*
X88970821Y-91043235D01*
X89060572Y-91189000D01*
X89093139Y-91241892D01*
X89247270Y-91417019D01*
X89428776Y-91563576D01*
X89469101Y-91586103D01*
X89514217Y-91629343D01*
X89532515Y-91689094D01*
X89519350Y-91750182D01*
X89478064Y-91797092D01*
X89334912Y-91893846D01*
X89166483Y-92055272D01*
X89027760Y-92242838D01*
X88922730Y-92451152D01*
X88861180Y-92652134D01*
X88854417Y-92674220D01*
X88825325Y-92901406D01*
X88824784Y-92905627D01*
X88834685Y-93138704D01*
X88883836Y-93366767D01*
X88967067Y-93573893D01*
X88970821Y-93583235D01*
X89093138Y-93781891D01*
X89155298Y-93852519D01*
X89247270Y-93957019D01*
X89428776Y-94103576D01*
X89469101Y-94126103D01*
X89514217Y-94169343D01*
X89532515Y-94229094D01*
X89519350Y-94290182D01*
X89478064Y-94337092D01*
X89334912Y-94433846D01*
X89166483Y-94595272D01*
X89027760Y-94782838D01*
X88922730Y-94991152D01*
X88854417Y-95214219D01*
X88847103Y-95271332D01*
X88827441Y-95424880D01*
X88824784Y-95445627D01*
X88834685Y-95678704D01*
X88883836Y-95906767D01*
X88968389Y-96117183D01*
X88970821Y-96123235D01*
X89093138Y-96321891D01*
X89099851Y-96329519D01*
X89247270Y-96497019D01*
X89428776Y-96643576D01*
X89469101Y-96666103D01*
X89514217Y-96709343D01*
X89532515Y-96769094D01*
X89519350Y-96830182D01*
X89478064Y-96877092D01*
X89334912Y-96973846D01*
X89166483Y-97135272D01*
X89027760Y-97322838D01*
X88922730Y-97531152D01*
X88855793Y-97749725D01*
X88854417Y-97754220D01*
X88827555Y-97963990D01*
X88824784Y-97985627D01*
X88834685Y-98218704D01*
X88883836Y-98446767D01*
X88959676Y-98635500D01*
X88970821Y-98663235D01*
X89093138Y-98861891D01*
X89241532Y-99030500D01*
X89247270Y-99037019D01*
X89428776Y-99183576D01*
X89469101Y-99206103D01*
X89514217Y-99249343D01*
X89532515Y-99309094D01*
X89519350Y-99370182D01*
X89478064Y-99417092D01*
X89334912Y-99513846D01*
X89166483Y-99675272D01*
X89048825Y-99834357D01*
X89027760Y-99862839D01*
X88954105Y-100008925D01*
X88916586Y-100053185D01*
X88863040Y-100075531D01*
X88805189Y-100071071D01*
X88755701Y-100040780D01*
X87904819Y-99189899D01*
X87877939Y-99149671D01*
X87868500Y-99102218D01*
X87868500Y-84898500D01*
X87885113Y-84836500D01*
X87930500Y-84791113D01*
X87992500Y-84774500D01*
X88772944Y-84774500D01*
X88828769Y-84787777D01*
G37*
G04 #@! TD.AperFunction*
G04 #@! TA.AperFunction,Conductor*
G36*
X168909457Y-89931569D02*
G01*
X168944023Y-89949181D01*
X169043770Y-90021651D01*
X169043771Y-90021651D01*
X169043772Y-90021652D01*
X169216697Y-90098644D01*
X169401852Y-90138000D01*
X169471500Y-90138000D01*
X169533500Y-90154613D01*
X169578887Y-90200000D01*
X169595500Y-90262000D01*
X169595500Y-93090721D01*
X169595460Y-93093863D01*
X169593242Y-93181362D01*
X169603648Y-93239420D01*
X169604957Y-93248749D01*
X169610926Y-93307438D01*
X169620033Y-93336467D01*
X169623772Y-93351702D01*
X169629141Y-93381652D01*
X169651020Y-93436425D01*
X169654180Y-93445300D01*
X169669215Y-93493221D01*
X169671841Y-93501588D01*
X169686607Y-93528191D01*
X169693337Y-93542364D01*
X169704622Y-93570617D01*
X169737080Y-93619867D01*
X169741961Y-93627923D01*
X169770590Y-93679501D01*
X169790404Y-93702581D01*
X169799856Y-93715116D01*
X169816599Y-93740520D01*
X169858299Y-93782220D01*
X169864704Y-93789130D01*
X169903137Y-93833898D01*
X169927193Y-93852519D01*
X169938972Y-93862893D01*
X170074115Y-93998036D01*
X170098815Y-94033309D01*
X170106660Y-94062586D01*
X170106986Y-94062499D01*
X170109792Y-94072973D01*
X170109793Y-94072977D01*
X170166425Y-94284330D01*
X170258898Y-94482639D01*
X170384402Y-94661877D01*
X170539123Y-94816598D01*
X170718361Y-94942102D01*
X170916670Y-95034575D01*
X171128023Y-95091207D01*
X171346000Y-95110277D01*
X171563977Y-95091207D01*
X171771907Y-95035491D01*
X171828191Y-95033650D01*
X171879486Y-95056891D01*
X171915212Y-95100423D01*
X171928000Y-95155267D01*
X171928000Y-96764451D01*
X171914485Y-96820746D01*
X171876885Y-96864769D01*
X171823398Y-96886924D01*
X171765682Y-96882382D01*
X171716319Y-96852132D01*
X171654140Y-96789953D01*
X171467735Y-96659432D01*
X171261497Y-96563261D01*
X171041689Y-96504364D01*
X170815000Y-96484531D01*
X170588310Y-96504364D01*
X170368502Y-96563261D01*
X170162264Y-96659432D01*
X169975859Y-96789953D01*
X169814953Y-96950859D01*
X169684432Y-97137264D01*
X169588261Y-97343502D01*
X169529364Y-97563310D01*
X169509531Y-97790000D01*
X169529364Y-98016689D01*
X169588261Y-98236497D01*
X169684432Y-98442735D01*
X169814953Y-98629140D01*
X169975859Y-98790046D01*
X170162264Y-98920567D01*
X170162265Y-98920567D01*
X170162266Y-98920568D01*
X170368504Y-99016739D01*
X170588308Y-99075635D01*
X170815000Y-99095468D01*
X171041692Y-99075635D01*
X171261496Y-99016739D01*
X171467734Y-98920568D01*
X171654139Y-98790047D01*
X171684932Y-98759254D01*
X171716319Y-98727868D01*
X171765682Y-98697618D01*
X171823398Y-98693076D01*
X171876885Y-98715231D01*
X171914485Y-98759254D01*
X171928000Y-98815549D01*
X171928000Y-99518000D01*
X171911387Y-99580000D01*
X171866000Y-99625387D01*
X171804000Y-99642000D01*
X160781824Y-99642000D01*
X160731389Y-99631280D01*
X160689674Y-99600972D01*
X160625870Y-99530110D01*
X160472730Y-99418848D01*
X160299802Y-99341855D01*
X160114648Y-99302500D01*
X160114646Y-99302500D01*
X159943000Y-99302500D01*
X159881000Y-99285887D01*
X159835613Y-99240500D01*
X159819000Y-99178500D01*
X159819000Y-98325425D01*
X159833011Y-98268168D01*
X159871876Y-98223850D01*
X159970139Y-98155047D01*
X160131047Y-97994139D01*
X160261568Y-97807734D01*
X160269838Y-97790000D01*
X163540531Y-97790000D01*
X163560364Y-98016689D01*
X163619261Y-98236497D01*
X163715432Y-98442735D01*
X163845953Y-98629140D01*
X164006859Y-98790046D01*
X164193264Y-98920567D01*
X164193265Y-98920567D01*
X164193266Y-98920568D01*
X164399504Y-99016739D01*
X164619308Y-99075635D01*
X164846000Y-99095468D01*
X165072692Y-99075635D01*
X165292496Y-99016739D01*
X165498734Y-98920568D01*
X165685139Y-98790047D01*
X165846047Y-98629139D01*
X165976568Y-98442734D01*
X166072739Y-98236496D01*
X166125390Y-98040000D01*
X166488128Y-98040000D01*
X166540733Y-98236326D01*
X166636865Y-98442480D01*
X166767341Y-98628819D01*
X166928180Y-98789658D01*
X167114519Y-98920134D01*
X167320673Y-99016266D01*
X167516999Y-99068871D01*
X167517000Y-99068872D01*
X167517000Y-98040000D01*
X168017000Y-98040000D01*
X168017000Y-99068871D01*
X168213326Y-99016266D01*
X168419480Y-98920134D01*
X168605819Y-98789658D01*
X168766658Y-98628819D01*
X168897134Y-98442480D01*
X168993266Y-98236326D01*
X169045872Y-98040000D01*
X168017000Y-98040000D01*
X167517000Y-98040000D01*
X166488128Y-98040000D01*
X166125390Y-98040000D01*
X166131635Y-98016692D01*
X166151468Y-97790000D01*
X166131635Y-97563308D01*
X166125390Y-97540000D01*
X166488128Y-97540000D01*
X167517000Y-97540000D01*
X167517000Y-96511128D01*
X168017000Y-96511128D01*
X168017000Y-97540000D01*
X169045872Y-97540000D01*
X169045871Y-97539999D01*
X168993266Y-97343673D01*
X168897134Y-97137519D01*
X168766658Y-96951180D01*
X168605819Y-96790341D01*
X168419480Y-96659865D01*
X168213326Y-96563733D01*
X168017000Y-96511128D01*
X167517000Y-96511128D01*
X167516999Y-96511128D01*
X167320673Y-96563733D01*
X167114519Y-96659865D01*
X166928180Y-96790341D01*
X166767341Y-96951180D01*
X166636865Y-97137519D01*
X166540733Y-97343673D01*
X166488128Y-97539999D01*
X166488128Y-97540000D01*
X166125390Y-97540000D01*
X166072739Y-97343504D01*
X165976568Y-97137266D01*
X165935360Y-97078415D01*
X165846046Y-96950859D01*
X165685140Y-96789953D01*
X165498735Y-96659432D01*
X165292497Y-96563261D01*
X165072689Y-96504364D01*
X164846000Y-96484531D01*
X164619310Y-96504364D01*
X164399502Y-96563261D01*
X164193264Y-96659432D01*
X164006859Y-96789953D01*
X163845953Y-96950859D01*
X163715432Y-97137264D01*
X163619261Y-97343502D01*
X163560364Y-97563310D01*
X163540531Y-97790000D01*
X160269838Y-97790000D01*
X160357739Y-97601496D01*
X160416635Y-97381692D01*
X160436468Y-97155000D01*
X160416635Y-96928308D01*
X160357739Y-96708504D01*
X160261568Y-96502266D01*
X160257893Y-96497018D01*
X160131046Y-96315859D01*
X159970140Y-96154953D01*
X159783735Y-96024432D01*
X159577497Y-95928261D01*
X159357689Y-95869364D01*
X159131000Y-95849531D01*
X158904310Y-95869364D01*
X158684502Y-95928261D01*
X158478264Y-96024432D01*
X158291859Y-96154953D01*
X158130953Y-96315859D01*
X158000433Y-96502263D01*
X157991733Y-96520921D01*
X157974592Y-96557681D01*
X157973382Y-96560275D01*
X157927625Y-96612450D01*
X157861000Y-96631869D01*
X157794375Y-96612450D01*
X157748618Y-96560275D01*
X157747517Y-96557914D01*
X157721568Y-96502266D01*
X157715658Y-96493826D01*
X157591046Y-96315859D01*
X157430140Y-96154953D01*
X157243735Y-96024432D01*
X157037497Y-95928261D01*
X156824085Y-95871077D01*
X156779837Y-95849015D01*
X156747726Y-95811418D01*
X156732858Y-95764265D01*
X156714674Y-95591244D01*
X156673068Y-95463196D01*
X156667000Y-95424880D01*
X156667000Y-94964387D01*
X156681011Y-94907130D01*
X156719876Y-94862813D01*
X156742465Y-94846994D01*
X156785877Y-94816598D01*
X156940598Y-94661877D01*
X157066102Y-94482639D01*
X157136617Y-94331417D01*
X157182375Y-94279241D01*
X157249000Y-94259822D01*
X157315625Y-94279241D01*
X157361382Y-94331417D01*
X157431898Y-94482639D01*
X157557402Y-94661877D01*
X157712123Y-94816598D01*
X157891361Y-94942102D01*
X158089670Y-95034575D01*
X158301023Y-95091207D01*
X158519000Y-95110277D01*
X158736977Y-95091207D01*
X158948330Y-95034575D01*
X159146639Y-94942102D01*
X159325877Y-94816598D01*
X159480598Y-94661877D01*
X159606102Y-94482639D01*
X159676617Y-94331417D01*
X159722375Y-94279241D01*
X159789000Y-94259822D01*
X159855625Y-94279241D01*
X159901382Y-94331417D01*
X159971898Y-94482639D01*
X160097402Y-94661877D01*
X160252123Y-94816598D01*
X160431361Y-94942102D01*
X160629670Y-95034575D01*
X160841023Y-95091207D01*
X161059000Y-95110277D01*
X161276977Y-95091207D01*
X161488330Y-95034575D01*
X161686639Y-94942102D01*
X161865877Y-94816598D01*
X162020598Y-94661877D01*
X162146102Y-94482639D01*
X162238575Y-94284330D01*
X162295207Y-94072977D01*
X162314277Y-93855000D01*
X162295207Y-93637023D01*
X162238575Y-93425670D01*
X162146102Y-93227362D01*
X162020598Y-93048123D01*
X161865877Y-92893402D01*
X161719022Y-92790573D01*
X161678697Y-92743358D01*
X161666318Y-92682510D01*
X161684990Y-92623290D01*
X161730032Y-92580547D01*
X161790148Y-92565000D01*
X162079000Y-92565000D01*
X162079000Y-91565000D01*
X162579000Y-91565000D01*
X162579000Y-92565000D01*
X163126824Y-92565000D01*
X163186375Y-92558597D01*
X163321089Y-92508352D01*
X163436188Y-92422188D01*
X163522352Y-92307089D01*
X163572597Y-92172375D01*
X163579000Y-92112824D01*
X163579000Y-91565000D01*
X162579000Y-91565000D01*
X162079000Y-91565000D01*
X162079000Y-91189000D01*
X162095613Y-91127000D01*
X162141000Y-91081613D01*
X162203000Y-91065000D01*
X163579000Y-91065000D01*
X163579000Y-90517176D01*
X163572597Y-90457624D01*
X163522352Y-90322910D01*
X163436188Y-90207811D01*
X163357316Y-90148767D01*
X163318832Y-90101011D01*
X163307943Y-90040654D01*
X163327312Y-89982460D01*
X163372200Y-89940668D01*
X163431627Y-89925500D01*
X168871139Y-89925500D01*
X168909457Y-89931569D01*
G37*
G04 #@! TD.AperFunction*
G04 #@! TA.AperFunction,Conductor*
G36*
X205734000Y-84791113D02*
G01*
X205779387Y-84836500D01*
X205796000Y-84898500D01*
X205796000Y-85094000D01*
X207517000Y-85094000D01*
X207579000Y-85110613D01*
X207624387Y-85156000D01*
X207641000Y-85218000D01*
X207641000Y-85470000D01*
X207624387Y-85532000D01*
X207579000Y-85577387D01*
X207517000Y-85594000D01*
X205796001Y-85594000D01*
X205796001Y-86013979D01*
X205806493Y-86116695D01*
X205861642Y-86283122D01*
X205953683Y-86432345D01*
X206077654Y-86556316D01*
X206239213Y-86655966D01*
X206237425Y-86658864D01*
X206268361Y-86679007D01*
X206297449Y-86734979D01*
X206295237Y-86798020D01*
X206262296Y-86851815D01*
X206133483Y-86975271D01*
X205994760Y-87162838D01*
X205889730Y-87371152D01*
X205821417Y-87594219D01*
X205791784Y-87825627D01*
X205801685Y-88058704D01*
X205804187Y-88070311D01*
X205801912Y-88131483D01*
X205770650Y-88184113D01*
X195614584Y-98340181D01*
X195574356Y-98367061D01*
X195526903Y-98376500D01*
X191419340Y-98376500D01*
X191363045Y-98362985D01*
X191319022Y-98325385D01*
X191296867Y-98271898D01*
X191301409Y-98214182D01*
X191331659Y-98164819D01*
X192418063Y-97078415D01*
X193509157Y-95987320D01*
X193514576Y-95982218D01*
X193558758Y-95943079D01*
X193592275Y-95894519D01*
X193596696Y-95888508D01*
X193633102Y-95842043D01*
X193637104Y-95833149D01*
X193648127Y-95813604D01*
X193653668Y-95805578D01*
X193674594Y-95750397D01*
X193677443Y-95743518D01*
X193701673Y-95689685D01*
X193703431Y-95680085D01*
X193709455Y-95658475D01*
X193712914Y-95649358D01*
X193720027Y-95590774D01*
X193721151Y-95583392D01*
X193724687Y-95564102D01*
X193731789Y-95525346D01*
X193728226Y-95466443D01*
X193728000Y-95458956D01*
X193728000Y-95147300D01*
X193743285Y-95087659D01*
X193785373Y-95042721D01*
X193843886Y-95023566D01*
X193892924Y-95032763D01*
X193893192Y-95031767D01*
X193903667Y-95034573D01*
X193903670Y-95034575D01*
X194115023Y-95091207D01*
X194333000Y-95110277D01*
X194550977Y-95091207D01*
X194762330Y-95034575D01*
X194960639Y-94942102D01*
X195139877Y-94816598D01*
X195294598Y-94661877D01*
X195420102Y-94482639D01*
X195490617Y-94331417D01*
X195536375Y-94279241D01*
X195603000Y-94259822D01*
X195669625Y-94279241D01*
X195715382Y-94331417D01*
X195785898Y-94482639D01*
X195911402Y-94661877D01*
X196066123Y-94816598D01*
X196245361Y-94942102D01*
X196443670Y-95034575D01*
X196655023Y-95091207D01*
X196873000Y-95110277D01*
X197090977Y-95091207D01*
X197302330Y-95034575D01*
X197500639Y-94942102D01*
X197679877Y-94816598D01*
X197834598Y-94661877D01*
X197960102Y-94482639D01*
X198052575Y-94284330D01*
X198109207Y-94072977D01*
X198128277Y-93855000D01*
X198109207Y-93637023D01*
X198052575Y-93425670D01*
X197960102Y-93227362D01*
X197834598Y-93048123D01*
X197679877Y-92893402D01*
X197533022Y-92790573D01*
X197492697Y-92743358D01*
X197480318Y-92682510D01*
X197498990Y-92623290D01*
X197544032Y-92580547D01*
X197604148Y-92565000D01*
X197893000Y-92565000D01*
X197893000Y-91565000D01*
X198393000Y-91565000D01*
X198393000Y-92565000D01*
X198940824Y-92565000D01*
X199000375Y-92558597D01*
X199135089Y-92508352D01*
X199250188Y-92422188D01*
X199336352Y-92307089D01*
X199386597Y-92172375D01*
X199393000Y-92112824D01*
X199393000Y-91565000D01*
X198393000Y-91565000D01*
X197893000Y-91565000D01*
X197893000Y-90065000D01*
X198393000Y-90065000D01*
X198393000Y-91065000D01*
X199393000Y-91065000D01*
X199393000Y-90517176D01*
X199386597Y-90457624D01*
X199336352Y-90322910D01*
X199250188Y-90207811D01*
X199135089Y-90121647D01*
X199000375Y-90071402D01*
X198940824Y-90065000D01*
X198393000Y-90065000D01*
X197893000Y-90065000D01*
X197345176Y-90065000D01*
X197285624Y-90071402D01*
X197150910Y-90121647D01*
X197035811Y-90207811D01*
X196949647Y-90322910D01*
X196899402Y-90457624D01*
X196893000Y-90517176D01*
X196893000Y-90583853D01*
X196877453Y-90643969D01*
X196834710Y-90689011D01*
X196775490Y-90707683D01*
X196714642Y-90695303D01*
X196667425Y-90654976D01*
X196622500Y-90590816D01*
X196564598Y-90508123D01*
X196409877Y-90353402D01*
X196230639Y-90227898D01*
X196139205Y-90185261D01*
X196032331Y-90135425D01*
X195820974Y-90078792D01*
X195602999Y-90059722D01*
X195385025Y-90078792D01*
X195173668Y-90135425D01*
X194975360Y-90227898D01*
X194814847Y-90340290D01*
X194761695Y-90361406D01*
X194704720Y-90356421D01*
X194656043Y-90326396D01*
X193679828Y-89350181D01*
X193649578Y-89300818D01*
X193645036Y-89243102D01*
X193667191Y-89189615D01*
X193711214Y-89152015D01*
X193767509Y-89138500D01*
X200645721Y-89138500D01*
X200648862Y-89138539D01*
X200736363Y-89140757D01*
X200794432Y-89130348D01*
X200803736Y-89129043D01*
X200862438Y-89123074D01*
X200891467Y-89113965D01*
X200906700Y-89110226D01*
X200936653Y-89104858D01*
X200991426Y-89082978D01*
X201000301Y-89079819D01*
X201017675Y-89074367D01*
X201056588Y-89062159D01*
X201083194Y-89047390D01*
X201097362Y-89040662D01*
X201125617Y-89029377D01*
X201174879Y-88996909D01*
X201182910Y-88992043D01*
X201234502Y-88963409D01*
X201257587Y-88943589D01*
X201270114Y-88934144D01*
X201295519Y-88917402D01*
X201337251Y-88875668D01*
X201344123Y-88869300D01*
X201388895Y-88830866D01*
X201407524Y-88806798D01*
X201417883Y-88795036D01*
X205402101Y-84810819D01*
X205442329Y-84783939D01*
X205489782Y-84774500D01*
X205672000Y-84774500D01*
X205734000Y-84791113D01*
G37*
G04 #@! TD.AperFunction*
G04 #@! TA.AperFunction,Conductor*
G36*
X114899457Y-89931569D02*
G01*
X114934023Y-89949181D01*
X115033770Y-90021651D01*
X115033771Y-90021651D01*
X115033772Y-90021652D01*
X115206697Y-90098644D01*
X115391852Y-90138000D01*
X115461500Y-90138000D01*
X115523500Y-90154613D01*
X115568887Y-90200000D01*
X115585500Y-90262000D01*
X115585500Y-92801721D01*
X115585460Y-92804863D01*
X115583242Y-92892362D01*
X115593648Y-92950420D01*
X115594957Y-92959749D01*
X115600926Y-93018438D01*
X115610033Y-93047467D01*
X115613772Y-93062702D01*
X115619141Y-93092652D01*
X115641020Y-93147425D01*
X115644180Y-93156300D01*
X115652043Y-93181362D01*
X115661841Y-93212588D01*
X115676607Y-93239191D01*
X115683337Y-93253364D01*
X115694622Y-93281617D01*
X115727080Y-93330867D01*
X115731961Y-93338923D01*
X115760590Y-93390501D01*
X115780404Y-93413581D01*
X115789856Y-93426116D01*
X115805714Y-93450178D01*
X115806599Y-93451520D01*
X115848300Y-93493221D01*
X115854705Y-93500132D01*
X115893134Y-93544896D01*
X115917193Y-93563519D01*
X115928972Y-93573893D01*
X116353115Y-93998036D01*
X116377815Y-94033309D01*
X116385660Y-94062586D01*
X116385986Y-94062499D01*
X116388792Y-94072973D01*
X116388793Y-94072977D01*
X116445425Y-94284330D01*
X116537898Y-94482639D01*
X116663402Y-94661877D01*
X116818123Y-94816598D01*
X116997361Y-94942102D01*
X117037069Y-94960618D01*
X117087465Y-95003660D01*
X117108494Y-95066510D01*
X117094149Y-95131215D01*
X117048529Y-95179289D01*
X116984664Y-95197000D01*
X113562527Y-95197000D01*
X113555040Y-95196774D01*
X113496152Y-95193211D01*
X113438131Y-95203844D01*
X113430730Y-95204971D01*
X113372137Y-95212086D01*
X113363020Y-95215544D01*
X113341411Y-95221568D01*
X113331814Y-95223326D01*
X113278005Y-95247544D01*
X113271087Y-95250410D01*
X113215919Y-95271332D01*
X113207885Y-95276878D01*
X113188349Y-95287896D01*
X113179455Y-95291899D01*
X113133023Y-95328276D01*
X113126993Y-95332714D01*
X113078420Y-95366242D01*
X113039281Y-95410420D01*
X113034148Y-95415872D01*
X112486112Y-95963908D01*
X112430525Y-95996002D01*
X112378613Y-95996002D01*
X112378499Y-95997310D01*
X112140999Y-95976531D01*
X111914310Y-95996364D01*
X111694502Y-96055261D01*
X111488264Y-96151432D01*
X111301859Y-96281953D01*
X111140953Y-96442859D01*
X111010433Y-96629263D01*
X110983382Y-96687275D01*
X110937625Y-96739450D01*
X110871000Y-96758869D01*
X110804375Y-96739450D01*
X110758618Y-96687275D01*
X110755226Y-96680000D01*
X110731568Y-96629266D01*
X110731566Y-96629263D01*
X110601046Y-96442859D01*
X110440140Y-96281953D01*
X110253735Y-96151432D01*
X110047497Y-96055261D01*
X109827689Y-95996364D01*
X109601000Y-95976531D01*
X109374310Y-95996364D01*
X109154502Y-96055261D01*
X108948264Y-96151432D01*
X108761860Y-96281953D01*
X108600954Y-96442859D01*
X108532150Y-96541123D01*
X108487832Y-96579989D01*
X108430575Y-96594000D01*
X106102341Y-96594000D01*
X106054888Y-96584561D01*
X106014660Y-96557681D01*
X104778269Y-95321290D01*
X104747368Y-95269863D01*
X104744228Y-95209948D01*
X104769585Y-95155572D01*
X104817501Y-95119466D01*
X104868211Y-95111434D01*
X104868193Y-95111223D01*
X104871222Y-95110957D01*
X104876760Y-95110081D01*
X104879000Y-95110277D01*
X104879000Y-95110276D01*
X104879002Y-95110277D01*
X104982353Y-95101235D01*
X105096977Y-95091207D01*
X105308330Y-95034575D01*
X105506639Y-94942102D01*
X105685877Y-94816598D01*
X105840598Y-94661877D01*
X105966102Y-94482639D01*
X106036617Y-94331417D01*
X106082375Y-94279241D01*
X106149000Y-94259822D01*
X106215625Y-94279241D01*
X106261382Y-94331417D01*
X106331898Y-94482639D01*
X106457402Y-94661877D01*
X106612123Y-94816598D01*
X106791361Y-94942102D01*
X106989670Y-95034575D01*
X107201023Y-95091207D01*
X107419000Y-95110277D01*
X107636977Y-95091207D01*
X107848330Y-95034575D01*
X108046639Y-94942102D01*
X108225877Y-94816598D01*
X108380598Y-94661877D01*
X108506102Y-94482639D01*
X108598575Y-94284330D01*
X108655207Y-94072977D01*
X108674277Y-93855000D01*
X108655207Y-93637023D01*
X108598575Y-93425670D01*
X108506102Y-93227362D01*
X108380598Y-93048123D01*
X108225877Y-92893402D01*
X108079022Y-92790573D01*
X108038697Y-92743358D01*
X108026318Y-92682510D01*
X108044990Y-92623290D01*
X108090032Y-92580547D01*
X108150148Y-92565000D01*
X108439000Y-92565000D01*
X108439000Y-91565000D01*
X108939000Y-91565000D01*
X108939000Y-92565000D01*
X109486824Y-92565000D01*
X109546375Y-92558597D01*
X109681089Y-92508352D01*
X109796188Y-92422188D01*
X109882352Y-92307089D01*
X109932597Y-92172375D01*
X109939000Y-92112824D01*
X109939000Y-91565000D01*
X108939000Y-91565000D01*
X108439000Y-91565000D01*
X108439000Y-91189000D01*
X108455613Y-91127000D01*
X108501000Y-91081613D01*
X108563000Y-91065000D01*
X109939000Y-91065000D01*
X109939000Y-90517176D01*
X109932597Y-90457624D01*
X109882352Y-90322910D01*
X109796188Y-90207811D01*
X109717316Y-90148767D01*
X109678832Y-90101011D01*
X109667943Y-90040654D01*
X109687312Y-89982460D01*
X109732200Y-89940668D01*
X109791627Y-89925500D01*
X114861139Y-89925500D01*
X114899457Y-89931569D01*
G37*
G04 #@! TD.AperFunction*
G04 #@! TA.AperFunction,Conductor*
G36*
X151047351Y-89968783D02*
G01*
X151081918Y-89986396D01*
X151112038Y-90008279D01*
X151136770Y-90026248D01*
X151254787Y-90078793D01*
X151309697Y-90103241D01*
X151494852Y-90142597D01*
X151564500Y-90142597D01*
X151626500Y-90159210D01*
X151671887Y-90204597D01*
X151688500Y-90266597D01*
X151688500Y-93090721D01*
X151688460Y-93093863D01*
X151686242Y-93181362D01*
X151696648Y-93239420D01*
X151697957Y-93248749D01*
X151703926Y-93307438D01*
X151713033Y-93336467D01*
X151716772Y-93351702D01*
X151722141Y-93381652D01*
X151744020Y-93436425D01*
X151747180Y-93445300D01*
X151762215Y-93493221D01*
X151764841Y-93501588D01*
X151779607Y-93528191D01*
X151786337Y-93542364D01*
X151797622Y-93570617D01*
X151830080Y-93619867D01*
X151834961Y-93627923D01*
X151863590Y-93679501D01*
X151883404Y-93702581D01*
X151892856Y-93715116D01*
X151909599Y-93740520D01*
X151951299Y-93782220D01*
X151957704Y-93789130D01*
X151996137Y-93833898D01*
X152020193Y-93852519D01*
X152031972Y-93862893D01*
X152167115Y-93998036D01*
X152191815Y-94033309D01*
X152199660Y-94062586D01*
X152199986Y-94062499D01*
X152202792Y-94072973D01*
X152202793Y-94072977D01*
X152259425Y-94284330D01*
X152351898Y-94482639D01*
X152477402Y-94661877D01*
X152632123Y-94816598D01*
X152811361Y-94942102D01*
X153009670Y-95034575D01*
X153221023Y-95091207D01*
X153439000Y-95110277D01*
X153656977Y-95091207D01*
X153864907Y-95035491D01*
X153921191Y-95033650D01*
X153972486Y-95056891D01*
X154008212Y-95100423D01*
X154021000Y-95155267D01*
X154021000Y-95738532D01*
X154006145Y-95797383D01*
X153965139Y-95842133D01*
X153907806Y-95862060D01*
X153824309Y-95869364D01*
X153604503Y-95928261D01*
X153398264Y-96024432D01*
X153211859Y-96154953D01*
X153050953Y-96315859D01*
X152920433Y-96502263D01*
X152911733Y-96520921D01*
X152894592Y-96557681D01*
X152893382Y-96560275D01*
X152847625Y-96612450D01*
X152781000Y-96631869D01*
X152714375Y-96612450D01*
X152668618Y-96560275D01*
X152667517Y-96557914D01*
X152641568Y-96502266D01*
X152635244Y-96493235D01*
X152585992Y-96422895D01*
X152511047Y-96315861D01*
X152350139Y-96154953D01*
X152255565Y-96088732D01*
X152215019Y-96041064D01*
X152206227Y-95996462D01*
X152205502Y-95996595D01*
X152202788Y-95981784D01*
X152192148Y-95923722D01*
X152191028Y-95916365D01*
X152183914Y-95857772D01*
X152180455Y-95848654D01*
X152174428Y-95827029D01*
X152172672Y-95817444D01*
X152148453Y-95763634D01*
X152145596Y-95756738D01*
X152124668Y-95701552D01*
X152119122Y-95693518D01*
X152108104Y-95673981D01*
X152104101Y-95665087D01*
X152067713Y-95618642D01*
X152063281Y-95612618D01*
X152048526Y-95591242D01*
X152029758Y-95564051D01*
X151985578Y-95524911D01*
X151980125Y-95519777D01*
X146634744Y-90174395D01*
X146604494Y-90125032D01*
X146599952Y-90067316D01*
X146622107Y-90013829D01*
X146666130Y-89976229D01*
X146722425Y-89962714D01*
X151009033Y-89962714D01*
X151047351Y-89968783D01*
G37*
G04 #@! TD.AperFunction*
G04 #@! TA.AperFunction,Conductor*
G36*
X133061957Y-89931569D02*
G01*
X133096523Y-89949181D01*
X133196270Y-90021651D01*
X133196271Y-90021651D01*
X133196272Y-90021652D01*
X133369197Y-90098644D01*
X133554352Y-90138000D01*
X133624000Y-90138000D01*
X133686000Y-90154613D01*
X133731387Y-90200000D01*
X133748000Y-90262000D01*
X133748000Y-93057221D01*
X133747960Y-93060363D01*
X133745742Y-93147862D01*
X133756148Y-93205920D01*
X133757457Y-93215249D01*
X133763426Y-93273938D01*
X133772533Y-93302967D01*
X133776272Y-93318202D01*
X133781641Y-93348152D01*
X133803520Y-93402925D01*
X133806680Y-93411800D01*
X133819142Y-93451520D01*
X133824341Y-93468088D01*
X133839107Y-93494691D01*
X133845837Y-93508864D01*
X133857122Y-93537117D01*
X133889580Y-93586367D01*
X133894461Y-93594423D01*
X133923090Y-93646001D01*
X133942904Y-93669081D01*
X133952356Y-93681616D01*
X133969099Y-93707020D01*
X134010800Y-93748721D01*
X134017205Y-93755632D01*
X134055630Y-93800391D01*
X134055631Y-93800392D01*
X134055634Y-93800395D01*
X134079698Y-93819022D01*
X134091468Y-93829389D01*
X134260115Y-93998036D01*
X134284815Y-94033309D01*
X134292660Y-94062586D01*
X134292986Y-94062499D01*
X134295792Y-94072973D01*
X134295793Y-94072977D01*
X134352425Y-94284330D01*
X134444898Y-94482639D01*
X134570402Y-94661877D01*
X134725123Y-94816598D01*
X134904361Y-94942102D01*
X135102670Y-95034575D01*
X135314023Y-95091207D01*
X135376302Y-95096655D01*
X135531995Y-95110277D01*
X135531997Y-95110276D01*
X135532000Y-95110277D01*
X135534237Y-95110081D01*
X135539769Y-95110957D01*
X135542807Y-95111223D01*
X135542788Y-95111435D01*
X135593496Y-95119465D01*
X135641412Y-95155571D01*
X135666769Y-95209947D01*
X135663630Y-95269862D01*
X135632729Y-95321290D01*
X134396340Y-96557681D01*
X134356112Y-96584561D01*
X134308659Y-96594000D01*
X128518872Y-96594000D01*
X128463737Y-96581068D01*
X128420102Y-96544970D01*
X128397068Y-96493235D01*
X128399440Y-96436654D01*
X128426722Y-96387028D01*
X128494533Y-96311716D01*
X128589179Y-96147784D01*
X128597113Y-96123365D01*
X128647674Y-95967756D01*
X128667460Y-95779500D01*
X128647674Y-95591244D01*
X128610502Y-95476841D01*
X128589179Y-95411215D01*
X128494533Y-95247284D01*
X128481851Y-95233199D01*
X128458236Y-95194664D01*
X128450000Y-95150226D01*
X128450000Y-94787870D01*
X128450226Y-94780383D01*
X128450931Y-94768727D01*
X128453789Y-94721486D01*
X128443147Y-94663420D01*
X128442026Y-94656060D01*
X128434914Y-94597474D01*
X128431454Y-94588353D01*
X128425428Y-94566732D01*
X128423672Y-94557147D01*
X128399453Y-94503335D01*
X128396595Y-94496435D01*
X128393822Y-94489124D01*
X128375668Y-94441254D01*
X128370126Y-94433225D01*
X128359102Y-94413679D01*
X128355101Y-94404789D01*
X128318705Y-94358333D01*
X128314285Y-94352325D01*
X128280758Y-94303753D01*
X128236579Y-94264614D01*
X128231141Y-94259494D01*
X126748328Y-92776681D01*
X126718078Y-92727318D01*
X126713536Y-92669602D01*
X126735691Y-92616115D01*
X126779714Y-92578515D01*
X126836009Y-92565000D01*
X127312824Y-92565000D01*
X127372375Y-92558597D01*
X127507089Y-92508352D01*
X127622188Y-92422188D01*
X127708352Y-92307089D01*
X127758597Y-92172375D01*
X127765000Y-92112824D01*
X127765000Y-91565000D01*
X126389000Y-91565000D01*
X126327000Y-91548387D01*
X126281613Y-91503000D01*
X126265000Y-91441000D01*
X126265000Y-91189000D01*
X126281613Y-91127000D01*
X126327000Y-91081613D01*
X126389000Y-91065000D01*
X127765000Y-91065000D01*
X127765000Y-90517176D01*
X127758597Y-90457624D01*
X127708352Y-90322910D01*
X127622188Y-90207811D01*
X127543316Y-90148767D01*
X127504832Y-90101011D01*
X127493943Y-90040654D01*
X127513312Y-89982460D01*
X127558200Y-89940668D01*
X127617627Y-89925500D01*
X133023639Y-89925500D01*
X133061957Y-89931569D01*
G37*
G04 #@! TD.AperFunction*
G04 #@! TA.AperFunction,Conductor*
G36*
X124041625Y-94279241D02*
G01*
X124087382Y-94331417D01*
X124157898Y-94482639D01*
X124283402Y-94661877D01*
X124438123Y-94816598D01*
X124617361Y-94942102D01*
X124815670Y-95034575D01*
X125027023Y-95091207D01*
X125245000Y-95110277D01*
X125462977Y-95091207D01*
X125674330Y-95034575D01*
X125872639Y-94942102D01*
X126051877Y-94816598D01*
X126206598Y-94661877D01*
X126319916Y-94500041D01*
X126359492Y-94463778D01*
X126410685Y-94447637D01*
X126463903Y-94454643D01*
X126509173Y-94483484D01*
X127037681Y-95011992D01*
X127064561Y-95052220D01*
X127074000Y-95099673D01*
X127074000Y-95150226D01*
X127065764Y-95194664D01*
X127042149Y-95233199D01*
X127029466Y-95247284D01*
X126934820Y-95411215D01*
X126876326Y-95591242D01*
X126856540Y-95779500D01*
X126876326Y-95967757D01*
X126934820Y-96147784D01*
X127029466Y-96311716D01*
X127097278Y-96387028D01*
X127124560Y-96436654D01*
X127126932Y-96493235D01*
X127103898Y-96544970D01*
X127060263Y-96581068D01*
X127005128Y-96594000D01*
X118701555Y-96594000D01*
X118646600Y-96581157D01*
X118603028Y-96545289D01*
X118579866Y-96493826D01*
X118581910Y-96437427D01*
X118608734Y-96387778D01*
X118633734Y-96359559D01*
X118638820Y-96354157D01*
X119864526Y-95128451D01*
X119909794Y-95099612D01*
X119963012Y-95092606D01*
X120165000Y-95110277D01*
X120382977Y-95091207D01*
X120594330Y-95034575D01*
X120792639Y-94942102D01*
X120971877Y-94816598D01*
X121126598Y-94661877D01*
X121252102Y-94482639D01*
X121322617Y-94331417D01*
X121368375Y-94279241D01*
X121435000Y-94259822D01*
X121501625Y-94279241D01*
X121547382Y-94331417D01*
X121617898Y-94482639D01*
X121743402Y-94661877D01*
X121898123Y-94816598D01*
X122077361Y-94942102D01*
X122275670Y-95034575D01*
X122487023Y-95091207D01*
X122705000Y-95110277D01*
X122922977Y-95091207D01*
X123134330Y-95034575D01*
X123332639Y-94942102D01*
X123511877Y-94816598D01*
X123666598Y-94661877D01*
X123792102Y-94482639D01*
X123862617Y-94331417D01*
X123908375Y-94279241D01*
X123975000Y-94259822D01*
X124041625Y-94279241D01*
G37*
G04 #@! TD.AperFunction*
M02*
