M48
; DRILL file {KiCad 7.0.1} date Wed Jul  5 16:18:22 2023
; FORMAT={-:-/ absolute / metric / decimal}
; #@! TF.CreationDate,2023-07-05T16:18:22-05:00
; #@! TF.GenerationSoftware,Kicad,Pcbnew,7.0.1
; #@! TF.FileFunction,Plated,1,2,PTH
FMAT,2
METRIC
; #@! TA.AperFunction,Plated,PTH,ViaDrill
T1C0.400
; #@! TA.AperFunction,Plated,PTH,ComponentDrill
T2C0.800
; #@! TA.AperFunction,Plated,PTH,ComponentDrill
T3C0.900
; #@! TA.AperFunction,Plated,PTH,ComponentDrill
T4C1.190
; #@! TA.AperFunction,Plated,PTH,ComponentDrill
T5C1.600
%
G90
G05
T1
X105.029Y-98.171
X105.537Y-102.997
X107.315Y-96.012
X111.379Y-91.313
X115.486Y-89.237
X118.062Y-89.237
X118.364Y-100.965
X120.961Y-99.622
X123.755Y-99.622
X124.968Y-96.393
X126.549Y-99.622
X127.762Y-95.779
X130.429Y-103.759
X133.649Y-89.237
X136.181Y-89.275
X136.398Y-104.267
X139.573Y-101.727
X141.351Y-101.075
X147.622Y-102.314
X149.098Y-103.251
X149.479Y-91.44
X151.589Y-89.242
X153.289Y-100.838
X154.109Y-89.237
X155.829Y-95.779
X160.02Y-100.203
X162.433Y-102.464
X167.767Y-103.505
X169.496Y-89.237
X171.323Y-99.441
X171.695Y-89.237
X174.879Y-95.779
X177.419Y-105.156
X179.07Y-101.346
X179.832Y-97.536
X187.403Y-89.237
X189.611Y-89.237
X190.246Y-98.277
X191.516Y-102.362
T2
X109.601Y-97.282
X109.601Y-104.902
X112.141Y-97.282
X112.141Y-104.902
X114.681Y-97.282
X114.681Y-104.902
X134.239Y-99.1
X134.239Y-104.1
X138.811Y-97.155
X138.811Y-104.775
X141.351Y-97.155
X141.351Y-104.775
X143.891Y-97.155
X143.891Y-104.775
X146.431Y-97.155
X146.431Y-104.775
X148.971Y-97.155
X148.971Y-104.775
X151.511Y-97.155
X151.511Y-104.775
X154.051Y-97.155
X154.051Y-104.775
X156.591Y-97.155
X156.591Y-104.775
X159.131Y-97.155
X159.131Y-104.775
X164.846Y-97.79
X164.846Y-105.41
X167.767Y-97.79
X167.767Y-105.41
X170.815Y-97.79
X170.815Y-105.41
X183.007Y-97.409
X183.007Y-105.029
X185.547Y-97.409
X185.547Y-105.029
X188.087Y-97.409
X188.087Y-105.029
T3
X99.799Y-93.855
X101.069Y-91.315
X102.339Y-93.855
X103.609Y-91.315
X104.879Y-93.855
X106.149Y-91.315
X107.419Y-93.855
X108.689Y-91.315
X117.625Y-93.855
X118.895Y-91.315
X120.165Y-93.855
X121.435Y-91.315
X122.705Y-93.855
X123.975Y-91.315
X125.245Y-93.855
X126.515Y-91.315
X135.532Y-93.855
X136.802Y-91.315
X138.072Y-93.855
X139.342Y-91.315
X140.612Y-93.855
X141.882Y-91.315
X143.152Y-93.855
X144.422Y-91.315
X153.439Y-93.855
X154.709Y-91.315
X155.979Y-93.855
X157.249Y-91.315
X158.519Y-93.855
X159.789Y-91.315
X161.059Y-93.855
X162.329Y-91.315
X171.346Y-93.855
X172.616Y-91.315
X173.886Y-93.855
X175.156Y-91.315
X176.426Y-93.855
X177.696Y-91.315
X178.966Y-93.855
X180.236Y-91.315
X189.253Y-93.855
X190.523Y-91.315
X191.793Y-93.855
X193.063Y-91.315
X194.333Y-93.855
X195.603Y-91.315
X196.873Y-93.855
X198.143Y-91.315
T4
X90.424Y-85.344
X90.424Y-87.884
X90.424Y-90.424
X90.424Y-92.964
X90.424Y-95.504
X90.424Y-98.044
X90.424Y-100.584
X90.424Y-103.124
X207.391Y-85.344
X207.391Y-87.884
X207.391Y-90.424
X207.391Y-92.964
X207.391Y-95.504
X207.391Y-98.044
X207.391Y-100.584
X207.391Y-103.124
T5
X96.474Y-81.915
X112.014Y-81.915
X114.3Y-81.915
X129.84Y-81.915
X132.207Y-81.915
X147.747Y-81.915
X150.114Y-81.915
X165.654Y-81.915
X168.021Y-81.915
X183.561Y-81.915
X185.928Y-81.915
X201.468Y-81.915
T0
M30
