G04 #@! TF.GenerationSoftware,KiCad,Pcbnew,7.0.1*
G04 #@! TF.CreationDate,2023-07-05T16:18:13-05:00*
G04 #@! TF.ProjectId,pn5180 mcp23008 breakout board,706e3531-3830-4206-9d63-703233303038,rev?*
G04 #@! TF.SameCoordinates,Original*
G04 #@! TF.FileFunction,Copper,L1,Top*
G04 #@! TF.FilePolarity,Positive*
%FSLAX46Y46*%
G04 Gerber Fmt 4.6, Leading zero omitted, Abs format (unit mm)*
G04 Created by KiCad (PCBNEW 7.0.1) date 2023-07-05 16:18:13*
%MOMM*%
%LPD*%
G01*
G04 APERTURE LIST*
G04 Aperture macros list*
%AMRoundRect*
0 Rectangle with rounded corners*
0 $1 Rounding radius*
0 $2 $3 $4 $5 $6 $7 $8 $9 X,Y pos of 4 corners*
0 Add a 4 corners polygon primitive as box body*
4,1,4,$2,$3,$4,$5,$6,$7,$8,$9,$2,$3,0*
0 Add four circle primitives for the rounded corners*
1,1,$1+$1,$2,$3*
1,1,$1+$1,$4,$5*
1,1,$1+$1,$6,$7*
1,1,$1+$1,$8,$9*
0 Add four rect primitives between the rounded corners*
20,1,$1+$1,$2,$3,$4,$5,0*
20,1,$1+$1,$4,$5,$6,$7,0*
20,1,$1+$1,$6,$7,$8,$9,0*
20,1,$1+$1,$8,$9,$2,$3,0*%
%AMFreePoly0*
4,1,19,0.550000,-0.750000,0.000000,-0.750000,0.000000,-0.744911,-0.071157,-0.744911,-0.207708,-0.704816,-0.327430,-0.627875,-0.420627,-0.520320,-0.479746,-0.390866,-0.500000,-0.250000,-0.500000,0.250000,-0.479746,0.390866,-0.420627,0.520320,-0.327430,0.627875,-0.207708,0.704816,-0.071157,0.744911,0.000000,0.744911,0.000000,0.750000,0.550000,0.750000,0.550000,-0.750000,0.550000,-0.750000,
$1*%
%AMFreePoly1*
4,1,19,0.000000,0.744911,0.071157,0.744911,0.207708,0.704816,0.327430,0.627875,0.420627,0.520320,0.479746,0.390866,0.500000,0.250000,0.500000,-0.250000,0.479746,-0.390866,0.420627,-0.520320,0.327430,-0.627875,0.207708,-0.704816,0.071157,-0.744911,0.000000,-0.744911,0.000000,-0.750000,-0.550000,-0.750000,-0.550000,0.750000,0.000000,0.750000,0.000000,0.744911,0.000000,0.744911,
$1*%
G04 Aperture macros list end*
G04 #@! TA.AperFunction,ComponentPad*
%ADD10R,1.600000X1.600000*%
G04 #@! TD*
G04 #@! TA.AperFunction,ComponentPad*
%ADD11O,1.600000X1.600000*%
G04 #@! TD*
G04 #@! TA.AperFunction,ComponentPad*
%ADD12C,3.000000*%
G04 #@! TD*
G04 #@! TA.AperFunction,ComponentPad*
%ADD13C,1.500000*%
G04 #@! TD*
G04 #@! TA.AperFunction,ComponentPad*
%ADD14R,1.500000X1.500000*%
G04 #@! TD*
G04 #@! TA.AperFunction,SMDPad,CuDef*
%ADD15FreePoly0,90.000000*%
G04 #@! TD*
G04 #@! TA.AperFunction,SMDPad,CuDef*
%ADD16R,1.500000X1.000000*%
G04 #@! TD*
G04 #@! TA.AperFunction,SMDPad,CuDef*
%ADD17FreePoly1,90.000000*%
G04 #@! TD*
G04 #@! TA.AperFunction,ComponentPad*
%ADD18RoundRect,0.250000X-0.845000X0.620000X-0.845000X-0.620000X0.845000X-0.620000X0.845000X0.620000X0*%
G04 #@! TD*
G04 #@! TA.AperFunction,ComponentPad*
%ADD19O,2.190000X1.740000*%
G04 #@! TD*
G04 #@! TA.AperFunction,ComponentPad*
%ADD20C,1.600000*%
G04 #@! TD*
G04 #@! TA.AperFunction,ComponentPad*
%ADD21RoundRect,0.250000X0.845000X-0.620000X0.845000X0.620000X-0.845000X0.620000X-0.845000X-0.620000X0*%
G04 #@! TD*
G04 #@! TA.AperFunction,ViaPad*
%ADD22C,0.800000*%
G04 #@! TD*
G04 #@! TA.AperFunction,Conductor*
%ADD23C,0.375000*%
G04 #@! TD*
G04 APERTURE END LIST*
D10*
X138811000Y-104775000D03*
D11*
X141351000Y-104775000D03*
X143891000Y-104775000D03*
X146431000Y-104775000D03*
X148971000Y-104775000D03*
X151511000Y-104775000D03*
X154051000Y-104775000D03*
X156591000Y-104775000D03*
X159131000Y-104775000D03*
X159131000Y-97155000D03*
X156591000Y-97155000D03*
X154051000Y-97155000D03*
X151511000Y-97155000D03*
X148971000Y-97155000D03*
X146431000Y-97155000D03*
X143891000Y-97155000D03*
X141351000Y-97155000D03*
X138811000Y-97155000D03*
D12*
X150114000Y-81915000D03*
X165654000Y-81915000D03*
D13*
X153439000Y-93855000D03*
X154709000Y-91315000D03*
X155979000Y-93855000D03*
X157249000Y-91315000D03*
X158519000Y-93855000D03*
X159789000Y-91315000D03*
X161059000Y-93855000D03*
D14*
X162329000Y-91315000D03*
D12*
X114300000Y-81915000D03*
X129840000Y-81915000D03*
D13*
X117625000Y-93855000D03*
X118895000Y-91315000D03*
X120165000Y-93855000D03*
X121435000Y-91315000D03*
X122705000Y-93855000D03*
X123975000Y-91315000D03*
X125245000Y-93855000D03*
D14*
X126515000Y-91315000D03*
D15*
X120961000Y-102222000D03*
D16*
X120961000Y-100922000D03*
D17*
X120961000Y-99622000D03*
D11*
X114681000Y-97282000D03*
D10*
X114681000Y-104902000D03*
D18*
X207391000Y-85344000D03*
D19*
X207391000Y-87884000D03*
X207391000Y-90424000D03*
X207391000Y-92964000D03*
X207391000Y-95504000D03*
X207391000Y-98044000D03*
X207391000Y-100584000D03*
X207391000Y-103124000D03*
D10*
X185547000Y-105029000D03*
D11*
X185547000Y-97409000D03*
D20*
X170815000Y-105410000D03*
D11*
X170815000Y-97790000D03*
D15*
X126549000Y-102222000D03*
D16*
X126549000Y-100922000D03*
D17*
X126549000Y-99622000D03*
D12*
X96474000Y-81915000D03*
X112014000Y-81915000D03*
D13*
X99799000Y-93855000D03*
X101069000Y-91315000D03*
X102339000Y-93855000D03*
X103609000Y-91315000D03*
X104879000Y-93855000D03*
X106149000Y-91315000D03*
X107419000Y-93855000D03*
D14*
X108689000Y-91315000D03*
X198143000Y-91315000D03*
D13*
X196873000Y-93855000D03*
X195603000Y-91315000D03*
X194333000Y-93855000D03*
X193063000Y-91315000D03*
X191793000Y-93855000D03*
X190523000Y-91315000D03*
X189253000Y-93855000D03*
D12*
X201468000Y-81915000D03*
X185928000Y-81915000D03*
D10*
X183007000Y-105029000D03*
D11*
X183007000Y-97409000D03*
D20*
X134239000Y-104100000D03*
X134239000Y-99100000D03*
D10*
X188087000Y-105029000D03*
D11*
X188087000Y-97409000D03*
D21*
X90424000Y-103124000D03*
D19*
X90424000Y-100584000D03*
X90424000Y-98044000D03*
X90424000Y-95504000D03*
X90424000Y-92964000D03*
X90424000Y-90424000D03*
X90424000Y-87884000D03*
X90424000Y-85344000D03*
D15*
X123755000Y-102222000D03*
D16*
X123755000Y-100922000D03*
D17*
X123755000Y-99622000D03*
D10*
X109601000Y-104902000D03*
D11*
X109601000Y-97282000D03*
D20*
X164846000Y-105410000D03*
D11*
X164846000Y-97790000D03*
D20*
X167767000Y-105410000D03*
D11*
X167767000Y-97790000D03*
X112141000Y-97282000D03*
D10*
X112141000Y-104902000D03*
D12*
X132207000Y-81915000D03*
X147747000Y-81915000D03*
D13*
X135532000Y-93855000D03*
X136802000Y-91315000D03*
X138072000Y-93855000D03*
X139342000Y-91315000D03*
X140612000Y-93855000D03*
X141882000Y-91315000D03*
X143152000Y-93855000D03*
D14*
X144422000Y-91315000D03*
D12*
X168021000Y-81915000D03*
X183561000Y-81915000D03*
D13*
X171346000Y-93855000D03*
X172616000Y-91315000D03*
X173886000Y-93855000D03*
X175156000Y-91315000D03*
X176426000Y-93855000D03*
X177696000Y-91315000D03*
X178966000Y-93855000D03*
D14*
X180236000Y-91315000D03*
D22*
X130429000Y-103759000D03*
X136398000Y-104267000D03*
X177419000Y-105156000D03*
X191516000Y-102362000D03*
X179070000Y-101346000D03*
X153289000Y-100838000D03*
X105537000Y-102997000D03*
X111379000Y-91313000D03*
X107315000Y-96012000D03*
X124968000Y-96393000D03*
X162433000Y-102464000D03*
X149479000Y-91440000D03*
X179832000Y-97536000D03*
X171323000Y-99441000D03*
X160020000Y-100203000D03*
X167767000Y-103505000D03*
X190246000Y-98277500D03*
X105029000Y-98171000D03*
X118364000Y-100965000D03*
X127762000Y-95779500D03*
X139573000Y-101727000D03*
X155829000Y-95779500D03*
X174879000Y-95779500D03*
X189611000Y-89237500D03*
X187403500Y-89237500D03*
X171695500Y-89237500D03*
X169496500Y-89237500D03*
X154108689Y-89237500D03*
X136181214Y-89274714D03*
X133649000Y-89237500D03*
X118061965Y-89237500D03*
X151589500Y-89242097D03*
X115486500Y-89237500D03*
X120961000Y-99622000D03*
X123755000Y-99622000D03*
X126549000Y-99622000D03*
X141351000Y-101074500D03*
X147622494Y-102313506D03*
X149098000Y-103251000D03*
D23*
X162433000Y-102464000D02*
X162433000Y-101882379D01*
X162433000Y-101882379D02*
X166525379Y-97790000D01*
X166525379Y-97790000D02*
X167767000Y-97790000D01*
X149354000Y-91315000D02*
X149479000Y-91440000D01*
X144422000Y-91315000D02*
X149354000Y-91315000D01*
X173228000Y-97536000D02*
X179832000Y-97536000D01*
X171323000Y-99441000D02*
X173228000Y-97536000D01*
X156591000Y-99949000D02*
X156591000Y-97155000D01*
X156845000Y-100203000D02*
X156591000Y-99949000D01*
X160020000Y-100203000D02*
X156845000Y-100203000D01*
X185018500Y-103505000D02*
X167767000Y-103505000D01*
X190246000Y-98277500D02*
X185018500Y-103505000D01*
X107823000Y-100965000D02*
X105029000Y-98171000D01*
X118364000Y-100965000D02*
X107823000Y-100965000D01*
X128143000Y-95567500D02*
X127931000Y-95779500D01*
X147383500Y-95567500D02*
X128143000Y-95567500D01*
X127931000Y-95779500D02*
X127762000Y-95779500D01*
X148971000Y-97155000D02*
X147383500Y-95567500D01*
X134747000Y-101727000D02*
X139573000Y-101727000D01*
X131572000Y-104902000D02*
X134747000Y-101727000D01*
X114681000Y-104902000D02*
X131572000Y-104902000D01*
X136144000Y-89237500D02*
X136181214Y-89274714D01*
X133649000Y-89237500D02*
X136144000Y-89237500D01*
X115486500Y-89237500D02*
X118061965Y-89237500D01*
X182165000Y-96567000D02*
X183007000Y-97409000D01*
X155829000Y-95779500D02*
X160125500Y-95779500D01*
X160125500Y-95779500D02*
X160913000Y-96567000D01*
X160913000Y-96567000D02*
X182165000Y-96567000D01*
X183917500Y-95779500D02*
X185547000Y-97409000D01*
X174879000Y-95779500D02*
X183917500Y-95779500D01*
X161362879Y-104222500D02*
X166579500Y-104222500D01*
X159622879Y-105962500D02*
X161362879Y-104222500D01*
X145135414Y-105158793D02*
X145939121Y-105962500D01*
X145135414Y-104340035D02*
X145135414Y-105158793D01*
X141869879Y-101074500D02*
X145135414Y-104340035D01*
X141351000Y-101074500D02*
X141869879Y-101074500D01*
X166579500Y-104222500D02*
X167767000Y-105410000D01*
X145939121Y-105962500D02*
X159622879Y-105962500D01*
X187403500Y-89237500D02*
X189611000Y-89237500D01*
X169496500Y-89237500D02*
X171695500Y-89237500D01*
X154104092Y-89242097D02*
X154108689Y-89237500D01*
X151589500Y-89242097D02*
X154104092Y-89242097D01*
X138204500Y-90177500D02*
X122572500Y-90177500D01*
X160322494Y-102313506D02*
X164846000Y-97790000D01*
X147622494Y-102313506D02*
X160322494Y-102313506D01*
X165354000Y-103251000D02*
X170815000Y-97790000D01*
X149098000Y-103251000D02*
X165354000Y-103251000D01*
X90738328Y-106664500D02*
X87791500Y-103717672D01*
X141351000Y-104775000D02*
X139461500Y-106664500D01*
X139461500Y-106664500D02*
X90738328Y-106664500D01*
X91022939Y-106089500D02*
X137496500Y-106089500D01*
X137496500Y-106089500D02*
X138811000Y-104775000D01*
X88366500Y-103433061D02*
X91022939Y-106089500D01*
X88366500Y-103251000D02*
X88366500Y-103433061D01*
X88366500Y-103251000D02*
X88366500Y-103479500D01*
X88366500Y-95021500D02*
X88366500Y-103251000D01*
X112141000Y-104902000D02*
X114681000Y-104902000D01*
X109601000Y-104902000D02*
X112141000Y-104902000D01*
X168954500Y-104222500D02*
X167767000Y-105410000D01*
X183007000Y-105029000D02*
X182200500Y-104222500D01*
X182200500Y-104222500D02*
X168954500Y-104222500D01*
X185547000Y-105029000D02*
X183007000Y-105029000D01*
X188087000Y-105029000D02*
X185547000Y-105029000D01*
X124062000Y-97790000D02*
X122098500Y-99753500D01*
X134608379Y-97790000D02*
X124062000Y-97790000D01*
X122098500Y-100332508D02*
X121509008Y-100922000D01*
X135426500Y-98608121D02*
X134608379Y-97790000D01*
X121509008Y-100922000D02*
X120961000Y-100922000D01*
X142804121Y-98608121D02*
X135426500Y-98608121D01*
X148971000Y-104775000D02*
X142804121Y-98608121D01*
X122098500Y-99753500D02*
X122098500Y-100332508D01*
X124303008Y-100922000D02*
X123755000Y-100922000D01*
X127186500Y-98734500D02*
X125853000Y-98734500D01*
X125853000Y-98734500D02*
X124892500Y-99695000D01*
X128739500Y-100287500D02*
X127186500Y-98734500D01*
X124892500Y-100332508D02*
X124303008Y-100922000D01*
X141943500Y-100287500D02*
X128739500Y-100287500D01*
X146431000Y-104775000D02*
X141943500Y-100287500D01*
X124892500Y-99695000D02*
X124892500Y-100332508D01*
X140038000Y-100922000D02*
X126549000Y-100922000D01*
X143891000Y-104775000D02*
X140038000Y-100922000D01*
X208235000Y-107172500D02*
X143748500Y-107172500D01*
X207391000Y-90424000D02*
X211181838Y-94214838D01*
X211181838Y-94214838D02*
X211181838Y-104225662D01*
X211181838Y-104225662D02*
X208235000Y-107172500D01*
X143748500Y-107172500D02*
X141351000Y-104775000D01*
X210185000Y-95758000D02*
X207391000Y-92964000D01*
X210185000Y-104394000D02*
X210185000Y-95758000D01*
X207981500Y-106597500D02*
X210185000Y-104394000D01*
X142621000Y-105184379D02*
X144034121Y-106597500D01*
X141842879Y-103587500D02*
X142621000Y-104365621D01*
X144034121Y-106597500D02*
X207981500Y-106597500D01*
X142621000Y-104365621D02*
X142621000Y-105184379D01*
X139998500Y-103587500D02*
X141842879Y-103587500D01*
X138811000Y-104775000D02*
X139998500Y-103587500D01*
X87791500Y-103717672D02*
X87791500Y-93056500D01*
X87791500Y-93056500D02*
X90424000Y-90424000D01*
X90424000Y-92964000D02*
X88366500Y-95021500D01*
X102471500Y-90177500D02*
X103609000Y-91315000D01*
X95750500Y-90177500D02*
X102471500Y-90177500D01*
X90424000Y-95504000D02*
X95750500Y-90177500D01*
X201062000Y-98044000D02*
X196873000Y-93855000D01*
X207391000Y-98044000D02*
X201062000Y-98044000D01*
X208136874Y-96786500D02*
X208915000Y-97564626D01*
X206670126Y-96786500D02*
X208136874Y-96786500D01*
X208915000Y-97564626D02*
X208915000Y-99060000D01*
X208915000Y-99060000D02*
X207391000Y-100584000D01*
X202336126Y-92452500D02*
X206670126Y-96786500D01*
X196740500Y-92452500D02*
X202336126Y-92452500D01*
X195603000Y-91315000D02*
X196740500Y-92452500D01*
X194465500Y-92452500D02*
X195603000Y-91315000D01*
X178833500Y-92452500D02*
X194465500Y-92452500D01*
X177696000Y-91315000D02*
X178833500Y-92452500D01*
X176558500Y-92452500D02*
X177696000Y-91315000D01*
X160926500Y-92452500D02*
X176558500Y-92452500D01*
X159789000Y-91315000D02*
X160926500Y-92452500D01*
X158651500Y-92452500D02*
X159789000Y-91315000D01*
X141882000Y-91315000D02*
X143019500Y-92452500D01*
X143019500Y-92452500D02*
X158651500Y-92452500D01*
X140744500Y-92452500D02*
X141882000Y-91315000D01*
X123975000Y-91315000D02*
X125112500Y-92452500D01*
X125112500Y-92452500D02*
X140744500Y-92452500D01*
X122837500Y-92452500D02*
X123975000Y-91315000D01*
X107286500Y-92452500D02*
X122837500Y-92452500D01*
X106149000Y-91315000D02*
X107286500Y-92452500D01*
X103644500Y-96761500D02*
X106149000Y-94257000D01*
X88941500Y-97510626D02*
X89690626Y-96761500D01*
X88941500Y-99101500D02*
X88941500Y-97510626D01*
X89690626Y-96761500D02*
X103644500Y-96761500D01*
X106149000Y-94257000D02*
X106149000Y-91315000D01*
X90424000Y-100584000D02*
X88941500Y-99101500D01*
X104746500Y-90177500D02*
X103609000Y-91315000D01*
X120297500Y-90177500D02*
X104746500Y-90177500D01*
X121435000Y-91315000D02*
X120297500Y-90177500D01*
X122572500Y-90177500D02*
X121435000Y-91315000D01*
X139342000Y-91315000D02*
X138204500Y-90177500D01*
X140479500Y-90177500D02*
X139342000Y-91315000D01*
X157249000Y-91315000D02*
X156111500Y-90177500D01*
X156111500Y-90177500D02*
X140479500Y-90177500D01*
X174018500Y-90177500D02*
X158386500Y-90177500D01*
X175156000Y-91315000D02*
X174018500Y-90177500D01*
X158386500Y-90177500D02*
X157249000Y-91315000D01*
X176293500Y-90177500D02*
X175156000Y-91315000D01*
X191925500Y-90177500D02*
X176293500Y-90177500D01*
X193063000Y-91315000D02*
X191925500Y-90177500D01*
X194200500Y-90177500D02*
X193063000Y-91315000D01*
X202064500Y-90177500D02*
X194200500Y-90177500D01*
X207391000Y-95504000D02*
X202064500Y-90177500D01*
X195735500Y-94992500D02*
X196873000Y-93855000D01*
X180103500Y-94992500D02*
X195735500Y-94992500D01*
X178966000Y-93855000D02*
X180103500Y-94992500D01*
X162196500Y-94992500D02*
X177828500Y-94992500D01*
X161059000Y-93855000D02*
X162196500Y-94992500D01*
X177828500Y-94992500D02*
X178966000Y-93855000D01*
X159921500Y-94992500D02*
X161059000Y-93855000D01*
X143152000Y-93855000D02*
X144289500Y-94992500D01*
X144289500Y-94992500D02*
X159921500Y-94992500D01*
X126382500Y-94992500D02*
X142014500Y-94992500D01*
X142014500Y-94992500D02*
X143152000Y-93855000D01*
X125245000Y-93855000D02*
X126382500Y-94992500D01*
X107419000Y-93855000D02*
X108556500Y-94992500D01*
X108556500Y-94992500D02*
X124107500Y-94992500D01*
X124107500Y-94992500D02*
X125245000Y-93855000D01*
X103230000Y-98044000D02*
X107419000Y-93855000D01*
X90424000Y-98044000D02*
X103230000Y-98044000D01*
G04 #@! TA.AperFunction,Conductor*
G36*
X210695562Y-74803605D02*
G01*
X210910373Y-74812490D01*
X211113249Y-74821348D01*
X211123120Y-74822177D01*
X211338510Y-74849026D01*
X211338963Y-74849084D01*
X211541504Y-74875749D01*
X211550718Y-74877319D01*
X211762797Y-74921787D01*
X211763827Y-74922009D01*
X211963566Y-74966290D01*
X211972092Y-74968502D01*
X212109957Y-75009546D01*
X212179503Y-75030251D01*
X212181407Y-75030835D01*
X212232925Y-75047078D01*
X212376404Y-75092316D01*
X212384119Y-75095034D01*
X212585754Y-75173712D01*
X212588027Y-75174626D01*
X212776987Y-75252896D01*
X212783965Y-75256043D01*
X212978405Y-75351098D01*
X212981080Y-75352449D01*
X213071300Y-75399415D01*
X213162482Y-75446882D01*
X213168698Y-75450348D01*
X213354533Y-75561081D01*
X213357685Y-75563024D01*
X213530116Y-75672875D01*
X213535545Y-75676538D01*
X213711570Y-75802218D01*
X213715002Y-75804759D01*
X213877219Y-75929232D01*
X213881874Y-75932985D01*
X214046920Y-76072771D01*
X214050552Y-76075972D01*
X214201327Y-76214132D01*
X214205235Y-76217873D01*
X214358125Y-76370763D01*
X214361866Y-76374671D01*
X214500026Y-76525446D01*
X214503227Y-76529078D01*
X214643013Y-76694124D01*
X214646766Y-76698779D01*
X214771239Y-76860996D01*
X214773780Y-76864428D01*
X214899460Y-77040453D01*
X214903123Y-77045882D01*
X215012974Y-77218313D01*
X215014917Y-77221465D01*
X215125650Y-77407300D01*
X215129116Y-77413516D01*
X215223534Y-77594889D01*
X215224946Y-77597686D01*
X215319942Y-77792004D01*
X215323102Y-77799011D01*
X215401351Y-77987920D01*
X215402307Y-77990298D01*
X215480949Y-78191838D01*
X215483693Y-78199627D01*
X215545163Y-78394591D01*
X215545747Y-78396495D01*
X215607494Y-78603898D01*
X215609710Y-78612441D01*
X215653949Y-78811987D01*
X215654249Y-78813380D01*
X215698675Y-79025260D01*
X215700253Y-79034521D01*
X215726887Y-79236829D01*
X215726996Y-79237676D01*
X215753818Y-79452849D01*
X215754652Y-79462778D01*
X215763512Y-79665701D01*
X215763524Y-79665986D01*
X215772394Y-79880438D01*
X215772500Y-79885562D01*
X215772500Y-102867438D01*
X215772394Y-102872562D01*
X215763524Y-103087013D01*
X215763512Y-103087298D01*
X215754652Y-103290220D01*
X215753818Y-103300149D01*
X215726996Y-103515322D01*
X215726887Y-103516169D01*
X215700253Y-103718477D01*
X215698675Y-103727738D01*
X215654249Y-103939618D01*
X215653949Y-103941011D01*
X215609710Y-104140557D01*
X215607494Y-104149100D01*
X215545747Y-104356503D01*
X215545163Y-104358407D01*
X215483693Y-104553371D01*
X215480949Y-104561160D01*
X215402307Y-104762700D01*
X215401351Y-104765078D01*
X215323102Y-104953987D01*
X215319942Y-104960994D01*
X215224946Y-105155312D01*
X215223534Y-105158109D01*
X215129116Y-105339482D01*
X215125650Y-105345698D01*
X215014917Y-105531533D01*
X215012974Y-105534685D01*
X214903123Y-105707116D01*
X214899460Y-105712545D01*
X214773780Y-105888570D01*
X214771239Y-105892002D01*
X214646766Y-106054219D01*
X214643013Y-106058874D01*
X214503227Y-106223920D01*
X214500026Y-106227552D01*
X214361866Y-106378327D01*
X214358125Y-106382235D01*
X214205235Y-106535125D01*
X214201327Y-106538866D01*
X214050552Y-106677026D01*
X214046920Y-106680227D01*
X213881874Y-106820013D01*
X213877219Y-106823766D01*
X213715002Y-106948239D01*
X213711570Y-106950780D01*
X213535545Y-107076460D01*
X213530116Y-107080123D01*
X213357685Y-107189974D01*
X213354533Y-107191917D01*
X213168698Y-107302650D01*
X213162482Y-107306116D01*
X212981109Y-107400534D01*
X212978312Y-107401946D01*
X212783994Y-107496942D01*
X212776987Y-107500102D01*
X212588078Y-107578351D01*
X212585700Y-107579307D01*
X212384160Y-107657949D01*
X212376371Y-107660693D01*
X212181407Y-107722163D01*
X212179503Y-107722747D01*
X211972100Y-107784494D01*
X211963557Y-107786710D01*
X211764011Y-107830949D01*
X211762618Y-107831249D01*
X211550738Y-107875675D01*
X211541477Y-107877253D01*
X211339169Y-107903887D01*
X211338322Y-107903996D01*
X211123149Y-107930818D01*
X211113220Y-107931652D01*
X210910408Y-107940507D01*
X210910124Y-107940519D01*
X210695563Y-107949394D01*
X210690438Y-107949500D01*
X208718380Y-107949500D01*
X208658118Y-107933872D01*
X208613046Y-107890927D01*
X208594525Y-107831490D01*
X208607223Y-107770544D01*
X208647941Y-107723450D01*
X208678287Y-107702502D01*
X208694579Y-107691258D01*
X208733718Y-107647076D01*
X208738820Y-107641657D01*
X211650995Y-104729482D01*
X211656414Y-104724380D01*
X211700596Y-104685241D01*
X211734134Y-104636651D01*
X211738528Y-104630678D01*
X211774939Y-104584205D01*
X211778938Y-104575318D01*
X211789965Y-104555766D01*
X211795506Y-104547740D01*
X211816435Y-104492552D01*
X211819297Y-104485644D01*
X211820038Y-104483999D01*
X211843510Y-104431847D01*
X211845266Y-104422260D01*
X211851295Y-104400632D01*
X211854752Y-104391520D01*
X211861864Y-104332932D01*
X211862984Y-104325577D01*
X211873627Y-104267508D01*
X211870064Y-104208611D01*
X211869838Y-104201124D01*
X211869838Y-94239382D01*
X211870064Y-94231895D01*
X211870353Y-94227115D01*
X211873627Y-94172992D01*
X211862982Y-94114907D01*
X211861865Y-94107561D01*
X211854752Y-94048980D01*
X211851294Y-94039864D01*
X211845270Y-94018253D01*
X211843511Y-94008653D01*
X211819290Y-93954839D01*
X211816430Y-93947935D01*
X211795506Y-93892760D01*
X211789965Y-93884732D01*
X211778941Y-93865185D01*
X211774941Y-93856298D01*
X211774940Y-93856297D01*
X211774940Y-93856296D01*
X211738552Y-93809850D01*
X211734113Y-93803817D01*
X211702924Y-93758632D01*
X211700596Y-93755259D01*
X211656417Y-93716120D01*
X211650979Y-93711000D01*
X208941361Y-91001382D01*
X208908718Y-90943671D01*
X208910476Y-90877394D01*
X208960583Y-90713780D01*
X208990216Y-90482376D01*
X208980314Y-90249293D01*
X208931164Y-90021235D01*
X208844179Y-89804765D01*
X208721862Y-89606109D01*
X208567731Y-89430982D01*
X208561259Y-89425756D01*
X208386221Y-89284421D01*
X208345897Y-89261895D01*
X208300782Y-89218655D01*
X208282484Y-89158904D01*
X208295649Y-89097816D01*
X208336933Y-89050909D01*
X208480088Y-88954153D01*
X208648516Y-88792728D01*
X208787240Y-88605161D01*
X208892270Y-88396847D01*
X208960583Y-88173780D01*
X208990216Y-87942376D01*
X208980314Y-87709293D01*
X208931164Y-87481235D01*
X208844179Y-87264765D01*
X208721862Y-87066109D01*
X208567731Y-86890982D01*
X208527768Y-86858714D01*
X208489436Y-86805437D01*
X208483668Y-86740058D01*
X208512079Y-86680892D01*
X208544745Y-86659141D01*
X208542787Y-86655966D01*
X208704345Y-86556316D01*
X208828316Y-86432345D01*
X208920357Y-86283122D01*
X208975506Y-86116696D01*
X208986000Y-86013979D01*
X208986000Y-85594000D01*
X205796001Y-85594000D01*
X205796001Y-86013979D01*
X205806493Y-86116695D01*
X205861642Y-86283122D01*
X205953683Y-86432345D01*
X206077654Y-86556316D01*
X206239213Y-86655966D01*
X206237425Y-86658864D01*
X206268361Y-86679007D01*
X206297449Y-86734979D01*
X206295237Y-86798020D01*
X206262296Y-86851815D01*
X206133483Y-86975271D01*
X205994760Y-87162838D01*
X205889730Y-87371152D01*
X205821417Y-87594219D01*
X205791784Y-87825627D01*
X205801685Y-88058704D01*
X205850836Y-88286767D01*
X205932729Y-88490563D01*
X205937821Y-88503235D01*
X206060138Y-88701891D01*
X206207402Y-88869216D01*
X206214270Y-88877019D01*
X206395776Y-89023576D01*
X206436101Y-89046103D01*
X206481217Y-89089343D01*
X206499515Y-89149094D01*
X206486350Y-89210182D01*
X206445064Y-89257092D01*
X206301912Y-89353846D01*
X206133483Y-89515272D01*
X205994760Y-89702838D01*
X205889730Y-89911152D01*
X205821417Y-90134219D01*
X205791784Y-90365627D01*
X205801685Y-90598704D01*
X205850836Y-90826767D01*
X205937819Y-91043231D01*
X205937821Y-91043235D01*
X206027572Y-91189000D01*
X206060139Y-91241892D01*
X206214270Y-91417019D01*
X206395776Y-91563576D01*
X206436101Y-91586103D01*
X206481217Y-91629343D01*
X206499515Y-91689094D01*
X206486350Y-91750182D01*
X206445064Y-91797092D01*
X206301912Y-91893846D01*
X206133483Y-92055272D01*
X205994760Y-92242838D01*
X205889730Y-92451152D01*
X205821414Y-92674228D01*
X205820891Y-92678316D01*
X205818360Y-92684202D01*
X205818327Y-92684311D01*
X205818315Y-92684307D01*
X205793954Y-92740972D01*
X205737959Y-92779906D01*
X205669844Y-92783341D01*
X205610216Y-92750237D01*
X202568344Y-89708365D01*
X202563210Y-89702912D01*
X202562342Y-89701932D01*
X202524079Y-89658742D01*
X202475508Y-89625215D01*
X202469484Y-89620783D01*
X202423043Y-89584399D01*
X202414149Y-89580395D01*
X202394609Y-89569375D01*
X202386577Y-89563831D01*
X202331401Y-89542905D01*
X202324484Y-89540040D01*
X202270683Y-89515826D01*
X202261087Y-89514068D01*
X202239474Y-89508043D01*
X202230358Y-89504586D01*
X202171791Y-89497474D01*
X202164388Y-89496347D01*
X202106347Y-89485711D01*
X202106346Y-89485711D01*
X202073068Y-89487724D01*
X202047449Y-89489274D01*
X202039962Y-89489500D01*
X194225038Y-89489500D01*
X194217551Y-89489274D01*
X194158651Y-89485710D01*
X194100609Y-89496347D01*
X194093208Y-89497474D01*
X194034638Y-89504586D01*
X194025521Y-89508044D01*
X194003912Y-89514068D01*
X193994315Y-89515826D01*
X193940520Y-89540038D01*
X193933604Y-89542903D01*
X193878418Y-89563833D01*
X193870385Y-89569378D01*
X193850850Y-89580396D01*
X193841956Y-89584399D01*
X193795513Y-89620783D01*
X193789486Y-89625218D01*
X193740918Y-89658743D01*
X193701787Y-89702912D01*
X193696655Y-89708364D01*
X193363473Y-90041546D01*
X193318203Y-90070387D01*
X193264985Y-90077393D01*
X193062999Y-90059722D01*
X192861013Y-90077393D01*
X192807795Y-90070387D01*
X192762525Y-90041546D01*
X192429344Y-89708365D01*
X192424210Y-89702912D01*
X192423342Y-89701932D01*
X192385079Y-89658742D01*
X192336508Y-89625215D01*
X192330484Y-89620783D01*
X192284043Y-89584399D01*
X192275149Y-89580395D01*
X192255609Y-89569375D01*
X192247577Y-89563831D01*
X192192401Y-89542905D01*
X192185484Y-89540040D01*
X192131683Y-89515826D01*
X192122087Y-89514068D01*
X192100474Y-89508043D01*
X192091358Y-89504586D01*
X192032791Y-89497474D01*
X192025388Y-89496347D01*
X191967347Y-89485711D01*
X191967346Y-89485711D01*
X191934068Y-89487724D01*
X191908449Y-89489274D01*
X191900962Y-89489500D01*
X190627690Y-89489500D01*
X190561980Y-89470658D01*
X190516240Y-89419858D01*
X190504369Y-89352539D01*
X190511528Y-89284422D01*
X190516460Y-89237500D01*
X190496674Y-89049244D01*
X190450270Y-88906429D01*
X190438179Y-88869215D01*
X190343533Y-88705283D01*
X190216870Y-88564610D01*
X190063730Y-88453348D01*
X189890802Y-88376355D01*
X189705648Y-88337000D01*
X189705646Y-88337000D01*
X189516354Y-88337000D01*
X189516352Y-88337000D01*
X189331197Y-88376355D01*
X189158272Y-88453347D01*
X189058525Y-88525818D01*
X189023957Y-88543431D01*
X188985639Y-88549500D01*
X188028861Y-88549500D01*
X187990543Y-88543431D01*
X187955975Y-88525818D01*
X187907446Y-88490560D01*
X187856230Y-88453349D01*
X187856229Y-88453348D01*
X187856227Y-88453347D01*
X187683302Y-88376355D01*
X187498148Y-88337000D01*
X187498146Y-88337000D01*
X187308854Y-88337000D01*
X187308852Y-88337000D01*
X187123697Y-88376355D01*
X186950769Y-88453348D01*
X186797629Y-88564610D01*
X186670966Y-88705283D01*
X186576320Y-88869215D01*
X186517826Y-89049242D01*
X186505066Y-89170646D01*
X186498040Y-89237500D01*
X186502971Y-89284421D01*
X186510131Y-89352539D01*
X186498260Y-89419858D01*
X186452520Y-89470658D01*
X186386810Y-89489500D01*
X176318038Y-89489500D01*
X176310551Y-89489274D01*
X176251651Y-89485710D01*
X176193609Y-89496347D01*
X176186208Y-89497474D01*
X176127638Y-89504586D01*
X176118521Y-89508044D01*
X176096912Y-89514068D01*
X176087315Y-89515826D01*
X176033520Y-89540038D01*
X176026604Y-89542903D01*
X175971418Y-89563833D01*
X175963385Y-89569378D01*
X175943850Y-89580396D01*
X175934956Y-89584399D01*
X175888513Y-89620783D01*
X175882486Y-89625218D01*
X175833918Y-89658743D01*
X175794787Y-89702912D01*
X175789655Y-89708364D01*
X175456473Y-90041546D01*
X175411203Y-90070387D01*
X175357985Y-90077393D01*
X175155999Y-90059722D01*
X174954013Y-90077393D01*
X174900795Y-90070387D01*
X174855525Y-90041546D01*
X174522344Y-89708365D01*
X174517210Y-89702912D01*
X174516342Y-89701932D01*
X174478079Y-89658742D01*
X174429508Y-89625215D01*
X174423484Y-89620783D01*
X174377043Y-89584399D01*
X174368149Y-89580395D01*
X174348609Y-89569375D01*
X174340577Y-89563831D01*
X174285401Y-89542905D01*
X174278484Y-89540040D01*
X174224683Y-89515826D01*
X174215087Y-89514068D01*
X174193474Y-89508043D01*
X174184358Y-89504586D01*
X174125791Y-89497474D01*
X174118388Y-89496347D01*
X174060347Y-89485711D01*
X174060346Y-89485711D01*
X174027068Y-89487724D01*
X174001449Y-89489274D01*
X173993962Y-89489500D01*
X172712190Y-89489500D01*
X172646480Y-89470658D01*
X172600740Y-89419858D01*
X172588869Y-89352539D01*
X172596028Y-89284422D01*
X172600960Y-89237500D01*
X172581174Y-89049244D01*
X172534770Y-88906429D01*
X172522679Y-88869215D01*
X172428033Y-88705283D01*
X172301370Y-88564610D01*
X172148230Y-88453348D01*
X171975302Y-88376355D01*
X171790148Y-88337000D01*
X171790146Y-88337000D01*
X171600854Y-88337000D01*
X171600852Y-88337000D01*
X171415697Y-88376355D01*
X171242772Y-88453347D01*
X171143025Y-88525818D01*
X171108457Y-88543431D01*
X171070139Y-88549500D01*
X170121861Y-88549500D01*
X170083543Y-88543431D01*
X170048975Y-88525818D01*
X170000446Y-88490560D01*
X169949230Y-88453349D01*
X169949229Y-88453348D01*
X169949227Y-88453347D01*
X169776302Y-88376355D01*
X169591148Y-88337000D01*
X169591146Y-88337000D01*
X169401854Y-88337000D01*
X169401852Y-88337000D01*
X169216697Y-88376355D01*
X169043769Y-88453348D01*
X168890629Y-88564610D01*
X168763966Y-88705283D01*
X168669320Y-88869215D01*
X168610826Y-89049242D01*
X168598066Y-89170646D01*
X168591040Y-89237500D01*
X168595971Y-89284421D01*
X168603131Y-89352539D01*
X168591260Y-89419858D01*
X168545520Y-89470658D01*
X168479810Y-89489500D01*
X158411038Y-89489500D01*
X158403551Y-89489274D01*
X158344651Y-89485710D01*
X158286609Y-89496347D01*
X158279208Y-89497474D01*
X158220638Y-89504586D01*
X158211521Y-89508044D01*
X158189912Y-89514068D01*
X158180315Y-89515826D01*
X158126520Y-89540038D01*
X158119604Y-89542903D01*
X158064418Y-89563833D01*
X158056385Y-89569378D01*
X158036850Y-89580396D01*
X158027956Y-89584399D01*
X157981513Y-89620783D01*
X157975486Y-89625218D01*
X157926918Y-89658743D01*
X157887787Y-89702912D01*
X157882655Y-89708364D01*
X157549473Y-90041546D01*
X157504203Y-90070387D01*
X157450985Y-90077393D01*
X157248999Y-90059722D01*
X157047013Y-90077393D01*
X156993795Y-90070387D01*
X156948525Y-90041546D01*
X156615344Y-89708365D01*
X156610210Y-89702912D01*
X156609342Y-89701932D01*
X156571079Y-89658742D01*
X156522508Y-89625215D01*
X156516484Y-89620783D01*
X156470043Y-89584399D01*
X156461149Y-89580395D01*
X156441609Y-89569375D01*
X156433577Y-89563831D01*
X156378401Y-89542905D01*
X156371484Y-89540040D01*
X156317683Y-89515826D01*
X156308087Y-89514068D01*
X156286474Y-89508043D01*
X156277358Y-89504586D01*
X156218791Y-89497474D01*
X156211388Y-89496347D01*
X156153347Y-89485711D01*
X156153346Y-89485711D01*
X156120068Y-89487724D01*
X156094449Y-89489274D01*
X156086962Y-89489500D01*
X155125379Y-89489500D01*
X155059669Y-89470658D01*
X155013929Y-89419858D01*
X155002058Y-89352539D01*
X155009217Y-89284422D01*
X155014149Y-89237500D01*
X154994363Y-89049244D01*
X154947959Y-88906429D01*
X154935868Y-88869215D01*
X154841222Y-88705283D01*
X154714559Y-88564610D01*
X154561419Y-88453348D01*
X154388491Y-88376355D01*
X154203337Y-88337000D01*
X154203335Y-88337000D01*
X154014043Y-88337000D01*
X154014041Y-88337000D01*
X153828886Y-88376355D01*
X153655961Y-88453347D01*
X153549887Y-88530415D01*
X153515319Y-88548028D01*
X153477001Y-88554097D01*
X152214861Y-88554097D01*
X152176543Y-88548028D01*
X152141975Y-88530415D01*
X152104559Y-88503231D01*
X152042230Y-88457946D01*
X152042229Y-88457945D01*
X152042227Y-88457944D01*
X151869302Y-88380952D01*
X151684148Y-88341597D01*
X151684146Y-88341597D01*
X151494854Y-88341597D01*
X151494852Y-88341597D01*
X151309697Y-88380952D01*
X151136769Y-88457945D01*
X150983629Y-88569207D01*
X150856966Y-88709880D01*
X150762320Y-88873812D01*
X150703826Y-89053839D01*
X150703825Y-89053841D01*
X150703826Y-89053841D01*
X150684040Y-89242097D01*
X150688488Y-89284422D01*
X150695648Y-89352539D01*
X150683777Y-89419858D01*
X150638037Y-89470658D01*
X150572327Y-89489500D01*
X140504038Y-89489500D01*
X140496551Y-89489274D01*
X140437651Y-89485710D01*
X140379609Y-89496347D01*
X140372208Y-89497474D01*
X140313638Y-89504586D01*
X140304521Y-89508044D01*
X140282912Y-89514068D01*
X140273315Y-89515826D01*
X140219520Y-89540038D01*
X140212604Y-89542903D01*
X140157418Y-89563833D01*
X140149385Y-89569378D01*
X140129850Y-89580396D01*
X140120956Y-89584399D01*
X140074513Y-89620783D01*
X140068486Y-89625218D01*
X140019918Y-89658743D01*
X139980787Y-89702912D01*
X139975655Y-89708364D01*
X139642473Y-90041546D01*
X139597203Y-90070387D01*
X139543985Y-90077393D01*
X139341999Y-90059722D01*
X139140013Y-90077393D01*
X139086795Y-90070387D01*
X139041525Y-90041546D01*
X138708344Y-89708365D01*
X138703210Y-89702912D01*
X138702342Y-89701932D01*
X138664079Y-89658742D01*
X138615508Y-89625215D01*
X138609484Y-89620783D01*
X138563043Y-89584399D01*
X138554149Y-89580395D01*
X138534609Y-89569375D01*
X138526577Y-89563831D01*
X138471401Y-89542905D01*
X138464484Y-89540040D01*
X138410683Y-89515826D01*
X138401087Y-89514068D01*
X138379474Y-89508043D01*
X138370358Y-89504586D01*
X138311791Y-89497474D01*
X138304388Y-89496347D01*
X138246347Y-89485711D01*
X138246346Y-89485711D01*
X138213068Y-89487724D01*
X138187449Y-89489274D01*
X138179962Y-89489500D01*
X137201815Y-89489500D01*
X137136105Y-89470658D01*
X137090365Y-89419858D01*
X137078494Y-89352539D01*
X137086674Y-89274714D01*
X137066888Y-89086458D01*
X137008393Y-88906430D01*
X137008393Y-88906429D01*
X136913747Y-88742497D01*
X136787084Y-88601824D01*
X136633944Y-88490562D01*
X136461016Y-88413569D01*
X136275862Y-88374214D01*
X136275860Y-88374214D01*
X136086568Y-88374214D01*
X136086566Y-88374214D01*
X135901411Y-88413569D01*
X135728486Y-88490560D01*
X135679960Y-88525818D01*
X135645392Y-88543431D01*
X135607074Y-88549500D01*
X134274361Y-88549500D01*
X134236043Y-88543431D01*
X134201475Y-88525818D01*
X134152946Y-88490560D01*
X134101730Y-88453349D01*
X134101729Y-88453348D01*
X134101727Y-88453347D01*
X133928802Y-88376355D01*
X133743648Y-88337000D01*
X133743646Y-88337000D01*
X133554354Y-88337000D01*
X133554352Y-88337000D01*
X133369197Y-88376355D01*
X133196269Y-88453348D01*
X133043129Y-88564610D01*
X132916466Y-88705283D01*
X132821820Y-88869215D01*
X132763326Y-89049242D01*
X132750566Y-89170646D01*
X132743540Y-89237500D01*
X132748471Y-89284421D01*
X132755631Y-89352539D01*
X132743760Y-89419858D01*
X132698020Y-89470658D01*
X132632310Y-89489500D01*
X122597038Y-89489500D01*
X122589551Y-89489274D01*
X122530651Y-89485710D01*
X122472609Y-89496347D01*
X122465208Y-89497474D01*
X122406638Y-89504586D01*
X122397521Y-89508044D01*
X122375912Y-89514068D01*
X122366315Y-89515826D01*
X122312520Y-89540038D01*
X122305604Y-89542903D01*
X122250418Y-89563833D01*
X122242385Y-89569378D01*
X122222850Y-89580396D01*
X122213956Y-89584399D01*
X122167513Y-89620783D01*
X122161486Y-89625218D01*
X122112918Y-89658743D01*
X122073787Y-89702912D01*
X122068655Y-89708364D01*
X121735473Y-90041546D01*
X121690203Y-90070387D01*
X121636985Y-90077393D01*
X121434999Y-90059722D01*
X121233013Y-90077393D01*
X121179795Y-90070387D01*
X121134525Y-90041546D01*
X120801344Y-89708365D01*
X120796210Y-89702912D01*
X120795342Y-89701932D01*
X120757079Y-89658742D01*
X120708508Y-89625215D01*
X120702484Y-89620783D01*
X120656043Y-89584399D01*
X120647149Y-89580395D01*
X120627609Y-89569375D01*
X120619577Y-89563831D01*
X120564401Y-89542905D01*
X120557484Y-89540040D01*
X120503683Y-89515826D01*
X120494087Y-89514068D01*
X120472474Y-89508043D01*
X120463358Y-89504586D01*
X120404791Y-89497474D01*
X120397388Y-89496347D01*
X120339347Y-89485711D01*
X120339346Y-89485711D01*
X120306068Y-89487724D01*
X120280449Y-89489274D01*
X120272962Y-89489500D01*
X119078655Y-89489500D01*
X119012945Y-89470658D01*
X118967205Y-89419858D01*
X118955334Y-89352539D01*
X118962493Y-89284422D01*
X118967425Y-89237500D01*
X118947639Y-89049244D01*
X118901235Y-88906429D01*
X118889144Y-88869215D01*
X118794498Y-88705283D01*
X118667835Y-88564610D01*
X118514695Y-88453348D01*
X118341767Y-88376355D01*
X118156613Y-88337000D01*
X118156611Y-88337000D01*
X117967319Y-88337000D01*
X117967317Y-88337000D01*
X117782162Y-88376355D01*
X117609237Y-88453347D01*
X117509490Y-88525818D01*
X117474922Y-88543431D01*
X117436604Y-88549500D01*
X116111861Y-88549500D01*
X116073543Y-88543431D01*
X116038975Y-88525818D01*
X115990446Y-88490560D01*
X115939230Y-88453349D01*
X115939229Y-88453348D01*
X115939227Y-88453347D01*
X115766302Y-88376355D01*
X115581148Y-88337000D01*
X115581146Y-88337000D01*
X115391854Y-88337000D01*
X115391852Y-88337000D01*
X115206697Y-88376355D01*
X115033769Y-88453348D01*
X114880629Y-88564610D01*
X114753966Y-88705283D01*
X114659320Y-88869215D01*
X114600826Y-89049242D01*
X114588066Y-89170646D01*
X114581040Y-89237500D01*
X114585971Y-89284421D01*
X114593131Y-89352539D01*
X114581260Y-89419858D01*
X114535520Y-89470658D01*
X114469810Y-89489500D01*
X104771038Y-89489500D01*
X104763551Y-89489274D01*
X104704651Y-89485710D01*
X104646609Y-89496347D01*
X104639208Y-89497474D01*
X104580638Y-89504586D01*
X104571521Y-89508044D01*
X104549912Y-89514068D01*
X104540315Y-89515826D01*
X104486520Y-89540038D01*
X104479604Y-89542903D01*
X104424418Y-89563833D01*
X104416385Y-89569378D01*
X104396850Y-89580396D01*
X104387956Y-89584399D01*
X104341513Y-89620783D01*
X104335486Y-89625218D01*
X104286918Y-89658743D01*
X104247787Y-89702912D01*
X104242655Y-89708364D01*
X103909473Y-90041546D01*
X103864203Y-90070387D01*
X103810985Y-90077393D01*
X103608999Y-90059722D01*
X103407013Y-90077393D01*
X103353795Y-90070387D01*
X103308525Y-90041546D01*
X102975344Y-89708365D01*
X102970210Y-89702912D01*
X102969342Y-89701932D01*
X102931079Y-89658742D01*
X102882508Y-89625215D01*
X102876484Y-89620783D01*
X102830043Y-89584399D01*
X102821149Y-89580395D01*
X102801609Y-89569375D01*
X102793577Y-89563831D01*
X102738401Y-89542905D01*
X102731484Y-89540040D01*
X102677683Y-89515826D01*
X102668087Y-89514068D01*
X102646474Y-89508043D01*
X102637358Y-89504586D01*
X102578791Y-89497474D01*
X102571388Y-89496347D01*
X102513347Y-89485711D01*
X102513346Y-89485711D01*
X102480068Y-89487724D01*
X102454449Y-89489274D01*
X102446962Y-89489500D01*
X95775044Y-89489500D01*
X95767557Y-89489274D01*
X95708651Y-89485710D01*
X95650610Y-89496346D01*
X95643211Y-89497472D01*
X95584641Y-89504585D01*
X95575517Y-89508045D01*
X95553916Y-89514066D01*
X95544315Y-89515826D01*
X95490501Y-89540045D01*
X95483585Y-89542910D01*
X95428423Y-89563831D01*
X95420391Y-89569375D01*
X95400851Y-89580394D01*
X95396771Y-89582231D01*
X95391953Y-89584400D01*
X95345505Y-89620789D01*
X95339476Y-89625226D01*
X95290917Y-89658744D01*
X95251787Y-89702912D01*
X95246655Y-89708364D01*
X92201282Y-92753737D01*
X92144209Y-92786219D01*
X92078551Y-92784999D01*
X92022724Y-92750420D01*
X91992385Y-92692182D01*
X91964164Y-92561235D01*
X91962778Y-92557787D01*
X91877180Y-92344768D01*
X91877179Y-92344765D01*
X91754862Y-92146109D01*
X91600731Y-91970982D01*
X91600729Y-91970980D01*
X91419221Y-91824421D01*
X91378897Y-91801895D01*
X91333782Y-91758655D01*
X91315484Y-91698904D01*
X91328649Y-91637816D01*
X91369933Y-91590909D01*
X91513088Y-91494153D01*
X91681516Y-91332728D01*
X91820240Y-91145161D01*
X91925270Y-90936847D01*
X91993583Y-90713780D01*
X92023216Y-90482376D01*
X92013314Y-90249293D01*
X91964164Y-90021235D01*
X91877179Y-89804765D01*
X91754862Y-89606109D01*
X91600731Y-89430982D01*
X91594259Y-89425756D01*
X91419221Y-89284421D01*
X91378897Y-89261895D01*
X91333782Y-89218655D01*
X91315484Y-89158904D01*
X91328649Y-89097816D01*
X91369933Y-89050909D01*
X91513088Y-88954153D01*
X91681516Y-88792728D01*
X91820240Y-88605161D01*
X91925270Y-88396847D01*
X91993583Y-88173780D01*
X92023216Y-87942376D01*
X92013314Y-87709293D01*
X91964164Y-87481235D01*
X91877179Y-87264765D01*
X91754862Y-87066109D01*
X91600731Y-86890982D01*
X91600729Y-86890980D01*
X91419221Y-86744421D01*
X91378408Y-86721622D01*
X91333293Y-86678383D01*
X91314995Y-86618631D01*
X91328160Y-86557543D01*
X91369447Y-86510633D01*
X91512773Y-86413761D01*
X91681139Y-86252396D01*
X91819812Y-86064898D01*
X91924803Y-85856660D01*
X91993092Y-85633673D01*
X91998173Y-85594000D01*
X88851425Y-85594000D01*
X88884317Y-85746621D01*
X88971267Y-85963005D01*
X89093543Y-86161594D01*
X89247618Y-86336657D01*
X89429057Y-86483160D01*
X89469565Y-86505789D01*
X89514680Y-86549029D01*
X89532979Y-86608780D01*
X89519814Y-86669868D01*
X89478529Y-86716778D01*
X89334910Y-86813848D01*
X89166483Y-86975272D01*
X89027760Y-87162838D01*
X88922730Y-87371152D01*
X88854417Y-87594219D01*
X88824784Y-87825627D01*
X88834685Y-88058704D01*
X88883836Y-88286767D01*
X88965729Y-88490563D01*
X88970821Y-88503235D01*
X89093138Y-88701891D01*
X89240402Y-88869216D01*
X89247270Y-88877019D01*
X89428776Y-89023576D01*
X89469101Y-89046103D01*
X89514217Y-89089343D01*
X89532515Y-89149094D01*
X89519350Y-89210182D01*
X89478064Y-89257092D01*
X89334912Y-89353846D01*
X89166483Y-89515272D01*
X89027760Y-89702838D01*
X88922730Y-89911152D01*
X88854417Y-90134219D01*
X88824784Y-90365627D01*
X88834685Y-90598704D01*
X88834686Y-90598707D01*
X88883836Y-90826765D01*
X88900428Y-90868057D01*
X88909366Y-90915166D01*
X88899761Y-90962146D01*
X88873050Y-91001969D01*
X87322364Y-92552655D01*
X87316912Y-92557787D01*
X87272743Y-92596918D01*
X87239218Y-92645486D01*
X87234783Y-92651513D01*
X87198399Y-92697956D01*
X87194396Y-92706850D01*
X87183378Y-92726385D01*
X87177833Y-92734418D01*
X87156903Y-92789604D01*
X87154038Y-92796520D01*
X87129826Y-92850315D01*
X87128068Y-92859912D01*
X87122044Y-92881521D01*
X87118586Y-92890638D01*
X87111474Y-92949208D01*
X87110347Y-92956609D01*
X87099710Y-93014651D01*
X87103274Y-93073551D01*
X87103500Y-93081038D01*
X87103500Y-103693134D01*
X87103274Y-103700621D01*
X87099711Y-103759519D01*
X87110347Y-103817560D01*
X87111474Y-103824963D01*
X87118586Y-103883530D01*
X87122043Y-103892646D01*
X87128068Y-103914259D01*
X87129826Y-103923855D01*
X87154040Y-103977656D01*
X87156905Y-103984573D01*
X87177831Y-104039749D01*
X87183375Y-104047781D01*
X87194395Y-104067321D01*
X87198399Y-104076215D01*
X87234786Y-104122661D01*
X87239215Y-104128680D01*
X87272742Y-104177251D01*
X87312706Y-104212656D01*
X87316912Y-104216382D01*
X87322365Y-104221516D01*
X90234490Y-107133641D01*
X90239610Y-107139079D01*
X90278749Y-107183258D01*
X90327313Y-107216779D01*
X90333329Y-107221205D01*
X90379785Y-107257601D01*
X90388675Y-107261602D01*
X90408221Y-107272626D01*
X90416250Y-107278168D01*
X90471431Y-107299095D01*
X90478331Y-107301953D01*
X90532143Y-107326172D01*
X90541730Y-107327928D01*
X90563349Y-107333954D01*
X90572470Y-107337414D01*
X90631056Y-107344526D01*
X90638416Y-107345647D01*
X90696482Y-107356289D01*
X90752901Y-107352875D01*
X90755379Y-107352726D01*
X90762866Y-107352500D01*
X139436962Y-107352500D01*
X139444449Y-107352726D01*
X139447069Y-107352884D01*
X139503346Y-107356289D01*
X139561415Y-107345646D01*
X139568770Y-107344526D01*
X139627358Y-107337414D01*
X139636470Y-107333957D01*
X139658098Y-107327928D01*
X139667685Y-107326172D01*
X139721491Y-107301954D01*
X139728396Y-107299095D01*
X139783578Y-107278168D01*
X139791607Y-107272626D01*
X139811157Y-107261600D01*
X139820043Y-107257601D01*
X139866516Y-107221190D01*
X139872489Y-107216796D01*
X139921079Y-107183258D01*
X139960218Y-107139076D01*
X139965320Y-107133657D01*
X141005888Y-106093089D01*
X141061478Y-106060996D01*
X141113385Y-106060998D01*
X141113500Y-106059690D01*
X141351000Y-106080468D01*
X141588500Y-106059690D01*
X141588614Y-106060999D01*
X141640517Y-106060995D01*
X141696112Y-106093091D01*
X143244662Y-107641641D01*
X143249782Y-107647079D01*
X143273879Y-107674279D01*
X143288922Y-107691259D01*
X143335559Y-107723450D01*
X143376276Y-107770544D01*
X143388974Y-107831491D01*
X143370453Y-107890927D01*
X143325381Y-107933872D01*
X143265119Y-107949500D01*
X88648562Y-107949500D01*
X88643437Y-107949394D01*
X88428874Y-107940519D01*
X88428590Y-107940507D01*
X88225778Y-107931652D01*
X88215849Y-107930818D01*
X88000676Y-107903996D01*
X87999829Y-107903887D01*
X87797521Y-107877253D01*
X87788260Y-107875675D01*
X87576380Y-107831249D01*
X87574987Y-107830949D01*
X87375441Y-107786710D01*
X87366898Y-107784494D01*
X87159495Y-107722747D01*
X87157591Y-107722163D01*
X86962627Y-107660693D01*
X86954845Y-107657951D01*
X86824255Y-107606995D01*
X86753298Y-107579307D01*
X86750920Y-107578351D01*
X86562011Y-107500102D01*
X86555004Y-107496942D01*
X86360657Y-107401931D01*
X86357889Y-107400534D01*
X86176516Y-107306116D01*
X86170300Y-107302650D01*
X85984465Y-107191917D01*
X85981313Y-107189974D01*
X85808882Y-107080123D01*
X85803453Y-107076460D01*
X85627428Y-106950780D01*
X85623996Y-106948239D01*
X85461779Y-106823766D01*
X85457124Y-106820013D01*
X85292078Y-106680227D01*
X85288446Y-106677026D01*
X85137671Y-106538866D01*
X85133763Y-106535125D01*
X84980873Y-106382235D01*
X84977132Y-106378327D01*
X84838972Y-106227552D01*
X84835771Y-106223920D01*
X84695985Y-106058874D01*
X84692232Y-106054219D01*
X84567759Y-105892002D01*
X84565218Y-105888570D01*
X84439538Y-105712545D01*
X84435875Y-105707116D01*
X84326024Y-105534685D01*
X84324081Y-105531533D01*
X84213348Y-105345698D01*
X84209882Y-105339482D01*
X84162415Y-105248300D01*
X84115449Y-105158080D01*
X84114098Y-105155405D01*
X84019043Y-104960965D01*
X84015896Y-104953987D01*
X84012927Y-104946819D01*
X83937626Y-104765027D01*
X83936712Y-104762754D01*
X83858034Y-104561119D01*
X83855316Y-104553404D01*
X83810078Y-104409925D01*
X83793835Y-104358407D01*
X83793251Y-104356503D01*
X83749221Y-104208611D01*
X83731502Y-104149092D01*
X83729288Y-104140557D01*
X83685009Y-103940827D01*
X83684787Y-103939797D01*
X83640319Y-103727718D01*
X83638749Y-103718504D01*
X83612084Y-103515963D01*
X83612026Y-103515510D01*
X83585177Y-103300120D01*
X83584348Y-103290249D01*
X83575487Y-103087298D01*
X83566605Y-102872562D01*
X83566500Y-102867439D01*
X83566500Y-85094000D01*
X88849827Y-85094000D01*
X90174000Y-85094000D01*
X90174000Y-83974000D01*
X90674000Y-83974000D01*
X90674000Y-85094000D01*
X91996575Y-85094000D01*
X91963682Y-84941378D01*
X91876732Y-84724994D01*
X91754456Y-84526405D01*
X91600381Y-84351342D01*
X91418942Y-84204839D01*
X91215344Y-84091103D01*
X90995455Y-84013411D01*
X90765606Y-83974000D01*
X90674000Y-83974000D01*
X90174000Y-83974000D01*
X90140802Y-83974000D01*
X89966635Y-83988823D01*
X89740945Y-84047589D01*
X89528442Y-84143646D01*
X89335227Y-84274236D01*
X89166860Y-84435603D01*
X89028187Y-84623101D01*
X88923196Y-84831339D01*
X88854907Y-85054326D01*
X88849827Y-85094000D01*
X83566500Y-85094000D01*
X83566500Y-83495115D01*
X95247436Y-83495115D01*
X95389958Y-83601806D01*
X95641047Y-83738911D01*
X95909097Y-83838888D01*
X96188642Y-83899699D01*
X96473999Y-83920109D01*
X96755852Y-83899950D01*
X96819511Y-83912406D01*
X96868170Y-83955301D01*
X96888515Y-84016894D01*
X96874976Y-84080332D01*
X96798272Y-84229521D01*
X96709629Y-84489352D01*
X96659763Y-84759325D01*
X96649737Y-85033678D01*
X96679763Y-85306569D01*
X96679764Y-85306571D01*
X96749204Y-85572182D01*
X96856576Y-85824851D01*
X96856577Y-85824852D01*
X96940890Y-85963005D01*
X96999595Y-86059196D01*
X97175209Y-86270218D01*
X97379677Y-86453423D01*
X97608641Y-86604904D01*
X97857221Y-86721433D01*
X98120119Y-86800527D01*
X98391731Y-86840500D01*
X98597547Y-86840500D01*
X98597551Y-86840500D01*
X98802805Y-86825477D01*
X98855009Y-86813848D01*
X99070775Y-86765784D01*
X99327198Y-86667711D01*
X99566609Y-86533347D01*
X99783904Y-86365557D01*
X99974454Y-86167916D01*
X100134196Y-85944637D01*
X100259727Y-85700479D01*
X100348370Y-85440646D01*
X100398236Y-85170674D01*
X100403242Y-85033678D01*
X108079737Y-85033678D01*
X108109763Y-85306569D01*
X108109764Y-85306571D01*
X108179204Y-85572182D01*
X108286577Y-85824852D01*
X108370890Y-85963005D01*
X108429595Y-86059196D01*
X108605209Y-86270218D01*
X108809677Y-86453423D01*
X109038641Y-86604904D01*
X109287221Y-86721433D01*
X109550119Y-86800527D01*
X109821731Y-86840500D01*
X110027547Y-86840500D01*
X110027551Y-86840500D01*
X110232805Y-86825477D01*
X110285009Y-86813848D01*
X110500775Y-86765784D01*
X110757198Y-86667711D01*
X110996609Y-86533347D01*
X111213904Y-86365557D01*
X111404454Y-86167916D01*
X111564196Y-85944637D01*
X111689727Y-85700479D01*
X111778370Y-85440646D01*
X111828236Y-85170674D01*
X111838262Y-84896320D01*
X111808236Y-84623429D01*
X111738796Y-84357818D01*
X111631423Y-84105148D01*
X111621263Y-84088501D01*
X111603110Y-84023957D01*
X111621211Y-83959397D01*
X111670275Y-83913698D01*
X111735957Y-83900222D01*
X112014000Y-83920109D01*
X112299357Y-83899699D01*
X112578902Y-83838888D01*
X112846952Y-83738911D01*
X113097573Y-83602062D01*
X113157000Y-83586894D01*
X113216427Y-83602062D01*
X113467047Y-83738911D01*
X113735097Y-83838888D01*
X114014642Y-83899699D01*
X114299999Y-83920109D01*
X114581852Y-83899950D01*
X114645511Y-83912406D01*
X114694170Y-83955301D01*
X114714515Y-84016894D01*
X114700976Y-84080332D01*
X114624272Y-84229521D01*
X114535629Y-84489352D01*
X114485763Y-84759325D01*
X114475737Y-85033678D01*
X114505763Y-85306569D01*
X114505764Y-85306571D01*
X114575204Y-85572182D01*
X114682577Y-85824852D01*
X114766890Y-85963005D01*
X114825595Y-86059196D01*
X115001209Y-86270218D01*
X115205677Y-86453423D01*
X115434641Y-86604904D01*
X115683221Y-86721433D01*
X115946119Y-86800527D01*
X116217731Y-86840500D01*
X116423547Y-86840500D01*
X116423551Y-86840500D01*
X116628805Y-86825477D01*
X116681009Y-86813848D01*
X116896775Y-86765784D01*
X117153198Y-86667711D01*
X117392609Y-86533347D01*
X117609904Y-86365557D01*
X117800454Y-86167916D01*
X117960196Y-85944637D01*
X118085727Y-85700479D01*
X118174370Y-85440646D01*
X118224236Y-85170674D01*
X118229242Y-85033678D01*
X125905737Y-85033678D01*
X125935763Y-85306569D01*
X125935764Y-85306571D01*
X126005204Y-85572182D01*
X126112577Y-85824852D01*
X126196890Y-85963005D01*
X126255595Y-86059196D01*
X126431209Y-86270218D01*
X126635677Y-86453423D01*
X126864641Y-86604904D01*
X127113221Y-86721433D01*
X127376119Y-86800527D01*
X127647731Y-86840500D01*
X127853547Y-86840500D01*
X127853551Y-86840500D01*
X128058805Y-86825477D01*
X128111009Y-86813848D01*
X128326775Y-86765784D01*
X128583198Y-86667711D01*
X128822609Y-86533347D01*
X129039904Y-86365557D01*
X129230454Y-86167916D01*
X129390196Y-85944637D01*
X129515727Y-85700479D01*
X129604370Y-85440646D01*
X129654236Y-85170674D01*
X129664262Y-84896320D01*
X129634236Y-84623429D01*
X129564796Y-84357818D01*
X129457423Y-84105148D01*
X129447263Y-84088501D01*
X129429110Y-84023957D01*
X129447211Y-83959397D01*
X129496275Y-83913698D01*
X129561957Y-83900222D01*
X129840000Y-83920109D01*
X130125357Y-83899699D01*
X130404902Y-83838888D01*
X130672952Y-83738911D01*
X130924042Y-83601806D01*
X130949188Y-83582982D01*
X130997141Y-83561082D01*
X131049859Y-83561082D01*
X131097812Y-83582982D01*
X131122957Y-83601806D01*
X131374047Y-83738911D01*
X131642097Y-83838888D01*
X131921642Y-83899699D01*
X132206999Y-83920109D01*
X132488852Y-83899950D01*
X132552511Y-83912406D01*
X132601170Y-83955301D01*
X132621515Y-84016894D01*
X132607976Y-84080332D01*
X132531272Y-84229521D01*
X132442629Y-84489352D01*
X132392763Y-84759325D01*
X132382737Y-85033678D01*
X132412763Y-85306569D01*
X132412764Y-85306571D01*
X132482204Y-85572182D01*
X132589577Y-85824852D01*
X132673890Y-85963005D01*
X132732595Y-86059196D01*
X132908209Y-86270218D01*
X133112677Y-86453423D01*
X133341641Y-86604904D01*
X133590221Y-86721433D01*
X133853119Y-86800527D01*
X134124731Y-86840500D01*
X134330547Y-86840500D01*
X134330551Y-86840500D01*
X134535805Y-86825477D01*
X134588009Y-86813848D01*
X134803775Y-86765784D01*
X135060198Y-86667711D01*
X135299609Y-86533347D01*
X135516904Y-86365557D01*
X135707454Y-86167916D01*
X135867196Y-85944637D01*
X135992727Y-85700479D01*
X136081370Y-85440646D01*
X136131236Y-85170674D01*
X136136242Y-85033678D01*
X143812737Y-85033678D01*
X143842763Y-85306569D01*
X143842764Y-85306571D01*
X143912204Y-85572182D01*
X144019577Y-85824852D01*
X144103890Y-85963005D01*
X144162595Y-86059196D01*
X144338209Y-86270218D01*
X144542677Y-86453423D01*
X144771641Y-86604904D01*
X145020221Y-86721433D01*
X145283119Y-86800527D01*
X145554731Y-86840500D01*
X145760547Y-86840500D01*
X145760551Y-86840500D01*
X145965805Y-86825477D01*
X146018009Y-86813848D01*
X146233775Y-86765784D01*
X146490198Y-86667711D01*
X146729609Y-86533347D01*
X146946904Y-86365557D01*
X147137454Y-86167916D01*
X147297196Y-85944637D01*
X147422727Y-85700479D01*
X147511370Y-85440646D01*
X147561236Y-85170674D01*
X147571262Y-84896320D01*
X147541236Y-84623429D01*
X147471796Y-84357818D01*
X147364423Y-84105148D01*
X147354263Y-84088501D01*
X147336110Y-84023957D01*
X147354211Y-83959397D01*
X147403275Y-83913698D01*
X147468957Y-83900222D01*
X147747000Y-83920109D01*
X148032357Y-83899699D01*
X148311902Y-83838888D01*
X148579952Y-83738911D01*
X148831042Y-83601806D01*
X148856188Y-83582982D01*
X148904141Y-83561082D01*
X148956859Y-83561082D01*
X149004812Y-83582982D01*
X149029957Y-83601806D01*
X149281047Y-83738911D01*
X149549097Y-83838888D01*
X149828642Y-83899699D01*
X150113999Y-83920109D01*
X150395852Y-83899950D01*
X150459511Y-83912406D01*
X150508170Y-83955301D01*
X150528515Y-84016894D01*
X150514976Y-84080332D01*
X150438272Y-84229521D01*
X150349629Y-84489352D01*
X150299763Y-84759325D01*
X150289737Y-85033678D01*
X150319763Y-85306569D01*
X150319764Y-85306571D01*
X150389204Y-85572182D01*
X150496577Y-85824852D01*
X150580890Y-85963005D01*
X150639595Y-86059196D01*
X150815209Y-86270218D01*
X151019677Y-86453423D01*
X151248641Y-86604904D01*
X151497221Y-86721433D01*
X151760119Y-86800527D01*
X152031731Y-86840500D01*
X152237547Y-86840500D01*
X152237551Y-86840500D01*
X152442805Y-86825477D01*
X152495009Y-86813848D01*
X152710775Y-86765784D01*
X152967198Y-86667711D01*
X153206609Y-86533347D01*
X153423904Y-86365557D01*
X153614454Y-86167916D01*
X153774196Y-85944637D01*
X153899727Y-85700479D01*
X153988370Y-85440646D01*
X154038236Y-85170674D01*
X154043242Y-85033678D01*
X161719737Y-85033678D01*
X161749763Y-85306569D01*
X161749764Y-85306571D01*
X161819204Y-85572182D01*
X161926577Y-85824852D01*
X162010890Y-85963005D01*
X162069595Y-86059196D01*
X162245209Y-86270218D01*
X162449677Y-86453423D01*
X162678641Y-86604904D01*
X162927221Y-86721433D01*
X163190119Y-86800527D01*
X163461731Y-86840500D01*
X163667547Y-86840500D01*
X163667551Y-86840500D01*
X163872805Y-86825477D01*
X163925009Y-86813848D01*
X164140775Y-86765784D01*
X164397198Y-86667711D01*
X164636609Y-86533347D01*
X164853904Y-86365557D01*
X165044454Y-86167916D01*
X165204196Y-85944637D01*
X165329727Y-85700479D01*
X165418370Y-85440646D01*
X165468236Y-85170674D01*
X165478262Y-84896320D01*
X165448236Y-84623429D01*
X165378796Y-84357818D01*
X165271423Y-84105148D01*
X165261263Y-84088501D01*
X165243110Y-84023957D01*
X165261211Y-83959397D01*
X165310275Y-83913698D01*
X165375957Y-83900222D01*
X165654000Y-83920109D01*
X165939357Y-83899699D01*
X166218902Y-83838888D01*
X166486952Y-83738911D01*
X166738042Y-83601806D01*
X166763188Y-83582982D01*
X166811141Y-83561082D01*
X166863859Y-83561082D01*
X166911812Y-83582982D01*
X166936957Y-83601806D01*
X167188047Y-83738911D01*
X167456097Y-83838888D01*
X167735642Y-83899699D01*
X168020999Y-83920109D01*
X168302852Y-83899950D01*
X168366511Y-83912406D01*
X168415170Y-83955301D01*
X168435515Y-84016894D01*
X168421976Y-84080332D01*
X168345272Y-84229521D01*
X168256629Y-84489352D01*
X168206763Y-84759325D01*
X168196737Y-85033678D01*
X168226763Y-85306569D01*
X168226764Y-85306571D01*
X168296204Y-85572182D01*
X168403577Y-85824852D01*
X168487890Y-85963005D01*
X168546595Y-86059196D01*
X168722209Y-86270218D01*
X168926677Y-86453423D01*
X169155641Y-86604904D01*
X169404221Y-86721433D01*
X169667119Y-86800527D01*
X169938731Y-86840500D01*
X170144547Y-86840500D01*
X170144551Y-86840500D01*
X170349805Y-86825477D01*
X170402009Y-86813848D01*
X170617775Y-86765784D01*
X170874198Y-86667711D01*
X171113609Y-86533347D01*
X171330904Y-86365557D01*
X171521454Y-86167916D01*
X171681196Y-85944637D01*
X171806727Y-85700479D01*
X171895370Y-85440646D01*
X171945236Y-85170674D01*
X171950242Y-85033678D01*
X179626737Y-85033678D01*
X179656763Y-85306569D01*
X179656764Y-85306571D01*
X179726204Y-85572182D01*
X179833577Y-85824852D01*
X179917890Y-85963005D01*
X179976595Y-86059196D01*
X180152209Y-86270218D01*
X180356677Y-86453423D01*
X180585641Y-86604904D01*
X180834221Y-86721433D01*
X181097119Y-86800527D01*
X181368731Y-86840500D01*
X181574547Y-86840500D01*
X181574551Y-86840500D01*
X181779805Y-86825477D01*
X181832009Y-86813848D01*
X182047775Y-86765784D01*
X182304198Y-86667711D01*
X182543609Y-86533347D01*
X182760904Y-86365557D01*
X182951454Y-86167916D01*
X183111196Y-85944637D01*
X183236727Y-85700479D01*
X183325370Y-85440646D01*
X183375236Y-85170674D01*
X183385262Y-84896320D01*
X183355236Y-84623429D01*
X183285796Y-84357818D01*
X183178423Y-84105148D01*
X183168263Y-84088501D01*
X183150110Y-84023957D01*
X183168211Y-83959397D01*
X183217275Y-83913698D01*
X183282957Y-83900222D01*
X183561000Y-83920109D01*
X183846357Y-83899699D01*
X184125902Y-83838888D01*
X184393952Y-83738911D01*
X184645042Y-83601806D01*
X184670188Y-83582982D01*
X184718141Y-83561082D01*
X184770859Y-83561082D01*
X184818812Y-83582982D01*
X184843957Y-83601806D01*
X185095047Y-83738911D01*
X185363097Y-83838888D01*
X185642642Y-83899699D01*
X185927999Y-83920109D01*
X186209852Y-83899950D01*
X186273511Y-83912406D01*
X186322170Y-83955301D01*
X186342515Y-84016894D01*
X186328976Y-84080332D01*
X186252272Y-84229521D01*
X186163629Y-84489352D01*
X186113763Y-84759325D01*
X186103737Y-85033678D01*
X186133763Y-85306569D01*
X186133764Y-85306571D01*
X186203204Y-85572182D01*
X186310577Y-85824852D01*
X186394890Y-85963005D01*
X186453595Y-86059196D01*
X186629209Y-86270218D01*
X186833677Y-86453423D01*
X187062641Y-86604904D01*
X187311221Y-86721433D01*
X187574119Y-86800527D01*
X187845731Y-86840500D01*
X188051547Y-86840500D01*
X188051551Y-86840500D01*
X188256805Y-86825477D01*
X188309009Y-86813848D01*
X188524775Y-86765784D01*
X188781198Y-86667711D01*
X189020609Y-86533347D01*
X189237904Y-86365557D01*
X189428454Y-86167916D01*
X189588196Y-85944637D01*
X189713727Y-85700479D01*
X189802370Y-85440646D01*
X189852236Y-85170674D01*
X189857242Y-85033678D01*
X197533737Y-85033678D01*
X197563763Y-85306569D01*
X197563764Y-85306571D01*
X197633204Y-85572182D01*
X197740577Y-85824852D01*
X197824890Y-85963005D01*
X197883595Y-86059196D01*
X198059209Y-86270218D01*
X198263677Y-86453423D01*
X198492641Y-86604904D01*
X198741221Y-86721433D01*
X199004119Y-86800527D01*
X199275731Y-86840500D01*
X199481547Y-86840500D01*
X199481551Y-86840500D01*
X199686805Y-86825477D01*
X199739009Y-86813848D01*
X199954775Y-86765784D01*
X200211198Y-86667711D01*
X200450609Y-86533347D01*
X200667904Y-86365557D01*
X200858454Y-86167916D01*
X201018196Y-85944637D01*
X201143727Y-85700479D01*
X201232370Y-85440646D01*
X201282236Y-85170674D01*
X201285038Y-85094000D01*
X205796000Y-85094000D01*
X207141000Y-85094000D01*
X207141000Y-83974001D01*
X206496021Y-83974001D01*
X206393304Y-83984493D01*
X206226877Y-84039642D01*
X206077654Y-84131683D01*
X205953683Y-84255654D01*
X205861642Y-84404877D01*
X205806493Y-84571303D01*
X205796000Y-84674021D01*
X205796000Y-85094000D01*
X201285038Y-85094000D01*
X201292262Y-84896320D01*
X201262236Y-84623429D01*
X201192796Y-84357818D01*
X201085423Y-84105148D01*
X201075263Y-84088501D01*
X201057110Y-84023957D01*
X201071117Y-83974000D01*
X207641000Y-83974000D01*
X207641000Y-85094000D01*
X208985999Y-85094000D01*
X208985999Y-84674021D01*
X208975506Y-84571304D01*
X208920357Y-84404877D01*
X208828316Y-84255654D01*
X208704345Y-84131683D01*
X208555122Y-84039642D01*
X208388696Y-83984493D01*
X208285979Y-83974000D01*
X207641000Y-83974000D01*
X201071117Y-83974000D01*
X201075211Y-83959397D01*
X201124275Y-83913698D01*
X201189957Y-83900222D01*
X201468000Y-83920109D01*
X201753357Y-83899699D01*
X202032902Y-83838888D01*
X202300952Y-83738911D01*
X202552041Y-83601806D01*
X202694562Y-83495115D01*
X201468000Y-82268553D01*
X201114448Y-81915001D01*
X201821553Y-81915001D01*
X203048115Y-83141562D01*
X203154806Y-82999041D01*
X203291911Y-82747952D01*
X203391888Y-82479902D01*
X203452699Y-82200357D01*
X203473109Y-81915000D01*
X203452699Y-81629642D01*
X203391888Y-81350097D01*
X203291911Y-81082047D01*
X203154806Y-80830958D01*
X203048115Y-80688436D01*
X201821553Y-81915000D01*
X201821553Y-81915001D01*
X201114448Y-81915001D01*
X199887882Y-80688436D01*
X199887882Y-80688437D01*
X199781195Y-80830954D01*
X199644088Y-81082047D01*
X199544111Y-81350097D01*
X199483300Y-81629642D01*
X199462890Y-81915000D01*
X199483300Y-82200357D01*
X199544111Y-82479902D01*
X199644088Y-82747953D01*
X199735868Y-82916035D01*
X199750853Y-82982202D01*
X199728775Y-83046351D01*
X199676243Y-83089281D01*
X199608982Y-83098140D01*
X199550269Y-83089500D01*
X199344453Y-83089500D01*
X199344449Y-83089500D01*
X199139194Y-83104522D01*
X198871225Y-83164215D01*
X198614803Y-83262288D01*
X198375391Y-83396653D01*
X198158094Y-83564443D01*
X197967545Y-83762083D01*
X197807802Y-83985364D01*
X197682272Y-84229521D01*
X197593629Y-84489352D01*
X197543763Y-84759325D01*
X197533737Y-85033678D01*
X189857242Y-85033678D01*
X189862262Y-84896320D01*
X189832236Y-84623429D01*
X189762796Y-84357818D01*
X189655423Y-84105148D01*
X189512405Y-83870804D01*
X189336791Y-83659782D01*
X189132323Y-83476577D01*
X188903359Y-83325096D01*
X188654779Y-83208567D01*
X188391881Y-83129473D01*
X188120269Y-83089500D01*
X187914453Y-83089500D01*
X187914449Y-83089500D01*
X187777812Y-83099500D01*
X187713394Y-83086784D01*
X187664501Y-83042957D01*
X187644842Y-82980308D01*
X187659929Y-82916404D01*
X187751911Y-82747952D01*
X187851888Y-82479902D01*
X187912699Y-82200357D01*
X187933109Y-81915000D01*
X187912699Y-81629642D01*
X187851888Y-81350097D01*
X187751911Y-81082047D01*
X187614806Y-80830958D01*
X187508115Y-80688436D01*
X186015680Y-82180871D01*
X185960093Y-82212965D01*
X185895905Y-82212965D01*
X185840318Y-82180871D01*
X185662127Y-82002680D01*
X185630033Y-81947093D01*
X185630033Y-81882905D01*
X185662127Y-81827318D01*
X187154562Y-80334883D01*
X200241436Y-80334883D01*
X201468000Y-81561446D01*
X201468001Y-81561446D01*
X202694562Y-80334883D01*
X202552042Y-80228193D01*
X202300952Y-80091088D01*
X202032902Y-79991111D01*
X201847429Y-79950764D01*
X208838787Y-79950764D01*
X208868413Y-80220016D01*
X208936928Y-80482087D01*
X209042871Y-80731392D01*
X209183982Y-80962611D01*
X209357253Y-81170818D01*
X209357255Y-81170820D01*
X209558998Y-81351582D01*
X209784910Y-81501044D01*
X209891211Y-81550876D01*
X210030177Y-81616021D01*
X210289562Y-81694058D01*
X210289569Y-81694060D01*
X210557561Y-81733500D01*
X210760631Y-81733500D01*
X210760634Y-81733500D01*
X210963156Y-81718677D01*
X210963155Y-81718677D01*
X211227553Y-81659780D01*
X211480558Y-81563014D01*
X211716777Y-81430441D01*
X211931177Y-81264888D01*
X212119186Y-81069881D01*
X212276799Y-80849579D01*
X212400656Y-80608675D01*
X212488118Y-80352305D01*
X212537319Y-80085933D01*
X212547212Y-79815235D01*
X212517586Y-79545982D01*
X212449072Y-79283912D01*
X212343130Y-79034610D01*
X212202018Y-78803390D01*
X212202017Y-78803388D01*
X212028746Y-78595181D01*
X211923758Y-78501112D01*
X211827002Y-78414418D01*
X211601090Y-78264956D01*
X211601086Y-78264954D01*
X211355822Y-78149978D01*
X211096437Y-78071941D01*
X211096431Y-78071940D01*
X210828439Y-78032500D01*
X210625369Y-78032500D01*
X210625366Y-78032500D01*
X210422843Y-78047322D01*
X210158449Y-78106219D01*
X209905441Y-78202986D01*
X209669223Y-78335559D01*
X209454825Y-78501109D01*
X209266813Y-78696120D01*
X209109201Y-78916420D01*
X208985342Y-79157329D01*
X208897881Y-79413695D01*
X208848680Y-79680066D01*
X208838787Y-79950764D01*
X201847429Y-79950764D01*
X201753357Y-79930300D01*
X201468000Y-79909890D01*
X201182642Y-79930300D01*
X200903097Y-79991111D01*
X200635047Y-80091088D01*
X200383954Y-80228195D01*
X200241437Y-80334882D01*
X200241436Y-80334883D01*
X187154562Y-80334883D01*
X187012042Y-80228193D01*
X186760952Y-80091088D01*
X186492902Y-79991111D01*
X186213357Y-79930300D01*
X185928000Y-79909890D01*
X185642642Y-79930300D01*
X185363097Y-79991111D01*
X185095047Y-80091088D01*
X184843958Y-80228193D01*
X184818810Y-80247019D01*
X184770858Y-80268917D01*
X184718142Y-80268917D01*
X184670190Y-80247019D01*
X184645041Y-80228193D01*
X184393952Y-80091088D01*
X184125902Y-79991111D01*
X183846357Y-79930300D01*
X183561000Y-79909890D01*
X183275642Y-79930300D01*
X182996097Y-79991111D01*
X182728047Y-80091088D01*
X182476954Y-80228195D01*
X182334437Y-80334882D01*
X182334436Y-80334882D01*
X183826872Y-81827318D01*
X183858966Y-81882905D01*
X183858966Y-81947093D01*
X183826872Y-82002680D01*
X183648680Y-82180872D01*
X183593093Y-82212966D01*
X183528905Y-82212966D01*
X183473318Y-82180872D01*
X181980882Y-80688436D01*
X181980882Y-80688437D01*
X181874195Y-80830954D01*
X181737088Y-81082047D01*
X181637111Y-81350097D01*
X181576300Y-81629642D01*
X181555890Y-81915000D01*
X181576300Y-82200357D01*
X181637111Y-82479902D01*
X181737088Y-82747953D01*
X181828868Y-82916035D01*
X181843853Y-82982202D01*
X181821775Y-83046351D01*
X181769243Y-83089281D01*
X181701982Y-83098140D01*
X181643269Y-83089500D01*
X181437453Y-83089500D01*
X181437449Y-83089500D01*
X181232194Y-83104522D01*
X180964225Y-83164215D01*
X180707803Y-83262288D01*
X180468391Y-83396653D01*
X180251094Y-83564443D01*
X180060545Y-83762083D01*
X179900802Y-83985364D01*
X179775272Y-84229521D01*
X179686629Y-84489352D01*
X179636763Y-84759325D01*
X179626737Y-85033678D01*
X171950242Y-85033678D01*
X171955262Y-84896320D01*
X171925236Y-84623429D01*
X171855796Y-84357818D01*
X171748423Y-84105148D01*
X171605405Y-83870804D01*
X171429791Y-83659782D01*
X171225323Y-83476577D01*
X170996359Y-83325096D01*
X170747779Y-83208567D01*
X170484881Y-83129473D01*
X170213269Y-83089500D01*
X170007453Y-83089500D01*
X170007449Y-83089500D01*
X169870812Y-83099500D01*
X169806394Y-83086784D01*
X169757501Y-83042957D01*
X169737842Y-82980308D01*
X169752929Y-82916404D01*
X169844911Y-82747952D01*
X169944888Y-82479902D01*
X170005699Y-82200357D01*
X170026109Y-81915000D01*
X170005699Y-81629642D01*
X169944888Y-81350097D01*
X169844911Y-81082047D01*
X169707806Y-80830958D01*
X169601115Y-80688436D01*
X168108680Y-82180871D01*
X168053093Y-82212965D01*
X167988905Y-82212965D01*
X167933318Y-82180871D01*
X167755127Y-82002680D01*
X167723033Y-81947093D01*
X167723033Y-81882905D01*
X167755127Y-81827318D01*
X169247562Y-80334883D01*
X169105042Y-80228193D01*
X168853952Y-80091088D01*
X168585902Y-79991111D01*
X168306357Y-79930300D01*
X168021000Y-79909890D01*
X167735642Y-79930300D01*
X167456097Y-79991111D01*
X167188047Y-80091088D01*
X166936958Y-80228193D01*
X166911810Y-80247019D01*
X166863858Y-80268917D01*
X166811142Y-80268917D01*
X166763190Y-80247019D01*
X166738041Y-80228193D01*
X166486952Y-80091088D01*
X166218902Y-79991111D01*
X165939357Y-79930300D01*
X165654000Y-79909890D01*
X165368642Y-79930300D01*
X165089097Y-79991111D01*
X164821047Y-80091088D01*
X164569954Y-80228195D01*
X164427437Y-80334882D01*
X164427436Y-80334882D01*
X165919872Y-81827318D01*
X165951966Y-81882905D01*
X165951966Y-81947093D01*
X165919872Y-82002680D01*
X165741680Y-82180872D01*
X165686093Y-82212966D01*
X165621905Y-82212966D01*
X165566318Y-82180872D01*
X164073882Y-80688436D01*
X164073882Y-80688437D01*
X163967195Y-80830954D01*
X163830088Y-81082047D01*
X163730111Y-81350097D01*
X163669300Y-81629642D01*
X163648890Y-81915000D01*
X163669300Y-82200357D01*
X163730111Y-82479902D01*
X163830088Y-82747953D01*
X163921868Y-82916035D01*
X163936853Y-82982202D01*
X163914775Y-83046351D01*
X163862243Y-83089281D01*
X163794982Y-83098140D01*
X163736269Y-83089500D01*
X163530453Y-83089500D01*
X163530449Y-83089500D01*
X163325194Y-83104522D01*
X163057225Y-83164215D01*
X162800803Y-83262288D01*
X162561391Y-83396653D01*
X162344094Y-83564443D01*
X162153545Y-83762083D01*
X161993802Y-83985364D01*
X161868272Y-84229521D01*
X161779629Y-84489352D01*
X161729763Y-84759325D01*
X161719737Y-85033678D01*
X154043242Y-85033678D01*
X154048262Y-84896320D01*
X154018236Y-84623429D01*
X153948796Y-84357818D01*
X153841423Y-84105148D01*
X153698405Y-83870804D01*
X153522791Y-83659782D01*
X153318323Y-83476577D01*
X153089359Y-83325096D01*
X152840779Y-83208567D01*
X152577881Y-83129473D01*
X152306269Y-83089500D01*
X152100453Y-83089500D01*
X152100449Y-83089500D01*
X151963812Y-83099500D01*
X151899394Y-83086784D01*
X151850501Y-83042957D01*
X151830842Y-82980308D01*
X151845929Y-82916404D01*
X151937911Y-82747952D01*
X152037888Y-82479902D01*
X152098699Y-82200357D01*
X152119109Y-81915000D01*
X152098699Y-81629642D01*
X152037888Y-81350097D01*
X151937911Y-81082047D01*
X151800806Y-80830958D01*
X151694115Y-80688436D01*
X150201680Y-82180871D01*
X150146093Y-82212965D01*
X150081905Y-82212965D01*
X150026318Y-82180871D01*
X149848127Y-82002680D01*
X149816033Y-81947093D01*
X149816033Y-81882905D01*
X149848127Y-81827318D01*
X151340562Y-80334883D01*
X151198042Y-80228193D01*
X150946952Y-80091088D01*
X150678902Y-79991111D01*
X150399357Y-79930300D01*
X150114000Y-79909890D01*
X149828642Y-79930300D01*
X149549097Y-79991111D01*
X149281047Y-80091088D01*
X149029958Y-80228193D01*
X149004810Y-80247019D01*
X148956858Y-80268917D01*
X148904142Y-80268917D01*
X148856190Y-80247019D01*
X148831041Y-80228193D01*
X148579952Y-80091088D01*
X148311902Y-79991111D01*
X148032357Y-79930300D01*
X147747000Y-79909890D01*
X147461642Y-79930300D01*
X147182097Y-79991111D01*
X146914047Y-80091088D01*
X146662954Y-80228195D01*
X146520437Y-80334882D01*
X146520436Y-80334882D01*
X148012872Y-81827318D01*
X148044966Y-81882905D01*
X148044966Y-81947093D01*
X148012872Y-82002680D01*
X147834680Y-82180872D01*
X147779093Y-82212966D01*
X147714905Y-82212966D01*
X147659318Y-82180872D01*
X146166882Y-80688436D01*
X146166882Y-80688437D01*
X146060195Y-80830954D01*
X145923088Y-81082047D01*
X145823111Y-81350097D01*
X145762300Y-81629642D01*
X145741890Y-81915000D01*
X145762300Y-82200357D01*
X145823111Y-82479902D01*
X145923088Y-82747953D01*
X146014868Y-82916035D01*
X146029853Y-82982202D01*
X146007775Y-83046351D01*
X145955243Y-83089281D01*
X145887982Y-83098140D01*
X145829269Y-83089500D01*
X145623453Y-83089500D01*
X145623449Y-83089500D01*
X145418194Y-83104522D01*
X145150225Y-83164215D01*
X144893803Y-83262288D01*
X144654391Y-83396653D01*
X144437094Y-83564443D01*
X144246545Y-83762083D01*
X144086802Y-83985364D01*
X143961272Y-84229521D01*
X143872629Y-84489352D01*
X143822763Y-84759325D01*
X143812737Y-85033678D01*
X136136242Y-85033678D01*
X136141262Y-84896320D01*
X136111236Y-84623429D01*
X136041796Y-84357818D01*
X135934423Y-84105148D01*
X135791405Y-83870804D01*
X135615791Y-83659782D01*
X135411323Y-83476577D01*
X135182359Y-83325096D01*
X134933779Y-83208567D01*
X134670881Y-83129473D01*
X134399269Y-83089500D01*
X134193453Y-83089500D01*
X134193449Y-83089500D01*
X134056812Y-83099500D01*
X133992394Y-83086784D01*
X133943501Y-83042957D01*
X133923842Y-82980308D01*
X133938929Y-82916404D01*
X134030911Y-82747952D01*
X134130888Y-82479902D01*
X134191699Y-82200357D01*
X134212109Y-81915000D01*
X134191699Y-81629642D01*
X134130888Y-81350097D01*
X134030911Y-81082047D01*
X133893806Y-80830958D01*
X133787115Y-80688436D01*
X132294680Y-82180871D01*
X132239093Y-82212965D01*
X132174905Y-82212965D01*
X132119318Y-82180871D01*
X131941127Y-82002680D01*
X131909033Y-81947093D01*
X131909033Y-81882905D01*
X131941127Y-81827318D01*
X133433562Y-80334883D01*
X133291042Y-80228193D01*
X133039952Y-80091088D01*
X132771902Y-79991111D01*
X132492357Y-79930300D01*
X132207000Y-79909890D01*
X131921642Y-79930300D01*
X131642097Y-79991111D01*
X131374047Y-80091088D01*
X131122958Y-80228193D01*
X131097810Y-80247019D01*
X131049858Y-80268917D01*
X130997142Y-80268917D01*
X130949190Y-80247019D01*
X130924041Y-80228193D01*
X130672952Y-80091088D01*
X130404902Y-79991111D01*
X130125357Y-79930300D01*
X129840000Y-79909890D01*
X129554642Y-79930300D01*
X129275097Y-79991111D01*
X129007047Y-80091088D01*
X128755954Y-80228195D01*
X128613437Y-80334882D01*
X128613436Y-80334882D01*
X130105872Y-81827318D01*
X130137966Y-81882905D01*
X130137966Y-81947093D01*
X130105872Y-82002680D01*
X129927680Y-82180872D01*
X129872093Y-82212966D01*
X129807905Y-82212966D01*
X129752318Y-82180872D01*
X128259882Y-80688436D01*
X128259882Y-80688437D01*
X128153195Y-80830954D01*
X128016088Y-81082047D01*
X127916111Y-81350097D01*
X127855300Y-81629642D01*
X127834890Y-81915000D01*
X127855300Y-82200357D01*
X127916111Y-82479902D01*
X128016088Y-82747953D01*
X128107868Y-82916035D01*
X128122853Y-82982202D01*
X128100775Y-83046351D01*
X128048243Y-83089281D01*
X127980982Y-83098140D01*
X127922269Y-83089500D01*
X127716453Y-83089500D01*
X127716449Y-83089500D01*
X127511194Y-83104522D01*
X127243225Y-83164215D01*
X126986803Y-83262288D01*
X126747391Y-83396653D01*
X126530094Y-83564443D01*
X126339545Y-83762083D01*
X126179802Y-83985364D01*
X126054272Y-84229521D01*
X125965629Y-84489352D01*
X125915763Y-84759325D01*
X125905737Y-85033678D01*
X118229242Y-85033678D01*
X118234262Y-84896320D01*
X118204236Y-84623429D01*
X118134796Y-84357818D01*
X118027423Y-84105148D01*
X117884405Y-83870804D01*
X117708791Y-83659782D01*
X117504323Y-83476577D01*
X117275359Y-83325096D01*
X117026779Y-83208567D01*
X116763881Y-83129473D01*
X116492269Y-83089500D01*
X116286453Y-83089500D01*
X116286449Y-83089500D01*
X116149812Y-83099500D01*
X116085394Y-83086784D01*
X116036501Y-83042957D01*
X116016842Y-82980308D01*
X116031929Y-82916404D01*
X116123911Y-82747952D01*
X116223888Y-82479902D01*
X116284699Y-82200357D01*
X116305109Y-81915000D01*
X116284699Y-81629642D01*
X116223888Y-81350097D01*
X116123911Y-81082047D01*
X115986806Y-80830958D01*
X115880115Y-80688436D01*
X114387680Y-82180871D01*
X114332093Y-82212965D01*
X114267905Y-82212965D01*
X114212318Y-82180871D01*
X114034127Y-82002680D01*
X114002033Y-81947093D01*
X114002033Y-81882905D01*
X114034127Y-81827318D01*
X115526562Y-80334883D01*
X115384042Y-80228193D01*
X115132952Y-80091088D01*
X114864902Y-79991111D01*
X114585357Y-79930300D01*
X114300000Y-79909890D01*
X114014642Y-79930300D01*
X113735097Y-79991111D01*
X113467046Y-80091088D01*
X113216427Y-80227937D01*
X113157000Y-80243105D01*
X113097573Y-80227937D01*
X112846953Y-80091088D01*
X112578902Y-79991111D01*
X112299357Y-79930300D01*
X112014000Y-79909890D01*
X111728642Y-79930300D01*
X111449097Y-79991111D01*
X111181047Y-80091088D01*
X110929954Y-80228195D01*
X110787437Y-80334882D01*
X110787436Y-80334882D01*
X112279872Y-81827318D01*
X112311966Y-81882905D01*
X112311966Y-81947093D01*
X112279872Y-82002680D01*
X112101680Y-82180872D01*
X112046093Y-82212966D01*
X111981905Y-82212966D01*
X111926318Y-82180872D01*
X110433882Y-80688436D01*
X110433882Y-80688437D01*
X110327195Y-80830954D01*
X110190088Y-81082047D01*
X110090111Y-81350097D01*
X110029300Y-81629642D01*
X110008890Y-81915000D01*
X110029300Y-82200357D01*
X110090111Y-82479902D01*
X110190088Y-82747953D01*
X110281868Y-82916035D01*
X110296853Y-82982202D01*
X110274775Y-83046351D01*
X110222243Y-83089281D01*
X110154982Y-83098140D01*
X110096269Y-83089500D01*
X109890453Y-83089500D01*
X109890449Y-83089500D01*
X109685194Y-83104522D01*
X109417225Y-83164215D01*
X109160803Y-83262288D01*
X108921391Y-83396653D01*
X108704094Y-83564443D01*
X108513545Y-83762083D01*
X108353802Y-83985364D01*
X108228272Y-84229521D01*
X108139629Y-84489352D01*
X108089763Y-84759325D01*
X108079737Y-85033678D01*
X100403242Y-85033678D01*
X100408262Y-84896320D01*
X100378236Y-84623429D01*
X100308796Y-84357818D01*
X100201423Y-84105148D01*
X100058405Y-83870804D01*
X99882791Y-83659782D01*
X99678323Y-83476577D01*
X99449359Y-83325096D01*
X99200779Y-83208567D01*
X98937881Y-83129473D01*
X98666269Y-83089500D01*
X98460453Y-83089500D01*
X98460449Y-83089500D01*
X98323812Y-83099500D01*
X98259394Y-83086784D01*
X98210501Y-83042957D01*
X98190842Y-82980308D01*
X98205929Y-82916404D01*
X98297911Y-82747952D01*
X98397888Y-82479902D01*
X98458699Y-82200357D01*
X98479109Y-81915000D01*
X98458699Y-81629642D01*
X98397888Y-81350097D01*
X98297911Y-81082047D01*
X98160806Y-80830958D01*
X98054115Y-80688436D01*
X96474000Y-82268553D01*
X95247436Y-83495115D01*
X83566500Y-83495115D01*
X83566500Y-81915000D01*
X94468890Y-81915000D01*
X94489300Y-82200357D01*
X94550111Y-82479902D01*
X94650088Y-82747952D01*
X94787193Y-82999042D01*
X94893883Y-83141562D01*
X96120446Y-81915001D01*
X96120446Y-81915000D01*
X94893883Y-80688436D01*
X94893882Y-80688437D01*
X94787195Y-80830954D01*
X94650088Y-81082047D01*
X94550111Y-81350097D01*
X94489300Y-81629642D01*
X94468890Y-81915000D01*
X83566500Y-81915000D01*
X83566500Y-79950764D01*
X86791787Y-79950764D01*
X86821413Y-80220016D01*
X86889928Y-80482087D01*
X86995871Y-80731392D01*
X87136982Y-80962611D01*
X87310253Y-81170818D01*
X87310255Y-81170820D01*
X87511998Y-81351582D01*
X87737910Y-81501044D01*
X87844211Y-81550876D01*
X87983177Y-81616021D01*
X88242562Y-81694058D01*
X88242569Y-81694060D01*
X88510561Y-81733500D01*
X88713631Y-81733500D01*
X88713634Y-81733500D01*
X88916156Y-81718677D01*
X88916156Y-81718676D01*
X89180553Y-81659780D01*
X89433558Y-81563014D01*
X89669777Y-81430441D01*
X89884177Y-81264888D01*
X90072186Y-81069881D01*
X90229799Y-80849579D01*
X90353656Y-80608675D01*
X90441118Y-80352305D01*
X90444336Y-80334883D01*
X95247436Y-80334883D01*
X96474000Y-81561446D01*
X96474001Y-81561446D01*
X97700562Y-80334883D01*
X97558042Y-80228193D01*
X97306952Y-80091088D01*
X97038902Y-79991111D01*
X96759357Y-79930300D01*
X96474000Y-79909890D01*
X96188642Y-79930300D01*
X95909097Y-79991111D01*
X95641047Y-80091088D01*
X95389954Y-80228195D01*
X95247437Y-80334882D01*
X95247436Y-80334883D01*
X90444336Y-80334883D01*
X90490319Y-80085933D01*
X90500212Y-79815235D01*
X90470586Y-79545982D01*
X90402072Y-79283912D01*
X90296130Y-79034610D01*
X90155018Y-78803390D01*
X90155017Y-78803388D01*
X89981746Y-78595181D01*
X89876758Y-78501112D01*
X89780002Y-78414418D01*
X89554090Y-78264956D01*
X89554086Y-78264954D01*
X89308822Y-78149978D01*
X89049437Y-78071941D01*
X89049431Y-78071940D01*
X88781439Y-78032500D01*
X88578369Y-78032500D01*
X88578366Y-78032500D01*
X88375843Y-78047322D01*
X88111449Y-78106219D01*
X87858441Y-78202986D01*
X87622223Y-78335559D01*
X87407825Y-78501109D01*
X87219813Y-78696120D01*
X87062201Y-78916420D01*
X86938342Y-79157329D01*
X86850881Y-79413695D01*
X86801680Y-79680066D01*
X86791787Y-79950764D01*
X83566500Y-79950764D01*
X83566500Y-79885561D01*
X83566606Y-79880437D01*
X83574893Y-79680066D01*
X83575495Y-79665496D01*
X83584348Y-79462746D01*
X83585177Y-79452883D01*
X83612031Y-79237444D01*
X83612073Y-79237123D01*
X83638750Y-79034486D01*
X83640317Y-79025290D01*
X83684805Y-78813115D01*
X83684994Y-78812240D01*
X83729293Y-78612419D01*
X83731498Y-78603920D01*
X83793267Y-78396440D01*
X83793835Y-78394591D01*
X83855322Y-78199576D01*
X83858027Y-78191898D01*
X83936739Y-77990176D01*
X83937599Y-77988038D01*
X84015908Y-77798983D01*
X84019031Y-77792058D01*
X84114130Y-77597530D01*
X84115416Y-77594983D01*
X84209890Y-77413500D01*
X84213348Y-77407300D01*
X84324108Y-77221420D01*
X84325977Y-77218388D01*
X84435901Y-77045843D01*
X84439511Y-77040491D01*
X84565249Y-76864385D01*
X84567727Y-76861038D01*
X84692258Y-76698746D01*
X84695958Y-76694157D01*
X84835810Y-76529032D01*
X84838931Y-76525492D01*
X84977176Y-76374624D01*
X84980827Y-76370810D01*
X85133810Y-76217827D01*
X85137624Y-76214176D01*
X85288492Y-76075931D01*
X85292032Y-76072810D01*
X85457157Y-75932958D01*
X85461746Y-75929258D01*
X85624038Y-75804727D01*
X85627385Y-75802249D01*
X85803491Y-75676511D01*
X85808843Y-75672901D01*
X85981388Y-75562977D01*
X85984420Y-75561108D01*
X86170301Y-75450347D01*
X86176500Y-75446890D01*
X86357983Y-75352416D01*
X86360530Y-75351130D01*
X86555058Y-75256031D01*
X86561983Y-75252908D01*
X86751038Y-75174599D01*
X86753176Y-75173739D01*
X86954898Y-75095027D01*
X86962576Y-75092322D01*
X87157612Y-75030828D01*
X87159438Y-75030268D01*
X87366920Y-74968498D01*
X87375419Y-74966293D01*
X87575240Y-74921994D01*
X87576115Y-74921805D01*
X87788290Y-74877317D01*
X87797486Y-74875750D01*
X88000123Y-74849073D01*
X88000444Y-74849031D01*
X88215883Y-74822177D01*
X88225746Y-74821348D01*
X88428421Y-74812499D01*
X88643437Y-74803605D01*
X88648561Y-74803500D01*
X210690439Y-74803500D01*
X210695562Y-74803605D01*
G37*
G04 #@! TD.AperFunction*
G04 #@! TA.AperFunction,Conductor*
G36*
X197128203Y-95099612D02*
G01*
X197173474Y-95128453D01*
X200558162Y-98513141D01*
X200563282Y-98518579D01*
X200602421Y-98562758D01*
X200631172Y-98582603D01*
X200650979Y-98596275D01*
X200657012Y-98600714D01*
X200703458Y-98637102D01*
X200703459Y-98637102D01*
X200703460Y-98637103D01*
X200712347Y-98641103D01*
X200731894Y-98652127D01*
X200739922Y-98657668D01*
X200795091Y-98678590D01*
X200802001Y-98681452D01*
X200855815Y-98705673D01*
X200865415Y-98707432D01*
X200887026Y-98713456D01*
X200896142Y-98716914D01*
X200954723Y-98724027D01*
X200962069Y-98725144D01*
X201020154Y-98735789D01*
X201079056Y-98732226D01*
X201086544Y-98732000D01*
X205910890Y-98732000D01*
X205971364Y-98747746D01*
X206016479Y-98790985D01*
X206060137Y-98861890D01*
X206101649Y-98909057D01*
X206211490Y-99033861D01*
X206214270Y-99037019D01*
X206395776Y-99183576D01*
X206436101Y-99206103D01*
X206481217Y-99249343D01*
X206499515Y-99309094D01*
X206486350Y-99370182D01*
X206445064Y-99417092D01*
X206301912Y-99513846D01*
X206133483Y-99675272D01*
X205994760Y-99862838D01*
X205889730Y-100071152D01*
X205821417Y-100294219D01*
X205820789Y-100299126D01*
X205792455Y-100520390D01*
X205791784Y-100525627D01*
X205801685Y-100758704D01*
X205850836Y-100986767D01*
X205937819Y-101203231D01*
X205937821Y-101203235D01*
X206060138Y-101401891D01*
X206172319Y-101529354D01*
X206214270Y-101577019D01*
X206395776Y-101723576D01*
X206436101Y-101746103D01*
X206481217Y-101789343D01*
X206499515Y-101849094D01*
X206486350Y-101910182D01*
X206445064Y-101957092D01*
X206301912Y-102053846D01*
X206133483Y-102215272D01*
X205994760Y-102402838D01*
X205889730Y-102611152D01*
X205822062Y-102832112D01*
X205821417Y-102834220D01*
X205811338Y-102912931D01*
X205791784Y-103065627D01*
X205801685Y-103298704D01*
X205850836Y-103526767D01*
X205933575Y-103732669D01*
X205937821Y-103743235D01*
X206060138Y-103941891D01*
X206203790Y-104105112D01*
X206214270Y-104117019D01*
X206395776Y-104263576D01*
X206599448Y-104377354D01*
X206819418Y-104455074D01*
X207049351Y-104494500D01*
X207049353Y-104494500D01*
X207674216Y-104494500D01*
X207674220Y-104494500D01*
X207797592Y-104483999D01*
X207848453Y-104479670D01*
X208032119Y-104431847D01*
X208074220Y-104420885D01*
X208180510Y-104372838D01*
X208286802Y-104324792D01*
X208480088Y-104194153D01*
X208648516Y-104032728D01*
X208787240Y-103845161D01*
X208892270Y-103636847D01*
X208960583Y-103413780D01*
X208990216Y-103182376D01*
X208980314Y-102949293D01*
X208931164Y-102721235D01*
X208931008Y-102720848D01*
X208884256Y-102604500D01*
X208844179Y-102504765D01*
X208721862Y-102306109D01*
X208567731Y-102130982D01*
X208567729Y-102130980D01*
X208386221Y-101984421D01*
X208345897Y-101961895D01*
X208300782Y-101918655D01*
X208282484Y-101858904D01*
X208295649Y-101797816D01*
X208336933Y-101750909D01*
X208480088Y-101654153D01*
X208648516Y-101492728D01*
X208787240Y-101305161D01*
X208892270Y-101096847D01*
X208960583Y-100873780D01*
X208990216Y-100642376D01*
X208980314Y-100409293D01*
X208931164Y-100181235D01*
X208914569Y-100139937D01*
X208905632Y-100092834D01*
X208915236Y-100045853D01*
X208941945Y-100006032D01*
X209285319Y-99662659D01*
X209334682Y-99632409D01*
X209392398Y-99627867D01*
X209445885Y-99650022D01*
X209483485Y-99694045D01*
X209497000Y-99750340D01*
X209497000Y-104057659D01*
X209487561Y-104105112D01*
X209460681Y-104145340D01*
X207732840Y-105873181D01*
X207692612Y-105900061D01*
X207645159Y-105909500D01*
X189511500Y-105909500D01*
X189449500Y-105892887D01*
X189404113Y-105847500D01*
X189387500Y-105785500D01*
X189387499Y-104181130D01*
X189387082Y-104177249D01*
X189381091Y-104121517D01*
X189330796Y-103986669D01*
X189244546Y-103871454D01*
X189129331Y-103785204D01*
X188994483Y-103734909D01*
X188934873Y-103728500D01*
X188934869Y-103728500D01*
X187239130Y-103728500D01*
X187179515Y-103734909D01*
X187044669Y-103785204D01*
X186929452Y-103871454D01*
X186916266Y-103889070D01*
X186872504Y-103925642D01*
X186817000Y-103938758D01*
X186761496Y-103925642D01*
X186717734Y-103889070D01*
X186704547Y-103871454D01*
X186589331Y-103785204D01*
X186454483Y-103734909D01*
X186394873Y-103728500D01*
X186394869Y-103728500D01*
X186067340Y-103728500D01*
X186011045Y-103714985D01*
X185967022Y-103677385D01*
X185944867Y-103623898D01*
X185949409Y-103566182D01*
X185979659Y-103516819D01*
X187701714Y-101794764D01*
X196646787Y-101794764D01*
X196676413Y-102064016D01*
X196707955Y-102184665D01*
X196744928Y-102326088D01*
X196823572Y-102511152D01*
X196850871Y-102575392D01*
X196991982Y-102806611D01*
X197148261Y-102994400D01*
X197165255Y-103014820D01*
X197366998Y-103195582D01*
X197592910Y-103345044D01*
X197650801Y-103372182D01*
X197838177Y-103460021D01*
X198085736Y-103534500D01*
X198097569Y-103538060D01*
X198365561Y-103577500D01*
X198568631Y-103577500D01*
X198568634Y-103577500D01*
X198771156Y-103562677D01*
X198779456Y-103560828D01*
X199035553Y-103503780D01*
X199288558Y-103407014D01*
X199524777Y-103274441D01*
X199739177Y-103108888D01*
X199927186Y-102913881D01*
X200084799Y-102693579D01*
X200208656Y-102452675D01*
X200296118Y-102196305D01*
X200345319Y-101929933D01*
X200355212Y-101659235D01*
X200325586Y-101389982D01*
X200257072Y-101127912D01*
X200151130Y-100878610D01*
X200026741Y-100674791D01*
X200010017Y-100647388D01*
X199836746Y-100439181D01*
X199829605Y-100432783D01*
X199635002Y-100258418D01*
X199409090Y-100108956D01*
X199374699Y-100092834D01*
X199163822Y-99993978D01*
X198904437Y-99915941D01*
X198904431Y-99915940D01*
X198636439Y-99876500D01*
X198433369Y-99876500D01*
X198433366Y-99876500D01*
X198230843Y-99891322D01*
X197966449Y-99950219D01*
X197713441Y-100046986D01*
X197477223Y-100179559D01*
X197262825Y-100345109D01*
X197074813Y-100540120D01*
X196917201Y-100760420D01*
X196793342Y-101001329D01*
X196705881Y-101257695D01*
X196656680Y-101524066D01*
X196646787Y-101794764D01*
X187701714Y-101794764D01*
X188106496Y-101389982D01*
X190286524Y-99209953D01*
X190315035Y-99188663D01*
X190348420Y-99176347D01*
X190525803Y-99138644D01*
X190698730Y-99061651D01*
X190838542Y-98960072D01*
X190851870Y-98950389D01*
X190889088Y-98909055D01*
X190978533Y-98809716D01*
X191073179Y-98645784D01*
X191131674Y-98465756D01*
X191151460Y-98277500D01*
X191131674Y-98089244D01*
X191081471Y-97934735D01*
X191073179Y-97909215D01*
X190978533Y-97745283D01*
X190851870Y-97604610D01*
X190698730Y-97493348D01*
X190525802Y-97416355D01*
X190340648Y-97377000D01*
X190340646Y-97377000D01*
X190151354Y-97377000D01*
X190151352Y-97377000D01*
X189966197Y-97416355D01*
X189793269Y-97493348D01*
X189640128Y-97604611D01*
X189594835Y-97654914D01*
X189543873Y-97688901D01*
X189482860Y-97694346D01*
X189426685Y-97669920D01*
X189389057Y-97621584D01*
X189379158Y-97561133D01*
X189391824Y-97416356D01*
X189392468Y-97409000D01*
X189372635Y-97182308D01*
X189313739Y-96962504D01*
X189217568Y-96756266D01*
X189205793Y-96739450D01*
X189087046Y-96569859D01*
X188926140Y-96408953D01*
X188739735Y-96278432D01*
X188533497Y-96182261D01*
X188313689Y-96123364D01*
X188087000Y-96103531D01*
X187860310Y-96123364D01*
X187640502Y-96182261D01*
X187434264Y-96278432D01*
X187247859Y-96408953D01*
X187086953Y-96569859D01*
X186956433Y-96756263D01*
X186929382Y-96814275D01*
X186883625Y-96866450D01*
X186817000Y-96885869D01*
X186750375Y-96866450D01*
X186704618Y-96814275D01*
X186677568Y-96756266D01*
X186677566Y-96756263D01*
X186547046Y-96569859D01*
X186386140Y-96408953D01*
X186199735Y-96278432D01*
X185993497Y-96182261D01*
X185773689Y-96123364D01*
X185547000Y-96103531D01*
X185309501Y-96124310D01*
X185309386Y-96123002D01*
X185257473Y-96123001D01*
X185201887Y-96090908D01*
X185003160Y-95892181D01*
X184972910Y-95842818D01*
X184968368Y-95785102D01*
X184990523Y-95731615D01*
X185034546Y-95694015D01*
X185090841Y-95680500D01*
X195710962Y-95680500D01*
X195718449Y-95680726D01*
X195721069Y-95680884D01*
X195777346Y-95684289D01*
X195835415Y-95673646D01*
X195842770Y-95672526D01*
X195901358Y-95665414D01*
X195910470Y-95661957D01*
X195932098Y-95655928D01*
X195941685Y-95654172D01*
X195995491Y-95629954D01*
X196002396Y-95627095D01*
X196057578Y-95606168D01*
X196065607Y-95600626D01*
X196085157Y-95589600D01*
X196094043Y-95585601D01*
X196140516Y-95549190D01*
X196146489Y-95544796D01*
X196195079Y-95511258D01*
X196234218Y-95467076D01*
X196239320Y-95461657D01*
X196572526Y-95128451D01*
X196617794Y-95099612D01*
X196671012Y-95092606D01*
X196872999Y-95110277D01*
X196872999Y-95110276D01*
X196873000Y-95110277D01*
X197074986Y-95092606D01*
X197128203Y-95099612D01*
G37*
G04 #@! TD.AperFunction*
G04 #@! TA.AperFunction,Conductor*
G36*
X181644500Y-104927113D02*
G01*
X181689887Y-104972500D01*
X181706500Y-105034500D01*
X181706501Y-105785500D01*
X181689888Y-105847500D01*
X181644501Y-105892887D01*
X181582501Y-105909500D01*
X172189137Y-105909500D01*
X172134293Y-105896712D01*
X172090761Y-105860987D01*
X172067520Y-105809691D01*
X172069362Y-105753407D01*
X172100635Y-105636691D01*
X172120468Y-105410000D01*
X172100635Y-105183308D01*
X172069362Y-105066593D01*
X172067520Y-105010309D01*
X172090761Y-104959013D01*
X172134293Y-104923288D01*
X172189137Y-104910500D01*
X181582500Y-104910500D01*
X181644500Y-104927113D01*
G37*
G04 #@! TD.AperFunction*
G04 #@! TA.AperFunction,Conductor*
G36*
X140443747Y-102300726D02*
G01*
X140830840Y-102687819D01*
X140861090Y-102737182D01*
X140865632Y-102794898D01*
X140843477Y-102848385D01*
X140799454Y-102885985D01*
X140743159Y-102899500D01*
X140023044Y-102899500D01*
X140015557Y-102899274D01*
X139956651Y-102895710D01*
X139898610Y-102906346D01*
X139891211Y-102907472D01*
X139832641Y-102914585D01*
X139823517Y-102918045D01*
X139801916Y-102924066D01*
X139792315Y-102925826D01*
X139738501Y-102950045D01*
X139731585Y-102952910D01*
X139676423Y-102973831D01*
X139668391Y-102979375D01*
X139648850Y-102990396D01*
X139639953Y-102994400D01*
X139593505Y-103030789D01*
X139587476Y-103035226D01*
X139538917Y-103068744D01*
X139499787Y-103112912D01*
X139494655Y-103118364D01*
X139174838Y-103438181D01*
X139134610Y-103465061D01*
X139087157Y-103474500D01*
X137963130Y-103474500D01*
X137903515Y-103480909D01*
X137768669Y-103531204D01*
X137653454Y-103617454D01*
X137567204Y-103732668D01*
X137532780Y-103824963D01*
X137516909Y-103867517D01*
X137511967Y-103913488D01*
X137510500Y-103927131D01*
X137510500Y-105051158D01*
X137501061Y-105098611D01*
X137474181Y-105138839D01*
X137247840Y-105365181D01*
X137207612Y-105392061D01*
X137160159Y-105401500D01*
X135040024Y-105401500D01*
X134979908Y-105385953D01*
X134934866Y-105343210D01*
X134916194Y-105283990D01*
X134928573Y-105223142D01*
X134964269Y-105181346D01*
X134964472Y-105179025D01*
X134239001Y-104453553D01*
X134239000Y-104453553D01*
X133513526Y-105179025D01*
X133513729Y-105181349D01*
X133549424Y-105223142D01*
X133561804Y-105283990D01*
X133543132Y-105343210D01*
X133498090Y-105385953D01*
X133437974Y-105401500D01*
X132344840Y-105401500D01*
X132288545Y-105387985D01*
X132244522Y-105350385D01*
X132222367Y-105296898D01*
X132226909Y-105239182D01*
X132257159Y-105189819D01*
X132395820Y-105051158D01*
X132851872Y-104595105D01*
X132902260Y-104564529D01*
X132961080Y-104560674D01*
X133015034Y-104584414D01*
X133051930Y-104630385D01*
X133108866Y-104752483D01*
X133159972Y-104825471D01*
X133159973Y-104825472D01*
X133885445Y-104100001D01*
X134592553Y-104100001D01*
X135318025Y-104825472D01*
X135369134Y-104752480D01*
X135465266Y-104546326D01*
X135524141Y-104326602D01*
X135543966Y-104100000D01*
X135524141Y-103873397D01*
X135465266Y-103653673D01*
X135369133Y-103447515D01*
X135318025Y-103374526D01*
X134592553Y-104100000D01*
X134592553Y-104100001D01*
X133885445Y-104100001D01*
X134239000Y-103746447D01*
X134964472Y-103020974D01*
X134964471Y-103020972D01*
X134891484Y-102969866D01*
X134769386Y-102912931D01*
X134723415Y-102876035D01*
X134699675Y-102822081D01*
X134703530Y-102763261D01*
X134734108Y-102712870D01*
X134995659Y-102451319D01*
X135035888Y-102424439D01*
X135083341Y-102415000D01*
X138947639Y-102415000D01*
X138985957Y-102421069D01*
X139020523Y-102438681D01*
X139120270Y-102511151D01*
X139120271Y-102511151D01*
X139120272Y-102511152D01*
X139293197Y-102588144D01*
X139478352Y-102627500D01*
X139478354Y-102627500D01*
X139667646Y-102627500D01*
X139667648Y-102627500D01*
X139791083Y-102601262D01*
X139852803Y-102588144D01*
X140025730Y-102511151D01*
X140178871Y-102399888D01*
X140263918Y-102305433D01*
X140319811Y-102269825D01*
X140386064Y-102268090D01*
X140443747Y-102300726D01*
G37*
G04 #@! TD.AperFunction*
G04 #@! TA.AperFunction,Conductor*
G36*
X125500203Y-95099612D02*
G01*
X125545474Y-95128453D01*
X125878662Y-95461641D01*
X125883782Y-95467079D01*
X125922921Y-95511258D01*
X125971485Y-95544779D01*
X125977501Y-95549205D01*
X126023957Y-95585601D01*
X126032847Y-95589602D01*
X126052393Y-95600626D01*
X126060422Y-95606168D01*
X126115603Y-95627095D01*
X126122503Y-95629953D01*
X126176315Y-95654172D01*
X126185902Y-95655928D01*
X126207521Y-95661954D01*
X126216642Y-95665414D01*
X126275228Y-95672526D01*
X126282588Y-95673647D01*
X126340654Y-95684289D01*
X126397073Y-95680875D01*
X126399551Y-95680726D01*
X126407038Y-95680500D01*
X126734485Y-95680500D01*
X126792700Y-95695015D01*
X126837286Y-95735160D01*
X126857805Y-95791536D01*
X126865118Y-95861117D01*
X126876326Y-95967757D01*
X126934820Y-96147784D01*
X127029466Y-96311716D01*
X127156129Y-96452389D01*
X127309269Y-96563651D01*
X127482197Y-96640644D01*
X127667352Y-96680000D01*
X127667354Y-96680000D01*
X127856646Y-96680000D01*
X127856648Y-96680000D01*
X127980083Y-96653762D01*
X128041803Y-96640644D01*
X128214730Y-96563651D01*
X128219377Y-96560275D01*
X128367870Y-96452389D01*
X128503254Y-96302031D01*
X128505048Y-96303646D01*
X128536580Y-96272114D01*
X128598581Y-96255500D01*
X137615017Y-96255500D01*
X137679345Y-96273491D01*
X137725006Y-96322243D01*
X137738752Y-96387609D01*
X137716593Y-96450621D01*
X137680434Y-96502263D01*
X137680430Y-96502269D01*
X137584261Y-96708502D01*
X137525364Y-96928310D01*
X137505531Y-97155000D01*
X137525364Y-97381689D01*
X137584261Y-97601497D01*
X137600207Y-97635692D01*
X137643482Y-97728496D01*
X137650580Y-97743716D01*
X137661933Y-97804230D01*
X137642779Y-97862746D01*
X137597841Y-97904835D01*
X137538198Y-97920121D01*
X135762841Y-97920121D01*
X135715388Y-97910682D01*
X135675160Y-97883802D01*
X135112223Y-97320865D01*
X135107089Y-97315412D01*
X135096548Y-97303514D01*
X135067958Y-97271242D01*
X135019385Y-97237714D01*
X135013368Y-97233286D01*
X134966922Y-97196899D01*
X134958028Y-97192895D01*
X134938488Y-97181875D01*
X134930456Y-97176331D01*
X134875280Y-97155405D01*
X134868363Y-97152540D01*
X134814562Y-97128326D01*
X134804966Y-97126568D01*
X134783353Y-97120543D01*
X134774237Y-97117086D01*
X134715670Y-97109974D01*
X134708267Y-97108847D01*
X134650226Y-97098211D01*
X134650225Y-97098211D01*
X134616947Y-97100224D01*
X134591328Y-97101774D01*
X134583841Y-97102000D01*
X124086527Y-97102000D01*
X124079040Y-97101774D01*
X124020151Y-97098211D01*
X123962128Y-97108844D01*
X123954729Y-97109971D01*
X123896140Y-97117086D01*
X123887014Y-97120547D01*
X123865407Y-97126570D01*
X123855814Y-97128328D01*
X123802019Y-97152538D01*
X123795106Y-97155402D01*
X123739918Y-97176333D01*
X123731882Y-97181880D01*
X123712353Y-97192894D01*
X123703455Y-97196899D01*
X123657023Y-97233276D01*
X123650993Y-97237714D01*
X123602420Y-97271242D01*
X123563281Y-97315420D01*
X123558148Y-97320872D01*
X122030206Y-98848813D01*
X121977460Y-98880109D01*
X121916167Y-98882298D01*
X121861323Y-98854845D01*
X121815230Y-98814905D01*
X121694153Y-98737095D01*
X121563371Y-98677368D01*
X121495773Y-98652156D01*
X121425275Y-98636819D01*
X121282960Y-98616357D01*
X121211000Y-98611210D01*
X121147606Y-98615745D01*
X121143525Y-98616037D01*
X121134680Y-98616353D01*
X120787320Y-98616353D01*
X120778474Y-98616037D01*
X120774099Y-98615724D01*
X120710999Y-98611210D01*
X120639039Y-98616357D01*
X120496724Y-98636819D01*
X120426226Y-98652156D01*
X120358628Y-98677368D01*
X120227846Y-98737095D01*
X120106770Y-98814905D01*
X119998114Y-98909055D01*
X119947097Y-98960072D01*
X119903865Y-99017823D01*
X119867319Y-99074690D01*
X119851055Y-99099999D01*
X119826128Y-99138786D01*
X119766341Y-99269700D01*
X119725835Y-99407653D01*
X119705353Y-99550112D01*
X119705353Y-100172001D01*
X119718213Y-100269686D01*
X119718563Y-100299126D01*
X119710500Y-100374121D01*
X119710500Y-101469869D01*
X119713440Y-101497216D01*
X119716909Y-101529483D01*
X119767204Y-101664331D01*
X119853454Y-101779546D01*
X119968669Y-101865796D01*
X120103517Y-101916091D01*
X120163127Y-101922500D01*
X121758872Y-101922499D01*
X121818483Y-101916091D01*
X121953331Y-101865796D01*
X122068546Y-101779546D01*
X122154796Y-101664331D01*
X122205091Y-101529483D01*
X122211500Y-101469873D01*
X122211499Y-101243848D01*
X122220938Y-101196396D01*
X122247815Y-101156170D01*
X122292821Y-101111164D01*
X122342182Y-101080916D01*
X122399898Y-101076374D01*
X122453385Y-101098529D01*
X122490985Y-101142552D01*
X122504500Y-101198847D01*
X122504500Y-101469869D01*
X122507440Y-101497216D01*
X122510909Y-101529483D01*
X122561204Y-101664331D01*
X122647454Y-101779546D01*
X122762669Y-101865796D01*
X122897517Y-101916091D01*
X122957127Y-101922500D01*
X124552872Y-101922499D01*
X124612483Y-101916091D01*
X124747331Y-101865796D01*
X124862546Y-101779546D01*
X124948796Y-101664331D01*
X124999091Y-101529483D01*
X125005500Y-101469873D01*
X125005499Y-101243848D01*
X125014938Y-101196396D01*
X125041815Y-101156170D01*
X125086821Y-101111164D01*
X125136182Y-101080916D01*
X125193898Y-101076374D01*
X125247385Y-101098529D01*
X125284985Y-101142552D01*
X125298500Y-101198847D01*
X125298500Y-101469869D01*
X125301440Y-101497216D01*
X125304909Y-101529483D01*
X125355204Y-101664331D01*
X125441454Y-101779546D01*
X125556669Y-101865796D01*
X125691517Y-101916091D01*
X125751127Y-101922500D01*
X127346872Y-101922499D01*
X127406483Y-101916091D01*
X127541331Y-101865796D01*
X127656546Y-101779546D01*
X127742796Y-101664331D01*
X127742796Y-101664328D01*
X127746270Y-101659689D01*
X127790033Y-101623116D01*
X127845537Y-101610000D01*
X133591659Y-101610000D01*
X133647954Y-101623515D01*
X133691977Y-101661115D01*
X133714132Y-101714602D01*
X133709590Y-101772318D01*
X133679340Y-101821681D01*
X131323340Y-104177681D01*
X131283112Y-104204561D01*
X131235659Y-104214000D01*
X116105499Y-104214000D01*
X116043499Y-104197387D01*
X115998112Y-104152000D01*
X115981499Y-104090000D01*
X115981499Y-104054130D01*
X115981499Y-104054127D01*
X115975091Y-103994517D01*
X115924796Y-103859669D01*
X115838546Y-103744454D01*
X115723331Y-103658204D01*
X115588483Y-103607909D01*
X115528873Y-103601500D01*
X115528869Y-103601500D01*
X113833130Y-103601500D01*
X113773515Y-103607909D01*
X113638669Y-103658204D01*
X113523452Y-103744454D01*
X113510266Y-103762070D01*
X113466504Y-103798642D01*
X113411000Y-103811758D01*
X113355496Y-103798642D01*
X113311734Y-103762070D01*
X113298547Y-103744454D01*
X113183331Y-103658204D01*
X113048483Y-103607909D01*
X113048482Y-103607908D01*
X112988873Y-103601500D01*
X112988869Y-103601500D01*
X111293130Y-103601500D01*
X111233515Y-103607909D01*
X111098669Y-103658204D01*
X110983452Y-103744454D01*
X110970266Y-103762070D01*
X110926504Y-103798642D01*
X110871000Y-103811758D01*
X110815496Y-103798642D01*
X110771734Y-103762070D01*
X110758547Y-103744454D01*
X110643331Y-103658204D01*
X110508483Y-103607909D01*
X110508482Y-103607908D01*
X110448873Y-103601500D01*
X110448869Y-103601500D01*
X108753130Y-103601500D01*
X108693515Y-103607909D01*
X108558669Y-103658204D01*
X108443454Y-103744454D01*
X108357204Y-103859668D01*
X108306909Y-103994515D01*
X108306909Y-103994517D01*
X108300500Y-104054127D01*
X108300500Y-104726849D01*
X108300501Y-105277500D01*
X108283888Y-105339500D01*
X108238501Y-105384887D01*
X108176501Y-105401500D01*
X91359280Y-105401500D01*
X91311827Y-105392061D01*
X91271599Y-105365181D01*
X90612598Y-104706180D01*
X90582348Y-104656817D01*
X90577806Y-104599101D01*
X90599961Y-104545614D01*
X90643984Y-104508014D01*
X90700279Y-104494499D01*
X91319009Y-104494499D01*
X91405693Y-104485644D01*
X91421797Y-104483999D01*
X91588334Y-104428814D01*
X91737656Y-104336712D01*
X91861712Y-104212656D01*
X91953814Y-104063334D01*
X92008999Y-103896797D01*
X92019500Y-103794009D01*
X92019499Y-102453992D01*
X92019364Y-102452675D01*
X92008999Y-102351203D01*
X91994056Y-102306109D01*
X91953814Y-102184666D01*
X91861712Y-102035344D01*
X91861711Y-102035342D01*
X91737657Y-101911288D01*
X91575999Y-101811578D01*
X91577812Y-101808637D01*
X91547030Y-101788584D01*
X91517954Y-101732613D01*
X91520173Y-101669580D01*
X91521285Y-101667764D01*
X98221787Y-101667764D01*
X98251413Y-101937016D01*
X98284616Y-102064018D01*
X98319928Y-102199088D01*
X98406513Y-102402839D01*
X98425871Y-102448392D01*
X98566982Y-102679611D01*
X98725009Y-102869500D01*
X98740255Y-102887820D01*
X98941998Y-103068582D01*
X99167910Y-103218044D01*
X99258383Y-103260456D01*
X99413177Y-103333021D01*
X99672562Y-103411058D01*
X99672569Y-103411060D01*
X99940561Y-103450500D01*
X100143631Y-103450500D01*
X100143634Y-103450500D01*
X100346156Y-103435677D01*
X100346156Y-103435676D01*
X100610553Y-103376780D01*
X100863558Y-103280014D01*
X101099777Y-103147441D01*
X101314177Y-102981888D01*
X101502186Y-102786881D01*
X101659799Y-102566579D01*
X101783656Y-102325675D01*
X101871118Y-102069305D01*
X101920319Y-101802933D01*
X101930212Y-101532235D01*
X101900586Y-101262982D01*
X101832072Y-101000912D01*
X101726130Y-100751610D01*
X101616078Y-100571284D01*
X101585017Y-100520388D01*
X101411746Y-100312181D01*
X101306758Y-100218112D01*
X101210002Y-100131418D01*
X100984090Y-99981956D01*
X100947425Y-99964768D01*
X100738822Y-99866978D01*
X100479437Y-99788941D01*
X100479431Y-99788940D01*
X100211439Y-99749500D01*
X100008369Y-99749500D01*
X100008366Y-99749500D01*
X99805843Y-99764322D01*
X99541449Y-99823219D01*
X99288441Y-99919986D01*
X99052223Y-100052559D01*
X98837825Y-100218109D01*
X98649813Y-100413120D01*
X98492201Y-100633420D01*
X98368342Y-100874329D01*
X98280881Y-101130695D01*
X98231680Y-101397066D01*
X98221787Y-101667764D01*
X91521285Y-101667764D01*
X91553110Y-101615794D01*
X91681516Y-101492728D01*
X91820240Y-101305161D01*
X91925270Y-101096847D01*
X91993583Y-100873780D01*
X92023216Y-100642376D01*
X92013314Y-100409293D01*
X91964164Y-100181235D01*
X91964008Y-100180848D01*
X91893760Y-100006029D01*
X91877179Y-99964765D01*
X91754862Y-99766109D01*
X91600731Y-99590982D01*
X91600729Y-99590980D01*
X91419221Y-99444421D01*
X91378897Y-99421895D01*
X91333782Y-99378655D01*
X91315484Y-99318904D01*
X91328649Y-99257816D01*
X91369933Y-99210909D01*
X91513088Y-99114153D01*
X91681516Y-98952728D01*
X91735225Y-98880109D01*
X91807591Y-98782265D01*
X91851461Y-98745277D01*
X91907286Y-98732000D01*
X103205462Y-98732000D01*
X103212949Y-98732226D01*
X103215569Y-98732384D01*
X103271846Y-98735789D01*
X103329915Y-98725146D01*
X103337270Y-98724026D01*
X103395858Y-98716914D01*
X103404970Y-98713457D01*
X103426598Y-98707428D01*
X103436185Y-98705672D01*
X103489996Y-98681453D01*
X103496890Y-98678597D01*
X103552078Y-98657668D01*
X103560104Y-98652127D01*
X103579657Y-98641100D01*
X103588543Y-98637101D01*
X103635016Y-98600690D01*
X103640989Y-98596296D01*
X103689579Y-98562758D01*
X103728718Y-98518576D01*
X103733820Y-98513157D01*
X103937562Y-98309415D01*
X103991582Y-98277754D01*
X104054188Y-98276524D01*
X104109413Y-98306042D01*
X104143172Y-98358780D01*
X104143325Y-98359253D01*
X104143326Y-98359256D01*
X104159504Y-98409046D01*
X104201820Y-98539284D01*
X104296466Y-98703216D01*
X104423129Y-98843889D01*
X104576269Y-98955151D01*
X104749197Y-99032145D01*
X104926576Y-99069847D01*
X104959963Y-99082164D01*
X104988477Y-99103456D01*
X107319162Y-101434141D01*
X107324282Y-101439579D01*
X107363421Y-101483758D01*
X107411986Y-101517279D01*
X107418004Y-101521708D01*
X107427765Y-101529355D01*
X107464457Y-101558102D01*
X107473352Y-101562105D01*
X107492893Y-101573126D01*
X107500922Y-101578668D01*
X107556077Y-101599585D01*
X107562999Y-101602452D01*
X107616815Y-101626673D01*
X107626415Y-101628432D01*
X107648026Y-101634456D01*
X107657142Y-101637914D01*
X107715723Y-101645027D01*
X107723069Y-101646144D01*
X107781154Y-101656789D01*
X107840056Y-101653226D01*
X107847544Y-101653000D01*
X117738639Y-101653000D01*
X117776957Y-101659069D01*
X117811523Y-101676681D01*
X117911270Y-101749151D01*
X117911271Y-101749151D01*
X117911272Y-101749152D01*
X118084197Y-101826144D01*
X118269352Y-101865500D01*
X118269354Y-101865500D01*
X118458646Y-101865500D01*
X118458648Y-101865500D01*
X118591064Y-101837354D01*
X118643803Y-101826144D01*
X118816730Y-101749151D01*
X118900815Y-101688060D01*
X118969870Y-101637889D01*
X118982813Y-101623515D01*
X119096533Y-101497216D01*
X119191179Y-101333284D01*
X119249674Y-101153256D01*
X119269460Y-100965000D01*
X119249674Y-100776744D01*
X119207644Y-100647390D01*
X119191179Y-100596715D01*
X119096533Y-100432783D01*
X118969870Y-100292110D01*
X118816730Y-100180848D01*
X118643802Y-100103855D01*
X118458648Y-100064500D01*
X118458646Y-100064500D01*
X118269354Y-100064500D01*
X118269352Y-100064500D01*
X118084197Y-100103855D01*
X117911272Y-100180847D01*
X117811525Y-100253318D01*
X117776957Y-100270931D01*
X117738639Y-100277000D01*
X108159341Y-100277000D01*
X108111888Y-100267561D01*
X108071660Y-100240681D01*
X105957580Y-98126601D01*
X105933340Y-98092303D01*
X105921940Y-98051882D01*
X105914674Y-97982744D01*
X105857810Y-97807735D01*
X105856179Y-97802715D01*
X105761533Y-97638783D01*
X105634870Y-97498110D01*
X105481730Y-97386848D01*
X105308802Y-97309855D01*
X105225665Y-97292184D01*
X105205995Y-97281999D01*
X108295531Y-97281999D01*
X108315364Y-97508689D01*
X108374261Y-97728497D01*
X108470432Y-97934735D01*
X108600953Y-98121140D01*
X108761859Y-98282046D01*
X108948264Y-98412567D01*
X108948265Y-98412567D01*
X108948266Y-98412568D01*
X109154504Y-98508739D01*
X109374308Y-98567635D01*
X109601000Y-98587468D01*
X109827692Y-98567635D01*
X110047496Y-98508739D01*
X110253734Y-98412568D01*
X110440139Y-98282047D01*
X110601047Y-98121139D01*
X110731568Y-97934734D01*
X110758618Y-97876724D01*
X110804375Y-97824549D01*
X110871000Y-97805129D01*
X110937625Y-97824549D01*
X110983382Y-97876725D01*
X111010431Y-97934733D01*
X111140953Y-98121140D01*
X111301859Y-98282046D01*
X111488264Y-98412567D01*
X111488265Y-98412567D01*
X111488266Y-98412568D01*
X111694504Y-98508739D01*
X111914308Y-98567635D01*
X112141000Y-98587468D01*
X112367692Y-98567635D01*
X112587496Y-98508739D01*
X112793734Y-98412568D01*
X112980139Y-98282047D01*
X113141047Y-98121139D01*
X113271568Y-97934734D01*
X113298618Y-97876724D01*
X113344375Y-97824549D01*
X113411000Y-97805129D01*
X113477625Y-97824549D01*
X113523382Y-97876725D01*
X113550431Y-97934733D01*
X113680953Y-98121140D01*
X113841859Y-98282046D01*
X114028264Y-98412567D01*
X114028265Y-98412567D01*
X114028266Y-98412568D01*
X114234504Y-98508739D01*
X114454308Y-98567635D01*
X114681000Y-98587468D01*
X114907692Y-98567635D01*
X115127496Y-98508739D01*
X115333734Y-98412568D01*
X115520139Y-98282047D01*
X115681047Y-98121139D01*
X115811568Y-97934734D01*
X115907739Y-97728496D01*
X115966635Y-97508692D01*
X115986468Y-97282000D01*
X115982593Y-97237714D01*
X115975142Y-97152540D01*
X115966635Y-97055308D01*
X115907739Y-96835504D01*
X115811568Y-96629266D01*
X115799793Y-96612450D01*
X115681046Y-96442859D01*
X115520140Y-96281953D01*
X115333735Y-96151432D01*
X115127497Y-96055261D01*
X114907689Y-95996364D01*
X114681000Y-95976531D01*
X114454310Y-95996364D01*
X114234502Y-96055261D01*
X114028264Y-96151432D01*
X113841859Y-96281953D01*
X113680953Y-96442859D01*
X113550433Y-96629263D01*
X113523382Y-96687275D01*
X113477625Y-96739450D01*
X113411000Y-96758869D01*
X113344375Y-96739450D01*
X113298618Y-96687275D01*
X113295226Y-96680000D01*
X113271568Y-96629266D01*
X113271566Y-96629263D01*
X113141046Y-96442859D01*
X112980140Y-96281953D01*
X112793735Y-96151432D01*
X112587497Y-96055261D01*
X112367689Y-95996364D01*
X112141000Y-95976531D01*
X111914310Y-95996364D01*
X111694502Y-96055261D01*
X111488264Y-96151432D01*
X111301859Y-96281953D01*
X111140953Y-96442859D01*
X111010433Y-96629263D01*
X110983382Y-96687275D01*
X110937625Y-96739450D01*
X110871000Y-96758869D01*
X110804375Y-96739450D01*
X110758618Y-96687275D01*
X110755226Y-96680000D01*
X110731568Y-96629266D01*
X110731566Y-96629263D01*
X110601046Y-96442859D01*
X110440140Y-96281953D01*
X110253735Y-96151432D01*
X110047497Y-96055261D01*
X109827689Y-95996364D01*
X109601000Y-95976531D01*
X109374310Y-95996364D01*
X109154502Y-96055261D01*
X108948264Y-96151432D01*
X108761859Y-96281953D01*
X108600953Y-96442859D01*
X108470432Y-96629264D01*
X108374261Y-96835502D01*
X108315364Y-97055310D01*
X108295531Y-97281999D01*
X105205995Y-97281999D01*
X105167275Y-97261950D01*
X105132552Y-97206112D01*
X105131261Y-97140371D01*
X105163763Y-97083215D01*
X107118526Y-95128451D01*
X107163794Y-95099612D01*
X107217012Y-95092606D01*
X107418999Y-95110277D01*
X107418999Y-95110276D01*
X107419000Y-95110277D01*
X107620986Y-95092606D01*
X107674203Y-95099612D01*
X107719474Y-95128453D01*
X108052662Y-95461641D01*
X108057782Y-95467079D01*
X108096921Y-95511258D01*
X108145485Y-95544779D01*
X108151501Y-95549205D01*
X108197957Y-95585601D01*
X108206847Y-95589602D01*
X108226393Y-95600626D01*
X108234422Y-95606168D01*
X108289603Y-95627095D01*
X108296503Y-95629953D01*
X108350315Y-95654172D01*
X108359902Y-95655928D01*
X108381521Y-95661954D01*
X108390642Y-95665414D01*
X108449228Y-95672526D01*
X108456588Y-95673647D01*
X108514654Y-95684289D01*
X108571073Y-95680875D01*
X108573551Y-95680726D01*
X108581038Y-95680500D01*
X124082962Y-95680500D01*
X124090449Y-95680726D01*
X124093069Y-95680884D01*
X124149346Y-95684289D01*
X124207415Y-95673646D01*
X124214770Y-95672526D01*
X124273358Y-95665414D01*
X124282470Y-95661957D01*
X124304098Y-95655928D01*
X124313685Y-95654172D01*
X124367491Y-95629954D01*
X124374396Y-95627095D01*
X124429578Y-95606168D01*
X124437607Y-95600626D01*
X124457157Y-95589600D01*
X124466043Y-95585601D01*
X124512516Y-95549190D01*
X124518489Y-95544796D01*
X124567079Y-95511258D01*
X124606218Y-95467076D01*
X124611320Y-95461657D01*
X124944526Y-95128451D01*
X124989794Y-95099612D01*
X125043012Y-95092606D01*
X125244999Y-95110277D01*
X125244999Y-95110276D01*
X125245000Y-95110277D01*
X125446986Y-95092606D01*
X125500203Y-95099612D01*
G37*
G04 #@! TD.AperFunction*
G04 #@! TA.AperFunction,Conductor*
G36*
X181644780Y-97273462D02*
G01*
X181690494Y-97323350D01*
X181703211Y-97389809D01*
X181701531Y-97409001D01*
X181721364Y-97635689D01*
X181780261Y-97855497D01*
X181876432Y-98061735D01*
X182006953Y-98248140D01*
X182167859Y-98409046D01*
X182354264Y-98539567D01*
X182354265Y-98539567D01*
X182354266Y-98539568D01*
X182560504Y-98635739D01*
X182780308Y-98694635D01*
X183007000Y-98714468D01*
X183233692Y-98694635D01*
X183453496Y-98635739D01*
X183659734Y-98539568D01*
X183846139Y-98409047D01*
X184007047Y-98248139D01*
X184137568Y-98061734D01*
X184164618Y-98003724D01*
X184210375Y-97951549D01*
X184277000Y-97932129D01*
X184343625Y-97951549D01*
X184389382Y-98003725D01*
X184416431Y-98061733D01*
X184546953Y-98248140D01*
X184707859Y-98409046D01*
X184894264Y-98539567D01*
X184894265Y-98539567D01*
X184894266Y-98539568D01*
X185100504Y-98635739D01*
X185320308Y-98694635D01*
X185547000Y-98714468D01*
X185773692Y-98694635D01*
X185993496Y-98635739D01*
X186199734Y-98539568D01*
X186386139Y-98409047D01*
X186547047Y-98248139D01*
X186677568Y-98061734D01*
X186704618Y-98003724D01*
X186750375Y-97951549D01*
X186817000Y-97932129D01*
X186883625Y-97951549D01*
X186929382Y-98003725D01*
X186956431Y-98061733D01*
X187086953Y-98248140D01*
X187247859Y-98409046D01*
X187434264Y-98539567D01*
X187434265Y-98539567D01*
X187434266Y-98539568D01*
X187640504Y-98635739D01*
X187860308Y-98694635D01*
X188087000Y-98714468D01*
X188313692Y-98694635D01*
X188533496Y-98635739D01*
X188610579Y-98599794D01*
X188678092Y-98589101D01*
X188741016Y-98615810D01*
X188780225Y-98671806D01*
X188783803Y-98740071D01*
X188750662Y-98799858D01*
X184769840Y-102780681D01*
X184729612Y-102807561D01*
X184682159Y-102817000D01*
X168392361Y-102817000D01*
X168354043Y-102810931D01*
X168319475Y-102793318D01*
X168310615Y-102786881D01*
X168219730Y-102720849D01*
X168219729Y-102720848D01*
X168219727Y-102720847D01*
X168046802Y-102643855D01*
X167861648Y-102604500D01*
X167861646Y-102604500D01*
X167672354Y-102604500D01*
X167672352Y-102604500D01*
X167487197Y-102643855D01*
X167314269Y-102720848D01*
X167161129Y-102832110D01*
X167034466Y-102972783D01*
X166939820Y-103136715D01*
X166881326Y-103316742D01*
X166876168Y-103365812D01*
X166869434Y-103429898D01*
X166868621Y-103437630D01*
X166845225Y-103498092D01*
X166794514Y-103538483D01*
X166730351Y-103547763D01*
X166716731Y-103546110D01*
X166686790Y-103542474D01*
X166679388Y-103541347D01*
X166621347Y-103530711D01*
X166621346Y-103530711D01*
X166613197Y-103531204D01*
X166562449Y-103534274D01*
X166554962Y-103534500D01*
X166342841Y-103534500D01*
X166286546Y-103520985D01*
X166242523Y-103483385D01*
X166220368Y-103429898D01*
X166224910Y-103372182D01*
X166255160Y-103322819D01*
X167308154Y-102269825D01*
X170469888Y-99108089D01*
X170525478Y-99075996D01*
X170577385Y-99075998D01*
X170577500Y-99074690D01*
X170815000Y-99095468D01*
X171041692Y-99075635D01*
X171261496Y-99016739D01*
X171467734Y-98920568D01*
X171654139Y-98790047D01*
X171815047Y-98629139D01*
X171945568Y-98442734D01*
X172041739Y-98236496D01*
X172100635Y-98016692D01*
X172120468Y-97790000D01*
X172100635Y-97563308D01*
X172059848Y-97411091D01*
X172058007Y-97354809D01*
X172081248Y-97303514D01*
X172124780Y-97267788D01*
X172179624Y-97255000D01*
X181579683Y-97255000D01*
X181644780Y-97273462D01*
G37*
G04 #@! TD.AperFunction*
G04 #@! TA.AperFunction,Conductor*
G36*
X166457737Y-97267788D02*
G01*
X166501269Y-97303514D01*
X166524510Y-97354809D01*
X166522668Y-97411093D01*
X166488127Y-97539999D01*
X166488128Y-97540000D01*
X169045872Y-97540000D01*
X169045872Y-97539999D01*
X169011332Y-97411093D01*
X169009490Y-97354809D01*
X169032731Y-97303514D01*
X169076263Y-97267788D01*
X169131107Y-97255000D01*
X169450376Y-97255000D01*
X169505220Y-97267788D01*
X169548752Y-97303514D01*
X169571993Y-97354809D01*
X169570151Y-97411091D01*
X169562394Y-97440042D01*
X169529364Y-97563310D01*
X169509531Y-97789999D01*
X169530310Y-98027499D01*
X169529001Y-98027613D01*
X169529002Y-98079522D01*
X169496908Y-98135111D01*
X169138913Y-98493106D01*
X169079126Y-98526247D01*
X169010861Y-98522669D01*
X168954866Y-98483460D01*
X168928156Y-98420536D01*
X168938850Y-98353020D01*
X168993266Y-98236325D01*
X169045872Y-98040000D01*
X168017000Y-98040000D01*
X168017000Y-99068871D01*
X168213325Y-99016266D01*
X168330020Y-98961850D01*
X168397536Y-98951156D01*
X168460460Y-98977866D01*
X168499669Y-99033861D01*
X168503247Y-99102126D01*
X168470106Y-99161913D01*
X165105340Y-102526681D01*
X165065112Y-102553561D01*
X165017659Y-102563000D01*
X161345341Y-102563000D01*
X161289046Y-102549485D01*
X161245023Y-102511885D01*
X161222868Y-102458398D01*
X161227410Y-102400682D01*
X161257660Y-102351319D01*
X162050879Y-101558100D01*
X164500888Y-99108089D01*
X164556478Y-99075996D01*
X164608385Y-99075998D01*
X164608500Y-99074690D01*
X164846000Y-99095468D01*
X165072692Y-99075635D01*
X165292496Y-99016739D01*
X165498734Y-98920568D01*
X165685139Y-98790047D01*
X165846047Y-98629139D01*
X165976568Y-98442734D01*
X166072739Y-98236496D01*
X166125390Y-98040000D01*
X166488128Y-98040000D01*
X166540733Y-98236326D01*
X166636865Y-98442480D01*
X166767341Y-98628819D01*
X166928180Y-98789658D01*
X167114519Y-98920134D01*
X167320673Y-99016266D01*
X167516999Y-99068871D01*
X167517000Y-99068872D01*
X167517000Y-98040000D01*
X166488128Y-98040000D01*
X166125390Y-98040000D01*
X166131635Y-98016692D01*
X166151468Y-97790000D01*
X166131635Y-97563308D01*
X166090848Y-97411091D01*
X166089007Y-97354809D01*
X166112248Y-97303514D01*
X166155780Y-97267788D01*
X166210624Y-97255000D01*
X166402893Y-97255000D01*
X166457737Y-97267788D01*
G37*
G04 #@! TD.AperFunction*
G04 #@! TA.AperFunction,Conductor*
G36*
X155387625Y-97697549D02*
G01*
X155433382Y-97749725D01*
X155460431Y-97807733D01*
X155549358Y-97934735D01*
X155590953Y-97994139D01*
X155751861Y-98155047D01*
X155850123Y-98223850D01*
X155888989Y-98268168D01*
X155903000Y-98325425D01*
X155903000Y-99924462D01*
X155902774Y-99931949D01*
X155899211Y-99990847D01*
X155909845Y-100048876D01*
X155910972Y-100056278D01*
X155918086Y-100114859D01*
X155921543Y-100123975D01*
X155927568Y-100145587D01*
X155929327Y-100155183D01*
X155953540Y-100208984D01*
X155956405Y-100215901D01*
X155977331Y-100271077D01*
X155982875Y-100279109D01*
X155993895Y-100298649D01*
X155997899Y-100307543D01*
X156034286Y-100353989D01*
X156038715Y-100360008D01*
X156072242Y-100408579D01*
X156099563Y-100432783D01*
X156116412Y-100447710D01*
X156121865Y-100452844D01*
X156341162Y-100672141D01*
X156346282Y-100677579D01*
X156385421Y-100721758D01*
X156433993Y-100755285D01*
X156440001Y-100759705D01*
X156486457Y-100796101D01*
X156495347Y-100800102D01*
X156514893Y-100811126D01*
X156522922Y-100816668D01*
X156578103Y-100837595D01*
X156585003Y-100840453D01*
X156638815Y-100864672D01*
X156648402Y-100866428D01*
X156670021Y-100872454D01*
X156679142Y-100875914D01*
X156737728Y-100883026D01*
X156745088Y-100884147D01*
X156803154Y-100894789D01*
X156859573Y-100891375D01*
X156862051Y-100891226D01*
X156869538Y-100891000D01*
X159394639Y-100891000D01*
X159432957Y-100897069D01*
X159467523Y-100914681D01*
X159567270Y-100987151D01*
X159567271Y-100987151D01*
X159567272Y-100987152D01*
X159740197Y-101064144D01*
X159925352Y-101103500D01*
X159925354Y-101103500D01*
X160114646Y-101103500D01*
X160114648Y-101103500D01*
X160270137Y-101070450D01*
X160332999Y-101073414D01*
X160386310Y-101106856D01*
X160416339Y-101162162D01*
X160415350Y-101225086D01*
X160383599Y-101279421D01*
X160073834Y-101589187D01*
X160033606Y-101616067D01*
X159986153Y-101625506D01*
X148247855Y-101625506D01*
X148209537Y-101619437D01*
X148174969Y-101601824D01*
X148171887Y-101599585D01*
X148075224Y-101529355D01*
X148075223Y-101529354D01*
X148075221Y-101529353D01*
X147902296Y-101452361D01*
X147717142Y-101413006D01*
X147717140Y-101413006D01*
X147527848Y-101413006D01*
X147527846Y-101413006D01*
X147342691Y-101452361D01*
X147169763Y-101529354D01*
X147016622Y-101640617D01*
X147005964Y-101652454D01*
X146950068Y-101688060D01*
X146883818Y-101689793D01*
X146826137Y-101657158D01*
X143838522Y-98669543D01*
X143805142Y-98608700D01*
X143809681Y-98539451D01*
X143850717Y-98483486D01*
X143915396Y-98458334D01*
X144034473Y-98447915D01*
X144117692Y-98440635D01*
X144337496Y-98381739D01*
X144543734Y-98285568D01*
X144730139Y-98155047D01*
X144891047Y-97994139D01*
X145021568Y-97807734D01*
X145048618Y-97749724D01*
X145094375Y-97697549D01*
X145161000Y-97678129D01*
X145227625Y-97697549D01*
X145273382Y-97749725D01*
X145300431Y-97807733D01*
X145430953Y-97994140D01*
X145591859Y-98155046D01*
X145778264Y-98285567D01*
X145778265Y-98285567D01*
X145778266Y-98285568D01*
X145984504Y-98381739D01*
X146204308Y-98440635D01*
X146431000Y-98460468D01*
X146657692Y-98440635D01*
X146877496Y-98381739D01*
X147083734Y-98285568D01*
X147270139Y-98155047D01*
X147431047Y-97994139D01*
X147561568Y-97807734D01*
X147588618Y-97749724D01*
X147634375Y-97697549D01*
X147701000Y-97678129D01*
X147767625Y-97697549D01*
X147813382Y-97749725D01*
X147840431Y-97807733D01*
X147970953Y-97994140D01*
X148131859Y-98155046D01*
X148318264Y-98285567D01*
X148318265Y-98285567D01*
X148318266Y-98285568D01*
X148524504Y-98381739D01*
X148744308Y-98440635D01*
X148971000Y-98460468D01*
X149197692Y-98440635D01*
X149417496Y-98381739D01*
X149623734Y-98285568D01*
X149810139Y-98155047D01*
X149971047Y-97994139D01*
X150101568Y-97807734D01*
X150128618Y-97749724D01*
X150174375Y-97697549D01*
X150241000Y-97678129D01*
X150307625Y-97697549D01*
X150353382Y-97749725D01*
X150380431Y-97807733D01*
X150510953Y-97994140D01*
X150671859Y-98155046D01*
X150858264Y-98285567D01*
X150858265Y-98285567D01*
X150858266Y-98285568D01*
X151064504Y-98381739D01*
X151284308Y-98440635D01*
X151511000Y-98460468D01*
X151737692Y-98440635D01*
X151957496Y-98381739D01*
X152163734Y-98285568D01*
X152350139Y-98155047D01*
X152511047Y-97994139D01*
X152641568Y-97807734D01*
X152668618Y-97749724D01*
X152714375Y-97697549D01*
X152781000Y-97678129D01*
X152847625Y-97697549D01*
X152893382Y-97749725D01*
X152920431Y-97807733D01*
X153050953Y-97994140D01*
X153211859Y-98155046D01*
X153398264Y-98285567D01*
X153398265Y-98285567D01*
X153398266Y-98285568D01*
X153604504Y-98381739D01*
X153824308Y-98440635D01*
X154051000Y-98460468D01*
X154277692Y-98440635D01*
X154497496Y-98381739D01*
X154703734Y-98285568D01*
X154890139Y-98155047D01*
X155051047Y-97994139D01*
X155181568Y-97807734D01*
X155208618Y-97749724D01*
X155254375Y-97697549D01*
X155321000Y-97678129D01*
X155387625Y-97697549D01*
G37*
G04 #@! TD.AperFunction*
G04 #@! TA.AperFunction,Conductor*
G36*
X201775612Y-90874939D02*
G01*
X201815840Y-90901819D01*
X202462985Y-91548964D01*
X202492763Y-91596904D01*
X202498210Y-91653077D01*
X202478198Y-91705846D01*
X202436872Y-91744280D01*
X202382793Y-91760419D01*
X202330310Y-91763594D01*
X202319074Y-91764274D01*
X202311588Y-91764500D01*
X199517000Y-91764500D01*
X199455000Y-91747887D01*
X199409613Y-91702500D01*
X199393000Y-91640500D01*
X199393000Y-91565000D01*
X198017000Y-91565000D01*
X197955000Y-91548387D01*
X197909613Y-91503000D01*
X197893000Y-91441000D01*
X197893000Y-91189000D01*
X197909613Y-91127000D01*
X197955000Y-91081613D01*
X198017000Y-91065000D01*
X199393000Y-91065000D01*
X199393000Y-90989500D01*
X199409613Y-90927500D01*
X199455000Y-90882113D01*
X199517000Y-90865500D01*
X201728159Y-90865500D01*
X201775612Y-90874939D01*
G37*
G04 #@! TD.AperFunction*
G04 #@! TA.AperFunction,Conductor*
G36*
X189242073Y-90878288D02*
G01*
X189285605Y-90914014D01*
X189308846Y-90965309D01*
X189307004Y-91021594D01*
X189286792Y-91097025D01*
X189267722Y-91315000D01*
X189286792Y-91532974D01*
X189307004Y-91608406D01*
X189308846Y-91664691D01*
X189285605Y-91715986D01*
X189242073Y-91751712D01*
X189187229Y-91764500D01*
X181610000Y-91764500D01*
X181548000Y-91747887D01*
X181502613Y-91702500D01*
X181486000Y-91640500D01*
X181486000Y-91565000D01*
X180110000Y-91565000D01*
X180048000Y-91548387D01*
X180002613Y-91503000D01*
X179986000Y-91441000D01*
X179986000Y-91189000D01*
X180002613Y-91127000D01*
X180048000Y-91081613D01*
X180110000Y-91065000D01*
X181486000Y-91065000D01*
X181486000Y-90989500D01*
X181502613Y-90927500D01*
X181548000Y-90882113D01*
X181610000Y-90865500D01*
X189187229Y-90865500D01*
X189242073Y-90878288D01*
G37*
G04 #@! TD.AperFunction*
G04 #@! TA.AperFunction,Conductor*
G36*
X171335073Y-90878288D02*
G01*
X171378605Y-90914014D01*
X171401846Y-90965309D01*
X171400004Y-91021594D01*
X171379792Y-91097025D01*
X171360722Y-91315000D01*
X171379792Y-91532974D01*
X171400004Y-91608406D01*
X171401846Y-91664691D01*
X171378605Y-91715986D01*
X171335073Y-91751712D01*
X171280229Y-91764500D01*
X163703000Y-91764500D01*
X163641000Y-91747887D01*
X163595613Y-91702500D01*
X163579000Y-91640500D01*
X163579000Y-91565000D01*
X162203000Y-91565000D01*
X162141000Y-91548387D01*
X162095613Y-91503000D01*
X162079000Y-91441000D01*
X162079000Y-91189000D01*
X162095613Y-91127000D01*
X162141000Y-91081613D01*
X162203000Y-91065000D01*
X163579000Y-91065000D01*
X163579000Y-90989500D01*
X163595613Y-90927500D01*
X163641000Y-90882113D01*
X163703000Y-90865500D01*
X171280229Y-90865500D01*
X171335073Y-90878288D01*
G37*
G04 #@! TD.AperFunction*
G04 #@! TA.AperFunction,Conductor*
G36*
X153428073Y-90878288D02*
G01*
X153471605Y-90914014D01*
X153494846Y-90965309D01*
X153493004Y-91021594D01*
X153472792Y-91097025D01*
X153453722Y-91315000D01*
X153472792Y-91532974D01*
X153493004Y-91608406D01*
X153494846Y-91664691D01*
X153471605Y-91715986D01*
X153428073Y-91751712D01*
X153373229Y-91764500D01*
X145796000Y-91764500D01*
X145734000Y-91747887D01*
X145688613Y-91702500D01*
X145672000Y-91640500D01*
X145672000Y-91565000D01*
X144296000Y-91565000D01*
X144234000Y-91548387D01*
X144188613Y-91503000D01*
X144172000Y-91441000D01*
X144172000Y-91189000D01*
X144188613Y-91127000D01*
X144234000Y-91081613D01*
X144296000Y-91065000D01*
X145672000Y-91065000D01*
X145672000Y-90989500D01*
X145688613Y-90927500D01*
X145734000Y-90882113D01*
X145796000Y-90865500D01*
X153373229Y-90865500D01*
X153428073Y-90878288D01*
G37*
G04 #@! TD.AperFunction*
G04 #@! TA.AperFunction,Conductor*
G36*
X135521073Y-90878288D02*
G01*
X135564605Y-90914014D01*
X135587846Y-90965309D01*
X135586004Y-91021594D01*
X135565792Y-91097025D01*
X135546722Y-91314999D01*
X135565792Y-91532974D01*
X135586004Y-91608406D01*
X135587846Y-91664691D01*
X135564605Y-91715986D01*
X135521073Y-91751712D01*
X135466229Y-91764500D01*
X127889000Y-91764500D01*
X127827000Y-91747887D01*
X127781613Y-91702500D01*
X127765000Y-91640500D01*
X127765000Y-91565000D01*
X126389000Y-91565000D01*
X126327000Y-91548387D01*
X126281613Y-91503000D01*
X126265000Y-91441000D01*
X126265000Y-91189000D01*
X126281613Y-91127000D01*
X126327000Y-91081613D01*
X126389000Y-91065000D01*
X127765000Y-91065000D01*
X127765000Y-90989500D01*
X127781613Y-90927500D01*
X127827000Y-90882113D01*
X127889000Y-90865500D01*
X135466229Y-90865500D01*
X135521073Y-90878288D01*
G37*
G04 #@! TD.AperFunction*
G04 #@! TA.AperFunction,Conductor*
G36*
X117614073Y-90878288D02*
G01*
X117657605Y-90914014D01*
X117680846Y-90965309D01*
X117679004Y-91021594D01*
X117658792Y-91097025D01*
X117639722Y-91314999D01*
X117658792Y-91532974D01*
X117679004Y-91608406D01*
X117680846Y-91664691D01*
X117657605Y-91715986D01*
X117614073Y-91751712D01*
X117559229Y-91764500D01*
X110063000Y-91764500D01*
X110001000Y-91747887D01*
X109955613Y-91702500D01*
X109939000Y-91640500D01*
X109939000Y-91565000D01*
X108563000Y-91565000D01*
X108501000Y-91548387D01*
X108455613Y-91503000D01*
X108439000Y-91441000D01*
X108439000Y-91189000D01*
X108455613Y-91127000D01*
X108501000Y-91081613D01*
X108563000Y-91065000D01*
X109939000Y-91065000D01*
X109939000Y-90989500D01*
X109955613Y-90927500D01*
X110001000Y-90882113D01*
X110063000Y-90865500D01*
X117559229Y-90865500D01*
X117614073Y-90878288D01*
G37*
G04 #@! TD.AperFunction*
M02*
