%TF.GenerationSoftware,KiCad,Pcbnew,7.0.1*%
%TF.CreationDate,2023-07-05T16:18:23-05:00*%
%TF.ProjectId,pn5180 mcp23008 breakout board,706e3531-3830-4206-9d63-703233303038,rev?*%
%TF.SameCoordinates,Original*%
%TF.FileFunction,Drillmap*%
%TF.FilePolarity,Positive*%
%FSLAX45Y45*%
G04 Gerber Fmt 4.5, Leading zero omitted, Abs format (unit mm)*
G04 Created by KiCad (PCBNEW 7.0.1) date 2023-07-05 16:18:23*
%MOMM*%
%LPD*%
G01*
G04 APERTURE LIST*
%ADD10C,0.100000*%
%ADD11C,0.200000*%
%ADD12C,0.040000*%
%ADD13C,0.080000*%
%ADD14C,0.090000*%
%ADD15C,0.119000*%
%ADD16C,0.160000*%
G04 APERTURE END LIST*
D10*
X21069300Y-10795000D02*
X8864600Y-10795000D01*
X8356600Y-7988300D02*
X8356600Y-10287000D01*
X8864600Y-7480300D02*
X21069300Y-7480300D01*
X21577300Y-7988300D02*
X21577300Y-10287000D01*
X21577300Y-7988300D02*
G75*
G03*
X21069300Y-7480300I-508000J0D01*
G01*
X8864600Y-7480300D02*
G75*
G03*
X8356600Y-7988300I0J-508000D01*
G01*
X8356600Y-10287000D02*
G75*
G03*
X8864600Y-10795000I508000J0D01*
G01*
X21069300Y-10795000D02*
G75*
G03*
X21577300Y-10287000I0J508000D01*
G01*
D11*
D12*
X10482900Y-9797100D02*
X10522900Y-9837100D01*
X10522900Y-9797100D02*
X10482900Y-9837100D01*
X10533700Y-10279700D02*
X10573700Y-10319700D01*
X10573700Y-10279700D02*
X10533700Y-10319700D01*
X10711500Y-9581200D02*
X10751500Y-9621200D01*
X10751500Y-9581200D02*
X10711500Y-9621200D01*
X11117900Y-9111300D02*
X11157900Y-9151300D01*
X11157900Y-9111300D02*
X11117900Y-9151300D01*
X11528650Y-8903750D02*
X11568650Y-8943750D01*
X11568650Y-8903750D02*
X11528650Y-8943750D01*
X11786196Y-8903750D02*
X11826196Y-8943750D01*
X11826196Y-8903750D02*
X11786196Y-8943750D01*
X11816400Y-10076500D02*
X11856400Y-10116500D01*
X11856400Y-10076500D02*
X11816400Y-10116500D01*
X12076100Y-9942200D02*
X12116100Y-9982200D01*
X12116100Y-9942200D02*
X12076100Y-9982200D01*
X12355500Y-9942200D02*
X12395500Y-9982200D01*
X12395500Y-9942200D02*
X12355500Y-9982200D01*
X12476800Y-9619300D02*
X12516800Y-9659300D01*
X12516800Y-9619300D02*
X12476800Y-9659300D01*
X12634900Y-9942200D02*
X12674900Y-9982200D01*
X12674900Y-9942200D02*
X12634900Y-9982200D01*
X12756200Y-9557950D02*
X12796200Y-9597950D01*
X12796200Y-9557950D02*
X12756200Y-9597950D01*
X13022900Y-10355900D02*
X13062900Y-10395900D01*
X13062900Y-10355900D02*
X13022900Y-10395900D01*
X13344900Y-8903750D02*
X13384900Y-8943750D01*
X13384900Y-8903750D02*
X13344900Y-8943750D01*
X13598121Y-8907471D02*
X13638121Y-8947471D01*
X13638121Y-8907471D02*
X13598121Y-8947471D01*
X13619800Y-10406700D02*
X13659800Y-10446700D01*
X13659800Y-10406700D02*
X13619800Y-10446700D01*
X13937300Y-10152700D02*
X13977300Y-10192700D01*
X13977300Y-10152700D02*
X13937300Y-10192700D01*
X14115100Y-10087450D02*
X14155100Y-10127450D01*
X14155100Y-10087450D02*
X14115100Y-10127450D01*
X14742249Y-10211351D02*
X14782249Y-10251351D01*
X14782249Y-10211351D02*
X14742249Y-10251351D01*
X14889800Y-10305100D02*
X14929800Y-10345100D01*
X14929800Y-10305100D02*
X14889800Y-10345100D01*
X14927900Y-9124000D02*
X14967900Y-9164000D01*
X14967900Y-9124000D02*
X14927900Y-9164000D01*
X15138950Y-8904210D02*
X15178950Y-8944210D01*
X15178950Y-8904210D02*
X15138950Y-8944210D01*
X15308900Y-10063800D02*
X15348900Y-10103800D01*
X15348900Y-10063800D02*
X15308900Y-10103800D01*
X15390869Y-8903750D02*
X15430869Y-8943750D01*
X15430869Y-8903750D02*
X15390869Y-8943750D01*
X15562900Y-9557950D02*
X15602900Y-9597950D01*
X15602900Y-9557950D02*
X15562900Y-9597950D01*
X15982000Y-10000300D02*
X16022000Y-10040300D01*
X16022000Y-10000300D02*
X15982000Y-10040300D01*
X16223300Y-10226400D02*
X16263300Y-10266400D01*
X16263300Y-10226400D02*
X16223300Y-10266400D01*
X16756700Y-10330500D02*
X16796700Y-10370500D01*
X16796700Y-10330500D02*
X16756700Y-10370500D01*
X16929650Y-8903750D02*
X16969650Y-8943750D01*
X16969650Y-8903750D02*
X16929650Y-8943750D01*
X17112300Y-9924100D02*
X17152300Y-9964100D01*
X17152300Y-9924100D02*
X17112300Y-9964100D01*
X17149550Y-8903750D02*
X17189550Y-8943750D01*
X17189550Y-8903750D02*
X17149550Y-8943750D01*
X17467900Y-9557950D02*
X17507900Y-9597950D01*
X17507900Y-9557950D02*
X17467900Y-9597950D01*
X17721900Y-10495600D02*
X17761900Y-10535600D01*
X17761900Y-10495600D02*
X17721900Y-10535600D01*
X17887000Y-10114600D02*
X17927000Y-10154600D01*
X17927000Y-10114600D02*
X17887000Y-10154600D01*
X17963200Y-9733600D02*
X18003200Y-9773600D01*
X18003200Y-9733600D02*
X17963200Y-9773600D01*
X18720350Y-8903750D02*
X18760350Y-8943750D01*
X18760350Y-8903750D02*
X18720350Y-8943750D01*
X18941100Y-8903750D02*
X18981100Y-8943750D01*
X18981100Y-8903750D02*
X18941100Y-8943750D01*
X19004600Y-9807750D02*
X19044600Y-9847750D01*
X19044600Y-9807750D02*
X19004600Y-9847750D01*
X19131600Y-10216200D02*
X19171600Y-10256200D01*
X19171600Y-10216200D02*
X19131600Y-10256200D01*
D13*
X11000100Y-9728200D02*
G75*
G03*
X11000100Y-9728200I-40000J0D01*
G01*
X11000100Y-10490200D02*
G75*
G03*
X11000100Y-10490200I-40000J0D01*
G01*
X11254100Y-9728200D02*
G75*
G03*
X11254100Y-9728200I-40000J0D01*
G01*
X11254100Y-10490200D02*
G75*
G03*
X11254100Y-10490200I-40000J0D01*
G01*
X11508100Y-9728200D02*
G75*
G03*
X11508100Y-9728200I-40000J0D01*
G01*
X11508100Y-10490200D02*
G75*
G03*
X11508100Y-10490200I-40000J0D01*
G01*
X13463900Y-9910000D02*
G75*
G03*
X13463900Y-9910000I-40000J0D01*
G01*
X13463900Y-10410000D02*
G75*
G03*
X13463900Y-10410000I-40000J0D01*
G01*
X13921100Y-9715500D02*
G75*
G03*
X13921100Y-9715500I-40000J0D01*
G01*
X13921100Y-10477500D02*
G75*
G03*
X13921100Y-10477500I-40000J0D01*
G01*
X14175100Y-9715500D02*
G75*
G03*
X14175100Y-9715500I-40000J0D01*
G01*
X14175100Y-10477500D02*
G75*
G03*
X14175100Y-10477500I-40000J0D01*
G01*
X14429100Y-9715500D02*
G75*
G03*
X14429100Y-9715500I-40000J0D01*
G01*
X14429100Y-10477500D02*
G75*
G03*
X14429100Y-10477500I-40000J0D01*
G01*
X14683100Y-9715500D02*
G75*
G03*
X14683100Y-9715500I-40000J0D01*
G01*
X14683100Y-10477500D02*
G75*
G03*
X14683100Y-10477500I-40000J0D01*
G01*
X14937100Y-9715500D02*
G75*
G03*
X14937100Y-9715500I-40000J0D01*
G01*
X14937100Y-10477500D02*
G75*
G03*
X14937100Y-10477500I-40000J0D01*
G01*
X15191100Y-9715500D02*
G75*
G03*
X15191100Y-9715500I-40000J0D01*
G01*
X15191100Y-10477500D02*
G75*
G03*
X15191100Y-10477500I-40000J0D01*
G01*
X15445100Y-9715500D02*
G75*
G03*
X15445100Y-9715500I-40000J0D01*
G01*
X15445100Y-10477500D02*
G75*
G03*
X15445100Y-10477500I-40000J0D01*
G01*
X15699100Y-9715500D02*
G75*
G03*
X15699100Y-9715500I-40000J0D01*
G01*
X15699100Y-10477500D02*
G75*
G03*
X15699100Y-10477500I-40000J0D01*
G01*
X15953100Y-9715500D02*
G75*
G03*
X15953100Y-9715500I-40000J0D01*
G01*
X15953100Y-10477500D02*
G75*
G03*
X15953100Y-10477500I-40000J0D01*
G01*
X16524600Y-9779000D02*
G75*
G03*
X16524600Y-9779000I-40000J0D01*
G01*
X16524600Y-10541000D02*
G75*
G03*
X16524600Y-10541000I-40000J0D01*
G01*
X16816700Y-9779000D02*
G75*
G03*
X16816700Y-9779000I-40000J0D01*
G01*
X16816700Y-10541000D02*
G75*
G03*
X16816700Y-10541000I-40000J0D01*
G01*
X17121500Y-9779000D02*
G75*
G03*
X17121500Y-9779000I-40000J0D01*
G01*
X17121500Y-10541000D02*
G75*
G03*
X17121500Y-10541000I-40000J0D01*
G01*
X18340700Y-9740900D02*
G75*
G03*
X18340700Y-9740900I-40000J0D01*
G01*
X18340700Y-10502900D02*
G75*
G03*
X18340700Y-10502900I-40000J0D01*
G01*
X18594700Y-9740900D02*
G75*
G03*
X18594700Y-9740900I-40000J0D01*
G01*
X18594700Y-10502900D02*
G75*
G03*
X18594700Y-10502900I-40000J0D01*
G01*
X18848700Y-9740900D02*
G75*
G03*
X18848700Y-9740900I-40000J0D01*
G01*
X18848700Y-10502900D02*
G75*
G03*
X18848700Y-10502900I-40000J0D01*
G01*
D14*
X9979900Y-9340500D02*
X9979900Y-9430500D01*
X9934900Y-9385500D02*
X10024900Y-9385500D01*
X10106900Y-9086500D02*
X10106900Y-9176500D01*
X10061900Y-9131500D02*
X10151900Y-9131500D01*
X10233900Y-9340500D02*
X10233900Y-9430500D01*
X10188900Y-9385500D02*
X10278900Y-9385500D01*
X10360900Y-9086500D02*
X10360900Y-9176500D01*
X10315900Y-9131500D02*
X10405900Y-9131500D01*
X10487900Y-9340500D02*
X10487900Y-9430500D01*
X10442900Y-9385500D02*
X10532900Y-9385500D01*
X10614900Y-9086500D02*
X10614900Y-9176500D01*
X10569900Y-9131500D02*
X10659900Y-9131500D01*
X10741900Y-9340500D02*
X10741900Y-9430500D01*
X10696900Y-9385500D02*
X10786900Y-9385500D01*
X10868900Y-9086500D02*
X10868900Y-9176500D01*
X10823900Y-9131500D02*
X10913900Y-9131500D01*
X11762500Y-9340500D02*
X11762500Y-9430500D01*
X11717500Y-9385500D02*
X11807500Y-9385500D01*
X11889500Y-9086500D02*
X11889500Y-9176500D01*
X11844500Y-9131500D02*
X11934500Y-9131500D01*
X12016500Y-9340500D02*
X12016500Y-9430500D01*
X11971500Y-9385500D02*
X12061500Y-9385500D01*
X12143500Y-9086500D02*
X12143500Y-9176500D01*
X12098500Y-9131500D02*
X12188500Y-9131500D01*
X12270500Y-9340500D02*
X12270500Y-9430500D01*
X12225500Y-9385500D02*
X12315500Y-9385500D01*
X12397500Y-9086500D02*
X12397500Y-9176500D01*
X12352500Y-9131500D02*
X12442500Y-9131500D01*
X12524500Y-9340500D02*
X12524500Y-9430500D01*
X12479500Y-9385500D02*
X12569500Y-9385500D01*
X12651500Y-9086500D02*
X12651500Y-9176500D01*
X12606500Y-9131500D02*
X12696500Y-9131500D01*
X13553200Y-9340500D02*
X13553200Y-9430500D01*
X13508200Y-9385500D02*
X13598200Y-9385500D01*
X13680200Y-9086500D02*
X13680200Y-9176500D01*
X13635200Y-9131500D02*
X13725200Y-9131500D01*
X13807200Y-9340500D02*
X13807200Y-9430500D01*
X13762200Y-9385500D02*
X13852200Y-9385500D01*
X13934200Y-9086500D02*
X13934200Y-9176500D01*
X13889200Y-9131500D02*
X13979200Y-9131500D01*
X14061200Y-9340500D02*
X14061200Y-9430500D01*
X14016200Y-9385500D02*
X14106200Y-9385500D01*
X14188200Y-9086500D02*
X14188200Y-9176500D01*
X14143200Y-9131500D02*
X14233200Y-9131500D01*
X14315200Y-9340500D02*
X14315200Y-9430500D01*
X14270200Y-9385500D02*
X14360200Y-9385500D01*
X14442200Y-9086500D02*
X14442200Y-9176500D01*
X14397200Y-9131500D02*
X14487200Y-9131500D01*
X15343900Y-9340500D02*
X15343900Y-9430500D01*
X15298900Y-9385500D02*
X15388900Y-9385500D01*
X15470900Y-9086500D02*
X15470900Y-9176500D01*
X15425900Y-9131500D02*
X15515900Y-9131500D01*
X15597900Y-9340500D02*
X15597900Y-9430500D01*
X15552900Y-9385500D02*
X15642900Y-9385500D01*
X15724900Y-9086500D02*
X15724900Y-9176500D01*
X15679900Y-9131500D02*
X15769900Y-9131500D01*
X15851900Y-9340500D02*
X15851900Y-9430500D01*
X15806900Y-9385500D02*
X15896900Y-9385500D01*
X15978900Y-9086500D02*
X15978900Y-9176500D01*
X15933900Y-9131500D02*
X16023900Y-9131500D01*
X16105900Y-9340500D02*
X16105900Y-9430500D01*
X16060900Y-9385500D02*
X16150900Y-9385500D01*
X16232900Y-9086500D02*
X16232900Y-9176500D01*
X16187900Y-9131500D02*
X16277900Y-9131500D01*
X17134600Y-9340500D02*
X17134600Y-9430500D01*
X17089600Y-9385500D02*
X17179600Y-9385500D01*
X17261600Y-9086500D02*
X17261600Y-9176500D01*
X17216600Y-9131500D02*
X17306600Y-9131500D01*
X17388600Y-9340500D02*
X17388600Y-9430500D01*
X17343600Y-9385500D02*
X17433600Y-9385500D01*
X17515600Y-9086500D02*
X17515600Y-9176500D01*
X17470600Y-9131500D02*
X17560600Y-9131500D01*
X17642600Y-9340500D02*
X17642600Y-9430500D01*
X17597600Y-9385500D02*
X17687600Y-9385500D01*
X17769600Y-9086500D02*
X17769600Y-9176500D01*
X17724600Y-9131500D02*
X17814600Y-9131500D01*
X17896600Y-9340500D02*
X17896600Y-9430500D01*
X17851600Y-9385500D02*
X17941600Y-9385500D01*
X18023600Y-9086500D02*
X18023600Y-9176500D01*
X17978600Y-9131500D02*
X18068600Y-9131500D01*
X18925300Y-9340500D02*
X18925300Y-9430500D01*
X18880300Y-9385500D02*
X18970300Y-9385500D01*
X19052300Y-9086500D02*
X19052300Y-9176500D01*
X19007300Y-9131500D02*
X19097300Y-9131500D01*
X19179300Y-9340500D02*
X19179300Y-9430500D01*
X19134300Y-9385500D02*
X19224300Y-9385500D01*
X19306300Y-9086500D02*
X19306300Y-9176500D01*
X19261300Y-9131500D02*
X19351300Y-9131500D01*
X19433300Y-9340500D02*
X19433300Y-9430500D01*
X19388300Y-9385500D02*
X19478300Y-9385500D01*
X19560300Y-9086500D02*
X19560300Y-9176500D01*
X19515300Y-9131500D02*
X19605300Y-9131500D01*
X19687300Y-9340500D02*
X19687300Y-9430500D01*
X19642300Y-9385500D02*
X19732300Y-9385500D01*
X19814300Y-9086500D02*
X19814300Y-9176500D01*
X19769300Y-9131500D02*
X19859300Y-9131500D01*
D15*
X9084473Y-8576473D02*
X9084473Y-8492327D01*
X9000327Y-8492327D01*
X9000327Y-8576473D01*
X9084473Y-8576473D01*
X9084473Y-8830473D02*
X9084473Y-8746327D01*
X9000327Y-8746327D01*
X9000327Y-8830473D01*
X9084473Y-8830473D01*
X9084473Y-9084473D02*
X9084473Y-9000327D01*
X9000327Y-9000327D01*
X9000327Y-9084473D01*
X9084473Y-9084473D01*
X9084473Y-9338473D02*
X9084473Y-9254327D01*
X9000327Y-9254327D01*
X9000327Y-9338473D01*
X9084473Y-9338473D01*
X9084473Y-9592473D02*
X9084473Y-9508327D01*
X9000327Y-9508327D01*
X9000327Y-9592473D01*
X9084473Y-9592473D01*
X9084473Y-9846473D02*
X9084473Y-9762327D01*
X9000327Y-9762327D01*
X9000327Y-9846473D01*
X9084473Y-9846473D01*
X9084473Y-10100473D02*
X9084473Y-10016327D01*
X9000327Y-10016327D01*
X9000327Y-10100473D01*
X9084473Y-10100473D01*
X9084473Y-10354473D02*
X9084473Y-10270327D01*
X9000327Y-10270327D01*
X9000327Y-10354473D01*
X9084473Y-10354473D01*
X20781173Y-8576473D02*
X20781173Y-8492327D01*
X20697027Y-8492327D01*
X20697027Y-8576473D01*
X20781173Y-8576473D01*
X20781173Y-8830473D02*
X20781173Y-8746327D01*
X20697027Y-8746327D01*
X20697027Y-8830473D01*
X20781173Y-8830473D01*
X20781173Y-9084473D02*
X20781173Y-9000327D01*
X20697027Y-9000327D01*
X20697027Y-9084473D01*
X20781173Y-9084473D01*
X20781173Y-9338473D02*
X20781173Y-9254327D01*
X20697027Y-9254327D01*
X20697027Y-9338473D01*
X20781173Y-9338473D01*
X20781173Y-9592473D02*
X20781173Y-9508327D01*
X20697027Y-9508327D01*
X20697027Y-9592473D01*
X20781173Y-9592473D01*
X20781173Y-9846473D02*
X20781173Y-9762327D01*
X20697027Y-9762327D01*
X20697027Y-9846473D01*
X20781173Y-9846473D01*
X20781173Y-10100473D02*
X20781173Y-10016327D01*
X20697027Y-10016327D01*
X20697027Y-10100473D01*
X20781173Y-10100473D01*
X20781173Y-10354473D02*
X20781173Y-10270327D01*
X20697027Y-10270327D01*
X20697027Y-10354473D01*
X20781173Y-10354473D01*
D16*
X9647400Y-8271500D02*
X9727400Y-8191500D01*
X9647400Y-8111500D01*
X9567400Y-8191500D01*
X9647400Y-8271500D01*
X11201400Y-8271500D02*
X11281400Y-8191500D01*
X11201400Y-8111500D01*
X11121400Y-8191500D01*
X11201400Y-8271500D01*
X11430000Y-8271500D02*
X11510000Y-8191500D01*
X11430000Y-8111500D01*
X11350000Y-8191500D01*
X11430000Y-8271500D01*
X12984000Y-8271500D02*
X13064000Y-8191500D01*
X12984000Y-8111500D01*
X12904000Y-8191500D01*
X12984000Y-8271500D01*
X13220700Y-8271500D02*
X13300700Y-8191500D01*
X13220700Y-8111500D01*
X13140700Y-8191500D01*
X13220700Y-8271500D01*
X14774700Y-8271500D02*
X14854700Y-8191500D01*
X14774700Y-8111500D01*
X14694700Y-8191500D01*
X14774700Y-8271500D01*
X15011400Y-8271500D02*
X15091400Y-8191500D01*
X15011400Y-8111500D01*
X14931400Y-8191500D01*
X15011400Y-8271500D01*
X16565400Y-8271500D02*
X16645400Y-8191500D01*
X16565400Y-8111500D01*
X16485400Y-8191500D01*
X16565400Y-8271500D01*
X16802100Y-8271500D02*
X16882100Y-8191500D01*
X16802100Y-8111500D01*
X16722100Y-8191500D01*
X16802100Y-8271500D01*
X18356100Y-8271500D02*
X18436100Y-8191500D01*
X18356100Y-8111500D01*
X18276100Y-8191500D01*
X18356100Y-8271500D01*
X18592800Y-8271500D02*
X18672800Y-8191500D01*
X18592800Y-8111500D01*
X18512800Y-8191500D01*
X18592800Y-8271500D01*
X20146800Y-8271500D02*
X20226800Y-8191500D01*
X20146800Y-8111500D01*
X20066800Y-8191500D01*
X20146800Y-8271500D01*
D11*
X8599219Y-11112524D02*
X8599219Y-10912524D01*
X8599219Y-10912524D02*
X8646838Y-10912524D01*
X8646838Y-10912524D02*
X8675410Y-10922048D01*
X8675410Y-10922048D02*
X8694457Y-10941095D01*
X8694457Y-10941095D02*
X8703981Y-10960143D01*
X8703981Y-10960143D02*
X8713505Y-10998238D01*
X8713505Y-10998238D02*
X8713505Y-11026810D01*
X8713505Y-11026810D02*
X8703981Y-11064905D01*
X8703981Y-11064905D02*
X8694457Y-11083952D01*
X8694457Y-11083952D02*
X8675410Y-11103000D01*
X8675410Y-11103000D02*
X8646838Y-11112524D01*
X8646838Y-11112524D02*
X8599219Y-11112524D01*
X8799219Y-11112524D02*
X8799219Y-10979190D01*
X8799219Y-11017286D02*
X8808743Y-10998238D01*
X8808743Y-10998238D02*
X8818267Y-10988714D01*
X8818267Y-10988714D02*
X8837314Y-10979190D01*
X8837314Y-10979190D02*
X8856362Y-10979190D01*
X8923029Y-11112524D02*
X8923029Y-10979190D01*
X8923029Y-10912524D02*
X8913505Y-10922048D01*
X8913505Y-10922048D02*
X8923029Y-10931571D01*
X8923029Y-10931571D02*
X8932552Y-10922048D01*
X8932552Y-10922048D02*
X8923029Y-10912524D01*
X8923029Y-10912524D02*
X8923029Y-10931571D01*
X9046838Y-11112524D02*
X9027790Y-11103000D01*
X9027790Y-11103000D02*
X9018267Y-11083952D01*
X9018267Y-11083952D02*
X9018267Y-10912524D01*
X9151600Y-11112524D02*
X9132552Y-11103000D01*
X9132552Y-11103000D02*
X9123029Y-11083952D01*
X9123029Y-11083952D02*
X9123029Y-10912524D01*
X9380171Y-11112524D02*
X9380171Y-10912524D01*
X9380171Y-10912524D02*
X9446838Y-11055381D01*
X9446838Y-11055381D02*
X9513505Y-10912524D01*
X9513505Y-10912524D02*
X9513505Y-11112524D01*
X9694457Y-11112524D02*
X9694457Y-11007762D01*
X9694457Y-11007762D02*
X9684933Y-10988714D01*
X9684933Y-10988714D02*
X9665886Y-10979190D01*
X9665886Y-10979190D02*
X9627790Y-10979190D01*
X9627790Y-10979190D02*
X9608743Y-10988714D01*
X9694457Y-11103000D02*
X9675410Y-11112524D01*
X9675410Y-11112524D02*
X9627790Y-11112524D01*
X9627790Y-11112524D02*
X9608743Y-11103000D01*
X9608743Y-11103000D02*
X9599219Y-11083952D01*
X9599219Y-11083952D02*
X9599219Y-11064905D01*
X9599219Y-11064905D02*
X9608743Y-11045857D01*
X9608743Y-11045857D02*
X9627790Y-11036333D01*
X9627790Y-11036333D02*
X9675410Y-11036333D01*
X9675410Y-11036333D02*
X9694457Y-11026810D01*
X9789695Y-10979190D02*
X9789695Y-11179190D01*
X9789695Y-10988714D02*
X9808743Y-10979190D01*
X9808743Y-10979190D02*
X9846838Y-10979190D01*
X9846838Y-10979190D02*
X9865886Y-10988714D01*
X9865886Y-10988714D02*
X9875410Y-10998238D01*
X9875410Y-10998238D02*
X9884933Y-11017286D01*
X9884933Y-11017286D02*
X9884933Y-11074429D01*
X9884933Y-11074429D02*
X9875410Y-11093476D01*
X9875410Y-11093476D02*
X9865886Y-11103000D01*
X9865886Y-11103000D02*
X9846838Y-11112524D01*
X9846838Y-11112524D02*
X9808743Y-11112524D01*
X9808743Y-11112524D02*
X9789695Y-11103000D01*
X9970648Y-11093476D02*
X9980171Y-11103000D01*
X9980171Y-11103000D02*
X9970648Y-11112524D01*
X9970648Y-11112524D02*
X9961124Y-11103000D01*
X9961124Y-11103000D02*
X9970648Y-11093476D01*
X9970648Y-11093476D02*
X9970648Y-11112524D01*
X9970648Y-10988714D02*
X9980171Y-10998238D01*
X9980171Y-10998238D02*
X9970648Y-11007762D01*
X9970648Y-11007762D02*
X9961124Y-10998238D01*
X9961124Y-10998238D02*
X9970648Y-10988714D01*
X9970648Y-10988714D02*
X9970648Y-11007762D01*
D12*
X8311600Y-11420000D02*
X8351600Y-11460000D01*
X8351600Y-11420000D02*
X8311600Y-11460000D01*
D11*
X8637314Y-11332524D02*
X8656362Y-11332524D01*
X8656362Y-11332524D02*
X8675410Y-11342048D01*
X8675410Y-11342048D02*
X8684933Y-11351571D01*
X8684933Y-11351571D02*
X8694457Y-11370619D01*
X8694457Y-11370619D02*
X8703981Y-11408714D01*
X8703981Y-11408714D02*
X8703981Y-11456333D01*
X8703981Y-11456333D02*
X8694457Y-11494428D01*
X8694457Y-11494428D02*
X8684933Y-11513476D01*
X8684933Y-11513476D02*
X8675410Y-11523000D01*
X8675410Y-11523000D02*
X8656362Y-11532524D01*
X8656362Y-11532524D02*
X8637314Y-11532524D01*
X8637314Y-11532524D02*
X8618267Y-11523000D01*
X8618267Y-11523000D02*
X8608743Y-11513476D01*
X8608743Y-11513476D02*
X8599219Y-11494428D01*
X8599219Y-11494428D02*
X8589695Y-11456333D01*
X8589695Y-11456333D02*
X8589695Y-11408714D01*
X8589695Y-11408714D02*
X8599219Y-11370619D01*
X8599219Y-11370619D02*
X8608743Y-11351571D01*
X8608743Y-11351571D02*
X8618267Y-11342048D01*
X8618267Y-11342048D02*
X8637314Y-11332524D01*
X8789695Y-11513476D02*
X8799219Y-11523000D01*
X8799219Y-11523000D02*
X8789695Y-11532524D01*
X8789695Y-11532524D02*
X8780171Y-11523000D01*
X8780171Y-11523000D02*
X8789695Y-11513476D01*
X8789695Y-11513476D02*
X8789695Y-11532524D01*
X8970648Y-11399190D02*
X8970648Y-11532524D01*
X8923029Y-11323000D02*
X8875410Y-11465857D01*
X8875410Y-11465857D02*
X8999219Y-11465857D01*
X9113505Y-11332524D02*
X9132552Y-11332524D01*
X9132552Y-11332524D02*
X9151600Y-11342048D01*
X9151600Y-11342048D02*
X9161124Y-11351571D01*
X9161124Y-11351571D02*
X9170648Y-11370619D01*
X9170648Y-11370619D02*
X9180171Y-11408714D01*
X9180171Y-11408714D02*
X9180171Y-11456333D01*
X9180171Y-11456333D02*
X9170648Y-11494428D01*
X9170648Y-11494428D02*
X9161124Y-11513476D01*
X9161124Y-11513476D02*
X9151600Y-11523000D01*
X9151600Y-11523000D02*
X9132552Y-11532524D01*
X9132552Y-11532524D02*
X9113505Y-11532524D01*
X9113505Y-11532524D02*
X9094457Y-11523000D01*
X9094457Y-11523000D02*
X9084933Y-11513476D01*
X9084933Y-11513476D02*
X9075410Y-11494428D01*
X9075410Y-11494428D02*
X9065886Y-11456333D01*
X9065886Y-11456333D02*
X9065886Y-11408714D01*
X9065886Y-11408714D02*
X9075410Y-11370619D01*
X9075410Y-11370619D02*
X9084933Y-11351571D01*
X9084933Y-11351571D02*
X9094457Y-11342048D01*
X9094457Y-11342048D02*
X9113505Y-11332524D01*
X9303981Y-11332524D02*
X9323029Y-11332524D01*
X9323029Y-11332524D02*
X9342076Y-11342048D01*
X9342076Y-11342048D02*
X9351600Y-11351571D01*
X9351600Y-11351571D02*
X9361124Y-11370619D01*
X9361124Y-11370619D02*
X9370648Y-11408714D01*
X9370648Y-11408714D02*
X9370648Y-11456333D01*
X9370648Y-11456333D02*
X9361124Y-11494428D01*
X9361124Y-11494428D02*
X9351600Y-11513476D01*
X9351600Y-11513476D02*
X9342076Y-11523000D01*
X9342076Y-11523000D02*
X9323029Y-11532524D01*
X9323029Y-11532524D02*
X9303981Y-11532524D01*
X9303981Y-11532524D02*
X9284933Y-11523000D01*
X9284933Y-11523000D02*
X9275410Y-11513476D01*
X9275410Y-11513476D02*
X9265886Y-11494428D01*
X9265886Y-11494428D02*
X9256362Y-11456333D01*
X9256362Y-11456333D02*
X9256362Y-11408714D01*
X9256362Y-11408714D02*
X9265886Y-11370619D01*
X9265886Y-11370619D02*
X9275410Y-11351571D01*
X9275410Y-11351571D02*
X9284933Y-11342048D01*
X9284933Y-11342048D02*
X9303981Y-11332524D01*
X9456362Y-11532524D02*
X9456362Y-11399190D01*
X9456362Y-11418238D02*
X9465886Y-11408714D01*
X9465886Y-11408714D02*
X9484933Y-11399190D01*
X9484933Y-11399190D02*
X9513505Y-11399190D01*
X9513505Y-11399190D02*
X9532552Y-11408714D01*
X9532552Y-11408714D02*
X9542076Y-11427762D01*
X9542076Y-11427762D02*
X9542076Y-11532524D01*
X9542076Y-11427762D02*
X9551600Y-11408714D01*
X9551600Y-11408714D02*
X9570648Y-11399190D01*
X9570648Y-11399190D02*
X9599219Y-11399190D01*
X9599219Y-11399190D02*
X9618267Y-11408714D01*
X9618267Y-11408714D02*
X9627791Y-11427762D01*
X9627791Y-11427762D02*
X9627791Y-11532524D01*
X9723029Y-11532524D02*
X9723029Y-11399190D01*
X9723029Y-11418238D02*
X9732552Y-11408714D01*
X9732552Y-11408714D02*
X9751600Y-11399190D01*
X9751600Y-11399190D02*
X9780172Y-11399190D01*
X9780172Y-11399190D02*
X9799219Y-11408714D01*
X9799219Y-11408714D02*
X9808743Y-11427762D01*
X9808743Y-11427762D02*
X9808743Y-11532524D01*
X9808743Y-11427762D02*
X9818267Y-11408714D01*
X9818267Y-11408714D02*
X9837314Y-11399190D01*
X9837314Y-11399190D02*
X9865886Y-11399190D01*
X9865886Y-11399190D02*
X9884933Y-11408714D01*
X9884933Y-11408714D02*
X9894457Y-11427762D01*
X9894457Y-11427762D02*
X9894457Y-11532524D01*
X10284933Y-11323000D02*
X10113505Y-11580143D01*
X10542076Y-11332524D02*
X10561124Y-11332524D01*
X10561124Y-11332524D02*
X10580172Y-11342048D01*
X10580172Y-11342048D02*
X10589695Y-11351571D01*
X10589695Y-11351571D02*
X10599219Y-11370619D01*
X10599219Y-11370619D02*
X10608743Y-11408714D01*
X10608743Y-11408714D02*
X10608743Y-11456333D01*
X10608743Y-11456333D02*
X10599219Y-11494428D01*
X10599219Y-11494428D02*
X10589695Y-11513476D01*
X10589695Y-11513476D02*
X10580172Y-11523000D01*
X10580172Y-11523000D02*
X10561124Y-11532524D01*
X10561124Y-11532524D02*
X10542076Y-11532524D01*
X10542076Y-11532524D02*
X10523029Y-11523000D01*
X10523029Y-11523000D02*
X10513505Y-11513476D01*
X10513505Y-11513476D02*
X10503981Y-11494428D01*
X10503981Y-11494428D02*
X10494457Y-11456333D01*
X10494457Y-11456333D02*
X10494457Y-11408714D01*
X10494457Y-11408714D02*
X10503981Y-11370619D01*
X10503981Y-11370619D02*
X10513505Y-11351571D01*
X10513505Y-11351571D02*
X10523029Y-11342048D01*
X10523029Y-11342048D02*
X10542076Y-11332524D01*
X10694457Y-11513476D02*
X10703981Y-11523000D01*
X10703981Y-11523000D02*
X10694457Y-11532524D01*
X10694457Y-11532524D02*
X10684934Y-11523000D01*
X10684934Y-11523000D02*
X10694457Y-11513476D01*
X10694457Y-11513476D02*
X10694457Y-11532524D01*
X10827791Y-11332524D02*
X10846838Y-11332524D01*
X10846838Y-11332524D02*
X10865886Y-11342048D01*
X10865886Y-11342048D02*
X10875410Y-11351571D01*
X10875410Y-11351571D02*
X10884934Y-11370619D01*
X10884934Y-11370619D02*
X10894457Y-11408714D01*
X10894457Y-11408714D02*
X10894457Y-11456333D01*
X10894457Y-11456333D02*
X10884934Y-11494428D01*
X10884934Y-11494428D02*
X10875410Y-11513476D01*
X10875410Y-11513476D02*
X10865886Y-11523000D01*
X10865886Y-11523000D02*
X10846838Y-11532524D01*
X10846838Y-11532524D02*
X10827791Y-11532524D01*
X10827791Y-11532524D02*
X10808743Y-11523000D01*
X10808743Y-11523000D02*
X10799219Y-11513476D01*
X10799219Y-11513476D02*
X10789695Y-11494428D01*
X10789695Y-11494428D02*
X10780172Y-11456333D01*
X10780172Y-11456333D02*
X10780172Y-11408714D01*
X10780172Y-11408714D02*
X10789695Y-11370619D01*
X10789695Y-11370619D02*
X10799219Y-11351571D01*
X10799219Y-11351571D02*
X10808743Y-11342048D01*
X10808743Y-11342048D02*
X10827791Y-11332524D01*
X11084934Y-11532524D02*
X10970648Y-11532524D01*
X11027791Y-11532524D02*
X11027791Y-11332524D01*
X11027791Y-11332524D02*
X11008743Y-11361095D01*
X11008743Y-11361095D02*
X10989695Y-11380143D01*
X10989695Y-11380143D02*
X10970648Y-11389667D01*
X11265886Y-11332524D02*
X11170648Y-11332524D01*
X11170648Y-11332524D02*
X11161124Y-11427762D01*
X11161124Y-11427762D02*
X11170648Y-11418238D01*
X11170648Y-11418238D02*
X11189695Y-11408714D01*
X11189695Y-11408714D02*
X11237314Y-11408714D01*
X11237314Y-11408714D02*
X11256362Y-11418238D01*
X11256362Y-11418238D02*
X11265886Y-11427762D01*
X11265886Y-11427762D02*
X11275410Y-11446809D01*
X11275410Y-11446809D02*
X11275410Y-11494428D01*
X11275410Y-11494428D02*
X11265886Y-11513476D01*
X11265886Y-11513476D02*
X11256362Y-11523000D01*
X11256362Y-11523000D02*
X11237314Y-11532524D01*
X11237314Y-11532524D02*
X11189695Y-11532524D01*
X11189695Y-11532524D02*
X11170648Y-11523000D01*
X11170648Y-11523000D02*
X11161124Y-11513476D01*
X11342076Y-11332524D02*
X11475410Y-11332524D01*
X11475410Y-11332524D02*
X11389695Y-11532524D01*
X11542076Y-11332524D02*
X11542076Y-11370619D01*
X11618267Y-11332524D02*
X11618267Y-11370619D01*
X11913505Y-11608714D02*
X11903981Y-11599190D01*
X11903981Y-11599190D02*
X11884934Y-11570619D01*
X11884934Y-11570619D02*
X11875410Y-11551571D01*
X11875410Y-11551571D02*
X11865886Y-11523000D01*
X11865886Y-11523000D02*
X11856362Y-11475381D01*
X11856362Y-11475381D02*
X11856362Y-11437286D01*
X11856362Y-11437286D02*
X11865886Y-11389667D01*
X11865886Y-11389667D02*
X11875410Y-11361095D01*
X11875410Y-11361095D02*
X11884934Y-11342048D01*
X11884934Y-11342048D02*
X11903981Y-11313476D01*
X11903981Y-11313476D02*
X11913505Y-11303952D01*
X11970648Y-11332524D02*
X12094457Y-11332524D01*
X12094457Y-11332524D02*
X12027791Y-11408714D01*
X12027791Y-11408714D02*
X12056362Y-11408714D01*
X12056362Y-11408714D02*
X12075410Y-11418238D01*
X12075410Y-11418238D02*
X12084934Y-11427762D01*
X12084934Y-11427762D02*
X12094457Y-11446809D01*
X12094457Y-11446809D02*
X12094457Y-11494428D01*
X12094457Y-11494428D02*
X12084934Y-11513476D01*
X12084934Y-11513476D02*
X12075410Y-11523000D01*
X12075410Y-11523000D02*
X12056362Y-11532524D01*
X12056362Y-11532524D02*
X11999219Y-11532524D01*
X11999219Y-11532524D02*
X11980172Y-11523000D01*
X11980172Y-11523000D02*
X11970648Y-11513476D01*
X12189695Y-11532524D02*
X12227791Y-11532524D01*
X12227791Y-11532524D02*
X12246838Y-11523000D01*
X12246838Y-11523000D02*
X12256362Y-11513476D01*
X12256362Y-11513476D02*
X12275410Y-11484905D01*
X12275410Y-11484905D02*
X12284934Y-11446809D01*
X12284934Y-11446809D02*
X12284934Y-11370619D01*
X12284934Y-11370619D02*
X12275410Y-11351571D01*
X12275410Y-11351571D02*
X12265886Y-11342048D01*
X12265886Y-11342048D02*
X12246838Y-11332524D01*
X12246838Y-11332524D02*
X12208743Y-11332524D01*
X12208743Y-11332524D02*
X12189695Y-11342048D01*
X12189695Y-11342048D02*
X12180172Y-11351571D01*
X12180172Y-11351571D02*
X12170648Y-11370619D01*
X12170648Y-11370619D02*
X12170648Y-11418238D01*
X12170648Y-11418238D02*
X12180172Y-11437286D01*
X12180172Y-11437286D02*
X12189695Y-11446809D01*
X12189695Y-11446809D02*
X12208743Y-11456333D01*
X12208743Y-11456333D02*
X12246838Y-11456333D01*
X12246838Y-11456333D02*
X12265886Y-11446809D01*
X12265886Y-11446809D02*
X12275410Y-11437286D01*
X12275410Y-11437286D02*
X12284934Y-11418238D01*
X12523029Y-11532524D02*
X12523029Y-11332524D01*
X12608743Y-11532524D02*
X12608743Y-11427762D01*
X12608743Y-11427762D02*
X12599219Y-11408714D01*
X12599219Y-11408714D02*
X12580172Y-11399190D01*
X12580172Y-11399190D02*
X12551600Y-11399190D01*
X12551600Y-11399190D02*
X12532553Y-11408714D01*
X12532553Y-11408714D02*
X12523029Y-11418238D01*
X12732553Y-11532524D02*
X12713505Y-11523000D01*
X12713505Y-11523000D02*
X12703981Y-11513476D01*
X12703981Y-11513476D02*
X12694457Y-11494428D01*
X12694457Y-11494428D02*
X12694457Y-11437286D01*
X12694457Y-11437286D02*
X12703981Y-11418238D01*
X12703981Y-11418238D02*
X12713505Y-11408714D01*
X12713505Y-11408714D02*
X12732553Y-11399190D01*
X12732553Y-11399190D02*
X12761124Y-11399190D01*
X12761124Y-11399190D02*
X12780172Y-11408714D01*
X12780172Y-11408714D02*
X12789696Y-11418238D01*
X12789696Y-11418238D02*
X12799219Y-11437286D01*
X12799219Y-11437286D02*
X12799219Y-11494428D01*
X12799219Y-11494428D02*
X12789696Y-11513476D01*
X12789696Y-11513476D02*
X12780172Y-11523000D01*
X12780172Y-11523000D02*
X12761124Y-11532524D01*
X12761124Y-11532524D02*
X12732553Y-11532524D01*
X12913505Y-11532524D02*
X12894457Y-11523000D01*
X12894457Y-11523000D02*
X12884934Y-11503952D01*
X12884934Y-11503952D02*
X12884934Y-11332524D01*
X13065886Y-11523000D02*
X13046838Y-11532524D01*
X13046838Y-11532524D02*
X13008743Y-11532524D01*
X13008743Y-11532524D02*
X12989696Y-11523000D01*
X12989696Y-11523000D02*
X12980172Y-11503952D01*
X12980172Y-11503952D02*
X12980172Y-11427762D01*
X12980172Y-11427762D02*
X12989696Y-11408714D01*
X12989696Y-11408714D02*
X13008743Y-11399190D01*
X13008743Y-11399190D02*
X13046838Y-11399190D01*
X13046838Y-11399190D02*
X13065886Y-11408714D01*
X13065886Y-11408714D02*
X13075410Y-11427762D01*
X13075410Y-11427762D02*
X13075410Y-11446809D01*
X13075410Y-11446809D02*
X12980172Y-11465857D01*
X13151600Y-11523000D02*
X13170648Y-11532524D01*
X13170648Y-11532524D02*
X13208743Y-11532524D01*
X13208743Y-11532524D02*
X13227791Y-11523000D01*
X13227791Y-11523000D02*
X13237315Y-11503952D01*
X13237315Y-11503952D02*
X13237315Y-11494428D01*
X13237315Y-11494428D02*
X13227791Y-11475381D01*
X13227791Y-11475381D02*
X13208743Y-11465857D01*
X13208743Y-11465857D02*
X13180172Y-11465857D01*
X13180172Y-11465857D02*
X13161124Y-11456333D01*
X13161124Y-11456333D02*
X13151600Y-11437286D01*
X13151600Y-11437286D02*
X13151600Y-11427762D01*
X13151600Y-11427762D02*
X13161124Y-11408714D01*
X13161124Y-11408714D02*
X13180172Y-11399190D01*
X13180172Y-11399190D02*
X13208743Y-11399190D01*
X13208743Y-11399190D02*
X13227791Y-11408714D01*
X13303981Y-11608714D02*
X13313505Y-11599190D01*
X13313505Y-11599190D02*
X13332553Y-11570619D01*
X13332553Y-11570619D02*
X13342077Y-11551571D01*
X13342077Y-11551571D02*
X13351600Y-11523000D01*
X13351600Y-11523000D02*
X13361124Y-11475381D01*
X13361124Y-11475381D02*
X13361124Y-11437286D01*
X13361124Y-11437286D02*
X13351600Y-11389667D01*
X13351600Y-11389667D02*
X13342077Y-11361095D01*
X13342077Y-11361095D02*
X13332553Y-11342048D01*
X13332553Y-11342048D02*
X13313505Y-11313476D01*
X13313505Y-11313476D02*
X13303981Y-11303952D01*
D13*
X8351600Y-11704000D02*
G75*
G03*
X8351600Y-11704000I-40000J0D01*
G01*
D11*
X8637314Y-11596524D02*
X8656362Y-11596524D01*
X8656362Y-11596524D02*
X8675410Y-11606048D01*
X8675410Y-11606048D02*
X8684933Y-11615571D01*
X8684933Y-11615571D02*
X8694457Y-11634619D01*
X8694457Y-11634619D02*
X8703981Y-11672714D01*
X8703981Y-11672714D02*
X8703981Y-11720333D01*
X8703981Y-11720333D02*
X8694457Y-11758428D01*
X8694457Y-11758428D02*
X8684933Y-11777476D01*
X8684933Y-11777476D02*
X8675410Y-11787000D01*
X8675410Y-11787000D02*
X8656362Y-11796524D01*
X8656362Y-11796524D02*
X8637314Y-11796524D01*
X8637314Y-11796524D02*
X8618267Y-11787000D01*
X8618267Y-11787000D02*
X8608743Y-11777476D01*
X8608743Y-11777476D02*
X8599219Y-11758428D01*
X8599219Y-11758428D02*
X8589695Y-11720333D01*
X8589695Y-11720333D02*
X8589695Y-11672714D01*
X8589695Y-11672714D02*
X8599219Y-11634619D01*
X8599219Y-11634619D02*
X8608743Y-11615571D01*
X8608743Y-11615571D02*
X8618267Y-11606048D01*
X8618267Y-11606048D02*
X8637314Y-11596524D01*
X8789695Y-11777476D02*
X8799219Y-11787000D01*
X8799219Y-11787000D02*
X8789695Y-11796524D01*
X8789695Y-11796524D02*
X8780171Y-11787000D01*
X8780171Y-11787000D02*
X8789695Y-11777476D01*
X8789695Y-11777476D02*
X8789695Y-11796524D01*
X8913505Y-11682238D02*
X8894457Y-11672714D01*
X8894457Y-11672714D02*
X8884933Y-11663190D01*
X8884933Y-11663190D02*
X8875410Y-11644143D01*
X8875410Y-11644143D02*
X8875410Y-11634619D01*
X8875410Y-11634619D02*
X8884933Y-11615571D01*
X8884933Y-11615571D02*
X8894457Y-11606048D01*
X8894457Y-11606048D02*
X8913505Y-11596524D01*
X8913505Y-11596524D02*
X8951600Y-11596524D01*
X8951600Y-11596524D02*
X8970648Y-11606048D01*
X8970648Y-11606048D02*
X8980171Y-11615571D01*
X8980171Y-11615571D02*
X8989695Y-11634619D01*
X8989695Y-11634619D02*
X8989695Y-11644143D01*
X8989695Y-11644143D02*
X8980171Y-11663190D01*
X8980171Y-11663190D02*
X8970648Y-11672714D01*
X8970648Y-11672714D02*
X8951600Y-11682238D01*
X8951600Y-11682238D02*
X8913505Y-11682238D01*
X8913505Y-11682238D02*
X8894457Y-11691762D01*
X8894457Y-11691762D02*
X8884933Y-11701286D01*
X8884933Y-11701286D02*
X8875410Y-11720333D01*
X8875410Y-11720333D02*
X8875410Y-11758428D01*
X8875410Y-11758428D02*
X8884933Y-11777476D01*
X8884933Y-11777476D02*
X8894457Y-11787000D01*
X8894457Y-11787000D02*
X8913505Y-11796524D01*
X8913505Y-11796524D02*
X8951600Y-11796524D01*
X8951600Y-11796524D02*
X8970648Y-11787000D01*
X8970648Y-11787000D02*
X8980171Y-11777476D01*
X8980171Y-11777476D02*
X8989695Y-11758428D01*
X8989695Y-11758428D02*
X8989695Y-11720333D01*
X8989695Y-11720333D02*
X8980171Y-11701286D01*
X8980171Y-11701286D02*
X8970648Y-11691762D01*
X8970648Y-11691762D02*
X8951600Y-11682238D01*
X9113505Y-11596524D02*
X9132552Y-11596524D01*
X9132552Y-11596524D02*
X9151600Y-11606048D01*
X9151600Y-11606048D02*
X9161124Y-11615571D01*
X9161124Y-11615571D02*
X9170648Y-11634619D01*
X9170648Y-11634619D02*
X9180171Y-11672714D01*
X9180171Y-11672714D02*
X9180171Y-11720333D01*
X9180171Y-11720333D02*
X9170648Y-11758428D01*
X9170648Y-11758428D02*
X9161124Y-11777476D01*
X9161124Y-11777476D02*
X9151600Y-11787000D01*
X9151600Y-11787000D02*
X9132552Y-11796524D01*
X9132552Y-11796524D02*
X9113505Y-11796524D01*
X9113505Y-11796524D02*
X9094457Y-11787000D01*
X9094457Y-11787000D02*
X9084933Y-11777476D01*
X9084933Y-11777476D02*
X9075410Y-11758428D01*
X9075410Y-11758428D02*
X9065886Y-11720333D01*
X9065886Y-11720333D02*
X9065886Y-11672714D01*
X9065886Y-11672714D02*
X9075410Y-11634619D01*
X9075410Y-11634619D02*
X9084933Y-11615571D01*
X9084933Y-11615571D02*
X9094457Y-11606048D01*
X9094457Y-11606048D02*
X9113505Y-11596524D01*
X9303981Y-11596524D02*
X9323029Y-11596524D01*
X9323029Y-11596524D02*
X9342076Y-11606048D01*
X9342076Y-11606048D02*
X9351600Y-11615571D01*
X9351600Y-11615571D02*
X9361124Y-11634619D01*
X9361124Y-11634619D02*
X9370648Y-11672714D01*
X9370648Y-11672714D02*
X9370648Y-11720333D01*
X9370648Y-11720333D02*
X9361124Y-11758428D01*
X9361124Y-11758428D02*
X9351600Y-11777476D01*
X9351600Y-11777476D02*
X9342076Y-11787000D01*
X9342076Y-11787000D02*
X9323029Y-11796524D01*
X9323029Y-11796524D02*
X9303981Y-11796524D01*
X9303981Y-11796524D02*
X9284933Y-11787000D01*
X9284933Y-11787000D02*
X9275410Y-11777476D01*
X9275410Y-11777476D02*
X9265886Y-11758428D01*
X9265886Y-11758428D02*
X9256362Y-11720333D01*
X9256362Y-11720333D02*
X9256362Y-11672714D01*
X9256362Y-11672714D02*
X9265886Y-11634619D01*
X9265886Y-11634619D02*
X9275410Y-11615571D01*
X9275410Y-11615571D02*
X9284933Y-11606048D01*
X9284933Y-11606048D02*
X9303981Y-11596524D01*
X9456362Y-11796524D02*
X9456362Y-11663190D01*
X9456362Y-11682238D02*
X9465886Y-11672714D01*
X9465886Y-11672714D02*
X9484933Y-11663190D01*
X9484933Y-11663190D02*
X9513505Y-11663190D01*
X9513505Y-11663190D02*
X9532552Y-11672714D01*
X9532552Y-11672714D02*
X9542076Y-11691762D01*
X9542076Y-11691762D02*
X9542076Y-11796524D01*
X9542076Y-11691762D02*
X9551600Y-11672714D01*
X9551600Y-11672714D02*
X9570648Y-11663190D01*
X9570648Y-11663190D02*
X9599219Y-11663190D01*
X9599219Y-11663190D02*
X9618267Y-11672714D01*
X9618267Y-11672714D02*
X9627791Y-11691762D01*
X9627791Y-11691762D02*
X9627791Y-11796524D01*
X9723029Y-11796524D02*
X9723029Y-11663190D01*
X9723029Y-11682238D02*
X9732552Y-11672714D01*
X9732552Y-11672714D02*
X9751600Y-11663190D01*
X9751600Y-11663190D02*
X9780172Y-11663190D01*
X9780172Y-11663190D02*
X9799219Y-11672714D01*
X9799219Y-11672714D02*
X9808743Y-11691762D01*
X9808743Y-11691762D02*
X9808743Y-11796524D01*
X9808743Y-11691762D02*
X9818267Y-11672714D01*
X9818267Y-11672714D02*
X9837314Y-11663190D01*
X9837314Y-11663190D02*
X9865886Y-11663190D01*
X9865886Y-11663190D02*
X9884933Y-11672714D01*
X9884933Y-11672714D02*
X9894457Y-11691762D01*
X9894457Y-11691762D02*
X9894457Y-11796524D01*
X10284933Y-11587000D02*
X10113505Y-11844143D01*
X10542076Y-11596524D02*
X10561124Y-11596524D01*
X10561124Y-11596524D02*
X10580172Y-11606048D01*
X10580172Y-11606048D02*
X10589695Y-11615571D01*
X10589695Y-11615571D02*
X10599219Y-11634619D01*
X10599219Y-11634619D02*
X10608743Y-11672714D01*
X10608743Y-11672714D02*
X10608743Y-11720333D01*
X10608743Y-11720333D02*
X10599219Y-11758428D01*
X10599219Y-11758428D02*
X10589695Y-11777476D01*
X10589695Y-11777476D02*
X10580172Y-11787000D01*
X10580172Y-11787000D02*
X10561124Y-11796524D01*
X10561124Y-11796524D02*
X10542076Y-11796524D01*
X10542076Y-11796524D02*
X10523029Y-11787000D01*
X10523029Y-11787000D02*
X10513505Y-11777476D01*
X10513505Y-11777476D02*
X10503981Y-11758428D01*
X10503981Y-11758428D02*
X10494457Y-11720333D01*
X10494457Y-11720333D02*
X10494457Y-11672714D01*
X10494457Y-11672714D02*
X10503981Y-11634619D01*
X10503981Y-11634619D02*
X10513505Y-11615571D01*
X10513505Y-11615571D02*
X10523029Y-11606048D01*
X10523029Y-11606048D02*
X10542076Y-11596524D01*
X10694457Y-11777476D02*
X10703981Y-11787000D01*
X10703981Y-11787000D02*
X10694457Y-11796524D01*
X10694457Y-11796524D02*
X10684934Y-11787000D01*
X10684934Y-11787000D02*
X10694457Y-11777476D01*
X10694457Y-11777476D02*
X10694457Y-11796524D01*
X10827791Y-11596524D02*
X10846838Y-11596524D01*
X10846838Y-11596524D02*
X10865886Y-11606048D01*
X10865886Y-11606048D02*
X10875410Y-11615571D01*
X10875410Y-11615571D02*
X10884934Y-11634619D01*
X10884934Y-11634619D02*
X10894457Y-11672714D01*
X10894457Y-11672714D02*
X10894457Y-11720333D01*
X10894457Y-11720333D02*
X10884934Y-11758428D01*
X10884934Y-11758428D02*
X10875410Y-11777476D01*
X10875410Y-11777476D02*
X10865886Y-11787000D01*
X10865886Y-11787000D02*
X10846838Y-11796524D01*
X10846838Y-11796524D02*
X10827791Y-11796524D01*
X10827791Y-11796524D02*
X10808743Y-11787000D01*
X10808743Y-11787000D02*
X10799219Y-11777476D01*
X10799219Y-11777476D02*
X10789695Y-11758428D01*
X10789695Y-11758428D02*
X10780172Y-11720333D01*
X10780172Y-11720333D02*
X10780172Y-11672714D01*
X10780172Y-11672714D02*
X10789695Y-11634619D01*
X10789695Y-11634619D02*
X10799219Y-11615571D01*
X10799219Y-11615571D02*
X10808743Y-11606048D01*
X10808743Y-11606048D02*
X10827791Y-11596524D01*
X10961124Y-11596524D02*
X11084934Y-11596524D01*
X11084934Y-11596524D02*
X11018267Y-11672714D01*
X11018267Y-11672714D02*
X11046838Y-11672714D01*
X11046838Y-11672714D02*
X11065886Y-11682238D01*
X11065886Y-11682238D02*
X11075410Y-11691762D01*
X11075410Y-11691762D02*
X11084934Y-11710809D01*
X11084934Y-11710809D02*
X11084934Y-11758428D01*
X11084934Y-11758428D02*
X11075410Y-11777476D01*
X11075410Y-11777476D02*
X11065886Y-11787000D01*
X11065886Y-11787000D02*
X11046838Y-11796524D01*
X11046838Y-11796524D02*
X10989695Y-11796524D01*
X10989695Y-11796524D02*
X10970648Y-11787000D01*
X10970648Y-11787000D02*
X10961124Y-11777476D01*
X11275410Y-11796524D02*
X11161124Y-11796524D01*
X11218267Y-11796524D02*
X11218267Y-11596524D01*
X11218267Y-11596524D02*
X11199219Y-11625095D01*
X11199219Y-11625095D02*
X11180172Y-11644143D01*
X11180172Y-11644143D02*
X11161124Y-11653667D01*
X11456362Y-11596524D02*
X11361124Y-11596524D01*
X11361124Y-11596524D02*
X11351600Y-11691762D01*
X11351600Y-11691762D02*
X11361124Y-11682238D01*
X11361124Y-11682238D02*
X11380172Y-11672714D01*
X11380172Y-11672714D02*
X11427791Y-11672714D01*
X11427791Y-11672714D02*
X11446838Y-11682238D01*
X11446838Y-11682238D02*
X11456362Y-11691762D01*
X11456362Y-11691762D02*
X11465886Y-11710809D01*
X11465886Y-11710809D02*
X11465886Y-11758428D01*
X11465886Y-11758428D02*
X11456362Y-11777476D01*
X11456362Y-11777476D02*
X11446838Y-11787000D01*
X11446838Y-11787000D02*
X11427791Y-11796524D01*
X11427791Y-11796524D02*
X11380172Y-11796524D01*
X11380172Y-11796524D02*
X11361124Y-11787000D01*
X11361124Y-11787000D02*
X11351600Y-11777476D01*
X11542076Y-11596524D02*
X11542076Y-11634619D01*
X11618267Y-11596524D02*
X11618267Y-11634619D01*
X11913505Y-11872714D02*
X11903981Y-11863190D01*
X11903981Y-11863190D02*
X11884934Y-11834619D01*
X11884934Y-11834619D02*
X11875410Y-11815571D01*
X11875410Y-11815571D02*
X11865886Y-11787000D01*
X11865886Y-11787000D02*
X11856362Y-11739381D01*
X11856362Y-11739381D02*
X11856362Y-11701286D01*
X11856362Y-11701286D02*
X11865886Y-11653667D01*
X11865886Y-11653667D02*
X11875410Y-11625095D01*
X11875410Y-11625095D02*
X11884934Y-11606048D01*
X11884934Y-11606048D02*
X11903981Y-11577476D01*
X11903981Y-11577476D02*
X11913505Y-11567952D01*
X11970648Y-11596524D02*
X12094457Y-11596524D01*
X12094457Y-11596524D02*
X12027791Y-11672714D01*
X12027791Y-11672714D02*
X12056362Y-11672714D01*
X12056362Y-11672714D02*
X12075410Y-11682238D01*
X12075410Y-11682238D02*
X12084934Y-11691762D01*
X12084934Y-11691762D02*
X12094457Y-11710809D01*
X12094457Y-11710809D02*
X12094457Y-11758428D01*
X12094457Y-11758428D02*
X12084934Y-11777476D01*
X12084934Y-11777476D02*
X12075410Y-11787000D01*
X12075410Y-11787000D02*
X12056362Y-11796524D01*
X12056362Y-11796524D02*
X11999219Y-11796524D01*
X11999219Y-11796524D02*
X11980172Y-11787000D01*
X11980172Y-11787000D02*
X11970648Y-11777476D01*
X12208743Y-11682238D02*
X12189695Y-11672714D01*
X12189695Y-11672714D02*
X12180172Y-11663190D01*
X12180172Y-11663190D02*
X12170648Y-11644143D01*
X12170648Y-11644143D02*
X12170648Y-11634619D01*
X12170648Y-11634619D02*
X12180172Y-11615571D01*
X12180172Y-11615571D02*
X12189695Y-11606048D01*
X12189695Y-11606048D02*
X12208743Y-11596524D01*
X12208743Y-11596524D02*
X12246838Y-11596524D01*
X12246838Y-11596524D02*
X12265886Y-11606048D01*
X12265886Y-11606048D02*
X12275410Y-11615571D01*
X12275410Y-11615571D02*
X12284934Y-11634619D01*
X12284934Y-11634619D02*
X12284934Y-11644143D01*
X12284934Y-11644143D02*
X12275410Y-11663190D01*
X12275410Y-11663190D02*
X12265886Y-11672714D01*
X12265886Y-11672714D02*
X12246838Y-11682238D01*
X12246838Y-11682238D02*
X12208743Y-11682238D01*
X12208743Y-11682238D02*
X12189695Y-11691762D01*
X12189695Y-11691762D02*
X12180172Y-11701286D01*
X12180172Y-11701286D02*
X12170648Y-11720333D01*
X12170648Y-11720333D02*
X12170648Y-11758428D01*
X12170648Y-11758428D02*
X12180172Y-11777476D01*
X12180172Y-11777476D02*
X12189695Y-11787000D01*
X12189695Y-11787000D02*
X12208743Y-11796524D01*
X12208743Y-11796524D02*
X12246838Y-11796524D01*
X12246838Y-11796524D02*
X12265886Y-11787000D01*
X12265886Y-11787000D02*
X12275410Y-11777476D01*
X12275410Y-11777476D02*
X12284934Y-11758428D01*
X12284934Y-11758428D02*
X12284934Y-11720333D01*
X12284934Y-11720333D02*
X12275410Y-11701286D01*
X12275410Y-11701286D02*
X12265886Y-11691762D01*
X12265886Y-11691762D02*
X12246838Y-11682238D01*
X12523029Y-11796524D02*
X12523029Y-11596524D01*
X12608743Y-11796524D02*
X12608743Y-11691762D01*
X12608743Y-11691762D02*
X12599219Y-11672714D01*
X12599219Y-11672714D02*
X12580172Y-11663190D01*
X12580172Y-11663190D02*
X12551600Y-11663190D01*
X12551600Y-11663190D02*
X12532553Y-11672714D01*
X12532553Y-11672714D02*
X12523029Y-11682238D01*
X12732553Y-11796524D02*
X12713505Y-11787000D01*
X12713505Y-11787000D02*
X12703981Y-11777476D01*
X12703981Y-11777476D02*
X12694457Y-11758428D01*
X12694457Y-11758428D02*
X12694457Y-11701286D01*
X12694457Y-11701286D02*
X12703981Y-11682238D01*
X12703981Y-11682238D02*
X12713505Y-11672714D01*
X12713505Y-11672714D02*
X12732553Y-11663190D01*
X12732553Y-11663190D02*
X12761124Y-11663190D01*
X12761124Y-11663190D02*
X12780172Y-11672714D01*
X12780172Y-11672714D02*
X12789696Y-11682238D01*
X12789696Y-11682238D02*
X12799219Y-11701286D01*
X12799219Y-11701286D02*
X12799219Y-11758428D01*
X12799219Y-11758428D02*
X12789696Y-11777476D01*
X12789696Y-11777476D02*
X12780172Y-11787000D01*
X12780172Y-11787000D02*
X12761124Y-11796524D01*
X12761124Y-11796524D02*
X12732553Y-11796524D01*
X12913505Y-11796524D02*
X12894457Y-11787000D01*
X12894457Y-11787000D02*
X12884934Y-11767952D01*
X12884934Y-11767952D02*
X12884934Y-11596524D01*
X13065886Y-11787000D02*
X13046838Y-11796524D01*
X13046838Y-11796524D02*
X13008743Y-11796524D01*
X13008743Y-11796524D02*
X12989696Y-11787000D01*
X12989696Y-11787000D02*
X12980172Y-11767952D01*
X12980172Y-11767952D02*
X12980172Y-11691762D01*
X12980172Y-11691762D02*
X12989696Y-11672714D01*
X12989696Y-11672714D02*
X13008743Y-11663190D01*
X13008743Y-11663190D02*
X13046838Y-11663190D01*
X13046838Y-11663190D02*
X13065886Y-11672714D01*
X13065886Y-11672714D02*
X13075410Y-11691762D01*
X13075410Y-11691762D02*
X13075410Y-11710809D01*
X13075410Y-11710809D02*
X12980172Y-11729857D01*
X13151600Y-11787000D02*
X13170648Y-11796524D01*
X13170648Y-11796524D02*
X13208743Y-11796524D01*
X13208743Y-11796524D02*
X13227791Y-11787000D01*
X13227791Y-11787000D02*
X13237315Y-11767952D01*
X13237315Y-11767952D02*
X13237315Y-11758428D01*
X13237315Y-11758428D02*
X13227791Y-11739381D01*
X13227791Y-11739381D02*
X13208743Y-11729857D01*
X13208743Y-11729857D02*
X13180172Y-11729857D01*
X13180172Y-11729857D02*
X13161124Y-11720333D01*
X13161124Y-11720333D02*
X13151600Y-11701286D01*
X13151600Y-11701286D02*
X13151600Y-11691762D01*
X13151600Y-11691762D02*
X13161124Y-11672714D01*
X13161124Y-11672714D02*
X13180172Y-11663190D01*
X13180172Y-11663190D02*
X13208743Y-11663190D01*
X13208743Y-11663190D02*
X13227791Y-11672714D01*
X13303981Y-11872714D02*
X13313505Y-11863190D01*
X13313505Y-11863190D02*
X13332553Y-11834619D01*
X13332553Y-11834619D02*
X13342077Y-11815571D01*
X13342077Y-11815571D02*
X13351600Y-11787000D01*
X13351600Y-11787000D02*
X13361124Y-11739381D01*
X13361124Y-11739381D02*
X13361124Y-11701286D01*
X13361124Y-11701286D02*
X13351600Y-11653667D01*
X13351600Y-11653667D02*
X13342077Y-11625095D01*
X13342077Y-11625095D02*
X13332553Y-11606048D01*
X13332553Y-11606048D02*
X13313505Y-11577476D01*
X13313505Y-11577476D02*
X13303981Y-11567952D01*
D14*
X8306600Y-11923000D02*
X8306600Y-12013000D01*
X8261600Y-11968000D02*
X8351600Y-11968000D01*
D11*
X8637314Y-11860524D02*
X8656362Y-11860524D01*
X8656362Y-11860524D02*
X8675410Y-11870048D01*
X8675410Y-11870048D02*
X8684933Y-11879571D01*
X8684933Y-11879571D02*
X8694457Y-11898619D01*
X8694457Y-11898619D02*
X8703981Y-11936714D01*
X8703981Y-11936714D02*
X8703981Y-11984333D01*
X8703981Y-11984333D02*
X8694457Y-12022428D01*
X8694457Y-12022428D02*
X8684933Y-12041476D01*
X8684933Y-12041476D02*
X8675410Y-12051000D01*
X8675410Y-12051000D02*
X8656362Y-12060524D01*
X8656362Y-12060524D02*
X8637314Y-12060524D01*
X8637314Y-12060524D02*
X8618267Y-12051000D01*
X8618267Y-12051000D02*
X8608743Y-12041476D01*
X8608743Y-12041476D02*
X8599219Y-12022428D01*
X8599219Y-12022428D02*
X8589695Y-11984333D01*
X8589695Y-11984333D02*
X8589695Y-11936714D01*
X8589695Y-11936714D02*
X8599219Y-11898619D01*
X8599219Y-11898619D02*
X8608743Y-11879571D01*
X8608743Y-11879571D02*
X8618267Y-11870048D01*
X8618267Y-11870048D02*
X8637314Y-11860524D01*
X8789695Y-12041476D02*
X8799219Y-12051000D01*
X8799219Y-12051000D02*
X8789695Y-12060524D01*
X8789695Y-12060524D02*
X8780171Y-12051000D01*
X8780171Y-12051000D02*
X8789695Y-12041476D01*
X8789695Y-12041476D02*
X8789695Y-12060524D01*
X8894457Y-12060524D02*
X8932552Y-12060524D01*
X8932552Y-12060524D02*
X8951600Y-12051000D01*
X8951600Y-12051000D02*
X8961124Y-12041476D01*
X8961124Y-12041476D02*
X8980171Y-12012905D01*
X8980171Y-12012905D02*
X8989695Y-11974809D01*
X8989695Y-11974809D02*
X8989695Y-11898619D01*
X8989695Y-11898619D02*
X8980171Y-11879571D01*
X8980171Y-11879571D02*
X8970648Y-11870048D01*
X8970648Y-11870048D02*
X8951600Y-11860524D01*
X8951600Y-11860524D02*
X8913505Y-11860524D01*
X8913505Y-11860524D02*
X8894457Y-11870048D01*
X8894457Y-11870048D02*
X8884933Y-11879571D01*
X8884933Y-11879571D02*
X8875410Y-11898619D01*
X8875410Y-11898619D02*
X8875410Y-11946238D01*
X8875410Y-11946238D02*
X8884933Y-11965286D01*
X8884933Y-11965286D02*
X8894457Y-11974809D01*
X8894457Y-11974809D02*
X8913505Y-11984333D01*
X8913505Y-11984333D02*
X8951600Y-11984333D01*
X8951600Y-11984333D02*
X8970648Y-11974809D01*
X8970648Y-11974809D02*
X8980171Y-11965286D01*
X8980171Y-11965286D02*
X8989695Y-11946238D01*
X9113505Y-11860524D02*
X9132552Y-11860524D01*
X9132552Y-11860524D02*
X9151600Y-11870048D01*
X9151600Y-11870048D02*
X9161124Y-11879571D01*
X9161124Y-11879571D02*
X9170648Y-11898619D01*
X9170648Y-11898619D02*
X9180171Y-11936714D01*
X9180171Y-11936714D02*
X9180171Y-11984333D01*
X9180171Y-11984333D02*
X9170648Y-12022428D01*
X9170648Y-12022428D02*
X9161124Y-12041476D01*
X9161124Y-12041476D02*
X9151600Y-12051000D01*
X9151600Y-12051000D02*
X9132552Y-12060524D01*
X9132552Y-12060524D02*
X9113505Y-12060524D01*
X9113505Y-12060524D02*
X9094457Y-12051000D01*
X9094457Y-12051000D02*
X9084933Y-12041476D01*
X9084933Y-12041476D02*
X9075410Y-12022428D01*
X9075410Y-12022428D02*
X9065886Y-11984333D01*
X9065886Y-11984333D02*
X9065886Y-11936714D01*
X9065886Y-11936714D02*
X9075410Y-11898619D01*
X9075410Y-11898619D02*
X9084933Y-11879571D01*
X9084933Y-11879571D02*
X9094457Y-11870048D01*
X9094457Y-11870048D02*
X9113505Y-11860524D01*
X9303981Y-11860524D02*
X9323029Y-11860524D01*
X9323029Y-11860524D02*
X9342076Y-11870048D01*
X9342076Y-11870048D02*
X9351600Y-11879571D01*
X9351600Y-11879571D02*
X9361124Y-11898619D01*
X9361124Y-11898619D02*
X9370648Y-11936714D01*
X9370648Y-11936714D02*
X9370648Y-11984333D01*
X9370648Y-11984333D02*
X9361124Y-12022428D01*
X9361124Y-12022428D02*
X9351600Y-12041476D01*
X9351600Y-12041476D02*
X9342076Y-12051000D01*
X9342076Y-12051000D02*
X9323029Y-12060524D01*
X9323029Y-12060524D02*
X9303981Y-12060524D01*
X9303981Y-12060524D02*
X9284933Y-12051000D01*
X9284933Y-12051000D02*
X9275410Y-12041476D01*
X9275410Y-12041476D02*
X9265886Y-12022428D01*
X9265886Y-12022428D02*
X9256362Y-11984333D01*
X9256362Y-11984333D02*
X9256362Y-11936714D01*
X9256362Y-11936714D02*
X9265886Y-11898619D01*
X9265886Y-11898619D02*
X9275410Y-11879571D01*
X9275410Y-11879571D02*
X9284933Y-11870048D01*
X9284933Y-11870048D02*
X9303981Y-11860524D01*
X9456362Y-12060524D02*
X9456362Y-11927190D01*
X9456362Y-11946238D02*
X9465886Y-11936714D01*
X9465886Y-11936714D02*
X9484933Y-11927190D01*
X9484933Y-11927190D02*
X9513505Y-11927190D01*
X9513505Y-11927190D02*
X9532552Y-11936714D01*
X9532552Y-11936714D02*
X9542076Y-11955762D01*
X9542076Y-11955762D02*
X9542076Y-12060524D01*
X9542076Y-11955762D02*
X9551600Y-11936714D01*
X9551600Y-11936714D02*
X9570648Y-11927190D01*
X9570648Y-11927190D02*
X9599219Y-11927190D01*
X9599219Y-11927190D02*
X9618267Y-11936714D01*
X9618267Y-11936714D02*
X9627791Y-11955762D01*
X9627791Y-11955762D02*
X9627791Y-12060524D01*
X9723029Y-12060524D02*
X9723029Y-11927190D01*
X9723029Y-11946238D02*
X9732552Y-11936714D01*
X9732552Y-11936714D02*
X9751600Y-11927190D01*
X9751600Y-11927190D02*
X9780172Y-11927190D01*
X9780172Y-11927190D02*
X9799219Y-11936714D01*
X9799219Y-11936714D02*
X9808743Y-11955762D01*
X9808743Y-11955762D02*
X9808743Y-12060524D01*
X9808743Y-11955762D02*
X9818267Y-11936714D01*
X9818267Y-11936714D02*
X9837314Y-11927190D01*
X9837314Y-11927190D02*
X9865886Y-11927190D01*
X9865886Y-11927190D02*
X9884933Y-11936714D01*
X9884933Y-11936714D02*
X9894457Y-11955762D01*
X9894457Y-11955762D02*
X9894457Y-12060524D01*
X10284933Y-11851000D02*
X10113505Y-12108143D01*
X10542076Y-11860524D02*
X10561124Y-11860524D01*
X10561124Y-11860524D02*
X10580172Y-11870048D01*
X10580172Y-11870048D02*
X10589695Y-11879571D01*
X10589695Y-11879571D02*
X10599219Y-11898619D01*
X10599219Y-11898619D02*
X10608743Y-11936714D01*
X10608743Y-11936714D02*
X10608743Y-11984333D01*
X10608743Y-11984333D02*
X10599219Y-12022428D01*
X10599219Y-12022428D02*
X10589695Y-12041476D01*
X10589695Y-12041476D02*
X10580172Y-12051000D01*
X10580172Y-12051000D02*
X10561124Y-12060524D01*
X10561124Y-12060524D02*
X10542076Y-12060524D01*
X10542076Y-12060524D02*
X10523029Y-12051000D01*
X10523029Y-12051000D02*
X10513505Y-12041476D01*
X10513505Y-12041476D02*
X10503981Y-12022428D01*
X10503981Y-12022428D02*
X10494457Y-11984333D01*
X10494457Y-11984333D02*
X10494457Y-11936714D01*
X10494457Y-11936714D02*
X10503981Y-11898619D01*
X10503981Y-11898619D02*
X10513505Y-11879571D01*
X10513505Y-11879571D02*
X10523029Y-11870048D01*
X10523029Y-11870048D02*
X10542076Y-11860524D01*
X10694457Y-12041476D02*
X10703981Y-12051000D01*
X10703981Y-12051000D02*
X10694457Y-12060524D01*
X10694457Y-12060524D02*
X10684934Y-12051000D01*
X10684934Y-12051000D02*
X10694457Y-12041476D01*
X10694457Y-12041476D02*
X10694457Y-12060524D01*
X10827791Y-11860524D02*
X10846838Y-11860524D01*
X10846838Y-11860524D02*
X10865886Y-11870048D01*
X10865886Y-11870048D02*
X10875410Y-11879571D01*
X10875410Y-11879571D02*
X10884934Y-11898619D01*
X10884934Y-11898619D02*
X10894457Y-11936714D01*
X10894457Y-11936714D02*
X10894457Y-11984333D01*
X10894457Y-11984333D02*
X10884934Y-12022428D01*
X10884934Y-12022428D02*
X10875410Y-12041476D01*
X10875410Y-12041476D02*
X10865886Y-12051000D01*
X10865886Y-12051000D02*
X10846838Y-12060524D01*
X10846838Y-12060524D02*
X10827791Y-12060524D01*
X10827791Y-12060524D02*
X10808743Y-12051000D01*
X10808743Y-12051000D02*
X10799219Y-12041476D01*
X10799219Y-12041476D02*
X10789695Y-12022428D01*
X10789695Y-12022428D02*
X10780172Y-11984333D01*
X10780172Y-11984333D02*
X10780172Y-11936714D01*
X10780172Y-11936714D02*
X10789695Y-11898619D01*
X10789695Y-11898619D02*
X10799219Y-11879571D01*
X10799219Y-11879571D02*
X10808743Y-11870048D01*
X10808743Y-11870048D02*
X10827791Y-11860524D01*
X10961124Y-11860524D02*
X11084934Y-11860524D01*
X11084934Y-11860524D02*
X11018267Y-11936714D01*
X11018267Y-11936714D02*
X11046838Y-11936714D01*
X11046838Y-11936714D02*
X11065886Y-11946238D01*
X11065886Y-11946238D02*
X11075410Y-11955762D01*
X11075410Y-11955762D02*
X11084934Y-11974809D01*
X11084934Y-11974809D02*
X11084934Y-12022428D01*
X11084934Y-12022428D02*
X11075410Y-12041476D01*
X11075410Y-12041476D02*
X11065886Y-12051000D01*
X11065886Y-12051000D02*
X11046838Y-12060524D01*
X11046838Y-12060524D02*
X10989695Y-12060524D01*
X10989695Y-12060524D02*
X10970648Y-12051000D01*
X10970648Y-12051000D02*
X10961124Y-12041476D01*
X11265886Y-11860524D02*
X11170648Y-11860524D01*
X11170648Y-11860524D02*
X11161124Y-11955762D01*
X11161124Y-11955762D02*
X11170648Y-11946238D01*
X11170648Y-11946238D02*
X11189695Y-11936714D01*
X11189695Y-11936714D02*
X11237314Y-11936714D01*
X11237314Y-11936714D02*
X11256362Y-11946238D01*
X11256362Y-11946238D02*
X11265886Y-11955762D01*
X11265886Y-11955762D02*
X11275410Y-11974809D01*
X11275410Y-11974809D02*
X11275410Y-12022428D01*
X11275410Y-12022428D02*
X11265886Y-12041476D01*
X11265886Y-12041476D02*
X11256362Y-12051000D01*
X11256362Y-12051000D02*
X11237314Y-12060524D01*
X11237314Y-12060524D02*
X11189695Y-12060524D01*
X11189695Y-12060524D02*
X11170648Y-12051000D01*
X11170648Y-12051000D02*
X11161124Y-12041476D01*
X11446838Y-11927190D02*
X11446838Y-12060524D01*
X11399219Y-11851000D02*
X11351600Y-11993857D01*
X11351600Y-11993857D02*
X11475410Y-11993857D01*
X11542076Y-11860524D02*
X11542076Y-11898619D01*
X11618267Y-11860524D02*
X11618267Y-11898619D01*
X11913505Y-12136714D02*
X11903981Y-12127190D01*
X11903981Y-12127190D02*
X11884934Y-12098619D01*
X11884934Y-12098619D02*
X11875410Y-12079571D01*
X11875410Y-12079571D02*
X11865886Y-12051000D01*
X11865886Y-12051000D02*
X11856362Y-12003381D01*
X11856362Y-12003381D02*
X11856362Y-11965286D01*
X11856362Y-11965286D02*
X11865886Y-11917667D01*
X11865886Y-11917667D02*
X11875410Y-11889095D01*
X11875410Y-11889095D02*
X11884934Y-11870048D01*
X11884934Y-11870048D02*
X11903981Y-11841476D01*
X11903981Y-11841476D02*
X11913505Y-11831952D01*
X12075410Y-11927190D02*
X12075410Y-12060524D01*
X12027791Y-11851000D02*
X11980172Y-11993857D01*
X11980172Y-11993857D02*
X12103981Y-11993857D01*
X12208743Y-11946238D02*
X12189695Y-11936714D01*
X12189695Y-11936714D02*
X12180172Y-11927190D01*
X12180172Y-11927190D02*
X12170648Y-11908143D01*
X12170648Y-11908143D02*
X12170648Y-11898619D01*
X12170648Y-11898619D02*
X12180172Y-11879571D01*
X12180172Y-11879571D02*
X12189695Y-11870048D01*
X12189695Y-11870048D02*
X12208743Y-11860524D01*
X12208743Y-11860524D02*
X12246838Y-11860524D01*
X12246838Y-11860524D02*
X12265886Y-11870048D01*
X12265886Y-11870048D02*
X12275410Y-11879571D01*
X12275410Y-11879571D02*
X12284934Y-11898619D01*
X12284934Y-11898619D02*
X12284934Y-11908143D01*
X12284934Y-11908143D02*
X12275410Y-11927190D01*
X12275410Y-11927190D02*
X12265886Y-11936714D01*
X12265886Y-11936714D02*
X12246838Y-11946238D01*
X12246838Y-11946238D02*
X12208743Y-11946238D01*
X12208743Y-11946238D02*
X12189695Y-11955762D01*
X12189695Y-11955762D02*
X12180172Y-11965286D01*
X12180172Y-11965286D02*
X12170648Y-11984333D01*
X12170648Y-11984333D02*
X12170648Y-12022428D01*
X12170648Y-12022428D02*
X12180172Y-12041476D01*
X12180172Y-12041476D02*
X12189695Y-12051000D01*
X12189695Y-12051000D02*
X12208743Y-12060524D01*
X12208743Y-12060524D02*
X12246838Y-12060524D01*
X12246838Y-12060524D02*
X12265886Y-12051000D01*
X12265886Y-12051000D02*
X12275410Y-12041476D01*
X12275410Y-12041476D02*
X12284934Y-12022428D01*
X12284934Y-12022428D02*
X12284934Y-11984333D01*
X12284934Y-11984333D02*
X12275410Y-11965286D01*
X12275410Y-11965286D02*
X12265886Y-11955762D01*
X12265886Y-11955762D02*
X12246838Y-11946238D01*
X12523029Y-12060524D02*
X12523029Y-11860524D01*
X12608743Y-12060524D02*
X12608743Y-11955762D01*
X12608743Y-11955762D02*
X12599219Y-11936714D01*
X12599219Y-11936714D02*
X12580172Y-11927190D01*
X12580172Y-11927190D02*
X12551600Y-11927190D01*
X12551600Y-11927190D02*
X12532553Y-11936714D01*
X12532553Y-11936714D02*
X12523029Y-11946238D01*
X12732553Y-12060524D02*
X12713505Y-12051000D01*
X12713505Y-12051000D02*
X12703981Y-12041476D01*
X12703981Y-12041476D02*
X12694457Y-12022428D01*
X12694457Y-12022428D02*
X12694457Y-11965286D01*
X12694457Y-11965286D02*
X12703981Y-11946238D01*
X12703981Y-11946238D02*
X12713505Y-11936714D01*
X12713505Y-11936714D02*
X12732553Y-11927190D01*
X12732553Y-11927190D02*
X12761124Y-11927190D01*
X12761124Y-11927190D02*
X12780172Y-11936714D01*
X12780172Y-11936714D02*
X12789696Y-11946238D01*
X12789696Y-11946238D02*
X12799219Y-11965286D01*
X12799219Y-11965286D02*
X12799219Y-12022428D01*
X12799219Y-12022428D02*
X12789696Y-12041476D01*
X12789696Y-12041476D02*
X12780172Y-12051000D01*
X12780172Y-12051000D02*
X12761124Y-12060524D01*
X12761124Y-12060524D02*
X12732553Y-12060524D01*
X12913505Y-12060524D02*
X12894457Y-12051000D01*
X12894457Y-12051000D02*
X12884934Y-12031952D01*
X12884934Y-12031952D02*
X12884934Y-11860524D01*
X13065886Y-12051000D02*
X13046838Y-12060524D01*
X13046838Y-12060524D02*
X13008743Y-12060524D01*
X13008743Y-12060524D02*
X12989696Y-12051000D01*
X12989696Y-12051000D02*
X12980172Y-12031952D01*
X12980172Y-12031952D02*
X12980172Y-11955762D01*
X12980172Y-11955762D02*
X12989696Y-11936714D01*
X12989696Y-11936714D02*
X13008743Y-11927190D01*
X13008743Y-11927190D02*
X13046838Y-11927190D01*
X13046838Y-11927190D02*
X13065886Y-11936714D01*
X13065886Y-11936714D02*
X13075410Y-11955762D01*
X13075410Y-11955762D02*
X13075410Y-11974809D01*
X13075410Y-11974809D02*
X12980172Y-11993857D01*
X13151600Y-12051000D02*
X13170648Y-12060524D01*
X13170648Y-12060524D02*
X13208743Y-12060524D01*
X13208743Y-12060524D02*
X13227791Y-12051000D01*
X13227791Y-12051000D02*
X13237315Y-12031952D01*
X13237315Y-12031952D02*
X13237315Y-12022428D01*
X13237315Y-12022428D02*
X13227791Y-12003381D01*
X13227791Y-12003381D02*
X13208743Y-11993857D01*
X13208743Y-11993857D02*
X13180172Y-11993857D01*
X13180172Y-11993857D02*
X13161124Y-11984333D01*
X13161124Y-11984333D02*
X13151600Y-11965286D01*
X13151600Y-11965286D02*
X13151600Y-11955762D01*
X13151600Y-11955762D02*
X13161124Y-11936714D01*
X13161124Y-11936714D02*
X13180172Y-11927190D01*
X13180172Y-11927190D02*
X13208743Y-11927190D01*
X13208743Y-11927190D02*
X13227791Y-11936714D01*
X13303981Y-12136714D02*
X13313505Y-12127190D01*
X13313505Y-12127190D02*
X13332553Y-12098619D01*
X13332553Y-12098619D02*
X13342077Y-12079571D01*
X13342077Y-12079571D02*
X13351600Y-12051000D01*
X13351600Y-12051000D02*
X13361124Y-12003381D01*
X13361124Y-12003381D02*
X13361124Y-11965286D01*
X13361124Y-11965286D02*
X13351600Y-11917667D01*
X13351600Y-11917667D02*
X13342077Y-11889095D01*
X13342077Y-11889095D02*
X13332553Y-11870048D01*
X13332553Y-11870048D02*
X13313505Y-11841476D01*
X13313505Y-11841476D02*
X13303981Y-11831952D01*
D15*
X8334173Y-12274073D02*
X8334173Y-12189927D01*
X8250027Y-12189927D01*
X8250027Y-12274073D01*
X8334173Y-12274073D01*
D11*
X8703981Y-12324524D02*
X8589695Y-12324524D01*
X8646838Y-12324524D02*
X8646838Y-12124524D01*
X8646838Y-12124524D02*
X8627790Y-12153095D01*
X8627790Y-12153095D02*
X8608743Y-12172143D01*
X8608743Y-12172143D02*
X8589695Y-12181667D01*
X8789695Y-12305476D02*
X8799219Y-12315000D01*
X8799219Y-12315000D02*
X8789695Y-12324524D01*
X8789695Y-12324524D02*
X8780171Y-12315000D01*
X8780171Y-12315000D02*
X8789695Y-12305476D01*
X8789695Y-12305476D02*
X8789695Y-12324524D01*
X8989695Y-12324524D02*
X8875410Y-12324524D01*
X8932552Y-12324524D02*
X8932552Y-12124524D01*
X8932552Y-12124524D02*
X8913505Y-12153095D01*
X8913505Y-12153095D02*
X8894457Y-12172143D01*
X8894457Y-12172143D02*
X8875410Y-12181667D01*
X9084933Y-12324524D02*
X9123029Y-12324524D01*
X9123029Y-12324524D02*
X9142076Y-12315000D01*
X9142076Y-12315000D02*
X9151600Y-12305476D01*
X9151600Y-12305476D02*
X9170648Y-12276905D01*
X9170648Y-12276905D02*
X9180171Y-12238809D01*
X9180171Y-12238809D02*
X9180171Y-12162619D01*
X9180171Y-12162619D02*
X9170648Y-12143571D01*
X9170648Y-12143571D02*
X9161124Y-12134048D01*
X9161124Y-12134048D02*
X9142076Y-12124524D01*
X9142076Y-12124524D02*
X9103981Y-12124524D01*
X9103981Y-12124524D02*
X9084933Y-12134048D01*
X9084933Y-12134048D02*
X9075410Y-12143571D01*
X9075410Y-12143571D02*
X9065886Y-12162619D01*
X9065886Y-12162619D02*
X9065886Y-12210238D01*
X9065886Y-12210238D02*
X9075410Y-12229286D01*
X9075410Y-12229286D02*
X9084933Y-12238809D01*
X9084933Y-12238809D02*
X9103981Y-12248333D01*
X9103981Y-12248333D02*
X9142076Y-12248333D01*
X9142076Y-12248333D02*
X9161124Y-12238809D01*
X9161124Y-12238809D02*
X9170648Y-12229286D01*
X9170648Y-12229286D02*
X9180171Y-12210238D01*
X9303981Y-12124524D02*
X9323029Y-12124524D01*
X9323029Y-12124524D02*
X9342076Y-12134048D01*
X9342076Y-12134048D02*
X9351600Y-12143571D01*
X9351600Y-12143571D02*
X9361124Y-12162619D01*
X9361124Y-12162619D02*
X9370648Y-12200714D01*
X9370648Y-12200714D02*
X9370648Y-12248333D01*
X9370648Y-12248333D02*
X9361124Y-12286428D01*
X9361124Y-12286428D02*
X9351600Y-12305476D01*
X9351600Y-12305476D02*
X9342076Y-12315000D01*
X9342076Y-12315000D02*
X9323029Y-12324524D01*
X9323029Y-12324524D02*
X9303981Y-12324524D01*
X9303981Y-12324524D02*
X9284933Y-12315000D01*
X9284933Y-12315000D02*
X9275410Y-12305476D01*
X9275410Y-12305476D02*
X9265886Y-12286428D01*
X9265886Y-12286428D02*
X9256362Y-12248333D01*
X9256362Y-12248333D02*
X9256362Y-12200714D01*
X9256362Y-12200714D02*
X9265886Y-12162619D01*
X9265886Y-12162619D02*
X9275410Y-12143571D01*
X9275410Y-12143571D02*
X9284933Y-12134048D01*
X9284933Y-12134048D02*
X9303981Y-12124524D01*
X9456362Y-12324524D02*
X9456362Y-12191190D01*
X9456362Y-12210238D02*
X9465886Y-12200714D01*
X9465886Y-12200714D02*
X9484933Y-12191190D01*
X9484933Y-12191190D02*
X9513505Y-12191190D01*
X9513505Y-12191190D02*
X9532552Y-12200714D01*
X9532552Y-12200714D02*
X9542076Y-12219762D01*
X9542076Y-12219762D02*
X9542076Y-12324524D01*
X9542076Y-12219762D02*
X9551600Y-12200714D01*
X9551600Y-12200714D02*
X9570648Y-12191190D01*
X9570648Y-12191190D02*
X9599219Y-12191190D01*
X9599219Y-12191190D02*
X9618267Y-12200714D01*
X9618267Y-12200714D02*
X9627791Y-12219762D01*
X9627791Y-12219762D02*
X9627791Y-12324524D01*
X9723029Y-12324524D02*
X9723029Y-12191190D01*
X9723029Y-12210238D02*
X9732552Y-12200714D01*
X9732552Y-12200714D02*
X9751600Y-12191190D01*
X9751600Y-12191190D02*
X9780172Y-12191190D01*
X9780172Y-12191190D02*
X9799219Y-12200714D01*
X9799219Y-12200714D02*
X9808743Y-12219762D01*
X9808743Y-12219762D02*
X9808743Y-12324524D01*
X9808743Y-12219762D02*
X9818267Y-12200714D01*
X9818267Y-12200714D02*
X9837314Y-12191190D01*
X9837314Y-12191190D02*
X9865886Y-12191190D01*
X9865886Y-12191190D02*
X9884933Y-12200714D01*
X9884933Y-12200714D02*
X9894457Y-12219762D01*
X9894457Y-12219762D02*
X9894457Y-12324524D01*
X10284933Y-12115000D02*
X10113505Y-12372143D01*
X10542076Y-12124524D02*
X10561124Y-12124524D01*
X10561124Y-12124524D02*
X10580172Y-12134048D01*
X10580172Y-12134048D02*
X10589695Y-12143571D01*
X10589695Y-12143571D02*
X10599219Y-12162619D01*
X10599219Y-12162619D02*
X10608743Y-12200714D01*
X10608743Y-12200714D02*
X10608743Y-12248333D01*
X10608743Y-12248333D02*
X10599219Y-12286428D01*
X10599219Y-12286428D02*
X10589695Y-12305476D01*
X10589695Y-12305476D02*
X10580172Y-12315000D01*
X10580172Y-12315000D02*
X10561124Y-12324524D01*
X10561124Y-12324524D02*
X10542076Y-12324524D01*
X10542076Y-12324524D02*
X10523029Y-12315000D01*
X10523029Y-12315000D02*
X10513505Y-12305476D01*
X10513505Y-12305476D02*
X10503981Y-12286428D01*
X10503981Y-12286428D02*
X10494457Y-12248333D01*
X10494457Y-12248333D02*
X10494457Y-12200714D01*
X10494457Y-12200714D02*
X10503981Y-12162619D01*
X10503981Y-12162619D02*
X10513505Y-12143571D01*
X10513505Y-12143571D02*
X10523029Y-12134048D01*
X10523029Y-12134048D02*
X10542076Y-12124524D01*
X10694457Y-12305476D02*
X10703981Y-12315000D01*
X10703981Y-12315000D02*
X10694457Y-12324524D01*
X10694457Y-12324524D02*
X10684934Y-12315000D01*
X10684934Y-12315000D02*
X10694457Y-12305476D01*
X10694457Y-12305476D02*
X10694457Y-12324524D01*
X10827791Y-12124524D02*
X10846838Y-12124524D01*
X10846838Y-12124524D02*
X10865886Y-12134048D01*
X10865886Y-12134048D02*
X10875410Y-12143571D01*
X10875410Y-12143571D02*
X10884934Y-12162619D01*
X10884934Y-12162619D02*
X10894457Y-12200714D01*
X10894457Y-12200714D02*
X10894457Y-12248333D01*
X10894457Y-12248333D02*
X10884934Y-12286428D01*
X10884934Y-12286428D02*
X10875410Y-12305476D01*
X10875410Y-12305476D02*
X10865886Y-12315000D01*
X10865886Y-12315000D02*
X10846838Y-12324524D01*
X10846838Y-12324524D02*
X10827791Y-12324524D01*
X10827791Y-12324524D02*
X10808743Y-12315000D01*
X10808743Y-12315000D02*
X10799219Y-12305476D01*
X10799219Y-12305476D02*
X10789695Y-12286428D01*
X10789695Y-12286428D02*
X10780172Y-12248333D01*
X10780172Y-12248333D02*
X10780172Y-12200714D01*
X10780172Y-12200714D02*
X10789695Y-12162619D01*
X10789695Y-12162619D02*
X10799219Y-12143571D01*
X10799219Y-12143571D02*
X10808743Y-12134048D01*
X10808743Y-12134048D02*
X10827791Y-12124524D01*
X11065886Y-12191190D02*
X11065886Y-12324524D01*
X11018267Y-12115000D02*
X10970648Y-12257857D01*
X10970648Y-12257857D02*
X11094457Y-12257857D01*
X11256362Y-12124524D02*
X11218267Y-12124524D01*
X11218267Y-12124524D02*
X11199219Y-12134048D01*
X11199219Y-12134048D02*
X11189695Y-12143571D01*
X11189695Y-12143571D02*
X11170648Y-12172143D01*
X11170648Y-12172143D02*
X11161124Y-12210238D01*
X11161124Y-12210238D02*
X11161124Y-12286428D01*
X11161124Y-12286428D02*
X11170648Y-12305476D01*
X11170648Y-12305476D02*
X11180172Y-12315000D01*
X11180172Y-12315000D02*
X11199219Y-12324524D01*
X11199219Y-12324524D02*
X11237314Y-12324524D01*
X11237314Y-12324524D02*
X11256362Y-12315000D01*
X11256362Y-12315000D02*
X11265886Y-12305476D01*
X11265886Y-12305476D02*
X11275410Y-12286428D01*
X11275410Y-12286428D02*
X11275410Y-12238809D01*
X11275410Y-12238809D02*
X11265886Y-12219762D01*
X11265886Y-12219762D02*
X11256362Y-12210238D01*
X11256362Y-12210238D02*
X11237314Y-12200714D01*
X11237314Y-12200714D02*
X11199219Y-12200714D01*
X11199219Y-12200714D02*
X11180172Y-12210238D01*
X11180172Y-12210238D02*
X11170648Y-12219762D01*
X11170648Y-12219762D02*
X11161124Y-12238809D01*
X11370648Y-12324524D02*
X11408743Y-12324524D01*
X11408743Y-12324524D02*
X11427791Y-12315000D01*
X11427791Y-12315000D02*
X11437314Y-12305476D01*
X11437314Y-12305476D02*
X11456362Y-12276905D01*
X11456362Y-12276905D02*
X11465886Y-12238809D01*
X11465886Y-12238809D02*
X11465886Y-12162619D01*
X11465886Y-12162619D02*
X11456362Y-12143571D01*
X11456362Y-12143571D02*
X11446838Y-12134048D01*
X11446838Y-12134048D02*
X11427791Y-12124524D01*
X11427791Y-12124524D02*
X11389695Y-12124524D01*
X11389695Y-12124524D02*
X11370648Y-12134048D01*
X11370648Y-12134048D02*
X11361124Y-12143571D01*
X11361124Y-12143571D02*
X11351600Y-12162619D01*
X11351600Y-12162619D02*
X11351600Y-12210238D01*
X11351600Y-12210238D02*
X11361124Y-12229286D01*
X11361124Y-12229286D02*
X11370648Y-12238809D01*
X11370648Y-12238809D02*
X11389695Y-12248333D01*
X11389695Y-12248333D02*
X11427791Y-12248333D01*
X11427791Y-12248333D02*
X11446838Y-12238809D01*
X11446838Y-12238809D02*
X11456362Y-12229286D01*
X11456362Y-12229286D02*
X11465886Y-12210238D01*
X11542076Y-12124524D02*
X11542076Y-12162619D01*
X11618267Y-12124524D02*
X11618267Y-12162619D01*
X11913505Y-12400714D02*
X11903981Y-12391190D01*
X11903981Y-12391190D02*
X11884934Y-12362619D01*
X11884934Y-12362619D02*
X11875410Y-12343571D01*
X11875410Y-12343571D02*
X11865886Y-12315000D01*
X11865886Y-12315000D02*
X11856362Y-12267381D01*
X11856362Y-12267381D02*
X11856362Y-12229286D01*
X11856362Y-12229286D02*
X11865886Y-12181667D01*
X11865886Y-12181667D02*
X11875410Y-12153095D01*
X11875410Y-12153095D02*
X11884934Y-12134048D01*
X11884934Y-12134048D02*
X11903981Y-12105476D01*
X11903981Y-12105476D02*
X11913505Y-12095952D01*
X12094457Y-12324524D02*
X11980172Y-12324524D01*
X12037314Y-12324524D02*
X12037314Y-12124524D01*
X12037314Y-12124524D02*
X12018267Y-12153095D01*
X12018267Y-12153095D02*
X11999219Y-12172143D01*
X11999219Y-12172143D02*
X11980172Y-12181667D01*
X12265886Y-12124524D02*
X12227791Y-12124524D01*
X12227791Y-12124524D02*
X12208743Y-12134048D01*
X12208743Y-12134048D02*
X12199219Y-12143571D01*
X12199219Y-12143571D02*
X12180172Y-12172143D01*
X12180172Y-12172143D02*
X12170648Y-12210238D01*
X12170648Y-12210238D02*
X12170648Y-12286428D01*
X12170648Y-12286428D02*
X12180172Y-12305476D01*
X12180172Y-12305476D02*
X12189695Y-12315000D01*
X12189695Y-12315000D02*
X12208743Y-12324524D01*
X12208743Y-12324524D02*
X12246838Y-12324524D01*
X12246838Y-12324524D02*
X12265886Y-12315000D01*
X12265886Y-12315000D02*
X12275410Y-12305476D01*
X12275410Y-12305476D02*
X12284934Y-12286428D01*
X12284934Y-12286428D02*
X12284934Y-12238809D01*
X12284934Y-12238809D02*
X12275410Y-12219762D01*
X12275410Y-12219762D02*
X12265886Y-12210238D01*
X12265886Y-12210238D02*
X12246838Y-12200714D01*
X12246838Y-12200714D02*
X12208743Y-12200714D01*
X12208743Y-12200714D02*
X12189695Y-12210238D01*
X12189695Y-12210238D02*
X12180172Y-12219762D01*
X12180172Y-12219762D02*
X12170648Y-12238809D01*
X12523029Y-12324524D02*
X12523029Y-12124524D01*
X12608743Y-12324524D02*
X12608743Y-12219762D01*
X12608743Y-12219762D02*
X12599219Y-12200714D01*
X12599219Y-12200714D02*
X12580172Y-12191190D01*
X12580172Y-12191190D02*
X12551600Y-12191190D01*
X12551600Y-12191190D02*
X12532553Y-12200714D01*
X12532553Y-12200714D02*
X12523029Y-12210238D01*
X12732553Y-12324524D02*
X12713505Y-12315000D01*
X12713505Y-12315000D02*
X12703981Y-12305476D01*
X12703981Y-12305476D02*
X12694457Y-12286428D01*
X12694457Y-12286428D02*
X12694457Y-12229286D01*
X12694457Y-12229286D02*
X12703981Y-12210238D01*
X12703981Y-12210238D02*
X12713505Y-12200714D01*
X12713505Y-12200714D02*
X12732553Y-12191190D01*
X12732553Y-12191190D02*
X12761124Y-12191190D01*
X12761124Y-12191190D02*
X12780172Y-12200714D01*
X12780172Y-12200714D02*
X12789696Y-12210238D01*
X12789696Y-12210238D02*
X12799219Y-12229286D01*
X12799219Y-12229286D02*
X12799219Y-12286428D01*
X12799219Y-12286428D02*
X12789696Y-12305476D01*
X12789696Y-12305476D02*
X12780172Y-12315000D01*
X12780172Y-12315000D02*
X12761124Y-12324524D01*
X12761124Y-12324524D02*
X12732553Y-12324524D01*
X12913505Y-12324524D02*
X12894457Y-12315000D01*
X12894457Y-12315000D02*
X12884934Y-12295952D01*
X12884934Y-12295952D02*
X12884934Y-12124524D01*
X13065886Y-12315000D02*
X13046838Y-12324524D01*
X13046838Y-12324524D02*
X13008743Y-12324524D01*
X13008743Y-12324524D02*
X12989696Y-12315000D01*
X12989696Y-12315000D02*
X12980172Y-12295952D01*
X12980172Y-12295952D02*
X12980172Y-12219762D01*
X12980172Y-12219762D02*
X12989696Y-12200714D01*
X12989696Y-12200714D02*
X13008743Y-12191190D01*
X13008743Y-12191190D02*
X13046838Y-12191190D01*
X13046838Y-12191190D02*
X13065886Y-12200714D01*
X13065886Y-12200714D02*
X13075410Y-12219762D01*
X13075410Y-12219762D02*
X13075410Y-12238809D01*
X13075410Y-12238809D02*
X12980172Y-12257857D01*
X13151600Y-12315000D02*
X13170648Y-12324524D01*
X13170648Y-12324524D02*
X13208743Y-12324524D01*
X13208743Y-12324524D02*
X13227791Y-12315000D01*
X13227791Y-12315000D02*
X13237315Y-12295952D01*
X13237315Y-12295952D02*
X13237315Y-12286428D01*
X13237315Y-12286428D02*
X13227791Y-12267381D01*
X13227791Y-12267381D02*
X13208743Y-12257857D01*
X13208743Y-12257857D02*
X13180172Y-12257857D01*
X13180172Y-12257857D02*
X13161124Y-12248333D01*
X13161124Y-12248333D02*
X13151600Y-12229286D01*
X13151600Y-12229286D02*
X13151600Y-12219762D01*
X13151600Y-12219762D02*
X13161124Y-12200714D01*
X13161124Y-12200714D02*
X13180172Y-12191190D01*
X13180172Y-12191190D02*
X13208743Y-12191190D01*
X13208743Y-12191190D02*
X13227791Y-12200714D01*
X13303981Y-12400714D02*
X13313505Y-12391190D01*
X13313505Y-12391190D02*
X13332553Y-12362619D01*
X13332553Y-12362619D02*
X13342077Y-12343571D01*
X13342077Y-12343571D02*
X13351600Y-12315000D01*
X13351600Y-12315000D02*
X13361124Y-12267381D01*
X13361124Y-12267381D02*
X13361124Y-12229286D01*
X13361124Y-12229286D02*
X13351600Y-12181667D01*
X13351600Y-12181667D02*
X13342077Y-12153095D01*
X13342077Y-12153095D02*
X13332553Y-12134048D01*
X13332553Y-12134048D02*
X13313505Y-12105476D01*
X13313505Y-12105476D02*
X13303981Y-12095952D01*
D16*
X8271600Y-12576000D02*
X8351600Y-12496000D01*
X8271600Y-12416000D01*
X8191600Y-12496000D01*
X8271600Y-12576000D01*
D11*
X8703981Y-12588524D02*
X8589695Y-12588524D01*
X8646838Y-12588524D02*
X8646838Y-12388524D01*
X8646838Y-12388524D02*
X8627790Y-12417095D01*
X8627790Y-12417095D02*
X8608743Y-12436143D01*
X8608743Y-12436143D02*
X8589695Y-12445667D01*
X8789695Y-12569476D02*
X8799219Y-12579000D01*
X8799219Y-12579000D02*
X8789695Y-12588524D01*
X8789695Y-12588524D02*
X8780171Y-12579000D01*
X8780171Y-12579000D02*
X8789695Y-12569476D01*
X8789695Y-12569476D02*
X8789695Y-12588524D01*
X8970648Y-12388524D02*
X8932552Y-12388524D01*
X8932552Y-12388524D02*
X8913505Y-12398048D01*
X8913505Y-12398048D02*
X8903981Y-12407571D01*
X8903981Y-12407571D02*
X8884933Y-12436143D01*
X8884933Y-12436143D02*
X8875410Y-12474238D01*
X8875410Y-12474238D02*
X8875410Y-12550428D01*
X8875410Y-12550428D02*
X8884933Y-12569476D01*
X8884933Y-12569476D02*
X8894457Y-12579000D01*
X8894457Y-12579000D02*
X8913505Y-12588524D01*
X8913505Y-12588524D02*
X8951600Y-12588524D01*
X8951600Y-12588524D02*
X8970648Y-12579000D01*
X8970648Y-12579000D02*
X8980171Y-12569476D01*
X8980171Y-12569476D02*
X8989695Y-12550428D01*
X8989695Y-12550428D02*
X8989695Y-12502809D01*
X8989695Y-12502809D02*
X8980171Y-12483762D01*
X8980171Y-12483762D02*
X8970648Y-12474238D01*
X8970648Y-12474238D02*
X8951600Y-12464714D01*
X8951600Y-12464714D02*
X8913505Y-12464714D01*
X8913505Y-12464714D02*
X8894457Y-12474238D01*
X8894457Y-12474238D02*
X8884933Y-12483762D01*
X8884933Y-12483762D02*
X8875410Y-12502809D01*
X9113505Y-12388524D02*
X9132552Y-12388524D01*
X9132552Y-12388524D02*
X9151600Y-12398048D01*
X9151600Y-12398048D02*
X9161124Y-12407571D01*
X9161124Y-12407571D02*
X9170648Y-12426619D01*
X9170648Y-12426619D02*
X9180171Y-12464714D01*
X9180171Y-12464714D02*
X9180171Y-12512333D01*
X9180171Y-12512333D02*
X9170648Y-12550428D01*
X9170648Y-12550428D02*
X9161124Y-12569476D01*
X9161124Y-12569476D02*
X9151600Y-12579000D01*
X9151600Y-12579000D02*
X9132552Y-12588524D01*
X9132552Y-12588524D02*
X9113505Y-12588524D01*
X9113505Y-12588524D02*
X9094457Y-12579000D01*
X9094457Y-12579000D02*
X9084933Y-12569476D01*
X9084933Y-12569476D02*
X9075410Y-12550428D01*
X9075410Y-12550428D02*
X9065886Y-12512333D01*
X9065886Y-12512333D02*
X9065886Y-12464714D01*
X9065886Y-12464714D02*
X9075410Y-12426619D01*
X9075410Y-12426619D02*
X9084933Y-12407571D01*
X9084933Y-12407571D02*
X9094457Y-12398048D01*
X9094457Y-12398048D02*
X9113505Y-12388524D01*
X9303981Y-12388524D02*
X9323029Y-12388524D01*
X9323029Y-12388524D02*
X9342076Y-12398048D01*
X9342076Y-12398048D02*
X9351600Y-12407571D01*
X9351600Y-12407571D02*
X9361124Y-12426619D01*
X9361124Y-12426619D02*
X9370648Y-12464714D01*
X9370648Y-12464714D02*
X9370648Y-12512333D01*
X9370648Y-12512333D02*
X9361124Y-12550428D01*
X9361124Y-12550428D02*
X9351600Y-12569476D01*
X9351600Y-12569476D02*
X9342076Y-12579000D01*
X9342076Y-12579000D02*
X9323029Y-12588524D01*
X9323029Y-12588524D02*
X9303981Y-12588524D01*
X9303981Y-12588524D02*
X9284933Y-12579000D01*
X9284933Y-12579000D02*
X9275410Y-12569476D01*
X9275410Y-12569476D02*
X9265886Y-12550428D01*
X9265886Y-12550428D02*
X9256362Y-12512333D01*
X9256362Y-12512333D02*
X9256362Y-12464714D01*
X9256362Y-12464714D02*
X9265886Y-12426619D01*
X9265886Y-12426619D02*
X9275410Y-12407571D01*
X9275410Y-12407571D02*
X9284933Y-12398048D01*
X9284933Y-12398048D02*
X9303981Y-12388524D01*
X9456362Y-12588524D02*
X9456362Y-12455190D01*
X9456362Y-12474238D02*
X9465886Y-12464714D01*
X9465886Y-12464714D02*
X9484933Y-12455190D01*
X9484933Y-12455190D02*
X9513505Y-12455190D01*
X9513505Y-12455190D02*
X9532552Y-12464714D01*
X9532552Y-12464714D02*
X9542076Y-12483762D01*
X9542076Y-12483762D02*
X9542076Y-12588524D01*
X9542076Y-12483762D02*
X9551600Y-12464714D01*
X9551600Y-12464714D02*
X9570648Y-12455190D01*
X9570648Y-12455190D02*
X9599219Y-12455190D01*
X9599219Y-12455190D02*
X9618267Y-12464714D01*
X9618267Y-12464714D02*
X9627791Y-12483762D01*
X9627791Y-12483762D02*
X9627791Y-12588524D01*
X9723029Y-12588524D02*
X9723029Y-12455190D01*
X9723029Y-12474238D02*
X9732552Y-12464714D01*
X9732552Y-12464714D02*
X9751600Y-12455190D01*
X9751600Y-12455190D02*
X9780172Y-12455190D01*
X9780172Y-12455190D02*
X9799219Y-12464714D01*
X9799219Y-12464714D02*
X9808743Y-12483762D01*
X9808743Y-12483762D02*
X9808743Y-12588524D01*
X9808743Y-12483762D02*
X9818267Y-12464714D01*
X9818267Y-12464714D02*
X9837314Y-12455190D01*
X9837314Y-12455190D02*
X9865886Y-12455190D01*
X9865886Y-12455190D02*
X9884933Y-12464714D01*
X9884933Y-12464714D02*
X9894457Y-12483762D01*
X9894457Y-12483762D02*
X9894457Y-12588524D01*
X10284933Y-12379000D02*
X10113505Y-12636143D01*
X10542076Y-12388524D02*
X10561124Y-12388524D01*
X10561124Y-12388524D02*
X10580172Y-12398048D01*
X10580172Y-12398048D02*
X10589695Y-12407571D01*
X10589695Y-12407571D02*
X10599219Y-12426619D01*
X10599219Y-12426619D02*
X10608743Y-12464714D01*
X10608743Y-12464714D02*
X10608743Y-12512333D01*
X10608743Y-12512333D02*
X10599219Y-12550428D01*
X10599219Y-12550428D02*
X10589695Y-12569476D01*
X10589695Y-12569476D02*
X10580172Y-12579000D01*
X10580172Y-12579000D02*
X10561124Y-12588524D01*
X10561124Y-12588524D02*
X10542076Y-12588524D01*
X10542076Y-12588524D02*
X10523029Y-12579000D01*
X10523029Y-12579000D02*
X10513505Y-12569476D01*
X10513505Y-12569476D02*
X10503981Y-12550428D01*
X10503981Y-12550428D02*
X10494457Y-12512333D01*
X10494457Y-12512333D02*
X10494457Y-12464714D01*
X10494457Y-12464714D02*
X10503981Y-12426619D01*
X10503981Y-12426619D02*
X10513505Y-12407571D01*
X10513505Y-12407571D02*
X10523029Y-12398048D01*
X10523029Y-12398048D02*
X10542076Y-12388524D01*
X10694457Y-12569476D02*
X10703981Y-12579000D01*
X10703981Y-12579000D02*
X10694457Y-12588524D01*
X10694457Y-12588524D02*
X10684934Y-12579000D01*
X10684934Y-12579000D02*
X10694457Y-12569476D01*
X10694457Y-12569476D02*
X10694457Y-12588524D01*
X10827791Y-12388524D02*
X10846838Y-12388524D01*
X10846838Y-12388524D02*
X10865886Y-12398048D01*
X10865886Y-12398048D02*
X10875410Y-12407571D01*
X10875410Y-12407571D02*
X10884934Y-12426619D01*
X10884934Y-12426619D02*
X10894457Y-12464714D01*
X10894457Y-12464714D02*
X10894457Y-12512333D01*
X10894457Y-12512333D02*
X10884934Y-12550428D01*
X10884934Y-12550428D02*
X10875410Y-12569476D01*
X10875410Y-12569476D02*
X10865886Y-12579000D01*
X10865886Y-12579000D02*
X10846838Y-12588524D01*
X10846838Y-12588524D02*
X10827791Y-12588524D01*
X10827791Y-12588524D02*
X10808743Y-12579000D01*
X10808743Y-12579000D02*
X10799219Y-12569476D01*
X10799219Y-12569476D02*
X10789695Y-12550428D01*
X10789695Y-12550428D02*
X10780172Y-12512333D01*
X10780172Y-12512333D02*
X10780172Y-12464714D01*
X10780172Y-12464714D02*
X10789695Y-12426619D01*
X10789695Y-12426619D02*
X10799219Y-12407571D01*
X10799219Y-12407571D02*
X10808743Y-12398048D01*
X10808743Y-12398048D02*
X10827791Y-12388524D01*
X11065886Y-12388524D02*
X11027791Y-12388524D01*
X11027791Y-12388524D02*
X11008743Y-12398048D01*
X11008743Y-12398048D02*
X10999219Y-12407571D01*
X10999219Y-12407571D02*
X10980172Y-12436143D01*
X10980172Y-12436143D02*
X10970648Y-12474238D01*
X10970648Y-12474238D02*
X10970648Y-12550428D01*
X10970648Y-12550428D02*
X10980172Y-12569476D01*
X10980172Y-12569476D02*
X10989695Y-12579000D01*
X10989695Y-12579000D02*
X11008743Y-12588524D01*
X11008743Y-12588524D02*
X11046838Y-12588524D01*
X11046838Y-12588524D02*
X11065886Y-12579000D01*
X11065886Y-12579000D02*
X11075410Y-12569476D01*
X11075410Y-12569476D02*
X11084934Y-12550428D01*
X11084934Y-12550428D02*
X11084934Y-12502809D01*
X11084934Y-12502809D02*
X11075410Y-12483762D01*
X11075410Y-12483762D02*
X11065886Y-12474238D01*
X11065886Y-12474238D02*
X11046838Y-12464714D01*
X11046838Y-12464714D02*
X11008743Y-12464714D01*
X11008743Y-12464714D02*
X10989695Y-12474238D01*
X10989695Y-12474238D02*
X10980172Y-12483762D01*
X10980172Y-12483762D02*
X10970648Y-12502809D01*
X11151600Y-12388524D02*
X11275410Y-12388524D01*
X11275410Y-12388524D02*
X11208743Y-12464714D01*
X11208743Y-12464714D02*
X11237314Y-12464714D01*
X11237314Y-12464714D02*
X11256362Y-12474238D01*
X11256362Y-12474238D02*
X11265886Y-12483762D01*
X11265886Y-12483762D02*
X11275410Y-12502809D01*
X11275410Y-12502809D02*
X11275410Y-12550428D01*
X11275410Y-12550428D02*
X11265886Y-12569476D01*
X11265886Y-12569476D02*
X11256362Y-12579000D01*
X11256362Y-12579000D02*
X11237314Y-12588524D01*
X11237314Y-12588524D02*
X11180172Y-12588524D01*
X11180172Y-12588524D02*
X11161124Y-12579000D01*
X11161124Y-12579000D02*
X11151600Y-12569476D01*
X11399219Y-12388524D02*
X11418267Y-12388524D01*
X11418267Y-12388524D02*
X11437314Y-12398048D01*
X11437314Y-12398048D02*
X11446838Y-12407571D01*
X11446838Y-12407571D02*
X11456362Y-12426619D01*
X11456362Y-12426619D02*
X11465886Y-12464714D01*
X11465886Y-12464714D02*
X11465886Y-12512333D01*
X11465886Y-12512333D02*
X11456362Y-12550428D01*
X11456362Y-12550428D02*
X11446838Y-12569476D01*
X11446838Y-12569476D02*
X11437314Y-12579000D01*
X11437314Y-12579000D02*
X11418267Y-12588524D01*
X11418267Y-12588524D02*
X11399219Y-12588524D01*
X11399219Y-12588524D02*
X11380172Y-12579000D01*
X11380172Y-12579000D02*
X11370648Y-12569476D01*
X11370648Y-12569476D02*
X11361124Y-12550428D01*
X11361124Y-12550428D02*
X11351600Y-12512333D01*
X11351600Y-12512333D02*
X11351600Y-12464714D01*
X11351600Y-12464714D02*
X11361124Y-12426619D01*
X11361124Y-12426619D02*
X11370648Y-12407571D01*
X11370648Y-12407571D02*
X11380172Y-12398048D01*
X11380172Y-12398048D02*
X11399219Y-12388524D01*
X11542076Y-12388524D02*
X11542076Y-12426619D01*
X11618267Y-12388524D02*
X11618267Y-12426619D01*
X11913505Y-12664714D02*
X11903981Y-12655190D01*
X11903981Y-12655190D02*
X11884934Y-12626619D01*
X11884934Y-12626619D02*
X11875410Y-12607571D01*
X11875410Y-12607571D02*
X11865886Y-12579000D01*
X11865886Y-12579000D02*
X11856362Y-12531381D01*
X11856362Y-12531381D02*
X11856362Y-12493286D01*
X11856362Y-12493286D02*
X11865886Y-12445667D01*
X11865886Y-12445667D02*
X11875410Y-12417095D01*
X11875410Y-12417095D02*
X11884934Y-12398048D01*
X11884934Y-12398048D02*
X11903981Y-12369476D01*
X11903981Y-12369476D02*
X11913505Y-12359952D01*
X12094457Y-12588524D02*
X11980172Y-12588524D01*
X12037314Y-12588524D02*
X12037314Y-12388524D01*
X12037314Y-12388524D02*
X12018267Y-12417095D01*
X12018267Y-12417095D02*
X11999219Y-12436143D01*
X11999219Y-12436143D02*
X11980172Y-12445667D01*
X12170648Y-12407571D02*
X12180172Y-12398048D01*
X12180172Y-12398048D02*
X12199219Y-12388524D01*
X12199219Y-12388524D02*
X12246838Y-12388524D01*
X12246838Y-12388524D02*
X12265886Y-12398048D01*
X12265886Y-12398048D02*
X12275410Y-12407571D01*
X12275410Y-12407571D02*
X12284934Y-12426619D01*
X12284934Y-12426619D02*
X12284934Y-12445667D01*
X12284934Y-12445667D02*
X12275410Y-12474238D01*
X12275410Y-12474238D02*
X12161124Y-12588524D01*
X12161124Y-12588524D02*
X12284934Y-12588524D01*
X12523029Y-12588524D02*
X12523029Y-12388524D01*
X12608743Y-12588524D02*
X12608743Y-12483762D01*
X12608743Y-12483762D02*
X12599219Y-12464714D01*
X12599219Y-12464714D02*
X12580172Y-12455190D01*
X12580172Y-12455190D02*
X12551600Y-12455190D01*
X12551600Y-12455190D02*
X12532553Y-12464714D01*
X12532553Y-12464714D02*
X12523029Y-12474238D01*
X12732553Y-12588524D02*
X12713505Y-12579000D01*
X12713505Y-12579000D02*
X12703981Y-12569476D01*
X12703981Y-12569476D02*
X12694457Y-12550428D01*
X12694457Y-12550428D02*
X12694457Y-12493286D01*
X12694457Y-12493286D02*
X12703981Y-12474238D01*
X12703981Y-12474238D02*
X12713505Y-12464714D01*
X12713505Y-12464714D02*
X12732553Y-12455190D01*
X12732553Y-12455190D02*
X12761124Y-12455190D01*
X12761124Y-12455190D02*
X12780172Y-12464714D01*
X12780172Y-12464714D02*
X12789696Y-12474238D01*
X12789696Y-12474238D02*
X12799219Y-12493286D01*
X12799219Y-12493286D02*
X12799219Y-12550428D01*
X12799219Y-12550428D02*
X12789696Y-12569476D01*
X12789696Y-12569476D02*
X12780172Y-12579000D01*
X12780172Y-12579000D02*
X12761124Y-12588524D01*
X12761124Y-12588524D02*
X12732553Y-12588524D01*
X12913505Y-12588524D02*
X12894457Y-12579000D01*
X12894457Y-12579000D02*
X12884934Y-12559952D01*
X12884934Y-12559952D02*
X12884934Y-12388524D01*
X13065886Y-12579000D02*
X13046838Y-12588524D01*
X13046838Y-12588524D02*
X13008743Y-12588524D01*
X13008743Y-12588524D02*
X12989696Y-12579000D01*
X12989696Y-12579000D02*
X12980172Y-12559952D01*
X12980172Y-12559952D02*
X12980172Y-12483762D01*
X12980172Y-12483762D02*
X12989696Y-12464714D01*
X12989696Y-12464714D02*
X13008743Y-12455190D01*
X13008743Y-12455190D02*
X13046838Y-12455190D01*
X13046838Y-12455190D02*
X13065886Y-12464714D01*
X13065886Y-12464714D02*
X13075410Y-12483762D01*
X13075410Y-12483762D02*
X13075410Y-12502809D01*
X13075410Y-12502809D02*
X12980172Y-12521857D01*
X13151600Y-12579000D02*
X13170648Y-12588524D01*
X13170648Y-12588524D02*
X13208743Y-12588524D01*
X13208743Y-12588524D02*
X13227791Y-12579000D01*
X13227791Y-12579000D02*
X13237315Y-12559952D01*
X13237315Y-12559952D02*
X13237315Y-12550428D01*
X13237315Y-12550428D02*
X13227791Y-12531381D01*
X13227791Y-12531381D02*
X13208743Y-12521857D01*
X13208743Y-12521857D02*
X13180172Y-12521857D01*
X13180172Y-12521857D02*
X13161124Y-12512333D01*
X13161124Y-12512333D02*
X13151600Y-12493286D01*
X13151600Y-12493286D02*
X13151600Y-12483762D01*
X13151600Y-12483762D02*
X13161124Y-12464714D01*
X13161124Y-12464714D02*
X13180172Y-12455190D01*
X13180172Y-12455190D02*
X13208743Y-12455190D01*
X13208743Y-12455190D02*
X13227791Y-12464714D01*
X13303981Y-12664714D02*
X13313505Y-12655190D01*
X13313505Y-12655190D02*
X13332553Y-12626619D01*
X13332553Y-12626619D02*
X13342077Y-12607571D01*
X13342077Y-12607571D02*
X13351600Y-12579000D01*
X13351600Y-12579000D02*
X13361124Y-12531381D01*
X13361124Y-12531381D02*
X13361124Y-12493286D01*
X13361124Y-12493286D02*
X13351600Y-12445667D01*
X13351600Y-12445667D02*
X13342077Y-12417095D01*
X13342077Y-12417095D02*
X13332553Y-12398048D01*
X13332553Y-12398048D02*
X13313505Y-12369476D01*
X13313505Y-12369476D02*
X13303981Y-12359952D01*
M02*
