G04 #@! TF.GenerationSoftware,KiCad,Pcbnew,7.0.1*
G04 #@! TF.CreationDate,2023-07-05T16:18:13-05:00*
G04 #@! TF.ProjectId,pn5180 mcp23008 breakout board,706e3531-3830-4206-9d63-703233303038,rev?*
G04 #@! TF.SameCoordinates,Original*
G04 #@! TF.FileFunction,Legend,Bot*
G04 #@! TF.FilePolarity,Positive*
%FSLAX46Y46*%
G04 Gerber Fmt 4.6, Leading zero omitted, Abs format (unit mm)*
G04 Created by KiCad (PCBNEW 7.0.1) date 2023-07-05 16:18:13*
%MOMM*%
%LPD*%
G01*
G04 APERTURE LIST*
G04 Aperture macros list*
%AMRoundRect*
0 Rectangle with rounded corners*
0 $1 Rounding radius*
0 $2 $3 $4 $5 $6 $7 $8 $9 X,Y pos of 4 corners*
0 Add a 4 corners polygon primitive as box body*
4,1,4,$2,$3,$4,$5,$6,$7,$8,$9,$2,$3,0*
0 Add four circle primitives for the rounded corners*
1,1,$1+$1,$2,$3*
1,1,$1+$1,$4,$5*
1,1,$1+$1,$6,$7*
1,1,$1+$1,$8,$9*
0 Add four rect primitives between the rounded corners*
20,1,$1+$1,$2,$3,$4,$5,0*
20,1,$1+$1,$4,$5,$6,$7,0*
20,1,$1+$1,$6,$7,$8,$9,0*
20,1,$1+$1,$8,$9,$2,$3,0*%
G04 Aperture macros list end*
%ADD10R,1.600000X1.600000*%
%ADD11O,1.600000X1.600000*%
%ADD12C,3.000000*%
%ADD13C,1.500000*%
%ADD14R,1.500000X1.500000*%
%ADD15C,3.250000*%
%ADD16C,3.200000*%
%ADD17RoundRect,0.250000X-0.845000X0.620000X-0.845000X-0.620000X0.845000X-0.620000X0.845000X0.620000X0*%
%ADD18O,2.190000X1.740000*%
%ADD19C,1.600000*%
%ADD20RoundRect,0.250000X0.845000X-0.620000X0.845000X0.620000X-0.845000X0.620000X-0.845000X-0.620000X0*%
G04 APERTURE END LIST*
%LPC*%
D10*
X138811000Y-104775000D03*
D11*
X141351000Y-104775000D03*
X143891000Y-104775000D03*
X146431000Y-104775000D03*
X148971000Y-104775000D03*
X151511000Y-104775000D03*
X154051000Y-104775000D03*
X156591000Y-104775000D03*
X159131000Y-104775000D03*
X159131000Y-97155000D03*
X156591000Y-97155000D03*
X154051000Y-97155000D03*
X151511000Y-97155000D03*
X148971000Y-97155000D03*
X146431000Y-97155000D03*
X143891000Y-97155000D03*
X141351000Y-97155000D03*
X138811000Y-97155000D03*
D12*
X150114000Y-81915000D03*
X165654000Y-81915000D03*
D13*
X153439000Y-93855000D03*
X154709000Y-91315000D03*
X155979000Y-93855000D03*
X157249000Y-91315000D03*
X158519000Y-93855000D03*
X159789000Y-91315000D03*
X161059000Y-93855000D03*
D14*
X162329000Y-91315000D03*
D15*
X152169000Y-84965000D03*
X163599000Y-84965000D03*
D16*
X198501000Y-101727000D03*
D12*
X114300000Y-81915000D03*
X129840000Y-81915000D03*
D13*
X117625000Y-93855000D03*
X118895000Y-91315000D03*
X120165000Y-93855000D03*
X121435000Y-91315000D03*
X122705000Y-93855000D03*
X123975000Y-91315000D03*
X125245000Y-93855000D03*
D14*
X126515000Y-91315000D03*
D15*
X116355000Y-84965000D03*
X127785000Y-84965000D03*
D16*
X88646000Y-79883000D03*
D11*
X114681000Y-97282000D03*
D10*
X114681000Y-104902000D03*
D17*
X207391000Y-85344000D03*
D18*
X207391000Y-87884000D03*
X207391000Y-90424000D03*
X207391000Y-92964000D03*
X207391000Y-95504000D03*
X207391000Y-98044000D03*
X207391000Y-100584000D03*
X207391000Y-103124000D03*
D10*
X185547000Y-105029000D03*
D11*
X185547000Y-97409000D03*
D16*
X210693000Y-79883000D03*
D19*
X170815000Y-105410000D03*
D11*
X170815000Y-97790000D03*
D12*
X96474000Y-81915000D03*
X112014000Y-81915000D03*
D13*
X99799000Y-93855000D03*
X101069000Y-91315000D03*
X102339000Y-93855000D03*
X103609000Y-91315000D03*
X104879000Y-93855000D03*
X106149000Y-91315000D03*
X107419000Y-93855000D03*
D14*
X108689000Y-91315000D03*
D15*
X98529000Y-84965000D03*
X109959000Y-84965000D03*
X199413000Y-84965000D03*
X187983000Y-84965000D03*
D14*
X198143000Y-91315000D03*
D13*
X196873000Y-93855000D03*
X195603000Y-91315000D03*
X194333000Y-93855000D03*
X193063000Y-91315000D03*
X191793000Y-93855000D03*
X190523000Y-91315000D03*
X189253000Y-93855000D03*
D12*
X201468000Y-81915000D03*
X185928000Y-81915000D03*
D10*
X183007000Y-105029000D03*
D11*
X183007000Y-97409000D03*
D19*
X134239000Y-104100000D03*
X134239000Y-99100000D03*
D10*
X188087000Y-105029000D03*
D11*
X188087000Y-97409000D03*
D20*
X90424000Y-103124000D03*
D18*
X90424000Y-100584000D03*
X90424000Y-98044000D03*
X90424000Y-95504000D03*
X90424000Y-92964000D03*
X90424000Y-90424000D03*
X90424000Y-87884000D03*
X90424000Y-85344000D03*
D10*
X109601000Y-104902000D03*
D11*
X109601000Y-97282000D03*
D19*
X164846000Y-105410000D03*
D11*
X164846000Y-97790000D03*
D19*
X167767000Y-105410000D03*
D11*
X167767000Y-97790000D03*
X112141000Y-97282000D03*
D10*
X112141000Y-104902000D03*
D12*
X132207000Y-81915000D03*
X147747000Y-81915000D03*
D13*
X135532000Y-93855000D03*
X136802000Y-91315000D03*
X138072000Y-93855000D03*
X139342000Y-91315000D03*
X140612000Y-93855000D03*
X141882000Y-91315000D03*
X143152000Y-93855000D03*
D14*
X144422000Y-91315000D03*
D15*
X134262000Y-84965000D03*
X145692000Y-84965000D03*
D16*
X100076000Y-101600000D03*
D12*
X168021000Y-81915000D03*
X183561000Y-81915000D03*
D13*
X171346000Y-93855000D03*
X172616000Y-91315000D03*
X173886000Y-93855000D03*
X175156000Y-91315000D03*
X176426000Y-93855000D03*
X177696000Y-91315000D03*
X178966000Y-93855000D03*
D14*
X180236000Y-91315000D03*
D15*
X170076000Y-84965000D03*
X181506000Y-84965000D03*
M02*
