%TF.GenerationSoftware,KiCad,Pcbnew,7.0.1*%
%TF.CreationDate,2023-07-05T16:18:23-05:00*%
%TF.ProjectId,pn5180 mcp23008 breakout board,706e3531-3830-4206-9d63-703233303038,rev?*%
%TF.SameCoordinates,Original*%
%TF.FileFunction,Drillmap*%
%TF.FilePolarity,Positive*%
%FSLAX45Y45*%
G04 Gerber Fmt 4.5, Leading zero omitted, Abs format (unit mm)*
G04 Created by KiCad (PCBNEW 7.0.1) date 2023-07-05 16:18:23*
%MOMM*%
%LPD*%
G01*
G04 APERTURE LIST*
%ADD10C,0.100000*%
%ADD11C,0.200000*%
%ADD12C,0.320000*%
%ADD13C,0.325000*%
G04 APERTURE END LIST*
D10*
X21069300Y-10795000D02*
X8864600Y-10795000D01*
X8356600Y-7988300D02*
X8356600Y-10287000D01*
X8864600Y-7480300D02*
X21069300Y-7480300D01*
X21577300Y-7988300D02*
X21577300Y-10287000D01*
X21577300Y-7988300D02*
G75*
G03*
X21069300Y-7480300I-508000J0D01*
G01*
X8864600Y-7480300D02*
G75*
G03*
X8356600Y-7988300I0J-508000D01*
G01*
X8356600Y-10287000D02*
G75*
G03*
X8864600Y-10795000I508000J0D01*
G01*
X21069300Y-10795000D02*
G75*
G03*
X21577300Y-10287000I0J508000D01*
G01*
D11*
D12*
X8704600Y-7828300D02*
X9024600Y-8148300D01*
X9024600Y-7828300D02*
X8704600Y-8148300D01*
X9847600Y-10000000D02*
X10167600Y-10320000D01*
X10167600Y-10000000D02*
X9847600Y-10320000D01*
X19690100Y-10012700D02*
X20010100Y-10332700D01*
X20010100Y-10012700D02*
X19690100Y-10332700D01*
X20909300Y-7828300D02*
X21229300Y-8148300D01*
X21229300Y-7828300D02*
X20909300Y-8148300D01*
D13*
X10015400Y-8496500D02*
G75*
G03*
X10015400Y-8496500I-162500J0D01*
G01*
X11158400Y-8496500D02*
G75*
G03*
X11158400Y-8496500I-162500J0D01*
G01*
X11798000Y-8496500D02*
G75*
G03*
X11798000Y-8496500I-162500J0D01*
G01*
X12941000Y-8496500D02*
G75*
G03*
X12941000Y-8496500I-162500J0D01*
G01*
X13588700Y-8496500D02*
G75*
G03*
X13588700Y-8496500I-162500J0D01*
G01*
X14731700Y-8496500D02*
G75*
G03*
X14731700Y-8496500I-162500J0D01*
G01*
X15379400Y-8496500D02*
G75*
G03*
X15379400Y-8496500I-162500J0D01*
G01*
X16522400Y-8496500D02*
G75*
G03*
X16522400Y-8496500I-162500J0D01*
G01*
X17170100Y-8496500D02*
G75*
G03*
X17170100Y-8496500I-162500J0D01*
G01*
X18313100Y-8496500D02*
G75*
G03*
X18313100Y-8496500I-162500J0D01*
G01*
X18960800Y-8496500D02*
G75*
G03*
X18960800Y-8496500I-162500J0D01*
G01*
X20103800Y-8496500D02*
G75*
G03*
X20103800Y-8496500I-162500J0D01*
G01*
D11*
X8599219Y-11112524D02*
X8599219Y-10912524D01*
X8599219Y-10912524D02*
X8646838Y-10912524D01*
X8646838Y-10912524D02*
X8675410Y-10922048D01*
X8675410Y-10922048D02*
X8694457Y-10941095D01*
X8694457Y-10941095D02*
X8703981Y-10960143D01*
X8703981Y-10960143D02*
X8713505Y-10998238D01*
X8713505Y-10998238D02*
X8713505Y-11026810D01*
X8713505Y-11026810D02*
X8703981Y-11064905D01*
X8703981Y-11064905D02*
X8694457Y-11083952D01*
X8694457Y-11083952D02*
X8675410Y-11103000D01*
X8675410Y-11103000D02*
X8646838Y-11112524D01*
X8646838Y-11112524D02*
X8599219Y-11112524D01*
X8799219Y-11112524D02*
X8799219Y-10979190D01*
X8799219Y-11017286D02*
X8808743Y-10998238D01*
X8808743Y-10998238D02*
X8818267Y-10988714D01*
X8818267Y-10988714D02*
X8837314Y-10979190D01*
X8837314Y-10979190D02*
X8856362Y-10979190D01*
X8923029Y-11112524D02*
X8923029Y-10979190D01*
X8923029Y-10912524D02*
X8913505Y-10922048D01*
X8913505Y-10922048D02*
X8923029Y-10931571D01*
X8923029Y-10931571D02*
X8932552Y-10922048D01*
X8932552Y-10922048D02*
X8923029Y-10912524D01*
X8923029Y-10912524D02*
X8923029Y-10931571D01*
X9046838Y-11112524D02*
X9027790Y-11103000D01*
X9027790Y-11103000D02*
X9018267Y-11083952D01*
X9018267Y-11083952D02*
X9018267Y-10912524D01*
X9151600Y-11112524D02*
X9132552Y-11103000D01*
X9132552Y-11103000D02*
X9123029Y-11083952D01*
X9123029Y-11083952D02*
X9123029Y-10912524D01*
X9380171Y-11112524D02*
X9380171Y-10912524D01*
X9380171Y-10912524D02*
X9446838Y-11055381D01*
X9446838Y-11055381D02*
X9513505Y-10912524D01*
X9513505Y-10912524D02*
X9513505Y-11112524D01*
X9694457Y-11112524D02*
X9694457Y-11007762D01*
X9694457Y-11007762D02*
X9684933Y-10988714D01*
X9684933Y-10988714D02*
X9665886Y-10979190D01*
X9665886Y-10979190D02*
X9627790Y-10979190D01*
X9627790Y-10979190D02*
X9608743Y-10988714D01*
X9694457Y-11103000D02*
X9675410Y-11112524D01*
X9675410Y-11112524D02*
X9627790Y-11112524D01*
X9627790Y-11112524D02*
X9608743Y-11103000D01*
X9608743Y-11103000D02*
X9599219Y-11083952D01*
X9599219Y-11083952D02*
X9599219Y-11064905D01*
X9599219Y-11064905D02*
X9608743Y-11045857D01*
X9608743Y-11045857D02*
X9627790Y-11036333D01*
X9627790Y-11036333D02*
X9675410Y-11036333D01*
X9675410Y-11036333D02*
X9694457Y-11026810D01*
X9789695Y-10979190D02*
X9789695Y-11179190D01*
X9789695Y-10988714D02*
X9808743Y-10979190D01*
X9808743Y-10979190D02*
X9846838Y-10979190D01*
X9846838Y-10979190D02*
X9865886Y-10988714D01*
X9865886Y-10988714D02*
X9875410Y-10998238D01*
X9875410Y-10998238D02*
X9884933Y-11017286D01*
X9884933Y-11017286D02*
X9884933Y-11074429D01*
X9884933Y-11074429D02*
X9875410Y-11093476D01*
X9875410Y-11093476D02*
X9865886Y-11103000D01*
X9865886Y-11103000D02*
X9846838Y-11112524D01*
X9846838Y-11112524D02*
X9808743Y-11112524D01*
X9808743Y-11112524D02*
X9789695Y-11103000D01*
X9970648Y-11093476D02*
X9980171Y-11103000D01*
X9980171Y-11103000D02*
X9970648Y-11112524D01*
X9970648Y-11112524D02*
X9961124Y-11103000D01*
X9961124Y-11103000D02*
X9970648Y-11093476D01*
X9970648Y-11093476D02*
X9970648Y-11112524D01*
X9970648Y-10988714D02*
X9980171Y-10998238D01*
X9980171Y-10998238D02*
X9970648Y-11007762D01*
X9970648Y-11007762D02*
X9961124Y-10998238D01*
X9961124Y-10998238D02*
X9970648Y-10988714D01*
X9970648Y-10988714D02*
X9970648Y-11007762D01*
X8151600Y-11340000D02*
X8351600Y-11540000D01*
X8351600Y-11340000D02*
X8151600Y-11540000D01*
X8580171Y-11332524D02*
X8703981Y-11332524D01*
X8703981Y-11332524D02*
X8637314Y-11408714D01*
X8637314Y-11408714D02*
X8665886Y-11408714D01*
X8665886Y-11408714D02*
X8684933Y-11418238D01*
X8684933Y-11418238D02*
X8694457Y-11427762D01*
X8694457Y-11427762D02*
X8703981Y-11446809D01*
X8703981Y-11446809D02*
X8703981Y-11494428D01*
X8703981Y-11494428D02*
X8694457Y-11513476D01*
X8694457Y-11513476D02*
X8684933Y-11523000D01*
X8684933Y-11523000D02*
X8665886Y-11532524D01*
X8665886Y-11532524D02*
X8608743Y-11532524D01*
X8608743Y-11532524D02*
X8589695Y-11523000D01*
X8589695Y-11523000D02*
X8580171Y-11513476D01*
X8789695Y-11513476D02*
X8799219Y-11523000D01*
X8799219Y-11523000D02*
X8789695Y-11532524D01*
X8789695Y-11532524D02*
X8780171Y-11523000D01*
X8780171Y-11523000D02*
X8789695Y-11513476D01*
X8789695Y-11513476D02*
X8789695Y-11532524D01*
X8875410Y-11351571D02*
X8884933Y-11342048D01*
X8884933Y-11342048D02*
X8903981Y-11332524D01*
X8903981Y-11332524D02*
X8951600Y-11332524D01*
X8951600Y-11332524D02*
X8970648Y-11342048D01*
X8970648Y-11342048D02*
X8980171Y-11351571D01*
X8980171Y-11351571D02*
X8989695Y-11370619D01*
X8989695Y-11370619D02*
X8989695Y-11389667D01*
X8989695Y-11389667D02*
X8980171Y-11418238D01*
X8980171Y-11418238D02*
X8865886Y-11532524D01*
X8865886Y-11532524D02*
X8989695Y-11532524D01*
X9113505Y-11332524D02*
X9132552Y-11332524D01*
X9132552Y-11332524D02*
X9151600Y-11342048D01*
X9151600Y-11342048D02*
X9161124Y-11351571D01*
X9161124Y-11351571D02*
X9170648Y-11370619D01*
X9170648Y-11370619D02*
X9180171Y-11408714D01*
X9180171Y-11408714D02*
X9180171Y-11456333D01*
X9180171Y-11456333D02*
X9170648Y-11494428D01*
X9170648Y-11494428D02*
X9161124Y-11513476D01*
X9161124Y-11513476D02*
X9151600Y-11523000D01*
X9151600Y-11523000D02*
X9132552Y-11532524D01*
X9132552Y-11532524D02*
X9113505Y-11532524D01*
X9113505Y-11532524D02*
X9094457Y-11523000D01*
X9094457Y-11523000D02*
X9084933Y-11513476D01*
X9084933Y-11513476D02*
X9075410Y-11494428D01*
X9075410Y-11494428D02*
X9065886Y-11456333D01*
X9065886Y-11456333D02*
X9065886Y-11408714D01*
X9065886Y-11408714D02*
X9075410Y-11370619D01*
X9075410Y-11370619D02*
X9084933Y-11351571D01*
X9084933Y-11351571D02*
X9094457Y-11342048D01*
X9094457Y-11342048D02*
X9113505Y-11332524D01*
X9303981Y-11332524D02*
X9323029Y-11332524D01*
X9323029Y-11332524D02*
X9342076Y-11342048D01*
X9342076Y-11342048D02*
X9351600Y-11351571D01*
X9351600Y-11351571D02*
X9361124Y-11370619D01*
X9361124Y-11370619D02*
X9370648Y-11408714D01*
X9370648Y-11408714D02*
X9370648Y-11456333D01*
X9370648Y-11456333D02*
X9361124Y-11494428D01*
X9361124Y-11494428D02*
X9351600Y-11513476D01*
X9351600Y-11513476D02*
X9342076Y-11523000D01*
X9342076Y-11523000D02*
X9323029Y-11532524D01*
X9323029Y-11532524D02*
X9303981Y-11532524D01*
X9303981Y-11532524D02*
X9284933Y-11523000D01*
X9284933Y-11523000D02*
X9275410Y-11513476D01*
X9275410Y-11513476D02*
X9265886Y-11494428D01*
X9265886Y-11494428D02*
X9256362Y-11456333D01*
X9256362Y-11456333D02*
X9256362Y-11408714D01*
X9256362Y-11408714D02*
X9265886Y-11370619D01*
X9265886Y-11370619D02*
X9275410Y-11351571D01*
X9275410Y-11351571D02*
X9284933Y-11342048D01*
X9284933Y-11342048D02*
X9303981Y-11332524D01*
X9456362Y-11532524D02*
X9456362Y-11399190D01*
X9456362Y-11418238D02*
X9465886Y-11408714D01*
X9465886Y-11408714D02*
X9484933Y-11399190D01*
X9484933Y-11399190D02*
X9513505Y-11399190D01*
X9513505Y-11399190D02*
X9532552Y-11408714D01*
X9532552Y-11408714D02*
X9542076Y-11427762D01*
X9542076Y-11427762D02*
X9542076Y-11532524D01*
X9542076Y-11427762D02*
X9551600Y-11408714D01*
X9551600Y-11408714D02*
X9570648Y-11399190D01*
X9570648Y-11399190D02*
X9599219Y-11399190D01*
X9599219Y-11399190D02*
X9618267Y-11408714D01*
X9618267Y-11408714D02*
X9627791Y-11427762D01*
X9627791Y-11427762D02*
X9627791Y-11532524D01*
X9723029Y-11532524D02*
X9723029Y-11399190D01*
X9723029Y-11418238D02*
X9732552Y-11408714D01*
X9732552Y-11408714D02*
X9751600Y-11399190D01*
X9751600Y-11399190D02*
X9780172Y-11399190D01*
X9780172Y-11399190D02*
X9799219Y-11408714D01*
X9799219Y-11408714D02*
X9808743Y-11427762D01*
X9808743Y-11427762D02*
X9808743Y-11532524D01*
X9808743Y-11427762D02*
X9818267Y-11408714D01*
X9818267Y-11408714D02*
X9837314Y-11399190D01*
X9837314Y-11399190D02*
X9865886Y-11399190D01*
X9865886Y-11399190D02*
X9884933Y-11408714D01*
X9884933Y-11408714D02*
X9894457Y-11427762D01*
X9894457Y-11427762D02*
X9894457Y-11532524D01*
X10284933Y-11323000D02*
X10113505Y-11580143D01*
X10542076Y-11332524D02*
X10561124Y-11332524D01*
X10561124Y-11332524D02*
X10580172Y-11342048D01*
X10580172Y-11342048D02*
X10589695Y-11351571D01*
X10589695Y-11351571D02*
X10599219Y-11370619D01*
X10599219Y-11370619D02*
X10608743Y-11408714D01*
X10608743Y-11408714D02*
X10608743Y-11456333D01*
X10608743Y-11456333D02*
X10599219Y-11494428D01*
X10599219Y-11494428D02*
X10589695Y-11513476D01*
X10589695Y-11513476D02*
X10580172Y-11523000D01*
X10580172Y-11523000D02*
X10561124Y-11532524D01*
X10561124Y-11532524D02*
X10542076Y-11532524D01*
X10542076Y-11532524D02*
X10523029Y-11523000D01*
X10523029Y-11523000D02*
X10513505Y-11513476D01*
X10513505Y-11513476D02*
X10503981Y-11494428D01*
X10503981Y-11494428D02*
X10494457Y-11456333D01*
X10494457Y-11456333D02*
X10494457Y-11408714D01*
X10494457Y-11408714D02*
X10503981Y-11370619D01*
X10503981Y-11370619D02*
X10513505Y-11351571D01*
X10513505Y-11351571D02*
X10523029Y-11342048D01*
X10523029Y-11342048D02*
X10542076Y-11332524D01*
X10694457Y-11513476D02*
X10703981Y-11523000D01*
X10703981Y-11523000D02*
X10694457Y-11532524D01*
X10694457Y-11532524D02*
X10684934Y-11523000D01*
X10684934Y-11523000D02*
X10694457Y-11513476D01*
X10694457Y-11513476D02*
X10694457Y-11532524D01*
X10894457Y-11532524D02*
X10780172Y-11532524D01*
X10837314Y-11532524D02*
X10837314Y-11332524D01*
X10837314Y-11332524D02*
X10818267Y-11361095D01*
X10818267Y-11361095D02*
X10799219Y-11380143D01*
X10799219Y-11380143D02*
X10780172Y-11389667D01*
X10970648Y-11351571D02*
X10980172Y-11342048D01*
X10980172Y-11342048D02*
X10999219Y-11332524D01*
X10999219Y-11332524D02*
X11046838Y-11332524D01*
X11046838Y-11332524D02*
X11065886Y-11342048D01*
X11065886Y-11342048D02*
X11075410Y-11351571D01*
X11075410Y-11351571D02*
X11084934Y-11370619D01*
X11084934Y-11370619D02*
X11084934Y-11389667D01*
X11084934Y-11389667D02*
X11075410Y-11418238D01*
X11075410Y-11418238D02*
X10961124Y-11532524D01*
X10961124Y-11532524D02*
X11084934Y-11532524D01*
X11256362Y-11332524D02*
X11218267Y-11332524D01*
X11218267Y-11332524D02*
X11199219Y-11342048D01*
X11199219Y-11342048D02*
X11189695Y-11351571D01*
X11189695Y-11351571D02*
X11170648Y-11380143D01*
X11170648Y-11380143D02*
X11161124Y-11418238D01*
X11161124Y-11418238D02*
X11161124Y-11494428D01*
X11161124Y-11494428D02*
X11170648Y-11513476D01*
X11170648Y-11513476D02*
X11180172Y-11523000D01*
X11180172Y-11523000D02*
X11199219Y-11532524D01*
X11199219Y-11532524D02*
X11237314Y-11532524D01*
X11237314Y-11532524D02*
X11256362Y-11523000D01*
X11256362Y-11523000D02*
X11265886Y-11513476D01*
X11265886Y-11513476D02*
X11275410Y-11494428D01*
X11275410Y-11494428D02*
X11275410Y-11446809D01*
X11275410Y-11446809D02*
X11265886Y-11427762D01*
X11265886Y-11427762D02*
X11256362Y-11418238D01*
X11256362Y-11418238D02*
X11237314Y-11408714D01*
X11237314Y-11408714D02*
X11199219Y-11408714D01*
X11199219Y-11408714D02*
X11180172Y-11418238D01*
X11180172Y-11418238D02*
X11170648Y-11427762D01*
X11170648Y-11427762D02*
X11161124Y-11446809D01*
X11399219Y-11332524D02*
X11418267Y-11332524D01*
X11418267Y-11332524D02*
X11437314Y-11342048D01*
X11437314Y-11342048D02*
X11446838Y-11351571D01*
X11446838Y-11351571D02*
X11456362Y-11370619D01*
X11456362Y-11370619D02*
X11465886Y-11408714D01*
X11465886Y-11408714D02*
X11465886Y-11456333D01*
X11465886Y-11456333D02*
X11456362Y-11494428D01*
X11456362Y-11494428D02*
X11446838Y-11513476D01*
X11446838Y-11513476D02*
X11437314Y-11523000D01*
X11437314Y-11523000D02*
X11418267Y-11532524D01*
X11418267Y-11532524D02*
X11399219Y-11532524D01*
X11399219Y-11532524D02*
X11380172Y-11523000D01*
X11380172Y-11523000D02*
X11370648Y-11513476D01*
X11370648Y-11513476D02*
X11361124Y-11494428D01*
X11361124Y-11494428D02*
X11351600Y-11456333D01*
X11351600Y-11456333D02*
X11351600Y-11408714D01*
X11351600Y-11408714D02*
X11361124Y-11370619D01*
X11361124Y-11370619D02*
X11370648Y-11351571D01*
X11370648Y-11351571D02*
X11380172Y-11342048D01*
X11380172Y-11342048D02*
X11399219Y-11332524D01*
X11542076Y-11332524D02*
X11542076Y-11370619D01*
X11618267Y-11332524D02*
X11618267Y-11370619D01*
X11913505Y-11608714D02*
X11903981Y-11599190D01*
X11903981Y-11599190D02*
X11884934Y-11570619D01*
X11884934Y-11570619D02*
X11875410Y-11551571D01*
X11875410Y-11551571D02*
X11865886Y-11523000D01*
X11865886Y-11523000D02*
X11856362Y-11475381D01*
X11856362Y-11475381D02*
X11856362Y-11437286D01*
X11856362Y-11437286D02*
X11865886Y-11389667D01*
X11865886Y-11389667D02*
X11875410Y-11361095D01*
X11875410Y-11361095D02*
X11884934Y-11342048D01*
X11884934Y-11342048D02*
X11903981Y-11313476D01*
X11903981Y-11313476D02*
X11913505Y-11303952D01*
X12075410Y-11399190D02*
X12075410Y-11532524D01*
X12027791Y-11323000D02*
X11980172Y-11465857D01*
X11980172Y-11465857D02*
X12103981Y-11465857D01*
X12332553Y-11532524D02*
X12332553Y-11332524D01*
X12418267Y-11532524D02*
X12418267Y-11427762D01*
X12418267Y-11427762D02*
X12408743Y-11408714D01*
X12408743Y-11408714D02*
X12389696Y-11399190D01*
X12389696Y-11399190D02*
X12361124Y-11399190D01*
X12361124Y-11399190D02*
X12342076Y-11408714D01*
X12342076Y-11408714D02*
X12332553Y-11418238D01*
X12542076Y-11532524D02*
X12523029Y-11523000D01*
X12523029Y-11523000D02*
X12513505Y-11513476D01*
X12513505Y-11513476D02*
X12503981Y-11494428D01*
X12503981Y-11494428D02*
X12503981Y-11437286D01*
X12503981Y-11437286D02*
X12513505Y-11418238D01*
X12513505Y-11418238D02*
X12523029Y-11408714D01*
X12523029Y-11408714D02*
X12542076Y-11399190D01*
X12542076Y-11399190D02*
X12570648Y-11399190D01*
X12570648Y-11399190D02*
X12589696Y-11408714D01*
X12589696Y-11408714D02*
X12599219Y-11418238D01*
X12599219Y-11418238D02*
X12608743Y-11437286D01*
X12608743Y-11437286D02*
X12608743Y-11494428D01*
X12608743Y-11494428D02*
X12599219Y-11513476D01*
X12599219Y-11513476D02*
X12589696Y-11523000D01*
X12589696Y-11523000D02*
X12570648Y-11532524D01*
X12570648Y-11532524D02*
X12542076Y-11532524D01*
X12723029Y-11532524D02*
X12703981Y-11523000D01*
X12703981Y-11523000D02*
X12694457Y-11503952D01*
X12694457Y-11503952D02*
X12694457Y-11332524D01*
X12875410Y-11523000D02*
X12856362Y-11532524D01*
X12856362Y-11532524D02*
X12818267Y-11532524D01*
X12818267Y-11532524D02*
X12799219Y-11523000D01*
X12799219Y-11523000D02*
X12789696Y-11503952D01*
X12789696Y-11503952D02*
X12789696Y-11427762D01*
X12789696Y-11427762D02*
X12799219Y-11408714D01*
X12799219Y-11408714D02*
X12818267Y-11399190D01*
X12818267Y-11399190D02*
X12856362Y-11399190D01*
X12856362Y-11399190D02*
X12875410Y-11408714D01*
X12875410Y-11408714D02*
X12884934Y-11427762D01*
X12884934Y-11427762D02*
X12884934Y-11446809D01*
X12884934Y-11446809D02*
X12789696Y-11465857D01*
X12961124Y-11523000D02*
X12980172Y-11532524D01*
X12980172Y-11532524D02*
X13018267Y-11532524D01*
X13018267Y-11532524D02*
X13037315Y-11523000D01*
X13037315Y-11523000D02*
X13046838Y-11503952D01*
X13046838Y-11503952D02*
X13046838Y-11494428D01*
X13046838Y-11494428D02*
X13037315Y-11475381D01*
X13037315Y-11475381D02*
X13018267Y-11465857D01*
X13018267Y-11465857D02*
X12989696Y-11465857D01*
X12989696Y-11465857D02*
X12970648Y-11456333D01*
X12970648Y-11456333D02*
X12961124Y-11437286D01*
X12961124Y-11437286D02*
X12961124Y-11427762D01*
X12961124Y-11427762D02*
X12970648Y-11408714D01*
X12970648Y-11408714D02*
X12989696Y-11399190D01*
X12989696Y-11399190D02*
X13018267Y-11399190D01*
X13018267Y-11399190D02*
X13037315Y-11408714D01*
X13113505Y-11608714D02*
X13123029Y-11599190D01*
X13123029Y-11599190D02*
X13142077Y-11570619D01*
X13142077Y-11570619D02*
X13151600Y-11551571D01*
X13151600Y-11551571D02*
X13161124Y-11523000D01*
X13161124Y-11523000D02*
X13170648Y-11475381D01*
X13170648Y-11475381D02*
X13170648Y-11437286D01*
X13170648Y-11437286D02*
X13161124Y-11389667D01*
X13161124Y-11389667D02*
X13151600Y-11361095D01*
X13151600Y-11361095D02*
X13142077Y-11342048D01*
X13142077Y-11342048D02*
X13123029Y-11313476D01*
X13123029Y-11313476D02*
X13113505Y-11303952D01*
X13475410Y-11608714D02*
X13465886Y-11599190D01*
X13465886Y-11599190D02*
X13446838Y-11570619D01*
X13446838Y-11570619D02*
X13437315Y-11551571D01*
X13437315Y-11551571D02*
X13427791Y-11523000D01*
X13427791Y-11523000D02*
X13418267Y-11475381D01*
X13418267Y-11475381D02*
X13418267Y-11437286D01*
X13418267Y-11437286D02*
X13427791Y-11389667D01*
X13427791Y-11389667D02*
X13437315Y-11361095D01*
X13437315Y-11361095D02*
X13446838Y-11342048D01*
X13446838Y-11342048D02*
X13465886Y-11313476D01*
X13465886Y-11313476D02*
X13475410Y-11303952D01*
X13551600Y-11399190D02*
X13551600Y-11532524D01*
X13551600Y-11418238D02*
X13561124Y-11408714D01*
X13561124Y-11408714D02*
X13580172Y-11399190D01*
X13580172Y-11399190D02*
X13608743Y-11399190D01*
X13608743Y-11399190D02*
X13627791Y-11408714D01*
X13627791Y-11408714D02*
X13637315Y-11427762D01*
X13637315Y-11427762D02*
X13637315Y-11532524D01*
X13761124Y-11532524D02*
X13742077Y-11523000D01*
X13742077Y-11523000D02*
X13732553Y-11513476D01*
X13732553Y-11513476D02*
X13723029Y-11494428D01*
X13723029Y-11494428D02*
X13723029Y-11437286D01*
X13723029Y-11437286D02*
X13732553Y-11418238D01*
X13732553Y-11418238D02*
X13742077Y-11408714D01*
X13742077Y-11408714D02*
X13761124Y-11399190D01*
X13761124Y-11399190D02*
X13789696Y-11399190D01*
X13789696Y-11399190D02*
X13808743Y-11408714D01*
X13808743Y-11408714D02*
X13818267Y-11418238D01*
X13818267Y-11418238D02*
X13827791Y-11437286D01*
X13827791Y-11437286D02*
X13827791Y-11494428D01*
X13827791Y-11494428D02*
X13818267Y-11513476D01*
X13818267Y-11513476D02*
X13808743Y-11523000D01*
X13808743Y-11523000D02*
X13789696Y-11532524D01*
X13789696Y-11532524D02*
X13761124Y-11532524D01*
X13884934Y-11399190D02*
X13961124Y-11399190D01*
X13913505Y-11332524D02*
X13913505Y-11503952D01*
X13913505Y-11503952D02*
X13923029Y-11523000D01*
X13923029Y-11523000D02*
X13942077Y-11532524D01*
X13942077Y-11532524D02*
X13961124Y-11532524D01*
X14180172Y-11399190D02*
X14180172Y-11599190D01*
X14180172Y-11408714D02*
X14199219Y-11399190D01*
X14199219Y-11399190D02*
X14237315Y-11399190D01*
X14237315Y-11399190D02*
X14256362Y-11408714D01*
X14256362Y-11408714D02*
X14265886Y-11418238D01*
X14265886Y-11418238D02*
X14275410Y-11437286D01*
X14275410Y-11437286D02*
X14275410Y-11494428D01*
X14275410Y-11494428D02*
X14265886Y-11513476D01*
X14265886Y-11513476D02*
X14256362Y-11523000D01*
X14256362Y-11523000D02*
X14237315Y-11532524D01*
X14237315Y-11532524D02*
X14199219Y-11532524D01*
X14199219Y-11532524D02*
X14180172Y-11523000D01*
X14389696Y-11532524D02*
X14370648Y-11523000D01*
X14370648Y-11523000D02*
X14361124Y-11503952D01*
X14361124Y-11503952D02*
X14361124Y-11332524D01*
X14551600Y-11532524D02*
X14551600Y-11427762D01*
X14551600Y-11427762D02*
X14542077Y-11408714D01*
X14542077Y-11408714D02*
X14523029Y-11399190D01*
X14523029Y-11399190D02*
X14484934Y-11399190D01*
X14484934Y-11399190D02*
X14465886Y-11408714D01*
X14551600Y-11523000D02*
X14532553Y-11532524D01*
X14532553Y-11532524D02*
X14484934Y-11532524D01*
X14484934Y-11532524D02*
X14465886Y-11523000D01*
X14465886Y-11523000D02*
X14456362Y-11503952D01*
X14456362Y-11503952D02*
X14456362Y-11484905D01*
X14456362Y-11484905D02*
X14465886Y-11465857D01*
X14465886Y-11465857D02*
X14484934Y-11456333D01*
X14484934Y-11456333D02*
X14532553Y-11456333D01*
X14532553Y-11456333D02*
X14551600Y-11446809D01*
X14618267Y-11399190D02*
X14694458Y-11399190D01*
X14646839Y-11332524D02*
X14646839Y-11503952D01*
X14646839Y-11503952D02*
X14656362Y-11523000D01*
X14656362Y-11523000D02*
X14675410Y-11532524D01*
X14675410Y-11532524D02*
X14694458Y-11532524D01*
X14837315Y-11523000D02*
X14818267Y-11532524D01*
X14818267Y-11532524D02*
X14780172Y-11532524D01*
X14780172Y-11532524D02*
X14761124Y-11523000D01*
X14761124Y-11523000D02*
X14751600Y-11503952D01*
X14751600Y-11503952D02*
X14751600Y-11427762D01*
X14751600Y-11427762D02*
X14761124Y-11408714D01*
X14761124Y-11408714D02*
X14780172Y-11399190D01*
X14780172Y-11399190D02*
X14818267Y-11399190D01*
X14818267Y-11399190D02*
X14837315Y-11408714D01*
X14837315Y-11408714D02*
X14846839Y-11427762D01*
X14846839Y-11427762D02*
X14846839Y-11446809D01*
X14846839Y-11446809D02*
X14751600Y-11465857D01*
X15018267Y-11532524D02*
X15018267Y-11332524D01*
X15018267Y-11523000D02*
X14999220Y-11532524D01*
X14999220Y-11532524D02*
X14961124Y-11532524D01*
X14961124Y-11532524D02*
X14942077Y-11523000D01*
X14942077Y-11523000D02*
X14932553Y-11513476D01*
X14932553Y-11513476D02*
X14923029Y-11494428D01*
X14923029Y-11494428D02*
X14923029Y-11437286D01*
X14923029Y-11437286D02*
X14932553Y-11418238D01*
X14932553Y-11418238D02*
X14942077Y-11408714D01*
X14942077Y-11408714D02*
X14961124Y-11399190D01*
X14961124Y-11399190D02*
X14999220Y-11399190D01*
X14999220Y-11399190D02*
X15018267Y-11408714D01*
X15094458Y-11608714D02*
X15103981Y-11599190D01*
X15103981Y-11599190D02*
X15123029Y-11570619D01*
X15123029Y-11570619D02*
X15132553Y-11551571D01*
X15132553Y-11551571D02*
X15142077Y-11523000D01*
X15142077Y-11523000D02*
X15151600Y-11475381D01*
X15151600Y-11475381D02*
X15151600Y-11437286D01*
X15151600Y-11437286D02*
X15142077Y-11389667D01*
X15142077Y-11389667D02*
X15132553Y-11361095D01*
X15132553Y-11361095D02*
X15123029Y-11342048D01*
X15123029Y-11342048D02*
X15103981Y-11313476D01*
X15103981Y-11313476D02*
X15094458Y-11303952D01*
X8351600Y-11760000D02*
G75*
G03*
X8351600Y-11760000I-100000J0D01*
G01*
X8580171Y-11652524D02*
X8703981Y-11652524D01*
X8703981Y-11652524D02*
X8637314Y-11728714D01*
X8637314Y-11728714D02*
X8665886Y-11728714D01*
X8665886Y-11728714D02*
X8684933Y-11738238D01*
X8684933Y-11738238D02*
X8694457Y-11747762D01*
X8694457Y-11747762D02*
X8703981Y-11766809D01*
X8703981Y-11766809D02*
X8703981Y-11814428D01*
X8703981Y-11814428D02*
X8694457Y-11833476D01*
X8694457Y-11833476D02*
X8684933Y-11843000D01*
X8684933Y-11843000D02*
X8665886Y-11852524D01*
X8665886Y-11852524D02*
X8608743Y-11852524D01*
X8608743Y-11852524D02*
X8589695Y-11843000D01*
X8589695Y-11843000D02*
X8580171Y-11833476D01*
X8789695Y-11833476D02*
X8799219Y-11843000D01*
X8799219Y-11843000D02*
X8789695Y-11852524D01*
X8789695Y-11852524D02*
X8780171Y-11843000D01*
X8780171Y-11843000D02*
X8789695Y-11833476D01*
X8789695Y-11833476D02*
X8789695Y-11852524D01*
X8875410Y-11671571D02*
X8884933Y-11662048D01*
X8884933Y-11662048D02*
X8903981Y-11652524D01*
X8903981Y-11652524D02*
X8951600Y-11652524D01*
X8951600Y-11652524D02*
X8970648Y-11662048D01*
X8970648Y-11662048D02*
X8980171Y-11671571D01*
X8980171Y-11671571D02*
X8989695Y-11690619D01*
X8989695Y-11690619D02*
X8989695Y-11709667D01*
X8989695Y-11709667D02*
X8980171Y-11738238D01*
X8980171Y-11738238D02*
X8865886Y-11852524D01*
X8865886Y-11852524D02*
X8989695Y-11852524D01*
X9170648Y-11652524D02*
X9075410Y-11652524D01*
X9075410Y-11652524D02*
X9065886Y-11747762D01*
X9065886Y-11747762D02*
X9075410Y-11738238D01*
X9075410Y-11738238D02*
X9094457Y-11728714D01*
X9094457Y-11728714D02*
X9142076Y-11728714D01*
X9142076Y-11728714D02*
X9161124Y-11738238D01*
X9161124Y-11738238D02*
X9170648Y-11747762D01*
X9170648Y-11747762D02*
X9180171Y-11766809D01*
X9180171Y-11766809D02*
X9180171Y-11814428D01*
X9180171Y-11814428D02*
X9170648Y-11833476D01*
X9170648Y-11833476D02*
X9161124Y-11843000D01*
X9161124Y-11843000D02*
X9142076Y-11852524D01*
X9142076Y-11852524D02*
X9094457Y-11852524D01*
X9094457Y-11852524D02*
X9075410Y-11843000D01*
X9075410Y-11843000D02*
X9065886Y-11833476D01*
X9303981Y-11652524D02*
X9323029Y-11652524D01*
X9323029Y-11652524D02*
X9342076Y-11662048D01*
X9342076Y-11662048D02*
X9351600Y-11671571D01*
X9351600Y-11671571D02*
X9361124Y-11690619D01*
X9361124Y-11690619D02*
X9370648Y-11728714D01*
X9370648Y-11728714D02*
X9370648Y-11776333D01*
X9370648Y-11776333D02*
X9361124Y-11814428D01*
X9361124Y-11814428D02*
X9351600Y-11833476D01*
X9351600Y-11833476D02*
X9342076Y-11843000D01*
X9342076Y-11843000D02*
X9323029Y-11852524D01*
X9323029Y-11852524D02*
X9303981Y-11852524D01*
X9303981Y-11852524D02*
X9284933Y-11843000D01*
X9284933Y-11843000D02*
X9275410Y-11833476D01*
X9275410Y-11833476D02*
X9265886Y-11814428D01*
X9265886Y-11814428D02*
X9256362Y-11776333D01*
X9256362Y-11776333D02*
X9256362Y-11728714D01*
X9256362Y-11728714D02*
X9265886Y-11690619D01*
X9265886Y-11690619D02*
X9275410Y-11671571D01*
X9275410Y-11671571D02*
X9284933Y-11662048D01*
X9284933Y-11662048D02*
X9303981Y-11652524D01*
X9456362Y-11852524D02*
X9456362Y-11719190D01*
X9456362Y-11738238D02*
X9465886Y-11728714D01*
X9465886Y-11728714D02*
X9484933Y-11719190D01*
X9484933Y-11719190D02*
X9513505Y-11719190D01*
X9513505Y-11719190D02*
X9532552Y-11728714D01*
X9532552Y-11728714D02*
X9542076Y-11747762D01*
X9542076Y-11747762D02*
X9542076Y-11852524D01*
X9542076Y-11747762D02*
X9551600Y-11728714D01*
X9551600Y-11728714D02*
X9570648Y-11719190D01*
X9570648Y-11719190D02*
X9599219Y-11719190D01*
X9599219Y-11719190D02*
X9618267Y-11728714D01*
X9618267Y-11728714D02*
X9627791Y-11747762D01*
X9627791Y-11747762D02*
X9627791Y-11852524D01*
X9723029Y-11852524D02*
X9723029Y-11719190D01*
X9723029Y-11738238D02*
X9732552Y-11728714D01*
X9732552Y-11728714D02*
X9751600Y-11719190D01*
X9751600Y-11719190D02*
X9780172Y-11719190D01*
X9780172Y-11719190D02*
X9799219Y-11728714D01*
X9799219Y-11728714D02*
X9808743Y-11747762D01*
X9808743Y-11747762D02*
X9808743Y-11852524D01*
X9808743Y-11747762D02*
X9818267Y-11728714D01*
X9818267Y-11728714D02*
X9837314Y-11719190D01*
X9837314Y-11719190D02*
X9865886Y-11719190D01*
X9865886Y-11719190D02*
X9884933Y-11728714D01*
X9884933Y-11728714D02*
X9894457Y-11747762D01*
X9894457Y-11747762D02*
X9894457Y-11852524D01*
X10284933Y-11643000D02*
X10113505Y-11900143D01*
X10542076Y-11652524D02*
X10561124Y-11652524D01*
X10561124Y-11652524D02*
X10580172Y-11662048D01*
X10580172Y-11662048D02*
X10589695Y-11671571D01*
X10589695Y-11671571D02*
X10599219Y-11690619D01*
X10599219Y-11690619D02*
X10608743Y-11728714D01*
X10608743Y-11728714D02*
X10608743Y-11776333D01*
X10608743Y-11776333D02*
X10599219Y-11814428D01*
X10599219Y-11814428D02*
X10589695Y-11833476D01*
X10589695Y-11833476D02*
X10580172Y-11843000D01*
X10580172Y-11843000D02*
X10561124Y-11852524D01*
X10561124Y-11852524D02*
X10542076Y-11852524D01*
X10542076Y-11852524D02*
X10523029Y-11843000D01*
X10523029Y-11843000D02*
X10513505Y-11833476D01*
X10513505Y-11833476D02*
X10503981Y-11814428D01*
X10503981Y-11814428D02*
X10494457Y-11776333D01*
X10494457Y-11776333D02*
X10494457Y-11728714D01*
X10494457Y-11728714D02*
X10503981Y-11690619D01*
X10503981Y-11690619D02*
X10513505Y-11671571D01*
X10513505Y-11671571D02*
X10523029Y-11662048D01*
X10523029Y-11662048D02*
X10542076Y-11652524D01*
X10694457Y-11833476D02*
X10703981Y-11843000D01*
X10703981Y-11843000D02*
X10694457Y-11852524D01*
X10694457Y-11852524D02*
X10684934Y-11843000D01*
X10684934Y-11843000D02*
X10694457Y-11833476D01*
X10694457Y-11833476D02*
X10694457Y-11852524D01*
X10894457Y-11852524D02*
X10780172Y-11852524D01*
X10837314Y-11852524D02*
X10837314Y-11652524D01*
X10837314Y-11652524D02*
X10818267Y-11681095D01*
X10818267Y-11681095D02*
X10799219Y-11700143D01*
X10799219Y-11700143D02*
X10780172Y-11709667D01*
X10970648Y-11671571D02*
X10980172Y-11662048D01*
X10980172Y-11662048D02*
X10999219Y-11652524D01*
X10999219Y-11652524D02*
X11046838Y-11652524D01*
X11046838Y-11652524D02*
X11065886Y-11662048D01*
X11065886Y-11662048D02*
X11075410Y-11671571D01*
X11075410Y-11671571D02*
X11084934Y-11690619D01*
X11084934Y-11690619D02*
X11084934Y-11709667D01*
X11084934Y-11709667D02*
X11075410Y-11738238D01*
X11075410Y-11738238D02*
X10961124Y-11852524D01*
X10961124Y-11852524D02*
X11084934Y-11852524D01*
X11199219Y-11738238D02*
X11180172Y-11728714D01*
X11180172Y-11728714D02*
X11170648Y-11719190D01*
X11170648Y-11719190D02*
X11161124Y-11700143D01*
X11161124Y-11700143D02*
X11161124Y-11690619D01*
X11161124Y-11690619D02*
X11170648Y-11671571D01*
X11170648Y-11671571D02*
X11180172Y-11662048D01*
X11180172Y-11662048D02*
X11199219Y-11652524D01*
X11199219Y-11652524D02*
X11237314Y-11652524D01*
X11237314Y-11652524D02*
X11256362Y-11662048D01*
X11256362Y-11662048D02*
X11265886Y-11671571D01*
X11265886Y-11671571D02*
X11275410Y-11690619D01*
X11275410Y-11690619D02*
X11275410Y-11700143D01*
X11275410Y-11700143D02*
X11265886Y-11719190D01*
X11265886Y-11719190D02*
X11256362Y-11728714D01*
X11256362Y-11728714D02*
X11237314Y-11738238D01*
X11237314Y-11738238D02*
X11199219Y-11738238D01*
X11199219Y-11738238D02*
X11180172Y-11747762D01*
X11180172Y-11747762D02*
X11170648Y-11757286D01*
X11170648Y-11757286D02*
X11161124Y-11776333D01*
X11161124Y-11776333D02*
X11161124Y-11814428D01*
X11161124Y-11814428D02*
X11170648Y-11833476D01*
X11170648Y-11833476D02*
X11180172Y-11843000D01*
X11180172Y-11843000D02*
X11199219Y-11852524D01*
X11199219Y-11852524D02*
X11237314Y-11852524D01*
X11237314Y-11852524D02*
X11256362Y-11843000D01*
X11256362Y-11843000D02*
X11265886Y-11833476D01*
X11265886Y-11833476D02*
X11275410Y-11814428D01*
X11275410Y-11814428D02*
X11275410Y-11776333D01*
X11275410Y-11776333D02*
X11265886Y-11757286D01*
X11265886Y-11757286D02*
X11256362Y-11747762D01*
X11256362Y-11747762D02*
X11237314Y-11738238D01*
X11399219Y-11652524D02*
X11418267Y-11652524D01*
X11418267Y-11652524D02*
X11437314Y-11662048D01*
X11437314Y-11662048D02*
X11446838Y-11671571D01*
X11446838Y-11671571D02*
X11456362Y-11690619D01*
X11456362Y-11690619D02*
X11465886Y-11728714D01*
X11465886Y-11728714D02*
X11465886Y-11776333D01*
X11465886Y-11776333D02*
X11456362Y-11814428D01*
X11456362Y-11814428D02*
X11446838Y-11833476D01*
X11446838Y-11833476D02*
X11437314Y-11843000D01*
X11437314Y-11843000D02*
X11418267Y-11852524D01*
X11418267Y-11852524D02*
X11399219Y-11852524D01*
X11399219Y-11852524D02*
X11380172Y-11843000D01*
X11380172Y-11843000D02*
X11370648Y-11833476D01*
X11370648Y-11833476D02*
X11361124Y-11814428D01*
X11361124Y-11814428D02*
X11351600Y-11776333D01*
X11351600Y-11776333D02*
X11351600Y-11728714D01*
X11351600Y-11728714D02*
X11361124Y-11690619D01*
X11361124Y-11690619D02*
X11370648Y-11671571D01*
X11370648Y-11671571D02*
X11380172Y-11662048D01*
X11380172Y-11662048D02*
X11399219Y-11652524D01*
X11542076Y-11652524D02*
X11542076Y-11690619D01*
X11618267Y-11652524D02*
X11618267Y-11690619D01*
X11913505Y-11928714D02*
X11903981Y-11919190D01*
X11903981Y-11919190D02*
X11884934Y-11890619D01*
X11884934Y-11890619D02*
X11875410Y-11871571D01*
X11875410Y-11871571D02*
X11865886Y-11843000D01*
X11865886Y-11843000D02*
X11856362Y-11795381D01*
X11856362Y-11795381D02*
X11856362Y-11757286D01*
X11856362Y-11757286D02*
X11865886Y-11709667D01*
X11865886Y-11709667D02*
X11875410Y-11681095D01*
X11875410Y-11681095D02*
X11884934Y-11662048D01*
X11884934Y-11662048D02*
X11903981Y-11633476D01*
X11903981Y-11633476D02*
X11913505Y-11623952D01*
X12094457Y-11852524D02*
X11980172Y-11852524D01*
X12037314Y-11852524D02*
X12037314Y-11652524D01*
X12037314Y-11652524D02*
X12018267Y-11681095D01*
X12018267Y-11681095D02*
X11999219Y-11700143D01*
X11999219Y-11700143D02*
X11980172Y-11709667D01*
X12170648Y-11671571D02*
X12180172Y-11662048D01*
X12180172Y-11662048D02*
X12199219Y-11652524D01*
X12199219Y-11652524D02*
X12246838Y-11652524D01*
X12246838Y-11652524D02*
X12265886Y-11662048D01*
X12265886Y-11662048D02*
X12275410Y-11671571D01*
X12275410Y-11671571D02*
X12284934Y-11690619D01*
X12284934Y-11690619D02*
X12284934Y-11709667D01*
X12284934Y-11709667D02*
X12275410Y-11738238D01*
X12275410Y-11738238D02*
X12161124Y-11852524D01*
X12161124Y-11852524D02*
X12284934Y-11852524D01*
X12523029Y-11852524D02*
X12523029Y-11652524D01*
X12608743Y-11852524D02*
X12608743Y-11747762D01*
X12608743Y-11747762D02*
X12599219Y-11728714D01*
X12599219Y-11728714D02*
X12580172Y-11719190D01*
X12580172Y-11719190D02*
X12551600Y-11719190D01*
X12551600Y-11719190D02*
X12532553Y-11728714D01*
X12532553Y-11728714D02*
X12523029Y-11738238D01*
X12732553Y-11852524D02*
X12713505Y-11843000D01*
X12713505Y-11843000D02*
X12703981Y-11833476D01*
X12703981Y-11833476D02*
X12694457Y-11814428D01*
X12694457Y-11814428D02*
X12694457Y-11757286D01*
X12694457Y-11757286D02*
X12703981Y-11738238D01*
X12703981Y-11738238D02*
X12713505Y-11728714D01*
X12713505Y-11728714D02*
X12732553Y-11719190D01*
X12732553Y-11719190D02*
X12761124Y-11719190D01*
X12761124Y-11719190D02*
X12780172Y-11728714D01*
X12780172Y-11728714D02*
X12789696Y-11738238D01*
X12789696Y-11738238D02*
X12799219Y-11757286D01*
X12799219Y-11757286D02*
X12799219Y-11814428D01*
X12799219Y-11814428D02*
X12789696Y-11833476D01*
X12789696Y-11833476D02*
X12780172Y-11843000D01*
X12780172Y-11843000D02*
X12761124Y-11852524D01*
X12761124Y-11852524D02*
X12732553Y-11852524D01*
X12913505Y-11852524D02*
X12894457Y-11843000D01*
X12894457Y-11843000D02*
X12884934Y-11823952D01*
X12884934Y-11823952D02*
X12884934Y-11652524D01*
X13065886Y-11843000D02*
X13046838Y-11852524D01*
X13046838Y-11852524D02*
X13008743Y-11852524D01*
X13008743Y-11852524D02*
X12989696Y-11843000D01*
X12989696Y-11843000D02*
X12980172Y-11823952D01*
X12980172Y-11823952D02*
X12980172Y-11747762D01*
X12980172Y-11747762D02*
X12989696Y-11728714D01*
X12989696Y-11728714D02*
X13008743Y-11719190D01*
X13008743Y-11719190D02*
X13046838Y-11719190D01*
X13046838Y-11719190D02*
X13065886Y-11728714D01*
X13065886Y-11728714D02*
X13075410Y-11747762D01*
X13075410Y-11747762D02*
X13075410Y-11766809D01*
X13075410Y-11766809D02*
X12980172Y-11785857D01*
X13151600Y-11843000D02*
X13170648Y-11852524D01*
X13170648Y-11852524D02*
X13208743Y-11852524D01*
X13208743Y-11852524D02*
X13227791Y-11843000D01*
X13227791Y-11843000D02*
X13237315Y-11823952D01*
X13237315Y-11823952D02*
X13237315Y-11814428D01*
X13237315Y-11814428D02*
X13227791Y-11795381D01*
X13227791Y-11795381D02*
X13208743Y-11785857D01*
X13208743Y-11785857D02*
X13180172Y-11785857D01*
X13180172Y-11785857D02*
X13161124Y-11776333D01*
X13161124Y-11776333D02*
X13151600Y-11757286D01*
X13151600Y-11757286D02*
X13151600Y-11747762D01*
X13151600Y-11747762D02*
X13161124Y-11728714D01*
X13161124Y-11728714D02*
X13180172Y-11719190D01*
X13180172Y-11719190D02*
X13208743Y-11719190D01*
X13208743Y-11719190D02*
X13227791Y-11728714D01*
X13303981Y-11928714D02*
X13313505Y-11919190D01*
X13313505Y-11919190D02*
X13332553Y-11890619D01*
X13332553Y-11890619D02*
X13342077Y-11871571D01*
X13342077Y-11871571D02*
X13351600Y-11843000D01*
X13351600Y-11843000D02*
X13361124Y-11795381D01*
X13361124Y-11795381D02*
X13361124Y-11757286D01*
X13361124Y-11757286D02*
X13351600Y-11709667D01*
X13351600Y-11709667D02*
X13342077Y-11681095D01*
X13342077Y-11681095D02*
X13332553Y-11662048D01*
X13332553Y-11662048D02*
X13313505Y-11633476D01*
X13313505Y-11633476D02*
X13303981Y-11623952D01*
X13665886Y-11928714D02*
X13656362Y-11919190D01*
X13656362Y-11919190D02*
X13637315Y-11890619D01*
X13637315Y-11890619D02*
X13627791Y-11871571D01*
X13627791Y-11871571D02*
X13618267Y-11843000D01*
X13618267Y-11843000D02*
X13608743Y-11795381D01*
X13608743Y-11795381D02*
X13608743Y-11757286D01*
X13608743Y-11757286D02*
X13618267Y-11709667D01*
X13618267Y-11709667D02*
X13627791Y-11681095D01*
X13627791Y-11681095D02*
X13637315Y-11662048D01*
X13637315Y-11662048D02*
X13656362Y-11633476D01*
X13656362Y-11633476D02*
X13665886Y-11623952D01*
X13742077Y-11719190D02*
X13742077Y-11852524D01*
X13742077Y-11738238D02*
X13751600Y-11728714D01*
X13751600Y-11728714D02*
X13770648Y-11719190D01*
X13770648Y-11719190D02*
X13799219Y-11719190D01*
X13799219Y-11719190D02*
X13818267Y-11728714D01*
X13818267Y-11728714D02*
X13827791Y-11747762D01*
X13827791Y-11747762D02*
X13827791Y-11852524D01*
X13951600Y-11852524D02*
X13932553Y-11843000D01*
X13932553Y-11843000D02*
X13923029Y-11833476D01*
X13923029Y-11833476D02*
X13913505Y-11814428D01*
X13913505Y-11814428D02*
X13913505Y-11757286D01*
X13913505Y-11757286D02*
X13923029Y-11738238D01*
X13923029Y-11738238D02*
X13932553Y-11728714D01*
X13932553Y-11728714D02*
X13951600Y-11719190D01*
X13951600Y-11719190D02*
X13980172Y-11719190D01*
X13980172Y-11719190D02*
X13999219Y-11728714D01*
X13999219Y-11728714D02*
X14008743Y-11738238D01*
X14008743Y-11738238D02*
X14018267Y-11757286D01*
X14018267Y-11757286D02*
X14018267Y-11814428D01*
X14018267Y-11814428D02*
X14008743Y-11833476D01*
X14008743Y-11833476D02*
X13999219Y-11843000D01*
X13999219Y-11843000D02*
X13980172Y-11852524D01*
X13980172Y-11852524D02*
X13951600Y-11852524D01*
X14075410Y-11719190D02*
X14151600Y-11719190D01*
X14103981Y-11652524D02*
X14103981Y-11823952D01*
X14103981Y-11823952D02*
X14113505Y-11843000D01*
X14113505Y-11843000D02*
X14132553Y-11852524D01*
X14132553Y-11852524D02*
X14151600Y-11852524D01*
X14370648Y-11719190D02*
X14370648Y-11919190D01*
X14370648Y-11728714D02*
X14389696Y-11719190D01*
X14389696Y-11719190D02*
X14427791Y-11719190D01*
X14427791Y-11719190D02*
X14446839Y-11728714D01*
X14446839Y-11728714D02*
X14456362Y-11738238D01*
X14456362Y-11738238D02*
X14465886Y-11757286D01*
X14465886Y-11757286D02*
X14465886Y-11814428D01*
X14465886Y-11814428D02*
X14456362Y-11833476D01*
X14456362Y-11833476D02*
X14446839Y-11843000D01*
X14446839Y-11843000D02*
X14427791Y-11852524D01*
X14427791Y-11852524D02*
X14389696Y-11852524D01*
X14389696Y-11852524D02*
X14370648Y-11843000D01*
X14580172Y-11852524D02*
X14561124Y-11843000D01*
X14561124Y-11843000D02*
X14551600Y-11823952D01*
X14551600Y-11823952D02*
X14551600Y-11652524D01*
X14742077Y-11852524D02*
X14742077Y-11747762D01*
X14742077Y-11747762D02*
X14732553Y-11728714D01*
X14732553Y-11728714D02*
X14713505Y-11719190D01*
X14713505Y-11719190D02*
X14675410Y-11719190D01*
X14675410Y-11719190D02*
X14656362Y-11728714D01*
X14742077Y-11843000D02*
X14723029Y-11852524D01*
X14723029Y-11852524D02*
X14675410Y-11852524D01*
X14675410Y-11852524D02*
X14656362Y-11843000D01*
X14656362Y-11843000D02*
X14646839Y-11823952D01*
X14646839Y-11823952D02*
X14646839Y-11804905D01*
X14646839Y-11804905D02*
X14656362Y-11785857D01*
X14656362Y-11785857D02*
X14675410Y-11776333D01*
X14675410Y-11776333D02*
X14723029Y-11776333D01*
X14723029Y-11776333D02*
X14742077Y-11766809D01*
X14808743Y-11719190D02*
X14884934Y-11719190D01*
X14837315Y-11652524D02*
X14837315Y-11823952D01*
X14837315Y-11823952D02*
X14846839Y-11843000D01*
X14846839Y-11843000D02*
X14865886Y-11852524D01*
X14865886Y-11852524D02*
X14884934Y-11852524D01*
X15027791Y-11843000D02*
X15008743Y-11852524D01*
X15008743Y-11852524D02*
X14970648Y-11852524D01*
X14970648Y-11852524D02*
X14951600Y-11843000D01*
X14951600Y-11843000D02*
X14942077Y-11823952D01*
X14942077Y-11823952D02*
X14942077Y-11747762D01*
X14942077Y-11747762D02*
X14951600Y-11728714D01*
X14951600Y-11728714D02*
X14970648Y-11719190D01*
X14970648Y-11719190D02*
X15008743Y-11719190D01*
X15008743Y-11719190D02*
X15027791Y-11728714D01*
X15027791Y-11728714D02*
X15037315Y-11747762D01*
X15037315Y-11747762D02*
X15037315Y-11766809D01*
X15037315Y-11766809D02*
X14942077Y-11785857D01*
X15208743Y-11852524D02*
X15208743Y-11652524D01*
X15208743Y-11843000D02*
X15189696Y-11852524D01*
X15189696Y-11852524D02*
X15151600Y-11852524D01*
X15151600Y-11852524D02*
X15132553Y-11843000D01*
X15132553Y-11843000D02*
X15123029Y-11833476D01*
X15123029Y-11833476D02*
X15113505Y-11814428D01*
X15113505Y-11814428D02*
X15113505Y-11757286D01*
X15113505Y-11757286D02*
X15123029Y-11738238D01*
X15123029Y-11738238D02*
X15132553Y-11728714D01*
X15132553Y-11728714D02*
X15151600Y-11719190D01*
X15151600Y-11719190D02*
X15189696Y-11719190D01*
X15189696Y-11719190D02*
X15208743Y-11728714D01*
X15284934Y-11928714D02*
X15294458Y-11919190D01*
X15294458Y-11919190D02*
X15313505Y-11890619D01*
X15313505Y-11890619D02*
X15323029Y-11871571D01*
X15323029Y-11871571D02*
X15332553Y-11843000D01*
X15332553Y-11843000D02*
X15342077Y-11795381D01*
X15342077Y-11795381D02*
X15342077Y-11757286D01*
X15342077Y-11757286D02*
X15332553Y-11709667D01*
X15332553Y-11709667D02*
X15323029Y-11681095D01*
X15323029Y-11681095D02*
X15313505Y-11662048D01*
X15313505Y-11662048D02*
X15294458Y-11633476D01*
X15294458Y-11633476D02*
X15284934Y-11623952D01*
M02*
