%TF.GenerationSoftware,KiCad,Pcbnew,7.0.1*%
%TF.CreationDate,2023-07-05T13:59:51-05:00*%
%TF.ProjectId,shift register mosfet array,73686966-7420-4726-9567-697374657220,rev?*%
%TF.SameCoordinates,Original*%
%TF.FileFunction,Drillmap*%
%TF.FilePolarity,Positive*%
%FSLAX45Y45*%
G04 Gerber Fmt 4.5, Leading zero omitted, Abs format (unit mm)*
G04 Created by KiCad (PCBNEW 7.0.1) date 2023-07-05 13:59:51*
%MOMM*%
%LPD*%
G01*
G04 APERTURE LIST*
%ADD10C,0.100000*%
%ADD11C,0.200000*%
%ADD12C,0.320000*%
G04 APERTURE END LIST*
D10*
X11353800Y-11875900D02*
G75*
G03*
X11811000Y-12333100I457200J0D01*
G01*
X11811000Y-5678300D02*
G75*
G03*
X11353800Y-6135500I0J-457200D01*
G01*
X19024600Y-12333100D02*
G75*
G03*
X19481800Y-11875900I0J457200D01*
G01*
X19481800Y-6135500D02*
G75*
G03*
X19024600Y-5678300I-457200J0D01*
G01*
X11353800Y-6135500D02*
X11353800Y-11875900D01*
X11811000Y-5678300D02*
X19024600Y-5678300D01*
X11811000Y-12333100D02*
X19024600Y-12333100D01*
X19481800Y-6135500D02*
X19481800Y-11875900D01*
D11*
D12*
X11651000Y-5975500D02*
X11971000Y-6295500D01*
X11971000Y-5975500D02*
X11651000Y-6295500D01*
X11651000Y-11715900D02*
X11971000Y-12035900D01*
X11971000Y-11715900D02*
X11651000Y-12035900D01*
X18864600Y-5975500D02*
X19184600Y-6295500D01*
X19184600Y-5975500D02*
X18864600Y-6295500D01*
X18864600Y-11715900D02*
X19184600Y-12035900D01*
X19184600Y-11715900D02*
X18864600Y-12035900D01*
D11*
X11596419Y-12650624D02*
X11596419Y-12450624D01*
X11596419Y-12450624D02*
X11644038Y-12450624D01*
X11644038Y-12450624D02*
X11672609Y-12460148D01*
X11672609Y-12460148D02*
X11691657Y-12479195D01*
X11691657Y-12479195D02*
X11701181Y-12498243D01*
X11701181Y-12498243D02*
X11710705Y-12536338D01*
X11710705Y-12536338D02*
X11710705Y-12564909D01*
X11710705Y-12564909D02*
X11701181Y-12603005D01*
X11701181Y-12603005D02*
X11691657Y-12622052D01*
X11691657Y-12622052D02*
X11672609Y-12641100D01*
X11672609Y-12641100D02*
X11644038Y-12650624D01*
X11644038Y-12650624D02*
X11596419Y-12650624D01*
X11796419Y-12650624D02*
X11796419Y-12517290D01*
X11796419Y-12555386D02*
X11805943Y-12536338D01*
X11805943Y-12536338D02*
X11815467Y-12526814D01*
X11815467Y-12526814D02*
X11834514Y-12517290D01*
X11834514Y-12517290D02*
X11853562Y-12517290D01*
X11920228Y-12650624D02*
X11920228Y-12517290D01*
X11920228Y-12450624D02*
X11910705Y-12460148D01*
X11910705Y-12460148D02*
X11920228Y-12469671D01*
X11920228Y-12469671D02*
X11929752Y-12460148D01*
X11929752Y-12460148D02*
X11920228Y-12450624D01*
X11920228Y-12450624D02*
X11920228Y-12469671D01*
X12044038Y-12650624D02*
X12024990Y-12641100D01*
X12024990Y-12641100D02*
X12015467Y-12622052D01*
X12015467Y-12622052D02*
X12015467Y-12450624D01*
X12148800Y-12650624D02*
X12129752Y-12641100D01*
X12129752Y-12641100D02*
X12120228Y-12622052D01*
X12120228Y-12622052D02*
X12120228Y-12450624D01*
X12377371Y-12650624D02*
X12377371Y-12450624D01*
X12377371Y-12450624D02*
X12444038Y-12593481D01*
X12444038Y-12593481D02*
X12510705Y-12450624D01*
X12510705Y-12450624D02*
X12510705Y-12650624D01*
X12691657Y-12650624D02*
X12691657Y-12545862D01*
X12691657Y-12545862D02*
X12682133Y-12526814D01*
X12682133Y-12526814D02*
X12663086Y-12517290D01*
X12663086Y-12517290D02*
X12624990Y-12517290D01*
X12624990Y-12517290D02*
X12605943Y-12526814D01*
X12691657Y-12641100D02*
X12672609Y-12650624D01*
X12672609Y-12650624D02*
X12624990Y-12650624D01*
X12624990Y-12650624D02*
X12605943Y-12641100D01*
X12605943Y-12641100D02*
X12596419Y-12622052D01*
X12596419Y-12622052D02*
X12596419Y-12603005D01*
X12596419Y-12603005D02*
X12605943Y-12583957D01*
X12605943Y-12583957D02*
X12624990Y-12574433D01*
X12624990Y-12574433D02*
X12672609Y-12574433D01*
X12672609Y-12574433D02*
X12691657Y-12564909D01*
X12786895Y-12517290D02*
X12786895Y-12717290D01*
X12786895Y-12526814D02*
X12805943Y-12517290D01*
X12805943Y-12517290D02*
X12844038Y-12517290D01*
X12844038Y-12517290D02*
X12863086Y-12526814D01*
X12863086Y-12526814D02*
X12872609Y-12536338D01*
X12872609Y-12536338D02*
X12882133Y-12555386D01*
X12882133Y-12555386D02*
X12882133Y-12612528D01*
X12882133Y-12612528D02*
X12872609Y-12631576D01*
X12872609Y-12631576D02*
X12863086Y-12641100D01*
X12863086Y-12641100D02*
X12844038Y-12650624D01*
X12844038Y-12650624D02*
X12805943Y-12650624D01*
X12805943Y-12650624D02*
X12786895Y-12641100D01*
X12967848Y-12631576D02*
X12977371Y-12641100D01*
X12977371Y-12641100D02*
X12967848Y-12650624D01*
X12967848Y-12650624D02*
X12958324Y-12641100D01*
X12958324Y-12641100D02*
X12967848Y-12631576D01*
X12967848Y-12631576D02*
X12967848Y-12650624D01*
X12967848Y-12526814D02*
X12977371Y-12536338D01*
X12977371Y-12536338D02*
X12967848Y-12545862D01*
X12967848Y-12545862D02*
X12958324Y-12536338D01*
X12958324Y-12536338D02*
X12967848Y-12526814D01*
X12967848Y-12526814D02*
X12967848Y-12545862D01*
X11148800Y-12878100D02*
X11348800Y-13078100D01*
X11348800Y-12878100D02*
X11148800Y-13078100D01*
X11577371Y-12870624D02*
X11701181Y-12870624D01*
X11701181Y-12870624D02*
X11634514Y-12946814D01*
X11634514Y-12946814D02*
X11663086Y-12946814D01*
X11663086Y-12946814D02*
X11682133Y-12956338D01*
X11682133Y-12956338D02*
X11691657Y-12965862D01*
X11691657Y-12965862D02*
X11701181Y-12984909D01*
X11701181Y-12984909D02*
X11701181Y-13032528D01*
X11701181Y-13032528D02*
X11691657Y-13051576D01*
X11691657Y-13051576D02*
X11682133Y-13061100D01*
X11682133Y-13061100D02*
X11663086Y-13070624D01*
X11663086Y-13070624D02*
X11605943Y-13070624D01*
X11605943Y-13070624D02*
X11586895Y-13061100D01*
X11586895Y-13061100D02*
X11577371Y-13051576D01*
X11786895Y-13051576D02*
X11796419Y-13061100D01*
X11796419Y-13061100D02*
X11786895Y-13070624D01*
X11786895Y-13070624D02*
X11777371Y-13061100D01*
X11777371Y-13061100D02*
X11786895Y-13051576D01*
X11786895Y-13051576D02*
X11786895Y-13070624D01*
X11872609Y-12889671D02*
X11882133Y-12880148D01*
X11882133Y-12880148D02*
X11901181Y-12870624D01*
X11901181Y-12870624D02*
X11948800Y-12870624D01*
X11948800Y-12870624D02*
X11967848Y-12880148D01*
X11967848Y-12880148D02*
X11977371Y-12889671D01*
X11977371Y-12889671D02*
X11986895Y-12908719D01*
X11986895Y-12908719D02*
X11986895Y-12927767D01*
X11986895Y-12927767D02*
X11977371Y-12956338D01*
X11977371Y-12956338D02*
X11863086Y-13070624D01*
X11863086Y-13070624D02*
X11986895Y-13070624D01*
X12110705Y-12870624D02*
X12129752Y-12870624D01*
X12129752Y-12870624D02*
X12148800Y-12880148D01*
X12148800Y-12880148D02*
X12158324Y-12889671D01*
X12158324Y-12889671D02*
X12167848Y-12908719D01*
X12167848Y-12908719D02*
X12177371Y-12946814D01*
X12177371Y-12946814D02*
X12177371Y-12994433D01*
X12177371Y-12994433D02*
X12167848Y-13032528D01*
X12167848Y-13032528D02*
X12158324Y-13051576D01*
X12158324Y-13051576D02*
X12148800Y-13061100D01*
X12148800Y-13061100D02*
X12129752Y-13070624D01*
X12129752Y-13070624D02*
X12110705Y-13070624D01*
X12110705Y-13070624D02*
X12091657Y-13061100D01*
X12091657Y-13061100D02*
X12082133Y-13051576D01*
X12082133Y-13051576D02*
X12072609Y-13032528D01*
X12072609Y-13032528D02*
X12063086Y-12994433D01*
X12063086Y-12994433D02*
X12063086Y-12946814D01*
X12063086Y-12946814D02*
X12072609Y-12908719D01*
X12072609Y-12908719D02*
X12082133Y-12889671D01*
X12082133Y-12889671D02*
X12091657Y-12880148D01*
X12091657Y-12880148D02*
X12110705Y-12870624D01*
X12301181Y-12870624D02*
X12320229Y-12870624D01*
X12320229Y-12870624D02*
X12339276Y-12880148D01*
X12339276Y-12880148D02*
X12348800Y-12889671D01*
X12348800Y-12889671D02*
X12358324Y-12908719D01*
X12358324Y-12908719D02*
X12367848Y-12946814D01*
X12367848Y-12946814D02*
X12367848Y-12994433D01*
X12367848Y-12994433D02*
X12358324Y-13032528D01*
X12358324Y-13032528D02*
X12348800Y-13051576D01*
X12348800Y-13051576D02*
X12339276Y-13061100D01*
X12339276Y-13061100D02*
X12320229Y-13070624D01*
X12320229Y-13070624D02*
X12301181Y-13070624D01*
X12301181Y-13070624D02*
X12282133Y-13061100D01*
X12282133Y-13061100D02*
X12272609Y-13051576D01*
X12272609Y-13051576D02*
X12263086Y-13032528D01*
X12263086Y-13032528D02*
X12253562Y-12994433D01*
X12253562Y-12994433D02*
X12253562Y-12946814D01*
X12253562Y-12946814D02*
X12263086Y-12908719D01*
X12263086Y-12908719D02*
X12272609Y-12889671D01*
X12272609Y-12889671D02*
X12282133Y-12880148D01*
X12282133Y-12880148D02*
X12301181Y-12870624D01*
X12453562Y-13070624D02*
X12453562Y-12937290D01*
X12453562Y-12956338D02*
X12463086Y-12946814D01*
X12463086Y-12946814D02*
X12482133Y-12937290D01*
X12482133Y-12937290D02*
X12510705Y-12937290D01*
X12510705Y-12937290D02*
X12529752Y-12946814D01*
X12529752Y-12946814D02*
X12539276Y-12965862D01*
X12539276Y-12965862D02*
X12539276Y-13070624D01*
X12539276Y-12965862D02*
X12548800Y-12946814D01*
X12548800Y-12946814D02*
X12567848Y-12937290D01*
X12567848Y-12937290D02*
X12596419Y-12937290D01*
X12596419Y-12937290D02*
X12615467Y-12946814D01*
X12615467Y-12946814D02*
X12624990Y-12965862D01*
X12624990Y-12965862D02*
X12624990Y-13070624D01*
X12720229Y-13070624D02*
X12720229Y-12937290D01*
X12720229Y-12956338D02*
X12729752Y-12946814D01*
X12729752Y-12946814D02*
X12748800Y-12937290D01*
X12748800Y-12937290D02*
X12777371Y-12937290D01*
X12777371Y-12937290D02*
X12796419Y-12946814D01*
X12796419Y-12946814D02*
X12805943Y-12965862D01*
X12805943Y-12965862D02*
X12805943Y-13070624D01*
X12805943Y-12965862D02*
X12815467Y-12946814D01*
X12815467Y-12946814D02*
X12834514Y-12937290D01*
X12834514Y-12937290D02*
X12863086Y-12937290D01*
X12863086Y-12937290D02*
X12882133Y-12946814D01*
X12882133Y-12946814D02*
X12891657Y-12965862D01*
X12891657Y-12965862D02*
X12891657Y-13070624D01*
X13282133Y-12861100D02*
X13110705Y-13118243D01*
X13539276Y-12870624D02*
X13558324Y-12870624D01*
X13558324Y-12870624D02*
X13577372Y-12880148D01*
X13577372Y-12880148D02*
X13586895Y-12889671D01*
X13586895Y-12889671D02*
X13596419Y-12908719D01*
X13596419Y-12908719D02*
X13605943Y-12946814D01*
X13605943Y-12946814D02*
X13605943Y-12994433D01*
X13605943Y-12994433D02*
X13596419Y-13032528D01*
X13596419Y-13032528D02*
X13586895Y-13051576D01*
X13586895Y-13051576D02*
X13577372Y-13061100D01*
X13577372Y-13061100D02*
X13558324Y-13070624D01*
X13558324Y-13070624D02*
X13539276Y-13070624D01*
X13539276Y-13070624D02*
X13520229Y-13061100D01*
X13520229Y-13061100D02*
X13510705Y-13051576D01*
X13510705Y-13051576D02*
X13501181Y-13032528D01*
X13501181Y-13032528D02*
X13491657Y-12994433D01*
X13491657Y-12994433D02*
X13491657Y-12946814D01*
X13491657Y-12946814D02*
X13501181Y-12908719D01*
X13501181Y-12908719D02*
X13510705Y-12889671D01*
X13510705Y-12889671D02*
X13520229Y-12880148D01*
X13520229Y-12880148D02*
X13539276Y-12870624D01*
X13691657Y-13051576D02*
X13701181Y-13061100D01*
X13701181Y-13061100D02*
X13691657Y-13070624D01*
X13691657Y-13070624D02*
X13682133Y-13061100D01*
X13682133Y-13061100D02*
X13691657Y-13051576D01*
X13691657Y-13051576D02*
X13691657Y-13070624D01*
X13891657Y-13070624D02*
X13777372Y-13070624D01*
X13834514Y-13070624D02*
X13834514Y-12870624D01*
X13834514Y-12870624D02*
X13815467Y-12899195D01*
X13815467Y-12899195D02*
X13796419Y-12918243D01*
X13796419Y-12918243D02*
X13777372Y-12927767D01*
X13967848Y-12889671D02*
X13977372Y-12880148D01*
X13977372Y-12880148D02*
X13996419Y-12870624D01*
X13996419Y-12870624D02*
X14044038Y-12870624D01*
X14044038Y-12870624D02*
X14063086Y-12880148D01*
X14063086Y-12880148D02*
X14072610Y-12889671D01*
X14072610Y-12889671D02*
X14082133Y-12908719D01*
X14082133Y-12908719D02*
X14082133Y-12927767D01*
X14082133Y-12927767D02*
X14072610Y-12956338D01*
X14072610Y-12956338D02*
X13958324Y-13070624D01*
X13958324Y-13070624D02*
X14082133Y-13070624D01*
X14253562Y-12870624D02*
X14215467Y-12870624D01*
X14215467Y-12870624D02*
X14196419Y-12880148D01*
X14196419Y-12880148D02*
X14186895Y-12889671D01*
X14186895Y-12889671D02*
X14167848Y-12918243D01*
X14167848Y-12918243D02*
X14158324Y-12956338D01*
X14158324Y-12956338D02*
X14158324Y-13032528D01*
X14158324Y-13032528D02*
X14167848Y-13051576D01*
X14167848Y-13051576D02*
X14177372Y-13061100D01*
X14177372Y-13061100D02*
X14196419Y-13070624D01*
X14196419Y-13070624D02*
X14234514Y-13070624D01*
X14234514Y-13070624D02*
X14253562Y-13061100D01*
X14253562Y-13061100D02*
X14263086Y-13051576D01*
X14263086Y-13051576D02*
X14272610Y-13032528D01*
X14272610Y-13032528D02*
X14272610Y-12984909D01*
X14272610Y-12984909D02*
X14263086Y-12965862D01*
X14263086Y-12965862D02*
X14253562Y-12956338D01*
X14253562Y-12956338D02*
X14234514Y-12946814D01*
X14234514Y-12946814D02*
X14196419Y-12946814D01*
X14196419Y-12946814D02*
X14177372Y-12956338D01*
X14177372Y-12956338D02*
X14167848Y-12965862D01*
X14167848Y-12965862D02*
X14158324Y-12984909D01*
X14396419Y-12870624D02*
X14415467Y-12870624D01*
X14415467Y-12870624D02*
X14434514Y-12880148D01*
X14434514Y-12880148D02*
X14444038Y-12889671D01*
X14444038Y-12889671D02*
X14453562Y-12908719D01*
X14453562Y-12908719D02*
X14463086Y-12946814D01*
X14463086Y-12946814D02*
X14463086Y-12994433D01*
X14463086Y-12994433D02*
X14453562Y-13032528D01*
X14453562Y-13032528D02*
X14444038Y-13051576D01*
X14444038Y-13051576D02*
X14434514Y-13061100D01*
X14434514Y-13061100D02*
X14415467Y-13070624D01*
X14415467Y-13070624D02*
X14396419Y-13070624D01*
X14396419Y-13070624D02*
X14377372Y-13061100D01*
X14377372Y-13061100D02*
X14367848Y-13051576D01*
X14367848Y-13051576D02*
X14358324Y-13032528D01*
X14358324Y-13032528D02*
X14348800Y-12994433D01*
X14348800Y-12994433D02*
X14348800Y-12946814D01*
X14348800Y-12946814D02*
X14358324Y-12908719D01*
X14358324Y-12908719D02*
X14367848Y-12889671D01*
X14367848Y-12889671D02*
X14377372Y-12880148D01*
X14377372Y-12880148D02*
X14396419Y-12870624D01*
X14539276Y-12870624D02*
X14539276Y-12908719D01*
X14615467Y-12870624D02*
X14615467Y-12908719D01*
X14910705Y-13146814D02*
X14901181Y-13137290D01*
X14901181Y-13137290D02*
X14882134Y-13108719D01*
X14882134Y-13108719D02*
X14872610Y-13089671D01*
X14872610Y-13089671D02*
X14863086Y-13061100D01*
X14863086Y-13061100D02*
X14853562Y-13013481D01*
X14853562Y-13013481D02*
X14853562Y-12975386D01*
X14853562Y-12975386D02*
X14863086Y-12927767D01*
X14863086Y-12927767D02*
X14872610Y-12899195D01*
X14872610Y-12899195D02*
X14882134Y-12880148D01*
X14882134Y-12880148D02*
X14901181Y-12851576D01*
X14901181Y-12851576D02*
X14910705Y-12842052D01*
X15072610Y-12937290D02*
X15072610Y-13070624D01*
X15024991Y-12861100D02*
X14977372Y-13003957D01*
X14977372Y-13003957D02*
X15101181Y-13003957D01*
X15329753Y-13070624D02*
X15329753Y-12870624D01*
X15415467Y-13070624D02*
X15415467Y-12965862D01*
X15415467Y-12965862D02*
X15405943Y-12946814D01*
X15405943Y-12946814D02*
X15386896Y-12937290D01*
X15386896Y-12937290D02*
X15358324Y-12937290D01*
X15358324Y-12937290D02*
X15339276Y-12946814D01*
X15339276Y-12946814D02*
X15329753Y-12956338D01*
X15539276Y-13070624D02*
X15520229Y-13061100D01*
X15520229Y-13061100D02*
X15510705Y-13051576D01*
X15510705Y-13051576D02*
X15501181Y-13032528D01*
X15501181Y-13032528D02*
X15501181Y-12975386D01*
X15501181Y-12975386D02*
X15510705Y-12956338D01*
X15510705Y-12956338D02*
X15520229Y-12946814D01*
X15520229Y-12946814D02*
X15539276Y-12937290D01*
X15539276Y-12937290D02*
X15567848Y-12937290D01*
X15567848Y-12937290D02*
X15586896Y-12946814D01*
X15586896Y-12946814D02*
X15596419Y-12956338D01*
X15596419Y-12956338D02*
X15605943Y-12975386D01*
X15605943Y-12975386D02*
X15605943Y-13032528D01*
X15605943Y-13032528D02*
X15596419Y-13051576D01*
X15596419Y-13051576D02*
X15586896Y-13061100D01*
X15586896Y-13061100D02*
X15567848Y-13070624D01*
X15567848Y-13070624D02*
X15539276Y-13070624D01*
X15720229Y-13070624D02*
X15701181Y-13061100D01*
X15701181Y-13061100D02*
X15691657Y-13042052D01*
X15691657Y-13042052D02*
X15691657Y-12870624D01*
X15872610Y-13061100D02*
X15853562Y-13070624D01*
X15853562Y-13070624D02*
X15815467Y-13070624D01*
X15815467Y-13070624D02*
X15796419Y-13061100D01*
X15796419Y-13061100D02*
X15786896Y-13042052D01*
X15786896Y-13042052D02*
X15786896Y-12965862D01*
X15786896Y-12965862D02*
X15796419Y-12946814D01*
X15796419Y-12946814D02*
X15815467Y-12937290D01*
X15815467Y-12937290D02*
X15853562Y-12937290D01*
X15853562Y-12937290D02*
X15872610Y-12946814D01*
X15872610Y-12946814D02*
X15882134Y-12965862D01*
X15882134Y-12965862D02*
X15882134Y-12984909D01*
X15882134Y-12984909D02*
X15786896Y-13003957D01*
X15958324Y-13061100D02*
X15977372Y-13070624D01*
X15977372Y-13070624D02*
X16015467Y-13070624D01*
X16015467Y-13070624D02*
X16034515Y-13061100D01*
X16034515Y-13061100D02*
X16044038Y-13042052D01*
X16044038Y-13042052D02*
X16044038Y-13032528D01*
X16044038Y-13032528D02*
X16034515Y-13013481D01*
X16034515Y-13013481D02*
X16015467Y-13003957D01*
X16015467Y-13003957D02*
X15986896Y-13003957D01*
X15986896Y-13003957D02*
X15967848Y-12994433D01*
X15967848Y-12994433D02*
X15958324Y-12975386D01*
X15958324Y-12975386D02*
X15958324Y-12965862D01*
X15958324Y-12965862D02*
X15967848Y-12946814D01*
X15967848Y-12946814D02*
X15986896Y-12937290D01*
X15986896Y-12937290D02*
X16015467Y-12937290D01*
X16015467Y-12937290D02*
X16034515Y-12946814D01*
X16110705Y-13146814D02*
X16120229Y-13137290D01*
X16120229Y-13137290D02*
X16139277Y-13108719D01*
X16139277Y-13108719D02*
X16148800Y-13089671D01*
X16148800Y-13089671D02*
X16158324Y-13061100D01*
X16158324Y-13061100D02*
X16167848Y-13013481D01*
X16167848Y-13013481D02*
X16167848Y-12975386D01*
X16167848Y-12975386D02*
X16158324Y-12927767D01*
X16158324Y-12927767D02*
X16148800Y-12899195D01*
X16148800Y-12899195D02*
X16139277Y-12880148D01*
X16139277Y-12880148D02*
X16120229Y-12851576D01*
X16120229Y-12851576D02*
X16110705Y-12842052D01*
X16472610Y-13146814D02*
X16463086Y-13137290D01*
X16463086Y-13137290D02*
X16444038Y-13108719D01*
X16444038Y-13108719D02*
X16434515Y-13089671D01*
X16434515Y-13089671D02*
X16424991Y-13061100D01*
X16424991Y-13061100D02*
X16415467Y-13013481D01*
X16415467Y-13013481D02*
X16415467Y-12975386D01*
X16415467Y-12975386D02*
X16424991Y-12927767D01*
X16424991Y-12927767D02*
X16434515Y-12899195D01*
X16434515Y-12899195D02*
X16444038Y-12880148D01*
X16444038Y-12880148D02*
X16463086Y-12851576D01*
X16463086Y-12851576D02*
X16472610Y-12842052D01*
X16548800Y-12937290D02*
X16548800Y-13070624D01*
X16548800Y-12956338D02*
X16558324Y-12946814D01*
X16558324Y-12946814D02*
X16577372Y-12937290D01*
X16577372Y-12937290D02*
X16605943Y-12937290D01*
X16605943Y-12937290D02*
X16624991Y-12946814D01*
X16624991Y-12946814D02*
X16634515Y-12965862D01*
X16634515Y-12965862D02*
X16634515Y-13070624D01*
X16758324Y-13070624D02*
X16739277Y-13061100D01*
X16739277Y-13061100D02*
X16729753Y-13051576D01*
X16729753Y-13051576D02*
X16720229Y-13032528D01*
X16720229Y-13032528D02*
X16720229Y-12975386D01*
X16720229Y-12975386D02*
X16729753Y-12956338D01*
X16729753Y-12956338D02*
X16739277Y-12946814D01*
X16739277Y-12946814D02*
X16758324Y-12937290D01*
X16758324Y-12937290D02*
X16786896Y-12937290D01*
X16786896Y-12937290D02*
X16805943Y-12946814D01*
X16805943Y-12946814D02*
X16815467Y-12956338D01*
X16815467Y-12956338D02*
X16824991Y-12975386D01*
X16824991Y-12975386D02*
X16824991Y-13032528D01*
X16824991Y-13032528D02*
X16815467Y-13051576D01*
X16815467Y-13051576D02*
X16805943Y-13061100D01*
X16805943Y-13061100D02*
X16786896Y-13070624D01*
X16786896Y-13070624D02*
X16758324Y-13070624D01*
X16882134Y-12937290D02*
X16958324Y-12937290D01*
X16910705Y-12870624D02*
X16910705Y-13042052D01*
X16910705Y-13042052D02*
X16920229Y-13061100D01*
X16920229Y-13061100D02*
X16939277Y-13070624D01*
X16939277Y-13070624D02*
X16958324Y-13070624D01*
X17177372Y-12937290D02*
X17177372Y-13137290D01*
X17177372Y-12946814D02*
X17196420Y-12937290D01*
X17196420Y-12937290D02*
X17234515Y-12937290D01*
X17234515Y-12937290D02*
X17253562Y-12946814D01*
X17253562Y-12946814D02*
X17263086Y-12956338D01*
X17263086Y-12956338D02*
X17272610Y-12975386D01*
X17272610Y-12975386D02*
X17272610Y-13032528D01*
X17272610Y-13032528D02*
X17263086Y-13051576D01*
X17263086Y-13051576D02*
X17253562Y-13061100D01*
X17253562Y-13061100D02*
X17234515Y-13070624D01*
X17234515Y-13070624D02*
X17196420Y-13070624D01*
X17196420Y-13070624D02*
X17177372Y-13061100D01*
X17386896Y-13070624D02*
X17367848Y-13061100D01*
X17367848Y-13061100D02*
X17358324Y-13042052D01*
X17358324Y-13042052D02*
X17358324Y-12870624D01*
X17548801Y-13070624D02*
X17548801Y-12965862D01*
X17548801Y-12965862D02*
X17539277Y-12946814D01*
X17539277Y-12946814D02*
X17520229Y-12937290D01*
X17520229Y-12937290D02*
X17482134Y-12937290D01*
X17482134Y-12937290D02*
X17463086Y-12946814D01*
X17548801Y-13061100D02*
X17529753Y-13070624D01*
X17529753Y-13070624D02*
X17482134Y-13070624D01*
X17482134Y-13070624D02*
X17463086Y-13061100D01*
X17463086Y-13061100D02*
X17453562Y-13042052D01*
X17453562Y-13042052D02*
X17453562Y-13023005D01*
X17453562Y-13023005D02*
X17463086Y-13003957D01*
X17463086Y-13003957D02*
X17482134Y-12994433D01*
X17482134Y-12994433D02*
X17529753Y-12994433D01*
X17529753Y-12994433D02*
X17548801Y-12984909D01*
X17615467Y-12937290D02*
X17691658Y-12937290D01*
X17644039Y-12870624D02*
X17644039Y-13042052D01*
X17644039Y-13042052D02*
X17653562Y-13061100D01*
X17653562Y-13061100D02*
X17672610Y-13070624D01*
X17672610Y-13070624D02*
X17691658Y-13070624D01*
X17834515Y-13061100D02*
X17815467Y-13070624D01*
X17815467Y-13070624D02*
X17777372Y-13070624D01*
X17777372Y-13070624D02*
X17758324Y-13061100D01*
X17758324Y-13061100D02*
X17748801Y-13042052D01*
X17748801Y-13042052D02*
X17748801Y-12965862D01*
X17748801Y-12965862D02*
X17758324Y-12946814D01*
X17758324Y-12946814D02*
X17777372Y-12937290D01*
X17777372Y-12937290D02*
X17815467Y-12937290D01*
X17815467Y-12937290D02*
X17834515Y-12946814D01*
X17834515Y-12946814D02*
X17844039Y-12965862D01*
X17844039Y-12965862D02*
X17844039Y-12984909D01*
X17844039Y-12984909D02*
X17748801Y-13003957D01*
X18015467Y-13070624D02*
X18015467Y-12870624D01*
X18015467Y-13061100D02*
X17996420Y-13070624D01*
X17996420Y-13070624D02*
X17958324Y-13070624D01*
X17958324Y-13070624D02*
X17939277Y-13061100D01*
X17939277Y-13061100D02*
X17929753Y-13051576D01*
X17929753Y-13051576D02*
X17920229Y-13032528D01*
X17920229Y-13032528D02*
X17920229Y-12975386D01*
X17920229Y-12975386D02*
X17929753Y-12956338D01*
X17929753Y-12956338D02*
X17939277Y-12946814D01*
X17939277Y-12946814D02*
X17958324Y-12937290D01*
X17958324Y-12937290D02*
X17996420Y-12937290D01*
X17996420Y-12937290D02*
X18015467Y-12946814D01*
X18091658Y-13146814D02*
X18101182Y-13137290D01*
X18101182Y-13137290D02*
X18120229Y-13108719D01*
X18120229Y-13108719D02*
X18129753Y-13089671D01*
X18129753Y-13089671D02*
X18139277Y-13061100D01*
X18139277Y-13061100D02*
X18148801Y-13013481D01*
X18148801Y-13013481D02*
X18148801Y-12975386D01*
X18148801Y-12975386D02*
X18139277Y-12927767D01*
X18139277Y-12927767D02*
X18129753Y-12899195D01*
X18129753Y-12899195D02*
X18120229Y-12880148D01*
X18120229Y-12880148D02*
X18101182Y-12851576D01*
X18101182Y-12851576D02*
X18091658Y-12842052D01*
M02*
