G04 #@! TF.GenerationSoftware,KiCad,Pcbnew,7.0.1*
G04 #@! TF.CreationDate,2023-07-05T13:59:42-05:00*
G04 #@! TF.ProjectId,shift register mosfet array,73686966-7420-4726-9567-697374657220,rev?*
G04 #@! TF.SameCoordinates,Original*
G04 #@! TF.FileFunction,Soldermask,Top*
G04 #@! TF.FilePolarity,Negative*
%FSLAX46Y46*%
G04 Gerber Fmt 4.6, Leading zero omitted, Abs format (unit mm)*
G04 Created by KiCad (PCBNEW 7.0.1) date 2023-07-05 13:59:42*
%MOMM*%
%LPD*%
G01*
G04 APERTURE LIST*
G04 Aperture macros list*
%AMRoundRect*
0 Rectangle with rounded corners*
0 $1 Rounding radius*
0 $2 $3 $4 $5 $6 $7 $8 $9 X,Y pos of 4 corners*
0 Add a 4 corners polygon primitive as box body*
4,1,4,$2,$3,$4,$5,$6,$7,$8,$9,$2,$3,0*
0 Add four circle primitives for the rounded corners*
1,1,$1+$1,$2,$3*
1,1,$1+$1,$4,$5*
1,1,$1+$1,$6,$7*
1,1,$1+$1,$8,$9*
0 Add four rect primitives between the rounded corners*
20,1,$1+$1,$2,$3,$4,$5,0*
20,1,$1+$1,$4,$5,$6,$7,0*
20,1,$1+$1,$6,$7,$8,$9,0*
20,1,$1+$1,$8,$9,$2,$3,0*%
G04 Aperture macros list end*
%ADD10R,2.000000X1.905000*%
%ADD11O,2.000000X1.905000*%
%ADD12R,1.700000X1.700000*%
%ADD13RoundRect,0.250000X0.845000X-0.620000X0.845000X0.620000X-0.845000X0.620000X-0.845000X-0.620000X0*%
%ADD14O,2.190000X1.740000*%
%ADD15R,2.200000X2.200000*%
%ADD16O,2.200000X2.200000*%
%ADD17RoundRect,0.250000X-0.845000X0.620000X-0.845000X-0.620000X0.845000X-0.620000X0.845000X0.620000X0*%
%ADD18C,1.400000*%
%ADD19O,1.400000X1.400000*%
%ADD20R,1.800000X1.800000*%
%ADD21C,1.800000*%
%ADD22C,3.200000*%
%ADD23O,1.700000X1.700000*%
%ADD24RoundRect,0.250000X0.620000X0.845000X-0.620000X0.845000X-0.620000X-0.845000X0.620000X-0.845000X0*%
%ADD25O,1.740000X2.190000*%
%ADD26C,1.600000*%
%ADD27R,1.600000X2.400000*%
%ADD28O,1.600000X2.400000*%
G04 APERTURE END LIST*
D10*
X135890000Y-81534000D03*
D11*
X135890000Y-84074000D03*
X135890000Y-86614000D03*
D12*
X182433000Y-106934000D03*
D13*
X117977000Y-87326000D03*
D14*
X117977000Y-84786000D03*
X117977000Y-82246000D03*
X117977000Y-79706000D03*
X117977000Y-77166000D03*
D15*
X134173000Y-96520000D03*
D16*
X124013000Y-96520000D03*
D17*
X190621000Y-77166000D03*
D14*
X190621000Y-79706000D03*
X190621000Y-82246000D03*
X190621000Y-84786000D03*
X190621000Y-87326000D03*
D18*
X133680000Y-66091000D03*
D19*
X133680000Y-73711000D03*
D18*
X178130000Y-65837000D03*
D19*
X178130000Y-73457000D03*
D12*
X141793000Y-106934000D03*
D20*
X159573000Y-93726000D03*
D21*
X159573000Y-91186000D03*
D10*
X149606000Y-81534000D03*
D11*
X149606000Y-84074000D03*
X149606000Y-86614000D03*
D10*
X156464000Y-81534000D03*
D11*
X156464000Y-84074000D03*
X156464000Y-86614000D03*
D10*
X170180000Y-81534000D03*
D11*
X170180000Y-84074000D03*
X170180000Y-86614000D03*
D22*
X190246000Y-61355000D03*
D12*
X117977000Y-67006000D03*
D23*
X117977000Y-69546000D03*
X117977000Y-72086000D03*
X117977000Y-74626000D03*
D20*
X138999000Y-93731000D03*
D21*
X138999000Y-91191000D03*
D24*
X190053000Y-106934000D03*
D25*
X187513000Y-106934000D03*
D20*
X180147000Y-93731000D03*
D21*
X180147000Y-91191000D03*
D15*
X173797000Y-96520000D03*
D16*
X163637000Y-96520000D03*
D15*
X126553000Y-99822000D03*
D16*
X116393000Y-99822000D03*
D24*
X139253000Y-106914000D03*
D25*
X136713000Y-106914000D03*
D26*
X151993000Y-77216000D03*
X156993000Y-77216000D03*
D12*
X172273000Y-106934000D03*
X162113000Y-106934000D03*
D27*
X145678000Y-74133000D03*
D28*
X148218000Y-74133000D03*
X150758000Y-74133000D03*
X153298000Y-74133000D03*
X155838000Y-74133000D03*
X158378000Y-74133000D03*
X160918000Y-74133000D03*
X163458000Y-74133000D03*
X163458000Y-66513000D03*
X160918000Y-66513000D03*
X158378000Y-66513000D03*
X155838000Y-66513000D03*
X153298000Y-66513000D03*
X150758000Y-66513000D03*
X148218000Y-66513000D03*
X145678000Y-66513000D03*
D22*
X118110000Y-118759000D03*
D18*
X173050000Y-65837000D03*
D19*
X173050000Y-73457000D03*
D12*
X192593000Y-106934000D03*
D18*
X135966000Y-66091000D03*
D19*
X135966000Y-73711000D03*
D18*
X138252000Y-66091000D03*
D19*
X138252000Y-73711000D03*
D18*
X175590000Y-65837000D03*
D19*
X175590000Y-73457000D03*
D15*
X164653000Y-99822000D03*
D16*
X154493000Y-99822000D03*
D15*
X144333000Y-99822000D03*
D16*
X134173000Y-99822000D03*
D10*
X142748000Y-81534000D03*
D11*
X142748000Y-84074000D03*
X142748000Y-86614000D03*
D20*
X149413000Y-93726000D03*
D21*
X149413000Y-91186000D03*
D18*
X142869000Y-65990000D03*
D19*
X142869000Y-73610000D03*
D10*
X177038000Y-81534000D03*
D11*
X177038000Y-84074000D03*
X177038000Y-86614000D03*
D18*
X180670000Y-65837000D03*
D19*
X180670000Y-73457000D03*
D24*
X118933000Y-106934000D03*
D25*
X116393000Y-106934000D03*
D15*
X192593000Y-96520000D03*
D16*
X182433000Y-96520000D03*
D22*
X118110000Y-61355000D03*
D10*
X163322000Y-81534000D03*
D11*
X163322000Y-84074000D03*
X163322000Y-86614000D03*
D24*
X149413000Y-106934000D03*
D25*
X146873000Y-106934000D03*
D24*
X179893000Y-106934000D03*
D25*
X177353000Y-106934000D03*
D24*
X159573000Y-106934000D03*
D25*
X157033000Y-106934000D03*
D20*
X190053000Y-93731000D03*
D21*
X190053000Y-91191000D03*
D18*
X140538000Y-66091000D03*
D19*
X140538000Y-73711000D03*
D12*
X190621000Y-74626000D03*
D23*
X190621000Y-72086000D03*
X190621000Y-69546000D03*
X190621000Y-67006000D03*
D22*
X190246000Y-118759000D03*
D20*
X129093000Y-93731000D03*
D21*
X129093000Y-91191000D03*
D12*
X121473000Y-106934000D03*
D24*
X129093000Y-106934000D03*
D25*
X126553000Y-106934000D03*
D20*
X118933000Y-93731000D03*
D21*
X118933000Y-91191000D03*
D10*
X129032000Y-81534000D03*
D11*
X129032000Y-84074000D03*
X129032000Y-86614000D03*
D26*
X166745000Y-66070000D03*
X166745000Y-71070000D03*
D15*
X184973000Y-99822000D03*
D16*
X174813000Y-99822000D03*
D20*
X169733000Y-93731000D03*
D21*
X169733000Y-91191000D03*
D15*
X154493000Y-96520000D03*
D16*
X144333000Y-96520000D03*
D24*
X169733000Y-106934000D03*
D25*
X167193000Y-106934000D03*
D12*
X151953000Y-106934000D03*
X131633000Y-106934000D03*
D15*
X170047000Y-73904000D03*
D16*
X170047000Y-66284000D03*
D18*
X173543000Y-92456000D03*
D19*
X165923000Y-92456000D03*
D18*
X132903000Y-92456000D03*
D19*
X125283000Y-92456000D03*
D18*
X142809000Y-92456000D03*
D19*
X135189000Y-92456000D03*
D18*
X163383000Y-92451000D03*
D19*
X155763000Y-92451000D03*
D18*
X153223000Y-92451000D03*
D19*
X145603000Y-92451000D03*
D18*
X183957000Y-92456000D03*
D19*
X176337000Y-92456000D03*
D18*
X193863000Y-92456000D03*
D19*
X186243000Y-92456000D03*
D18*
X122743000Y-92456000D03*
D19*
X115123000Y-92456000D03*
M02*
