%TF.GenerationSoftware,KiCad,Pcbnew,7.0.1*%
%TF.CreationDate,2023-07-05T13:59:51-05:00*%
%TF.ProjectId,shift register mosfet array,73686966-7420-4726-9567-697374657220,rev?*%
%TF.SameCoordinates,Original*%
%TF.FileFunction,Drillmap*%
%TF.FilePolarity,Positive*%
%FSLAX45Y45*%
G04 Gerber Fmt 4.5, Leading zero omitted, Abs format (unit mm)*
G04 Created by KiCad (PCBNEW 7.0.1) date 2023-07-05 13:59:51*
%MOMM*%
%LPD*%
G01*
G04 APERTURE LIST*
%ADD10C,0.100000*%
%ADD11C,0.200000*%
%ADD12C,0.040000*%
%ADD13C,0.070000*%
%ADD14C,0.080000*%
%ADD15C,0.090000*%
%ADD16C,0.110000*%
%ADD17C,0.119000*%
G04 APERTURE END LIST*
D10*
X11353800Y-11875900D02*
G75*
G03*
X11811000Y-12333100I457200J0D01*
G01*
X11811000Y-5678300D02*
G75*
G03*
X11353800Y-6135500I0J-457200D01*
G01*
X19024600Y-12333100D02*
G75*
G03*
X19481800Y-11875900I0J457200D01*
G01*
X19481800Y-6135500D02*
G75*
G03*
X19024600Y-5678300I-457200J0D01*
G01*
X11353800Y-6135500D02*
X11353800Y-11875900D01*
X11811000Y-5678300D02*
X19024600Y-5678300D01*
X11811000Y-12333100D02*
X19024600Y-12333100D01*
X19481800Y-6135500D02*
X19481800Y-11875900D01*
D11*
D12*
X12883200Y-6380800D02*
X12923200Y-6420800D01*
X12923200Y-6380800D02*
X12883200Y-6420800D01*
X13005678Y-6445033D02*
X13045678Y-6485033D01*
X13045678Y-6445033D02*
X13005678Y-6485033D01*
X14254800Y-6299050D02*
X14294800Y-6339050D01*
X14294800Y-6299050D02*
X14254800Y-6339050D01*
D13*
X11547300Y-9245600D02*
G75*
G03*
X11547300Y-9245600I-35000J0D01*
G01*
X12309300Y-9245600D02*
G75*
G03*
X12309300Y-9245600I-35000J0D01*
G01*
X12563300Y-9245600D02*
G75*
G03*
X12563300Y-9245600I-35000J0D01*
G01*
X13325300Y-9245600D02*
G75*
G03*
X13325300Y-9245600I-35000J0D01*
G01*
X13403000Y-6609100D02*
G75*
G03*
X13403000Y-6609100I-35000J0D01*
G01*
X13403000Y-7371100D02*
G75*
G03*
X13403000Y-7371100I-35000J0D01*
G01*
X13553900Y-9245600D02*
G75*
G03*
X13553900Y-9245600I-35000J0D01*
G01*
X13631600Y-6609100D02*
G75*
G03*
X13631600Y-6609100I-35000J0D01*
G01*
X13631600Y-7371100D02*
G75*
G03*
X13631600Y-7371100I-35000J0D01*
G01*
X13860200Y-6609100D02*
G75*
G03*
X13860200Y-6609100I-35000J0D01*
G01*
X13860200Y-7371100D02*
G75*
G03*
X13860200Y-7371100I-35000J0D01*
G01*
X14088800Y-6609100D02*
G75*
G03*
X14088800Y-6609100I-35000J0D01*
G01*
X14088800Y-7371100D02*
G75*
G03*
X14088800Y-7371100I-35000J0D01*
G01*
X14315900Y-9245600D02*
G75*
G03*
X14315900Y-9245600I-35000J0D01*
G01*
X14321900Y-6599000D02*
G75*
G03*
X14321900Y-6599000I-35000J0D01*
G01*
X14321900Y-7361000D02*
G75*
G03*
X14321900Y-7361000I-35000J0D01*
G01*
X14595300Y-9245100D02*
G75*
G03*
X14595300Y-9245100I-35000J0D01*
G01*
X15357300Y-9245100D02*
G75*
G03*
X15357300Y-9245100I-35000J0D01*
G01*
X15611300Y-9245100D02*
G75*
G03*
X15611300Y-9245100I-35000J0D01*
G01*
X16373300Y-9245100D02*
G75*
G03*
X16373300Y-9245100I-35000J0D01*
G01*
X16627300Y-9245600D02*
G75*
G03*
X16627300Y-9245600I-35000J0D01*
G01*
X17340000Y-6583700D02*
G75*
G03*
X17340000Y-6583700I-35000J0D01*
G01*
X17340000Y-7345700D02*
G75*
G03*
X17340000Y-7345700I-35000J0D01*
G01*
X17389300Y-9245600D02*
G75*
G03*
X17389300Y-9245600I-35000J0D01*
G01*
X17594000Y-6583700D02*
G75*
G03*
X17594000Y-6583700I-35000J0D01*
G01*
X17594000Y-7345700D02*
G75*
G03*
X17594000Y-7345700I-35000J0D01*
G01*
X17668700Y-9245600D02*
G75*
G03*
X17668700Y-9245600I-35000J0D01*
G01*
X17848000Y-6583700D02*
G75*
G03*
X17848000Y-6583700I-35000J0D01*
G01*
X17848000Y-7345700D02*
G75*
G03*
X17848000Y-7345700I-35000J0D01*
G01*
X18102000Y-6583700D02*
G75*
G03*
X18102000Y-6583700I-35000J0D01*
G01*
X18102000Y-7345700D02*
G75*
G03*
X18102000Y-7345700I-35000J0D01*
G01*
X18430700Y-9245600D02*
G75*
G03*
X18430700Y-9245600I-35000J0D01*
G01*
X18659300Y-9245600D02*
G75*
G03*
X18659300Y-9245600I-35000J0D01*
G01*
X19421300Y-9245600D02*
G75*
G03*
X19421300Y-9245600I-35000J0D01*
G01*
D14*
X14567800Y-6611300D02*
X14567800Y-6691300D01*
X14527800Y-6651300D02*
X14607800Y-6651300D01*
X14567800Y-7373300D02*
X14567800Y-7453300D01*
X14527800Y-7413300D02*
X14607800Y-7413300D01*
X14821800Y-6611300D02*
X14821800Y-6691300D01*
X14781800Y-6651300D02*
X14861800Y-6651300D01*
X14821800Y-7373300D02*
X14821800Y-7453300D01*
X14781800Y-7413300D02*
X14861800Y-7413300D01*
X15075800Y-6611300D02*
X15075800Y-6691300D01*
X15035800Y-6651300D02*
X15115800Y-6651300D01*
X15075800Y-7373300D02*
X15075800Y-7453300D01*
X15035800Y-7413300D02*
X15115800Y-7413300D01*
X15199300Y-7681600D02*
X15199300Y-7761600D01*
X15159300Y-7721600D02*
X15239300Y-7721600D01*
X15329800Y-6611300D02*
X15329800Y-6691300D01*
X15289800Y-6651300D02*
X15369800Y-6651300D01*
X15329800Y-7373300D02*
X15329800Y-7453300D01*
X15289800Y-7413300D02*
X15369800Y-7413300D01*
X15583800Y-6611300D02*
X15583800Y-6691300D01*
X15543800Y-6651300D02*
X15623800Y-6651300D01*
X15583800Y-7373300D02*
X15583800Y-7453300D01*
X15543800Y-7413300D02*
X15623800Y-7413300D01*
X15699300Y-7681600D02*
X15699300Y-7761600D01*
X15659300Y-7721600D02*
X15739300Y-7721600D01*
X15837800Y-6611300D02*
X15837800Y-6691300D01*
X15797800Y-6651300D02*
X15877800Y-6651300D01*
X15837800Y-7373300D02*
X15837800Y-7453300D01*
X15797800Y-7413300D02*
X15877800Y-7413300D01*
X16091800Y-6611300D02*
X16091800Y-6691300D01*
X16051800Y-6651300D02*
X16131800Y-6651300D01*
X16091800Y-7373300D02*
X16091800Y-7453300D01*
X16051800Y-7413300D02*
X16131800Y-7413300D01*
X16345800Y-6611300D02*
X16345800Y-6691300D01*
X16305800Y-6651300D02*
X16385800Y-6651300D01*
X16345800Y-7373300D02*
X16345800Y-7453300D01*
X16305800Y-7413300D02*
X16385800Y-7413300D01*
X16674500Y-6567000D02*
X16674500Y-6647000D01*
X16634500Y-6607000D02*
X16714500Y-6607000D01*
X16674500Y-7067000D02*
X16674500Y-7147000D01*
X16634500Y-7107000D02*
X16714500Y-7107000D01*
D15*
X11925120Y-9150920D02*
X11925120Y-9087280D01*
X11861480Y-9087280D01*
X11861480Y-9150920D01*
X11925120Y-9150920D01*
X11925120Y-9404920D02*
X11925120Y-9341280D01*
X11861480Y-9341280D01*
X11861480Y-9404920D01*
X11925120Y-9404920D01*
X12941120Y-9150920D02*
X12941120Y-9087280D01*
X12877480Y-9087280D01*
X12877480Y-9150920D01*
X12941120Y-9150920D01*
X12941120Y-9404920D02*
X12941120Y-9341280D01*
X12877480Y-9341280D01*
X12877480Y-9404920D01*
X12941120Y-9404920D01*
X13931720Y-9150920D02*
X13931720Y-9087280D01*
X13868080Y-9087280D01*
X13868080Y-9150920D01*
X13931720Y-9150920D01*
X13931720Y-9404920D02*
X13931720Y-9341280D01*
X13868080Y-9341280D01*
X13868080Y-9404920D01*
X13931720Y-9404920D01*
X14973120Y-9150420D02*
X14973120Y-9086780D01*
X14909480Y-9086780D01*
X14909480Y-9150420D01*
X14973120Y-9150420D01*
X14973120Y-9404420D02*
X14973120Y-9340780D01*
X14909480Y-9340780D01*
X14909480Y-9404420D01*
X14973120Y-9404420D01*
X15989120Y-9150420D02*
X15989120Y-9086780D01*
X15925480Y-9086780D01*
X15925480Y-9150420D01*
X15989120Y-9150420D01*
X15989120Y-9404420D02*
X15989120Y-9340780D01*
X15925480Y-9340780D01*
X15925480Y-9404420D01*
X15989120Y-9404420D01*
X17005120Y-9150920D02*
X17005120Y-9087280D01*
X16941480Y-9087280D01*
X16941480Y-9150920D01*
X17005120Y-9150920D01*
X17005120Y-9404920D02*
X17005120Y-9341280D01*
X16941480Y-9341280D01*
X16941480Y-9404920D01*
X17005120Y-9404920D01*
X18046520Y-9150920D02*
X18046520Y-9087280D01*
X17982880Y-9087280D01*
X17982880Y-9150920D01*
X18046520Y-9150920D01*
X18046520Y-9404920D02*
X18046520Y-9341280D01*
X17982880Y-9341280D01*
X17982880Y-9404920D01*
X18046520Y-9404920D01*
X19037120Y-9150920D02*
X19037120Y-9087280D01*
X18973480Y-9087280D01*
X18973480Y-9150920D01*
X19037120Y-9150920D01*
X19037120Y-9404920D02*
X19037120Y-9341280D01*
X18973480Y-9341280D01*
X18973480Y-9404920D01*
X19037120Y-9404920D01*
D10*
X11797700Y-6750600D02*
X11847700Y-6700600D01*
X11797700Y-6650600D01*
X11747700Y-6700600D01*
X11797700Y-6750600D01*
X11797700Y-7004600D02*
X11847700Y-6954600D01*
X11797700Y-6904600D01*
X11747700Y-6954600D01*
X11797700Y-7004600D01*
X11797700Y-7258600D02*
X11847700Y-7208600D01*
X11797700Y-7158600D01*
X11747700Y-7208600D01*
X11797700Y-7258600D01*
X11797700Y-7512600D02*
X11847700Y-7462600D01*
X11797700Y-7412600D01*
X11747700Y-7462600D01*
X11797700Y-7512600D01*
X12147300Y-10743400D02*
X12197300Y-10693400D01*
X12147300Y-10643400D01*
X12097300Y-10693400D01*
X12147300Y-10743400D01*
X13163300Y-10743400D02*
X13213300Y-10693400D01*
X13163300Y-10643400D01*
X13113300Y-10693400D01*
X13163300Y-10743400D01*
X14179300Y-10743400D02*
X14229300Y-10693400D01*
X14179300Y-10643400D01*
X14129300Y-10693400D01*
X14179300Y-10743400D01*
X15195300Y-10743400D02*
X15245300Y-10693400D01*
X15195300Y-10643400D01*
X15145300Y-10693400D01*
X15195300Y-10743400D01*
X16211300Y-10743400D02*
X16261300Y-10693400D01*
X16211300Y-10643400D01*
X16161300Y-10693400D01*
X16211300Y-10743400D01*
X17227300Y-10743400D02*
X17277300Y-10693400D01*
X17227300Y-10643400D01*
X17177300Y-10693400D01*
X17227300Y-10743400D01*
X18243300Y-10743400D02*
X18293300Y-10693400D01*
X18243300Y-10643400D01*
X18193300Y-10693400D01*
X18243300Y-10743400D01*
X19062100Y-6750600D02*
X19112100Y-6700600D01*
X19062100Y-6650600D01*
X19012100Y-6700600D01*
X19062100Y-6750600D01*
X19062100Y-7004600D02*
X19112100Y-6954600D01*
X19062100Y-6904600D01*
X19012100Y-6954600D01*
X19062100Y-7004600D01*
X19062100Y-7258600D02*
X19112100Y-7208600D01*
X19062100Y-7158600D01*
X19012100Y-7208600D01*
X19062100Y-7258600D01*
X19062100Y-7512600D02*
X19112100Y-7462600D01*
X19062100Y-7412600D01*
X19012100Y-7462600D01*
X19062100Y-7512600D01*
X19259300Y-10743400D02*
X19309300Y-10693400D01*
X19259300Y-10643400D01*
X19209300Y-10693400D01*
X19259300Y-10743400D01*
D16*
X11584300Y-9927200D02*
X11694300Y-10037200D01*
X11694300Y-9927200D02*
X11584300Y-10037200D01*
X11694300Y-9982200D02*
G75*
G03*
X11694300Y-9982200I-55000J0D01*
G01*
X12346300Y-9597000D02*
X12456300Y-9707000D01*
X12456300Y-9597000D02*
X12346300Y-9707000D01*
X12456300Y-9652000D02*
G75*
G03*
X12456300Y-9652000I-55000J0D01*
G01*
X12600300Y-9927200D02*
X12710300Y-10037200D01*
X12710300Y-9927200D02*
X12600300Y-10037200D01*
X12710300Y-9982200D02*
G75*
G03*
X12710300Y-9982200I-55000J0D01*
G01*
X12848200Y-8098400D02*
X12958200Y-8208400D01*
X12958200Y-8098400D02*
X12848200Y-8208400D01*
X12958200Y-8153400D02*
G75*
G03*
X12958200Y-8153400I-55000J0D01*
G01*
X12848200Y-8352400D02*
X12958200Y-8462400D01*
X12958200Y-8352400D02*
X12848200Y-8462400D01*
X12958200Y-8407400D02*
G75*
G03*
X12958200Y-8407400I-55000J0D01*
G01*
X12848200Y-8606400D02*
X12958200Y-8716400D01*
X12958200Y-8606400D02*
X12848200Y-8716400D01*
X12958200Y-8661400D02*
G75*
G03*
X12958200Y-8661400I-55000J0D01*
G01*
X13362300Y-9597000D02*
X13472300Y-9707000D01*
X13472300Y-9597000D02*
X13362300Y-9707000D01*
X13472300Y-9652000D02*
G75*
G03*
X13472300Y-9652000I-55000J0D01*
G01*
X13362300Y-9927200D02*
X13472300Y-10037200D01*
X13472300Y-9927200D02*
X13362300Y-10037200D01*
X13472300Y-9982200D02*
G75*
G03*
X13472300Y-9982200I-55000J0D01*
G01*
X13534000Y-8098400D02*
X13644000Y-8208400D01*
X13644000Y-8098400D02*
X13534000Y-8208400D01*
X13644000Y-8153400D02*
G75*
G03*
X13644000Y-8153400I-55000J0D01*
G01*
X13534000Y-8352400D02*
X13644000Y-8462400D01*
X13644000Y-8352400D02*
X13534000Y-8462400D01*
X13644000Y-8407400D02*
G75*
G03*
X13644000Y-8407400I-55000J0D01*
G01*
X13534000Y-8606400D02*
X13644000Y-8716400D01*
X13644000Y-8606400D02*
X13534000Y-8716400D01*
X13644000Y-8661400D02*
G75*
G03*
X13644000Y-8661400I-55000J0D01*
G01*
X14219800Y-8098400D02*
X14329800Y-8208400D01*
X14329800Y-8098400D02*
X14219800Y-8208400D01*
X14329800Y-8153400D02*
G75*
G03*
X14329800Y-8153400I-55000J0D01*
G01*
X14219800Y-8352400D02*
X14329800Y-8462400D01*
X14329800Y-8352400D02*
X14219800Y-8462400D01*
X14329800Y-8407400D02*
G75*
G03*
X14329800Y-8407400I-55000J0D01*
G01*
X14219800Y-8606400D02*
X14329800Y-8716400D01*
X14329800Y-8606400D02*
X14219800Y-8716400D01*
X14329800Y-8661400D02*
G75*
G03*
X14329800Y-8661400I-55000J0D01*
G01*
X14378300Y-9597000D02*
X14488300Y-9707000D01*
X14488300Y-9597000D02*
X14378300Y-9707000D01*
X14488300Y-9652000D02*
G75*
G03*
X14488300Y-9652000I-55000J0D01*
G01*
X14378300Y-9927200D02*
X14488300Y-10037200D01*
X14488300Y-9927200D02*
X14378300Y-10037200D01*
X14488300Y-9982200D02*
G75*
G03*
X14488300Y-9982200I-55000J0D01*
G01*
X14905600Y-8098400D02*
X15015600Y-8208400D01*
X15015600Y-8098400D02*
X14905600Y-8208400D01*
X15015600Y-8153400D02*
G75*
G03*
X15015600Y-8153400I-55000J0D01*
G01*
X14905600Y-8352400D02*
X15015600Y-8462400D01*
X15015600Y-8352400D02*
X14905600Y-8462400D01*
X15015600Y-8407400D02*
G75*
G03*
X15015600Y-8407400I-55000J0D01*
G01*
X14905600Y-8606400D02*
X15015600Y-8716400D01*
X15015600Y-8606400D02*
X14905600Y-8716400D01*
X15015600Y-8661400D02*
G75*
G03*
X15015600Y-8661400I-55000J0D01*
G01*
X15394300Y-9597000D02*
X15504300Y-9707000D01*
X15504300Y-9597000D02*
X15394300Y-9707000D01*
X15504300Y-9652000D02*
G75*
G03*
X15504300Y-9652000I-55000J0D01*
G01*
X15394300Y-9927200D02*
X15504300Y-10037200D01*
X15504300Y-9927200D02*
X15394300Y-10037200D01*
X15504300Y-9982200D02*
G75*
G03*
X15504300Y-9982200I-55000J0D01*
G01*
X15591400Y-8098400D02*
X15701400Y-8208400D01*
X15701400Y-8098400D02*
X15591400Y-8208400D01*
X15701400Y-8153400D02*
G75*
G03*
X15701400Y-8153400I-55000J0D01*
G01*
X15591400Y-8352400D02*
X15701400Y-8462400D01*
X15701400Y-8352400D02*
X15591400Y-8462400D01*
X15701400Y-8407400D02*
G75*
G03*
X15701400Y-8407400I-55000J0D01*
G01*
X15591400Y-8606400D02*
X15701400Y-8716400D01*
X15701400Y-8606400D02*
X15591400Y-8716400D01*
X15701400Y-8661400D02*
G75*
G03*
X15701400Y-8661400I-55000J0D01*
G01*
X16277200Y-8098400D02*
X16387200Y-8208400D01*
X16387200Y-8098400D02*
X16277200Y-8208400D01*
X16387200Y-8153400D02*
G75*
G03*
X16387200Y-8153400I-55000J0D01*
G01*
X16277200Y-8352400D02*
X16387200Y-8462400D01*
X16387200Y-8352400D02*
X16277200Y-8462400D01*
X16387200Y-8407400D02*
G75*
G03*
X16387200Y-8407400I-55000J0D01*
G01*
X16277200Y-8606400D02*
X16387200Y-8716400D01*
X16387200Y-8606400D02*
X16277200Y-8716400D01*
X16387200Y-8661400D02*
G75*
G03*
X16387200Y-8661400I-55000J0D01*
G01*
X16308700Y-9597000D02*
X16418700Y-9707000D01*
X16418700Y-9597000D02*
X16308700Y-9707000D01*
X16418700Y-9652000D02*
G75*
G03*
X16418700Y-9652000I-55000J0D01*
G01*
X16410300Y-9927200D02*
X16520300Y-10037200D01*
X16520300Y-9927200D02*
X16410300Y-10037200D01*
X16520300Y-9982200D02*
G75*
G03*
X16520300Y-9982200I-55000J0D01*
G01*
X16949700Y-6573400D02*
X17059700Y-6683400D01*
X17059700Y-6573400D02*
X16949700Y-6683400D01*
X17059700Y-6628400D02*
G75*
G03*
X17059700Y-6628400I-55000J0D01*
G01*
X16949700Y-7335400D02*
X17059700Y-7445400D01*
X17059700Y-7335400D02*
X16949700Y-7445400D01*
X17059700Y-7390400D02*
G75*
G03*
X17059700Y-7390400I-55000J0D01*
G01*
X16963000Y-8098400D02*
X17073000Y-8208400D01*
X17073000Y-8098400D02*
X16963000Y-8208400D01*
X17073000Y-8153400D02*
G75*
G03*
X17073000Y-8153400I-55000J0D01*
G01*
X16963000Y-8352400D02*
X17073000Y-8462400D01*
X17073000Y-8352400D02*
X16963000Y-8462400D01*
X17073000Y-8407400D02*
G75*
G03*
X17073000Y-8407400I-55000J0D01*
G01*
X16963000Y-8606400D02*
X17073000Y-8716400D01*
X17073000Y-8606400D02*
X16963000Y-8716400D01*
X17073000Y-8661400D02*
G75*
G03*
X17073000Y-8661400I-55000J0D01*
G01*
X17324700Y-9597000D02*
X17434700Y-9707000D01*
X17434700Y-9597000D02*
X17324700Y-9707000D01*
X17434700Y-9652000D02*
G75*
G03*
X17434700Y-9652000I-55000J0D01*
G01*
X17426300Y-9927200D02*
X17536300Y-10037200D01*
X17536300Y-9927200D02*
X17426300Y-10037200D01*
X17536300Y-9982200D02*
G75*
G03*
X17536300Y-9982200I-55000J0D01*
G01*
X17648800Y-8098400D02*
X17758800Y-8208400D01*
X17758800Y-8098400D02*
X17648800Y-8208400D01*
X17758800Y-8153400D02*
G75*
G03*
X17758800Y-8153400I-55000J0D01*
G01*
X17648800Y-8352400D02*
X17758800Y-8462400D01*
X17758800Y-8352400D02*
X17648800Y-8462400D01*
X17758800Y-8407400D02*
G75*
G03*
X17758800Y-8407400I-55000J0D01*
G01*
X17648800Y-8606400D02*
X17758800Y-8716400D01*
X17758800Y-8606400D02*
X17648800Y-8716400D01*
X17758800Y-8661400D02*
G75*
G03*
X17758800Y-8661400I-55000J0D01*
G01*
X18188300Y-9597000D02*
X18298300Y-9707000D01*
X18298300Y-9597000D02*
X18188300Y-9707000D01*
X18298300Y-9652000D02*
G75*
G03*
X18298300Y-9652000I-55000J0D01*
G01*
X18442300Y-9927200D02*
X18552300Y-10037200D01*
X18552300Y-9927200D02*
X18442300Y-10037200D01*
X18552300Y-9982200D02*
G75*
G03*
X18552300Y-9982200I-55000J0D01*
G01*
X19204300Y-9597000D02*
X19314300Y-9707000D01*
X19314300Y-9597000D02*
X19204300Y-9707000D01*
X19314300Y-9652000D02*
G75*
G03*
X19314300Y-9652000I-55000J0D01*
G01*
D17*
X11579800Y-10633900D02*
X11698800Y-10752900D01*
X11698800Y-10633900D02*
X11579800Y-10752900D01*
X11639300Y-10633900D02*
X11639300Y-10752900D01*
X11579800Y-10693400D02*
X11698800Y-10693400D01*
X11738200Y-7657100D02*
X11857200Y-7776100D01*
X11857200Y-7657100D02*
X11738200Y-7776100D01*
X11797700Y-7657100D02*
X11797700Y-7776100D01*
X11738200Y-7716600D02*
X11857200Y-7716600D01*
X11738200Y-7911100D02*
X11857200Y-8030100D01*
X11857200Y-7911100D02*
X11738200Y-8030100D01*
X11797700Y-7911100D02*
X11797700Y-8030100D01*
X11738200Y-7970600D02*
X11857200Y-7970600D01*
X11738200Y-8165100D02*
X11857200Y-8284100D01*
X11857200Y-8165100D02*
X11738200Y-8284100D01*
X11797700Y-8165100D02*
X11797700Y-8284100D01*
X11738200Y-8224600D02*
X11857200Y-8224600D01*
X11738200Y-8419100D02*
X11857200Y-8538100D01*
X11857200Y-8419100D02*
X11738200Y-8538100D01*
X11797700Y-8419100D02*
X11797700Y-8538100D01*
X11738200Y-8478600D02*
X11857200Y-8478600D01*
X11738200Y-8673100D02*
X11857200Y-8792100D01*
X11857200Y-8673100D02*
X11738200Y-8792100D01*
X11797700Y-8673100D02*
X11797700Y-8792100D01*
X11738200Y-8732600D02*
X11857200Y-8732600D01*
X11833800Y-10633900D02*
X11952800Y-10752900D01*
X11952800Y-10633900D02*
X11833800Y-10752900D01*
X11893300Y-10633900D02*
X11893300Y-10752900D01*
X11833800Y-10693400D02*
X11952800Y-10693400D01*
X12595800Y-10633900D02*
X12714800Y-10752900D01*
X12714800Y-10633900D02*
X12595800Y-10752900D01*
X12655300Y-10633900D02*
X12655300Y-10752900D01*
X12595800Y-10693400D02*
X12714800Y-10693400D01*
X12849800Y-10633900D02*
X12968800Y-10752900D01*
X12968800Y-10633900D02*
X12849800Y-10752900D01*
X12909300Y-10633900D02*
X12909300Y-10752900D01*
X12849800Y-10693400D02*
X12968800Y-10693400D01*
X13611800Y-10631900D02*
X13730800Y-10750900D01*
X13730800Y-10631900D02*
X13611800Y-10750900D01*
X13671300Y-10631900D02*
X13671300Y-10750900D01*
X13611800Y-10691400D02*
X13730800Y-10691400D01*
X13865800Y-10631900D02*
X13984800Y-10750900D01*
X13984800Y-10631900D02*
X13865800Y-10750900D01*
X13925300Y-10631900D02*
X13925300Y-10750900D01*
X13865800Y-10691400D02*
X13984800Y-10691400D01*
X14627800Y-10633900D02*
X14746800Y-10752900D01*
X14746800Y-10633900D02*
X14627800Y-10752900D01*
X14687300Y-10633900D02*
X14687300Y-10752900D01*
X14627800Y-10693400D02*
X14746800Y-10693400D01*
X14881800Y-10633900D02*
X15000800Y-10752900D01*
X15000800Y-10633900D02*
X14881800Y-10752900D01*
X14941300Y-10633900D02*
X14941300Y-10752900D01*
X14881800Y-10693400D02*
X15000800Y-10693400D01*
X15643800Y-10633900D02*
X15762800Y-10752900D01*
X15762800Y-10633900D02*
X15643800Y-10752900D01*
X15703300Y-10633900D02*
X15703300Y-10752900D01*
X15643800Y-10693400D02*
X15762800Y-10693400D01*
X15897800Y-10633900D02*
X16016800Y-10752900D01*
X16016800Y-10633900D02*
X15897800Y-10752900D01*
X15957300Y-10633900D02*
X15957300Y-10752900D01*
X15897800Y-10693400D02*
X16016800Y-10693400D01*
X16659800Y-10633900D02*
X16778800Y-10752900D01*
X16778800Y-10633900D02*
X16659800Y-10752900D01*
X16719300Y-10633900D02*
X16719300Y-10752900D01*
X16659800Y-10693400D02*
X16778800Y-10693400D01*
X16913800Y-10633900D02*
X17032800Y-10752900D01*
X17032800Y-10633900D02*
X16913800Y-10752900D01*
X16973300Y-10633900D02*
X16973300Y-10752900D01*
X16913800Y-10693400D02*
X17032800Y-10693400D01*
X17675800Y-10633900D02*
X17794800Y-10752900D01*
X17794800Y-10633900D02*
X17675800Y-10752900D01*
X17735300Y-10633900D02*
X17735300Y-10752900D01*
X17675800Y-10693400D02*
X17794800Y-10693400D01*
X17929800Y-10633900D02*
X18048800Y-10752900D01*
X18048800Y-10633900D02*
X17929800Y-10752900D01*
X17989300Y-10633900D02*
X17989300Y-10752900D01*
X17929800Y-10693400D02*
X18048800Y-10693400D01*
X18691800Y-10633900D02*
X18810800Y-10752900D01*
X18810800Y-10633900D02*
X18691800Y-10752900D01*
X18751300Y-10633900D02*
X18751300Y-10752900D01*
X18691800Y-10693400D02*
X18810800Y-10693400D01*
X18945800Y-10633900D02*
X19064800Y-10752900D01*
X19064800Y-10633900D02*
X18945800Y-10752900D01*
X19005300Y-10633900D02*
X19005300Y-10752900D01*
X18945800Y-10693400D02*
X19064800Y-10693400D01*
X19002600Y-7657100D02*
X19121600Y-7776100D01*
X19121600Y-7657100D02*
X19002600Y-7776100D01*
X19062100Y-7657100D02*
X19062100Y-7776100D01*
X19002600Y-7716600D02*
X19121600Y-7716600D01*
X19002600Y-7911100D02*
X19121600Y-8030100D01*
X19121600Y-7911100D02*
X19002600Y-8030100D01*
X19062100Y-7911100D02*
X19062100Y-8030100D01*
X19002600Y-7970600D02*
X19121600Y-7970600D01*
X19002600Y-8165100D02*
X19121600Y-8284100D01*
X19121600Y-8165100D02*
X19002600Y-8284100D01*
X19062100Y-8165100D02*
X19062100Y-8284100D01*
X19002600Y-8224600D02*
X19121600Y-8224600D01*
X19002600Y-8419100D02*
X19121600Y-8538100D01*
X19121600Y-8419100D02*
X19002600Y-8538100D01*
X19062100Y-8419100D02*
X19062100Y-8538100D01*
X19002600Y-8478600D02*
X19121600Y-8478600D01*
X19002600Y-8673100D02*
X19121600Y-8792100D01*
X19121600Y-8673100D02*
X19002600Y-8792100D01*
X19062100Y-8673100D02*
X19062100Y-8792100D01*
X19002600Y-8732600D02*
X19121600Y-8732600D01*
D11*
X11596419Y-12650624D02*
X11596419Y-12450624D01*
X11596419Y-12450624D02*
X11644038Y-12450624D01*
X11644038Y-12450624D02*
X11672609Y-12460148D01*
X11672609Y-12460148D02*
X11691657Y-12479195D01*
X11691657Y-12479195D02*
X11701181Y-12498243D01*
X11701181Y-12498243D02*
X11710705Y-12536338D01*
X11710705Y-12536338D02*
X11710705Y-12564909D01*
X11710705Y-12564909D02*
X11701181Y-12603005D01*
X11701181Y-12603005D02*
X11691657Y-12622052D01*
X11691657Y-12622052D02*
X11672609Y-12641100D01*
X11672609Y-12641100D02*
X11644038Y-12650624D01*
X11644038Y-12650624D02*
X11596419Y-12650624D01*
X11796419Y-12650624D02*
X11796419Y-12517290D01*
X11796419Y-12555386D02*
X11805943Y-12536338D01*
X11805943Y-12536338D02*
X11815467Y-12526814D01*
X11815467Y-12526814D02*
X11834514Y-12517290D01*
X11834514Y-12517290D02*
X11853562Y-12517290D01*
X11920228Y-12650624D02*
X11920228Y-12517290D01*
X11920228Y-12450624D02*
X11910705Y-12460148D01*
X11910705Y-12460148D02*
X11920228Y-12469671D01*
X11920228Y-12469671D02*
X11929752Y-12460148D01*
X11929752Y-12460148D02*
X11920228Y-12450624D01*
X11920228Y-12450624D02*
X11920228Y-12469671D01*
X12044038Y-12650624D02*
X12024990Y-12641100D01*
X12024990Y-12641100D02*
X12015467Y-12622052D01*
X12015467Y-12622052D02*
X12015467Y-12450624D01*
X12148800Y-12650624D02*
X12129752Y-12641100D01*
X12129752Y-12641100D02*
X12120228Y-12622052D01*
X12120228Y-12622052D02*
X12120228Y-12450624D01*
X12377371Y-12650624D02*
X12377371Y-12450624D01*
X12377371Y-12450624D02*
X12444038Y-12593481D01*
X12444038Y-12593481D02*
X12510705Y-12450624D01*
X12510705Y-12450624D02*
X12510705Y-12650624D01*
X12691657Y-12650624D02*
X12691657Y-12545862D01*
X12691657Y-12545862D02*
X12682133Y-12526814D01*
X12682133Y-12526814D02*
X12663086Y-12517290D01*
X12663086Y-12517290D02*
X12624990Y-12517290D01*
X12624990Y-12517290D02*
X12605943Y-12526814D01*
X12691657Y-12641100D02*
X12672609Y-12650624D01*
X12672609Y-12650624D02*
X12624990Y-12650624D01*
X12624990Y-12650624D02*
X12605943Y-12641100D01*
X12605943Y-12641100D02*
X12596419Y-12622052D01*
X12596419Y-12622052D02*
X12596419Y-12603005D01*
X12596419Y-12603005D02*
X12605943Y-12583957D01*
X12605943Y-12583957D02*
X12624990Y-12574433D01*
X12624990Y-12574433D02*
X12672609Y-12574433D01*
X12672609Y-12574433D02*
X12691657Y-12564909D01*
X12786895Y-12517290D02*
X12786895Y-12717290D01*
X12786895Y-12526814D02*
X12805943Y-12517290D01*
X12805943Y-12517290D02*
X12844038Y-12517290D01*
X12844038Y-12517290D02*
X12863086Y-12526814D01*
X12863086Y-12526814D02*
X12872609Y-12536338D01*
X12872609Y-12536338D02*
X12882133Y-12555386D01*
X12882133Y-12555386D02*
X12882133Y-12612528D01*
X12882133Y-12612528D02*
X12872609Y-12631576D01*
X12872609Y-12631576D02*
X12863086Y-12641100D01*
X12863086Y-12641100D02*
X12844038Y-12650624D01*
X12844038Y-12650624D02*
X12805943Y-12650624D01*
X12805943Y-12650624D02*
X12786895Y-12641100D01*
X12967848Y-12631576D02*
X12977371Y-12641100D01*
X12977371Y-12641100D02*
X12967848Y-12650624D01*
X12967848Y-12650624D02*
X12958324Y-12641100D01*
X12958324Y-12641100D02*
X12967848Y-12631576D01*
X12967848Y-12631576D02*
X12967848Y-12650624D01*
X12967848Y-12526814D02*
X12977371Y-12536338D01*
X12977371Y-12536338D02*
X12967848Y-12545862D01*
X12967848Y-12545862D02*
X12958324Y-12536338D01*
X12958324Y-12536338D02*
X12967848Y-12526814D01*
X12967848Y-12526814D02*
X12967848Y-12545862D01*
D12*
X11308800Y-12958100D02*
X11348800Y-12998100D01*
X11348800Y-12958100D02*
X11308800Y-12998100D01*
D11*
X11634514Y-12870624D02*
X11653562Y-12870624D01*
X11653562Y-12870624D02*
X11672609Y-12880148D01*
X11672609Y-12880148D02*
X11682133Y-12889671D01*
X11682133Y-12889671D02*
X11691657Y-12908719D01*
X11691657Y-12908719D02*
X11701181Y-12946814D01*
X11701181Y-12946814D02*
X11701181Y-12994433D01*
X11701181Y-12994433D02*
X11691657Y-13032528D01*
X11691657Y-13032528D02*
X11682133Y-13051576D01*
X11682133Y-13051576D02*
X11672609Y-13061100D01*
X11672609Y-13061100D02*
X11653562Y-13070624D01*
X11653562Y-13070624D02*
X11634514Y-13070624D01*
X11634514Y-13070624D02*
X11615467Y-13061100D01*
X11615467Y-13061100D02*
X11605943Y-13051576D01*
X11605943Y-13051576D02*
X11596419Y-13032528D01*
X11596419Y-13032528D02*
X11586895Y-12994433D01*
X11586895Y-12994433D02*
X11586895Y-12946814D01*
X11586895Y-12946814D02*
X11596419Y-12908719D01*
X11596419Y-12908719D02*
X11605943Y-12889671D01*
X11605943Y-12889671D02*
X11615467Y-12880148D01*
X11615467Y-12880148D02*
X11634514Y-12870624D01*
X11786895Y-13051576D02*
X11796419Y-13061100D01*
X11796419Y-13061100D02*
X11786895Y-13070624D01*
X11786895Y-13070624D02*
X11777371Y-13061100D01*
X11777371Y-13061100D02*
X11786895Y-13051576D01*
X11786895Y-13051576D02*
X11786895Y-13070624D01*
X11967848Y-12937290D02*
X11967848Y-13070624D01*
X11920228Y-12861100D02*
X11872609Y-13003957D01*
X11872609Y-13003957D02*
X11996419Y-13003957D01*
X12110705Y-12870624D02*
X12129752Y-12870624D01*
X12129752Y-12870624D02*
X12148800Y-12880148D01*
X12148800Y-12880148D02*
X12158324Y-12889671D01*
X12158324Y-12889671D02*
X12167848Y-12908719D01*
X12167848Y-12908719D02*
X12177371Y-12946814D01*
X12177371Y-12946814D02*
X12177371Y-12994433D01*
X12177371Y-12994433D02*
X12167848Y-13032528D01*
X12167848Y-13032528D02*
X12158324Y-13051576D01*
X12158324Y-13051576D02*
X12148800Y-13061100D01*
X12148800Y-13061100D02*
X12129752Y-13070624D01*
X12129752Y-13070624D02*
X12110705Y-13070624D01*
X12110705Y-13070624D02*
X12091657Y-13061100D01*
X12091657Y-13061100D02*
X12082133Y-13051576D01*
X12082133Y-13051576D02*
X12072609Y-13032528D01*
X12072609Y-13032528D02*
X12063086Y-12994433D01*
X12063086Y-12994433D02*
X12063086Y-12946814D01*
X12063086Y-12946814D02*
X12072609Y-12908719D01*
X12072609Y-12908719D02*
X12082133Y-12889671D01*
X12082133Y-12889671D02*
X12091657Y-12880148D01*
X12091657Y-12880148D02*
X12110705Y-12870624D01*
X12301181Y-12870624D02*
X12320229Y-12870624D01*
X12320229Y-12870624D02*
X12339276Y-12880148D01*
X12339276Y-12880148D02*
X12348800Y-12889671D01*
X12348800Y-12889671D02*
X12358324Y-12908719D01*
X12358324Y-12908719D02*
X12367848Y-12946814D01*
X12367848Y-12946814D02*
X12367848Y-12994433D01*
X12367848Y-12994433D02*
X12358324Y-13032528D01*
X12358324Y-13032528D02*
X12348800Y-13051576D01*
X12348800Y-13051576D02*
X12339276Y-13061100D01*
X12339276Y-13061100D02*
X12320229Y-13070624D01*
X12320229Y-13070624D02*
X12301181Y-13070624D01*
X12301181Y-13070624D02*
X12282133Y-13061100D01*
X12282133Y-13061100D02*
X12272609Y-13051576D01*
X12272609Y-13051576D02*
X12263086Y-13032528D01*
X12263086Y-13032528D02*
X12253562Y-12994433D01*
X12253562Y-12994433D02*
X12253562Y-12946814D01*
X12253562Y-12946814D02*
X12263086Y-12908719D01*
X12263086Y-12908719D02*
X12272609Y-12889671D01*
X12272609Y-12889671D02*
X12282133Y-12880148D01*
X12282133Y-12880148D02*
X12301181Y-12870624D01*
X12453562Y-13070624D02*
X12453562Y-12937290D01*
X12453562Y-12956338D02*
X12463086Y-12946814D01*
X12463086Y-12946814D02*
X12482133Y-12937290D01*
X12482133Y-12937290D02*
X12510705Y-12937290D01*
X12510705Y-12937290D02*
X12529752Y-12946814D01*
X12529752Y-12946814D02*
X12539276Y-12965862D01*
X12539276Y-12965862D02*
X12539276Y-13070624D01*
X12539276Y-12965862D02*
X12548800Y-12946814D01*
X12548800Y-12946814D02*
X12567848Y-12937290D01*
X12567848Y-12937290D02*
X12596419Y-12937290D01*
X12596419Y-12937290D02*
X12615467Y-12946814D01*
X12615467Y-12946814D02*
X12624990Y-12965862D01*
X12624990Y-12965862D02*
X12624990Y-13070624D01*
X12720229Y-13070624D02*
X12720229Y-12937290D01*
X12720229Y-12956338D02*
X12729752Y-12946814D01*
X12729752Y-12946814D02*
X12748800Y-12937290D01*
X12748800Y-12937290D02*
X12777371Y-12937290D01*
X12777371Y-12937290D02*
X12796419Y-12946814D01*
X12796419Y-12946814D02*
X12805943Y-12965862D01*
X12805943Y-12965862D02*
X12805943Y-13070624D01*
X12805943Y-12965862D02*
X12815467Y-12946814D01*
X12815467Y-12946814D02*
X12834514Y-12937290D01*
X12834514Y-12937290D02*
X12863086Y-12937290D01*
X12863086Y-12937290D02*
X12882133Y-12946814D01*
X12882133Y-12946814D02*
X12891657Y-12965862D01*
X12891657Y-12965862D02*
X12891657Y-13070624D01*
X13282133Y-12861100D02*
X13110705Y-13118243D01*
X13539276Y-12870624D02*
X13558324Y-12870624D01*
X13558324Y-12870624D02*
X13577372Y-12880148D01*
X13577372Y-12880148D02*
X13586895Y-12889671D01*
X13586895Y-12889671D02*
X13596419Y-12908719D01*
X13596419Y-12908719D02*
X13605943Y-12946814D01*
X13605943Y-12946814D02*
X13605943Y-12994433D01*
X13605943Y-12994433D02*
X13596419Y-13032528D01*
X13596419Y-13032528D02*
X13586895Y-13051576D01*
X13586895Y-13051576D02*
X13577372Y-13061100D01*
X13577372Y-13061100D02*
X13558324Y-13070624D01*
X13558324Y-13070624D02*
X13539276Y-13070624D01*
X13539276Y-13070624D02*
X13520229Y-13061100D01*
X13520229Y-13061100D02*
X13510705Y-13051576D01*
X13510705Y-13051576D02*
X13501181Y-13032528D01*
X13501181Y-13032528D02*
X13491657Y-12994433D01*
X13491657Y-12994433D02*
X13491657Y-12946814D01*
X13491657Y-12946814D02*
X13501181Y-12908719D01*
X13501181Y-12908719D02*
X13510705Y-12889671D01*
X13510705Y-12889671D02*
X13520229Y-12880148D01*
X13520229Y-12880148D02*
X13539276Y-12870624D01*
X13691657Y-13051576D02*
X13701181Y-13061100D01*
X13701181Y-13061100D02*
X13691657Y-13070624D01*
X13691657Y-13070624D02*
X13682133Y-13061100D01*
X13682133Y-13061100D02*
X13691657Y-13051576D01*
X13691657Y-13051576D02*
X13691657Y-13070624D01*
X13824991Y-12870624D02*
X13844038Y-12870624D01*
X13844038Y-12870624D02*
X13863086Y-12880148D01*
X13863086Y-12880148D02*
X13872610Y-12889671D01*
X13872610Y-12889671D02*
X13882133Y-12908719D01*
X13882133Y-12908719D02*
X13891657Y-12946814D01*
X13891657Y-12946814D02*
X13891657Y-12994433D01*
X13891657Y-12994433D02*
X13882133Y-13032528D01*
X13882133Y-13032528D02*
X13872610Y-13051576D01*
X13872610Y-13051576D02*
X13863086Y-13061100D01*
X13863086Y-13061100D02*
X13844038Y-13070624D01*
X13844038Y-13070624D02*
X13824991Y-13070624D01*
X13824991Y-13070624D02*
X13805943Y-13061100D01*
X13805943Y-13061100D02*
X13796419Y-13051576D01*
X13796419Y-13051576D02*
X13786895Y-13032528D01*
X13786895Y-13032528D02*
X13777372Y-12994433D01*
X13777372Y-12994433D02*
X13777372Y-12946814D01*
X13777372Y-12946814D02*
X13786895Y-12908719D01*
X13786895Y-12908719D02*
X13796419Y-12889671D01*
X13796419Y-12889671D02*
X13805943Y-12880148D01*
X13805943Y-12880148D02*
X13824991Y-12870624D01*
X14082133Y-13070624D02*
X13967848Y-13070624D01*
X14024991Y-13070624D02*
X14024991Y-12870624D01*
X14024991Y-12870624D02*
X14005943Y-12899195D01*
X14005943Y-12899195D02*
X13986895Y-12918243D01*
X13986895Y-12918243D02*
X13967848Y-12927767D01*
X14263086Y-12870624D02*
X14167848Y-12870624D01*
X14167848Y-12870624D02*
X14158324Y-12965862D01*
X14158324Y-12965862D02*
X14167848Y-12956338D01*
X14167848Y-12956338D02*
X14186895Y-12946814D01*
X14186895Y-12946814D02*
X14234514Y-12946814D01*
X14234514Y-12946814D02*
X14253562Y-12956338D01*
X14253562Y-12956338D02*
X14263086Y-12965862D01*
X14263086Y-12965862D02*
X14272610Y-12984909D01*
X14272610Y-12984909D02*
X14272610Y-13032528D01*
X14272610Y-13032528D02*
X14263086Y-13051576D01*
X14263086Y-13051576D02*
X14253562Y-13061100D01*
X14253562Y-13061100D02*
X14234514Y-13070624D01*
X14234514Y-13070624D02*
X14186895Y-13070624D01*
X14186895Y-13070624D02*
X14167848Y-13061100D01*
X14167848Y-13061100D02*
X14158324Y-13051576D01*
X14339276Y-12870624D02*
X14472610Y-12870624D01*
X14472610Y-12870624D02*
X14386895Y-13070624D01*
X14539276Y-12870624D02*
X14539276Y-12908719D01*
X14615467Y-12870624D02*
X14615467Y-12908719D01*
X14910705Y-13146814D02*
X14901181Y-13137290D01*
X14901181Y-13137290D02*
X14882134Y-13108719D01*
X14882134Y-13108719D02*
X14872610Y-13089671D01*
X14872610Y-13089671D02*
X14863086Y-13061100D01*
X14863086Y-13061100D02*
X14853562Y-13013481D01*
X14853562Y-13013481D02*
X14853562Y-12975386D01*
X14853562Y-12975386D02*
X14863086Y-12927767D01*
X14863086Y-12927767D02*
X14872610Y-12899195D01*
X14872610Y-12899195D02*
X14882134Y-12880148D01*
X14882134Y-12880148D02*
X14901181Y-12851576D01*
X14901181Y-12851576D02*
X14910705Y-12842052D01*
X14967848Y-12870624D02*
X15091657Y-12870624D01*
X15091657Y-12870624D02*
X15024991Y-12946814D01*
X15024991Y-12946814D02*
X15053562Y-12946814D01*
X15053562Y-12946814D02*
X15072610Y-12956338D01*
X15072610Y-12956338D02*
X15082134Y-12965862D01*
X15082134Y-12965862D02*
X15091657Y-12984909D01*
X15091657Y-12984909D02*
X15091657Y-13032528D01*
X15091657Y-13032528D02*
X15082134Y-13051576D01*
X15082134Y-13051576D02*
X15072610Y-13061100D01*
X15072610Y-13061100D02*
X15053562Y-13070624D01*
X15053562Y-13070624D02*
X14996419Y-13070624D01*
X14996419Y-13070624D02*
X14977372Y-13061100D01*
X14977372Y-13061100D02*
X14967848Y-13051576D01*
X15329753Y-13070624D02*
X15329753Y-12870624D01*
X15415467Y-13070624D02*
X15415467Y-12965862D01*
X15415467Y-12965862D02*
X15405943Y-12946814D01*
X15405943Y-12946814D02*
X15386896Y-12937290D01*
X15386896Y-12937290D02*
X15358324Y-12937290D01*
X15358324Y-12937290D02*
X15339276Y-12946814D01*
X15339276Y-12946814D02*
X15329753Y-12956338D01*
X15539276Y-13070624D02*
X15520229Y-13061100D01*
X15520229Y-13061100D02*
X15510705Y-13051576D01*
X15510705Y-13051576D02*
X15501181Y-13032528D01*
X15501181Y-13032528D02*
X15501181Y-12975386D01*
X15501181Y-12975386D02*
X15510705Y-12956338D01*
X15510705Y-12956338D02*
X15520229Y-12946814D01*
X15520229Y-12946814D02*
X15539276Y-12937290D01*
X15539276Y-12937290D02*
X15567848Y-12937290D01*
X15567848Y-12937290D02*
X15586896Y-12946814D01*
X15586896Y-12946814D02*
X15596419Y-12956338D01*
X15596419Y-12956338D02*
X15605943Y-12975386D01*
X15605943Y-12975386D02*
X15605943Y-13032528D01*
X15605943Y-13032528D02*
X15596419Y-13051576D01*
X15596419Y-13051576D02*
X15586896Y-13061100D01*
X15586896Y-13061100D02*
X15567848Y-13070624D01*
X15567848Y-13070624D02*
X15539276Y-13070624D01*
X15720229Y-13070624D02*
X15701181Y-13061100D01*
X15701181Y-13061100D02*
X15691657Y-13042052D01*
X15691657Y-13042052D02*
X15691657Y-12870624D01*
X15872610Y-13061100D02*
X15853562Y-13070624D01*
X15853562Y-13070624D02*
X15815467Y-13070624D01*
X15815467Y-13070624D02*
X15796419Y-13061100D01*
X15796419Y-13061100D02*
X15786896Y-13042052D01*
X15786896Y-13042052D02*
X15786896Y-12965862D01*
X15786896Y-12965862D02*
X15796419Y-12946814D01*
X15796419Y-12946814D02*
X15815467Y-12937290D01*
X15815467Y-12937290D02*
X15853562Y-12937290D01*
X15853562Y-12937290D02*
X15872610Y-12946814D01*
X15872610Y-12946814D02*
X15882134Y-12965862D01*
X15882134Y-12965862D02*
X15882134Y-12984909D01*
X15882134Y-12984909D02*
X15786896Y-13003957D01*
X15958324Y-13061100D02*
X15977372Y-13070624D01*
X15977372Y-13070624D02*
X16015467Y-13070624D01*
X16015467Y-13070624D02*
X16034515Y-13061100D01*
X16034515Y-13061100D02*
X16044038Y-13042052D01*
X16044038Y-13042052D02*
X16044038Y-13032528D01*
X16044038Y-13032528D02*
X16034515Y-13013481D01*
X16034515Y-13013481D02*
X16015467Y-13003957D01*
X16015467Y-13003957D02*
X15986896Y-13003957D01*
X15986896Y-13003957D02*
X15967848Y-12994433D01*
X15967848Y-12994433D02*
X15958324Y-12975386D01*
X15958324Y-12975386D02*
X15958324Y-12965862D01*
X15958324Y-12965862D02*
X15967848Y-12946814D01*
X15967848Y-12946814D02*
X15986896Y-12937290D01*
X15986896Y-12937290D02*
X16015467Y-12937290D01*
X16015467Y-12937290D02*
X16034515Y-12946814D01*
X16110705Y-13146814D02*
X16120229Y-13137290D01*
X16120229Y-13137290D02*
X16139277Y-13108719D01*
X16139277Y-13108719D02*
X16148800Y-13089671D01*
X16148800Y-13089671D02*
X16158324Y-13061100D01*
X16158324Y-13061100D02*
X16167848Y-13013481D01*
X16167848Y-13013481D02*
X16167848Y-12975386D01*
X16167848Y-12975386D02*
X16158324Y-12927767D01*
X16158324Y-12927767D02*
X16148800Y-12899195D01*
X16148800Y-12899195D02*
X16139277Y-12880148D01*
X16139277Y-12880148D02*
X16120229Y-12851576D01*
X16120229Y-12851576D02*
X16110705Y-12842052D01*
D13*
X11348800Y-13242100D02*
G75*
G03*
X11348800Y-13242100I-35000J0D01*
G01*
D11*
X11634514Y-13134624D02*
X11653562Y-13134624D01*
X11653562Y-13134624D02*
X11672609Y-13144148D01*
X11672609Y-13144148D02*
X11682133Y-13153671D01*
X11682133Y-13153671D02*
X11691657Y-13172719D01*
X11691657Y-13172719D02*
X11701181Y-13210814D01*
X11701181Y-13210814D02*
X11701181Y-13258433D01*
X11701181Y-13258433D02*
X11691657Y-13296528D01*
X11691657Y-13296528D02*
X11682133Y-13315576D01*
X11682133Y-13315576D02*
X11672609Y-13325100D01*
X11672609Y-13325100D02*
X11653562Y-13334624D01*
X11653562Y-13334624D02*
X11634514Y-13334624D01*
X11634514Y-13334624D02*
X11615467Y-13325100D01*
X11615467Y-13325100D02*
X11605943Y-13315576D01*
X11605943Y-13315576D02*
X11596419Y-13296528D01*
X11596419Y-13296528D02*
X11586895Y-13258433D01*
X11586895Y-13258433D02*
X11586895Y-13210814D01*
X11586895Y-13210814D02*
X11596419Y-13172719D01*
X11596419Y-13172719D02*
X11605943Y-13153671D01*
X11605943Y-13153671D02*
X11615467Y-13144148D01*
X11615467Y-13144148D02*
X11634514Y-13134624D01*
X11786895Y-13315576D02*
X11796419Y-13325100D01*
X11796419Y-13325100D02*
X11786895Y-13334624D01*
X11786895Y-13334624D02*
X11777371Y-13325100D01*
X11777371Y-13325100D02*
X11786895Y-13315576D01*
X11786895Y-13315576D02*
X11786895Y-13334624D01*
X11863086Y-13134624D02*
X11996419Y-13134624D01*
X11996419Y-13134624D02*
X11910705Y-13334624D01*
X12110705Y-13134624D02*
X12129752Y-13134624D01*
X12129752Y-13134624D02*
X12148800Y-13144148D01*
X12148800Y-13144148D02*
X12158324Y-13153671D01*
X12158324Y-13153671D02*
X12167848Y-13172719D01*
X12167848Y-13172719D02*
X12177371Y-13210814D01*
X12177371Y-13210814D02*
X12177371Y-13258433D01*
X12177371Y-13258433D02*
X12167848Y-13296528D01*
X12167848Y-13296528D02*
X12158324Y-13315576D01*
X12158324Y-13315576D02*
X12148800Y-13325100D01*
X12148800Y-13325100D02*
X12129752Y-13334624D01*
X12129752Y-13334624D02*
X12110705Y-13334624D01*
X12110705Y-13334624D02*
X12091657Y-13325100D01*
X12091657Y-13325100D02*
X12082133Y-13315576D01*
X12082133Y-13315576D02*
X12072609Y-13296528D01*
X12072609Y-13296528D02*
X12063086Y-13258433D01*
X12063086Y-13258433D02*
X12063086Y-13210814D01*
X12063086Y-13210814D02*
X12072609Y-13172719D01*
X12072609Y-13172719D02*
X12082133Y-13153671D01*
X12082133Y-13153671D02*
X12091657Y-13144148D01*
X12091657Y-13144148D02*
X12110705Y-13134624D01*
X12301181Y-13134624D02*
X12320229Y-13134624D01*
X12320229Y-13134624D02*
X12339276Y-13144148D01*
X12339276Y-13144148D02*
X12348800Y-13153671D01*
X12348800Y-13153671D02*
X12358324Y-13172719D01*
X12358324Y-13172719D02*
X12367848Y-13210814D01*
X12367848Y-13210814D02*
X12367848Y-13258433D01*
X12367848Y-13258433D02*
X12358324Y-13296528D01*
X12358324Y-13296528D02*
X12348800Y-13315576D01*
X12348800Y-13315576D02*
X12339276Y-13325100D01*
X12339276Y-13325100D02*
X12320229Y-13334624D01*
X12320229Y-13334624D02*
X12301181Y-13334624D01*
X12301181Y-13334624D02*
X12282133Y-13325100D01*
X12282133Y-13325100D02*
X12272609Y-13315576D01*
X12272609Y-13315576D02*
X12263086Y-13296528D01*
X12263086Y-13296528D02*
X12253562Y-13258433D01*
X12253562Y-13258433D02*
X12253562Y-13210814D01*
X12253562Y-13210814D02*
X12263086Y-13172719D01*
X12263086Y-13172719D02*
X12272609Y-13153671D01*
X12272609Y-13153671D02*
X12282133Y-13144148D01*
X12282133Y-13144148D02*
X12301181Y-13134624D01*
X12453562Y-13334624D02*
X12453562Y-13201290D01*
X12453562Y-13220338D02*
X12463086Y-13210814D01*
X12463086Y-13210814D02*
X12482133Y-13201290D01*
X12482133Y-13201290D02*
X12510705Y-13201290D01*
X12510705Y-13201290D02*
X12529752Y-13210814D01*
X12529752Y-13210814D02*
X12539276Y-13229862D01*
X12539276Y-13229862D02*
X12539276Y-13334624D01*
X12539276Y-13229862D02*
X12548800Y-13210814D01*
X12548800Y-13210814D02*
X12567848Y-13201290D01*
X12567848Y-13201290D02*
X12596419Y-13201290D01*
X12596419Y-13201290D02*
X12615467Y-13210814D01*
X12615467Y-13210814D02*
X12624990Y-13229862D01*
X12624990Y-13229862D02*
X12624990Y-13334624D01*
X12720229Y-13334624D02*
X12720229Y-13201290D01*
X12720229Y-13220338D02*
X12729752Y-13210814D01*
X12729752Y-13210814D02*
X12748800Y-13201290D01*
X12748800Y-13201290D02*
X12777371Y-13201290D01*
X12777371Y-13201290D02*
X12796419Y-13210814D01*
X12796419Y-13210814D02*
X12805943Y-13229862D01*
X12805943Y-13229862D02*
X12805943Y-13334624D01*
X12805943Y-13229862D02*
X12815467Y-13210814D01*
X12815467Y-13210814D02*
X12834514Y-13201290D01*
X12834514Y-13201290D02*
X12863086Y-13201290D01*
X12863086Y-13201290D02*
X12882133Y-13210814D01*
X12882133Y-13210814D02*
X12891657Y-13229862D01*
X12891657Y-13229862D02*
X12891657Y-13334624D01*
X13282133Y-13125100D02*
X13110705Y-13382243D01*
X13539276Y-13134624D02*
X13558324Y-13134624D01*
X13558324Y-13134624D02*
X13577372Y-13144148D01*
X13577372Y-13144148D02*
X13586895Y-13153671D01*
X13586895Y-13153671D02*
X13596419Y-13172719D01*
X13596419Y-13172719D02*
X13605943Y-13210814D01*
X13605943Y-13210814D02*
X13605943Y-13258433D01*
X13605943Y-13258433D02*
X13596419Y-13296528D01*
X13596419Y-13296528D02*
X13586895Y-13315576D01*
X13586895Y-13315576D02*
X13577372Y-13325100D01*
X13577372Y-13325100D02*
X13558324Y-13334624D01*
X13558324Y-13334624D02*
X13539276Y-13334624D01*
X13539276Y-13334624D02*
X13520229Y-13325100D01*
X13520229Y-13325100D02*
X13510705Y-13315576D01*
X13510705Y-13315576D02*
X13501181Y-13296528D01*
X13501181Y-13296528D02*
X13491657Y-13258433D01*
X13491657Y-13258433D02*
X13491657Y-13210814D01*
X13491657Y-13210814D02*
X13501181Y-13172719D01*
X13501181Y-13172719D02*
X13510705Y-13153671D01*
X13510705Y-13153671D02*
X13520229Y-13144148D01*
X13520229Y-13144148D02*
X13539276Y-13134624D01*
X13691657Y-13315576D02*
X13701181Y-13325100D01*
X13701181Y-13325100D02*
X13691657Y-13334624D01*
X13691657Y-13334624D02*
X13682133Y-13325100D01*
X13682133Y-13325100D02*
X13691657Y-13315576D01*
X13691657Y-13315576D02*
X13691657Y-13334624D01*
X13824991Y-13134624D02*
X13844038Y-13134624D01*
X13844038Y-13134624D02*
X13863086Y-13144148D01*
X13863086Y-13144148D02*
X13872610Y-13153671D01*
X13872610Y-13153671D02*
X13882133Y-13172719D01*
X13882133Y-13172719D02*
X13891657Y-13210814D01*
X13891657Y-13210814D02*
X13891657Y-13258433D01*
X13891657Y-13258433D02*
X13882133Y-13296528D01*
X13882133Y-13296528D02*
X13872610Y-13315576D01*
X13872610Y-13315576D02*
X13863086Y-13325100D01*
X13863086Y-13325100D02*
X13844038Y-13334624D01*
X13844038Y-13334624D02*
X13824991Y-13334624D01*
X13824991Y-13334624D02*
X13805943Y-13325100D01*
X13805943Y-13325100D02*
X13796419Y-13315576D01*
X13796419Y-13315576D02*
X13786895Y-13296528D01*
X13786895Y-13296528D02*
X13777372Y-13258433D01*
X13777372Y-13258433D02*
X13777372Y-13210814D01*
X13777372Y-13210814D02*
X13786895Y-13172719D01*
X13786895Y-13172719D02*
X13796419Y-13153671D01*
X13796419Y-13153671D02*
X13805943Y-13144148D01*
X13805943Y-13144148D02*
X13824991Y-13134624D01*
X13967848Y-13153671D02*
X13977372Y-13144148D01*
X13977372Y-13144148D02*
X13996419Y-13134624D01*
X13996419Y-13134624D02*
X14044038Y-13134624D01*
X14044038Y-13134624D02*
X14063086Y-13144148D01*
X14063086Y-13144148D02*
X14072610Y-13153671D01*
X14072610Y-13153671D02*
X14082133Y-13172719D01*
X14082133Y-13172719D02*
X14082133Y-13191767D01*
X14082133Y-13191767D02*
X14072610Y-13220338D01*
X14072610Y-13220338D02*
X13958324Y-13334624D01*
X13958324Y-13334624D02*
X14082133Y-13334624D01*
X14148800Y-13134624D02*
X14282133Y-13134624D01*
X14282133Y-13134624D02*
X14196419Y-13334624D01*
X14444038Y-13134624D02*
X14405943Y-13134624D01*
X14405943Y-13134624D02*
X14386895Y-13144148D01*
X14386895Y-13144148D02*
X14377372Y-13153671D01*
X14377372Y-13153671D02*
X14358324Y-13182243D01*
X14358324Y-13182243D02*
X14348800Y-13220338D01*
X14348800Y-13220338D02*
X14348800Y-13296528D01*
X14348800Y-13296528D02*
X14358324Y-13315576D01*
X14358324Y-13315576D02*
X14367848Y-13325100D01*
X14367848Y-13325100D02*
X14386895Y-13334624D01*
X14386895Y-13334624D02*
X14424991Y-13334624D01*
X14424991Y-13334624D02*
X14444038Y-13325100D01*
X14444038Y-13325100D02*
X14453562Y-13315576D01*
X14453562Y-13315576D02*
X14463086Y-13296528D01*
X14463086Y-13296528D02*
X14463086Y-13248909D01*
X14463086Y-13248909D02*
X14453562Y-13229862D01*
X14453562Y-13229862D02*
X14444038Y-13220338D01*
X14444038Y-13220338D02*
X14424991Y-13210814D01*
X14424991Y-13210814D02*
X14386895Y-13210814D01*
X14386895Y-13210814D02*
X14367848Y-13220338D01*
X14367848Y-13220338D02*
X14358324Y-13229862D01*
X14358324Y-13229862D02*
X14348800Y-13248909D01*
X14539276Y-13134624D02*
X14539276Y-13172719D01*
X14615467Y-13134624D02*
X14615467Y-13172719D01*
X14910705Y-13410814D02*
X14901181Y-13401290D01*
X14901181Y-13401290D02*
X14882134Y-13372719D01*
X14882134Y-13372719D02*
X14872610Y-13353671D01*
X14872610Y-13353671D02*
X14863086Y-13325100D01*
X14863086Y-13325100D02*
X14853562Y-13277481D01*
X14853562Y-13277481D02*
X14853562Y-13239386D01*
X14853562Y-13239386D02*
X14863086Y-13191767D01*
X14863086Y-13191767D02*
X14872610Y-13163195D01*
X14872610Y-13163195D02*
X14882134Y-13144148D01*
X14882134Y-13144148D02*
X14901181Y-13115576D01*
X14901181Y-13115576D02*
X14910705Y-13106052D01*
X14967848Y-13134624D02*
X15091657Y-13134624D01*
X15091657Y-13134624D02*
X15024991Y-13210814D01*
X15024991Y-13210814D02*
X15053562Y-13210814D01*
X15053562Y-13210814D02*
X15072610Y-13220338D01*
X15072610Y-13220338D02*
X15082134Y-13229862D01*
X15082134Y-13229862D02*
X15091657Y-13248909D01*
X15091657Y-13248909D02*
X15091657Y-13296528D01*
X15091657Y-13296528D02*
X15082134Y-13315576D01*
X15082134Y-13315576D02*
X15072610Y-13325100D01*
X15072610Y-13325100D02*
X15053562Y-13334624D01*
X15053562Y-13334624D02*
X14996419Y-13334624D01*
X14996419Y-13334624D02*
X14977372Y-13325100D01*
X14977372Y-13325100D02*
X14967848Y-13315576D01*
X15263086Y-13201290D02*
X15263086Y-13334624D01*
X15215467Y-13125100D02*
X15167848Y-13267957D01*
X15167848Y-13267957D02*
X15291657Y-13267957D01*
X15520229Y-13334624D02*
X15520229Y-13134624D01*
X15605943Y-13334624D02*
X15605943Y-13229862D01*
X15605943Y-13229862D02*
X15596419Y-13210814D01*
X15596419Y-13210814D02*
X15577372Y-13201290D01*
X15577372Y-13201290D02*
X15548800Y-13201290D01*
X15548800Y-13201290D02*
X15529753Y-13210814D01*
X15529753Y-13210814D02*
X15520229Y-13220338D01*
X15729753Y-13334624D02*
X15710705Y-13325100D01*
X15710705Y-13325100D02*
X15701181Y-13315576D01*
X15701181Y-13315576D02*
X15691657Y-13296528D01*
X15691657Y-13296528D02*
X15691657Y-13239386D01*
X15691657Y-13239386D02*
X15701181Y-13220338D01*
X15701181Y-13220338D02*
X15710705Y-13210814D01*
X15710705Y-13210814D02*
X15729753Y-13201290D01*
X15729753Y-13201290D02*
X15758324Y-13201290D01*
X15758324Y-13201290D02*
X15777372Y-13210814D01*
X15777372Y-13210814D02*
X15786896Y-13220338D01*
X15786896Y-13220338D02*
X15796419Y-13239386D01*
X15796419Y-13239386D02*
X15796419Y-13296528D01*
X15796419Y-13296528D02*
X15786896Y-13315576D01*
X15786896Y-13315576D02*
X15777372Y-13325100D01*
X15777372Y-13325100D02*
X15758324Y-13334624D01*
X15758324Y-13334624D02*
X15729753Y-13334624D01*
X15910705Y-13334624D02*
X15891657Y-13325100D01*
X15891657Y-13325100D02*
X15882134Y-13306052D01*
X15882134Y-13306052D02*
X15882134Y-13134624D01*
X16063086Y-13325100D02*
X16044038Y-13334624D01*
X16044038Y-13334624D02*
X16005943Y-13334624D01*
X16005943Y-13334624D02*
X15986896Y-13325100D01*
X15986896Y-13325100D02*
X15977372Y-13306052D01*
X15977372Y-13306052D02*
X15977372Y-13229862D01*
X15977372Y-13229862D02*
X15986896Y-13210814D01*
X15986896Y-13210814D02*
X16005943Y-13201290D01*
X16005943Y-13201290D02*
X16044038Y-13201290D01*
X16044038Y-13201290D02*
X16063086Y-13210814D01*
X16063086Y-13210814D02*
X16072610Y-13229862D01*
X16072610Y-13229862D02*
X16072610Y-13248909D01*
X16072610Y-13248909D02*
X15977372Y-13267957D01*
X16148800Y-13325100D02*
X16167848Y-13334624D01*
X16167848Y-13334624D02*
X16205943Y-13334624D01*
X16205943Y-13334624D02*
X16224991Y-13325100D01*
X16224991Y-13325100D02*
X16234515Y-13306052D01*
X16234515Y-13306052D02*
X16234515Y-13296528D01*
X16234515Y-13296528D02*
X16224991Y-13277481D01*
X16224991Y-13277481D02*
X16205943Y-13267957D01*
X16205943Y-13267957D02*
X16177372Y-13267957D01*
X16177372Y-13267957D02*
X16158324Y-13258433D01*
X16158324Y-13258433D02*
X16148800Y-13239386D01*
X16148800Y-13239386D02*
X16148800Y-13229862D01*
X16148800Y-13229862D02*
X16158324Y-13210814D01*
X16158324Y-13210814D02*
X16177372Y-13201290D01*
X16177372Y-13201290D02*
X16205943Y-13201290D01*
X16205943Y-13201290D02*
X16224991Y-13210814D01*
X16301181Y-13410814D02*
X16310705Y-13401290D01*
X16310705Y-13401290D02*
X16329753Y-13372719D01*
X16329753Y-13372719D02*
X16339277Y-13353671D01*
X16339277Y-13353671D02*
X16348800Y-13325100D01*
X16348800Y-13325100D02*
X16358324Y-13277481D01*
X16358324Y-13277481D02*
X16358324Y-13239386D01*
X16358324Y-13239386D02*
X16348800Y-13191767D01*
X16348800Y-13191767D02*
X16339277Y-13163195D01*
X16339277Y-13163195D02*
X16329753Y-13144148D01*
X16329753Y-13144148D02*
X16310705Y-13115576D01*
X16310705Y-13115576D02*
X16301181Y-13106052D01*
D14*
X11308800Y-13466100D02*
X11308800Y-13546100D01*
X11268800Y-13506100D02*
X11348800Y-13506100D01*
D11*
X11634514Y-13398624D02*
X11653562Y-13398624D01*
X11653562Y-13398624D02*
X11672609Y-13408148D01*
X11672609Y-13408148D02*
X11682133Y-13417671D01*
X11682133Y-13417671D02*
X11691657Y-13436719D01*
X11691657Y-13436719D02*
X11701181Y-13474814D01*
X11701181Y-13474814D02*
X11701181Y-13522433D01*
X11701181Y-13522433D02*
X11691657Y-13560528D01*
X11691657Y-13560528D02*
X11682133Y-13579576D01*
X11682133Y-13579576D02*
X11672609Y-13589100D01*
X11672609Y-13589100D02*
X11653562Y-13598624D01*
X11653562Y-13598624D02*
X11634514Y-13598624D01*
X11634514Y-13598624D02*
X11615467Y-13589100D01*
X11615467Y-13589100D02*
X11605943Y-13579576D01*
X11605943Y-13579576D02*
X11596419Y-13560528D01*
X11596419Y-13560528D02*
X11586895Y-13522433D01*
X11586895Y-13522433D02*
X11586895Y-13474814D01*
X11586895Y-13474814D02*
X11596419Y-13436719D01*
X11596419Y-13436719D02*
X11605943Y-13417671D01*
X11605943Y-13417671D02*
X11615467Y-13408148D01*
X11615467Y-13408148D02*
X11634514Y-13398624D01*
X11786895Y-13579576D02*
X11796419Y-13589100D01*
X11796419Y-13589100D02*
X11786895Y-13598624D01*
X11786895Y-13598624D02*
X11777371Y-13589100D01*
X11777371Y-13589100D02*
X11786895Y-13579576D01*
X11786895Y-13579576D02*
X11786895Y-13598624D01*
X11910705Y-13484338D02*
X11891657Y-13474814D01*
X11891657Y-13474814D02*
X11882133Y-13465290D01*
X11882133Y-13465290D02*
X11872609Y-13446243D01*
X11872609Y-13446243D02*
X11872609Y-13436719D01*
X11872609Y-13436719D02*
X11882133Y-13417671D01*
X11882133Y-13417671D02*
X11891657Y-13408148D01*
X11891657Y-13408148D02*
X11910705Y-13398624D01*
X11910705Y-13398624D02*
X11948800Y-13398624D01*
X11948800Y-13398624D02*
X11967848Y-13408148D01*
X11967848Y-13408148D02*
X11977371Y-13417671D01*
X11977371Y-13417671D02*
X11986895Y-13436719D01*
X11986895Y-13436719D02*
X11986895Y-13446243D01*
X11986895Y-13446243D02*
X11977371Y-13465290D01*
X11977371Y-13465290D02*
X11967848Y-13474814D01*
X11967848Y-13474814D02*
X11948800Y-13484338D01*
X11948800Y-13484338D02*
X11910705Y-13484338D01*
X11910705Y-13484338D02*
X11891657Y-13493862D01*
X11891657Y-13493862D02*
X11882133Y-13503386D01*
X11882133Y-13503386D02*
X11872609Y-13522433D01*
X11872609Y-13522433D02*
X11872609Y-13560528D01*
X11872609Y-13560528D02*
X11882133Y-13579576D01*
X11882133Y-13579576D02*
X11891657Y-13589100D01*
X11891657Y-13589100D02*
X11910705Y-13598624D01*
X11910705Y-13598624D02*
X11948800Y-13598624D01*
X11948800Y-13598624D02*
X11967848Y-13589100D01*
X11967848Y-13589100D02*
X11977371Y-13579576D01*
X11977371Y-13579576D02*
X11986895Y-13560528D01*
X11986895Y-13560528D02*
X11986895Y-13522433D01*
X11986895Y-13522433D02*
X11977371Y-13503386D01*
X11977371Y-13503386D02*
X11967848Y-13493862D01*
X11967848Y-13493862D02*
X11948800Y-13484338D01*
X12110705Y-13398624D02*
X12129752Y-13398624D01*
X12129752Y-13398624D02*
X12148800Y-13408148D01*
X12148800Y-13408148D02*
X12158324Y-13417671D01*
X12158324Y-13417671D02*
X12167848Y-13436719D01*
X12167848Y-13436719D02*
X12177371Y-13474814D01*
X12177371Y-13474814D02*
X12177371Y-13522433D01*
X12177371Y-13522433D02*
X12167848Y-13560528D01*
X12167848Y-13560528D02*
X12158324Y-13579576D01*
X12158324Y-13579576D02*
X12148800Y-13589100D01*
X12148800Y-13589100D02*
X12129752Y-13598624D01*
X12129752Y-13598624D02*
X12110705Y-13598624D01*
X12110705Y-13598624D02*
X12091657Y-13589100D01*
X12091657Y-13589100D02*
X12082133Y-13579576D01*
X12082133Y-13579576D02*
X12072609Y-13560528D01*
X12072609Y-13560528D02*
X12063086Y-13522433D01*
X12063086Y-13522433D02*
X12063086Y-13474814D01*
X12063086Y-13474814D02*
X12072609Y-13436719D01*
X12072609Y-13436719D02*
X12082133Y-13417671D01*
X12082133Y-13417671D02*
X12091657Y-13408148D01*
X12091657Y-13408148D02*
X12110705Y-13398624D01*
X12301181Y-13398624D02*
X12320229Y-13398624D01*
X12320229Y-13398624D02*
X12339276Y-13408148D01*
X12339276Y-13408148D02*
X12348800Y-13417671D01*
X12348800Y-13417671D02*
X12358324Y-13436719D01*
X12358324Y-13436719D02*
X12367848Y-13474814D01*
X12367848Y-13474814D02*
X12367848Y-13522433D01*
X12367848Y-13522433D02*
X12358324Y-13560528D01*
X12358324Y-13560528D02*
X12348800Y-13579576D01*
X12348800Y-13579576D02*
X12339276Y-13589100D01*
X12339276Y-13589100D02*
X12320229Y-13598624D01*
X12320229Y-13598624D02*
X12301181Y-13598624D01*
X12301181Y-13598624D02*
X12282133Y-13589100D01*
X12282133Y-13589100D02*
X12272609Y-13579576D01*
X12272609Y-13579576D02*
X12263086Y-13560528D01*
X12263086Y-13560528D02*
X12253562Y-13522433D01*
X12253562Y-13522433D02*
X12253562Y-13474814D01*
X12253562Y-13474814D02*
X12263086Y-13436719D01*
X12263086Y-13436719D02*
X12272609Y-13417671D01*
X12272609Y-13417671D02*
X12282133Y-13408148D01*
X12282133Y-13408148D02*
X12301181Y-13398624D01*
X12453562Y-13598624D02*
X12453562Y-13465290D01*
X12453562Y-13484338D02*
X12463086Y-13474814D01*
X12463086Y-13474814D02*
X12482133Y-13465290D01*
X12482133Y-13465290D02*
X12510705Y-13465290D01*
X12510705Y-13465290D02*
X12529752Y-13474814D01*
X12529752Y-13474814D02*
X12539276Y-13493862D01*
X12539276Y-13493862D02*
X12539276Y-13598624D01*
X12539276Y-13493862D02*
X12548800Y-13474814D01*
X12548800Y-13474814D02*
X12567848Y-13465290D01*
X12567848Y-13465290D02*
X12596419Y-13465290D01*
X12596419Y-13465290D02*
X12615467Y-13474814D01*
X12615467Y-13474814D02*
X12624990Y-13493862D01*
X12624990Y-13493862D02*
X12624990Y-13598624D01*
X12720229Y-13598624D02*
X12720229Y-13465290D01*
X12720229Y-13484338D02*
X12729752Y-13474814D01*
X12729752Y-13474814D02*
X12748800Y-13465290D01*
X12748800Y-13465290D02*
X12777371Y-13465290D01*
X12777371Y-13465290D02*
X12796419Y-13474814D01*
X12796419Y-13474814D02*
X12805943Y-13493862D01*
X12805943Y-13493862D02*
X12805943Y-13598624D01*
X12805943Y-13493862D02*
X12815467Y-13474814D01*
X12815467Y-13474814D02*
X12834514Y-13465290D01*
X12834514Y-13465290D02*
X12863086Y-13465290D01*
X12863086Y-13465290D02*
X12882133Y-13474814D01*
X12882133Y-13474814D02*
X12891657Y-13493862D01*
X12891657Y-13493862D02*
X12891657Y-13598624D01*
X13282133Y-13389100D02*
X13110705Y-13646243D01*
X13539276Y-13398624D02*
X13558324Y-13398624D01*
X13558324Y-13398624D02*
X13577372Y-13408148D01*
X13577372Y-13408148D02*
X13586895Y-13417671D01*
X13586895Y-13417671D02*
X13596419Y-13436719D01*
X13596419Y-13436719D02*
X13605943Y-13474814D01*
X13605943Y-13474814D02*
X13605943Y-13522433D01*
X13605943Y-13522433D02*
X13596419Y-13560528D01*
X13596419Y-13560528D02*
X13586895Y-13579576D01*
X13586895Y-13579576D02*
X13577372Y-13589100D01*
X13577372Y-13589100D02*
X13558324Y-13598624D01*
X13558324Y-13598624D02*
X13539276Y-13598624D01*
X13539276Y-13598624D02*
X13520229Y-13589100D01*
X13520229Y-13589100D02*
X13510705Y-13579576D01*
X13510705Y-13579576D02*
X13501181Y-13560528D01*
X13501181Y-13560528D02*
X13491657Y-13522433D01*
X13491657Y-13522433D02*
X13491657Y-13474814D01*
X13491657Y-13474814D02*
X13501181Y-13436719D01*
X13501181Y-13436719D02*
X13510705Y-13417671D01*
X13510705Y-13417671D02*
X13520229Y-13408148D01*
X13520229Y-13408148D02*
X13539276Y-13398624D01*
X13691657Y-13579576D02*
X13701181Y-13589100D01*
X13701181Y-13589100D02*
X13691657Y-13598624D01*
X13691657Y-13598624D02*
X13682133Y-13589100D01*
X13682133Y-13589100D02*
X13691657Y-13579576D01*
X13691657Y-13579576D02*
X13691657Y-13598624D01*
X13824991Y-13398624D02*
X13844038Y-13398624D01*
X13844038Y-13398624D02*
X13863086Y-13408148D01*
X13863086Y-13408148D02*
X13872610Y-13417671D01*
X13872610Y-13417671D02*
X13882133Y-13436719D01*
X13882133Y-13436719D02*
X13891657Y-13474814D01*
X13891657Y-13474814D02*
X13891657Y-13522433D01*
X13891657Y-13522433D02*
X13882133Y-13560528D01*
X13882133Y-13560528D02*
X13872610Y-13579576D01*
X13872610Y-13579576D02*
X13863086Y-13589100D01*
X13863086Y-13589100D02*
X13844038Y-13598624D01*
X13844038Y-13598624D02*
X13824991Y-13598624D01*
X13824991Y-13598624D02*
X13805943Y-13589100D01*
X13805943Y-13589100D02*
X13796419Y-13579576D01*
X13796419Y-13579576D02*
X13786895Y-13560528D01*
X13786895Y-13560528D02*
X13777372Y-13522433D01*
X13777372Y-13522433D02*
X13777372Y-13474814D01*
X13777372Y-13474814D02*
X13786895Y-13436719D01*
X13786895Y-13436719D02*
X13796419Y-13417671D01*
X13796419Y-13417671D02*
X13805943Y-13408148D01*
X13805943Y-13408148D02*
X13824991Y-13398624D01*
X13958324Y-13398624D02*
X14082133Y-13398624D01*
X14082133Y-13398624D02*
X14015467Y-13474814D01*
X14015467Y-13474814D02*
X14044038Y-13474814D01*
X14044038Y-13474814D02*
X14063086Y-13484338D01*
X14063086Y-13484338D02*
X14072610Y-13493862D01*
X14072610Y-13493862D02*
X14082133Y-13512909D01*
X14082133Y-13512909D02*
X14082133Y-13560528D01*
X14082133Y-13560528D02*
X14072610Y-13579576D01*
X14072610Y-13579576D02*
X14063086Y-13589100D01*
X14063086Y-13589100D02*
X14044038Y-13598624D01*
X14044038Y-13598624D02*
X13986895Y-13598624D01*
X13986895Y-13598624D02*
X13967848Y-13589100D01*
X13967848Y-13589100D02*
X13958324Y-13579576D01*
X14272610Y-13598624D02*
X14158324Y-13598624D01*
X14215467Y-13598624D02*
X14215467Y-13398624D01*
X14215467Y-13398624D02*
X14196419Y-13427195D01*
X14196419Y-13427195D02*
X14177372Y-13446243D01*
X14177372Y-13446243D02*
X14158324Y-13455767D01*
X14453562Y-13398624D02*
X14358324Y-13398624D01*
X14358324Y-13398624D02*
X14348800Y-13493862D01*
X14348800Y-13493862D02*
X14358324Y-13484338D01*
X14358324Y-13484338D02*
X14377372Y-13474814D01*
X14377372Y-13474814D02*
X14424991Y-13474814D01*
X14424991Y-13474814D02*
X14444038Y-13484338D01*
X14444038Y-13484338D02*
X14453562Y-13493862D01*
X14453562Y-13493862D02*
X14463086Y-13512909D01*
X14463086Y-13512909D02*
X14463086Y-13560528D01*
X14463086Y-13560528D02*
X14453562Y-13579576D01*
X14453562Y-13579576D02*
X14444038Y-13589100D01*
X14444038Y-13589100D02*
X14424991Y-13598624D01*
X14424991Y-13598624D02*
X14377372Y-13598624D01*
X14377372Y-13598624D02*
X14358324Y-13589100D01*
X14358324Y-13589100D02*
X14348800Y-13579576D01*
X14539276Y-13398624D02*
X14539276Y-13436719D01*
X14615467Y-13398624D02*
X14615467Y-13436719D01*
X14910705Y-13674814D02*
X14901181Y-13665290D01*
X14901181Y-13665290D02*
X14882134Y-13636719D01*
X14882134Y-13636719D02*
X14872610Y-13617671D01*
X14872610Y-13617671D02*
X14863086Y-13589100D01*
X14863086Y-13589100D02*
X14853562Y-13541481D01*
X14853562Y-13541481D02*
X14853562Y-13503386D01*
X14853562Y-13503386D02*
X14863086Y-13455767D01*
X14863086Y-13455767D02*
X14872610Y-13427195D01*
X14872610Y-13427195D02*
X14882134Y-13408148D01*
X14882134Y-13408148D02*
X14901181Y-13379576D01*
X14901181Y-13379576D02*
X14910705Y-13370052D01*
X14977372Y-13417671D02*
X14986895Y-13408148D01*
X14986895Y-13408148D02*
X15005943Y-13398624D01*
X15005943Y-13398624D02*
X15053562Y-13398624D01*
X15053562Y-13398624D02*
X15072610Y-13408148D01*
X15072610Y-13408148D02*
X15082134Y-13417671D01*
X15082134Y-13417671D02*
X15091657Y-13436719D01*
X15091657Y-13436719D02*
X15091657Y-13455767D01*
X15091657Y-13455767D02*
X15082134Y-13484338D01*
X15082134Y-13484338D02*
X14967848Y-13598624D01*
X14967848Y-13598624D02*
X15091657Y-13598624D01*
X15215467Y-13398624D02*
X15234515Y-13398624D01*
X15234515Y-13398624D02*
X15253562Y-13408148D01*
X15253562Y-13408148D02*
X15263086Y-13417671D01*
X15263086Y-13417671D02*
X15272610Y-13436719D01*
X15272610Y-13436719D02*
X15282134Y-13474814D01*
X15282134Y-13474814D02*
X15282134Y-13522433D01*
X15282134Y-13522433D02*
X15272610Y-13560528D01*
X15272610Y-13560528D02*
X15263086Y-13579576D01*
X15263086Y-13579576D02*
X15253562Y-13589100D01*
X15253562Y-13589100D02*
X15234515Y-13598624D01*
X15234515Y-13598624D02*
X15215467Y-13598624D01*
X15215467Y-13598624D02*
X15196419Y-13589100D01*
X15196419Y-13589100D02*
X15186895Y-13579576D01*
X15186895Y-13579576D02*
X15177372Y-13560528D01*
X15177372Y-13560528D02*
X15167848Y-13522433D01*
X15167848Y-13522433D02*
X15167848Y-13474814D01*
X15167848Y-13474814D02*
X15177372Y-13436719D01*
X15177372Y-13436719D02*
X15186895Y-13417671D01*
X15186895Y-13417671D02*
X15196419Y-13408148D01*
X15196419Y-13408148D02*
X15215467Y-13398624D01*
X15520229Y-13598624D02*
X15520229Y-13398624D01*
X15605943Y-13598624D02*
X15605943Y-13493862D01*
X15605943Y-13493862D02*
X15596419Y-13474814D01*
X15596419Y-13474814D02*
X15577372Y-13465290D01*
X15577372Y-13465290D02*
X15548800Y-13465290D01*
X15548800Y-13465290D02*
X15529753Y-13474814D01*
X15529753Y-13474814D02*
X15520229Y-13484338D01*
X15729753Y-13598624D02*
X15710705Y-13589100D01*
X15710705Y-13589100D02*
X15701181Y-13579576D01*
X15701181Y-13579576D02*
X15691657Y-13560528D01*
X15691657Y-13560528D02*
X15691657Y-13503386D01*
X15691657Y-13503386D02*
X15701181Y-13484338D01*
X15701181Y-13484338D02*
X15710705Y-13474814D01*
X15710705Y-13474814D02*
X15729753Y-13465290D01*
X15729753Y-13465290D02*
X15758324Y-13465290D01*
X15758324Y-13465290D02*
X15777372Y-13474814D01*
X15777372Y-13474814D02*
X15786896Y-13484338D01*
X15786896Y-13484338D02*
X15796419Y-13503386D01*
X15796419Y-13503386D02*
X15796419Y-13560528D01*
X15796419Y-13560528D02*
X15786896Y-13579576D01*
X15786896Y-13579576D02*
X15777372Y-13589100D01*
X15777372Y-13589100D02*
X15758324Y-13598624D01*
X15758324Y-13598624D02*
X15729753Y-13598624D01*
X15910705Y-13598624D02*
X15891657Y-13589100D01*
X15891657Y-13589100D02*
X15882134Y-13570052D01*
X15882134Y-13570052D02*
X15882134Y-13398624D01*
X16063086Y-13589100D02*
X16044038Y-13598624D01*
X16044038Y-13598624D02*
X16005943Y-13598624D01*
X16005943Y-13598624D02*
X15986896Y-13589100D01*
X15986896Y-13589100D02*
X15977372Y-13570052D01*
X15977372Y-13570052D02*
X15977372Y-13493862D01*
X15977372Y-13493862D02*
X15986896Y-13474814D01*
X15986896Y-13474814D02*
X16005943Y-13465290D01*
X16005943Y-13465290D02*
X16044038Y-13465290D01*
X16044038Y-13465290D02*
X16063086Y-13474814D01*
X16063086Y-13474814D02*
X16072610Y-13493862D01*
X16072610Y-13493862D02*
X16072610Y-13512909D01*
X16072610Y-13512909D02*
X15977372Y-13531957D01*
X16148800Y-13589100D02*
X16167848Y-13598624D01*
X16167848Y-13598624D02*
X16205943Y-13598624D01*
X16205943Y-13598624D02*
X16224991Y-13589100D01*
X16224991Y-13589100D02*
X16234515Y-13570052D01*
X16234515Y-13570052D02*
X16234515Y-13560528D01*
X16234515Y-13560528D02*
X16224991Y-13541481D01*
X16224991Y-13541481D02*
X16205943Y-13531957D01*
X16205943Y-13531957D02*
X16177372Y-13531957D01*
X16177372Y-13531957D02*
X16158324Y-13522433D01*
X16158324Y-13522433D02*
X16148800Y-13503386D01*
X16148800Y-13503386D02*
X16148800Y-13493862D01*
X16148800Y-13493862D02*
X16158324Y-13474814D01*
X16158324Y-13474814D02*
X16177372Y-13465290D01*
X16177372Y-13465290D02*
X16205943Y-13465290D01*
X16205943Y-13465290D02*
X16224991Y-13474814D01*
X16301181Y-13674814D02*
X16310705Y-13665290D01*
X16310705Y-13665290D02*
X16329753Y-13636719D01*
X16329753Y-13636719D02*
X16339277Y-13617671D01*
X16339277Y-13617671D02*
X16348800Y-13589100D01*
X16348800Y-13589100D02*
X16358324Y-13541481D01*
X16358324Y-13541481D02*
X16358324Y-13503386D01*
X16358324Y-13503386D02*
X16348800Y-13455767D01*
X16348800Y-13455767D02*
X16339277Y-13427195D01*
X16339277Y-13427195D02*
X16329753Y-13408148D01*
X16329753Y-13408148D02*
X16310705Y-13379576D01*
X16310705Y-13379576D02*
X16301181Y-13370052D01*
D15*
X11335620Y-13801920D02*
X11335620Y-13738280D01*
X11271980Y-13738280D01*
X11271980Y-13801920D01*
X11335620Y-13801920D01*
D11*
X11634514Y-13662624D02*
X11653562Y-13662624D01*
X11653562Y-13662624D02*
X11672609Y-13672148D01*
X11672609Y-13672148D02*
X11682133Y-13681671D01*
X11682133Y-13681671D02*
X11691657Y-13700719D01*
X11691657Y-13700719D02*
X11701181Y-13738814D01*
X11701181Y-13738814D02*
X11701181Y-13786433D01*
X11701181Y-13786433D02*
X11691657Y-13824528D01*
X11691657Y-13824528D02*
X11682133Y-13843576D01*
X11682133Y-13843576D02*
X11672609Y-13853100D01*
X11672609Y-13853100D02*
X11653562Y-13862624D01*
X11653562Y-13862624D02*
X11634514Y-13862624D01*
X11634514Y-13862624D02*
X11615467Y-13853100D01*
X11615467Y-13853100D02*
X11605943Y-13843576D01*
X11605943Y-13843576D02*
X11596419Y-13824528D01*
X11596419Y-13824528D02*
X11586895Y-13786433D01*
X11586895Y-13786433D02*
X11586895Y-13738814D01*
X11586895Y-13738814D02*
X11596419Y-13700719D01*
X11596419Y-13700719D02*
X11605943Y-13681671D01*
X11605943Y-13681671D02*
X11615467Y-13672148D01*
X11615467Y-13672148D02*
X11634514Y-13662624D01*
X11786895Y-13843576D02*
X11796419Y-13853100D01*
X11796419Y-13853100D02*
X11786895Y-13862624D01*
X11786895Y-13862624D02*
X11777371Y-13853100D01*
X11777371Y-13853100D02*
X11786895Y-13843576D01*
X11786895Y-13843576D02*
X11786895Y-13862624D01*
X11891657Y-13862624D02*
X11929752Y-13862624D01*
X11929752Y-13862624D02*
X11948800Y-13853100D01*
X11948800Y-13853100D02*
X11958324Y-13843576D01*
X11958324Y-13843576D02*
X11977371Y-13815005D01*
X11977371Y-13815005D02*
X11986895Y-13776909D01*
X11986895Y-13776909D02*
X11986895Y-13700719D01*
X11986895Y-13700719D02*
X11977371Y-13681671D01*
X11977371Y-13681671D02*
X11967848Y-13672148D01*
X11967848Y-13672148D02*
X11948800Y-13662624D01*
X11948800Y-13662624D02*
X11910705Y-13662624D01*
X11910705Y-13662624D02*
X11891657Y-13672148D01*
X11891657Y-13672148D02*
X11882133Y-13681671D01*
X11882133Y-13681671D02*
X11872609Y-13700719D01*
X11872609Y-13700719D02*
X11872609Y-13748338D01*
X11872609Y-13748338D02*
X11882133Y-13767386D01*
X11882133Y-13767386D02*
X11891657Y-13776909D01*
X11891657Y-13776909D02*
X11910705Y-13786433D01*
X11910705Y-13786433D02*
X11948800Y-13786433D01*
X11948800Y-13786433D02*
X11967848Y-13776909D01*
X11967848Y-13776909D02*
X11977371Y-13767386D01*
X11977371Y-13767386D02*
X11986895Y-13748338D01*
X12110705Y-13662624D02*
X12129752Y-13662624D01*
X12129752Y-13662624D02*
X12148800Y-13672148D01*
X12148800Y-13672148D02*
X12158324Y-13681671D01*
X12158324Y-13681671D02*
X12167848Y-13700719D01*
X12167848Y-13700719D02*
X12177371Y-13738814D01*
X12177371Y-13738814D02*
X12177371Y-13786433D01*
X12177371Y-13786433D02*
X12167848Y-13824528D01*
X12167848Y-13824528D02*
X12158324Y-13843576D01*
X12158324Y-13843576D02*
X12148800Y-13853100D01*
X12148800Y-13853100D02*
X12129752Y-13862624D01*
X12129752Y-13862624D02*
X12110705Y-13862624D01*
X12110705Y-13862624D02*
X12091657Y-13853100D01*
X12091657Y-13853100D02*
X12082133Y-13843576D01*
X12082133Y-13843576D02*
X12072609Y-13824528D01*
X12072609Y-13824528D02*
X12063086Y-13786433D01*
X12063086Y-13786433D02*
X12063086Y-13738814D01*
X12063086Y-13738814D02*
X12072609Y-13700719D01*
X12072609Y-13700719D02*
X12082133Y-13681671D01*
X12082133Y-13681671D02*
X12091657Y-13672148D01*
X12091657Y-13672148D02*
X12110705Y-13662624D01*
X12301181Y-13662624D02*
X12320229Y-13662624D01*
X12320229Y-13662624D02*
X12339276Y-13672148D01*
X12339276Y-13672148D02*
X12348800Y-13681671D01*
X12348800Y-13681671D02*
X12358324Y-13700719D01*
X12358324Y-13700719D02*
X12367848Y-13738814D01*
X12367848Y-13738814D02*
X12367848Y-13786433D01*
X12367848Y-13786433D02*
X12358324Y-13824528D01*
X12358324Y-13824528D02*
X12348800Y-13843576D01*
X12348800Y-13843576D02*
X12339276Y-13853100D01*
X12339276Y-13853100D02*
X12320229Y-13862624D01*
X12320229Y-13862624D02*
X12301181Y-13862624D01*
X12301181Y-13862624D02*
X12282133Y-13853100D01*
X12282133Y-13853100D02*
X12272609Y-13843576D01*
X12272609Y-13843576D02*
X12263086Y-13824528D01*
X12263086Y-13824528D02*
X12253562Y-13786433D01*
X12253562Y-13786433D02*
X12253562Y-13738814D01*
X12253562Y-13738814D02*
X12263086Y-13700719D01*
X12263086Y-13700719D02*
X12272609Y-13681671D01*
X12272609Y-13681671D02*
X12282133Y-13672148D01*
X12282133Y-13672148D02*
X12301181Y-13662624D01*
X12453562Y-13862624D02*
X12453562Y-13729290D01*
X12453562Y-13748338D02*
X12463086Y-13738814D01*
X12463086Y-13738814D02*
X12482133Y-13729290D01*
X12482133Y-13729290D02*
X12510705Y-13729290D01*
X12510705Y-13729290D02*
X12529752Y-13738814D01*
X12529752Y-13738814D02*
X12539276Y-13757862D01*
X12539276Y-13757862D02*
X12539276Y-13862624D01*
X12539276Y-13757862D02*
X12548800Y-13738814D01*
X12548800Y-13738814D02*
X12567848Y-13729290D01*
X12567848Y-13729290D02*
X12596419Y-13729290D01*
X12596419Y-13729290D02*
X12615467Y-13738814D01*
X12615467Y-13738814D02*
X12624990Y-13757862D01*
X12624990Y-13757862D02*
X12624990Y-13862624D01*
X12720229Y-13862624D02*
X12720229Y-13729290D01*
X12720229Y-13748338D02*
X12729752Y-13738814D01*
X12729752Y-13738814D02*
X12748800Y-13729290D01*
X12748800Y-13729290D02*
X12777371Y-13729290D01*
X12777371Y-13729290D02*
X12796419Y-13738814D01*
X12796419Y-13738814D02*
X12805943Y-13757862D01*
X12805943Y-13757862D02*
X12805943Y-13862624D01*
X12805943Y-13757862D02*
X12815467Y-13738814D01*
X12815467Y-13738814D02*
X12834514Y-13729290D01*
X12834514Y-13729290D02*
X12863086Y-13729290D01*
X12863086Y-13729290D02*
X12882133Y-13738814D01*
X12882133Y-13738814D02*
X12891657Y-13757862D01*
X12891657Y-13757862D02*
X12891657Y-13862624D01*
X13282133Y-13653100D02*
X13110705Y-13910243D01*
X13539276Y-13662624D02*
X13558324Y-13662624D01*
X13558324Y-13662624D02*
X13577372Y-13672148D01*
X13577372Y-13672148D02*
X13586895Y-13681671D01*
X13586895Y-13681671D02*
X13596419Y-13700719D01*
X13596419Y-13700719D02*
X13605943Y-13738814D01*
X13605943Y-13738814D02*
X13605943Y-13786433D01*
X13605943Y-13786433D02*
X13596419Y-13824528D01*
X13596419Y-13824528D02*
X13586895Y-13843576D01*
X13586895Y-13843576D02*
X13577372Y-13853100D01*
X13577372Y-13853100D02*
X13558324Y-13862624D01*
X13558324Y-13862624D02*
X13539276Y-13862624D01*
X13539276Y-13862624D02*
X13520229Y-13853100D01*
X13520229Y-13853100D02*
X13510705Y-13843576D01*
X13510705Y-13843576D02*
X13501181Y-13824528D01*
X13501181Y-13824528D02*
X13491657Y-13786433D01*
X13491657Y-13786433D02*
X13491657Y-13738814D01*
X13491657Y-13738814D02*
X13501181Y-13700719D01*
X13501181Y-13700719D02*
X13510705Y-13681671D01*
X13510705Y-13681671D02*
X13520229Y-13672148D01*
X13520229Y-13672148D02*
X13539276Y-13662624D01*
X13691657Y-13843576D02*
X13701181Y-13853100D01*
X13701181Y-13853100D02*
X13691657Y-13862624D01*
X13691657Y-13862624D02*
X13682133Y-13853100D01*
X13682133Y-13853100D02*
X13691657Y-13843576D01*
X13691657Y-13843576D02*
X13691657Y-13862624D01*
X13824991Y-13662624D02*
X13844038Y-13662624D01*
X13844038Y-13662624D02*
X13863086Y-13672148D01*
X13863086Y-13672148D02*
X13872610Y-13681671D01*
X13872610Y-13681671D02*
X13882133Y-13700719D01*
X13882133Y-13700719D02*
X13891657Y-13738814D01*
X13891657Y-13738814D02*
X13891657Y-13786433D01*
X13891657Y-13786433D02*
X13882133Y-13824528D01*
X13882133Y-13824528D02*
X13872610Y-13843576D01*
X13872610Y-13843576D02*
X13863086Y-13853100D01*
X13863086Y-13853100D02*
X13844038Y-13862624D01*
X13844038Y-13862624D02*
X13824991Y-13862624D01*
X13824991Y-13862624D02*
X13805943Y-13853100D01*
X13805943Y-13853100D02*
X13796419Y-13843576D01*
X13796419Y-13843576D02*
X13786895Y-13824528D01*
X13786895Y-13824528D02*
X13777372Y-13786433D01*
X13777372Y-13786433D02*
X13777372Y-13738814D01*
X13777372Y-13738814D02*
X13786895Y-13700719D01*
X13786895Y-13700719D02*
X13796419Y-13681671D01*
X13796419Y-13681671D02*
X13805943Y-13672148D01*
X13805943Y-13672148D02*
X13824991Y-13662624D01*
X13958324Y-13662624D02*
X14082133Y-13662624D01*
X14082133Y-13662624D02*
X14015467Y-13738814D01*
X14015467Y-13738814D02*
X14044038Y-13738814D01*
X14044038Y-13738814D02*
X14063086Y-13748338D01*
X14063086Y-13748338D02*
X14072610Y-13757862D01*
X14072610Y-13757862D02*
X14082133Y-13776909D01*
X14082133Y-13776909D02*
X14082133Y-13824528D01*
X14082133Y-13824528D02*
X14072610Y-13843576D01*
X14072610Y-13843576D02*
X14063086Y-13853100D01*
X14063086Y-13853100D02*
X14044038Y-13862624D01*
X14044038Y-13862624D02*
X13986895Y-13862624D01*
X13986895Y-13862624D02*
X13967848Y-13853100D01*
X13967848Y-13853100D02*
X13958324Y-13843576D01*
X14263086Y-13662624D02*
X14167848Y-13662624D01*
X14167848Y-13662624D02*
X14158324Y-13757862D01*
X14158324Y-13757862D02*
X14167848Y-13748338D01*
X14167848Y-13748338D02*
X14186895Y-13738814D01*
X14186895Y-13738814D02*
X14234514Y-13738814D01*
X14234514Y-13738814D02*
X14253562Y-13748338D01*
X14253562Y-13748338D02*
X14263086Y-13757862D01*
X14263086Y-13757862D02*
X14272610Y-13776909D01*
X14272610Y-13776909D02*
X14272610Y-13824528D01*
X14272610Y-13824528D02*
X14263086Y-13843576D01*
X14263086Y-13843576D02*
X14253562Y-13853100D01*
X14253562Y-13853100D02*
X14234514Y-13862624D01*
X14234514Y-13862624D02*
X14186895Y-13862624D01*
X14186895Y-13862624D02*
X14167848Y-13853100D01*
X14167848Y-13853100D02*
X14158324Y-13843576D01*
X14444038Y-13729290D02*
X14444038Y-13862624D01*
X14396419Y-13653100D02*
X14348800Y-13795957D01*
X14348800Y-13795957D02*
X14472610Y-13795957D01*
X14539276Y-13662624D02*
X14539276Y-13700719D01*
X14615467Y-13662624D02*
X14615467Y-13700719D01*
X14910705Y-13938814D02*
X14901181Y-13929290D01*
X14901181Y-13929290D02*
X14882134Y-13900719D01*
X14882134Y-13900719D02*
X14872610Y-13881671D01*
X14872610Y-13881671D02*
X14863086Y-13853100D01*
X14863086Y-13853100D02*
X14853562Y-13805481D01*
X14853562Y-13805481D02*
X14853562Y-13767386D01*
X14853562Y-13767386D02*
X14863086Y-13719767D01*
X14863086Y-13719767D02*
X14872610Y-13691195D01*
X14872610Y-13691195D02*
X14882134Y-13672148D01*
X14882134Y-13672148D02*
X14901181Y-13643576D01*
X14901181Y-13643576D02*
X14910705Y-13634052D01*
X15091657Y-13862624D02*
X14977372Y-13862624D01*
X15034514Y-13862624D02*
X15034514Y-13662624D01*
X15034514Y-13662624D02*
X15015467Y-13691195D01*
X15015467Y-13691195D02*
X14996419Y-13710243D01*
X14996419Y-13710243D02*
X14977372Y-13719767D01*
X15263086Y-13662624D02*
X15224991Y-13662624D01*
X15224991Y-13662624D02*
X15205943Y-13672148D01*
X15205943Y-13672148D02*
X15196419Y-13681671D01*
X15196419Y-13681671D02*
X15177372Y-13710243D01*
X15177372Y-13710243D02*
X15167848Y-13748338D01*
X15167848Y-13748338D02*
X15167848Y-13824528D01*
X15167848Y-13824528D02*
X15177372Y-13843576D01*
X15177372Y-13843576D02*
X15186895Y-13853100D01*
X15186895Y-13853100D02*
X15205943Y-13862624D01*
X15205943Y-13862624D02*
X15244038Y-13862624D01*
X15244038Y-13862624D02*
X15263086Y-13853100D01*
X15263086Y-13853100D02*
X15272610Y-13843576D01*
X15272610Y-13843576D02*
X15282134Y-13824528D01*
X15282134Y-13824528D02*
X15282134Y-13776909D01*
X15282134Y-13776909D02*
X15272610Y-13757862D01*
X15272610Y-13757862D02*
X15263086Y-13748338D01*
X15263086Y-13748338D02*
X15244038Y-13738814D01*
X15244038Y-13738814D02*
X15205943Y-13738814D01*
X15205943Y-13738814D02*
X15186895Y-13748338D01*
X15186895Y-13748338D02*
X15177372Y-13757862D01*
X15177372Y-13757862D02*
X15167848Y-13776909D01*
X15520229Y-13862624D02*
X15520229Y-13662624D01*
X15605943Y-13862624D02*
X15605943Y-13757862D01*
X15605943Y-13757862D02*
X15596419Y-13738814D01*
X15596419Y-13738814D02*
X15577372Y-13729290D01*
X15577372Y-13729290D02*
X15548800Y-13729290D01*
X15548800Y-13729290D02*
X15529753Y-13738814D01*
X15529753Y-13738814D02*
X15520229Y-13748338D01*
X15729753Y-13862624D02*
X15710705Y-13853100D01*
X15710705Y-13853100D02*
X15701181Y-13843576D01*
X15701181Y-13843576D02*
X15691657Y-13824528D01*
X15691657Y-13824528D02*
X15691657Y-13767386D01*
X15691657Y-13767386D02*
X15701181Y-13748338D01*
X15701181Y-13748338D02*
X15710705Y-13738814D01*
X15710705Y-13738814D02*
X15729753Y-13729290D01*
X15729753Y-13729290D02*
X15758324Y-13729290D01*
X15758324Y-13729290D02*
X15777372Y-13738814D01*
X15777372Y-13738814D02*
X15786896Y-13748338D01*
X15786896Y-13748338D02*
X15796419Y-13767386D01*
X15796419Y-13767386D02*
X15796419Y-13824528D01*
X15796419Y-13824528D02*
X15786896Y-13843576D01*
X15786896Y-13843576D02*
X15777372Y-13853100D01*
X15777372Y-13853100D02*
X15758324Y-13862624D01*
X15758324Y-13862624D02*
X15729753Y-13862624D01*
X15910705Y-13862624D02*
X15891657Y-13853100D01*
X15891657Y-13853100D02*
X15882134Y-13834052D01*
X15882134Y-13834052D02*
X15882134Y-13662624D01*
X16063086Y-13853100D02*
X16044038Y-13862624D01*
X16044038Y-13862624D02*
X16005943Y-13862624D01*
X16005943Y-13862624D02*
X15986896Y-13853100D01*
X15986896Y-13853100D02*
X15977372Y-13834052D01*
X15977372Y-13834052D02*
X15977372Y-13757862D01*
X15977372Y-13757862D02*
X15986896Y-13738814D01*
X15986896Y-13738814D02*
X16005943Y-13729290D01*
X16005943Y-13729290D02*
X16044038Y-13729290D01*
X16044038Y-13729290D02*
X16063086Y-13738814D01*
X16063086Y-13738814D02*
X16072610Y-13757862D01*
X16072610Y-13757862D02*
X16072610Y-13776909D01*
X16072610Y-13776909D02*
X15977372Y-13795957D01*
X16148800Y-13853100D02*
X16167848Y-13862624D01*
X16167848Y-13862624D02*
X16205943Y-13862624D01*
X16205943Y-13862624D02*
X16224991Y-13853100D01*
X16224991Y-13853100D02*
X16234515Y-13834052D01*
X16234515Y-13834052D02*
X16234515Y-13824528D01*
X16234515Y-13824528D02*
X16224991Y-13805481D01*
X16224991Y-13805481D02*
X16205943Y-13795957D01*
X16205943Y-13795957D02*
X16177372Y-13795957D01*
X16177372Y-13795957D02*
X16158324Y-13786433D01*
X16158324Y-13786433D02*
X16148800Y-13767386D01*
X16148800Y-13767386D02*
X16148800Y-13757862D01*
X16148800Y-13757862D02*
X16158324Y-13738814D01*
X16158324Y-13738814D02*
X16177372Y-13729290D01*
X16177372Y-13729290D02*
X16205943Y-13729290D01*
X16205943Y-13729290D02*
X16224991Y-13738814D01*
X16301181Y-13938814D02*
X16310705Y-13929290D01*
X16310705Y-13929290D02*
X16329753Y-13900719D01*
X16329753Y-13900719D02*
X16339277Y-13881671D01*
X16339277Y-13881671D02*
X16348800Y-13853100D01*
X16348800Y-13853100D02*
X16358324Y-13805481D01*
X16358324Y-13805481D02*
X16358324Y-13767386D01*
X16358324Y-13767386D02*
X16348800Y-13719767D01*
X16348800Y-13719767D02*
X16339277Y-13691195D01*
X16339277Y-13691195D02*
X16329753Y-13672148D01*
X16329753Y-13672148D02*
X16310705Y-13643576D01*
X16310705Y-13643576D02*
X16301181Y-13634052D01*
D10*
X11298800Y-14084100D02*
X11348800Y-14034100D01*
X11298800Y-13984100D01*
X11248800Y-14034100D01*
X11298800Y-14084100D01*
D11*
X11701181Y-14126624D02*
X11586895Y-14126624D01*
X11644038Y-14126624D02*
X11644038Y-13926624D01*
X11644038Y-13926624D02*
X11624990Y-13955195D01*
X11624990Y-13955195D02*
X11605943Y-13974243D01*
X11605943Y-13974243D02*
X11586895Y-13983767D01*
X11786895Y-14107576D02*
X11796419Y-14117100D01*
X11796419Y-14117100D02*
X11786895Y-14126624D01*
X11786895Y-14126624D02*
X11777371Y-14117100D01*
X11777371Y-14117100D02*
X11786895Y-14107576D01*
X11786895Y-14107576D02*
X11786895Y-14126624D01*
X11920228Y-13926624D02*
X11939276Y-13926624D01*
X11939276Y-13926624D02*
X11958324Y-13936148D01*
X11958324Y-13936148D02*
X11967848Y-13945671D01*
X11967848Y-13945671D02*
X11977371Y-13964719D01*
X11977371Y-13964719D02*
X11986895Y-14002814D01*
X11986895Y-14002814D02*
X11986895Y-14050433D01*
X11986895Y-14050433D02*
X11977371Y-14088528D01*
X11977371Y-14088528D02*
X11967848Y-14107576D01*
X11967848Y-14107576D02*
X11958324Y-14117100D01*
X11958324Y-14117100D02*
X11939276Y-14126624D01*
X11939276Y-14126624D02*
X11920228Y-14126624D01*
X11920228Y-14126624D02*
X11901181Y-14117100D01*
X11901181Y-14117100D02*
X11891657Y-14107576D01*
X11891657Y-14107576D02*
X11882133Y-14088528D01*
X11882133Y-14088528D02*
X11872609Y-14050433D01*
X11872609Y-14050433D02*
X11872609Y-14002814D01*
X11872609Y-14002814D02*
X11882133Y-13964719D01*
X11882133Y-13964719D02*
X11891657Y-13945671D01*
X11891657Y-13945671D02*
X11901181Y-13936148D01*
X11901181Y-13936148D02*
X11920228Y-13926624D01*
X12110705Y-13926624D02*
X12129752Y-13926624D01*
X12129752Y-13926624D02*
X12148800Y-13936148D01*
X12148800Y-13936148D02*
X12158324Y-13945671D01*
X12158324Y-13945671D02*
X12167848Y-13964719D01*
X12167848Y-13964719D02*
X12177371Y-14002814D01*
X12177371Y-14002814D02*
X12177371Y-14050433D01*
X12177371Y-14050433D02*
X12167848Y-14088528D01*
X12167848Y-14088528D02*
X12158324Y-14107576D01*
X12158324Y-14107576D02*
X12148800Y-14117100D01*
X12148800Y-14117100D02*
X12129752Y-14126624D01*
X12129752Y-14126624D02*
X12110705Y-14126624D01*
X12110705Y-14126624D02*
X12091657Y-14117100D01*
X12091657Y-14117100D02*
X12082133Y-14107576D01*
X12082133Y-14107576D02*
X12072609Y-14088528D01*
X12072609Y-14088528D02*
X12063086Y-14050433D01*
X12063086Y-14050433D02*
X12063086Y-14002814D01*
X12063086Y-14002814D02*
X12072609Y-13964719D01*
X12072609Y-13964719D02*
X12082133Y-13945671D01*
X12082133Y-13945671D02*
X12091657Y-13936148D01*
X12091657Y-13936148D02*
X12110705Y-13926624D01*
X12301181Y-13926624D02*
X12320229Y-13926624D01*
X12320229Y-13926624D02*
X12339276Y-13936148D01*
X12339276Y-13936148D02*
X12348800Y-13945671D01*
X12348800Y-13945671D02*
X12358324Y-13964719D01*
X12358324Y-13964719D02*
X12367848Y-14002814D01*
X12367848Y-14002814D02*
X12367848Y-14050433D01*
X12367848Y-14050433D02*
X12358324Y-14088528D01*
X12358324Y-14088528D02*
X12348800Y-14107576D01*
X12348800Y-14107576D02*
X12339276Y-14117100D01*
X12339276Y-14117100D02*
X12320229Y-14126624D01*
X12320229Y-14126624D02*
X12301181Y-14126624D01*
X12301181Y-14126624D02*
X12282133Y-14117100D01*
X12282133Y-14117100D02*
X12272609Y-14107576D01*
X12272609Y-14107576D02*
X12263086Y-14088528D01*
X12263086Y-14088528D02*
X12253562Y-14050433D01*
X12253562Y-14050433D02*
X12253562Y-14002814D01*
X12253562Y-14002814D02*
X12263086Y-13964719D01*
X12263086Y-13964719D02*
X12272609Y-13945671D01*
X12272609Y-13945671D02*
X12282133Y-13936148D01*
X12282133Y-13936148D02*
X12301181Y-13926624D01*
X12453562Y-14126624D02*
X12453562Y-13993290D01*
X12453562Y-14012338D02*
X12463086Y-14002814D01*
X12463086Y-14002814D02*
X12482133Y-13993290D01*
X12482133Y-13993290D02*
X12510705Y-13993290D01*
X12510705Y-13993290D02*
X12529752Y-14002814D01*
X12529752Y-14002814D02*
X12539276Y-14021862D01*
X12539276Y-14021862D02*
X12539276Y-14126624D01*
X12539276Y-14021862D02*
X12548800Y-14002814D01*
X12548800Y-14002814D02*
X12567848Y-13993290D01*
X12567848Y-13993290D02*
X12596419Y-13993290D01*
X12596419Y-13993290D02*
X12615467Y-14002814D01*
X12615467Y-14002814D02*
X12624990Y-14021862D01*
X12624990Y-14021862D02*
X12624990Y-14126624D01*
X12720229Y-14126624D02*
X12720229Y-13993290D01*
X12720229Y-14012338D02*
X12729752Y-14002814D01*
X12729752Y-14002814D02*
X12748800Y-13993290D01*
X12748800Y-13993290D02*
X12777371Y-13993290D01*
X12777371Y-13993290D02*
X12796419Y-14002814D01*
X12796419Y-14002814D02*
X12805943Y-14021862D01*
X12805943Y-14021862D02*
X12805943Y-14126624D01*
X12805943Y-14021862D02*
X12815467Y-14002814D01*
X12815467Y-14002814D02*
X12834514Y-13993290D01*
X12834514Y-13993290D02*
X12863086Y-13993290D01*
X12863086Y-13993290D02*
X12882133Y-14002814D01*
X12882133Y-14002814D02*
X12891657Y-14021862D01*
X12891657Y-14021862D02*
X12891657Y-14126624D01*
X13282133Y-13917100D02*
X13110705Y-14174243D01*
X13539276Y-13926624D02*
X13558324Y-13926624D01*
X13558324Y-13926624D02*
X13577372Y-13936148D01*
X13577372Y-13936148D02*
X13586895Y-13945671D01*
X13586895Y-13945671D02*
X13596419Y-13964719D01*
X13596419Y-13964719D02*
X13605943Y-14002814D01*
X13605943Y-14002814D02*
X13605943Y-14050433D01*
X13605943Y-14050433D02*
X13596419Y-14088528D01*
X13596419Y-14088528D02*
X13586895Y-14107576D01*
X13586895Y-14107576D02*
X13577372Y-14117100D01*
X13577372Y-14117100D02*
X13558324Y-14126624D01*
X13558324Y-14126624D02*
X13539276Y-14126624D01*
X13539276Y-14126624D02*
X13520229Y-14117100D01*
X13520229Y-14117100D02*
X13510705Y-14107576D01*
X13510705Y-14107576D02*
X13501181Y-14088528D01*
X13501181Y-14088528D02*
X13491657Y-14050433D01*
X13491657Y-14050433D02*
X13491657Y-14002814D01*
X13491657Y-14002814D02*
X13501181Y-13964719D01*
X13501181Y-13964719D02*
X13510705Y-13945671D01*
X13510705Y-13945671D02*
X13520229Y-13936148D01*
X13520229Y-13936148D02*
X13539276Y-13926624D01*
X13691657Y-14107576D02*
X13701181Y-14117100D01*
X13701181Y-14117100D02*
X13691657Y-14126624D01*
X13691657Y-14126624D02*
X13682133Y-14117100D01*
X13682133Y-14117100D02*
X13691657Y-14107576D01*
X13691657Y-14107576D02*
X13691657Y-14126624D01*
X13824991Y-13926624D02*
X13844038Y-13926624D01*
X13844038Y-13926624D02*
X13863086Y-13936148D01*
X13863086Y-13936148D02*
X13872610Y-13945671D01*
X13872610Y-13945671D02*
X13882133Y-13964719D01*
X13882133Y-13964719D02*
X13891657Y-14002814D01*
X13891657Y-14002814D02*
X13891657Y-14050433D01*
X13891657Y-14050433D02*
X13882133Y-14088528D01*
X13882133Y-14088528D02*
X13872610Y-14107576D01*
X13872610Y-14107576D02*
X13863086Y-14117100D01*
X13863086Y-14117100D02*
X13844038Y-14126624D01*
X13844038Y-14126624D02*
X13824991Y-14126624D01*
X13824991Y-14126624D02*
X13805943Y-14117100D01*
X13805943Y-14117100D02*
X13796419Y-14107576D01*
X13796419Y-14107576D02*
X13786895Y-14088528D01*
X13786895Y-14088528D02*
X13777372Y-14050433D01*
X13777372Y-14050433D02*
X13777372Y-14002814D01*
X13777372Y-14002814D02*
X13786895Y-13964719D01*
X13786895Y-13964719D02*
X13796419Y-13945671D01*
X13796419Y-13945671D02*
X13805943Y-13936148D01*
X13805943Y-13936148D02*
X13824991Y-13926624D01*
X13958324Y-13926624D02*
X14082133Y-13926624D01*
X14082133Y-13926624D02*
X14015467Y-14002814D01*
X14015467Y-14002814D02*
X14044038Y-14002814D01*
X14044038Y-14002814D02*
X14063086Y-14012338D01*
X14063086Y-14012338D02*
X14072610Y-14021862D01*
X14072610Y-14021862D02*
X14082133Y-14040909D01*
X14082133Y-14040909D02*
X14082133Y-14088528D01*
X14082133Y-14088528D02*
X14072610Y-14107576D01*
X14072610Y-14107576D02*
X14063086Y-14117100D01*
X14063086Y-14117100D02*
X14044038Y-14126624D01*
X14044038Y-14126624D02*
X13986895Y-14126624D01*
X13986895Y-14126624D02*
X13967848Y-14117100D01*
X13967848Y-14117100D02*
X13958324Y-14107576D01*
X14177372Y-14126624D02*
X14215467Y-14126624D01*
X14215467Y-14126624D02*
X14234514Y-14117100D01*
X14234514Y-14117100D02*
X14244038Y-14107576D01*
X14244038Y-14107576D02*
X14263086Y-14079005D01*
X14263086Y-14079005D02*
X14272610Y-14040909D01*
X14272610Y-14040909D02*
X14272610Y-13964719D01*
X14272610Y-13964719D02*
X14263086Y-13945671D01*
X14263086Y-13945671D02*
X14253562Y-13936148D01*
X14253562Y-13936148D02*
X14234514Y-13926624D01*
X14234514Y-13926624D02*
X14196419Y-13926624D01*
X14196419Y-13926624D02*
X14177372Y-13936148D01*
X14177372Y-13936148D02*
X14167848Y-13945671D01*
X14167848Y-13945671D02*
X14158324Y-13964719D01*
X14158324Y-13964719D02*
X14158324Y-14012338D01*
X14158324Y-14012338D02*
X14167848Y-14031386D01*
X14167848Y-14031386D02*
X14177372Y-14040909D01*
X14177372Y-14040909D02*
X14196419Y-14050433D01*
X14196419Y-14050433D02*
X14234514Y-14050433D01*
X14234514Y-14050433D02*
X14253562Y-14040909D01*
X14253562Y-14040909D02*
X14263086Y-14031386D01*
X14263086Y-14031386D02*
X14272610Y-14012338D01*
X14444038Y-13993290D02*
X14444038Y-14126624D01*
X14396419Y-13917100D02*
X14348800Y-14059957D01*
X14348800Y-14059957D02*
X14472610Y-14059957D01*
X14539276Y-13926624D02*
X14539276Y-13964719D01*
X14615467Y-13926624D02*
X14615467Y-13964719D01*
X14910705Y-14202814D02*
X14901181Y-14193290D01*
X14901181Y-14193290D02*
X14882134Y-14164719D01*
X14882134Y-14164719D02*
X14872610Y-14145671D01*
X14872610Y-14145671D02*
X14863086Y-14117100D01*
X14863086Y-14117100D02*
X14853562Y-14069481D01*
X14853562Y-14069481D02*
X14853562Y-14031386D01*
X14853562Y-14031386D02*
X14863086Y-13983767D01*
X14863086Y-13983767D02*
X14872610Y-13955195D01*
X14872610Y-13955195D02*
X14882134Y-13936148D01*
X14882134Y-13936148D02*
X14901181Y-13907576D01*
X14901181Y-13907576D02*
X14910705Y-13898052D01*
X15091657Y-14126624D02*
X14977372Y-14126624D01*
X15034514Y-14126624D02*
X15034514Y-13926624D01*
X15034514Y-13926624D02*
X15015467Y-13955195D01*
X15015467Y-13955195D02*
X14996419Y-13974243D01*
X14996419Y-13974243D02*
X14977372Y-13983767D01*
X15263086Y-13926624D02*
X15224991Y-13926624D01*
X15224991Y-13926624D02*
X15205943Y-13936148D01*
X15205943Y-13936148D02*
X15196419Y-13945671D01*
X15196419Y-13945671D02*
X15177372Y-13974243D01*
X15177372Y-13974243D02*
X15167848Y-14012338D01*
X15167848Y-14012338D02*
X15167848Y-14088528D01*
X15167848Y-14088528D02*
X15177372Y-14107576D01*
X15177372Y-14107576D02*
X15186895Y-14117100D01*
X15186895Y-14117100D02*
X15205943Y-14126624D01*
X15205943Y-14126624D02*
X15244038Y-14126624D01*
X15244038Y-14126624D02*
X15263086Y-14117100D01*
X15263086Y-14117100D02*
X15272610Y-14107576D01*
X15272610Y-14107576D02*
X15282134Y-14088528D01*
X15282134Y-14088528D02*
X15282134Y-14040909D01*
X15282134Y-14040909D02*
X15272610Y-14021862D01*
X15272610Y-14021862D02*
X15263086Y-14012338D01*
X15263086Y-14012338D02*
X15244038Y-14002814D01*
X15244038Y-14002814D02*
X15205943Y-14002814D01*
X15205943Y-14002814D02*
X15186895Y-14012338D01*
X15186895Y-14012338D02*
X15177372Y-14021862D01*
X15177372Y-14021862D02*
X15167848Y-14040909D01*
X15520229Y-14126624D02*
X15520229Y-13926624D01*
X15605943Y-14126624D02*
X15605943Y-14021862D01*
X15605943Y-14021862D02*
X15596419Y-14002814D01*
X15596419Y-14002814D02*
X15577372Y-13993290D01*
X15577372Y-13993290D02*
X15548800Y-13993290D01*
X15548800Y-13993290D02*
X15529753Y-14002814D01*
X15529753Y-14002814D02*
X15520229Y-14012338D01*
X15729753Y-14126624D02*
X15710705Y-14117100D01*
X15710705Y-14117100D02*
X15701181Y-14107576D01*
X15701181Y-14107576D02*
X15691657Y-14088528D01*
X15691657Y-14088528D02*
X15691657Y-14031386D01*
X15691657Y-14031386D02*
X15701181Y-14012338D01*
X15701181Y-14012338D02*
X15710705Y-14002814D01*
X15710705Y-14002814D02*
X15729753Y-13993290D01*
X15729753Y-13993290D02*
X15758324Y-13993290D01*
X15758324Y-13993290D02*
X15777372Y-14002814D01*
X15777372Y-14002814D02*
X15786896Y-14012338D01*
X15786896Y-14012338D02*
X15796419Y-14031386D01*
X15796419Y-14031386D02*
X15796419Y-14088528D01*
X15796419Y-14088528D02*
X15786896Y-14107576D01*
X15786896Y-14107576D02*
X15777372Y-14117100D01*
X15777372Y-14117100D02*
X15758324Y-14126624D01*
X15758324Y-14126624D02*
X15729753Y-14126624D01*
X15910705Y-14126624D02*
X15891657Y-14117100D01*
X15891657Y-14117100D02*
X15882134Y-14098052D01*
X15882134Y-14098052D02*
X15882134Y-13926624D01*
X16063086Y-14117100D02*
X16044038Y-14126624D01*
X16044038Y-14126624D02*
X16005943Y-14126624D01*
X16005943Y-14126624D02*
X15986896Y-14117100D01*
X15986896Y-14117100D02*
X15977372Y-14098052D01*
X15977372Y-14098052D02*
X15977372Y-14021862D01*
X15977372Y-14021862D02*
X15986896Y-14002814D01*
X15986896Y-14002814D02*
X16005943Y-13993290D01*
X16005943Y-13993290D02*
X16044038Y-13993290D01*
X16044038Y-13993290D02*
X16063086Y-14002814D01*
X16063086Y-14002814D02*
X16072610Y-14021862D01*
X16072610Y-14021862D02*
X16072610Y-14040909D01*
X16072610Y-14040909D02*
X15977372Y-14059957D01*
X16148800Y-14117100D02*
X16167848Y-14126624D01*
X16167848Y-14126624D02*
X16205943Y-14126624D01*
X16205943Y-14126624D02*
X16224991Y-14117100D01*
X16224991Y-14117100D02*
X16234515Y-14098052D01*
X16234515Y-14098052D02*
X16234515Y-14088528D01*
X16234515Y-14088528D02*
X16224991Y-14069481D01*
X16224991Y-14069481D02*
X16205943Y-14059957D01*
X16205943Y-14059957D02*
X16177372Y-14059957D01*
X16177372Y-14059957D02*
X16158324Y-14050433D01*
X16158324Y-14050433D02*
X16148800Y-14031386D01*
X16148800Y-14031386D02*
X16148800Y-14021862D01*
X16148800Y-14021862D02*
X16158324Y-14002814D01*
X16158324Y-14002814D02*
X16177372Y-13993290D01*
X16177372Y-13993290D02*
X16205943Y-13993290D01*
X16205943Y-13993290D02*
X16224991Y-14002814D01*
X16301181Y-14202814D02*
X16310705Y-14193290D01*
X16310705Y-14193290D02*
X16329753Y-14164719D01*
X16329753Y-14164719D02*
X16339277Y-14145671D01*
X16339277Y-14145671D02*
X16348800Y-14117100D01*
X16348800Y-14117100D02*
X16358324Y-14069481D01*
X16358324Y-14069481D02*
X16358324Y-14031386D01*
X16358324Y-14031386D02*
X16348800Y-13983767D01*
X16348800Y-13983767D02*
X16339277Y-13955195D01*
X16339277Y-13955195D02*
X16329753Y-13936148D01*
X16329753Y-13936148D02*
X16310705Y-13907576D01*
X16310705Y-13907576D02*
X16301181Y-13898052D01*
D16*
X11238800Y-14243100D02*
X11348800Y-14353100D01*
X11348800Y-14243100D02*
X11238800Y-14353100D01*
X11348800Y-14298100D02*
G75*
G03*
X11348800Y-14298100I-55000J0D01*
G01*
D11*
X11701181Y-14390624D02*
X11586895Y-14390624D01*
X11644038Y-14390624D02*
X11644038Y-14190624D01*
X11644038Y-14190624D02*
X11624990Y-14219195D01*
X11624990Y-14219195D02*
X11605943Y-14238243D01*
X11605943Y-14238243D02*
X11586895Y-14247767D01*
X11786895Y-14371576D02*
X11796419Y-14381100D01*
X11796419Y-14381100D02*
X11786895Y-14390624D01*
X11786895Y-14390624D02*
X11777371Y-14381100D01*
X11777371Y-14381100D02*
X11786895Y-14371576D01*
X11786895Y-14371576D02*
X11786895Y-14390624D01*
X11986895Y-14390624D02*
X11872609Y-14390624D01*
X11929752Y-14390624D02*
X11929752Y-14190624D01*
X11929752Y-14190624D02*
X11910705Y-14219195D01*
X11910705Y-14219195D02*
X11891657Y-14238243D01*
X11891657Y-14238243D02*
X11872609Y-14247767D01*
X12110705Y-14190624D02*
X12129752Y-14190624D01*
X12129752Y-14190624D02*
X12148800Y-14200148D01*
X12148800Y-14200148D02*
X12158324Y-14209671D01*
X12158324Y-14209671D02*
X12167848Y-14228719D01*
X12167848Y-14228719D02*
X12177371Y-14266814D01*
X12177371Y-14266814D02*
X12177371Y-14314433D01*
X12177371Y-14314433D02*
X12167848Y-14352528D01*
X12167848Y-14352528D02*
X12158324Y-14371576D01*
X12158324Y-14371576D02*
X12148800Y-14381100D01*
X12148800Y-14381100D02*
X12129752Y-14390624D01*
X12129752Y-14390624D02*
X12110705Y-14390624D01*
X12110705Y-14390624D02*
X12091657Y-14381100D01*
X12091657Y-14381100D02*
X12082133Y-14371576D01*
X12082133Y-14371576D02*
X12072609Y-14352528D01*
X12072609Y-14352528D02*
X12063086Y-14314433D01*
X12063086Y-14314433D02*
X12063086Y-14266814D01*
X12063086Y-14266814D02*
X12072609Y-14228719D01*
X12072609Y-14228719D02*
X12082133Y-14209671D01*
X12082133Y-14209671D02*
X12091657Y-14200148D01*
X12091657Y-14200148D02*
X12110705Y-14190624D01*
X12301181Y-14190624D02*
X12320229Y-14190624D01*
X12320229Y-14190624D02*
X12339276Y-14200148D01*
X12339276Y-14200148D02*
X12348800Y-14209671D01*
X12348800Y-14209671D02*
X12358324Y-14228719D01*
X12358324Y-14228719D02*
X12367848Y-14266814D01*
X12367848Y-14266814D02*
X12367848Y-14314433D01*
X12367848Y-14314433D02*
X12358324Y-14352528D01*
X12358324Y-14352528D02*
X12348800Y-14371576D01*
X12348800Y-14371576D02*
X12339276Y-14381100D01*
X12339276Y-14381100D02*
X12320229Y-14390624D01*
X12320229Y-14390624D02*
X12301181Y-14390624D01*
X12301181Y-14390624D02*
X12282133Y-14381100D01*
X12282133Y-14381100D02*
X12272609Y-14371576D01*
X12272609Y-14371576D02*
X12263086Y-14352528D01*
X12263086Y-14352528D02*
X12253562Y-14314433D01*
X12253562Y-14314433D02*
X12253562Y-14266814D01*
X12253562Y-14266814D02*
X12263086Y-14228719D01*
X12263086Y-14228719D02*
X12272609Y-14209671D01*
X12272609Y-14209671D02*
X12282133Y-14200148D01*
X12282133Y-14200148D02*
X12301181Y-14190624D01*
X12453562Y-14390624D02*
X12453562Y-14257290D01*
X12453562Y-14276338D02*
X12463086Y-14266814D01*
X12463086Y-14266814D02*
X12482133Y-14257290D01*
X12482133Y-14257290D02*
X12510705Y-14257290D01*
X12510705Y-14257290D02*
X12529752Y-14266814D01*
X12529752Y-14266814D02*
X12539276Y-14285862D01*
X12539276Y-14285862D02*
X12539276Y-14390624D01*
X12539276Y-14285862D02*
X12548800Y-14266814D01*
X12548800Y-14266814D02*
X12567848Y-14257290D01*
X12567848Y-14257290D02*
X12596419Y-14257290D01*
X12596419Y-14257290D02*
X12615467Y-14266814D01*
X12615467Y-14266814D02*
X12624990Y-14285862D01*
X12624990Y-14285862D02*
X12624990Y-14390624D01*
X12720229Y-14390624D02*
X12720229Y-14257290D01*
X12720229Y-14276338D02*
X12729752Y-14266814D01*
X12729752Y-14266814D02*
X12748800Y-14257290D01*
X12748800Y-14257290D02*
X12777371Y-14257290D01*
X12777371Y-14257290D02*
X12796419Y-14266814D01*
X12796419Y-14266814D02*
X12805943Y-14285862D01*
X12805943Y-14285862D02*
X12805943Y-14390624D01*
X12805943Y-14285862D02*
X12815467Y-14266814D01*
X12815467Y-14266814D02*
X12834514Y-14257290D01*
X12834514Y-14257290D02*
X12863086Y-14257290D01*
X12863086Y-14257290D02*
X12882133Y-14266814D01*
X12882133Y-14266814D02*
X12891657Y-14285862D01*
X12891657Y-14285862D02*
X12891657Y-14390624D01*
X13282133Y-14181100D02*
X13110705Y-14438243D01*
X13539276Y-14190624D02*
X13558324Y-14190624D01*
X13558324Y-14190624D02*
X13577372Y-14200148D01*
X13577372Y-14200148D02*
X13586895Y-14209671D01*
X13586895Y-14209671D02*
X13596419Y-14228719D01*
X13596419Y-14228719D02*
X13605943Y-14266814D01*
X13605943Y-14266814D02*
X13605943Y-14314433D01*
X13605943Y-14314433D02*
X13596419Y-14352528D01*
X13596419Y-14352528D02*
X13586895Y-14371576D01*
X13586895Y-14371576D02*
X13577372Y-14381100D01*
X13577372Y-14381100D02*
X13558324Y-14390624D01*
X13558324Y-14390624D02*
X13539276Y-14390624D01*
X13539276Y-14390624D02*
X13520229Y-14381100D01*
X13520229Y-14381100D02*
X13510705Y-14371576D01*
X13510705Y-14371576D02*
X13501181Y-14352528D01*
X13501181Y-14352528D02*
X13491657Y-14314433D01*
X13491657Y-14314433D02*
X13491657Y-14266814D01*
X13491657Y-14266814D02*
X13501181Y-14228719D01*
X13501181Y-14228719D02*
X13510705Y-14209671D01*
X13510705Y-14209671D02*
X13520229Y-14200148D01*
X13520229Y-14200148D02*
X13539276Y-14190624D01*
X13691657Y-14371576D02*
X13701181Y-14381100D01*
X13701181Y-14381100D02*
X13691657Y-14390624D01*
X13691657Y-14390624D02*
X13682133Y-14381100D01*
X13682133Y-14381100D02*
X13691657Y-14371576D01*
X13691657Y-14371576D02*
X13691657Y-14390624D01*
X13824991Y-14190624D02*
X13844038Y-14190624D01*
X13844038Y-14190624D02*
X13863086Y-14200148D01*
X13863086Y-14200148D02*
X13872610Y-14209671D01*
X13872610Y-14209671D02*
X13882133Y-14228719D01*
X13882133Y-14228719D02*
X13891657Y-14266814D01*
X13891657Y-14266814D02*
X13891657Y-14314433D01*
X13891657Y-14314433D02*
X13882133Y-14352528D01*
X13882133Y-14352528D02*
X13872610Y-14371576D01*
X13872610Y-14371576D02*
X13863086Y-14381100D01*
X13863086Y-14381100D02*
X13844038Y-14390624D01*
X13844038Y-14390624D02*
X13824991Y-14390624D01*
X13824991Y-14390624D02*
X13805943Y-14381100D01*
X13805943Y-14381100D02*
X13796419Y-14371576D01*
X13796419Y-14371576D02*
X13786895Y-14352528D01*
X13786895Y-14352528D02*
X13777372Y-14314433D01*
X13777372Y-14314433D02*
X13777372Y-14266814D01*
X13777372Y-14266814D02*
X13786895Y-14228719D01*
X13786895Y-14228719D02*
X13796419Y-14209671D01*
X13796419Y-14209671D02*
X13805943Y-14200148D01*
X13805943Y-14200148D02*
X13824991Y-14190624D01*
X14063086Y-14257290D02*
X14063086Y-14390624D01*
X14015467Y-14181100D02*
X13967848Y-14323957D01*
X13967848Y-14323957D02*
X14091657Y-14323957D01*
X14148800Y-14190624D02*
X14272610Y-14190624D01*
X14272610Y-14190624D02*
X14205943Y-14266814D01*
X14205943Y-14266814D02*
X14234514Y-14266814D01*
X14234514Y-14266814D02*
X14253562Y-14276338D01*
X14253562Y-14276338D02*
X14263086Y-14285862D01*
X14263086Y-14285862D02*
X14272610Y-14304909D01*
X14272610Y-14304909D02*
X14272610Y-14352528D01*
X14272610Y-14352528D02*
X14263086Y-14371576D01*
X14263086Y-14371576D02*
X14253562Y-14381100D01*
X14253562Y-14381100D02*
X14234514Y-14390624D01*
X14234514Y-14390624D02*
X14177372Y-14390624D01*
X14177372Y-14390624D02*
X14158324Y-14381100D01*
X14158324Y-14381100D02*
X14148800Y-14371576D01*
X14339276Y-14190624D02*
X14463086Y-14190624D01*
X14463086Y-14190624D02*
X14396419Y-14266814D01*
X14396419Y-14266814D02*
X14424991Y-14266814D01*
X14424991Y-14266814D02*
X14444038Y-14276338D01*
X14444038Y-14276338D02*
X14453562Y-14285862D01*
X14453562Y-14285862D02*
X14463086Y-14304909D01*
X14463086Y-14304909D02*
X14463086Y-14352528D01*
X14463086Y-14352528D02*
X14453562Y-14371576D01*
X14453562Y-14371576D02*
X14444038Y-14381100D01*
X14444038Y-14381100D02*
X14424991Y-14390624D01*
X14424991Y-14390624D02*
X14367848Y-14390624D01*
X14367848Y-14390624D02*
X14348800Y-14381100D01*
X14348800Y-14381100D02*
X14339276Y-14371576D01*
X14539276Y-14190624D02*
X14539276Y-14228719D01*
X14615467Y-14190624D02*
X14615467Y-14228719D01*
X14910705Y-14466814D02*
X14901181Y-14457290D01*
X14901181Y-14457290D02*
X14882134Y-14428719D01*
X14882134Y-14428719D02*
X14872610Y-14409671D01*
X14872610Y-14409671D02*
X14863086Y-14381100D01*
X14863086Y-14381100D02*
X14853562Y-14333481D01*
X14853562Y-14333481D02*
X14853562Y-14295386D01*
X14853562Y-14295386D02*
X14863086Y-14247767D01*
X14863086Y-14247767D02*
X14872610Y-14219195D01*
X14872610Y-14219195D02*
X14882134Y-14200148D01*
X14882134Y-14200148D02*
X14901181Y-14171576D01*
X14901181Y-14171576D02*
X14910705Y-14162052D01*
X15072610Y-14257290D02*
X15072610Y-14390624D01*
X15024991Y-14181100D02*
X14977372Y-14323957D01*
X14977372Y-14323957D02*
X15101181Y-14323957D01*
X15167848Y-14209671D02*
X15177372Y-14200148D01*
X15177372Y-14200148D02*
X15196419Y-14190624D01*
X15196419Y-14190624D02*
X15244038Y-14190624D01*
X15244038Y-14190624D02*
X15263086Y-14200148D01*
X15263086Y-14200148D02*
X15272610Y-14209671D01*
X15272610Y-14209671D02*
X15282134Y-14228719D01*
X15282134Y-14228719D02*
X15282134Y-14247767D01*
X15282134Y-14247767D02*
X15272610Y-14276338D01*
X15272610Y-14276338D02*
X15158324Y-14390624D01*
X15158324Y-14390624D02*
X15282134Y-14390624D01*
X15520229Y-14390624D02*
X15520229Y-14190624D01*
X15605943Y-14390624D02*
X15605943Y-14285862D01*
X15605943Y-14285862D02*
X15596419Y-14266814D01*
X15596419Y-14266814D02*
X15577372Y-14257290D01*
X15577372Y-14257290D02*
X15548800Y-14257290D01*
X15548800Y-14257290D02*
X15529753Y-14266814D01*
X15529753Y-14266814D02*
X15520229Y-14276338D01*
X15729753Y-14390624D02*
X15710705Y-14381100D01*
X15710705Y-14381100D02*
X15701181Y-14371576D01*
X15701181Y-14371576D02*
X15691657Y-14352528D01*
X15691657Y-14352528D02*
X15691657Y-14295386D01*
X15691657Y-14295386D02*
X15701181Y-14276338D01*
X15701181Y-14276338D02*
X15710705Y-14266814D01*
X15710705Y-14266814D02*
X15729753Y-14257290D01*
X15729753Y-14257290D02*
X15758324Y-14257290D01*
X15758324Y-14257290D02*
X15777372Y-14266814D01*
X15777372Y-14266814D02*
X15786896Y-14276338D01*
X15786896Y-14276338D02*
X15796419Y-14295386D01*
X15796419Y-14295386D02*
X15796419Y-14352528D01*
X15796419Y-14352528D02*
X15786896Y-14371576D01*
X15786896Y-14371576D02*
X15777372Y-14381100D01*
X15777372Y-14381100D02*
X15758324Y-14390624D01*
X15758324Y-14390624D02*
X15729753Y-14390624D01*
X15910705Y-14390624D02*
X15891657Y-14381100D01*
X15891657Y-14381100D02*
X15882134Y-14362052D01*
X15882134Y-14362052D02*
X15882134Y-14190624D01*
X16063086Y-14381100D02*
X16044038Y-14390624D01*
X16044038Y-14390624D02*
X16005943Y-14390624D01*
X16005943Y-14390624D02*
X15986896Y-14381100D01*
X15986896Y-14381100D02*
X15977372Y-14362052D01*
X15977372Y-14362052D02*
X15977372Y-14285862D01*
X15977372Y-14285862D02*
X15986896Y-14266814D01*
X15986896Y-14266814D02*
X16005943Y-14257290D01*
X16005943Y-14257290D02*
X16044038Y-14257290D01*
X16044038Y-14257290D02*
X16063086Y-14266814D01*
X16063086Y-14266814D02*
X16072610Y-14285862D01*
X16072610Y-14285862D02*
X16072610Y-14304909D01*
X16072610Y-14304909D02*
X15977372Y-14323957D01*
X16148800Y-14381100D02*
X16167848Y-14390624D01*
X16167848Y-14390624D02*
X16205943Y-14390624D01*
X16205943Y-14390624D02*
X16224991Y-14381100D01*
X16224991Y-14381100D02*
X16234515Y-14362052D01*
X16234515Y-14362052D02*
X16234515Y-14352528D01*
X16234515Y-14352528D02*
X16224991Y-14333481D01*
X16224991Y-14333481D02*
X16205943Y-14323957D01*
X16205943Y-14323957D02*
X16177372Y-14323957D01*
X16177372Y-14323957D02*
X16158324Y-14314433D01*
X16158324Y-14314433D02*
X16148800Y-14295386D01*
X16148800Y-14295386D02*
X16148800Y-14285862D01*
X16148800Y-14285862D02*
X16158324Y-14266814D01*
X16158324Y-14266814D02*
X16177372Y-14257290D01*
X16177372Y-14257290D02*
X16205943Y-14257290D01*
X16205943Y-14257290D02*
X16224991Y-14266814D01*
X16301181Y-14466814D02*
X16310705Y-14457290D01*
X16310705Y-14457290D02*
X16329753Y-14428719D01*
X16329753Y-14428719D02*
X16339277Y-14409671D01*
X16339277Y-14409671D02*
X16348800Y-14381100D01*
X16348800Y-14381100D02*
X16358324Y-14333481D01*
X16358324Y-14333481D02*
X16358324Y-14295386D01*
X16358324Y-14295386D02*
X16348800Y-14247767D01*
X16348800Y-14247767D02*
X16339277Y-14219195D01*
X16339277Y-14219195D02*
X16329753Y-14200148D01*
X16329753Y-14200148D02*
X16310705Y-14171576D01*
X16310705Y-14171576D02*
X16301181Y-14162052D01*
D17*
X11229800Y-14502600D02*
X11348800Y-14621600D01*
X11348800Y-14502600D02*
X11229800Y-14621600D01*
X11289300Y-14502600D02*
X11289300Y-14621600D01*
X11229800Y-14562100D02*
X11348800Y-14562100D01*
D11*
X11701181Y-14654624D02*
X11586895Y-14654624D01*
X11644038Y-14654624D02*
X11644038Y-14454624D01*
X11644038Y-14454624D02*
X11624990Y-14483195D01*
X11624990Y-14483195D02*
X11605943Y-14502243D01*
X11605943Y-14502243D02*
X11586895Y-14511767D01*
X11786895Y-14635576D02*
X11796419Y-14645100D01*
X11796419Y-14645100D02*
X11786895Y-14654624D01*
X11786895Y-14654624D02*
X11777371Y-14645100D01*
X11777371Y-14645100D02*
X11786895Y-14635576D01*
X11786895Y-14635576D02*
X11786895Y-14654624D01*
X11986895Y-14654624D02*
X11872609Y-14654624D01*
X11929752Y-14654624D02*
X11929752Y-14454624D01*
X11929752Y-14454624D02*
X11910705Y-14483195D01*
X11910705Y-14483195D02*
X11891657Y-14502243D01*
X11891657Y-14502243D02*
X11872609Y-14511767D01*
X12082133Y-14654624D02*
X12120228Y-14654624D01*
X12120228Y-14654624D02*
X12139276Y-14645100D01*
X12139276Y-14645100D02*
X12148800Y-14635576D01*
X12148800Y-14635576D02*
X12167848Y-14607005D01*
X12167848Y-14607005D02*
X12177371Y-14568909D01*
X12177371Y-14568909D02*
X12177371Y-14492719D01*
X12177371Y-14492719D02*
X12167848Y-14473671D01*
X12167848Y-14473671D02*
X12158324Y-14464148D01*
X12158324Y-14464148D02*
X12139276Y-14454624D01*
X12139276Y-14454624D02*
X12101181Y-14454624D01*
X12101181Y-14454624D02*
X12082133Y-14464148D01*
X12082133Y-14464148D02*
X12072609Y-14473671D01*
X12072609Y-14473671D02*
X12063086Y-14492719D01*
X12063086Y-14492719D02*
X12063086Y-14540338D01*
X12063086Y-14540338D02*
X12072609Y-14559386D01*
X12072609Y-14559386D02*
X12082133Y-14568909D01*
X12082133Y-14568909D02*
X12101181Y-14578433D01*
X12101181Y-14578433D02*
X12139276Y-14578433D01*
X12139276Y-14578433D02*
X12158324Y-14568909D01*
X12158324Y-14568909D02*
X12167848Y-14559386D01*
X12167848Y-14559386D02*
X12177371Y-14540338D01*
X12301181Y-14454624D02*
X12320229Y-14454624D01*
X12320229Y-14454624D02*
X12339276Y-14464148D01*
X12339276Y-14464148D02*
X12348800Y-14473671D01*
X12348800Y-14473671D02*
X12358324Y-14492719D01*
X12358324Y-14492719D02*
X12367848Y-14530814D01*
X12367848Y-14530814D02*
X12367848Y-14578433D01*
X12367848Y-14578433D02*
X12358324Y-14616528D01*
X12358324Y-14616528D02*
X12348800Y-14635576D01*
X12348800Y-14635576D02*
X12339276Y-14645100D01*
X12339276Y-14645100D02*
X12320229Y-14654624D01*
X12320229Y-14654624D02*
X12301181Y-14654624D01*
X12301181Y-14654624D02*
X12282133Y-14645100D01*
X12282133Y-14645100D02*
X12272609Y-14635576D01*
X12272609Y-14635576D02*
X12263086Y-14616528D01*
X12263086Y-14616528D02*
X12253562Y-14578433D01*
X12253562Y-14578433D02*
X12253562Y-14530814D01*
X12253562Y-14530814D02*
X12263086Y-14492719D01*
X12263086Y-14492719D02*
X12272609Y-14473671D01*
X12272609Y-14473671D02*
X12282133Y-14464148D01*
X12282133Y-14464148D02*
X12301181Y-14454624D01*
X12453562Y-14654624D02*
X12453562Y-14521290D01*
X12453562Y-14540338D02*
X12463086Y-14530814D01*
X12463086Y-14530814D02*
X12482133Y-14521290D01*
X12482133Y-14521290D02*
X12510705Y-14521290D01*
X12510705Y-14521290D02*
X12529752Y-14530814D01*
X12529752Y-14530814D02*
X12539276Y-14549862D01*
X12539276Y-14549862D02*
X12539276Y-14654624D01*
X12539276Y-14549862D02*
X12548800Y-14530814D01*
X12548800Y-14530814D02*
X12567848Y-14521290D01*
X12567848Y-14521290D02*
X12596419Y-14521290D01*
X12596419Y-14521290D02*
X12615467Y-14530814D01*
X12615467Y-14530814D02*
X12624990Y-14549862D01*
X12624990Y-14549862D02*
X12624990Y-14654624D01*
X12720229Y-14654624D02*
X12720229Y-14521290D01*
X12720229Y-14540338D02*
X12729752Y-14530814D01*
X12729752Y-14530814D02*
X12748800Y-14521290D01*
X12748800Y-14521290D02*
X12777371Y-14521290D01*
X12777371Y-14521290D02*
X12796419Y-14530814D01*
X12796419Y-14530814D02*
X12805943Y-14549862D01*
X12805943Y-14549862D02*
X12805943Y-14654624D01*
X12805943Y-14549862D02*
X12815467Y-14530814D01*
X12815467Y-14530814D02*
X12834514Y-14521290D01*
X12834514Y-14521290D02*
X12863086Y-14521290D01*
X12863086Y-14521290D02*
X12882133Y-14530814D01*
X12882133Y-14530814D02*
X12891657Y-14549862D01*
X12891657Y-14549862D02*
X12891657Y-14654624D01*
X13282133Y-14445100D02*
X13110705Y-14702243D01*
X13539276Y-14454624D02*
X13558324Y-14454624D01*
X13558324Y-14454624D02*
X13577372Y-14464148D01*
X13577372Y-14464148D02*
X13586895Y-14473671D01*
X13586895Y-14473671D02*
X13596419Y-14492719D01*
X13596419Y-14492719D02*
X13605943Y-14530814D01*
X13605943Y-14530814D02*
X13605943Y-14578433D01*
X13605943Y-14578433D02*
X13596419Y-14616528D01*
X13596419Y-14616528D02*
X13586895Y-14635576D01*
X13586895Y-14635576D02*
X13577372Y-14645100D01*
X13577372Y-14645100D02*
X13558324Y-14654624D01*
X13558324Y-14654624D02*
X13539276Y-14654624D01*
X13539276Y-14654624D02*
X13520229Y-14645100D01*
X13520229Y-14645100D02*
X13510705Y-14635576D01*
X13510705Y-14635576D02*
X13501181Y-14616528D01*
X13501181Y-14616528D02*
X13491657Y-14578433D01*
X13491657Y-14578433D02*
X13491657Y-14530814D01*
X13491657Y-14530814D02*
X13501181Y-14492719D01*
X13501181Y-14492719D02*
X13510705Y-14473671D01*
X13510705Y-14473671D02*
X13520229Y-14464148D01*
X13520229Y-14464148D02*
X13539276Y-14454624D01*
X13691657Y-14635576D02*
X13701181Y-14645100D01*
X13701181Y-14645100D02*
X13691657Y-14654624D01*
X13691657Y-14654624D02*
X13682133Y-14645100D01*
X13682133Y-14645100D02*
X13691657Y-14635576D01*
X13691657Y-14635576D02*
X13691657Y-14654624D01*
X13824991Y-14454624D02*
X13844038Y-14454624D01*
X13844038Y-14454624D02*
X13863086Y-14464148D01*
X13863086Y-14464148D02*
X13872610Y-14473671D01*
X13872610Y-14473671D02*
X13882133Y-14492719D01*
X13882133Y-14492719D02*
X13891657Y-14530814D01*
X13891657Y-14530814D02*
X13891657Y-14578433D01*
X13891657Y-14578433D02*
X13882133Y-14616528D01*
X13882133Y-14616528D02*
X13872610Y-14635576D01*
X13872610Y-14635576D02*
X13863086Y-14645100D01*
X13863086Y-14645100D02*
X13844038Y-14654624D01*
X13844038Y-14654624D02*
X13824991Y-14654624D01*
X13824991Y-14654624D02*
X13805943Y-14645100D01*
X13805943Y-14645100D02*
X13796419Y-14635576D01*
X13796419Y-14635576D02*
X13786895Y-14616528D01*
X13786895Y-14616528D02*
X13777372Y-14578433D01*
X13777372Y-14578433D02*
X13777372Y-14530814D01*
X13777372Y-14530814D02*
X13786895Y-14492719D01*
X13786895Y-14492719D02*
X13796419Y-14473671D01*
X13796419Y-14473671D02*
X13805943Y-14464148D01*
X13805943Y-14464148D02*
X13824991Y-14454624D01*
X14063086Y-14521290D02*
X14063086Y-14654624D01*
X14015467Y-14445100D02*
X13967848Y-14587957D01*
X13967848Y-14587957D02*
X14091657Y-14587957D01*
X14253562Y-14454624D02*
X14215467Y-14454624D01*
X14215467Y-14454624D02*
X14196419Y-14464148D01*
X14196419Y-14464148D02*
X14186895Y-14473671D01*
X14186895Y-14473671D02*
X14167848Y-14502243D01*
X14167848Y-14502243D02*
X14158324Y-14540338D01*
X14158324Y-14540338D02*
X14158324Y-14616528D01*
X14158324Y-14616528D02*
X14167848Y-14635576D01*
X14167848Y-14635576D02*
X14177372Y-14645100D01*
X14177372Y-14645100D02*
X14196419Y-14654624D01*
X14196419Y-14654624D02*
X14234514Y-14654624D01*
X14234514Y-14654624D02*
X14253562Y-14645100D01*
X14253562Y-14645100D02*
X14263086Y-14635576D01*
X14263086Y-14635576D02*
X14272610Y-14616528D01*
X14272610Y-14616528D02*
X14272610Y-14568909D01*
X14272610Y-14568909D02*
X14263086Y-14549862D01*
X14263086Y-14549862D02*
X14253562Y-14540338D01*
X14253562Y-14540338D02*
X14234514Y-14530814D01*
X14234514Y-14530814D02*
X14196419Y-14530814D01*
X14196419Y-14530814D02*
X14177372Y-14540338D01*
X14177372Y-14540338D02*
X14167848Y-14549862D01*
X14167848Y-14549862D02*
X14158324Y-14568909D01*
X14367848Y-14654624D02*
X14405943Y-14654624D01*
X14405943Y-14654624D02*
X14424991Y-14645100D01*
X14424991Y-14645100D02*
X14434514Y-14635576D01*
X14434514Y-14635576D02*
X14453562Y-14607005D01*
X14453562Y-14607005D02*
X14463086Y-14568909D01*
X14463086Y-14568909D02*
X14463086Y-14492719D01*
X14463086Y-14492719D02*
X14453562Y-14473671D01*
X14453562Y-14473671D02*
X14444038Y-14464148D01*
X14444038Y-14464148D02*
X14424991Y-14454624D01*
X14424991Y-14454624D02*
X14386895Y-14454624D01*
X14386895Y-14454624D02*
X14367848Y-14464148D01*
X14367848Y-14464148D02*
X14358324Y-14473671D01*
X14358324Y-14473671D02*
X14348800Y-14492719D01*
X14348800Y-14492719D02*
X14348800Y-14540338D01*
X14348800Y-14540338D02*
X14358324Y-14559386D01*
X14358324Y-14559386D02*
X14367848Y-14568909D01*
X14367848Y-14568909D02*
X14386895Y-14578433D01*
X14386895Y-14578433D02*
X14424991Y-14578433D01*
X14424991Y-14578433D02*
X14444038Y-14568909D01*
X14444038Y-14568909D02*
X14453562Y-14559386D01*
X14453562Y-14559386D02*
X14463086Y-14540338D01*
X14539276Y-14454624D02*
X14539276Y-14492719D01*
X14615467Y-14454624D02*
X14615467Y-14492719D01*
X14910705Y-14730814D02*
X14901181Y-14721290D01*
X14901181Y-14721290D02*
X14882134Y-14692719D01*
X14882134Y-14692719D02*
X14872610Y-14673671D01*
X14872610Y-14673671D02*
X14863086Y-14645100D01*
X14863086Y-14645100D02*
X14853562Y-14597481D01*
X14853562Y-14597481D02*
X14853562Y-14559386D01*
X14853562Y-14559386D02*
X14863086Y-14511767D01*
X14863086Y-14511767D02*
X14872610Y-14483195D01*
X14872610Y-14483195D02*
X14882134Y-14464148D01*
X14882134Y-14464148D02*
X14901181Y-14435576D01*
X14901181Y-14435576D02*
X14910705Y-14426052D01*
X14977372Y-14473671D02*
X14986895Y-14464148D01*
X14986895Y-14464148D02*
X15005943Y-14454624D01*
X15005943Y-14454624D02*
X15053562Y-14454624D01*
X15053562Y-14454624D02*
X15072610Y-14464148D01*
X15072610Y-14464148D02*
X15082134Y-14473671D01*
X15082134Y-14473671D02*
X15091657Y-14492719D01*
X15091657Y-14492719D02*
X15091657Y-14511767D01*
X15091657Y-14511767D02*
X15082134Y-14540338D01*
X15082134Y-14540338D02*
X14967848Y-14654624D01*
X14967848Y-14654624D02*
X15091657Y-14654624D01*
X15263086Y-14454624D02*
X15224991Y-14454624D01*
X15224991Y-14454624D02*
X15205943Y-14464148D01*
X15205943Y-14464148D02*
X15196419Y-14473671D01*
X15196419Y-14473671D02*
X15177372Y-14502243D01*
X15177372Y-14502243D02*
X15167848Y-14540338D01*
X15167848Y-14540338D02*
X15167848Y-14616528D01*
X15167848Y-14616528D02*
X15177372Y-14635576D01*
X15177372Y-14635576D02*
X15186895Y-14645100D01*
X15186895Y-14645100D02*
X15205943Y-14654624D01*
X15205943Y-14654624D02*
X15244038Y-14654624D01*
X15244038Y-14654624D02*
X15263086Y-14645100D01*
X15263086Y-14645100D02*
X15272610Y-14635576D01*
X15272610Y-14635576D02*
X15282134Y-14616528D01*
X15282134Y-14616528D02*
X15282134Y-14568909D01*
X15282134Y-14568909D02*
X15272610Y-14549862D01*
X15272610Y-14549862D02*
X15263086Y-14540338D01*
X15263086Y-14540338D02*
X15244038Y-14530814D01*
X15244038Y-14530814D02*
X15205943Y-14530814D01*
X15205943Y-14530814D02*
X15186895Y-14540338D01*
X15186895Y-14540338D02*
X15177372Y-14549862D01*
X15177372Y-14549862D02*
X15167848Y-14568909D01*
X15520229Y-14654624D02*
X15520229Y-14454624D01*
X15605943Y-14654624D02*
X15605943Y-14549862D01*
X15605943Y-14549862D02*
X15596419Y-14530814D01*
X15596419Y-14530814D02*
X15577372Y-14521290D01*
X15577372Y-14521290D02*
X15548800Y-14521290D01*
X15548800Y-14521290D02*
X15529753Y-14530814D01*
X15529753Y-14530814D02*
X15520229Y-14540338D01*
X15729753Y-14654624D02*
X15710705Y-14645100D01*
X15710705Y-14645100D02*
X15701181Y-14635576D01*
X15701181Y-14635576D02*
X15691657Y-14616528D01*
X15691657Y-14616528D02*
X15691657Y-14559386D01*
X15691657Y-14559386D02*
X15701181Y-14540338D01*
X15701181Y-14540338D02*
X15710705Y-14530814D01*
X15710705Y-14530814D02*
X15729753Y-14521290D01*
X15729753Y-14521290D02*
X15758324Y-14521290D01*
X15758324Y-14521290D02*
X15777372Y-14530814D01*
X15777372Y-14530814D02*
X15786896Y-14540338D01*
X15786896Y-14540338D02*
X15796419Y-14559386D01*
X15796419Y-14559386D02*
X15796419Y-14616528D01*
X15796419Y-14616528D02*
X15786896Y-14635576D01*
X15786896Y-14635576D02*
X15777372Y-14645100D01*
X15777372Y-14645100D02*
X15758324Y-14654624D01*
X15758324Y-14654624D02*
X15729753Y-14654624D01*
X15910705Y-14654624D02*
X15891657Y-14645100D01*
X15891657Y-14645100D02*
X15882134Y-14626052D01*
X15882134Y-14626052D02*
X15882134Y-14454624D01*
X16063086Y-14645100D02*
X16044038Y-14654624D01*
X16044038Y-14654624D02*
X16005943Y-14654624D01*
X16005943Y-14654624D02*
X15986896Y-14645100D01*
X15986896Y-14645100D02*
X15977372Y-14626052D01*
X15977372Y-14626052D02*
X15977372Y-14549862D01*
X15977372Y-14549862D02*
X15986896Y-14530814D01*
X15986896Y-14530814D02*
X16005943Y-14521290D01*
X16005943Y-14521290D02*
X16044038Y-14521290D01*
X16044038Y-14521290D02*
X16063086Y-14530814D01*
X16063086Y-14530814D02*
X16072610Y-14549862D01*
X16072610Y-14549862D02*
X16072610Y-14568909D01*
X16072610Y-14568909D02*
X15977372Y-14587957D01*
X16148800Y-14645100D02*
X16167848Y-14654624D01*
X16167848Y-14654624D02*
X16205943Y-14654624D01*
X16205943Y-14654624D02*
X16224991Y-14645100D01*
X16224991Y-14645100D02*
X16234515Y-14626052D01*
X16234515Y-14626052D02*
X16234515Y-14616528D01*
X16234515Y-14616528D02*
X16224991Y-14597481D01*
X16224991Y-14597481D02*
X16205943Y-14587957D01*
X16205943Y-14587957D02*
X16177372Y-14587957D01*
X16177372Y-14587957D02*
X16158324Y-14578433D01*
X16158324Y-14578433D02*
X16148800Y-14559386D01*
X16148800Y-14559386D02*
X16148800Y-14549862D01*
X16148800Y-14549862D02*
X16158324Y-14530814D01*
X16158324Y-14530814D02*
X16177372Y-14521290D01*
X16177372Y-14521290D02*
X16205943Y-14521290D01*
X16205943Y-14521290D02*
X16224991Y-14530814D01*
X16301181Y-14730814D02*
X16310705Y-14721290D01*
X16310705Y-14721290D02*
X16329753Y-14692719D01*
X16329753Y-14692719D02*
X16339277Y-14673671D01*
X16339277Y-14673671D02*
X16348800Y-14645100D01*
X16348800Y-14645100D02*
X16358324Y-14597481D01*
X16358324Y-14597481D02*
X16358324Y-14559386D01*
X16358324Y-14559386D02*
X16348800Y-14511767D01*
X16348800Y-14511767D02*
X16339277Y-14483195D01*
X16339277Y-14483195D02*
X16329753Y-14464148D01*
X16329753Y-14464148D02*
X16310705Y-14435576D01*
X16310705Y-14435576D02*
X16301181Y-14426052D01*
M02*
