G04 #@! TF.GenerationSoftware,KiCad,Pcbnew,7.0.1*
G04 #@! TF.CreationDate,2023-07-05T13:59:42-05:00*
G04 #@! TF.ProjectId,shift register mosfet array,73686966-7420-4726-9567-697374657220,rev?*
G04 #@! TF.SameCoordinates,Original*
G04 #@! TF.FileFunction,Legend,Top*
G04 #@! TF.FilePolarity,Positive*
%FSLAX46Y46*%
G04 Gerber Fmt 4.6, Leading zero omitted, Abs format (unit mm)*
G04 Created by KiCad (PCBNEW 7.0.1) date 2023-07-05 13:59:42*
%MOMM*%
%LPD*%
G01*
G04 APERTURE LIST*
G04 Aperture macros list*
%AMRoundRect*
0 Rectangle with rounded corners*
0 $1 Rounding radius*
0 $2 $3 $4 $5 $6 $7 $8 $9 X,Y pos of 4 corners*
0 Add a 4 corners polygon primitive as box body*
4,1,4,$2,$3,$4,$5,$6,$7,$8,$9,$2,$3,0*
0 Add four circle primitives for the rounded corners*
1,1,$1+$1,$2,$3*
1,1,$1+$1,$4,$5*
1,1,$1+$1,$6,$7*
1,1,$1+$1,$8,$9*
0 Add four rect primitives between the rounded corners*
20,1,$1+$1,$2,$3,$4,$5,0*
20,1,$1+$1,$4,$5,$6,$7,0*
20,1,$1+$1,$6,$7,$8,$9,0*
20,1,$1+$1,$8,$9,$2,$3,0*%
G04 Aperture macros list end*
%ADD10C,0.250000*%
%ADD11C,0.150000*%
%ADD12C,0.100000*%
%ADD13C,0.187500*%
%ADD14C,0.120000*%
%ADD15R,2.000000X1.905000*%
%ADD16O,2.000000X1.905000*%
%ADD17R,1.700000X1.700000*%
%ADD18RoundRect,0.250000X0.845000X-0.620000X0.845000X0.620000X-0.845000X0.620000X-0.845000X-0.620000X0*%
%ADD19O,2.190000X1.740000*%
%ADD20R,2.200000X2.200000*%
%ADD21O,2.200000X2.200000*%
%ADD22RoundRect,0.250000X-0.845000X0.620000X-0.845000X-0.620000X0.845000X-0.620000X0.845000X0.620000X0*%
%ADD23C,1.400000*%
%ADD24O,1.400000X1.400000*%
%ADD25R,1.800000X1.800000*%
%ADD26C,1.800000*%
%ADD27C,3.200000*%
%ADD28O,1.700000X1.700000*%
%ADD29RoundRect,0.250000X0.620000X0.845000X-0.620000X0.845000X-0.620000X-0.845000X0.620000X-0.845000X0*%
%ADD30O,1.740000X2.190000*%
%ADD31C,1.600000*%
%ADD32R,1.600000X2.400000*%
%ADD33O,1.600000X2.400000*%
G04 APERTURE END LIST*
D10*
X155892476Y-60538904D02*
X156654380Y-60538904D01*
X156178190Y-59872238D02*
X156178190Y-61586523D01*
X156178190Y-61586523D02*
X156273428Y-61777000D01*
X156273428Y-61777000D02*
X156463904Y-61872238D01*
X156463904Y-61872238D02*
X156654380Y-61872238D01*
X157606761Y-61872238D02*
X157416285Y-61777000D01*
X157416285Y-61777000D02*
X157321047Y-61681761D01*
X157321047Y-61681761D02*
X157225809Y-61491285D01*
X157225809Y-61491285D02*
X157225809Y-60919857D01*
X157225809Y-60919857D02*
X157321047Y-60729380D01*
X157321047Y-60729380D02*
X157416285Y-60634142D01*
X157416285Y-60634142D02*
X157606761Y-60538904D01*
X157606761Y-60538904D02*
X157892476Y-60538904D01*
X157892476Y-60538904D02*
X158082952Y-60634142D01*
X158082952Y-60634142D02*
X158178190Y-60729380D01*
X158178190Y-60729380D02*
X158273428Y-60919857D01*
X158273428Y-60919857D02*
X158273428Y-61491285D01*
X158273428Y-61491285D02*
X158178190Y-61681761D01*
X158178190Y-61681761D02*
X158082952Y-61777000D01*
X158082952Y-61777000D02*
X157892476Y-61872238D01*
X157892476Y-61872238D02*
X157606761Y-61872238D01*
X161511524Y-61872238D02*
X161511524Y-59872238D01*
X161511524Y-61777000D02*
X161321048Y-61872238D01*
X161321048Y-61872238D02*
X160940095Y-61872238D01*
X160940095Y-61872238D02*
X160749619Y-61777000D01*
X160749619Y-61777000D02*
X160654381Y-61681761D01*
X160654381Y-61681761D02*
X160559143Y-61491285D01*
X160559143Y-61491285D02*
X160559143Y-60919857D01*
X160559143Y-60919857D02*
X160654381Y-60729380D01*
X160654381Y-60729380D02*
X160749619Y-60634142D01*
X160749619Y-60634142D02*
X160940095Y-60538904D01*
X160940095Y-60538904D02*
X161321048Y-60538904D01*
X161321048Y-60538904D02*
X161511524Y-60634142D01*
X163321048Y-61872238D02*
X163321048Y-60824619D01*
X163321048Y-60824619D02*
X163225810Y-60634142D01*
X163225810Y-60634142D02*
X163035334Y-60538904D01*
X163035334Y-60538904D02*
X162654381Y-60538904D01*
X162654381Y-60538904D02*
X162463905Y-60634142D01*
X163321048Y-61777000D02*
X163130572Y-61872238D01*
X163130572Y-61872238D02*
X162654381Y-61872238D01*
X162654381Y-61872238D02*
X162463905Y-61777000D01*
X162463905Y-61777000D02*
X162368667Y-61586523D01*
X162368667Y-61586523D02*
X162368667Y-61396047D01*
X162368667Y-61396047D02*
X162463905Y-61205571D01*
X162463905Y-61205571D02*
X162654381Y-61110333D01*
X162654381Y-61110333D02*
X163130572Y-61110333D01*
X163130572Y-61110333D02*
X163321048Y-61015095D01*
X164273429Y-61872238D02*
X164273429Y-60538904D01*
X164273429Y-59872238D02*
X164178191Y-59967476D01*
X164178191Y-59967476D02*
X164273429Y-60062714D01*
X164273429Y-60062714D02*
X164368667Y-59967476D01*
X164368667Y-59967476D02*
X164273429Y-59872238D01*
X164273429Y-59872238D02*
X164273429Y-60062714D01*
X165130572Y-61777000D02*
X165321048Y-61872238D01*
X165321048Y-61872238D02*
X165702000Y-61872238D01*
X165702000Y-61872238D02*
X165892477Y-61777000D01*
X165892477Y-61777000D02*
X165987715Y-61586523D01*
X165987715Y-61586523D02*
X165987715Y-61491285D01*
X165987715Y-61491285D02*
X165892477Y-61300809D01*
X165892477Y-61300809D02*
X165702000Y-61205571D01*
X165702000Y-61205571D02*
X165416286Y-61205571D01*
X165416286Y-61205571D02*
X165225810Y-61110333D01*
X165225810Y-61110333D02*
X165130572Y-60919857D01*
X165130572Y-60919857D02*
X165130572Y-60824619D01*
X165130572Y-60824619D02*
X165225810Y-60634142D01*
X165225810Y-60634142D02*
X165416286Y-60538904D01*
X165416286Y-60538904D02*
X165702000Y-60538904D01*
X165702000Y-60538904D02*
X165892477Y-60634142D01*
X166654382Y-60538904D02*
X167130572Y-61872238D01*
X167606763Y-60538904D02*
X167130572Y-61872238D01*
X167130572Y-61872238D02*
X166940096Y-62348428D01*
X166940096Y-62348428D02*
X166844858Y-62443666D01*
X166844858Y-62443666D02*
X166654382Y-62538904D01*
X170749621Y-61777000D02*
X170559145Y-61872238D01*
X170559145Y-61872238D02*
X170178192Y-61872238D01*
X170178192Y-61872238D02*
X169987716Y-61777000D01*
X169987716Y-61777000D02*
X169892478Y-61681761D01*
X169892478Y-61681761D02*
X169797240Y-61491285D01*
X169797240Y-61491285D02*
X169797240Y-60919857D01*
X169797240Y-60919857D02*
X169892478Y-60729380D01*
X169892478Y-60729380D02*
X169987716Y-60634142D01*
X169987716Y-60634142D02*
X170178192Y-60538904D01*
X170178192Y-60538904D02*
X170559145Y-60538904D01*
X170559145Y-60538904D02*
X170749621Y-60634142D01*
X171606764Y-61872238D02*
X171606764Y-59872238D01*
X172463907Y-61872238D02*
X172463907Y-60824619D01*
X172463907Y-60824619D02*
X172368669Y-60634142D01*
X172368669Y-60634142D02*
X172178193Y-60538904D01*
X172178193Y-60538904D02*
X171892478Y-60538904D01*
X171892478Y-60538904D02*
X171702002Y-60634142D01*
X171702002Y-60634142D02*
X171606764Y-60729380D01*
X174273431Y-61872238D02*
X174273431Y-60824619D01*
X174273431Y-60824619D02*
X174178193Y-60634142D01*
X174178193Y-60634142D02*
X173987717Y-60538904D01*
X173987717Y-60538904D02*
X173606764Y-60538904D01*
X173606764Y-60538904D02*
X173416288Y-60634142D01*
X174273431Y-61777000D02*
X174082955Y-61872238D01*
X174082955Y-61872238D02*
X173606764Y-61872238D01*
X173606764Y-61872238D02*
X173416288Y-61777000D01*
X173416288Y-61777000D02*
X173321050Y-61586523D01*
X173321050Y-61586523D02*
X173321050Y-61396047D01*
X173321050Y-61396047D02*
X173416288Y-61205571D01*
X173416288Y-61205571D02*
X173606764Y-61110333D01*
X173606764Y-61110333D02*
X174082955Y-61110333D01*
X174082955Y-61110333D02*
X174273431Y-61015095D01*
X175225812Y-61872238D02*
X175225812Y-60538904D01*
X175225812Y-59872238D02*
X175130574Y-59967476D01*
X175130574Y-59967476D02*
X175225812Y-60062714D01*
X175225812Y-60062714D02*
X175321050Y-59967476D01*
X175321050Y-59967476D02*
X175225812Y-59872238D01*
X175225812Y-59872238D02*
X175225812Y-60062714D01*
X176178193Y-60538904D02*
X176178193Y-61872238D01*
X176178193Y-60729380D02*
X176273431Y-60634142D01*
X176273431Y-60634142D02*
X176463907Y-60538904D01*
X176463907Y-60538904D02*
X176749622Y-60538904D01*
X176749622Y-60538904D02*
X176940098Y-60634142D01*
X176940098Y-60634142D02*
X177035336Y-60824619D01*
X177035336Y-60824619D02*
X177035336Y-61872238D01*
X179511527Y-61110333D02*
X181035337Y-61110333D01*
X181987717Y-61110333D02*
X183511527Y-61110333D01*
X184463907Y-60538904D02*
X185987717Y-61110333D01*
X185987717Y-61110333D02*
X184463907Y-61681761D01*
D11*
X151003048Y-94315666D02*
X151764953Y-94315666D01*
X181737048Y-94315666D02*
X182498953Y-94315666D01*
X130683048Y-90759666D02*
X131444953Y-90759666D01*
X131064000Y-91140619D02*
X131064000Y-90378714D01*
X120358524Y-67468619D02*
X120549000Y-67468619D01*
X120549000Y-67468619D02*
X120644238Y-67421000D01*
X120644238Y-67421000D02*
X120691857Y-67373380D01*
X120691857Y-67373380D02*
X120787095Y-67230523D01*
X120787095Y-67230523D02*
X120834714Y-67040047D01*
X120834714Y-67040047D02*
X120834714Y-66659095D01*
X120834714Y-66659095D02*
X120787095Y-66563857D01*
X120787095Y-66563857D02*
X120739476Y-66516238D01*
X120739476Y-66516238D02*
X120644238Y-66468619D01*
X120644238Y-66468619D02*
X120453762Y-66468619D01*
X120453762Y-66468619D02*
X120358524Y-66516238D01*
X120358524Y-66516238D02*
X120310905Y-66563857D01*
X120310905Y-66563857D02*
X120263286Y-66659095D01*
X120263286Y-66659095D02*
X120263286Y-66897190D01*
X120263286Y-66897190D02*
X120310905Y-66992428D01*
X120310905Y-66992428D02*
X120358524Y-67040047D01*
X120358524Y-67040047D02*
X120453762Y-67087666D01*
X120453762Y-67087666D02*
X120644238Y-67087666D01*
X120644238Y-67087666D02*
X120739476Y-67040047D01*
X120739476Y-67040047D02*
X120787095Y-66992428D01*
X120787095Y-66992428D02*
X120834714Y-66897190D01*
X121263286Y-67087666D02*
X122025191Y-67087666D01*
X122453762Y-66563857D02*
X122501381Y-66516238D01*
X122501381Y-66516238D02*
X122596619Y-66468619D01*
X122596619Y-66468619D02*
X122834714Y-66468619D01*
X122834714Y-66468619D02*
X122929952Y-66516238D01*
X122929952Y-66516238D02*
X122977571Y-66563857D01*
X122977571Y-66563857D02*
X123025190Y-66659095D01*
X123025190Y-66659095D02*
X123025190Y-66754333D01*
X123025190Y-66754333D02*
X122977571Y-66897190D01*
X122977571Y-66897190D02*
X122406143Y-67468619D01*
X122406143Y-67468619D02*
X123025190Y-67468619D01*
X123882333Y-66801952D02*
X123882333Y-67468619D01*
X123644238Y-66421000D02*
X123406143Y-67135285D01*
X123406143Y-67135285D02*
X124025190Y-67135285D01*
X124263286Y-66468619D02*
X124596619Y-67468619D01*
X124596619Y-67468619D02*
X124929952Y-66468619D01*
X120523048Y-94315666D02*
X121284953Y-94315666D01*
D12*
X126970428Y-96869619D02*
X126556143Y-96869619D01*
X126763286Y-96869619D02*
X126763286Y-95869619D01*
X126763286Y-95869619D02*
X126694238Y-96012476D01*
X126694238Y-96012476D02*
X126625190Y-96107714D01*
X126625190Y-96107714D02*
X126556143Y-96155333D01*
X127281143Y-96869619D02*
X127281143Y-95869619D01*
X127281143Y-95869619D02*
X127695428Y-96869619D01*
X127695428Y-96869619D02*
X127695428Y-95869619D01*
X128351381Y-96202952D02*
X128351381Y-96869619D01*
X128178762Y-95822000D02*
X128006143Y-96536285D01*
X128006143Y-96536285D02*
X128454952Y-96536285D01*
X128869238Y-95869619D02*
X128938285Y-95869619D01*
X128938285Y-95869619D02*
X129007333Y-95917238D01*
X129007333Y-95917238D02*
X129041857Y-95964857D01*
X129041857Y-95964857D02*
X129076381Y-96060095D01*
X129076381Y-96060095D02*
X129110904Y-96250571D01*
X129110904Y-96250571D02*
X129110904Y-96488666D01*
X129110904Y-96488666D02*
X129076381Y-96679142D01*
X129076381Y-96679142D02*
X129041857Y-96774380D01*
X129041857Y-96774380D02*
X129007333Y-96822000D01*
X129007333Y-96822000D02*
X128938285Y-96869619D01*
X128938285Y-96869619D02*
X128869238Y-96869619D01*
X128869238Y-96869619D02*
X128800190Y-96822000D01*
X128800190Y-96822000D02*
X128765666Y-96774380D01*
X128765666Y-96774380D02*
X128731143Y-96679142D01*
X128731143Y-96679142D02*
X128696619Y-96488666D01*
X128696619Y-96488666D02*
X128696619Y-96250571D01*
X128696619Y-96250571D02*
X128731143Y-96060095D01*
X128731143Y-96060095D02*
X128765666Y-95964857D01*
X128765666Y-95964857D02*
X128800190Y-95917238D01*
X128800190Y-95917238D02*
X128869238Y-95869619D01*
X129559714Y-95869619D02*
X129628761Y-95869619D01*
X129628761Y-95869619D02*
X129697809Y-95917238D01*
X129697809Y-95917238D02*
X129732333Y-95964857D01*
X129732333Y-95964857D02*
X129766857Y-96060095D01*
X129766857Y-96060095D02*
X129801380Y-96250571D01*
X129801380Y-96250571D02*
X129801380Y-96488666D01*
X129801380Y-96488666D02*
X129766857Y-96679142D01*
X129766857Y-96679142D02*
X129732333Y-96774380D01*
X129732333Y-96774380D02*
X129697809Y-96822000D01*
X129697809Y-96822000D02*
X129628761Y-96869619D01*
X129628761Y-96869619D02*
X129559714Y-96869619D01*
X129559714Y-96869619D02*
X129490666Y-96822000D01*
X129490666Y-96822000D02*
X129456142Y-96774380D01*
X129456142Y-96774380D02*
X129421619Y-96679142D01*
X129421619Y-96679142D02*
X129387095Y-96488666D01*
X129387095Y-96488666D02*
X129387095Y-96250571D01*
X129387095Y-96250571D02*
X129421619Y-96060095D01*
X129421619Y-96060095D02*
X129456142Y-95964857D01*
X129456142Y-95964857D02*
X129490666Y-95917238D01*
X129490666Y-95917238D02*
X129559714Y-95869619D01*
X130491856Y-96869619D02*
X130077571Y-96869619D01*
X130284714Y-96869619D02*
X130284714Y-95869619D01*
X130284714Y-95869619D02*
X130215666Y-96012476D01*
X130215666Y-96012476D02*
X130146618Y-96107714D01*
X130146618Y-96107714D02*
X130077571Y-96155333D01*
D11*
X183858524Y-67468619D02*
X184049000Y-67468619D01*
X184049000Y-67468619D02*
X184144238Y-67421000D01*
X184144238Y-67421000D02*
X184191857Y-67373380D01*
X184191857Y-67373380D02*
X184287095Y-67230523D01*
X184287095Y-67230523D02*
X184334714Y-67040047D01*
X184334714Y-67040047D02*
X184334714Y-66659095D01*
X184334714Y-66659095D02*
X184287095Y-66563857D01*
X184287095Y-66563857D02*
X184239476Y-66516238D01*
X184239476Y-66516238D02*
X184144238Y-66468619D01*
X184144238Y-66468619D02*
X183953762Y-66468619D01*
X183953762Y-66468619D02*
X183858524Y-66516238D01*
X183858524Y-66516238D02*
X183810905Y-66563857D01*
X183810905Y-66563857D02*
X183763286Y-66659095D01*
X183763286Y-66659095D02*
X183763286Y-66897190D01*
X183763286Y-66897190D02*
X183810905Y-66992428D01*
X183810905Y-66992428D02*
X183858524Y-67040047D01*
X183858524Y-67040047D02*
X183953762Y-67087666D01*
X183953762Y-67087666D02*
X184144238Y-67087666D01*
X184144238Y-67087666D02*
X184239476Y-67040047D01*
X184239476Y-67040047D02*
X184287095Y-66992428D01*
X184287095Y-66992428D02*
X184334714Y-66897190D01*
X184763286Y-67087666D02*
X185525191Y-67087666D01*
X185953762Y-66563857D02*
X186001381Y-66516238D01*
X186001381Y-66516238D02*
X186096619Y-66468619D01*
X186096619Y-66468619D02*
X186334714Y-66468619D01*
X186334714Y-66468619D02*
X186429952Y-66516238D01*
X186429952Y-66516238D02*
X186477571Y-66563857D01*
X186477571Y-66563857D02*
X186525190Y-66659095D01*
X186525190Y-66659095D02*
X186525190Y-66754333D01*
X186525190Y-66754333D02*
X186477571Y-66897190D01*
X186477571Y-66897190D02*
X185906143Y-67468619D01*
X185906143Y-67468619D02*
X186525190Y-67468619D01*
X187382333Y-66801952D02*
X187382333Y-67468619D01*
X187144238Y-66421000D02*
X186906143Y-67135285D01*
X186906143Y-67135285D02*
X187525190Y-67135285D01*
X187763286Y-66468619D02*
X188096619Y-67468619D01*
X188096619Y-67468619D02*
X188429952Y-66468619D01*
D10*
X131796333Y-112775904D02*
X131796333Y-111252095D01*
X132558238Y-112013999D02*
X131034428Y-112013999D01*
X118790142Y-114882785D02*
X118647285Y-114811357D01*
X118647285Y-114811357D02*
X118504428Y-114668500D01*
X118504428Y-114668500D02*
X118290142Y-114454214D01*
X118290142Y-114454214D02*
X118147285Y-114382785D01*
X118147285Y-114382785D02*
X118004428Y-114382785D01*
X118075857Y-114739928D02*
X117933000Y-114668500D01*
X117933000Y-114668500D02*
X117790142Y-114525642D01*
X117790142Y-114525642D02*
X117718714Y-114239928D01*
X117718714Y-114239928D02*
X117718714Y-113739928D01*
X117718714Y-113739928D02*
X117790142Y-113454214D01*
X117790142Y-113454214D02*
X117933000Y-113311357D01*
X117933000Y-113311357D02*
X118075857Y-113239928D01*
X118075857Y-113239928D02*
X118361571Y-113239928D01*
X118361571Y-113239928D02*
X118504428Y-113311357D01*
X118504428Y-113311357D02*
X118647285Y-113454214D01*
X118647285Y-113454214D02*
X118718714Y-113739928D01*
X118718714Y-113739928D02*
X118718714Y-114239928D01*
X118718714Y-114239928D02*
X118647285Y-114525642D01*
X118647285Y-114525642D02*
X118504428Y-114668500D01*
X118504428Y-114668500D02*
X118361571Y-114739928D01*
X118361571Y-114739928D02*
X118075857Y-114739928D01*
X119647286Y-113239928D02*
X119790143Y-113239928D01*
X119790143Y-113239928D02*
X119933000Y-113311357D01*
X119933000Y-113311357D02*
X120004429Y-113382785D01*
X120004429Y-113382785D02*
X120075857Y-113525642D01*
X120075857Y-113525642D02*
X120147286Y-113811357D01*
X120147286Y-113811357D02*
X120147286Y-114168500D01*
X120147286Y-114168500D02*
X120075857Y-114454214D01*
X120075857Y-114454214D02*
X120004429Y-114597071D01*
X120004429Y-114597071D02*
X119933000Y-114668500D01*
X119933000Y-114668500D02*
X119790143Y-114739928D01*
X119790143Y-114739928D02*
X119647286Y-114739928D01*
X119647286Y-114739928D02*
X119504429Y-114668500D01*
X119504429Y-114668500D02*
X119433000Y-114597071D01*
X119433000Y-114597071D02*
X119361571Y-114454214D01*
X119361571Y-114454214D02*
X119290143Y-114168500D01*
X119290143Y-114168500D02*
X119290143Y-113811357D01*
X119290143Y-113811357D02*
X119361571Y-113525642D01*
X119361571Y-113525642D02*
X119433000Y-113382785D01*
X119433000Y-113382785D02*
X119504429Y-113311357D01*
X119504429Y-113311357D02*
X119647286Y-113239928D01*
D11*
X151003048Y-90759666D02*
X151764953Y-90759666D01*
X151384000Y-91140619D02*
X151384000Y-90378714D01*
D10*
X159430142Y-114882785D02*
X159287285Y-114811357D01*
X159287285Y-114811357D02*
X159144428Y-114668500D01*
X159144428Y-114668500D02*
X158930142Y-114454214D01*
X158930142Y-114454214D02*
X158787285Y-114382785D01*
X158787285Y-114382785D02*
X158644428Y-114382785D01*
X158715857Y-114739928D02*
X158573000Y-114668500D01*
X158573000Y-114668500D02*
X158430142Y-114525642D01*
X158430142Y-114525642D02*
X158358714Y-114239928D01*
X158358714Y-114239928D02*
X158358714Y-113739928D01*
X158358714Y-113739928D02*
X158430142Y-113454214D01*
X158430142Y-113454214D02*
X158573000Y-113311357D01*
X158573000Y-113311357D02*
X158715857Y-113239928D01*
X158715857Y-113239928D02*
X159001571Y-113239928D01*
X159001571Y-113239928D02*
X159144428Y-113311357D01*
X159144428Y-113311357D02*
X159287285Y-113454214D01*
X159287285Y-113454214D02*
X159358714Y-113739928D01*
X159358714Y-113739928D02*
X159358714Y-114239928D01*
X159358714Y-114239928D02*
X159287285Y-114525642D01*
X159287285Y-114525642D02*
X159144428Y-114668500D01*
X159144428Y-114668500D02*
X159001571Y-114739928D01*
X159001571Y-114739928D02*
X158715857Y-114739928D01*
X160644429Y-113739928D02*
X160644429Y-114739928D01*
X160287286Y-113168500D02*
X159930143Y-114239928D01*
X159930143Y-114239928D02*
X160858714Y-114239928D01*
X121636333Y-112775904D02*
X121636333Y-111252095D01*
X122398238Y-112013999D02*
X120874428Y-112013999D01*
X179750142Y-114882785D02*
X179607285Y-114811357D01*
X179607285Y-114811357D02*
X179464428Y-114668500D01*
X179464428Y-114668500D02*
X179250142Y-114454214D01*
X179250142Y-114454214D02*
X179107285Y-114382785D01*
X179107285Y-114382785D02*
X178964428Y-114382785D01*
X179035857Y-114739928D02*
X178893000Y-114668500D01*
X178893000Y-114668500D02*
X178750142Y-114525642D01*
X178750142Y-114525642D02*
X178678714Y-114239928D01*
X178678714Y-114239928D02*
X178678714Y-113739928D01*
X178678714Y-113739928D02*
X178750142Y-113454214D01*
X178750142Y-113454214D02*
X178893000Y-113311357D01*
X178893000Y-113311357D02*
X179035857Y-113239928D01*
X179035857Y-113239928D02*
X179321571Y-113239928D01*
X179321571Y-113239928D02*
X179464428Y-113311357D01*
X179464428Y-113311357D02*
X179607285Y-113454214D01*
X179607285Y-113454214D02*
X179678714Y-113739928D01*
X179678714Y-113739928D02*
X179678714Y-114239928D01*
X179678714Y-114239928D02*
X179607285Y-114525642D01*
X179607285Y-114525642D02*
X179464428Y-114668500D01*
X179464428Y-114668500D02*
X179321571Y-114739928D01*
X179321571Y-114739928D02*
X179035857Y-114739928D01*
X180964429Y-113239928D02*
X180678714Y-113239928D01*
X180678714Y-113239928D02*
X180535857Y-113311357D01*
X180535857Y-113311357D02*
X180464429Y-113382785D01*
X180464429Y-113382785D02*
X180321571Y-113597071D01*
X180321571Y-113597071D02*
X180250143Y-113882785D01*
X180250143Y-113882785D02*
X180250143Y-114454214D01*
X180250143Y-114454214D02*
X180321571Y-114597071D01*
X180321571Y-114597071D02*
X180393000Y-114668500D01*
X180393000Y-114668500D02*
X180535857Y-114739928D01*
X180535857Y-114739928D02*
X180821571Y-114739928D01*
X180821571Y-114739928D02*
X180964429Y-114668500D01*
X180964429Y-114668500D02*
X181035857Y-114597071D01*
X181035857Y-114597071D02*
X181107286Y-114454214D01*
X181107286Y-114454214D02*
X181107286Y-114097071D01*
X181107286Y-114097071D02*
X181035857Y-113954214D01*
X181035857Y-113954214D02*
X180964429Y-113882785D01*
X180964429Y-113882785D02*
X180821571Y-113811357D01*
X180821571Y-113811357D02*
X180535857Y-113811357D01*
X180535857Y-113811357D02*
X180393000Y-113882785D01*
X180393000Y-113882785D02*
X180321571Y-113954214D01*
X180321571Y-113954214D02*
X180250143Y-114097071D01*
D11*
X143464619Y-70681476D02*
X143464619Y-71252904D01*
X143464619Y-70967190D02*
X142464619Y-70967190D01*
X142464619Y-70967190D02*
X142607476Y-71062428D01*
X142607476Y-71062428D02*
X142702714Y-71157666D01*
X142702714Y-71157666D02*
X142750333Y-71252904D01*
X142464619Y-70062428D02*
X142464619Y-69967190D01*
X142464619Y-69967190D02*
X142512238Y-69871952D01*
X142512238Y-69871952D02*
X142559857Y-69824333D01*
X142559857Y-69824333D02*
X142655095Y-69776714D01*
X142655095Y-69776714D02*
X142845571Y-69729095D01*
X142845571Y-69729095D02*
X143083666Y-69729095D01*
X143083666Y-69729095D02*
X143274142Y-69776714D01*
X143274142Y-69776714D02*
X143369380Y-69824333D01*
X143369380Y-69824333D02*
X143417000Y-69871952D01*
X143417000Y-69871952D02*
X143464619Y-69967190D01*
X143464619Y-69967190D02*
X143464619Y-70062428D01*
X143464619Y-70062428D02*
X143417000Y-70157666D01*
X143417000Y-70157666D02*
X143369380Y-70205285D01*
X143369380Y-70205285D02*
X143274142Y-70252904D01*
X143274142Y-70252904D02*
X143083666Y-70300523D01*
X143083666Y-70300523D02*
X142845571Y-70300523D01*
X142845571Y-70300523D02*
X142655095Y-70252904D01*
X142655095Y-70252904D02*
X142559857Y-70205285D01*
X142559857Y-70205285D02*
X142512238Y-70157666D01*
X142512238Y-70157666D02*
X142464619Y-70062428D01*
X143464619Y-69300523D02*
X142464619Y-69300523D01*
X143464619Y-68729095D02*
X142893190Y-69157666D01*
X142464619Y-68729095D02*
X143036047Y-69300523D01*
X120771095Y-74136238D02*
X120675857Y-74088619D01*
X120675857Y-74088619D02*
X120533000Y-74088619D01*
X120533000Y-74088619D02*
X120390143Y-74136238D01*
X120390143Y-74136238D02*
X120294905Y-74231476D01*
X120294905Y-74231476D02*
X120247286Y-74326714D01*
X120247286Y-74326714D02*
X120199667Y-74517190D01*
X120199667Y-74517190D02*
X120199667Y-74660047D01*
X120199667Y-74660047D02*
X120247286Y-74850523D01*
X120247286Y-74850523D02*
X120294905Y-74945761D01*
X120294905Y-74945761D02*
X120390143Y-75041000D01*
X120390143Y-75041000D02*
X120533000Y-75088619D01*
X120533000Y-75088619D02*
X120628238Y-75088619D01*
X120628238Y-75088619D02*
X120771095Y-75041000D01*
X120771095Y-75041000D02*
X120818714Y-74993380D01*
X120818714Y-74993380D02*
X120818714Y-74660047D01*
X120818714Y-74660047D02*
X120628238Y-74660047D01*
X121247286Y-75088619D02*
X121247286Y-74088619D01*
X121247286Y-74088619D02*
X121818714Y-75088619D01*
X121818714Y-75088619D02*
X121818714Y-74088619D01*
X122294905Y-75088619D02*
X122294905Y-74088619D01*
X122294905Y-74088619D02*
X122533000Y-74088619D01*
X122533000Y-74088619D02*
X122675857Y-74136238D01*
X122675857Y-74136238D02*
X122771095Y-74231476D01*
X122771095Y-74231476D02*
X122818714Y-74326714D01*
X122818714Y-74326714D02*
X122866333Y-74517190D01*
X122866333Y-74517190D02*
X122866333Y-74660047D01*
X122866333Y-74660047D02*
X122818714Y-74850523D01*
X122818714Y-74850523D02*
X122771095Y-74945761D01*
X122771095Y-74945761D02*
X122675857Y-75041000D01*
X122675857Y-75041000D02*
X122533000Y-75088619D01*
X122533000Y-75088619D02*
X122294905Y-75088619D01*
X181737048Y-90759666D02*
X182498953Y-90759666D01*
X182118000Y-91140619D02*
X182118000Y-90378714D01*
X134142619Y-70115285D02*
X134142619Y-70686713D01*
X134142619Y-70400999D02*
X133142619Y-70400999D01*
X133142619Y-70400999D02*
X133285476Y-70496237D01*
X133285476Y-70496237D02*
X133380714Y-70591475D01*
X133380714Y-70591475D02*
X133428333Y-70686713D01*
X134142619Y-69686713D02*
X133142619Y-69686713D01*
X134142619Y-69115285D02*
X133571190Y-69543856D01*
X133142619Y-69115285D02*
X133714047Y-69686713D01*
X186303095Y-74136238D02*
X186207857Y-74088619D01*
X186207857Y-74088619D02*
X186065000Y-74088619D01*
X186065000Y-74088619D02*
X185922143Y-74136238D01*
X185922143Y-74136238D02*
X185826905Y-74231476D01*
X185826905Y-74231476D02*
X185779286Y-74326714D01*
X185779286Y-74326714D02*
X185731667Y-74517190D01*
X185731667Y-74517190D02*
X185731667Y-74660047D01*
X185731667Y-74660047D02*
X185779286Y-74850523D01*
X185779286Y-74850523D02*
X185826905Y-74945761D01*
X185826905Y-74945761D02*
X185922143Y-75041000D01*
X185922143Y-75041000D02*
X186065000Y-75088619D01*
X186065000Y-75088619D02*
X186160238Y-75088619D01*
X186160238Y-75088619D02*
X186303095Y-75041000D01*
X186303095Y-75041000D02*
X186350714Y-74993380D01*
X186350714Y-74993380D02*
X186350714Y-74660047D01*
X186350714Y-74660047D02*
X186160238Y-74660047D01*
X186779286Y-75088619D02*
X186779286Y-74088619D01*
X186779286Y-74088619D02*
X187350714Y-75088619D01*
X187350714Y-75088619D02*
X187350714Y-74088619D01*
X187826905Y-75088619D02*
X187826905Y-74088619D01*
X187826905Y-74088619D02*
X188065000Y-74088619D01*
X188065000Y-74088619D02*
X188207857Y-74136238D01*
X188207857Y-74136238D02*
X188303095Y-74231476D01*
X188303095Y-74231476D02*
X188350714Y-74326714D01*
X188350714Y-74326714D02*
X188398333Y-74517190D01*
X188398333Y-74517190D02*
X188398333Y-74660047D01*
X188398333Y-74660047D02*
X188350714Y-74850523D01*
X188350714Y-74850523D02*
X188303095Y-74945761D01*
X188303095Y-74945761D02*
X188207857Y-75041000D01*
X188207857Y-75041000D02*
X188065000Y-75088619D01*
X188065000Y-75088619D02*
X187826905Y-75088619D01*
X120523048Y-90759666D02*
X121284953Y-90759666D01*
X120904000Y-91140619D02*
X120904000Y-90378714D01*
D10*
X125952000Y-60538904D02*
X124428190Y-61110333D01*
X124428190Y-61110333D02*
X125952000Y-61681761D01*
X126904380Y-61110333D02*
X128428190Y-61110333D01*
X129380570Y-61110333D02*
X130904380Y-61110333D01*
X133094856Y-60538904D02*
X133856760Y-60538904D01*
X133380570Y-59872238D02*
X133380570Y-61586523D01*
X133380570Y-61586523D02*
X133475808Y-61777000D01*
X133475808Y-61777000D02*
X133666284Y-61872238D01*
X133666284Y-61872238D02*
X133856760Y-61872238D01*
X134809141Y-61872238D02*
X134618665Y-61777000D01*
X134618665Y-61777000D02*
X134523427Y-61681761D01*
X134523427Y-61681761D02*
X134428189Y-61491285D01*
X134428189Y-61491285D02*
X134428189Y-60919857D01*
X134428189Y-60919857D02*
X134523427Y-60729380D01*
X134523427Y-60729380D02*
X134618665Y-60634142D01*
X134618665Y-60634142D02*
X134809141Y-60538904D01*
X134809141Y-60538904D02*
X135094856Y-60538904D01*
X135094856Y-60538904D02*
X135285332Y-60634142D01*
X135285332Y-60634142D02*
X135380570Y-60729380D01*
X135380570Y-60729380D02*
X135475808Y-60919857D01*
X135475808Y-60919857D02*
X135475808Y-61491285D01*
X135475808Y-61491285D02*
X135380570Y-61681761D01*
X135380570Y-61681761D02*
X135285332Y-61777000D01*
X135285332Y-61777000D02*
X135094856Y-61872238D01*
X135094856Y-61872238D02*
X134809141Y-61872238D01*
X137856761Y-61872238D02*
X137856761Y-60538904D01*
X137856761Y-60729380D02*
X137951999Y-60634142D01*
X137951999Y-60634142D02*
X138142475Y-60538904D01*
X138142475Y-60538904D02*
X138428190Y-60538904D01*
X138428190Y-60538904D02*
X138618666Y-60634142D01*
X138618666Y-60634142D02*
X138713904Y-60824619D01*
X138713904Y-60824619D02*
X138713904Y-61872238D01*
X138713904Y-60824619D02*
X138809142Y-60634142D01*
X138809142Y-60634142D02*
X138999618Y-60538904D01*
X138999618Y-60538904D02*
X139285332Y-60538904D01*
X139285332Y-60538904D02*
X139475809Y-60634142D01*
X139475809Y-60634142D02*
X139571047Y-60824619D01*
X139571047Y-60824619D02*
X139571047Y-61872238D01*
X141380571Y-61777000D02*
X141190095Y-61872238D01*
X141190095Y-61872238D02*
X140809142Y-61872238D01*
X140809142Y-61872238D02*
X140618666Y-61777000D01*
X140618666Y-61777000D02*
X140523428Y-61681761D01*
X140523428Y-61681761D02*
X140428190Y-61491285D01*
X140428190Y-61491285D02*
X140428190Y-60919857D01*
X140428190Y-60919857D02*
X140523428Y-60729380D01*
X140523428Y-60729380D02*
X140618666Y-60634142D01*
X140618666Y-60634142D02*
X140809142Y-60538904D01*
X140809142Y-60538904D02*
X141190095Y-60538904D01*
X141190095Y-60538904D02*
X141380571Y-60634142D01*
X143094857Y-60538904D02*
X143094857Y-61872238D01*
X142237714Y-60538904D02*
X142237714Y-61586523D01*
X142237714Y-61586523D02*
X142332952Y-61777000D01*
X142332952Y-61777000D02*
X142523428Y-61872238D01*
X142523428Y-61872238D02*
X142809143Y-61872238D01*
X142809143Y-61872238D02*
X142999619Y-61777000D01*
X142999619Y-61777000D02*
X143094857Y-61681761D01*
X139110142Y-114882785D02*
X138967285Y-114811357D01*
X138967285Y-114811357D02*
X138824428Y-114668500D01*
X138824428Y-114668500D02*
X138610142Y-114454214D01*
X138610142Y-114454214D02*
X138467285Y-114382785D01*
X138467285Y-114382785D02*
X138324428Y-114382785D01*
X138395857Y-114739928D02*
X138253000Y-114668500D01*
X138253000Y-114668500D02*
X138110142Y-114525642D01*
X138110142Y-114525642D02*
X138038714Y-114239928D01*
X138038714Y-114239928D02*
X138038714Y-113739928D01*
X138038714Y-113739928D02*
X138110142Y-113454214D01*
X138110142Y-113454214D02*
X138253000Y-113311357D01*
X138253000Y-113311357D02*
X138395857Y-113239928D01*
X138395857Y-113239928D02*
X138681571Y-113239928D01*
X138681571Y-113239928D02*
X138824428Y-113311357D01*
X138824428Y-113311357D02*
X138967285Y-113454214D01*
X138967285Y-113454214D02*
X139038714Y-113739928D01*
X139038714Y-113739928D02*
X139038714Y-114239928D01*
X139038714Y-114239928D02*
X138967285Y-114525642D01*
X138967285Y-114525642D02*
X138824428Y-114668500D01*
X138824428Y-114668500D02*
X138681571Y-114739928D01*
X138681571Y-114739928D02*
X138395857Y-114739928D01*
X139610143Y-113382785D02*
X139681571Y-113311357D01*
X139681571Y-113311357D02*
X139824429Y-113239928D01*
X139824429Y-113239928D02*
X140181571Y-113239928D01*
X140181571Y-113239928D02*
X140324429Y-113311357D01*
X140324429Y-113311357D02*
X140395857Y-113382785D01*
X140395857Y-113382785D02*
X140467286Y-113525642D01*
X140467286Y-113525642D02*
X140467286Y-113668500D01*
X140467286Y-113668500D02*
X140395857Y-113882785D01*
X140395857Y-113882785D02*
X139538714Y-114739928D01*
X139538714Y-114739928D02*
X140467286Y-114739928D01*
X162276333Y-112775904D02*
X162276333Y-111252095D01*
X163038238Y-112013999D02*
X161514428Y-112013999D01*
D11*
X183182094Y-80168619D02*
X182705904Y-80168619D01*
X182705904Y-80168619D02*
X182705904Y-79168619D01*
X183467809Y-79882904D02*
X183943999Y-79882904D01*
X183372571Y-80168619D02*
X183705904Y-79168619D01*
X183705904Y-79168619D02*
X184039237Y-80168619D01*
X184229714Y-79168619D02*
X184801142Y-79168619D01*
X184515428Y-80168619D02*
X184515428Y-79168619D01*
X185705904Y-80073380D02*
X185658285Y-80121000D01*
X185658285Y-80121000D02*
X185515428Y-80168619D01*
X185515428Y-80168619D02*
X185420190Y-80168619D01*
X185420190Y-80168619D02*
X185277333Y-80121000D01*
X185277333Y-80121000D02*
X185182095Y-80025761D01*
X185182095Y-80025761D02*
X185134476Y-79930523D01*
X185134476Y-79930523D02*
X185086857Y-79740047D01*
X185086857Y-79740047D02*
X185086857Y-79597190D01*
X185086857Y-79597190D02*
X185134476Y-79406714D01*
X185134476Y-79406714D02*
X185182095Y-79311476D01*
X185182095Y-79311476D02*
X185277333Y-79216238D01*
X185277333Y-79216238D02*
X185420190Y-79168619D01*
X185420190Y-79168619D02*
X185515428Y-79168619D01*
X185515428Y-79168619D02*
X185658285Y-79216238D01*
X185658285Y-79216238D02*
X185705904Y-79263857D01*
X186134476Y-80168619D02*
X186134476Y-79168619D01*
X186134476Y-79644809D02*
X186705904Y-79644809D01*
X186705904Y-80168619D02*
X186705904Y-79168619D01*
X167086619Y-69550333D02*
X167086619Y-69950333D01*
X167086619Y-69750333D02*
X166086619Y-69750333D01*
X166086619Y-69750333D02*
X166229476Y-69817000D01*
X166229476Y-69817000D02*
X166324714Y-69883667D01*
X166324714Y-69883667D02*
X166372333Y-69950333D01*
X166086619Y-69117000D02*
X166086619Y-69050333D01*
X166086619Y-69050333D02*
X166134238Y-68983666D01*
X166134238Y-68983666D02*
X166181857Y-68950333D01*
X166181857Y-68950333D02*
X166277095Y-68917000D01*
X166277095Y-68917000D02*
X166467571Y-68883666D01*
X166467571Y-68883666D02*
X166705666Y-68883666D01*
X166705666Y-68883666D02*
X166896142Y-68917000D01*
X166896142Y-68917000D02*
X166991380Y-68950333D01*
X166991380Y-68950333D02*
X167039000Y-68983666D01*
X167039000Y-68983666D02*
X167086619Y-69050333D01*
X167086619Y-69050333D02*
X167086619Y-69117000D01*
X167086619Y-69117000D02*
X167039000Y-69183666D01*
X167039000Y-69183666D02*
X166991380Y-69217000D01*
X166991380Y-69217000D02*
X166896142Y-69250333D01*
X166896142Y-69250333D02*
X166705666Y-69283666D01*
X166705666Y-69283666D02*
X166467571Y-69283666D01*
X166467571Y-69283666D02*
X166277095Y-69250333D01*
X166277095Y-69250333D02*
X166181857Y-69217000D01*
X166181857Y-69217000D02*
X166134238Y-69183666D01*
X166134238Y-69183666D02*
X166086619Y-69117000D01*
X166086619Y-68450333D02*
X166086619Y-68383666D01*
X166086619Y-68383666D02*
X166134238Y-68316999D01*
X166134238Y-68316999D02*
X166181857Y-68283666D01*
X166181857Y-68283666D02*
X166277095Y-68250333D01*
X166277095Y-68250333D02*
X166467571Y-68216999D01*
X166467571Y-68216999D02*
X166705666Y-68216999D01*
X166705666Y-68216999D02*
X166896142Y-68250333D01*
X166896142Y-68250333D02*
X166991380Y-68283666D01*
X166991380Y-68283666D02*
X167039000Y-68316999D01*
X167039000Y-68316999D02*
X167086619Y-68383666D01*
X167086619Y-68383666D02*
X167086619Y-68450333D01*
X167086619Y-68450333D02*
X167039000Y-68516999D01*
X167039000Y-68516999D02*
X166991380Y-68550333D01*
X166991380Y-68550333D02*
X166896142Y-68583666D01*
X166896142Y-68583666D02*
X166705666Y-68616999D01*
X166705666Y-68616999D02*
X166467571Y-68616999D01*
X166467571Y-68616999D02*
X166277095Y-68583666D01*
X166277095Y-68583666D02*
X166181857Y-68550333D01*
X166181857Y-68550333D02*
X166134238Y-68516999D01*
X166134238Y-68516999D02*
X166086619Y-68450333D01*
X166419952Y-67916999D02*
X167086619Y-67916999D01*
X166515190Y-67916999D02*
X166467571Y-67883666D01*
X166467571Y-67883666D02*
X166419952Y-67816999D01*
X166419952Y-67816999D02*
X166419952Y-67716999D01*
X166419952Y-67716999D02*
X166467571Y-67650332D01*
X166467571Y-67650332D02*
X166562809Y-67616999D01*
X166562809Y-67616999D02*
X167086619Y-67616999D01*
X166562809Y-67050333D02*
X166562809Y-67283666D01*
X167086619Y-67283666D02*
X166086619Y-67283666D01*
X166086619Y-67283666D02*
X166086619Y-66950333D01*
X186303095Y-71596238D02*
X186207857Y-71548619D01*
X186207857Y-71548619D02*
X186065000Y-71548619D01*
X186065000Y-71548619D02*
X185922143Y-71596238D01*
X185922143Y-71596238D02*
X185826905Y-71691476D01*
X185826905Y-71691476D02*
X185779286Y-71786714D01*
X185779286Y-71786714D02*
X185731667Y-71977190D01*
X185731667Y-71977190D02*
X185731667Y-72120047D01*
X185731667Y-72120047D02*
X185779286Y-72310523D01*
X185779286Y-72310523D02*
X185826905Y-72405761D01*
X185826905Y-72405761D02*
X185922143Y-72501000D01*
X185922143Y-72501000D02*
X186065000Y-72548619D01*
X186065000Y-72548619D02*
X186160238Y-72548619D01*
X186160238Y-72548619D02*
X186303095Y-72501000D01*
X186303095Y-72501000D02*
X186350714Y-72453380D01*
X186350714Y-72453380D02*
X186350714Y-72120047D01*
X186350714Y-72120047D02*
X186160238Y-72120047D01*
X186779286Y-72548619D02*
X186779286Y-71548619D01*
X186779286Y-71548619D02*
X187350714Y-72548619D01*
X187350714Y-72548619D02*
X187350714Y-71548619D01*
X187826905Y-72548619D02*
X187826905Y-71548619D01*
X187826905Y-71548619D02*
X188065000Y-71548619D01*
X188065000Y-71548619D02*
X188207857Y-71596238D01*
X188207857Y-71596238D02*
X188303095Y-71691476D01*
X188303095Y-71691476D02*
X188350714Y-71786714D01*
X188350714Y-71786714D02*
X188398333Y-71977190D01*
X188398333Y-71977190D02*
X188398333Y-72120047D01*
X188398333Y-72120047D02*
X188350714Y-72310523D01*
X188350714Y-72310523D02*
X188303095Y-72405761D01*
X188303095Y-72405761D02*
X188207857Y-72501000D01*
X188207857Y-72501000D02*
X188065000Y-72548619D01*
X188065000Y-72548619D02*
X187826905Y-72548619D01*
D10*
X159736333Y-112775904D02*
X159736333Y-111252095D01*
X160498238Y-112013999D02*
X158974428Y-112013999D01*
D11*
X171323048Y-90759666D02*
X172084953Y-90759666D01*
X171704000Y-91140619D02*
X171704000Y-90378714D01*
X136555619Y-70115285D02*
X136555619Y-70686713D01*
X136555619Y-70400999D02*
X135555619Y-70400999D01*
X135555619Y-70400999D02*
X135698476Y-70496237D01*
X135698476Y-70496237D02*
X135793714Y-70591475D01*
X135793714Y-70591475D02*
X135841333Y-70686713D01*
X136555619Y-69686713D02*
X135555619Y-69686713D01*
X136555619Y-69115285D02*
X135984190Y-69543856D01*
X135555619Y-69115285D02*
X136127047Y-69686713D01*
X170642619Y-70983000D02*
X170642619Y-71383000D01*
X170642619Y-71183000D02*
X169642619Y-71183000D01*
X169642619Y-71183000D02*
X169785476Y-71249667D01*
X169785476Y-71249667D02*
X169880714Y-71316334D01*
X169880714Y-71316334D02*
X169928333Y-71383000D01*
X170642619Y-70683000D02*
X169642619Y-70683000D01*
X169642619Y-70683000D02*
X170642619Y-70283000D01*
X170642619Y-70283000D02*
X169642619Y-70283000D01*
X169975952Y-69649667D02*
X170642619Y-69649667D01*
X169595000Y-69816334D02*
X170309285Y-69983000D01*
X170309285Y-69983000D02*
X170309285Y-69549667D01*
X170642619Y-68916333D02*
X170642619Y-69316333D01*
X170642619Y-69116333D02*
X169642619Y-69116333D01*
X169642619Y-69116333D02*
X169785476Y-69183000D01*
X169785476Y-69183000D02*
X169880714Y-69249667D01*
X169880714Y-69249667D02*
X169928333Y-69316333D01*
X169975952Y-68316333D02*
X170642619Y-68316333D01*
X169595000Y-68483000D02*
X170309285Y-68649666D01*
X170309285Y-68649666D02*
X170309285Y-68216333D01*
X170071190Y-67849666D02*
X170023571Y-67916333D01*
X170023571Y-67916333D02*
X169975952Y-67949666D01*
X169975952Y-67949666D02*
X169880714Y-67982999D01*
X169880714Y-67982999D02*
X169833095Y-67982999D01*
X169833095Y-67982999D02*
X169737857Y-67949666D01*
X169737857Y-67949666D02*
X169690238Y-67916333D01*
X169690238Y-67916333D02*
X169642619Y-67849666D01*
X169642619Y-67849666D02*
X169642619Y-67716333D01*
X169642619Y-67716333D02*
X169690238Y-67649666D01*
X169690238Y-67649666D02*
X169737857Y-67616333D01*
X169737857Y-67616333D02*
X169833095Y-67582999D01*
X169833095Y-67582999D02*
X169880714Y-67582999D01*
X169880714Y-67582999D02*
X169975952Y-67616333D01*
X169975952Y-67616333D02*
X170023571Y-67649666D01*
X170023571Y-67649666D02*
X170071190Y-67716333D01*
X170071190Y-67716333D02*
X170071190Y-67849666D01*
X170071190Y-67849666D02*
X170118809Y-67916333D01*
X170118809Y-67916333D02*
X170166428Y-67949666D01*
X170166428Y-67949666D02*
X170261666Y-67982999D01*
X170261666Y-67982999D02*
X170452142Y-67982999D01*
X170452142Y-67982999D02*
X170547380Y-67949666D01*
X170547380Y-67949666D02*
X170595000Y-67916333D01*
X170595000Y-67916333D02*
X170642619Y-67849666D01*
X170642619Y-67849666D02*
X170642619Y-67716333D01*
X170642619Y-67716333D02*
X170595000Y-67649666D01*
X170595000Y-67649666D02*
X170547380Y-67616333D01*
X170547380Y-67616333D02*
X170452142Y-67582999D01*
X170452142Y-67582999D02*
X170261666Y-67582999D01*
X170261666Y-67582999D02*
X170166428Y-67616333D01*
X170166428Y-67616333D02*
X170118809Y-67649666D01*
X170118809Y-67649666D02*
X170071190Y-67716333D01*
X121650095Y-77628619D02*
X121650095Y-76628619D01*
X121650095Y-76628619D02*
X121888190Y-76628619D01*
X121888190Y-76628619D02*
X122031047Y-76676238D01*
X122031047Y-76676238D02*
X122126285Y-76771476D01*
X122126285Y-76771476D02*
X122173904Y-76866714D01*
X122173904Y-76866714D02*
X122221523Y-77057190D01*
X122221523Y-77057190D02*
X122221523Y-77200047D01*
X122221523Y-77200047D02*
X122173904Y-77390523D01*
X122173904Y-77390523D02*
X122126285Y-77485761D01*
X122126285Y-77485761D02*
X122031047Y-77581000D01*
X122031047Y-77581000D02*
X121888190Y-77628619D01*
X121888190Y-77628619D02*
X121650095Y-77628619D01*
X122650095Y-77628619D02*
X122650095Y-76628619D01*
X123126285Y-77628619D02*
X123126285Y-76628619D01*
X123126285Y-76628619D02*
X123697713Y-77628619D01*
X123697713Y-77628619D02*
X123697713Y-76628619D01*
X184658285Y-86836238D02*
X184563047Y-86788619D01*
X184563047Y-86788619D02*
X184420190Y-86788619D01*
X184420190Y-86788619D02*
X184277333Y-86836238D01*
X184277333Y-86836238D02*
X184182095Y-86931476D01*
X184182095Y-86931476D02*
X184134476Y-87026714D01*
X184134476Y-87026714D02*
X184086857Y-87217190D01*
X184086857Y-87217190D02*
X184086857Y-87360047D01*
X184086857Y-87360047D02*
X184134476Y-87550523D01*
X184134476Y-87550523D02*
X184182095Y-87645761D01*
X184182095Y-87645761D02*
X184277333Y-87741000D01*
X184277333Y-87741000D02*
X184420190Y-87788619D01*
X184420190Y-87788619D02*
X184515428Y-87788619D01*
X184515428Y-87788619D02*
X184658285Y-87741000D01*
X184658285Y-87741000D02*
X184705904Y-87693380D01*
X184705904Y-87693380D02*
X184705904Y-87360047D01*
X184705904Y-87360047D02*
X184515428Y-87360047D01*
X185134476Y-87788619D02*
X185134476Y-86788619D01*
X185134476Y-86788619D02*
X185705904Y-87788619D01*
X185705904Y-87788619D02*
X185705904Y-86788619D01*
X186182095Y-87788619D02*
X186182095Y-86788619D01*
X186182095Y-86788619D02*
X186420190Y-86788619D01*
X186420190Y-86788619D02*
X186563047Y-86836238D01*
X186563047Y-86836238D02*
X186658285Y-86931476D01*
X186658285Y-86931476D02*
X186705904Y-87026714D01*
X186705904Y-87026714D02*
X186753523Y-87217190D01*
X186753523Y-87217190D02*
X186753523Y-87360047D01*
X186753523Y-87360047D02*
X186705904Y-87550523D01*
X186705904Y-87550523D02*
X186658285Y-87645761D01*
X186658285Y-87645761D02*
X186563047Y-87741000D01*
X186563047Y-87741000D02*
X186420190Y-87788619D01*
X186420190Y-87788619D02*
X186182095Y-87788619D01*
D10*
X192756333Y-112775904D02*
X192756333Y-111252095D01*
X193518238Y-112013999D02*
X191994428Y-112013999D01*
D11*
X191643048Y-94315666D02*
X192404953Y-94315666D01*
X120771095Y-71596238D02*
X120675857Y-71548619D01*
X120675857Y-71548619D02*
X120533000Y-71548619D01*
X120533000Y-71548619D02*
X120390143Y-71596238D01*
X120390143Y-71596238D02*
X120294905Y-71691476D01*
X120294905Y-71691476D02*
X120247286Y-71786714D01*
X120247286Y-71786714D02*
X120199667Y-71977190D01*
X120199667Y-71977190D02*
X120199667Y-72120047D01*
X120199667Y-72120047D02*
X120247286Y-72310523D01*
X120247286Y-72310523D02*
X120294905Y-72405761D01*
X120294905Y-72405761D02*
X120390143Y-72501000D01*
X120390143Y-72501000D02*
X120533000Y-72548619D01*
X120533000Y-72548619D02*
X120628238Y-72548619D01*
X120628238Y-72548619D02*
X120771095Y-72501000D01*
X120771095Y-72501000D02*
X120818714Y-72453380D01*
X120818714Y-72453380D02*
X120818714Y-72120047D01*
X120818714Y-72120047D02*
X120628238Y-72120047D01*
X121247286Y-72548619D02*
X121247286Y-71548619D01*
X121247286Y-71548619D02*
X121818714Y-72548619D01*
X121818714Y-72548619D02*
X121818714Y-71548619D01*
X122294905Y-72548619D02*
X122294905Y-71548619D01*
X122294905Y-71548619D02*
X122533000Y-71548619D01*
X122533000Y-71548619D02*
X122675857Y-71596238D01*
X122675857Y-71596238D02*
X122771095Y-71691476D01*
X122771095Y-71691476D02*
X122818714Y-71786714D01*
X122818714Y-71786714D02*
X122866333Y-71977190D01*
X122866333Y-71977190D02*
X122866333Y-72120047D01*
X122866333Y-72120047D02*
X122818714Y-72310523D01*
X122818714Y-72310523D02*
X122771095Y-72405761D01*
X122771095Y-72405761D02*
X122675857Y-72501000D01*
X122675857Y-72501000D02*
X122533000Y-72548619D01*
X122533000Y-72548619D02*
X122294905Y-72548619D01*
X153348666Y-77565619D02*
X152948666Y-77565619D01*
X153148666Y-77565619D02*
X153148666Y-76565619D01*
X153148666Y-76565619D02*
X153081999Y-76708476D01*
X153081999Y-76708476D02*
X153015333Y-76803714D01*
X153015333Y-76803714D02*
X152948666Y-76851333D01*
X153782000Y-76565619D02*
X153848666Y-76565619D01*
X153848666Y-76565619D02*
X153915333Y-76613238D01*
X153915333Y-76613238D02*
X153948666Y-76660857D01*
X153948666Y-76660857D02*
X153982000Y-76756095D01*
X153982000Y-76756095D02*
X154015333Y-76946571D01*
X154015333Y-76946571D02*
X154015333Y-77184666D01*
X154015333Y-77184666D02*
X153982000Y-77375142D01*
X153982000Y-77375142D02*
X153948666Y-77470380D01*
X153948666Y-77470380D02*
X153915333Y-77518000D01*
X153915333Y-77518000D02*
X153848666Y-77565619D01*
X153848666Y-77565619D02*
X153782000Y-77565619D01*
X153782000Y-77565619D02*
X153715333Y-77518000D01*
X153715333Y-77518000D02*
X153682000Y-77470380D01*
X153682000Y-77470380D02*
X153648666Y-77375142D01*
X153648666Y-77375142D02*
X153615333Y-77184666D01*
X153615333Y-77184666D02*
X153615333Y-76946571D01*
X153615333Y-76946571D02*
X153648666Y-76756095D01*
X153648666Y-76756095D02*
X153682000Y-76660857D01*
X153682000Y-76660857D02*
X153715333Y-76613238D01*
X153715333Y-76613238D02*
X153782000Y-76565619D01*
X154448667Y-76565619D02*
X154515333Y-76565619D01*
X154515333Y-76565619D02*
X154582000Y-76613238D01*
X154582000Y-76613238D02*
X154615333Y-76660857D01*
X154615333Y-76660857D02*
X154648667Y-76756095D01*
X154648667Y-76756095D02*
X154682000Y-76946571D01*
X154682000Y-76946571D02*
X154682000Y-77184666D01*
X154682000Y-77184666D02*
X154648667Y-77375142D01*
X154648667Y-77375142D02*
X154615333Y-77470380D01*
X154615333Y-77470380D02*
X154582000Y-77518000D01*
X154582000Y-77518000D02*
X154515333Y-77565619D01*
X154515333Y-77565619D02*
X154448667Y-77565619D01*
X154448667Y-77565619D02*
X154382000Y-77518000D01*
X154382000Y-77518000D02*
X154348667Y-77470380D01*
X154348667Y-77470380D02*
X154315333Y-77375142D01*
X154315333Y-77375142D02*
X154282000Y-77184666D01*
X154282000Y-77184666D02*
X154282000Y-76946571D01*
X154282000Y-76946571D02*
X154315333Y-76756095D01*
X154315333Y-76756095D02*
X154348667Y-76660857D01*
X154348667Y-76660857D02*
X154382000Y-76613238D01*
X154382000Y-76613238D02*
X154448667Y-76565619D01*
X154982000Y-76898952D02*
X154982000Y-77565619D01*
X154982000Y-76994190D02*
X155015334Y-76946571D01*
X155015334Y-76946571D02*
X155082000Y-76898952D01*
X155082000Y-76898952D02*
X155182000Y-76898952D01*
X155182000Y-76898952D02*
X155248667Y-76946571D01*
X155248667Y-76946571D02*
X155282000Y-77041809D01*
X155282000Y-77041809D02*
X155282000Y-77565619D01*
X155848667Y-77041809D02*
X155615333Y-77041809D01*
X155615333Y-77565619D02*
X155615333Y-76565619D01*
X155615333Y-76565619D02*
X155948667Y-76565619D01*
D10*
X141956333Y-112775904D02*
X141956333Y-111252095D01*
X142718238Y-112013999D02*
X141194428Y-112013999D01*
D11*
X138714619Y-70115285D02*
X138714619Y-70686713D01*
X138714619Y-70400999D02*
X137714619Y-70400999D01*
X137714619Y-70400999D02*
X137857476Y-70496237D01*
X137857476Y-70496237D02*
X137952714Y-70591475D01*
X137952714Y-70591475D02*
X138000333Y-70686713D01*
X138714619Y-69686713D02*
X137714619Y-69686713D01*
X138714619Y-69115285D02*
X138143190Y-69543856D01*
X137714619Y-69115285D02*
X138286047Y-69686713D01*
X122221523Y-82613380D02*
X122173904Y-82661000D01*
X122173904Y-82661000D02*
X122031047Y-82708619D01*
X122031047Y-82708619D02*
X121935809Y-82708619D01*
X121935809Y-82708619D02*
X121792952Y-82661000D01*
X121792952Y-82661000D02*
X121697714Y-82565761D01*
X121697714Y-82565761D02*
X121650095Y-82470523D01*
X121650095Y-82470523D02*
X121602476Y-82280047D01*
X121602476Y-82280047D02*
X121602476Y-82137190D01*
X121602476Y-82137190D02*
X121650095Y-81946714D01*
X121650095Y-81946714D02*
X121697714Y-81851476D01*
X121697714Y-81851476D02*
X121792952Y-81756238D01*
X121792952Y-81756238D02*
X121935809Y-81708619D01*
X121935809Y-81708619D02*
X122031047Y-81708619D01*
X122031047Y-81708619D02*
X122173904Y-81756238D01*
X122173904Y-81756238D02*
X122221523Y-81803857D01*
X123126285Y-82708619D02*
X122650095Y-82708619D01*
X122650095Y-82708619D02*
X122650095Y-81708619D01*
X123459619Y-82708619D02*
X123459619Y-81708619D01*
X124031047Y-82708619D02*
X123602476Y-82137190D01*
X124031047Y-81708619D02*
X123459619Y-82280047D01*
D10*
X119096333Y-112775904D02*
X119096333Y-111252095D01*
X119858238Y-112013999D02*
X118334428Y-112013999D01*
X116932809Y-112004666D02*
X115409000Y-112004666D01*
D11*
X120358524Y-70008619D02*
X120549000Y-70008619D01*
X120549000Y-70008619D02*
X120644238Y-69961000D01*
X120644238Y-69961000D02*
X120691857Y-69913380D01*
X120691857Y-69913380D02*
X120787095Y-69770523D01*
X120787095Y-69770523D02*
X120834714Y-69580047D01*
X120834714Y-69580047D02*
X120834714Y-69199095D01*
X120834714Y-69199095D02*
X120787095Y-69103857D01*
X120787095Y-69103857D02*
X120739476Y-69056238D01*
X120739476Y-69056238D02*
X120644238Y-69008619D01*
X120644238Y-69008619D02*
X120453762Y-69008619D01*
X120453762Y-69008619D02*
X120358524Y-69056238D01*
X120358524Y-69056238D02*
X120310905Y-69103857D01*
X120310905Y-69103857D02*
X120263286Y-69199095D01*
X120263286Y-69199095D02*
X120263286Y-69437190D01*
X120263286Y-69437190D02*
X120310905Y-69532428D01*
X120310905Y-69532428D02*
X120358524Y-69580047D01*
X120358524Y-69580047D02*
X120453762Y-69627666D01*
X120453762Y-69627666D02*
X120644238Y-69627666D01*
X120644238Y-69627666D02*
X120739476Y-69580047D01*
X120739476Y-69580047D02*
X120787095Y-69532428D01*
X120787095Y-69532428D02*
X120834714Y-69437190D01*
X121263286Y-69627666D02*
X122025191Y-69627666D01*
X122453762Y-69103857D02*
X122501381Y-69056238D01*
X122501381Y-69056238D02*
X122596619Y-69008619D01*
X122596619Y-69008619D02*
X122834714Y-69008619D01*
X122834714Y-69008619D02*
X122929952Y-69056238D01*
X122929952Y-69056238D02*
X122977571Y-69103857D01*
X122977571Y-69103857D02*
X123025190Y-69199095D01*
X123025190Y-69199095D02*
X123025190Y-69294333D01*
X123025190Y-69294333D02*
X122977571Y-69437190D01*
X122977571Y-69437190D02*
X122406143Y-70008619D01*
X122406143Y-70008619D02*
X123025190Y-70008619D01*
X123882333Y-69341952D02*
X123882333Y-70008619D01*
X123644238Y-68961000D02*
X123406143Y-69675285D01*
X123406143Y-69675285D02*
X124025190Y-69675285D01*
X124263286Y-69008619D02*
X124596619Y-70008619D01*
X124596619Y-70008619D02*
X124929952Y-69008619D01*
D10*
X157572809Y-112004666D02*
X156049000Y-112004666D01*
X167732809Y-112004666D02*
X166209000Y-112004666D01*
D11*
X184943999Y-82613380D02*
X184896380Y-82661000D01*
X184896380Y-82661000D02*
X184753523Y-82708619D01*
X184753523Y-82708619D02*
X184658285Y-82708619D01*
X184658285Y-82708619D02*
X184515428Y-82661000D01*
X184515428Y-82661000D02*
X184420190Y-82565761D01*
X184420190Y-82565761D02*
X184372571Y-82470523D01*
X184372571Y-82470523D02*
X184324952Y-82280047D01*
X184324952Y-82280047D02*
X184324952Y-82137190D01*
X184324952Y-82137190D02*
X184372571Y-81946714D01*
X184372571Y-81946714D02*
X184420190Y-81851476D01*
X184420190Y-81851476D02*
X184515428Y-81756238D01*
X184515428Y-81756238D02*
X184658285Y-81708619D01*
X184658285Y-81708619D02*
X184753523Y-81708619D01*
X184753523Y-81708619D02*
X184896380Y-81756238D01*
X184896380Y-81756238D02*
X184943999Y-81803857D01*
X185848761Y-82708619D02*
X185372571Y-82708619D01*
X185372571Y-82708619D02*
X185372571Y-81708619D01*
X186182095Y-82708619D02*
X186182095Y-81708619D01*
X186753523Y-82708619D02*
X186324952Y-82137190D01*
X186753523Y-81708619D02*
X186182095Y-82280047D01*
D13*
X115816928Y-71290571D02*
X114816928Y-71290571D01*
X114316928Y-71290571D02*
X114388357Y-71361999D01*
X114388357Y-71361999D02*
X114459785Y-71290571D01*
X114459785Y-71290571D02*
X114388357Y-71219142D01*
X114388357Y-71219142D02*
X114316928Y-71290571D01*
X114316928Y-71290571D02*
X114459785Y-71290571D01*
X114816928Y-70576285D02*
X115816928Y-70576285D01*
X114959785Y-70576285D02*
X114888357Y-70504856D01*
X114888357Y-70504856D02*
X114816928Y-70361999D01*
X114816928Y-70361999D02*
X114816928Y-70147713D01*
X114816928Y-70147713D02*
X114888357Y-70004856D01*
X114888357Y-70004856D02*
X115031214Y-69933428D01*
X115031214Y-69933428D02*
X115816928Y-69933428D01*
D10*
X172436333Y-112775904D02*
X172436333Y-111252095D01*
X173198238Y-112013999D02*
X171674428Y-112013999D01*
D11*
X191643048Y-90759666D02*
X192404953Y-90759666D01*
X192024000Y-91140619D02*
X192024000Y-90378714D01*
X140589048Y-94315666D02*
X141350953Y-94315666D01*
D10*
X190216333Y-112775904D02*
X190216333Y-111252095D01*
X190978238Y-112013999D02*
X189454428Y-112013999D01*
D11*
X171323048Y-94315666D02*
X172084953Y-94315666D01*
D12*
X137130428Y-100171619D02*
X136716143Y-100171619D01*
X136923286Y-100171619D02*
X136923286Y-99171619D01*
X136923286Y-99171619D02*
X136854238Y-99314476D01*
X136854238Y-99314476D02*
X136785190Y-99409714D01*
X136785190Y-99409714D02*
X136716143Y-99457333D01*
X137441143Y-100171619D02*
X137441143Y-99171619D01*
X137441143Y-99171619D02*
X137855428Y-100171619D01*
X137855428Y-100171619D02*
X137855428Y-99171619D01*
X138511381Y-99504952D02*
X138511381Y-100171619D01*
X138338762Y-99124000D02*
X138166143Y-99838285D01*
X138166143Y-99838285D02*
X138614952Y-99838285D01*
X139029238Y-99171619D02*
X139098285Y-99171619D01*
X139098285Y-99171619D02*
X139167333Y-99219238D01*
X139167333Y-99219238D02*
X139201857Y-99266857D01*
X139201857Y-99266857D02*
X139236381Y-99362095D01*
X139236381Y-99362095D02*
X139270904Y-99552571D01*
X139270904Y-99552571D02*
X139270904Y-99790666D01*
X139270904Y-99790666D02*
X139236381Y-99981142D01*
X139236381Y-99981142D02*
X139201857Y-100076380D01*
X139201857Y-100076380D02*
X139167333Y-100124000D01*
X139167333Y-100124000D02*
X139098285Y-100171619D01*
X139098285Y-100171619D02*
X139029238Y-100171619D01*
X139029238Y-100171619D02*
X138960190Y-100124000D01*
X138960190Y-100124000D02*
X138925666Y-100076380D01*
X138925666Y-100076380D02*
X138891143Y-99981142D01*
X138891143Y-99981142D02*
X138856619Y-99790666D01*
X138856619Y-99790666D02*
X138856619Y-99552571D01*
X138856619Y-99552571D02*
X138891143Y-99362095D01*
X138891143Y-99362095D02*
X138925666Y-99266857D01*
X138925666Y-99266857D02*
X138960190Y-99219238D01*
X138960190Y-99219238D02*
X139029238Y-99171619D01*
X139719714Y-99171619D02*
X139788761Y-99171619D01*
X139788761Y-99171619D02*
X139857809Y-99219238D01*
X139857809Y-99219238D02*
X139892333Y-99266857D01*
X139892333Y-99266857D02*
X139926857Y-99362095D01*
X139926857Y-99362095D02*
X139961380Y-99552571D01*
X139961380Y-99552571D02*
X139961380Y-99790666D01*
X139961380Y-99790666D02*
X139926857Y-99981142D01*
X139926857Y-99981142D02*
X139892333Y-100076380D01*
X139892333Y-100076380D02*
X139857809Y-100124000D01*
X139857809Y-100124000D02*
X139788761Y-100171619D01*
X139788761Y-100171619D02*
X139719714Y-100171619D01*
X139719714Y-100171619D02*
X139650666Y-100124000D01*
X139650666Y-100124000D02*
X139616142Y-100076380D01*
X139616142Y-100076380D02*
X139581619Y-99981142D01*
X139581619Y-99981142D02*
X139547095Y-99790666D01*
X139547095Y-99790666D02*
X139547095Y-99552571D01*
X139547095Y-99552571D02*
X139581619Y-99362095D01*
X139581619Y-99362095D02*
X139616142Y-99266857D01*
X139616142Y-99266857D02*
X139650666Y-99219238D01*
X139650666Y-99219238D02*
X139719714Y-99171619D01*
X140651856Y-100171619D02*
X140237571Y-100171619D01*
X140444714Y-100171619D02*
X140444714Y-99171619D01*
X140444714Y-99171619D02*
X140375666Y-99314476D01*
X140375666Y-99314476D02*
X140306618Y-99409714D01*
X140306618Y-99409714D02*
X140237571Y-99457333D01*
D11*
X122126285Y-80168619D02*
X121650095Y-80168619D01*
X121650095Y-80168619D02*
X121650095Y-79168619D01*
X122412000Y-79882904D02*
X122888190Y-79882904D01*
X122316762Y-80168619D02*
X122650095Y-79168619D01*
X122650095Y-79168619D02*
X122983428Y-80168619D01*
X123173905Y-79168619D02*
X123745333Y-79168619D01*
X123459619Y-80168619D02*
X123459619Y-79168619D01*
X124650095Y-80073380D02*
X124602476Y-80121000D01*
X124602476Y-80121000D02*
X124459619Y-80168619D01*
X124459619Y-80168619D02*
X124364381Y-80168619D01*
X124364381Y-80168619D02*
X124221524Y-80121000D01*
X124221524Y-80121000D02*
X124126286Y-80025761D01*
X124126286Y-80025761D02*
X124078667Y-79930523D01*
X124078667Y-79930523D02*
X124031048Y-79740047D01*
X124031048Y-79740047D02*
X124031048Y-79597190D01*
X124031048Y-79597190D02*
X124078667Y-79406714D01*
X124078667Y-79406714D02*
X124126286Y-79311476D01*
X124126286Y-79311476D02*
X124221524Y-79216238D01*
X124221524Y-79216238D02*
X124364381Y-79168619D01*
X124364381Y-79168619D02*
X124459619Y-79168619D01*
X124459619Y-79168619D02*
X124602476Y-79216238D01*
X124602476Y-79216238D02*
X124650095Y-79263857D01*
X125078667Y-80168619D02*
X125078667Y-79168619D01*
X125078667Y-79644809D02*
X125650095Y-79644809D01*
X125650095Y-80168619D02*
X125650095Y-79168619D01*
D12*
X157450428Y-100171619D02*
X157036143Y-100171619D01*
X157243286Y-100171619D02*
X157243286Y-99171619D01*
X157243286Y-99171619D02*
X157174238Y-99314476D01*
X157174238Y-99314476D02*
X157105190Y-99409714D01*
X157105190Y-99409714D02*
X157036143Y-99457333D01*
X157761143Y-100171619D02*
X157761143Y-99171619D01*
X157761143Y-99171619D02*
X158175428Y-100171619D01*
X158175428Y-100171619D02*
X158175428Y-99171619D01*
X158831381Y-99504952D02*
X158831381Y-100171619D01*
X158658762Y-99124000D02*
X158486143Y-99838285D01*
X158486143Y-99838285D02*
X158934952Y-99838285D01*
X159349238Y-99171619D02*
X159418285Y-99171619D01*
X159418285Y-99171619D02*
X159487333Y-99219238D01*
X159487333Y-99219238D02*
X159521857Y-99266857D01*
X159521857Y-99266857D02*
X159556381Y-99362095D01*
X159556381Y-99362095D02*
X159590904Y-99552571D01*
X159590904Y-99552571D02*
X159590904Y-99790666D01*
X159590904Y-99790666D02*
X159556381Y-99981142D01*
X159556381Y-99981142D02*
X159521857Y-100076380D01*
X159521857Y-100076380D02*
X159487333Y-100124000D01*
X159487333Y-100124000D02*
X159418285Y-100171619D01*
X159418285Y-100171619D02*
X159349238Y-100171619D01*
X159349238Y-100171619D02*
X159280190Y-100124000D01*
X159280190Y-100124000D02*
X159245666Y-100076380D01*
X159245666Y-100076380D02*
X159211143Y-99981142D01*
X159211143Y-99981142D02*
X159176619Y-99790666D01*
X159176619Y-99790666D02*
X159176619Y-99552571D01*
X159176619Y-99552571D02*
X159211143Y-99362095D01*
X159211143Y-99362095D02*
X159245666Y-99266857D01*
X159245666Y-99266857D02*
X159280190Y-99219238D01*
X159280190Y-99219238D02*
X159349238Y-99171619D01*
X160039714Y-99171619D02*
X160108761Y-99171619D01*
X160108761Y-99171619D02*
X160177809Y-99219238D01*
X160177809Y-99219238D02*
X160212333Y-99266857D01*
X160212333Y-99266857D02*
X160246857Y-99362095D01*
X160246857Y-99362095D02*
X160281380Y-99552571D01*
X160281380Y-99552571D02*
X160281380Y-99790666D01*
X160281380Y-99790666D02*
X160246857Y-99981142D01*
X160246857Y-99981142D02*
X160212333Y-100076380D01*
X160212333Y-100076380D02*
X160177809Y-100124000D01*
X160177809Y-100124000D02*
X160108761Y-100171619D01*
X160108761Y-100171619D02*
X160039714Y-100171619D01*
X160039714Y-100171619D02*
X159970666Y-100124000D01*
X159970666Y-100124000D02*
X159936142Y-100076380D01*
X159936142Y-100076380D02*
X159901619Y-99981142D01*
X159901619Y-99981142D02*
X159867095Y-99790666D01*
X159867095Y-99790666D02*
X159867095Y-99552571D01*
X159867095Y-99552571D02*
X159901619Y-99362095D01*
X159901619Y-99362095D02*
X159936142Y-99266857D01*
X159936142Y-99266857D02*
X159970666Y-99219238D01*
X159970666Y-99219238D02*
X160039714Y-99171619D01*
X160971856Y-100171619D02*
X160557571Y-100171619D01*
X160764714Y-100171619D02*
X160764714Y-99171619D01*
X160764714Y-99171619D02*
X160695666Y-99314476D01*
X160695666Y-99314476D02*
X160626618Y-99409714D01*
X160626618Y-99409714D02*
X160557571Y-99457333D01*
D11*
X178592619Y-69861285D02*
X178592619Y-70432713D01*
X178592619Y-70146999D02*
X177592619Y-70146999D01*
X177592619Y-70146999D02*
X177735476Y-70242237D01*
X177735476Y-70242237D02*
X177830714Y-70337475D01*
X177830714Y-70337475D02*
X177878333Y-70432713D01*
X178592619Y-69432713D02*
X177592619Y-69432713D01*
X178592619Y-68861285D02*
X178021190Y-69289856D01*
X177592619Y-68861285D02*
X178164047Y-69432713D01*
D10*
X129256333Y-112775904D02*
X129256333Y-111252095D01*
X130018238Y-112013999D02*
X128494428Y-112013999D01*
X128950142Y-114882785D02*
X128807285Y-114811357D01*
X128807285Y-114811357D02*
X128664428Y-114668500D01*
X128664428Y-114668500D02*
X128450142Y-114454214D01*
X128450142Y-114454214D02*
X128307285Y-114382785D01*
X128307285Y-114382785D02*
X128164428Y-114382785D01*
X128235857Y-114739928D02*
X128093000Y-114668500D01*
X128093000Y-114668500D02*
X127950142Y-114525642D01*
X127950142Y-114525642D02*
X127878714Y-114239928D01*
X127878714Y-114239928D02*
X127878714Y-113739928D01*
X127878714Y-113739928D02*
X127950142Y-113454214D01*
X127950142Y-113454214D02*
X128093000Y-113311357D01*
X128093000Y-113311357D02*
X128235857Y-113239928D01*
X128235857Y-113239928D02*
X128521571Y-113239928D01*
X128521571Y-113239928D02*
X128664428Y-113311357D01*
X128664428Y-113311357D02*
X128807285Y-113454214D01*
X128807285Y-113454214D02*
X128878714Y-113739928D01*
X128878714Y-113739928D02*
X128878714Y-114239928D01*
X128878714Y-114239928D02*
X128807285Y-114525642D01*
X128807285Y-114525642D02*
X128664428Y-114668500D01*
X128664428Y-114668500D02*
X128521571Y-114739928D01*
X128521571Y-114739928D02*
X128235857Y-114739928D01*
X130307286Y-114739928D02*
X129450143Y-114739928D01*
X129878714Y-114739928D02*
X129878714Y-113239928D01*
X129878714Y-113239928D02*
X129735857Y-113454214D01*
X129735857Y-113454214D02*
X129593000Y-113597071D01*
X129593000Y-113597071D02*
X129450143Y-113668500D01*
D12*
X177770428Y-100171619D02*
X177356143Y-100171619D01*
X177563286Y-100171619D02*
X177563286Y-99171619D01*
X177563286Y-99171619D02*
X177494238Y-99314476D01*
X177494238Y-99314476D02*
X177425190Y-99409714D01*
X177425190Y-99409714D02*
X177356143Y-99457333D01*
X178081143Y-100171619D02*
X178081143Y-99171619D01*
X178081143Y-99171619D02*
X178495428Y-100171619D01*
X178495428Y-100171619D02*
X178495428Y-99171619D01*
X179151381Y-99504952D02*
X179151381Y-100171619D01*
X178978762Y-99124000D02*
X178806143Y-99838285D01*
X178806143Y-99838285D02*
X179254952Y-99838285D01*
X179669238Y-99171619D02*
X179738285Y-99171619D01*
X179738285Y-99171619D02*
X179807333Y-99219238D01*
X179807333Y-99219238D02*
X179841857Y-99266857D01*
X179841857Y-99266857D02*
X179876381Y-99362095D01*
X179876381Y-99362095D02*
X179910904Y-99552571D01*
X179910904Y-99552571D02*
X179910904Y-99790666D01*
X179910904Y-99790666D02*
X179876381Y-99981142D01*
X179876381Y-99981142D02*
X179841857Y-100076380D01*
X179841857Y-100076380D02*
X179807333Y-100124000D01*
X179807333Y-100124000D02*
X179738285Y-100171619D01*
X179738285Y-100171619D02*
X179669238Y-100171619D01*
X179669238Y-100171619D02*
X179600190Y-100124000D01*
X179600190Y-100124000D02*
X179565666Y-100076380D01*
X179565666Y-100076380D02*
X179531143Y-99981142D01*
X179531143Y-99981142D02*
X179496619Y-99790666D01*
X179496619Y-99790666D02*
X179496619Y-99552571D01*
X179496619Y-99552571D02*
X179531143Y-99362095D01*
X179531143Y-99362095D02*
X179565666Y-99266857D01*
X179565666Y-99266857D02*
X179600190Y-99219238D01*
X179600190Y-99219238D02*
X179669238Y-99171619D01*
X180359714Y-99171619D02*
X180428761Y-99171619D01*
X180428761Y-99171619D02*
X180497809Y-99219238D01*
X180497809Y-99219238D02*
X180532333Y-99266857D01*
X180532333Y-99266857D02*
X180566857Y-99362095D01*
X180566857Y-99362095D02*
X180601380Y-99552571D01*
X180601380Y-99552571D02*
X180601380Y-99790666D01*
X180601380Y-99790666D02*
X180566857Y-99981142D01*
X180566857Y-99981142D02*
X180532333Y-100076380D01*
X180532333Y-100076380D02*
X180497809Y-100124000D01*
X180497809Y-100124000D02*
X180428761Y-100171619D01*
X180428761Y-100171619D02*
X180359714Y-100171619D01*
X180359714Y-100171619D02*
X180290666Y-100124000D01*
X180290666Y-100124000D02*
X180256142Y-100076380D01*
X180256142Y-100076380D02*
X180221619Y-99981142D01*
X180221619Y-99981142D02*
X180187095Y-99790666D01*
X180187095Y-99790666D02*
X180187095Y-99552571D01*
X180187095Y-99552571D02*
X180221619Y-99362095D01*
X180221619Y-99362095D02*
X180256142Y-99266857D01*
X180256142Y-99266857D02*
X180290666Y-99219238D01*
X180290666Y-99219238D02*
X180359714Y-99171619D01*
X181291856Y-100171619D02*
X180877571Y-100171619D01*
X181084714Y-100171619D02*
X181084714Y-99171619D01*
X181084714Y-99171619D02*
X181015666Y-99314476D01*
X181015666Y-99314476D02*
X180946618Y-99409714D01*
X180946618Y-99409714D02*
X180877571Y-99457333D01*
D11*
X176052619Y-69861285D02*
X176052619Y-70432713D01*
X176052619Y-70146999D02*
X175052619Y-70146999D01*
X175052619Y-70146999D02*
X175195476Y-70242237D01*
X175195476Y-70242237D02*
X175290714Y-70337475D01*
X175290714Y-70337475D02*
X175338333Y-70432713D01*
X176052619Y-69432713D02*
X175052619Y-69432713D01*
X176052619Y-68861285D02*
X175481190Y-69289856D01*
X175052619Y-68861285D02*
X175624047Y-69432713D01*
D10*
X182596333Y-112775904D02*
X182596333Y-111252095D01*
X183358238Y-112013999D02*
X181834428Y-112013999D01*
D11*
X161163048Y-90759666D02*
X161924953Y-90759666D01*
X161544000Y-91140619D02*
X161544000Y-90378714D01*
X184182095Y-84248619D02*
X184515428Y-85248619D01*
X184515428Y-85248619D02*
X184848761Y-84248619D01*
X185753523Y-85153380D02*
X185705904Y-85201000D01*
X185705904Y-85201000D02*
X185563047Y-85248619D01*
X185563047Y-85248619D02*
X185467809Y-85248619D01*
X185467809Y-85248619D02*
X185324952Y-85201000D01*
X185324952Y-85201000D02*
X185229714Y-85105761D01*
X185229714Y-85105761D02*
X185182095Y-85010523D01*
X185182095Y-85010523D02*
X185134476Y-84820047D01*
X185134476Y-84820047D02*
X185134476Y-84677190D01*
X185134476Y-84677190D02*
X185182095Y-84486714D01*
X185182095Y-84486714D02*
X185229714Y-84391476D01*
X185229714Y-84391476D02*
X185324952Y-84296238D01*
X185324952Y-84296238D02*
X185467809Y-84248619D01*
X185467809Y-84248619D02*
X185563047Y-84248619D01*
X185563047Y-84248619D02*
X185705904Y-84296238D01*
X185705904Y-84296238D02*
X185753523Y-84343857D01*
X186753523Y-85153380D02*
X186705904Y-85201000D01*
X186705904Y-85201000D02*
X186563047Y-85248619D01*
X186563047Y-85248619D02*
X186467809Y-85248619D01*
X186467809Y-85248619D02*
X186324952Y-85201000D01*
X186324952Y-85201000D02*
X186229714Y-85105761D01*
X186229714Y-85105761D02*
X186182095Y-85010523D01*
X186182095Y-85010523D02*
X186134476Y-84820047D01*
X186134476Y-84820047D02*
X186134476Y-84677190D01*
X186134476Y-84677190D02*
X186182095Y-84486714D01*
X186182095Y-84486714D02*
X186229714Y-84391476D01*
X186229714Y-84391476D02*
X186324952Y-84296238D01*
X186324952Y-84296238D02*
X186467809Y-84248619D01*
X186467809Y-84248619D02*
X186563047Y-84248619D01*
X186563047Y-84248619D02*
X186705904Y-84296238D01*
X186705904Y-84296238D02*
X186753523Y-84343857D01*
X161163048Y-94315666D02*
X161924953Y-94315666D01*
D10*
X137252809Y-112004666D02*
X135729000Y-112004666D01*
D12*
X166594428Y-96869619D02*
X166180143Y-96869619D01*
X166387286Y-96869619D02*
X166387286Y-95869619D01*
X166387286Y-95869619D02*
X166318238Y-96012476D01*
X166318238Y-96012476D02*
X166249190Y-96107714D01*
X166249190Y-96107714D02*
X166180143Y-96155333D01*
X166905143Y-96869619D02*
X166905143Y-95869619D01*
X166905143Y-95869619D02*
X167319428Y-96869619D01*
X167319428Y-96869619D02*
X167319428Y-95869619D01*
X167975381Y-96202952D02*
X167975381Y-96869619D01*
X167802762Y-95822000D02*
X167630143Y-96536285D01*
X167630143Y-96536285D02*
X168078952Y-96536285D01*
X168493238Y-95869619D02*
X168562285Y-95869619D01*
X168562285Y-95869619D02*
X168631333Y-95917238D01*
X168631333Y-95917238D02*
X168665857Y-95964857D01*
X168665857Y-95964857D02*
X168700381Y-96060095D01*
X168700381Y-96060095D02*
X168734904Y-96250571D01*
X168734904Y-96250571D02*
X168734904Y-96488666D01*
X168734904Y-96488666D02*
X168700381Y-96679142D01*
X168700381Y-96679142D02*
X168665857Y-96774380D01*
X168665857Y-96774380D02*
X168631333Y-96822000D01*
X168631333Y-96822000D02*
X168562285Y-96869619D01*
X168562285Y-96869619D02*
X168493238Y-96869619D01*
X168493238Y-96869619D02*
X168424190Y-96822000D01*
X168424190Y-96822000D02*
X168389666Y-96774380D01*
X168389666Y-96774380D02*
X168355143Y-96679142D01*
X168355143Y-96679142D02*
X168320619Y-96488666D01*
X168320619Y-96488666D02*
X168320619Y-96250571D01*
X168320619Y-96250571D02*
X168355143Y-96060095D01*
X168355143Y-96060095D02*
X168389666Y-95964857D01*
X168389666Y-95964857D02*
X168424190Y-95917238D01*
X168424190Y-95917238D02*
X168493238Y-95869619D01*
X169183714Y-95869619D02*
X169252761Y-95869619D01*
X169252761Y-95869619D02*
X169321809Y-95917238D01*
X169321809Y-95917238D02*
X169356333Y-95964857D01*
X169356333Y-95964857D02*
X169390857Y-96060095D01*
X169390857Y-96060095D02*
X169425380Y-96250571D01*
X169425380Y-96250571D02*
X169425380Y-96488666D01*
X169425380Y-96488666D02*
X169390857Y-96679142D01*
X169390857Y-96679142D02*
X169356333Y-96774380D01*
X169356333Y-96774380D02*
X169321809Y-96822000D01*
X169321809Y-96822000D02*
X169252761Y-96869619D01*
X169252761Y-96869619D02*
X169183714Y-96869619D01*
X169183714Y-96869619D02*
X169114666Y-96822000D01*
X169114666Y-96822000D02*
X169080142Y-96774380D01*
X169080142Y-96774380D02*
X169045619Y-96679142D01*
X169045619Y-96679142D02*
X169011095Y-96488666D01*
X169011095Y-96488666D02*
X169011095Y-96250571D01*
X169011095Y-96250571D02*
X169045619Y-96060095D01*
X169045619Y-96060095D02*
X169080142Y-95964857D01*
X169080142Y-95964857D02*
X169114666Y-95917238D01*
X169114666Y-95917238D02*
X169183714Y-95869619D01*
X170115856Y-96869619D02*
X169701571Y-96869619D01*
X169908714Y-96869619D02*
X169908714Y-95869619D01*
X169908714Y-95869619D02*
X169839666Y-96012476D01*
X169839666Y-96012476D02*
X169770618Y-96107714D01*
X169770618Y-96107714D02*
X169701571Y-96155333D01*
D10*
X139416333Y-112775904D02*
X139416333Y-111252095D01*
X140178238Y-112013999D02*
X138654428Y-112013999D01*
X188052809Y-112004666D02*
X186529000Y-112004666D01*
D11*
X140589048Y-90759666D02*
X141350953Y-90759666D01*
X140970000Y-91140619D02*
X140970000Y-90378714D01*
D12*
X119350428Y-100425619D02*
X118936143Y-100425619D01*
X119143286Y-100425619D02*
X119143286Y-99425619D01*
X119143286Y-99425619D02*
X119074238Y-99568476D01*
X119074238Y-99568476D02*
X119005190Y-99663714D01*
X119005190Y-99663714D02*
X118936143Y-99711333D01*
X119661143Y-100425619D02*
X119661143Y-99425619D01*
X119661143Y-99425619D02*
X120075428Y-100425619D01*
X120075428Y-100425619D02*
X120075428Y-99425619D01*
X120731381Y-99758952D02*
X120731381Y-100425619D01*
X120558762Y-99378000D02*
X120386143Y-100092285D01*
X120386143Y-100092285D02*
X120834952Y-100092285D01*
X121249238Y-99425619D02*
X121318285Y-99425619D01*
X121318285Y-99425619D02*
X121387333Y-99473238D01*
X121387333Y-99473238D02*
X121421857Y-99520857D01*
X121421857Y-99520857D02*
X121456381Y-99616095D01*
X121456381Y-99616095D02*
X121490904Y-99806571D01*
X121490904Y-99806571D02*
X121490904Y-100044666D01*
X121490904Y-100044666D02*
X121456381Y-100235142D01*
X121456381Y-100235142D02*
X121421857Y-100330380D01*
X121421857Y-100330380D02*
X121387333Y-100378000D01*
X121387333Y-100378000D02*
X121318285Y-100425619D01*
X121318285Y-100425619D02*
X121249238Y-100425619D01*
X121249238Y-100425619D02*
X121180190Y-100378000D01*
X121180190Y-100378000D02*
X121145666Y-100330380D01*
X121145666Y-100330380D02*
X121111143Y-100235142D01*
X121111143Y-100235142D02*
X121076619Y-100044666D01*
X121076619Y-100044666D02*
X121076619Y-99806571D01*
X121076619Y-99806571D02*
X121111143Y-99616095D01*
X121111143Y-99616095D02*
X121145666Y-99520857D01*
X121145666Y-99520857D02*
X121180190Y-99473238D01*
X121180190Y-99473238D02*
X121249238Y-99425619D01*
X121939714Y-99425619D02*
X122008761Y-99425619D01*
X122008761Y-99425619D02*
X122077809Y-99473238D01*
X122077809Y-99473238D02*
X122112333Y-99520857D01*
X122112333Y-99520857D02*
X122146857Y-99616095D01*
X122146857Y-99616095D02*
X122181380Y-99806571D01*
X122181380Y-99806571D02*
X122181380Y-100044666D01*
X122181380Y-100044666D02*
X122146857Y-100235142D01*
X122146857Y-100235142D02*
X122112333Y-100330380D01*
X122112333Y-100330380D02*
X122077809Y-100378000D01*
X122077809Y-100378000D02*
X122008761Y-100425619D01*
X122008761Y-100425619D02*
X121939714Y-100425619D01*
X121939714Y-100425619D02*
X121870666Y-100378000D01*
X121870666Y-100378000D02*
X121836142Y-100330380D01*
X121836142Y-100330380D02*
X121801619Y-100235142D01*
X121801619Y-100235142D02*
X121767095Y-100044666D01*
X121767095Y-100044666D02*
X121767095Y-99806571D01*
X121767095Y-99806571D02*
X121801619Y-99616095D01*
X121801619Y-99616095D02*
X121836142Y-99520857D01*
X121836142Y-99520857D02*
X121870666Y-99473238D01*
X121870666Y-99473238D02*
X121939714Y-99425619D01*
X122871856Y-100425619D02*
X122457571Y-100425619D01*
X122664714Y-100425619D02*
X122664714Y-99425619D01*
X122664714Y-99425619D02*
X122595666Y-99568476D01*
X122595666Y-99568476D02*
X122526618Y-99663714D01*
X122526618Y-99663714D02*
X122457571Y-99711333D01*
D10*
X189910142Y-114882785D02*
X189767285Y-114811357D01*
X189767285Y-114811357D02*
X189624428Y-114668500D01*
X189624428Y-114668500D02*
X189410142Y-114454214D01*
X189410142Y-114454214D02*
X189267285Y-114382785D01*
X189267285Y-114382785D02*
X189124428Y-114382785D01*
X189195857Y-114739928D02*
X189053000Y-114668500D01*
X189053000Y-114668500D02*
X188910142Y-114525642D01*
X188910142Y-114525642D02*
X188838714Y-114239928D01*
X188838714Y-114239928D02*
X188838714Y-113739928D01*
X188838714Y-113739928D02*
X188910142Y-113454214D01*
X188910142Y-113454214D02*
X189053000Y-113311357D01*
X189053000Y-113311357D02*
X189195857Y-113239928D01*
X189195857Y-113239928D02*
X189481571Y-113239928D01*
X189481571Y-113239928D02*
X189624428Y-113311357D01*
X189624428Y-113311357D02*
X189767285Y-113454214D01*
X189767285Y-113454214D02*
X189838714Y-113739928D01*
X189838714Y-113739928D02*
X189838714Y-114239928D01*
X189838714Y-114239928D02*
X189767285Y-114525642D01*
X189767285Y-114525642D02*
X189624428Y-114668500D01*
X189624428Y-114668500D02*
X189481571Y-114739928D01*
X189481571Y-114739928D02*
X189195857Y-114739928D01*
X190338714Y-113239928D02*
X191338714Y-113239928D01*
X191338714Y-113239928D02*
X190695857Y-114739928D01*
D12*
X185390428Y-96869619D02*
X184976143Y-96869619D01*
X185183286Y-96869619D02*
X185183286Y-95869619D01*
X185183286Y-95869619D02*
X185114238Y-96012476D01*
X185114238Y-96012476D02*
X185045190Y-96107714D01*
X185045190Y-96107714D02*
X184976143Y-96155333D01*
X185701143Y-96869619D02*
X185701143Y-95869619D01*
X185701143Y-95869619D02*
X186115428Y-96869619D01*
X186115428Y-96869619D02*
X186115428Y-95869619D01*
X186771381Y-96202952D02*
X186771381Y-96869619D01*
X186598762Y-95822000D02*
X186426143Y-96536285D01*
X186426143Y-96536285D02*
X186874952Y-96536285D01*
X187289238Y-95869619D02*
X187358285Y-95869619D01*
X187358285Y-95869619D02*
X187427333Y-95917238D01*
X187427333Y-95917238D02*
X187461857Y-95964857D01*
X187461857Y-95964857D02*
X187496381Y-96060095D01*
X187496381Y-96060095D02*
X187530904Y-96250571D01*
X187530904Y-96250571D02*
X187530904Y-96488666D01*
X187530904Y-96488666D02*
X187496381Y-96679142D01*
X187496381Y-96679142D02*
X187461857Y-96774380D01*
X187461857Y-96774380D02*
X187427333Y-96822000D01*
X187427333Y-96822000D02*
X187358285Y-96869619D01*
X187358285Y-96869619D02*
X187289238Y-96869619D01*
X187289238Y-96869619D02*
X187220190Y-96822000D01*
X187220190Y-96822000D02*
X187185666Y-96774380D01*
X187185666Y-96774380D02*
X187151143Y-96679142D01*
X187151143Y-96679142D02*
X187116619Y-96488666D01*
X187116619Y-96488666D02*
X187116619Y-96250571D01*
X187116619Y-96250571D02*
X187151143Y-96060095D01*
X187151143Y-96060095D02*
X187185666Y-95964857D01*
X187185666Y-95964857D02*
X187220190Y-95917238D01*
X187220190Y-95917238D02*
X187289238Y-95869619D01*
X187979714Y-95869619D02*
X188048761Y-95869619D01*
X188048761Y-95869619D02*
X188117809Y-95917238D01*
X188117809Y-95917238D02*
X188152333Y-95964857D01*
X188152333Y-95964857D02*
X188186857Y-96060095D01*
X188186857Y-96060095D02*
X188221380Y-96250571D01*
X188221380Y-96250571D02*
X188221380Y-96488666D01*
X188221380Y-96488666D02*
X188186857Y-96679142D01*
X188186857Y-96679142D02*
X188152333Y-96774380D01*
X188152333Y-96774380D02*
X188117809Y-96822000D01*
X188117809Y-96822000D02*
X188048761Y-96869619D01*
X188048761Y-96869619D02*
X187979714Y-96869619D01*
X187979714Y-96869619D02*
X187910666Y-96822000D01*
X187910666Y-96822000D02*
X187876142Y-96774380D01*
X187876142Y-96774380D02*
X187841619Y-96679142D01*
X187841619Y-96679142D02*
X187807095Y-96488666D01*
X187807095Y-96488666D02*
X187807095Y-96250571D01*
X187807095Y-96250571D02*
X187841619Y-96060095D01*
X187841619Y-96060095D02*
X187876142Y-95964857D01*
X187876142Y-95964857D02*
X187910666Y-95917238D01*
X187910666Y-95917238D02*
X187979714Y-95869619D01*
X188911856Y-96869619D02*
X188497571Y-96869619D01*
X188704714Y-96869619D02*
X188704714Y-95869619D01*
X188704714Y-95869619D02*
X188635666Y-96012476D01*
X188635666Y-96012476D02*
X188566618Y-96107714D01*
X188566618Y-96107714D02*
X188497571Y-96155333D01*
D10*
X149270142Y-114882785D02*
X149127285Y-114811357D01*
X149127285Y-114811357D02*
X148984428Y-114668500D01*
X148984428Y-114668500D02*
X148770142Y-114454214D01*
X148770142Y-114454214D02*
X148627285Y-114382785D01*
X148627285Y-114382785D02*
X148484428Y-114382785D01*
X148555857Y-114739928D02*
X148413000Y-114668500D01*
X148413000Y-114668500D02*
X148270142Y-114525642D01*
X148270142Y-114525642D02*
X148198714Y-114239928D01*
X148198714Y-114239928D02*
X148198714Y-113739928D01*
X148198714Y-113739928D02*
X148270142Y-113454214D01*
X148270142Y-113454214D02*
X148413000Y-113311357D01*
X148413000Y-113311357D02*
X148555857Y-113239928D01*
X148555857Y-113239928D02*
X148841571Y-113239928D01*
X148841571Y-113239928D02*
X148984428Y-113311357D01*
X148984428Y-113311357D02*
X149127285Y-113454214D01*
X149127285Y-113454214D02*
X149198714Y-113739928D01*
X149198714Y-113739928D02*
X149198714Y-114239928D01*
X149198714Y-114239928D02*
X149127285Y-114525642D01*
X149127285Y-114525642D02*
X148984428Y-114668500D01*
X148984428Y-114668500D02*
X148841571Y-114739928D01*
X148841571Y-114739928D02*
X148555857Y-114739928D01*
X149698714Y-113239928D02*
X150627286Y-113239928D01*
X150627286Y-113239928D02*
X150127286Y-113811357D01*
X150127286Y-113811357D02*
X150341571Y-113811357D01*
X150341571Y-113811357D02*
X150484429Y-113882785D01*
X150484429Y-113882785D02*
X150555857Y-113954214D01*
X150555857Y-113954214D02*
X150627286Y-114097071D01*
X150627286Y-114097071D02*
X150627286Y-114454214D01*
X150627286Y-114454214D02*
X150555857Y-114597071D01*
X150555857Y-114597071D02*
X150484429Y-114668500D01*
X150484429Y-114668500D02*
X150341571Y-114739928D01*
X150341571Y-114739928D02*
X149913000Y-114739928D01*
X149913000Y-114739928D02*
X149770143Y-114668500D01*
X149770143Y-114668500D02*
X149698714Y-114597071D01*
D11*
X141000619Y-70115285D02*
X141000619Y-70686713D01*
X141000619Y-70400999D02*
X140000619Y-70400999D01*
X140000619Y-70400999D02*
X140143476Y-70496237D01*
X140143476Y-70496237D02*
X140238714Y-70591475D01*
X140238714Y-70591475D02*
X140286333Y-70686713D01*
X141000619Y-69686713D02*
X140000619Y-69686713D01*
X141000619Y-69115285D02*
X140429190Y-69543856D01*
X140000619Y-69115285D02*
X140572047Y-69686713D01*
D10*
X132654283Y-119843000D02*
X132844759Y-119938238D01*
X132844759Y-119938238D02*
X133225711Y-119938238D01*
X133225711Y-119938238D02*
X133416188Y-119843000D01*
X133416188Y-119843000D02*
X133511426Y-119652523D01*
X133511426Y-119652523D02*
X133511426Y-119557285D01*
X133511426Y-119557285D02*
X133416188Y-119366809D01*
X133416188Y-119366809D02*
X133225711Y-119271571D01*
X133225711Y-119271571D02*
X132939997Y-119271571D01*
X132939997Y-119271571D02*
X132749521Y-119176333D01*
X132749521Y-119176333D02*
X132654283Y-118985857D01*
X132654283Y-118985857D02*
X132654283Y-118890619D01*
X132654283Y-118890619D02*
X132749521Y-118700142D01*
X132749521Y-118700142D02*
X132939997Y-118604904D01*
X132939997Y-118604904D02*
X133225711Y-118604904D01*
X133225711Y-118604904D02*
X133416188Y-118700142D01*
X134368569Y-119938238D02*
X134368569Y-117938238D01*
X135225712Y-119938238D02*
X135225712Y-118890619D01*
X135225712Y-118890619D02*
X135130474Y-118700142D01*
X135130474Y-118700142D02*
X134939998Y-118604904D01*
X134939998Y-118604904D02*
X134654283Y-118604904D01*
X134654283Y-118604904D02*
X134463807Y-118700142D01*
X134463807Y-118700142D02*
X134368569Y-118795380D01*
X136178093Y-119938238D02*
X136178093Y-118604904D01*
X136178093Y-117938238D02*
X136082855Y-118033476D01*
X136082855Y-118033476D02*
X136178093Y-118128714D01*
X136178093Y-118128714D02*
X136273331Y-118033476D01*
X136273331Y-118033476D02*
X136178093Y-117938238D01*
X136178093Y-117938238D02*
X136178093Y-118128714D01*
X136844760Y-118604904D02*
X137606664Y-118604904D01*
X137130474Y-119938238D02*
X137130474Y-118223952D01*
X137130474Y-118223952D02*
X137225712Y-118033476D01*
X137225712Y-118033476D02*
X137416188Y-117938238D01*
X137416188Y-117938238D02*
X137606664Y-117938238D01*
X137987617Y-118604904D02*
X138749521Y-118604904D01*
X138273331Y-117938238D02*
X138273331Y-119652523D01*
X138273331Y-119652523D02*
X138368569Y-119843000D01*
X138368569Y-119843000D02*
X138559045Y-119938238D01*
X138559045Y-119938238D02*
X138749521Y-119938238D01*
X140939998Y-119938238D02*
X140939998Y-118604904D01*
X140939998Y-118985857D02*
X141035236Y-118795380D01*
X141035236Y-118795380D02*
X141130474Y-118700142D01*
X141130474Y-118700142D02*
X141320950Y-118604904D01*
X141320950Y-118604904D02*
X141511427Y-118604904D01*
X142939998Y-119843000D02*
X142749522Y-119938238D01*
X142749522Y-119938238D02*
X142368569Y-119938238D01*
X142368569Y-119938238D02*
X142178093Y-119843000D01*
X142178093Y-119843000D02*
X142082855Y-119652523D01*
X142082855Y-119652523D02*
X142082855Y-118890619D01*
X142082855Y-118890619D02*
X142178093Y-118700142D01*
X142178093Y-118700142D02*
X142368569Y-118604904D01*
X142368569Y-118604904D02*
X142749522Y-118604904D01*
X142749522Y-118604904D02*
X142939998Y-118700142D01*
X142939998Y-118700142D02*
X143035236Y-118890619D01*
X143035236Y-118890619D02*
X143035236Y-119081095D01*
X143035236Y-119081095D02*
X142082855Y-119271571D01*
X144749522Y-118604904D02*
X144749522Y-120223952D01*
X144749522Y-120223952D02*
X144654284Y-120414428D01*
X144654284Y-120414428D02*
X144559046Y-120509666D01*
X144559046Y-120509666D02*
X144368569Y-120604904D01*
X144368569Y-120604904D02*
X144082855Y-120604904D01*
X144082855Y-120604904D02*
X143892379Y-120509666D01*
X144749522Y-119843000D02*
X144559046Y-119938238D01*
X144559046Y-119938238D02*
X144178093Y-119938238D01*
X144178093Y-119938238D02*
X143987617Y-119843000D01*
X143987617Y-119843000D02*
X143892379Y-119747761D01*
X143892379Y-119747761D02*
X143797141Y-119557285D01*
X143797141Y-119557285D02*
X143797141Y-118985857D01*
X143797141Y-118985857D02*
X143892379Y-118795380D01*
X143892379Y-118795380D02*
X143987617Y-118700142D01*
X143987617Y-118700142D02*
X144178093Y-118604904D01*
X144178093Y-118604904D02*
X144559046Y-118604904D01*
X144559046Y-118604904D02*
X144749522Y-118700142D01*
X145701903Y-119938238D02*
X145701903Y-118604904D01*
X145701903Y-117938238D02*
X145606665Y-118033476D01*
X145606665Y-118033476D02*
X145701903Y-118128714D01*
X145701903Y-118128714D02*
X145797141Y-118033476D01*
X145797141Y-118033476D02*
X145701903Y-117938238D01*
X145701903Y-117938238D02*
X145701903Y-118128714D01*
X146559046Y-119843000D02*
X146749522Y-119938238D01*
X146749522Y-119938238D02*
X147130474Y-119938238D01*
X147130474Y-119938238D02*
X147320951Y-119843000D01*
X147320951Y-119843000D02*
X147416189Y-119652523D01*
X147416189Y-119652523D02*
X147416189Y-119557285D01*
X147416189Y-119557285D02*
X147320951Y-119366809D01*
X147320951Y-119366809D02*
X147130474Y-119271571D01*
X147130474Y-119271571D02*
X146844760Y-119271571D01*
X146844760Y-119271571D02*
X146654284Y-119176333D01*
X146654284Y-119176333D02*
X146559046Y-118985857D01*
X146559046Y-118985857D02*
X146559046Y-118890619D01*
X146559046Y-118890619D02*
X146654284Y-118700142D01*
X146654284Y-118700142D02*
X146844760Y-118604904D01*
X146844760Y-118604904D02*
X147130474Y-118604904D01*
X147130474Y-118604904D02*
X147320951Y-118700142D01*
X147987618Y-118604904D02*
X148749522Y-118604904D01*
X148273332Y-117938238D02*
X148273332Y-119652523D01*
X148273332Y-119652523D02*
X148368570Y-119843000D01*
X148368570Y-119843000D02*
X148559046Y-119938238D01*
X148559046Y-119938238D02*
X148749522Y-119938238D01*
X150178094Y-119843000D02*
X149987618Y-119938238D01*
X149987618Y-119938238D02*
X149606665Y-119938238D01*
X149606665Y-119938238D02*
X149416189Y-119843000D01*
X149416189Y-119843000D02*
X149320951Y-119652523D01*
X149320951Y-119652523D02*
X149320951Y-118890619D01*
X149320951Y-118890619D02*
X149416189Y-118700142D01*
X149416189Y-118700142D02*
X149606665Y-118604904D01*
X149606665Y-118604904D02*
X149987618Y-118604904D01*
X149987618Y-118604904D02*
X150178094Y-118700142D01*
X150178094Y-118700142D02*
X150273332Y-118890619D01*
X150273332Y-118890619D02*
X150273332Y-119081095D01*
X150273332Y-119081095D02*
X149320951Y-119271571D01*
X151130475Y-119938238D02*
X151130475Y-118604904D01*
X151130475Y-118985857D02*
X151225713Y-118795380D01*
X151225713Y-118795380D02*
X151320951Y-118700142D01*
X151320951Y-118700142D02*
X151511427Y-118604904D01*
X151511427Y-118604904D02*
X151701904Y-118604904D01*
X153892380Y-119938238D02*
X153892380Y-118604904D01*
X153892380Y-118795380D02*
X153987618Y-118700142D01*
X153987618Y-118700142D02*
X154178094Y-118604904D01*
X154178094Y-118604904D02*
X154463809Y-118604904D01*
X154463809Y-118604904D02*
X154654285Y-118700142D01*
X154654285Y-118700142D02*
X154749523Y-118890619D01*
X154749523Y-118890619D02*
X154749523Y-119938238D01*
X154749523Y-118890619D02*
X154844761Y-118700142D01*
X154844761Y-118700142D02*
X155035237Y-118604904D01*
X155035237Y-118604904D02*
X155320951Y-118604904D01*
X155320951Y-118604904D02*
X155511428Y-118700142D01*
X155511428Y-118700142D02*
X155606666Y-118890619D01*
X155606666Y-118890619D02*
X155606666Y-119938238D01*
X156844761Y-119938238D02*
X156654285Y-119843000D01*
X156654285Y-119843000D02*
X156559047Y-119747761D01*
X156559047Y-119747761D02*
X156463809Y-119557285D01*
X156463809Y-119557285D02*
X156463809Y-118985857D01*
X156463809Y-118985857D02*
X156559047Y-118795380D01*
X156559047Y-118795380D02*
X156654285Y-118700142D01*
X156654285Y-118700142D02*
X156844761Y-118604904D01*
X156844761Y-118604904D02*
X157130476Y-118604904D01*
X157130476Y-118604904D02*
X157320952Y-118700142D01*
X157320952Y-118700142D02*
X157416190Y-118795380D01*
X157416190Y-118795380D02*
X157511428Y-118985857D01*
X157511428Y-118985857D02*
X157511428Y-119557285D01*
X157511428Y-119557285D02*
X157416190Y-119747761D01*
X157416190Y-119747761D02*
X157320952Y-119843000D01*
X157320952Y-119843000D02*
X157130476Y-119938238D01*
X157130476Y-119938238D02*
X156844761Y-119938238D01*
X158273333Y-119843000D02*
X158463809Y-119938238D01*
X158463809Y-119938238D02*
X158844761Y-119938238D01*
X158844761Y-119938238D02*
X159035238Y-119843000D01*
X159035238Y-119843000D02*
X159130476Y-119652523D01*
X159130476Y-119652523D02*
X159130476Y-119557285D01*
X159130476Y-119557285D02*
X159035238Y-119366809D01*
X159035238Y-119366809D02*
X158844761Y-119271571D01*
X158844761Y-119271571D02*
X158559047Y-119271571D01*
X158559047Y-119271571D02*
X158368571Y-119176333D01*
X158368571Y-119176333D02*
X158273333Y-118985857D01*
X158273333Y-118985857D02*
X158273333Y-118890619D01*
X158273333Y-118890619D02*
X158368571Y-118700142D01*
X158368571Y-118700142D02*
X158559047Y-118604904D01*
X158559047Y-118604904D02*
X158844761Y-118604904D01*
X158844761Y-118604904D02*
X159035238Y-118700142D01*
X159701905Y-118604904D02*
X160463809Y-118604904D01*
X159987619Y-119938238D02*
X159987619Y-118223952D01*
X159987619Y-118223952D02*
X160082857Y-118033476D01*
X160082857Y-118033476D02*
X160273333Y-117938238D01*
X160273333Y-117938238D02*
X160463809Y-117938238D01*
X161892381Y-119843000D02*
X161701905Y-119938238D01*
X161701905Y-119938238D02*
X161320952Y-119938238D01*
X161320952Y-119938238D02*
X161130476Y-119843000D01*
X161130476Y-119843000D02*
X161035238Y-119652523D01*
X161035238Y-119652523D02*
X161035238Y-118890619D01*
X161035238Y-118890619D02*
X161130476Y-118700142D01*
X161130476Y-118700142D02*
X161320952Y-118604904D01*
X161320952Y-118604904D02*
X161701905Y-118604904D01*
X161701905Y-118604904D02*
X161892381Y-118700142D01*
X161892381Y-118700142D02*
X161987619Y-118890619D01*
X161987619Y-118890619D02*
X161987619Y-119081095D01*
X161987619Y-119081095D02*
X161035238Y-119271571D01*
X162559048Y-118604904D02*
X163320952Y-118604904D01*
X162844762Y-117938238D02*
X162844762Y-119652523D01*
X162844762Y-119652523D02*
X162940000Y-119843000D01*
X162940000Y-119843000D02*
X163130476Y-119938238D01*
X163130476Y-119938238D02*
X163320952Y-119938238D01*
X166368572Y-119938238D02*
X166368572Y-118890619D01*
X166368572Y-118890619D02*
X166273334Y-118700142D01*
X166273334Y-118700142D02*
X166082858Y-118604904D01*
X166082858Y-118604904D02*
X165701905Y-118604904D01*
X165701905Y-118604904D02*
X165511429Y-118700142D01*
X166368572Y-119843000D02*
X166178096Y-119938238D01*
X166178096Y-119938238D02*
X165701905Y-119938238D01*
X165701905Y-119938238D02*
X165511429Y-119843000D01*
X165511429Y-119843000D02*
X165416191Y-119652523D01*
X165416191Y-119652523D02*
X165416191Y-119462047D01*
X165416191Y-119462047D02*
X165511429Y-119271571D01*
X165511429Y-119271571D02*
X165701905Y-119176333D01*
X165701905Y-119176333D02*
X166178096Y-119176333D01*
X166178096Y-119176333D02*
X166368572Y-119081095D01*
X167320953Y-119938238D02*
X167320953Y-118604904D01*
X167320953Y-118985857D02*
X167416191Y-118795380D01*
X167416191Y-118795380D02*
X167511429Y-118700142D01*
X167511429Y-118700142D02*
X167701905Y-118604904D01*
X167701905Y-118604904D02*
X167892382Y-118604904D01*
X168559048Y-119938238D02*
X168559048Y-118604904D01*
X168559048Y-118985857D02*
X168654286Y-118795380D01*
X168654286Y-118795380D02*
X168749524Y-118700142D01*
X168749524Y-118700142D02*
X168940000Y-118604904D01*
X168940000Y-118604904D02*
X169130477Y-118604904D01*
X170654286Y-119938238D02*
X170654286Y-118890619D01*
X170654286Y-118890619D02*
X170559048Y-118700142D01*
X170559048Y-118700142D02*
X170368572Y-118604904D01*
X170368572Y-118604904D02*
X169987619Y-118604904D01*
X169987619Y-118604904D02*
X169797143Y-118700142D01*
X170654286Y-119843000D02*
X170463810Y-119938238D01*
X170463810Y-119938238D02*
X169987619Y-119938238D01*
X169987619Y-119938238D02*
X169797143Y-119843000D01*
X169797143Y-119843000D02*
X169701905Y-119652523D01*
X169701905Y-119652523D02*
X169701905Y-119462047D01*
X169701905Y-119462047D02*
X169797143Y-119271571D01*
X169797143Y-119271571D02*
X169987619Y-119176333D01*
X169987619Y-119176333D02*
X170463810Y-119176333D01*
X170463810Y-119176333D02*
X170654286Y-119081095D01*
X171416191Y-118604904D02*
X171892381Y-119938238D01*
X172368572Y-118604904D02*
X171892381Y-119938238D01*
X171892381Y-119938238D02*
X171701905Y-120414428D01*
X171701905Y-120414428D02*
X171606667Y-120509666D01*
X171606667Y-120509666D02*
X171416191Y-120604904D01*
X174463811Y-118604904D02*
X174940001Y-119938238D01*
X174940001Y-119938238D02*
X175416192Y-118604904D01*
X177225716Y-119938238D02*
X176082859Y-119938238D01*
X176654287Y-119938238D02*
X176654287Y-117938238D01*
X176654287Y-117938238D02*
X176463811Y-118223952D01*
X176463811Y-118223952D02*
X176273335Y-118414428D01*
X176273335Y-118414428D02*
X176082859Y-118509666D01*
D11*
X173512619Y-69861285D02*
X173512619Y-70432713D01*
X173512619Y-70146999D02*
X172512619Y-70146999D01*
X172512619Y-70146999D02*
X172655476Y-70242237D01*
X172655476Y-70242237D02*
X172750714Y-70337475D01*
X172750714Y-70337475D02*
X172798333Y-70432713D01*
X173512619Y-69432713D02*
X172512619Y-69432713D01*
X173512619Y-68861285D02*
X172941190Y-69289856D01*
X172512619Y-68861285D02*
X173084047Y-69432713D01*
D10*
X152116333Y-112775904D02*
X152116333Y-111252095D01*
X152878238Y-112013999D02*
X151354428Y-112013999D01*
D13*
X194048928Y-72080285D02*
X193977500Y-72223142D01*
X193977500Y-72223142D02*
X193906071Y-72294571D01*
X193906071Y-72294571D02*
X193763214Y-72365999D01*
X193763214Y-72365999D02*
X193334642Y-72365999D01*
X193334642Y-72365999D02*
X193191785Y-72294571D01*
X193191785Y-72294571D02*
X193120357Y-72223142D01*
X193120357Y-72223142D02*
X193048928Y-72080285D01*
X193048928Y-72080285D02*
X193048928Y-71865999D01*
X193048928Y-71865999D02*
X193120357Y-71723142D01*
X193120357Y-71723142D02*
X193191785Y-71651714D01*
X193191785Y-71651714D02*
X193334642Y-71580285D01*
X193334642Y-71580285D02*
X193763214Y-71580285D01*
X193763214Y-71580285D02*
X193906071Y-71651714D01*
X193906071Y-71651714D02*
X193977500Y-71723142D01*
X193977500Y-71723142D02*
X194048928Y-71865999D01*
X194048928Y-71865999D02*
X194048928Y-72080285D01*
X193048928Y-70294571D02*
X194048928Y-70294571D01*
X193048928Y-70937428D02*
X193834642Y-70937428D01*
X193834642Y-70937428D02*
X193977500Y-70865999D01*
X193977500Y-70865999D02*
X194048928Y-70723142D01*
X194048928Y-70723142D02*
X194048928Y-70508856D01*
X194048928Y-70508856D02*
X193977500Y-70365999D01*
X193977500Y-70365999D02*
X193906071Y-70294571D01*
X193048928Y-69794570D02*
X193048928Y-69223142D01*
X192548928Y-69580285D02*
X193834642Y-69580285D01*
X193834642Y-69580285D02*
X193977500Y-69508856D01*
X193977500Y-69508856D02*
X194048928Y-69365999D01*
X194048928Y-69365999D02*
X194048928Y-69223142D01*
D11*
X183858524Y-70262619D02*
X184049000Y-70262619D01*
X184049000Y-70262619D02*
X184144238Y-70215000D01*
X184144238Y-70215000D02*
X184191857Y-70167380D01*
X184191857Y-70167380D02*
X184287095Y-70024523D01*
X184287095Y-70024523D02*
X184334714Y-69834047D01*
X184334714Y-69834047D02*
X184334714Y-69453095D01*
X184334714Y-69453095D02*
X184287095Y-69357857D01*
X184287095Y-69357857D02*
X184239476Y-69310238D01*
X184239476Y-69310238D02*
X184144238Y-69262619D01*
X184144238Y-69262619D02*
X183953762Y-69262619D01*
X183953762Y-69262619D02*
X183858524Y-69310238D01*
X183858524Y-69310238D02*
X183810905Y-69357857D01*
X183810905Y-69357857D02*
X183763286Y-69453095D01*
X183763286Y-69453095D02*
X183763286Y-69691190D01*
X183763286Y-69691190D02*
X183810905Y-69786428D01*
X183810905Y-69786428D02*
X183858524Y-69834047D01*
X183858524Y-69834047D02*
X183953762Y-69881666D01*
X183953762Y-69881666D02*
X184144238Y-69881666D01*
X184144238Y-69881666D02*
X184239476Y-69834047D01*
X184239476Y-69834047D02*
X184287095Y-69786428D01*
X184287095Y-69786428D02*
X184334714Y-69691190D01*
X184763286Y-69881666D02*
X185525191Y-69881666D01*
X185953762Y-69357857D02*
X186001381Y-69310238D01*
X186001381Y-69310238D02*
X186096619Y-69262619D01*
X186096619Y-69262619D02*
X186334714Y-69262619D01*
X186334714Y-69262619D02*
X186429952Y-69310238D01*
X186429952Y-69310238D02*
X186477571Y-69357857D01*
X186477571Y-69357857D02*
X186525190Y-69453095D01*
X186525190Y-69453095D02*
X186525190Y-69548333D01*
X186525190Y-69548333D02*
X186477571Y-69691190D01*
X186477571Y-69691190D02*
X185906143Y-70262619D01*
X185906143Y-70262619D02*
X186525190Y-70262619D01*
X187382333Y-69595952D02*
X187382333Y-70262619D01*
X187144238Y-69215000D02*
X186906143Y-69929285D01*
X186906143Y-69929285D02*
X187525190Y-69929285D01*
X187763286Y-69262619D02*
X188096619Y-70262619D01*
X188096619Y-70262619D02*
X188429952Y-69262619D01*
D10*
X177892809Y-112004666D02*
X176369000Y-112004666D01*
D11*
X122173904Y-86836238D02*
X122078666Y-86788619D01*
X122078666Y-86788619D02*
X121935809Y-86788619D01*
X121935809Y-86788619D02*
X121792952Y-86836238D01*
X121792952Y-86836238D02*
X121697714Y-86931476D01*
X121697714Y-86931476D02*
X121650095Y-87026714D01*
X121650095Y-87026714D02*
X121602476Y-87217190D01*
X121602476Y-87217190D02*
X121602476Y-87360047D01*
X121602476Y-87360047D02*
X121650095Y-87550523D01*
X121650095Y-87550523D02*
X121697714Y-87645761D01*
X121697714Y-87645761D02*
X121792952Y-87741000D01*
X121792952Y-87741000D02*
X121935809Y-87788619D01*
X121935809Y-87788619D02*
X122031047Y-87788619D01*
X122031047Y-87788619D02*
X122173904Y-87741000D01*
X122173904Y-87741000D02*
X122221523Y-87693380D01*
X122221523Y-87693380D02*
X122221523Y-87360047D01*
X122221523Y-87360047D02*
X122031047Y-87360047D01*
X122650095Y-87788619D02*
X122650095Y-86788619D01*
X122650095Y-86788619D02*
X123221523Y-87788619D01*
X123221523Y-87788619D02*
X123221523Y-86788619D01*
X123697714Y-87788619D02*
X123697714Y-86788619D01*
X123697714Y-86788619D02*
X123935809Y-86788619D01*
X123935809Y-86788619D02*
X124078666Y-86836238D01*
X124078666Y-86836238D02*
X124173904Y-86931476D01*
X124173904Y-86931476D02*
X124221523Y-87026714D01*
X124221523Y-87026714D02*
X124269142Y-87217190D01*
X124269142Y-87217190D02*
X124269142Y-87360047D01*
X124269142Y-87360047D02*
X124221523Y-87550523D01*
X124221523Y-87550523D02*
X124173904Y-87645761D01*
X124173904Y-87645761D02*
X124078666Y-87741000D01*
X124078666Y-87741000D02*
X123935809Y-87788619D01*
X123935809Y-87788619D02*
X123697714Y-87788619D01*
D10*
X180056333Y-112775904D02*
X180056333Y-111252095D01*
X180818238Y-112013999D02*
X179294428Y-112013999D01*
D12*
X147290428Y-96869619D02*
X146876143Y-96869619D01*
X147083286Y-96869619D02*
X147083286Y-95869619D01*
X147083286Y-95869619D02*
X147014238Y-96012476D01*
X147014238Y-96012476D02*
X146945190Y-96107714D01*
X146945190Y-96107714D02*
X146876143Y-96155333D01*
X147601143Y-96869619D02*
X147601143Y-95869619D01*
X147601143Y-95869619D02*
X148015428Y-96869619D01*
X148015428Y-96869619D02*
X148015428Y-95869619D01*
X148671381Y-96202952D02*
X148671381Y-96869619D01*
X148498762Y-95822000D02*
X148326143Y-96536285D01*
X148326143Y-96536285D02*
X148774952Y-96536285D01*
X149189238Y-95869619D02*
X149258285Y-95869619D01*
X149258285Y-95869619D02*
X149327333Y-95917238D01*
X149327333Y-95917238D02*
X149361857Y-95964857D01*
X149361857Y-95964857D02*
X149396381Y-96060095D01*
X149396381Y-96060095D02*
X149430904Y-96250571D01*
X149430904Y-96250571D02*
X149430904Y-96488666D01*
X149430904Y-96488666D02*
X149396381Y-96679142D01*
X149396381Y-96679142D02*
X149361857Y-96774380D01*
X149361857Y-96774380D02*
X149327333Y-96822000D01*
X149327333Y-96822000D02*
X149258285Y-96869619D01*
X149258285Y-96869619D02*
X149189238Y-96869619D01*
X149189238Y-96869619D02*
X149120190Y-96822000D01*
X149120190Y-96822000D02*
X149085666Y-96774380D01*
X149085666Y-96774380D02*
X149051143Y-96679142D01*
X149051143Y-96679142D02*
X149016619Y-96488666D01*
X149016619Y-96488666D02*
X149016619Y-96250571D01*
X149016619Y-96250571D02*
X149051143Y-96060095D01*
X149051143Y-96060095D02*
X149085666Y-95964857D01*
X149085666Y-95964857D02*
X149120190Y-95917238D01*
X149120190Y-95917238D02*
X149189238Y-95869619D01*
X149879714Y-95869619D02*
X149948761Y-95869619D01*
X149948761Y-95869619D02*
X150017809Y-95917238D01*
X150017809Y-95917238D02*
X150052333Y-95964857D01*
X150052333Y-95964857D02*
X150086857Y-96060095D01*
X150086857Y-96060095D02*
X150121380Y-96250571D01*
X150121380Y-96250571D02*
X150121380Y-96488666D01*
X150121380Y-96488666D02*
X150086857Y-96679142D01*
X150086857Y-96679142D02*
X150052333Y-96774380D01*
X150052333Y-96774380D02*
X150017809Y-96822000D01*
X150017809Y-96822000D02*
X149948761Y-96869619D01*
X149948761Y-96869619D02*
X149879714Y-96869619D01*
X149879714Y-96869619D02*
X149810666Y-96822000D01*
X149810666Y-96822000D02*
X149776142Y-96774380D01*
X149776142Y-96774380D02*
X149741619Y-96679142D01*
X149741619Y-96679142D02*
X149707095Y-96488666D01*
X149707095Y-96488666D02*
X149707095Y-96250571D01*
X149707095Y-96250571D02*
X149741619Y-96060095D01*
X149741619Y-96060095D02*
X149776142Y-95964857D01*
X149776142Y-95964857D02*
X149810666Y-95917238D01*
X149810666Y-95917238D02*
X149879714Y-95869619D01*
X150811856Y-96869619D02*
X150397571Y-96869619D01*
X150604714Y-96869619D02*
X150604714Y-95869619D01*
X150604714Y-95869619D02*
X150535666Y-96012476D01*
X150535666Y-96012476D02*
X150466618Y-96107714D01*
X150466618Y-96107714D02*
X150397571Y-96155333D01*
D11*
X130683048Y-94315666D02*
X131444953Y-94315666D01*
D10*
X149576333Y-112775904D02*
X149576333Y-111252095D01*
X150338238Y-112013999D02*
X148814428Y-112013999D01*
D11*
X183324952Y-77628619D02*
X183324952Y-76628619D01*
X183324952Y-76628619D02*
X183563047Y-76628619D01*
X183563047Y-76628619D02*
X183705904Y-76676238D01*
X183705904Y-76676238D02*
X183801142Y-76771476D01*
X183801142Y-76771476D02*
X183848761Y-76866714D01*
X183848761Y-76866714D02*
X183896380Y-77057190D01*
X183896380Y-77057190D02*
X183896380Y-77200047D01*
X183896380Y-77200047D02*
X183848761Y-77390523D01*
X183848761Y-77390523D02*
X183801142Y-77485761D01*
X183801142Y-77485761D02*
X183705904Y-77581000D01*
X183705904Y-77581000D02*
X183563047Y-77628619D01*
X183563047Y-77628619D02*
X183324952Y-77628619D01*
X184515428Y-76628619D02*
X184705904Y-76628619D01*
X184705904Y-76628619D02*
X184801142Y-76676238D01*
X184801142Y-76676238D02*
X184896380Y-76771476D01*
X184896380Y-76771476D02*
X184943999Y-76961952D01*
X184943999Y-76961952D02*
X184943999Y-77295285D01*
X184943999Y-77295285D02*
X184896380Y-77485761D01*
X184896380Y-77485761D02*
X184801142Y-77581000D01*
X184801142Y-77581000D02*
X184705904Y-77628619D01*
X184705904Y-77628619D02*
X184515428Y-77628619D01*
X184515428Y-77628619D02*
X184420190Y-77581000D01*
X184420190Y-77581000D02*
X184324952Y-77485761D01*
X184324952Y-77485761D02*
X184277333Y-77295285D01*
X184277333Y-77295285D02*
X184277333Y-76961952D01*
X184277333Y-76961952D02*
X184324952Y-76771476D01*
X184324952Y-76771476D02*
X184420190Y-76676238D01*
X184420190Y-76676238D02*
X184515428Y-76628619D01*
X185372571Y-76628619D02*
X185372571Y-77438142D01*
X185372571Y-77438142D02*
X185420190Y-77533380D01*
X185420190Y-77533380D02*
X185467809Y-77581000D01*
X185467809Y-77581000D02*
X185563047Y-77628619D01*
X185563047Y-77628619D02*
X185753523Y-77628619D01*
X185753523Y-77628619D02*
X185848761Y-77581000D01*
X185848761Y-77581000D02*
X185896380Y-77533380D01*
X185896380Y-77533380D02*
X185943999Y-77438142D01*
X185943999Y-77438142D02*
X185943999Y-76628619D01*
X186277333Y-76628619D02*
X186848761Y-76628619D01*
X186563047Y-77628619D02*
X186563047Y-76628619D01*
D10*
X169590142Y-114882785D02*
X169447285Y-114811357D01*
X169447285Y-114811357D02*
X169304428Y-114668500D01*
X169304428Y-114668500D02*
X169090142Y-114454214D01*
X169090142Y-114454214D02*
X168947285Y-114382785D01*
X168947285Y-114382785D02*
X168804428Y-114382785D01*
X168875857Y-114739928D02*
X168733000Y-114668500D01*
X168733000Y-114668500D02*
X168590142Y-114525642D01*
X168590142Y-114525642D02*
X168518714Y-114239928D01*
X168518714Y-114239928D02*
X168518714Y-113739928D01*
X168518714Y-113739928D02*
X168590142Y-113454214D01*
X168590142Y-113454214D02*
X168733000Y-113311357D01*
X168733000Y-113311357D02*
X168875857Y-113239928D01*
X168875857Y-113239928D02*
X169161571Y-113239928D01*
X169161571Y-113239928D02*
X169304428Y-113311357D01*
X169304428Y-113311357D02*
X169447285Y-113454214D01*
X169447285Y-113454214D02*
X169518714Y-113739928D01*
X169518714Y-113739928D02*
X169518714Y-114239928D01*
X169518714Y-114239928D02*
X169447285Y-114525642D01*
X169447285Y-114525642D02*
X169304428Y-114668500D01*
X169304428Y-114668500D02*
X169161571Y-114739928D01*
X169161571Y-114739928D02*
X168875857Y-114739928D01*
X170875857Y-113239928D02*
X170161571Y-113239928D01*
X170161571Y-113239928D02*
X170090143Y-113954214D01*
X170090143Y-113954214D02*
X170161571Y-113882785D01*
X170161571Y-113882785D02*
X170304429Y-113811357D01*
X170304429Y-113811357D02*
X170661571Y-113811357D01*
X170661571Y-113811357D02*
X170804429Y-113882785D01*
X170804429Y-113882785D02*
X170875857Y-113954214D01*
X170875857Y-113954214D02*
X170947286Y-114097071D01*
X170947286Y-114097071D02*
X170947286Y-114454214D01*
X170947286Y-114454214D02*
X170875857Y-114597071D01*
X170875857Y-114597071D02*
X170804429Y-114668500D01*
X170804429Y-114668500D02*
X170661571Y-114739928D01*
X170661571Y-114739928D02*
X170304429Y-114739928D01*
X170304429Y-114739928D02*
X170161571Y-114668500D01*
X170161571Y-114668500D02*
X170090143Y-114597071D01*
X169896333Y-112775904D02*
X169896333Y-111252095D01*
X170658238Y-112013999D02*
X169134428Y-112013999D01*
D11*
X181132619Y-69861285D02*
X181132619Y-70432713D01*
X181132619Y-70146999D02*
X180132619Y-70146999D01*
X180132619Y-70146999D02*
X180275476Y-70242237D01*
X180275476Y-70242237D02*
X180370714Y-70337475D01*
X180370714Y-70337475D02*
X180418333Y-70432713D01*
X181132619Y-69432713D02*
X180132619Y-69432713D01*
X181132619Y-68861285D02*
X180561190Y-69289856D01*
X180132619Y-68861285D02*
X180704047Y-69432713D01*
D10*
X127092809Y-112004666D02*
X125569000Y-112004666D01*
X147412809Y-112004666D02*
X145889000Y-112004666D01*
D11*
X121507238Y-84248619D02*
X121840571Y-85248619D01*
X121840571Y-85248619D02*
X122173904Y-84248619D01*
X123078666Y-85153380D02*
X123031047Y-85201000D01*
X123031047Y-85201000D02*
X122888190Y-85248619D01*
X122888190Y-85248619D02*
X122792952Y-85248619D01*
X122792952Y-85248619D02*
X122650095Y-85201000D01*
X122650095Y-85201000D02*
X122554857Y-85105761D01*
X122554857Y-85105761D02*
X122507238Y-85010523D01*
X122507238Y-85010523D02*
X122459619Y-84820047D01*
X122459619Y-84820047D02*
X122459619Y-84677190D01*
X122459619Y-84677190D02*
X122507238Y-84486714D01*
X122507238Y-84486714D02*
X122554857Y-84391476D01*
X122554857Y-84391476D02*
X122650095Y-84296238D01*
X122650095Y-84296238D02*
X122792952Y-84248619D01*
X122792952Y-84248619D02*
X122888190Y-84248619D01*
X122888190Y-84248619D02*
X123031047Y-84296238D01*
X123031047Y-84296238D02*
X123078666Y-84343857D01*
X124078666Y-85153380D02*
X124031047Y-85201000D01*
X124031047Y-85201000D02*
X123888190Y-85248619D01*
X123888190Y-85248619D02*
X123792952Y-85248619D01*
X123792952Y-85248619D02*
X123650095Y-85201000D01*
X123650095Y-85201000D02*
X123554857Y-85105761D01*
X123554857Y-85105761D02*
X123507238Y-85010523D01*
X123507238Y-85010523D02*
X123459619Y-84820047D01*
X123459619Y-84820047D02*
X123459619Y-84677190D01*
X123459619Y-84677190D02*
X123507238Y-84486714D01*
X123507238Y-84486714D02*
X123554857Y-84391476D01*
X123554857Y-84391476D02*
X123650095Y-84296238D01*
X123650095Y-84296238D02*
X123792952Y-84248619D01*
X123792952Y-84248619D02*
X123888190Y-84248619D01*
X123888190Y-84248619D02*
X124031047Y-84296238D01*
X124031047Y-84296238D02*
X124078666Y-84343857D01*
X154231095Y-99082619D02*
X154231095Y-98082619D01*
X154802523Y-99082619D02*
X154373952Y-98511190D01*
X154802523Y-98082619D02*
X154231095Y-98654047D01*
D14*
X139160000Y-78954000D02*
X134519000Y-78954000D01*
X139160000Y-78954000D02*
X139160000Y-89194000D01*
X137650000Y-78954000D02*
X137650000Y-89194000D01*
X134519000Y-78954000D02*
X134519000Y-89194000D01*
X139160000Y-82224000D02*
X137650000Y-82224000D01*
X139160000Y-85925000D02*
X137650000Y-85925000D01*
X139160000Y-89194000D02*
X134519000Y-89194000D01*
X181103000Y-108264000D02*
X181103000Y-106934000D01*
X182433000Y-108264000D02*
X181103000Y-108264000D01*
X183703000Y-108264000D02*
X183763000Y-108264000D01*
X183703000Y-108264000D02*
X183703000Y-105604000D01*
X183763000Y-108264000D02*
X183763000Y-105604000D01*
X183703000Y-105604000D02*
X183763000Y-105604000D01*
X115977000Y-88996000D02*
X119977000Y-88996000D01*
X114947000Y-88706000D02*
X120967000Y-88706000D01*
X120967000Y-88706000D02*
X120967000Y-75786000D01*
X114947000Y-88126000D02*
X115547000Y-88126000D01*
X115547000Y-88126000D02*
X115547000Y-86526000D01*
X119967000Y-87326000D02*
X119437000Y-87076000D01*
X119967000Y-87326000D02*
X119967000Y-77166000D01*
X120967000Y-87326000D02*
X119967000Y-87326000D01*
X119437000Y-87076000D02*
X119437000Y-77416000D01*
X120967000Y-87076000D02*
X119967000Y-87076000D01*
X115547000Y-86526000D02*
X114947000Y-86526000D01*
X114947000Y-85586000D02*
X115547000Y-85586000D01*
X115547000Y-85586000D02*
X115547000Y-83986000D01*
X115547000Y-83986000D02*
X114947000Y-83986000D01*
X114947000Y-83046000D02*
X115547000Y-83046000D01*
X115547000Y-83046000D02*
X115547000Y-81446000D01*
X115547000Y-81446000D02*
X114947000Y-81446000D01*
X114947000Y-80506000D02*
X115547000Y-80506000D01*
X115547000Y-80506000D02*
X115547000Y-78906000D01*
X115547000Y-78906000D02*
X114947000Y-78906000D01*
X114947000Y-77966000D02*
X115547000Y-77966000D01*
X115547000Y-77966000D02*
X115547000Y-76366000D01*
X119437000Y-77416000D02*
X119967000Y-77166000D01*
X120967000Y-77416000D02*
X119967000Y-77416000D01*
X119967000Y-77166000D02*
X120967000Y-77166000D01*
X115547000Y-76366000D02*
X114947000Y-76366000D01*
X114947000Y-75786000D02*
X114947000Y-88706000D01*
X120967000Y-75786000D02*
X114947000Y-75786000D01*
X132833000Y-96520000D02*
X131813000Y-96520000D01*
X131813000Y-97990000D02*
X131813000Y-95050000D01*
X131813000Y-95050000D02*
X126373000Y-95050000D01*
X131033000Y-97990000D02*
X131033000Y-95050000D01*
X130913000Y-97990000D02*
X130913000Y-95050000D01*
X130793000Y-97990000D02*
X130793000Y-95050000D01*
X126373000Y-97990000D02*
X131813000Y-97990000D01*
X126373000Y-95050000D02*
X126373000Y-97990000D01*
X125353000Y-96520000D02*
X126373000Y-96520000D01*
X192621000Y-75496000D02*
X188621000Y-75496000D01*
X193651000Y-75786000D02*
X187631000Y-75786000D01*
X187631000Y-75786000D02*
X187631000Y-88706000D01*
X193651000Y-76366000D02*
X193051000Y-76366000D01*
X193051000Y-76366000D02*
X193051000Y-77966000D01*
X188631000Y-77166000D02*
X189161000Y-77416000D01*
X188631000Y-77166000D02*
X188631000Y-87326000D01*
X187631000Y-77166000D02*
X188631000Y-77166000D01*
X189161000Y-77416000D02*
X189161000Y-87076000D01*
X187631000Y-77416000D02*
X188631000Y-77416000D01*
X193051000Y-77966000D02*
X193651000Y-77966000D01*
X193651000Y-78906000D02*
X193051000Y-78906000D01*
X193051000Y-78906000D02*
X193051000Y-80506000D01*
X193051000Y-80506000D02*
X193651000Y-80506000D01*
X193651000Y-81446000D02*
X193051000Y-81446000D01*
X193051000Y-81446000D02*
X193051000Y-83046000D01*
X193051000Y-83046000D02*
X193651000Y-83046000D01*
X193651000Y-83986000D02*
X193051000Y-83986000D01*
X193051000Y-83986000D02*
X193051000Y-85586000D01*
X193051000Y-85586000D02*
X193651000Y-85586000D01*
X193651000Y-86526000D02*
X193051000Y-86526000D01*
X193051000Y-86526000D02*
X193051000Y-88126000D01*
X189161000Y-87076000D02*
X188631000Y-87326000D01*
X187631000Y-87076000D02*
X188631000Y-87076000D01*
X188631000Y-87326000D02*
X187631000Y-87326000D01*
X193051000Y-88126000D02*
X193651000Y-88126000D01*
X193651000Y-88706000D02*
X193651000Y-75786000D01*
X187631000Y-88706000D02*
X193651000Y-88706000D01*
X133680000Y-67031000D02*
X133680000Y-67981000D01*
X134600000Y-67981000D02*
X132760000Y-67981000D01*
X132760000Y-67981000D02*
X132760000Y-71821000D01*
X134600000Y-71821000D02*
X134600000Y-67981000D01*
X132760000Y-71821000D02*
X134600000Y-71821000D01*
X133680000Y-72771000D02*
X133680000Y-71821000D01*
X178130000Y-66777000D02*
X178130000Y-67727000D01*
X179050000Y-67727000D02*
X177210000Y-67727000D01*
X177210000Y-67727000D02*
X177210000Y-71567000D01*
X179050000Y-71567000D02*
X179050000Y-67727000D01*
X177210000Y-71567000D02*
X179050000Y-71567000D01*
X178130000Y-72517000D02*
X178130000Y-71567000D01*
X140463000Y-108264000D02*
X140463000Y-106934000D01*
X141793000Y-108264000D02*
X140463000Y-108264000D01*
X143063000Y-108264000D02*
X143123000Y-108264000D01*
X143063000Y-108264000D02*
X143063000Y-105604000D01*
X143123000Y-108264000D02*
X143123000Y-105604000D01*
X143063000Y-105604000D02*
X143123000Y-105604000D01*
X158337000Y-94016000D02*
X158493000Y-94016000D01*
X160653000Y-94016000D02*
X160809000Y-94016000D01*
X158494392Y-90783666D02*
G75*
G03*
X158337485Y-94015999I1078608J-1672334D01*
G01*
X158493164Y-91414871D02*
G75*
G03*
X158493001Y-93496960I1079836J-1041129D01*
G01*
X160652999Y-93496960D02*
G75*
G03*
X160652836Y-91414871I-1079999J1040960D01*
G01*
X160808515Y-94015999D02*
G75*
G03*
X160651608Y-90783666I-1235515J1559999D01*
G01*
X152876000Y-78954000D02*
X148235000Y-78954000D01*
X152876000Y-78954000D02*
X152876000Y-89194000D01*
X151366000Y-78954000D02*
X151366000Y-89194000D01*
X148235000Y-78954000D02*
X148235000Y-89194000D01*
X152876000Y-82224000D02*
X151366000Y-82224000D01*
X152876000Y-85925000D02*
X151366000Y-85925000D01*
X152876000Y-89194000D02*
X148235000Y-89194000D01*
X159734000Y-78954000D02*
X155093000Y-78954000D01*
X159734000Y-78954000D02*
X159734000Y-89194000D01*
X158224000Y-78954000D02*
X158224000Y-89194000D01*
X155093000Y-78954000D02*
X155093000Y-89194000D01*
X159734000Y-82224000D02*
X158224000Y-82224000D01*
X159734000Y-85925000D02*
X158224000Y-85925000D01*
X159734000Y-89194000D02*
X155093000Y-89194000D01*
X173450000Y-78954000D02*
X168809000Y-78954000D01*
X173450000Y-78954000D02*
X173450000Y-89194000D01*
X171940000Y-78954000D02*
X171940000Y-89194000D01*
X168809000Y-78954000D02*
X168809000Y-89194000D01*
X173450000Y-82224000D02*
X171940000Y-82224000D01*
X173450000Y-85925000D02*
X171940000Y-85925000D01*
X173450000Y-89194000D02*
X168809000Y-89194000D01*
X116647000Y-65676000D02*
X117977000Y-65676000D01*
X116647000Y-67006000D02*
X116647000Y-65676000D01*
X116647000Y-68276000D02*
X116647000Y-75956000D01*
X116647000Y-68276000D02*
X119307000Y-68276000D01*
X116647000Y-75956000D02*
X119307000Y-75956000D01*
X119307000Y-68276000D02*
X119307000Y-75956000D01*
X137763000Y-94021000D02*
X137919000Y-94021000D01*
X140079000Y-94021000D02*
X140235000Y-94021000D01*
X137920392Y-90788666D02*
G75*
G03*
X137763485Y-94020999I1078608J-1672334D01*
G01*
X137919164Y-91419871D02*
G75*
G03*
X137919001Y-93501960I1079836J-1041129D01*
G01*
X140078999Y-93501960D02*
G75*
G03*
X140078836Y-91419871I-1079999J1040960D01*
G01*
X140234515Y-94020999D02*
G75*
G03*
X140077608Y-90788666I-1235515J1559999D01*
G01*
X191723000Y-108934000D02*
X191723000Y-104934000D01*
X191433000Y-109964000D02*
X191433000Y-103944000D01*
X191433000Y-103944000D02*
X186133000Y-103944000D01*
X190853000Y-109964000D02*
X190853000Y-109364000D01*
X190853000Y-109364000D02*
X189253000Y-109364000D01*
X190053000Y-104944000D02*
X189803000Y-105474000D01*
X190053000Y-104944000D02*
X187513000Y-104944000D01*
X190053000Y-103944000D02*
X190053000Y-104944000D01*
X189803000Y-105474000D02*
X187763000Y-105474000D01*
X189803000Y-103944000D02*
X189803000Y-104944000D01*
X189253000Y-109364000D02*
X189253000Y-109964000D01*
X188313000Y-109964000D02*
X188313000Y-109364000D01*
X188313000Y-109364000D02*
X186713000Y-109364000D01*
X187763000Y-105474000D02*
X187513000Y-104944000D01*
X187763000Y-103944000D02*
X187763000Y-104944000D01*
X187513000Y-104944000D02*
X187513000Y-103944000D01*
X186713000Y-109364000D02*
X186713000Y-109964000D01*
X186133000Y-109964000D02*
X191433000Y-109964000D01*
X186133000Y-103944000D02*
X186133000Y-109964000D01*
X178911000Y-94021000D02*
X179067000Y-94021000D01*
X181227000Y-94021000D02*
X181383000Y-94021000D01*
X179068392Y-90788666D02*
G75*
G03*
X178911485Y-94020999I1078608J-1672334D01*
G01*
X179067164Y-91419871D02*
G75*
G03*
X179067001Y-93501960I1079836J-1041129D01*
G01*
X181226999Y-93501960D02*
G75*
G03*
X181226836Y-91419871I-1079999J1040960D01*
G01*
X181382515Y-94020999D02*
G75*
G03*
X181225608Y-90788666I-1235515J1559999D01*
G01*
X172457000Y-96520000D02*
X171437000Y-96520000D01*
X171437000Y-97990000D02*
X171437000Y-95050000D01*
X171437000Y-95050000D02*
X165997000Y-95050000D01*
X170657000Y-97990000D02*
X170657000Y-95050000D01*
X170537000Y-97990000D02*
X170537000Y-95050000D01*
X170417000Y-97990000D02*
X170417000Y-95050000D01*
X165997000Y-97990000D02*
X171437000Y-97990000D01*
X165997000Y-95050000D02*
X165997000Y-97990000D01*
X164977000Y-96520000D02*
X165997000Y-96520000D01*
X125213000Y-99822000D02*
X124193000Y-99822000D01*
X124193000Y-101292000D02*
X124193000Y-98352000D01*
X124193000Y-98352000D02*
X118753000Y-98352000D01*
X123413000Y-101292000D02*
X123413000Y-98352000D01*
X123293000Y-101292000D02*
X123293000Y-98352000D01*
X123173000Y-101292000D02*
X123173000Y-98352000D01*
X118753000Y-101292000D02*
X124193000Y-101292000D01*
X118753000Y-98352000D02*
X118753000Y-101292000D01*
X117733000Y-99822000D02*
X118753000Y-99822000D01*
X140923000Y-108914000D02*
X140923000Y-104914000D01*
X140633000Y-109944000D02*
X140633000Y-103924000D01*
X140633000Y-103924000D02*
X135333000Y-103924000D01*
X140053000Y-109944000D02*
X140053000Y-109344000D01*
X140053000Y-109344000D02*
X138453000Y-109344000D01*
X139253000Y-104924000D02*
X139003000Y-105454000D01*
X139253000Y-104924000D02*
X136713000Y-104924000D01*
X139253000Y-103924000D02*
X139253000Y-104924000D01*
X139003000Y-105454000D02*
X136963000Y-105454000D01*
X139003000Y-103924000D02*
X139003000Y-104924000D01*
X138453000Y-109344000D02*
X138453000Y-109944000D01*
X137513000Y-109944000D02*
X137513000Y-109344000D01*
X137513000Y-109344000D02*
X135913000Y-109344000D01*
X136963000Y-105454000D02*
X136713000Y-104924000D01*
X136963000Y-103924000D02*
X136963000Y-104924000D01*
X136713000Y-104924000D02*
X136713000Y-103924000D01*
X135913000Y-109344000D02*
X135913000Y-109944000D01*
X135333000Y-109944000D02*
X140633000Y-109944000D01*
X135333000Y-103924000D02*
X135333000Y-109944000D01*
X151873000Y-75846000D02*
X151873000Y-76161000D01*
X151873000Y-75846000D02*
X157113000Y-75846000D01*
X151873000Y-78271000D02*
X151873000Y-78586000D01*
X151873000Y-78586000D02*
X157113000Y-78586000D01*
X157113000Y-75846000D02*
X157113000Y-76161000D01*
X157113000Y-78271000D02*
X157113000Y-78586000D01*
X170943000Y-108264000D02*
X170943000Y-106934000D01*
X172273000Y-108264000D02*
X170943000Y-108264000D01*
X173543000Y-108264000D02*
X173603000Y-108264000D01*
X173543000Y-108264000D02*
X173543000Y-105604000D01*
X173603000Y-108264000D02*
X173603000Y-105604000D01*
X173543000Y-105604000D02*
X173603000Y-105604000D01*
X160783000Y-108264000D02*
X160783000Y-106934000D01*
X162113000Y-108264000D02*
X160783000Y-108264000D01*
X163383000Y-108264000D02*
X163443000Y-108264000D01*
X163383000Y-108264000D02*
X163383000Y-105604000D01*
X163443000Y-108264000D02*
X163443000Y-105604000D01*
X163383000Y-105604000D02*
X163443000Y-105604000D01*
X144348000Y-72573000D02*
X164788000Y-72573000D01*
X164788000Y-72573000D02*
X164788000Y-68073000D01*
X144348000Y-71323000D02*
X144348000Y-72573000D01*
X144348000Y-68073000D02*
X144348000Y-69323000D01*
X164788000Y-68073000D02*
X144348000Y-68073000D01*
X144348000Y-71323000D02*
G75*
G03*
X144348000Y-69323000I0J1000000D01*
G01*
X173050000Y-66777000D02*
X173050000Y-67727000D01*
X173970000Y-67727000D02*
X172130000Y-67727000D01*
X172130000Y-67727000D02*
X172130000Y-71567000D01*
X173970000Y-71567000D02*
X173970000Y-67727000D01*
X172130000Y-71567000D02*
X173970000Y-71567000D01*
X173050000Y-72517000D02*
X173050000Y-71567000D01*
X191263000Y-108264000D02*
X191263000Y-106934000D01*
X192593000Y-108264000D02*
X191263000Y-108264000D01*
X193863000Y-108264000D02*
X193923000Y-108264000D01*
X193863000Y-108264000D02*
X193863000Y-105604000D01*
X193923000Y-108264000D02*
X193923000Y-105604000D01*
X193863000Y-105604000D02*
X193923000Y-105604000D01*
X135966000Y-67031000D02*
X135966000Y-67981000D01*
X136886000Y-67981000D02*
X135046000Y-67981000D01*
X135046000Y-67981000D02*
X135046000Y-71821000D01*
X136886000Y-71821000D02*
X136886000Y-67981000D01*
X135046000Y-71821000D02*
X136886000Y-71821000D01*
X135966000Y-72771000D02*
X135966000Y-71821000D01*
X138252000Y-67031000D02*
X138252000Y-67981000D01*
X139172000Y-67981000D02*
X137332000Y-67981000D01*
X137332000Y-67981000D02*
X137332000Y-71821000D01*
X139172000Y-71821000D02*
X139172000Y-67981000D01*
X137332000Y-71821000D02*
X139172000Y-71821000D01*
X138252000Y-72771000D02*
X138252000Y-71821000D01*
X175590000Y-66777000D02*
X175590000Y-67727000D01*
X176510000Y-67727000D02*
X174670000Y-67727000D01*
X174670000Y-67727000D02*
X174670000Y-71567000D01*
X176510000Y-71567000D02*
X176510000Y-67727000D01*
X174670000Y-71567000D02*
X176510000Y-71567000D01*
X175590000Y-72517000D02*
X175590000Y-71567000D01*
X163313000Y-99822000D02*
X162293000Y-99822000D01*
X162293000Y-101292000D02*
X162293000Y-98352000D01*
X162293000Y-98352000D02*
X156853000Y-98352000D01*
X161513000Y-101292000D02*
X161513000Y-98352000D01*
X161393000Y-101292000D02*
X161393000Y-98352000D01*
X161273000Y-101292000D02*
X161273000Y-98352000D01*
X156853000Y-101292000D02*
X162293000Y-101292000D01*
X156853000Y-98352000D02*
X156853000Y-101292000D01*
X155833000Y-99822000D02*
X156853000Y-99822000D01*
X142993000Y-99822000D02*
X141973000Y-99822000D01*
X141973000Y-101292000D02*
X141973000Y-98352000D01*
X141973000Y-98352000D02*
X136533000Y-98352000D01*
X141193000Y-101292000D02*
X141193000Y-98352000D01*
X141073000Y-101292000D02*
X141073000Y-98352000D01*
X140953000Y-101292000D02*
X140953000Y-98352000D01*
X136533000Y-101292000D02*
X141973000Y-101292000D01*
X136533000Y-98352000D02*
X136533000Y-101292000D01*
X135513000Y-99822000D02*
X136533000Y-99822000D01*
X146018000Y-78954000D02*
X141377000Y-78954000D01*
X146018000Y-78954000D02*
X146018000Y-89194000D01*
X144508000Y-78954000D02*
X144508000Y-89194000D01*
X141377000Y-78954000D02*
X141377000Y-89194000D01*
X146018000Y-82224000D02*
X144508000Y-82224000D01*
X146018000Y-85925000D02*
X144508000Y-85925000D01*
X146018000Y-89194000D02*
X141377000Y-89194000D01*
X148177000Y-94016000D02*
X148333000Y-94016000D01*
X150493000Y-94016000D02*
X150649000Y-94016000D01*
X148334392Y-90783666D02*
G75*
G03*
X148177485Y-94015999I1078608J-1672334D01*
G01*
X148333164Y-91414871D02*
G75*
G03*
X148333001Y-93496960I1079836J-1041129D01*
G01*
X150492999Y-93496960D02*
G75*
G03*
X150492836Y-91414871I-1079999J1040960D01*
G01*
X150648515Y-94015999D02*
G75*
G03*
X150491608Y-90783666I-1235515J1559999D01*
G01*
X142869000Y-66930000D02*
X142869000Y-67880000D01*
X143789000Y-67880000D02*
X141949000Y-67880000D01*
X141949000Y-67880000D02*
X141949000Y-71720000D01*
X143789000Y-71720000D02*
X143789000Y-67880000D01*
X141949000Y-71720000D02*
X143789000Y-71720000D01*
X142869000Y-72670000D02*
X142869000Y-71720000D01*
X180308000Y-78954000D02*
X175667000Y-78954000D01*
X180308000Y-78954000D02*
X180308000Y-89194000D01*
X178798000Y-78954000D02*
X178798000Y-89194000D01*
X175667000Y-78954000D02*
X175667000Y-89194000D01*
X180308000Y-82224000D02*
X178798000Y-82224000D01*
X180308000Y-85925000D02*
X178798000Y-85925000D01*
X180308000Y-89194000D02*
X175667000Y-89194000D01*
X180670000Y-66777000D02*
X180670000Y-67727000D01*
X181590000Y-67727000D02*
X179750000Y-67727000D01*
X179750000Y-67727000D02*
X179750000Y-71567000D01*
X181590000Y-71567000D02*
X181590000Y-67727000D01*
X179750000Y-71567000D02*
X181590000Y-71567000D01*
X180670000Y-72517000D02*
X180670000Y-71567000D01*
X120603000Y-108934000D02*
X120603000Y-104934000D01*
X120313000Y-109964000D02*
X120313000Y-103944000D01*
X120313000Y-103944000D02*
X115013000Y-103944000D01*
X119733000Y-109964000D02*
X119733000Y-109364000D01*
X119733000Y-109364000D02*
X118133000Y-109364000D01*
X118933000Y-104944000D02*
X118683000Y-105474000D01*
X118933000Y-104944000D02*
X116393000Y-104944000D01*
X118933000Y-103944000D02*
X118933000Y-104944000D01*
X118683000Y-105474000D02*
X116643000Y-105474000D01*
X118683000Y-103944000D02*
X118683000Y-104944000D01*
X118133000Y-109364000D02*
X118133000Y-109964000D01*
X117193000Y-109964000D02*
X117193000Y-109364000D01*
X117193000Y-109364000D02*
X115593000Y-109364000D01*
X116643000Y-105474000D02*
X116393000Y-104944000D01*
X116643000Y-103944000D02*
X116643000Y-104944000D01*
X116393000Y-104944000D02*
X116393000Y-103944000D01*
X115593000Y-109364000D02*
X115593000Y-109964000D01*
X115013000Y-109964000D02*
X120313000Y-109964000D01*
X115013000Y-103944000D02*
X115013000Y-109964000D01*
X191253000Y-96520000D02*
X190233000Y-96520000D01*
X190233000Y-97990000D02*
X190233000Y-95050000D01*
X190233000Y-95050000D02*
X184793000Y-95050000D01*
X189453000Y-97990000D02*
X189453000Y-95050000D01*
X189333000Y-97990000D02*
X189333000Y-95050000D01*
X189213000Y-97990000D02*
X189213000Y-95050000D01*
X184793000Y-97990000D02*
X190233000Y-97990000D01*
X184793000Y-95050000D02*
X184793000Y-97990000D01*
X183773000Y-96520000D02*
X184793000Y-96520000D01*
X166592000Y-78954000D02*
X161951000Y-78954000D01*
X166592000Y-78954000D02*
X166592000Y-89194000D01*
X165082000Y-78954000D02*
X165082000Y-89194000D01*
X161951000Y-78954000D02*
X161951000Y-89194000D01*
X166592000Y-82224000D02*
X165082000Y-82224000D01*
X166592000Y-85925000D02*
X165082000Y-85925000D01*
X166592000Y-89194000D02*
X161951000Y-89194000D01*
X151083000Y-108934000D02*
X151083000Y-104934000D01*
X150793000Y-109964000D02*
X150793000Y-103944000D01*
X150793000Y-103944000D02*
X145493000Y-103944000D01*
X150213000Y-109964000D02*
X150213000Y-109364000D01*
X150213000Y-109364000D02*
X148613000Y-109364000D01*
X149413000Y-104944000D02*
X149163000Y-105474000D01*
X149413000Y-104944000D02*
X146873000Y-104944000D01*
X149413000Y-103944000D02*
X149413000Y-104944000D01*
X149163000Y-105474000D02*
X147123000Y-105474000D01*
X149163000Y-103944000D02*
X149163000Y-104944000D01*
X148613000Y-109364000D02*
X148613000Y-109964000D01*
X147673000Y-109964000D02*
X147673000Y-109364000D01*
X147673000Y-109364000D02*
X146073000Y-109364000D01*
X147123000Y-105474000D02*
X146873000Y-104944000D01*
X147123000Y-103944000D02*
X147123000Y-104944000D01*
X146873000Y-104944000D02*
X146873000Y-103944000D01*
X146073000Y-109364000D02*
X146073000Y-109964000D01*
X145493000Y-109964000D02*
X150793000Y-109964000D01*
X145493000Y-103944000D02*
X145493000Y-109964000D01*
X181563000Y-108934000D02*
X181563000Y-104934000D01*
X181273000Y-109964000D02*
X181273000Y-103944000D01*
X181273000Y-103944000D02*
X175973000Y-103944000D01*
X180693000Y-109964000D02*
X180693000Y-109364000D01*
X180693000Y-109364000D02*
X179093000Y-109364000D01*
X179893000Y-104944000D02*
X179643000Y-105474000D01*
X179893000Y-104944000D02*
X177353000Y-104944000D01*
X179893000Y-103944000D02*
X179893000Y-104944000D01*
X179643000Y-105474000D02*
X177603000Y-105474000D01*
X179643000Y-103944000D02*
X179643000Y-104944000D01*
X179093000Y-109364000D02*
X179093000Y-109964000D01*
X178153000Y-109964000D02*
X178153000Y-109364000D01*
X178153000Y-109364000D02*
X176553000Y-109364000D01*
X177603000Y-105474000D02*
X177353000Y-104944000D01*
X177603000Y-103944000D02*
X177603000Y-104944000D01*
X177353000Y-104944000D02*
X177353000Y-103944000D01*
X176553000Y-109364000D02*
X176553000Y-109964000D01*
X175973000Y-109964000D02*
X181273000Y-109964000D01*
X175973000Y-103944000D02*
X175973000Y-109964000D01*
X161243000Y-108934000D02*
X161243000Y-104934000D01*
X160953000Y-109964000D02*
X160953000Y-103944000D01*
X160953000Y-103944000D02*
X155653000Y-103944000D01*
X160373000Y-109964000D02*
X160373000Y-109364000D01*
X160373000Y-109364000D02*
X158773000Y-109364000D01*
X159573000Y-104944000D02*
X159323000Y-105474000D01*
X159573000Y-104944000D02*
X157033000Y-104944000D01*
X159573000Y-103944000D02*
X159573000Y-104944000D01*
X159323000Y-105474000D02*
X157283000Y-105474000D01*
X159323000Y-103944000D02*
X159323000Y-104944000D01*
X158773000Y-109364000D02*
X158773000Y-109964000D01*
X157833000Y-109964000D02*
X157833000Y-109364000D01*
X157833000Y-109364000D02*
X156233000Y-109364000D01*
X157283000Y-105474000D02*
X157033000Y-104944000D01*
X157283000Y-103944000D02*
X157283000Y-104944000D01*
X157033000Y-104944000D02*
X157033000Y-103944000D01*
X156233000Y-109364000D02*
X156233000Y-109964000D01*
X155653000Y-109964000D02*
X160953000Y-109964000D01*
X155653000Y-103944000D02*
X155653000Y-109964000D01*
X188817000Y-94021000D02*
X188973000Y-94021000D01*
X191133000Y-94021000D02*
X191289000Y-94021000D01*
X188974392Y-90788666D02*
G75*
G03*
X188817485Y-94020999I1078608J-1672334D01*
G01*
X188973164Y-91419871D02*
G75*
G03*
X188973001Y-93501960I1079836J-1041129D01*
G01*
X191132999Y-93501960D02*
G75*
G03*
X191132836Y-91419871I-1079999J1040960D01*
G01*
X191288515Y-94020999D02*
G75*
G03*
X191131608Y-90788666I-1235515J1559999D01*
G01*
X140538000Y-67031000D02*
X140538000Y-67981000D01*
X141458000Y-67981000D02*
X139618000Y-67981000D01*
X139618000Y-67981000D02*
X139618000Y-71821000D01*
X141458000Y-71821000D02*
X141458000Y-67981000D01*
X139618000Y-71821000D02*
X141458000Y-71821000D01*
X140538000Y-72771000D02*
X140538000Y-71821000D01*
X191951000Y-75956000D02*
X190621000Y-75956000D01*
X191951000Y-74626000D02*
X191951000Y-75956000D01*
X191951000Y-73356000D02*
X191951000Y-65676000D01*
X191951000Y-73356000D02*
X189291000Y-73356000D01*
X191951000Y-65676000D02*
X189291000Y-65676000D01*
X189291000Y-73356000D02*
X189291000Y-65676000D01*
X127857000Y-94021000D02*
X128013000Y-94021000D01*
X130173000Y-94021000D02*
X130329000Y-94021000D01*
X128014392Y-90788666D02*
G75*
G03*
X127857485Y-94020999I1078608J-1672334D01*
G01*
X128013164Y-91419871D02*
G75*
G03*
X128013001Y-93501960I1079836J-1041129D01*
G01*
X130172999Y-93501960D02*
G75*
G03*
X130172836Y-91419871I-1079999J1040960D01*
G01*
X130328515Y-94020999D02*
G75*
G03*
X130171608Y-90788666I-1235515J1559999D01*
G01*
X120143000Y-108264000D02*
X120143000Y-106934000D01*
X121473000Y-108264000D02*
X120143000Y-108264000D01*
X122743000Y-108264000D02*
X122803000Y-108264000D01*
X122743000Y-108264000D02*
X122743000Y-105604000D01*
X122803000Y-108264000D02*
X122803000Y-105604000D01*
X122743000Y-105604000D02*
X122803000Y-105604000D01*
X130763000Y-108934000D02*
X130763000Y-104934000D01*
X130473000Y-109964000D02*
X130473000Y-103944000D01*
X130473000Y-103944000D02*
X125173000Y-103944000D01*
X129893000Y-109964000D02*
X129893000Y-109364000D01*
X129893000Y-109364000D02*
X128293000Y-109364000D01*
X129093000Y-104944000D02*
X128843000Y-105474000D01*
X129093000Y-104944000D02*
X126553000Y-104944000D01*
X129093000Y-103944000D02*
X129093000Y-104944000D01*
X128843000Y-105474000D02*
X126803000Y-105474000D01*
X128843000Y-103944000D02*
X128843000Y-104944000D01*
X128293000Y-109364000D02*
X128293000Y-109964000D01*
X127353000Y-109964000D02*
X127353000Y-109364000D01*
X127353000Y-109364000D02*
X125753000Y-109364000D01*
X126803000Y-105474000D02*
X126553000Y-104944000D01*
X126803000Y-103944000D02*
X126803000Y-104944000D01*
X126553000Y-104944000D02*
X126553000Y-103944000D01*
X125753000Y-109364000D02*
X125753000Y-109964000D01*
X125173000Y-109964000D02*
X130473000Y-109964000D01*
X125173000Y-103944000D02*
X125173000Y-109964000D01*
X117697000Y-94021000D02*
X117853000Y-94021000D01*
X120013000Y-94021000D02*
X120169000Y-94021000D01*
X117854392Y-90788666D02*
G75*
G03*
X117697485Y-94020999I1078608J-1672334D01*
G01*
X117853164Y-91419871D02*
G75*
G03*
X117853001Y-93501960I1079836J-1041129D01*
G01*
X120012999Y-93501960D02*
G75*
G03*
X120012836Y-91419871I-1079999J1040960D01*
G01*
X120168515Y-94020999D02*
G75*
G03*
X120011608Y-90788666I-1235515J1559999D01*
G01*
X132302000Y-78954000D02*
X127661000Y-78954000D01*
X132302000Y-78954000D02*
X132302000Y-89194000D01*
X130792000Y-78954000D02*
X130792000Y-89194000D01*
X127661000Y-78954000D02*
X127661000Y-89194000D01*
X132302000Y-82224000D02*
X130792000Y-82224000D01*
X132302000Y-85925000D02*
X130792000Y-85925000D01*
X132302000Y-89194000D02*
X127661000Y-89194000D01*
X168115000Y-65950000D02*
X167800000Y-65950000D01*
X168115000Y-65950000D02*
X168115000Y-71190000D01*
X165690000Y-65950000D02*
X165375000Y-65950000D01*
X165375000Y-65950000D02*
X165375000Y-71190000D01*
X168115000Y-71190000D02*
X167800000Y-71190000D01*
X165690000Y-71190000D02*
X165375000Y-71190000D01*
X183633000Y-99822000D02*
X182613000Y-99822000D01*
X182613000Y-101292000D02*
X182613000Y-98352000D01*
X182613000Y-98352000D02*
X177173000Y-98352000D01*
X181833000Y-101292000D02*
X181833000Y-98352000D01*
X181713000Y-101292000D02*
X181713000Y-98352000D01*
X181593000Y-101292000D02*
X181593000Y-98352000D01*
X177173000Y-101292000D02*
X182613000Y-101292000D01*
X177173000Y-98352000D02*
X177173000Y-101292000D01*
X176153000Y-99822000D02*
X177173000Y-99822000D01*
X168497000Y-94021000D02*
X168653000Y-94021000D01*
X170813000Y-94021000D02*
X170969000Y-94021000D01*
X168654392Y-90788666D02*
G75*
G03*
X168497485Y-94020999I1078608J-1672334D01*
G01*
X168653164Y-91419871D02*
G75*
G03*
X168653001Y-93501960I1079836J-1041129D01*
G01*
X170812999Y-93501960D02*
G75*
G03*
X170812836Y-91419871I-1079999J1040960D01*
G01*
X170968515Y-94020999D02*
G75*
G03*
X170811608Y-90788666I-1235515J1559999D01*
G01*
X153153000Y-96520000D02*
X152133000Y-96520000D01*
X152133000Y-97990000D02*
X152133000Y-95050000D01*
X152133000Y-95050000D02*
X146693000Y-95050000D01*
X151353000Y-97990000D02*
X151353000Y-95050000D01*
X151233000Y-97990000D02*
X151233000Y-95050000D01*
X151113000Y-97990000D02*
X151113000Y-95050000D01*
X146693000Y-97990000D02*
X152133000Y-97990000D01*
X146693000Y-95050000D02*
X146693000Y-97990000D01*
X145673000Y-96520000D02*
X146693000Y-96520000D01*
X171403000Y-108934000D02*
X171403000Y-104934000D01*
X171113000Y-109964000D02*
X171113000Y-103944000D01*
X171113000Y-103944000D02*
X165813000Y-103944000D01*
X170533000Y-109964000D02*
X170533000Y-109364000D01*
X170533000Y-109364000D02*
X168933000Y-109364000D01*
X169733000Y-104944000D02*
X169483000Y-105474000D01*
X169733000Y-104944000D02*
X167193000Y-104944000D01*
X169733000Y-103944000D02*
X169733000Y-104944000D01*
X169483000Y-105474000D02*
X167443000Y-105474000D01*
X169483000Y-103944000D02*
X169483000Y-104944000D01*
X168933000Y-109364000D02*
X168933000Y-109964000D01*
X167993000Y-109964000D02*
X167993000Y-109364000D01*
X167993000Y-109364000D02*
X166393000Y-109364000D01*
X167443000Y-105474000D02*
X167193000Y-104944000D01*
X167443000Y-103944000D02*
X167443000Y-104944000D01*
X167193000Y-104944000D02*
X167193000Y-103944000D01*
X166393000Y-109364000D02*
X166393000Y-109964000D01*
X165813000Y-109964000D02*
X171113000Y-109964000D01*
X165813000Y-103944000D02*
X165813000Y-109964000D01*
X150623000Y-108264000D02*
X150623000Y-106934000D01*
X151953000Y-108264000D02*
X150623000Y-108264000D01*
X153223000Y-108264000D02*
X153283000Y-108264000D01*
X153223000Y-108264000D02*
X153223000Y-105604000D01*
X153283000Y-108264000D02*
X153283000Y-105604000D01*
X153223000Y-105604000D02*
X153283000Y-105604000D01*
X130303000Y-108264000D02*
X130303000Y-106934000D01*
X131633000Y-108264000D02*
X130303000Y-108264000D01*
X132903000Y-108264000D02*
X132963000Y-108264000D01*
X132903000Y-108264000D02*
X132903000Y-105604000D01*
X132963000Y-108264000D02*
X132963000Y-105604000D01*
X132903000Y-105604000D02*
X132963000Y-105604000D01*
X168577000Y-72814000D02*
X168577000Y-67374000D01*
X168707000Y-72814000D02*
X168577000Y-72814000D01*
X171387000Y-72814000D02*
X171517000Y-72814000D01*
X171517000Y-72814000D02*
X171517000Y-67374000D01*
X168577000Y-72034000D02*
X171517000Y-72034000D01*
X168577000Y-71914000D02*
X171517000Y-71914000D01*
X168577000Y-71794000D02*
X171517000Y-71794000D01*
X168577000Y-67374000D02*
X168707000Y-67374000D01*
X171517000Y-67374000D02*
X171387000Y-67374000D01*
%LPC*%
D15*
X135890000Y-81534000D03*
D16*
X135890000Y-84074000D03*
X135890000Y-86614000D03*
D17*
X182433000Y-106934000D03*
D18*
X117977000Y-87326000D03*
D19*
X117977000Y-84786000D03*
X117977000Y-82246000D03*
X117977000Y-79706000D03*
X117977000Y-77166000D03*
D20*
X134173000Y-96520000D03*
D21*
X124013000Y-96520000D03*
D22*
X190621000Y-77166000D03*
D19*
X190621000Y-79706000D03*
X190621000Y-82246000D03*
X190621000Y-84786000D03*
X190621000Y-87326000D03*
D23*
X133680000Y-66091000D03*
D24*
X133680000Y-73711000D03*
D23*
X178130000Y-65837000D03*
D24*
X178130000Y-73457000D03*
D17*
X141793000Y-106934000D03*
D25*
X159573000Y-93726000D03*
D26*
X159573000Y-91186000D03*
D15*
X149606000Y-81534000D03*
D16*
X149606000Y-84074000D03*
X149606000Y-86614000D03*
D15*
X156464000Y-81534000D03*
D16*
X156464000Y-84074000D03*
X156464000Y-86614000D03*
D15*
X170180000Y-81534000D03*
D16*
X170180000Y-84074000D03*
X170180000Y-86614000D03*
D27*
X190246000Y-61355000D03*
D17*
X117977000Y-67006000D03*
D28*
X117977000Y-69546000D03*
X117977000Y-72086000D03*
X117977000Y-74626000D03*
D25*
X138999000Y-93731000D03*
D26*
X138999000Y-91191000D03*
D29*
X190053000Y-106934000D03*
D30*
X187513000Y-106934000D03*
D25*
X180147000Y-93731000D03*
D26*
X180147000Y-91191000D03*
D20*
X173797000Y-96520000D03*
D21*
X163637000Y-96520000D03*
D20*
X126553000Y-99822000D03*
D21*
X116393000Y-99822000D03*
D29*
X139253000Y-106914000D03*
D30*
X136713000Y-106914000D03*
D31*
X151993000Y-77216000D03*
X156993000Y-77216000D03*
D17*
X172273000Y-106934000D03*
X162113000Y-106934000D03*
D32*
X145678000Y-74133000D03*
D33*
X148218000Y-74133000D03*
X150758000Y-74133000D03*
X153298000Y-74133000D03*
X155838000Y-74133000D03*
X158378000Y-74133000D03*
X160918000Y-74133000D03*
X163458000Y-74133000D03*
X163458000Y-66513000D03*
X160918000Y-66513000D03*
X158378000Y-66513000D03*
X155838000Y-66513000D03*
X153298000Y-66513000D03*
X150758000Y-66513000D03*
X148218000Y-66513000D03*
X145678000Y-66513000D03*
D27*
X118110000Y-118759000D03*
D23*
X173050000Y-65837000D03*
D24*
X173050000Y-73457000D03*
D17*
X192593000Y-106934000D03*
D23*
X135966000Y-66091000D03*
D24*
X135966000Y-73711000D03*
D23*
X138252000Y-66091000D03*
D24*
X138252000Y-73711000D03*
D23*
X175590000Y-65837000D03*
D24*
X175590000Y-73457000D03*
D20*
X164653000Y-99822000D03*
D21*
X154493000Y-99822000D03*
D20*
X144333000Y-99822000D03*
D21*
X134173000Y-99822000D03*
D15*
X142748000Y-81534000D03*
D16*
X142748000Y-84074000D03*
X142748000Y-86614000D03*
D25*
X149413000Y-93726000D03*
D26*
X149413000Y-91186000D03*
D23*
X142869000Y-65990000D03*
D24*
X142869000Y-73610000D03*
D15*
X177038000Y-81534000D03*
D16*
X177038000Y-84074000D03*
X177038000Y-86614000D03*
D23*
X180670000Y-65837000D03*
D24*
X180670000Y-73457000D03*
D29*
X118933000Y-106934000D03*
D30*
X116393000Y-106934000D03*
D20*
X192593000Y-96520000D03*
D21*
X182433000Y-96520000D03*
D27*
X118110000Y-61355000D03*
D15*
X163322000Y-81534000D03*
D16*
X163322000Y-84074000D03*
X163322000Y-86614000D03*
D29*
X149413000Y-106934000D03*
D30*
X146873000Y-106934000D03*
D29*
X179893000Y-106934000D03*
D30*
X177353000Y-106934000D03*
D29*
X159573000Y-106934000D03*
D30*
X157033000Y-106934000D03*
D25*
X190053000Y-93731000D03*
D26*
X190053000Y-91191000D03*
D23*
X140538000Y-66091000D03*
D24*
X140538000Y-73711000D03*
D17*
X190621000Y-74626000D03*
D28*
X190621000Y-72086000D03*
X190621000Y-69546000D03*
X190621000Y-67006000D03*
D27*
X190246000Y-118759000D03*
D25*
X129093000Y-93731000D03*
D26*
X129093000Y-91191000D03*
D17*
X121473000Y-106934000D03*
D29*
X129093000Y-106934000D03*
D30*
X126553000Y-106934000D03*
D25*
X118933000Y-93731000D03*
D26*
X118933000Y-91191000D03*
D15*
X129032000Y-81534000D03*
D16*
X129032000Y-84074000D03*
X129032000Y-86614000D03*
D31*
X166745000Y-66070000D03*
X166745000Y-71070000D03*
D20*
X184973000Y-99822000D03*
D21*
X174813000Y-99822000D03*
D25*
X169733000Y-93731000D03*
D26*
X169733000Y-91191000D03*
D20*
X154493000Y-96520000D03*
D21*
X144333000Y-96520000D03*
D29*
X169733000Y-106934000D03*
D30*
X167193000Y-106934000D03*
D17*
X151953000Y-106934000D03*
X131633000Y-106934000D03*
D20*
X170047000Y-73904000D03*
D21*
X170047000Y-66284000D03*
D23*
X173543000Y-92456000D03*
D24*
X165923000Y-92456000D03*
D23*
X132903000Y-92456000D03*
D24*
X125283000Y-92456000D03*
D23*
X142809000Y-92456000D03*
D24*
X135189000Y-92456000D03*
D23*
X163383000Y-92451000D03*
D24*
X155763000Y-92451000D03*
D23*
X153223000Y-92451000D03*
D24*
X145603000Y-92451000D03*
D23*
X183957000Y-92456000D03*
D24*
X176337000Y-92456000D03*
D23*
X193863000Y-92456000D03*
D24*
X186243000Y-92456000D03*
D23*
X122743000Y-92456000D03*
D24*
X115123000Y-92456000D03*
M02*
