G04 #@! TF.GenerationSoftware,KiCad,Pcbnew,7.0.1*
G04 #@! TF.CreationDate,2023-07-05T13:59:42-05:00*
G04 #@! TF.ProjectId,shift register mosfet array,73686966-7420-4726-9567-697374657220,rev?*
G04 #@! TF.SameCoordinates,Original*
G04 #@! TF.FileFunction,Copper,L1,Top*
G04 #@! TF.FilePolarity,Positive*
%FSLAX46Y46*%
G04 Gerber Fmt 4.6, Leading zero omitted, Abs format (unit mm)*
G04 Created by KiCad (PCBNEW 7.0.1) date 2023-07-05 13:59:42*
%MOMM*%
%LPD*%
G01*
G04 APERTURE LIST*
G04 Aperture macros list*
%AMRoundRect*
0 Rectangle with rounded corners*
0 $1 Rounding radius*
0 $2 $3 $4 $5 $6 $7 $8 $9 X,Y pos of 4 corners*
0 Add a 4 corners polygon primitive as box body*
4,1,4,$2,$3,$4,$5,$6,$7,$8,$9,$2,$3,0*
0 Add four circle primitives for the rounded corners*
1,1,$1+$1,$2,$3*
1,1,$1+$1,$4,$5*
1,1,$1+$1,$6,$7*
1,1,$1+$1,$8,$9*
0 Add four rect primitives between the rounded corners*
20,1,$1+$1,$2,$3,$4,$5,0*
20,1,$1+$1,$4,$5,$6,$7,0*
20,1,$1+$1,$6,$7,$8,$9,0*
20,1,$1+$1,$8,$9,$2,$3,0*%
G04 Aperture macros list end*
G04 #@! TA.AperFunction,ComponentPad*
%ADD10R,2.000000X1.905000*%
G04 #@! TD*
G04 #@! TA.AperFunction,ComponentPad*
%ADD11O,2.000000X1.905000*%
G04 #@! TD*
G04 #@! TA.AperFunction,ComponentPad*
%ADD12R,1.700000X1.700000*%
G04 #@! TD*
G04 #@! TA.AperFunction,ComponentPad*
%ADD13RoundRect,0.250000X0.845000X-0.620000X0.845000X0.620000X-0.845000X0.620000X-0.845000X-0.620000X0*%
G04 #@! TD*
G04 #@! TA.AperFunction,ComponentPad*
%ADD14O,2.190000X1.740000*%
G04 #@! TD*
G04 #@! TA.AperFunction,ComponentPad*
%ADD15R,2.200000X2.200000*%
G04 #@! TD*
G04 #@! TA.AperFunction,ComponentPad*
%ADD16O,2.200000X2.200000*%
G04 #@! TD*
G04 #@! TA.AperFunction,ComponentPad*
%ADD17RoundRect,0.250000X-0.845000X0.620000X-0.845000X-0.620000X0.845000X-0.620000X0.845000X0.620000X0*%
G04 #@! TD*
G04 #@! TA.AperFunction,ComponentPad*
%ADD18C,1.400000*%
G04 #@! TD*
G04 #@! TA.AperFunction,ComponentPad*
%ADD19O,1.400000X1.400000*%
G04 #@! TD*
G04 #@! TA.AperFunction,ComponentPad*
%ADD20R,1.800000X1.800000*%
G04 #@! TD*
G04 #@! TA.AperFunction,ComponentPad*
%ADD21C,1.800000*%
G04 #@! TD*
G04 #@! TA.AperFunction,ComponentPad*
%ADD22O,1.700000X1.700000*%
G04 #@! TD*
G04 #@! TA.AperFunction,ComponentPad*
%ADD23RoundRect,0.250000X0.620000X0.845000X-0.620000X0.845000X-0.620000X-0.845000X0.620000X-0.845000X0*%
G04 #@! TD*
G04 #@! TA.AperFunction,ComponentPad*
%ADD24O,1.740000X2.190000*%
G04 #@! TD*
G04 #@! TA.AperFunction,ComponentPad*
%ADD25C,1.600000*%
G04 #@! TD*
G04 #@! TA.AperFunction,ComponentPad*
%ADD26R,1.600000X2.400000*%
G04 #@! TD*
G04 #@! TA.AperFunction,ComponentPad*
%ADD27O,1.600000X2.400000*%
G04 #@! TD*
G04 #@! TA.AperFunction,ViaPad*
%ADD28C,0.800000*%
G04 #@! TD*
G04 #@! TA.AperFunction,Conductor*
%ADD29C,0.300000*%
G04 #@! TD*
G04 #@! TA.AperFunction,Conductor*
%ADD30C,1.500000*%
G04 #@! TD*
G04 APERTURE END LIST*
D10*
X135890000Y-81534000D03*
D11*
X135890000Y-84074000D03*
X135890000Y-86614000D03*
D12*
X182433000Y-106934000D03*
D13*
X117977000Y-87326000D03*
D14*
X117977000Y-84786000D03*
X117977000Y-82246000D03*
X117977000Y-79706000D03*
X117977000Y-77166000D03*
D15*
X134173000Y-96520000D03*
D16*
X124013000Y-96520000D03*
D17*
X190621000Y-77166000D03*
D14*
X190621000Y-79706000D03*
X190621000Y-82246000D03*
X190621000Y-84786000D03*
X190621000Y-87326000D03*
D18*
X133680000Y-66091000D03*
D19*
X133680000Y-73711000D03*
D18*
X178130000Y-65837000D03*
D19*
X178130000Y-73457000D03*
D12*
X141793000Y-106934000D03*
D20*
X159573000Y-93726000D03*
D21*
X159573000Y-91186000D03*
D10*
X149606000Y-81534000D03*
D11*
X149606000Y-84074000D03*
X149606000Y-86614000D03*
D10*
X156464000Y-81534000D03*
D11*
X156464000Y-84074000D03*
X156464000Y-86614000D03*
D10*
X170180000Y-81534000D03*
D11*
X170180000Y-84074000D03*
X170180000Y-86614000D03*
D12*
X117977000Y-67006000D03*
D22*
X117977000Y-69546000D03*
X117977000Y-72086000D03*
X117977000Y-74626000D03*
D20*
X138999000Y-93731000D03*
D21*
X138999000Y-91191000D03*
D23*
X190053000Y-106934000D03*
D24*
X187513000Y-106934000D03*
D20*
X180147000Y-93731000D03*
D21*
X180147000Y-91191000D03*
D15*
X173797000Y-96520000D03*
D16*
X163637000Y-96520000D03*
D15*
X126553000Y-99822000D03*
D16*
X116393000Y-99822000D03*
D23*
X139253000Y-106914000D03*
D24*
X136713000Y-106914000D03*
D25*
X151993000Y-77216000D03*
X156993000Y-77216000D03*
D12*
X172273000Y-106934000D03*
X162113000Y-106934000D03*
D26*
X145678000Y-74133000D03*
D27*
X148218000Y-74133000D03*
X150758000Y-74133000D03*
X153298000Y-74133000D03*
X155838000Y-74133000D03*
X158378000Y-74133000D03*
X160918000Y-74133000D03*
X163458000Y-74133000D03*
X163458000Y-66513000D03*
X160918000Y-66513000D03*
X158378000Y-66513000D03*
X155838000Y-66513000D03*
X153298000Y-66513000D03*
X150758000Y-66513000D03*
X148218000Y-66513000D03*
X145678000Y-66513000D03*
D18*
X173050000Y-65837000D03*
D19*
X173050000Y-73457000D03*
D12*
X192593000Y-106934000D03*
D18*
X135966000Y-66091000D03*
D19*
X135966000Y-73711000D03*
D18*
X138252000Y-66091000D03*
D19*
X138252000Y-73711000D03*
D18*
X175590000Y-65837000D03*
D19*
X175590000Y-73457000D03*
D15*
X164653000Y-99822000D03*
D16*
X154493000Y-99822000D03*
D15*
X144333000Y-99822000D03*
D16*
X134173000Y-99822000D03*
D10*
X142748000Y-81534000D03*
D11*
X142748000Y-84074000D03*
X142748000Y-86614000D03*
D20*
X149413000Y-93726000D03*
D21*
X149413000Y-91186000D03*
D18*
X142869000Y-65990000D03*
D19*
X142869000Y-73610000D03*
D10*
X177038000Y-81534000D03*
D11*
X177038000Y-84074000D03*
X177038000Y-86614000D03*
D18*
X180670000Y-65837000D03*
D19*
X180670000Y-73457000D03*
D23*
X118933000Y-106934000D03*
D24*
X116393000Y-106934000D03*
D15*
X192593000Y-96520000D03*
D16*
X182433000Y-96520000D03*
D10*
X163322000Y-81534000D03*
D11*
X163322000Y-84074000D03*
X163322000Y-86614000D03*
D23*
X149413000Y-106934000D03*
D24*
X146873000Y-106934000D03*
D23*
X179893000Y-106934000D03*
D24*
X177353000Y-106934000D03*
D23*
X159573000Y-106934000D03*
D24*
X157033000Y-106934000D03*
D20*
X190053000Y-93731000D03*
D21*
X190053000Y-91191000D03*
D18*
X140538000Y-66091000D03*
D19*
X140538000Y-73711000D03*
D12*
X190621000Y-74626000D03*
D22*
X190621000Y-72086000D03*
X190621000Y-69546000D03*
X190621000Y-67006000D03*
D20*
X129093000Y-93731000D03*
D21*
X129093000Y-91191000D03*
D12*
X121473000Y-106934000D03*
D23*
X129093000Y-106934000D03*
D24*
X126553000Y-106934000D03*
D20*
X118933000Y-93731000D03*
D21*
X118933000Y-91191000D03*
D10*
X129032000Y-81534000D03*
D11*
X129032000Y-84074000D03*
X129032000Y-86614000D03*
D25*
X166745000Y-66070000D03*
X166745000Y-71070000D03*
D15*
X184973000Y-99822000D03*
D16*
X174813000Y-99822000D03*
D20*
X169733000Y-93731000D03*
D21*
X169733000Y-91191000D03*
D15*
X154493000Y-96520000D03*
D16*
X144333000Y-96520000D03*
D23*
X169733000Y-106934000D03*
D24*
X167193000Y-106934000D03*
D12*
X151953000Y-106934000D03*
X131633000Y-106934000D03*
D15*
X170047000Y-73904000D03*
D16*
X170047000Y-66284000D03*
D18*
X173543000Y-92456000D03*
D19*
X165923000Y-92456000D03*
D18*
X132903000Y-92456000D03*
D19*
X125283000Y-92456000D03*
D18*
X142809000Y-92456000D03*
D19*
X135189000Y-92456000D03*
D18*
X163383000Y-92451000D03*
D19*
X155763000Y-92451000D03*
D18*
X153223000Y-92451000D03*
D19*
X145603000Y-92451000D03*
D18*
X183957000Y-92456000D03*
D19*
X176337000Y-92456000D03*
D18*
X193863000Y-92456000D03*
D19*
X186243000Y-92456000D03*
D18*
X122743000Y-92456000D03*
D19*
X115123000Y-92456000D03*
D28*
X142748000Y-63190500D03*
X129032000Y-64008000D03*
X130256780Y-64650335D03*
D29*
X165638000Y-64963000D02*
X162468000Y-64963000D01*
X170047000Y-66284000D02*
X166959000Y-66284000D01*
X166745000Y-66070000D02*
X165638000Y-64963000D01*
X166959000Y-66284000D02*
X166745000Y-66070000D01*
X162468000Y-64963000D02*
X160918000Y-66513000D01*
D30*
X190621000Y-72086000D02*
X190621000Y-74626000D01*
X117977000Y-72086000D02*
X117977000Y-74626000D01*
D29*
X151993000Y-77216000D02*
X153143000Y-76066000D01*
X142869000Y-65990000D02*
X145155000Y-65990000D01*
X151993000Y-73341654D02*
X145678000Y-67026654D01*
X151993000Y-77216000D02*
X151993000Y-73341654D01*
X117977000Y-84786000D02*
X116032000Y-82841000D01*
X145155000Y-65990000D02*
X145678000Y-66513000D01*
X145678000Y-67026654D02*
X145678000Y-66513000D01*
X116032000Y-82841000D02*
X116032000Y-66201000D01*
X153143000Y-76066000D02*
X167885000Y-76066000D01*
X167885000Y-76066000D02*
X170047000Y-73904000D01*
X119042500Y-63190500D02*
X142748000Y-63190500D01*
X116032000Y-66201000D02*
X119042500Y-63190500D01*
X116388000Y-91191000D02*
X118933000Y-91191000D01*
X115123000Y-92456000D02*
X116388000Y-91191000D01*
X127828000Y-92456000D02*
X129093000Y-91191000D01*
X125283000Y-92456000D02*
X127828000Y-92456000D01*
X135189000Y-92456000D02*
X137734000Y-92456000D01*
X137734000Y-92456000D02*
X138999000Y-91191000D01*
X145603000Y-92451000D02*
X148148000Y-92451000D01*
X148148000Y-92451000D02*
X149413000Y-91186000D01*
X158308000Y-92451000D02*
X159573000Y-91186000D01*
X155763000Y-92451000D02*
X158308000Y-92451000D01*
X167188000Y-91191000D02*
X169733000Y-91191000D01*
X165923000Y-92456000D02*
X167188000Y-91191000D01*
X176337000Y-92456000D02*
X178882000Y-92456000D01*
X178882000Y-92456000D02*
X180147000Y-91191000D01*
X188788000Y-92456000D02*
X190053000Y-91191000D01*
X186243000Y-92456000D02*
X188788000Y-92456000D01*
D30*
X157795000Y-99822000D02*
X164653000Y-99822000D01*
X154493000Y-96520000D02*
X153223000Y-95250000D01*
X192593000Y-106934000D02*
X190053000Y-106934000D01*
X121473000Y-106934000D02*
X118933000Y-106934000D01*
X124168374Y-99822000D02*
X121473000Y-102517374D01*
X184973000Y-99822000D02*
X184973000Y-93766940D01*
X117977000Y-67006000D02*
X117977000Y-69546000D01*
X165862000Y-98613000D02*
X165862000Y-94975940D01*
X159573000Y-106934000D02*
X159573000Y-107334290D01*
X164653000Y-99822000D02*
X164653000Y-104394000D01*
X179893000Y-106934000D02*
X182433000Y-106934000D01*
X183957000Y-92750940D02*
X183957000Y-92456000D01*
X134173000Y-96520000D02*
X129855000Y-96520000D01*
X179893000Y-106934000D02*
X179893000Y-107334290D01*
X129855000Y-96520000D02*
X126553000Y-99822000D01*
X192593000Y-96520000D02*
X192593000Y-93726000D01*
X159573000Y-107334290D02*
X157828290Y-109079000D01*
X174418000Y-109079000D02*
X172273000Y-106934000D01*
X170495000Y-106172000D02*
X169733000Y-106934000D01*
X139253000Y-106914000D02*
X139253000Y-107314290D01*
X153223000Y-95250000D02*
X153223000Y-92451000D01*
X149413000Y-104902000D02*
X149413000Y-106934000D01*
X141031000Y-96520000D02*
X144333000Y-99822000D01*
X121473000Y-102517374D02*
X121473000Y-106934000D01*
X184578000Y-109079000D02*
X182433000Y-106934000D01*
X126553000Y-99822000D02*
X129093000Y-102362000D01*
X190053000Y-106934000D02*
X190053000Y-107334290D01*
X190621000Y-69546000D02*
X191823081Y-69546000D01*
X122743000Y-92456000D02*
X121788000Y-93411000D01*
X121788000Y-93411000D02*
X121788000Y-97441626D01*
X184973000Y-104394000D02*
X182433000Y-106934000D01*
X122743000Y-92456000D02*
X122743000Y-73109919D01*
X154098000Y-109079000D02*
X151953000Y-106934000D01*
X123618000Y-109079000D02*
X121473000Y-106934000D01*
X170495000Y-99822000D02*
X170495000Y-106172000D01*
X169733000Y-106934000D02*
X172273000Y-106934000D01*
X129093000Y-106934000D02*
X129093000Y-107334290D01*
X132903000Y-92456000D02*
X132903000Y-95250000D01*
X144333000Y-99822000D02*
X144333000Y-104394000D01*
X139253000Y-107314290D02*
X137508290Y-109059000D01*
X164653000Y-99822000D02*
X170495000Y-99822000D01*
X143938000Y-109079000D02*
X141793000Y-106934000D01*
X192593000Y-96520000D02*
X192593000Y-106934000D01*
X129093000Y-107334290D02*
X127348290Y-109079000D01*
X137508290Y-109059000D02*
X133758000Y-109059000D01*
X154493000Y-96520000D02*
X147635000Y-96520000D01*
X141793000Y-106934000D02*
X139273000Y-106934000D01*
X170495000Y-99822000D02*
X173797000Y-96520000D01*
X132903000Y-95250000D02*
X134173000Y-96520000D01*
X159573000Y-106934000D02*
X162113000Y-106934000D01*
X144333000Y-104394000D02*
X141793000Y-106934000D01*
X142809000Y-94742000D02*
X142809000Y-92456000D01*
X188308290Y-109079000D02*
X184578000Y-109079000D01*
X134173000Y-96520000D02*
X141031000Y-96520000D01*
X184973000Y-99822000D02*
X189291000Y-99822000D01*
X122743000Y-73109919D02*
X119179081Y-69546000D01*
X191823081Y-69546000D02*
X193863000Y-71585919D01*
X169733000Y-107334290D02*
X167847290Y-109220000D01*
X173543000Y-92456000D02*
X173543000Y-96266000D01*
X192593000Y-93726000D02*
X193863000Y-92456000D01*
X190621000Y-67006000D02*
X190621000Y-69546000D01*
X193863000Y-71585919D02*
X193863000Y-92456000D01*
X147635000Y-96520000D02*
X144333000Y-99822000D01*
X173543000Y-96266000D02*
X173797000Y-96520000D01*
X149413000Y-106934000D02*
X149413000Y-107334290D01*
X129093000Y-106934000D02*
X131633000Y-106934000D01*
X179893000Y-107334290D02*
X178148290Y-109079000D01*
X157828290Y-109079000D02*
X154098000Y-109079000D01*
X189291000Y-99822000D02*
X192593000Y-96520000D01*
X124168374Y-99822000D02*
X126553000Y-99822000D01*
X119179081Y-69546000D02*
X117977000Y-69546000D01*
X184973000Y-99822000D02*
X184973000Y-104394000D01*
X139273000Y-106934000D02*
X139253000Y-106914000D01*
X154493000Y-96520000D02*
X157795000Y-99822000D01*
X184973000Y-93766940D02*
X183957000Y-92750940D01*
X149413000Y-107334290D02*
X147668290Y-109079000D01*
X164653000Y-104394000D02*
X162113000Y-106934000D01*
X164653000Y-99822000D02*
X165862000Y-98613000D01*
X149413000Y-106934000D02*
X151953000Y-106934000D01*
X127348290Y-109079000D02*
X123618000Y-109079000D01*
X167847290Y-109220000D02*
X164399000Y-109220000D01*
X121788000Y-97441626D02*
X124168374Y-99822000D01*
X129093000Y-102362000D02*
X129093000Y-106934000D01*
X164399000Y-109220000D02*
X162113000Y-106934000D01*
X169733000Y-106934000D02*
X169733000Y-107334290D01*
X133758000Y-109059000D02*
X131633000Y-106934000D01*
X141031000Y-96520000D02*
X142809000Y-94742000D01*
X147668290Y-109079000D02*
X143938000Y-109079000D01*
X190053000Y-107334290D02*
X188308290Y-109079000D01*
X163383000Y-92496940D02*
X163383000Y-92451000D01*
X178148290Y-109079000D02*
X174418000Y-109079000D01*
X144333000Y-99822000D02*
X149413000Y-104902000D01*
X165862000Y-94975940D02*
X163383000Y-92496940D01*
D29*
X186944000Y-78569000D02*
X190621000Y-82246000D01*
X186944000Y-70626075D02*
X186944000Y-78569000D01*
X160428000Y-64463000D02*
X180780925Y-64463000D01*
X158378000Y-66513000D02*
X160428000Y-64463000D01*
X180780925Y-64463000D02*
X186944000Y-70626075D01*
X181311000Y-63963000D02*
X158388000Y-63963000D01*
X189421000Y-72073000D02*
X181311000Y-63963000D01*
X192066000Y-76071000D02*
X191821000Y-75826000D01*
X192066000Y-78261000D02*
X192066000Y-76071000D01*
X129032000Y-64008000D02*
X129139665Y-63900335D01*
X158388000Y-63963000D02*
X155838000Y-66513000D01*
X155838000Y-66513000D02*
X153265000Y-63940000D01*
X191821000Y-75826000D02*
X189421000Y-75826000D01*
X153265000Y-63940000D02*
X130495894Y-63940000D01*
X190621000Y-79706000D02*
X192066000Y-78261000D01*
X129139665Y-63900335D02*
X130495894Y-63900335D01*
X189421000Y-75826000D02*
X189421000Y-72073000D01*
X130256780Y-64650335D02*
X130492665Y-64650335D01*
X130492665Y-64650335D02*
X130703000Y-64440000D01*
X148685000Y-64440000D02*
X150758000Y-66513000D01*
X130703000Y-64440000D02*
X148685000Y-64440000D01*
X135966000Y-81458000D02*
X135890000Y-81534000D01*
X135966000Y-73711000D02*
X135966000Y-81458000D01*
X142748000Y-78207000D02*
X142748000Y-81534000D01*
X138252000Y-73711000D02*
X142748000Y-78207000D01*
X148361000Y-81534000D02*
X149606000Y-81534000D01*
X140538000Y-73711000D02*
X148361000Y-81534000D01*
X157988000Y-80010000D02*
X156464000Y-81534000D01*
X167486949Y-80010000D02*
X157988000Y-80010000D01*
X173050000Y-74446949D02*
X167486949Y-80010000D01*
X173050000Y-73457000D02*
X173050000Y-74446949D01*
X175590000Y-73457000D02*
X167513000Y-81534000D01*
X167513000Y-81534000D02*
X163322000Y-81534000D01*
X180670000Y-77902000D02*
X177038000Y-81534000D01*
X180670000Y-73457000D02*
X180670000Y-77902000D01*
X133680000Y-66091000D02*
X134831000Y-64940000D01*
X134831000Y-64940000D02*
X146645000Y-64940000D01*
X146645000Y-64940000D02*
X148218000Y-66513000D01*
X133680000Y-73711000D02*
X133680000Y-76886000D01*
X133680000Y-76886000D02*
X129032000Y-81534000D01*
X142435000Y-72560000D02*
X143303925Y-72560000D01*
X144876925Y-74133000D02*
X145678000Y-74133000D01*
X143303925Y-72560000D02*
X144876925Y-74133000D01*
X135966000Y-66091000D02*
X142435000Y-72560000D01*
X138252000Y-66091000D02*
X144551000Y-72390000D01*
X144551000Y-72390000D02*
X146475000Y-72390000D01*
X146475000Y-72390000D02*
X148218000Y-74133000D01*
X143027000Y-68580000D02*
X145205000Y-68580000D01*
X145205000Y-68580000D02*
X150758000Y-74133000D01*
X140538000Y-66091000D02*
X143027000Y-68580000D01*
X159011000Y-68420000D02*
X170467000Y-68420000D01*
X153298000Y-74133000D02*
X159011000Y-68420000D01*
X170467000Y-68420000D02*
X173050000Y-65837000D01*
X161051000Y-68920000D02*
X172507000Y-68920000D01*
X155838000Y-74133000D02*
X161051000Y-68920000D01*
X172507000Y-68920000D02*
X175590000Y-65837000D01*
X158378000Y-74133000D02*
X163091000Y-69420000D01*
X174547000Y-69420000D02*
X178130000Y-65837000D01*
X163091000Y-69420000D02*
X174547000Y-69420000D01*
X170180000Y-81534000D02*
X170180000Y-81407000D01*
X170180000Y-81407000D02*
X178130000Y-73457000D01*
X160918000Y-74133000D02*
X164947000Y-70104000D01*
X165608000Y-70104000D02*
X165792000Y-69920000D01*
X165792000Y-69920000D02*
X176587000Y-69920000D01*
X164947000Y-70104000D02*
X165608000Y-70104000D01*
X176587000Y-69920000D02*
X180670000Y-65837000D01*
G04 #@! TA.AperFunction,Conductor*
G36*
X190248702Y-56783617D02*
G01*
X190440787Y-56792004D01*
X190645340Y-56801462D01*
X190655772Y-56802388D01*
X190855723Y-56828712D01*
X190856340Y-56828796D01*
X191052505Y-56856160D01*
X191062156Y-56857900D01*
X191260370Y-56901843D01*
X191261781Y-56902166D01*
X191453048Y-56947151D01*
X191461927Y-56949591D01*
X191656027Y-57010791D01*
X191658043Y-57011446D01*
X191843817Y-57073711D01*
X191851828Y-57076709D01*
X192040191Y-57154732D01*
X192042618Y-57155769D01*
X192221631Y-57234811D01*
X192228731Y-57238223D01*
X192409668Y-57332413D01*
X192412742Y-57334068D01*
X192583408Y-57429129D01*
X192589667Y-57432862D01*
X192761757Y-57542496D01*
X192765208Y-57544776D01*
X192926273Y-57655107D01*
X192931684Y-57659032D01*
X193093620Y-57783291D01*
X193097350Y-57786269D01*
X193247480Y-57910936D01*
X193252036Y-57914910D01*
X193402538Y-58052819D01*
X193406446Y-58056561D01*
X193544437Y-58194552D01*
X193548179Y-58198460D01*
X193686088Y-58348962D01*
X193690062Y-58353518D01*
X193814729Y-58503648D01*
X193817707Y-58507378D01*
X193941966Y-58669314D01*
X193945891Y-58674725D01*
X194056222Y-58835790D01*
X194058502Y-58839241D01*
X194168136Y-59011331D01*
X194171885Y-59017617D01*
X194266925Y-59188248D01*
X194268585Y-59191330D01*
X194362764Y-59372245D01*
X194366199Y-59379395D01*
X194445193Y-59558299D01*
X194446296Y-59560877D01*
X194524282Y-59749152D01*
X194527293Y-59757199D01*
X194589530Y-59942889D01*
X194590219Y-59945008D01*
X194651405Y-60139066D01*
X194653850Y-60147963D01*
X194698815Y-60339143D01*
X194699170Y-60340694D01*
X194743093Y-60538814D01*
X194744843Y-60548522D01*
X194772182Y-60744512D01*
X194772310Y-60745458D01*
X194798608Y-60945214D01*
X194799537Y-60955672D01*
X194809008Y-61160508D01*
X194809022Y-61160826D01*
X194817382Y-61352297D01*
X194817500Y-61357706D01*
X194817500Y-70472583D01*
X194803985Y-70528878D01*
X194766385Y-70572901D01*
X194712898Y-70595056D01*
X194655182Y-70590514D01*
X194605819Y-70560264D01*
X192761897Y-68716342D01*
X192752631Y-68705974D01*
X192730587Y-68678332D01*
X192680684Y-68634732D01*
X192674588Y-68629033D01*
X192667608Y-68622053D01*
X192636336Y-68595945D01*
X192634221Y-68594139D01*
X192592649Y-68557819D01*
X192561077Y-68530235D01*
X192557317Y-68527988D01*
X192541451Y-68516730D01*
X192538099Y-68513931D01*
X192453629Y-68466001D01*
X192451226Y-68464601D01*
X192367846Y-68414785D01*
X192363752Y-68413249D01*
X192346127Y-68405003D01*
X192342326Y-68402847D01*
X192342325Y-68402846D01*
X192342324Y-68402846D01*
X192250649Y-68370767D01*
X192248035Y-68369819D01*
X192157109Y-68335694D01*
X192157106Y-68335693D01*
X192157105Y-68335693D01*
X192152802Y-68334911D01*
X192133998Y-68329948D01*
X192129863Y-68328501D01*
X192033928Y-68313306D01*
X192031188Y-68312841D01*
X192011874Y-68309336D01*
X191973358Y-68302346D01*
X191921123Y-68279557D01*
X191884598Y-68235807D01*
X191871500Y-68180340D01*
X191871500Y-67547341D01*
X191883118Y-67494937D01*
X191894902Y-67469665D01*
X191898685Y-67455549D01*
X191956063Y-67241408D01*
X191976659Y-67006000D01*
X191973490Y-66969784D01*
X191956063Y-66770592D01*
X191944031Y-66725688D01*
X191894903Y-66542337D01*
X191795035Y-66328171D01*
X191659495Y-66134599D01*
X191492401Y-65967505D01*
X191298830Y-65831965D01*
X191084663Y-65732097D01*
X191023501Y-65715709D01*
X190856407Y-65670936D01*
X190621000Y-65650340D01*
X190385592Y-65670936D01*
X190157336Y-65732097D01*
X189943170Y-65831965D01*
X189749598Y-65967505D01*
X189582505Y-66134598D01*
X189446965Y-66328170D01*
X189347097Y-66542336D01*
X189285936Y-66770592D01*
X189265340Y-67005999D01*
X189285936Y-67241407D01*
X189347097Y-67469665D01*
X189358882Y-67494937D01*
X189370500Y-67547341D01*
X189370500Y-69004659D01*
X189358882Y-69057063D01*
X189347097Y-69082334D01*
X189285936Y-69310592D01*
X189265340Y-69546000D01*
X189285936Y-69781407D01*
X189326500Y-69932793D01*
X189347097Y-70009663D01*
X189446965Y-70223830D01*
X189582505Y-70417401D01*
X189749599Y-70584495D01*
X189935597Y-70714732D01*
X189974460Y-70759048D01*
X189988471Y-70816305D01*
X189974461Y-70873561D01*
X189935595Y-70917880D01*
X189749919Y-71047892D01*
X189620560Y-71177252D01*
X189564973Y-71209346D01*
X189500785Y-71209346D01*
X189445198Y-71177252D01*
X181831434Y-63563488D01*
X181818091Y-63546833D01*
X181765166Y-63497134D01*
X181762369Y-63494423D01*
X181742034Y-63474088D01*
X181738547Y-63471383D01*
X181729671Y-63463801D01*
X181696394Y-63432552D01*
X181677793Y-63422326D01*
X181661532Y-63411645D01*
X181658834Y-63409552D01*
X181644764Y-63398638D01*
X181621177Y-63388431D01*
X181602869Y-63380508D01*
X181592379Y-63375369D01*
X181552367Y-63353372D01*
X181531800Y-63348091D01*
X181513398Y-63341791D01*
X181493924Y-63333364D01*
X181448837Y-63326223D01*
X181437398Y-63323854D01*
X181393178Y-63312500D01*
X181393177Y-63312500D01*
X181371955Y-63312500D01*
X181352556Y-63310973D01*
X181331596Y-63307653D01*
X181331595Y-63307653D01*
X181309558Y-63309736D01*
X181286139Y-63311950D01*
X181274470Y-63312500D01*
X158473505Y-63312500D01*
X158452294Y-63310158D01*
X158379724Y-63312439D01*
X158375829Y-63312500D01*
X158347074Y-63312500D01*
X158342701Y-63313052D01*
X158331069Y-63313967D01*
X158285428Y-63315401D01*
X158265041Y-63321324D01*
X158245998Y-63325268D01*
X158224942Y-63327928D01*
X158182496Y-63344733D01*
X158171450Y-63348514D01*
X158127602Y-63361254D01*
X158109324Y-63372063D01*
X158091861Y-63380618D01*
X158072130Y-63388431D01*
X158035187Y-63415270D01*
X158025428Y-63421680D01*
X157986135Y-63444918D01*
X157971125Y-63459928D01*
X157956336Y-63472558D01*
X157939164Y-63485034D01*
X157910057Y-63520218D01*
X157902196Y-63528856D01*
X156523409Y-64907643D01*
X156481510Y-64935201D01*
X156432122Y-64943910D01*
X156383324Y-64932345D01*
X156362323Y-64922552D01*
X156284496Y-64886261D01*
X156070503Y-64828922D01*
X156064689Y-64827364D01*
X155838000Y-64807531D01*
X155611310Y-64827364D01*
X155391500Y-64886262D01*
X155292675Y-64932345D01*
X155243877Y-64943911D01*
X155194489Y-64935202D01*
X155152590Y-64907644D01*
X153785434Y-63540488D01*
X153772091Y-63523833D01*
X153719166Y-63474134D01*
X153716369Y-63471423D01*
X153696034Y-63451088D01*
X153692547Y-63448383D01*
X153683671Y-63440801D01*
X153650394Y-63409552D01*
X153631793Y-63399326D01*
X153615532Y-63388645D01*
X153598764Y-63375638D01*
X153598142Y-63375369D01*
X153556869Y-63357508D01*
X153546379Y-63352369D01*
X153506367Y-63330372D01*
X153485800Y-63325091D01*
X153467398Y-63318791D01*
X153447924Y-63310364D01*
X153402837Y-63303223D01*
X153391398Y-63300854D01*
X153347178Y-63289500D01*
X153347177Y-63289500D01*
X153325955Y-63289500D01*
X153306556Y-63287973D01*
X153285596Y-63284653D01*
X153285595Y-63284653D01*
X153263558Y-63286736D01*
X153240139Y-63288950D01*
X153228470Y-63289500D01*
X143775515Y-63289500D01*
X143717300Y-63274985D01*
X143672714Y-63234840D01*
X143652194Y-63178463D01*
X143633674Y-63002244D01*
X143575623Y-62823582D01*
X143575179Y-62822215D01*
X143480533Y-62658283D01*
X143353870Y-62517610D01*
X143200730Y-62406348D01*
X143027802Y-62329355D01*
X142842648Y-62290000D01*
X142842646Y-62290000D01*
X142653354Y-62290000D01*
X142653352Y-62290000D01*
X142468197Y-62329355D01*
X142295272Y-62406347D01*
X142228537Y-62454832D01*
X142143907Y-62516319D01*
X142109343Y-62533931D01*
X142071025Y-62540000D01*
X119778714Y-62540000D01*
X119714118Y-62521846D01*
X119668436Y-62472698D01*
X119655045Y-62406949D01*
X119677866Y-62343850D01*
X119693796Y-62321583D01*
X119693795Y-62321583D01*
X119693799Y-62321579D01*
X119817656Y-62080675D01*
X119905118Y-61824305D01*
X119954319Y-61557933D01*
X119959259Y-61422764D01*
X188391787Y-61422764D01*
X188421413Y-61692016D01*
X188489928Y-61954087D01*
X188595871Y-62203392D01*
X188736982Y-62434611D01*
X188826253Y-62541881D01*
X188910255Y-62642820D01*
X189111998Y-62823582D01*
X189337910Y-62973044D01*
X189444211Y-63022875D01*
X189583177Y-63088021D01*
X189842562Y-63166058D01*
X189842569Y-63166060D01*
X190110561Y-63205500D01*
X190313631Y-63205500D01*
X190313634Y-63205500D01*
X190516156Y-63190677D01*
X190570995Y-63178461D01*
X190780553Y-63131780D01*
X191033558Y-63035014D01*
X191269777Y-62902441D01*
X191484177Y-62736888D01*
X191672186Y-62541881D01*
X191829799Y-62321579D01*
X191953656Y-62080675D01*
X192041118Y-61824305D01*
X192090319Y-61557933D01*
X192100212Y-61287235D01*
X192070586Y-61017982D01*
X192002072Y-60755912D01*
X191896130Y-60506610D01*
X191755018Y-60275390D01*
X191755017Y-60275388D01*
X191581746Y-60067181D01*
X191476758Y-59973112D01*
X191380002Y-59886418D01*
X191154090Y-59736956D01*
X191154086Y-59736954D01*
X190908822Y-59621978D01*
X190649437Y-59543941D01*
X190649431Y-59543940D01*
X190381439Y-59504500D01*
X190178369Y-59504500D01*
X190178366Y-59504500D01*
X189975843Y-59519322D01*
X189711449Y-59578219D01*
X189458441Y-59674986D01*
X189222223Y-59807559D01*
X189007825Y-59973109D01*
X188819813Y-60168120D01*
X188662201Y-60388420D01*
X188538342Y-60629329D01*
X188450881Y-60885695D01*
X188401680Y-61152066D01*
X188391787Y-61422764D01*
X119959259Y-61422764D01*
X119964212Y-61287235D01*
X119934586Y-61017982D01*
X119866072Y-60755912D01*
X119760130Y-60506610D01*
X119619018Y-60275390D01*
X119619017Y-60275388D01*
X119445746Y-60067181D01*
X119340758Y-59973112D01*
X119244002Y-59886418D01*
X119018090Y-59736956D01*
X119018086Y-59736954D01*
X118772822Y-59621978D01*
X118513437Y-59543941D01*
X118513431Y-59543940D01*
X118245439Y-59504500D01*
X118042369Y-59504500D01*
X118042366Y-59504500D01*
X117839843Y-59519322D01*
X117575449Y-59578219D01*
X117322441Y-59674986D01*
X117086223Y-59807559D01*
X116871825Y-59973109D01*
X116683813Y-60168120D01*
X116526201Y-60388420D01*
X116402342Y-60629329D01*
X116314881Y-60885695D01*
X116265680Y-61152066D01*
X116255787Y-61422764D01*
X116285413Y-61692016D01*
X116353928Y-61954087D01*
X116459871Y-62203392D01*
X116600982Y-62434611D01*
X116690253Y-62541881D01*
X116774255Y-62642820D01*
X116975998Y-62823582D01*
X117201910Y-62973044D01*
X117308211Y-63022875D01*
X117447177Y-63088021D01*
X117650025Y-63149048D01*
X117706569Y-63166060D01*
X117846428Y-63186642D01*
X117908123Y-63214371D01*
X117946089Y-63270356D01*
X117949023Y-63337937D01*
X117916051Y-63397001D01*
X115632484Y-65680568D01*
X115615831Y-65693910D01*
X115566133Y-65746833D01*
X115563427Y-65749626D01*
X115543083Y-65769971D01*
X115540376Y-65773460D01*
X115532807Y-65782321D01*
X115501551Y-65815607D01*
X115491322Y-65834212D01*
X115480645Y-65850467D01*
X115467636Y-65867238D01*
X115449506Y-65909132D01*
X115444370Y-65919616D01*
X115422372Y-65959632D01*
X115417091Y-65980199D01*
X115410791Y-65998600D01*
X115402364Y-66018074D01*
X115395223Y-66063161D01*
X115392855Y-66074593D01*
X115384246Y-66108130D01*
X115381500Y-66118824D01*
X115381500Y-66140045D01*
X115379973Y-66159444D01*
X115376653Y-66180403D01*
X115380950Y-66225861D01*
X115381500Y-66237530D01*
X115381500Y-82755495D01*
X115379158Y-82776704D01*
X115381439Y-82849262D01*
X115381500Y-82853157D01*
X115381500Y-82881926D01*
X115382053Y-82886307D01*
X115382968Y-82897940D01*
X115384402Y-82943569D01*
X115390323Y-82963950D01*
X115394267Y-82982995D01*
X115396928Y-83004059D01*
X115413737Y-83046515D01*
X115417520Y-83057563D01*
X115430256Y-83101400D01*
X115441061Y-83119670D01*
X115449621Y-83137143D01*
X115457431Y-83156869D01*
X115484267Y-83193808D01*
X115490673Y-83203560D01*
X115513919Y-83242865D01*
X115513920Y-83242866D01*
X115513921Y-83242867D01*
X115528925Y-83257871D01*
X115541562Y-83272667D01*
X115554036Y-83289836D01*
X115554037Y-83289837D01*
X115589212Y-83318936D01*
X115597854Y-83326800D01*
X116439071Y-84168017D01*
X116471714Y-84225728D01*
X116469955Y-84292007D01*
X116407417Y-84496217D01*
X116407417Y-84496219D01*
X116407417Y-84496220D01*
X116386488Y-84659659D01*
X116377784Y-84727627D01*
X116387685Y-84960704D01*
X116436836Y-85188767D01*
X116499334Y-85344297D01*
X116523821Y-85405235D01*
X116646138Y-85603891D01*
X116646139Y-85603892D01*
X116800270Y-85779019D01*
X116840230Y-85811285D01*
X116878557Y-85864546D01*
X116884337Y-85929908D01*
X116855953Y-85989069D01*
X116823256Y-86010861D01*
X116825213Y-86014034D01*
X116663654Y-86113683D01*
X116539683Y-86237654D01*
X116447642Y-86386877D01*
X116392493Y-86553303D01*
X116382000Y-86656021D01*
X116382000Y-86826000D01*
X119571999Y-86826000D01*
X119571999Y-86656021D01*
X119561506Y-86553304D01*
X119506357Y-86386877D01*
X119414316Y-86237654D01*
X119290345Y-86113683D01*
X119128787Y-86014034D01*
X119130573Y-86011137D01*
X119099622Y-85990975D01*
X119070546Y-85935004D01*
X119072765Y-85871971D01*
X119105702Y-85818185D01*
X119234516Y-85694728D01*
X119373240Y-85507161D01*
X119478270Y-85298847D01*
X119546583Y-85075780D01*
X119576216Y-84844376D01*
X119566314Y-84611293D01*
X119517164Y-84383235D01*
X119480505Y-84292007D01*
X119430180Y-84166768D01*
X119430179Y-84166765D01*
X119307862Y-83968109D01*
X119153731Y-83792982D01*
X119153729Y-83792980D01*
X118972221Y-83646421D01*
X118931897Y-83623895D01*
X118886782Y-83580655D01*
X118868484Y-83520904D01*
X118881649Y-83459816D01*
X118922933Y-83412909D01*
X119066088Y-83316153D01*
X119234516Y-83154728D01*
X119373240Y-82967161D01*
X119478270Y-82758847D01*
X119546583Y-82535780D01*
X119576216Y-82304376D01*
X119566314Y-82071293D01*
X119517164Y-81843235D01*
X119480505Y-81752007D01*
X119430180Y-81626768D01*
X119430179Y-81626765D01*
X119307862Y-81428109D01*
X119153731Y-81252982D01*
X119153729Y-81252980D01*
X118972221Y-81106421D01*
X118931897Y-81083895D01*
X118886782Y-81040655D01*
X118868484Y-80980904D01*
X118881649Y-80919816D01*
X118922933Y-80872909D01*
X119066088Y-80776153D01*
X119234516Y-80614728D01*
X119373240Y-80427161D01*
X119478270Y-80218847D01*
X119546583Y-79995780D01*
X119576216Y-79764376D01*
X119566314Y-79531293D01*
X119517164Y-79303235D01*
X119485370Y-79224114D01*
X119430180Y-79086768D01*
X119430179Y-79086765D01*
X119307862Y-78888109D01*
X119153731Y-78712982D01*
X119153729Y-78712980D01*
X118972221Y-78566421D01*
X118931897Y-78543895D01*
X118886782Y-78500655D01*
X118868484Y-78440904D01*
X118881649Y-78379816D01*
X118922933Y-78332909D01*
X119066088Y-78236153D01*
X119234516Y-78074728D01*
X119373240Y-77887161D01*
X119478270Y-77678847D01*
X119546583Y-77455780D01*
X119576216Y-77224376D01*
X119566314Y-76991293D01*
X119517164Y-76763235D01*
X119512978Y-76752819D01*
X119445173Y-76584079D01*
X119430179Y-76546765D01*
X119307862Y-76348109D01*
X119153731Y-76172982D01*
X119153729Y-76172980D01*
X118972223Y-76026423D01*
X118787962Y-75923489D01*
X118743116Y-75880684D01*
X118724595Y-75821520D01*
X118737030Y-75760785D01*
X118777312Y-75713660D01*
X118848081Y-75664106D01*
X119015106Y-75497081D01*
X119150600Y-75303576D01*
X119233406Y-75126000D01*
X117601000Y-75126000D01*
X117539000Y-75109387D01*
X117493613Y-75064000D01*
X117477000Y-75002000D01*
X117477000Y-72586000D01*
X118477000Y-72586000D01*
X118477000Y-74126000D01*
X119233406Y-74126000D01*
X119233405Y-74125999D01*
X119150599Y-73948421D01*
X119015109Y-73754921D01*
X118848081Y-73587893D01*
X118661968Y-73457575D01*
X118623103Y-73413257D01*
X118609092Y-73356000D01*
X118623103Y-73298743D01*
X118661968Y-73254425D01*
X118848081Y-73124106D01*
X119015106Y-72957081D01*
X119150600Y-72763576D01*
X119233406Y-72586000D01*
X118477000Y-72586000D01*
X117477000Y-72586000D01*
X117477000Y-71710000D01*
X117493613Y-71648000D01*
X117539000Y-71602613D01*
X117601000Y-71586000D01*
X119233405Y-71586000D01*
X119234915Y-71583629D01*
X119274015Y-71544952D01*
X119325996Y-71526989D01*
X119380633Y-71533274D01*
X119427178Y-71562571D01*
X121456181Y-73591574D01*
X121483061Y-73631802D01*
X121492500Y-73679255D01*
X121492500Y-91886664D01*
X121483061Y-91934117D01*
X121456181Y-91974345D01*
X120958344Y-92472180D01*
X120947981Y-92481442D01*
X120920335Y-92503491D01*
X120876735Y-92553392D01*
X120871050Y-92559473D01*
X120864059Y-92566464D01*
X120837928Y-92597764D01*
X120836124Y-92599876D01*
X120772235Y-92673003D01*
X120769986Y-92676767D01*
X120758739Y-92692617D01*
X120755932Y-92695979D01*
X120707978Y-92780490D01*
X120706604Y-92782849D01*
X120667866Y-92847689D01*
X120656782Y-92866241D01*
X120655246Y-92870335D01*
X120647009Y-92887944D01*
X120644847Y-92891753D01*
X120612762Y-92983444D01*
X120611814Y-92986057D01*
X120573772Y-93087422D01*
X120570743Y-93086285D01*
X120554425Y-93122182D01*
X120506209Y-93158874D01*
X120446363Y-93168341D01*
X120389176Y-93148321D01*
X120348302Y-93103596D01*
X120333499Y-93044842D01*
X120333499Y-92783130D01*
X120333499Y-92783127D01*
X120327091Y-92723517D01*
X120276796Y-92588669D01*
X120190546Y-92473454D01*
X120075331Y-92387204D01*
X120022357Y-92367446D01*
X119995093Y-92357277D01*
X119945558Y-92323261D01*
X119917831Y-92269951D01*
X119918424Y-92209864D01*
X119947196Y-92157114D01*
X120041979Y-92054153D01*
X120168924Y-91859849D01*
X120262157Y-91647300D01*
X120319134Y-91422305D01*
X120338300Y-91191000D01*
X120319134Y-90959695D01*
X120262157Y-90734700D01*
X120168924Y-90522151D01*
X120041979Y-90327847D01*
X119884784Y-90157087D01*
X119701626Y-90014530D01*
X119497503Y-89904064D01*
X119497499Y-89904062D01*
X119497498Y-89904062D01*
X119277984Y-89828702D01*
X119106281Y-89800050D01*
X119049049Y-89790500D01*
X118816951Y-89790500D01*
X118771164Y-89798140D01*
X118588015Y-89828702D01*
X118368501Y-89904062D01*
X118164372Y-90014531D01*
X117981215Y-90157087D01*
X117835590Y-90315279D01*
X117824021Y-90327847D01*
X117721791Y-90484322D01*
X117676999Y-90525555D01*
X117617982Y-90540500D01*
X116473504Y-90540500D01*
X116452294Y-90538158D01*
X116379737Y-90540439D01*
X116375842Y-90540500D01*
X116347071Y-90540500D01*
X116342690Y-90541053D01*
X116331059Y-90541968D01*
X116285428Y-90543402D01*
X116265052Y-90549322D01*
X116246006Y-90553267D01*
X116224939Y-90555928D01*
X116182492Y-90572734D01*
X116171445Y-90576516D01*
X116127601Y-90589255D01*
X116109330Y-90600060D01*
X116091864Y-90608617D01*
X116072129Y-90616431D01*
X116035202Y-90643260D01*
X116025442Y-90649671D01*
X115986136Y-90672917D01*
X115971125Y-90687928D01*
X115956336Y-90700558D01*
X115939164Y-90713034D01*
X115910057Y-90748218D01*
X115902196Y-90756856D01*
X115423105Y-91235947D01*
X115372104Y-91266717D01*
X115312639Y-91270154D01*
X115234243Y-91255500D01*
X115011757Y-91255500D01*
X114793060Y-91296381D01*
X114793060Y-91296382D01*
X114585595Y-91376754D01*
X114396437Y-91493875D01*
X114232019Y-91643762D01*
X114097941Y-91821311D01*
X113998769Y-92020473D01*
X113937885Y-92234462D01*
X113917357Y-92456000D01*
X113937885Y-92677537D01*
X113998769Y-92891526D01*
X114097941Y-93090688D01*
X114232019Y-93268237D01*
X114396437Y-93418124D01*
X114585595Y-93535245D01*
X114585597Y-93535245D01*
X114585599Y-93535247D01*
X114793060Y-93615618D01*
X115011757Y-93656500D01*
X115234241Y-93656500D01*
X115234243Y-93656500D01*
X115452940Y-93615618D01*
X115660401Y-93535247D01*
X115849562Y-93418124D01*
X115950025Y-93326540D01*
X116013980Y-93268237D01*
X116013981Y-93268236D01*
X116148058Y-93090689D01*
X116247229Y-92891528D01*
X116248653Y-92886526D01*
X116276437Y-92788872D01*
X116308115Y-92677536D01*
X116328643Y-92456000D01*
X116309785Y-92252489D01*
X116316626Y-92198938D01*
X116345571Y-92153373D01*
X116621129Y-91877816D01*
X116661355Y-91850939D01*
X116708808Y-91841500D01*
X117617982Y-91841500D01*
X117676999Y-91856445D01*
X117721790Y-91897677D01*
X117824021Y-92054153D01*
X117918803Y-92157114D01*
X117947575Y-92209865D01*
X117948168Y-92269951D01*
X117920441Y-92323261D01*
X117870906Y-92357276D01*
X117790671Y-92387202D01*
X117675454Y-92473454D01*
X117589204Y-92588668D01*
X117538909Y-92723515D01*
X117538909Y-92723517D01*
X117532526Y-92782892D01*
X117532500Y-92783130D01*
X117532500Y-94678869D01*
X117538909Y-94738484D01*
X117549107Y-94765826D01*
X117589204Y-94873331D01*
X117675454Y-94988546D01*
X117790669Y-95074796D01*
X117925517Y-95125091D01*
X117985127Y-95131500D01*
X119880872Y-95131499D01*
X119940483Y-95125091D01*
X120075331Y-95074796D01*
X120190546Y-94988546D01*
X120276796Y-94873331D01*
X120297318Y-94818307D01*
X120337780Y-94763446D01*
X120401126Y-94738261D01*
X120468212Y-94750365D01*
X120518762Y-94796099D01*
X120537500Y-94861642D01*
X120537500Y-97364440D01*
X120536720Y-97378324D01*
X120532761Y-97413452D01*
X120537219Y-97479558D01*
X120537500Y-97487900D01*
X120537500Y-97497781D01*
X120541153Y-97538375D01*
X120541371Y-97541147D01*
X120547904Y-97638040D01*
X120548973Y-97642283D01*
X120552229Y-97661446D01*
X120552622Y-97665811D01*
X120578465Y-97759450D01*
X120579158Y-97762073D01*
X120597335Y-97834209D01*
X120602904Y-97856310D01*
X120604712Y-97860290D01*
X120611342Y-97878576D01*
X120612506Y-97882794D01*
X120654657Y-97970325D01*
X120655835Y-97972843D01*
X120695992Y-98061251D01*
X120698483Y-98064846D01*
X120708271Y-98081655D01*
X120710170Y-98085600D01*
X120767258Y-98164174D01*
X120768868Y-98166443D01*
X120824178Y-98246278D01*
X120827268Y-98249368D01*
X120839905Y-98264163D01*
X120842478Y-98267704D01*
X120842479Y-98267705D01*
X120912699Y-98334842D01*
X120914688Y-98336788D01*
X122312218Y-99734318D01*
X122344312Y-99789905D01*
X122344312Y-99854093D01*
X122312218Y-99909680D01*
X120643344Y-101578554D01*
X120632981Y-101587816D01*
X120605335Y-101609865D01*
X120561735Y-101659766D01*
X120556050Y-101665847D01*
X120549059Y-101672838D01*
X120522928Y-101704138D01*
X120521124Y-101706250D01*
X120457235Y-101779377D01*
X120454986Y-101783141D01*
X120443739Y-101798991D01*
X120440932Y-101802353D01*
X120392978Y-101886864D01*
X120391604Y-101889223D01*
X120370206Y-101925040D01*
X120341782Y-101972615D01*
X120340246Y-101976709D01*
X120332009Y-101994318D01*
X120329847Y-101998127D01*
X120297762Y-102089818D01*
X120296814Y-102092431D01*
X120262691Y-102183352D01*
X120261910Y-102187656D01*
X120256950Y-102206451D01*
X120255501Y-102210591D01*
X120240304Y-102306540D01*
X120239838Y-102309281D01*
X120222500Y-102404824D01*
X120222500Y-102409204D01*
X120220973Y-102428603D01*
X120220290Y-102432913D01*
X120222469Y-102530014D01*
X120222500Y-102532796D01*
X120222500Y-105397995D01*
X120205434Y-105460774D01*
X120158932Y-105506272D01*
X120095796Y-105521966D01*
X120033404Y-105503534D01*
X119872334Y-105404186D01*
X119705797Y-105349000D01*
X119603009Y-105338500D01*
X118262991Y-105338500D01*
X118160203Y-105349000D01*
X117993665Y-105404186D01*
X117844342Y-105496288D01*
X117720288Y-105620342D01*
X117648168Y-105737270D01*
X117635833Y-105757269D01*
X117620578Y-105782001D01*
X117617637Y-105780187D01*
X117597574Y-105810978D01*
X117541605Y-105840047D01*
X117478576Y-105837825D01*
X117424792Y-105804887D01*
X117411461Y-105790978D01*
X117301728Y-105676484D01*
X117289955Y-105667777D01*
X117114161Y-105537760D01*
X116905847Y-105432730D01*
X116682780Y-105364417D01*
X116682779Y-105364416D01*
X116451376Y-105334784D01*
X116451372Y-105334784D01*
X116218295Y-105344685D01*
X115990232Y-105393836D01*
X115773768Y-105480819D01*
X115575107Y-105603139D01*
X115399980Y-105757270D01*
X115253423Y-105938776D01*
X115139645Y-106142448D01*
X115061925Y-106362418D01*
X115022500Y-106592351D01*
X115022500Y-107217220D01*
X115037329Y-107391451D01*
X115096114Y-107617220D01*
X115192207Y-107829801D01*
X115286627Y-107969500D01*
X115322847Y-108023088D01*
X115484272Y-108191516D01*
X115671839Y-108330240D01*
X115880153Y-108435270D01*
X116103220Y-108503583D01*
X116334624Y-108533216D01*
X116567707Y-108523314D01*
X116795765Y-108474164D01*
X117012235Y-108387179D01*
X117210891Y-108264862D01*
X117386018Y-108110731D01*
X117417911Y-108071231D01*
X117471178Y-108032902D01*
X117536547Y-108027126D01*
X117595710Y-108055521D01*
X117617344Y-108087993D01*
X117620578Y-108085999D01*
X117628185Y-108098333D01*
X117628186Y-108098334D01*
X117648818Y-108131785D01*
X117720288Y-108247657D01*
X117844342Y-108371711D01*
X117844344Y-108371712D01*
X117993666Y-108463814D01*
X118099847Y-108498999D01*
X118160202Y-108518999D01*
X118170702Y-108520071D01*
X118262991Y-108529500D01*
X119603008Y-108529499D01*
X119705797Y-108518999D01*
X119872334Y-108463814D01*
X120021656Y-108371712D01*
X120145712Y-108247656D01*
X120148334Y-108243404D01*
X120193442Y-108200223D01*
X120253874Y-108184500D01*
X120281561Y-108184500D01*
X120320720Y-108190845D01*
X120355869Y-108209231D01*
X120380669Y-108227796D01*
X120515517Y-108278091D01*
X120575127Y-108284500D01*
X121003663Y-108284499D01*
X121051116Y-108293938D01*
X121091344Y-108320818D01*
X122679186Y-109908661D01*
X122688452Y-109919029D01*
X122710493Y-109946667D01*
X122760387Y-109990259D01*
X122766483Y-109995958D01*
X122773470Y-110002945D01*
X122780758Y-110009029D01*
X122804789Y-110029092D01*
X122806904Y-110030899D01*
X122879494Y-110094320D01*
X122880004Y-110094765D01*
X122883763Y-110097011D01*
X122899624Y-110108265D01*
X122902981Y-110111068D01*
X122973369Y-110151007D01*
X122987450Y-110158997D01*
X122989854Y-110160397D01*
X123073236Y-110210215D01*
X123073239Y-110210216D01*
X123077323Y-110211749D01*
X123094953Y-110219996D01*
X123098753Y-110222152D01*
X123098755Y-110222153D01*
X123190468Y-110254245D01*
X123192998Y-110255162D01*
X123283976Y-110289307D01*
X123287972Y-110290032D01*
X123288269Y-110290086D01*
X123307088Y-110295053D01*
X123311217Y-110296498D01*
X123407251Y-110311707D01*
X123409847Y-110312149D01*
X123473369Y-110323677D01*
X123505452Y-110329500D01*
X123505453Y-110329500D01*
X123509830Y-110329500D01*
X123529226Y-110331026D01*
X123533540Y-110331710D01*
X123628299Y-110329583D01*
X123630622Y-110329531D01*
X123633404Y-110329500D01*
X127271104Y-110329500D01*
X127284988Y-110330280D01*
X127320116Y-110334238D01*
X127320116Y-110334237D01*
X127320117Y-110334238D01*
X127386224Y-110329780D01*
X127394564Y-110329500D01*
X127404440Y-110329500D01*
X127404445Y-110329500D01*
X127445090Y-110325841D01*
X127447794Y-110325628D01*
X127544702Y-110319096D01*
X127548942Y-110318027D01*
X127568127Y-110314768D01*
X127572478Y-110314377D01*
X127666146Y-110288525D01*
X127668756Y-110287836D01*
X127762973Y-110264096D01*
X127766948Y-110262290D01*
X127785251Y-110255655D01*
X127789457Y-110254494D01*
X127789457Y-110254493D01*
X127789460Y-110254493D01*
X127877029Y-110212321D01*
X127879455Y-110211187D01*
X127967916Y-110171007D01*
X127971499Y-110168524D01*
X127988329Y-110158723D01*
X127992263Y-110156829D01*
X128070898Y-110099696D01*
X128073071Y-110098155D01*
X128152944Y-110042820D01*
X128156030Y-110039732D01*
X128170833Y-110027089D01*
X128174368Y-110024522D01*
X128241529Y-109954275D01*
X128243386Y-109952376D01*
X129629944Y-108565818D01*
X129670173Y-108538938D01*
X129717626Y-108529499D01*
X129763009Y-108529499D01*
X129814402Y-108524248D01*
X129865797Y-108518999D01*
X130032334Y-108463814D01*
X130181656Y-108371712D01*
X130305712Y-108247656D01*
X130308334Y-108243404D01*
X130353442Y-108200223D01*
X130413874Y-108184500D01*
X130441561Y-108184500D01*
X130480720Y-108190845D01*
X130515869Y-108209231D01*
X130540669Y-108227796D01*
X130675517Y-108278091D01*
X130735127Y-108284500D01*
X131163663Y-108284499D01*
X131211116Y-108293938D01*
X131251344Y-108320818D01*
X132819182Y-109888656D01*
X132828448Y-109899024D01*
X132850493Y-109926667D01*
X132900395Y-109970266D01*
X132906491Y-109975965D01*
X132913470Y-109982944D01*
X132944715Y-110009029D01*
X132946824Y-110010829D01*
X132983440Y-110042820D01*
X133020005Y-110074766D01*
X133023758Y-110077008D01*
X133039630Y-110088269D01*
X133042982Y-110091068D01*
X133127457Y-110139000D01*
X133129805Y-110140368D01*
X133176933Y-110168525D01*
X133213236Y-110190215D01*
X133217316Y-110191746D01*
X133217319Y-110191747D01*
X133234957Y-110199998D01*
X133238755Y-110202153D01*
X133330479Y-110234248D01*
X133333003Y-110235164D01*
X133423976Y-110269307D01*
X133428274Y-110270086D01*
X133447091Y-110275054D01*
X133451218Y-110276498D01*
X133547229Y-110291705D01*
X133549803Y-110292141D01*
X133645453Y-110309500D01*
X133649823Y-110309500D01*
X133669221Y-110311027D01*
X133669893Y-110311133D01*
X133673540Y-110311711D01*
X133770665Y-110309531D01*
X133773448Y-110309500D01*
X137431104Y-110309500D01*
X137444988Y-110310280D01*
X137480116Y-110314238D01*
X137480116Y-110314237D01*
X137480117Y-110314238D01*
X137546224Y-110309780D01*
X137554564Y-110309500D01*
X137564440Y-110309500D01*
X137564445Y-110309500D01*
X137605090Y-110305841D01*
X137607794Y-110305628D01*
X137704702Y-110299096D01*
X137708942Y-110298027D01*
X137728127Y-110294768D01*
X137732478Y-110294377D01*
X137826146Y-110268525D01*
X137828756Y-110267836D01*
X137922973Y-110244096D01*
X137926948Y-110242290D01*
X137945251Y-110235655D01*
X137949457Y-110234494D01*
X137949457Y-110234493D01*
X137949460Y-110234493D01*
X138037029Y-110192321D01*
X138039455Y-110191187D01*
X138127916Y-110151007D01*
X138131499Y-110148524D01*
X138148329Y-110138723D01*
X138152263Y-110136829D01*
X138230898Y-110079696D01*
X138233071Y-110078155D01*
X138312944Y-110022820D01*
X138316030Y-110019732D01*
X138330833Y-110007089D01*
X138334368Y-110004522D01*
X138401529Y-109934275D01*
X138403386Y-109932376D01*
X139789945Y-108545817D01*
X139830173Y-108518938D01*
X139877626Y-108509499D01*
X139923009Y-108509499D01*
X139980932Y-108503582D01*
X140025797Y-108498999D01*
X140192334Y-108443814D01*
X140341656Y-108351712D01*
X140399430Y-108293938D01*
X140472550Y-108220819D01*
X140512778Y-108193939D01*
X140560231Y-108184500D01*
X140601561Y-108184500D01*
X140640720Y-108190845D01*
X140675869Y-108209231D01*
X140700669Y-108227796D01*
X140835517Y-108278091D01*
X140895127Y-108284500D01*
X141323663Y-108284499D01*
X141371116Y-108293938D01*
X141411344Y-108320818D01*
X142999186Y-109908661D01*
X143008452Y-109919029D01*
X143030493Y-109946667D01*
X143080387Y-109990259D01*
X143086483Y-109995958D01*
X143093470Y-110002945D01*
X143100758Y-110009029D01*
X143124789Y-110029092D01*
X143126904Y-110030899D01*
X143199494Y-110094320D01*
X143200004Y-110094765D01*
X143203763Y-110097011D01*
X143219624Y-110108265D01*
X143222981Y-110111068D01*
X143293369Y-110151007D01*
X143307450Y-110158997D01*
X143309854Y-110160397D01*
X143393236Y-110210215D01*
X143393239Y-110210216D01*
X143397323Y-110211749D01*
X143414953Y-110219996D01*
X143418753Y-110222152D01*
X143418755Y-110222153D01*
X143510468Y-110254245D01*
X143512998Y-110255162D01*
X143603976Y-110289307D01*
X143607972Y-110290032D01*
X143608269Y-110290086D01*
X143627088Y-110295053D01*
X143631217Y-110296498D01*
X143727251Y-110311707D01*
X143729847Y-110312149D01*
X143793369Y-110323677D01*
X143825452Y-110329500D01*
X143825453Y-110329500D01*
X143829830Y-110329500D01*
X143849226Y-110331026D01*
X143853540Y-110331710D01*
X143948299Y-110329583D01*
X143950622Y-110329531D01*
X143953404Y-110329500D01*
X147591104Y-110329500D01*
X147604988Y-110330280D01*
X147640116Y-110334238D01*
X147640116Y-110334237D01*
X147640117Y-110334238D01*
X147706224Y-110329780D01*
X147714564Y-110329500D01*
X147724440Y-110329500D01*
X147724445Y-110329500D01*
X147765090Y-110325841D01*
X147767794Y-110325628D01*
X147864702Y-110319096D01*
X147868942Y-110318027D01*
X147888127Y-110314768D01*
X147892478Y-110314377D01*
X147986146Y-110288525D01*
X147988756Y-110287836D01*
X148082973Y-110264096D01*
X148086948Y-110262290D01*
X148105251Y-110255655D01*
X148109457Y-110254494D01*
X148109457Y-110254493D01*
X148109460Y-110254493D01*
X148197029Y-110212321D01*
X148199455Y-110211187D01*
X148287916Y-110171007D01*
X148291499Y-110168524D01*
X148308329Y-110158723D01*
X148312263Y-110156829D01*
X148390898Y-110099696D01*
X148393071Y-110098155D01*
X148472944Y-110042820D01*
X148476030Y-110039732D01*
X148490833Y-110027089D01*
X148494368Y-110024522D01*
X148561529Y-109954275D01*
X148563386Y-109952376D01*
X149949944Y-108565818D01*
X149990173Y-108538938D01*
X150037626Y-108529499D01*
X150083009Y-108529499D01*
X150134402Y-108524248D01*
X150185797Y-108518999D01*
X150352334Y-108463814D01*
X150501656Y-108371712D01*
X150625712Y-108247656D01*
X150628334Y-108243404D01*
X150673442Y-108200223D01*
X150733874Y-108184500D01*
X150761561Y-108184500D01*
X150800720Y-108190845D01*
X150835869Y-108209231D01*
X150860669Y-108227796D01*
X150995517Y-108278091D01*
X151055127Y-108284500D01*
X151483663Y-108284499D01*
X151531116Y-108293938D01*
X151571344Y-108320818D01*
X153159186Y-109908661D01*
X153168452Y-109919029D01*
X153190493Y-109946667D01*
X153240387Y-109990259D01*
X153246483Y-109995958D01*
X153253470Y-110002945D01*
X153260758Y-110009029D01*
X153284789Y-110029092D01*
X153286904Y-110030899D01*
X153359494Y-110094320D01*
X153360004Y-110094765D01*
X153363763Y-110097011D01*
X153379624Y-110108265D01*
X153382981Y-110111068D01*
X153453369Y-110151007D01*
X153467450Y-110158997D01*
X153469854Y-110160397D01*
X153553236Y-110210215D01*
X153553239Y-110210216D01*
X153557323Y-110211749D01*
X153574953Y-110219996D01*
X153578753Y-110222152D01*
X153578755Y-110222153D01*
X153670468Y-110254245D01*
X153672998Y-110255162D01*
X153763976Y-110289307D01*
X153767972Y-110290032D01*
X153768269Y-110290086D01*
X153787088Y-110295053D01*
X153791217Y-110296498D01*
X153887251Y-110311707D01*
X153889847Y-110312149D01*
X153953369Y-110323677D01*
X153985452Y-110329500D01*
X153985453Y-110329500D01*
X153989830Y-110329500D01*
X154009226Y-110331026D01*
X154013540Y-110331710D01*
X154108299Y-110329583D01*
X154110622Y-110329531D01*
X154113404Y-110329500D01*
X157751104Y-110329500D01*
X157764988Y-110330280D01*
X157800116Y-110334238D01*
X157800116Y-110334237D01*
X157800117Y-110334238D01*
X157866224Y-110329780D01*
X157874564Y-110329500D01*
X157884440Y-110329500D01*
X157884445Y-110329500D01*
X157925090Y-110325841D01*
X157927794Y-110325628D01*
X158024702Y-110319096D01*
X158028942Y-110318027D01*
X158048127Y-110314768D01*
X158052478Y-110314377D01*
X158146146Y-110288525D01*
X158148756Y-110287836D01*
X158242973Y-110264096D01*
X158246948Y-110262290D01*
X158265251Y-110255655D01*
X158269457Y-110254494D01*
X158269457Y-110254493D01*
X158269460Y-110254493D01*
X158357029Y-110212321D01*
X158359455Y-110211187D01*
X158447916Y-110171007D01*
X158451499Y-110168524D01*
X158468329Y-110158723D01*
X158472263Y-110156829D01*
X158550898Y-110099696D01*
X158553071Y-110098155D01*
X158632944Y-110042820D01*
X158636030Y-110039732D01*
X158650833Y-110027089D01*
X158654368Y-110024522D01*
X158721529Y-109954275D01*
X158723386Y-109952376D01*
X160109944Y-108565818D01*
X160150173Y-108538938D01*
X160197626Y-108529499D01*
X160243009Y-108529499D01*
X160294402Y-108524248D01*
X160345797Y-108518999D01*
X160512334Y-108463814D01*
X160661656Y-108371712D01*
X160785712Y-108247656D01*
X160788334Y-108243404D01*
X160833442Y-108200223D01*
X160893874Y-108184500D01*
X160921561Y-108184500D01*
X160960720Y-108190845D01*
X160995869Y-108209231D01*
X161020669Y-108227796D01*
X161155517Y-108278091D01*
X161215127Y-108284500D01*
X161643663Y-108284499D01*
X161691116Y-108293938D01*
X161731344Y-108320818D01*
X163460182Y-110049656D01*
X163469448Y-110060024D01*
X163482992Y-110077008D01*
X163491493Y-110087667D01*
X163541394Y-110131265D01*
X163547494Y-110136968D01*
X163554467Y-110143942D01*
X163585740Y-110170051D01*
X163587853Y-110171856D01*
X163642955Y-110219996D01*
X163661004Y-110235765D01*
X163664760Y-110238009D01*
X163680624Y-110249266D01*
X163683978Y-110252066D01*
X163683979Y-110252067D01*
X163683981Y-110252068D01*
X163724491Y-110275054D01*
X163768450Y-110299997D01*
X163770854Y-110301397D01*
X163854236Y-110351215D01*
X163854239Y-110351216D01*
X163858323Y-110352749D01*
X163875953Y-110360996D01*
X163879753Y-110363152D01*
X163879755Y-110363153D01*
X163971468Y-110395245D01*
X163973998Y-110396162D01*
X164064976Y-110430307D01*
X164068972Y-110431032D01*
X164069269Y-110431086D01*
X164088088Y-110436053D01*
X164092217Y-110437498D01*
X164188251Y-110452707D01*
X164190847Y-110453149D01*
X164254369Y-110464677D01*
X164286452Y-110470500D01*
X164286453Y-110470500D01*
X164290830Y-110470500D01*
X164310226Y-110472026D01*
X164314540Y-110472710D01*
X164409299Y-110470583D01*
X164411622Y-110470531D01*
X164414404Y-110470500D01*
X167770104Y-110470500D01*
X167783988Y-110471280D01*
X167819116Y-110475238D01*
X167819116Y-110475237D01*
X167819117Y-110475238D01*
X167885224Y-110470780D01*
X167893564Y-110470500D01*
X167903440Y-110470500D01*
X167903445Y-110470500D01*
X167944090Y-110466841D01*
X167946794Y-110466628D01*
X168043702Y-110460096D01*
X168047942Y-110459027D01*
X168067127Y-110455768D01*
X168071478Y-110455377D01*
X168165146Y-110429525D01*
X168167756Y-110428836D01*
X168261973Y-110405096D01*
X168265948Y-110403290D01*
X168284251Y-110396655D01*
X168288457Y-110395494D01*
X168288457Y-110395493D01*
X168288460Y-110395493D01*
X168376029Y-110353321D01*
X168378455Y-110352187D01*
X168466916Y-110312007D01*
X168470499Y-110309524D01*
X168487329Y-110299723D01*
X168491263Y-110297829D01*
X168569898Y-110240696D01*
X168572071Y-110239155D01*
X168651944Y-110183820D01*
X168655030Y-110180732D01*
X168669833Y-110168089D01*
X168673368Y-110165522D01*
X168740529Y-110095275D01*
X168742386Y-110093376D01*
X170269944Y-108565818D01*
X170310173Y-108538938D01*
X170357626Y-108529499D01*
X170403009Y-108529499D01*
X170454402Y-108524248D01*
X170505797Y-108518999D01*
X170672334Y-108463814D01*
X170821656Y-108371712D01*
X170945712Y-108247656D01*
X170948334Y-108243404D01*
X170993442Y-108200223D01*
X171053874Y-108184500D01*
X171081561Y-108184500D01*
X171120720Y-108190845D01*
X171155869Y-108209231D01*
X171180669Y-108227796D01*
X171315517Y-108278091D01*
X171375127Y-108284500D01*
X171803663Y-108284499D01*
X171851116Y-108293938D01*
X171891344Y-108320818D01*
X173479186Y-109908661D01*
X173488452Y-109919029D01*
X173510493Y-109946667D01*
X173560387Y-109990259D01*
X173566483Y-109995958D01*
X173573470Y-110002945D01*
X173580758Y-110009029D01*
X173604789Y-110029092D01*
X173606904Y-110030899D01*
X173679494Y-110094320D01*
X173680004Y-110094765D01*
X173683763Y-110097011D01*
X173699624Y-110108265D01*
X173702981Y-110111068D01*
X173773369Y-110151007D01*
X173787450Y-110158997D01*
X173789854Y-110160397D01*
X173873236Y-110210215D01*
X173873239Y-110210216D01*
X173877323Y-110211749D01*
X173894953Y-110219996D01*
X173898753Y-110222152D01*
X173898755Y-110222153D01*
X173990468Y-110254245D01*
X173992998Y-110255162D01*
X174083976Y-110289307D01*
X174087972Y-110290032D01*
X174088269Y-110290086D01*
X174107088Y-110295053D01*
X174111217Y-110296498D01*
X174207251Y-110311707D01*
X174209847Y-110312149D01*
X174273369Y-110323677D01*
X174305452Y-110329500D01*
X174305453Y-110329500D01*
X174309830Y-110329500D01*
X174329226Y-110331026D01*
X174333540Y-110331710D01*
X174428299Y-110329583D01*
X174430622Y-110329531D01*
X174433404Y-110329500D01*
X178071104Y-110329500D01*
X178084988Y-110330280D01*
X178120116Y-110334238D01*
X178120116Y-110334237D01*
X178120117Y-110334238D01*
X178186224Y-110329780D01*
X178194564Y-110329500D01*
X178204440Y-110329500D01*
X178204445Y-110329500D01*
X178245090Y-110325841D01*
X178247794Y-110325628D01*
X178344702Y-110319096D01*
X178348942Y-110318027D01*
X178368127Y-110314768D01*
X178372478Y-110314377D01*
X178466146Y-110288525D01*
X178468756Y-110287836D01*
X178562973Y-110264096D01*
X178566948Y-110262290D01*
X178585251Y-110255655D01*
X178589457Y-110254494D01*
X178589457Y-110254493D01*
X178589460Y-110254493D01*
X178677029Y-110212321D01*
X178679455Y-110211187D01*
X178767916Y-110171007D01*
X178771499Y-110168524D01*
X178788329Y-110158723D01*
X178792263Y-110156829D01*
X178870898Y-110099696D01*
X178873071Y-110098155D01*
X178952944Y-110042820D01*
X178956030Y-110039732D01*
X178970833Y-110027089D01*
X178974368Y-110024522D01*
X179041529Y-109954275D01*
X179043386Y-109952376D01*
X180429944Y-108565818D01*
X180470173Y-108538938D01*
X180517626Y-108529499D01*
X180563009Y-108529499D01*
X180614402Y-108524248D01*
X180665797Y-108518999D01*
X180832334Y-108463814D01*
X180981656Y-108371712D01*
X181105712Y-108247656D01*
X181108334Y-108243404D01*
X181153442Y-108200223D01*
X181213874Y-108184500D01*
X181241561Y-108184500D01*
X181280720Y-108190845D01*
X181315869Y-108209231D01*
X181340669Y-108227796D01*
X181475517Y-108278091D01*
X181535127Y-108284500D01*
X181963663Y-108284499D01*
X182011116Y-108293938D01*
X182051344Y-108320818D01*
X183639186Y-109908661D01*
X183648452Y-109919029D01*
X183670493Y-109946667D01*
X183720387Y-109990259D01*
X183726483Y-109995958D01*
X183733470Y-110002945D01*
X183740758Y-110009029D01*
X183764789Y-110029092D01*
X183766904Y-110030899D01*
X183839494Y-110094320D01*
X183840004Y-110094765D01*
X183843763Y-110097011D01*
X183859624Y-110108265D01*
X183862981Y-110111068D01*
X183933369Y-110151007D01*
X183947450Y-110158997D01*
X183949854Y-110160397D01*
X184033236Y-110210215D01*
X184033239Y-110210216D01*
X184037323Y-110211749D01*
X184054953Y-110219996D01*
X184058753Y-110222152D01*
X184058755Y-110222153D01*
X184150468Y-110254245D01*
X184152998Y-110255162D01*
X184243976Y-110289307D01*
X184247972Y-110290032D01*
X184248269Y-110290086D01*
X184267088Y-110295053D01*
X184271217Y-110296498D01*
X184367251Y-110311707D01*
X184369847Y-110312149D01*
X184433369Y-110323677D01*
X184465452Y-110329500D01*
X184465453Y-110329500D01*
X184469830Y-110329500D01*
X184489226Y-110331026D01*
X184493540Y-110331710D01*
X184588299Y-110329583D01*
X184590622Y-110329531D01*
X184593404Y-110329500D01*
X188231104Y-110329500D01*
X188244988Y-110330280D01*
X188280116Y-110334238D01*
X188280116Y-110334237D01*
X188280117Y-110334238D01*
X188346224Y-110329780D01*
X188354564Y-110329500D01*
X188364440Y-110329500D01*
X188364445Y-110329500D01*
X188405090Y-110325841D01*
X188407794Y-110325628D01*
X188504702Y-110319096D01*
X188508942Y-110318027D01*
X188528127Y-110314768D01*
X188532478Y-110314377D01*
X188626146Y-110288525D01*
X188628756Y-110287836D01*
X188722973Y-110264096D01*
X188726948Y-110262290D01*
X188745251Y-110255655D01*
X188749457Y-110254494D01*
X188749457Y-110254493D01*
X188749460Y-110254493D01*
X188837029Y-110212321D01*
X188839455Y-110211187D01*
X188927916Y-110171007D01*
X188931499Y-110168524D01*
X188948329Y-110158723D01*
X188952263Y-110156829D01*
X189030898Y-110099696D01*
X189033071Y-110098155D01*
X189112944Y-110042820D01*
X189116030Y-110039732D01*
X189130833Y-110027089D01*
X189134368Y-110024522D01*
X189201529Y-109954275D01*
X189203386Y-109952376D01*
X190589944Y-108565818D01*
X190630173Y-108538938D01*
X190677626Y-108529499D01*
X190723009Y-108529499D01*
X190774402Y-108524248D01*
X190825797Y-108518999D01*
X190992334Y-108463814D01*
X191141656Y-108371712D01*
X191265712Y-108247656D01*
X191268334Y-108243404D01*
X191313442Y-108200223D01*
X191373874Y-108184500D01*
X191401561Y-108184500D01*
X191440720Y-108190845D01*
X191475869Y-108209231D01*
X191500669Y-108227796D01*
X191635517Y-108278091D01*
X191695127Y-108284500D01*
X193490872Y-108284499D01*
X193550483Y-108278091D01*
X193685331Y-108227796D01*
X193800546Y-108141546D01*
X193886796Y-108026331D01*
X193937091Y-107891483D01*
X193943500Y-107831873D01*
X193943499Y-106036128D01*
X193937091Y-105976517D01*
X193886796Y-105841669D01*
X193868231Y-105816869D01*
X193849845Y-105781720D01*
X193843500Y-105742561D01*
X193843500Y-98184142D01*
X193853512Y-98135330D01*
X193881929Y-98094400D01*
X193924165Y-98067961D01*
X193926651Y-98067033D01*
X193935331Y-98063796D01*
X194050546Y-97977546D01*
X194136796Y-97862331D01*
X194187091Y-97727483D01*
X194193500Y-97667873D01*
X194193499Y-95372128D01*
X194187091Y-95312517D01*
X194136796Y-95177669D01*
X194050546Y-95062454D01*
X193935331Y-94976204D01*
X193932307Y-94975076D01*
X193924165Y-94972039D01*
X193881929Y-94945600D01*
X193853512Y-94904670D01*
X193843500Y-94855858D01*
X193843500Y-94295336D01*
X193852939Y-94247883D01*
X193879819Y-94207655D01*
X194194819Y-93892655D01*
X194605819Y-93481653D01*
X194655182Y-93451404D01*
X194712898Y-93446862D01*
X194766385Y-93469017D01*
X194803985Y-93513040D01*
X194817500Y-93569335D01*
X194817500Y-118756294D01*
X194817382Y-118761703D01*
X194809022Y-118953173D01*
X194809008Y-118953491D01*
X194799537Y-119158326D01*
X194798608Y-119168784D01*
X194772310Y-119368540D01*
X194772182Y-119369486D01*
X194744843Y-119565476D01*
X194743093Y-119575184D01*
X194699170Y-119773304D01*
X194698815Y-119774855D01*
X194653850Y-119966035D01*
X194651405Y-119974932D01*
X194590219Y-120168990D01*
X194589530Y-120171109D01*
X194527293Y-120356799D01*
X194524282Y-120364846D01*
X194446296Y-120553121D01*
X194445170Y-120555754D01*
X194366210Y-120734582D01*
X194362764Y-120741753D01*
X194268585Y-120922668D01*
X194266925Y-120925750D01*
X194171885Y-121096381D01*
X194168136Y-121102667D01*
X194058502Y-121274757D01*
X194056222Y-121278208D01*
X193945891Y-121439273D01*
X193941966Y-121444684D01*
X193817707Y-121606620D01*
X193814729Y-121610350D01*
X193690062Y-121760480D01*
X193686088Y-121765036D01*
X193548179Y-121915538D01*
X193544437Y-121919446D01*
X193406446Y-122057437D01*
X193402538Y-122061179D01*
X193252036Y-122199088D01*
X193247480Y-122203062D01*
X193097350Y-122327729D01*
X193093620Y-122330707D01*
X192931684Y-122454966D01*
X192926273Y-122458891D01*
X192765208Y-122569222D01*
X192761757Y-122571502D01*
X192589667Y-122681136D01*
X192583381Y-122684885D01*
X192412750Y-122779925D01*
X192409668Y-122781585D01*
X192228753Y-122875764D01*
X192221582Y-122879210D01*
X192042754Y-122958170D01*
X192040121Y-122959296D01*
X191851846Y-123037282D01*
X191843799Y-123040293D01*
X191658109Y-123102530D01*
X191655990Y-123103219D01*
X191461932Y-123164405D01*
X191453035Y-123166850D01*
X191261855Y-123211815D01*
X191260304Y-123212170D01*
X191062184Y-123256093D01*
X191052476Y-123257843D01*
X190856486Y-123285182D01*
X190855540Y-123285310D01*
X190655784Y-123311608D01*
X190645326Y-123312537D01*
X190440535Y-123322005D01*
X190440218Y-123322019D01*
X190257657Y-123329991D01*
X190248701Y-123330382D01*
X190243294Y-123330500D01*
X118112706Y-123330500D01*
X118107298Y-123330382D01*
X118097686Y-123329962D01*
X117915780Y-123322019D01*
X117915463Y-123322005D01*
X117710672Y-123312537D01*
X117700214Y-123311608D01*
X117500458Y-123285310D01*
X117499512Y-123285182D01*
X117303522Y-123257843D01*
X117293814Y-123256093D01*
X117095694Y-123212170D01*
X117094143Y-123211815D01*
X116902963Y-123166850D01*
X116894066Y-123164405D01*
X116700008Y-123103219D01*
X116697889Y-123102530D01*
X116512199Y-123040293D01*
X116504152Y-123037282D01*
X116315877Y-122959296D01*
X116313299Y-122958193D01*
X116134395Y-122879199D01*
X116127245Y-122875764D01*
X115946330Y-122781585D01*
X115943248Y-122779925D01*
X115772617Y-122684885D01*
X115766331Y-122681136D01*
X115594241Y-122571502D01*
X115590790Y-122569222D01*
X115429725Y-122458891D01*
X115424314Y-122454966D01*
X115262378Y-122330707D01*
X115258648Y-122327729D01*
X115108518Y-122203062D01*
X115103962Y-122199088D01*
X114953460Y-122061179D01*
X114949552Y-122057437D01*
X114811561Y-121919446D01*
X114807819Y-121915538D01*
X114669910Y-121765036D01*
X114665936Y-121760480D01*
X114541269Y-121610350D01*
X114538291Y-121606620D01*
X114414032Y-121444684D01*
X114410107Y-121439273D01*
X114299776Y-121278208D01*
X114297496Y-121274757D01*
X114187862Y-121102667D01*
X114184129Y-121096408D01*
X114089068Y-120925742D01*
X114087413Y-120922668D01*
X114061223Y-120872357D01*
X113993223Y-120741731D01*
X113989811Y-120734631D01*
X113910769Y-120555618D01*
X113909732Y-120553191D01*
X113831709Y-120364828D01*
X113828711Y-120356817D01*
X113766446Y-120171043D01*
X113765779Y-120168990D01*
X113727258Y-120046818D01*
X113704591Y-119974927D01*
X113702151Y-119966048D01*
X113657166Y-119774781D01*
X113656828Y-119773304D01*
X113651576Y-119749613D01*
X113612900Y-119575156D01*
X113611160Y-119565505D01*
X113583796Y-119369340D01*
X113583712Y-119368723D01*
X113557388Y-119168772D01*
X113556462Y-119158340D01*
X113546990Y-118953472D01*
X113541458Y-118826764D01*
X116255787Y-118826764D01*
X116285413Y-119096016D01*
X116319998Y-119228304D01*
X116353928Y-119358088D01*
X116442071Y-119565505D01*
X116459871Y-119607392D01*
X116600982Y-119838611D01*
X116774253Y-120046818D01*
X116774255Y-120046820D01*
X116975998Y-120227582D01*
X117201910Y-120377044D01*
X117308211Y-120426875D01*
X117447177Y-120492021D01*
X117706562Y-120570058D01*
X117706569Y-120570060D01*
X117974561Y-120609500D01*
X118177631Y-120609500D01*
X118177634Y-120609500D01*
X118380156Y-120594677D01*
X118380155Y-120594677D01*
X118644553Y-120535780D01*
X118897558Y-120439014D01*
X119133777Y-120306441D01*
X119348177Y-120140888D01*
X119536186Y-119945881D01*
X119693799Y-119725579D01*
X119817656Y-119484675D01*
X119905118Y-119228305D01*
X119954319Y-118961933D01*
X119959259Y-118826764D01*
X188391787Y-118826764D01*
X188421413Y-119096016D01*
X188455998Y-119228304D01*
X188489928Y-119358088D01*
X188578071Y-119565505D01*
X188595871Y-119607392D01*
X188736982Y-119838611D01*
X188910253Y-120046818D01*
X188910255Y-120046820D01*
X189111998Y-120227582D01*
X189337910Y-120377044D01*
X189444211Y-120426875D01*
X189583177Y-120492021D01*
X189842562Y-120570058D01*
X189842569Y-120570060D01*
X190110561Y-120609500D01*
X190313631Y-120609500D01*
X190313634Y-120609500D01*
X190516156Y-120594677D01*
X190516155Y-120594677D01*
X190780553Y-120535780D01*
X191033558Y-120439014D01*
X191269777Y-120306441D01*
X191484177Y-120140888D01*
X191672186Y-119945881D01*
X191829799Y-119725579D01*
X191953656Y-119484675D01*
X192041118Y-119228305D01*
X192090319Y-118961933D01*
X192100212Y-118691235D01*
X192070586Y-118421982D01*
X192002072Y-118159912D01*
X191896130Y-117910610D01*
X191755018Y-117679390D01*
X191755017Y-117679388D01*
X191581746Y-117471181D01*
X191476758Y-117377112D01*
X191380002Y-117290418D01*
X191154090Y-117140956D01*
X191154086Y-117140954D01*
X190908822Y-117025978D01*
X190649437Y-116947941D01*
X190649431Y-116947940D01*
X190381439Y-116908500D01*
X190178369Y-116908500D01*
X190178366Y-116908500D01*
X189975843Y-116923322D01*
X189711449Y-116982219D01*
X189458441Y-117078986D01*
X189222223Y-117211559D01*
X189007825Y-117377109D01*
X188819813Y-117572120D01*
X188662201Y-117792420D01*
X188538342Y-118033329D01*
X188450881Y-118289695D01*
X188401680Y-118556066D01*
X188391787Y-118826764D01*
X119959259Y-118826764D01*
X119964212Y-118691235D01*
X119934586Y-118421982D01*
X119866072Y-118159912D01*
X119760130Y-117910610D01*
X119619018Y-117679390D01*
X119619017Y-117679388D01*
X119445746Y-117471181D01*
X119340758Y-117377112D01*
X119244002Y-117290418D01*
X119018090Y-117140956D01*
X119018086Y-117140954D01*
X118772822Y-117025978D01*
X118513437Y-116947941D01*
X118513431Y-116947940D01*
X118245439Y-116908500D01*
X118042369Y-116908500D01*
X118042366Y-116908500D01*
X117839843Y-116923322D01*
X117575449Y-116982219D01*
X117322441Y-117078986D01*
X117086223Y-117211559D01*
X116871825Y-117377109D01*
X116683813Y-117572120D01*
X116526201Y-117792420D01*
X116402342Y-118033329D01*
X116314881Y-118289695D01*
X116265680Y-118556066D01*
X116255787Y-118826764D01*
X113541458Y-118826764D01*
X113538617Y-118761702D01*
X113538500Y-118756295D01*
X113538500Y-99822000D01*
X114787551Y-99822000D01*
X114794452Y-99909680D01*
X114807317Y-100073149D01*
X114866126Y-100318110D01*
X114914330Y-100434485D01*
X114962534Y-100550859D01*
X115094164Y-100765659D01*
X115257776Y-100957224D01*
X115449341Y-101120836D01*
X115664141Y-101252466D01*
X115896889Y-101348873D01*
X116141852Y-101407683D01*
X116393000Y-101427449D01*
X116644148Y-101407683D01*
X116889111Y-101348873D01*
X117121859Y-101252466D01*
X117336659Y-101120836D01*
X117528224Y-100957224D01*
X117691836Y-100765659D01*
X117823466Y-100550859D01*
X117919873Y-100318111D01*
X117978683Y-100073148D01*
X117998449Y-99822000D01*
X117978683Y-99570852D01*
X117919873Y-99325889D01*
X117823466Y-99093141D01*
X117691836Y-98878341D01*
X117528224Y-98686776D01*
X117336659Y-98523164D01*
X117121859Y-98391534D01*
X116947188Y-98319183D01*
X116889110Y-98295126D01*
X116644149Y-98236317D01*
X116393000Y-98216551D01*
X116141850Y-98236317D01*
X115896889Y-98295126D01*
X115664139Y-98391535D01*
X115449342Y-98523163D01*
X115257776Y-98686776D01*
X115094163Y-98878342D01*
X114962535Y-99093139D01*
X114866126Y-99325889D01*
X114807317Y-99570850D01*
X114793166Y-99750655D01*
X114787551Y-99822000D01*
X113538500Y-99822000D01*
X113538500Y-87826000D01*
X116382001Y-87826000D01*
X116382001Y-87995979D01*
X116392493Y-88098695D01*
X116447642Y-88265122D01*
X116539683Y-88414345D01*
X116663654Y-88538316D01*
X116812877Y-88630357D01*
X116979303Y-88685506D01*
X117082021Y-88696000D01*
X117477000Y-88696000D01*
X117477000Y-87826000D01*
X118477000Y-87826000D01*
X118477000Y-88695999D01*
X118871979Y-88695999D01*
X118974695Y-88685506D01*
X119141122Y-88630357D01*
X119290345Y-88538316D01*
X119414316Y-88414345D01*
X119506357Y-88265122D01*
X119561506Y-88098696D01*
X119572000Y-87995979D01*
X119572000Y-87826000D01*
X118477000Y-87826000D01*
X117477000Y-87826000D01*
X116382001Y-87826000D01*
X113538500Y-87826000D01*
X113538500Y-61357705D01*
X113538618Y-61352297D01*
X113546992Y-61160491D01*
X113556462Y-60955655D01*
X113557388Y-60945231D01*
X113583724Y-60745186D01*
X113583787Y-60744724D01*
X113611161Y-60548485D01*
X113612898Y-60538851D01*
X113656858Y-60340561D01*
X113657149Y-60339290D01*
X113702155Y-60147937D01*
X113704587Y-60139086D01*
X113765813Y-59944901D01*
X113766424Y-59943021D01*
X113828718Y-59757163D01*
X113831701Y-59749189D01*
X113909759Y-59560742D01*
X113910742Y-59558443D01*
X113989822Y-59379343D01*
X113993211Y-59372292D01*
X114087449Y-59191262D01*
X114089036Y-59188316D01*
X114184146Y-59017561D01*
X114187842Y-59011364D01*
X114297506Y-58839225D01*
X114299756Y-58835818D01*
X114410137Y-58674682D01*
X114414005Y-58669350D01*
X114538307Y-58507357D01*
X114541228Y-58503699D01*
X114665964Y-58353485D01*
X114669881Y-58348994D01*
X114807862Y-58198414D01*
X114811515Y-58194599D01*
X114949599Y-58056515D01*
X114953414Y-58052862D01*
X115103994Y-57914881D01*
X115108485Y-57910964D01*
X115258699Y-57786228D01*
X115262357Y-57783307D01*
X115424350Y-57659005D01*
X115429682Y-57655137D01*
X115590818Y-57544756D01*
X115594225Y-57542506D01*
X115766364Y-57432842D01*
X115772561Y-57429146D01*
X115943316Y-57334036D01*
X115946262Y-57332449D01*
X116127292Y-57238211D01*
X116134343Y-57234822D01*
X116313443Y-57155742D01*
X116315742Y-57154759D01*
X116504189Y-57076701D01*
X116512163Y-57073718D01*
X116698021Y-57011424D01*
X116699901Y-57010813D01*
X116894086Y-56949587D01*
X116902937Y-56947155D01*
X117094290Y-56902149D01*
X117095561Y-56901858D01*
X117293851Y-56857898D01*
X117303485Y-56856161D01*
X117499724Y-56828787D01*
X117500186Y-56828724D01*
X117700231Y-56802388D01*
X117710655Y-56801462D01*
X117915398Y-56791996D01*
X118107297Y-56783617D01*
X118112705Y-56783500D01*
X190243295Y-56783500D01*
X190248702Y-56783617D01*
G37*
G04 #@! TD.AperFunction*
G04 #@! TA.AperFunction,Conductor*
G36*
X128072086Y-63859842D02*
G01*
X128117826Y-63910641D01*
X128129697Y-63977960D01*
X128126540Y-64007998D01*
X128146326Y-64196257D01*
X128204820Y-64376284D01*
X128299466Y-64540216D01*
X128426129Y-64680889D01*
X128579269Y-64792151D01*
X128752197Y-64869144D01*
X128937352Y-64908500D01*
X128937354Y-64908500D01*
X129126646Y-64908500D01*
X129267352Y-64878592D01*
X129327309Y-64880685D01*
X129379267Y-64910683D01*
X129411061Y-64961562D01*
X129429601Y-65018619D01*
X129524245Y-65182549D01*
X129650909Y-65323224D01*
X129804049Y-65434486D01*
X129976977Y-65511479D01*
X130162132Y-65550835D01*
X130162134Y-65550835D01*
X130351426Y-65550835D01*
X130351428Y-65550835D01*
X130474863Y-65524597D01*
X130536583Y-65511479D01*
X130709510Y-65434486D01*
X130862651Y-65323223D01*
X130989313Y-65182551D01*
X131006663Y-65152499D01*
X131052050Y-65107113D01*
X131114050Y-65090500D01*
X132682164Y-65090500D01*
X132747442Y-65109073D01*
X132793164Y-65159228D01*
X132805635Y-65225941D01*
X132781118Y-65289227D01*
X132654941Y-65456311D01*
X132555769Y-65655473D01*
X132494885Y-65869462D01*
X132474357Y-66090999D01*
X132474357Y-66091000D01*
X132478902Y-66140045D01*
X132494885Y-66312537D01*
X132555769Y-66526526D01*
X132654941Y-66725688D01*
X132789019Y-66903237D01*
X132953437Y-67053124D01*
X133142595Y-67170245D01*
X133142597Y-67170245D01*
X133142599Y-67170247D01*
X133350060Y-67250618D01*
X133568757Y-67291500D01*
X133791241Y-67291500D01*
X133791243Y-67291500D01*
X134009940Y-67250618D01*
X134217401Y-67170247D01*
X134406562Y-67053124D01*
X134452952Y-67010834D01*
X134570980Y-66903237D01*
X134570981Y-66903236D01*
X134705058Y-66725689D01*
X134708023Y-66719733D01*
X134712000Y-66711749D01*
X134757722Y-66661593D01*
X134823000Y-66643020D01*
X134888278Y-66661593D01*
X134934000Y-66711749D01*
X134940940Y-66725686D01*
X135075019Y-66903237D01*
X135239437Y-67053124D01*
X135428595Y-67170245D01*
X135428597Y-67170245D01*
X135428599Y-67170247D01*
X135636060Y-67250618D01*
X135854757Y-67291500D01*
X136077243Y-67291500D01*
X136077246Y-67291500D01*
X136155639Y-67276845D01*
X136215104Y-67280282D01*
X136266106Y-67311052D01*
X141809583Y-72854529D01*
X141837529Y-72897417D01*
X141845770Y-72947938D01*
X141832901Y-72997483D01*
X141789352Y-73084938D01*
X141743629Y-73135093D01*
X141678351Y-73153665D01*
X141613073Y-73135091D01*
X141567352Y-73084935D01*
X141563058Y-73076311D01*
X141559789Y-73071982D01*
X141428980Y-72898762D01*
X141264562Y-72748875D01*
X141075404Y-72631754D01*
X140999715Y-72602432D01*
X140867940Y-72551382D01*
X140649243Y-72510500D01*
X140426757Y-72510500D01*
X140208060Y-72551381D01*
X140208060Y-72551382D01*
X140000595Y-72631754D01*
X139811437Y-72748875D01*
X139647019Y-72898762D01*
X139512942Y-73076310D01*
X139506000Y-73090252D01*
X139460277Y-73140406D01*
X139395000Y-73158979D01*
X139329723Y-73140406D01*
X139284000Y-73090252D01*
X139278656Y-73079521D01*
X139277058Y-73076311D01*
X139207494Y-72984193D01*
X139142980Y-72898762D01*
X138978562Y-72748875D01*
X138789404Y-72631754D01*
X138713715Y-72602432D01*
X138581940Y-72551382D01*
X138363243Y-72510500D01*
X138140757Y-72510500D01*
X137922060Y-72551381D01*
X137922060Y-72551382D01*
X137714595Y-72631754D01*
X137525437Y-72748875D01*
X137361019Y-72898762D01*
X137226942Y-73076310D01*
X137220000Y-73090252D01*
X137174277Y-73140406D01*
X137109000Y-73158979D01*
X137043723Y-73140406D01*
X136998000Y-73090252D01*
X136992656Y-73079521D01*
X136991058Y-73076311D01*
X136921494Y-72984193D01*
X136856980Y-72898762D01*
X136692562Y-72748875D01*
X136503404Y-72631754D01*
X136427715Y-72602432D01*
X136295940Y-72551382D01*
X136077243Y-72510500D01*
X135854757Y-72510500D01*
X135636060Y-72551381D01*
X135636060Y-72551382D01*
X135428595Y-72631754D01*
X135239437Y-72748875D01*
X135075019Y-72898762D01*
X134940942Y-73076310D01*
X134934000Y-73090252D01*
X134888277Y-73140406D01*
X134823000Y-73158979D01*
X134757723Y-73140406D01*
X134712000Y-73090252D01*
X134706656Y-73079521D01*
X134705058Y-73076311D01*
X134635494Y-72984193D01*
X134570980Y-72898762D01*
X134406562Y-72748875D01*
X134217404Y-72631754D01*
X134141715Y-72602432D01*
X134009940Y-72551382D01*
X133791243Y-72510500D01*
X133568757Y-72510500D01*
X133350060Y-72551381D01*
X133350060Y-72551382D01*
X133142595Y-72631754D01*
X132953437Y-72748875D01*
X132789019Y-72898762D01*
X132654941Y-73076311D01*
X132555769Y-73275473D01*
X132494885Y-73489462D01*
X132474357Y-73711000D01*
X132494885Y-73932537D01*
X132555769Y-74146526D01*
X132654941Y-74345688D01*
X132789019Y-74523237D01*
X132891453Y-74616617D01*
X132953438Y-74673124D01*
X132959782Y-74677052D01*
X132970777Y-74683860D01*
X133013829Y-74728948D01*
X133029500Y-74789287D01*
X133029500Y-76565192D01*
X133020061Y-76612645D01*
X132993181Y-76652873D01*
X129601371Y-80044681D01*
X129561143Y-80071561D01*
X129513690Y-80081000D01*
X127984130Y-80081000D01*
X127924515Y-80087409D01*
X127789669Y-80137704D01*
X127674454Y-80223954D01*
X127588204Y-80339168D01*
X127537909Y-80474016D01*
X127531500Y-80533630D01*
X127531500Y-82534369D01*
X127531652Y-82535780D01*
X127537909Y-82593983D01*
X127588204Y-82728831D01*
X127674454Y-82844046D01*
X127789669Y-82930296D01*
X127820314Y-82941726D01*
X127868130Y-82973838D01*
X127896279Y-83024091D01*
X127898687Y-83081640D01*
X127874833Y-83134069D01*
X127763929Y-83276559D01*
X127649319Y-83488340D01*
X127571134Y-83716084D01*
X127531500Y-83953601D01*
X127531500Y-84194399D01*
X127571134Y-84431915D01*
X127632715Y-84611293D01*
X127649321Y-84659664D01*
X127763928Y-84871439D01*
X127911829Y-85061463D01*
X128088990Y-85224551D01*
X128113387Y-85240490D01*
X128154619Y-85285280D01*
X128169564Y-85344297D01*
X128154619Y-85403314D01*
X128113387Y-85448106D01*
X128089294Y-85463846D01*
X127912201Y-85626873D01*
X127764348Y-85816835D01*
X127649781Y-86028537D01*
X127620440Y-86113999D01*
X127620441Y-86114000D01*
X130443559Y-86114000D01*
X130443559Y-86113999D01*
X130414218Y-86028537D01*
X130299651Y-85816835D01*
X130151798Y-85626873D01*
X129974704Y-85463846D01*
X129950614Y-85448107D01*
X129909380Y-85403315D01*
X129894435Y-85344297D01*
X129909381Y-85285279D01*
X129950612Y-85240490D01*
X129975010Y-85224551D01*
X130152171Y-85061463D01*
X130300072Y-84871439D01*
X130414679Y-84659664D01*
X130492866Y-84431913D01*
X130532500Y-84194399D01*
X130532500Y-83953601D01*
X130492866Y-83716087D01*
X130414679Y-83488336D01*
X130300072Y-83276561D01*
X130189165Y-83134067D01*
X130165312Y-83081641D01*
X130167720Y-83024091D01*
X130195870Y-82973838D01*
X130243685Y-82941726D01*
X130274331Y-82930296D01*
X130389546Y-82844046D01*
X130475796Y-82728831D01*
X130526091Y-82593983D01*
X130532500Y-82534373D01*
X130532499Y-81004806D01*
X130541938Y-80957354D01*
X130568815Y-80917129D01*
X134079513Y-77406431D01*
X134096162Y-77393094D01*
X134097936Y-77391204D01*
X134097940Y-77391202D01*
X134145898Y-77340130D01*
X134148546Y-77337398D01*
X134168912Y-77317034D01*
X134171612Y-77313551D01*
X134179188Y-77304680D01*
X134210448Y-77271393D01*
X134220672Y-77252793D01*
X134231351Y-77236536D01*
X134244363Y-77219763D01*
X134262498Y-77177852D01*
X134267633Y-77167374D01*
X134289626Y-77127370D01*
X134294903Y-77106815D01*
X134301208Y-77088399D01*
X134309636Y-77068926D01*
X134316778Y-77023824D01*
X134319143Y-77012405D01*
X134330500Y-76968177D01*
X134330500Y-76946955D01*
X134332027Y-76927556D01*
X134335347Y-76906595D01*
X134331049Y-76861136D01*
X134330500Y-76849469D01*
X134330500Y-74789287D01*
X134346171Y-74728948D01*
X134389223Y-74683860D01*
X134393033Y-74681500D01*
X134406562Y-74673124D01*
X134570981Y-74523236D01*
X134705058Y-74345689D01*
X134708023Y-74339733D01*
X134712000Y-74331749D01*
X134757722Y-74281593D01*
X134823000Y-74263020D01*
X134888278Y-74281593D01*
X134934000Y-74331749D01*
X134940940Y-74345686D01*
X135075019Y-74523237D01*
X135177453Y-74616617D01*
X135239438Y-74673124D01*
X135245782Y-74677052D01*
X135256777Y-74683860D01*
X135299829Y-74728948D01*
X135315500Y-74789287D01*
X135315500Y-79957001D01*
X135298887Y-80019001D01*
X135253500Y-80064388D01*
X135191500Y-80081001D01*
X134842128Y-80081001D01*
X134812322Y-80084205D01*
X134782515Y-80087409D01*
X134647669Y-80137704D01*
X134532454Y-80223954D01*
X134446204Y-80339168D01*
X134395909Y-80474016D01*
X134389500Y-80533630D01*
X134389500Y-82534369D01*
X134389652Y-82535780D01*
X134395909Y-82593983D01*
X134446204Y-82728831D01*
X134532454Y-82844046D01*
X134647669Y-82930296D01*
X134678314Y-82941726D01*
X134726130Y-82973838D01*
X134754279Y-83024091D01*
X134756687Y-83081640D01*
X134732833Y-83134069D01*
X134621929Y-83276559D01*
X134507319Y-83488340D01*
X134429134Y-83716084D01*
X134389500Y-83953601D01*
X134389500Y-84194399D01*
X134429134Y-84431915D01*
X134490715Y-84611293D01*
X134507321Y-84659664D01*
X134621928Y-84871439D01*
X134769829Y-85061463D01*
X134946990Y-85224551D01*
X134971387Y-85240490D01*
X135012619Y-85285280D01*
X135027564Y-85344297D01*
X135012619Y-85403314D01*
X134971387Y-85448106D01*
X134947294Y-85463846D01*
X134770201Y-85626873D01*
X134622348Y-85816835D01*
X134507781Y-86028537D01*
X134478440Y-86113999D01*
X134478441Y-86114000D01*
X137301559Y-86114000D01*
X137301559Y-86113999D01*
X137272218Y-86028537D01*
X137157651Y-85816835D01*
X137009798Y-85626873D01*
X136832704Y-85463846D01*
X136808614Y-85448107D01*
X136767380Y-85403315D01*
X136752435Y-85344297D01*
X136767381Y-85285279D01*
X136808612Y-85240490D01*
X136833010Y-85224551D01*
X137010171Y-85061463D01*
X137158072Y-84871439D01*
X137272679Y-84659664D01*
X137350866Y-84431913D01*
X137390500Y-84194399D01*
X137390500Y-83953601D01*
X137350866Y-83716087D01*
X137272679Y-83488336D01*
X137158072Y-83276561D01*
X137047165Y-83134067D01*
X137023312Y-83081641D01*
X137025720Y-83024091D01*
X137053870Y-82973838D01*
X137101685Y-82941726D01*
X137132331Y-82930296D01*
X137247546Y-82844046D01*
X137333796Y-82728831D01*
X137384091Y-82593983D01*
X137390500Y-82534373D01*
X137390499Y-80533628D01*
X137384091Y-80474017D01*
X137333796Y-80339169D01*
X137247546Y-80223954D01*
X137132331Y-80137704D01*
X136997483Y-80087409D01*
X136937873Y-80081000D01*
X136937869Y-80081000D01*
X136740500Y-80081000D01*
X136678500Y-80064387D01*
X136633113Y-80019000D01*
X136616500Y-79957000D01*
X136616500Y-74789287D01*
X136632171Y-74728948D01*
X136675223Y-74683860D01*
X136679033Y-74681500D01*
X136692562Y-74673124D01*
X136856981Y-74523236D01*
X136991058Y-74345689D01*
X136994023Y-74339733D01*
X136998000Y-74331749D01*
X137043722Y-74281593D01*
X137109000Y-74263020D01*
X137174278Y-74281593D01*
X137220000Y-74331749D01*
X137226940Y-74345686D01*
X137361019Y-74523237D01*
X137525437Y-74673124D01*
X137714595Y-74790245D01*
X137714597Y-74790245D01*
X137714599Y-74790247D01*
X137922060Y-74870618D01*
X138140757Y-74911500D01*
X138363243Y-74911500D01*
X138363246Y-74911500D01*
X138441639Y-74896845D01*
X138501104Y-74900282D01*
X138552106Y-74931052D01*
X142061181Y-78440127D01*
X142088061Y-78480355D01*
X142097500Y-78527808D01*
X142097500Y-79957001D01*
X142080887Y-80019001D01*
X142035500Y-80064388D01*
X141973500Y-80081001D01*
X141700128Y-80081001D01*
X141670322Y-80084205D01*
X141640515Y-80087409D01*
X141505669Y-80137704D01*
X141390454Y-80223954D01*
X141304204Y-80339168D01*
X141253909Y-80474016D01*
X141247500Y-80533630D01*
X141247500Y-82534369D01*
X141247652Y-82535780D01*
X141253909Y-82593983D01*
X141304204Y-82728831D01*
X141390454Y-82844046D01*
X141505669Y-82930296D01*
X141536314Y-82941726D01*
X141584130Y-82973838D01*
X141612279Y-83024091D01*
X141614687Y-83081640D01*
X141590833Y-83134069D01*
X141479929Y-83276559D01*
X141365319Y-83488340D01*
X141287134Y-83716084D01*
X141247500Y-83953601D01*
X141247500Y-84194399D01*
X141287134Y-84431915D01*
X141348715Y-84611293D01*
X141365321Y-84659664D01*
X141479928Y-84871439D01*
X141627829Y-85061463D01*
X141804990Y-85224551D01*
X141829387Y-85240490D01*
X141870619Y-85285280D01*
X141885564Y-85344297D01*
X141870619Y-85403314D01*
X141829387Y-85448106D01*
X141805294Y-85463846D01*
X141628201Y-85626873D01*
X141480348Y-85816835D01*
X141365781Y-86028537D01*
X141336440Y-86113999D01*
X141336441Y-86114000D01*
X144159559Y-86114000D01*
X144159559Y-86113999D01*
X144130218Y-86028537D01*
X144015651Y-85816835D01*
X143867798Y-85626873D01*
X143690704Y-85463846D01*
X143666614Y-85448107D01*
X143625380Y-85403315D01*
X143610435Y-85344297D01*
X143625381Y-85285279D01*
X143666612Y-85240490D01*
X143691010Y-85224551D01*
X143868171Y-85061463D01*
X144016072Y-84871439D01*
X144130679Y-84659664D01*
X144208866Y-84431913D01*
X144248500Y-84194399D01*
X144248500Y-83953601D01*
X144208866Y-83716087D01*
X144130679Y-83488336D01*
X144016072Y-83276561D01*
X143905165Y-83134067D01*
X143881312Y-83081641D01*
X143883720Y-83024091D01*
X143911870Y-82973838D01*
X143959685Y-82941726D01*
X143990331Y-82930296D01*
X144105546Y-82844046D01*
X144191796Y-82728831D01*
X144242091Y-82593983D01*
X144248500Y-82534373D01*
X144248499Y-80533628D01*
X144242091Y-80474017D01*
X144191796Y-80339169D01*
X144105546Y-80223954D01*
X143990331Y-80137704D01*
X143855483Y-80087409D01*
X143795873Y-80081000D01*
X143795869Y-80081000D01*
X143522500Y-80081000D01*
X143460500Y-80064387D01*
X143415113Y-80019000D01*
X143398500Y-79957000D01*
X143398500Y-78292504D01*
X143400841Y-78271294D01*
X143400318Y-78254657D01*
X143398560Y-78198736D01*
X143398500Y-78194842D01*
X143398500Y-78166081D01*
X143398500Y-78166075D01*
X143397946Y-78161695D01*
X143397030Y-78150054D01*
X143396820Y-78143368D01*
X143395597Y-78104431D01*
X143389675Y-78084048D01*
X143385732Y-78065011D01*
X143383071Y-78043942D01*
X143366264Y-78001492D01*
X143362483Y-77990448D01*
X143349745Y-77946604D01*
X143349744Y-77946603D01*
X143349744Y-77946601D01*
X143338934Y-77928322D01*
X143330380Y-77910862D01*
X143322568Y-77891129D01*
X143295723Y-77854180D01*
X143289332Y-77844451D01*
X143266081Y-77805135D01*
X143251068Y-77790122D01*
X143238435Y-77775330D01*
X143225963Y-77758163D01*
X143190779Y-77729056D01*
X143182140Y-77721194D01*
X140582382Y-75121436D01*
X140549693Y-75063537D01*
X140551612Y-74997075D01*
X140587589Y-74941159D01*
X140647278Y-74911866D01*
X140649236Y-74911500D01*
X140649243Y-74911500D01*
X140727642Y-74896844D01*
X140787105Y-74900282D01*
X140838106Y-74931052D01*
X147840564Y-81933510D01*
X147853912Y-81950169D01*
X147906831Y-81999864D01*
X147909628Y-82002575D01*
X147929962Y-82022909D01*
X147933443Y-82025609D01*
X147942326Y-82033195D01*
X147975607Y-82064448D01*
X147994198Y-82074668D01*
X148010462Y-82085351D01*
X148027237Y-82098363D01*
X148030744Y-82099881D01*
X148070093Y-82126924D01*
X148096308Y-82166830D01*
X148105500Y-82213683D01*
X148105500Y-82534369D01*
X148105652Y-82535780D01*
X148111909Y-82593983D01*
X148162204Y-82728831D01*
X148248454Y-82844046D01*
X148363669Y-82930296D01*
X148394314Y-82941726D01*
X148442130Y-82973838D01*
X148470279Y-83024091D01*
X148472687Y-83081640D01*
X148448833Y-83134069D01*
X148337929Y-83276559D01*
X148223319Y-83488340D01*
X148145134Y-83716084D01*
X148105500Y-83953601D01*
X148105500Y-84194399D01*
X148145134Y-84431915D01*
X148206715Y-84611293D01*
X148223321Y-84659664D01*
X148337928Y-84871439D01*
X148485829Y-85061463D01*
X148662990Y-85224551D01*
X148687387Y-85240490D01*
X148728619Y-85285280D01*
X148743564Y-85344297D01*
X148728619Y-85403314D01*
X148687387Y-85448106D01*
X148663294Y-85463846D01*
X148486201Y-85626873D01*
X148338348Y-85816835D01*
X148223781Y-86028537D01*
X148194440Y-86113999D01*
X148194441Y-86114000D01*
X151017559Y-86114000D01*
X151017559Y-86113999D01*
X150988218Y-86028537D01*
X150873651Y-85816835D01*
X150725798Y-85626873D01*
X150548704Y-85463846D01*
X150524614Y-85448107D01*
X150483380Y-85403315D01*
X150468435Y-85344297D01*
X150483381Y-85285279D01*
X150524612Y-85240490D01*
X150549010Y-85224551D01*
X150726171Y-85061463D01*
X150874072Y-84871439D01*
X150988679Y-84659664D01*
X151066866Y-84431913D01*
X151106500Y-84194399D01*
X151106500Y-83953601D01*
X151066866Y-83716087D01*
X150988679Y-83488336D01*
X150874072Y-83276561D01*
X150763165Y-83134067D01*
X150739312Y-83081641D01*
X150741720Y-83024091D01*
X150769870Y-82973838D01*
X150817685Y-82941726D01*
X150848331Y-82930296D01*
X150963546Y-82844046D01*
X151049796Y-82728831D01*
X151100091Y-82593983D01*
X151106500Y-82534373D01*
X151106499Y-80533628D01*
X151100091Y-80474017D01*
X151049796Y-80339169D01*
X150963546Y-80223954D01*
X150848331Y-80137704D01*
X150713483Y-80087409D01*
X150653873Y-80081000D01*
X150653869Y-80081000D01*
X148558130Y-80081000D01*
X148498515Y-80087409D01*
X148363669Y-80137704D01*
X148248451Y-80223955D01*
X148215387Y-80268124D01*
X148159454Y-80309995D01*
X148089763Y-80314979D01*
X148028440Y-80281494D01*
X142769127Y-75022181D01*
X142738877Y-74972818D01*
X142734335Y-74915102D01*
X142756490Y-74861615D01*
X142800513Y-74824015D01*
X142856808Y-74810500D01*
X142980241Y-74810500D01*
X142980243Y-74810500D01*
X143198940Y-74769618D01*
X143406401Y-74689247D01*
X143595562Y-74572124D01*
X143649188Y-74523237D01*
X143759979Y-74422238D01*
X143762331Y-74419124D01*
X143883312Y-74258918D01*
X143939255Y-74217345D01*
X144008791Y-74212518D01*
X144069945Y-74245966D01*
X144341181Y-74517202D01*
X144368061Y-74557430D01*
X144377500Y-74604883D01*
X144377500Y-75380869D01*
X144383909Y-75440483D01*
X144434204Y-75575331D01*
X144520454Y-75690546D01*
X144635669Y-75776796D01*
X144770517Y-75827091D01*
X144830127Y-75833500D01*
X146525872Y-75833499D01*
X146585483Y-75827091D01*
X146720331Y-75776796D01*
X146835546Y-75690546D01*
X146921796Y-75575331D01*
X146972091Y-75440483D01*
X146975862Y-75405405D01*
X146996239Y-75349486D01*
X147040328Y-75309501D01*
X147097969Y-75294667D01*
X147155882Y-75308400D01*
X147200725Y-75347537D01*
X147217951Y-75372138D01*
X147378859Y-75533046D01*
X147565264Y-75663567D01*
X147565265Y-75663567D01*
X147565266Y-75663568D01*
X147771504Y-75759739D01*
X147991308Y-75818635D01*
X148218000Y-75838468D01*
X148444692Y-75818635D01*
X148664496Y-75759739D01*
X148870734Y-75663568D01*
X149057139Y-75533047D01*
X149218047Y-75372139D01*
X149348568Y-75185734D01*
X149375618Y-75127724D01*
X149421375Y-75075549D01*
X149488000Y-75056129D01*
X149554625Y-75075549D01*
X149600382Y-75127725D01*
X149627431Y-75185733D01*
X149757953Y-75372140D01*
X149918859Y-75533046D01*
X150105264Y-75663567D01*
X150105265Y-75663567D01*
X150105266Y-75663568D01*
X150311504Y-75759739D01*
X150531308Y-75818635D01*
X150758000Y-75838468D01*
X150984692Y-75818635D01*
X151186406Y-75764585D01*
X151242691Y-75762744D01*
X151293986Y-75785985D01*
X151329712Y-75829517D01*
X151342500Y-75884361D01*
X151342500Y-76019317D01*
X151328489Y-76076574D01*
X151289623Y-76120892D01*
X151153859Y-76215953D01*
X150992953Y-76376859D01*
X150862432Y-76563264D01*
X150766261Y-76769502D01*
X150707364Y-76989310D01*
X150687531Y-77216000D01*
X150707364Y-77442689D01*
X150766261Y-77662497D01*
X150862432Y-77868735D01*
X150992953Y-78055140D01*
X151153859Y-78216046D01*
X151340264Y-78346567D01*
X151340265Y-78346567D01*
X151340266Y-78346568D01*
X151546504Y-78442739D01*
X151766308Y-78501635D01*
X151993000Y-78521468D01*
X152219692Y-78501635D01*
X152439496Y-78442739D01*
X152490181Y-78419104D01*
X156497000Y-78419104D01*
X156546673Y-78442266D01*
X156766397Y-78501141D01*
X156993000Y-78520966D01*
X157219602Y-78501141D01*
X157439326Y-78442266D01*
X157488998Y-78419104D01*
X156993001Y-77923106D01*
X156993000Y-77923106D01*
X156497000Y-78419104D01*
X152490181Y-78419104D01*
X152645734Y-78346568D01*
X152832139Y-78216047D01*
X152993047Y-78055139D01*
X153123568Y-77868734D01*
X153219739Y-77662496D01*
X153278635Y-77442692D01*
X153298468Y-77216000D01*
X153278635Y-76989308D01*
X153272973Y-76968177D01*
X153267791Y-76948837D01*
X153267790Y-76884648D01*
X153299885Y-76829060D01*
X153376129Y-76752818D01*
X153416357Y-76725939D01*
X153463809Y-76716500D01*
X155619381Y-76716500D01*
X155674225Y-76729288D01*
X155717757Y-76765014D01*
X155740998Y-76816309D01*
X155739156Y-76872594D01*
X155707858Y-76989397D01*
X155688033Y-77215999D01*
X155707858Y-77442602D01*
X155766733Y-77662326D01*
X155789895Y-77711997D01*
X156285893Y-77216000D01*
X156749074Y-76752819D01*
X156789302Y-76725939D01*
X156836755Y-76716500D01*
X157149245Y-76716500D01*
X157196698Y-76725939D01*
X157236926Y-76752819D01*
X157641519Y-77157412D01*
X157641523Y-77157418D01*
X158196104Y-77711998D01*
X158219266Y-77662326D01*
X158278141Y-77442602D01*
X158297966Y-77215999D01*
X158278141Y-76989397D01*
X158246844Y-76872594D01*
X158245002Y-76816309D01*
X158268243Y-76765014D01*
X158311775Y-76729288D01*
X158366619Y-76716500D01*
X167799495Y-76716500D01*
X167820704Y-76718841D01*
X167823294Y-76718759D01*
X167823296Y-76718760D01*
X167893262Y-76716560D01*
X167897157Y-76716500D01*
X167925920Y-76716500D01*
X167925925Y-76716500D01*
X167930302Y-76715946D01*
X167941941Y-76715030D01*
X167987569Y-76713597D01*
X168007949Y-76707675D01*
X168026989Y-76703732D01*
X168048058Y-76701071D01*
X168090520Y-76684258D01*
X168101557Y-76680480D01*
X168145398Y-76667744D01*
X168163670Y-76656936D01*
X168181136Y-76648380D01*
X168200871Y-76640568D01*
X168237816Y-76613725D01*
X168247548Y-76607332D01*
X168286865Y-76584081D01*
X168301874Y-76569071D01*
X168316663Y-76556439D01*
X168333837Y-76543963D01*
X168362946Y-76508774D01*
X168370790Y-76500154D01*
X169330127Y-75540817D01*
X169370355Y-75513938D01*
X169417808Y-75504499D01*
X170773141Y-75504499D01*
X170829436Y-75518014D01*
X170873459Y-75555614D01*
X170895614Y-75609101D01*
X170891072Y-75666817D01*
X170860822Y-75716180D01*
X167253822Y-79323181D01*
X167213594Y-79350061D01*
X167166141Y-79359500D01*
X158073504Y-79359500D01*
X158052294Y-79357158D01*
X157979737Y-79359439D01*
X157975842Y-79359500D01*
X157947071Y-79359500D01*
X157942690Y-79360053D01*
X157931059Y-79360968D01*
X157885430Y-79362402D01*
X157865051Y-79368323D01*
X157846007Y-79372267D01*
X157831639Y-79374082D01*
X157824941Y-79374929D01*
X157782490Y-79391736D01*
X157771443Y-79395518D01*
X157727598Y-79408256D01*
X157709330Y-79419060D01*
X157691864Y-79427617D01*
X157672129Y-79435431D01*
X157635202Y-79462260D01*
X157625442Y-79468671D01*
X157586136Y-79491917D01*
X157571125Y-79506928D01*
X157556336Y-79519558D01*
X157539164Y-79532034D01*
X157510057Y-79567218D01*
X157502196Y-79575856D01*
X157033371Y-80044681D01*
X156993143Y-80071561D01*
X156945690Y-80081000D01*
X155416130Y-80081000D01*
X155356515Y-80087409D01*
X155221669Y-80137704D01*
X155106454Y-80223954D01*
X155020204Y-80339168D01*
X154969909Y-80474016D01*
X154963500Y-80533630D01*
X154963500Y-82534369D01*
X154963652Y-82535780D01*
X154969909Y-82593983D01*
X155020204Y-82728831D01*
X155106454Y-82844046D01*
X155221669Y-82930296D01*
X155252314Y-82941726D01*
X155300130Y-82973838D01*
X155328279Y-83024091D01*
X155330687Y-83081640D01*
X155306833Y-83134069D01*
X155195929Y-83276559D01*
X155081319Y-83488340D01*
X155003134Y-83716084D01*
X154963500Y-83953601D01*
X154963500Y-84194399D01*
X155003134Y-84431915D01*
X155064715Y-84611293D01*
X155081321Y-84659664D01*
X155195928Y-84871439D01*
X155343829Y-85061463D01*
X155520990Y-85224551D01*
X155545387Y-85240490D01*
X155586619Y-85285280D01*
X155601564Y-85344297D01*
X155586619Y-85403314D01*
X155545387Y-85448106D01*
X155521294Y-85463846D01*
X155344201Y-85626873D01*
X155196348Y-85816835D01*
X155081781Y-86028537D01*
X155052440Y-86113999D01*
X155052441Y-86114000D01*
X157875559Y-86114000D01*
X157875559Y-86113999D01*
X157846218Y-86028537D01*
X157731651Y-85816835D01*
X157583798Y-85626873D01*
X157406704Y-85463846D01*
X157382614Y-85448107D01*
X157341380Y-85403315D01*
X157326435Y-85344297D01*
X157341381Y-85285279D01*
X157382612Y-85240490D01*
X157407010Y-85224551D01*
X157584171Y-85061463D01*
X157732072Y-84871439D01*
X157846679Y-84659664D01*
X157924866Y-84431913D01*
X157964500Y-84194399D01*
X157964500Y-83953601D01*
X157924866Y-83716087D01*
X157846679Y-83488336D01*
X157732072Y-83276561D01*
X157621165Y-83134067D01*
X157597312Y-83081641D01*
X157599720Y-83024091D01*
X157627870Y-82973838D01*
X157675685Y-82941726D01*
X157706331Y-82930296D01*
X157821546Y-82844046D01*
X157907796Y-82728831D01*
X157958091Y-82593983D01*
X157964500Y-82534373D01*
X157964499Y-81004807D01*
X157973938Y-80957355D01*
X158000818Y-80917127D01*
X158221127Y-80696819D01*
X158261355Y-80669939D01*
X158308808Y-80660500D01*
X161697500Y-80660500D01*
X161759500Y-80677113D01*
X161804887Y-80722500D01*
X161821500Y-80784500D01*
X161821500Y-82534369D01*
X161821652Y-82535780D01*
X161827909Y-82593983D01*
X161878204Y-82728831D01*
X161964454Y-82844046D01*
X162079669Y-82930296D01*
X162110314Y-82941726D01*
X162158130Y-82973838D01*
X162186279Y-83024091D01*
X162188687Y-83081640D01*
X162164833Y-83134069D01*
X162053929Y-83276559D01*
X161939319Y-83488340D01*
X161861134Y-83716084D01*
X161821500Y-83953601D01*
X161821500Y-84194399D01*
X161861134Y-84431915D01*
X161922715Y-84611293D01*
X161939321Y-84659664D01*
X162053928Y-84871439D01*
X162201829Y-85061463D01*
X162378990Y-85224551D01*
X162403387Y-85240490D01*
X162444619Y-85285280D01*
X162459564Y-85344297D01*
X162444619Y-85403314D01*
X162403387Y-85448106D01*
X162379294Y-85463846D01*
X162202201Y-85626873D01*
X162054348Y-85816835D01*
X161939781Y-86028537D01*
X161910440Y-86113999D01*
X161910441Y-86114000D01*
X164733559Y-86114000D01*
X164733559Y-86113999D01*
X164704218Y-86028537D01*
X164589651Y-85816835D01*
X164441798Y-85626873D01*
X164264704Y-85463846D01*
X164240614Y-85448107D01*
X164199380Y-85403315D01*
X164184435Y-85344297D01*
X164199381Y-85285279D01*
X164240612Y-85240490D01*
X164265010Y-85224551D01*
X164442171Y-85061463D01*
X164590072Y-84871439D01*
X164704679Y-84659664D01*
X164782866Y-84431913D01*
X164822500Y-84194399D01*
X164822500Y-83953601D01*
X164782866Y-83716087D01*
X164704679Y-83488336D01*
X164590072Y-83276561D01*
X164479165Y-83134067D01*
X164455312Y-83081641D01*
X164457720Y-83024091D01*
X164485870Y-82973838D01*
X164533685Y-82941726D01*
X164564331Y-82930296D01*
X164679546Y-82844046D01*
X164765796Y-82728831D01*
X164816091Y-82593983D01*
X164822500Y-82534373D01*
X164822500Y-82308500D01*
X164839113Y-82246500D01*
X164884500Y-82201113D01*
X164946500Y-82184500D01*
X167427495Y-82184500D01*
X167448704Y-82186841D01*
X167451294Y-82186759D01*
X167451296Y-82186760D01*
X167521262Y-82184560D01*
X167525157Y-82184500D01*
X167553920Y-82184500D01*
X167553925Y-82184500D01*
X167558302Y-82183946D01*
X167569941Y-82183030D01*
X167615569Y-82181597D01*
X167635949Y-82175675D01*
X167654989Y-82171732D01*
X167676058Y-82169071D01*
X167718520Y-82152258D01*
X167729557Y-82148480D01*
X167773398Y-82135744D01*
X167791670Y-82124936D01*
X167809136Y-82116380D01*
X167828871Y-82108568D01*
X167865816Y-82081725D01*
X167875548Y-82075332D01*
X167914865Y-82052081D01*
X167929874Y-82037071D01*
X167944663Y-82024439D01*
X167961837Y-82011963D01*
X167990946Y-81976774D01*
X167998790Y-81968154D01*
X168467821Y-81499123D01*
X168517182Y-81468875D01*
X168574898Y-81464333D01*
X168628385Y-81486488D01*
X168665985Y-81530511D01*
X168679500Y-81586806D01*
X168679500Y-82534369D01*
X168679652Y-82535780D01*
X168685909Y-82593983D01*
X168736204Y-82728831D01*
X168822454Y-82844046D01*
X168937669Y-82930296D01*
X168968314Y-82941726D01*
X169016130Y-82973838D01*
X169044279Y-83024091D01*
X169046687Y-83081640D01*
X169022833Y-83134069D01*
X168911929Y-83276559D01*
X168797319Y-83488340D01*
X168719134Y-83716084D01*
X168679500Y-83953601D01*
X168679500Y-84194399D01*
X168719134Y-84431915D01*
X168780715Y-84611293D01*
X168797321Y-84659664D01*
X168911928Y-84871439D01*
X169059829Y-85061463D01*
X169236990Y-85224551D01*
X169261387Y-85240490D01*
X169302619Y-85285280D01*
X169317564Y-85344297D01*
X169302619Y-85403314D01*
X169261387Y-85448106D01*
X169237294Y-85463846D01*
X169060201Y-85626873D01*
X168912348Y-85816835D01*
X168797781Y-86028537D01*
X168768440Y-86113999D01*
X168768441Y-86114000D01*
X171591559Y-86114000D01*
X171591559Y-86113999D01*
X171562218Y-86028537D01*
X171447651Y-85816835D01*
X171299798Y-85626873D01*
X171122704Y-85463846D01*
X171098614Y-85448107D01*
X171057380Y-85403315D01*
X171042435Y-85344297D01*
X171057381Y-85285279D01*
X171098612Y-85240490D01*
X171123010Y-85224551D01*
X171300171Y-85061463D01*
X171448072Y-84871439D01*
X171562679Y-84659664D01*
X171640866Y-84431913D01*
X171680500Y-84194399D01*
X171680500Y-83953601D01*
X171640866Y-83716087D01*
X171562679Y-83488336D01*
X171448072Y-83276561D01*
X171337165Y-83134067D01*
X171313312Y-83081641D01*
X171315720Y-83024091D01*
X171343870Y-82973838D01*
X171391685Y-82941726D01*
X171422331Y-82930296D01*
X171537546Y-82844046D01*
X171623796Y-82728831D01*
X171674091Y-82593983D01*
X171680500Y-82534373D01*
X171680499Y-80877806D01*
X171689938Y-80830354D01*
X171716815Y-80790128D01*
X177829893Y-74677050D01*
X177880892Y-74646282D01*
X177940356Y-74642844D01*
X178018757Y-74657500D01*
X178241241Y-74657500D01*
X178241243Y-74657500D01*
X178459940Y-74616618D01*
X178667401Y-74536247D01*
X178856562Y-74419124D01*
X178937117Y-74345688D01*
X179020980Y-74269237D01*
X179025675Y-74263020D01*
X179155058Y-74091689D01*
X179254229Y-73892528D01*
X179265864Y-73851638D01*
X179280734Y-73799374D01*
X179313133Y-73744820D01*
X179368275Y-73713435D01*
X179431725Y-73713435D01*
X179486867Y-73744820D01*
X179519266Y-73799374D01*
X179545769Y-73892526D01*
X179644941Y-74091688D01*
X179779019Y-74269237D01*
X179900733Y-74380193D01*
X179943438Y-74419124D01*
X179953404Y-74425294D01*
X179960777Y-74429860D01*
X180003829Y-74474948D01*
X180019500Y-74535287D01*
X180019500Y-77581192D01*
X180010061Y-77628645D01*
X179983181Y-77668873D01*
X177607371Y-80044681D01*
X177567143Y-80071561D01*
X177519690Y-80081000D01*
X175990130Y-80081000D01*
X175930515Y-80087409D01*
X175795669Y-80137704D01*
X175680454Y-80223954D01*
X175594204Y-80339168D01*
X175543909Y-80474016D01*
X175537500Y-80533630D01*
X175537500Y-82534369D01*
X175537652Y-82535780D01*
X175543909Y-82593983D01*
X175594204Y-82728831D01*
X175680454Y-82844046D01*
X175795669Y-82930296D01*
X175826314Y-82941726D01*
X175874130Y-82973838D01*
X175902279Y-83024091D01*
X175904687Y-83081640D01*
X175880833Y-83134069D01*
X175769929Y-83276559D01*
X175655319Y-83488340D01*
X175577134Y-83716084D01*
X175537500Y-83953601D01*
X175537500Y-84194399D01*
X175577134Y-84431915D01*
X175638715Y-84611293D01*
X175655321Y-84659664D01*
X175769928Y-84871439D01*
X175917829Y-85061463D01*
X176094990Y-85224551D01*
X176119387Y-85240490D01*
X176160619Y-85285280D01*
X176175564Y-85344297D01*
X176160619Y-85403314D01*
X176119387Y-85448106D01*
X176095294Y-85463846D01*
X175918201Y-85626873D01*
X175770348Y-85816835D01*
X175655781Y-86028537D01*
X175626440Y-86113999D01*
X175626441Y-86114000D01*
X178449559Y-86114000D01*
X178449559Y-86113999D01*
X178420218Y-86028537D01*
X178305651Y-85816835D01*
X178157798Y-85626873D01*
X177980704Y-85463846D01*
X177956614Y-85448107D01*
X177915380Y-85403315D01*
X177900435Y-85344297D01*
X177915381Y-85285279D01*
X177956612Y-85240490D01*
X177981010Y-85224551D01*
X178158171Y-85061463D01*
X178306072Y-84871439D01*
X178420679Y-84659664D01*
X178498866Y-84431913D01*
X178538500Y-84194399D01*
X178538500Y-83953601D01*
X178498866Y-83716087D01*
X178420679Y-83488336D01*
X178306072Y-83276561D01*
X178195165Y-83134067D01*
X178171312Y-83081641D01*
X178173720Y-83024091D01*
X178201870Y-82973838D01*
X178249685Y-82941726D01*
X178280331Y-82930296D01*
X178395546Y-82844046D01*
X178481796Y-82728831D01*
X178532091Y-82593983D01*
X178538500Y-82534373D01*
X178538499Y-81004806D01*
X178547938Y-80957354D01*
X178574815Y-80917129D01*
X181069513Y-78422431D01*
X181086162Y-78409094D01*
X181087936Y-78407204D01*
X181087940Y-78407202D01*
X181135898Y-78356130D01*
X181138546Y-78353398D01*
X181158912Y-78333034D01*
X181161612Y-78329551D01*
X181169188Y-78320680D01*
X181200448Y-78287393D01*
X181210672Y-78268793D01*
X181221351Y-78252536D01*
X181234363Y-78235763D01*
X181252498Y-78193852D01*
X181257633Y-78183374D01*
X181279626Y-78143370D01*
X181284903Y-78122815D01*
X181291208Y-78104399D01*
X181299636Y-78084926D01*
X181306778Y-78039824D01*
X181309143Y-78028405D01*
X181320500Y-77984177D01*
X181320500Y-77962955D01*
X181322027Y-77943556D01*
X181322781Y-77938796D01*
X181325347Y-77922595D01*
X181321049Y-77877136D01*
X181320500Y-77865469D01*
X181320500Y-74535287D01*
X181336171Y-74474948D01*
X181379223Y-74429860D01*
X181383033Y-74427500D01*
X181396562Y-74419124D01*
X181560981Y-74269236D01*
X181695058Y-74091689D01*
X181794229Y-73892528D01*
X181855115Y-73678536D01*
X181875643Y-73457000D01*
X181855115Y-73235464D01*
X181826557Y-73135093D01*
X181794230Y-73021473D01*
X181695058Y-72822311D01*
X181560980Y-72644762D01*
X181396562Y-72494875D01*
X181207404Y-72377754D01*
X181146174Y-72354033D01*
X180999940Y-72297382D01*
X180781243Y-72256500D01*
X180558757Y-72256500D01*
X180351347Y-72295272D01*
X180340060Y-72297382D01*
X180132595Y-72377754D01*
X179943437Y-72494875D01*
X179779019Y-72644762D01*
X179644941Y-72822311D01*
X179545769Y-73021473D01*
X179519266Y-73114625D01*
X179486867Y-73169179D01*
X179431724Y-73200564D01*
X179368276Y-73200564D01*
X179313133Y-73169179D01*
X179280734Y-73114625D01*
X179254230Y-73021473D01*
X179155058Y-72822311D01*
X179020980Y-72644762D01*
X178856562Y-72494875D01*
X178667404Y-72377754D01*
X178606174Y-72354033D01*
X178459940Y-72297382D01*
X178241243Y-72256500D01*
X178018757Y-72256500D01*
X177811347Y-72295272D01*
X177800060Y-72297382D01*
X177592595Y-72377754D01*
X177403437Y-72494875D01*
X177239019Y-72644762D01*
X177104941Y-72822311D01*
X177005769Y-73021473D01*
X176979266Y-73114625D01*
X176946867Y-73169179D01*
X176891724Y-73200564D01*
X176828276Y-73200564D01*
X176773133Y-73169179D01*
X176740734Y-73114625D01*
X176714230Y-73021473D01*
X176615058Y-72822311D01*
X176480980Y-72644762D01*
X176316562Y-72494875D01*
X176127404Y-72377754D01*
X176066174Y-72354033D01*
X175919940Y-72297382D01*
X175701243Y-72256500D01*
X175478757Y-72256500D01*
X175271347Y-72295272D01*
X175260060Y-72297382D01*
X175052595Y-72377754D01*
X174863437Y-72494875D01*
X174699019Y-72644762D01*
X174564941Y-72822311D01*
X174465769Y-73021473D01*
X174439266Y-73114625D01*
X174406867Y-73169179D01*
X174351724Y-73200564D01*
X174288276Y-73200564D01*
X174233133Y-73169179D01*
X174200734Y-73114625D01*
X174174230Y-73021473D01*
X174075058Y-72822311D01*
X173940980Y-72644762D01*
X173776562Y-72494875D01*
X173587404Y-72377754D01*
X173526174Y-72354033D01*
X173379940Y-72297382D01*
X173161243Y-72256500D01*
X172938757Y-72256500D01*
X172731347Y-72295272D01*
X172720060Y-72297382D01*
X172512595Y-72377754D01*
X172323437Y-72494875D01*
X172159019Y-72644762D01*
X172024941Y-72822311D01*
X171925769Y-73021473D01*
X171890765Y-73144504D01*
X171861839Y-73195509D01*
X171812711Y-73227521D01*
X171754368Y-73233381D01*
X171699855Y-73211778D01*
X171661363Y-73167544D01*
X171647499Y-73110570D01*
X171647499Y-72756130D01*
X171645049Y-72733341D01*
X171641091Y-72696517D01*
X171590796Y-72561669D01*
X171504546Y-72446454D01*
X171389331Y-72360204D01*
X171254483Y-72309909D01*
X171194873Y-72303500D01*
X171194869Y-72303500D01*
X168899130Y-72303500D01*
X168839515Y-72309909D01*
X168704669Y-72360204D01*
X168589454Y-72446454D01*
X168503204Y-72561668D01*
X168452909Y-72696516D01*
X168446500Y-72756131D01*
X168446500Y-74533191D01*
X168437061Y-74580644D01*
X168410181Y-74620872D01*
X167651873Y-75379181D01*
X167611645Y-75406061D01*
X167564192Y-75415500D01*
X164665276Y-75415500D01*
X164600948Y-75397509D01*
X164555287Y-75348757D01*
X164541541Y-75283390D01*
X164563701Y-75220377D01*
X164588133Y-75185483D01*
X164684266Y-74979326D01*
X164743141Y-74759601D01*
X164754217Y-74633000D01*
X163082000Y-74633000D01*
X163020000Y-74616387D01*
X162974613Y-74571000D01*
X162958000Y-74509000D01*
X162958000Y-73757000D01*
X162974613Y-73695000D01*
X163020000Y-73649613D01*
X163082000Y-73633000D01*
X164754217Y-73633000D01*
X164743141Y-73506398D01*
X164684266Y-73286673D01*
X164588134Y-73080519D01*
X164457658Y-72894180D01*
X164296819Y-72733341D01*
X164110480Y-72602865D01*
X163904326Y-72506733D01*
X163764674Y-72469313D01*
X163709086Y-72437219D01*
X163676993Y-72381631D01*
X163676993Y-72317444D01*
X163702593Y-72273104D01*
X166249000Y-72273104D01*
X166298673Y-72296266D01*
X166518397Y-72355141D01*
X166745000Y-72374966D01*
X166971602Y-72355141D01*
X167191326Y-72296266D01*
X167240998Y-72273104D01*
X166745001Y-71777106D01*
X166745000Y-71777106D01*
X166249000Y-72273104D01*
X163702593Y-72273104D01*
X163709084Y-72261861D01*
X165180126Y-70790819D01*
X165220355Y-70763939D01*
X165267808Y-70754500D01*
X165332314Y-70754500D01*
X165397411Y-70772962D01*
X165443124Y-70822849D01*
X165455842Y-70889307D01*
X165440033Y-71070000D01*
X165459858Y-71296602D01*
X165518733Y-71516326D01*
X165541895Y-71565997D01*
X166037893Y-71070000D01*
X166501074Y-70606819D01*
X166541302Y-70579939D01*
X166588755Y-70570500D01*
X166901245Y-70570500D01*
X166948698Y-70579939D01*
X166988926Y-70606819D01*
X167393519Y-71011412D01*
X167393523Y-71011418D01*
X167948104Y-71565998D01*
X167971266Y-71516326D01*
X168030141Y-71296602D01*
X168049966Y-71070000D01*
X168030141Y-70843397D01*
X167998844Y-70726594D01*
X167997002Y-70670309D01*
X168020243Y-70619014D01*
X168063775Y-70583288D01*
X168118619Y-70570500D01*
X176501495Y-70570500D01*
X176522704Y-70572841D01*
X176525294Y-70572759D01*
X176525296Y-70572760D01*
X176595262Y-70570560D01*
X176599157Y-70570500D01*
X176627920Y-70570500D01*
X176627925Y-70570500D01*
X176632302Y-70569946D01*
X176643941Y-70569030D01*
X176689569Y-70567597D01*
X176709949Y-70561675D01*
X176728989Y-70557732D01*
X176750058Y-70555071D01*
X176792520Y-70538258D01*
X176803557Y-70534480D01*
X176847398Y-70521744D01*
X176865670Y-70510936D01*
X176883136Y-70502380D01*
X176902871Y-70494568D01*
X176939816Y-70467725D01*
X176949548Y-70461332D01*
X176988865Y-70438081D01*
X177003874Y-70423071D01*
X177018663Y-70410439D01*
X177035837Y-70397963D01*
X177064946Y-70362774D01*
X177072790Y-70354154D01*
X180369894Y-67057050D01*
X180420893Y-67026282D01*
X180480357Y-67022844D01*
X180558757Y-67037500D01*
X180781241Y-67037500D01*
X180781243Y-67037500D01*
X180999940Y-66996618D01*
X181207401Y-66916247D01*
X181396562Y-66799124D01*
X181477117Y-66725688D01*
X181560979Y-66649238D01*
X181567578Y-66640500D01*
X181684312Y-66485918D01*
X181740255Y-66444345D01*
X181809791Y-66439518D01*
X181870945Y-66472966D01*
X186257181Y-70859202D01*
X186284061Y-70899430D01*
X186293500Y-70946883D01*
X186293500Y-78483495D01*
X186291158Y-78504704D01*
X186293439Y-78577262D01*
X186293500Y-78581157D01*
X186293500Y-78609926D01*
X186294053Y-78614307D01*
X186294968Y-78625940D01*
X186296402Y-78671569D01*
X186302323Y-78691950D01*
X186306267Y-78710995D01*
X186308928Y-78732059D01*
X186325737Y-78774515D01*
X186329520Y-78785563D01*
X186342256Y-78829400D01*
X186353061Y-78847670D01*
X186361621Y-78865143D01*
X186369432Y-78884871D01*
X186382648Y-78903062D01*
X186396267Y-78921808D01*
X186402673Y-78931560D01*
X186425919Y-78970865D01*
X186425921Y-78970867D01*
X186440925Y-78985871D01*
X186453564Y-79000669D01*
X186466037Y-79017837D01*
X186501212Y-79046936D01*
X186509854Y-79054800D01*
X189083071Y-81628017D01*
X189115714Y-81685728D01*
X189113955Y-81752007D01*
X189051417Y-81956217D01*
X189039141Y-82052081D01*
X189021885Y-82186841D01*
X189021784Y-82187627D01*
X189031685Y-82420704D01*
X189080836Y-82648767D01*
X189167819Y-82865231D01*
X189167821Y-82865235D01*
X189282782Y-83051944D01*
X189290139Y-83063892D01*
X189444270Y-83239019D01*
X189625776Y-83385576D01*
X189666101Y-83408103D01*
X189711217Y-83451343D01*
X189729515Y-83511094D01*
X189716350Y-83572182D01*
X189675064Y-83619092D01*
X189531912Y-83715846D01*
X189363483Y-83877272D01*
X189224760Y-84064838D01*
X189119730Y-84273152D01*
X189071110Y-84431913D01*
X189051417Y-84496220D01*
X189030488Y-84659659D01*
X189021784Y-84727627D01*
X189031685Y-84960704D01*
X189080836Y-85188767D01*
X189143334Y-85344297D01*
X189167821Y-85405235D01*
X189290138Y-85603891D01*
X189290139Y-85603892D01*
X189444270Y-85779019D01*
X189625776Y-85925576D01*
X189666590Y-85948376D01*
X189711706Y-85991616D01*
X189730004Y-86051367D01*
X189716839Y-86112455D01*
X189675553Y-86159365D01*
X189532227Y-86256236D01*
X189363860Y-86417603D01*
X189225187Y-86605101D01*
X189120196Y-86813339D01*
X189116320Y-86826000D01*
X192121552Y-86826000D01*
X192073732Y-86706994D01*
X191951456Y-86508405D01*
X191797381Y-86333342D01*
X191615940Y-86186837D01*
X191575433Y-86164209D01*
X191530318Y-86120970D01*
X191512020Y-86061218D01*
X191525185Y-86000131D01*
X191566469Y-85953222D01*
X191710088Y-85856153D01*
X191878516Y-85694728D01*
X192017240Y-85507161D01*
X192122270Y-85298847D01*
X192190583Y-85075780D01*
X192220216Y-84844376D01*
X192210314Y-84611293D01*
X192161164Y-84383235D01*
X192124505Y-84292007D01*
X192074180Y-84166768D01*
X192074179Y-84166765D01*
X191951862Y-83968109D01*
X191797731Y-83792982D01*
X191797729Y-83792980D01*
X191616221Y-83646421D01*
X191575897Y-83623895D01*
X191530782Y-83580655D01*
X191512484Y-83520904D01*
X191525649Y-83459816D01*
X191566933Y-83412909D01*
X191710088Y-83316153D01*
X191878516Y-83154728D01*
X192017240Y-82967161D01*
X192122270Y-82758847D01*
X192190583Y-82535780D01*
X192220216Y-82304376D01*
X192210314Y-82071293D01*
X192161164Y-81843235D01*
X192124505Y-81752007D01*
X192074180Y-81626768D01*
X192074179Y-81626765D01*
X191951862Y-81428109D01*
X191797731Y-81252982D01*
X191797729Y-81252980D01*
X191616221Y-81106421D01*
X191575897Y-81083895D01*
X191530782Y-81040655D01*
X191512484Y-80980904D01*
X191525649Y-80919816D01*
X191566933Y-80872909D01*
X191710088Y-80776153D01*
X191878516Y-80614728D01*
X192017240Y-80427161D01*
X192122270Y-80218847D01*
X192190583Y-79995780D01*
X192220216Y-79764376D01*
X192210314Y-79531293D01*
X192161164Y-79303235D01*
X192129367Y-79224107D01*
X192120430Y-79177002D01*
X192130034Y-79130021D01*
X192156743Y-79090201D01*
X192400819Y-78846125D01*
X192450182Y-78815876D01*
X192507898Y-78811334D01*
X192561385Y-78833489D01*
X192598985Y-78877512D01*
X192612500Y-78933807D01*
X192612500Y-91886664D01*
X192603061Y-91934117D01*
X192576181Y-91974345D01*
X191763344Y-92787180D01*
X191752981Y-92796442D01*
X191725335Y-92818491D01*
X191681735Y-92868392D01*
X191676050Y-92874473D01*
X191665192Y-92885334D01*
X191615830Y-92915592D01*
X191558111Y-92920140D01*
X191504619Y-92897987D01*
X191467016Y-92853963D01*
X191453499Y-92797665D01*
X191453499Y-92783130D01*
X191453499Y-92783127D01*
X191447091Y-92723517D01*
X191396796Y-92588669D01*
X191310546Y-92473454D01*
X191195331Y-92387204D01*
X191142357Y-92367446D01*
X191115093Y-92357277D01*
X191065558Y-92323261D01*
X191037831Y-92269951D01*
X191038424Y-92209864D01*
X191067196Y-92157114D01*
X191161979Y-92054153D01*
X191288924Y-91859849D01*
X191382157Y-91647300D01*
X191439134Y-91422305D01*
X191458300Y-91191000D01*
X191439134Y-90959695D01*
X191382157Y-90734700D01*
X191288924Y-90522151D01*
X191161979Y-90327847D01*
X191004784Y-90157087D01*
X190821626Y-90014530D01*
X190617503Y-89904064D01*
X190617499Y-89904062D01*
X190617498Y-89904062D01*
X190397984Y-89828702D01*
X190226281Y-89800050D01*
X190169049Y-89790500D01*
X189936951Y-89790500D01*
X189891164Y-89798140D01*
X189708015Y-89828702D01*
X189488501Y-89904062D01*
X189284372Y-90014531D01*
X189101215Y-90157087D01*
X188944020Y-90327848D01*
X188817076Y-90522150D01*
X188723844Y-90734696D01*
X188666865Y-90959700D01*
X188647699Y-91190999D01*
X188666865Y-91422300D01*
X188697031Y-91541425D01*
X188696376Y-91604783D01*
X188664507Y-91659545D01*
X188554874Y-91769180D01*
X188514645Y-91796061D01*
X188467192Y-91805500D01*
X187317863Y-91805500D01*
X187262591Y-91792500D01*
X187218909Y-91756227D01*
X187133980Y-91643762D01*
X186969562Y-91493875D01*
X186780404Y-91376754D01*
X186699379Y-91345365D01*
X186572940Y-91296382D01*
X186354243Y-91255500D01*
X186131757Y-91255500D01*
X185913060Y-91296381D01*
X185913060Y-91296382D01*
X185705595Y-91376754D01*
X185516437Y-91493875D01*
X185352019Y-91643762D01*
X185228933Y-91806756D01*
X185184737Y-91843283D01*
X185128833Y-91856024D01*
X185073174Y-91842253D01*
X185029661Y-91804914D01*
X185026454Y-91800500D01*
X184902522Y-91629922D01*
X184739825Y-91474368D01*
X184739822Y-91474366D01*
X184739821Y-91474365D01*
X184551968Y-91350365D01*
X184344987Y-91261896D01*
X184125537Y-91211809D01*
X183900671Y-91201709D01*
X183677611Y-91231925D01*
X183463537Y-91301482D01*
X183381989Y-91345365D01*
X183265319Y-91408148D01*
X183265317Y-91408149D01*
X183265318Y-91408149D01*
X183089335Y-91548490D01*
X182941233Y-91718006D01*
X182825783Y-91911237D01*
X182746693Y-92121974D01*
X182706500Y-92343453D01*
X182706500Y-92673754D01*
X182705720Y-92687638D01*
X182701761Y-92722766D01*
X182706219Y-92788872D01*
X182706500Y-92797214D01*
X182706500Y-92807095D01*
X182710153Y-92847689D01*
X182710371Y-92850461D01*
X182716904Y-92947354D01*
X182717973Y-92951597D01*
X182721229Y-92970760D01*
X182721622Y-92975125D01*
X182747465Y-93068764D01*
X182748158Y-93071387D01*
X182765678Y-93140914D01*
X182771904Y-93165624D01*
X182773712Y-93169604D01*
X182780342Y-93187890D01*
X182781506Y-93192108D01*
X182823657Y-93279639D01*
X182824835Y-93282157D01*
X182864992Y-93370565D01*
X182867483Y-93374160D01*
X182877271Y-93390969D01*
X182879170Y-93394914D01*
X182936258Y-93473488D01*
X182937868Y-93475757D01*
X182993178Y-93555592D01*
X182996268Y-93558682D01*
X183008905Y-93573477D01*
X183011478Y-93577018D01*
X183011479Y-93577019D01*
X183081699Y-93644156D01*
X183083688Y-93646102D01*
X183686181Y-94248595D01*
X183713061Y-94288823D01*
X183722500Y-94336276D01*
X183722500Y-95247564D01*
X183702935Y-95314417D01*
X183650414Y-95360174D01*
X183581510Y-95370395D01*
X183517969Y-95341854D01*
X183376659Y-95221164D01*
X183161859Y-95089534D01*
X183040416Y-95039231D01*
X182929110Y-94993126D01*
X182684149Y-94934317D01*
X182433000Y-94914551D01*
X182181850Y-94934317D01*
X181936889Y-94993126D01*
X181704139Y-95089535D01*
X181563059Y-95175989D01*
X181497915Y-95194261D01*
X181454064Y-95181691D01*
X181452853Y-95227562D01*
X181415130Y-95284546D01*
X181297776Y-95384776D01*
X181134163Y-95576342D01*
X181002535Y-95791139D01*
X180906126Y-96023889D01*
X180847317Y-96268850D01*
X180827551Y-96520000D01*
X180847317Y-96771149D01*
X180906126Y-97016110D01*
X180954330Y-97132485D01*
X181002534Y-97248859D01*
X181134164Y-97463659D01*
X181297776Y-97655224D01*
X181489341Y-97818836D01*
X181704141Y-97950466D01*
X181936889Y-98046873D01*
X182181852Y-98105683D01*
X182433000Y-98125449D01*
X182684148Y-98105683D01*
X182929111Y-98046873D01*
X183161859Y-97950466D01*
X183376659Y-97818836D01*
X183517969Y-97698145D01*
X183581510Y-97669605D01*
X183650414Y-97679826D01*
X183702935Y-97725583D01*
X183722500Y-97792436D01*
X183722500Y-98157858D01*
X183712488Y-98206670D01*
X183684071Y-98247600D01*
X183641835Y-98274039D01*
X183630671Y-98278203D01*
X183630670Y-98278203D01*
X183630669Y-98278204D01*
X183553759Y-98335779D01*
X183515454Y-98364454D01*
X183429204Y-98479668D01*
X183378909Y-98614516D01*
X183372500Y-98674130D01*
X183372500Y-100969869D01*
X183378909Y-101029484D01*
X183404056Y-101096907D01*
X183429204Y-101164331D01*
X183515454Y-101279546D01*
X183630669Y-101365796D01*
X183638478Y-101368708D01*
X183641835Y-101369961D01*
X183684071Y-101396400D01*
X183712488Y-101437330D01*
X183722500Y-101486142D01*
X183722500Y-103824664D01*
X183713061Y-103872117D01*
X183686181Y-103912345D01*
X182051343Y-105547181D01*
X182011115Y-105574061D01*
X181963662Y-105583500D01*
X181535130Y-105583500D01*
X181475515Y-105589909D01*
X181393916Y-105620344D01*
X181340669Y-105640204D01*
X181326292Y-105650967D01*
X181315871Y-105658768D01*
X181280720Y-105677155D01*
X181241561Y-105683500D01*
X181213874Y-105683500D01*
X181153442Y-105667777D01*
X181108335Y-105624596D01*
X181105711Y-105620342D01*
X180981657Y-105496288D01*
X180832334Y-105404186D01*
X180665797Y-105349000D01*
X180563009Y-105338500D01*
X179222991Y-105338500D01*
X179120203Y-105349000D01*
X178953665Y-105404186D01*
X178804342Y-105496288D01*
X178680288Y-105620342D01*
X178608168Y-105737270D01*
X178595833Y-105757269D01*
X178580578Y-105782001D01*
X178577637Y-105780187D01*
X178557574Y-105810978D01*
X178501605Y-105840047D01*
X178438576Y-105837825D01*
X178384792Y-105804887D01*
X178371461Y-105790978D01*
X178261728Y-105676484D01*
X178249955Y-105667777D01*
X178074161Y-105537760D01*
X177865847Y-105432730D01*
X177642780Y-105364417D01*
X177642779Y-105364416D01*
X177411376Y-105334784D01*
X177411372Y-105334784D01*
X177178295Y-105344685D01*
X176950232Y-105393836D01*
X176733768Y-105480819D01*
X176535107Y-105603139D01*
X176359980Y-105757270D01*
X176213423Y-105938776D01*
X176099645Y-106142448D01*
X176021925Y-106362418D01*
X175982500Y-106592351D01*
X175982500Y-107217220D01*
X175997329Y-107391451D01*
X176056114Y-107617217D01*
X176072481Y-107653425D01*
X176083146Y-107713705D01*
X176063674Y-107771741D01*
X176018810Y-107813390D01*
X175959488Y-107828500D01*
X174987336Y-107828500D01*
X174939883Y-107819061D01*
X174899655Y-107792181D01*
X173659818Y-106552344D01*
X173632938Y-106512116D01*
X173623499Y-106464663D01*
X173623499Y-106036130D01*
X173617259Y-105978083D01*
X173617091Y-105976517D01*
X173566796Y-105841669D01*
X173480546Y-105726454D01*
X173365331Y-105640204D01*
X173230483Y-105589909D01*
X173170873Y-105583500D01*
X173170869Y-105583500D01*
X173170827Y-105583500D01*
X171869499Y-105583500D01*
X171807500Y-105566888D01*
X171762113Y-105521501D01*
X171745500Y-105459501D01*
X171745500Y-100391336D01*
X171754939Y-100343883D01*
X171781819Y-100303655D01*
X172131819Y-99953655D01*
X173259276Y-98826196D01*
X173310183Y-98795458D01*
X173369551Y-98791956D01*
X173423721Y-98816500D01*
X173460233Y-98863444D01*
X173470689Y-98921989D01*
X173452682Y-98978669D01*
X173382534Y-99093140D01*
X173286126Y-99325889D01*
X173227317Y-99570850D01*
X173207551Y-99822000D01*
X173227317Y-100073149D01*
X173286126Y-100318110D01*
X173334330Y-100434485D01*
X173382534Y-100550859D01*
X173514164Y-100765659D01*
X173677776Y-100957224D01*
X173869341Y-101120836D01*
X174084141Y-101252466D01*
X174316889Y-101348873D01*
X174561852Y-101407683D01*
X174813000Y-101427449D01*
X175064148Y-101407683D01*
X175309111Y-101348873D01*
X175541859Y-101252466D01*
X175756659Y-101120836D01*
X175948224Y-100957224D01*
X176111836Y-100765659D01*
X176243466Y-100550859D01*
X176339873Y-100318111D01*
X176398683Y-100073148D01*
X176418449Y-99822000D01*
X176398683Y-99570852D01*
X176339873Y-99325889D01*
X176243466Y-99093141D01*
X176111836Y-98878341D01*
X175948224Y-98686776D01*
X175756659Y-98523164D01*
X175541859Y-98391534D01*
X175367188Y-98319183D01*
X175309110Y-98295126D01*
X175203284Y-98269720D01*
X175143152Y-98235407D01*
X175110789Y-98174205D01*
X175116283Y-98105191D01*
X175157920Y-98049880D01*
X175254546Y-97977546D01*
X175340796Y-97862331D01*
X175391091Y-97727483D01*
X175397500Y-97667873D01*
X175397499Y-95372128D01*
X175391091Y-95312517D01*
X175340796Y-95177669D01*
X175254546Y-95062454D01*
X175139331Y-94976204D01*
X175004483Y-94925909D01*
X174944873Y-94919500D01*
X174944869Y-94919500D01*
X174917500Y-94919500D01*
X174855500Y-94902887D01*
X174810113Y-94857500D01*
X174793500Y-94795500D01*
X174793500Y-92455999D01*
X175131357Y-92455999D01*
X175151885Y-92677537D01*
X175212769Y-92891526D01*
X175311941Y-93090688D01*
X175446019Y-93268237D01*
X175610437Y-93418124D01*
X175799595Y-93535245D01*
X175799597Y-93535245D01*
X175799599Y-93535247D01*
X176007060Y-93615618D01*
X176225757Y-93656500D01*
X176448241Y-93656500D01*
X176448243Y-93656500D01*
X176666940Y-93615618D01*
X176874401Y-93535247D01*
X177063562Y-93418124D01*
X177164025Y-93326540D01*
X177227980Y-93268237D01*
X177228020Y-93268185D01*
X177312908Y-93155773D01*
X177356591Y-93119500D01*
X177411863Y-93106500D01*
X178622500Y-93106500D01*
X178684500Y-93123113D01*
X178729887Y-93168500D01*
X178746500Y-93230500D01*
X178746500Y-94678869D01*
X178752909Y-94738484D01*
X178763107Y-94765826D01*
X178803204Y-94873331D01*
X178889454Y-94988546D01*
X179004669Y-95074796D01*
X179139517Y-95125091D01*
X179199127Y-95131500D01*
X181094872Y-95131499D01*
X181154483Y-95125091D01*
X181289331Y-95074796D01*
X181289333Y-95074793D01*
X181291264Y-95074074D01*
X181359397Y-95068761D01*
X181378462Y-95078699D01*
X181374771Y-95059121D01*
X181399002Y-94995951D01*
X181404544Y-94988547D01*
X181404546Y-94988546D01*
X181490796Y-94873331D01*
X181541091Y-94738483D01*
X181547500Y-94678873D01*
X181547499Y-92783128D01*
X181541091Y-92723517D01*
X181490796Y-92588669D01*
X181404546Y-92473454D01*
X181289331Y-92387204D01*
X181236357Y-92367446D01*
X181209093Y-92357277D01*
X181159558Y-92323261D01*
X181131831Y-92269951D01*
X181132424Y-92209864D01*
X181161196Y-92157114D01*
X181255979Y-92054153D01*
X181382924Y-91859849D01*
X181476157Y-91647300D01*
X181533134Y-91422305D01*
X181552300Y-91191000D01*
X181533134Y-90959695D01*
X181476157Y-90734700D01*
X181382924Y-90522151D01*
X181255979Y-90327847D01*
X181098784Y-90157087D01*
X180915626Y-90014530D01*
X180711503Y-89904064D01*
X180711499Y-89904062D01*
X180711498Y-89904062D01*
X180491984Y-89828702D01*
X180320281Y-89800050D01*
X180263049Y-89790500D01*
X180030951Y-89790500D01*
X179985164Y-89798140D01*
X179802015Y-89828702D01*
X179582501Y-89904062D01*
X179378372Y-90014531D01*
X179195215Y-90157087D01*
X179038020Y-90327848D01*
X178911076Y-90522150D01*
X178817844Y-90734696D01*
X178760865Y-90959700D01*
X178741699Y-91190999D01*
X178760865Y-91422300D01*
X178791031Y-91541425D01*
X178790376Y-91604783D01*
X178758507Y-91659545D01*
X178648874Y-91769180D01*
X178608645Y-91796061D01*
X178561192Y-91805500D01*
X177411863Y-91805500D01*
X177356591Y-91792500D01*
X177312909Y-91756227D01*
X177227980Y-91643762D01*
X177063562Y-91493875D01*
X176874404Y-91376754D01*
X176793379Y-91345365D01*
X176666940Y-91296382D01*
X176448243Y-91255500D01*
X176225757Y-91255500D01*
X176007060Y-91296381D01*
X176007060Y-91296382D01*
X175799595Y-91376754D01*
X175610437Y-91493875D01*
X175446019Y-91643762D01*
X175311941Y-91821311D01*
X175212769Y-92020473D01*
X175151885Y-92234462D01*
X175131357Y-92455999D01*
X174793500Y-92455999D01*
X174793500Y-92399847D01*
X174789669Y-92357277D01*
X174778377Y-92231812D01*
X174718493Y-92014830D01*
X174620829Y-91812027D01*
X174488522Y-91629922D01*
X174325825Y-91474368D01*
X174325822Y-91474366D01*
X174325821Y-91474365D01*
X174137968Y-91350365D01*
X173930987Y-91261896D01*
X173711537Y-91211809D01*
X173486671Y-91201709D01*
X173263611Y-91231925D01*
X173049537Y-91301482D01*
X172967989Y-91345365D01*
X172851319Y-91408148D01*
X172851317Y-91408149D01*
X172851318Y-91408149D01*
X172675335Y-91548490D01*
X172527233Y-91718006D01*
X172411783Y-91911237D01*
X172332693Y-92121974D01*
X172292500Y-92343453D01*
X172292500Y-95083905D01*
X172286154Y-95123064D01*
X172267767Y-95158215D01*
X172253205Y-95177666D01*
X172202910Y-95312515D01*
X172202909Y-95312517D01*
X172196687Y-95370395D01*
X172196500Y-95372131D01*
X172196500Y-96300663D01*
X172187061Y-96348116D01*
X172160181Y-96388344D01*
X170013345Y-98535181D01*
X169973117Y-98562061D01*
X169925664Y-98571500D01*
X167236500Y-98571500D01*
X167174500Y-98554887D01*
X167129113Y-98509500D01*
X167112500Y-98447500D01*
X167112500Y-95053116D01*
X167113280Y-95039231D01*
X167115600Y-95018645D01*
X167117237Y-95004112D01*
X167115850Y-94983546D01*
X167112781Y-94938017D01*
X167112500Y-94929676D01*
X167112500Y-94919788D01*
X167111139Y-94904670D01*
X167108842Y-94879148D01*
X167108626Y-94876392D01*
X167107352Y-94857500D01*
X167102096Y-94779527D01*
X167101027Y-94775285D01*
X167097768Y-94756097D01*
X167097377Y-94751752D01*
X167071534Y-94658113D01*
X167070840Y-94655487D01*
X167047096Y-94561256D01*
X167045290Y-94557280D01*
X167038655Y-94538980D01*
X167037493Y-94534769D01*
X166995346Y-94447250D01*
X166994189Y-94444778D01*
X166954007Y-94356314D01*
X166951520Y-94352724D01*
X166941720Y-94335894D01*
X166939830Y-94331969D01*
X166908483Y-94288823D01*
X166882713Y-94253354D01*
X166881125Y-94251115D01*
X166825819Y-94171285D01*
X166822734Y-94168200D01*
X166810091Y-94153398D01*
X166807522Y-94149862D01*
X166737299Y-94082722D01*
X166735310Y-94080776D01*
X166399908Y-93745374D01*
X166368722Y-93693001D01*
X166366260Y-93632096D01*
X166393115Y-93577377D01*
X166442796Y-93542067D01*
X166460401Y-93535247D01*
X166649562Y-93418124D01*
X166750025Y-93326540D01*
X166813980Y-93268237D01*
X166813981Y-93268236D01*
X166948058Y-93090689D01*
X167047229Y-92891528D01*
X167048653Y-92886526D01*
X167076437Y-92788872D01*
X167108115Y-92677536D01*
X167128643Y-92456000D01*
X167109785Y-92252489D01*
X167116626Y-92198938D01*
X167145571Y-92153373D01*
X167421129Y-91877816D01*
X167461355Y-91850939D01*
X167508808Y-91841500D01*
X168417982Y-91841500D01*
X168476999Y-91856445D01*
X168521790Y-91897677D01*
X168624021Y-92054153D01*
X168718803Y-92157114D01*
X168747575Y-92209865D01*
X168748168Y-92269951D01*
X168720441Y-92323261D01*
X168670906Y-92357276D01*
X168590671Y-92387202D01*
X168475454Y-92473454D01*
X168389204Y-92588668D01*
X168338909Y-92723515D01*
X168338909Y-92723517D01*
X168332526Y-92782892D01*
X168332500Y-92783130D01*
X168332500Y-94678869D01*
X168338909Y-94738484D01*
X168349107Y-94765826D01*
X168389204Y-94873331D01*
X168475454Y-94988546D01*
X168590669Y-95074796D01*
X168725517Y-95125091D01*
X168785127Y-95131500D01*
X170680872Y-95131499D01*
X170740483Y-95125091D01*
X170875331Y-95074796D01*
X170990546Y-94988546D01*
X171076796Y-94873331D01*
X171127091Y-94738483D01*
X171133500Y-94678873D01*
X171133499Y-92783128D01*
X171127091Y-92723517D01*
X171076796Y-92588669D01*
X170990546Y-92473454D01*
X170875331Y-92387204D01*
X170822357Y-92367446D01*
X170795093Y-92357277D01*
X170745558Y-92323261D01*
X170717831Y-92269951D01*
X170718424Y-92209864D01*
X170747196Y-92157114D01*
X170841979Y-92054153D01*
X170968924Y-91859849D01*
X171062157Y-91647300D01*
X171119134Y-91422305D01*
X171138300Y-91191000D01*
X171119134Y-90959695D01*
X171062157Y-90734700D01*
X170968924Y-90522151D01*
X170841979Y-90327847D01*
X170684784Y-90157087D01*
X170501626Y-90014530D01*
X170297503Y-89904064D01*
X170297499Y-89904062D01*
X170297498Y-89904062D01*
X170077984Y-89828702D01*
X169906281Y-89800050D01*
X169849049Y-89790500D01*
X169616951Y-89790500D01*
X169571164Y-89798140D01*
X169388015Y-89828702D01*
X169168501Y-89904062D01*
X168964372Y-90014531D01*
X168781215Y-90157087D01*
X168635590Y-90315279D01*
X168624021Y-90327847D01*
X168521791Y-90484322D01*
X168476999Y-90525555D01*
X168417982Y-90540500D01*
X167273504Y-90540500D01*
X167252294Y-90538158D01*
X167179737Y-90540439D01*
X167175842Y-90540500D01*
X167147071Y-90540500D01*
X167142690Y-90541053D01*
X167131059Y-90541968D01*
X167085428Y-90543402D01*
X167065052Y-90549322D01*
X167046006Y-90553267D01*
X167024939Y-90555928D01*
X166982492Y-90572734D01*
X166971445Y-90576516D01*
X166927601Y-90589255D01*
X166909330Y-90600060D01*
X166891864Y-90608617D01*
X166872129Y-90616431D01*
X166835202Y-90643260D01*
X166825442Y-90649671D01*
X166786136Y-90672917D01*
X166771125Y-90687928D01*
X166756336Y-90700558D01*
X166739164Y-90713034D01*
X166710057Y-90748218D01*
X166702196Y-90756856D01*
X166223105Y-91235947D01*
X166172104Y-91266717D01*
X166112639Y-91270154D01*
X166034243Y-91255500D01*
X165811757Y-91255500D01*
X165593060Y-91296381D01*
X165593060Y-91296382D01*
X165385595Y-91376754D01*
X165196437Y-91493875D01*
X165032019Y-91643762D01*
X164897941Y-91821312D01*
X164834447Y-91948823D01*
X164797025Y-91993362D01*
X164743410Y-92015934D01*
X164685401Y-92011570D01*
X164635766Y-91981232D01*
X164465784Y-91811250D01*
X164453147Y-91796454D01*
X164452861Y-91796061D01*
X164328522Y-91624922D01*
X164165825Y-91469368D01*
X164165822Y-91469366D01*
X164165821Y-91469365D01*
X163977968Y-91345365D01*
X163770987Y-91256896D01*
X163551537Y-91206809D01*
X163326671Y-91196709D01*
X163103611Y-91226925D01*
X162889537Y-91296482D01*
X162880246Y-91301482D01*
X162691319Y-91403148D01*
X162691317Y-91403149D01*
X162691318Y-91403149D01*
X162515335Y-91543490D01*
X162367233Y-91713006D01*
X162251783Y-91906237D01*
X162172693Y-92116974D01*
X162132500Y-92338453D01*
X162132500Y-92419754D01*
X162131720Y-92433638D01*
X162127761Y-92468766D01*
X162132219Y-92534872D01*
X162132500Y-92543214D01*
X162132500Y-92553095D01*
X162136153Y-92593689D01*
X162136371Y-92596461D01*
X162142904Y-92693354D01*
X162143973Y-92697597D01*
X162147229Y-92716760D01*
X162147622Y-92721125D01*
X162173465Y-92814764D01*
X162174158Y-92817387D01*
X162188543Y-92874473D01*
X162197904Y-92911624D01*
X162199712Y-92915604D01*
X162206342Y-92933890D01*
X162207506Y-92938108D01*
X162249657Y-93025639D01*
X162250835Y-93028157D01*
X162290992Y-93116565D01*
X162293483Y-93120160D01*
X162303271Y-93136969D01*
X162305170Y-93140914D01*
X162362258Y-93219488D01*
X162363868Y-93221757D01*
X162419178Y-93301592D01*
X162422268Y-93304682D01*
X162434905Y-93319477D01*
X162437478Y-93323018D01*
X162437479Y-93323019D01*
X162507699Y-93390156D01*
X162509688Y-93392102D01*
X163828221Y-94710635D01*
X163859058Y-94761855D01*
X163862344Y-94821551D01*
X163837314Y-94875846D01*
X163789787Y-94912117D01*
X163730812Y-94921934D01*
X163637000Y-94914551D01*
X163385850Y-94934317D01*
X163140889Y-94993126D01*
X162908139Y-95089535D01*
X162693342Y-95221163D01*
X162501776Y-95384776D01*
X162338163Y-95576342D01*
X162206535Y-95791139D01*
X162110126Y-96023889D01*
X162051317Y-96268850D01*
X162031551Y-96520000D01*
X162051317Y-96771149D01*
X162110126Y-97016110D01*
X162158330Y-97132485D01*
X162206534Y-97248859D01*
X162338164Y-97463659D01*
X162501776Y-97655224D01*
X162693341Y-97818836D01*
X162908141Y-97950466D01*
X163140889Y-98046873D01*
X163246716Y-98072279D01*
X163306846Y-98106591D01*
X163339209Y-98167793D01*
X163333716Y-98236807D01*
X163292079Y-98292119D01*
X163195455Y-98364451D01*
X163133806Y-98446803D01*
X163122669Y-98461683D01*
X163109203Y-98479671D01*
X163105039Y-98490835D01*
X163078600Y-98533071D01*
X163037670Y-98561488D01*
X162988858Y-98571500D01*
X158364336Y-98571500D01*
X158316883Y-98562061D01*
X158276655Y-98535181D01*
X156129818Y-96388344D01*
X156102938Y-96348116D01*
X156093499Y-96300663D01*
X156093499Y-95372130D01*
X156093499Y-95372127D01*
X156087091Y-95312517D01*
X156036796Y-95177669D01*
X155950546Y-95062454D01*
X155835331Y-94976204D01*
X155700483Y-94925909D01*
X155640873Y-94919500D01*
X155640869Y-94919500D01*
X154712336Y-94919500D01*
X154664883Y-94910061D01*
X154624655Y-94883181D01*
X154509819Y-94768345D01*
X154482939Y-94728117D01*
X154473500Y-94680664D01*
X154473500Y-93081834D01*
X154490885Y-93018516D01*
X154538165Y-92972952D01*
X154602082Y-92957919D01*
X154664715Y-92977631D01*
X154708500Y-93026563D01*
X154737939Y-93085686D01*
X154872019Y-93263237D01*
X155036437Y-93413124D01*
X155225595Y-93530245D01*
X155225597Y-93530245D01*
X155225599Y-93530247D01*
X155433060Y-93610618D01*
X155651757Y-93651500D01*
X155874241Y-93651500D01*
X155874243Y-93651500D01*
X156092940Y-93610618D01*
X156300401Y-93530247D01*
X156489562Y-93413124D01*
X156593503Y-93318369D01*
X156653980Y-93263237D01*
X156738909Y-93150773D01*
X156782591Y-93114500D01*
X156837863Y-93101500D01*
X158048500Y-93101500D01*
X158110500Y-93118113D01*
X158155887Y-93163500D01*
X158172500Y-93225500D01*
X158172500Y-94673869D01*
X158178909Y-94733484D01*
X158194502Y-94775291D01*
X158229204Y-94868331D01*
X158315454Y-94983546D01*
X158430669Y-95069796D01*
X158565517Y-95120091D01*
X158625127Y-95126500D01*
X160520872Y-95126499D01*
X160580483Y-95120091D01*
X160715331Y-95069796D01*
X160830546Y-94983546D01*
X160916796Y-94868331D01*
X160967091Y-94733483D01*
X160973500Y-94673873D01*
X160973499Y-92778128D01*
X160967091Y-92718517D01*
X160916796Y-92583669D01*
X160830546Y-92468454D01*
X160715331Y-92382204D01*
X160648496Y-92357276D01*
X160635093Y-92352277D01*
X160585558Y-92318261D01*
X160557831Y-92264951D01*
X160558424Y-92204864D01*
X160587196Y-92152114D01*
X160681979Y-92049153D01*
X160808924Y-91854849D01*
X160902157Y-91642300D01*
X160959134Y-91417305D01*
X160978300Y-91186000D01*
X160959134Y-90954695D01*
X160902157Y-90729700D01*
X160808924Y-90517151D01*
X160681979Y-90322847D01*
X160524784Y-90152087D01*
X160341626Y-90009530D01*
X160137503Y-89899064D01*
X160137499Y-89899062D01*
X160137498Y-89899062D01*
X159917984Y-89823702D01*
X159719012Y-89790500D01*
X159689049Y-89785500D01*
X159456951Y-89785500D01*
X159426988Y-89790500D01*
X159228015Y-89823702D01*
X159008501Y-89899062D01*
X158804372Y-90009531D01*
X158621215Y-90152087D01*
X158464020Y-90322848D01*
X158337076Y-90517150D01*
X158243844Y-90729696D01*
X158186865Y-90954700D01*
X158167699Y-91185999D01*
X158186865Y-91417300D01*
X158186865Y-91417303D01*
X158186866Y-91417305D01*
X158201316Y-91474368D01*
X158217031Y-91536425D01*
X158216376Y-91599783D01*
X158184507Y-91654545D01*
X158074874Y-91764180D01*
X158034645Y-91791061D01*
X157987192Y-91800500D01*
X156837863Y-91800500D01*
X156782591Y-91787500D01*
X156738909Y-91751227D01*
X156653980Y-91638762D01*
X156489562Y-91488875D01*
X156300404Y-91371754D01*
X156232286Y-91345365D01*
X156092940Y-91291382D01*
X155874243Y-91250500D01*
X155651757Y-91250500D01*
X155433059Y-91291382D01*
X155433060Y-91291382D01*
X155225595Y-91371754D01*
X155036437Y-91488875D01*
X154872019Y-91638762D01*
X154737941Y-91816311D01*
X154638767Y-92015478D01*
X154638673Y-92015811D01*
X154638238Y-92016541D01*
X154633649Y-92025758D01*
X154632958Y-92025414D01*
X154606130Y-92070498D01*
X154550746Y-92101841D01*
X154487108Y-92101585D01*
X154431979Y-92069796D01*
X154399879Y-92014852D01*
X154398493Y-92009830D01*
X154300829Y-91807027D01*
X154168522Y-91624922D01*
X154005825Y-91469368D01*
X154005822Y-91469366D01*
X154005821Y-91469365D01*
X153817968Y-91345365D01*
X153610987Y-91256896D01*
X153391537Y-91206809D01*
X153166671Y-91196709D01*
X152943611Y-91226925D01*
X152729537Y-91296482D01*
X152720246Y-91301482D01*
X152531319Y-91403148D01*
X152531317Y-91403149D01*
X152531318Y-91403149D01*
X152355335Y-91543490D01*
X152207233Y-91713006D01*
X152091783Y-91906237D01*
X152012693Y-92116974D01*
X151972500Y-92338453D01*
X151972500Y-95145500D01*
X151955887Y-95207500D01*
X151910500Y-95252887D01*
X151848500Y-95269500D01*
X150661117Y-95269500D01*
X150601690Y-95254332D01*
X150556802Y-95212539D01*
X150537433Y-95154346D01*
X150548323Y-95093989D01*
X150586804Y-95046235D01*
X150670546Y-94983546D01*
X150756796Y-94868331D01*
X150807091Y-94733483D01*
X150813500Y-94673873D01*
X150813499Y-92778128D01*
X150807091Y-92718517D01*
X150756796Y-92583669D01*
X150670546Y-92468454D01*
X150555331Y-92382204D01*
X150488496Y-92357276D01*
X150475093Y-92352277D01*
X150425558Y-92318261D01*
X150397831Y-92264951D01*
X150398424Y-92204864D01*
X150427196Y-92152114D01*
X150521979Y-92049153D01*
X150648924Y-91854849D01*
X150742157Y-91642300D01*
X150799134Y-91417305D01*
X150818300Y-91186000D01*
X150799134Y-90954695D01*
X150742157Y-90729700D01*
X150648924Y-90517151D01*
X150521979Y-90322847D01*
X150364784Y-90152087D01*
X150181626Y-90009530D01*
X149977503Y-89899064D01*
X149977499Y-89899062D01*
X149977498Y-89899062D01*
X149757984Y-89823702D01*
X149559012Y-89790500D01*
X149529049Y-89785500D01*
X149296951Y-89785500D01*
X149266988Y-89790500D01*
X149068015Y-89823702D01*
X148848501Y-89899062D01*
X148644372Y-90009531D01*
X148461215Y-90152087D01*
X148304020Y-90322848D01*
X148177076Y-90517150D01*
X148083844Y-90729696D01*
X148026865Y-90954700D01*
X148007699Y-91185999D01*
X148026865Y-91417300D01*
X148026865Y-91417303D01*
X148026866Y-91417305D01*
X148041316Y-91474368D01*
X148057031Y-91536425D01*
X148056376Y-91599783D01*
X148024507Y-91654545D01*
X147914874Y-91764180D01*
X147874645Y-91791061D01*
X147827192Y-91800500D01*
X146677863Y-91800500D01*
X146622591Y-91787500D01*
X146578909Y-91751227D01*
X146493980Y-91638762D01*
X146329562Y-91488875D01*
X146140404Y-91371754D01*
X146072286Y-91345365D01*
X145932940Y-91291382D01*
X145714243Y-91250500D01*
X145491757Y-91250500D01*
X145273059Y-91291382D01*
X145273060Y-91291382D01*
X145065595Y-91371754D01*
X144876437Y-91488875D01*
X144712019Y-91638762D01*
X144577941Y-91816311D01*
X144478769Y-92015473D01*
X144417885Y-92229462D01*
X144397357Y-92451000D01*
X144417885Y-92672537D01*
X144478769Y-92886526D01*
X144577941Y-93085688D01*
X144712019Y-93263237D01*
X144876437Y-93413124D01*
X145065595Y-93530245D01*
X145065597Y-93530245D01*
X145065599Y-93530247D01*
X145273060Y-93610618D01*
X145491757Y-93651500D01*
X145714241Y-93651500D01*
X145714243Y-93651500D01*
X145932940Y-93610618D01*
X146140401Y-93530247D01*
X146329562Y-93413124D01*
X146433503Y-93318369D01*
X146493980Y-93263237D01*
X146578909Y-93150773D01*
X146622591Y-93114500D01*
X146677863Y-93101500D01*
X147888500Y-93101500D01*
X147950500Y-93118113D01*
X147995887Y-93163500D01*
X148012500Y-93225500D01*
X148012500Y-94673869D01*
X148018909Y-94733484D01*
X148034502Y-94775291D01*
X148069204Y-94868331D01*
X148155454Y-94983546D01*
X148239195Y-95046235D01*
X148277677Y-95093989D01*
X148288567Y-95154346D01*
X148269198Y-95212539D01*
X148224310Y-95254332D01*
X148164883Y-95269500D01*
X147712176Y-95269500D01*
X147698293Y-95268720D01*
X147693815Y-95268215D01*
X147663171Y-95264762D01*
X147597077Y-95269219D01*
X147588736Y-95269500D01*
X147578841Y-95269500D01*
X147538237Y-95273153D01*
X147535469Y-95273371D01*
X147438586Y-95279904D01*
X147434344Y-95280973D01*
X147415181Y-95284229D01*
X147410814Y-95284622D01*
X147317147Y-95310471D01*
X147314461Y-95311180D01*
X147220311Y-95334904D01*
X147216328Y-95336714D01*
X147198050Y-95343341D01*
X147193833Y-95344505D01*
X147106323Y-95386646D01*
X147103806Y-95387823D01*
X147015374Y-95427992D01*
X147011774Y-95430486D01*
X146994972Y-95440270D01*
X146991028Y-95442169D01*
X146912461Y-95499250D01*
X146910195Y-95500858D01*
X146830342Y-95556182D01*
X146827242Y-95559282D01*
X146812462Y-95571906D01*
X146808920Y-95574479D01*
X146741803Y-95644677D01*
X146739859Y-95646665D01*
X146113773Y-96272751D01*
X146057401Y-96305052D01*
X145992433Y-96304414D01*
X145936706Y-96271013D01*
X145905518Y-96214017D01*
X145859873Y-96023889D01*
X145763466Y-95791141D01*
X145631836Y-95576341D01*
X145468224Y-95384776D01*
X145276659Y-95221164D01*
X145061859Y-95089534D01*
X144940416Y-95039231D01*
X144829110Y-94993126D01*
X144584149Y-94934317D01*
X144426809Y-94921934D01*
X144333000Y-94914551D01*
X144332999Y-94914551D01*
X144194916Y-94925418D01*
X144129720Y-94912702D01*
X144080441Y-94868163D01*
X144061220Y-94804584D01*
X144059531Y-94729332D01*
X144059500Y-94726551D01*
X144059500Y-92399847D01*
X144055669Y-92357277D01*
X144044377Y-92231812D01*
X143984493Y-92014830D01*
X143886829Y-91812027D01*
X143754522Y-91629922D01*
X143591825Y-91474368D01*
X143591822Y-91474366D01*
X143591821Y-91474365D01*
X143403968Y-91350365D01*
X143196987Y-91261896D01*
X142977537Y-91211809D01*
X142752671Y-91201709D01*
X142529611Y-91231925D01*
X142315537Y-91301482D01*
X142233989Y-91345365D01*
X142117319Y-91408148D01*
X142117317Y-91408149D01*
X142117318Y-91408149D01*
X141941335Y-91548490D01*
X141793233Y-91718006D01*
X141677783Y-91911237D01*
X141598693Y-92121974D01*
X141558500Y-92343453D01*
X141558500Y-94172664D01*
X141549061Y-94220117D01*
X141522181Y-94260345D01*
X140549345Y-95233181D01*
X140509117Y-95260061D01*
X140461664Y-95269500D01*
X140253797Y-95269500D01*
X140194370Y-95254332D01*
X140149482Y-95212540D01*
X140130113Y-95154346D01*
X140141002Y-95093989D01*
X140179486Y-95046233D01*
X140179590Y-95046155D01*
X140256546Y-94988546D01*
X140342796Y-94873331D01*
X140393091Y-94738483D01*
X140399500Y-94678873D01*
X140399499Y-92783128D01*
X140393091Y-92723517D01*
X140342796Y-92588669D01*
X140256546Y-92473454D01*
X140141331Y-92387204D01*
X140088357Y-92367446D01*
X140061093Y-92357277D01*
X140011558Y-92323261D01*
X139983831Y-92269951D01*
X139984424Y-92209864D01*
X140013196Y-92157114D01*
X140107979Y-92054153D01*
X140234924Y-91859849D01*
X140328157Y-91647300D01*
X140385134Y-91422305D01*
X140404300Y-91191000D01*
X140385134Y-90959695D01*
X140328157Y-90734700D01*
X140234924Y-90522151D01*
X140107979Y-90327847D01*
X139950784Y-90157087D01*
X139767626Y-90014530D01*
X139563503Y-89904064D01*
X139563499Y-89904062D01*
X139563498Y-89904062D01*
X139343984Y-89828702D01*
X139172281Y-89800050D01*
X139115049Y-89790500D01*
X138882951Y-89790500D01*
X138837164Y-89798140D01*
X138654015Y-89828702D01*
X138434501Y-89904062D01*
X138230372Y-90014531D01*
X138047215Y-90157087D01*
X137890020Y-90327848D01*
X137763076Y-90522150D01*
X137669844Y-90734696D01*
X137612865Y-90959700D01*
X137593699Y-91190999D01*
X137612865Y-91422300D01*
X137643031Y-91541425D01*
X137642376Y-91604783D01*
X137610507Y-91659545D01*
X137500874Y-91769180D01*
X137460645Y-91796061D01*
X137413192Y-91805500D01*
X136263863Y-91805500D01*
X136208591Y-91792500D01*
X136164909Y-91756227D01*
X136079980Y-91643762D01*
X135915562Y-91493875D01*
X135726404Y-91376754D01*
X135645379Y-91345365D01*
X135518940Y-91296382D01*
X135300243Y-91255500D01*
X135077757Y-91255500D01*
X134859060Y-91296381D01*
X134859060Y-91296382D01*
X134651595Y-91376754D01*
X134462437Y-91493875D01*
X134298019Y-91643762D01*
X134174933Y-91806756D01*
X134130737Y-91843283D01*
X134074833Y-91856024D01*
X134019174Y-91842253D01*
X133975661Y-91804914D01*
X133972454Y-91800500D01*
X133848522Y-91629922D01*
X133685825Y-91474368D01*
X133685822Y-91474366D01*
X133685821Y-91474365D01*
X133497968Y-91350365D01*
X133290987Y-91261896D01*
X133071537Y-91211809D01*
X132846671Y-91201709D01*
X132623611Y-91231925D01*
X132409537Y-91301482D01*
X132327989Y-91345365D01*
X132211319Y-91408148D01*
X132211317Y-91408149D01*
X132211318Y-91408149D01*
X132035335Y-91548490D01*
X131887233Y-91718006D01*
X131771783Y-91911237D01*
X131692693Y-92121974D01*
X131652500Y-92343453D01*
X131652500Y-95145500D01*
X131635887Y-95207500D01*
X131590500Y-95252887D01*
X131528500Y-95269500D01*
X130347797Y-95269500D01*
X130288370Y-95254332D01*
X130243482Y-95212540D01*
X130224113Y-95154346D01*
X130235002Y-95093989D01*
X130273486Y-95046233D01*
X130273590Y-95046155D01*
X130350546Y-94988546D01*
X130436796Y-94873331D01*
X130487091Y-94738483D01*
X130493500Y-94678873D01*
X130493499Y-92783128D01*
X130487091Y-92723517D01*
X130436796Y-92588669D01*
X130350546Y-92473454D01*
X130235331Y-92387204D01*
X130182357Y-92367446D01*
X130155093Y-92357277D01*
X130105558Y-92323261D01*
X130077831Y-92269951D01*
X130078424Y-92209864D01*
X130107196Y-92157114D01*
X130201979Y-92054153D01*
X130328924Y-91859849D01*
X130422157Y-91647300D01*
X130479134Y-91422305D01*
X130498300Y-91191000D01*
X130479134Y-90959695D01*
X130422157Y-90734700D01*
X130328924Y-90522151D01*
X130201979Y-90327847D01*
X130044784Y-90157087D01*
X129861626Y-90014530D01*
X129657503Y-89904064D01*
X129657499Y-89904062D01*
X129657498Y-89904062D01*
X129437984Y-89828702D01*
X129266281Y-89800050D01*
X129209049Y-89790500D01*
X128976951Y-89790500D01*
X128931164Y-89798140D01*
X128748015Y-89828702D01*
X128528501Y-89904062D01*
X128324372Y-90014531D01*
X128141215Y-90157087D01*
X127984020Y-90327848D01*
X127857076Y-90522150D01*
X127763844Y-90734696D01*
X127706865Y-90959700D01*
X127687699Y-91190999D01*
X127706865Y-91422300D01*
X127737031Y-91541425D01*
X127736376Y-91604783D01*
X127704507Y-91659545D01*
X127594874Y-91769180D01*
X127554645Y-91796061D01*
X127507192Y-91805500D01*
X126357863Y-91805500D01*
X126302591Y-91792500D01*
X126258909Y-91756227D01*
X126173980Y-91643762D01*
X126009562Y-91493875D01*
X125820404Y-91376754D01*
X125739379Y-91345365D01*
X125612940Y-91296382D01*
X125394243Y-91255500D01*
X125171757Y-91255500D01*
X124953060Y-91296381D01*
X124953060Y-91296382D01*
X124745595Y-91376754D01*
X124556437Y-91493875D01*
X124392019Y-91643762D01*
X124257939Y-91821313D01*
X124228500Y-91880437D01*
X124184715Y-91929369D01*
X124122082Y-91949081D01*
X124058165Y-91934048D01*
X124010885Y-91888484D01*
X123993500Y-91825166D01*
X123993500Y-87114000D01*
X127620441Y-87114000D01*
X127649781Y-87199462D01*
X127764348Y-87411164D01*
X127912201Y-87601126D01*
X128089292Y-87764151D01*
X128290819Y-87895815D01*
X128511257Y-87992507D01*
X128532000Y-87997761D01*
X128532000Y-87114000D01*
X129532000Y-87114000D01*
X129532000Y-87997761D01*
X129552742Y-87992507D01*
X129773180Y-87895815D01*
X129974707Y-87764151D01*
X130151798Y-87601126D01*
X130299651Y-87411164D01*
X130414218Y-87199462D01*
X130443559Y-87114000D01*
X134478441Y-87114000D01*
X134507781Y-87199462D01*
X134622348Y-87411164D01*
X134770201Y-87601126D01*
X134947292Y-87764151D01*
X135148819Y-87895815D01*
X135369257Y-87992507D01*
X135390000Y-87997761D01*
X135390000Y-87114000D01*
X136390000Y-87114000D01*
X136390000Y-87997761D01*
X136410742Y-87992507D01*
X136631180Y-87895815D01*
X136832707Y-87764151D01*
X137009798Y-87601126D01*
X137157651Y-87411164D01*
X137272218Y-87199462D01*
X137301559Y-87114000D01*
X141336441Y-87114000D01*
X141365781Y-87199462D01*
X141480348Y-87411164D01*
X141628201Y-87601126D01*
X141805292Y-87764151D01*
X142006819Y-87895815D01*
X142227257Y-87992507D01*
X142248000Y-87997761D01*
X142248000Y-87114000D01*
X143248000Y-87114000D01*
X143248000Y-87997761D01*
X143268742Y-87992507D01*
X143489180Y-87895815D01*
X143690707Y-87764151D01*
X143867798Y-87601126D01*
X144015651Y-87411164D01*
X144130218Y-87199462D01*
X144159559Y-87114000D01*
X148194441Y-87114000D01*
X148223781Y-87199462D01*
X148338348Y-87411164D01*
X148486201Y-87601126D01*
X148663292Y-87764151D01*
X148864819Y-87895815D01*
X149085257Y-87992507D01*
X149106000Y-87997761D01*
X149106000Y-87114000D01*
X150106000Y-87114000D01*
X150106000Y-87997761D01*
X150126742Y-87992507D01*
X150347180Y-87895815D01*
X150548707Y-87764151D01*
X150725798Y-87601126D01*
X150873651Y-87411164D01*
X150988218Y-87199462D01*
X151017559Y-87114000D01*
X155052441Y-87114000D01*
X155081781Y-87199462D01*
X155196348Y-87411164D01*
X155344201Y-87601126D01*
X155521292Y-87764151D01*
X155722819Y-87895815D01*
X155943257Y-87992507D01*
X155964000Y-87997761D01*
X155964000Y-87114000D01*
X156964000Y-87114000D01*
X156964000Y-87997761D01*
X156984742Y-87992507D01*
X157205180Y-87895815D01*
X157406707Y-87764151D01*
X157583798Y-87601126D01*
X157731651Y-87411164D01*
X157846218Y-87199462D01*
X157875559Y-87114000D01*
X161910441Y-87114000D01*
X161939781Y-87199462D01*
X162054348Y-87411164D01*
X162202201Y-87601126D01*
X162379292Y-87764151D01*
X162580819Y-87895815D01*
X162801257Y-87992507D01*
X162822000Y-87997761D01*
X162822000Y-87114000D01*
X163822000Y-87114000D01*
X163822000Y-87997761D01*
X163842742Y-87992507D01*
X164063180Y-87895815D01*
X164264707Y-87764151D01*
X164441798Y-87601126D01*
X164589651Y-87411164D01*
X164704218Y-87199462D01*
X164733559Y-87114000D01*
X168768441Y-87114000D01*
X168797781Y-87199462D01*
X168912348Y-87411164D01*
X169060201Y-87601126D01*
X169237292Y-87764151D01*
X169438819Y-87895815D01*
X169659257Y-87992507D01*
X169680000Y-87997761D01*
X169680000Y-87114000D01*
X170680000Y-87114000D01*
X170680000Y-87997761D01*
X170700742Y-87992507D01*
X170921180Y-87895815D01*
X171122707Y-87764151D01*
X171299798Y-87601126D01*
X171447651Y-87411164D01*
X171562218Y-87199462D01*
X171591559Y-87114000D01*
X175626441Y-87114000D01*
X175655781Y-87199462D01*
X175770348Y-87411164D01*
X175918201Y-87601126D01*
X176095292Y-87764151D01*
X176296819Y-87895815D01*
X176517257Y-87992507D01*
X176538000Y-87997761D01*
X176538000Y-87114000D01*
X177538000Y-87114000D01*
X177538000Y-87997761D01*
X177558742Y-87992507D01*
X177779180Y-87895815D01*
X177886040Y-87826000D01*
X189120447Y-87826000D01*
X189168267Y-87945005D01*
X189290543Y-88143594D01*
X189444618Y-88318657D01*
X189626057Y-88465160D01*
X189829655Y-88578896D01*
X190049544Y-88656588D01*
X190121000Y-88668840D01*
X190121000Y-87826000D01*
X191121000Y-87826000D01*
X191121000Y-88670075D01*
X191304053Y-88622412D01*
X191516557Y-88526353D01*
X191709772Y-88395763D01*
X191878139Y-88234396D01*
X192016812Y-88046898D01*
X192121803Y-87838660D01*
X192125680Y-87826000D01*
X191121000Y-87826000D01*
X190121000Y-87826000D01*
X189120447Y-87826000D01*
X177886040Y-87826000D01*
X177980707Y-87764151D01*
X178157798Y-87601126D01*
X178305651Y-87411164D01*
X178420218Y-87199462D01*
X178449559Y-87114000D01*
X177538000Y-87114000D01*
X176538000Y-87114000D01*
X175626441Y-87114000D01*
X171591559Y-87114000D01*
X170680000Y-87114000D01*
X169680000Y-87114000D01*
X168768441Y-87114000D01*
X164733559Y-87114000D01*
X163822000Y-87114000D01*
X162822000Y-87114000D01*
X161910441Y-87114000D01*
X157875559Y-87114000D01*
X156964000Y-87114000D01*
X155964000Y-87114000D01*
X155052441Y-87114000D01*
X151017559Y-87114000D01*
X150106000Y-87114000D01*
X149106000Y-87114000D01*
X148194441Y-87114000D01*
X144159559Y-87114000D01*
X143248000Y-87114000D01*
X142248000Y-87114000D01*
X141336441Y-87114000D01*
X137301559Y-87114000D01*
X136390000Y-87114000D01*
X135390000Y-87114000D01*
X134478441Y-87114000D01*
X130443559Y-87114000D01*
X129532000Y-87114000D01*
X128532000Y-87114000D01*
X127620441Y-87114000D01*
X123993500Y-87114000D01*
X123993500Y-73187105D01*
X123994280Y-73173220D01*
X123997516Y-73144504D01*
X123998238Y-73138092D01*
X123993781Y-73071982D01*
X123993500Y-73063641D01*
X123993500Y-73053767D01*
X123993500Y-73053764D01*
X123989844Y-73013143D01*
X123989630Y-73010417D01*
X123987862Y-72984193D01*
X123983097Y-72913507D01*
X123982028Y-72909265D01*
X123978768Y-72890074D01*
X123978377Y-72885733D01*
X123978377Y-72885731D01*
X123952513Y-72792019D01*
X123951855Y-72789528D01*
X123928096Y-72695236D01*
X123926285Y-72691250D01*
X123919656Y-72672965D01*
X123918493Y-72668749D01*
X123876332Y-72581202D01*
X123875181Y-72578742D01*
X123835007Y-72490294D01*
X123832519Y-72486703D01*
X123822723Y-72469880D01*
X123822450Y-72469313D01*
X123820829Y-72465946D01*
X123763706Y-72387323D01*
X123762128Y-72385099D01*
X123759725Y-72381631D01*
X123706820Y-72305265D01*
X123703734Y-72302179D01*
X123691091Y-72287377D01*
X123688522Y-72283841D01*
X123618299Y-72216701D01*
X123616310Y-72214755D01*
X120117897Y-68716342D01*
X120108631Y-68705974D01*
X120086587Y-68678332D01*
X120036684Y-68634732D01*
X120030588Y-68629033D01*
X120023608Y-68622053D01*
X119992336Y-68595945D01*
X119990221Y-68594139D01*
X119948649Y-68557819D01*
X119917077Y-68530235D01*
X119913317Y-68527988D01*
X119897451Y-68516730D01*
X119894099Y-68513931D01*
X119809629Y-68466001D01*
X119807226Y-68464601D01*
X119723846Y-68414785D01*
X119719752Y-68413249D01*
X119702127Y-68405003D01*
X119698326Y-68402847D01*
X119698325Y-68402846D01*
X119698324Y-68402846D01*
X119606649Y-68370767D01*
X119604035Y-68369819D01*
X119513109Y-68335694D01*
X119513106Y-68335693D01*
X119513105Y-68335693D01*
X119508802Y-68334911D01*
X119489998Y-68329948D01*
X119485863Y-68328501D01*
X119389928Y-68313306D01*
X119387186Y-68312840D01*
X119340627Y-68304391D01*
X119284029Y-68278177D01*
X119247354Y-68227723D01*
X119239882Y-68165798D01*
X119263501Y-68108075D01*
X119270796Y-68098331D01*
X119321091Y-67963483D01*
X119327500Y-67903873D01*
X119327499Y-66108128D01*
X119321091Y-66048517D01*
X119270796Y-65913669D01*
X119184546Y-65798454D01*
X119069331Y-65712204D01*
X118934483Y-65661909D01*
X118874873Y-65655500D01*
X118874869Y-65655500D01*
X117796807Y-65655500D01*
X117740512Y-65641985D01*
X117696489Y-65604385D01*
X117674334Y-65550898D01*
X117678876Y-65493182D01*
X117709126Y-65443819D01*
X118431631Y-64721315D01*
X119275626Y-63877319D01*
X119315855Y-63850439D01*
X119363308Y-63841000D01*
X128006376Y-63841000D01*
X128072086Y-63859842D01*
G37*
G04 #@! TD.AperFunction*
G04 #@! TA.AperFunction,Conductor*
G36*
X192024634Y-71533275D02*
G01*
X192071178Y-71562572D01*
X192576181Y-72067575D01*
X192603061Y-72107803D01*
X192612500Y-72155256D01*
X192612500Y-75398192D01*
X192598985Y-75454487D01*
X192561385Y-75498510D01*
X192507898Y-75520665D01*
X192450182Y-75516123D01*
X192400819Y-75485873D01*
X192341434Y-75426488D01*
X192328091Y-75409833D01*
X192275166Y-75360134D01*
X192272369Y-75357423D01*
X192252034Y-75337088D01*
X192248547Y-75334383D01*
X192239671Y-75326801D01*
X192206394Y-75295552D01*
X192187793Y-75285326D01*
X192171532Y-75274645D01*
X192154764Y-75261638D01*
X192112870Y-75243508D01*
X192102379Y-75238369D01*
X192051107Y-75210182D01*
X192015960Y-75192274D01*
X191982802Y-75149527D01*
X191979426Y-75134426D01*
X191971000Y-75126000D01*
X190245000Y-75126000D01*
X190183000Y-75109387D01*
X190137613Y-75064000D01*
X190121000Y-75002000D01*
X190121000Y-72586000D01*
X191121000Y-72586000D01*
X191121000Y-74126000D01*
X191971000Y-74126000D01*
X191971000Y-73728176D01*
X191964597Y-73668624D01*
X191914352Y-73533910D01*
X191828188Y-73418811D01*
X191713088Y-73332647D01*
X191581012Y-73283385D01*
X191530633Y-73248405D01*
X191503180Y-73193561D01*
X191505369Y-73132268D01*
X191536665Y-73079521D01*
X191659109Y-72957077D01*
X191794600Y-72763576D01*
X191877406Y-72586000D01*
X191121000Y-72586000D01*
X190121000Y-72586000D01*
X190121000Y-71710000D01*
X190137613Y-71648000D01*
X190183000Y-71602613D01*
X190245000Y-71586000D01*
X191877406Y-71586000D01*
X191878916Y-71583629D01*
X191918016Y-71544953D01*
X191969997Y-71526990D01*
X192024634Y-71533275D01*
G37*
G04 #@! TD.AperFunction*
G04 #@! TA.AperFunction,Conductor*
G36*
X116860857Y-72872742D02*
G01*
X116908074Y-72913069D01*
X116938889Y-72957077D01*
X117105918Y-73124106D01*
X117292031Y-73254425D01*
X117330896Y-73298743D01*
X117344907Y-73356000D01*
X117330896Y-73413257D01*
X117292031Y-73457575D01*
X117105918Y-73587893D01*
X116938890Y-73754921D01*
X116908075Y-73798931D01*
X116860858Y-73839258D01*
X116800011Y-73851638D01*
X116740790Y-73832966D01*
X116698047Y-73787924D01*
X116682500Y-73727808D01*
X116682500Y-72984193D01*
X116698047Y-72924077D01*
X116740790Y-72879035D01*
X116800010Y-72860363D01*
X116860857Y-72872742D01*
G37*
G04 #@! TD.AperFunction*
G04 #@! TA.AperFunction,Conductor*
G36*
X153736000Y-66029613D02*
G01*
X153781387Y-66075000D01*
X153798000Y-66137000D01*
X153798000Y-68114237D01*
X153950480Y-68043134D01*
X154136819Y-67912658D01*
X154297658Y-67751819D01*
X154428135Y-67565479D01*
X154455342Y-67507135D01*
X154501098Y-67454959D01*
X154567723Y-67435539D01*
X154634348Y-67454958D01*
X154680105Y-67507132D01*
X154707431Y-67565731D01*
X154707433Y-67565736D01*
X154837953Y-67752140D01*
X154998859Y-67913046D01*
X155185264Y-68043567D01*
X155185265Y-68043567D01*
X155185266Y-68043568D01*
X155391504Y-68139739D01*
X155611308Y-68198635D01*
X155838000Y-68218468D01*
X156064692Y-68198635D01*
X156284496Y-68139739D01*
X156490734Y-68043568D01*
X156677139Y-67913047D01*
X156838047Y-67752139D01*
X156968568Y-67565734D01*
X156995618Y-67507724D01*
X157041375Y-67455549D01*
X157108000Y-67436129D01*
X157174625Y-67455549D01*
X157220382Y-67507725D01*
X157247431Y-67565733D01*
X157377953Y-67752140D01*
X157538859Y-67913046D01*
X157725264Y-68043567D01*
X157725265Y-68043567D01*
X157725266Y-68043568D01*
X157931504Y-68139739D01*
X158025399Y-68164898D01*
X158070915Y-68177094D01*
X158126502Y-68209188D01*
X158158596Y-68264775D01*
X158158596Y-68328963D01*
X158126502Y-68384550D01*
X153983409Y-72527643D01*
X153941510Y-72555201D01*
X153892122Y-72563910D01*
X153843324Y-72552345D01*
X153794855Y-72529744D01*
X153744496Y-72506261D01*
X153583586Y-72463145D01*
X153524689Y-72447364D01*
X153298000Y-72427531D01*
X153071310Y-72447364D01*
X152851502Y-72506261D01*
X152645265Y-72602432D01*
X152453150Y-72736950D01*
X152399999Y-72758065D01*
X152343024Y-72753080D01*
X152294347Y-72723055D01*
X147989604Y-68418312D01*
X147958703Y-68366885D01*
X147955563Y-68306971D01*
X147980919Y-68252595D01*
X148028834Y-68216488D01*
X148088092Y-68207103D01*
X148218000Y-68218468D01*
X148444692Y-68198635D01*
X148664496Y-68139739D01*
X148870734Y-68043568D01*
X149057139Y-67913047D01*
X149218047Y-67752139D01*
X149348568Y-67565734D01*
X149375618Y-67507724D01*
X149421375Y-67455549D01*
X149488000Y-67436129D01*
X149554625Y-67455549D01*
X149600382Y-67507725D01*
X149627431Y-67565733D01*
X149757953Y-67752140D01*
X149918859Y-67913046D01*
X150105264Y-68043567D01*
X150105265Y-68043567D01*
X150105266Y-68043568D01*
X150311504Y-68139739D01*
X150531308Y-68198635D01*
X150758000Y-68218468D01*
X150984692Y-68198635D01*
X151204496Y-68139739D01*
X151410734Y-68043568D01*
X151597139Y-67913047D01*
X151758047Y-67752139D01*
X151888568Y-67565734D01*
X151915893Y-67507134D01*
X151961649Y-67454959D01*
X152028274Y-67435539D01*
X152094899Y-67454958D01*
X152140657Y-67507133D01*
X152167866Y-67565482D01*
X152298341Y-67751819D01*
X152459180Y-67912658D01*
X152645519Y-68043134D01*
X152797999Y-68114237D01*
X152798000Y-68114238D01*
X152798000Y-66137000D01*
X152814613Y-66075000D01*
X152860000Y-66029613D01*
X152922000Y-66013000D01*
X153674000Y-66013000D01*
X153736000Y-66029613D01*
G37*
G04 #@! TD.AperFunction*
M02*
