M48
; DRILL file {KiCad 7.0.1} date Wed Jul  5 13:59:50 2023
; FORMAT={-:-/ absolute / metric / decimal}
; #@! TF.CreationDate,2023-07-05T13:59:50-05:00
; #@! TF.GenerationSoftware,Kicad,Pcbnew,7.0.1
; #@! TF.FileFunction,Plated,1,2,PTH
FMAT,2
METRIC
; #@! TA.AperFunction,Plated,PTH,ViaDrill
T1C0.400
; #@! TA.AperFunction,Plated,PTH,ComponentDrill
T2C0.700
; #@! TA.AperFunction,Plated,PTH,ComponentDrill
T3C0.800
; #@! TA.AperFunction,Plated,PTH,ComponentDrill
T4C0.900
; #@! TA.AperFunction,Plated,PTH,ComponentDrill
T5C1.000
; #@! TA.AperFunction,Plated,PTH,ComponentDrill
T6C1.100
; #@! TA.AperFunction,Plated,PTH,ComponentDrill
T7C1.190
%
G90
G05
T1
X129.032Y-64.008
X130.257Y-64.65
X142.748Y-63.191
T2
X115.123Y-92.456
X122.743Y-92.456
X125.283Y-92.456
X132.903Y-92.456
X133.68Y-66.091
X133.68Y-73.711
X135.189Y-92.456
X135.966Y-66.091
X135.966Y-73.711
X138.252Y-66.091
X138.252Y-73.711
X140.538Y-66.091
X140.538Y-73.711
X142.809Y-92.456
X142.869Y-65.99
X142.869Y-73.61
X145.603Y-92.451
X153.223Y-92.451
X155.763Y-92.451
X163.383Y-92.451
X165.923Y-92.456
X173.05Y-65.837
X173.05Y-73.457
X173.543Y-92.456
X175.59Y-65.837
X175.59Y-73.457
X176.337Y-92.456
X178.13Y-65.837
X178.13Y-73.457
X180.67Y-65.837
X180.67Y-73.457
X183.957Y-92.456
X186.243Y-92.456
X193.863Y-92.456
T3
X145.678Y-66.513
X145.678Y-74.133
X148.218Y-66.513
X148.218Y-74.133
X150.758Y-66.513
X150.758Y-74.133
X151.993Y-77.216
X153.298Y-66.513
X153.298Y-74.133
X155.838Y-66.513
X155.838Y-74.133
X156.993Y-77.216
X158.378Y-66.513
X158.378Y-74.133
X160.918Y-66.513
X160.918Y-74.133
X163.458Y-66.513
X163.458Y-74.133
X166.745Y-66.07
X166.745Y-71.07
T4
X118.933Y-91.191
X118.933Y-93.731
X129.093Y-91.191
X129.093Y-93.731
X138.999Y-91.191
X138.999Y-93.731
X149.413Y-91.186
X149.413Y-93.726
X159.573Y-91.186
X159.573Y-93.726
X169.733Y-91.191
X169.733Y-93.731
X180.147Y-91.191
X180.147Y-93.731
X190.053Y-91.191
X190.053Y-93.731
T5
X117.977Y-67.006
X117.977Y-69.546
X117.977Y-72.086
X117.977Y-74.626
X121.473Y-106.934
X131.633Y-106.934
X141.793Y-106.934
X151.953Y-106.934
X162.113Y-106.934
X172.273Y-106.934
X182.433Y-106.934
X190.621Y-67.006
X190.621Y-69.546
X190.621Y-72.086
X190.621Y-74.626
X192.593Y-106.934
T6
X116.393Y-99.822
X124.013Y-96.52
X126.553Y-99.822
X129.032Y-81.534
X129.032Y-84.074
X129.032Y-86.614
X134.173Y-96.52
X134.173Y-99.822
X135.89Y-81.534
X135.89Y-84.074
X135.89Y-86.614
X142.748Y-81.534
X142.748Y-84.074
X142.748Y-86.614
X144.333Y-96.52
X144.333Y-99.822
X149.606Y-81.534
X149.606Y-84.074
X149.606Y-86.614
X154.493Y-96.52
X154.493Y-99.822
X156.464Y-81.534
X156.464Y-84.074
X156.464Y-86.614
X163.322Y-81.534
X163.322Y-84.074
X163.322Y-86.614
X163.637Y-96.52
X164.653Y-99.822
X170.047Y-66.284
X170.047Y-73.904
X170.18Y-81.534
X170.18Y-84.074
X170.18Y-86.614
X173.797Y-96.52
X174.813Y-99.822
X177.038Y-81.534
X177.038Y-84.074
X177.038Y-86.614
X182.433Y-96.52
X184.973Y-99.822
X192.593Y-96.52
T7
X116.393Y-106.934
X117.977Y-77.166
X117.977Y-79.706
X117.977Y-82.246
X117.977Y-84.786
X117.977Y-87.326
X118.933Y-106.934
X126.553Y-106.934
X129.093Y-106.934
X136.713Y-106.914
X139.253Y-106.914
X146.873Y-106.934
X149.413Y-106.934
X157.033Y-106.934
X159.573Y-106.934
X167.193Y-106.934
X169.733Y-106.934
X177.353Y-106.934
X179.893Y-106.934
X187.513Y-106.934
X190.053Y-106.934
X190.621Y-77.166
X190.621Y-79.706
X190.621Y-82.246
X190.621Y-84.786
X190.621Y-87.326
T0
M30
