%TF.GenerationSoftware,KiCad,Pcbnew,7.0.1*%
%TF.CreationDate,2023-07-05T13:49:58-05:00*%
%TF.ProjectId,pn5180 cat5 connector with linear regulator,706e3531-3830-4206-9361-743520636f6e,rev?*%
%TF.SameCoordinates,Original*%
%TF.FileFunction,Drillmap*%
%TF.FilePolarity,Positive*%
%FSLAX45Y45*%
G04 Gerber Fmt 4.5, Leading zero omitted, Abs format (unit mm)*
G04 Created by KiCad (PCBNEW 7.0.1) date 2023-07-05 13:49:58*
%MOMM*%
%LPD*%
G01*
G04 APERTURE LIST*
%ADD10C,0.100000*%
%ADD11C,0.200000*%
%ADD12C,0.080000*%
%ADD13C,0.090000*%
%ADD14C,0.160000*%
G04 APERTURE END LIST*
D10*
X13131800Y-7670800D02*
X15671800Y-7670800D01*
X15671800Y-10109200D01*
X13131800Y-10109200D01*
X13131800Y-7670800D01*
D11*
D12*
X13485500Y-7846700D02*
X13565500Y-7926700D01*
X13565500Y-7846700D02*
X13485500Y-7926700D01*
X13985500Y-7846700D02*
X14065500Y-7926700D01*
X14065500Y-7846700D02*
X13985500Y-7926700D01*
X14205400Y-7846700D02*
X14285400Y-7926700D01*
X14285400Y-7846700D02*
X14205400Y-7926700D01*
X14705400Y-7846700D02*
X14785400Y-7926700D01*
X14785400Y-7846700D02*
X14705400Y-7926700D01*
D13*
X14637300Y-8597900D02*
G75*
G03*
X14637300Y-8597900I-45000J0D01*
G01*
X14637300Y-8851900D02*
G75*
G03*
X14637300Y-8851900I-45000J0D01*
G01*
X14637300Y-9105900D02*
G75*
G03*
X14637300Y-9105900I-45000J0D01*
G01*
X14637300Y-9359900D02*
G75*
G03*
X14637300Y-9359900I-45000J0D01*
G01*
X14891300Y-8724900D02*
G75*
G03*
X14891300Y-8724900I-45000J0D01*
G01*
X14891300Y-8978900D02*
G75*
G03*
X14891300Y-8978900I-45000J0D01*
G01*
X14891300Y-9232900D02*
G75*
G03*
X14891300Y-9232900I-45000J0D01*
G01*
X14891300Y-9486900D02*
G75*
G03*
X14891300Y-9486900I-45000J0D01*
G01*
D10*
X15534600Y-7837700D02*
X15534600Y-7937700D01*
X15484600Y-7887700D02*
X15584600Y-7887700D01*
X15534600Y-8091700D02*
X15534600Y-8191700D01*
X15484600Y-8141700D02*
X15584600Y-8141700D01*
X15534600Y-8345700D02*
X15534600Y-8445700D01*
X15484600Y-8395700D02*
X15584600Y-8395700D01*
X15534600Y-8599700D02*
X15534600Y-8699700D01*
X15484600Y-8649700D02*
X15584600Y-8649700D01*
X15534600Y-8853700D02*
X15534600Y-8953700D01*
X15484600Y-8903700D02*
X15584600Y-8903700D01*
X15534600Y-9107700D02*
X15534600Y-9207700D01*
X15484600Y-9157700D02*
X15584600Y-9157700D01*
X15534600Y-9361700D02*
X15534600Y-9461700D01*
X15484600Y-9411700D02*
X15584600Y-9411700D01*
X15534600Y-9615700D02*
X15534600Y-9715700D01*
X15484600Y-9665700D02*
X15584600Y-9665700D01*
X15534600Y-9869700D02*
X15534600Y-9969700D01*
X15484600Y-9919700D02*
X15584600Y-9919700D01*
D14*
X13708869Y-8321969D02*
X13708869Y-8208831D01*
X13595731Y-8208831D01*
X13595731Y-8321969D01*
X13708869Y-8321969D01*
X13708869Y-9875969D02*
X13708869Y-9762831D01*
X13595731Y-9762831D01*
X13595731Y-9875969D01*
X13708869Y-9875969D01*
D11*
X13374419Y-10426724D02*
X13374419Y-10226724D01*
X13374419Y-10226724D02*
X13422038Y-10226724D01*
X13422038Y-10226724D02*
X13450609Y-10236248D01*
X13450609Y-10236248D02*
X13469657Y-10255295D01*
X13469657Y-10255295D02*
X13479181Y-10274343D01*
X13479181Y-10274343D02*
X13488705Y-10312438D01*
X13488705Y-10312438D02*
X13488705Y-10341010D01*
X13488705Y-10341010D02*
X13479181Y-10379105D01*
X13479181Y-10379105D02*
X13469657Y-10398152D01*
X13469657Y-10398152D02*
X13450609Y-10417200D01*
X13450609Y-10417200D02*
X13422038Y-10426724D01*
X13422038Y-10426724D02*
X13374419Y-10426724D01*
X13574419Y-10426724D02*
X13574419Y-10293390D01*
X13574419Y-10331486D02*
X13583943Y-10312438D01*
X13583943Y-10312438D02*
X13593467Y-10302914D01*
X13593467Y-10302914D02*
X13612514Y-10293390D01*
X13612514Y-10293390D02*
X13631562Y-10293390D01*
X13698228Y-10426724D02*
X13698228Y-10293390D01*
X13698228Y-10226724D02*
X13688705Y-10236248D01*
X13688705Y-10236248D02*
X13698228Y-10245771D01*
X13698228Y-10245771D02*
X13707752Y-10236248D01*
X13707752Y-10236248D02*
X13698228Y-10226724D01*
X13698228Y-10226724D02*
X13698228Y-10245771D01*
X13822038Y-10426724D02*
X13802990Y-10417200D01*
X13802990Y-10417200D02*
X13793467Y-10398152D01*
X13793467Y-10398152D02*
X13793467Y-10226724D01*
X13926800Y-10426724D02*
X13907752Y-10417200D01*
X13907752Y-10417200D02*
X13898228Y-10398152D01*
X13898228Y-10398152D02*
X13898228Y-10226724D01*
X14155371Y-10426724D02*
X14155371Y-10226724D01*
X14155371Y-10226724D02*
X14222038Y-10369581D01*
X14222038Y-10369581D02*
X14288705Y-10226724D01*
X14288705Y-10226724D02*
X14288705Y-10426724D01*
X14469657Y-10426724D02*
X14469657Y-10321962D01*
X14469657Y-10321962D02*
X14460133Y-10302914D01*
X14460133Y-10302914D02*
X14441086Y-10293390D01*
X14441086Y-10293390D02*
X14402990Y-10293390D01*
X14402990Y-10293390D02*
X14383943Y-10302914D01*
X14469657Y-10417200D02*
X14450609Y-10426724D01*
X14450609Y-10426724D02*
X14402990Y-10426724D01*
X14402990Y-10426724D02*
X14383943Y-10417200D01*
X14383943Y-10417200D02*
X14374419Y-10398152D01*
X14374419Y-10398152D02*
X14374419Y-10379105D01*
X14374419Y-10379105D02*
X14383943Y-10360057D01*
X14383943Y-10360057D02*
X14402990Y-10350533D01*
X14402990Y-10350533D02*
X14450609Y-10350533D01*
X14450609Y-10350533D02*
X14469657Y-10341010D01*
X14564895Y-10293390D02*
X14564895Y-10493390D01*
X14564895Y-10302914D02*
X14583943Y-10293390D01*
X14583943Y-10293390D02*
X14622038Y-10293390D01*
X14622038Y-10293390D02*
X14641086Y-10302914D01*
X14641086Y-10302914D02*
X14650609Y-10312438D01*
X14650609Y-10312438D02*
X14660133Y-10331486D01*
X14660133Y-10331486D02*
X14660133Y-10388629D01*
X14660133Y-10388629D02*
X14650609Y-10407676D01*
X14650609Y-10407676D02*
X14641086Y-10417200D01*
X14641086Y-10417200D02*
X14622038Y-10426724D01*
X14622038Y-10426724D02*
X14583943Y-10426724D01*
X14583943Y-10426724D02*
X14564895Y-10417200D01*
X14745848Y-10407676D02*
X14755371Y-10417200D01*
X14755371Y-10417200D02*
X14745848Y-10426724D01*
X14745848Y-10426724D02*
X14736324Y-10417200D01*
X14736324Y-10417200D02*
X14745848Y-10407676D01*
X14745848Y-10407676D02*
X14745848Y-10426724D01*
X14745848Y-10302914D02*
X14755371Y-10312438D01*
X14755371Y-10312438D02*
X14745848Y-10321962D01*
X14745848Y-10321962D02*
X14736324Y-10312438D01*
X14736324Y-10312438D02*
X14745848Y-10302914D01*
X14745848Y-10302914D02*
X14745848Y-10321962D01*
D12*
X13046800Y-10714200D02*
X13126800Y-10794200D01*
X13126800Y-10714200D02*
X13046800Y-10794200D01*
D11*
X13412514Y-10646724D02*
X13431562Y-10646724D01*
X13431562Y-10646724D02*
X13450609Y-10656248D01*
X13450609Y-10656248D02*
X13460133Y-10665771D01*
X13460133Y-10665771D02*
X13469657Y-10684819D01*
X13469657Y-10684819D02*
X13479181Y-10722914D01*
X13479181Y-10722914D02*
X13479181Y-10770533D01*
X13479181Y-10770533D02*
X13469657Y-10808629D01*
X13469657Y-10808629D02*
X13460133Y-10827676D01*
X13460133Y-10827676D02*
X13450609Y-10837200D01*
X13450609Y-10837200D02*
X13431562Y-10846724D01*
X13431562Y-10846724D02*
X13412514Y-10846724D01*
X13412514Y-10846724D02*
X13393467Y-10837200D01*
X13393467Y-10837200D02*
X13383943Y-10827676D01*
X13383943Y-10827676D02*
X13374419Y-10808629D01*
X13374419Y-10808629D02*
X13364895Y-10770533D01*
X13364895Y-10770533D02*
X13364895Y-10722914D01*
X13364895Y-10722914D02*
X13374419Y-10684819D01*
X13374419Y-10684819D02*
X13383943Y-10665771D01*
X13383943Y-10665771D02*
X13393467Y-10656248D01*
X13393467Y-10656248D02*
X13412514Y-10646724D01*
X13564895Y-10827676D02*
X13574419Y-10837200D01*
X13574419Y-10837200D02*
X13564895Y-10846724D01*
X13564895Y-10846724D02*
X13555371Y-10837200D01*
X13555371Y-10837200D02*
X13564895Y-10827676D01*
X13564895Y-10827676D02*
X13564895Y-10846724D01*
X13688705Y-10732438D02*
X13669657Y-10722914D01*
X13669657Y-10722914D02*
X13660133Y-10713390D01*
X13660133Y-10713390D02*
X13650609Y-10694343D01*
X13650609Y-10694343D02*
X13650609Y-10684819D01*
X13650609Y-10684819D02*
X13660133Y-10665771D01*
X13660133Y-10665771D02*
X13669657Y-10656248D01*
X13669657Y-10656248D02*
X13688705Y-10646724D01*
X13688705Y-10646724D02*
X13726800Y-10646724D01*
X13726800Y-10646724D02*
X13745848Y-10656248D01*
X13745848Y-10656248D02*
X13755371Y-10665771D01*
X13755371Y-10665771D02*
X13764895Y-10684819D01*
X13764895Y-10684819D02*
X13764895Y-10694343D01*
X13764895Y-10694343D02*
X13755371Y-10713390D01*
X13755371Y-10713390D02*
X13745848Y-10722914D01*
X13745848Y-10722914D02*
X13726800Y-10732438D01*
X13726800Y-10732438D02*
X13688705Y-10732438D01*
X13688705Y-10732438D02*
X13669657Y-10741962D01*
X13669657Y-10741962D02*
X13660133Y-10751486D01*
X13660133Y-10751486D02*
X13650609Y-10770533D01*
X13650609Y-10770533D02*
X13650609Y-10808629D01*
X13650609Y-10808629D02*
X13660133Y-10827676D01*
X13660133Y-10827676D02*
X13669657Y-10837200D01*
X13669657Y-10837200D02*
X13688705Y-10846724D01*
X13688705Y-10846724D02*
X13726800Y-10846724D01*
X13726800Y-10846724D02*
X13745848Y-10837200D01*
X13745848Y-10837200D02*
X13755371Y-10827676D01*
X13755371Y-10827676D02*
X13764895Y-10808629D01*
X13764895Y-10808629D02*
X13764895Y-10770533D01*
X13764895Y-10770533D02*
X13755371Y-10751486D01*
X13755371Y-10751486D02*
X13745848Y-10741962D01*
X13745848Y-10741962D02*
X13726800Y-10732438D01*
X13888705Y-10646724D02*
X13907752Y-10646724D01*
X13907752Y-10646724D02*
X13926800Y-10656248D01*
X13926800Y-10656248D02*
X13936324Y-10665771D01*
X13936324Y-10665771D02*
X13945848Y-10684819D01*
X13945848Y-10684819D02*
X13955371Y-10722914D01*
X13955371Y-10722914D02*
X13955371Y-10770533D01*
X13955371Y-10770533D02*
X13945848Y-10808629D01*
X13945848Y-10808629D02*
X13936324Y-10827676D01*
X13936324Y-10827676D02*
X13926800Y-10837200D01*
X13926800Y-10837200D02*
X13907752Y-10846724D01*
X13907752Y-10846724D02*
X13888705Y-10846724D01*
X13888705Y-10846724D02*
X13869657Y-10837200D01*
X13869657Y-10837200D02*
X13860133Y-10827676D01*
X13860133Y-10827676D02*
X13850609Y-10808629D01*
X13850609Y-10808629D02*
X13841086Y-10770533D01*
X13841086Y-10770533D02*
X13841086Y-10722914D01*
X13841086Y-10722914D02*
X13850609Y-10684819D01*
X13850609Y-10684819D02*
X13860133Y-10665771D01*
X13860133Y-10665771D02*
X13869657Y-10656248D01*
X13869657Y-10656248D02*
X13888705Y-10646724D01*
X14079181Y-10646724D02*
X14098229Y-10646724D01*
X14098229Y-10646724D02*
X14117276Y-10656248D01*
X14117276Y-10656248D02*
X14126800Y-10665771D01*
X14126800Y-10665771D02*
X14136324Y-10684819D01*
X14136324Y-10684819D02*
X14145848Y-10722914D01*
X14145848Y-10722914D02*
X14145848Y-10770533D01*
X14145848Y-10770533D02*
X14136324Y-10808629D01*
X14136324Y-10808629D02*
X14126800Y-10827676D01*
X14126800Y-10827676D02*
X14117276Y-10837200D01*
X14117276Y-10837200D02*
X14098229Y-10846724D01*
X14098229Y-10846724D02*
X14079181Y-10846724D01*
X14079181Y-10846724D02*
X14060133Y-10837200D01*
X14060133Y-10837200D02*
X14050609Y-10827676D01*
X14050609Y-10827676D02*
X14041086Y-10808629D01*
X14041086Y-10808629D02*
X14031562Y-10770533D01*
X14031562Y-10770533D02*
X14031562Y-10722914D01*
X14031562Y-10722914D02*
X14041086Y-10684819D01*
X14041086Y-10684819D02*
X14050609Y-10665771D01*
X14050609Y-10665771D02*
X14060133Y-10656248D01*
X14060133Y-10656248D02*
X14079181Y-10646724D01*
X14231562Y-10846724D02*
X14231562Y-10713390D01*
X14231562Y-10732438D02*
X14241086Y-10722914D01*
X14241086Y-10722914D02*
X14260133Y-10713390D01*
X14260133Y-10713390D02*
X14288705Y-10713390D01*
X14288705Y-10713390D02*
X14307752Y-10722914D01*
X14307752Y-10722914D02*
X14317276Y-10741962D01*
X14317276Y-10741962D02*
X14317276Y-10846724D01*
X14317276Y-10741962D02*
X14326800Y-10722914D01*
X14326800Y-10722914D02*
X14345848Y-10713390D01*
X14345848Y-10713390D02*
X14374419Y-10713390D01*
X14374419Y-10713390D02*
X14393467Y-10722914D01*
X14393467Y-10722914D02*
X14402990Y-10741962D01*
X14402990Y-10741962D02*
X14402990Y-10846724D01*
X14498229Y-10846724D02*
X14498229Y-10713390D01*
X14498229Y-10732438D02*
X14507752Y-10722914D01*
X14507752Y-10722914D02*
X14526800Y-10713390D01*
X14526800Y-10713390D02*
X14555371Y-10713390D01*
X14555371Y-10713390D02*
X14574419Y-10722914D01*
X14574419Y-10722914D02*
X14583943Y-10741962D01*
X14583943Y-10741962D02*
X14583943Y-10846724D01*
X14583943Y-10741962D02*
X14593467Y-10722914D01*
X14593467Y-10722914D02*
X14612514Y-10713390D01*
X14612514Y-10713390D02*
X14641086Y-10713390D01*
X14641086Y-10713390D02*
X14660133Y-10722914D01*
X14660133Y-10722914D02*
X14669657Y-10741962D01*
X14669657Y-10741962D02*
X14669657Y-10846724D01*
X15060133Y-10637200D02*
X14888705Y-10894343D01*
X15317276Y-10646724D02*
X15336324Y-10646724D01*
X15336324Y-10646724D02*
X15355372Y-10656248D01*
X15355372Y-10656248D02*
X15364895Y-10665771D01*
X15364895Y-10665771D02*
X15374419Y-10684819D01*
X15374419Y-10684819D02*
X15383943Y-10722914D01*
X15383943Y-10722914D02*
X15383943Y-10770533D01*
X15383943Y-10770533D02*
X15374419Y-10808629D01*
X15374419Y-10808629D02*
X15364895Y-10827676D01*
X15364895Y-10827676D02*
X15355372Y-10837200D01*
X15355372Y-10837200D02*
X15336324Y-10846724D01*
X15336324Y-10846724D02*
X15317276Y-10846724D01*
X15317276Y-10846724D02*
X15298229Y-10837200D01*
X15298229Y-10837200D02*
X15288705Y-10827676D01*
X15288705Y-10827676D02*
X15279181Y-10808629D01*
X15279181Y-10808629D02*
X15269657Y-10770533D01*
X15269657Y-10770533D02*
X15269657Y-10722914D01*
X15269657Y-10722914D02*
X15279181Y-10684819D01*
X15279181Y-10684819D02*
X15288705Y-10665771D01*
X15288705Y-10665771D02*
X15298229Y-10656248D01*
X15298229Y-10656248D02*
X15317276Y-10646724D01*
X15469657Y-10827676D02*
X15479181Y-10837200D01*
X15479181Y-10837200D02*
X15469657Y-10846724D01*
X15469657Y-10846724D02*
X15460133Y-10837200D01*
X15460133Y-10837200D02*
X15469657Y-10827676D01*
X15469657Y-10827676D02*
X15469657Y-10846724D01*
X15602991Y-10646724D02*
X15622038Y-10646724D01*
X15622038Y-10646724D02*
X15641086Y-10656248D01*
X15641086Y-10656248D02*
X15650610Y-10665771D01*
X15650610Y-10665771D02*
X15660133Y-10684819D01*
X15660133Y-10684819D02*
X15669657Y-10722914D01*
X15669657Y-10722914D02*
X15669657Y-10770533D01*
X15669657Y-10770533D02*
X15660133Y-10808629D01*
X15660133Y-10808629D02*
X15650610Y-10827676D01*
X15650610Y-10827676D02*
X15641086Y-10837200D01*
X15641086Y-10837200D02*
X15622038Y-10846724D01*
X15622038Y-10846724D02*
X15602991Y-10846724D01*
X15602991Y-10846724D02*
X15583943Y-10837200D01*
X15583943Y-10837200D02*
X15574419Y-10827676D01*
X15574419Y-10827676D02*
X15564895Y-10808629D01*
X15564895Y-10808629D02*
X15555372Y-10770533D01*
X15555372Y-10770533D02*
X15555372Y-10722914D01*
X15555372Y-10722914D02*
X15564895Y-10684819D01*
X15564895Y-10684819D02*
X15574419Y-10665771D01*
X15574419Y-10665771D02*
X15583943Y-10656248D01*
X15583943Y-10656248D02*
X15602991Y-10646724D01*
X15736324Y-10646724D02*
X15860133Y-10646724D01*
X15860133Y-10646724D02*
X15793467Y-10722914D01*
X15793467Y-10722914D02*
X15822038Y-10722914D01*
X15822038Y-10722914D02*
X15841086Y-10732438D01*
X15841086Y-10732438D02*
X15850610Y-10741962D01*
X15850610Y-10741962D02*
X15860133Y-10761010D01*
X15860133Y-10761010D02*
X15860133Y-10808629D01*
X15860133Y-10808629D02*
X15850610Y-10827676D01*
X15850610Y-10827676D02*
X15841086Y-10837200D01*
X15841086Y-10837200D02*
X15822038Y-10846724D01*
X15822038Y-10846724D02*
X15764895Y-10846724D01*
X15764895Y-10846724D02*
X15745848Y-10837200D01*
X15745848Y-10837200D02*
X15736324Y-10827676D01*
X16050610Y-10846724D02*
X15936324Y-10846724D01*
X15993467Y-10846724D02*
X15993467Y-10646724D01*
X15993467Y-10646724D02*
X15974419Y-10675295D01*
X15974419Y-10675295D02*
X15955372Y-10694343D01*
X15955372Y-10694343D02*
X15936324Y-10703867D01*
X16231562Y-10646724D02*
X16136324Y-10646724D01*
X16136324Y-10646724D02*
X16126800Y-10741962D01*
X16126800Y-10741962D02*
X16136324Y-10732438D01*
X16136324Y-10732438D02*
X16155372Y-10722914D01*
X16155372Y-10722914D02*
X16202991Y-10722914D01*
X16202991Y-10722914D02*
X16222038Y-10732438D01*
X16222038Y-10732438D02*
X16231562Y-10741962D01*
X16231562Y-10741962D02*
X16241086Y-10761010D01*
X16241086Y-10761010D02*
X16241086Y-10808629D01*
X16241086Y-10808629D02*
X16231562Y-10827676D01*
X16231562Y-10827676D02*
X16222038Y-10837200D01*
X16222038Y-10837200D02*
X16202991Y-10846724D01*
X16202991Y-10846724D02*
X16155372Y-10846724D01*
X16155372Y-10846724D02*
X16136324Y-10837200D01*
X16136324Y-10837200D02*
X16126800Y-10827676D01*
X16317276Y-10646724D02*
X16317276Y-10684819D01*
X16393467Y-10646724D02*
X16393467Y-10684819D01*
X16688705Y-10922914D02*
X16679181Y-10913390D01*
X16679181Y-10913390D02*
X16660134Y-10884819D01*
X16660134Y-10884819D02*
X16650610Y-10865771D01*
X16650610Y-10865771D02*
X16641086Y-10837200D01*
X16641086Y-10837200D02*
X16631562Y-10789581D01*
X16631562Y-10789581D02*
X16631562Y-10751486D01*
X16631562Y-10751486D02*
X16641086Y-10703867D01*
X16641086Y-10703867D02*
X16650610Y-10675295D01*
X16650610Y-10675295D02*
X16660134Y-10656248D01*
X16660134Y-10656248D02*
X16679181Y-10627676D01*
X16679181Y-10627676D02*
X16688705Y-10618152D01*
X16850610Y-10713390D02*
X16850610Y-10846724D01*
X16802991Y-10637200D02*
X16755372Y-10780057D01*
X16755372Y-10780057D02*
X16879181Y-10780057D01*
X17107753Y-10846724D02*
X17107753Y-10646724D01*
X17193467Y-10846724D02*
X17193467Y-10741962D01*
X17193467Y-10741962D02*
X17183943Y-10722914D01*
X17183943Y-10722914D02*
X17164896Y-10713390D01*
X17164896Y-10713390D02*
X17136324Y-10713390D01*
X17136324Y-10713390D02*
X17117277Y-10722914D01*
X17117277Y-10722914D02*
X17107753Y-10732438D01*
X17317277Y-10846724D02*
X17298229Y-10837200D01*
X17298229Y-10837200D02*
X17288705Y-10827676D01*
X17288705Y-10827676D02*
X17279181Y-10808629D01*
X17279181Y-10808629D02*
X17279181Y-10751486D01*
X17279181Y-10751486D02*
X17288705Y-10732438D01*
X17288705Y-10732438D02*
X17298229Y-10722914D01*
X17298229Y-10722914D02*
X17317277Y-10713390D01*
X17317277Y-10713390D02*
X17345848Y-10713390D01*
X17345848Y-10713390D02*
X17364896Y-10722914D01*
X17364896Y-10722914D02*
X17374419Y-10732438D01*
X17374419Y-10732438D02*
X17383943Y-10751486D01*
X17383943Y-10751486D02*
X17383943Y-10808629D01*
X17383943Y-10808629D02*
X17374419Y-10827676D01*
X17374419Y-10827676D02*
X17364896Y-10837200D01*
X17364896Y-10837200D02*
X17345848Y-10846724D01*
X17345848Y-10846724D02*
X17317277Y-10846724D01*
X17498229Y-10846724D02*
X17479181Y-10837200D01*
X17479181Y-10837200D02*
X17469658Y-10818152D01*
X17469658Y-10818152D02*
X17469658Y-10646724D01*
X17650610Y-10837200D02*
X17631562Y-10846724D01*
X17631562Y-10846724D02*
X17593467Y-10846724D01*
X17593467Y-10846724D02*
X17574419Y-10837200D01*
X17574419Y-10837200D02*
X17564896Y-10818152D01*
X17564896Y-10818152D02*
X17564896Y-10741962D01*
X17564896Y-10741962D02*
X17574419Y-10722914D01*
X17574419Y-10722914D02*
X17593467Y-10713390D01*
X17593467Y-10713390D02*
X17631562Y-10713390D01*
X17631562Y-10713390D02*
X17650610Y-10722914D01*
X17650610Y-10722914D02*
X17660134Y-10741962D01*
X17660134Y-10741962D02*
X17660134Y-10761010D01*
X17660134Y-10761010D02*
X17564896Y-10780057D01*
X17736324Y-10837200D02*
X17755372Y-10846724D01*
X17755372Y-10846724D02*
X17793467Y-10846724D01*
X17793467Y-10846724D02*
X17812515Y-10837200D01*
X17812515Y-10837200D02*
X17822039Y-10818152D01*
X17822039Y-10818152D02*
X17822039Y-10808629D01*
X17822039Y-10808629D02*
X17812515Y-10789581D01*
X17812515Y-10789581D02*
X17793467Y-10780057D01*
X17793467Y-10780057D02*
X17764896Y-10780057D01*
X17764896Y-10780057D02*
X17745848Y-10770533D01*
X17745848Y-10770533D02*
X17736324Y-10751486D01*
X17736324Y-10751486D02*
X17736324Y-10741962D01*
X17736324Y-10741962D02*
X17745848Y-10722914D01*
X17745848Y-10722914D02*
X17764896Y-10713390D01*
X17764896Y-10713390D02*
X17793467Y-10713390D01*
X17793467Y-10713390D02*
X17812515Y-10722914D01*
X17888705Y-10922914D02*
X17898229Y-10913390D01*
X17898229Y-10913390D02*
X17917277Y-10884819D01*
X17917277Y-10884819D02*
X17926800Y-10865771D01*
X17926800Y-10865771D02*
X17936324Y-10837200D01*
X17936324Y-10837200D02*
X17945848Y-10789581D01*
X17945848Y-10789581D02*
X17945848Y-10751486D01*
X17945848Y-10751486D02*
X17936324Y-10703867D01*
X17936324Y-10703867D02*
X17926800Y-10675295D01*
X17926800Y-10675295D02*
X17917277Y-10656248D01*
X17917277Y-10656248D02*
X17898229Y-10627676D01*
X17898229Y-10627676D02*
X17888705Y-10618152D01*
D13*
X13126800Y-11018200D02*
G75*
G03*
X13126800Y-11018200I-45000J0D01*
G01*
D11*
X13412514Y-10910724D02*
X13431562Y-10910724D01*
X13431562Y-10910724D02*
X13450609Y-10920248D01*
X13450609Y-10920248D02*
X13460133Y-10929771D01*
X13460133Y-10929771D02*
X13469657Y-10948819D01*
X13469657Y-10948819D02*
X13479181Y-10986914D01*
X13479181Y-10986914D02*
X13479181Y-11034533D01*
X13479181Y-11034533D02*
X13469657Y-11072629D01*
X13469657Y-11072629D02*
X13460133Y-11091676D01*
X13460133Y-11091676D02*
X13450609Y-11101200D01*
X13450609Y-11101200D02*
X13431562Y-11110724D01*
X13431562Y-11110724D02*
X13412514Y-11110724D01*
X13412514Y-11110724D02*
X13393467Y-11101200D01*
X13393467Y-11101200D02*
X13383943Y-11091676D01*
X13383943Y-11091676D02*
X13374419Y-11072629D01*
X13374419Y-11072629D02*
X13364895Y-11034533D01*
X13364895Y-11034533D02*
X13364895Y-10986914D01*
X13364895Y-10986914D02*
X13374419Y-10948819D01*
X13374419Y-10948819D02*
X13383943Y-10929771D01*
X13383943Y-10929771D02*
X13393467Y-10920248D01*
X13393467Y-10920248D02*
X13412514Y-10910724D01*
X13564895Y-11091676D02*
X13574419Y-11101200D01*
X13574419Y-11101200D02*
X13564895Y-11110724D01*
X13564895Y-11110724D02*
X13555371Y-11101200D01*
X13555371Y-11101200D02*
X13564895Y-11091676D01*
X13564895Y-11091676D02*
X13564895Y-11110724D01*
X13669657Y-11110724D02*
X13707752Y-11110724D01*
X13707752Y-11110724D02*
X13726800Y-11101200D01*
X13726800Y-11101200D02*
X13736324Y-11091676D01*
X13736324Y-11091676D02*
X13755371Y-11063105D01*
X13755371Y-11063105D02*
X13764895Y-11025010D01*
X13764895Y-11025010D02*
X13764895Y-10948819D01*
X13764895Y-10948819D02*
X13755371Y-10929771D01*
X13755371Y-10929771D02*
X13745848Y-10920248D01*
X13745848Y-10920248D02*
X13726800Y-10910724D01*
X13726800Y-10910724D02*
X13688705Y-10910724D01*
X13688705Y-10910724D02*
X13669657Y-10920248D01*
X13669657Y-10920248D02*
X13660133Y-10929771D01*
X13660133Y-10929771D02*
X13650609Y-10948819D01*
X13650609Y-10948819D02*
X13650609Y-10996438D01*
X13650609Y-10996438D02*
X13660133Y-11015486D01*
X13660133Y-11015486D02*
X13669657Y-11025010D01*
X13669657Y-11025010D02*
X13688705Y-11034533D01*
X13688705Y-11034533D02*
X13726800Y-11034533D01*
X13726800Y-11034533D02*
X13745848Y-11025010D01*
X13745848Y-11025010D02*
X13755371Y-11015486D01*
X13755371Y-11015486D02*
X13764895Y-10996438D01*
X13888705Y-10910724D02*
X13907752Y-10910724D01*
X13907752Y-10910724D02*
X13926800Y-10920248D01*
X13926800Y-10920248D02*
X13936324Y-10929771D01*
X13936324Y-10929771D02*
X13945848Y-10948819D01*
X13945848Y-10948819D02*
X13955371Y-10986914D01*
X13955371Y-10986914D02*
X13955371Y-11034533D01*
X13955371Y-11034533D02*
X13945848Y-11072629D01*
X13945848Y-11072629D02*
X13936324Y-11091676D01*
X13936324Y-11091676D02*
X13926800Y-11101200D01*
X13926800Y-11101200D02*
X13907752Y-11110724D01*
X13907752Y-11110724D02*
X13888705Y-11110724D01*
X13888705Y-11110724D02*
X13869657Y-11101200D01*
X13869657Y-11101200D02*
X13860133Y-11091676D01*
X13860133Y-11091676D02*
X13850609Y-11072629D01*
X13850609Y-11072629D02*
X13841086Y-11034533D01*
X13841086Y-11034533D02*
X13841086Y-10986914D01*
X13841086Y-10986914D02*
X13850609Y-10948819D01*
X13850609Y-10948819D02*
X13860133Y-10929771D01*
X13860133Y-10929771D02*
X13869657Y-10920248D01*
X13869657Y-10920248D02*
X13888705Y-10910724D01*
X14079181Y-10910724D02*
X14098229Y-10910724D01*
X14098229Y-10910724D02*
X14117276Y-10920248D01*
X14117276Y-10920248D02*
X14126800Y-10929771D01*
X14126800Y-10929771D02*
X14136324Y-10948819D01*
X14136324Y-10948819D02*
X14145848Y-10986914D01*
X14145848Y-10986914D02*
X14145848Y-11034533D01*
X14145848Y-11034533D02*
X14136324Y-11072629D01*
X14136324Y-11072629D02*
X14126800Y-11091676D01*
X14126800Y-11091676D02*
X14117276Y-11101200D01*
X14117276Y-11101200D02*
X14098229Y-11110724D01*
X14098229Y-11110724D02*
X14079181Y-11110724D01*
X14079181Y-11110724D02*
X14060133Y-11101200D01*
X14060133Y-11101200D02*
X14050609Y-11091676D01*
X14050609Y-11091676D02*
X14041086Y-11072629D01*
X14041086Y-11072629D02*
X14031562Y-11034533D01*
X14031562Y-11034533D02*
X14031562Y-10986914D01*
X14031562Y-10986914D02*
X14041086Y-10948819D01*
X14041086Y-10948819D02*
X14050609Y-10929771D01*
X14050609Y-10929771D02*
X14060133Y-10920248D01*
X14060133Y-10920248D02*
X14079181Y-10910724D01*
X14231562Y-11110724D02*
X14231562Y-10977390D01*
X14231562Y-10996438D02*
X14241086Y-10986914D01*
X14241086Y-10986914D02*
X14260133Y-10977390D01*
X14260133Y-10977390D02*
X14288705Y-10977390D01*
X14288705Y-10977390D02*
X14307752Y-10986914D01*
X14307752Y-10986914D02*
X14317276Y-11005962D01*
X14317276Y-11005962D02*
X14317276Y-11110724D01*
X14317276Y-11005962D02*
X14326800Y-10986914D01*
X14326800Y-10986914D02*
X14345848Y-10977390D01*
X14345848Y-10977390D02*
X14374419Y-10977390D01*
X14374419Y-10977390D02*
X14393467Y-10986914D01*
X14393467Y-10986914D02*
X14402990Y-11005962D01*
X14402990Y-11005962D02*
X14402990Y-11110724D01*
X14498229Y-11110724D02*
X14498229Y-10977390D01*
X14498229Y-10996438D02*
X14507752Y-10986914D01*
X14507752Y-10986914D02*
X14526800Y-10977390D01*
X14526800Y-10977390D02*
X14555371Y-10977390D01*
X14555371Y-10977390D02*
X14574419Y-10986914D01*
X14574419Y-10986914D02*
X14583943Y-11005962D01*
X14583943Y-11005962D02*
X14583943Y-11110724D01*
X14583943Y-11005962D02*
X14593467Y-10986914D01*
X14593467Y-10986914D02*
X14612514Y-10977390D01*
X14612514Y-10977390D02*
X14641086Y-10977390D01*
X14641086Y-10977390D02*
X14660133Y-10986914D01*
X14660133Y-10986914D02*
X14669657Y-11005962D01*
X14669657Y-11005962D02*
X14669657Y-11110724D01*
X15060133Y-10901200D02*
X14888705Y-11158343D01*
X15317276Y-10910724D02*
X15336324Y-10910724D01*
X15336324Y-10910724D02*
X15355372Y-10920248D01*
X15355372Y-10920248D02*
X15364895Y-10929771D01*
X15364895Y-10929771D02*
X15374419Y-10948819D01*
X15374419Y-10948819D02*
X15383943Y-10986914D01*
X15383943Y-10986914D02*
X15383943Y-11034533D01*
X15383943Y-11034533D02*
X15374419Y-11072629D01*
X15374419Y-11072629D02*
X15364895Y-11091676D01*
X15364895Y-11091676D02*
X15355372Y-11101200D01*
X15355372Y-11101200D02*
X15336324Y-11110724D01*
X15336324Y-11110724D02*
X15317276Y-11110724D01*
X15317276Y-11110724D02*
X15298229Y-11101200D01*
X15298229Y-11101200D02*
X15288705Y-11091676D01*
X15288705Y-11091676D02*
X15279181Y-11072629D01*
X15279181Y-11072629D02*
X15269657Y-11034533D01*
X15269657Y-11034533D02*
X15269657Y-10986914D01*
X15269657Y-10986914D02*
X15279181Y-10948819D01*
X15279181Y-10948819D02*
X15288705Y-10929771D01*
X15288705Y-10929771D02*
X15298229Y-10920248D01*
X15298229Y-10920248D02*
X15317276Y-10910724D01*
X15469657Y-11091676D02*
X15479181Y-11101200D01*
X15479181Y-11101200D02*
X15469657Y-11110724D01*
X15469657Y-11110724D02*
X15460133Y-11101200D01*
X15460133Y-11101200D02*
X15469657Y-11091676D01*
X15469657Y-11091676D02*
X15469657Y-11110724D01*
X15602991Y-10910724D02*
X15622038Y-10910724D01*
X15622038Y-10910724D02*
X15641086Y-10920248D01*
X15641086Y-10920248D02*
X15650610Y-10929771D01*
X15650610Y-10929771D02*
X15660133Y-10948819D01*
X15660133Y-10948819D02*
X15669657Y-10986914D01*
X15669657Y-10986914D02*
X15669657Y-11034533D01*
X15669657Y-11034533D02*
X15660133Y-11072629D01*
X15660133Y-11072629D02*
X15650610Y-11091676D01*
X15650610Y-11091676D02*
X15641086Y-11101200D01*
X15641086Y-11101200D02*
X15622038Y-11110724D01*
X15622038Y-11110724D02*
X15602991Y-11110724D01*
X15602991Y-11110724D02*
X15583943Y-11101200D01*
X15583943Y-11101200D02*
X15574419Y-11091676D01*
X15574419Y-11091676D02*
X15564895Y-11072629D01*
X15564895Y-11072629D02*
X15555372Y-11034533D01*
X15555372Y-11034533D02*
X15555372Y-10986914D01*
X15555372Y-10986914D02*
X15564895Y-10948819D01*
X15564895Y-10948819D02*
X15574419Y-10929771D01*
X15574419Y-10929771D02*
X15583943Y-10920248D01*
X15583943Y-10920248D02*
X15602991Y-10910724D01*
X15736324Y-10910724D02*
X15860133Y-10910724D01*
X15860133Y-10910724D02*
X15793467Y-10986914D01*
X15793467Y-10986914D02*
X15822038Y-10986914D01*
X15822038Y-10986914D02*
X15841086Y-10996438D01*
X15841086Y-10996438D02*
X15850610Y-11005962D01*
X15850610Y-11005962D02*
X15860133Y-11025010D01*
X15860133Y-11025010D02*
X15860133Y-11072629D01*
X15860133Y-11072629D02*
X15850610Y-11091676D01*
X15850610Y-11091676D02*
X15841086Y-11101200D01*
X15841086Y-11101200D02*
X15822038Y-11110724D01*
X15822038Y-11110724D02*
X15764895Y-11110724D01*
X15764895Y-11110724D02*
X15745848Y-11101200D01*
X15745848Y-11101200D02*
X15736324Y-11091676D01*
X16041086Y-10910724D02*
X15945848Y-10910724D01*
X15945848Y-10910724D02*
X15936324Y-11005962D01*
X15936324Y-11005962D02*
X15945848Y-10996438D01*
X15945848Y-10996438D02*
X15964895Y-10986914D01*
X15964895Y-10986914D02*
X16012514Y-10986914D01*
X16012514Y-10986914D02*
X16031562Y-10996438D01*
X16031562Y-10996438D02*
X16041086Y-11005962D01*
X16041086Y-11005962D02*
X16050610Y-11025010D01*
X16050610Y-11025010D02*
X16050610Y-11072629D01*
X16050610Y-11072629D02*
X16041086Y-11091676D01*
X16041086Y-11091676D02*
X16031562Y-11101200D01*
X16031562Y-11101200D02*
X16012514Y-11110724D01*
X16012514Y-11110724D02*
X15964895Y-11110724D01*
X15964895Y-11110724D02*
X15945848Y-11101200D01*
X15945848Y-11101200D02*
X15936324Y-11091676D01*
X16222038Y-10977390D02*
X16222038Y-11110724D01*
X16174419Y-10901200D02*
X16126800Y-11044057D01*
X16126800Y-11044057D02*
X16250610Y-11044057D01*
X16317276Y-10910724D02*
X16317276Y-10948819D01*
X16393467Y-10910724D02*
X16393467Y-10948819D01*
X16688705Y-11186914D02*
X16679181Y-11177390D01*
X16679181Y-11177390D02*
X16660134Y-11148819D01*
X16660134Y-11148819D02*
X16650610Y-11129771D01*
X16650610Y-11129771D02*
X16641086Y-11101200D01*
X16641086Y-11101200D02*
X16631562Y-11053581D01*
X16631562Y-11053581D02*
X16631562Y-11015486D01*
X16631562Y-11015486D02*
X16641086Y-10967867D01*
X16641086Y-10967867D02*
X16650610Y-10939295D01*
X16650610Y-10939295D02*
X16660134Y-10920248D01*
X16660134Y-10920248D02*
X16679181Y-10891676D01*
X16679181Y-10891676D02*
X16688705Y-10882152D01*
X16793467Y-10996438D02*
X16774419Y-10986914D01*
X16774419Y-10986914D02*
X16764895Y-10977390D01*
X16764895Y-10977390D02*
X16755372Y-10958343D01*
X16755372Y-10958343D02*
X16755372Y-10948819D01*
X16755372Y-10948819D02*
X16764895Y-10929771D01*
X16764895Y-10929771D02*
X16774419Y-10920248D01*
X16774419Y-10920248D02*
X16793467Y-10910724D01*
X16793467Y-10910724D02*
X16831562Y-10910724D01*
X16831562Y-10910724D02*
X16850610Y-10920248D01*
X16850610Y-10920248D02*
X16860134Y-10929771D01*
X16860134Y-10929771D02*
X16869657Y-10948819D01*
X16869657Y-10948819D02*
X16869657Y-10958343D01*
X16869657Y-10958343D02*
X16860134Y-10977390D01*
X16860134Y-10977390D02*
X16850610Y-10986914D01*
X16850610Y-10986914D02*
X16831562Y-10996438D01*
X16831562Y-10996438D02*
X16793467Y-10996438D01*
X16793467Y-10996438D02*
X16774419Y-11005962D01*
X16774419Y-11005962D02*
X16764895Y-11015486D01*
X16764895Y-11015486D02*
X16755372Y-11034533D01*
X16755372Y-11034533D02*
X16755372Y-11072629D01*
X16755372Y-11072629D02*
X16764895Y-11091676D01*
X16764895Y-11091676D02*
X16774419Y-11101200D01*
X16774419Y-11101200D02*
X16793467Y-11110724D01*
X16793467Y-11110724D02*
X16831562Y-11110724D01*
X16831562Y-11110724D02*
X16850610Y-11101200D01*
X16850610Y-11101200D02*
X16860134Y-11091676D01*
X16860134Y-11091676D02*
X16869657Y-11072629D01*
X16869657Y-11072629D02*
X16869657Y-11034533D01*
X16869657Y-11034533D02*
X16860134Y-11015486D01*
X16860134Y-11015486D02*
X16850610Y-11005962D01*
X16850610Y-11005962D02*
X16831562Y-10996438D01*
X17107753Y-11110724D02*
X17107753Y-10910724D01*
X17193467Y-11110724D02*
X17193467Y-11005962D01*
X17193467Y-11005962D02*
X17183943Y-10986914D01*
X17183943Y-10986914D02*
X17164896Y-10977390D01*
X17164896Y-10977390D02*
X17136324Y-10977390D01*
X17136324Y-10977390D02*
X17117277Y-10986914D01*
X17117277Y-10986914D02*
X17107753Y-10996438D01*
X17317277Y-11110724D02*
X17298229Y-11101200D01*
X17298229Y-11101200D02*
X17288705Y-11091676D01*
X17288705Y-11091676D02*
X17279181Y-11072629D01*
X17279181Y-11072629D02*
X17279181Y-11015486D01*
X17279181Y-11015486D02*
X17288705Y-10996438D01*
X17288705Y-10996438D02*
X17298229Y-10986914D01*
X17298229Y-10986914D02*
X17317277Y-10977390D01*
X17317277Y-10977390D02*
X17345848Y-10977390D01*
X17345848Y-10977390D02*
X17364896Y-10986914D01*
X17364896Y-10986914D02*
X17374419Y-10996438D01*
X17374419Y-10996438D02*
X17383943Y-11015486D01*
X17383943Y-11015486D02*
X17383943Y-11072629D01*
X17383943Y-11072629D02*
X17374419Y-11091676D01*
X17374419Y-11091676D02*
X17364896Y-11101200D01*
X17364896Y-11101200D02*
X17345848Y-11110724D01*
X17345848Y-11110724D02*
X17317277Y-11110724D01*
X17498229Y-11110724D02*
X17479181Y-11101200D01*
X17479181Y-11101200D02*
X17469658Y-11082152D01*
X17469658Y-11082152D02*
X17469658Y-10910724D01*
X17650610Y-11101200D02*
X17631562Y-11110724D01*
X17631562Y-11110724D02*
X17593467Y-11110724D01*
X17593467Y-11110724D02*
X17574419Y-11101200D01*
X17574419Y-11101200D02*
X17564896Y-11082152D01*
X17564896Y-11082152D02*
X17564896Y-11005962D01*
X17564896Y-11005962D02*
X17574419Y-10986914D01*
X17574419Y-10986914D02*
X17593467Y-10977390D01*
X17593467Y-10977390D02*
X17631562Y-10977390D01*
X17631562Y-10977390D02*
X17650610Y-10986914D01*
X17650610Y-10986914D02*
X17660134Y-11005962D01*
X17660134Y-11005962D02*
X17660134Y-11025010D01*
X17660134Y-11025010D02*
X17564896Y-11044057D01*
X17736324Y-11101200D02*
X17755372Y-11110724D01*
X17755372Y-11110724D02*
X17793467Y-11110724D01*
X17793467Y-11110724D02*
X17812515Y-11101200D01*
X17812515Y-11101200D02*
X17822039Y-11082152D01*
X17822039Y-11082152D02*
X17822039Y-11072629D01*
X17822039Y-11072629D02*
X17812515Y-11053581D01*
X17812515Y-11053581D02*
X17793467Y-11044057D01*
X17793467Y-11044057D02*
X17764896Y-11044057D01*
X17764896Y-11044057D02*
X17745848Y-11034533D01*
X17745848Y-11034533D02*
X17736324Y-11015486D01*
X17736324Y-11015486D02*
X17736324Y-11005962D01*
X17736324Y-11005962D02*
X17745848Y-10986914D01*
X17745848Y-10986914D02*
X17764896Y-10977390D01*
X17764896Y-10977390D02*
X17793467Y-10977390D01*
X17793467Y-10977390D02*
X17812515Y-10986914D01*
X17888705Y-11186914D02*
X17898229Y-11177390D01*
X17898229Y-11177390D02*
X17917277Y-11148819D01*
X17917277Y-11148819D02*
X17926800Y-11129771D01*
X17926800Y-11129771D02*
X17936324Y-11101200D01*
X17936324Y-11101200D02*
X17945848Y-11053581D01*
X17945848Y-11053581D02*
X17945848Y-11015486D01*
X17945848Y-11015486D02*
X17936324Y-10967867D01*
X17936324Y-10967867D02*
X17926800Y-10939295D01*
X17926800Y-10939295D02*
X17917277Y-10920248D01*
X17917277Y-10920248D02*
X17898229Y-10891676D01*
X17898229Y-10891676D02*
X17888705Y-10882152D01*
D10*
X13076800Y-11232200D02*
X13076800Y-11332200D01*
X13026800Y-11282200D02*
X13126800Y-11282200D01*
D11*
X13479181Y-11374724D02*
X13364895Y-11374724D01*
X13422038Y-11374724D02*
X13422038Y-11174724D01*
X13422038Y-11174724D02*
X13402990Y-11203295D01*
X13402990Y-11203295D02*
X13383943Y-11222343D01*
X13383943Y-11222343D02*
X13364895Y-11231867D01*
X13564895Y-11355676D02*
X13574419Y-11365200D01*
X13574419Y-11365200D02*
X13564895Y-11374724D01*
X13564895Y-11374724D02*
X13555371Y-11365200D01*
X13555371Y-11365200D02*
X13564895Y-11355676D01*
X13564895Y-11355676D02*
X13564895Y-11374724D01*
X13698228Y-11174724D02*
X13717276Y-11174724D01*
X13717276Y-11174724D02*
X13736324Y-11184248D01*
X13736324Y-11184248D02*
X13745848Y-11193771D01*
X13745848Y-11193771D02*
X13755371Y-11212819D01*
X13755371Y-11212819D02*
X13764895Y-11250914D01*
X13764895Y-11250914D02*
X13764895Y-11298533D01*
X13764895Y-11298533D02*
X13755371Y-11336628D01*
X13755371Y-11336628D02*
X13745848Y-11355676D01*
X13745848Y-11355676D02*
X13736324Y-11365200D01*
X13736324Y-11365200D02*
X13717276Y-11374724D01*
X13717276Y-11374724D02*
X13698228Y-11374724D01*
X13698228Y-11374724D02*
X13679181Y-11365200D01*
X13679181Y-11365200D02*
X13669657Y-11355676D01*
X13669657Y-11355676D02*
X13660133Y-11336628D01*
X13660133Y-11336628D02*
X13650609Y-11298533D01*
X13650609Y-11298533D02*
X13650609Y-11250914D01*
X13650609Y-11250914D02*
X13660133Y-11212819D01*
X13660133Y-11212819D02*
X13669657Y-11193771D01*
X13669657Y-11193771D02*
X13679181Y-11184248D01*
X13679181Y-11184248D02*
X13698228Y-11174724D01*
X13888705Y-11174724D02*
X13907752Y-11174724D01*
X13907752Y-11174724D02*
X13926800Y-11184248D01*
X13926800Y-11184248D02*
X13936324Y-11193771D01*
X13936324Y-11193771D02*
X13945848Y-11212819D01*
X13945848Y-11212819D02*
X13955371Y-11250914D01*
X13955371Y-11250914D02*
X13955371Y-11298533D01*
X13955371Y-11298533D02*
X13945848Y-11336628D01*
X13945848Y-11336628D02*
X13936324Y-11355676D01*
X13936324Y-11355676D02*
X13926800Y-11365200D01*
X13926800Y-11365200D02*
X13907752Y-11374724D01*
X13907752Y-11374724D02*
X13888705Y-11374724D01*
X13888705Y-11374724D02*
X13869657Y-11365200D01*
X13869657Y-11365200D02*
X13860133Y-11355676D01*
X13860133Y-11355676D02*
X13850609Y-11336628D01*
X13850609Y-11336628D02*
X13841086Y-11298533D01*
X13841086Y-11298533D02*
X13841086Y-11250914D01*
X13841086Y-11250914D02*
X13850609Y-11212819D01*
X13850609Y-11212819D02*
X13860133Y-11193771D01*
X13860133Y-11193771D02*
X13869657Y-11184248D01*
X13869657Y-11184248D02*
X13888705Y-11174724D01*
X14079181Y-11174724D02*
X14098229Y-11174724D01*
X14098229Y-11174724D02*
X14117276Y-11184248D01*
X14117276Y-11184248D02*
X14126800Y-11193771D01*
X14126800Y-11193771D02*
X14136324Y-11212819D01*
X14136324Y-11212819D02*
X14145848Y-11250914D01*
X14145848Y-11250914D02*
X14145848Y-11298533D01*
X14145848Y-11298533D02*
X14136324Y-11336628D01*
X14136324Y-11336628D02*
X14126800Y-11355676D01*
X14126800Y-11355676D02*
X14117276Y-11365200D01*
X14117276Y-11365200D02*
X14098229Y-11374724D01*
X14098229Y-11374724D02*
X14079181Y-11374724D01*
X14079181Y-11374724D02*
X14060133Y-11365200D01*
X14060133Y-11365200D02*
X14050609Y-11355676D01*
X14050609Y-11355676D02*
X14041086Y-11336628D01*
X14041086Y-11336628D02*
X14031562Y-11298533D01*
X14031562Y-11298533D02*
X14031562Y-11250914D01*
X14031562Y-11250914D02*
X14041086Y-11212819D01*
X14041086Y-11212819D02*
X14050609Y-11193771D01*
X14050609Y-11193771D02*
X14060133Y-11184248D01*
X14060133Y-11184248D02*
X14079181Y-11174724D01*
X14231562Y-11374724D02*
X14231562Y-11241390D01*
X14231562Y-11260438D02*
X14241086Y-11250914D01*
X14241086Y-11250914D02*
X14260133Y-11241390D01*
X14260133Y-11241390D02*
X14288705Y-11241390D01*
X14288705Y-11241390D02*
X14307752Y-11250914D01*
X14307752Y-11250914D02*
X14317276Y-11269962D01*
X14317276Y-11269962D02*
X14317276Y-11374724D01*
X14317276Y-11269962D02*
X14326800Y-11250914D01*
X14326800Y-11250914D02*
X14345848Y-11241390D01*
X14345848Y-11241390D02*
X14374419Y-11241390D01*
X14374419Y-11241390D02*
X14393467Y-11250914D01*
X14393467Y-11250914D02*
X14402990Y-11269962D01*
X14402990Y-11269962D02*
X14402990Y-11374724D01*
X14498229Y-11374724D02*
X14498229Y-11241390D01*
X14498229Y-11260438D02*
X14507752Y-11250914D01*
X14507752Y-11250914D02*
X14526800Y-11241390D01*
X14526800Y-11241390D02*
X14555371Y-11241390D01*
X14555371Y-11241390D02*
X14574419Y-11250914D01*
X14574419Y-11250914D02*
X14583943Y-11269962D01*
X14583943Y-11269962D02*
X14583943Y-11374724D01*
X14583943Y-11269962D02*
X14593467Y-11250914D01*
X14593467Y-11250914D02*
X14612514Y-11241390D01*
X14612514Y-11241390D02*
X14641086Y-11241390D01*
X14641086Y-11241390D02*
X14660133Y-11250914D01*
X14660133Y-11250914D02*
X14669657Y-11269962D01*
X14669657Y-11269962D02*
X14669657Y-11374724D01*
X15060133Y-11165200D02*
X14888705Y-11422343D01*
X15317276Y-11174724D02*
X15336324Y-11174724D01*
X15336324Y-11174724D02*
X15355372Y-11184248D01*
X15355372Y-11184248D02*
X15364895Y-11193771D01*
X15364895Y-11193771D02*
X15374419Y-11212819D01*
X15374419Y-11212819D02*
X15383943Y-11250914D01*
X15383943Y-11250914D02*
X15383943Y-11298533D01*
X15383943Y-11298533D02*
X15374419Y-11336628D01*
X15374419Y-11336628D02*
X15364895Y-11355676D01*
X15364895Y-11355676D02*
X15355372Y-11365200D01*
X15355372Y-11365200D02*
X15336324Y-11374724D01*
X15336324Y-11374724D02*
X15317276Y-11374724D01*
X15317276Y-11374724D02*
X15298229Y-11365200D01*
X15298229Y-11365200D02*
X15288705Y-11355676D01*
X15288705Y-11355676D02*
X15279181Y-11336628D01*
X15279181Y-11336628D02*
X15269657Y-11298533D01*
X15269657Y-11298533D02*
X15269657Y-11250914D01*
X15269657Y-11250914D02*
X15279181Y-11212819D01*
X15279181Y-11212819D02*
X15288705Y-11193771D01*
X15288705Y-11193771D02*
X15298229Y-11184248D01*
X15298229Y-11184248D02*
X15317276Y-11174724D01*
X15469657Y-11355676D02*
X15479181Y-11365200D01*
X15479181Y-11365200D02*
X15469657Y-11374724D01*
X15469657Y-11374724D02*
X15460133Y-11365200D01*
X15460133Y-11365200D02*
X15469657Y-11355676D01*
X15469657Y-11355676D02*
X15469657Y-11374724D01*
X15602991Y-11174724D02*
X15622038Y-11174724D01*
X15622038Y-11174724D02*
X15641086Y-11184248D01*
X15641086Y-11184248D02*
X15650610Y-11193771D01*
X15650610Y-11193771D02*
X15660133Y-11212819D01*
X15660133Y-11212819D02*
X15669657Y-11250914D01*
X15669657Y-11250914D02*
X15669657Y-11298533D01*
X15669657Y-11298533D02*
X15660133Y-11336628D01*
X15660133Y-11336628D02*
X15650610Y-11355676D01*
X15650610Y-11355676D02*
X15641086Y-11365200D01*
X15641086Y-11365200D02*
X15622038Y-11374724D01*
X15622038Y-11374724D02*
X15602991Y-11374724D01*
X15602991Y-11374724D02*
X15583943Y-11365200D01*
X15583943Y-11365200D02*
X15574419Y-11355676D01*
X15574419Y-11355676D02*
X15564895Y-11336628D01*
X15564895Y-11336628D02*
X15555372Y-11298533D01*
X15555372Y-11298533D02*
X15555372Y-11250914D01*
X15555372Y-11250914D02*
X15564895Y-11212819D01*
X15564895Y-11212819D02*
X15574419Y-11193771D01*
X15574419Y-11193771D02*
X15583943Y-11184248D01*
X15583943Y-11184248D02*
X15602991Y-11174724D01*
X15736324Y-11174724D02*
X15860133Y-11174724D01*
X15860133Y-11174724D02*
X15793467Y-11250914D01*
X15793467Y-11250914D02*
X15822038Y-11250914D01*
X15822038Y-11250914D02*
X15841086Y-11260438D01*
X15841086Y-11260438D02*
X15850610Y-11269962D01*
X15850610Y-11269962D02*
X15860133Y-11289009D01*
X15860133Y-11289009D02*
X15860133Y-11336628D01*
X15860133Y-11336628D02*
X15850610Y-11355676D01*
X15850610Y-11355676D02*
X15841086Y-11365200D01*
X15841086Y-11365200D02*
X15822038Y-11374724D01*
X15822038Y-11374724D02*
X15764895Y-11374724D01*
X15764895Y-11374724D02*
X15745848Y-11365200D01*
X15745848Y-11365200D02*
X15736324Y-11355676D01*
X15955372Y-11374724D02*
X15993467Y-11374724D01*
X15993467Y-11374724D02*
X16012514Y-11365200D01*
X16012514Y-11365200D02*
X16022038Y-11355676D01*
X16022038Y-11355676D02*
X16041086Y-11327105D01*
X16041086Y-11327105D02*
X16050610Y-11289009D01*
X16050610Y-11289009D02*
X16050610Y-11212819D01*
X16050610Y-11212819D02*
X16041086Y-11193771D01*
X16041086Y-11193771D02*
X16031562Y-11184248D01*
X16031562Y-11184248D02*
X16012514Y-11174724D01*
X16012514Y-11174724D02*
X15974419Y-11174724D01*
X15974419Y-11174724D02*
X15955372Y-11184248D01*
X15955372Y-11184248D02*
X15945848Y-11193771D01*
X15945848Y-11193771D02*
X15936324Y-11212819D01*
X15936324Y-11212819D02*
X15936324Y-11260438D01*
X15936324Y-11260438D02*
X15945848Y-11279486D01*
X15945848Y-11279486D02*
X15955372Y-11289009D01*
X15955372Y-11289009D02*
X15974419Y-11298533D01*
X15974419Y-11298533D02*
X16012514Y-11298533D01*
X16012514Y-11298533D02*
X16031562Y-11289009D01*
X16031562Y-11289009D02*
X16041086Y-11279486D01*
X16041086Y-11279486D02*
X16050610Y-11260438D01*
X16222038Y-11241390D02*
X16222038Y-11374724D01*
X16174419Y-11165200D02*
X16126800Y-11308057D01*
X16126800Y-11308057D02*
X16250610Y-11308057D01*
X16317276Y-11174724D02*
X16317276Y-11212819D01*
X16393467Y-11174724D02*
X16393467Y-11212819D01*
X16688705Y-11450914D02*
X16679181Y-11441390D01*
X16679181Y-11441390D02*
X16660134Y-11412819D01*
X16660134Y-11412819D02*
X16650610Y-11393771D01*
X16650610Y-11393771D02*
X16641086Y-11365200D01*
X16641086Y-11365200D02*
X16631562Y-11317581D01*
X16631562Y-11317581D02*
X16631562Y-11279486D01*
X16631562Y-11279486D02*
X16641086Y-11231867D01*
X16641086Y-11231867D02*
X16650610Y-11203295D01*
X16650610Y-11203295D02*
X16660134Y-11184248D01*
X16660134Y-11184248D02*
X16679181Y-11155676D01*
X16679181Y-11155676D02*
X16688705Y-11146152D01*
X16774419Y-11374724D02*
X16812515Y-11374724D01*
X16812515Y-11374724D02*
X16831562Y-11365200D01*
X16831562Y-11365200D02*
X16841086Y-11355676D01*
X16841086Y-11355676D02*
X16860134Y-11327105D01*
X16860134Y-11327105D02*
X16869657Y-11289009D01*
X16869657Y-11289009D02*
X16869657Y-11212819D01*
X16869657Y-11212819D02*
X16860134Y-11193771D01*
X16860134Y-11193771D02*
X16850610Y-11184248D01*
X16850610Y-11184248D02*
X16831562Y-11174724D01*
X16831562Y-11174724D02*
X16793467Y-11174724D01*
X16793467Y-11174724D02*
X16774419Y-11184248D01*
X16774419Y-11184248D02*
X16764895Y-11193771D01*
X16764895Y-11193771D02*
X16755372Y-11212819D01*
X16755372Y-11212819D02*
X16755372Y-11260438D01*
X16755372Y-11260438D02*
X16764895Y-11279486D01*
X16764895Y-11279486D02*
X16774419Y-11289009D01*
X16774419Y-11289009D02*
X16793467Y-11298533D01*
X16793467Y-11298533D02*
X16831562Y-11298533D01*
X16831562Y-11298533D02*
X16850610Y-11289009D01*
X16850610Y-11289009D02*
X16860134Y-11279486D01*
X16860134Y-11279486D02*
X16869657Y-11260438D01*
X17107753Y-11374724D02*
X17107753Y-11174724D01*
X17193467Y-11374724D02*
X17193467Y-11269962D01*
X17193467Y-11269962D02*
X17183943Y-11250914D01*
X17183943Y-11250914D02*
X17164896Y-11241390D01*
X17164896Y-11241390D02*
X17136324Y-11241390D01*
X17136324Y-11241390D02*
X17117277Y-11250914D01*
X17117277Y-11250914D02*
X17107753Y-11260438D01*
X17317277Y-11374724D02*
X17298229Y-11365200D01*
X17298229Y-11365200D02*
X17288705Y-11355676D01*
X17288705Y-11355676D02*
X17279181Y-11336628D01*
X17279181Y-11336628D02*
X17279181Y-11279486D01*
X17279181Y-11279486D02*
X17288705Y-11260438D01*
X17288705Y-11260438D02*
X17298229Y-11250914D01*
X17298229Y-11250914D02*
X17317277Y-11241390D01*
X17317277Y-11241390D02*
X17345848Y-11241390D01*
X17345848Y-11241390D02*
X17364896Y-11250914D01*
X17364896Y-11250914D02*
X17374419Y-11260438D01*
X17374419Y-11260438D02*
X17383943Y-11279486D01*
X17383943Y-11279486D02*
X17383943Y-11336628D01*
X17383943Y-11336628D02*
X17374419Y-11355676D01*
X17374419Y-11355676D02*
X17364896Y-11365200D01*
X17364896Y-11365200D02*
X17345848Y-11374724D01*
X17345848Y-11374724D02*
X17317277Y-11374724D01*
X17498229Y-11374724D02*
X17479181Y-11365200D01*
X17479181Y-11365200D02*
X17469658Y-11346152D01*
X17469658Y-11346152D02*
X17469658Y-11174724D01*
X17650610Y-11365200D02*
X17631562Y-11374724D01*
X17631562Y-11374724D02*
X17593467Y-11374724D01*
X17593467Y-11374724D02*
X17574419Y-11365200D01*
X17574419Y-11365200D02*
X17564896Y-11346152D01*
X17564896Y-11346152D02*
X17564896Y-11269962D01*
X17564896Y-11269962D02*
X17574419Y-11250914D01*
X17574419Y-11250914D02*
X17593467Y-11241390D01*
X17593467Y-11241390D02*
X17631562Y-11241390D01*
X17631562Y-11241390D02*
X17650610Y-11250914D01*
X17650610Y-11250914D02*
X17660134Y-11269962D01*
X17660134Y-11269962D02*
X17660134Y-11289009D01*
X17660134Y-11289009D02*
X17564896Y-11308057D01*
X17736324Y-11365200D02*
X17755372Y-11374724D01*
X17755372Y-11374724D02*
X17793467Y-11374724D01*
X17793467Y-11374724D02*
X17812515Y-11365200D01*
X17812515Y-11365200D02*
X17822039Y-11346152D01*
X17822039Y-11346152D02*
X17822039Y-11336628D01*
X17822039Y-11336628D02*
X17812515Y-11317581D01*
X17812515Y-11317581D02*
X17793467Y-11308057D01*
X17793467Y-11308057D02*
X17764896Y-11308057D01*
X17764896Y-11308057D02*
X17745848Y-11298533D01*
X17745848Y-11298533D02*
X17736324Y-11279486D01*
X17736324Y-11279486D02*
X17736324Y-11269962D01*
X17736324Y-11269962D02*
X17745848Y-11250914D01*
X17745848Y-11250914D02*
X17764896Y-11241390D01*
X17764896Y-11241390D02*
X17793467Y-11241390D01*
X17793467Y-11241390D02*
X17812515Y-11250914D01*
X17888705Y-11450914D02*
X17898229Y-11441390D01*
X17898229Y-11441390D02*
X17917277Y-11412819D01*
X17917277Y-11412819D02*
X17926800Y-11393771D01*
X17926800Y-11393771D02*
X17936324Y-11365200D01*
X17936324Y-11365200D02*
X17945848Y-11317581D01*
X17945848Y-11317581D02*
X17945848Y-11279486D01*
X17945848Y-11279486D02*
X17936324Y-11231867D01*
X17936324Y-11231867D02*
X17926800Y-11203295D01*
X17926800Y-11203295D02*
X17917277Y-11184248D01*
X17917277Y-11184248D02*
X17898229Y-11155676D01*
X17898229Y-11155676D02*
X17888705Y-11146152D01*
D14*
X13103369Y-11602769D02*
X13103369Y-11489631D01*
X12990231Y-11489631D01*
X12990231Y-11602769D01*
X13103369Y-11602769D01*
D11*
X13479181Y-11638724D02*
X13364895Y-11638724D01*
X13422038Y-11638724D02*
X13422038Y-11438724D01*
X13422038Y-11438724D02*
X13402990Y-11467295D01*
X13402990Y-11467295D02*
X13383943Y-11486343D01*
X13383943Y-11486343D02*
X13364895Y-11495867D01*
X13564895Y-11619676D02*
X13574419Y-11629200D01*
X13574419Y-11629200D02*
X13564895Y-11638724D01*
X13564895Y-11638724D02*
X13555371Y-11629200D01*
X13555371Y-11629200D02*
X13564895Y-11619676D01*
X13564895Y-11619676D02*
X13564895Y-11638724D01*
X13745848Y-11438724D02*
X13707752Y-11438724D01*
X13707752Y-11438724D02*
X13688705Y-11448248D01*
X13688705Y-11448248D02*
X13679181Y-11457771D01*
X13679181Y-11457771D02*
X13660133Y-11486343D01*
X13660133Y-11486343D02*
X13650609Y-11524438D01*
X13650609Y-11524438D02*
X13650609Y-11600628D01*
X13650609Y-11600628D02*
X13660133Y-11619676D01*
X13660133Y-11619676D02*
X13669657Y-11629200D01*
X13669657Y-11629200D02*
X13688705Y-11638724D01*
X13688705Y-11638724D02*
X13726800Y-11638724D01*
X13726800Y-11638724D02*
X13745848Y-11629200D01*
X13745848Y-11629200D02*
X13755371Y-11619676D01*
X13755371Y-11619676D02*
X13764895Y-11600628D01*
X13764895Y-11600628D02*
X13764895Y-11553009D01*
X13764895Y-11553009D02*
X13755371Y-11533962D01*
X13755371Y-11533962D02*
X13745848Y-11524438D01*
X13745848Y-11524438D02*
X13726800Y-11514914D01*
X13726800Y-11514914D02*
X13688705Y-11514914D01*
X13688705Y-11514914D02*
X13669657Y-11524438D01*
X13669657Y-11524438D02*
X13660133Y-11533962D01*
X13660133Y-11533962D02*
X13650609Y-11553009D01*
X13888705Y-11438724D02*
X13907752Y-11438724D01*
X13907752Y-11438724D02*
X13926800Y-11448248D01*
X13926800Y-11448248D02*
X13936324Y-11457771D01*
X13936324Y-11457771D02*
X13945848Y-11476819D01*
X13945848Y-11476819D02*
X13955371Y-11514914D01*
X13955371Y-11514914D02*
X13955371Y-11562533D01*
X13955371Y-11562533D02*
X13945848Y-11600628D01*
X13945848Y-11600628D02*
X13936324Y-11619676D01*
X13936324Y-11619676D02*
X13926800Y-11629200D01*
X13926800Y-11629200D02*
X13907752Y-11638724D01*
X13907752Y-11638724D02*
X13888705Y-11638724D01*
X13888705Y-11638724D02*
X13869657Y-11629200D01*
X13869657Y-11629200D02*
X13860133Y-11619676D01*
X13860133Y-11619676D02*
X13850609Y-11600628D01*
X13850609Y-11600628D02*
X13841086Y-11562533D01*
X13841086Y-11562533D02*
X13841086Y-11514914D01*
X13841086Y-11514914D02*
X13850609Y-11476819D01*
X13850609Y-11476819D02*
X13860133Y-11457771D01*
X13860133Y-11457771D02*
X13869657Y-11448248D01*
X13869657Y-11448248D02*
X13888705Y-11438724D01*
X14079181Y-11438724D02*
X14098229Y-11438724D01*
X14098229Y-11438724D02*
X14117276Y-11448248D01*
X14117276Y-11448248D02*
X14126800Y-11457771D01*
X14126800Y-11457771D02*
X14136324Y-11476819D01*
X14136324Y-11476819D02*
X14145848Y-11514914D01*
X14145848Y-11514914D02*
X14145848Y-11562533D01*
X14145848Y-11562533D02*
X14136324Y-11600628D01*
X14136324Y-11600628D02*
X14126800Y-11619676D01*
X14126800Y-11619676D02*
X14117276Y-11629200D01*
X14117276Y-11629200D02*
X14098229Y-11638724D01*
X14098229Y-11638724D02*
X14079181Y-11638724D01*
X14079181Y-11638724D02*
X14060133Y-11629200D01*
X14060133Y-11629200D02*
X14050609Y-11619676D01*
X14050609Y-11619676D02*
X14041086Y-11600628D01*
X14041086Y-11600628D02*
X14031562Y-11562533D01*
X14031562Y-11562533D02*
X14031562Y-11514914D01*
X14031562Y-11514914D02*
X14041086Y-11476819D01*
X14041086Y-11476819D02*
X14050609Y-11457771D01*
X14050609Y-11457771D02*
X14060133Y-11448248D01*
X14060133Y-11448248D02*
X14079181Y-11438724D01*
X14231562Y-11638724D02*
X14231562Y-11505390D01*
X14231562Y-11524438D02*
X14241086Y-11514914D01*
X14241086Y-11514914D02*
X14260133Y-11505390D01*
X14260133Y-11505390D02*
X14288705Y-11505390D01*
X14288705Y-11505390D02*
X14307752Y-11514914D01*
X14307752Y-11514914D02*
X14317276Y-11533962D01*
X14317276Y-11533962D02*
X14317276Y-11638724D01*
X14317276Y-11533962D02*
X14326800Y-11514914D01*
X14326800Y-11514914D02*
X14345848Y-11505390D01*
X14345848Y-11505390D02*
X14374419Y-11505390D01*
X14374419Y-11505390D02*
X14393467Y-11514914D01*
X14393467Y-11514914D02*
X14402990Y-11533962D01*
X14402990Y-11533962D02*
X14402990Y-11638724D01*
X14498229Y-11638724D02*
X14498229Y-11505390D01*
X14498229Y-11524438D02*
X14507752Y-11514914D01*
X14507752Y-11514914D02*
X14526800Y-11505390D01*
X14526800Y-11505390D02*
X14555371Y-11505390D01*
X14555371Y-11505390D02*
X14574419Y-11514914D01*
X14574419Y-11514914D02*
X14583943Y-11533962D01*
X14583943Y-11533962D02*
X14583943Y-11638724D01*
X14583943Y-11533962D02*
X14593467Y-11514914D01*
X14593467Y-11514914D02*
X14612514Y-11505390D01*
X14612514Y-11505390D02*
X14641086Y-11505390D01*
X14641086Y-11505390D02*
X14660133Y-11514914D01*
X14660133Y-11514914D02*
X14669657Y-11533962D01*
X14669657Y-11533962D02*
X14669657Y-11638724D01*
X15060133Y-11429200D02*
X14888705Y-11686343D01*
X15317276Y-11438724D02*
X15336324Y-11438724D01*
X15336324Y-11438724D02*
X15355372Y-11448248D01*
X15355372Y-11448248D02*
X15364895Y-11457771D01*
X15364895Y-11457771D02*
X15374419Y-11476819D01*
X15374419Y-11476819D02*
X15383943Y-11514914D01*
X15383943Y-11514914D02*
X15383943Y-11562533D01*
X15383943Y-11562533D02*
X15374419Y-11600628D01*
X15374419Y-11600628D02*
X15364895Y-11619676D01*
X15364895Y-11619676D02*
X15355372Y-11629200D01*
X15355372Y-11629200D02*
X15336324Y-11638724D01*
X15336324Y-11638724D02*
X15317276Y-11638724D01*
X15317276Y-11638724D02*
X15298229Y-11629200D01*
X15298229Y-11629200D02*
X15288705Y-11619676D01*
X15288705Y-11619676D02*
X15279181Y-11600628D01*
X15279181Y-11600628D02*
X15269657Y-11562533D01*
X15269657Y-11562533D02*
X15269657Y-11514914D01*
X15269657Y-11514914D02*
X15279181Y-11476819D01*
X15279181Y-11476819D02*
X15288705Y-11457771D01*
X15288705Y-11457771D02*
X15298229Y-11448248D01*
X15298229Y-11448248D02*
X15317276Y-11438724D01*
X15469657Y-11619676D02*
X15479181Y-11629200D01*
X15479181Y-11629200D02*
X15469657Y-11638724D01*
X15469657Y-11638724D02*
X15460133Y-11629200D01*
X15460133Y-11629200D02*
X15469657Y-11619676D01*
X15469657Y-11619676D02*
X15469657Y-11638724D01*
X15602991Y-11438724D02*
X15622038Y-11438724D01*
X15622038Y-11438724D02*
X15641086Y-11448248D01*
X15641086Y-11448248D02*
X15650610Y-11457771D01*
X15650610Y-11457771D02*
X15660133Y-11476819D01*
X15660133Y-11476819D02*
X15669657Y-11514914D01*
X15669657Y-11514914D02*
X15669657Y-11562533D01*
X15669657Y-11562533D02*
X15660133Y-11600628D01*
X15660133Y-11600628D02*
X15650610Y-11619676D01*
X15650610Y-11619676D02*
X15641086Y-11629200D01*
X15641086Y-11629200D02*
X15622038Y-11638724D01*
X15622038Y-11638724D02*
X15602991Y-11638724D01*
X15602991Y-11638724D02*
X15583943Y-11629200D01*
X15583943Y-11629200D02*
X15574419Y-11619676D01*
X15574419Y-11619676D02*
X15564895Y-11600628D01*
X15564895Y-11600628D02*
X15555372Y-11562533D01*
X15555372Y-11562533D02*
X15555372Y-11514914D01*
X15555372Y-11514914D02*
X15564895Y-11476819D01*
X15564895Y-11476819D02*
X15574419Y-11457771D01*
X15574419Y-11457771D02*
X15583943Y-11448248D01*
X15583943Y-11448248D02*
X15602991Y-11438724D01*
X15841086Y-11438724D02*
X15802991Y-11438724D01*
X15802991Y-11438724D02*
X15783943Y-11448248D01*
X15783943Y-11448248D02*
X15774419Y-11457771D01*
X15774419Y-11457771D02*
X15755372Y-11486343D01*
X15755372Y-11486343D02*
X15745848Y-11524438D01*
X15745848Y-11524438D02*
X15745848Y-11600628D01*
X15745848Y-11600628D02*
X15755372Y-11619676D01*
X15755372Y-11619676D02*
X15764895Y-11629200D01*
X15764895Y-11629200D02*
X15783943Y-11638724D01*
X15783943Y-11638724D02*
X15822038Y-11638724D01*
X15822038Y-11638724D02*
X15841086Y-11629200D01*
X15841086Y-11629200D02*
X15850610Y-11619676D01*
X15850610Y-11619676D02*
X15860133Y-11600628D01*
X15860133Y-11600628D02*
X15860133Y-11553009D01*
X15860133Y-11553009D02*
X15850610Y-11533962D01*
X15850610Y-11533962D02*
X15841086Y-11524438D01*
X15841086Y-11524438D02*
X15822038Y-11514914D01*
X15822038Y-11514914D02*
X15783943Y-11514914D01*
X15783943Y-11514914D02*
X15764895Y-11524438D01*
X15764895Y-11524438D02*
X15755372Y-11533962D01*
X15755372Y-11533962D02*
X15745848Y-11553009D01*
X15926800Y-11438724D02*
X16050610Y-11438724D01*
X16050610Y-11438724D02*
X15983943Y-11514914D01*
X15983943Y-11514914D02*
X16012514Y-11514914D01*
X16012514Y-11514914D02*
X16031562Y-11524438D01*
X16031562Y-11524438D02*
X16041086Y-11533962D01*
X16041086Y-11533962D02*
X16050610Y-11553009D01*
X16050610Y-11553009D02*
X16050610Y-11600628D01*
X16050610Y-11600628D02*
X16041086Y-11619676D01*
X16041086Y-11619676D02*
X16031562Y-11629200D01*
X16031562Y-11629200D02*
X16012514Y-11638724D01*
X16012514Y-11638724D02*
X15955372Y-11638724D01*
X15955372Y-11638724D02*
X15936324Y-11629200D01*
X15936324Y-11629200D02*
X15926800Y-11619676D01*
X16174419Y-11438724D02*
X16193467Y-11438724D01*
X16193467Y-11438724D02*
X16212514Y-11448248D01*
X16212514Y-11448248D02*
X16222038Y-11457771D01*
X16222038Y-11457771D02*
X16231562Y-11476819D01*
X16231562Y-11476819D02*
X16241086Y-11514914D01*
X16241086Y-11514914D02*
X16241086Y-11562533D01*
X16241086Y-11562533D02*
X16231562Y-11600628D01*
X16231562Y-11600628D02*
X16222038Y-11619676D01*
X16222038Y-11619676D02*
X16212514Y-11629200D01*
X16212514Y-11629200D02*
X16193467Y-11638724D01*
X16193467Y-11638724D02*
X16174419Y-11638724D01*
X16174419Y-11638724D02*
X16155372Y-11629200D01*
X16155372Y-11629200D02*
X16145848Y-11619676D01*
X16145848Y-11619676D02*
X16136324Y-11600628D01*
X16136324Y-11600628D02*
X16126800Y-11562533D01*
X16126800Y-11562533D02*
X16126800Y-11514914D01*
X16126800Y-11514914D02*
X16136324Y-11476819D01*
X16136324Y-11476819D02*
X16145848Y-11457771D01*
X16145848Y-11457771D02*
X16155372Y-11448248D01*
X16155372Y-11448248D02*
X16174419Y-11438724D01*
X16317276Y-11438724D02*
X16317276Y-11476819D01*
X16393467Y-11438724D02*
X16393467Y-11476819D01*
X16688705Y-11714914D02*
X16679181Y-11705390D01*
X16679181Y-11705390D02*
X16660134Y-11676819D01*
X16660134Y-11676819D02*
X16650610Y-11657771D01*
X16650610Y-11657771D02*
X16641086Y-11629200D01*
X16641086Y-11629200D02*
X16631562Y-11581581D01*
X16631562Y-11581581D02*
X16631562Y-11543486D01*
X16631562Y-11543486D02*
X16641086Y-11495867D01*
X16641086Y-11495867D02*
X16650610Y-11467295D01*
X16650610Y-11467295D02*
X16660134Y-11448248D01*
X16660134Y-11448248D02*
X16679181Y-11419676D01*
X16679181Y-11419676D02*
X16688705Y-11410152D01*
X16755372Y-11457771D02*
X16764895Y-11448248D01*
X16764895Y-11448248D02*
X16783943Y-11438724D01*
X16783943Y-11438724D02*
X16831562Y-11438724D01*
X16831562Y-11438724D02*
X16850610Y-11448248D01*
X16850610Y-11448248D02*
X16860134Y-11457771D01*
X16860134Y-11457771D02*
X16869657Y-11476819D01*
X16869657Y-11476819D02*
X16869657Y-11495867D01*
X16869657Y-11495867D02*
X16860134Y-11524438D01*
X16860134Y-11524438D02*
X16745848Y-11638724D01*
X16745848Y-11638724D02*
X16869657Y-11638724D01*
X17107753Y-11638724D02*
X17107753Y-11438724D01*
X17193467Y-11638724D02*
X17193467Y-11533962D01*
X17193467Y-11533962D02*
X17183943Y-11514914D01*
X17183943Y-11514914D02*
X17164896Y-11505390D01*
X17164896Y-11505390D02*
X17136324Y-11505390D01*
X17136324Y-11505390D02*
X17117277Y-11514914D01*
X17117277Y-11514914D02*
X17107753Y-11524438D01*
X17317277Y-11638724D02*
X17298229Y-11629200D01*
X17298229Y-11629200D02*
X17288705Y-11619676D01*
X17288705Y-11619676D02*
X17279181Y-11600628D01*
X17279181Y-11600628D02*
X17279181Y-11543486D01*
X17279181Y-11543486D02*
X17288705Y-11524438D01*
X17288705Y-11524438D02*
X17298229Y-11514914D01*
X17298229Y-11514914D02*
X17317277Y-11505390D01*
X17317277Y-11505390D02*
X17345848Y-11505390D01*
X17345848Y-11505390D02*
X17364896Y-11514914D01*
X17364896Y-11514914D02*
X17374419Y-11524438D01*
X17374419Y-11524438D02*
X17383943Y-11543486D01*
X17383943Y-11543486D02*
X17383943Y-11600628D01*
X17383943Y-11600628D02*
X17374419Y-11619676D01*
X17374419Y-11619676D02*
X17364896Y-11629200D01*
X17364896Y-11629200D02*
X17345848Y-11638724D01*
X17345848Y-11638724D02*
X17317277Y-11638724D01*
X17498229Y-11638724D02*
X17479181Y-11629200D01*
X17479181Y-11629200D02*
X17469658Y-11610152D01*
X17469658Y-11610152D02*
X17469658Y-11438724D01*
X17650610Y-11629200D02*
X17631562Y-11638724D01*
X17631562Y-11638724D02*
X17593467Y-11638724D01*
X17593467Y-11638724D02*
X17574419Y-11629200D01*
X17574419Y-11629200D02*
X17564896Y-11610152D01*
X17564896Y-11610152D02*
X17564896Y-11533962D01*
X17564896Y-11533962D02*
X17574419Y-11514914D01*
X17574419Y-11514914D02*
X17593467Y-11505390D01*
X17593467Y-11505390D02*
X17631562Y-11505390D01*
X17631562Y-11505390D02*
X17650610Y-11514914D01*
X17650610Y-11514914D02*
X17660134Y-11533962D01*
X17660134Y-11533962D02*
X17660134Y-11553009D01*
X17660134Y-11553009D02*
X17564896Y-11572057D01*
X17736324Y-11629200D02*
X17755372Y-11638724D01*
X17755372Y-11638724D02*
X17793467Y-11638724D01*
X17793467Y-11638724D02*
X17812515Y-11629200D01*
X17812515Y-11629200D02*
X17822039Y-11610152D01*
X17822039Y-11610152D02*
X17822039Y-11600628D01*
X17822039Y-11600628D02*
X17812515Y-11581581D01*
X17812515Y-11581581D02*
X17793467Y-11572057D01*
X17793467Y-11572057D02*
X17764896Y-11572057D01*
X17764896Y-11572057D02*
X17745848Y-11562533D01*
X17745848Y-11562533D02*
X17736324Y-11543486D01*
X17736324Y-11543486D02*
X17736324Y-11533962D01*
X17736324Y-11533962D02*
X17745848Y-11514914D01*
X17745848Y-11514914D02*
X17764896Y-11505390D01*
X17764896Y-11505390D02*
X17793467Y-11505390D01*
X17793467Y-11505390D02*
X17812515Y-11514914D01*
X17888705Y-11714914D02*
X17898229Y-11705390D01*
X17898229Y-11705390D02*
X17917277Y-11676819D01*
X17917277Y-11676819D02*
X17926800Y-11657771D01*
X17926800Y-11657771D02*
X17936324Y-11629200D01*
X17936324Y-11629200D02*
X17945848Y-11581581D01*
X17945848Y-11581581D02*
X17945848Y-11543486D01*
X17945848Y-11543486D02*
X17936324Y-11495867D01*
X17936324Y-11495867D02*
X17926800Y-11467295D01*
X17926800Y-11467295D02*
X17917277Y-11448248D01*
X17917277Y-11448248D02*
X17898229Y-11419676D01*
X17898229Y-11419676D02*
X17888705Y-11410152D01*
M02*
