G04 #@! TF.GenerationSoftware,KiCad,Pcbnew,7.0.1*
G04 #@! TF.CreationDate,2023-07-05T13:49:47-05:00*
G04 #@! TF.ProjectId,pn5180 cat5 connector with linear regulator,706e3531-3830-4206-9361-743520636f6e,rev?*
G04 #@! TF.SameCoordinates,Original*
G04 #@! TF.FileFunction,Legend,Bot*
G04 #@! TF.FilePolarity,Positive*
%FSLAX46Y46*%
G04 Gerber Fmt 4.6, Leading zero omitted, Abs format (unit mm)*
G04 Created by KiCad (PCBNEW 7.0.1) date 2023-07-05 13:49:47*
%MOMM*%
%LPD*%
G01*
G04 APERTURE LIST*
%ADD10C,0.150000*%
%ADD11C,0.120000*%
%ADD12C,1.600000*%
%ADD13C,3.250000*%
%ADD14R,1.500000X1.500000*%
%ADD15C,1.500000*%
%ADD16C,3.000000*%
%ADD17R,1.700000X1.700000*%
%ADD18O,1.700000X1.700000*%
%ADD19R,2.000000X1.500000*%
%ADD20R,2.000000X3.800000*%
G04 APERTURE END LIST*
D10*
X153733523Y-84362000D02*
X153590666Y-84409619D01*
X153590666Y-84409619D02*
X153352571Y-84409619D01*
X153352571Y-84409619D02*
X153257333Y-84362000D01*
X153257333Y-84362000D02*
X153209714Y-84314380D01*
X153209714Y-84314380D02*
X153162095Y-84219142D01*
X153162095Y-84219142D02*
X153162095Y-84123904D01*
X153162095Y-84123904D02*
X153209714Y-84028666D01*
X153209714Y-84028666D02*
X153257333Y-83981047D01*
X153257333Y-83981047D02*
X153352571Y-83933428D01*
X153352571Y-83933428D02*
X153543047Y-83885809D01*
X153543047Y-83885809D02*
X153638285Y-83838190D01*
X153638285Y-83838190D02*
X153685904Y-83790571D01*
X153685904Y-83790571D02*
X153733523Y-83695333D01*
X153733523Y-83695333D02*
X153733523Y-83600095D01*
X153733523Y-83600095D02*
X153685904Y-83504857D01*
X153685904Y-83504857D02*
X153638285Y-83457238D01*
X153638285Y-83457238D02*
X153543047Y-83409619D01*
X153543047Y-83409619D02*
X153304952Y-83409619D01*
X153304952Y-83409619D02*
X153162095Y-83457238D01*
X152162095Y-84314380D02*
X152209714Y-84362000D01*
X152209714Y-84362000D02*
X152352571Y-84409619D01*
X152352571Y-84409619D02*
X152447809Y-84409619D01*
X152447809Y-84409619D02*
X152590666Y-84362000D01*
X152590666Y-84362000D02*
X152685904Y-84266761D01*
X152685904Y-84266761D02*
X152733523Y-84171523D01*
X152733523Y-84171523D02*
X152781142Y-83981047D01*
X152781142Y-83981047D02*
X152781142Y-83838190D01*
X152781142Y-83838190D02*
X152733523Y-83647714D01*
X152733523Y-83647714D02*
X152685904Y-83552476D01*
X152685904Y-83552476D02*
X152590666Y-83457238D01*
X152590666Y-83457238D02*
X152447809Y-83409619D01*
X152447809Y-83409619D02*
X152352571Y-83409619D01*
X152352571Y-83409619D02*
X152209714Y-83457238D01*
X152209714Y-83457238D02*
X152162095Y-83504857D01*
X151733523Y-84409619D02*
X151733523Y-83409619D01*
X151162095Y-84409619D02*
X151590666Y-83838190D01*
X151162095Y-83409619D02*
X151733523Y-83981047D01*
X153685904Y-92029619D02*
X153685904Y-91029619D01*
X153685904Y-91029619D02*
X153114476Y-92029619D01*
X153114476Y-92029619D02*
X153114476Y-91029619D01*
X152685904Y-91982000D02*
X152543047Y-92029619D01*
X152543047Y-92029619D02*
X152304952Y-92029619D01*
X152304952Y-92029619D02*
X152209714Y-91982000D01*
X152209714Y-91982000D02*
X152162095Y-91934380D01*
X152162095Y-91934380D02*
X152114476Y-91839142D01*
X152114476Y-91839142D02*
X152114476Y-91743904D01*
X152114476Y-91743904D02*
X152162095Y-91648666D01*
X152162095Y-91648666D02*
X152209714Y-91601047D01*
X152209714Y-91601047D02*
X152304952Y-91553428D01*
X152304952Y-91553428D02*
X152495428Y-91505809D01*
X152495428Y-91505809D02*
X152590666Y-91458190D01*
X152590666Y-91458190D02*
X152638285Y-91410571D01*
X152638285Y-91410571D02*
X152685904Y-91315333D01*
X152685904Y-91315333D02*
X152685904Y-91220095D01*
X152685904Y-91220095D02*
X152638285Y-91124857D01*
X152638285Y-91124857D02*
X152590666Y-91077238D01*
X152590666Y-91077238D02*
X152495428Y-91029619D01*
X152495428Y-91029619D02*
X152257333Y-91029619D01*
X152257333Y-91029619D02*
X152114476Y-91077238D01*
X151733523Y-91982000D02*
X151590666Y-92029619D01*
X151590666Y-92029619D02*
X151352571Y-92029619D01*
X151352571Y-92029619D02*
X151257333Y-91982000D01*
X151257333Y-91982000D02*
X151209714Y-91934380D01*
X151209714Y-91934380D02*
X151162095Y-91839142D01*
X151162095Y-91839142D02*
X151162095Y-91743904D01*
X151162095Y-91743904D02*
X151209714Y-91648666D01*
X151209714Y-91648666D02*
X151257333Y-91601047D01*
X151257333Y-91601047D02*
X151352571Y-91553428D01*
X151352571Y-91553428D02*
X151543047Y-91505809D01*
X151543047Y-91505809D02*
X151638285Y-91458190D01*
X151638285Y-91458190D02*
X151685904Y-91410571D01*
X151685904Y-91410571D02*
X151733523Y-91315333D01*
X151733523Y-91315333D02*
X151733523Y-91220095D01*
X151733523Y-91220095D02*
X151685904Y-91124857D01*
X151685904Y-91124857D02*
X151638285Y-91077238D01*
X151638285Y-91077238D02*
X151543047Y-91029619D01*
X151543047Y-91029619D02*
X151304952Y-91029619D01*
X151304952Y-91029619D02*
X151162095Y-91077238D01*
X153781142Y-96109619D02*
X153162095Y-96109619D01*
X153162095Y-96109619D02*
X153495428Y-96490571D01*
X153495428Y-96490571D02*
X153352571Y-96490571D01*
X153352571Y-96490571D02*
X153257333Y-96538190D01*
X153257333Y-96538190D02*
X153209714Y-96585809D01*
X153209714Y-96585809D02*
X153162095Y-96681047D01*
X153162095Y-96681047D02*
X153162095Y-96919142D01*
X153162095Y-96919142D02*
X153209714Y-97014380D01*
X153209714Y-97014380D02*
X153257333Y-97062000D01*
X153257333Y-97062000D02*
X153352571Y-97109619D01*
X153352571Y-97109619D02*
X153638285Y-97109619D01*
X153638285Y-97109619D02*
X153733523Y-97062000D01*
X153733523Y-97062000D02*
X153781142Y-97014380D01*
X152876380Y-96109619D02*
X152543047Y-97109619D01*
X152543047Y-97109619D02*
X152209714Y-96109619D01*
X151971618Y-96109619D02*
X151352571Y-96109619D01*
X151352571Y-96109619D02*
X151685904Y-96490571D01*
X151685904Y-96490571D02*
X151543047Y-96490571D01*
X151543047Y-96490571D02*
X151447809Y-96538190D01*
X151447809Y-96538190D02*
X151400190Y-96585809D01*
X151400190Y-96585809D02*
X151352571Y-96681047D01*
X151352571Y-96681047D02*
X151352571Y-96919142D01*
X151352571Y-96919142D02*
X151400190Y-97014380D01*
X151400190Y-97014380D02*
X151447809Y-97062000D01*
X151447809Y-97062000D02*
X151543047Y-97109619D01*
X151543047Y-97109619D02*
X151828761Y-97109619D01*
X151828761Y-97109619D02*
X151923999Y-97062000D01*
X151923999Y-97062000D02*
X151971618Y-97014380D01*
X153209714Y-98649619D02*
X153685904Y-98649619D01*
X153685904Y-98649619D02*
X153733523Y-99125809D01*
X153733523Y-99125809D02*
X153685904Y-99078190D01*
X153685904Y-99078190D02*
X153590666Y-99030571D01*
X153590666Y-99030571D02*
X153352571Y-99030571D01*
X153352571Y-99030571D02*
X153257333Y-99078190D01*
X153257333Y-99078190D02*
X153209714Y-99125809D01*
X153209714Y-99125809D02*
X153162095Y-99221047D01*
X153162095Y-99221047D02*
X153162095Y-99459142D01*
X153162095Y-99459142D02*
X153209714Y-99554380D01*
X153209714Y-99554380D02*
X153257333Y-99602000D01*
X153257333Y-99602000D02*
X153352571Y-99649619D01*
X153352571Y-99649619D02*
X153590666Y-99649619D01*
X153590666Y-99649619D02*
X153685904Y-99602000D01*
X153685904Y-99602000D02*
X153733523Y-99554380D01*
X152876380Y-98649619D02*
X152543047Y-99649619D01*
X152543047Y-99649619D02*
X152209714Y-98649619D01*
X153289095Y-78377238D02*
X153384333Y-78329619D01*
X153384333Y-78329619D02*
X153527190Y-78329619D01*
X153527190Y-78329619D02*
X153670047Y-78377238D01*
X153670047Y-78377238D02*
X153765285Y-78472476D01*
X153765285Y-78472476D02*
X153812904Y-78567714D01*
X153812904Y-78567714D02*
X153860523Y-78758190D01*
X153860523Y-78758190D02*
X153860523Y-78901047D01*
X153860523Y-78901047D02*
X153812904Y-79091523D01*
X153812904Y-79091523D02*
X153765285Y-79186761D01*
X153765285Y-79186761D02*
X153670047Y-79282000D01*
X153670047Y-79282000D02*
X153527190Y-79329619D01*
X153527190Y-79329619D02*
X153431952Y-79329619D01*
X153431952Y-79329619D02*
X153289095Y-79282000D01*
X153289095Y-79282000D02*
X153241476Y-79234380D01*
X153241476Y-79234380D02*
X153241476Y-78901047D01*
X153241476Y-78901047D02*
X153431952Y-78901047D01*
X152812904Y-79329619D02*
X152812904Y-78329619D01*
X152812904Y-78329619D02*
X152241476Y-79329619D01*
X152241476Y-79329619D02*
X152241476Y-78329619D01*
X151765285Y-79329619D02*
X151765285Y-78329619D01*
X151765285Y-78329619D02*
X151527190Y-78329619D01*
X151527190Y-78329619D02*
X151384333Y-78377238D01*
X151384333Y-78377238D02*
X151289095Y-78472476D01*
X151289095Y-78472476D02*
X151241476Y-78567714D01*
X151241476Y-78567714D02*
X151193857Y-78758190D01*
X151193857Y-78758190D02*
X151193857Y-78901047D01*
X151193857Y-78901047D02*
X151241476Y-79091523D01*
X151241476Y-79091523D02*
X151289095Y-79186761D01*
X151289095Y-79186761D02*
X151384333Y-79282000D01*
X151384333Y-79282000D02*
X151527190Y-79329619D01*
X151527190Y-79329619D02*
X151765285Y-79329619D01*
X153479571Y-81472809D02*
X153336714Y-81520428D01*
X153336714Y-81520428D02*
X153289095Y-81568047D01*
X153289095Y-81568047D02*
X153241476Y-81663285D01*
X153241476Y-81663285D02*
X153241476Y-81806142D01*
X153241476Y-81806142D02*
X153289095Y-81901380D01*
X153289095Y-81901380D02*
X153336714Y-81949000D01*
X153336714Y-81949000D02*
X153431952Y-81996619D01*
X153431952Y-81996619D02*
X153812904Y-81996619D01*
X153812904Y-81996619D02*
X153812904Y-80996619D01*
X153812904Y-80996619D02*
X153479571Y-80996619D01*
X153479571Y-80996619D02*
X153384333Y-81044238D01*
X153384333Y-81044238D02*
X153336714Y-81091857D01*
X153336714Y-81091857D02*
X153289095Y-81187095D01*
X153289095Y-81187095D02*
X153289095Y-81282333D01*
X153289095Y-81282333D02*
X153336714Y-81377571D01*
X153336714Y-81377571D02*
X153384333Y-81425190D01*
X153384333Y-81425190D02*
X153479571Y-81472809D01*
X153479571Y-81472809D02*
X153812904Y-81472809D01*
X152812904Y-80996619D02*
X152812904Y-81806142D01*
X152812904Y-81806142D02*
X152765285Y-81901380D01*
X152765285Y-81901380D02*
X152717666Y-81949000D01*
X152717666Y-81949000D02*
X152622428Y-81996619D01*
X152622428Y-81996619D02*
X152431952Y-81996619D01*
X152431952Y-81996619D02*
X152336714Y-81949000D01*
X152336714Y-81949000D02*
X152289095Y-81901380D01*
X152289095Y-81901380D02*
X152241476Y-81806142D01*
X152241476Y-81806142D02*
X152241476Y-80996619D01*
X151812904Y-81949000D02*
X151670047Y-81996619D01*
X151670047Y-81996619D02*
X151431952Y-81996619D01*
X151431952Y-81996619D02*
X151336714Y-81949000D01*
X151336714Y-81949000D02*
X151289095Y-81901380D01*
X151289095Y-81901380D02*
X151241476Y-81806142D01*
X151241476Y-81806142D02*
X151241476Y-81710904D01*
X151241476Y-81710904D02*
X151289095Y-81615666D01*
X151289095Y-81615666D02*
X151336714Y-81568047D01*
X151336714Y-81568047D02*
X151431952Y-81520428D01*
X151431952Y-81520428D02*
X151622428Y-81472809D01*
X151622428Y-81472809D02*
X151717666Y-81425190D01*
X151717666Y-81425190D02*
X151765285Y-81377571D01*
X151765285Y-81377571D02*
X151812904Y-81282333D01*
X151812904Y-81282333D02*
X151812904Y-81187095D01*
X151812904Y-81187095D02*
X151765285Y-81091857D01*
X151765285Y-81091857D02*
X151717666Y-81044238D01*
X151717666Y-81044238D02*
X151622428Y-80996619D01*
X151622428Y-80996619D02*
X151384333Y-80996619D01*
X151384333Y-80996619D02*
X151241476Y-81044238D01*
X150622428Y-81520428D02*
X150622428Y-81996619D01*
X150955761Y-80996619D02*
X150622428Y-81520428D01*
X150622428Y-81520428D02*
X150289095Y-80996619D01*
X139066904Y-87106524D02*
X139066904Y-87582714D01*
X139352619Y-87011286D02*
X138352619Y-87344619D01*
X138352619Y-87344619D02*
X139352619Y-87677952D01*
X139352619Y-88011286D02*
X138352619Y-88011286D01*
X138352619Y-88011286D02*
X139066904Y-88344619D01*
X139066904Y-88344619D02*
X138352619Y-88677952D01*
X138352619Y-88677952D02*
X139352619Y-88677952D01*
X139305000Y-89106524D02*
X139352619Y-89249381D01*
X139352619Y-89249381D02*
X139352619Y-89487476D01*
X139352619Y-89487476D02*
X139305000Y-89582714D01*
X139305000Y-89582714D02*
X139257380Y-89630333D01*
X139257380Y-89630333D02*
X139162142Y-89677952D01*
X139162142Y-89677952D02*
X139066904Y-89677952D01*
X139066904Y-89677952D02*
X138971666Y-89630333D01*
X138971666Y-89630333D02*
X138924047Y-89582714D01*
X138924047Y-89582714D02*
X138876428Y-89487476D01*
X138876428Y-89487476D02*
X138828809Y-89297000D01*
X138828809Y-89297000D02*
X138781190Y-89201762D01*
X138781190Y-89201762D02*
X138733571Y-89154143D01*
X138733571Y-89154143D02*
X138638333Y-89106524D01*
X138638333Y-89106524D02*
X138543095Y-89106524D01*
X138543095Y-89106524D02*
X138447857Y-89154143D01*
X138447857Y-89154143D02*
X138400238Y-89201762D01*
X138400238Y-89201762D02*
X138352619Y-89297000D01*
X138352619Y-89297000D02*
X138352619Y-89535095D01*
X138352619Y-89535095D02*
X138400238Y-89677952D01*
X139352619Y-90630333D02*
X139352619Y-90058905D01*
X139352619Y-90344619D02*
X138352619Y-90344619D01*
X138352619Y-90344619D02*
X138495476Y-90249381D01*
X138495476Y-90249381D02*
X138590714Y-90154143D01*
X138590714Y-90154143D02*
X138638333Y-90058905D01*
X139352619Y-91582714D02*
X139352619Y-91011286D01*
X139352619Y-91297000D02*
X138352619Y-91297000D01*
X138352619Y-91297000D02*
X138495476Y-91201762D01*
X138495476Y-91201762D02*
X138590714Y-91106524D01*
X138590714Y-91106524D02*
X138638333Y-91011286D01*
X139352619Y-92535095D02*
X139352619Y-91963667D01*
X139352619Y-92249381D02*
X138352619Y-92249381D01*
X138352619Y-92249381D02*
X138495476Y-92154143D01*
X138495476Y-92154143D02*
X138590714Y-92058905D01*
X138590714Y-92058905D02*
X138638333Y-91963667D01*
X138352619Y-92868429D02*
X138352619Y-93535095D01*
X138352619Y-93535095D02*
X139352619Y-93106524D01*
X139972619Y-89058905D02*
X139972619Y-89677952D01*
X139972619Y-89677952D02*
X140353571Y-89344619D01*
X140353571Y-89344619D02*
X140353571Y-89487476D01*
X140353571Y-89487476D02*
X140401190Y-89582714D01*
X140401190Y-89582714D02*
X140448809Y-89630333D01*
X140448809Y-89630333D02*
X140544047Y-89677952D01*
X140544047Y-89677952D02*
X140782142Y-89677952D01*
X140782142Y-89677952D02*
X140877380Y-89630333D01*
X140877380Y-89630333D02*
X140925000Y-89582714D01*
X140925000Y-89582714D02*
X140972619Y-89487476D01*
X140972619Y-89487476D02*
X140972619Y-89201762D01*
X140972619Y-89201762D02*
X140925000Y-89106524D01*
X140925000Y-89106524D02*
X140877380Y-89058905D01*
X139972619Y-89963667D02*
X140972619Y-90297000D01*
X140972619Y-90297000D02*
X139972619Y-90630333D01*
X139972619Y-90868429D02*
X139972619Y-91487476D01*
X139972619Y-91487476D02*
X140353571Y-91154143D01*
X140353571Y-91154143D02*
X140353571Y-91297000D01*
X140353571Y-91297000D02*
X140401190Y-91392238D01*
X140401190Y-91392238D02*
X140448809Y-91439857D01*
X140448809Y-91439857D02*
X140544047Y-91487476D01*
X140544047Y-91487476D02*
X140782142Y-91487476D01*
X140782142Y-91487476D02*
X140877380Y-91439857D01*
X140877380Y-91439857D02*
X140925000Y-91392238D01*
X140925000Y-91392238D02*
X140972619Y-91297000D01*
X140972619Y-91297000D02*
X140972619Y-91011286D01*
X140972619Y-91011286D02*
X140925000Y-90916048D01*
X140925000Y-90916048D02*
X140877380Y-90868429D01*
X153685904Y-89489619D02*
X153685904Y-88489619D01*
X153685904Y-88489619D02*
X153352571Y-89203904D01*
X153352571Y-89203904D02*
X153019238Y-88489619D01*
X153019238Y-88489619D02*
X153019238Y-89489619D01*
X152352571Y-88489619D02*
X152162095Y-88489619D01*
X152162095Y-88489619D02*
X152066857Y-88537238D01*
X152066857Y-88537238D02*
X151971619Y-88632476D01*
X151971619Y-88632476D02*
X151924000Y-88822952D01*
X151924000Y-88822952D02*
X151924000Y-89156285D01*
X151924000Y-89156285D02*
X151971619Y-89346761D01*
X151971619Y-89346761D02*
X152066857Y-89442000D01*
X152066857Y-89442000D02*
X152162095Y-89489619D01*
X152162095Y-89489619D02*
X152352571Y-89489619D01*
X152352571Y-89489619D02*
X152447809Y-89442000D01*
X152447809Y-89442000D02*
X152543047Y-89346761D01*
X152543047Y-89346761D02*
X152590666Y-89156285D01*
X152590666Y-89156285D02*
X152590666Y-88822952D01*
X152590666Y-88822952D02*
X152543047Y-88632476D01*
X152543047Y-88632476D02*
X152447809Y-88537238D01*
X152447809Y-88537238D02*
X152352571Y-88489619D01*
X151543047Y-89442000D02*
X151400190Y-89489619D01*
X151400190Y-89489619D02*
X151162095Y-89489619D01*
X151162095Y-89489619D02*
X151066857Y-89442000D01*
X151066857Y-89442000D02*
X151019238Y-89394380D01*
X151019238Y-89394380D02*
X150971619Y-89299142D01*
X150971619Y-89299142D02*
X150971619Y-89203904D01*
X150971619Y-89203904D02*
X151019238Y-89108666D01*
X151019238Y-89108666D02*
X151066857Y-89061047D01*
X151066857Y-89061047D02*
X151162095Y-89013428D01*
X151162095Y-89013428D02*
X151352571Y-88965809D01*
X151352571Y-88965809D02*
X151447809Y-88918190D01*
X151447809Y-88918190D02*
X151495428Y-88870571D01*
X151495428Y-88870571D02*
X151543047Y-88775333D01*
X151543047Y-88775333D02*
X151543047Y-88680095D01*
X151543047Y-88680095D02*
X151495428Y-88584857D01*
X151495428Y-88584857D02*
X151447809Y-88537238D01*
X151447809Y-88537238D02*
X151352571Y-88489619D01*
X151352571Y-88489619D02*
X151114476Y-88489619D01*
X151114476Y-88489619D02*
X150971619Y-88537238D01*
X150543047Y-89489619D02*
X150543047Y-88489619D01*
X153685904Y-86949619D02*
X153685904Y-85949619D01*
X153685904Y-85949619D02*
X153352571Y-86663904D01*
X153352571Y-86663904D02*
X153019238Y-85949619D01*
X153019238Y-85949619D02*
X153019238Y-86949619D01*
X152543047Y-86949619D02*
X152543047Y-85949619D01*
X152114476Y-86902000D02*
X151971619Y-86949619D01*
X151971619Y-86949619D02*
X151733524Y-86949619D01*
X151733524Y-86949619D02*
X151638286Y-86902000D01*
X151638286Y-86902000D02*
X151590667Y-86854380D01*
X151590667Y-86854380D02*
X151543048Y-86759142D01*
X151543048Y-86759142D02*
X151543048Y-86663904D01*
X151543048Y-86663904D02*
X151590667Y-86568666D01*
X151590667Y-86568666D02*
X151638286Y-86521047D01*
X151638286Y-86521047D02*
X151733524Y-86473428D01*
X151733524Y-86473428D02*
X151924000Y-86425809D01*
X151924000Y-86425809D02*
X152019238Y-86378190D01*
X152019238Y-86378190D02*
X152066857Y-86330571D01*
X152066857Y-86330571D02*
X152114476Y-86235333D01*
X152114476Y-86235333D02*
X152114476Y-86140095D01*
X152114476Y-86140095D02*
X152066857Y-86044857D01*
X152066857Y-86044857D02*
X152019238Y-85997238D01*
X152019238Y-85997238D02*
X151924000Y-85949619D01*
X151924000Y-85949619D02*
X151685905Y-85949619D01*
X151685905Y-85949619D02*
X151543048Y-85997238D01*
X150924000Y-85949619D02*
X150733524Y-85949619D01*
X150733524Y-85949619D02*
X150638286Y-85997238D01*
X150638286Y-85997238D02*
X150543048Y-86092476D01*
X150543048Y-86092476D02*
X150495429Y-86282952D01*
X150495429Y-86282952D02*
X150495429Y-86616285D01*
X150495429Y-86616285D02*
X150543048Y-86806761D01*
X150543048Y-86806761D02*
X150638286Y-86902000D01*
X150638286Y-86902000D02*
X150733524Y-86949619D01*
X150733524Y-86949619D02*
X150924000Y-86949619D01*
X150924000Y-86949619D02*
X151019238Y-86902000D01*
X151019238Y-86902000D02*
X151114476Y-86806761D01*
X151114476Y-86806761D02*
X151162095Y-86616285D01*
X151162095Y-86616285D02*
X151162095Y-86282952D01*
X151162095Y-86282952D02*
X151114476Y-86092476D01*
X151114476Y-86092476D02*
X151019238Y-85997238D01*
X151019238Y-85997238D02*
X150924000Y-85949619D01*
X153114476Y-94569619D02*
X153447809Y-94093428D01*
X153685904Y-94569619D02*
X153685904Y-93569619D01*
X153685904Y-93569619D02*
X153304952Y-93569619D01*
X153304952Y-93569619D02*
X153209714Y-93617238D01*
X153209714Y-93617238D02*
X153162095Y-93664857D01*
X153162095Y-93664857D02*
X153114476Y-93760095D01*
X153114476Y-93760095D02*
X153114476Y-93902952D01*
X153114476Y-93902952D02*
X153162095Y-93998190D01*
X153162095Y-93998190D02*
X153209714Y-94045809D01*
X153209714Y-94045809D02*
X153304952Y-94093428D01*
X153304952Y-94093428D02*
X153685904Y-94093428D01*
X152733523Y-94522000D02*
X152590666Y-94569619D01*
X152590666Y-94569619D02*
X152352571Y-94569619D01*
X152352571Y-94569619D02*
X152257333Y-94522000D01*
X152257333Y-94522000D02*
X152209714Y-94474380D01*
X152209714Y-94474380D02*
X152162095Y-94379142D01*
X152162095Y-94379142D02*
X152162095Y-94283904D01*
X152162095Y-94283904D02*
X152209714Y-94188666D01*
X152209714Y-94188666D02*
X152257333Y-94141047D01*
X152257333Y-94141047D02*
X152352571Y-94093428D01*
X152352571Y-94093428D02*
X152543047Y-94045809D01*
X152543047Y-94045809D02*
X152638285Y-93998190D01*
X152638285Y-93998190D02*
X152685904Y-93950571D01*
X152685904Y-93950571D02*
X152733523Y-93855333D01*
X152733523Y-93855333D02*
X152733523Y-93760095D01*
X152733523Y-93760095D02*
X152685904Y-93664857D01*
X152685904Y-93664857D02*
X152638285Y-93617238D01*
X152638285Y-93617238D02*
X152543047Y-93569619D01*
X152543047Y-93569619D02*
X152304952Y-93569619D01*
X152304952Y-93569619D02*
X152162095Y-93617238D01*
X151876380Y-93569619D02*
X151304952Y-93569619D01*
X151590666Y-94569619D02*
X151590666Y-93569619D01*
D11*
X135346000Y-93707000D02*
X141356000Y-93707000D01*
X137596000Y-86887000D02*
X141356000Y-86887000D01*
X141356000Y-86887000D02*
X141356000Y-88147000D01*
X141356000Y-93707000D02*
X141356000Y-92447000D01*
%LPC*%
D12*
X135255000Y-78867000D03*
X140255000Y-78867000D03*
X147454000Y-78867000D03*
X142454000Y-78867000D03*
D13*
X139573000Y-84709000D03*
X139573000Y-96139000D03*
D14*
X145923000Y-85979000D03*
D15*
X148463000Y-87249000D03*
X145923000Y-88519000D03*
X148463000Y-89789000D03*
X145923000Y-91059000D03*
X148463000Y-92329000D03*
X145923000Y-93599000D03*
X148463000Y-94869000D03*
D16*
X136523000Y-82654000D03*
X136523000Y-98194000D03*
D17*
X155346000Y-78877000D03*
D18*
X155346000Y-81417000D03*
X155346000Y-83957000D03*
X155346000Y-86497000D03*
X155346000Y-89037000D03*
X155346000Y-91577000D03*
X155346000Y-94117000D03*
X155346000Y-96657000D03*
X155346000Y-99197000D03*
D19*
X136296000Y-92597000D03*
X136296000Y-90297000D03*
D20*
X142596000Y-90297000D03*
D19*
X136296000Y-87997000D03*
M02*
