%TF.GenerationSoftware,KiCad,Pcbnew,7.0.1*%
%TF.CreationDate,2023-07-05T13:49:58-05:00*%
%TF.ProjectId,pn5180 cat5 connector with linear regulator,706e3531-3830-4206-9361-743520636f6e,rev?*%
%TF.SameCoordinates,Original*%
%TF.FileFunction,Drillmap*%
%TF.FilePolarity,Positive*%
%FSLAX45Y45*%
G04 Gerber Fmt 4.5, Leading zero omitted, Abs format (unit mm)*
G04 Created by KiCad (PCBNEW 7.0.1) date 2023-07-05 13:49:58*
%MOMM*%
%LPD*%
G01*
G04 APERTURE LIST*
%ADD10C,0.100000*%
%ADD11C,0.200000*%
%ADD12C,0.325000*%
G04 APERTURE END LIST*
D10*
X13131800Y-7670800D02*
X15671800Y-7670800D01*
X15671800Y-10109200D01*
X13131800Y-10109200D01*
X13131800Y-7670800D01*
D11*
D12*
X13794800Y-8308400D02*
X14119800Y-8633400D01*
X14119800Y-8308400D02*
X13794800Y-8633400D01*
X13794800Y-9451400D02*
X14119800Y-9776400D01*
X14119800Y-9451400D02*
X13794800Y-9776400D01*
D11*
X13374419Y-10426724D02*
X13374419Y-10226724D01*
X13374419Y-10226724D02*
X13422038Y-10226724D01*
X13422038Y-10226724D02*
X13450609Y-10236248D01*
X13450609Y-10236248D02*
X13469657Y-10255295D01*
X13469657Y-10255295D02*
X13479181Y-10274343D01*
X13479181Y-10274343D02*
X13488705Y-10312438D01*
X13488705Y-10312438D02*
X13488705Y-10341010D01*
X13488705Y-10341010D02*
X13479181Y-10379105D01*
X13479181Y-10379105D02*
X13469657Y-10398152D01*
X13469657Y-10398152D02*
X13450609Y-10417200D01*
X13450609Y-10417200D02*
X13422038Y-10426724D01*
X13422038Y-10426724D02*
X13374419Y-10426724D01*
X13574419Y-10426724D02*
X13574419Y-10293390D01*
X13574419Y-10331486D02*
X13583943Y-10312438D01*
X13583943Y-10312438D02*
X13593467Y-10302914D01*
X13593467Y-10302914D02*
X13612514Y-10293390D01*
X13612514Y-10293390D02*
X13631562Y-10293390D01*
X13698228Y-10426724D02*
X13698228Y-10293390D01*
X13698228Y-10226724D02*
X13688705Y-10236248D01*
X13688705Y-10236248D02*
X13698228Y-10245771D01*
X13698228Y-10245771D02*
X13707752Y-10236248D01*
X13707752Y-10236248D02*
X13698228Y-10226724D01*
X13698228Y-10226724D02*
X13698228Y-10245771D01*
X13822038Y-10426724D02*
X13802990Y-10417200D01*
X13802990Y-10417200D02*
X13793467Y-10398152D01*
X13793467Y-10398152D02*
X13793467Y-10226724D01*
X13926800Y-10426724D02*
X13907752Y-10417200D01*
X13907752Y-10417200D02*
X13898228Y-10398152D01*
X13898228Y-10398152D02*
X13898228Y-10226724D01*
X14155371Y-10426724D02*
X14155371Y-10226724D01*
X14155371Y-10226724D02*
X14222038Y-10369581D01*
X14222038Y-10369581D02*
X14288705Y-10226724D01*
X14288705Y-10226724D02*
X14288705Y-10426724D01*
X14469657Y-10426724D02*
X14469657Y-10321962D01*
X14469657Y-10321962D02*
X14460133Y-10302914D01*
X14460133Y-10302914D02*
X14441086Y-10293390D01*
X14441086Y-10293390D02*
X14402990Y-10293390D01*
X14402990Y-10293390D02*
X14383943Y-10302914D01*
X14469657Y-10417200D02*
X14450609Y-10426724D01*
X14450609Y-10426724D02*
X14402990Y-10426724D01*
X14402990Y-10426724D02*
X14383943Y-10417200D01*
X14383943Y-10417200D02*
X14374419Y-10398152D01*
X14374419Y-10398152D02*
X14374419Y-10379105D01*
X14374419Y-10379105D02*
X14383943Y-10360057D01*
X14383943Y-10360057D02*
X14402990Y-10350533D01*
X14402990Y-10350533D02*
X14450609Y-10350533D01*
X14450609Y-10350533D02*
X14469657Y-10341010D01*
X14564895Y-10293390D02*
X14564895Y-10493390D01*
X14564895Y-10302914D02*
X14583943Y-10293390D01*
X14583943Y-10293390D02*
X14622038Y-10293390D01*
X14622038Y-10293390D02*
X14641086Y-10302914D01*
X14641086Y-10302914D02*
X14650609Y-10312438D01*
X14650609Y-10312438D02*
X14660133Y-10331486D01*
X14660133Y-10331486D02*
X14660133Y-10388629D01*
X14660133Y-10388629D02*
X14650609Y-10407676D01*
X14650609Y-10407676D02*
X14641086Y-10417200D01*
X14641086Y-10417200D02*
X14622038Y-10426724D01*
X14622038Y-10426724D02*
X14583943Y-10426724D01*
X14583943Y-10426724D02*
X14564895Y-10417200D01*
X14745848Y-10407676D02*
X14755371Y-10417200D01*
X14755371Y-10417200D02*
X14745848Y-10426724D01*
X14745848Y-10426724D02*
X14736324Y-10417200D01*
X14736324Y-10417200D02*
X14745848Y-10407676D01*
X14745848Y-10407676D02*
X14745848Y-10426724D01*
X14745848Y-10302914D02*
X14755371Y-10312438D01*
X14755371Y-10312438D02*
X14745848Y-10321962D01*
X14745848Y-10321962D02*
X14736324Y-10312438D01*
X14736324Y-10312438D02*
X14745848Y-10302914D01*
X14745848Y-10302914D02*
X14745848Y-10321962D01*
X12926800Y-10654200D02*
X13126800Y-10854200D01*
X13126800Y-10654200D02*
X12926800Y-10854200D01*
X13355371Y-10646724D02*
X13479181Y-10646724D01*
X13479181Y-10646724D02*
X13412514Y-10722914D01*
X13412514Y-10722914D02*
X13441086Y-10722914D01*
X13441086Y-10722914D02*
X13460133Y-10732438D01*
X13460133Y-10732438D02*
X13469657Y-10741962D01*
X13469657Y-10741962D02*
X13479181Y-10761010D01*
X13479181Y-10761010D02*
X13479181Y-10808629D01*
X13479181Y-10808629D02*
X13469657Y-10827676D01*
X13469657Y-10827676D02*
X13460133Y-10837200D01*
X13460133Y-10837200D02*
X13441086Y-10846724D01*
X13441086Y-10846724D02*
X13383943Y-10846724D01*
X13383943Y-10846724D02*
X13364895Y-10837200D01*
X13364895Y-10837200D02*
X13355371Y-10827676D01*
X13564895Y-10827676D02*
X13574419Y-10837200D01*
X13574419Y-10837200D02*
X13564895Y-10846724D01*
X13564895Y-10846724D02*
X13555371Y-10837200D01*
X13555371Y-10837200D02*
X13564895Y-10827676D01*
X13564895Y-10827676D02*
X13564895Y-10846724D01*
X13650609Y-10665771D02*
X13660133Y-10656248D01*
X13660133Y-10656248D02*
X13679181Y-10646724D01*
X13679181Y-10646724D02*
X13726800Y-10646724D01*
X13726800Y-10646724D02*
X13745848Y-10656248D01*
X13745848Y-10656248D02*
X13755371Y-10665771D01*
X13755371Y-10665771D02*
X13764895Y-10684819D01*
X13764895Y-10684819D02*
X13764895Y-10703867D01*
X13764895Y-10703867D02*
X13755371Y-10732438D01*
X13755371Y-10732438D02*
X13641086Y-10846724D01*
X13641086Y-10846724D02*
X13764895Y-10846724D01*
X13945848Y-10646724D02*
X13850609Y-10646724D01*
X13850609Y-10646724D02*
X13841086Y-10741962D01*
X13841086Y-10741962D02*
X13850609Y-10732438D01*
X13850609Y-10732438D02*
X13869657Y-10722914D01*
X13869657Y-10722914D02*
X13917276Y-10722914D01*
X13917276Y-10722914D02*
X13936324Y-10732438D01*
X13936324Y-10732438D02*
X13945848Y-10741962D01*
X13945848Y-10741962D02*
X13955371Y-10761010D01*
X13955371Y-10761010D02*
X13955371Y-10808629D01*
X13955371Y-10808629D02*
X13945848Y-10827676D01*
X13945848Y-10827676D02*
X13936324Y-10837200D01*
X13936324Y-10837200D02*
X13917276Y-10846724D01*
X13917276Y-10846724D02*
X13869657Y-10846724D01*
X13869657Y-10846724D02*
X13850609Y-10837200D01*
X13850609Y-10837200D02*
X13841086Y-10827676D01*
X14079181Y-10646724D02*
X14098229Y-10646724D01*
X14098229Y-10646724D02*
X14117276Y-10656248D01*
X14117276Y-10656248D02*
X14126800Y-10665771D01*
X14126800Y-10665771D02*
X14136324Y-10684819D01*
X14136324Y-10684819D02*
X14145848Y-10722914D01*
X14145848Y-10722914D02*
X14145848Y-10770533D01*
X14145848Y-10770533D02*
X14136324Y-10808629D01*
X14136324Y-10808629D02*
X14126800Y-10827676D01*
X14126800Y-10827676D02*
X14117276Y-10837200D01*
X14117276Y-10837200D02*
X14098229Y-10846724D01*
X14098229Y-10846724D02*
X14079181Y-10846724D01*
X14079181Y-10846724D02*
X14060133Y-10837200D01*
X14060133Y-10837200D02*
X14050609Y-10827676D01*
X14050609Y-10827676D02*
X14041086Y-10808629D01*
X14041086Y-10808629D02*
X14031562Y-10770533D01*
X14031562Y-10770533D02*
X14031562Y-10722914D01*
X14031562Y-10722914D02*
X14041086Y-10684819D01*
X14041086Y-10684819D02*
X14050609Y-10665771D01*
X14050609Y-10665771D02*
X14060133Y-10656248D01*
X14060133Y-10656248D02*
X14079181Y-10646724D01*
X14231562Y-10846724D02*
X14231562Y-10713390D01*
X14231562Y-10732438D02*
X14241086Y-10722914D01*
X14241086Y-10722914D02*
X14260133Y-10713390D01*
X14260133Y-10713390D02*
X14288705Y-10713390D01*
X14288705Y-10713390D02*
X14307752Y-10722914D01*
X14307752Y-10722914D02*
X14317276Y-10741962D01*
X14317276Y-10741962D02*
X14317276Y-10846724D01*
X14317276Y-10741962D02*
X14326800Y-10722914D01*
X14326800Y-10722914D02*
X14345848Y-10713390D01*
X14345848Y-10713390D02*
X14374419Y-10713390D01*
X14374419Y-10713390D02*
X14393467Y-10722914D01*
X14393467Y-10722914D02*
X14402990Y-10741962D01*
X14402990Y-10741962D02*
X14402990Y-10846724D01*
X14498229Y-10846724D02*
X14498229Y-10713390D01*
X14498229Y-10732438D02*
X14507752Y-10722914D01*
X14507752Y-10722914D02*
X14526800Y-10713390D01*
X14526800Y-10713390D02*
X14555371Y-10713390D01*
X14555371Y-10713390D02*
X14574419Y-10722914D01*
X14574419Y-10722914D02*
X14583943Y-10741962D01*
X14583943Y-10741962D02*
X14583943Y-10846724D01*
X14583943Y-10741962D02*
X14593467Y-10722914D01*
X14593467Y-10722914D02*
X14612514Y-10713390D01*
X14612514Y-10713390D02*
X14641086Y-10713390D01*
X14641086Y-10713390D02*
X14660133Y-10722914D01*
X14660133Y-10722914D02*
X14669657Y-10741962D01*
X14669657Y-10741962D02*
X14669657Y-10846724D01*
X15060133Y-10637200D02*
X14888705Y-10894343D01*
X15317276Y-10646724D02*
X15336324Y-10646724D01*
X15336324Y-10646724D02*
X15355372Y-10656248D01*
X15355372Y-10656248D02*
X15364895Y-10665771D01*
X15364895Y-10665771D02*
X15374419Y-10684819D01*
X15374419Y-10684819D02*
X15383943Y-10722914D01*
X15383943Y-10722914D02*
X15383943Y-10770533D01*
X15383943Y-10770533D02*
X15374419Y-10808629D01*
X15374419Y-10808629D02*
X15364895Y-10827676D01*
X15364895Y-10827676D02*
X15355372Y-10837200D01*
X15355372Y-10837200D02*
X15336324Y-10846724D01*
X15336324Y-10846724D02*
X15317276Y-10846724D01*
X15317276Y-10846724D02*
X15298229Y-10837200D01*
X15298229Y-10837200D02*
X15288705Y-10827676D01*
X15288705Y-10827676D02*
X15279181Y-10808629D01*
X15279181Y-10808629D02*
X15269657Y-10770533D01*
X15269657Y-10770533D02*
X15269657Y-10722914D01*
X15269657Y-10722914D02*
X15279181Y-10684819D01*
X15279181Y-10684819D02*
X15288705Y-10665771D01*
X15288705Y-10665771D02*
X15298229Y-10656248D01*
X15298229Y-10656248D02*
X15317276Y-10646724D01*
X15469657Y-10827676D02*
X15479181Y-10837200D01*
X15479181Y-10837200D02*
X15469657Y-10846724D01*
X15469657Y-10846724D02*
X15460133Y-10837200D01*
X15460133Y-10837200D02*
X15469657Y-10827676D01*
X15469657Y-10827676D02*
X15469657Y-10846724D01*
X15669657Y-10846724D02*
X15555372Y-10846724D01*
X15612514Y-10846724D02*
X15612514Y-10646724D01*
X15612514Y-10646724D02*
X15593467Y-10675295D01*
X15593467Y-10675295D02*
X15574419Y-10694343D01*
X15574419Y-10694343D02*
X15555372Y-10703867D01*
X15745848Y-10665771D02*
X15755372Y-10656248D01*
X15755372Y-10656248D02*
X15774419Y-10646724D01*
X15774419Y-10646724D02*
X15822038Y-10646724D01*
X15822038Y-10646724D02*
X15841086Y-10656248D01*
X15841086Y-10656248D02*
X15850610Y-10665771D01*
X15850610Y-10665771D02*
X15860133Y-10684819D01*
X15860133Y-10684819D02*
X15860133Y-10703867D01*
X15860133Y-10703867D02*
X15850610Y-10732438D01*
X15850610Y-10732438D02*
X15736324Y-10846724D01*
X15736324Y-10846724D02*
X15860133Y-10846724D01*
X15974419Y-10732438D02*
X15955372Y-10722914D01*
X15955372Y-10722914D02*
X15945848Y-10713390D01*
X15945848Y-10713390D02*
X15936324Y-10694343D01*
X15936324Y-10694343D02*
X15936324Y-10684819D01*
X15936324Y-10684819D02*
X15945848Y-10665771D01*
X15945848Y-10665771D02*
X15955372Y-10656248D01*
X15955372Y-10656248D02*
X15974419Y-10646724D01*
X15974419Y-10646724D02*
X16012514Y-10646724D01*
X16012514Y-10646724D02*
X16031562Y-10656248D01*
X16031562Y-10656248D02*
X16041086Y-10665771D01*
X16041086Y-10665771D02*
X16050610Y-10684819D01*
X16050610Y-10684819D02*
X16050610Y-10694343D01*
X16050610Y-10694343D02*
X16041086Y-10713390D01*
X16041086Y-10713390D02*
X16031562Y-10722914D01*
X16031562Y-10722914D02*
X16012514Y-10732438D01*
X16012514Y-10732438D02*
X15974419Y-10732438D01*
X15974419Y-10732438D02*
X15955372Y-10741962D01*
X15955372Y-10741962D02*
X15945848Y-10751486D01*
X15945848Y-10751486D02*
X15936324Y-10770533D01*
X15936324Y-10770533D02*
X15936324Y-10808629D01*
X15936324Y-10808629D02*
X15945848Y-10827676D01*
X15945848Y-10827676D02*
X15955372Y-10837200D01*
X15955372Y-10837200D02*
X15974419Y-10846724D01*
X15974419Y-10846724D02*
X16012514Y-10846724D01*
X16012514Y-10846724D02*
X16031562Y-10837200D01*
X16031562Y-10837200D02*
X16041086Y-10827676D01*
X16041086Y-10827676D02*
X16050610Y-10808629D01*
X16050610Y-10808629D02*
X16050610Y-10770533D01*
X16050610Y-10770533D02*
X16041086Y-10751486D01*
X16041086Y-10751486D02*
X16031562Y-10741962D01*
X16031562Y-10741962D02*
X16012514Y-10732438D01*
X16174419Y-10646724D02*
X16193467Y-10646724D01*
X16193467Y-10646724D02*
X16212514Y-10656248D01*
X16212514Y-10656248D02*
X16222038Y-10665771D01*
X16222038Y-10665771D02*
X16231562Y-10684819D01*
X16231562Y-10684819D02*
X16241086Y-10722914D01*
X16241086Y-10722914D02*
X16241086Y-10770533D01*
X16241086Y-10770533D02*
X16231562Y-10808629D01*
X16231562Y-10808629D02*
X16222038Y-10827676D01*
X16222038Y-10827676D02*
X16212514Y-10837200D01*
X16212514Y-10837200D02*
X16193467Y-10846724D01*
X16193467Y-10846724D02*
X16174419Y-10846724D01*
X16174419Y-10846724D02*
X16155372Y-10837200D01*
X16155372Y-10837200D02*
X16145848Y-10827676D01*
X16145848Y-10827676D02*
X16136324Y-10808629D01*
X16136324Y-10808629D02*
X16126800Y-10770533D01*
X16126800Y-10770533D02*
X16126800Y-10722914D01*
X16126800Y-10722914D02*
X16136324Y-10684819D01*
X16136324Y-10684819D02*
X16145848Y-10665771D01*
X16145848Y-10665771D02*
X16155372Y-10656248D01*
X16155372Y-10656248D02*
X16174419Y-10646724D01*
X16317276Y-10646724D02*
X16317276Y-10684819D01*
X16393467Y-10646724D02*
X16393467Y-10684819D01*
X16688705Y-10922914D02*
X16679181Y-10913390D01*
X16679181Y-10913390D02*
X16660134Y-10884819D01*
X16660134Y-10884819D02*
X16650610Y-10865771D01*
X16650610Y-10865771D02*
X16641086Y-10837200D01*
X16641086Y-10837200D02*
X16631562Y-10789581D01*
X16631562Y-10789581D02*
X16631562Y-10751486D01*
X16631562Y-10751486D02*
X16641086Y-10703867D01*
X16641086Y-10703867D02*
X16650610Y-10675295D01*
X16650610Y-10675295D02*
X16660134Y-10656248D01*
X16660134Y-10656248D02*
X16679181Y-10627676D01*
X16679181Y-10627676D02*
X16688705Y-10618152D01*
X16755372Y-10665771D02*
X16764895Y-10656248D01*
X16764895Y-10656248D02*
X16783943Y-10646724D01*
X16783943Y-10646724D02*
X16831562Y-10646724D01*
X16831562Y-10646724D02*
X16850610Y-10656248D01*
X16850610Y-10656248D02*
X16860134Y-10665771D01*
X16860134Y-10665771D02*
X16869657Y-10684819D01*
X16869657Y-10684819D02*
X16869657Y-10703867D01*
X16869657Y-10703867D02*
X16860134Y-10732438D01*
X16860134Y-10732438D02*
X16745848Y-10846724D01*
X16745848Y-10846724D02*
X16869657Y-10846724D01*
X17107753Y-10846724D02*
X17107753Y-10646724D01*
X17193467Y-10846724D02*
X17193467Y-10741962D01*
X17193467Y-10741962D02*
X17183943Y-10722914D01*
X17183943Y-10722914D02*
X17164896Y-10713390D01*
X17164896Y-10713390D02*
X17136324Y-10713390D01*
X17136324Y-10713390D02*
X17117277Y-10722914D01*
X17117277Y-10722914D02*
X17107753Y-10732438D01*
X17317277Y-10846724D02*
X17298229Y-10837200D01*
X17298229Y-10837200D02*
X17288705Y-10827676D01*
X17288705Y-10827676D02*
X17279181Y-10808629D01*
X17279181Y-10808629D02*
X17279181Y-10751486D01*
X17279181Y-10751486D02*
X17288705Y-10732438D01*
X17288705Y-10732438D02*
X17298229Y-10722914D01*
X17298229Y-10722914D02*
X17317277Y-10713390D01*
X17317277Y-10713390D02*
X17345848Y-10713390D01*
X17345848Y-10713390D02*
X17364896Y-10722914D01*
X17364896Y-10722914D02*
X17374419Y-10732438D01*
X17374419Y-10732438D02*
X17383943Y-10751486D01*
X17383943Y-10751486D02*
X17383943Y-10808629D01*
X17383943Y-10808629D02*
X17374419Y-10827676D01*
X17374419Y-10827676D02*
X17364896Y-10837200D01*
X17364896Y-10837200D02*
X17345848Y-10846724D01*
X17345848Y-10846724D02*
X17317277Y-10846724D01*
X17498229Y-10846724D02*
X17479181Y-10837200D01*
X17479181Y-10837200D02*
X17469658Y-10818152D01*
X17469658Y-10818152D02*
X17469658Y-10646724D01*
X17650610Y-10837200D02*
X17631562Y-10846724D01*
X17631562Y-10846724D02*
X17593467Y-10846724D01*
X17593467Y-10846724D02*
X17574419Y-10837200D01*
X17574419Y-10837200D02*
X17564896Y-10818152D01*
X17564896Y-10818152D02*
X17564896Y-10741962D01*
X17564896Y-10741962D02*
X17574419Y-10722914D01*
X17574419Y-10722914D02*
X17593467Y-10713390D01*
X17593467Y-10713390D02*
X17631562Y-10713390D01*
X17631562Y-10713390D02*
X17650610Y-10722914D01*
X17650610Y-10722914D02*
X17660134Y-10741962D01*
X17660134Y-10741962D02*
X17660134Y-10761010D01*
X17660134Y-10761010D02*
X17564896Y-10780057D01*
X17736324Y-10837200D02*
X17755372Y-10846724D01*
X17755372Y-10846724D02*
X17793467Y-10846724D01*
X17793467Y-10846724D02*
X17812515Y-10837200D01*
X17812515Y-10837200D02*
X17822039Y-10818152D01*
X17822039Y-10818152D02*
X17822039Y-10808629D01*
X17822039Y-10808629D02*
X17812515Y-10789581D01*
X17812515Y-10789581D02*
X17793467Y-10780057D01*
X17793467Y-10780057D02*
X17764896Y-10780057D01*
X17764896Y-10780057D02*
X17745848Y-10770533D01*
X17745848Y-10770533D02*
X17736324Y-10751486D01*
X17736324Y-10751486D02*
X17736324Y-10741962D01*
X17736324Y-10741962D02*
X17745848Y-10722914D01*
X17745848Y-10722914D02*
X17764896Y-10713390D01*
X17764896Y-10713390D02*
X17793467Y-10713390D01*
X17793467Y-10713390D02*
X17812515Y-10722914D01*
X17888705Y-10922914D02*
X17898229Y-10913390D01*
X17898229Y-10913390D02*
X17917277Y-10884819D01*
X17917277Y-10884819D02*
X17926800Y-10865771D01*
X17926800Y-10865771D02*
X17936324Y-10837200D01*
X17936324Y-10837200D02*
X17945848Y-10789581D01*
X17945848Y-10789581D02*
X17945848Y-10751486D01*
X17945848Y-10751486D02*
X17936324Y-10703867D01*
X17936324Y-10703867D02*
X17926800Y-10675295D01*
X17926800Y-10675295D02*
X17917277Y-10656248D01*
X17917277Y-10656248D02*
X17898229Y-10627676D01*
X17898229Y-10627676D02*
X17888705Y-10618152D01*
X18250610Y-10922914D02*
X18241086Y-10913390D01*
X18241086Y-10913390D02*
X18222039Y-10884819D01*
X18222039Y-10884819D02*
X18212515Y-10865771D01*
X18212515Y-10865771D02*
X18202991Y-10837200D01*
X18202991Y-10837200D02*
X18193467Y-10789581D01*
X18193467Y-10789581D02*
X18193467Y-10751486D01*
X18193467Y-10751486D02*
X18202991Y-10703867D01*
X18202991Y-10703867D02*
X18212515Y-10675295D01*
X18212515Y-10675295D02*
X18222039Y-10656248D01*
X18222039Y-10656248D02*
X18241086Y-10627676D01*
X18241086Y-10627676D02*
X18250610Y-10618152D01*
X18326800Y-10713390D02*
X18326800Y-10846724D01*
X18326800Y-10732438D02*
X18336324Y-10722914D01*
X18336324Y-10722914D02*
X18355372Y-10713390D01*
X18355372Y-10713390D02*
X18383943Y-10713390D01*
X18383943Y-10713390D02*
X18402991Y-10722914D01*
X18402991Y-10722914D02*
X18412515Y-10741962D01*
X18412515Y-10741962D02*
X18412515Y-10846724D01*
X18536324Y-10846724D02*
X18517277Y-10837200D01*
X18517277Y-10837200D02*
X18507753Y-10827676D01*
X18507753Y-10827676D02*
X18498229Y-10808629D01*
X18498229Y-10808629D02*
X18498229Y-10751486D01*
X18498229Y-10751486D02*
X18507753Y-10732438D01*
X18507753Y-10732438D02*
X18517277Y-10722914D01*
X18517277Y-10722914D02*
X18536324Y-10713390D01*
X18536324Y-10713390D02*
X18564896Y-10713390D01*
X18564896Y-10713390D02*
X18583943Y-10722914D01*
X18583943Y-10722914D02*
X18593467Y-10732438D01*
X18593467Y-10732438D02*
X18602991Y-10751486D01*
X18602991Y-10751486D02*
X18602991Y-10808629D01*
X18602991Y-10808629D02*
X18593467Y-10827676D01*
X18593467Y-10827676D02*
X18583943Y-10837200D01*
X18583943Y-10837200D02*
X18564896Y-10846724D01*
X18564896Y-10846724D02*
X18536324Y-10846724D01*
X18660134Y-10713390D02*
X18736324Y-10713390D01*
X18688705Y-10646724D02*
X18688705Y-10818152D01*
X18688705Y-10818152D02*
X18698229Y-10837200D01*
X18698229Y-10837200D02*
X18717277Y-10846724D01*
X18717277Y-10846724D02*
X18736324Y-10846724D01*
X18955372Y-10713390D02*
X18955372Y-10913390D01*
X18955372Y-10722914D02*
X18974420Y-10713390D01*
X18974420Y-10713390D02*
X19012515Y-10713390D01*
X19012515Y-10713390D02*
X19031562Y-10722914D01*
X19031562Y-10722914D02*
X19041086Y-10732438D01*
X19041086Y-10732438D02*
X19050610Y-10751486D01*
X19050610Y-10751486D02*
X19050610Y-10808629D01*
X19050610Y-10808629D02*
X19041086Y-10827676D01*
X19041086Y-10827676D02*
X19031562Y-10837200D01*
X19031562Y-10837200D02*
X19012515Y-10846724D01*
X19012515Y-10846724D02*
X18974420Y-10846724D01*
X18974420Y-10846724D02*
X18955372Y-10837200D01*
X19164896Y-10846724D02*
X19145848Y-10837200D01*
X19145848Y-10837200D02*
X19136324Y-10818152D01*
X19136324Y-10818152D02*
X19136324Y-10646724D01*
X19326801Y-10846724D02*
X19326801Y-10741962D01*
X19326801Y-10741962D02*
X19317277Y-10722914D01*
X19317277Y-10722914D02*
X19298229Y-10713390D01*
X19298229Y-10713390D02*
X19260134Y-10713390D01*
X19260134Y-10713390D02*
X19241086Y-10722914D01*
X19326801Y-10837200D02*
X19307753Y-10846724D01*
X19307753Y-10846724D02*
X19260134Y-10846724D01*
X19260134Y-10846724D02*
X19241086Y-10837200D01*
X19241086Y-10837200D02*
X19231562Y-10818152D01*
X19231562Y-10818152D02*
X19231562Y-10799105D01*
X19231562Y-10799105D02*
X19241086Y-10780057D01*
X19241086Y-10780057D02*
X19260134Y-10770533D01*
X19260134Y-10770533D02*
X19307753Y-10770533D01*
X19307753Y-10770533D02*
X19326801Y-10761010D01*
X19393467Y-10713390D02*
X19469658Y-10713390D01*
X19422039Y-10646724D02*
X19422039Y-10818152D01*
X19422039Y-10818152D02*
X19431562Y-10837200D01*
X19431562Y-10837200D02*
X19450610Y-10846724D01*
X19450610Y-10846724D02*
X19469658Y-10846724D01*
X19612515Y-10837200D02*
X19593467Y-10846724D01*
X19593467Y-10846724D02*
X19555372Y-10846724D01*
X19555372Y-10846724D02*
X19536324Y-10837200D01*
X19536324Y-10837200D02*
X19526801Y-10818152D01*
X19526801Y-10818152D02*
X19526801Y-10741962D01*
X19526801Y-10741962D02*
X19536324Y-10722914D01*
X19536324Y-10722914D02*
X19555372Y-10713390D01*
X19555372Y-10713390D02*
X19593467Y-10713390D01*
X19593467Y-10713390D02*
X19612515Y-10722914D01*
X19612515Y-10722914D02*
X19622039Y-10741962D01*
X19622039Y-10741962D02*
X19622039Y-10761010D01*
X19622039Y-10761010D02*
X19526801Y-10780057D01*
X19793467Y-10846724D02*
X19793467Y-10646724D01*
X19793467Y-10837200D02*
X19774420Y-10846724D01*
X19774420Y-10846724D02*
X19736324Y-10846724D01*
X19736324Y-10846724D02*
X19717277Y-10837200D01*
X19717277Y-10837200D02*
X19707753Y-10827676D01*
X19707753Y-10827676D02*
X19698229Y-10808629D01*
X19698229Y-10808629D02*
X19698229Y-10751486D01*
X19698229Y-10751486D02*
X19707753Y-10732438D01*
X19707753Y-10732438D02*
X19717277Y-10722914D01*
X19717277Y-10722914D02*
X19736324Y-10713390D01*
X19736324Y-10713390D02*
X19774420Y-10713390D01*
X19774420Y-10713390D02*
X19793467Y-10722914D01*
X19869658Y-10922914D02*
X19879182Y-10913390D01*
X19879182Y-10913390D02*
X19898229Y-10884819D01*
X19898229Y-10884819D02*
X19907753Y-10865771D01*
X19907753Y-10865771D02*
X19917277Y-10837200D01*
X19917277Y-10837200D02*
X19926801Y-10789581D01*
X19926801Y-10789581D02*
X19926801Y-10751486D01*
X19926801Y-10751486D02*
X19917277Y-10703867D01*
X19917277Y-10703867D02*
X19907753Y-10675295D01*
X19907753Y-10675295D02*
X19898229Y-10656248D01*
X19898229Y-10656248D02*
X19879182Y-10627676D01*
X19879182Y-10627676D02*
X19869658Y-10618152D01*
M02*
