G04 #@! TF.GenerationSoftware,KiCad,Pcbnew,7.0.1*
G04 #@! TF.CreationDate,2023-07-05T13:49:47-05:00*
G04 #@! TF.ProjectId,pn5180 cat5 connector with linear regulator,706e3531-3830-4206-9361-743520636f6e,rev?*
G04 #@! TF.SameCoordinates,Original*
G04 #@! TF.FileFunction,Legend,Top*
G04 #@! TF.FilePolarity,Positive*
%FSLAX46Y46*%
G04 Gerber Fmt 4.6, Leading zero omitted, Abs format (unit mm)*
G04 Created by KiCad (PCBNEW 7.0.1) date 2023-07-05 13:49:47*
%MOMM*%
%LPD*%
G01*
G04 APERTURE LIST*
%ADD10C,0.150000*%
%ADD11C,0.120000*%
%ADD12C,1.600000*%
%ADD13C,3.250000*%
%ADD14R,1.500000X1.500000*%
%ADD15C,1.500000*%
%ADD16C,3.000000*%
%ADD17R,1.700000X1.700000*%
%ADD18O,1.700000X1.700000*%
G04 APERTURE END LIST*
D10*
X151663285Y-78260238D02*
X151568047Y-78212619D01*
X151568047Y-78212619D02*
X151425190Y-78212619D01*
X151425190Y-78212619D02*
X151282333Y-78260238D01*
X151282333Y-78260238D02*
X151187095Y-78355476D01*
X151187095Y-78355476D02*
X151139476Y-78450714D01*
X151139476Y-78450714D02*
X151091857Y-78641190D01*
X151091857Y-78641190D02*
X151091857Y-78784047D01*
X151091857Y-78784047D02*
X151139476Y-78974523D01*
X151139476Y-78974523D02*
X151187095Y-79069761D01*
X151187095Y-79069761D02*
X151282333Y-79165000D01*
X151282333Y-79165000D02*
X151425190Y-79212619D01*
X151425190Y-79212619D02*
X151520428Y-79212619D01*
X151520428Y-79212619D02*
X151663285Y-79165000D01*
X151663285Y-79165000D02*
X151710904Y-79117380D01*
X151710904Y-79117380D02*
X151710904Y-78784047D01*
X151710904Y-78784047D02*
X151520428Y-78784047D01*
X152139476Y-79212619D02*
X152139476Y-78212619D01*
X152139476Y-78212619D02*
X152710904Y-79212619D01*
X152710904Y-79212619D02*
X152710904Y-78212619D01*
X153187095Y-79212619D02*
X153187095Y-78212619D01*
X153187095Y-78212619D02*
X153425190Y-78212619D01*
X153425190Y-78212619D02*
X153568047Y-78260238D01*
X153568047Y-78260238D02*
X153663285Y-78355476D01*
X153663285Y-78355476D02*
X153710904Y-78450714D01*
X153710904Y-78450714D02*
X153758523Y-78641190D01*
X153758523Y-78641190D02*
X153758523Y-78784047D01*
X153758523Y-78784047D02*
X153710904Y-78974523D01*
X153710904Y-78974523D02*
X153663285Y-79069761D01*
X153663285Y-79069761D02*
X153568047Y-79165000D01*
X153568047Y-79165000D02*
X153425190Y-79212619D01*
X153425190Y-79212619D02*
X153187095Y-79212619D01*
X150568048Y-89499619D02*
X150568048Y-88499619D01*
X150568048Y-88499619D02*
X150901381Y-89213904D01*
X150901381Y-89213904D02*
X151234714Y-88499619D01*
X151234714Y-88499619D02*
X151234714Y-89499619D01*
X151901381Y-88499619D02*
X152091857Y-88499619D01*
X152091857Y-88499619D02*
X152187095Y-88547238D01*
X152187095Y-88547238D02*
X152282333Y-88642476D01*
X152282333Y-88642476D02*
X152329952Y-88832952D01*
X152329952Y-88832952D02*
X152329952Y-89166285D01*
X152329952Y-89166285D02*
X152282333Y-89356761D01*
X152282333Y-89356761D02*
X152187095Y-89452000D01*
X152187095Y-89452000D02*
X152091857Y-89499619D01*
X152091857Y-89499619D02*
X151901381Y-89499619D01*
X151901381Y-89499619D02*
X151806143Y-89452000D01*
X151806143Y-89452000D02*
X151710905Y-89356761D01*
X151710905Y-89356761D02*
X151663286Y-89166285D01*
X151663286Y-89166285D02*
X151663286Y-88832952D01*
X151663286Y-88832952D02*
X151710905Y-88642476D01*
X151710905Y-88642476D02*
X151806143Y-88547238D01*
X151806143Y-88547238D02*
X151901381Y-88499619D01*
X152710905Y-89452000D02*
X152853762Y-89499619D01*
X152853762Y-89499619D02*
X153091857Y-89499619D01*
X153091857Y-89499619D02*
X153187095Y-89452000D01*
X153187095Y-89452000D02*
X153234714Y-89404380D01*
X153234714Y-89404380D02*
X153282333Y-89309142D01*
X153282333Y-89309142D02*
X153282333Y-89213904D01*
X153282333Y-89213904D02*
X153234714Y-89118666D01*
X153234714Y-89118666D02*
X153187095Y-89071047D01*
X153187095Y-89071047D02*
X153091857Y-89023428D01*
X153091857Y-89023428D02*
X152901381Y-88975809D01*
X152901381Y-88975809D02*
X152806143Y-88928190D01*
X152806143Y-88928190D02*
X152758524Y-88880571D01*
X152758524Y-88880571D02*
X152710905Y-88785333D01*
X152710905Y-88785333D02*
X152710905Y-88690095D01*
X152710905Y-88690095D02*
X152758524Y-88594857D01*
X152758524Y-88594857D02*
X152806143Y-88547238D01*
X152806143Y-88547238D02*
X152901381Y-88499619D01*
X152901381Y-88499619D02*
X153139476Y-88499619D01*
X153139476Y-88499619D02*
X153282333Y-88547238D01*
X153710905Y-89499619D02*
X153710905Y-88499619D01*
X150663285Y-81355809D02*
X150806142Y-81403428D01*
X150806142Y-81403428D02*
X150853761Y-81451047D01*
X150853761Y-81451047D02*
X150901380Y-81546285D01*
X150901380Y-81546285D02*
X150901380Y-81689142D01*
X150901380Y-81689142D02*
X150853761Y-81784380D01*
X150853761Y-81784380D02*
X150806142Y-81832000D01*
X150806142Y-81832000D02*
X150710904Y-81879619D01*
X150710904Y-81879619D02*
X150329952Y-81879619D01*
X150329952Y-81879619D02*
X150329952Y-80879619D01*
X150329952Y-80879619D02*
X150663285Y-80879619D01*
X150663285Y-80879619D02*
X150758523Y-80927238D01*
X150758523Y-80927238D02*
X150806142Y-80974857D01*
X150806142Y-80974857D02*
X150853761Y-81070095D01*
X150853761Y-81070095D02*
X150853761Y-81165333D01*
X150853761Y-81165333D02*
X150806142Y-81260571D01*
X150806142Y-81260571D02*
X150758523Y-81308190D01*
X150758523Y-81308190D02*
X150663285Y-81355809D01*
X150663285Y-81355809D02*
X150329952Y-81355809D01*
X151329952Y-80879619D02*
X151329952Y-81689142D01*
X151329952Y-81689142D02*
X151377571Y-81784380D01*
X151377571Y-81784380D02*
X151425190Y-81832000D01*
X151425190Y-81832000D02*
X151520428Y-81879619D01*
X151520428Y-81879619D02*
X151710904Y-81879619D01*
X151710904Y-81879619D02*
X151806142Y-81832000D01*
X151806142Y-81832000D02*
X151853761Y-81784380D01*
X151853761Y-81784380D02*
X151901380Y-81689142D01*
X151901380Y-81689142D02*
X151901380Y-80879619D01*
X152329952Y-81832000D02*
X152472809Y-81879619D01*
X152472809Y-81879619D02*
X152710904Y-81879619D01*
X152710904Y-81879619D02*
X152806142Y-81832000D01*
X152806142Y-81832000D02*
X152853761Y-81784380D01*
X152853761Y-81784380D02*
X152901380Y-81689142D01*
X152901380Y-81689142D02*
X152901380Y-81593904D01*
X152901380Y-81593904D02*
X152853761Y-81498666D01*
X152853761Y-81498666D02*
X152806142Y-81451047D01*
X152806142Y-81451047D02*
X152710904Y-81403428D01*
X152710904Y-81403428D02*
X152520428Y-81355809D01*
X152520428Y-81355809D02*
X152425190Y-81308190D01*
X152425190Y-81308190D02*
X152377571Y-81260571D01*
X152377571Y-81260571D02*
X152329952Y-81165333D01*
X152329952Y-81165333D02*
X152329952Y-81070095D01*
X152329952Y-81070095D02*
X152377571Y-80974857D01*
X152377571Y-80974857D02*
X152425190Y-80927238D01*
X152425190Y-80927238D02*
X152520428Y-80879619D01*
X152520428Y-80879619D02*
X152758523Y-80879619D01*
X152758523Y-80879619D02*
X152901380Y-80927238D01*
X153520428Y-81403428D02*
X153520428Y-81879619D01*
X153187095Y-80879619D02*
X153520428Y-81403428D01*
X153520428Y-81403428D02*
X153853761Y-80879619D01*
X151329952Y-96119619D02*
X151948999Y-96119619D01*
X151948999Y-96119619D02*
X151615666Y-96500571D01*
X151615666Y-96500571D02*
X151758523Y-96500571D01*
X151758523Y-96500571D02*
X151853761Y-96548190D01*
X151853761Y-96548190D02*
X151901380Y-96595809D01*
X151901380Y-96595809D02*
X151948999Y-96691047D01*
X151948999Y-96691047D02*
X151948999Y-96929142D01*
X151948999Y-96929142D02*
X151901380Y-97024380D01*
X151901380Y-97024380D02*
X151853761Y-97072000D01*
X151853761Y-97072000D02*
X151758523Y-97119619D01*
X151758523Y-97119619D02*
X151472809Y-97119619D01*
X151472809Y-97119619D02*
X151377571Y-97072000D01*
X151377571Y-97072000D02*
X151329952Y-97024380D01*
X152234714Y-96119619D02*
X152568047Y-97119619D01*
X152568047Y-97119619D02*
X152901380Y-96119619D01*
X153139476Y-96119619D02*
X153758523Y-96119619D01*
X153758523Y-96119619D02*
X153425190Y-96500571D01*
X153425190Y-96500571D02*
X153568047Y-96500571D01*
X153568047Y-96500571D02*
X153663285Y-96548190D01*
X153663285Y-96548190D02*
X153710904Y-96595809D01*
X153710904Y-96595809D02*
X153758523Y-96691047D01*
X153758523Y-96691047D02*
X153758523Y-96929142D01*
X153758523Y-96929142D02*
X153710904Y-97024380D01*
X153710904Y-97024380D02*
X153663285Y-97072000D01*
X153663285Y-97072000D02*
X153568047Y-97119619D01*
X153568047Y-97119619D02*
X153282333Y-97119619D01*
X153282333Y-97119619D02*
X153187095Y-97072000D01*
X153187095Y-97072000D02*
X153139476Y-97024380D01*
X152853761Y-98659619D02*
X152377571Y-98659619D01*
X152377571Y-98659619D02*
X152329952Y-99135809D01*
X152329952Y-99135809D02*
X152377571Y-99088190D01*
X152377571Y-99088190D02*
X152472809Y-99040571D01*
X152472809Y-99040571D02*
X152710904Y-99040571D01*
X152710904Y-99040571D02*
X152806142Y-99088190D01*
X152806142Y-99088190D02*
X152853761Y-99135809D01*
X152853761Y-99135809D02*
X152901380Y-99231047D01*
X152901380Y-99231047D02*
X152901380Y-99469142D01*
X152901380Y-99469142D02*
X152853761Y-99564380D01*
X152853761Y-99564380D02*
X152806142Y-99612000D01*
X152806142Y-99612000D02*
X152710904Y-99659619D01*
X152710904Y-99659619D02*
X152472809Y-99659619D01*
X152472809Y-99659619D02*
X152377571Y-99612000D01*
X152377571Y-99612000D02*
X152329952Y-99564380D01*
X153187095Y-98659619D02*
X153520428Y-99659619D01*
X153520428Y-99659619D02*
X153853761Y-98659619D01*
X152044237Y-94579619D02*
X151710904Y-94103428D01*
X151472809Y-94579619D02*
X151472809Y-93579619D01*
X151472809Y-93579619D02*
X151853761Y-93579619D01*
X151853761Y-93579619D02*
X151948999Y-93627238D01*
X151948999Y-93627238D02*
X151996618Y-93674857D01*
X151996618Y-93674857D02*
X152044237Y-93770095D01*
X152044237Y-93770095D02*
X152044237Y-93912952D01*
X152044237Y-93912952D02*
X151996618Y-94008190D01*
X151996618Y-94008190D02*
X151948999Y-94055809D01*
X151948999Y-94055809D02*
X151853761Y-94103428D01*
X151853761Y-94103428D02*
X151472809Y-94103428D01*
X152425190Y-94532000D02*
X152568047Y-94579619D01*
X152568047Y-94579619D02*
X152806142Y-94579619D01*
X152806142Y-94579619D02*
X152901380Y-94532000D01*
X152901380Y-94532000D02*
X152948999Y-94484380D01*
X152948999Y-94484380D02*
X152996618Y-94389142D01*
X152996618Y-94389142D02*
X152996618Y-94293904D01*
X152996618Y-94293904D02*
X152948999Y-94198666D01*
X152948999Y-94198666D02*
X152901380Y-94151047D01*
X152901380Y-94151047D02*
X152806142Y-94103428D01*
X152806142Y-94103428D02*
X152615666Y-94055809D01*
X152615666Y-94055809D02*
X152520428Y-94008190D01*
X152520428Y-94008190D02*
X152472809Y-93960571D01*
X152472809Y-93960571D02*
X152425190Y-93865333D01*
X152425190Y-93865333D02*
X152425190Y-93770095D01*
X152425190Y-93770095D02*
X152472809Y-93674857D01*
X152472809Y-93674857D02*
X152520428Y-93627238D01*
X152520428Y-93627238D02*
X152615666Y-93579619D01*
X152615666Y-93579619D02*
X152853761Y-93579619D01*
X152853761Y-93579619D02*
X152996618Y-93627238D01*
X153282333Y-93579619D02*
X153853761Y-93579619D01*
X153568047Y-94579619D02*
X153568047Y-93579619D01*
X150568048Y-86959619D02*
X150568048Y-85959619D01*
X150568048Y-85959619D02*
X150901381Y-86673904D01*
X150901381Y-86673904D02*
X151234714Y-85959619D01*
X151234714Y-85959619D02*
X151234714Y-86959619D01*
X151710905Y-86959619D02*
X151710905Y-85959619D01*
X152139476Y-86912000D02*
X152282333Y-86959619D01*
X152282333Y-86959619D02*
X152520428Y-86959619D01*
X152520428Y-86959619D02*
X152615666Y-86912000D01*
X152615666Y-86912000D02*
X152663285Y-86864380D01*
X152663285Y-86864380D02*
X152710904Y-86769142D01*
X152710904Y-86769142D02*
X152710904Y-86673904D01*
X152710904Y-86673904D02*
X152663285Y-86578666D01*
X152663285Y-86578666D02*
X152615666Y-86531047D01*
X152615666Y-86531047D02*
X152520428Y-86483428D01*
X152520428Y-86483428D02*
X152329952Y-86435809D01*
X152329952Y-86435809D02*
X152234714Y-86388190D01*
X152234714Y-86388190D02*
X152187095Y-86340571D01*
X152187095Y-86340571D02*
X152139476Y-86245333D01*
X152139476Y-86245333D02*
X152139476Y-86150095D01*
X152139476Y-86150095D02*
X152187095Y-86054857D01*
X152187095Y-86054857D02*
X152234714Y-86007238D01*
X152234714Y-86007238D02*
X152329952Y-85959619D01*
X152329952Y-85959619D02*
X152568047Y-85959619D01*
X152568047Y-85959619D02*
X152710904Y-86007238D01*
X153329952Y-85959619D02*
X153520428Y-85959619D01*
X153520428Y-85959619D02*
X153615666Y-86007238D01*
X153615666Y-86007238D02*
X153710904Y-86102476D01*
X153710904Y-86102476D02*
X153758523Y-86292952D01*
X153758523Y-86292952D02*
X153758523Y-86626285D01*
X153758523Y-86626285D02*
X153710904Y-86816761D01*
X153710904Y-86816761D02*
X153615666Y-86912000D01*
X153615666Y-86912000D02*
X153520428Y-86959619D01*
X153520428Y-86959619D02*
X153329952Y-86959619D01*
X153329952Y-86959619D02*
X153234714Y-86912000D01*
X153234714Y-86912000D02*
X153139476Y-86816761D01*
X153139476Y-86816761D02*
X153091857Y-86626285D01*
X153091857Y-86626285D02*
X153091857Y-86292952D01*
X153091857Y-86292952D02*
X153139476Y-86102476D01*
X153139476Y-86102476D02*
X153234714Y-86007238D01*
X153234714Y-86007238D02*
X153329952Y-85959619D01*
X151234714Y-92039619D02*
X151234714Y-91039619D01*
X151234714Y-91039619D02*
X151806142Y-92039619D01*
X151806142Y-92039619D02*
X151806142Y-91039619D01*
X152234714Y-91992000D02*
X152377571Y-92039619D01*
X152377571Y-92039619D02*
X152615666Y-92039619D01*
X152615666Y-92039619D02*
X152710904Y-91992000D01*
X152710904Y-91992000D02*
X152758523Y-91944380D01*
X152758523Y-91944380D02*
X152806142Y-91849142D01*
X152806142Y-91849142D02*
X152806142Y-91753904D01*
X152806142Y-91753904D02*
X152758523Y-91658666D01*
X152758523Y-91658666D02*
X152710904Y-91611047D01*
X152710904Y-91611047D02*
X152615666Y-91563428D01*
X152615666Y-91563428D02*
X152425190Y-91515809D01*
X152425190Y-91515809D02*
X152329952Y-91468190D01*
X152329952Y-91468190D02*
X152282333Y-91420571D01*
X152282333Y-91420571D02*
X152234714Y-91325333D01*
X152234714Y-91325333D02*
X152234714Y-91230095D01*
X152234714Y-91230095D02*
X152282333Y-91134857D01*
X152282333Y-91134857D02*
X152329952Y-91087238D01*
X152329952Y-91087238D02*
X152425190Y-91039619D01*
X152425190Y-91039619D02*
X152663285Y-91039619D01*
X152663285Y-91039619D02*
X152806142Y-91087238D01*
X153187095Y-91992000D02*
X153329952Y-92039619D01*
X153329952Y-92039619D02*
X153568047Y-92039619D01*
X153568047Y-92039619D02*
X153663285Y-91992000D01*
X153663285Y-91992000D02*
X153710904Y-91944380D01*
X153710904Y-91944380D02*
X153758523Y-91849142D01*
X153758523Y-91849142D02*
X153758523Y-91753904D01*
X153758523Y-91753904D02*
X153710904Y-91658666D01*
X153710904Y-91658666D02*
X153663285Y-91611047D01*
X153663285Y-91611047D02*
X153568047Y-91563428D01*
X153568047Y-91563428D02*
X153377571Y-91515809D01*
X153377571Y-91515809D02*
X153282333Y-91468190D01*
X153282333Y-91468190D02*
X153234714Y-91420571D01*
X153234714Y-91420571D02*
X153187095Y-91325333D01*
X153187095Y-91325333D02*
X153187095Y-91230095D01*
X153187095Y-91230095D02*
X153234714Y-91134857D01*
X153234714Y-91134857D02*
X153282333Y-91087238D01*
X153282333Y-91087238D02*
X153377571Y-91039619D01*
X153377571Y-91039619D02*
X153615666Y-91039619D01*
X153615666Y-91039619D02*
X153758523Y-91087238D01*
X151187095Y-84372000D02*
X151329952Y-84419619D01*
X151329952Y-84419619D02*
X151568047Y-84419619D01*
X151568047Y-84419619D02*
X151663285Y-84372000D01*
X151663285Y-84372000D02*
X151710904Y-84324380D01*
X151710904Y-84324380D02*
X151758523Y-84229142D01*
X151758523Y-84229142D02*
X151758523Y-84133904D01*
X151758523Y-84133904D02*
X151710904Y-84038666D01*
X151710904Y-84038666D02*
X151663285Y-83991047D01*
X151663285Y-83991047D02*
X151568047Y-83943428D01*
X151568047Y-83943428D02*
X151377571Y-83895809D01*
X151377571Y-83895809D02*
X151282333Y-83848190D01*
X151282333Y-83848190D02*
X151234714Y-83800571D01*
X151234714Y-83800571D02*
X151187095Y-83705333D01*
X151187095Y-83705333D02*
X151187095Y-83610095D01*
X151187095Y-83610095D02*
X151234714Y-83514857D01*
X151234714Y-83514857D02*
X151282333Y-83467238D01*
X151282333Y-83467238D02*
X151377571Y-83419619D01*
X151377571Y-83419619D02*
X151615666Y-83419619D01*
X151615666Y-83419619D02*
X151758523Y-83467238D01*
X152758523Y-84324380D02*
X152710904Y-84372000D01*
X152710904Y-84372000D02*
X152568047Y-84419619D01*
X152568047Y-84419619D02*
X152472809Y-84419619D01*
X152472809Y-84419619D02*
X152329952Y-84372000D01*
X152329952Y-84372000D02*
X152234714Y-84276761D01*
X152234714Y-84276761D02*
X152187095Y-84181523D01*
X152187095Y-84181523D02*
X152139476Y-83991047D01*
X152139476Y-83991047D02*
X152139476Y-83848190D01*
X152139476Y-83848190D02*
X152187095Y-83657714D01*
X152187095Y-83657714D02*
X152234714Y-83562476D01*
X152234714Y-83562476D02*
X152329952Y-83467238D01*
X152329952Y-83467238D02*
X152472809Y-83419619D01*
X152472809Y-83419619D02*
X152568047Y-83419619D01*
X152568047Y-83419619D02*
X152710904Y-83467238D01*
X152710904Y-83467238D02*
X152758523Y-83514857D01*
X153187095Y-84419619D02*
X153187095Y-83419619D01*
X153758523Y-84419619D02*
X153329952Y-83848190D01*
X153758523Y-83419619D02*
X153187095Y-83991047D01*
X137588333Y-79234380D02*
X137540714Y-79282000D01*
X137540714Y-79282000D02*
X137397857Y-79329619D01*
X137397857Y-79329619D02*
X137302619Y-79329619D01*
X137302619Y-79329619D02*
X137159762Y-79282000D01*
X137159762Y-79282000D02*
X137064524Y-79186761D01*
X137064524Y-79186761D02*
X137016905Y-79091523D01*
X137016905Y-79091523D02*
X136969286Y-78901047D01*
X136969286Y-78901047D02*
X136969286Y-78758190D01*
X136969286Y-78758190D02*
X137016905Y-78567714D01*
X137016905Y-78567714D02*
X137064524Y-78472476D01*
X137064524Y-78472476D02*
X137159762Y-78377238D01*
X137159762Y-78377238D02*
X137302619Y-78329619D01*
X137302619Y-78329619D02*
X137397857Y-78329619D01*
X137397857Y-78329619D02*
X137540714Y-78377238D01*
X137540714Y-78377238D02*
X137588333Y-78424857D01*
X138540714Y-79329619D02*
X137969286Y-79329619D01*
X138255000Y-79329619D02*
X138255000Y-78329619D01*
X138255000Y-78329619D02*
X138159762Y-78472476D01*
X138159762Y-78472476D02*
X138064524Y-78567714D01*
X138064524Y-78567714D02*
X137969286Y-78615333D01*
X144827333Y-79234380D02*
X144779714Y-79282000D01*
X144779714Y-79282000D02*
X144636857Y-79329619D01*
X144636857Y-79329619D02*
X144541619Y-79329619D01*
X144541619Y-79329619D02*
X144398762Y-79282000D01*
X144398762Y-79282000D02*
X144303524Y-79186761D01*
X144303524Y-79186761D02*
X144255905Y-79091523D01*
X144255905Y-79091523D02*
X144208286Y-78901047D01*
X144208286Y-78901047D02*
X144208286Y-78758190D01*
X144208286Y-78758190D02*
X144255905Y-78567714D01*
X144255905Y-78567714D02*
X144303524Y-78472476D01*
X144303524Y-78472476D02*
X144398762Y-78377238D01*
X144398762Y-78377238D02*
X144541619Y-78329619D01*
X144541619Y-78329619D02*
X144636857Y-78329619D01*
X144636857Y-78329619D02*
X144779714Y-78377238D01*
X144779714Y-78377238D02*
X144827333Y-78424857D01*
X145208286Y-78424857D02*
X145255905Y-78377238D01*
X145255905Y-78377238D02*
X145351143Y-78329619D01*
X145351143Y-78329619D02*
X145589238Y-78329619D01*
X145589238Y-78329619D02*
X145684476Y-78377238D01*
X145684476Y-78377238D02*
X145732095Y-78424857D01*
X145732095Y-78424857D02*
X145779714Y-78520095D01*
X145779714Y-78520095D02*
X145779714Y-78615333D01*
X145779714Y-78615333D02*
X145732095Y-78758190D01*
X145732095Y-78758190D02*
X145160667Y-79329619D01*
X145160667Y-79329619D02*
X145779714Y-79329619D01*
D11*
X134635000Y-77497000D02*
X134635000Y-77942000D01*
X134635000Y-77497000D02*
X140875000Y-77497000D01*
X134635000Y-79792000D02*
X134635000Y-80237000D01*
X134635000Y-80237000D02*
X140875000Y-80237000D01*
X140875000Y-77497000D02*
X140875000Y-77942000D01*
X140875000Y-79792000D02*
X140875000Y-80237000D01*
X148074000Y-80237000D02*
X148074000Y-79792000D01*
X148074000Y-80237000D02*
X141834000Y-80237000D01*
X148074000Y-77942000D02*
X148074000Y-77497000D01*
X148074000Y-77497000D02*
X141834000Y-77497000D01*
X141834000Y-80237000D02*
X141834000Y-79792000D01*
X141834000Y-77942000D02*
X141834000Y-77497000D01*
X146431000Y-81538000D02*
X145415000Y-81538000D01*
X145415000Y-81538000D02*
X145923000Y-82046000D01*
X145923000Y-82046000D02*
X146431000Y-81538000D01*
X150203000Y-82414000D02*
X138273000Y-82414000D01*
X134773000Y-82414000D02*
X131333000Y-82414000D01*
X150203000Y-98434000D02*
X150203000Y-82414000D01*
X150203000Y-98434000D02*
X138273000Y-98434000D01*
X134773000Y-98434000D02*
X131333000Y-98434000D01*
X131333000Y-98434000D02*
X131333000Y-82414000D01*
X154016000Y-80147000D02*
X154016000Y-100527000D01*
X154016000Y-80147000D02*
X156676000Y-80147000D01*
X154016000Y-100527000D02*
X156676000Y-100527000D01*
X155346000Y-77547000D02*
X156676000Y-77547000D01*
X156676000Y-77547000D02*
X156676000Y-78877000D01*
X156676000Y-80147000D02*
X156676000Y-100527000D01*
%LPC*%
D12*
X135255000Y-78867000D03*
X140255000Y-78867000D03*
X147454000Y-78867000D03*
X142454000Y-78867000D03*
D13*
X139573000Y-84709000D03*
X139573000Y-96139000D03*
D14*
X145923000Y-85979000D03*
D15*
X148463000Y-87249000D03*
X145923000Y-88519000D03*
X148463000Y-89789000D03*
X145923000Y-91059000D03*
X148463000Y-92329000D03*
X145923000Y-93599000D03*
X148463000Y-94869000D03*
D16*
X136523000Y-82654000D03*
X136523000Y-98194000D03*
D17*
X155346000Y-78877000D03*
D18*
X155346000Y-81417000D03*
X155346000Y-83957000D03*
X155346000Y-86497000D03*
X155346000Y-89037000D03*
X155346000Y-91577000D03*
X155346000Y-94117000D03*
X155346000Y-96657000D03*
X155346000Y-99197000D03*
M02*
