M48
; DRILL file {KiCad 7.0.1} date Wed Jul  5 13:56:52 2023
; FORMAT={-:-/ absolute / metric / decimal}
; #@! TF.CreationDate,2023-07-05T13:56:52-05:00
; #@! TF.GenerationSoftware,Kicad,Pcbnew,7.0.1
; #@! TF.FileFunction,Plated,1,2,PTH
FMAT,2
METRIC
; #@! TA.AperFunction,Plated,PTH,ViaDrill
T1C0.400
; #@! TA.AperFunction,Plated,PTH,ComponentDrill
T2C0.700
; #@! TA.AperFunction,Plated,PTH,ComponentDrill
T3C0.800
; #@! TA.AperFunction,Plated,PTH,ComponentDrill
T4C1.000
; #@! TA.AperFunction,Plated,PTH,ComponentDrill
T5C1.190
%
G90
G05
T1
X170.18Y-70.485
X173.355Y-71.755
X184.15Y-78.74
X184.15Y-83.82
T2
X170.18Y-63.5
X170.18Y-66.04
X170.18Y-78.74
X170.18Y-81.28
X177.8Y-63.5
X177.8Y-66.04
X177.8Y-78.74
X177.8Y-81.28
X180.34Y-63.5
X180.34Y-66.04
X180.34Y-78.74
X180.34Y-81.28
X187.96Y-63.5
X187.96Y-66.04
X187.96Y-78.74
X187.96Y-81.28
T3
X165.608Y-63.754
X165.608Y-68.754
X170.18Y-68.58
X170.18Y-76.2
X172.72Y-68.58
X172.72Y-76.2
X175.26Y-68.58
X175.26Y-76.2
X177.8Y-68.58
X177.8Y-76.2
X180.34Y-68.58
X180.34Y-76.2
X182.88Y-68.58
X182.88Y-76.2
X185.42Y-68.58
X185.42Y-76.2
X187.96Y-68.58
X187.96Y-76.2
T4
X162.56Y-58.42
X168.91Y-86.36
X171.45Y-58.42
X177.8Y-86.36
X180.34Y-58.42
X186.69Y-86.36
X189.23Y-58.42
X195.58Y-86.36
T5
X160.02Y-67.31
X160.02Y-69.85
X160.02Y-72.39
X160.02Y-74.93
X160.02Y-77.47
X163.83Y-86.36
X165.1Y-58.42
X166.37Y-86.36
X167.64Y-58.42
X172.72Y-86.36
X173.99Y-58.42
X175.26Y-86.36
X176.53Y-58.42
X181.61Y-86.36
X182.88Y-58.42
X184.15Y-86.36
X185.42Y-58.42
X190.5Y-86.36
X191.77Y-58.42
X193.04Y-86.36
X194.31Y-58.42
X198.628Y-67.31
X198.628Y-69.85
X198.628Y-72.39
X198.628Y-74.93
X198.628Y-77.47
T0
M30
