%TF.GenerationSoftware,KiCad,Pcbnew,7.0.1*%
%TF.CreationDate,2023-07-05T13:56:53-05:00*%
%TF.ProjectId,shift in breakout board,73686966-7420-4696-9e20-627265616b6f,rev?*%
%TF.SameCoordinates,Original*%
%TF.FileFunction,Drillmap*%
%TF.FilePolarity,Positive*%
%FSLAX45Y45*%
G04 Gerber Fmt 4.5, Leading zero omitted, Abs format (unit mm)*
G04 Created by KiCad (PCBNEW 7.0.1) date 2023-07-05 13:56:53*
%MOMM*%
%LPD*%
G01*
G04 APERTURE LIST*
%ADD10C,0.100000*%
%ADD11C,0.200000*%
%ADD12C,0.040000*%
%ADD13C,0.070000*%
%ADD14C,0.080000*%
%ADD15C,0.119000*%
G04 APERTURE END LIST*
D10*
X15646400Y-9144000D02*
X20142200Y-9144000D01*
X20142200Y-5334000D02*
X15646400Y-5334000D01*
X15240000Y-8737600D02*
G75*
G03*
X15646400Y-9144000I406400J0D01*
G01*
X20142200Y-9144000D02*
G75*
G03*
X20548600Y-8737600I0J406400D01*
G01*
X15240000Y-5740400D02*
X15240000Y-8737600D01*
X15646400Y-5334000D02*
G75*
G03*
X15240000Y-5740400I0J-406400D01*
G01*
X20548600Y-5740400D02*
G75*
G03*
X20142200Y-5334000I-406400J0D01*
G01*
X20548600Y-8737600D02*
X20548600Y-5740400D01*
D11*
D12*
X16998000Y-7028500D02*
X17038000Y-7068500D01*
X17038000Y-7028500D02*
X16998000Y-7068500D01*
X17315500Y-7155500D02*
X17355500Y-7195500D01*
X17355500Y-7155500D02*
X17315500Y-7195500D01*
X18395000Y-7854000D02*
X18435000Y-7894000D01*
X18435000Y-7854000D02*
X18395000Y-7894000D01*
X18395000Y-8362000D02*
X18435000Y-8402000D01*
X18435000Y-8362000D02*
X18395000Y-8402000D01*
D13*
X17053000Y-6350000D02*
G75*
G03*
X17053000Y-6350000I-35000J0D01*
G01*
X17053000Y-6604000D02*
G75*
G03*
X17053000Y-6604000I-35000J0D01*
G01*
X17053000Y-7874000D02*
G75*
G03*
X17053000Y-7874000I-35000J0D01*
G01*
X17053000Y-8128000D02*
G75*
G03*
X17053000Y-8128000I-35000J0D01*
G01*
X17815000Y-6350000D02*
G75*
G03*
X17815000Y-6350000I-35000J0D01*
G01*
X17815000Y-6604000D02*
G75*
G03*
X17815000Y-6604000I-35000J0D01*
G01*
X17815000Y-7874000D02*
G75*
G03*
X17815000Y-7874000I-35000J0D01*
G01*
X17815000Y-8128000D02*
G75*
G03*
X17815000Y-8128000I-35000J0D01*
G01*
X18069000Y-6350000D02*
G75*
G03*
X18069000Y-6350000I-35000J0D01*
G01*
X18069000Y-6604000D02*
G75*
G03*
X18069000Y-6604000I-35000J0D01*
G01*
X18069000Y-7874000D02*
G75*
G03*
X18069000Y-7874000I-35000J0D01*
G01*
X18069000Y-8128000D02*
G75*
G03*
X18069000Y-8128000I-35000J0D01*
G01*
X18831000Y-6350000D02*
G75*
G03*
X18831000Y-6350000I-35000J0D01*
G01*
X18831000Y-6604000D02*
G75*
G03*
X18831000Y-6604000I-35000J0D01*
G01*
X18831000Y-7874000D02*
G75*
G03*
X18831000Y-7874000I-35000J0D01*
G01*
X18831000Y-8128000D02*
G75*
G03*
X18831000Y-8128000I-35000J0D01*
G01*
D14*
X16560800Y-6335400D02*
X16560800Y-6415400D01*
X16520800Y-6375400D02*
X16600800Y-6375400D01*
X16560800Y-6835400D02*
X16560800Y-6915400D01*
X16520800Y-6875400D02*
X16600800Y-6875400D01*
X17018000Y-6818000D02*
X17018000Y-6898000D01*
X16978000Y-6858000D02*
X17058000Y-6858000D01*
X17018000Y-7580000D02*
X17018000Y-7660000D01*
X16978000Y-7620000D02*
X17058000Y-7620000D01*
X17272000Y-6818000D02*
X17272000Y-6898000D01*
X17232000Y-6858000D02*
X17312000Y-6858000D01*
X17272000Y-7580000D02*
X17272000Y-7660000D01*
X17232000Y-7620000D02*
X17312000Y-7620000D01*
X17526000Y-6818000D02*
X17526000Y-6898000D01*
X17486000Y-6858000D02*
X17566000Y-6858000D01*
X17526000Y-7580000D02*
X17526000Y-7660000D01*
X17486000Y-7620000D02*
X17566000Y-7620000D01*
X17780000Y-6818000D02*
X17780000Y-6898000D01*
X17740000Y-6858000D02*
X17820000Y-6858000D01*
X17780000Y-7580000D02*
X17780000Y-7660000D01*
X17740000Y-7620000D02*
X17820000Y-7620000D01*
X18034000Y-6818000D02*
X18034000Y-6898000D01*
X17994000Y-6858000D02*
X18074000Y-6858000D01*
X18034000Y-7580000D02*
X18034000Y-7660000D01*
X17994000Y-7620000D02*
X18074000Y-7620000D01*
X18288000Y-6818000D02*
X18288000Y-6898000D01*
X18248000Y-6858000D02*
X18328000Y-6858000D01*
X18288000Y-7580000D02*
X18288000Y-7660000D01*
X18248000Y-7620000D02*
X18328000Y-7620000D01*
X18542000Y-6818000D02*
X18542000Y-6898000D01*
X18502000Y-6858000D02*
X18582000Y-6858000D01*
X18542000Y-7580000D02*
X18542000Y-7660000D01*
X18502000Y-7620000D02*
X18582000Y-7620000D01*
X18796000Y-6818000D02*
X18796000Y-6898000D01*
X18756000Y-6858000D02*
X18836000Y-6858000D01*
X18796000Y-7580000D02*
X18796000Y-7660000D01*
X18756000Y-7620000D02*
X18836000Y-7620000D01*
D10*
X16291356Y-5877356D02*
X16291356Y-5806644D01*
X16220644Y-5806644D01*
X16220644Y-5877356D01*
X16291356Y-5877356D01*
X16926356Y-8671356D02*
X16926356Y-8600644D01*
X16855644Y-8600644D01*
X16855644Y-8671356D01*
X16926356Y-8671356D01*
X17180356Y-5877356D02*
X17180356Y-5806644D01*
X17109644Y-5806644D01*
X17109644Y-5877356D01*
X17180356Y-5877356D01*
X17815356Y-8671356D02*
X17815356Y-8600644D01*
X17744644Y-8600644D01*
X17744644Y-8671356D01*
X17815356Y-8671356D01*
X18069356Y-5877356D02*
X18069356Y-5806644D01*
X17998644Y-5806644D01*
X17998644Y-5877356D01*
X18069356Y-5877356D01*
X18704356Y-8671356D02*
X18704356Y-8600644D01*
X18633644Y-8600644D01*
X18633644Y-8671356D01*
X18704356Y-8671356D01*
X18958356Y-5877356D02*
X18958356Y-5806644D01*
X18887644Y-5806644D01*
X18887644Y-5877356D01*
X18958356Y-5877356D01*
X19593356Y-8671356D02*
X19593356Y-8600644D01*
X19522644Y-8600644D01*
X19522644Y-8671356D01*
X19593356Y-8671356D01*
D15*
X16002000Y-6790500D02*
X16061500Y-6731000D01*
X16002000Y-6671500D01*
X15942500Y-6731000D01*
X16002000Y-6790500D01*
X16002000Y-7044500D02*
X16061500Y-6985000D01*
X16002000Y-6925500D01*
X15942500Y-6985000D01*
X16002000Y-7044500D01*
X16002000Y-7298500D02*
X16061500Y-7239000D01*
X16002000Y-7179500D01*
X15942500Y-7239000D01*
X16002000Y-7298500D01*
X16002000Y-7552500D02*
X16061500Y-7493000D01*
X16002000Y-7433500D01*
X15942500Y-7493000D01*
X16002000Y-7552500D01*
X16002000Y-7806500D02*
X16061500Y-7747000D01*
X16002000Y-7687500D01*
X15942500Y-7747000D01*
X16002000Y-7806500D01*
X16383000Y-8695500D02*
X16442500Y-8636000D01*
X16383000Y-8576500D01*
X16323500Y-8636000D01*
X16383000Y-8695500D01*
X16510000Y-5901500D02*
X16569500Y-5842000D01*
X16510000Y-5782500D01*
X16450500Y-5842000D01*
X16510000Y-5901500D01*
X16637000Y-8695500D02*
X16696500Y-8636000D01*
X16637000Y-8576500D01*
X16577500Y-8636000D01*
X16637000Y-8695500D01*
X16764000Y-5901500D02*
X16823500Y-5842000D01*
X16764000Y-5782500D01*
X16704500Y-5842000D01*
X16764000Y-5901500D01*
X17272000Y-8695500D02*
X17331500Y-8636000D01*
X17272000Y-8576500D01*
X17212500Y-8636000D01*
X17272000Y-8695500D01*
X17399000Y-5901500D02*
X17458500Y-5842000D01*
X17399000Y-5782500D01*
X17339500Y-5842000D01*
X17399000Y-5901500D01*
X17526000Y-8695500D02*
X17585500Y-8636000D01*
X17526000Y-8576500D01*
X17466500Y-8636000D01*
X17526000Y-8695500D01*
X17653000Y-5901500D02*
X17712500Y-5842000D01*
X17653000Y-5782500D01*
X17593500Y-5842000D01*
X17653000Y-5901500D01*
X18161000Y-8695500D02*
X18220500Y-8636000D01*
X18161000Y-8576500D01*
X18101500Y-8636000D01*
X18161000Y-8695500D01*
X18288000Y-5901500D02*
X18347500Y-5842000D01*
X18288000Y-5782500D01*
X18228500Y-5842000D01*
X18288000Y-5901500D01*
X18415000Y-8695500D02*
X18474500Y-8636000D01*
X18415000Y-8576500D01*
X18355500Y-8636000D01*
X18415000Y-8695500D01*
X18542000Y-5901500D02*
X18601500Y-5842000D01*
X18542000Y-5782500D01*
X18482500Y-5842000D01*
X18542000Y-5901500D01*
X19050000Y-8695500D02*
X19109500Y-8636000D01*
X19050000Y-8576500D01*
X18990500Y-8636000D01*
X19050000Y-8695500D01*
X19177000Y-5901500D02*
X19236500Y-5842000D01*
X19177000Y-5782500D01*
X19117500Y-5842000D01*
X19177000Y-5901500D01*
X19304000Y-8695500D02*
X19363500Y-8636000D01*
X19304000Y-8576500D01*
X19244500Y-8636000D01*
X19304000Y-8695500D01*
X19431000Y-5901500D02*
X19490500Y-5842000D01*
X19431000Y-5782500D01*
X19371500Y-5842000D01*
X19431000Y-5901500D01*
X19862800Y-6790500D02*
X19922300Y-6731000D01*
X19862800Y-6671500D01*
X19803300Y-6731000D01*
X19862800Y-6790500D01*
X19862800Y-7044500D02*
X19922300Y-6985000D01*
X19862800Y-6925500D01*
X19803300Y-6985000D01*
X19862800Y-7044500D01*
X19862800Y-7298500D02*
X19922300Y-7239000D01*
X19862800Y-7179500D01*
X19803300Y-7239000D01*
X19862800Y-7298500D01*
X19862800Y-7552500D02*
X19922300Y-7493000D01*
X19862800Y-7433500D01*
X19803300Y-7493000D01*
X19862800Y-7552500D01*
X19862800Y-7806500D02*
X19922300Y-7747000D01*
X19862800Y-7687500D01*
X19803300Y-7747000D01*
X19862800Y-7806500D01*
D11*
X15482619Y-9461524D02*
X15482619Y-9261524D01*
X15482619Y-9261524D02*
X15530238Y-9261524D01*
X15530238Y-9261524D02*
X15558809Y-9271048D01*
X15558809Y-9271048D02*
X15577857Y-9290095D01*
X15577857Y-9290095D02*
X15587381Y-9309143D01*
X15587381Y-9309143D02*
X15596905Y-9347238D01*
X15596905Y-9347238D02*
X15596905Y-9375810D01*
X15596905Y-9375810D02*
X15587381Y-9413905D01*
X15587381Y-9413905D02*
X15577857Y-9432952D01*
X15577857Y-9432952D02*
X15558809Y-9452000D01*
X15558809Y-9452000D02*
X15530238Y-9461524D01*
X15530238Y-9461524D02*
X15482619Y-9461524D01*
X15682619Y-9461524D02*
X15682619Y-9328190D01*
X15682619Y-9366286D02*
X15692143Y-9347238D01*
X15692143Y-9347238D02*
X15701667Y-9337714D01*
X15701667Y-9337714D02*
X15720714Y-9328190D01*
X15720714Y-9328190D02*
X15739762Y-9328190D01*
X15806428Y-9461524D02*
X15806428Y-9328190D01*
X15806428Y-9261524D02*
X15796905Y-9271048D01*
X15796905Y-9271048D02*
X15806428Y-9280571D01*
X15806428Y-9280571D02*
X15815952Y-9271048D01*
X15815952Y-9271048D02*
X15806428Y-9261524D01*
X15806428Y-9261524D02*
X15806428Y-9280571D01*
X15930238Y-9461524D02*
X15911190Y-9452000D01*
X15911190Y-9452000D02*
X15901667Y-9432952D01*
X15901667Y-9432952D02*
X15901667Y-9261524D01*
X16035000Y-9461524D02*
X16015952Y-9452000D01*
X16015952Y-9452000D02*
X16006428Y-9432952D01*
X16006428Y-9432952D02*
X16006428Y-9261524D01*
X16263571Y-9461524D02*
X16263571Y-9261524D01*
X16263571Y-9261524D02*
X16330238Y-9404381D01*
X16330238Y-9404381D02*
X16396905Y-9261524D01*
X16396905Y-9261524D02*
X16396905Y-9461524D01*
X16577857Y-9461524D02*
X16577857Y-9356762D01*
X16577857Y-9356762D02*
X16568333Y-9337714D01*
X16568333Y-9337714D02*
X16549286Y-9328190D01*
X16549286Y-9328190D02*
X16511190Y-9328190D01*
X16511190Y-9328190D02*
X16492143Y-9337714D01*
X16577857Y-9452000D02*
X16558809Y-9461524D01*
X16558809Y-9461524D02*
X16511190Y-9461524D01*
X16511190Y-9461524D02*
X16492143Y-9452000D01*
X16492143Y-9452000D02*
X16482619Y-9432952D01*
X16482619Y-9432952D02*
X16482619Y-9413905D01*
X16482619Y-9413905D02*
X16492143Y-9394857D01*
X16492143Y-9394857D02*
X16511190Y-9385333D01*
X16511190Y-9385333D02*
X16558809Y-9385333D01*
X16558809Y-9385333D02*
X16577857Y-9375810D01*
X16673095Y-9328190D02*
X16673095Y-9528190D01*
X16673095Y-9337714D02*
X16692143Y-9328190D01*
X16692143Y-9328190D02*
X16730238Y-9328190D01*
X16730238Y-9328190D02*
X16749286Y-9337714D01*
X16749286Y-9337714D02*
X16758809Y-9347238D01*
X16758809Y-9347238D02*
X16768333Y-9366286D01*
X16768333Y-9366286D02*
X16768333Y-9423429D01*
X16768333Y-9423429D02*
X16758809Y-9442476D01*
X16758809Y-9442476D02*
X16749286Y-9452000D01*
X16749286Y-9452000D02*
X16730238Y-9461524D01*
X16730238Y-9461524D02*
X16692143Y-9461524D01*
X16692143Y-9461524D02*
X16673095Y-9452000D01*
X16854048Y-9442476D02*
X16863571Y-9452000D01*
X16863571Y-9452000D02*
X16854048Y-9461524D01*
X16854048Y-9461524D02*
X16844524Y-9452000D01*
X16844524Y-9452000D02*
X16854048Y-9442476D01*
X16854048Y-9442476D02*
X16854048Y-9461524D01*
X16854048Y-9337714D02*
X16863571Y-9347238D01*
X16863571Y-9347238D02*
X16854048Y-9356762D01*
X16854048Y-9356762D02*
X16844524Y-9347238D01*
X16844524Y-9347238D02*
X16854048Y-9337714D01*
X16854048Y-9337714D02*
X16854048Y-9356762D01*
D12*
X15195000Y-9769000D02*
X15235000Y-9809000D01*
X15235000Y-9769000D02*
X15195000Y-9809000D01*
D11*
X15520714Y-9681524D02*
X15539762Y-9681524D01*
X15539762Y-9681524D02*
X15558809Y-9691048D01*
X15558809Y-9691048D02*
X15568333Y-9700571D01*
X15568333Y-9700571D02*
X15577857Y-9719619D01*
X15577857Y-9719619D02*
X15587381Y-9757714D01*
X15587381Y-9757714D02*
X15587381Y-9805333D01*
X15587381Y-9805333D02*
X15577857Y-9843429D01*
X15577857Y-9843429D02*
X15568333Y-9862476D01*
X15568333Y-9862476D02*
X15558809Y-9872000D01*
X15558809Y-9872000D02*
X15539762Y-9881524D01*
X15539762Y-9881524D02*
X15520714Y-9881524D01*
X15520714Y-9881524D02*
X15501667Y-9872000D01*
X15501667Y-9872000D02*
X15492143Y-9862476D01*
X15492143Y-9862476D02*
X15482619Y-9843429D01*
X15482619Y-9843429D02*
X15473095Y-9805333D01*
X15473095Y-9805333D02*
X15473095Y-9757714D01*
X15473095Y-9757714D02*
X15482619Y-9719619D01*
X15482619Y-9719619D02*
X15492143Y-9700571D01*
X15492143Y-9700571D02*
X15501667Y-9691048D01*
X15501667Y-9691048D02*
X15520714Y-9681524D01*
X15673095Y-9862476D02*
X15682619Y-9872000D01*
X15682619Y-9872000D02*
X15673095Y-9881524D01*
X15673095Y-9881524D02*
X15663571Y-9872000D01*
X15663571Y-9872000D02*
X15673095Y-9862476D01*
X15673095Y-9862476D02*
X15673095Y-9881524D01*
X15854048Y-9748190D02*
X15854048Y-9881524D01*
X15806428Y-9672000D02*
X15758809Y-9814857D01*
X15758809Y-9814857D02*
X15882619Y-9814857D01*
X15996905Y-9681524D02*
X16015952Y-9681524D01*
X16015952Y-9681524D02*
X16035000Y-9691048D01*
X16035000Y-9691048D02*
X16044524Y-9700571D01*
X16044524Y-9700571D02*
X16054048Y-9719619D01*
X16054048Y-9719619D02*
X16063571Y-9757714D01*
X16063571Y-9757714D02*
X16063571Y-9805333D01*
X16063571Y-9805333D02*
X16054048Y-9843429D01*
X16054048Y-9843429D02*
X16044524Y-9862476D01*
X16044524Y-9862476D02*
X16035000Y-9872000D01*
X16035000Y-9872000D02*
X16015952Y-9881524D01*
X16015952Y-9881524D02*
X15996905Y-9881524D01*
X15996905Y-9881524D02*
X15977857Y-9872000D01*
X15977857Y-9872000D02*
X15968333Y-9862476D01*
X15968333Y-9862476D02*
X15958809Y-9843429D01*
X15958809Y-9843429D02*
X15949286Y-9805333D01*
X15949286Y-9805333D02*
X15949286Y-9757714D01*
X15949286Y-9757714D02*
X15958809Y-9719619D01*
X15958809Y-9719619D02*
X15968333Y-9700571D01*
X15968333Y-9700571D02*
X15977857Y-9691048D01*
X15977857Y-9691048D02*
X15996905Y-9681524D01*
X16187381Y-9681524D02*
X16206429Y-9681524D01*
X16206429Y-9681524D02*
X16225476Y-9691048D01*
X16225476Y-9691048D02*
X16235000Y-9700571D01*
X16235000Y-9700571D02*
X16244524Y-9719619D01*
X16244524Y-9719619D02*
X16254048Y-9757714D01*
X16254048Y-9757714D02*
X16254048Y-9805333D01*
X16254048Y-9805333D02*
X16244524Y-9843429D01*
X16244524Y-9843429D02*
X16235000Y-9862476D01*
X16235000Y-9862476D02*
X16225476Y-9872000D01*
X16225476Y-9872000D02*
X16206429Y-9881524D01*
X16206429Y-9881524D02*
X16187381Y-9881524D01*
X16187381Y-9881524D02*
X16168333Y-9872000D01*
X16168333Y-9872000D02*
X16158809Y-9862476D01*
X16158809Y-9862476D02*
X16149286Y-9843429D01*
X16149286Y-9843429D02*
X16139762Y-9805333D01*
X16139762Y-9805333D02*
X16139762Y-9757714D01*
X16139762Y-9757714D02*
X16149286Y-9719619D01*
X16149286Y-9719619D02*
X16158809Y-9700571D01*
X16158809Y-9700571D02*
X16168333Y-9691048D01*
X16168333Y-9691048D02*
X16187381Y-9681524D01*
X16339762Y-9881524D02*
X16339762Y-9748190D01*
X16339762Y-9767238D02*
X16349286Y-9757714D01*
X16349286Y-9757714D02*
X16368333Y-9748190D01*
X16368333Y-9748190D02*
X16396905Y-9748190D01*
X16396905Y-9748190D02*
X16415952Y-9757714D01*
X16415952Y-9757714D02*
X16425476Y-9776762D01*
X16425476Y-9776762D02*
X16425476Y-9881524D01*
X16425476Y-9776762D02*
X16435000Y-9757714D01*
X16435000Y-9757714D02*
X16454048Y-9748190D01*
X16454048Y-9748190D02*
X16482619Y-9748190D01*
X16482619Y-9748190D02*
X16501667Y-9757714D01*
X16501667Y-9757714D02*
X16511190Y-9776762D01*
X16511190Y-9776762D02*
X16511190Y-9881524D01*
X16606429Y-9881524D02*
X16606429Y-9748190D01*
X16606429Y-9767238D02*
X16615952Y-9757714D01*
X16615952Y-9757714D02*
X16635000Y-9748190D01*
X16635000Y-9748190D02*
X16663571Y-9748190D01*
X16663571Y-9748190D02*
X16682619Y-9757714D01*
X16682619Y-9757714D02*
X16692143Y-9776762D01*
X16692143Y-9776762D02*
X16692143Y-9881524D01*
X16692143Y-9776762D02*
X16701667Y-9757714D01*
X16701667Y-9757714D02*
X16720714Y-9748190D01*
X16720714Y-9748190D02*
X16749286Y-9748190D01*
X16749286Y-9748190D02*
X16768333Y-9757714D01*
X16768333Y-9757714D02*
X16777857Y-9776762D01*
X16777857Y-9776762D02*
X16777857Y-9881524D01*
X17168333Y-9672000D02*
X16996905Y-9929143D01*
X17425476Y-9681524D02*
X17444524Y-9681524D01*
X17444524Y-9681524D02*
X17463572Y-9691048D01*
X17463572Y-9691048D02*
X17473095Y-9700571D01*
X17473095Y-9700571D02*
X17482619Y-9719619D01*
X17482619Y-9719619D02*
X17492143Y-9757714D01*
X17492143Y-9757714D02*
X17492143Y-9805333D01*
X17492143Y-9805333D02*
X17482619Y-9843429D01*
X17482619Y-9843429D02*
X17473095Y-9862476D01*
X17473095Y-9862476D02*
X17463572Y-9872000D01*
X17463572Y-9872000D02*
X17444524Y-9881524D01*
X17444524Y-9881524D02*
X17425476Y-9881524D01*
X17425476Y-9881524D02*
X17406429Y-9872000D01*
X17406429Y-9872000D02*
X17396905Y-9862476D01*
X17396905Y-9862476D02*
X17387381Y-9843429D01*
X17387381Y-9843429D02*
X17377857Y-9805333D01*
X17377857Y-9805333D02*
X17377857Y-9757714D01*
X17377857Y-9757714D02*
X17387381Y-9719619D01*
X17387381Y-9719619D02*
X17396905Y-9700571D01*
X17396905Y-9700571D02*
X17406429Y-9691048D01*
X17406429Y-9691048D02*
X17425476Y-9681524D01*
X17577857Y-9862476D02*
X17587381Y-9872000D01*
X17587381Y-9872000D02*
X17577857Y-9881524D01*
X17577857Y-9881524D02*
X17568334Y-9872000D01*
X17568334Y-9872000D02*
X17577857Y-9862476D01*
X17577857Y-9862476D02*
X17577857Y-9881524D01*
X17711191Y-9681524D02*
X17730238Y-9681524D01*
X17730238Y-9681524D02*
X17749286Y-9691048D01*
X17749286Y-9691048D02*
X17758810Y-9700571D01*
X17758810Y-9700571D02*
X17768334Y-9719619D01*
X17768334Y-9719619D02*
X17777857Y-9757714D01*
X17777857Y-9757714D02*
X17777857Y-9805333D01*
X17777857Y-9805333D02*
X17768334Y-9843429D01*
X17768334Y-9843429D02*
X17758810Y-9862476D01*
X17758810Y-9862476D02*
X17749286Y-9872000D01*
X17749286Y-9872000D02*
X17730238Y-9881524D01*
X17730238Y-9881524D02*
X17711191Y-9881524D01*
X17711191Y-9881524D02*
X17692143Y-9872000D01*
X17692143Y-9872000D02*
X17682619Y-9862476D01*
X17682619Y-9862476D02*
X17673095Y-9843429D01*
X17673095Y-9843429D02*
X17663572Y-9805333D01*
X17663572Y-9805333D02*
X17663572Y-9757714D01*
X17663572Y-9757714D02*
X17673095Y-9719619D01*
X17673095Y-9719619D02*
X17682619Y-9700571D01*
X17682619Y-9700571D02*
X17692143Y-9691048D01*
X17692143Y-9691048D02*
X17711191Y-9681524D01*
X17968334Y-9881524D02*
X17854048Y-9881524D01*
X17911191Y-9881524D02*
X17911191Y-9681524D01*
X17911191Y-9681524D02*
X17892143Y-9710095D01*
X17892143Y-9710095D02*
X17873095Y-9729143D01*
X17873095Y-9729143D02*
X17854048Y-9738667D01*
X18149286Y-9681524D02*
X18054048Y-9681524D01*
X18054048Y-9681524D02*
X18044524Y-9776762D01*
X18044524Y-9776762D02*
X18054048Y-9767238D01*
X18054048Y-9767238D02*
X18073095Y-9757714D01*
X18073095Y-9757714D02*
X18120715Y-9757714D01*
X18120715Y-9757714D02*
X18139762Y-9767238D01*
X18139762Y-9767238D02*
X18149286Y-9776762D01*
X18149286Y-9776762D02*
X18158810Y-9795810D01*
X18158810Y-9795810D02*
X18158810Y-9843429D01*
X18158810Y-9843429D02*
X18149286Y-9862476D01*
X18149286Y-9862476D02*
X18139762Y-9872000D01*
X18139762Y-9872000D02*
X18120715Y-9881524D01*
X18120715Y-9881524D02*
X18073095Y-9881524D01*
X18073095Y-9881524D02*
X18054048Y-9872000D01*
X18054048Y-9872000D02*
X18044524Y-9862476D01*
X18225476Y-9681524D02*
X18358810Y-9681524D01*
X18358810Y-9681524D02*
X18273095Y-9881524D01*
X18425476Y-9681524D02*
X18425476Y-9719619D01*
X18501667Y-9681524D02*
X18501667Y-9719619D01*
X18796905Y-9957714D02*
X18787381Y-9948190D01*
X18787381Y-9948190D02*
X18768334Y-9919619D01*
X18768334Y-9919619D02*
X18758810Y-9900571D01*
X18758810Y-9900571D02*
X18749286Y-9872000D01*
X18749286Y-9872000D02*
X18739762Y-9824381D01*
X18739762Y-9824381D02*
X18739762Y-9786286D01*
X18739762Y-9786286D02*
X18749286Y-9738667D01*
X18749286Y-9738667D02*
X18758810Y-9710095D01*
X18758810Y-9710095D02*
X18768334Y-9691048D01*
X18768334Y-9691048D02*
X18787381Y-9662476D01*
X18787381Y-9662476D02*
X18796905Y-9652952D01*
X18958810Y-9748190D02*
X18958810Y-9881524D01*
X18911191Y-9672000D02*
X18863572Y-9814857D01*
X18863572Y-9814857D02*
X18987381Y-9814857D01*
X19215953Y-9881524D02*
X19215953Y-9681524D01*
X19301667Y-9881524D02*
X19301667Y-9776762D01*
X19301667Y-9776762D02*
X19292143Y-9757714D01*
X19292143Y-9757714D02*
X19273096Y-9748190D01*
X19273096Y-9748190D02*
X19244524Y-9748190D01*
X19244524Y-9748190D02*
X19225477Y-9757714D01*
X19225477Y-9757714D02*
X19215953Y-9767238D01*
X19425477Y-9881524D02*
X19406429Y-9872000D01*
X19406429Y-9872000D02*
X19396905Y-9862476D01*
X19396905Y-9862476D02*
X19387381Y-9843429D01*
X19387381Y-9843429D02*
X19387381Y-9786286D01*
X19387381Y-9786286D02*
X19396905Y-9767238D01*
X19396905Y-9767238D02*
X19406429Y-9757714D01*
X19406429Y-9757714D02*
X19425477Y-9748190D01*
X19425477Y-9748190D02*
X19454048Y-9748190D01*
X19454048Y-9748190D02*
X19473096Y-9757714D01*
X19473096Y-9757714D02*
X19482619Y-9767238D01*
X19482619Y-9767238D02*
X19492143Y-9786286D01*
X19492143Y-9786286D02*
X19492143Y-9843429D01*
X19492143Y-9843429D02*
X19482619Y-9862476D01*
X19482619Y-9862476D02*
X19473096Y-9872000D01*
X19473096Y-9872000D02*
X19454048Y-9881524D01*
X19454048Y-9881524D02*
X19425477Y-9881524D01*
X19606429Y-9881524D02*
X19587381Y-9872000D01*
X19587381Y-9872000D02*
X19577858Y-9852952D01*
X19577858Y-9852952D02*
X19577858Y-9681524D01*
X19758810Y-9872000D02*
X19739762Y-9881524D01*
X19739762Y-9881524D02*
X19701667Y-9881524D01*
X19701667Y-9881524D02*
X19682619Y-9872000D01*
X19682619Y-9872000D02*
X19673096Y-9852952D01*
X19673096Y-9852952D02*
X19673096Y-9776762D01*
X19673096Y-9776762D02*
X19682619Y-9757714D01*
X19682619Y-9757714D02*
X19701667Y-9748190D01*
X19701667Y-9748190D02*
X19739762Y-9748190D01*
X19739762Y-9748190D02*
X19758810Y-9757714D01*
X19758810Y-9757714D02*
X19768334Y-9776762D01*
X19768334Y-9776762D02*
X19768334Y-9795810D01*
X19768334Y-9795810D02*
X19673096Y-9814857D01*
X19844524Y-9872000D02*
X19863572Y-9881524D01*
X19863572Y-9881524D02*
X19901667Y-9881524D01*
X19901667Y-9881524D02*
X19920715Y-9872000D01*
X19920715Y-9872000D02*
X19930239Y-9852952D01*
X19930239Y-9852952D02*
X19930239Y-9843429D01*
X19930239Y-9843429D02*
X19920715Y-9824381D01*
X19920715Y-9824381D02*
X19901667Y-9814857D01*
X19901667Y-9814857D02*
X19873096Y-9814857D01*
X19873096Y-9814857D02*
X19854048Y-9805333D01*
X19854048Y-9805333D02*
X19844524Y-9786286D01*
X19844524Y-9786286D02*
X19844524Y-9776762D01*
X19844524Y-9776762D02*
X19854048Y-9757714D01*
X19854048Y-9757714D02*
X19873096Y-9748190D01*
X19873096Y-9748190D02*
X19901667Y-9748190D01*
X19901667Y-9748190D02*
X19920715Y-9757714D01*
X19996905Y-9957714D02*
X20006429Y-9948190D01*
X20006429Y-9948190D02*
X20025477Y-9919619D01*
X20025477Y-9919619D02*
X20035000Y-9900571D01*
X20035000Y-9900571D02*
X20044524Y-9872000D01*
X20044524Y-9872000D02*
X20054048Y-9824381D01*
X20054048Y-9824381D02*
X20054048Y-9786286D01*
X20054048Y-9786286D02*
X20044524Y-9738667D01*
X20044524Y-9738667D02*
X20035000Y-9710095D01*
X20035000Y-9710095D02*
X20025477Y-9691048D01*
X20025477Y-9691048D02*
X20006429Y-9662476D01*
X20006429Y-9662476D02*
X19996905Y-9652952D01*
D13*
X15235000Y-10053000D02*
G75*
G03*
X15235000Y-10053000I-35000J0D01*
G01*
D11*
X15520714Y-9945524D02*
X15539762Y-9945524D01*
X15539762Y-9945524D02*
X15558809Y-9955048D01*
X15558809Y-9955048D02*
X15568333Y-9964571D01*
X15568333Y-9964571D02*
X15577857Y-9983619D01*
X15577857Y-9983619D02*
X15587381Y-10021714D01*
X15587381Y-10021714D02*
X15587381Y-10069333D01*
X15587381Y-10069333D02*
X15577857Y-10107429D01*
X15577857Y-10107429D02*
X15568333Y-10126476D01*
X15568333Y-10126476D02*
X15558809Y-10136000D01*
X15558809Y-10136000D02*
X15539762Y-10145524D01*
X15539762Y-10145524D02*
X15520714Y-10145524D01*
X15520714Y-10145524D02*
X15501667Y-10136000D01*
X15501667Y-10136000D02*
X15492143Y-10126476D01*
X15492143Y-10126476D02*
X15482619Y-10107429D01*
X15482619Y-10107429D02*
X15473095Y-10069333D01*
X15473095Y-10069333D02*
X15473095Y-10021714D01*
X15473095Y-10021714D02*
X15482619Y-9983619D01*
X15482619Y-9983619D02*
X15492143Y-9964571D01*
X15492143Y-9964571D02*
X15501667Y-9955048D01*
X15501667Y-9955048D02*
X15520714Y-9945524D01*
X15673095Y-10126476D02*
X15682619Y-10136000D01*
X15682619Y-10136000D02*
X15673095Y-10145524D01*
X15673095Y-10145524D02*
X15663571Y-10136000D01*
X15663571Y-10136000D02*
X15673095Y-10126476D01*
X15673095Y-10126476D02*
X15673095Y-10145524D01*
X15749286Y-9945524D02*
X15882619Y-9945524D01*
X15882619Y-9945524D02*
X15796905Y-10145524D01*
X15996905Y-9945524D02*
X16015952Y-9945524D01*
X16015952Y-9945524D02*
X16035000Y-9955048D01*
X16035000Y-9955048D02*
X16044524Y-9964571D01*
X16044524Y-9964571D02*
X16054048Y-9983619D01*
X16054048Y-9983619D02*
X16063571Y-10021714D01*
X16063571Y-10021714D02*
X16063571Y-10069333D01*
X16063571Y-10069333D02*
X16054048Y-10107429D01*
X16054048Y-10107429D02*
X16044524Y-10126476D01*
X16044524Y-10126476D02*
X16035000Y-10136000D01*
X16035000Y-10136000D02*
X16015952Y-10145524D01*
X16015952Y-10145524D02*
X15996905Y-10145524D01*
X15996905Y-10145524D02*
X15977857Y-10136000D01*
X15977857Y-10136000D02*
X15968333Y-10126476D01*
X15968333Y-10126476D02*
X15958809Y-10107429D01*
X15958809Y-10107429D02*
X15949286Y-10069333D01*
X15949286Y-10069333D02*
X15949286Y-10021714D01*
X15949286Y-10021714D02*
X15958809Y-9983619D01*
X15958809Y-9983619D02*
X15968333Y-9964571D01*
X15968333Y-9964571D02*
X15977857Y-9955048D01*
X15977857Y-9955048D02*
X15996905Y-9945524D01*
X16187381Y-9945524D02*
X16206429Y-9945524D01*
X16206429Y-9945524D02*
X16225476Y-9955048D01*
X16225476Y-9955048D02*
X16235000Y-9964571D01*
X16235000Y-9964571D02*
X16244524Y-9983619D01*
X16244524Y-9983619D02*
X16254048Y-10021714D01*
X16254048Y-10021714D02*
X16254048Y-10069333D01*
X16254048Y-10069333D02*
X16244524Y-10107429D01*
X16244524Y-10107429D02*
X16235000Y-10126476D01*
X16235000Y-10126476D02*
X16225476Y-10136000D01*
X16225476Y-10136000D02*
X16206429Y-10145524D01*
X16206429Y-10145524D02*
X16187381Y-10145524D01*
X16187381Y-10145524D02*
X16168333Y-10136000D01*
X16168333Y-10136000D02*
X16158809Y-10126476D01*
X16158809Y-10126476D02*
X16149286Y-10107429D01*
X16149286Y-10107429D02*
X16139762Y-10069333D01*
X16139762Y-10069333D02*
X16139762Y-10021714D01*
X16139762Y-10021714D02*
X16149286Y-9983619D01*
X16149286Y-9983619D02*
X16158809Y-9964571D01*
X16158809Y-9964571D02*
X16168333Y-9955048D01*
X16168333Y-9955048D02*
X16187381Y-9945524D01*
X16339762Y-10145524D02*
X16339762Y-10012190D01*
X16339762Y-10031238D02*
X16349286Y-10021714D01*
X16349286Y-10021714D02*
X16368333Y-10012190D01*
X16368333Y-10012190D02*
X16396905Y-10012190D01*
X16396905Y-10012190D02*
X16415952Y-10021714D01*
X16415952Y-10021714D02*
X16425476Y-10040762D01*
X16425476Y-10040762D02*
X16425476Y-10145524D01*
X16425476Y-10040762D02*
X16435000Y-10021714D01*
X16435000Y-10021714D02*
X16454048Y-10012190D01*
X16454048Y-10012190D02*
X16482619Y-10012190D01*
X16482619Y-10012190D02*
X16501667Y-10021714D01*
X16501667Y-10021714D02*
X16511190Y-10040762D01*
X16511190Y-10040762D02*
X16511190Y-10145524D01*
X16606429Y-10145524D02*
X16606429Y-10012190D01*
X16606429Y-10031238D02*
X16615952Y-10021714D01*
X16615952Y-10021714D02*
X16635000Y-10012190D01*
X16635000Y-10012190D02*
X16663571Y-10012190D01*
X16663571Y-10012190D02*
X16682619Y-10021714D01*
X16682619Y-10021714D02*
X16692143Y-10040762D01*
X16692143Y-10040762D02*
X16692143Y-10145524D01*
X16692143Y-10040762D02*
X16701667Y-10021714D01*
X16701667Y-10021714D02*
X16720714Y-10012190D01*
X16720714Y-10012190D02*
X16749286Y-10012190D01*
X16749286Y-10012190D02*
X16768333Y-10021714D01*
X16768333Y-10021714D02*
X16777857Y-10040762D01*
X16777857Y-10040762D02*
X16777857Y-10145524D01*
X17168333Y-9936000D02*
X16996905Y-10193143D01*
X17425476Y-9945524D02*
X17444524Y-9945524D01*
X17444524Y-9945524D02*
X17463572Y-9955048D01*
X17463572Y-9955048D02*
X17473095Y-9964571D01*
X17473095Y-9964571D02*
X17482619Y-9983619D01*
X17482619Y-9983619D02*
X17492143Y-10021714D01*
X17492143Y-10021714D02*
X17492143Y-10069333D01*
X17492143Y-10069333D02*
X17482619Y-10107429D01*
X17482619Y-10107429D02*
X17473095Y-10126476D01*
X17473095Y-10126476D02*
X17463572Y-10136000D01*
X17463572Y-10136000D02*
X17444524Y-10145524D01*
X17444524Y-10145524D02*
X17425476Y-10145524D01*
X17425476Y-10145524D02*
X17406429Y-10136000D01*
X17406429Y-10136000D02*
X17396905Y-10126476D01*
X17396905Y-10126476D02*
X17387381Y-10107429D01*
X17387381Y-10107429D02*
X17377857Y-10069333D01*
X17377857Y-10069333D02*
X17377857Y-10021714D01*
X17377857Y-10021714D02*
X17387381Y-9983619D01*
X17387381Y-9983619D02*
X17396905Y-9964571D01*
X17396905Y-9964571D02*
X17406429Y-9955048D01*
X17406429Y-9955048D02*
X17425476Y-9945524D01*
X17577857Y-10126476D02*
X17587381Y-10136000D01*
X17587381Y-10136000D02*
X17577857Y-10145524D01*
X17577857Y-10145524D02*
X17568334Y-10136000D01*
X17568334Y-10136000D02*
X17577857Y-10126476D01*
X17577857Y-10126476D02*
X17577857Y-10145524D01*
X17711191Y-9945524D02*
X17730238Y-9945524D01*
X17730238Y-9945524D02*
X17749286Y-9955048D01*
X17749286Y-9955048D02*
X17758810Y-9964571D01*
X17758810Y-9964571D02*
X17768334Y-9983619D01*
X17768334Y-9983619D02*
X17777857Y-10021714D01*
X17777857Y-10021714D02*
X17777857Y-10069333D01*
X17777857Y-10069333D02*
X17768334Y-10107429D01*
X17768334Y-10107429D02*
X17758810Y-10126476D01*
X17758810Y-10126476D02*
X17749286Y-10136000D01*
X17749286Y-10136000D02*
X17730238Y-10145524D01*
X17730238Y-10145524D02*
X17711191Y-10145524D01*
X17711191Y-10145524D02*
X17692143Y-10136000D01*
X17692143Y-10136000D02*
X17682619Y-10126476D01*
X17682619Y-10126476D02*
X17673095Y-10107429D01*
X17673095Y-10107429D02*
X17663572Y-10069333D01*
X17663572Y-10069333D02*
X17663572Y-10021714D01*
X17663572Y-10021714D02*
X17673095Y-9983619D01*
X17673095Y-9983619D02*
X17682619Y-9964571D01*
X17682619Y-9964571D02*
X17692143Y-9955048D01*
X17692143Y-9955048D02*
X17711191Y-9945524D01*
X17854048Y-9964571D02*
X17863572Y-9955048D01*
X17863572Y-9955048D02*
X17882619Y-9945524D01*
X17882619Y-9945524D02*
X17930238Y-9945524D01*
X17930238Y-9945524D02*
X17949286Y-9955048D01*
X17949286Y-9955048D02*
X17958810Y-9964571D01*
X17958810Y-9964571D02*
X17968334Y-9983619D01*
X17968334Y-9983619D02*
X17968334Y-10002667D01*
X17968334Y-10002667D02*
X17958810Y-10031238D01*
X17958810Y-10031238D02*
X17844524Y-10145524D01*
X17844524Y-10145524D02*
X17968334Y-10145524D01*
X18035000Y-9945524D02*
X18168334Y-9945524D01*
X18168334Y-9945524D02*
X18082619Y-10145524D01*
X18330238Y-9945524D02*
X18292143Y-9945524D01*
X18292143Y-9945524D02*
X18273095Y-9955048D01*
X18273095Y-9955048D02*
X18263572Y-9964571D01*
X18263572Y-9964571D02*
X18244524Y-9993143D01*
X18244524Y-9993143D02*
X18235000Y-10031238D01*
X18235000Y-10031238D02*
X18235000Y-10107429D01*
X18235000Y-10107429D02*
X18244524Y-10126476D01*
X18244524Y-10126476D02*
X18254048Y-10136000D01*
X18254048Y-10136000D02*
X18273095Y-10145524D01*
X18273095Y-10145524D02*
X18311191Y-10145524D01*
X18311191Y-10145524D02*
X18330238Y-10136000D01*
X18330238Y-10136000D02*
X18339762Y-10126476D01*
X18339762Y-10126476D02*
X18349286Y-10107429D01*
X18349286Y-10107429D02*
X18349286Y-10059810D01*
X18349286Y-10059810D02*
X18339762Y-10040762D01*
X18339762Y-10040762D02*
X18330238Y-10031238D01*
X18330238Y-10031238D02*
X18311191Y-10021714D01*
X18311191Y-10021714D02*
X18273095Y-10021714D01*
X18273095Y-10021714D02*
X18254048Y-10031238D01*
X18254048Y-10031238D02*
X18244524Y-10040762D01*
X18244524Y-10040762D02*
X18235000Y-10059810D01*
X18425476Y-9945524D02*
X18425476Y-9983619D01*
X18501667Y-9945524D02*
X18501667Y-9983619D01*
X18796905Y-10221714D02*
X18787381Y-10212190D01*
X18787381Y-10212190D02*
X18768334Y-10183619D01*
X18768334Y-10183619D02*
X18758810Y-10164571D01*
X18758810Y-10164571D02*
X18749286Y-10136000D01*
X18749286Y-10136000D02*
X18739762Y-10088381D01*
X18739762Y-10088381D02*
X18739762Y-10050286D01*
X18739762Y-10050286D02*
X18749286Y-10002667D01*
X18749286Y-10002667D02*
X18758810Y-9974095D01*
X18758810Y-9974095D02*
X18768334Y-9955048D01*
X18768334Y-9955048D02*
X18787381Y-9926476D01*
X18787381Y-9926476D02*
X18796905Y-9916952D01*
X18977857Y-10145524D02*
X18863572Y-10145524D01*
X18920715Y-10145524D02*
X18920715Y-9945524D01*
X18920715Y-9945524D02*
X18901667Y-9974095D01*
X18901667Y-9974095D02*
X18882619Y-9993143D01*
X18882619Y-9993143D02*
X18863572Y-10002667D01*
X19149286Y-9945524D02*
X19111191Y-9945524D01*
X19111191Y-9945524D02*
X19092143Y-9955048D01*
X19092143Y-9955048D02*
X19082619Y-9964571D01*
X19082619Y-9964571D02*
X19063572Y-9993143D01*
X19063572Y-9993143D02*
X19054048Y-10031238D01*
X19054048Y-10031238D02*
X19054048Y-10107429D01*
X19054048Y-10107429D02*
X19063572Y-10126476D01*
X19063572Y-10126476D02*
X19073096Y-10136000D01*
X19073096Y-10136000D02*
X19092143Y-10145524D01*
X19092143Y-10145524D02*
X19130238Y-10145524D01*
X19130238Y-10145524D02*
X19149286Y-10136000D01*
X19149286Y-10136000D02*
X19158810Y-10126476D01*
X19158810Y-10126476D02*
X19168334Y-10107429D01*
X19168334Y-10107429D02*
X19168334Y-10059810D01*
X19168334Y-10059810D02*
X19158810Y-10040762D01*
X19158810Y-10040762D02*
X19149286Y-10031238D01*
X19149286Y-10031238D02*
X19130238Y-10021714D01*
X19130238Y-10021714D02*
X19092143Y-10021714D01*
X19092143Y-10021714D02*
X19073096Y-10031238D01*
X19073096Y-10031238D02*
X19063572Y-10040762D01*
X19063572Y-10040762D02*
X19054048Y-10059810D01*
X19406429Y-10145524D02*
X19406429Y-9945524D01*
X19492143Y-10145524D02*
X19492143Y-10040762D01*
X19492143Y-10040762D02*
X19482619Y-10021714D01*
X19482619Y-10021714D02*
X19463572Y-10012190D01*
X19463572Y-10012190D02*
X19435000Y-10012190D01*
X19435000Y-10012190D02*
X19415953Y-10021714D01*
X19415953Y-10021714D02*
X19406429Y-10031238D01*
X19615953Y-10145524D02*
X19596905Y-10136000D01*
X19596905Y-10136000D02*
X19587381Y-10126476D01*
X19587381Y-10126476D02*
X19577858Y-10107429D01*
X19577858Y-10107429D02*
X19577858Y-10050286D01*
X19577858Y-10050286D02*
X19587381Y-10031238D01*
X19587381Y-10031238D02*
X19596905Y-10021714D01*
X19596905Y-10021714D02*
X19615953Y-10012190D01*
X19615953Y-10012190D02*
X19644524Y-10012190D01*
X19644524Y-10012190D02*
X19663572Y-10021714D01*
X19663572Y-10021714D02*
X19673096Y-10031238D01*
X19673096Y-10031238D02*
X19682619Y-10050286D01*
X19682619Y-10050286D02*
X19682619Y-10107429D01*
X19682619Y-10107429D02*
X19673096Y-10126476D01*
X19673096Y-10126476D02*
X19663572Y-10136000D01*
X19663572Y-10136000D02*
X19644524Y-10145524D01*
X19644524Y-10145524D02*
X19615953Y-10145524D01*
X19796905Y-10145524D02*
X19777858Y-10136000D01*
X19777858Y-10136000D02*
X19768334Y-10116952D01*
X19768334Y-10116952D02*
X19768334Y-9945524D01*
X19949286Y-10136000D02*
X19930239Y-10145524D01*
X19930239Y-10145524D02*
X19892143Y-10145524D01*
X19892143Y-10145524D02*
X19873096Y-10136000D01*
X19873096Y-10136000D02*
X19863572Y-10116952D01*
X19863572Y-10116952D02*
X19863572Y-10040762D01*
X19863572Y-10040762D02*
X19873096Y-10021714D01*
X19873096Y-10021714D02*
X19892143Y-10012190D01*
X19892143Y-10012190D02*
X19930239Y-10012190D01*
X19930239Y-10012190D02*
X19949286Y-10021714D01*
X19949286Y-10021714D02*
X19958810Y-10040762D01*
X19958810Y-10040762D02*
X19958810Y-10059810D01*
X19958810Y-10059810D02*
X19863572Y-10078857D01*
X20035000Y-10136000D02*
X20054048Y-10145524D01*
X20054048Y-10145524D02*
X20092143Y-10145524D01*
X20092143Y-10145524D02*
X20111191Y-10136000D01*
X20111191Y-10136000D02*
X20120715Y-10116952D01*
X20120715Y-10116952D02*
X20120715Y-10107429D01*
X20120715Y-10107429D02*
X20111191Y-10088381D01*
X20111191Y-10088381D02*
X20092143Y-10078857D01*
X20092143Y-10078857D02*
X20063572Y-10078857D01*
X20063572Y-10078857D02*
X20044524Y-10069333D01*
X20044524Y-10069333D02*
X20035000Y-10050286D01*
X20035000Y-10050286D02*
X20035000Y-10040762D01*
X20035000Y-10040762D02*
X20044524Y-10021714D01*
X20044524Y-10021714D02*
X20063572Y-10012190D01*
X20063572Y-10012190D02*
X20092143Y-10012190D01*
X20092143Y-10012190D02*
X20111191Y-10021714D01*
X20187381Y-10221714D02*
X20196905Y-10212190D01*
X20196905Y-10212190D02*
X20215953Y-10183619D01*
X20215953Y-10183619D02*
X20225477Y-10164571D01*
X20225477Y-10164571D02*
X20235000Y-10136000D01*
X20235000Y-10136000D02*
X20244524Y-10088381D01*
X20244524Y-10088381D02*
X20244524Y-10050286D01*
X20244524Y-10050286D02*
X20235000Y-10002667D01*
X20235000Y-10002667D02*
X20225477Y-9974095D01*
X20225477Y-9974095D02*
X20215953Y-9955048D01*
X20215953Y-9955048D02*
X20196905Y-9926476D01*
X20196905Y-9926476D02*
X20187381Y-9916952D01*
D14*
X15195000Y-10277000D02*
X15195000Y-10357000D01*
X15155000Y-10317000D02*
X15235000Y-10317000D01*
D11*
X15520714Y-10209524D02*
X15539762Y-10209524D01*
X15539762Y-10209524D02*
X15558809Y-10219048D01*
X15558809Y-10219048D02*
X15568333Y-10228571D01*
X15568333Y-10228571D02*
X15577857Y-10247619D01*
X15577857Y-10247619D02*
X15587381Y-10285714D01*
X15587381Y-10285714D02*
X15587381Y-10333333D01*
X15587381Y-10333333D02*
X15577857Y-10371429D01*
X15577857Y-10371429D02*
X15568333Y-10390476D01*
X15568333Y-10390476D02*
X15558809Y-10400000D01*
X15558809Y-10400000D02*
X15539762Y-10409524D01*
X15539762Y-10409524D02*
X15520714Y-10409524D01*
X15520714Y-10409524D02*
X15501667Y-10400000D01*
X15501667Y-10400000D02*
X15492143Y-10390476D01*
X15492143Y-10390476D02*
X15482619Y-10371429D01*
X15482619Y-10371429D02*
X15473095Y-10333333D01*
X15473095Y-10333333D02*
X15473095Y-10285714D01*
X15473095Y-10285714D02*
X15482619Y-10247619D01*
X15482619Y-10247619D02*
X15492143Y-10228571D01*
X15492143Y-10228571D02*
X15501667Y-10219048D01*
X15501667Y-10219048D02*
X15520714Y-10209524D01*
X15673095Y-10390476D02*
X15682619Y-10400000D01*
X15682619Y-10400000D02*
X15673095Y-10409524D01*
X15673095Y-10409524D02*
X15663571Y-10400000D01*
X15663571Y-10400000D02*
X15673095Y-10390476D01*
X15673095Y-10390476D02*
X15673095Y-10409524D01*
X15796905Y-10295238D02*
X15777857Y-10285714D01*
X15777857Y-10285714D02*
X15768333Y-10276190D01*
X15768333Y-10276190D02*
X15758809Y-10257143D01*
X15758809Y-10257143D02*
X15758809Y-10247619D01*
X15758809Y-10247619D02*
X15768333Y-10228571D01*
X15768333Y-10228571D02*
X15777857Y-10219048D01*
X15777857Y-10219048D02*
X15796905Y-10209524D01*
X15796905Y-10209524D02*
X15835000Y-10209524D01*
X15835000Y-10209524D02*
X15854048Y-10219048D01*
X15854048Y-10219048D02*
X15863571Y-10228571D01*
X15863571Y-10228571D02*
X15873095Y-10247619D01*
X15873095Y-10247619D02*
X15873095Y-10257143D01*
X15873095Y-10257143D02*
X15863571Y-10276190D01*
X15863571Y-10276190D02*
X15854048Y-10285714D01*
X15854048Y-10285714D02*
X15835000Y-10295238D01*
X15835000Y-10295238D02*
X15796905Y-10295238D01*
X15796905Y-10295238D02*
X15777857Y-10304762D01*
X15777857Y-10304762D02*
X15768333Y-10314286D01*
X15768333Y-10314286D02*
X15758809Y-10333333D01*
X15758809Y-10333333D02*
X15758809Y-10371429D01*
X15758809Y-10371429D02*
X15768333Y-10390476D01*
X15768333Y-10390476D02*
X15777857Y-10400000D01*
X15777857Y-10400000D02*
X15796905Y-10409524D01*
X15796905Y-10409524D02*
X15835000Y-10409524D01*
X15835000Y-10409524D02*
X15854048Y-10400000D01*
X15854048Y-10400000D02*
X15863571Y-10390476D01*
X15863571Y-10390476D02*
X15873095Y-10371429D01*
X15873095Y-10371429D02*
X15873095Y-10333333D01*
X15873095Y-10333333D02*
X15863571Y-10314286D01*
X15863571Y-10314286D02*
X15854048Y-10304762D01*
X15854048Y-10304762D02*
X15835000Y-10295238D01*
X15996905Y-10209524D02*
X16015952Y-10209524D01*
X16015952Y-10209524D02*
X16035000Y-10219048D01*
X16035000Y-10219048D02*
X16044524Y-10228571D01*
X16044524Y-10228571D02*
X16054048Y-10247619D01*
X16054048Y-10247619D02*
X16063571Y-10285714D01*
X16063571Y-10285714D02*
X16063571Y-10333333D01*
X16063571Y-10333333D02*
X16054048Y-10371429D01*
X16054048Y-10371429D02*
X16044524Y-10390476D01*
X16044524Y-10390476D02*
X16035000Y-10400000D01*
X16035000Y-10400000D02*
X16015952Y-10409524D01*
X16015952Y-10409524D02*
X15996905Y-10409524D01*
X15996905Y-10409524D02*
X15977857Y-10400000D01*
X15977857Y-10400000D02*
X15968333Y-10390476D01*
X15968333Y-10390476D02*
X15958809Y-10371429D01*
X15958809Y-10371429D02*
X15949286Y-10333333D01*
X15949286Y-10333333D02*
X15949286Y-10285714D01*
X15949286Y-10285714D02*
X15958809Y-10247619D01*
X15958809Y-10247619D02*
X15968333Y-10228571D01*
X15968333Y-10228571D02*
X15977857Y-10219048D01*
X15977857Y-10219048D02*
X15996905Y-10209524D01*
X16187381Y-10209524D02*
X16206429Y-10209524D01*
X16206429Y-10209524D02*
X16225476Y-10219048D01*
X16225476Y-10219048D02*
X16235000Y-10228571D01*
X16235000Y-10228571D02*
X16244524Y-10247619D01*
X16244524Y-10247619D02*
X16254048Y-10285714D01*
X16254048Y-10285714D02*
X16254048Y-10333333D01*
X16254048Y-10333333D02*
X16244524Y-10371429D01*
X16244524Y-10371429D02*
X16235000Y-10390476D01*
X16235000Y-10390476D02*
X16225476Y-10400000D01*
X16225476Y-10400000D02*
X16206429Y-10409524D01*
X16206429Y-10409524D02*
X16187381Y-10409524D01*
X16187381Y-10409524D02*
X16168333Y-10400000D01*
X16168333Y-10400000D02*
X16158809Y-10390476D01*
X16158809Y-10390476D02*
X16149286Y-10371429D01*
X16149286Y-10371429D02*
X16139762Y-10333333D01*
X16139762Y-10333333D02*
X16139762Y-10285714D01*
X16139762Y-10285714D02*
X16149286Y-10247619D01*
X16149286Y-10247619D02*
X16158809Y-10228571D01*
X16158809Y-10228571D02*
X16168333Y-10219048D01*
X16168333Y-10219048D02*
X16187381Y-10209524D01*
X16339762Y-10409524D02*
X16339762Y-10276190D01*
X16339762Y-10295238D02*
X16349286Y-10285714D01*
X16349286Y-10285714D02*
X16368333Y-10276190D01*
X16368333Y-10276190D02*
X16396905Y-10276190D01*
X16396905Y-10276190D02*
X16415952Y-10285714D01*
X16415952Y-10285714D02*
X16425476Y-10304762D01*
X16425476Y-10304762D02*
X16425476Y-10409524D01*
X16425476Y-10304762D02*
X16435000Y-10285714D01*
X16435000Y-10285714D02*
X16454048Y-10276190D01*
X16454048Y-10276190D02*
X16482619Y-10276190D01*
X16482619Y-10276190D02*
X16501667Y-10285714D01*
X16501667Y-10285714D02*
X16511190Y-10304762D01*
X16511190Y-10304762D02*
X16511190Y-10409524D01*
X16606429Y-10409524D02*
X16606429Y-10276190D01*
X16606429Y-10295238D02*
X16615952Y-10285714D01*
X16615952Y-10285714D02*
X16635000Y-10276190D01*
X16635000Y-10276190D02*
X16663571Y-10276190D01*
X16663571Y-10276190D02*
X16682619Y-10285714D01*
X16682619Y-10285714D02*
X16692143Y-10304762D01*
X16692143Y-10304762D02*
X16692143Y-10409524D01*
X16692143Y-10304762D02*
X16701667Y-10285714D01*
X16701667Y-10285714D02*
X16720714Y-10276190D01*
X16720714Y-10276190D02*
X16749286Y-10276190D01*
X16749286Y-10276190D02*
X16768333Y-10285714D01*
X16768333Y-10285714D02*
X16777857Y-10304762D01*
X16777857Y-10304762D02*
X16777857Y-10409524D01*
X17168333Y-10200000D02*
X16996905Y-10457143D01*
X17425476Y-10209524D02*
X17444524Y-10209524D01*
X17444524Y-10209524D02*
X17463572Y-10219048D01*
X17463572Y-10219048D02*
X17473095Y-10228571D01*
X17473095Y-10228571D02*
X17482619Y-10247619D01*
X17482619Y-10247619D02*
X17492143Y-10285714D01*
X17492143Y-10285714D02*
X17492143Y-10333333D01*
X17492143Y-10333333D02*
X17482619Y-10371429D01*
X17482619Y-10371429D02*
X17473095Y-10390476D01*
X17473095Y-10390476D02*
X17463572Y-10400000D01*
X17463572Y-10400000D02*
X17444524Y-10409524D01*
X17444524Y-10409524D02*
X17425476Y-10409524D01*
X17425476Y-10409524D02*
X17406429Y-10400000D01*
X17406429Y-10400000D02*
X17396905Y-10390476D01*
X17396905Y-10390476D02*
X17387381Y-10371429D01*
X17387381Y-10371429D02*
X17377857Y-10333333D01*
X17377857Y-10333333D02*
X17377857Y-10285714D01*
X17377857Y-10285714D02*
X17387381Y-10247619D01*
X17387381Y-10247619D02*
X17396905Y-10228571D01*
X17396905Y-10228571D02*
X17406429Y-10219048D01*
X17406429Y-10219048D02*
X17425476Y-10209524D01*
X17577857Y-10390476D02*
X17587381Y-10400000D01*
X17587381Y-10400000D02*
X17577857Y-10409524D01*
X17577857Y-10409524D02*
X17568334Y-10400000D01*
X17568334Y-10400000D02*
X17577857Y-10390476D01*
X17577857Y-10390476D02*
X17577857Y-10409524D01*
X17711191Y-10209524D02*
X17730238Y-10209524D01*
X17730238Y-10209524D02*
X17749286Y-10219048D01*
X17749286Y-10219048D02*
X17758810Y-10228571D01*
X17758810Y-10228571D02*
X17768334Y-10247619D01*
X17768334Y-10247619D02*
X17777857Y-10285714D01*
X17777857Y-10285714D02*
X17777857Y-10333333D01*
X17777857Y-10333333D02*
X17768334Y-10371429D01*
X17768334Y-10371429D02*
X17758810Y-10390476D01*
X17758810Y-10390476D02*
X17749286Y-10400000D01*
X17749286Y-10400000D02*
X17730238Y-10409524D01*
X17730238Y-10409524D02*
X17711191Y-10409524D01*
X17711191Y-10409524D02*
X17692143Y-10400000D01*
X17692143Y-10400000D02*
X17682619Y-10390476D01*
X17682619Y-10390476D02*
X17673095Y-10371429D01*
X17673095Y-10371429D02*
X17663572Y-10333333D01*
X17663572Y-10333333D02*
X17663572Y-10285714D01*
X17663572Y-10285714D02*
X17673095Y-10247619D01*
X17673095Y-10247619D02*
X17682619Y-10228571D01*
X17682619Y-10228571D02*
X17692143Y-10219048D01*
X17692143Y-10219048D02*
X17711191Y-10209524D01*
X17844524Y-10209524D02*
X17968334Y-10209524D01*
X17968334Y-10209524D02*
X17901667Y-10285714D01*
X17901667Y-10285714D02*
X17930238Y-10285714D01*
X17930238Y-10285714D02*
X17949286Y-10295238D01*
X17949286Y-10295238D02*
X17958810Y-10304762D01*
X17958810Y-10304762D02*
X17968334Y-10323810D01*
X17968334Y-10323810D02*
X17968334Y-10371429D01*
X17968334Y-10371429D02*
X17958810Y-10390476D01*
X17958810Y-10390476D02*
X17949286Y-10400000D01*
X17949286Y-10400000D02*
X17930238Y-10409524D01*
X17930238Y-10409524D02*
X17873095Y-10409524D01*
X17873095Y-10409524D02*
X17854048Y-10400000D01*
X17854048Y-10400000D02*
X17844524Y-10390476D01*
X18158810Y-10409524D02*
X18044524Y-10409524D01*
X18101667Y-10409524D02*
X18101667Y-10209524D01*
X18101667Y-10209524D02*
X18082619Y-10238095D01*
X18082619Y-10238095D02*
X18063572Y-10257143D01*
X18063572Y-10257143D02*
X18044524Y-10266667D01*
X18339762Y-10209524D02*
X18244524Y-10209524D01*
X18244524Y-10209524D02*
X18235000Y-10304762D01*
X18235000Y-10304762D02*
X18244524Y-10295238D01*
X18244524Y-10295238D02*
X18263572Y-10285714D01*
X18263572Y-10285714D02*
X18311191Y-10285714D01*
X18311191Y-10285714D02*
X18330238Y-10295238D01*
X18330238Y-10295238D02*
X18339762Y-10304762D01*
X18339762Y-10304762D02*
X18349286Y-10323810D01*
X18349286Y-10323810D02*
X18349286Y-10371429D01*
X18349286Y-10371429D02*
X18339762Y-10390476D01*
X18339762Y-10390476D02*
X18330238Y-10400000D01*
X18330238Y-10400000D02*
X18311191Y-10409524D01*
X18311191Y-10409524D02*
X18263572Y-10409524D01*
X18263572Y-10409524D02*
X18244524Y-10400000D01*
X18244524Y-10400000D02*
X18235000Y-10390476D01*
X18425476Y-10209524D02*
X18425476Y-10247619D01*
X18501667Y-10209524D02*
X18501667Y-10247619D01*
X18796905Y-10485714D02*
X18787381Y-10476190D01*
X18787381Y-10476190D02*
X18768334Y-10447619D01*
X18768334Y-10447619D02*
X18758810Y-10428571D01*
X18758810Y-10428571D02*
X18749286Y-10400000D01*
X18749286Y-10400000D02*
X18739762Y-10352381D01*
X18739762Y-10352381D02*
X18739762Y-10314286D01*
X18739762Y-10314286D02*
X18749286Y-10266667D01*
X18749286Y-10266667D02*
X18758810Y-10238095D01*
X18758810Y-10238095D02*
X18768334Y-10219048D01*
X18768334Y-10219048D02*
X18787381Y-10190476D01*
X18787381Y-10190476D02*
X18796905Y-10180952D01*
X18977857Y-10409524D02*
X18863572Y-10409524D01*
X18920715Y-10409524D02*
X18920715Y-10209524D01*
X18920715Y-10209524D02*
X18901667Y-10238095D01*
X18901667Y-10238095D02*
X18882619Y-10257143D01*
X18882619Y-10257143D02*
X18863572Y-10266667D01*
X19092143Y-10295238D02*
X19073096Y-10285714D01*
X19073096Y-10285714D02*
X19063572Y-10276190D01*
X19063572Y-10276190D02*
X19054048Y-10257143D01*
X19054048Y-10257143D02*
X19054048Y-10247619D01*
X19054048Y-10247619D02*
X19063572Y-10228571D01*
X19063572Y-10228571D02*
X19073096Y-10219048D01*
X19073096Y-10219048D02*
X19092143Y-10209524D01*
X19092143Y-10209524D02*
X19130238Y-10209524D01*
X19130238Y-10209524D02*
X19149286Y-10219048D01*
X19149286Y-10219048D02*
X19158810Y-10228571D01*
X19158810Y-10228571D02*
X19168334Y-10247619D01*
X19168334Y-10247619D02*
X19168334Y-10257143D01*
X19168334Y-10257143D02*
X19158810Y-10276190D01*
X19158810Y-10276190D02*
X19149286Y-10285714D01*
X19149286Y-10285714D02*
X19130238Y-10295238D01*
X19130238Y-10295238D02*
X19092143Y-10295238D01*
X19092143Y-10295238D02*
X19073096Y-10304762D01*
X19073096Y-10304762D02*
X19063572Y-10314286D01*
X19063572Y-10314286D02*
X19054048Y-10333333D01*
X19054048Y-10333333D02*
X19054048Y-10371429D01*
X19054048Y-10371429D02*
X19063572Y-10390476D01*
X19063572Y-10390476D02*
X19073096Y-10400000D01*
X19073096Y-10400000D02*
X19092143Y-10409524D01*
X19092143Y-10409524D02*
X19130238Y-10409524D01*
X19130238Y-10409524D02*
X19149286Y-10400000D01*
X19149286Y-10400000D02*
X19158810Y-10390476D01*
X19158810Y-10390476D02*
X19168334Y-10371429D01*
X19168334Y-10371429D02*
X19168334Y-10333333D01*
X19168334Y-10333333D02*
X19158810Y-10314286D01*
X19158810Y-10314286D02*
X19149286Y-10304762D01*
X19149286Y-10304762D02*
X19130238Y-10295238D01*
X19406429Y-10409524D02*
X19406429Y-10209524D01*
X19492143Y-10409524D02*
X19492143Y-10304762D01*
X19492143Y-10304762D02*
X19482619Y-10285714D01*
X19482619Y-10285714D02*
X19463572Y-10276190D01*
X19463572Y-10276190D02*
X19435000Y-10276190D01*
X19435000Y-10276190D02*
X19415953Y-10285714D01*
X19415953Y-10285714D02*
X19406429Y-10295238D01*
X19615953Y-10409524D02*
X19596905Y-10400000D01*
X19596905Y-10400000D02*
X19587381Y-10390476D01*
X19587381Y-10390476D02*
X19577858Y-10371429D01*
X19577858Y-10371429D02*
X19577858Y-10314286D01*
X19577858Y-10314286D02*
X19587381Y-10295238D01*
X19587381Y-10295238D02*
X19596905Y-10285714D01*
X19596905Y-10285714D02*
X19615953Y-10276190D01*
X19615953Y-10276190D02*
X19644524Y-10276190D01*
X19644524Y-10276190D02*
X19663572Y-10285714D01*
X19663572Y-10285714D02*
X19673096Y-10295238D01*
X19673096Y-10295238D02*
X19682619Y-10314286D01*
X19682619Y-10314286D02*
X19682619Y-10371429D01*
X19682619Y-10371429D02*
X19673096Y-10390476D01*
X19673096Y-10390476D02*
X19663572Y-10400000D01*
X19663572Y-10400000D02*
X19644524Y-10409524D01*
X19644524Y-10409524D02*
X19615953Y-10409524D01*
X19796905Y-10409524D02*
X19777858Y-10400000D01*
X19777858Y-10400000D02*
X19768334Y-10380952D01*
X19768334Y-10380952D02*
X19768334Y-10209524D01*
X19949286Y-10400000D02*
X19930239Y-10409524D01*
X19930239Y-10409524D02*
X19892143Y-10409524D01*
X19892143Y-10409524D02*
X19873096Y-10400000D01*
X19873096Y-10400000D02*
X19863572Y-10380952D01*
X19863572Y-10380952D02*
X19863572Y-10304762D01*
X19863572Y-10304762D02*
X19873096Y-10285714D01*
X19873096Y-10285714D02*
X19892143Y-10276190D01*
X19892143Y-10276190D02*
X19930239Y-10276190D01*
X19930239Y-10276190D02*
X19949286Y-10285714D01*
X19949286Y-10285714D02*
X19958810Y-10304762D01*
X19958810Y-10304762D02*
X19958810Y-10323810D01*
X19958810Y-10323810D02*
X19863572Y-10342857D01*
X20035000Y-10400000D02*
X20054048Y-10409524D01*
X20054048Y-10409524D02*
X20092143Y-10409524D01*
X20092143Y-10409524D02*
X20111191Y-10400000D01*
X20111191Y-10400000D02*
X20120715Y-10380952D01*
X20120715Y-10380952D02*
X20120715Y-10371429D01*
X20120715Y-10371429D02*
X20111191Y-10352381D01*
X20111191Y-10352381D02*
X20092143Y-10342857D01*
X20092143Y-10342857D02*
X20063572Y-10342857D01*
X20063572Y-10342857D02*
X20044524Y-10333333D01*
X20044524Y-10333333D02*
X20035000Y-10314286D01*
X20035000Y-10314286D02*
X20035000Y-10304762D01*
X20035000Y-10304762D02*
X20044524Y-10285714D01*
X20044524Y-10285714D02*
X20063572Y-10276190D01*
X20063572Y-10276190D02*
X20092143Y-10276190D01*
X20092143Y-10276190D02*
X20111191Y-10285714D01*
X20187381Y-10485714D02*
X20196905Y-10476190D01*
X20196905Y-10476190D02*
X20215953Y-10447619D01*
X20215953Y-10447619D02*
X20225477Y-10428571D01*
X20225477Y-10428571D02*
X20235000Y-10400000D01*
X20235000Y-10400000D02*
X20244524Y-10352381D01*
X20244524Y-10352381D02*
X20244524Y-10314286D01*
X20244524Y-10314286D02*
X20235000Y-10266667D01*
X20235000Y-10266667D02*
X20225477Y-10238095D01*
X20225477Y-10238095D02*
X20215953Y-10219048D01*
X20215953Y-10219048D02*
X20196905Y-10190476D01*
X20196905Y-10190476D02*
X20187381Y-10180952D01*
D10*
X15220356Y-10616356D02*
X15220356Y-10545644D01*
X15149644Y-10545644D01*
X15149644Y-10616356D01*
X15220356Y-10616356D01*
D11*
X15587381Y-10673524D02*
X15473095Y-10673524D01*
X15530238Y-10673524D02*
X15530238Y-10473524D01*
X15530238Y-10473524D02*
X15511190Y-10502095D01*
X15511190Y-10502095D02*
X15492143Y-10521143D01*
X15492143Y-10521143D02*
X15473095Y-10530667D01*
X15673095Y-10654476D02*
X15682619Y-10664000D01*
X15682619Y-10664000D02*
X15673095Y-10673524D01*
X15673095Y-10673524D02*
X15663571Y-10664000D01*
X15663571Y-10664000D02*
X15673095Y-10654476D01*
X15673095Y-10654476D02*
X15673095Y-10673524D01*
X15806428Y-10473524D02*
X15825476Y-10473524D01*
X15825476Y-10473524D02*
X15844524Y-10483048D01*
X15844524Y-10483048D02*
X15854048Y-10492571D01*
X15854048Y-10492571D02*
X15863571Y-10511619D01*
X15863571Y-10511619D02*
X15873095Y-10549714D01*
X15873095Y-10549714D02*
X15873095Y-10597333D01*
X15873095Y-10597333D02*
X15863571Y-10635429D01*
X15863571Y-10635429D02*
X15854048Y-10654476D01*
X15854048Y-10654476D02*
X15844524Y-10664000D01*
X15844524Y-10664000D02*
X15825476Y-10673524D01*
X15825476Y-10673524D02*
X15806428Y-10673524D01*
X15806428Y-10673524D02*
X15787381Y-10664000D01*
X15787381Y-10664000D02*
X15777857Y-10654476D01*
X15777857Y-10654476D02*
X15768333Y-10635429D01*
X15768333Y-10635429D02*
X15758809Y-10597333D01*
X15758809Y-10597333D02*
X15758809Y-10549714D01*
X15758809Y-10549714D02*
X15768333Y-10511619D01*
X15768333Y-10511619D02*
X15777857Y-10492571D01*
X15777857Y-10492571D02*
X15787381Y-10483048D01*
X15787381Y-10483048D02*
X15806428Y-10473524D01*
X15996905Y-10473524D02*
X16015952Y-10473524D01*
X16015952Y-10473524D02*
X16035000Y-10483048D01*
X16035000Y-10483048D02*
X16044524Y-10492571D01*
X16044524Y-10492571D02*
X16054048Y-10511619D01*
X16054048Y-10511619D02*
X16063571Y-10549714D01*
X16063571Y-10549714D02*
X16063571Y-10597333D01*
X16063571Y-10597333D02*
X16054048Y-10635429D01*
X16054048Y-10635429D02*
X16044524Y-10654476D01*
X16044524Y-10654476D02*
X16035000Y-10664000D01*
X16035000Y-10664000D02*
X16015952Y-10673524D01*
X16015952Y-10673524D02*
X15996905Y-10673524D01*
X15996905Y-10673524D02*
X15977857Y-10664000D01*
X15977857Y-10664000D02*
X15968333Y-10654476D01*
X15968333Y-10654476D02*
X15958809Y-10635429D01*
X15958809Y-10635429D02*
X15949286Y-10597333D01*
X15949286Y-10597333D02*
X15949286Y-10549714D01*
X15949286Y-10549714D02*
X15958809Y-10511619D01*
X15958809Y-10511619D02*
X15968333Y-10492571D01*
X15968333Y-10492571D02*
X15977857Y-10483048D01*
X15977857Y-10483048D02*
X15996905Y-10473524D01*
X16187381Y-10473524D02*
X16206429Y-10473524D01*
X16206429Y-10473524D02*
X16225476Y-10483048D01*
X16225476Y-10483048D02*
X16235000Y-10492571D01*
X16235000Y-10492571D02*
X16244524Y-10511619D01*
X16244524Y-10511619D02*
X16254048Y-10549714D01*
X16254048Y-10549714D02*
X16254048Y-10597333D01*
X16254048Y-10597333D02*
X16244524Y-10635429D01*
X16244524Y-10635429D02*
X16235000Y-10654476D01*
X16235000Y-10654476D02*
X16225476Y-10664000D01*
X16225476Y-10664000D02*
X16206429Y-10673524D01*
X16206429Y-10673524D02*
X16187381Y-10673524D01*
X16187381Y-10673524D02*
X16168333Y-10664000D01*
X16168333Y-10664000D02*
X16158809Y-10654476D01*
X16158809Y-10654476D02*
X16149286Y-10635429D01*
X16149286Y-10635429D02*
X16139762Y-10597333D01*
X16139762Y-10597333D02*
X16139762Y-10549714D01*
X16139762Y-10549714D02*
X16149286Y-10511619D01*
X16149286Y-10511619D02*
X16158809Y-10492571D01*
X16158809Y-10492571D02*
X16168333Y-10483048D01*
X16168333Y-10483048D02*
X16187381Y-10473524D01*
X16339762Y-10673524D02*
X16339762Y-10540190D01*
X16339762Y-10559238D02*
X16349286Y-10549714D01*
X16349286Y-10549714D02*
X16368333Y-10540190D01*
X16368333Y-10540190D02*
X16396905Y-10540190D01*
X16396905Y-10540190D02*
X16415952Y-10549714D01*
X16415952Y-10549714D02*
X16425476Y-10568762D01*
X16425476Y-10568762D02*
X16425476Y-10673524D01*
X16425476Y-10568762D02*
X16435000Y-10549714D01*
X16435000Y-10549714D02*
X16454048Y-10540190D01*
X16454048Y-10540190D02*
X16482619Y-10540190D01*
X16482619Y-10540190D02*
X16501667Y-10549714D01*
X16501667Y-10549714D02*
X16511190Y-10568762D01*
X16511190Y-10568762D02*
X16511190Y-10673524D01*
X16606429Y-10673524D02*
X16606429Y-10540190D01*
X16606429Y-10559238D02*
X16615952Y-10549714D01*
X16615952Y-10549714D02*
X16635000Y-10540190D01*
X16635000Y-10540190D02*
X16663571Y-10540190D01*
X16663571Y-10540190D02*
X16682619Y-10549714D01*
X16682619Y-10549714D02*
X16692143Y-10568762D01*
X16692143Y-10568762D02*
X16692143Y-10673524D01*
X16692143Y-10568762D02*
X16701667Y-10549714D01*
X16701667Y-10549714D02*
X16720714Y-10540190D01*
X16720714Y-10540190D02*
X16749286Y-10540190D01*
X16749286Y-10540190D02*
X16768333Y-10549714D01*
X16768333Y-10549714D02*
X16777857Y-10568762D01*
X16777857Y-10568762D02*
X16777857Y-10673524D01*
X17168333Y-10464000D02*
X16996905Y-10721143D01*
X17425476Y-10473524D02*
X17444524Y-10473524D01*
X17444524Y-10473524D02*
X17463572Y-10483048D01*
X17463572Y-10483048D02*
X17473095Y-10492571D01*
X17473095Y-10492571D02*
X17482619Y-10511619D01*
X17482619Y-10511619D02*
X17492143Y-10549714D01*
X17492143Y-10549714D02*
X17492143Y-10597333D01*
X17492143Y-10597333D02*
X17482619Y-10635429D01*
X17482619Y-10635429D02*
X17473095Y-10654476D01*
X17473095Y-10654476D02*
X17463572Y-10664000D01*
X17463572Y-10664000D02*
X17444524Y-10673524D01*
X17444524Y-10673524D02*
X17425476Y-10673524D01*
X17425476Y-10673524D02*
X17406429Y-10664000D01*
X17406429Y-10664000D02*
X17396905Y-10654476D01*
X17396905Y-10654476D02*
X17387381Y-10635429D01*
X17387381Y-10635429D02*
X17377857Y-10597333D01*
X17377857Y-10597333D02*
X17377857Y-10549714D01*
X17377857Y-10549714D02*
X17387381Y-10511619D01*
X17387381Y-10511619D02*
X17396905Y-10492571D01*
X17396905Y-10492571D02*
X17406429Y-10483048D01*
X17406429Y-10483048D02*
X17425476Y-10473524D01*
X17577857Y-10654476D02*
X17587381Y-10664000D01*
X17587381Y-10664000D02*
X17577857Y-10673524D01*
X17577857Y-10673524D02*
X17568334Y-10664000D01*
X17568334Y-10664000D02*
X17577857Y-10654476D01*
X17577857Y-10654476D02*
X17577857Y-10673524D01*
X17711191Y-10473524D02*
X17730238Y-10473524D01*
X17730238Y-10473524D02*
X17749286Y-10483048D01*
X17749286Y-10483048D02*
X17758810Y-10492571D01*
X17758810Y-10492571D02*
X17768334Y-10511619D01*
X17768334Y-10511619D02*
X17777857Y-10549714D01*
X17777857Y-10549714D02*
X17777857Y-10597333D01*
X17777857Y-10597333D02*
X17768334Y-10635429D01*
X17768334Y-10635429D02*
X17758810Y-10654476D01*
X17758810Y-10654476D02*
X17749286Y-10664000D01*
X17749286Y-10664000D02*
X17730238Y-10673524D01*
X17730238Y-10673524D02*
X17711191Y-10673524D01*
X17711191Y-10673524D02*
X17692143Y-10664000D01*
X17692143Y-10664000D02*
X17682619Y-10654476D01*
X17682619Y-10654476D02*
X17673095Y-10635429D01*
X17673095Y-10635429D02*
X17663572Y-10597333D01*
X17663572Y-10597333D02*
X17663572Y-10549714D01*
X17663572Y-10549714D02*
X17673095Y-10511619D01*
X17673095Y-10511619D02*
X17682619Y-10492571D01*
X17682619Y-10492571D02*
X17692143Y-10483048D01*
X17692143Y-10483048D02*
X17711191Y-10473524D01*
X17844524Y-10473524D02*
X17968334Y-10473524D01*
X17968334Y-10473524D02*
X17901667Y-10549714D01*
X17901667Y-10549714D02*
X17930238Y-10549714D01*
X17930238Y-10549714D02*
X17949286Y-10559238D01*
X17949286Y-10559238D02*
X17958810Y-10568762D01*
X17958810Y-10568762D02*
X17968334Y-10587810D01*
X17968334Y-10587810D02*
X17968334Y-10635429D01*
X17968334Y-10635429D02*
X17958810Y-10654476D01*
X17958810Y-10654476D02*
X17949286Y-10664000D01*
X17949286Y-10664000D02*
X17930238Y-10673524D01*
X17930238Y-10673524D02*
X17873095Y-10673524D01*
X17873095Y-10673524D02*
X17854048Y-10664000D01*
X17854048Y-10664000D02*
X17844524Y-10654476D01*
X18063572Y-10673524D02*
X18101667Y-10673524D01*
X18101667Y-10673524D02*
X18120715Y-10664000D01*
X18120715Y-10664000D02*
X18130238Y-10654476D01*
X18130238Y-10654476D02*
X18149286Y-10625905D01*
X18149286Y-10625905D02*
X18158810Y-10587810D01*
X18158810Y-10587810D02*
X18158810Y-10511619D01*
X18158810Y-10511619D02*
X18149286Y-10492571D01*
X18149286Y-10492571D02*
X18139762Y-10483048D01*
X18139762Y-10483048D02*
X18120715Y-10473524D01*
X18120715Y-10473524D02*
X18082619Y-10473524D01*
X18082619Y-10473524D02*
X18063572Y-10483048D01*
X18063572Y-10483048D02*
X18054048Y-10492571D01*
X18054048Y-10492571D02*
X18044524Y-10511619D01*
X18044524Y-10511619D02*
X18044524Y-10559238D01*
X18044524Y-10559238D02*
X18054048Y-10578286D01*
X18054048Y-10578286D02*
X18063572Y-10587810D01*
X18063572Y-10587810D02*
X18082619Y-10597333D01*
X18082619Y-10597333D02*
X18120715Y-10597333D01*
X18120715Y-10597333D02*
X18139762Y-10587810D01*
X18139762Y-10587810D02*
X18149286Y-10578286D01*
X18149286Y-10578286D02*
X18158810Y-10559238D01*
X18330238Y-10540190D02*
X18330238Y-10673524D01*
X18282619Y-10464000D02*
X18235000Y-10606857D01*
X18235000Y-10606857D02*
X18358810Y-10606857D01*
X18425476Y-10473524D02*
X18425476Y-10511619D01*
X18501667Y-10473524D02*
X18501667Y-10511619D01*
X18796905Y-10749714D02*
X18787381Y-10740190D01*
X18787381Y-10740190D02*
X18768334Y-10711619D01*
X18768334Y-10711619D02*
X18758810Y-10692571D01*
X18758810Y-10692571D02*
X18749286Y-10664000D01*
X18749286Y-10664000D02*
X18739762Y-10616381D01*
X18739762Y-10616381D02*
X18739762Y-10578286D01*
X18739762Y-10578286D02*
X18749286Y-10530667D01*
X18749286Y-10530667D02*
X18758810Y-10502095D01*
X18758810Y-10502095D02*
X18768334Y-10483048D01*
X18768334Y-10483048D02*
X18787381Y-10454476D01*
X18787381Y-10454476D02*
X18796905Y-10444952D01*
X18901667Y-10559238D02*
X18882619Y-10549714D01*
X18882619Y-10549714D02*
X18873096Y-10540190D01*
X18873096Y-10540190D02*
X18863572Y-10521143D01*
X18863572Y-10521143D02*
X18863572Y-10511619D01*
X18863572Y-10511619D02*
X18873096Y-10492571D01*
X18873096Y-10492571D02*
X18882619Y-10483048D01*
X18882619Y-10483048D02*
X18901667Y-10473524D01*
X18901667Y-10473524D02*
X18939762Y-10473524D01*
X18939762Y-10473524D02*
X18958810Y-10483048D01*
X18958810Y-10483048D02*
X18968334Y-10492571D01*
X18968334Y-10492571D02*
X18977857Y-10511619D01*
X18977857Y-10511619D02*
X18977857Y-10521143D01*
X18977857Y-10521143D02*
X18968334Y-10540190D01*
X18968334Y-10540190D02*
X18958810Y-10549714D01*
X18958810Y-10549714D02*
X18939762Y-10559238D01*
X18939762Y-10559238D02*
X18901667Y-10559238D01*
X18901667Y-10559238D02*
X18882619Y-10568762D01*
X18882619Y-10568762D02*
X18873096Y-10578286D01*
X18873096Y-10578286D02*
X18863572Y-10597333D01*
X18863572Y-10597333D02*
X18863572Y-10635429D01*
X18863572Y-10635429D02*
X18873096Y-10654476D01*
X18873096Y-10654476D02*
X18882619Y-10664000D01*
X18882619Y-10664000D02*
X18901667Y-10673524D01*
X18901667Y-10673524D02*
X18939762Y-10673524D01*
X18939762Y-10673524D02*
X18958810Y-10664000D01*
X18958810Y-10664000D02*
X18968334Y-10654476D01*
X18968334Y-10654476D02*
X18977857Y-10635429D01*
X18977857Y-10635429D02*
X18977857Y-10597333D01*
X18977857Y-10597333D02*
X18968334Y-10578286D01*
X18968334Y-10578286D02*
X18958810Y-10568762D01*
X18958810Y-10568762D02*
X18939762Y-10559238D01*
X19215953Y-10673524D02*
X19215953Y-10473524D01*
X19301667Y-10673524D02*
X19301667Y-10568762D01*
X19301667Y-10568762D02*
X19292143Y-10549714D01*
X19292143Y-10549714D02*
X19273096Y-10540190D01*
X19273096Y-10540190D02*
X19244524Y-10540190D01*
X19244524Y-10540190D02*
X19225477Y-10549714D01*
X19225477Y-10549714D02*
X19215953Y-10559238D01*
X19425477Y-10673524D02*
X19406429Y-10664000D01*
X19406429Y-10664000D02*
X19396905Y-10654476D01*
X19396905Y-10654476D02*
X19387381Y-10635429D01*
X19387381Y-10635429D02*
X19387381Y-10578286D01*
X19387381Y-10578286D02*
X19396905Y-10559238D01*
X19396905Y-10559238D02*
X19406429Y-10549714D01*
X19406429Y-10549714D02*
X19425477Y-10540190D01*
X19425477Y-10540190D02*
X19454048Y-10540190D01*
X19454048Y-10540190D02*
X19473096Y-10549714D01*
X19473096Y-10549714D02*
X19482619Y-10559238D01*
X19482619Y-10559238D02*
X19492143Y-10578286D01*
X19492143Y-10578286D02*
X19492143Y-10635429D01*
X19492143Y-10635429D02*
X19482619Y-10654476D01*
X19482619Y-10654476D02*
X19473096Y-10664000D01*
X19473096Y-10664000D02*
X19454048Y-10673524D01*
X19454048Y-10673524D02*
X19425477Y-10673524D01*
X19606429Y-10673524D02*
X19587381Y-10664000D01*
X19587381Y-10664000D02*
X19577858Y-10644952D01*
X19577858Y-10644952D02*
X19577858Y-10473524D01*
X19758810Y-10664000D02*
X19739762Y-10673524D01*
X19739762Y-10673524D02*
X19701667Y-10673524D01*
X19701667Y-10673524D02*
X19682619Y-10664000D01*
X19682619Y-10664000D02*
X19673096Y-10644952D01*
X19673096Y-10644952D02*
X19673096Y-10568762D01*
X19673096Y-10568762D02*
X19682619Y-10549714D01*
X19682619Y-10549714D02*
X19701667Y-10540190D01*
X19701667Y-10540190D02*
X19739762Y-10540190D01*
X19739762Y-10540190D02*
X19758810Y-10549714D01*
X19758810Y-10549714D02*
X19768334Y-10568762D01*
X19768334Y-10568762D02*
X19768334Y-10587810D01*
X19768334Y-10587810D02*
X19673096Y-10606857D01*
X19844524Y-10664000D02*
X19863572Y-10673524D01*
X19863572Y-10673524D02*
X19901667Y-10673524D01*
X19901667Y-10673524D02*
X19920715Y-10664000D01*
X19920715Y-10664000D02*
X19930239Y-10644952D01*
X19930239Y-10644952D02*
X19930239Y-10635429D01*
X19930239Y-10635429D02*
X19920715Y-10616381D01*
X19920715Y-10616381D02*
X19901667Y-10606857D01*
X19901667Y-10606857D02*
X19873096Y-10606857D01*
X19873096Y-10606857D02*
X19854048Y-10597333D01*
X19854048Y-10597333D02*
X19844524Y-10578286D01*
X19844524Y-10578286D02*
X19844524Y-10568762D01*
X19844524Y-10568762D02*
X19854048Y-10549714D01*
X19854048Y-10549714D02*
X19873096Y-10540190D01*
X19873096Y-10540190D02*
X19901667Y-10540190D01*
X19901667Y-10540190D02*
X19920715Y-10549714D01*
X19996905Y-10749714D02*
X20006429Y-10740190D01*
X20006429Y-10740190D02*
X20025477Y-10711619D01*
X20025477Y-10711619D02*
X20035000Y-10692571D01*
X20035000Y-10692571D02*
X20044524Y-10664000D01*
X20044524Y-10664000D02*
X20054048Y-10616381D01*
X20054048Y-10616381D02*
X20054048Y-10578286D01*
X20054048Y-10578286D02*
X20044524Y-10530667D01*
X20044524Y-10530667D02*
X20035000Y-10502095D01*
X20035000Y-10502095D02*
X20025477Y-10483048D01*
X20025477Y-10483048D02*
X20006429Y-10454476D01*
X20006429Y-10454476D02*
X19996905Y-10444952D01*
D15*
X15175500Y-10904500D02*
X15235000Y-10845000D01*
X15175500Y-10785500D01*
X15116000Y-10845000D01*
X15175500Y-10904500D01*
D11*
X15587381Y-10937524D02*
X15473095Y-10937524D01*
X15530238Y-10937524D02*
X15530238Y-10737524D01*
X15530238Y-10737524D02*
X15511190Y-10766095D01*
X15511190Y-10766095D02*
X15492143Y-10785143D01*
X15492143Y-10785143D02*
X15473095Y-10794667D01*
X15673095Y-10918476D02*
X15682619Y-10928000D01*
X15682619Y-10928000D02*
X15673095Y-10937524D01*
X15673095Y-10937524D02*
X15663571Y-10928000D01*
X15663571Y-10928000D02*
X15673095Y-10918476D01*
X15673095Y-10918476D02*
X15673095Y-10937524D01*
X15873095Y-10937524D02*
X15758809Y-10937524D01*
X15815952Y-10937524D02*
X15815952Y-10737524D01*
X15815952Y-10737524D02*
X15796905Y-10766095D01*
X15796905Y-10766095D02*
X15777857Y-10785143D01*
X15777857Y-10785143D02*
X15758809Y-10794667D01*
X15968333Y-10937524D02*
X16006428Y-10937524D01*
X16006428Y-10937524D02*
X16025476Y-10928000D01*
X16025476Y-10928000D02*
X16035000Y-10918476D01*
X16035000Y-10918476D02*
X16054048Y-10889905D01*
X16054048Y-10889905D02*
X16063571Y-10851810D01*
X16063571Y-10851810D02*
X16063571Y-10775619D01*
X16063571Y-10775619D02*
X16054048Y-10756571D01*
X16054048Y-10756571D02*
X16044524Y-10747048D01*
X16044524Y-10747048D02*
X16025476Y-10737524D01*
X16025476Y-10737524D02*
X15987381Y-10737524D01*
X15987381Y-10737524D02*
X15968333Y-10747048D01*
X15968333Y-10747048D02*
X15958809Y-10756571D01*
X15958809Y-10756571D02*
X15949286Y-10775619D01*
X15949286Y-10775619D02*
X15949286Y-10823238D01*
X15949286Y-10823238D02*
X15958809Y-10842286D01*
X15958809Y-10842286D02*
X15968333Y-10851810D01*
X15968333Y-10851810D02*
X15987381Y-10861333D01*
X15987381Y-10861333D02*
X16025476Y-10861333D01*
X16025476Y-10861333D02*
X16044524Y-10851810D01*
X16044524Y-10851810D02*
X16054048Y-10842286D01*
X16054048Y-10842286D02*
X16063571Y-10823238D01*
X16187381Y-10737524D02*
X16206429Y-10737524D01*
X16206429Y-10737524D02*
X16225476Y-10747048D01*
X16225476Y-10747048D02*
X16235000Y-10756571D01*
X16235000Y-10756571D02*
X16244524Y-10775619D01*
X16244524Y-10775619D02*
X16254048Y-10813714D01*
X16254048Y-10813714D02*
X16254048Y-10861333D01*
X16254048Y-10861333D02*
X16244524Y-10899429D01*
X16244524Y-10899429D02*
X16235000Y-10918476D01*
X16235000Y-10918476D02*
X16225476Y-10928000D01*
X16225476Y-10928000D02*
X16206429Y-10937524D01*
X16206429Y-10937524D02*
X16187381Y-10937524D01*
X16187381Y-10937524D02*
X16168333Y-10928000D01*
X16168333Y-10928000D02*
X16158809Y-10918476D01*
X16158809Y-10918476D02*
X16149286Y-10899429D01*
X16149286Y-10899429D02*
X16139762Y-10861333D01*
X16139762Y-10861333D02*
X16139762Y-10813714D01*
X16139762Y-10813714D02*
X16149286Y-10775619D01*
X16149286Y-10775619D02*
X16158809Y-10756571D01*
X16158809Y-10756571D02*
X16168333Y-10747048D01*
X16168333Y-10747048D02*
X16187381Y-10737524D01*
X16339762Y-10937524D02*
X16339762Y-10804190D01*
X16339762Y-10823238D02*
X16349286Y-10813714D01*
X16349286Y-10813714D02*
X16368333Y-10804190D01*
X16368333Y-10804190D02*
X16396905Y-10804190D01*
X16396905Y-10804190D02*
X16415952Y-10813714D01*
X16415952Y-10813714D02*
X16425476Y-10832762D01*
X16425476Y-10832762D02*
X16425476Y-10937524D01*
X16425476Y-10832762D02*
X16435000Y-10813714D01*
X16435000Y-10813714D02*
X16454048Y-10804190D01*
X16454048Y-10804190D02*
X16482619Y-10804190D01*
X16482619Y-10804190D02*
X16501667Y-10813714D01*
X16501667Y-10813714D02*
X16511190Y-10832762D01*
X16511190Y-10832762D02*
X16511190Y-10937524D01*
X16606429Y-10937524D02*
X16606429Y-10804190D01*
X16606429Y-10823238D02*
X16615952Y-10813714D01*
X16615952Y-10813714D02*
X16635000Y-10804190D01*
X16635000Y-10804190D02*
X16663571Y-10804190D01*
X16663571Y-10804190D02*
X16682619Y-10813714D01*
X16682619Y-10813714D02*
X16692143Y-10832762D01*
X16692143Y-10832762D02*
X16692143Y-10937524D01*
X16692143Y-10832762D02*
X16701667Y-10813714D01*
X16701667Y-10813714D02*
X16720714Y-10804190D01*
X16720714Y-10804190D02*
X16749286Y-10804190D01*
X16749286Y-10804190D02*
X16768333Y-10813714D01*
X16768333Y-10813714D02*
X16777857Y-10832762D01*
X16777857Y-10832762D02*
X16777857Y-10937524D01*
X17168333Y-10728000D02*
X16996905Y-10985143D01*
X17425476Y-10737524D02*
X17444524Y-10737524D01*
X17444524Y-10737524D02*
X17463572Y-10747048D01*
X17463572Y-10747048D02*
X17473095Y-10756571D01*
X17473095Y-10756571D02*
X17482619Y-10775619D01*
X17482619Y-10775619D02*
X17492143Y-10813714D01*
X17492143Y-10813714D02*
X17492143Y-10861333D01*
X17492143Y-10861333D02*
X17482619Y-10899429D01*
X17482619Y-10899429D02*
X17473095Y-10918476D01*
X17473095Y-10918476D02*
X17463572Y-10928000D01*
X17463572Y-10928000D02*
X17444524Y-10937524D01*
X17444524Y-10937524D02*
X17425476Y-10937524D01*
X17425476Y-10937524D02*
X17406429Y-10928000D01*
X17406429Y-10928000D02*
X17396905Y-10918476D01*
X17396905Y-10918476D02*
X17387381Y-10899429D01*
X17387381Y-10899429D02*
X17377857Y-10861333D01*
X17377857Y-10861333D02*
X17377857Y-10813714D01*
X17377857Y-10813714D02*
X17387381Y-10775619D01*
X17387381Y-10775619D02*
X17396905Y-10756571D01*
X17396905Y-10756571D02*
X17406429Y-10747048D01*
X17406429Y-10747048D02*
X17425476Y-10737524D01*
X17577857Y-10918476D02*
X17587381Y-10928000D01*
X17587381Y-10928000D02*
X17577857Y-10937524D01*
X17577857Y-10937524D02*
X17568334Y-10928000D01*
X17568334Y-10928000D02*
X17577857Y-10918476D01*
X17577857Y-10918476D02*
X17577857Y-10937524D01*
X17711191Y-10737524D02*
X17730238Y-10737524D01*
X17730238Y-10737524D02*
X17749286Y-10747048D01*
X17749286Y-10747048D02*
X17758810Y-10756571D01*
X17758810Y-10756571D02*
X17768334Y-10775619D01*
X17768334Y-10775619D02*
X17777857Y-10813714D01*
X17777857Y-10813714D02*
X17777857Y-10861333D01*
X17777857Y-10861333D02*
X17768334Y-10899429D01*
X17768334Y-10899429D02*
X17758810Y-10918476D01*
X17758810Y-10918476D02*
X17749286Y-10928000D01*
X17749286Y-10928000D02*
X17730238Y-10937524D01*
X17730238Y-10937524D02*
X17711191Y-10937524D01*
X17711191Y-10937524D02*
X17692143Y-10928000D01*
X17692143Y-10928000D02*
X17682619Y-10918476D01*
X17682619Y-10918476D02*
X17673095Y-10899429D01*
X17673095Y-10899429D02*
X17663572Y-10861333D01*
X17663572Y-10861333D02*
X17663572Y-10813714D01*
X17663572Y-10813714D02*
X17673095Y-10775619D01*
X17673095Y-10775619D02*
X17682619Y-10756571D01*
X17682619Y-10756571D02*
X17692143Y-10747048D01*
X17692143Y-10747048D02*
X17711191Y-10737524D01*
X17949286Y-10804190D02*
X17949286Y-10937524D01*
X17901667Y-10728000D02*
X17854048Y-10870857D01*
X17854048Y-10870857D02*
X17977857Y-10870857D01*
X18139762Y-10737524D02*
X18101667Y-10737524D01*
X18101667Y-10737524D02*
X18082619Y-10747048D01*
X18082619Y-10747048D02*
X18073095Y-10756571D01*
X18073095Y-10756571D02*
X18054048Y-10785143D01*
X18054048Y-10785143D02*
X18044524Y-10823238D01*
X18044524Y-10823238D02*
X18044524Y-10899429D01*
X18044524Y-10899429D02*
X18054048Y-10918476D01*
X18054048Y-10918476D02*
X18063572Y-10928000D01*
X18063572Y-10928000D02*
X18082619Y-10937524D01*
X18082619Y-10937524D02*
X18120715Y-10937524D01*
X18120715Y-10937524D02*
X18139762Y-10928000D01*
X18139762Y-10928000D02*
X18149286Y-10918476D01*
X18149286Y-10918476D02*
X18158810Y-10899429D01*
X18158810Y-10899429D02*
X18158810Y-10851810D01*
X18158810Y-10851810D02*
X18149286Y-10832762D01*
X18149286Y-10832762D02*
X18139762Y-10823238D01*
X18139762Y-10823238D02*
X18120715Y-10813714D01*
X18120715Y-10813714D02*
X18082619Y-10813714D01*
X18082619Y-10813714D02*
X18063572Y-10823238D01*
X18063572Y-10823238D02*
X18054048Y-10832762D01*
X18054048Y-10832762D02*
X18044524Y-10851810D01*
X18254048Y-10937524D02*
X18292143Y-10937524D01*
X18292143Y-10937524D02*
X18311191Y-10928000D01*
X18311191Y-10928000D02*
X18320715Y-10918476D01*
X18320715Y-10918476D02*
X18339762Y-10889905D01*
X18339762Y-10889905D02*
X18349286Y-10851810D01*
X18349286Y-10851810D02*
X18349286Y-10775619D01*
X18349286Y-10775619D02*
X18339762Y-10756571D01*
X18339762Y-10756571D02*
X18330238Y-10747048D01*
X18330238Y-10747048D02*
X18311191Y-10737524D01*
X18311191Y-10737524D02*
X18273095Y-10737524D01*
X18273095Y-10737524D02*
X18254048Y-10747048D01*
X18254048Y-10747048D02*
X18244524Y-10756571D01*
X18244524Y-10756571D02*
X18235000Y-10775619D01*
X18235000Y-10775619D02*
X18235000Y-10823238D01*
X18235000Y-10823238D02*
X18244524Y-10842286D01*
X18244524Y-10842286D02*
X18254048Y-10851810D01*
X18254048Y-10851810D02*
X18273095Y-10861333D01*
X18273095Y-10861333D02*
X18311191Y-10861333D01*
X18311191Y-10861333D02*
X18330238Y-10851810D01*
X18330238Y-10851810D02*
X18339762Y-10842286D01*
X18339762Y-10842286D02*
X18349286Y-10823238D01*
X18425476Y-10737524D02*
X18425476Y-10775619D01*
X18501667Y-10737524D02*
X18501667Y-10775619D01*
X18796905Y-11013714D02*
X18787381Y-11004190D01*
X18787381Y-11004190D02*
X18768334Y-10975619D01*
X18768334Y-10975619D02*
X18758810Y-10956571D01*
X18758810Y-10956571D02*
X18749286Y-10928000D01*
X18749286Y-10928000D02*
X18739762Y-10880381D01*
X18739762Y-10880381D02*
X18739762Y-10842286D01*
X18739762Y-10842286D02*
X18749286Y-10794667D01*
X18749286Y-10794667D02*
X18758810Y-10766095D01*
X18758810Y-10766095D02*
X18768334Y-10747048D01*
X18768334Y-10747048D02*
X18787381Y-10718476D01*
X18787381Y-10718476D02*
X18796905Y-10708952D01*
X18863572Y-10756571D02*
X18873096Y-10747048D01*
X18873096Y-10747048D02*
X18892143Y-10737524D01*
X18892143Y-10737524D02*
X18939762Y-10737524D01*
X18939762Y-10737524D02*
X18958810Y-10747048D01*
X18958810Y-10747048D02*
X18968334Y-10756571D01*
X18968334Y-10756571D02*
X18977857Y-10775619D01*
X18977857Y-10775619D02*
X18977857Y-10794667D01*
X18977857Y-10794667D02*
X18968334Y-10823238D01*
X18968334Y-10823238D02*
X18854048Y-10937524D01*
X18854048Y-10937524D02*
X18977857Y-10937524D01*
X19149286Y-10737524D02*
X19111191Y-10737524D01*
X19111191Y-10737524D02*
X19092143Y-10747048D01*
X19092143Y-10747048D02*
X19082619Y-10756571D01*
X19082619Y-10756571D02*
X19063572Y-10785143D01*
X19063572Y-10785143D02*
X19054048Y-10823238D01*
X19054048Y-10823238D02*
X19054048Y-10899429D01*
X19054048Y-10899429D02*
X19063572Y-10918476D01*
X19063572Y-10918476D02*
X19073096Y-10928000D01*
X19073096Y-10928000D02*
X19092143Y-10937524D01*
X19092143Y-10937524D02*
X19130238Y-10937524D01*
X19130238Y-10937524D02*
X19149286Y-10928000D01*
X19149286Y-10928000D02*
X19158810Y-10918476D01*
X19158810Y-10918476D02*
X19168334Y-10899429D01*
X19168334Y-10899429D02*
X19168334Y-10851810D01*
X19168334Y-10851810D02*
X19158810Y-10832762D01*
X19158810Y-10832762D02*
X19149286Y-10823238D01*
X19149286Y-10823238D02*
X19130238Y-10813714D01*
X19130238Y-10813714D02*
X19092143Y-10813714D01*
X19092143Y-10813714D02*
X19073096Y-10823238D01*
X19073096Y-10823238D02*
X19063572Y-10832762D01*
X19063572Y-10832762D02*
X19054048Y-10851810D01*
X19406429Y-10937524D02*
X19406429Y-10737524D01*
X19492143Y-10937524D02*
X19492143Y-10832762D01*
X19492143Y-10832762D02*
X19482619Y-10813714D01*
X19482619Y-10813714D02*
X19463572Y-10804190D01*
X19463572Y-10804190D02*
X19435000Y-10804190D01*
X19435000Y-10804190D02*
X19415953Y-10813714D01*
X19415953Y-10813714D02*
X19406429Y-10823238D01*
X19615953Y-10937524D02*
X19596905Y-10928000D01*
X19596905Y-10928000D02*
X19587381Y-10918476D01*
X19587381Y-10918476D02*
X19577858Y-10899429D01*
X19577858Y-10899429D02*
X19577858Y-10842286D01*
X19577858Y-10842286D02*
X19587381Y-10823238D01*
X19587381Y-10823238D02*
X19596905Y-10813714D01*
X19596905Y-10813714D02*
X19615953Y-10804190D01*
X19615953Y-10804190D02*
X19644524Y-10804190D01*
X19644524Y-10804190D02*
X19663572Y-10813714D01*
X19663572Y-10813714D02*
X19673096Y-10823238D01*
X19673096Y-10823238D02*
X19682619Y-10842286D01*
X19682619Y-10842286D02*
X19682619Y-10899429D01*
X19682619Y-10899429D02*
X19673096Y-10918476D01*
X19673096Y-10918476D02*
X19663572Y-10928000D01*
X19663572Y-10928000D02*
X19644524Y-10937524D01*
X19644524Y-10937524D02*
X19615953Y-10937524D01*
X19796905Y-10937524D02*
X19777858Y-10928000D01*
X19777858Y-10928000D02*
X19768334Y-10908952D01*
X19768334Y-10908952D02*
X19768334Y-10737524D01*
X19949286Y-10928000D02*
X19930239Y-10937524D01*
X19930239Y-10937524D02*
X19892143Y-10937524D01*
X19892143Y-10937524D02*
X19873096Y-10928000D01*
X19873096Y-10928000D02*
X19863572Y-10908952D01*
X19863572Y-10908952D02*
X19863572Y-10832762D01*
X19863572Y-10832762D02*
X19873096Y-10813714D01*
X19873096Y-10813714D02*
X19892143Y-10804190D01*
X19892143Y-10804190D02*
X19930239Y-10804190D01*
X19930239Y-10804190D02*
X19949286Y-10813714D01*
X19949286Y-10813714D02*
X19958810Y-10832762D01*
X19958810Y-10832762D02*
X19958810Y-10851810D01*
X19958810Y-10851810D02*
X19863572Y-10870857D01*
X20035000Y-10928000D02*
X20054048Y-10937524D01*
X20054048Y-10937524D02*
X20092143Y-10937524D01*
X20092143Y-10937524D02*
X20111191Y-10928000D01*
X20111191Y-10928000D02*
X20120715Y-10908952D01*
X20120715Y-10908952D02*
X20120715Y-10899429D01*
X20120715Y-10899429D02*
X20111191Y-10880381D01*
X20111191Y-10880381D02*
X20092143Y-10870857D01*
X20092143Y-10870857D02*
X20063572Y-10870857D01*
X20063572Y-10870857D02*
X20044524Y-10861333D01*
X20044524Y-10861333D02*
X20035000Y-10842286D01*
X20035000Y-10842286D02*
X20035000Y-10832762D01*
X20035000Y-10832762D02*
X20044524Y-10813714D01*
X20044524Y-10813714D02*
X20063572Y-10804190D01*
X20063572Y-10804190D02*
X20092143Y-10804190D01*
X20092143Y-10804190D02*
X20111191Y-10813714D01*
X20187381Y-11013714D02*
X20196905Y-11004190D01*
X20196905Y-11004190D02*
X20215953Y-10975619D01*
X20215953Y-10975619D02*
X20225477Y-10956571D01*
X20225477Y-10956571D02*
X20235000Y-10928000D01*
X20235000Y-10928000D02*
X20244524Y-10880381D01*
X20244524Y-10880381D02*
X20244524Y-10842286D01*
X20244524Y-10842286D02*
X20235000Y-10794667D01*
X20235000Y-10794667D02*
X20225477Y-10766095D01*
X20225477Y-10766095D02*
X20215953Y-10747048D01*
X20215953Y-10747048D02*
X20196905Y-10718476D01*
X20196905Y-10718476D02*
X20187381Y-10708952D01*
M02*
