G04 #@! TF.GenerationSoftware,KiCad,Pcbnew,7.0.1*
G04 #@! TF.CreationDate,2023-07-05T13:56:38-05:00*
G04 #@! TF.ProjectId,shift in breakout board,73686966-7420-4696-9e20-627265616b6f,rev?*
G04 #@! TF.SameCoordinates,Original*
G04 #@! TF.FileFunction,Copper,L1,Top*
G04 #@! TF.FilePolarity,Positive*
%FSLAX46Y46*%
G04 Gerber Fmt 4.6, Leading zero omitted, Abs format (unit mm)*
G04 Created by KiCad (PCBNEW 7.0.1) date 2023-07-05 13:56:38*
%MOMM*%
%LPD*%
G01*
G04 APERTURE LIST*
G04 Aperture macros list*
%AMRoundRect*
0 Rectangle with rounded corners*
0 $1 Rounding radius*
0 $2 $3 $4 $5 $6 $7 $8 $9 X,Y pos of 4 corners*
0 Add a 4 corners polygon primitive as box body*
4,1,4,$2,$3,$4,$5,$6,$7,$8,$9,$2,$3,0*
0 Add four circle primitives for the rounded corners*
1,1,$1+$1,$2,$3*
1,1,$1+$1,$4,$5*
1,1,$1+$1,$6,$7*
1,1,$1+$1,$8,$9*
0 Add four rect primitives between the rounded corners*
20,1,$1+$1,$2,$3,$4,$5,0*
20,1,$1+$1,$4,$5,$6,$7,0*
20,1,$1+$1,$6,$7,$8,$9,0*
20,1,$1+$1,$8,$9,$2,$3,0*%
G04 Aperture macros list end*
G04 #@! TA.AperFunction,ComponentPad*
%ADD10R,1.700000X1.700000*%
G04 #@! TD*
G04 #@! TA.AperFunction,ComponentPad*
%ADD11RoundRect,0.250000X0.620000X0.845000X-0.620000X0.845000X-0.620000X-0.845000X0.620000X-0.845000X0*%
G04 #@! TD*
G04 #@! TA.AperFunction,ComponentPad*
%ADD12O,1.740000X2.190000*%
G04 #@! TD*
G04 #@! TA.AperFunction,ComponentPad*
%ADD13C,1.400000*%
G04 #@! TD*
G04 #@! TA.AperFunction,ComponentPad*
%ADD14O,1.400000X1.400000*%
G04 #@! TD*
G04 #@! TA.AperFunction,ComponentPad*
%ADD15RoundRect,0.250000X-0.620000X-0.845000X0.620000X-0.845000X0.620000X0.845000X-0.620000X0.845000X0*%
G04 #@! TD*
G04 #@! TA.AperFunction,ComponentPad*
%ADD16RoundRect,0.250000X-0.845000X0.620000X-0.845000X-0.620000X0.845000X-0.620000X0.845000X0.620000X0*%
G04 #@! TD*
G04 #@! TA.AperFunction,ComponentPad*
%ADD17O,2.190000X1.740000*%
G04 #@! TD*
G04 #@! TA.AperFunction,ComponentPad*
%ADD18RoundRect,0.250000X0.845000X-0.620000X0.845000X0.620000X-0.845000X0.620000X-0.845000X-0.620000X0*%
G04 #@! TD*
G04 #@! TA.AperFunction,ComponentPad*
%ADD19C,1.600000*%
G04 #@! TD*
G04 #@! TA.AperFunction,ComponentPad*
%ADD20R,1.600000X1.600000*%
G04 #@! TD*
G04 #@! TA.AperFunction,ComponentPad*
%ADD21O,1.600000X1.600000*%
G04 #@! TD*
G04 #@! TA.AperFunction,ViaPad*
%ADD22C,0.800000*%
G04 #@! TD*
G04 #@! TA.AperFunction,Conductor*
%ADD23C,0.500000*%
G04 #@! TD*
G04 APERTURE END LIST*
D10*
X195580000Y-86360000D03*
D11*
X166370000Y-86360000D03*
D12*
X163830000Y-86360000D03*
D13*
X170180000Y-63500000D03*
D14*
X177800000Y-63500000D03*
D13*
X170180000Y-78740000D03*
D14*
X177800000Y-78740000D03*
D15*
X182880000Y-58420000D03*
D12*
X185420000Y-58420000D03*
D13*
X170180000Y-81280000D03*
D14*
X177800000Y-81280000D03*
D11*
X193040000Y-86360000D03*
D12*
X190500000Y-86360000D03*
D10*
X168910000Y-86360000D03*
D15*
X165100000Y-58420000D03*
D12*
X167640000Y-58420000D03*
D11*
X175260000Y-86360000D03*
D12*
X172720000Y-86360000D03*
D13*
X187960000Y-81280000D03*
D14*
X180340000Y-81280000D03*
D10*
X171450000Y-58420000D03*
D11*
X184150000Y-86360000D03*
D12*
X181610000Y-86360000D03*
D10*
X177800000Y-86360000D03*
D13*
X170180000Y-66040000D03*
D14*
X177800000Y-66040000D03*
D10*
X186690000Y-86360000D03*
D13*
X187960000Y-63500000D03*
D14*
X180340000Y-63500000D03*
D16*
X198628000Y-67310000D03*
D17*
X198628000Y-69850000D03*
X198628000Y-72390000D03*
X198628000Y-74930000D03*
X198628000Y-77470000D03*
D10*
X189230000Y-58420000D03*
X162560000Y-58420000D03*
D15*
X173990000Y-58420000D03*
D12*
X176530000Y-58420000D03*
D13*
X187960000Y-78740000D03*
D14*
X180340000Y-78740000D03*
D18*
X160020000Y-77470000D03*
D17*
X160020000Y-74930000D03*
X160020000Y-72390000D03*
X160020000Y-69850000D03*
X160020000Y-67310000D03*
D13*
X187960000Y-66040000D03*
D14*
X180340000Y-66040000D03*
D19*
X165608000Y-68754000D03*
X165608000Y-63754000D03*
D10*
X180340000Y-58420000D03*
D15*
X191770000Y-58420000D03*
D12*
X194310000Y-58420000D03*
D20*
X170180000Y-76200000D03*
D21*
X172720000Y-76200000D03*
X175260000Y-76200000D03*
X177800000Y-76200000D03*
X180340000Y-76200000D03*
X182880000Y-76200000D03*
X185420000Y-76200000D03*
X187960000Y-76200000D03*
X187960000Y-68580000D03*
X185420000Y-68580000D03*
X182880000Y-68580000D03*
X180340000Y-68580000D03*
X177800000Y-68580000D03*
X175260000Y-68580000D03*
X172720000Y-68580000D03*
X170180000Y-68580000D03*
D22*
X170180000Y-70485000D03*
X173355000Y-71755000D03*
X184150000Y-83820000D03*
X184150000Y-78740000D03*
D23*
X157775000Y-75225000D02*
X157775000Y-66473288D01*
X157775000Y-66473288D02*
X160494288Y-63754000D01*
X202438000Y-71120000D02*
X198628000Y-67310000D01*
X160020000Y-77470000D02*
X157775000Y-75225000D01*
X190550000Y-78790000D02*
X199399762Y-78790000D01*
X202438000Y-75751762D02*
X202438000Y-71120000D01*
X172720000Y-68580000D02*
X171450000Y-67310000D01*
X160494288Y-63754000D02*
X165608000Y-63754000D01*
X199399762Y-78790000D02*
X202438000Y-75751762D01*
X187960000Y-76200000D02*
X190550000Y-78790000D01*
X171450000Y-67310000D02*
X169164000Y-67310000D01*
X165608000Y-63754000D02*
X169164000Y-67310000D01*
X166370000Y-72390000D02*
X170180000Y-76200000D01*
X170180000Y-76200000D02*
X173990000Y-72390000D01*
X160020000Y-72390000D02*
X166370000Y-72390000D01*
X173990000Y-72390000D02*
X198628000Y-72390000D01*
X191770000Y-74930000D02*
X198628000Y-74930000D01*
X172720000Y-76200000D02*
X175260000Y-73660000D01*
X175260000Y-73660000D02*
X190500000Y-73660000D01*
X190500000Y-73660000D02*
X191770000Y-74930000D01*
X162844000Y-65990000D02*
X165608000Y-68754000D01*
X159248238Y-65990000D02*
X162844000Y-65990000D01*
X158475000Y-73385000D02*
X158475000Y-66763238D01*
X171450000Y-71755000D02*
X170180000Y-70485000D01*
X170180000Y-68580000D02*
X168910000Y-69850000D01*
X170180000Y-68580000D02*
X171450000Y-69850000D01*
X173355000Y-71755000D02*
X171450000Y-71755000D01*
X165608000Y-69850000D02*
X165608000Y-68754000D01*
X168910000Y-69850000D02*
X165608000Y-69850000D01*
X160020000Y-74930000D02*
X158475000Y-73385000D01*
X158475000Y-66763238D02*
X159248238Y-65990000D01*
X171450000Y-69850000D02*
X198628000Y-69850000D01*
X182880000Y-83820000D02*
X180340000Y-81280000D01*
X184150000Y-83820000D02*
X182880000Y-83820000D01*
X177800000Y-78740000D02*
X180340000Y-78740000D01*
X180340000Y-78740000D02*
X180340000Y-81280000D01*
X180340000Y-81280000D02*
X177800000Y-81280000D01*
X177800000Y-78740000D02*
X177800000Y-81280000D01*
X172720000Y-86360000D02*
X170942000Y-88138000D01*
X183388000Y-88138000D02*
X181610000Y-86360000D01*
X174498000Y-88138000D02*
X172720000Y-86360000D01*
X192765000Y-56875000D02*
X194310000Y-58420000D01*
X176530000Y-58420000D02*
X178075000Y-56875000D01*
X185420000Y-58420000D02*
X186965000Y-56875000D01*
X183875000Y-56875000D02*
X185420000Y-58420000D01*
X181610000Y-86360000D02*
X179832000Y-88138000D01*
X178075000Y-56875000D02*
X183875000Y-56875000D01*
X174985000Y-56875000D02*
X176530000Y-58420000D01*
X186965000Y-56875000D02*
X192765000Y-56875000D01*
X170942000Y-88138000D02*
X165608000Y-88138000D01*
X167640000Y-58420000D02*
X169185000Y-56875000D01*
X165608000Y-88138000D02*
X163830000Y-86360000D01*
X184150000Y-78740000D02*
X185420000Y-80010000D01*
X179832000Y-88138000D02*
X174498000Y-88138000D01*
X190500000Y-86360000D02*
X188722000Y-88138000D01*
X169185000Y-56875000D02*
X174985000Y-56875000D01*
X190500000Y-82079216D02*
X190500000Y-86360000D01*
X188722000Y-88138000D02*
X183388000Y-88138000D01*
X185420000Y-80010000D02*
X188430784Y-80010000D01*
X188430784Y-80010000D02*
X190500000Y-82079216D01*
X189230000Y-58420000D02*
X189230000Y-64770000D01*
X189230000Y-58420000D02*
X191770000Y-58420000D01*
X189230000Y-64770000D02*
X187960000Y-66040000D01*
X185420000Y-66040000D02*
X182880000Y-68580000D01*
X187960000Y-66040000D02*
X185420000Y-66040000D01*
X182880000Y-58420000D02*
X187960000Y-63500000D01*
X185420000Y-63500000D02*
X180340000Y-68580000D01*
X187960000Y-63500000D02*
X185420000Y-63500000D01*
X180340000Y-58420000D02*
X182880000Y-58420000D01*
X170180000Y-63500000D02*
X172720000Y-63500000D01*
X171450000Y-58420000D02*
X171450000Y-62230000D01*
X171450000Y-62230000D02*
X170180000Y-63500000D01*
X171450000Y-58420000D02*
X173990000Y-58420000D01*
X172720000Y-63500000D02*
X177800000Y-68580000D01*
X165100000Y-60198000D02*
X170180000Y-65278000D01*
X172720000Y-66040000D02*
X175260000Y-68580000D01*
X170180000Y-65278000D02*
X170180000Y-66040000D01*
X170180000Y-66040000D02*
X172720000Y-66040000D01*
X165100000Y-58420000D02*
X165100000Y-60198000D01*
X162560000Y-58420000D02*
X165100000Y-58420000D01*
X172720000Y-78740000D02*
X175260000Y-76200000D01*
X170180000Y-78740000D02*
X172720000Y-78740000D01*
X166370000Y-86360000D02*
X168910000Y-86360000D01*
X168910000Y-80010000D02*
X168910000Y-86360000D01*
X170180000Y-78740000D02*
X168910000Y-80010000D01*
X175260000Y-86360000D02*
X170180000Y-81280000D01*
X177800000Y-76200000D02*
X172720000Y-81280000D01*
X175260000Y-86360000D02*
X177800000Y-86360000D01*
X172720000Y-81280000D02*
X170180000Y-81280000D01*
X186690000Y-82550000D02*
X187960000Y-81280000D01*
X186690000Y-86360000D02*
X186690000Y-82550000D01*
X184150000Y-86360000D02*
X186690000Y-86360000D01*
X185420000Y-81280000D02*
X187960000Y-81280000D01*
X180340000Y-76200000D02*
X185420000Y-81280000D01*
X185420000Y-78740000D02*
X182880000Y-76200000D01*
X193040000Y-86360000D02*
X193040000Y-83312000D01*
X188468000Y-78740000D02*
X187960000Y-78740000D01*
X193040000Y-86360000D02*
X195580000Y-86360000D01*
X193040000Y-83312000D02*
X188468000Y-78740000D01*
X187960000Y-78740000D02*
X185420000Y-78740000D01*
M02*
