%TF.GenerationSoftware,KiCad,Pcbnew,7.0.1*%
%TF.CreationDate,2023-11-21T14:19:22-06:00*%
%TF.ProjectId,Pico Hub V1,5069636f-2048-4756-9220-56312e6b6963,rev?*%
%TF.SameCoordinates,Original*%
%TF.FileFunction,Legend,Top*%
%TF.FilePolarity,Positive*%
%FSLAX46Y46*%
G04 Gerber Fmt 4.6, Leading zero omitted, Abs format (unit mm)*
G04 Created by KiCad (PCBNEW 7.0.1) date 2023-11-21 14:19:22*
%MOMM*%
%LPD*%
G01*
G04 APERTURE LIST*
%ADD10C,0.250000*%
%ADD11C,0.150000*%
%ADD12C,0.400000*%
%ADD13C,0.120000*%
%ADD14C,0.800000*%
%ADD15C,7.400000*%
%ADD16C,3.250000*%
%ADD17R,1.500000X1.500000*%
%ADD18C,1.500000*%
%ADD19C,2.300000*%
%ADD20O,1.700000X1.700000*%
%ADD21R,1.700000X1.700000*%
%ADD22O,4.200000X2.000000*%
%ADD23O,2.000000X4.200000*%
%ADD24R,2.000000X4.600000*%
G04 APERTURE END LIST*
D10*
X118249999Y-99193928D02*
X118249999Y-97693928D01*
X118249999Y-97693928D02*
X118821428Y-97693928D01*
X118821428Y-97693928D02*
X118964285Y-97765357D01*
X118964285Y-97765357D02*
X119035714Y-97836785D01*
X119035714Y-97836785D02*
X119107142Y-97979642D01*
X119107142Y-97979642D02*
X119107142Y-98193928D01*
X119107142Y-98193928D02*
X119035714Y-98336785D01*
X119035714Y-98336785D02*
X118964285Y-98408214D01*
X118964285Y-98408214D02*
X118821428Y-98479642D01*
X118821428Y-98479642D02*
X118249999Y-98479642D01*
X119749999Y-99193928D02*
X119749999Y-97693928D01*
X120750000Y-97693928D02*
X121035714Y-97693928D01*
X121035714Y-97693928D02*
X121178571Y-97765357D01*
X121178571Y-97765357D02*
X121321428Y-97908214D01*
X121321428Y-97908214D02*
X121392857Y-98193928D01*
X121392857Y-98193928D02*
X121392857Y-98693928D01*
X121392857Y-98693928D02*
X121321428Y-98979642D01*
X121321428Y-98979642D02*
X121178571Y-99122500D01*
X121178571Y-99122500D02*
X121035714Y-99193928D01*
X121035714Y-99193928D02*
X120750000Y-99193928D01*
X120750000Y-99193928D02*
X120607143Y-99122500D01*
X120607143Y-99122500D02*
X120464285Y-98979642D01*
X120464285Y-98979642D02*
X120392857Y-98693928D01*
X120392857Y-98693928D02*
X120392857Y-98193928D01*
X120392857Y-98193928D02*
X120464285Y-97908214D01*
X120464285Y-97908214D02*
X120607143Y-97765357D01*
X120607143Y-97765357D02*
X120750000Y-97693928D01*
X122678572Y-98193928D02*
X122678572Y-99193928D01*
X122321429Y-97622500D02*
X121964286Y-98693928D01*
X121964286Y-98693928D02*
X122892857Y-98693928D01*
X101499999Y-99193928D02*
X101499999Y-97693928D01*
X101499999Y-97693928D02*
X102071428Y-97693928D01*
X102071428Y-97693928D02*
X102214285Y-97765357D01*
X102214285Y-97765357D02*
X102285714Y-97836785D01*
X102285714Y-97836785D02*
X102357142Y-97979642D01*
X102357142Y-97979642D02*
X102357142Y-98193928D01*
X102357142Y-98193928D02*
X102285714Y-98336785D01*
X102285714Y-98336785D02*
X102214285Y-98408214D01*
X102214285Y-98408214D02*
X102071428Y-98479642D01*
X102071428Y-98479642D02*
X101499999Y-98479642D01*
X102999999Y-99193928D02*
X102999999Y-97693928D01*
X104000000Y-97693928D02*
X104285714Y-97693928D01*
X104285714Y-97693928D02*
X104428571Y-97765357D01*
X104428571Y-97765357D02*
X104571428Y-97908214D01*
X104571428Y-97908214D02*
X104642857Y-98193928D01*
X104642857Y-98193928D02*
X104642857Y-98693928D01*
X104642857Y-98693928D02*
X104571428Y-98979642D01*
X104571428Y-98979642D02*
X104428571Y-99122500D01*
X104428571Y-99122500D02*
X104285714Y-99193928D01*
X104285714Y-99193928D02*
X104000000Y-99193928D01*
X104000000Y-99193928D02*
X103857143Y-99122500D01*
X103857143Y-99122500D02*
X103714285Y-98979642D01*
X103714285Y-98979642D02*
X103642857Y-98693928D01*
X103642857Y-98693928D02*
X103642857Y-98193928D01*
X103642857Y-98193928D02*
X103714285Y-97908214D01*
X103714285Y-97908214D02*
X103857143Y-97765357D01*
X103857143Y-97765357D02*
X104000000Y-97693928D01*
X105142857Y-97693928D02*
X106071429Y-97693928D01*
X106071429Y-97693928D02*
X105571429Y-98265357D01*
X105571429Y-98265357D02*
X105785714Y-98265357D01*
X105785714Y-98265357D02*
X105928572Y-98336785D01*
X105928572Y-98336785D02*
X106000000Y-98408214D01*
X106000000Y-98408214D02*
X106071429Y-98551071D01*
X106071429Y-98551071D02*
X106071429Y-98908214D01*
X106071429Y-98908214D02*
X106000000Y-99051071D01*
X106000000Y-99051071D02*
X105928572Y-99122500D01*
X105928572Y-99122500D02*
X105785714Y-99193928D01*
X105785714Y-99193928D02*
X105357143Y-99193928D01*
X105357143Y-99193928D02*
X105214286Y-99122500D01*
X105214286Y-99122500D02*
X105142857Y-99051071D01*
X84749999Y-99193928D02*
X84749999Y-97693928D01*
X84749999Y-97693928D02*
X85321428Y-97693928D01*
X85321428Y-97693928D02*
X85464285Y-97765357D01*
X85464285Y-97765357D02*
X85535714Y-97836785D01*
X85535714Y-97836785D02*
X85607142Y-97979642D01*
X85607142Y-97979642D02*
X85607142Y-98193928D01*
X85607142Y-98193928D02*
X85535714Y-98336785D01*
X85535714Y-98336785D02*
X85464285Y-98408214D01*
X85464285Y-98408214D02*
X85321428Y-98479642D01*
X85321428Y-98479642D02*
X84749999Y-98479642D01*
X86249999Y-99193928D02*
X86249999Y-97693928D01*
X87250000Y-97693928D02*
X87535714Y-97693928D01*
X87535714Y-97693928D02*
X87678571Y-97765357D01*
X87678571Y-97765357D02*
X87821428Y-97908214D01*
X87821428Y-97908214D02*
X87892857Y-98193928D01*
X87892857Y-98193928D02*
X87892857Y-98693928D01*
X87892857Y-98693928D02*
X87821428Y-98979642D01*
X87821428Y-98979642D02*
X87678571Y-99122500D01*
X87678571Y-99122500D02*
X87535714Y-99193928D01*
X87535714Y-99193928D02*
X87250000Y-99193928D01*
X87250000Y-99193928D02*
X87107143Y-99122500D01*
X87107143Y-99122500D02*
X86964285Y-98979642D01*
X86964285Y-98979642D02*
X86892857Y-98693928D01*
X86892857Y-98693928D02*
X86892857Y-98193928D01*
X86892857Y-98193928D02*
X86964285Y-97908214D01*
X86964285Y-97908214D02*
X87107143Y-97765357D01*
X87107143Y-97765357D02*
X87250000Y-97693928D01*
X88464286Y-97836785D02*
X88535714Y-97765357D01*
X88535714Y-97765357D02*
X88678572Y-97693928D01*
X88678572Y-97693928D02*
X89035714Y-97693928D01*
X89035714Y-97693928D02*
X89178572Y-97765357D01*
X89178572Y-97765357D02*
X89250000Y-97836785D01*
X89250000Y-97836785D02*
X89321429Y-97979642D01*
X89321429Y-97979642D02*
X89321429Y-98122500D01*
X89321429Y-98122500D02*
X89250000Y-98336785D01*
X89250000Y-98336785D02*
X88392857Y-99193928D01*
X88392857Y-99193928D02*
X89321429Y-99193928D01*
X67999999Y-99193928D02*
X67999999Y-97693928D01*
X67999999Y-97693928D02*
X68571428Y-97693928D01*
X68571428Y-97693928D02*
X68714285Y-97765357D01*
X68714285Y-97765357D02*
X68785714Y-97836785D01*
X68785714Y-97836785D02*
X68857142Y-97979642D01*
X68857142Y-97979642D02*
X68857142Y-98193928D01*
X68857142Y-98193928D02*
X68785714Y-98336785D01*
X68785714Y-98336785D02*
X68714285Y-98408214D01*
X68714285Y-98408214D02*
X68571428Y-98479642D01*
X68571428Y-98479642D02*
X67999999Y-98479642D01*
X69499999Y-99193928D02*
X69499999Y-97693928D01*
X70500000Y-97693928D02*
X70785714Y-97693928D01*
X70785714Y-97693928D02*
X70928571Y-97765357D01*
X70928571Y-97765357D02*
X71071428Y-97908214D01*
X71071428Y-97908214D02*
X71142857Y-98193928D01*
X71142857Y-98193928D02*
X71142857Y-98693928D01*
X71142857Y-98693928D02*
X71071428Y-98979642D01*
X71071428Y-98979642D02*
X70928571Y-99122500D01*
X70928571Y-99122500D02*
X70785714Y-99193928D01*
X70785714Y-99193928D02*
X70500000Y-99193928D01*
X70500000Y-99193928D02*
X70357143Y-99122500D01*
X70357143Y-99122500D02*
X70214285Y-98979642D01*
X70214285Y-98979642D02*
X70142857Y-98693928D01*
X70142857Y-98693928D02*
X70142857Y-98193928D01*
X70142857Y-98193928D02*
X70214285Y-97908214D01*
X70214285Y-97908214D02*
X70357143Y-97765357D01*
X70357143Y-97765357D02*
X70500000Y-97693928D01*
X72571429Y-99193928D02*
X71714286Y-99193928D01*
X72142857Y-99193928D02*
X72142857Y-97693928D01*
X72142857Y-97693928D02*
X72000000Y-97908214D01*
X72000000Y-97908214D02*
X71857143Y-98051071D01*
X71857143Y-98051071D02*
X71714286Y-98122500D01*
X49951429Y-99122500D02*
X50165715Y-99193928D01*
X50165715Y-99193928D02*
X50522857Y-99193928D01*
X50522857Y-99193928D02*
X50665715Y-99122500D01*
X50665715Y-99122500D02*
X50737143Y-99051071D01*
X50737143Y-99051071D02*
X50808572Y-98908214D01*
X50808572Y-98908214D02*
X50808572Y-98765357D01*
X50808572Y-98765357D02*
X50737143Y-98622500D01*
X50737143Y-98622500D02*
X50665715Y-98551071D01*
X50665715Y-98551071D02*
X50522857Y-98479642D01*
X50522857Y-98479642D02*
X50237143Y-98408214D01*
X50237143Y-98408214D02*
X50094286Y-98336785D01*
X50094286Y-98336785D02*
X50022857Y-98265357D01*
X50022857Y-98265357D02*
X49951429Y-98122500D01*
X49951429Y-98122500D02*
X49951429Y-97979642D01*
X49951429Y-97979642D02*
X50022857Y-97836785D01*
X50022857Y-97836785D02*
X50094286Y-97765357D01*
X50094286Y-97765357D02*
X50237143Y-97693928D01*
X50237143Y-97693928D02*
X50594286Y-97693928D01*
X50594286Y-97693928D02*
X50808572Y-97765357D01*
X52022857Y-99122500D02*
X51880000Y-99193928D01*
X51880000Y-99193928D02*
X51594286Y-99193928D01*
X51594286Y-99193928D02*
X51451428Y-99122500D01*
X51451428Y-99122500D02*
X51380000Y-98979642D01*
X51380000Y-98979642D02*
X51380000Y-98408214D01*
X51380000Y-98408214D02*
X51451428Y-98265357D01*
X51451428Y-98265357D02*
X51594286Y-98193928D01*
X51594286Y-98193928D02*
X51880000Y-98193928D01*
X51880000Y-98193928D02*
X52022857Y-98265357D01*
X52022857Y-98265357D02*
X52094286Y-98408214D01*
X52094286Y-98408214D02*
X52094286Y-98551071D01*
X52094286Y-98551071D02*
X51380000Y-98693928D01*
X52737142Y-99193928D02*
X52737142Y-98193928D01*
X52737142Y-98479642D02*
X52808571Y-98336785D01*
X52808571Y-98336785D02*
X52880000Y-98265357D01*
X52880000Y-98265357D02*
X53022857Y-98193928D01*
X53022857Y-98193928D02*
X53165714Y-98193928D01*
X53665713Y-99193928D02*
X53665713Y-98193928D01*
X53665713Y-97693928D02*
X53594285Y-97765357D01*
X53594285Y-97765357D02*
X53665713Y-97836785D01*
X53665713Y-97836785D02*
X53737142Y-97765357D01*
X53737142Y-97765357D02*
X53665713Y-97693928D01*
X53665713Y-97693928D02*
X53665713Y-97836785D01*
X55022857Y-99193928D02*
X55022857Y-98408214D01*
X55022857Y-98408214D02*
X54951428Y-98265357D01*
X54951428Y-98265357D02*
X54808571Y-98193928D01*
X54808571Y-98193928D02*
X54522857Y-98193928D01*
X54522857Y-98193928D02*
X54379999Y-98265357D01*
X55022857Y-99122500D02*
X54879999Y-99193928D01*
X54879999Y-99193928D02*
X54522857Y-99193928D01*
X54522857Y-99193928D02*
X54379999Y-99122500D01*
X54379999Y-99122500D02*
X54308571Y-98979642D01*
X54308571Y-98979642D02*
X54308571Y-98836785D01*
X54308571Y-98836785D02*
X54379999Y-98693928D01*
X54379999Y-98693928D02*
X54522857Y-98622500D01*
X54522857Y-98622500D02*
X54879999Y-98622500D01*
X54879999Y-98622500D02*
X55022857Y-98551071D01*
X55951428Y-99193928D02*
X55808571Y-99122500D01*
X55808571Y-99122500D02*
X55737142Y-98979642D01*
X55737142Y-98979642D02*
X55737142Y-97693928D01*
X56451428Y-97836785D02*
X56522856Y-97765357D01*
X56522856Y-97765357D02*
X56665714Y-97693928D01*
X56665714Y-97693928D02*
X57022856Y-97693928D01*
X57022856Y-97693928D02*
X57165714Y-97765357D01*
X57165714Y-97765357D02*
X57237142Y-97836785D01*
X57237142Y-97836785D02*
X57308571Y-97979642D01*
X57308571Y-97979642D02*
X57308571Y-98122500D01*
X57308571Y-98122500D02*
X57237142Y-98336785D01*
X57237142Y-98336785D02*
X56379999Y-99193928D01*
X56379999Y-99193928D02*
X57308571Y-99193928D01*
X33071429Y-99122500D02*
X33285715Y-99193928D01*
X33285715Y-99193928D02*
X33642857Y-99193928D01*
X33642857Y-99193928D02*
X33785715Y-99122500D01*
X33785715Y-99122500D02*
X33857143Y-99051071D01*
X33857143Y-99051071D02*
X33928572Y-98908214D01*
X33928572Y-98908214D02*
X33928572Y-98765357D01*
X33928572Y-98765357D02*
X33857143Y-98622500D01*
X33857143Y-98622500D02*
X33785715Y-98551071D01*
X33785715Y-98551071D02*
X33642857Y-98479642D01*
X33642857Y-98479642D02*
X33357143Y-98408214D01*
X33357143Y-98408214D02*
X33214286Y-98336785D01*
X33214286Y-98336785D02*
X33142857Y-98265357D01*
X33142857Y-98265357D02*
X33071429Y-98122500D01*
X33071429Y-98122500D02*
X33071429Y-97979642D01*
X33071429Y-97979642D02*
X33142857Y-97836785D01*
X33142857Y-97836785D02*
X33214286Y-97765357D01*
X33214286Y-97765357D02*
X33357143Y-97693928D01*
X33357143Y-97693928D02*
X33714286Y-97693928D01*
X33714286Y-97693928D02*
X33928572Y-97765357D01*
X35142857Y-99122500D02*
X35000000Y-99193928D01*
X35000000Y-99193928D02*
X34714286Y-99193928D01*
X34714286Y-99193928D02*
X34571428Y-99122500D01*
X34571428Y-99122500D02*
X34500000Y-98979642D01*
X34500000Y-98979642D02*
X34500000Y-98408214D01*
X34500000Y-98408214D02*
X34571428Y-98265357D01*
X34571428Y-98265357D02*
X34714286Y-98193928D01*
X34714286Y-98193928D02*
X35000000Y-98193928D01*
X35000000Y-98193928D02*
X35142857Y-98265357D01*
X35142857Y-98265357D02*
X35214286Y-98408214D01*
X35214286Y-98408214D02*
X35214286Y-98551071D01*
X35214286Y-98551071D02*
X34500000Y-98693928D01*
X35857142Y-99193928D02*
X35857142Y-98193928D01*
X35857142Y-98479642D02*
X35928571Y-98336785D01*
X35928571Y-98336785D02*
X36000000Y-98265357D01*
X36000000Y-98265357D02*
X36142857Y-98193928D01*
X36142857Y-98193928D02*
X36285714Y-98193928D01*
X36785713Y-99193928D02*
X36785713Y-98193928D01*
X36785713Y-97693928D02*
X36714285Y-97765357D01*
X36714285Y-97765357D02*
X36785713Y-97836785D01*
X36785713Y-97836785D02*
X36857142Y-97765357D01*
X36857142Y-97765357D02*
X36785713Y-97693928D01*
X36785713Y-97693928D02*
X36785713Y-97836785D01*
X38142857Y-99193928D02*
X38142857Y-98408214D01*
X38142857Y-98408214D02*
X38071428Y-98265357D01*
X38071428Y-98265357D02*
X37928571Y-98193928D01*
X37928571Y-98193928D02*
X37642857Y-98193928D01*
X37642857Y-98193928D02*
X37499999Y-98265357D01*
X38142857Y-99122500D02*
X37999999Y-99193928D01*
X37999999Y-99193928D02*
X37642857Y-99193928D01*
X37642857Y-99193928D02*
X37499999Y-99122500D01*
X37499999Y-99122500D02*
X37428571Y-98979642D01*
X37428571Y-98979642D02*
X37428571Y-98836785D01*
X37428571Y-98836785D02*
X37499999Y-98693928D01*
X37499999Y-98693928D02*
X37642857Y-98622500D01*
X37642857Y-98622500D02*
X37999999Y-98622500D01*
X37999999Y-98622500D02*
X38142857Y-98551071D01*
X39071428Y-99193928D02*
X38928571Y-99122500D01*
X38928571Y-99122500D02*
X38857142Y-98979642D01*
X38857142Y-98979642D02*
X38857142Y-97693928D01*
X40428571Y-99193928D02*
X39571428Y-99193928D01*
X39999999Y-99193928D02*
X39999999Y-97693928D01*
X39999999Y-97693928D02*
X39857142Y-97908214D01*
X39857142Y-97908214D02*
X39714285Y-98051071D01*
X39714285Y-98051071D02*
X39571428Y-98122500D01*
D11*
X122690475Y-85557380D02*
X122642856Y-85605000D01*
X122642856Y-85605000D02*
X122499999Y-85652619D01*
X122499999Y-85652619D02*
X122404761Y-85652619D01*
X122404761Y-85652619D02*
X122261904Y-85605000D01*
X122261904Y-85605000D02*
X122166666Y-85509761D01*
X122166666Y-85509761D02*
X122119047Y-85414523D01*
X122119047Y-85414523D02*
X122071428Y-85224047D01*
X122071428Y-85224047D02*
X122071428Y-85081190D01*
X122071428Y-85081190D02*
X122119047Y-84890714D01*
X122119047Y-84890714D02*
X122166666Y-84795476D01*
X122166666Y-84795476D02*
X122261904Y-84700238D01*
X122261904Y-84700238D02*
X122404761Y-84652619D01*
X122404761Y-84652619D02*
X122499999Y-84652619D01*
X122499999Y-84652619D02*
X122642856Y-84700238D01*
X122642856Y-84700238D02*
X122690475Y-84747857D01*
X123261904Y-85652619D02*
X123166666Y-85605000D01*
X123166666Y-85605000D02*
X123119047Y-85557380D01*
X123119047Y-85557380D02*
X123071428Y-85462142D01*
X123071428Y-85462142D02*
X123071428Y-85176428D01*
X123071428Y-85176428D02*
X123119047Y-85081190D01*
X123119047Y-85081190D02*
X123166666Y-85033571D01*
X123166666Y-85033571D02*
X123261904Y-84985952D01*
X123261904Y-84985952D02*
X123404761Y-84985952D01*
X123404761Y-84985952D02*
X123499999Y-85033571D01*
X123499999Y-85033571D02*
X123547618Y-85081190D01*
X123547618Y-85081190D02*
X123595237Y-85176428D01*
X123595237Y-85176428D02*
X123595237Y-85462142D01*
X123595237Y-85462142D02*
X123547618Y-85557380D01*
X123547618Y-85557380D02*
X123499999Y-85605000D01*
X123499999Y-85605000D02*
X123404761Y-85652619D01*
X123404761Y-85652619D02*
X123261904Y-85652619D01*
X124023809Y-84985952D02*
X124023809Y-85652619D01*
X124023809Y-85081190D02*
X124071428Y-85033571D01*
X124071428Y-85033571D02*
X124166666Y-84985952D01*
X124166666Y-84985952D02*
X124309523Y-84985952D01*
X124309523Y-84985952D02*
X124404761Y-85033571D01*
X124404761Y-85033571D02*
X124452380Y-85128809D01*
X124452380Y-85128809D02*
X124452380Y-85652619D01*
X124928571Y-84985952D02*
X124928571Y-85652619D01*
X124928571Y-85081190D02*
X124976190Y-85033571D01*
X124976190Y-85033571D02*
X125071428Y-84985952D01*
X125071428Y-84985952D02*
X125214285Y-84985952D01*
X125214285Y-84985952D02*
X125309523Y-85033571D01*
X125309523Y-85033571D02*
X125357142Y-85128809D01*
X125357142Y-85128809D02*
X125357142Y-85652619D01*
X126214285Y-85605000D02*
X126119047Y-85652619D01*
X126119047Y-85652619D02*
X125928571Y-85652619D01*
X125928571Y-85652619D02*
X125833333Y-85605000D01*
X125833333Y-85605000D02*
X125785714Y-85509761D01*
X125785714Y-85509761D02*
X125785714Y-85128809D01*
X125785714Y-85128809D02*
X125833333Y-85033571D01*
X125833333Y-85033571D02*
X125928571Y-84985952D01*
X125928571Y-84985952D02*
X126119047Y-84985952D01*
X126119047Y-84985952D02*
X126214285Y-85033571D01*
X126214285Y-85033571D02*
X126261904Y-85128809D01*
X126261904Y-85128809D02*
X126261904Y-85224047D01*
X126261904Y-85224047D02*
X125785714Y-85319285D01*
X127119047Y-85605000D02*
X127023809Y-85652619D01*
X127023809Y-85652619D02*
X126833333Y-85652619D01*
X126833333Y-85652619D02*
X126738095Y-85605000D01*
X126738095Y-85605000D02*
X126690476Y-85557380D01*
X126690476Y-85557380D02*
X126642857Y-85462142D01*
X126642857Y-85462142D02*
X126642857Y-85176428D01*
X126642857Y-85176428D02*
X126690476Y-85081190D01*
X126690476Y-85081190D02*
X126738095Y-85033571D01*
X126738095Y-85033571D02*
X126833333Y-84985952D01*
X126833333Y-84985952D02*
X127023809Y-84985952D01*
X127023809Y-84985952D02*
X127119047Y-85033571D01*
X127404762Y-84985952D02*
X127785714Y-84985952D01*
X127547619Y-84652619D02*
X127547619Y-85509761D01*
X127547619Y-85509761D02*
X127595238Y-85605000D01*
X127595238Y-85605000D02*
X127690476Y-85652619D01*
X127690476Y-85652619D02*
X127785714Y-85652619D01*
X128738096Y-84985952D02*
X129119048Y-84985952D01*
X128880953Y-84652619D02*
X128880953Y-85509761D01*
X128880953Y-85509761D02*
X128928572Y-85605000D01*
X128928572Y-85605000D02*
X129023810Y-85652619D01*
X129023810Y-85652619D02*
X129119048Y-85652619D01*
X129595239Y-85652619D02*
X129500001Y-85605000D01*
X129500001Y-85605000D02*
X129452382Y-85557380D01*
X129452382Y-85557380D02*
X129404763Y-85462142D01*
X129404763Y-85462142D02*
X129404763Y-85176428D01*
X129404763Y-85176428D02*
X129452382Y-85081190D01*
X129452382Y-85081190D02*
X129500001Y-85033571D01*
X129500001Y-85033571D02*
X129595239Y-84985952D01*
X129595239Y-84985952D02*
X129738096Y-84985952D01*
X129738096Y-84985952D02*
X129833334Y-85033571D01*
X129833334Y-85033571D02*
X129880953Y-85081190D01*
X129880953Y-85081190D02*
X129928572Y-85176428D01*
X129928572Y-85176428D02*
X129928572Y-85462142D01*
X129928572Y-85462142D02*
X129880953Y-85557380D01*
X129880953Y-85557380D02*
X129833334Y-85605000D01*
X129833334Y-85605000D02*
X129738096Y-85652619D01*
X129738096Y-85652619D02*
X129595239Y-85652619D01*
X122380952Y-86748809D02*
X122714285Y-86748809D01*
X122857142Y-87272619D02*
X122380952Y-87272619D01*
X122380952Y-87272619D02*
X122380952Y-86272619D01*
X122380952Y-86272619D02*
X122857142Y-86272619D01*
X123714285Y-87272619D02*
X123714285Y-86748809D01*
X123714285Y-86748809D02*
X123666666Y-86653571D01*
X123666666Y-86653571D02*
X123571428Y-86605952D01*
X123571428Y-86605952D02*
X123380952Y-86605952D01*
X123380952Y-86605952D02*
X123285714Y-86653571D01*
X123714285Y-87225000D02*
X123619047Y-87272619D01*
X123619047Y-87272619D02*
X123380952Y-87272619D01*
X123380952Y-87272619D02*
X123285714Y-87225000D01*
X123285714Y-87225000D02*
X123238095Y-87129761D01*
X123238095Y-87129761D02*
X123238095Y-87034523D01*
X123238095Y-87034523D02*
X123285714Y-86939285D01*
X123285714Y-86939285D02*
X123380952Y-86891666D01*
X123380952Y-86891666D02*
X123619047Y-86891666D01*
X123619047Y-86891666D02*
X123714285Y-86844047D01*
X124190476Y-87272619D02*
X124190476Y-86605952D01*
X124190476Y-86796428D02*
X124238095Y-86701190D01*
X124238095Y-86701190D02*
X124285714Y-86653571D01*
X124285714Y-86653571D02*
X124380952Y-86605952D01*
X124380952Y-86605952D02*
X124476190Y-86605952D01*
X124666667Y-86605952D02*
X125047619Y-86605952D01*
X124809524Y-86272619D02*
X124809524Y-87129761D01*
X124809524Y-87129761D02*
X124857143Y-87225000D01*
X124857143Y-87225000D02*
X124952381Y-87272619D01*
X124952381Y-87272619D02*
X125047619Y-87272619D01*
X125380953Y-87272619D02*
X125380953Y-86272619D01*
X125809524Y-87272619D02*
X125809524Y-86748809D01*
X125809524Y-86748809D02*
X125761905Y-86653571D01*
X125761905Y-86653571D02*
X125666667Y-86605952D01*
X125666667Y-86605952D02*
X125523810Y-86605952D01*
X125523810Y-86605952D02*
X125428572Y-86653571D01*
X125428572Y-86653571D02*
X125380953Y-86701190D01*
X127571429Y-86320238D02*
X127476191Y-86272619D01*
X127476191Y-86272619D02*
X127333334Y-86272619D01*
X127333334Y-86272619D02*
X127190477Y-86320238D01*
X127190477Y-86320238D02*
X127095239Y-86415476D01*
X127095239Y-86415476D02*
X127047620Y-86510714D01*
X127047620Y-86510714D02*
X127000001Y-86701190D01*
X127000001Y-86701190D02*
X127000001Y-86844047D01*
X127000001Y-86844047D02*
X127047620Y-87034523D01*
X127047620Y-87034523D02*
X127095239Y-87129761D01*
X127095239Y-87129761D02*
X127190477Y-87225000D01*
X127190477Y-87225000D02*
X127333334Y-87272619D01*
X127333334Y-87272619D02*
X127428572Y-87272619D01*
X127428572Y-87272619D02*
X127571429Y-87225000D01*
X127571429Y-87225000D02*
X127619048Y-87177380D01*
X127619048Y-87177380D02*
X127619048Y-86844047D01*
X127619048Y-86844047D02*
X127428572Y-86844047D01*
X128047620Y-87272619D02*
X128047620Y-86272619D01*
X128047620Y-86272619D02*
X128619048Y-87272619D01*
X128619048Y-87272619D02*
X128619048Y-86272619D01*
X129095239Y-87272619D02*
X129095239Y-86272619D01*
X129095239Y-86272619D02*
X129333334Y-86272619D01*
X129333334Y-86272619D02*
X129476191Y-86320238D01*
X129476191Y-86320238D02*
X129571429Y-86415476D01*
X129571429Y-86415476D02*
X129619048Y-86510714D01*
X129619048Y-86510714D02*
X129666667Y-86701190D01*
X129666667Y-86701190D02*
X129666667Y-86844047D01*
X129666667Y-86844047D02*
X129619048Y-87034523D01*
X129619048Y-87034523D02*
X129571429Y-87129761D01*
X129571429Y-87129761D02*
X129476191Y-87225000D01*
X129476191Y-87225000D02*
X129333334Y-87272619D01*
X129333334Y-87272619D02*
X129095239Y-87272619D01*
D12*
X89964285Y-78632857D02*
X89964285Y-75632857D01*
X89964285Y-75632857D02*
X91107142Y-75632857D01*
X91107142Y-75632857D02*
X91392857Y-75775714D01*
X91392857Y-75775714D02*
X91535714Y-75918571D01*
X91535714Y-75918571D02*
X91678571Y-76204285D01*
X91678571Y-76204285D02*
X91678571Y-76632857D01*
X91678571Y-76632857D02*
X91535714Y-76918571D01*
X91535714Y-76918571D02*
X91392857Y-77061428D01*
X91392857Y-77061428D02*
X91107142Y-77204285D01*
X91107142Y-77204285D02*
X89964285Y-77204285D01*
X92964285Y-78632857D02*
X92964285Y-76632857D01*
X92964285Y-75632857D02*
X92821428Y-75775714D01*
X92821428Y-75775714D02*
X92964285Y-75918571D01*
X92964285Y-75918571D02*
X93107142Y-75775714D01*
X93107142Y-75775714D02*
X92964285Y-75632857D01*
X92964285Y-75632857D02*
X92964285Y-75918571D01*
X95678571Y-78490000D02*
X95392856Y-78632857D01*
X95392856Y-78632857D02*
X94821428Y-78632857D01*
X94821428Y-78632857D02*
X94535713Y-78490000D01*
X94535713Y-78490000D02*
X94392856Y-78347142D01*
X94392856Y-78347142D02*
X94249999Y-78061428D01*
X94249999Y-78061428D02*
X94249999Y-77204285D01*
X94249999Y-77204285D02*
X94392856Y-76918571D01*
X94392856Y-76918571D02*
X94535713Y-76775714D01*
X94535713Y-76775714D02*
X94821428Y-76632857D01*
X94821428Y-76632857D02*
X95392856Y-76632857D01*
X95392856Y-76632857D02*
X95678571Y-76775714D01*
X97392857Y-78632857D02*
X97107142Y-78490000D01*
X97107142Y-78490000D02*
X96964285Y-78347142D01*
X96964285Y-78347142D02*
X96821428Y-78061428D01*
X96821428Y-78061428D02*
X96821428Y-77204285D01*
X96821428Y-77204285D02*
X96964285Y-76918571D01*
X96964285Y-76918571D02*
X97107142Y-76775714D01*
X97107142Y-76775714D02*
X97392857Y-76632857D01*
X97392857Y-76632857D02*
X97821428Y-76632857D01*
X97821428Y-76632857D02*
X98107142Y-76775714D01*
X98107142Y-76775714D02*
X98250000Y-76918571D01*
X98250000Y-76918571D02*
X98392857Y-77204285D01*
X98392857Y-77204285D02*
X98392857Y-78061428D01*
X98392857Y-78061428D02*
X98250000Y-78347142D01*
X98250000Y-78347142D02*
X98107142Y-78490000D01*
X98107142Y-78490000D02*
X97821428Y-78632857D01*
X97821428Y-78632857D02*
X97392857Y-78632857D01*
X101964285Y-78632857D02*
X101964285Y-75632857D01*
X101964285Y-77061428D02*
X103678571Y-77061428D01*
X103678571Y-78632857D02*
X103678571Y-75632857D01*
X106392857Y-76632857D02*
X106392857Y-78632857D01*
X105107142Y-76632857D02*
X105107142Y-78204285D01*
X105107142Y-78204285D02*
X105249999Y-78490000D01*
X105249999Y-78490000D02*
X105535714Y-78632857D01*
X105535714Y-78632857D02*
X105964285Y-78632857D01*
X105964285Y-78632857D02*
X106249999Y-78490000D01*
X106249999Y-78490000D02*
X106392857Y-78347142D01*
X107821428Y-78632857D02*
X107821428Y-75632857D01*
X107821428Y-76775714D02*
X108107143Y-76632857D01*
X108107143Y-76632857D02*
X108678571Y-76632857D01*
X108678571Y-76632857D02*
X108964285Y-76775714D01*
X108964285Y-76775714D02*
X109107143Y-76918571D01*
X109107143Y-76918571D02*
X109250000Y-77204285D01*
X109250000Y-77204285D02*
X109250000Y-78061428D01*
X109250000Y-78061428D02*
X109107143Y-78347142D01*
X109107143Y-78347142D02*
X108964285Y-78490000D01*
X108964285Y-78490000D02*
X108678571Y-78632857D01*
X108678571Y-78632857D02*
X108107143Y-78632857D01*
X108107143Y-78632857D02*
X107821428Y-78490000D01*
X112392857Y-75632857D02*
X113392857Y-78632857D01*
X113392857Y-78632857D02*
X114392857Y-75632857D01*
X116964286Y-78632857D02*
X115250000Y-78632857D01*
X116107143Y-78632857D02*
X116107143Y-75632857D01*
X116107143Y-75632857D02*
X115821429Y-76061428D01*
X115821429Y-76061428D02*
X115535714Y-76347142D01*
X115535714Y-76347142D02*
X115250000Y-76490000D01*
D11*
%TO.C,J1*%
X36536666Y-116852619D02*
X36536666Y-117566904D01*
X36536666Y-117566904D02*
X36489047Y-117709761D01*
X36489047Y-117709761D02*
X36393809Y-117805000D01*
X36393809Y-117805000D02*
X36250952Y-117852619D01*
X36250952Y-117852619D02*
X36155714Y-117852619D01*
X37536666Y-117852619D02*
X36965238Y-117852619D01*
X37250952Y-117852619D02*
X37250952Y-116852619D01*
X37250952Y-116852619D02*
X37155714Y-116995476D01*
X37155714Y-116995476D02*
X37060476Y-117090714D01*
X37060476Y-117090714D02*
X36965238Y-117138333D01*
%TO.C,U1*%
X53592619Y-85371904D02*
X54402142Y-85371904D01*
X54402142Y-85371904D02*
X54497380Y-85324285D01*
X54497380Y-85324285D02*
X54545000Y-85276666D01*
X54545000Y-85276666D02*
X54592619Y-85181428D01*
X54592619Y-85181428D02*
X54592619Y-84990952D01*
X54592619Y-84990952D02*
X54545000Y-84895714D01*
X54545000Y-84895714D02*
X54497380Y-84848095D01*
X54497380Y-84848095D02*
X54402142Y-84800476D01*
X54402142Y-84800476D02*
X53592619Y-84800476D01*
X54592619Y-83800476D02*
X54592619Y-84371904D01*
X54592619Y-84086190D02*
X53592619Y-84086190D01*
X53592619Y-84086190D02*
X53735476Y-84181428D01*
X53735476Y-84181428D02*
X53830714Y-84276666D01*
X53830714Y-84276666D02*
X53878333Y-84371904D01*
%TO.C,J7*%
X103576666Y-116852619D02*
X103576666Y-117566904D01*
X103576666Y-117566904D02*
X103529047Y-117709761D01*
X103529047Y-117709761D02*
X103433809Y-117805000D01*
X103433809Y-117805000D02*
X103290952Y-117852619D01*
X103290952Y-117852619D02*
X103195714Y-117852619D01*
X103957619Y-116852619D02*
X104624285Y-116852619D01*
X104624285Y-116852619D02*
X104195714Y-117852619D01*
%TO.C,J6*%
X120336666Y-116852619D02*
X120336666Y-117566904D01*
X120336666Y-117566904D02*
X120289047Y-117709761D01*
X120289047Y-117709761D02*
X120193809Y-117805000D01*
X120193809Y-117805000D02*
X120050952Y-117852619D01*
X120050952Y-117852619D02*
X119955714Y-117852619D01*
X121241428Y-116852619D02*
X121050952Y-116852619D01*
X121050952Y-116852619D02*
X120955714Y-116900238D01*
X120955714Y-116900238D02*
X120908095Y-116947857D01*
X120908095Y-116947857D02*
X120812857Y-117090714D01*
X120812857Y-117090714D02*
X120765238Y-117281190D01*
X120765238Y-117281190D02*
X120765238Y-117662142D01*
X120765238Y-117662142D02*
X120812857Y-117757380D01*
X120812857Y-117757380D02*
X120860476Y-117805000D01*
X120860476Y-117805000D02*
X120955714Y-117852619D01*
X120955714Y-117852619D02*
X121146190Y-117852619D01*
X121146190Y-117852619D02*
X121241428Y-117805000D01*
X121241428Y-117805000D02*
X121289047Y-117757380D01*
X121289047Y-117757380D02*
X121336666Y-117662142D01*
X121336666Y-117662142D02*
X121336666Y-117424047D01*
X121336666Y-117424047D02*
X121289047Y-117328809D01*
X121289047Y-117328809D02*
X121241428Y-117281190D01*
X121241428Y-117281190D02*
X121146190Y-117233571D01*
X121146190Y-117233571D02*
X120955714Y-117233571D01*
X120955714Y-117233571D02*
X120860476Y-117281190D01*
X120860476Y-117281190D02*
X120812857Y-117328809D01*
X120812857Y-117328809D02*
X120765238Y-117424047D01*
%TO.C,J5*%
X70056666Y-116852619D02*
X70056666Y-117566904D01*
X70056666Y-117566904D02*
X70009047Y-117709761D01*
X70009047Y-117709761D02*
X69913809Y-117805000D01*
X69913809Y-117805000D02*
X69770952Y-117852619D01*
X69770952Y-117852619D02*
X69675714Y-117852619D01*
X71009047Y-116852619D02*
X70532857Y-116852619D01*
X70532857Y-116852619D02*
X70485238Y-117328809D01*
X70485238Y-117328809D02*
X70532857Y-117281190D01*
X70532857Y-117281190D02*
X70628095Y-117233571D01*
X70628095Y-117233571D02*
X70866190Y-117233571D01*
X70866190Y-117233571D02*
X70961428Y-117281190D01*
X70961428Y-117281190D02*
X71009047Y-117328809D01*
X71009047Y-117328809D02*
X71056666Y-117424047D01*
X71056666Y-117424047D02*
X71056666Y-117662142D01*
X71056666Y-117662142D02*
X71009047Y-117757380D01*
X71009047Y-117757380D02*
X70961428Y-117805000D01*
X70961428Y-117805000D02*
X70866190Y-117852619D01*
X70866190Y-117852619D02*
X70628095Y-117852619D01*
X70628095Y-117852619D02*
X70532857Y-117805000D01*
X70532857Y-117805000D02*
X70485238Y-117757380D01*
%TO.C,J4*%
X86816666Y-116852619D02*
X86816666Y-117566904D01*
X86816666Y-117566904D02*
X86769047Y-117709761D01*
X86769047Y-117709761D02*
X86673809Y-117805000D01*
X86673809Y-117805000D02*
X86530952Y-117852619D01*
X86530952Y-117852619D02*
X86435714Y-117852619D01*
X87721428Y-117185952D02*
X87721428Y-117852619D01*
X87483333Y-116805000D02*
X87245238Y-117519285D01*
X87245238Y-117519285D02*
X87864285Y-117519285D01*
%TO.C,J3*%
X53296666Y-116852619D02*
X53296666Y-117566904D01*
X53296666Y-117566904D02*
X53249047Y-117709761D01*
X53249047Y-117709761D02*
X53153809Y-117805000D01*
X53153809Y-117805000D02*
X53010952Y-117852619D01*
X53010952Y-117852619D02*
X52915714Y-117852619D01*
X53677619Y-116852619D02*
X54296666Y-116852619D01*
X54296666Y-116852619D02*
X53963333Y-117233571D01*
X53963333Y-117233571D02*
X54106190Y-117233571D01*
X54106190Y-117233571D02*
X54201428Y-117281190D01*
X54201428Y-117281190D02*
X54249047Y-117328809D01*
X54249047Y-117328809D02*
X54296666Y-117424047D01*
X54296666Y-117424047D02*
X54296666Y-117662142D01*
X54296666Y-117662142D02*
X54249047Y-117757380D01*
X54249047Y-117757380D02*
X54201428Y-117805000D01*
X54201428Y-117805000D02*
X54106190Y-117852619D01*
X54106190Y-117852619D02*
X53820476Y-117852619D01*
X53820476Y-117852619D02*
X53725238Y-117805000D01*
X53725238Y-117805000D02*
X53677619Y-117757380D01*
%TO.C,J2*%
X36712619Y-82333333D02*
X37426904Y-82333333D01*
X37426904Y-82333333D02*
X37569761Y-82380952D01*
X37569761Y-82380952D02*
X37665000Y-82476190D01*
X37665000Y-82476190D02*
X37712619Y-82619047D01*
X37712619Y-82619047D02*
X37712619Y-82714285D01*
X36807857Y-81904761D02*
X36760238Y-81857142D01*
X36760238Y-81857142D02*
X36712619Y-81761904D01*
X36712619Y-81761904D02*
X36712619Y-81523809D01*
X36712619Y-81523809D02*
X36760238Y-81428571D01*
X36760238Y-81428571D02*
X36807857Y-81380952D01*
X36807857Y-81380952D02*
X36903095Y-81333333D01*
X36903095Y-81333333D02*
X36998333Y-81333333D01*
X36998333Y-81333333D02*
X37141190Y-81380952D01*
X37141190Y-81380952D02*
X37712619Y-81952380D01*
X37712619Y-81952380D02*
X37712619Y-81333333D01*
D13*
%TO.C,J1*%
X45235000Y-100030000D02*
X28505000Y-100030000D01*
X45235000Y-116000000D02*
X28505000Y-116000000D01*
X28505000Y-116000000D02*
X28505000Y-108390000D01*
X45930000Y-109090000D02*
X45430000Y-108590000D01*
X45430000Y-108590000D02*
X45930000Y-108090000D01*
X45235000Y-100030000D02*
X45235000Y-105590000D01*
X45930000Y-108090000D02*
X45930000Y-109090000D01*
X28505000Y-100030000D02*
X28505000Y-105590000D01*
X45235000Y-116000000D02*
X45235000Y-108390000D01*
%TO.C,U1*%
X28630000Y-95110000D02*
X28930000Y-95110000D01*
X28630000Y-95110000D02*
X28630000Y-74110000D01*
X31030000Y-95110000D02*
X31430000Y-95110000D01*
X31297000Y-95110000D02*
X31297000Y-92103000D01*
X33630000Y-95110000D02*
X34030000Y-95110000D01*
X36130000Y-95110000D02*
X36530000Y-95110000D01*
X38730000Y-95110000D02*
X39130000Y-95110000D01*
X41230000Y-95110000D02*
X41630000Y-95110000D01*
X43730000Y-95110000D02*
X44130000Y-95110000D01*
X46330000Y-95110000D02*
X46730000Y-95110000D01*
X48830000Y-95110000D02*
X49230000Y-95110000D01*
X51430000Y-95110000D02*
X51830000Y-95110000D01*
X53930000Y-95110000D02*
X54330000Y-95110000D01*
X56430000Y-95110000D02*
X56830000Y-95110000D01*
X59030000Y-95110000D02*
X59430000Y-95110000D01*
X61530000Y-95110000D02*
X61930000Y-95110000D01*
X64130000Y-95110000D02*
X64530000Y-95110000D01*
X66630000Y-95110000D02*
X67030000Y-95110000D01*
X69230000Y-95110000D02*
X69630000Y-95110000D01*
X71730000Y-95110000D02*
X72130000Y-95110000D01*
X74230000Y-95110000D02*
X74630000Y-95110000D01*
X76830000Y-95110000D02*
X77230000Y-95110000D01*
X31297000Y-92103000D02*
X28630000Y-92103000D01*
X79630000Y-88310000D02*
X79630000Y-95110000D01*
X79630000Y-86110000D02*
X79630000Y-85710000D01*
X79630000Y-83510000D02*
X79630000Y-83110000D01*
X28630000Y-74110000D02*
X28930000Y-74110000D01*
X31030000Y-74110000D02*
X31430000Y-74110000D01*
X33630000Y-74110000D02*
X34030000Y-74110000D01*
X36130000Y-74110000D02*
X36530000Y-74110000D01*
X38730000Y-74110000D02*
X39130000Y-74110000D01*
X41230000Y-74110000D02*
X41630000Y-74110000D01*
X43730000Y-74110000D02*
X44130000Y-74110000D01*
X46330000Y-74110000D02*
X46730000Y-74110000D01*
X48830000Y-74110000D02*
X49230000Y-74110000D01*
X51430000Y-74110000D02*
X51830000Y-74110000D01*
X53930000Y-74110000D02*
X54330000Y-74110000D01*
X56430000Y-74110000D02*
X56830000Y-74110000D01*
X59030000Y-74110000D02*
X59430000Y-74110000D01*
X61530000Y-74110000D02*
X61930000Y-74110000D01*
X64130000Y-74110000D02*
X64530000Y-74110000D01*
X66630000Y-74110000D02*
X67030000Y-74110000D01*
X69230000Y-74110000D02*
X69630000Y-74110000D01*
X71730000Y-74110000D02*
X72130000Y-74110000D01*
X74230000Y-74110000D02*
X74630000Y-74110000D01*
X76830000Y-74110000D02*
X77230000Y-74110000D01*
X79630000Y-74110000D02*
X79630000Y-80910000D01*
%TO.C,J7*%
X112275000Y-100030000D02*
X95545000Y-100030000D01*
X112275000Y-116000000D02*
X95545000Y-116000000D01*
X95545000Y-116000000D02*
X95545000Y-108390000D01*
X112970000Y-109090000D02*
X112470000Y-108590000D01*
X112470000Y-108590000D02*
X112970000Y-108090000D01*
X112275000Y-100030000D02*
X112275000Y-105590000D01*
X112970000Y-108090000D02*
X112970000Y-109090000D01*
X95545000Y-100030000D02*
X95545000Y-105590000D01*
X112275000Y-116000000D02*
X112275000Y-108390000D01*
%TO.C,J6*%
X129035000Y-116000000D02*
X129035000Y-108390000D01*
X112305000Y-100030000D02*
X112305000Y-105590000D01*
X129730000Y-108090000D02*
X129730000Y-109090000D01*
X129035000Y-100030000D02*
X129035000Y-105590000D01*
X129230000Y-108590000D02*
X129730000Y-108090000D01*
X129730000Y-109090000D02*
X129230000Y-108590000D01*
X112305000Y-116000000D02*
X112305000Y-108390000D01*
X129035000Y-116000000D02*
X112305000Y-116000000D01*
X129035000Y-100030000D02*
X112305000Y-100030000D01*
%TO.C,J5*%
X78755000Y-116000000D02*
X78755000Y-108390000D01*
X62025000Y-100030000D02*
X62025000Y-105590000D01*
X79450000Y-108090000D02*
X79450000Y-109090000D01*
X78755000Y-100030000D02*
X78755000Y-105590000D01*
X78950000Y-108590000D02*
X79450000Y-108090000D01*
X79450000Y-109090000D02*
X78950000Y-108590000D01*
X62025000Y-116000000D02*
X62025000Y-108390000D01*
X78755000Y-116000000D02*
X62025000Y-116000000D01*
X78755000Y-100030000D02*
X62025000Y-100030000D01*
%TO.C,J4*%
X95515000Y-116000000D02*
X95515000Y-108390000D01*
X78785000Y-100030000D02*
X78785000Y-105590000D01*
X96210000Y-108090000D02*
X96210000Y-109090000D01*
X95515000Y-100030000D02*
X95515000Y-105590000D01*
X95710000Y-108590000D02*
X96210000Y-108090000D01*
X96210000Y-109090000D02*
X95710000Y-108590000D01*
X78785000Y-116000000D02*
X78785000Y-108390000D01*
X95515000Y-116000000D02*
X78785000Y-116000000D01*
X95515000Y-100030000D02*
X78785000Y-100030000D01*
%TO.C,J3*%
X61995000Y-100030000D02*
X45265000Y-100030000D01*
X61995000Y-116000000D02*
X45265000Y-116000000D01*
X45265000Y-116000000D02*
X45265000Y-108390000D01*
X62690000Y-109090000D02*
X62190000Y-108590000D01*
X62190000Y-108590000D02*
X62690000Y-108090000D01*
X61995000Y-100030000D02*
X61995000Y-105590000D01*
X62690000Y-108090000D02*
X62690000Y-109090000D01*
X45265000Y-100030000D02*
X45265000Y-105590000D01*
X61995000Y-116000000D02*
X61995000Y-108390000D01*
%TO.C,J2*%
X41300000Y-77100000D02*
X40000000Y-77100000D01*
X41000000Y-77400000D02*
X41000000Y-79400000D01*
X26500000Y-86600000D02*
X26500000Y-77400000D01*
X41300000Y-78800000D02*
X41300000Y-77100000D01*
X41000000Y-86600000D02*
X39700000Y-86600000D01*
X41000000Y-84600000D02*
X41000000Y-86600000D01*
X26500000Y-77400000D02*
X41000000Y-77400000D01*
X35100000Y-86600000D02*
X26500000Y-86600000D01*
%TD*%
%LPC*%
D14*
%TO.C,H1*%
X123225000Y-80000000D03*
D15*
X126000000Y-80000000D03*
D14*
X126000000Y-77225000D03*
X124037779Y-78037779D03*
X124037779Y-81962221D03*
X126000000Y-82775000D03*
X127962221Y-81962221D03*
X128775000Y-80000000D03*
X127962221Y-78037779D03*
%TD*%
D16*
%TO.C,J1*%
X30520000Y-110430000D03*
X43220000Y-110430000D03*
D17*
X40430000Y-107890000D03*
D18*
X39414000Y-106110000D03*
X38398000Y-107890000D03*
X37382000Y-106110000D03*
X36366000Y-107890000D03*
X35350000Y-106110000D03*
X34334000Y-107890000D03*
X33318000Y-106110000D03*
X43730000Y-101290000D03*
X41440000Y-101290000D03*
X32300000Y-101290000D03*
X30010000Y-101290000D03*
D19*
X28740000Y-107000000D03*
%TD*%
D20*
%TO.C,U1*%
X30000000Y-93500000D03*
X32540000Y-93500000D03*
D21*
X35080000Y-93500000D03*
D20*
X37620000Y-93500000D03*
X40160000Y-93500000D03*
X42700000Y-93500000D03*
X45240000Y-93500000D03*
D21*
X47780000Y-93500000D03*
D20*
X50320000Y-93500000D03*
X52860000Y-93500000D03*
X55400000Y-93500000D03*
X57940000Y-93500000D03*
D21*
X60480000Y-93500000D03*
D20*
X63020000Y-93500000D03*
X65560000Y-93500000D03*
X68100000Y-93500000D03*
X70640000Y-93500000D03*
D21*
X73180000Y-93500000D03*
D20*
X75720000Y-93500000D03*
X78260000Y-93500000D03*
X78260000Y-75720000D03*
X75720000Y-75720000D03*
D21*
X73180000Y-75720000D03*
D20*
X70640000Y-75720000D03*
X68100000Y-75720000D03*
X65560000Y-75720000D03*
X63020000Y-75720000D03*
D21*
X60480000Y-75720000D03*
D20*
X57940000Y-75720000D03*
X55400000Y-75720000D03*
X52860000Y-75720000D03*
X50320000Y-75720000D03*
D21*
X47780000Y-75720000D03*
D20*
X45240000Y-75720000D03*
X42700000Y-75720000D03*
X40160000Y-75720000D03*
X37620000Y-75720000D03*
D21*
X35080000Y-75720000D03*
D20*
X32540000Y-75720000D03*
X30000000Y-75720000D03*
%TD*%
D16*
%TO.C,J7*%
X97560000Y-110430000D03*
X110260000Y-110430000D03*
D17*
X107470000Y-107890000D03*
D18*
X106454000Y-106110000D03*
X105438000Y-107890000D03*
X104422000Y-106110000D03*
X103406000Y-107890000D03*
X102390000Y-106110000D03*
X101374000Y-107890000D03*
X100358000Y-106110000D03*
X110770000Y-101290000D03*
X108480000Y-101290000D03*
X99340000Y-101290000D03*
X97050000Y-101290000D03*
D19*
X95530000Y-107000000D03*
%TD*%
%TO.C,J6*%
X112290000Y-107000000D03*
X128800000Y-107000000D03*
D18*
X113810000Y-101290000D03*
X116100000Y-101290000D03*
X125240000Y-101290000D03*
X127530000Y-101290000D03*
X117118000Y-106110000D03*
X118134000Y-107890000D03*
X119150000Y-106110000D03*
X120166000Y-107890000D03*
X121182000Y-106110000D03*
X122198000Y-107890000D03*
X123214000Y-106110000D03*
D17*
X124230000Y-107890000D03*
D16*
X127020000Y-110430000D03*
X114320000Y-110430000D03*
%TD*%
D19*
%TO.C,J5*%
X62010000Y-107000000D03*
D18*
X63530000Y-101290000D03*
X65820000Y-101290000D03*
X74960000Y-101290000D03*
X77250000Y-101290000D03*
X66838000Y-106110000D03*
X67854000Y-107890000D03*
X68870000Y-106110000D03*
X69886000Y-107890000D03*
X70902000Y-106110000D03*
X71918000Y-107890000D03*
X72934000Y-106110000D03*
D17*
X73950000Y-107890000D03*
D16*
X76740000Y-110430000D03*
X64040000Y-110430000D03*
%TD*%
D19*
%TO.C,J4*%
X78770000Y-107000000D03*
D18*
X80290000Y-101290000D03*
X82580000Y-101290000D03*
X91720000Y-101290000D03*
X94010000Y-101290000D03*
X83598000Y-106110000D03*
X84614000Y-107890000D03*
X85630000Y-106110000D03*
X86646000Y-107890000D03*
X87662000Y-106110000D03*
X88678000Y-107890000D03*
X89694000Y-106110000D03*
D17*
X90710000Y-107890000D03*
D16*
X93500000Y-110430000D03*
X80800000Y-110430000D03*
%TD*%
%TO.C,J3*%
X47280000Y-110430000D03*
X59980000Y-110430000D03*
D17*
X57190000Y-107890000D03*
D18*
X56174000Y-106110000D03*
X55158000Y-107890000D03*
X54142000Y-106110000D03*
X53126000Y-107890000D03*
X52110000Y-106110000D03*
X51094000Y-107890000D03*
X50078000Y-106110000D03*
X60490000Y-101290000D03*
X58200000Y-101290000D03*
X49060000Y-101290000D03*
X46770000Y-101290000D03*
D19*
X45250000Y-107000000D03*
%TD*%
D22*
%TO.C,J2*%
X37400000Y-86800000D03*
D23*
X34000000Y-82000000D03*
D24*
X40300000Y-82000000D03*
%TD*%
M02*
