M48
; DRILL file {KiCad 7.0.1} date Tue Nov 21 14:20:01 2023
; FORMAT={-:-/ absolute / metric / decimal}
; #@! TF.CreationDate,2023-11-21T14:20:01-06:00
; #@! TF.GenerationSoftware,Kicad,Pcbnew,7.0.1
; #@! TF.FileFunction,Plated,1,2,PTH
FMAT,2
METRIC
; #@! TA.AperFunction,Plated,PTH,ViaDrill
T1C0.400
; #@! TA.AperFunction,Plated,PTH,ComponentDrill
T2C0.500
; #@! TA.AperFunction,Plated,PTH,ComponentDrill
T3C0.890
; #@! TA.AperFunction,Plated,PTH,ComponentDrill
T4C1.000
; #@! TA.AperFunction,Plated,PTH,ComponentDrill
T5C1.020
; #@! TA.AperFunction,Plated,PTH,ComponentDrill
T6C1.570
; #@! TA.AperFunction,Plated,PTH,ComponentDrill
T7C3.700
%
G90
G05
T1
X30.0Y-103.5
X33.1Y-110.0
X34.539Y-102.67
X40.5Y-110.062
X43.849Y-99.733
X44.843Y-99.84
X46.458Y-95.501
X47.0Y-105.25
X48.5Y-98.75
X50.1Y-111.0
X51.0Y-102.81
X51.25Y-99.0
X59.0Y-107.5
X61.75Y-91.475
X62.181Y-95.425
X63.0Y-104.25
X63.5Y-97.0
X67.0Y-111.125
X68.025Y-102.81
X75.5Y-107.5
X77.25Y-105.0
X78.134Y-99.661
X79.95Y-98.8
X80.0Y-103.0
X83.95Y-110.625
X84.5Y-99.0
X84.55Y-100.27
X84.55Y-102.81
X90.36Y-97.64
X92.5Y-105.5
X96.925Y-103.75
X100.05Y-110.5
X101.5Y-102.81
X101.75Y-99.0
X109.5Y-105.5
X111.619Y-99.961
X113.25Y-104.25
X113.4Y-98.8
X114.081Y-99.617
X117.0Y-110.5
X118.05Y-102.81
X120.6Y-87.0
X126.0Y-105.5
T2
X123.225Y-80.0
X124.038Y-78.038
X124.038Y-81.962
X126.0Y-77.225
X126.0Y-82.775
X127.962Y-78.038
X127.962Y-81.962
X128.775Y-80.0
T3
X30.01Y-101.29
X32.3Y-101.29
X33.318Y-106.11
X34.334Y-107.89
X35.35Y-106.11
X36.366Y-107.89
X37.382Y-106.11
X38.398Y-107.89
X39.414Y-106.11
X40.43Y-107.89
X41.44Y-101.29
X43.73Y-101.29
X46.77Y-101.29
X49.06Y-101.29
X50.078Y-106.11
X51.094Y-107.89
X52.11Y-106.11
X53.126Y-107.89
X54.142Y-106.11
X55.158Y-107.89
X56.174Y-106.11
X57.19Y-107.89
X58.2Y-101.29
X60.49Y-101.29
X63.53Y-101.29
X65.82Y-101.29
X66.838Y-106.11
X67.854Y-107.89
X68.87Y-106.11
X69.886Y-107.89
X70.902Y-106.11
X71.918Y-107.89
X72.934Y-106.11
X73.95Y-107.89
X74.96Y-101.29
X77.25Y-101.29
X80.29Y-101.29
X82.58Y-101.29
X83.598Y-106.11
X84.614Y-107.89
X85.63Y-106.11
X86.646Y-107.89
X87.662Y-106.11
X88.678Y-107.89
X89.694Y-106.11
X90.71Y-107.89
X91.72Y-101.29
X94.01Y-101.29
X97.05Y-101.29
X99.34Y-101.29
X100.358Y-106.11
X101.374Y-107.89
X102.39Y-106.11
X103.406Y-107.89
X104.422Y-106.11
X105.438Y-107.89
X106.454Y-106.11
X107.47Y-107.89
X108.48Y-101.29
X110.77Y-101.29
X113.81Y-101.29
X116.1Y-101.29
X117.118Y-106.11
X118.134Y-107.89
X119.15Y-106.11
X120.166Y-107.89
X121.182Y-106.11
X122.198Y-107.89
X123.214Y-106.11
X124.23Y-107.89
X125.24Y-101.29
X127.53Y-101.29
T5
X30.0Y-75.72
X30.0Y-93.5
X32.54Y-75.72
X32.54Y-93.5
X35.08Y-75.72
X35.08Y-93.5
X37.62Y-75.72
X37.62Y-93.5
X40.16Y-75.72
X40.16Y-93.5
X42.7Y-75.72
X42.7Y-93.5
X45.24Y-75.72
X45.24Y-93.5
X47.78Y-75.72
X47.78Y-93.5
X50.32Y-75.72
X50.32Y-93.5
X52.86Y-75.72
X52.86Y-93.5
X55.4Y-75.72
X55.4Y-93.5
X57.94Y-75.72
X57.94Y-93.5
X60.48Y-75.72
X60.48Y-93.5
X63.02Y-75.72
X63.02Y-93.5
X65.56Y-75.72
X65.56Y-93.5
X68.1Y-75.72
X68.1Y-93.5
X70.64Y-75.72
X70.64Y-93.5
X73.18Y-75.72
X73.18Y-93.5
X75.72Y-75.72
X75.72Y-93.5
X78.26Y-75.72
X78.26Y-93.5
T6
X28.74Y-107.0
X45.25Y-107.0
X62.01Y-107.0
X78.77Y-107.0
X95.53Y-107.0
X112.29Y-107.0
X128.8Y-107.0
T7
X126.0Y-80.0
T4
X34.0Y-80.9G85X34.0Y-83.1
G05
X38.5Y-86.8G85X36.3Y-86.8
G05
X40.3Y-80.7G85X40.3Y-83.3
G05
T0
M30
