%TF.GenerationSoftware,KiCad,Pcbnew,7.0.1*%
%TF.CreationDate,2023-11-21T14:19:22-06:00*%
%TF.ProjectId,Pico Hub V1,5069636f-2048-4756-9220-56312e6b6963,rev?*%
%TF.SameCoordinates,Original*%
%TF.FileFunction,Paste,Bot*%
%TF.FilePolarity,Positive*%
%FSLAX46Y46*%
G04 Gerber Fmt 4.6, Leading zero omitted, Abs format (unit mm)*
G04 Created by KiCad (PCBNEW 7.0.1) date 2023-11-21 14:19:22*
%MOMM*%
%LPD*%
G01*
G04 APERTURE LIST*
G04 Aperture macros list*
%AMRoundRect*
0 Rectangle with rounded corners*
0 $1 Rounding radius*
0 $2 $3 $4 $5 $6 $7 $8 $9 X,Y pos of 4 corners*
0 Add a 4 corners polygon primitive as box body*
4,1,4,$2,$3,$4,$5,$6,$7,$8,$9,$2,$3,0*
0 Add four circle primitives for the rounded corners*
1,1,$1+$1,$2,$3*
1,1,$1+$1,$4,$5*
1,1,$1+$1,$6,$7*
1,1,$1+$1,$8,$9*
0 Add four rect primitives between the rounded corners*
20,1,$1+$1,$2,$3,$4,$5,0*
20,1,$1+$1,$4,$5,$6,$7,0*
20,1,$1+$1,$6,$7,$8,$9,0*
20,1,$1+$1,$8,$9,$2,$3,0*%
G04 Aperture macros list end*
%ADD10R,0.500000X0.800000*%
%ADD11R,0.400000X0.800000*%
%ADD12RoundRect,0.150000X-0.825000X-0.150000X0.825000X-0.150000X0.825000X0.150000X-0.825000X0.150000X0*%
%ADD13RoundRect,0.250000X-0.450000X0.350000X-0.450000X-0.350000X0.450000X-0.350000X0.450000X0.350000X0*%
%ADD14RoundRect,0.150000X-0.150000X0.587500X-0.150000X-0.587500X0.150000X-0.587500X0.150000X0.587500X0*%
%ADD15RoundRect,0.250000X-0.300000X-0.300000X0.300000X-0.300000X0.300000X0.300000X-0.300000X0.300000X0*%
%ADD16RoundRect,0.250000X-0.337500X-0.475000X0.337500X-0.475000X0.337500X0.475000X-0.337500X0.475000X0*%
G04 APERTURE END LIST*
D10*
%TO.C,RN1*%
X77500000Y-97000000D03*
D11*
X78300000Y-97000000D03*
X79100000Y-97000000D03*
D10*
X79900000Y-97000000D03*
X79900000Y-98800000D03*
D11*
X79100000Y-98800000D03*
X78300000Y-98800000D03*
D10*
X77500000Y-98800000D03*
%TD*%
D12*
%TO.C,U5*%
X72975000Y-102810000D03*
X72975000Y-101540000D03*
X72975000Y-100270000D03*
X72975000Y-99000000D03*
X68025000Y-99000000D03*
X68025000Y-100270000D03*
X68025000Y-101540000D03*
X68025000Y-102810000D03*
%TD*%
D10*
%TO.C,RN2*%
X111000000Y-97000000D03*
D11*
X111800000Y-97000000D03*
X112600000Y-97000000D03*
D10*
X113400000Y-97000000D03*
X113400000Y-98800000D03*
D11*
X112600000Y-98800000D03*
X111800000Y-98800000D03*
D10*
X111000000Y-98800000D03*
%TD*%
%TO.C,RN4*%
X43100000Y-99000000D03*
D11*
X43900000Y-99000000D03*
X44700000Y-99000000D03*
D10*
X45500000Y-99000000D03*
X45500000Y-97200000D03*
D11*
X44700000Y-97200000D03*
X43900000Y-97200000D03*
D10*
X43100000Y-97200000D03*
%TD*%
D12*
%TO.C,U7*%
X106450000Y-102810000D03*
X106450000Y-101540000D03*
X106450000Y-100270000D03*
X106450000Y-99000000D03*
X101500000Y-99000000D03*
X101500000Y-100270000D03*
X101500000Y-101540000D03*
X101500000Y-102810000D03*
%TD*%
%TO.C,U6*%
X118050000Y-102810000D03*
X118050000Y-101540000D03*
X118050000Y-100270000D03*
X118050000Y-99000000D03*
X123000000Y-99000000D03*
X123000000Y-100270000D03*
X123000000Y-101540000D03*
X123000000Y-102810000D03*
%TD*%
%TO.C,U4*%
X89500000Y-102810000D03*
X89500000Y-101540000D03*
X89500000Y-100270000D03*
X89500000Y-99000000D03*
X84550000Y-99000000D03*
X84550000Y-100270000D03*
X84550000Y-101540000D03*
X84550000Y-102810000D03*
%TD*%
%TO.C,U3*%
X55950000Y-102810000D03*
X55950000Y-101540000D03*
X55950000Y-100270000D03*
X55950000Y-99000000D03*
X51000000Y-99000000D03*
X51000000Y-100270000D03*
X51000000Y-101540000D03*
X51000000Y-102810000D03*
%TD*%
%TO.C,U2*%
X39475000Y-102770000D03*
X39475000Y-101500000D03*
X39475000Y-100230000D03*
X39475000Y-98960000D03*
X34525000Y-98960000D03*
X34525000Y-100230000D03*
X34525000Y-101500000D03*
X34525000Y-102770000D03*
%TD*%
D13*
%TO.C,R6*%
X109500000Y-103500000D03*
X109500000Y-105500000D03*
%TD*%
%TO.C,R5*%
X126000000Y-103500000D03*
X126000000Y-105500000D03*
%TD*%
%TO.C,R4*%
X75500000Y-103500000D03*
X75500000Y-105500000D03*
%TD*%
%TO.C,R3*%
X92500000Y-103500000D03*
X92500000Y-105500000D03*
%TD*%
%TO.C,R2*%
X59000000Y-105500000D03*
X59000000Y-103500000D03*
%TD*%
%TO.C,R1*%
X42000000Y-105500000D03*
X42000000Y-103500000D03*
%TD*%
D14*
%TO.C,D13*%
X100050000Y-110500000D03*
X101950000Y-110500000D03*
X101000000Y-112375000D03*
%TD*%
%TO.C,D12*%
X105600000Y-110500000D03*
X107500000Y-110500000D03*
X106550000Y-112375000D03*
%TD*%
%TO.C,D11*%
X117950000Y-112375000D03*
X118900000Y-110500000D03*
X117000000Y-110500000D03*
%TD*%
%TO.C,D10*%
X123450000Y-112375000D03*
X124400000Y-110500000D03*
X122500000Y-110500000D03*
%TD*%
%TO.C,D9*%
X67000000Y-111125000D03*
X68900000Y-111125000D03*
X67950000Y-113000000D03*
%TD*%
%TO.C,D8*%
X72100000Y-110000000D03*
X74000000Y-110000000D03*
X73050000Y-111875000D03*
%TD*%
%TO.C,D7*%
X83950000Y-110625000D03*
X85850000Y-110625000D03*
X84900000Y-112500000D03*
%TD*%
%TO.C,D6*%
X89050000Y-110625000D03*
X90950000Y-110625000D03*
X90000000Y-112500000D03*
%TD*%
%TO.C,D5*%
X51050000Y-112875000D03*
X52000000Y-111000000D03*
X50100000Y-111000000D03*
%TD*%
%TO.C,D4*%
X56550000Y-111875000D03*
X57500000Y-110000000D03*
X55600000Y-110000000D03*
%TD*%
D15*
%TO.C,D3*%
X40300000Y-78500000D03*
X37500000Y-78500000D03*
%TD*%
D14*
%TO.C,D2*%
X33100000Y-110000000D03*
X35000000Y-110000000D03*
X34050000Y-111875000D03*
%TD*%
%TO.C,D1*%
X39550000Y-111937500D03*
X40500000Y-110062500D03*
X38600000Y-110062500D03*
%TD*%
D16*
%TO.C,C6*%
X99000000Y-103750000D03*
X96925000Y-103750000D03*
%TD*%
%TO.C,C5*%
X113425000Y-104000000D03*
X115500000Y-104000000D03*
%TD*%
%TO.C,C4*%
X63000000Y-104000000D03*
X65075000Y-104000000D03*
%TD*%
%TO.C,C3*%
X80000000Y-103500000D03*
X82075000Y-103500000D03*
%TD*%
%TO.C,C2*%
X48575000Y-103500000D03*
X46500000Y-103500000D03*
%TD*%
%TO.C,C1*%
X30000000Y-103500000D03*
X32075000Y-103500000D03*
%TD*%
M02*
