%TF.GenerationSoftware,KiCad,Pcbnew,7.0.1*%
%TF.CreationDate,2023-11-21T14:19:22-06:00*%
%TF.ProjectId,Pico Hub V1,5069636f-2048-4756-9220-56312e6b6963,rev?*%
%TF.SameCoordinates,Original*%
%TF.FileFunction,Copper,L2,Bot*%
%TF.FilePolarity,Positive*%
%FSLAX46Y46*%
G04 Gerber Fmt 4.6, Leading zero omitted, Abs format (unit mm)*
G04 Created by KiCad (PCBNEW 7.0.1) date 2023-11-21 14:19:22*
%MOMM*%
%LPD*%
G01*
G04 APERTURE LIST*
G04 Aperture macros list*
%AMRoundRect*
0 Rectangle with rounded corners*
0 $1 Rounding radius*
0 $2 $3 $4 $5 $6 $7 $8 $9 X,Y pos of 4 corners*
0 Add a 4 corners polygon primitive as box body*
4,1,4,$2,$3,$4,$5,$6,$7,$8,$9,$2,$3,0*
0 Add four circle primitives for the rounded corners*
1,1,$1+$1,$2,$3*
1,1,$1+$1,$4,$5*
1,1,$1+$1,$6,$7*
1,1,$1+$1,$8,$9*
0 Add four rect primitives between the rounded corners*
20,1,$1+$1,$2,$3,$4,$5,0*
20,1,$1+$1,$4,$5,$6,$7,0*
20,1,$1+$1,$6,$7,$8,$9,0*
20,1,$1+$1,$8,$9,$2,$3,0*%
%AMFreePoly0*
4,1,19,0.500000,-0.750000,0.000000,-0.750000,0.000000,-0.744911,-0.071157,-0.744911,-0.207708,-0.704816,-0.327430,-0.627875,-0.420627,-0.520320,-0.479746,-0.390866,-0.500000,-0.250000,-0.500000,0.250000,-0.479746,0.390866,-0.420627,0.520320,-0.327430,0.627875,-0.207708,0.704816,-0.071157,0.744911,0.000000,0.744911,0.000000,0.750000,0.500000,0.750000,0.500000,-0.750000,0.500000,-0.750000,
$1*%
%AMFreePoly1*
4,1,19,0.000000,0.744911,0.071157,0.744911,0.207708,0.704816,0.327430,0.627875,0.420627,0.520320,0.479746,0.390866,0.500000,0.250000,0.500000,-0.250000,0.479746,-0.390866,0.420627,-0.520320,0.327430,-0.627875,0.207708,-0.704816,0.071157,-0.744911,0.000000,-0.744911,0.000000,-0.750000,-0.500000,-0.750000,-0.500000,0.750000,0.000000,0.750000,0.000000,0.744911,0.000000,0.744911,
$1*%
G04 Aperture macros list end*
%TA.AperFunction,ComponentPad*%
%ADD10C,0.800000*%
%TD*%
%TA.AperFunction,ComponentPad*%
%ADD11C,7.400000*%
%TD*%
%TA.AperFunction,ComponentPad*%
%ADD12R,1.500000X1.500000*%
%TD*%
%TA.AperFunction,ComponentPad*%
%ADD13C,1.500000*%
%TD*%
%TA.AperFunction,ComponentPad*%
%ADD14C,2.300000*%
%TD*%
%TA.AperFunction,ComponentPad*%
%ADD15O,1.700000X1.700000*%
%TD*%
%TA.AperFunction,ComponentPad*%
%ADD16R,1.700000X1.700000*%
%TD*%
%TA.AperFunction,SMDPad,CuDef*%
%ADD17R,0.500000X0.800000*%
%TD*%
%TA.AperFunction,SMDPad,CuDef*%
%ADD18R,0.400000X0.800000*%
%TD*%
%TA.AperFunction,SMDPad,CuDef*%
%ADD19RoundRect,0.150000X-0.825000X-0.150000X0.825000X-0.150000X0.825000X0.150000X-0.825000X0.150000X0*%
%TD*%
%TA.AperFunction,SMDPad,CuDef*%
%ADD20RoundRect,0.250000X-0.450000X0.350000X-0.450000X-0.350000X0.450000X-0.350000X0.450000X0.350000X0*%
%TD*%
%TA.AperFunction,SMDPad,CuDef*%
%ADD21FreePoly0,0.000000*%
%TD*%
%TA.AperFunction,SMDPad,CuDef*%
%ADD22FreePoly1,0.000000*%
%TD*%
%TA.AperFunction,ComponentPad*%
%ADD23O,4.200000X2.000000*%
%TD*%
%TA.AperFunction,ComponentPad*%
%ADD24O,2.000000X4.200000*%
%TD*%
%TA.AperFunction,ComponentPad*%
%ADD25R,2.000000X4.600000*%
%TD*%
%TA.AperFunction,SMDPad,CuDef*%
%ADD26RoundRect,0.150000X-0.150000X0.587500X-0.150000X-0.587500X0.150000X-0.587500X0.150000X0.587500X0*%
%TD*%
%TA.AperFunction,SMDPad,CuDef*%
%ADD27RoundRect,0.250000X-0.300000X-0.300000X0.300000X-0.300000X0.300000X0.300000X-0.300000X0.300000X0*%
%TD*%
%TA.AperFunction,SMDPad,CuDef*%
%ADD28RoundRect,0.250000X-0.337500X-0.475000X0.337500X-0.475000X0.337500X0.475000X-0.337500X0.475000X0*%
%TD*%
%TA.AperFunction,ViaPad*%
%ADD29C,0.800000*%
%TD*%
%TA.AperFunction,Conductor*%
%ADD30C,1.500000*%
%TD*%
%TA.AperFunction,Conductor*%
%ADD31C,0.500000*%
%TD*%
%TA.AperFunction,Conductor*%
%ADD32C,0.375000*%
%TD*%
%TA.AperFunction,Conductor*%
%ADD33C,0.750000*%
%TD*%
G04 APERTURE END LIST*
D10*
%TO.P,H1,1,1*%
%TO.N,Earth*%
X123225000Y-80000000D03*
D11*
X126000000Y-80000000D03*
D10*
X126000000Y-77225000D03*
X124037779Y-78037779D03*
X124037779Y-81962221D03*
X126000000Y-82775000D03*
X127962221Y-81962221D03*
X128775000Y-80000000D03*
X127962221Y-78037779D03*
%TD*%
D12*
%TO.P,J1,1*%
%TO.N,Net-(D1-A1)*%
X40430000Y-107890000D03*
D13*
%TO.P,J1,2*%
%TO.N,Net-(D1-A2)*%
X39414000Y-106110000D03*
%TO.P,J1,3*%
%TO.N,GND*%
X38398000Y-107890000D03*
%TO.P,J1,4*%
%TO.N,Serial1_det*%
X37382000Y-106110000D03*
%TO.P,J1,5*%
%TO.N,GND*%
X36366000Y-107890000D03*
%TO.P,J1,6*%
X35350000Y-106110000D03*
%TO.P,J1,7*%
%TO.N,Net-(D2-A2)*%
X34334000Y-107890000D03*
%TO.P,J1,8*%
%TO.N,Net-(D2-A1)*%
X33318000Y-106110000D03*
%TO.P,J1,9*%
%TO.N,Net-(RN4-R1.2)*%
X43730000Y-101290000D03*
%TO.P,J1,10*%
%TO.N,3V3*%
X41440000Y-101290000D03*
%TO.P,J1,11*%
%TO.N,Net-(RN4-R2.2)*%
X32300000Y-101290000D03*
%TO.P,J1,12*%
%TO.N,3V3*%
X30010000Y-101290000D03*
D14*
%TO.P,J1,SH*%
%TO.N,Earth*%
X28740000Y-107000000D03*
%TD*%
D15*
%TO.P,U1,1,GPIO0*%
%TO.N,Serial1_TX*%
X30000000Y-93500000D03*
%TO.P,U1,2,GPIO1*%
%TO.N,Serial1_RX*%
X32540000Y-93500000D03*
D16*
%TO.P,U1,3,GND*%
%TO.N,GND*%
X35080000Y-93500000D03*
D15*
%TO.P,U1,4,GPIO2*%
%TO.N,Serial1_det*%
X37620000Y-93500000D03*
%TO.P,U1,5,GPIO3*%
%TO.N,Serial2_det*%
X40160000Y-93500000D03*
%TO.P,U1,6,GPIO4*%
%TO.N,Serial2_TX*%
X42700000Y-93500000D03*
%TO.P,U1,7,GPIO5*%
%TO.N,Serial2_RX*%
X45240000Y-93500000D03*
D16*
%TO.P,U1,8,GND*%
%TO.N,GND*%
X47780000Y-93500000D03*
D15*
%TO.P,U1,9,GPIO6*%
%TO.N,PIO1_TX*%
X50320000Y-93500000D03*
%TO.P,U1,10,GPIO7*%
%TO.N,PIO1_RX*%
X52860000Y-93500000D03*
%TO.P,U1,11,GPIO8*%
%TO.N,PIO2_TX*%
X55400000Y-93500000D03*
%TO.P,U1,12,GPIO9*%
%TO.N,PIO2_RX*%
X57940000Y-93500000D03*
D16*
%TO.P,U1,13,GND*%
%TO.N,GND*%
X60480000Y-93500000D03*
D15*
%TO.P,U1,14,GPIO10*%
%TO.N,PIO2_det*%
X63020000Y-93500000D03*
%TO.P,U1,15,GPIO11*%
%TO.N,PIO3_det*%
X65560000Y-93500000D03*
%TO.P,U1,16,GPIO12*%
%TO.N,PIO3_TX*%
X68100000Y-93500000D03*
%TO.P,U1,17,GPIO13*%
%TO.N,PIO3_RX*%
X70640000Y-93500000D03*
D16*
%TO.P,U1,18,GND*%
%TO.N,GND*%
X73180000Y-93500000D03*
D15*
%TO.P,U1,19,GPIO14*%
%TO.N,PIO4_TX*%
X75720000Y-93500000D03*
%TO.P,U1,20,GPIO15*%
%TO.N,PIO4_RX*%
X78260000Y-93500000D03*
%TO.P,U1,21,GPIO16*%
%TO.N,PIO4_det*%
X78260000Y-75720000D03*
%TO.P,U1,22,GPIO17*%
%TO.N,PIO1_det*%
X75720000Y-75720000D03*
D16*
%TO.P,U1,23,GND*%
%TO.N,GND*%
X73180000Y-75720000D03*
D15*
%TO.P,U1,24,GPIO18*%
%TO.N,unconnected-(U1-GPIO18-Pad24)*%
X70640000Y-75720000D03*
%TO.P,U1,25,GPIO19*%
%TO.N,unconnected-(U1-GPIO19-Pad25)*%
X68100000Y-75720000D03*
%TO.P,U1,26,GPIO20*%
%TO.N,unconnected-(U1-GPIO20-Pad26)*%
X65560000Y-75720000D03*
%TO.P,U1,27,GPIO21*%
%TO.N,unconnected-(U1-GPIO21-Pad27)*%
X63020000Y-75720000D03*
D16*
%TO.P,U1,28,GND*%
%TO.N,GND*%
X60480000Y-75720000D03*
D15*
%TO.P,U1,29,GPIO22*%
%TO.N,unconnected-(U1-GPIO22-Pad29)*%
X57940000Y-75720000D03*
%TO.P,U1,30,RUN*%
%TO.N,unconnected-(U1-RUN-Pad30)*%
X55400000Y-75720000D03*
%TO.P,U1,31,GPIO26_ADC0*%
%TO.N,unconnected-(U1-GPIO26_ADC0-Pad31)*%
X52860000Y-75720000D03*
%TO.P,U1,32,GPIO27_ADC1*%
%TO.N,unconnected-(U1-GPIO27_ADC1-Pad32)*%
X50320000Y-75720000D03*
D16*
%TO.P,U1,33,AGND*%
%TO.N,unconnected-(U1-AGND-Pad33)*%
X47780000Y-75720000D03*
D15*
%TO.P,U1,34,GPIO28_ADC2*%
%TO.N,Net-(U1-GPIO28_ADC2)*%
X45240000Y-75720000D03*
%TO.P,U1,35,ADC_VREF*%
%TO.N,unconnected-(U1-ADC_VREF-Pad35)*%
X42700000Y-75720000D03*
%TO.P,U1,36,3V3*%
%TO.N,3V3*%
X40160000Y-75720000D03*
%TO.P,U1,37,3V3_EN*%
%TO.N,unconnected-(U1-3V3_EN-Pad37)*%
X37620000Y-75720000D03*
D16*
%TO.P,U1,38,GND*%
%TO.N,GND*%
X35080000Y-75720000D03*
D15*
%TO.P,U1,39,VSYS*%
%TO.N,Net-(D3-K)*%
X32540000Y-75720000D03*
%TO.P,U1,40,VBUS*%
%TO.N,unconnected-(U1-VBUS-Pad40)*%
X30000000Y-75720000D03*
%TD*%
D17*
%TO.P,RN1,1,R1.1*%
%TO.N,PIO1_TX*%
X77500000Y-97000000D03*
D18*
%TO.P,RN1,2,R2.1*%
%TO.N,PIO1_RX*%
X78300000Y-97000000D03*
%TO.P,RN1,3,R3.1*%
%TO.N,PIO2_RX*%
X79100000Y-97000000D03*
D17*
%TO.P,RN1,4,R4.1*%
%TO.N,PIO2_TX*%
X79900000Y-97000000D03*
%TO.P,RN1,5,R4.2*%
%TO.N,Net-(RN1-R4.2)*%
X79900000Y-98800000D03*
D18*
%TO.P,RN1,6,R3.2*%
%TO.N,Net-(RN1-R3.2)*%
X79100000Y-98800000D03*
%TO.P,RN1,7,R2.2*%
%TO.N,Net-(RN1-R2.2)*%
X78300000Y-98800000D03*
D17*
%TO.P,RN1,8,R1.2*%
%TO.N,Net-(RN1-R1.2)*%
X77500000Y-98800000D03*
%TD*%
D19*
%TO.P,U5,8,A*%
%TO.N,Net-(D8-A1)*%
X72975000Y-102810000D03*
%TO.P,U5,7,B*%
%TO.N,Net-(D8-A2)*%
X72975000Y-101540000D03*
%TO.P,U5,6,Z*%
%TO.N,Net-(D9-A1)*%
X72975000Y-100270000D03*
%TO.P,U5,5,Y*%
%TO.N,Net-(D9-A2)*%
X72975000Y-99000000D03*
%TO.P,U5,4,GND*%
%TO.N,GND*%
X68025000Y-99000000D03*
%TO.P,U5,3,DI*%
%TO.N,PIO1_TX*%
X68025000Y-100270000D03*
%TO.P,U5,2,RO*%
%TO.N,PIO1_RX*%
X68025000Y-101540000D03*
%TO.P,U5,1,VCC*%
%TO.N,3V3*%
X68025000Y-102810000D03*
%TD*%
D17*
%TO.P,RN2,1,R1.1*%
%TO.N,PIO3_TX*%
X111000000Y-97000000D03*
D18*
%TO.P,RN2,2,R2.1*%
%TO.N,PIO3_RX*%
X111800000Y-97000000D03*
%TO.P,RN2,3,R3.1*%
%TO.N,PIO4_RX*%
X112600000Y-97000000D03*
D17*
%TO.P,RN2,4,R4.1*%
%TO.N,PIO4_TX*%
X113400000Y-97000000D03*
%TO.P,RN2,5,R4.2*%
%TO.N,Net-(RN2-R4.2)*%
X113400000Y-98800000D03*
D18*
%TO.P,RN2,6,R3.2*%
%TO.N,Net-(RN2-R3.2)*%
X112600000Y-98800000D03*
%TO.P,RN2,7,R2.2*%
%TO.N,Net-(RN2-R2.2)*%
X111800000Y-98800000D03*
D17*
%TO.P,RN2,8,R1.2*%
%TO.N,Net-(RN2-R1.2)*%
X111000000Y-98800000D03*
%TD*%
%TO.P,RN4,8,R1.2*%
%TO.N,Net-(RN4-R1.2)*%
X43100000Y-99000000D03*
D18*
%TO.P,RN4,7,R2.2*%
%TO.N,Net-(RN4-R2.2)*%
X43900000Y-99000000D03*
%TO.P,RN4,6,R3.2*%
%TO.N,Net-(RN4-R3.2)*%
X44700000Y-99000000D03*
D17*
%TO.P,RN4,5,R4.2*%
%TO.N,Net-(RN4-R4.2)*%
X45500000Y-99000000D03*
%TO.P,RN4,4,R4.1*%
%TO.N,Serial2_RX*%
X45500000Y-97200000D03*
D18*
%TO.P,RN4,3,R3.1*%
%TO.N,Serial2_TX*%
X44700000Y-97200000D03*
%TO.P,RN4,2,R2.1*%
%TO.N,Serial1_RX*%
X43900000Y-97200000D03*
D17*
%TO.P,RN4,1,R1.1*%
%TO.N,Serial1_TX*%
X43100000Y-97200000D03*
%TD*%
D19*
%TO.P,U7,8,A*%
%TO.N,Net-(D12-A1)*%
X106450000Y-102810000D03*
%TO.P,U7,7,B*%
%TO.N,Net-(D12-A2)*%
X106450000Y-101540000D03*
%TO.P,U7,6,Z*%
%TO.N,Net-(D13-A1)*%
X106450000Y-100270000D03*
%TO.P,U7,5,Y*%
%TO.N,Net-(D13-A2)*%
X106450000Y-99000000D03*
%TO.P,U7,4,GND*%
%TO.N,GND*%
X101500000Y-99000000D03*
%TO.P,U7,3,DI*%
%TO.N,PIO3_TX*%
X101500000Y-100270000D03*
%TO.P,U7,2,RO*%
%TO.N,PIO3_RX*%
X101500000Y-101540000D03*
%TO.P,U7,1,VCC*%
%TO.N,3V3*%
X101500000Y-102810000D03*
%TD*%
%TO.P,U6,1,VCC*%
%TO.N,3V3*%
X118050000Y-102810000D03*
%TO.P,U6,2,RO*%
%TO.N,PIO4_RX*%
X118050000Y-101540000D03*
%TO.P,U6,3,DI*%
%TO.N,PIO4_TX*%
X118050000Y-100270000D03*
%TO.P,U6,4,GND*%
%TO.N,GND*%
X118050000Y-99000000D03*
%TO.P,U6,5,Y*%
%TO.N,Net-(D11-A2)*%
X123000000Y-99000000D03*
%TO.P,U6,6,Z*%
%TO.N,Net-(D11-A1)*%
X123000000Y-100270000D03*
%TO.P,U6,7,B*%
%TO.N,Net-(D10-A2)*%
X123000000Y-101540000D03*
%TO.P,U6,8,A*%
%TO.N,Net-(D10-A1)*%
X123000000Y-102810000D03*
%TD*%
%TO.P,U4,8,A*%
%TO.N,Net-(D6-A1)*%
X89500000Y-102810000D03*
%TO.P,U4,7,B*%
%TO.N,Net-(D6-A2)*%
X89500000Y-101540000D03*
%TO.P,U4,6,Z*%
%TO.N,Net-(D7-A1)*%
X89500000Y-100270000D03*
%TO.P,U4,5,Y*%
%TO.N,Net-(D7-A2)*%
X89500000Y-99000000D03*
%TO.P,U4,4,GND*%
%TO.N,GND*%
X84550000Y-99000000D03*
%TO.P,U4,3,DI*%
%TO.N,PIO2_TX*%
X84550000Y-100270000D03*
%TO.P,U4,2,RO*%
%TO.N,PIO2_RX*%
X84550000Y-101540000D03*
%TO.P,U4,1,VCC*%
%TO.N,3V3*%
X84550000Y-102810000D03*
%TD*%
%TO.P,U3,8,A*%
%TO.N,Net-(D4-A1)*%
X55950000Y-102810000D03*
%TO.P,U3,7,B*%
%TO.N,Net-(D4-A2)*%
X55950000Y-101540000D03*
%TO.P,U3,6,Z*%
%TO.N,Net-(D5-A1)*%
X55950000Y-100270000D03*
%TO.P,U3,5,Y*%
%TO.N,Net-(D5-A2)*%
X55950000Y-99000000D03*
%TO.P,U3,4,GND*%
%TO.N,GND*%
X51000000Y-99000000D03*
%TO.P,U3,3,DI*%
%TO.N,Serial2_TX*%
X51000000Y-100270000D03*
%TO.P,U3,2,RO*%
%TO.N,Serial2_RX*%
X51000000Y-101540000D03*
%TO.P,U3,1,VCC*%
%TO.N,3V3*%
X51000000Y-102810000D03*
%TD*%
%TO.P,U2,8,A*%
%TO.N,Net-(D1-A1)*%
X39475000Y-102770000D03*
%TO.P,U2,7,B*%
%TO.N,Net-(D1-A2)*%
X39475000Y-101500000D03*
%TO.P,U2,6,Z*%
%TO.N,Net-(D2-A1)*%
X39475000Y-100230000D03*
%TO.P,U2,5,Y*%
%TO.N,Net-(D2-A2)*%
X39475000Y-98960000D03*
%TO.P,U2,4,GND*%
%TO.N,GND*%
X34525000Y-98960000D03*
%TO.P,U2,3,DI*%
%TO.N,Serial1_TX*%
X34525000Y-100230000D03*
%TO.P,U2,2,RO*%
%TO.N,Serial1_RX*%
X34525000Y-101500000D03*
%TO.P,U2,1,VCC*%
%TO.N,3V3*%
X34525000Y-102770000D03*
%TD*%
D20*
%TO.P,R6,1*%
%TO.N,Net-(D12-A1)*%
X109500000Y-103500000D03*
%TO.P,R6,2*%
%TO.N,Net-(D12-A2)*%
X109500000Y-105500000D03*
%TD*%
%TO.P,R5,1*%
%TO.N,Net-(D10-A1)*%
X126000000Y-103500000D03*
%TO.P,R5,2*%
%TO.N,Net-(D10-A2)*%
X126000000Y-105500000D03*
%TD*%
%TO.P,R4,1*%
%TO.N,Net-(D8-A1)*%
X75500000Y-103500000D03*
%TO.P,R4,2*%
%TO.N,Net-(D8-A2)*%
X75500000Y-105500000D03*
%TD*%
%TO.P,R3,1*%
%TO.N,Net-(D6-A1)*%
X92500000Y-103500000D03*
%TO.P,R3,2*%
%TO.N,Net-(D6-A2)*%
X92500000Y-105500000D03*
%TD*%
%TO.P,R2,2*%
%TO.N,Net-(D4-A2)*%
X59000000Y-105500000D03*
%TO.P,R2,1*%
%TO.N,Net-(D4-A1)*%
X59000000Y-103500000D03*
%TD*%
%TO.P,R1,2*%
%TO.N,Net-(D1-A2)*%
X42000000Y-105500000D03*
%TO.P,R1,1*%
%TO.N,Net-(D1-A1)*%
X42000000Y-103500000D03*
%TD*%
D21*
%TO.P,JP1,1,A*%
%TO.N,GND*%
X120600000Y-87000000D03*
D22*
%TO.P,JP1,2,B*%
%TO.N,Earth*%
X121900000Y-87000000D03*
%TD*%
D12*
%TO.P,J7,1*%
%TO.N,Net-(D12-A1)*%
X107470000Y-107890000D03*
D13*
%TO.P,J7,2*%
%TO.N,Net-(D12-A2)*%
X106454000Y-106110000D03*
%TO.P,J7,3*%
%TO.N,GND*%
X105438000Y-107890000D03*
%TO.P,J7,4*%
%TO.N,PIO3_det*%
X104422000Y-106110000D03*
%TO.P,J7,5*%
%TO.N,GND*%
X103406000Y-107890000D03*
%TO.P,J7,6*%
X102390000Y-106110000D03*
%TO.P,J7,7*%
%TO.N,Net-(D13-A2)*%
X101374000Y-107890000D03*
%TO.P,J7,8*%
%TO.N,Net-(D13-A1)*%
X100358000Y-106110000D03*
%TO.P,J7,9*%
%TO.N,Net-(RN2-R1.2)*%
X110770000Y-101290000D03*
%TO.P,J7,10*%
%TO.N,3V3*%
X108480000Y-101290000D03*
%TO.P,J7,11*%
%TO.N,Net-(RN2-R2.2)*%
X99340000Y-101290000D03*
%TO.P,J7,12*%
%TO.N,3V3*%
X97050000Y-101290000D03*
D14*
%TO.P,J7,SH*%
%TO.N,Earth*%
X95530000Y-107000000D03*
%TD*%
%TO.P,J6,SH*%
%TO.N,Earth*%
X112290000Y-107000000D03*
X128800000Y-107000000D03*
D13*
%TO.P,J6,12*%
%TO.N,3V3*%
X113810000Y-101290000D03*
%TO.P,J6,11*%
%TO.N,Net-(RN2-R3.2)*%
X116100000Y-101290000D03*
%TO.P,J6,10*%
%TO.N,3V3*%
X125240000Y-101290000D03*
%TO.P,J6,9*%
%TO.N,Net-(RN2-R4.2)*%
X127530000Y-101290000D03*
%TO.P,J6,8*%
%TO.N,Net-(D11-A1)*%
X117118000Y-106110000D03*
%TO.P,J6,7*%
%TO.N,Net-(D11-A2)*%
X118134000Y-107890000D03*
%TO.P,J6,6*%
%TO.N,GND*%
X119150000Y-106110000D03*
%TO.P,J6,5*%
X120166000Y-107890000D03*
%TO.P,J6,4*%
%TO.N,PIO4_det*%
X121182000Y-106110000D03*
%TO.P,J6,3*%
%TO.N,GND*%
X122198000Y-107890000D03*
%TO.P,J6,2*%
%TO.N,Net-(D10-A2)*%
X123214000Y-106110000D03*
D12*
%TO.P,J6,1*%
%TO.N,Net-(D10-A1)*%
X124230000Y-107890000D03*
%TD*%
D14*
%TO.P,J5,SH*%
%TO.N,Earth*%
X62010000Y-107000000D03*
D13*
%TO.P,J5,12*%
%TO.N,3V3*%
X63530000Y-101290000D03*
%TO.P,J5,11*%
%TO.N,Net-(RN1-R2.2)*%
X65820000Y-101290000D03*
%TO.P,J5,10*%
%TO.N,3V3*%
X74960000Y-101290000D03*
%TO.P,J5,9*%
%TO.N,Net-(RN1-R1.2)*%
X77250000Y-101290000D03*
%TO.P,J5,8*%
%TO.N,Net-(D9-A1)*%
X66838000Y-106110000D03*
%TO.P,J5,7*%
%TO.N,Net-(D9-A2)*%
X67854000Y-107890000D03*
%TO.P,J5,6*%
%TO.N,GND*%
X68870000Y-106110000D03*
%TO.P,J5,5*%
X69886000Y-107890000D03*
%TO.P,J5,4*%
%TO.N,PIO1_det*%
X70902000Y-106110000D03*
%TO.P,J5,3*%
%TO.N,GND*%
X71918000Y-107890000D03*
%TO.P,J5,2*%
%TO.N,Net-(D8-A2)*%
X72934000Y-106110000D03*
D12*
%TO.P,J5,1*%
%TO.N,Net-(D8-A1)*%
X73950000Y-107890000D03*
%TD*%
D14*
%TO.P,J4,SH*%
%TO.N,Earth*%
X78770000Y-107000000D03*
D13*
%TO.P,J4,12*%
%TO.N,3V3*%
X80290000Y-101290000D03*
%TO.P,J4,11*%
%TO.N,Net-(RN1-R3.2)*%
X82580000Y-101290000D03*
%TO.P,J4,10*%
%TO.N,3V3*%
X91720000Y-101290000D03*
%TO.P,J4,9*%
%TO.N,Net-(RN1-R4.2)*%
X94010000Y-101290000D03*
%TO.P,J4,8*%
%TO.N,Net-(D7-A1)*%
X83598000Y-106110000D03*
%TO.P,J4,7*%
%TO.N,Net-(D7-A2)*%
X84614000Y-107890000D03*
%TO.P,J4,6*%
%TO.N,GND*%
X85630000Y-106110000D03*
%TO.P,J4,5*%
X86646000Y-107890000D03*
%TO.P,J4,4*%
%TO.N,PIO2_det*%
X87662000Y-106110000D03*
%TO.P,J4,3*%
%TO.N,GND*%
X88678000Y-107890000D03*
%TO.P,J4,2*%
%TO.N,Net-(D6-A2)*%
X89694000Y-106110000D03*
D12*
%TO.P,J4,1*%
%TO.N,Net-(D6-A1)*%
X90710000Y-107890000D03*
%TD*%
%TO.P,J3,1*%
%TO.N,Net-(D4-A1)*%
X57190000Y-107890000D03*
D13*
%TO.P,J3,2*%
%TO.N,Net-(D4-A2)*%
X56174000Y-106110000D03*
%TO.P,J3,3*%
%TO.N,GND*%
X55158000Y-107890000D03*
%TO.P,J3,4*%
%TO.N,Serial2_det*%
X54142000Y-106110000D03*
%TO.P,J3,5*%
%TO.N,GND*%
X53126000Y-107890000D03*
%TO.P,J3,6*%
X52110000Y-106110000D03*
%TO.P,J3,7*%
%TO.N,Net-(D5-A2)*%
X51094000Y-107890000D03*
%TO.P,J3,8*%
%TO.N,Net-(D5-A1)*%
X50078000Y-106110000D03*
%TO.P,J3,9*%
%TO.N,Net-(RN4-R3.2)*%
X60490000Y-101290000D03*
%TO.P,J3,10*%
%TO.N,3V3*%
X58200000Y-101290000D03*
%TO.P,J3,11*%
%TO.N,Net-(RN4-R4.2)*%
X49060000Y-101290000D03*
%TO.P,J3,12*%
%TO.N,3V3*%
X46770000Y-101290000D03*
D14*
%TO.P,J3,SH*%
%TO.N,Earth*%
X45250000Y-107000000D03*
%TD*%
D23*
%TO.P,J2,3*%
%TO.N,Net-(U1-GPIO28_ADC2)*%
X37400000Y-86800000D03*
D24*
%TO.P,J2,2*%
%TO.N,GND*%
X34000000Y-82000000D03*
D25*
%TO.P,J2,1*%
%TO.N,Net-(D3-A)*%
X40300000Y-82000000D03*
%TD*%
D26*
%TO.P,D13,1,A1*%
%TO.N,Net-(D13-A1)*%
X100050000Y-110500000D03*
%TO.P,D13,2,A2*%
%TO.N,Net-(D13-A2)*%
X101950000Y-110500000D03*
%TO.P,D13,3,common*%
%TO.N,Earth*%
X101000000Y-112375000D03*
%TD*%
%TO.P,D12,1,A1*%
%TO.N,Net-(D12-A1)*%
X105600000Y-110500000D03*
%TO.P,D12,2,A2*%
%TO.N,Net-(D12-A2)*%
X107500000Y-110500000D03*
%TO.P,D12,3,common*%
%TO.N,Earth*%
X106550000Y-112375000D03*
%TD*%
%TO.P,D11,3,common*%
%TO.N,Earth*%
X117950000Y-112375000D03*
%TO.P,D11,2,A2*%
%TO.N,Net-(D11-A2)*%
X118900000Y-110500000D03*
%TO.P,D11,1,A1*%
%TO.N,Net-(D11-A1)*%
X117000000Y-110500000D03*
%TD*%
%TO.P,D10,3,common*%
%TO.N,Earth*%
X123450000Y-112375000D03*
%TO.P,D10,2,A2*%
%TO.N,Net-(D10-A2)*%
X124400000Y-110500000D03*
%TO.P,D10,1,A1*%
%TO.N,Net-(D10-A1)*%
X122500000Y-110500000D03*
%TD*%
%TO.P,D9,1,A1*%
%TO.N,Net-(D9-A1)*%
X67000000Y-111125000D03*
%TO.P,D9,2,A2*%
%TO.N,Net-(D9-A2)*%
X68900000Y-111125000D03*
%TO.P,D9,3,common*%
%TO.N,Earth*%
X67950000Y-113000000D03*
%TD*%
%TO.P,D8,1,A1*%
%TO.N,Net-(D8-A1)*%
X72100000Y-110000000D03*
%TO.P,D8,2,A2*%
%TO.N,Net-(D8-A2)*%
X74000000Y-110000000D03*
%TO.P,D8,3,common*%
%TO.N,Earth*%
X73050000Y-111875000D03*
%TD*%
%TO.P,D7,1,A1*%
%TO.N,Net-(D7-A1)*%
X83950000Y-110625000D03*
%TO.P,D7,2,A2*%
%TO.N,Net-(D7-A2)*%
X85850000Y-110625000D03*
%TO.P,D7,3,common*%
%TO.N,Earth*%
X84900000Y-112500000D03*
%TD*%
%TO.P,D6,1,A1*%
%TO.N,Net-(D6-A1)*%
X89050000Y-110625000D03*
%TO.P,D6,2,A2*%
%TO.N,Net-(D6-A2)*%
X90950000Y-110625000D03*
%TO.P,D6,3,common*%
%TO.N,Earth*%
X90000000Y-112500000D03*
%TD*%
%TO.P,D5,3,common*%
%TO.N,Earth*%
X51050000Y-112875000D03*
%TO.P,D5,2,A2*%
%TO.N,Net-(D5-A2)*%
X52000000Y-111000000D03*
%TO.P,D5,1,A1*%
%TO.N,Net-(D5-A1)*%
X50100000Y-111000000D03*
%TD*%
%TO.P,D4,3,common*%
%TO.N,Earth*%
X56550000Y-111875000D03*
%TO.P,D4,2,A2*%
%TO.N,Net-(D4-A2)*%
X57500000Y-110000000D03*
%TO.P,D4,1,A1*%
%TO.N,Net-(D4-A1)*%
X55600000Y-110000000D03*
%TD*%
D27*
%TO.P,D3,2,A*%
%TO.N,Net-(D3-A)*%
X40300000Y-78500000D03*
%TO.P,D3,1,K*%
%TO.N,Net-(D3-K)*%
X37500000Y-78500000D03*
%TD*%
D26*
%TO.P,D2,1,A1*%
%TO.N,Net-(D2-A1)*%
X33100000Y-110000000D03*
%TO.P,D2,2,A2*%
%TO.N,Net-(D2-A2)*%
X35000000Y-110000000D03*
%TO.P,D2,3,common*%
%TO.N,Earth*%
X34050000Y-111875000D03*
%TD*%
%TO.P,D1,3,common*%
%TO.N,Earth*%
X39550000Y-111937500D03*
%TO.P,D1,2,A2*%
%TO.N,Net-(D1-A2)*%
X40500000Y-110062500D03*
%TO.P,D1,1,A1*%
%TO.N,Net-(D1-A1)*%
X38600000Y-110062500D03*
%TD*%
D28*
%TO.P,C6,2*%
%TO.N,3V3*%
X99000000Y-103750000D03*
%TO.P,C6,1*%
%TO.N,GND*%
X96925000Y-103750000D03*
%TD*%
%TO.P,C5,1*%
%TO.N,GND*%
X113425000Y-104000000D03*
%TO.P,C5,2*%
%TO.N,3V3*%
X115500000Y-104000000D03*
%TD*%
%TO.P,C4,1*%
%TO.N,GND*%
X63000000Y-104000000D03*
%TO.P,C4,2*%
%TO.N,3V3*%
X65075000Y-104000000D03*
%TD*%
%TO.P,C3,1*%
%TO.N,GND*%
X80000000Y-103500000D03*
%TO.P,C3,2*%
%TO.N,3V3*%
X82075000Y-103500000D03*
%TD*%
%TO.P,C2,2*%
%TO.N,3V3*%
X48575000Y-103500000D03*
%TO.P,C2,1*%
%TO.N,GND*%
X46500000Y-103500000D03*
%TD*%
%TO.P,C1,1*%
%TO.N,GND*%
X30000000Y-103500000D03*
%TO.P,C1,2*%
%TO.N,3V3*%
X32075000Y-103500000D03*
%TD*%
D29*
%TO.N,GND*%
X101750000Y-99000000D03*
X63500000Y-97000000D03*
%TO.N,PIO1_det*%
X62181494Y-95425500D03*
X61750000Y-91475500D03*
%TO.N,GND*%
X48500000Y-98750000D03*
X51250000Y-99000000D03*
%TO.N,Net-(RN4-R3.2)*%
X46458308Y-95500500D03*
X44842550Y-99839757D03*
%TO.N,GND*%
X77250000Y-105000000D03*
X30000000Y-103500000D03*
X47000000Y-105250000D03*
X63000000Y-104250000D03*
X80000000Y-103000000D03*
X84500000Y-99000000D03*
X96925000Y-103750000D03*
X113250000Y-104250000D03*
X120600000Y-87000000D03*
%TO.N,Net-(D5-A1)*%
X50100000Y-111000000D03*
%TO.N,Net-(RN2-R3.2)*%
X114081099Y-99616600D03*
%TO.N,Net-(RN2-R2.2)*%
X111619500Y-99961449D03*
%TO.N,Net-(RN2-R4.2)*%
X113400000Y-98800000D03*
%TO.N,Net-(RN1-R4.2)*%
X90360000Y-97640000D03*
%TO.N,PIO2_TX*%
X84550000Y-100270000D03*
%TO.N,3V3*%
X118050000Y-102810000D03*
X101500000Y-102810000D03*
X84550000Y-102810000D03*
X68025000Y-102810000D03*
X34539060Y-102670500D03*
X51000000Y-102810000D03*
%TO.N,Net-(D10-A2)*%
X126000000Y-105500000D03*
%TO.N,Net-(D11-A1)*%
X117000000Y-110500000D03*
%TO.N,Net-(D12-A2)*%
X109500000Y-105500000D03*
%TO.N,Net-(D13-A1)*%
X100050000Y-110500000D03*
%TO.N,Net-(RN1-R4.2)*%
X79949500Y-98800000D03*
%TO.N,Net-(D6-A2)*%
X92500000Y-105500000D03*
%TO.N,Net-(D7-A1)*%
X83950000Y-110625000D03*
%TO.N,Net-(RN1-R2.2)*%
X78133791Y-99660550D03*
%TO.N,Net-(D9-A1)*%
X67000000Y-111125000D03*
%TO.N,Net-(D8-A2)*%
X75500000Y-107500000D03*
%TO.N,Net-(D4-A2)*%
X59000000Y-107500000D03*
%TO.N,Net-(RN4-R2.2)*%
X43848815Y-99732544D03*
%TO.N,Net-(D2-A1)*%
X33100000Y-110000000D03*
%TO.N,Net-(D1-A2)*%
X40500000Y-110062500D03*
%TD*%
D30*
%TO.N,Earth*%
X122050000Y-83950000D02*
X122050000Y-87000000D01*
X126000000Y-80000000D02*
X122050000Y-83950000D01*
X130900000Y-107000000D02*
X130900000Y-84900000D01*
X130900000Y-84900000D02*
X126000000Y-80000000D01*
D31*
%TO.N,Serial1_TX*%
X38388579Y-97200000D02*
X33200000Y-97200000D01*
%TO.N,Net-(RN4-R2.2)*%
X43900000Y-99000000D02*
X43900000Y-99681359D01*
X43900000Y-99681359D02*
X43848815Y-99732544D01*
D32*
%TO.N,Net-(RN4-R3.2)*%
X44842550Y-99839757D02*
X44842550Y-99142550D01*
X44842550Y-99142550D02*
X44700000Y-99000000D01*
%TO.N,PIO3_TX*%
X69337500Y-92262500D02*
X68100000Y-93500000D01*
D31*
%TO.N,Net-(D8-A2)*%
X75500000Y-108664796D02*
X75500000Y-107500000D01*
X74000000Y-110164796D02*
X75500000Y-108664796D01*
D32*
%TO.N,PIO3_TX*%
X71942500Y-93052410D02*
X71942500Y-94942500D01*
X71942500Y-94942500D02*
X72000000Y-95000000D01*
X69337500Y-92262500D02*
X71152590Y-92262500D01*
X71152590Y-92262500D02*
X71942500Y-93052410D01*
X97681840Y-99500000D02*
X98000000Y-99500000D01*
X72000000Y-95000000D02*
X93181840Y-95000000D01*
X93181840Y-95000000D02*
X97681840Y-99500000D01*
X98000000Y-99500000D02*
X98187500Y-99687500D01*
X98187500Y-99687500D02*
X100917500Y-99687500D01*
X100917500Y-99687500D02*
X101500000Y-100270000D01*
D31*
%TO.N,Net-(D5-A2)*%
X52000000Y-108796000D02*
X52000000Y-111000000D01*
X51094000Y-107890000D02*
X52000000Y-108796000D01*
D32*
%TO.N,3V3*%
X97050000Y-101800000D02*
X97050000Y-101290000D01*
X99000000Y-103750000D02*
X97050000Y-101800000D01*
X100560000Y-103750000D02*
X99000000Y-103750000D01*
X101500000Y-102810000D02*
X100560000Y-103750000D01*
D31*
%TO.N,Net-(D13-A2)*%
X105896472Y-99000000D02*
X106450000Y-99000000D01*
X104338261Y-100558211D02*
X105896472Y-99000000D01*
X104338261Y-100838261D02*
X104338261Y-100558211D01*
X103600000Y-101576522D02*
X104338261Y-100838261D01*
X101268051Y-104210000D02*
X103600000Y-104210000D01*
X100739025Y-104739025D02*
X101268051Y-104210000D01*
X99813424Y-104739025D02*
X100739025Y-104739025D01*
X99158000Y-105394449D02*
X99813424Y-104739025D01*
X99158000Y-106734660D02*
X99158000Y-105394449D01*
X100313340Y-107890000D02*
X99158000Y-106734660D01*
X101374000Y-107890000D02*
X100313340Y-107890000D01*
X103600000Y-104210000D02*
X103600000Y-101576522D01*
D32*
%TO.N,PIO1_det*%
X61750000Y-94994006D02*
X61750000Y-91475500D01*
X62181494Y-95425500D02*
X61750000Y-94994006D01*
D31*
%TO.N,GND*%
X66025000Y-97000000D02*
X63500000Y-97000000D01*
X68025000Y-99000000D02*
X66025000Y-97000000D01*
%TO.N,Net-(RN4-R4.2)*%
X46770000Y-99000000D02*
X49060000Y-101290000D01*
X45500000Y-99000000D02*
X46770000Y-99000000D01*
D32*
%TO.N,Net-(RN4-R3.2)*%
X46500500Y-95500500D02*
X46458308Y-95500500D01*
X46712500Y-95712500D02*
X46500500Y-95500500D01*
D31*
%TO.N,Serial2_TX*%
X47050000Y-97200000D02*
X50700000Y-97200000D01*
X46150000Y-98100000D02*
X47050000Y-97200000D01*
X44700000Y-98100000D02*
X46150000Y-98100000D01*
X44700000Y-97200000D02*
X44700000Y-98100000D01*
X44700000Y-96260050D02*
X44700000Y-97200000D01*
X42700000Y-94260050D02*
X44700000Y-96260050D01*
X42700000Y-93500000D02*
X42700000Y-94260050D01*
%TO.N,Serial2_RX*%
X45500000Y-95850000D02*
X45500000Y-97200000D01*
X45240000Y-95590000D02*
X45500000Y-95850000D01*
X45240000Y-95590000D02*
X45240000Y-94000000D01*
D30*
%TO.N,Net-(U1-GPIO28_ADC2)*%
X42700000Y-86800000D02*
X37400000Y-86800000D01*
%TO.N,Net-(D3-A)*%
X40300000Y-78500000D02*
X40300000Y-82000000D01*
%TO.N,Net-(D3-K)*%
X34117919Y-78500000D02*
X37500000Y-78500000D01*
%TO.N,Earth*%
X130900000Y-107000000D02*
X128800000Y-107000000D01*
X130900000Y-110600000D02*
X130900000Y-107000000D01*
D33*
X117187500Y-109187500D02*
X117450305Y-109187500D01*
X115000000Y-107000000D02*
X117187500Y-109187500D01*
X118000000Y-109737195D02*
X118000000Y-112325000D01*
X118000000Y-112325000D02*
X117950000Y-112375000D01*
X112540000Y-107000000D02*
X115000000Y-107000000D01*
X117450305Y-109187500D02*
X118000000Y-109737195D01*
D31*
%TO.N,Net-(D11-A2)*%
X119000000Y-110400000D02*
X118900000Y-110500000D01*
X119000000Y-108756000D02*
X119000000Y-110400000D01*
X118134000Y-107890000D02*
X119000000Y-108756000D01*
D33*
%TO.N,Earth*%
X84400305Y-109312500D02*
X84925000Y-109837195D01*
X84925000Y-109837195D02*
X84925000Y-112475000D01*
X83809114Y-109312500D02*
X84400305Y-109312500D01*
X81496614Y-107000000D02*
X83809114Y-109312500D01*
X84925000Y-112475000D02*
X84900000Y-112500000D01*
X79020000Y-107000000D02*
X81496614Y-107000000D01*
D30*
X73450000Y-112950000D02*
X68000000Y-112950000D01*
X73555000Y-113055000D02*
X73450000Y-112950000D01*
X73050000Y-112550000D02*
X73050000Y-111875000D01*
X73555000Y-113055000D02*
X73050000Y-112550000D01*
X67895000Y-113055000D02*
X67950000Y-113000000D01*
X56550000Y-111875000D02*
X57730000Y-113055000D01*
X57730000Y-113055000D02*
X67895000Y-113055000D01*
D33*
X68000000Y-112950000D02*
X67950000Y-113000000D01*
X67182558Y-109544753D02*
X68000000Y-110362195D01*
X66431098Y-109544753D02*
X67182558Y-109544753D01*
X63886345Y-107000000D02*
X66431098Y-109544753D01*
X68000000Y-110362195D02*
X68000000Y-112950000D01*
X62260000Y-107000000D02*
X63886345Y-107000000D01*
D30*
X55550000Y-112875000D02*
X51050000Y-112875000D01*
X56550000Y-111875000D02*
X55550000Y-112875000D01*
X50870000Y-113055000D02*
X51050000Y-112875000D01*
X40667500Y-113055000D02*
X50870000Y-113055000D01*
X39550000Y-111937500D02*
X40667500Y-113055000D01*
D33*
X51125000Y-112800000D02*
X51050000Y-112875000D01*
X51125000Y-110148386D02*
X51125000Y-112800000D01*
X45500000Y-107000000D02*
X47976614Y-107000000D01*
X47976614Y-107000000D02*
X51125000Y-110148386D01*
X33245000Y-112680000D02*
X34050000Y-111875000D01*
X27590000Y-108150000D02*
X27590000Y-110681981D01*
X28740000Y-107000000D02*
X27590000Y-108150000D01*
X27590000Y-110681981D02*
X29588019Y-112680000D01*
X29588019Y-112680000D02*
X33245000Y-112680000D01*
X101025000Y-109400000D02*
X101025000Y-112350000D01*
X100187500Y-109187500D02*
X100812500Y-109187500D01*
X98000000Y-107000000D02*
X100187500Y-109187500D01*
X95780000Y-107000000D02*
X98000000Y-107000000D01*
X100812500Y-109187500D02*
X101025000Y-109400000D01*
X101025000Y-112350000D02*
X101000000Y-112375000D01*
D30*
X128445000Y-113055000D02*
X130900000Y-110600000D01*
X124130000Y-113055000D02*
X128445000Y-113055000D01*
X123450000Y-112375000D02*
X124130000Y-113055000D01*
%TO.N,Net-(U1-GPIO28_ADC2)*%
X45240000Y-84260000D02*
X42700000Y-86800000D01*
X45240000Y-75720000D02*
X45240000Y-84260000D01*
%TO.N,Net-(D3-K)*%
X32540000Y-76922081D02*
X32540000Y-75720000D01*
X34117919Y-78500000D02*
X32540000Y-76922081D01*
%TO.N,Earth*%
X84345000Y-113055000D02*
X84900000Y-112500000D01*
X73555000Y-113055000D02*
X84345000Y-113055000D01*
D32*
%TO.N,Net-(RN2-R3.2)*%
X114051999Y-99587500D02*
X114081099Y-99616600D01*
X112733185Y-99587500D02*
X114051999Y-99587500D01*
X112600000Y-99454315D02*
X112733185Y-99587500D01*
D31*
%TO.N,Net-(RN2-R2.2)*%
X111619500Y-100000000D02*
X111619500Y-99961449D01*
X111800000Y-99819500D02*
X111800000Y-98800000D01*
X111619500Y-100000000D02*
X111800000Y-99819500D01*
D32*
%TO.N,PIO4_TX*%
X80000000Y-93850000D02*
X80000000Y-93489910D01*
X80000000Y-93489910D02*
X78772590Y-92262500D01*
X93663173Y-93850000D02*
X80000000Y-93850000D01*
X95313172Y-95500000D02*
X93663173Y-93850000D01*
X76957500Y-92262500D02*
X75720000Y-93500000D01*
X78772590Y-92262500D02*
X76957500Y-92262500D01*
X112675000Y-95500000D02*
X95313172Y-95500000D01*
X113400000Y-96225000D02*
X112675000Y-95500000D01*
X113400000Y-97000000D02*
X113400000Y-96225000D01*
%TO.N,PIO4_RX*%
X112325000Y-96150000D02*
X95150000Y-96150000D01*
X112600000Y-96425000D02*
X112325000Y-96150000D01*
X112600000Y-97000000D02*
X112600000Y-96425000D01*
%TO.N,PIO4_TX*%
X113838172Y-97000000D02*
X113400000Y-97000000D01*
X117108172Y-100270000D02*
X113838172Y-97000000D01*
X118050000Y-100270000D02*
X117108172Y-100270000D01*
%TO.N,Net-(RN2-R3.2)*%
X112600000Y-98800000D02*
X112600000Y-99454315D01*
%TO.N,3V3*%
X113810000Y-102310000D02*
X113810000Y-101290000D01*
X115500000Y-104000000D02*
X113810000Y-102310000D01*
X116497500Y-103002500D02*
X115500000Y-104000000D01*
X118050000Y-102810000D02*
X117857500Y-103002500D01*
X117857500Y-103002500D02*
X116497500Y-103002500D01*
%TO.N,PIO4_RX*%
X116697360Y-102427500D02*
X117584860Y-101540000D01*
X115628832Y-102427500D02*
X116697360Y-102427500D01*
X114962500Y-101761168D02*
X115628832Y-102427500D01*
X114962500Y-98937500D02*
X114962500Y-101761168D01*
X114037500Y-98012500D02*
X114962500Y-98937500D01*
X112837500Y-98012500D02*
X114037500Y-98012500D01*
X112600000Y-97775000D02*
X112837500Y-98012500D01*
X112600000Y-97000000D02*
X112600000Y-97775000D01*
X93425000Y-94425000D02*
X95150000Y-96150000D01*
X78260000Y-93760000D02*
X78925000Y-94425000D01*
X78925000Y-94425000D02*
X93425000Y-94425000D01*
X78260000Y-93500000D02*
X78260000Y-93760000D01*
%TO.N,3V3*%
X97050000Y-102050000D02*
X97050000Y-101290000D01*
%TO.N,PIO3_RX*%
X100698668Y-101540000D02*
X101500000Y-101540000D01*
X98202500Y-100833832D02*
X98202500Y-101761168D01*
X93006168Y-95637500D02*
X98202500Y-100833832D01*
X71137500Y-95637500D02*
X93006168Y-95637500D01*
X98202500Y-101761168D02*
X98868832Y-102427500D01*
X98868832Y-102427500D02*
X99811168Y-102427500D01*
X70640000Y-95140000D02*
X71137500Y-95637500D01*
X70640000Y-93500000D02*
X70640000Y-95140000D01*
X99811168Y-102427500D02*
X100698668Y-101540000D01*
%TO.N,PIO1_TX*%
X64057748Y-97919080D02*
X66408668Y-100270000D01*
X62580920Y-97919080D02*
X64057748Y-97919080D01*
X54500000Y-95925000D02*
X60586840Y-95925000D01*
X54097500Y-92987410D02*
X54097500Y-95522500D01*
X66408668Y-100270000D02*
X68025000Y-100270000D01*
X60586840Y-95925000D02*
X62580920Y-97919080D01*
X54097500Y-95522500D02*
X54500000Y-95925000D01*
X53372590Y-92262500D02*
X54097500Y-92987410D01*
X50320000Y-93500000D02*
X51557500Y-92262500D01*
X51557500Y-92262500D02*
X53372590Y-92262500D01*
%TO.N,PIO2_RX*%
X83712500Y-96212500D02*
X85975000Y-98475000D01*
X79387500Y-96212500D02*
X83712500Y-96212500D01*
X79100000Y-96500000D02*
X79387500Y-96212500D01*
D31*
%TO.N,Net-(RN1-R4.2)*%
X94010000Y-101290000D02*
X90360000Y-97640000D01*
%TO.N,PIO2_RX*%
X85975000Y-100668528D02*
X85975000Y-98475000D01*
X85103528Y-101540000D02*
X85975000Y-100668528D01*
%TO.N,PIO2_TX*%
X83270000Y-100270000D02*
X80000000Y-97000000D01*
D32*
%TO.N,PIO2_RX*%
X79100000Y-96500000D02*
X79100000Y-97000000D01*
X78812500Y-96212500D02*
X79100000Y-96500000D01*
X60850000Y-95350000D02*
X61712500Y-96212500D01*
X59290000Y-95350000D02*
X60850000Y-95350000D01*
X57940000Y-94000000D02*
X59290000Y-95350000D01*
X61712500Y-96212500D02*
X78812500Y-96212500D01*
%TO.N,3V3*%
X63530000Y-102455000D02*
X63530000Y-101290000D01*
X65075000Y-104000000D02*
X63530000Y-102455000D01*
X67472500Y-103362500D02*
X68025000Y-102810000D01*
X65075000Y-104000000D02*
X65712500Y-103362500D01*
X65712500Y-103362500D02*
X67472500Y-103362500D01*
%TO.N,PIO1_RX*%
X66562640Y-102437360D02*
X67460000Y-101540000D01*
X64682500Y-102182500D02*
X64937360Y-102437360D01*
X64682500Y-100833832D02*
X64682500Y-102182500D01*
X60348668Y-96500000D02*
X64682500Y-100833832D01*
X64937360Y-102437360D02*
X66562640Y-102437360D01*
X67460000Y-101540000D02*
X68025000Y-101540000D01*
X53500000Y-96500000D02*
X60348668Y-96500000D01*
X52860000Y-95860000D02*
X53500000Y-96500000D01*
X52860000Y-94000000D02*
X52860000Y-95860000D01*
%TO.N,Net-(RN4-R3.2)*%
X51314061Y-95712500D02*
X46712500Y-95712500D01*
X51601562Y-96000000D02*
X51314061Y-95712500D01*
X52000000Y-96000000D02*
X51601562Y-96000000D01*
X54000000Y-98000000D02*
X52000000Y-96000000D01*
X57200000Y-98000000D02*
X54000000Y-98000000D01*
X60490000Y-101290000D02*
X57200000Y-98000000D01*
%TO.N,3V3*%
X112662640Y-102437360D02*
X113810000Y-101290000D01*
X109627360Y-102437360D02*
X112662640Y-102437360D01*
X108480000Y-101290000D02*
X109627360Y-102437360D01*
X92857500Y-102427500D02*
X91720000Y-101290000D01*
X95912500Y-102427500D02*
X92857500Y-102427500D01*
X97050000Y-101290000D02*
X95912500Y-102427500D01*
X80290000Y-101715000D02*
X82075000Y-103500000D01*
X80290000Y-101290000D02*
X80290000Y-101715000D01*
X76107360Y-102437360D02*
X79142640Y-102437360D01*
X79142640Y-102437360D02*
X80290000Y-101290000D01*
X74960000Y-101290000D02*
X76107360Y-102437360D01*
X62392500Y-102427500D02*
X63530000Y-101290000D01*
X59337500Y-102427500D02*
X62392500Y-102427500D01*
X58200000Y-101290000D02*
X59337500Y-102427500D01*
D31*
X41790000Y-101290000D02*
X41440000Y-101290000D01*
X42990000Y-102490000D02*
X41790000Y-101290000D01*
X45570000Y-102490000D02*
X42990000Y-102490000D01*
X46770000Y-101290000D02*
X45570000Y-102490000D01*
%TO.N,Serial2_RX*%
X46000000Y-96350000D02*
X45240000Y-95590000D01*
X51050000Y-96350000D02*
X46000000Y-96350000D01*
%TO.N,Serial1_RX*%
X33489950Y-96500000D02*
X32540000Y-95550050D01*
X42500000Y-96500000D02*
X33489950Y-96500000D01*
X42650000Y-96350000D02*
X42500000Y-96500000D01*
X32540000Y-95550050D02*
X32540000Y-94000000D01*
X43800000Y-96350000D02*
X42650000Y-96350000D01*
X43900000Y-96450000D02*
X43800000Y-96350000D01*
X43900000Y-97200000D02*
X43900000Y-96450000D01*
%TO.N,Serial1_TX*%
X33200000Y-97200000D02*
X30000000Y-94000000D01*
D30*
%TO.N,Earth*%
X117950000Y-112375000D02*
X123450000Y-112375000D01*
X117270000Y-113055000D02*
X117950000Y-112375000D01*
X107230000Y-113055000D02*
X117270000Y-113055000D01*
X106550000Y-112375000D02*
X107230000Y-113055000D01*
X101000000Y-112375000D02*
X106550000Y-112375000D01*
X100320000Y-113055000D02*
X101000000Y-112375000D01*
X90555000Y-113055000D02*
X100320000Y-113055000D01*
X90000000Y-112500000D02*
X90555000Y-113055000D01*
X84900000Y-112500000D02*
X90000000Y-112500000D01*
X39487500Y-111875000D02*
X39550000Y-111937500D01*
X34050000Y-111875000D02*
X39487500Y-111875000D01*
D31*
%TO.N,Net-(D10-A2)*%
X126000000Y-108444796D02*
X126000000Y-105500000D01*
X124400000Y-110500000D02*
X124400000Y-110044796D01*
X124400000Y-110044796D02*
X126000000Y-108444796D01*
%TO.N,Net-(D10-A1)*%
X123690000Y-103500000D02*
X123000000Y-102810000D01*
X126000000Y-103500000D02*
X123690000Y-103500000D01*
X124414000Y-105086000D02*
X126000000Y-103500000D01*
X124414000Y-107706000D02*
X124414000Y-105086000D01*
X124230000Y-107890000D02*
X124414000Y-107706000D01*
X122500000Y-109620000D02*
X124230000Y-107890000D01*
X122500000Y-110500000D02*
X122500000Y-109620000D01*
%TO.N,Net-(D11-A2)*%
X120175000Y-101271472D02*
X122446472Y-99000000D01*
X120175000Y-104035000D02*
X120175000Y-101271472D01*
X120000000Y-104210000D02*
X120175000Y-104035000D01*
X117290000Y-104210000D02*
X120000000Y-104210000D01*
X115918000Y-105582000D02*
X117290000Y-104210000D01*
X115918000Y-106734660D02*
X115918000Y-105582000D01*
X117073340Y-107890000D02*
X115918000Y-106734660D01*
X122446472Y-99000000D02*
X123000000Y-99000000D01*
X118134000Y-107890000D02*
X117073340Y-107890000D01*
%TO.N,Net-(D11-A1)*%
X122240050Y-100270000D02*
X123000000Y-100270000D01*
X120875000Y-104445000D02*
X120875000Y-101635050D01*
X120875000Y-101635050D02*
X122240050Y-100270000D01*
X120410000Y-104910000D02*
X120875000Y-104445000D01*
X118318000Y-104910000D02*
X120410000Y-104910000D01*
X117118000Y-106110000D02*
X118318000Y-104910000D01*
%TO.N,Net-(D10-A2)*%
X121575000Y-103208528D02*
X121575000Y-101925000D01*
X121960000Y-101540000D02*
X123000000Y-101540000D01*
X122366472Y-104000000D02*
X121575000Y-103208528D01*
X123214000Y-104714000D02*
X122500000Y-104000000D01*
X122500000Y-104000000D02*
X122366472Y-104000000D01*
X121575000Y-101925000D02*
X121960000Y-101540000D01*
X123214000Y-106110000D02*
X123214000Y-104714000D01*
%TO.N,PIO3_TX*%
X105636522Y-97000000D02*
X111000000Y-97000000D01*
X102366522Y-100270000D02*
X105636522Y-97000000D01*
X101500000Y-100270000D02*
X102366522Y-100270000D01*
%TO.N,PIO3_RX*%
X111800000Y-97650000D02*
X111800000Y-97000000D01*
X105776472Y-97850000D02*
X111600000Y-97850000D01*
X104953261Y-98673211D02*
X105776472Y-97850000D01*
X102366522Y-101540000D02*
X104953261Y-98953261D01*
X104953261Y-98953261D02*
X104953261Y-98673211D01*
X111600000Y-97850000D02*
X111800000Y-97650000D01*
X101500000Y-101540000D02*
X102366522Y-101540000D01*
%TO.N,Net-(RN2-R1.2)*%
X110770000Y-99030000D02*
X111000000Y-98800000D01*
X110770000Y-101290000D02*
X110770000Y-99030000D01*
%TO.N,Net-(D12-A1)*%
X109500000Y-103500000D02*
X107140000Y-103500000D01*
X107140000Y-103500000D02*
X106450000Y-102810000D01*
X108350000Y-104650000D02*
X109500000Y-103500000D01*
X108350000Y-107010000D02*
X108350000Y-104650000D01*
X107470000Y-107890000D02*
X108350000Y-107010000D01*
%TO.N,Net-(D12-A2)*%
X107500000Y-110184796D02*
X109500000Y-108184796D01*
X109500000Y-108184796D02*
X109500000Y-105500000D01*
X107500000Y-110500000D02*
X107500000Y-110184796D01*
%TO.N,Net-(D12-A1)*%
X105600000Y-110500000D02*
X105600000Y-109760000D01*
X105600000Y-109760000D02*
X107470000Y-107890000D01*
%TO.N,Net-(D13-A2)*%
X101950000Y-108466000D02*
X101374000Y-107890000D01*
X101950000Y-110500000D02*
X101950000Y-108466000D01*
%TO.N,Net-(D13-A1)*%
X101558000Y-104910000D02*
X104000000Y-104910000D01*
X104300000Y-104610000D02*
X104300000Y-101866472D01*
X104300000Y-101866472D02*
X105896472Y-100270000D01*
X100358000Y-106110000D02*
X101558000Y-104910000D01*
X104000000Y-104910000D02*
X104300000Y-104610000D01*
X105896472Y-100270000D02*
X106450000Y-100270000D01*
%TO.N,Net-(D12-A2)*%
X105000000Y-102436472D02*
X105896472Y-101540000D01*
X105896472Y-101540000D02*
X106450000Y-101540000D01*
X105816472Y-104000000D02*
X105000000Y-103183528D01*
X105000000Y-103183528D02*
X105000000Y-102436472D01*
X106000000Y-104000000D02*
X105816472Y-104000000D01*
X106454000Y-104454000D02*
X106000000Y-104000000D01*
X106454000Y-106110000D02*
X106454000Y-104454000D01*
%TO.N,PIO2_TX*%
X80000000Y-97000000D02*
X79900000Y-97000000D01*
X84550000Y-100270000D02*
X83270000Y-100270000D01*
%TO.N,PIO2_RX*%
X84550000Y-101540000D02*
X85103528Y-101540000D01*
%TO.N,Net-(RN1-R3.2)*%
X79100000Y-99600000D02*
X79100000Y-98800000D01*
X80940000Y-99650000D02*
X79150000Y-99650000D01*
X79150000Y-99650000D02*
X79100000Y-99600000D01*
X82580000Y-101290000D02*
X80940000Y-99650000D01*
%TO.N,Net-(D8-A1)*%
X72100000Y-109740000D02*
X73950000Y-107890000D01*
X72100000Y-110000000D02*
X72100000Y-109740000D01*
%TO.N,Net-(D6-A1)*%
X89050000Y-109550000D02*
X90710000Y-107890000D01*
X89050000Y-110625000D02*
X89050000Y-109550000D01*
X90190000Y-103500000D02*
X89500000Y-102810000D01*
X92500000Y-103500000D02*
X90190000Y-103500000D01*
X91222943Y-104777057D02*
X92500000Y-103500000D01*
X91222943Y-107377057D02*
X91222943Y-104777057D01*
X90710000Y-107890000D02*
X91222943Y-107377057D01*
%TO.N,Net-(D6-A2)*%
X92500000Y-108424796D02*
X92500000Y-105500000D01*
X90950000Y-109974796D02*
X92500000Y-108424796D01*
X90950000Y-110625000D02*
X90950000Y-109974796D01*
%TO.N,Net-(D7-A2)*%
X85850000Y-109126000D02*
X84614000Y-107890000D01*
X85850000Y-110625000D02*
X85850000Y-109126000D01*
X88946472Y-99000000D02*
X89500000Y-99000000D01*
X88000000Y-99946472D02*
X88946472Y-99000000D01*
X88000000Y-100000000D02*
X88000000Y-99946472D01*
X86675000Y-101325000D02*
X88000000Y-100000000D01*
X86675000Y-104210000D02*
X86675000Y-101325000D01*
X84508051Y-104210000D02*
X86675000Y-104210000D01*
X84359025Y-104359025D02*
X84508051Y-104210000D01*
X83651918Y-104359025D02*
X84359025Y-104359025D01*
X82398000Y-105612943D02*
X83651918Y-104359025D01*
X82398000Y-106734660D02*
X82398000Y-105612943D01*
X83553340Y-107890000D02*
X82398000Y-106734660D01*
X84614000Y-107890000D02*
X83553340Y-107890000D01*
%TO.N,Net-(D7-A1)*%
X88946472Y-100270000D02*
X89500000Y-100270000D01*
X87375000Y-104780949D02*
X87375000Y-101841472D01*
X84798000Y-104910000D02*
X87245950Y-104910000D01*
X87245950Y-104910000D02*
X87375000Y-104780949D01*
X83598000Y-106110000D02*
X84798000Y-104910000D01*
X87375000Y-101841472D02*
X88946472Y-100270000D01*
%TO.N,Net-(D6-A2)*%
X88946472Y-101540000D02*
X89500000Y-101540000D01*
X88075000Y-102411472D02*
X88946472Y-101540000D01*
X88075000Y-104491000D02*
X88075000Y-102411472D01*
X89694000Y-106110000D02*
X88075000Y-104491000D01*
%TO.N,3V3*%
X83860000Y-103500000D02*
X84550000Y-102810000D01*
X82075000Y-103500000D02*
X83860000Y-103500000D01*
%TO.N,Net-(RN1-R2.2)*%
X78133791Y-99660550D02*
X78300000Y-99494341D01*
X78300000Y-99494341D02*
X78300000Y-98800000D01*
%TO.N,Net-(RN1-R1.2)*%
X77250000Y-99050000D02*
X77500000Y-98800000D01*
X77250000Y-101290000D02*
X77250000Y-99050000D01*
%TO.N,PIO1_TX*%
X71848528Y-97000000D02*
X77500000Y-97000000D01*
X68578528Y-100270000D02*
X71848528Y-97000000D01*
X68025000Y-100270000D02*
X68578528Y-100270000D01*
%TO.N,Net-(D9-A2)*%
X71500000Y-99921472D02*
X72421472Y-99000000D01*
X72421472Y-99000000D02*
X72975000Y-99000000D01*
X71500000Y-100000000D02*
X71500000Y-99921472D01*
%TO.N,PIO1_RX*%
X78300000Y-97750000D02*
X78300000Y-97000000D01*
X72168528Y-97950000D02*
X78100000Y-97950000D01*
X68578528Y-101540000D02*
X72168528Y-97950000D01*
X68025000Y-101540000D02*
X68578528Y-101540000D01*
X78100000Y-97950000D02*
X78300000Y-97750000D01*
%TO.N,Net-(D9-A2)*%
X70150000Y-101350000D02*
X71500000Y-100000000D01*
X70150000Y-104000000D02*
X70150000Y-101350000D01*
X67250943Y-104000000D02*
X70150000Y-104000000D01*
X65638000Y-106607057D02*
X65638000Y-105612943D01*
X66920943Y-107890000D02*
X65638000Y-106607057D01*
X65638000Y-105612943D02*
X67250943Y-104000000D01*
X67854000Y-107890000D02*
X66920943Y-107890000D01*
%TO.N,Net-(D9-A1)*%
X72421472Y-100270000D02*
X72975000Y-100270000D01*
X70850000Y-104650000D02*
X70850000Y-101841472D01*
X70850000Y-101841472D02*
X72421472Y-100270000D01*
X70590000Y-104910000D02*
X70850000Y-104650000D01*
X68038000Y-104910000D02*
X70590000Y-104910000D01*
X66838000Y-106110000D02*
X68038000Y-104910000D01*
%TO.N,Net-(D8-A2)*%
X71550000Y-102411472D02*
X71550000Y-104726000D01*
X72421472Y-101540000D02*
X71550000Y-102411472D01*
X72975000Y-101540000D02*
X72421472Y-101540000D01*
X71550000Y-104726000D02*
X72934000Y-106110000D01*
%TO.N,3V3*%
X48575000Y-103500000D02*
X48575000Y-103095000D01*
X48575000Y-103095000D02*
X46770000Y-101290000D01*
%TO.N,Net-(D8-A2)*%
X75500000Y-107500000D02*
X75500000Y-105500000D01*
%TO.N,Net-(D8-A1)*%
X74134000Y-104866000D02*
X75500000Y-103500000D01*
X74134000Y-107706000D02*
X74134000Y-104866000D01*
X73950000Y-107890000D02*
X74134000Y-107706000D01*
X73190000Y-103500000D02*
X72500000Y-102810000D01*
X75500000Y-103500000D02*
X73190000Y-103500000D01*
%TO.N,Net-(D4-A2)*%
X59000000Y-105500000D02*
X59000000Y-107500000D01*
X59000000Y-108404796D02*
X59000000Y-107500000D01*
%TO.N,Net-(D4-A1)*%
X57702943Y-104797057D02*
X59000000Y-103500000D01*
X57702943Y-107377057D02*
X57702943Y-104797057D01*
X57190000Y-107890000D02*
X57702943Y-107377057D01*
%TO.N,Net-(D9-A2)*%
X68900000Y-108936000D02*
X67854000Y-107890000D01*
X68900000Y-110500000D02*
X68900000Y-108936000D01*
%TO.N,Net-(D4-A2)*%
X59000000Y-107300000D02*
X59000000Y-108404796D01*
%TO.N,Serial2_RX*%
X52000000Y-97300000D02*
X51050000Y-96350000D01*
%TO.N,Serial2_TX*%
X51500000Y-98000000D02*
X50700000Y-97200000D01*
%TO.N,Serial2_RX*%
X52300000Y-97300000D02*
X52000000Y-97300000D01*
X53500000Y-98500000D02*
X52300000Y-97300000D01*
X53500000Y-99593528D02*
X53500000Y-98500000D01*
X51553528Y-101540000D02*
X53500000Y-99593528D01*
X51000000Y-101540000D02*
X51553528Y-101540000D01*
%TO.N,Serial2_TX*%
X52000000Y-98000000D02*
X51500000Y-98000000D01*
X52425000Y-98425000D02*
X52000000Y-98000000D01*
X52425000Y-99398528D02*
X52425000Y-98425000D01*
X51553528Y-100270000D02*
X52425000Y-99398528D01*
X51000000Y-100270000D02*
X51553528Y-100270000D01*
%TO.N,Serial1_RX*%
X43900000Y-98100000D02*
X43900000Y-97200000D01*
X38428528Y-98150000D02*
X43850000Y-98150000D01*
X35078528Y-101500000D02*
X38428528Y-98150000D01*
X34525000Y-101500000D02*
X35078528Y-101500000D01*
X43850000Y-98150000D02*
X43900000Y-98100000D01*
%TO.N,Serial1_TX*%
X38388579Y-97200000D02*
X35358578Y-100230000D01*
X35358578Y-100230000D02*
X34525000Y-100230000D01*
X43100000Y-97200000D02*
X38388579Y-97200000D01*
%TO.N,Net-(RN4-R1.2)*%
X42980000Y-99120000D02*
X43100000Y-99000000D01*
X43730000Y-101290000D02*
X42980000Y-100540000D01*
X42980000Y-100540000D02*
X42980000Y-99120000D01*
%TO.N,3V3*%
X49265000Y-102810000D02*
X51000000Y-102810000D01*
X48575000Y-103500000D02*
X49265000Y-102810000D01*
%TO.N,Net-(D5-A2)*%
X55396472Y-99000000D02*
X55950000Y-99000000D01*
X53000000Y-101396472D02*
X55396472Y-99000000D01*
X52200000Y-103800000D02*
X53000000Y-103000000D01*
X53000000Y-103000000D02*
X53000000Y-101396472D01*
X48878000Y-106734660D02*
X48878000Y-105612943D01*
X48878000Y-105612943D02*
X50690943Y-103800000D01*
X50033340Y-107890000D02*
X48878000Y-106734660D01*
X51094000Y-107890000D02*
X50033340Y-107890000D01*
X50690943Y-103800000D02*
X52200000Y-103800000D01*
%TO.N,Net-(D5-A1)*%
X51688000Y-104500000D02*
X50078000Y-106110000D01*
X53800000Y-104500000D02*
X51688000Y-104500000D01*
X53800000Y-101866472D02*
X53800000Y-104500000D01*
X55396472Y-100270000D02*
X53800000Y-101866472D01*
X55950000Y-100270000D02*
X55396472Y-100270000D01*
%TO.N,Net-(D4-A2)*%
X54500000Y-104436000D02*
X56174000Y-106110000D01*
X55396472Y-101540000D02*
X54500000Y-102436472D01*
X55950000Y-101540000D02*
X55396472Y-101540000D01*
X54500000Y-102436472D02*
X54500000Y-104436000D01*
X57500000Y-109904796D02*
X57500000Y-110000000D01*
X59000000Y-108404796D02*
X57500000Y-109904796D01*
%TO.N,Net-(D4-A1)*%
X56640000Y-103500000D02*
X55950000Y-102810000D01*
X59000000Y-103500000D02*
X56640000Y-103500000D01*
X55600000Y-109480000D02*
X57190000Y-107890000D01*
X55600000Y-110000000D02*
X55600000Y-109480000D01*
%TO.N,Net-(D1-A2)*%
X40582296Y-110062500D02*
X40500000Y-110062500D01*
X42000000Y-108644796D02*
X40582296Y-110062500D01*
X42000000Y-105500000D02*
X42000000Y-108644796D01*
%TO.N,Net-(D1-A1)*%
X41023000Y-103500000D02*
X40614000Y-103909000D01*
X42000000Y-103500000D02*
X41023000Y-103500000D01*
%TO.N,GND*%
X28810000Y-100792943D02*
X30642943Y-98960000D01*
X28810000Y-102310000D02*
X28810000Y-100792943D01*
X30000000Y-103500000D02*
X28810000Y-102310000D01*
X30642943Y-98960000D02*
X34525000Y-98960000D01*
%TO.N,3V3*%
X32075000Y-103500000D02*
X32075000Y-103355000D01*
X32075000Y-103355000D02*
X30010000Y-101290000D01*
X32805000Y-102770000D02*
X34525000Y-102770000D01*
X32075000Y-103500000D02*
X32805000Y-102770000D01*
%TO.N,Net-(D1-A2)*%
X38921472Y-101500000D02*
X38000000Y-102421472D01*
X38000000Y-102421472D02*
X38000000Y-104696000D01*
X39475000Y-101500000D02*
X38921472Y-101500000D01*
X38000000Y-104696000D02*
X39414000Y-106110000D01*
%TO.N,Net-(D1-A1)*%
X40614000Y-107706000D02*
X40430000Y-107890000D01*
X40614000Y-103909000D02*
X40614000Y-107706000D01*
X39475000Y-102770000D02*
X40614000Y-103909000D01*
%TO.N,Net-(D2-A2)*%
X35000000Y-108556000D02*
X34334000Y-107890000D01*
X35000000Y-110000000D02*
X35000000Y-108556000D01*
%TO.N,Net-(D2-A1)*%
X36650000Y-102501472D02*
X36650000Y-103458478D01*
X36650000Y-103458478D02*
X35608478Y-104500000D01*
X34928000Y-104500000D02*
X33318000Y-106110000D01*
X38921472Y-100230000D02*
X36650000Y-102501472D01*
X39475000Y-100230000D02*
X38921472Y-100230000D01*
X35608478Y-104500000D02*
X34928000Y-104500000D01*
%TO.N,Net-(D2-A2)*%
X33390000Y-107890000D02*
X34334000Y-107890000D01*
X32000000Y-106500000D02*
X33390000Y-107890000D01*
X32000000Y-105730943D02*
X32000000Y-106500000D01*
X34210943Y-103520000D02*
X32000000Y-105730943D01*
X35598528Y-103520000D02*
X34210943Y-103520000D01*
X35950000Y-103168528D02*
X35598528Y-103520000D01*
X35950000Y-101931472D02*
X35950000Y-103168528D01*
X38921472Y-98960000D02*
X35950000Y-101931472D01*
X39475000Y-98960000D02*
X38921472Y-98960000D01*
%TO.N,Net-(D1-A1)*%
X40430000Y-108232500D02*
X38600000Y-110062500D01*
X40430000Y-107890000D02*
X40430000Y-108232500D01*
%TD*%
%TA.AperFunction,Conductor*%
%TO.N,GND*%
G36*
X95775500Y-103132113D02*
G01*
X95820887Y-103177500D01*
X95837500Y-103239500D01*
X95837500Y-103375000D01*
X97176000Y-103375000D01*
X97238000Y-103391613D01*
X97283387Y-103437000D01*
X97300000Y-103499000D01*
X97300000Y-104974999D01*
X97312479Y-104974999D01*
X97415195Y-104964506D01*
X97581622Y-104909357D01*
X97730845Y-104817316D01*
X97854813Y-104693348D01*
X97856664Y-104690348D01*
X97901771Y-104647164D01*
X97962204Y-104631440D01*
X98022638Y-104647163D01*
X98067745Y-104690344D01*
X98069596Y-104693345D01*
X98069790Y-104693659D01*
X98193842Y-104817711D01*
X98212263Y-104829073D01*
X98343166Y-104909814D01*
X98394199Y-104926724D01*
X98439630Y-104953619D01*
X98469755Y-104996976D01*
X98479113Y-105048936D01*
X98466007Y-105100078D01*
X98447392Y-105137143D01*
X98440996Y-105155547D01*
X98425573Y-105230237D01*
X98424793Y-105233754D01*
X98407208Y-105307954D01*
X98405229Y-105327327D01*
X98407448Y-105403580D01*
X98407500Y-105407186D01*
X98407500Y-106038976D01*
X98395324Y-106092562D01*
X98361186Y-106135624D01*
X98311792Y-106159705D01*
X98256842Y-106160077D01*
X98255152Y-106159705D01*
X98245896Y-106157667D01*
X98201412Y-106147875D01*
X98198146Y-106147109D01*
X98118885Y-106127399D01*
X98118689Y-106127394D01*
X98095418Y-106124544D01*
X98095218Y-106124500D01*
X98095216Y-106124500D01*
X98013537Y-106124500D01*
X98010179Y-106124455D01*
X97928528Y-106122243D01*
X97928527Y-106122243D01*
X97928342Y-106122278D01*
X97904976Y-106124500D01*
X96998689Y-106124500D01*
X96938100Y-106108689D01*
X96892962Y-106065290D01*
X96887354Y-106056139D01*
X96869412Y-106026860D01*
X96700689Y-105829311D01*
X96508408Y-105665087D01*
X96503143Y-105660590D01*
X96502996Y-105660500D01*
X96281628Y-105524846D01*
X96181216Y-105483254D01*
X96041610Y-105425426D01*
X95788995Y-105364779D01*
X95530000Y-105344396D01*
X95271004Y-105364779D01*
X95018389Y-105425426D01*
X94825500Y-105505325D01*
X94778372Y-105524846D01*
X94680500Y-105584822D01*
X94556856Y-105660590D01*
X94359311Y-105829311D01*
X94190590Y-106026856D01*
X94159319Y-106077886D01*
X94054846Y-106248372D01*
X94040285Y-106283524D01*
X93955426Y-106488389D01*
X93894779Y-106741004D01*
X93874396Y-107000000D01*
X93894779Y-107258995D01*
X93955426Y-107511610D01*
X93996487Y-107610737D01*
X94054846Y-107751628D01*
X94176548Y-107950229D01*
X94190590Y-107973143D01*
X94240100Y-108031111D01*
X94359311Y-108170689D01*
X94478536Y-108272517D01*
X94533584Y-108319533D01*
X94556860Y-108339412D01*
X94778372Y-108475154D01*
X94943637Y-108543609D01*
X95018389Y-108574573D01*
X95093948Y-108592713D01*
X95271006Y-108635221D01*
X95530000Y-108655604D01*
X95788994Y-108635221D01*
X96041610Y-108574573D01*
X96281628Y-108475154D01*
X96503140Y-108339412D01*
X96700689Y-108170689D01*
X96869412Y-107973140D01*
X96892961Y-107934710D01*
X96938100Y-107891311D01*
X96998689Y-107875500D01*
X97585994Y-107875500D01*
X97633447Y-107884939D01*
X97673675Y-107911819D01*
X98174700Y-108412844D01*
X98206987Y-108469161D01*
X98206394Y-108534074D01*
X98173084Y-108589793D01*
X98116187Y-108621046D01*
X98051296Y-108619268D01*
X97968881Y-108594473D01*
X97697269Y-108554500D01*
X97491453Y-108554500D01*
X97491449Y-108554500D01*
X97286194Y-108569522D01*
X97018225Y-108629215D01*
X96761803Y-108727288D01*
X96522391Y-108861653D01*
X96305094Y-109029443D01*
X96114545Y-109227083D01*
X95954802Y-109450364D01*
X95829272Y-109694521D01*
X95740629Y-109954352D01*
X95690763Y-110224325D01*
X95680737Y-110498678D01*
X95710763Y-110771569D01*
X95749601Y-110920124D01*
X95780204Y-111037182D01*
X95887019Y-111288540D01*
X95887577Y-111289852D01*
X96030596Y-111524199D01*
X96094661Y-111601181D01*
X96122337Y-111664689D01*
X96111625Y-111733133D01*
X96065868Y-111785148D01*
X95999349Y-111804500D01*
X95063878Y-111804500D01*
X94999281Y-111786346D01*
X94953600Y-111737198D01*
X94940209Y-111671449D01*
X94963030Y-111608350D01*
X95069583Y-111459415D01*
X95105196Y-111409637D01*
X95230727Y-111165479D01*
X95290809Y-110989365D01*
X95319370Y-110905647D01*
X95369236Y-110635674D01*
X95379262Y-110361321D01*
X95379157Y-110360371D01*
X95349236Y-110088429D01*
X95279796Y-109822818D01*
X95172423Y-109570148D01*
X95029405Y-109335804D01*
X94853791Y-109124782D01*
X94649323Y-108941577D01*
X94420359Y-108790096D01*
X94171779Y-108673567D01*
X93908881Y-108594473D01*
X93637269Y-108554500D01*
X93431453Y-108554500D01*
X93431448Y-108554500D01*
X93384196Y-108557958D01*
X93319518Y-108545111D01*
X93270571Y-108500923D01*
X93251198Y-108437893D01*
X93250660Y-108419409D01*
X93250552Y-108415661D01*
X93250500Y-108412059D01*
X93250500Y-106615638D01*
X93266223Y-106555206D01*
X93309404Y-106510099D01*
X93361407Y-106478023D01*
X93418656Y-106442712D01*
X93542712Y-106318656D01*
X93634814Y-106169334D01*
X93689999Y-106002797D01*
X93700500Y-105900009D01*
X93700499Y-105099992D01*
X93697201Y-105067711D01*
X93689999Y-104997203D01*
X93679164Y-104964506D01*
X93634814Y-104830666D01*
X93571961Y-104728764D01*
X93542711Y-104681342D01*
X93449049Y-104587680D01*
X93416955Y-104532092D01*
X93416955Y-104467905D01*
X93449048Y-104412319D01*
X93542712Y-104318656D01*
X93634814Y-104169334D01*
X93649505Y-104125000D01*
X95837501Y-104125000D01*
X95837501Y-104274979D01*
X95847993Y-104377695D01*
X95903142Y-104544122D01*
X95995183Y-104693345D01*
X96119154Y-104817316D01*
X96268377Y-104909357D01*
X96434803Y-104964506D01*
X96537521Y-104975000D01*
X96550000Y-104975000D01*
X96550000Y-104125000D01*
X95837501Y-104125000D01*
X93649505Y-104125000D01*
X93689999Y-104002797D01*
X93700500Y-103900009D01*
X93700499Y-103239499D01*
X93717112Y-103177500D01*
X93762499Y-103132113D01*
X93824499Y-103115500D01*
X95713500Y-103115500D01*
X95775500Y-103132113D01*
G37*
%TD.AperFunction*%
%TA.AperFunction,Conductor*%
G36*
X80313000Y-103141613D02*
G01*
X80358387Y-103187000D01*
X80375000Y-103249000D01*
X80375000Y-104724999D01*
X80387479Y-104724999D01*
X80490195Y-104714506D01*
X80656622Y-104659357D01*
X80805845Y-104567316D01*
X80929813Y-104443348D01*
X80931664Y-104440348D01*
X80976771Y-104397164D01*
X81037204Y-104381440D01*
X81097638Y-104397163D01*
X81142746Y-104440345D01*
X81144790Y-104443659D01*
X81268842Y-104567711D01*
X81301217Y-104587680D01*
X81418166Y-104659814D01*
X81510957Y-104690562D01*
X81584702Y-104714999D01*
X81594229Y-104715972D01*
X81687491Y-104725500D01*
X81924713Y-104725499D01*
X81981006Y-104739014D01*
X82025030Y-104776613D01*
X82047185Y-104830101D01*
X82042643Y-104887817D01*
X82012393Y-104937180D01*
X81912358Y-105037215D01*
X81898727Y-105048996D01*
X81879467Y-105063335D01*
X81847633Y-105101272D01*
X81840341Y-105109232D01*
X81836408Y-105113165D01*
X81817176Y-105137488D01*
X81814902Y-105140280D01*
X81765894Y-105198687D01*
X81755418Y-105215130D01*
X81723192Y-105284237D01*
X81721622Y-105287479D01*
X81687393Y-105355635D01*
X81680996Y-105374041D01*
X81665573Y-105448731D01*
X81664793Y-105452248D01*
X81647208Y-105526448D01*
X81645229Y-105545821D01*
X81647448Y-105622074D01*
X81647500Y-105625680D01*
X81647500Y-106000500D01*
X81630887Y-106062500D01*
X81585500Y-106107887D01*
X81523500Y-106124500D01*
X81510151Y-106124500D01*
X81506793Y-106124455D01*
X81425142Y-106122243D01*
X81425141Y-106122243D01*
X81424956Y-106122278D01*
X81401590Y-106124500D01*
X80238689Y-106124500D01*
X80178100Y-106108689D01*
X80132962Y-106065290D01*
X80127354Y-106056139D01*
X80109412Y-106026860D01*
X79940689Y-105829311D01*
X79748408Y-105665087D01*
X79743143Y-105660590D01*
X79742996Y-105660500D01*
X79521628Y-105524846D01*
X79421216Y-105483254D01*
X79281610Y-105425426D01*
X79028995Y-105364779D01*
X78770000Y-105344396D01*
X78511004Y-105364779D01*
X78258389Y-105425426D01*
X78065500Y-105505325D01*
X78018372Y-105524846D01*
X77920500Y-105584822D01*
X77796856Y-105660590D01*
X77599311Y-105829311D01*
X77430590Y-106026856D01*
X77399319Y-106077886D01*
X77294846Y-106248372D01*
X77280285Y-106283524D01*
X77195426Y-106488389D01*
X77134779Y-106741004D01*
X77114396Y-107000000D01*
X77134779Y-107258995D01*
X77195426Y-107511610D01*
X77236487Y-107610737D01*
X77294846Y-107751628D01*
X77416548Y-107950229D01*
X77430590Y-107973143D01*
X77480100Y-108031111D01*
X77599311Y-108170689D01*
X77718536Y-108272517D01*
X77773584Y-108319533D01*
X77796860Y-108339412D01*
X78018372Y-108475154D01*
X78183637Y-108543609D01*
X78258389Y-108574573D01*
X78333948Y-108592713D01*
X78511006Y-108635221D01*
X78770000Y-108655604D01*
X79028994Y-108635221D01*
X79281610Y-108574573D01*
X79521628Y-108475154D01*
X79743140Y-108339412D01*
X79940689Y-108170689D01*
X80109412Y-107973140D01*
X80132961Y-107934710D01*
X80178100Y-107891311D01*
X80238689Y-107875500D01*
X81082608Y-107875500D01*
X81130061Y-107884939D01*
X81170289Y-107911819D01*
X81837964Y-108579494D01*
X81871116Y-108639330D01*
X81867495Y-108707641D01*
X81828201Y-108763636D01*
X81765195Y-108790275D01*
X81697651Y-108779451D01*
X81471780Y-108673567D01*
X81324359Y-108629215D01*
X81208881Y-108594473D01*
X80937269Y-108554500D01*
X80731453Y-108554500D01*
X80731449Y-108554500D01*
X80526194Y-108569522D01*
X80258225Y-108629215D01*
X80001803Y-108727288D01*
X79762391Y-108861653D01*
X79545094Y-109029443D01*
X79354545Y-109227083D01*
X79194802Y-109450364D01*
X79069272Y-109694521D01*
X78980629Y-109954352D01*
X78930763Y-110224325D01*
X78920737Y-110498678D01*
X78950763Y-110771569D01*
X78989601Y-110920124D01*
X79020204Y-111037182D01*
X79127019Y-111288540D01*
X79127577Y-111289852D01*
X79270596Y-111524199D01*
X79334661Y-111601181D01*
X79362337Y-111664689D01*
X79351625Y-111733133D01*
X79305868Y-111785148D01*
X79239349Y-111804500D01*
X78303878Y-111804500D01*
X78239281Y-111786346D01*
X78193600Y-111737198D01*
X78180209Y-111671449D01*
X78203030Y-111608350D01*
X78309583Y-111459415D01*
X78345196Y-111409637D01*
X78470727Y-111165479D01*
X78530809Y-110989365D01*
X78559370Y-110905647D01*
X78609236Y-110635674D01*
X78619262Y-110361321D01*
X78619157Y-110360371D01*
X78589236Y-110088429D01*
X78519796Y-109822818D01*
X78412423Y-109570148D01*
X78269405Y-109335804D01*
X78093791Y-109124782D01*
X77889323Y-108941577D01*
X77660359Y-108790096D01*
X77411779Y-108673567D01*
X77148881Y-108594473D01*
X76877269Y-108554500D01*
X76671453Y-108554500D01*
X76671449Y-108554500D01*
X76466195Y-108569522D01*
X76409531Y-108582145D01*
X76401461Y-108583942D01*
X76346435Y-108583692D01*
X76296935Y-108559655D01*
X76262710Y-108516566D01*
X76250500Y-108462910D01*
X76250500Y-108034322D01*
X76267113Y-107972322D01*
X76327179Y-107868284D01*
X76348613Y-107802318D01*
X76385674Y-107688256D01*
X76405460Y-107500000D01*
X76385674Y-107311744D01*
X76327179Y-107131716D01*
X76327179Y-107131715D01*
X76267113Y-107027678D01*
X76250500Y-106965678D01*
X76250500Y-106615638D01*
X76266223Y-106555206D01*
X76309404Y-106510099D01*
X76361407Y-106478023D01*
X76418656Y-106442712D01*
X76542712Y-106318656D01*
X76634814Y-106169334D01*
X76689999Y-106002797D01*
X76700500Y-105900009D01*
X76700499Y-105099992D01*
X76697201Y-105067711D01*
X76689999Y-104997203D01*
X76679164Y-104964506D01*
X76634814Y-104830666D01*
X76571961Y-104728764D01*
X76542711Y-104681342D01*
X76449049Y-104587680D01*
X76416955Y-104532092D01*
X76416955Y-104467905D01*
X76449048Y-104412319D01*
X76542712Y-104318656D01*
X76634814Y-104169334D01*
X76689999Y-104002797D01*
X76700500Y-103900009D01*
X76700500Y-103875000D01*
X78912501Y-103875000D01*
X78912501Y-104024979D01*
X78922993Y-104127695D01*
X78978142Y-104294122D01*
X79070183Y-104443345D01*
X79194154Y-104567316D01*
X79343377Y-104659357D01*
X79509803Y-104714506D01*
X79612521Y-104725000D01*
X79625000Y-104725000D01*
X79625000Y-103875000D01*
X78912501Y-103875000D01*
X76700500Y-103875000D01*
X76700499Y-103249359D01*
X76717112Y-103187360D01*
X76762499Y-103141973D01*
X76824499Y-103125360D01*
X79118102Y-103125360D01*
X79125589Y-103125586D01*
X79128066Y-103125735D01*
X79184486Y-103129149D01*
X79196036Y-103127032D01*
X79218392Y-103125000D01*
X80251000Y-103125000D01*
X80313000Y-103141613D01*
G37*
%TD.AperFunction*%
%TA.AperFunction,Conductor*%
G36*
X61892826Y-103129097D02*
G01*
X61936900Y-103166907D01*
X61958927Y-103220637D01*
X61954076Y-103278504D01*
X61922993Y-103372303D01*
X61912500Y-103475021D01*
X61912500Y-103625000D01*
X63251000Y-103625000D01*
X63313000Y-103641613D01*
X63358387Y-103687000D01*
X63375000Y-103749000D01*
X63375000Y-105224999D01*
X63387479Y-105224999D01*
X63490195Y-105214506D01*
X63656622Y-105159357D01*
X63805845Y-105067316D01*
X63929813Y-104943348D01*
X63931664Y-104940348D01*
X63976771Y-104897164D01*
X64037204Y-104881440D01*
X64097638Y-104897163D01*
X64142746Y-104940345D01*
X64144790Y-104943659D01*
X64268842Y-105067711D01*
X64321318Y-105100078D01*
X64418166Y-105159814D01*
X64502209Y-105187663D01*
X64584702Y-105214999D01*
X64594229Y-105215972D01*
X64687491Y-105225500D01*
X64799449Y-105225499D01*
X64852668Y-105237501D01*
X64895587Y-105271184D01*
X64919895Y-105320027D01*
X64920886Y-105374576D01*
X64905573Y-105448731D01*
X64904793Y-105452248D01*
X64887208Y-105526448D01*
X64885229Y-105545821D01*
X64887448Y-105622074D01*
X64887500Y-105625680D01*
X64887500Y-106463649D01*
X64873985Y-106519944D01*
X64836385Y-106563967D01*
X64782898Y-106586122D01*
X64725182Y-106581580D01*
X64675819Y-106551330D01*
X64534138Y-106409649D01*
X64527310Y-106402242D01*
X64491979Y-106360646D01*
X64491977Y-106360645D01*
X64491976Y-106360643D01*
X64426935Y-106311201D01*
X64424306Y-106309145D01*
X64406252Y-106294633D01*
X64360642Y-106257970D01*
X64360639Y-106257968D01*
X64360635Y-106257965D01*
X64360465Y-106257881D01*
X64340532Y-106245517D01*
X64340380Y-106245401D01*
X64266241Y-106211100D01*
X64263217Y-106209650D01*
X64190037Y-106173358D01*
X64189844Y-106173310D01*
X64167720Y-106165520D01*
X64167541Y-106165437D01*
X64087757Y-106147874D01*
X64084491Y-106147109D01*
X64005230Y-106127399D01*
X64005034Y-106127394D01*
X63981763Y-106124544D01*
X63981563Y-106124500D01*
X63981561Y-106124500D01*
X63899882Y-106124500D01*
X63896524Y-106124455D01*
X63814873Y-106122243D01*
X63814872Y-106122243D01*
X63814687Y-106122278D01*
X63791321Y-106124500D01*
X63478689Y-106124500D01*
X63418100Y-106108689D01*
X63372962Y-106065290D01*
X63367354Y-106056139D01*
X63349412Y-106026860D01*
X63180689Y-105829311D01*
X62988408Y-105665087D01*
X62983143Y-105660590D01*
X62982996Y-105660500D01*
X62761628Y-105524846D01*
X62761625Y-105524845D01*
X62761624Y-105524844D01*
X62613674Y-105463561D01*
X62560809Y-105421885D01*
X62537509Y-105358729D01*
X62550642Y-105292705D01*
X62596337Y-105243273D01*
X62610808Y-105239191D01*
X62625000Y-105225000D01*
X62625000Y-104375000D01*
X61912501Y-104375000D01*
X61912501Y-104524979D01*
X61922993Y-104627695D01*
X61978142Y-104794122D01*
X62070183Y-104943345D01*
X62194153Y-105067315D01*
X62299204Y-105132111D01*
X62343828Y-105179882D01*
X62357959Y-105243707D01*
X62337668Y-105305849D01*
X62288595Y-105349037D01*
X62224379Y-105361267D01*
X62010000Y-105344396D01*
X61751004Y-105364779D01*
X61498389Y-105425426D01*
X61305500Y-105505325D01*
X61258372Y-105524846D01*
X61160500Y-105584822D01*
X61036856Y-105660590D01*
X60839311Y-105829311D01*
X60670590Y-106026856D01*
X60639319Y-106077886D01*
X60534846Y-106248372D01*
X60520285Y-106283524D01*
X60435426Y-106488389D01*
X60374779Y-106741004D01*
X60354396Y-107000000D01*
X60374779Y-107258995D01*
X60435426Y-107511610D01*
X60476487Y-107610737D01*
X60534846Y-107751628D01*
X60656548Y-107950229D01*
X60670590Y-107973143D01*
X60720100Y-108031111D01*
X60839311Y-108170689D01*
X60958536Y-108272517D01*
X61013584Y-108319533D01*
X61036860Y-108339412D01*
X61258372Y-108475154D01*
X61423637Y-108543609D01*
X61498389Y-108574573D01*
X61573948Y-108592713D01*
X61751006Y-108635221D01*
X62010000Y-108655604D01*
X62268994Y-108635221D01*
X62521610Y-108574573D01*
X62761628Y-108475154D01*
X62983140Y-108339412D01*
X63180689Y-108170689D01*
X63349412Y-107973140D01*
X63370550Y-107938645D01*
X63409422Y-107899002D01*
X63461701Y-107880297D01*
X63516902Y-107886281D01*
X63563957Y-107915756D01*
X63995356Y-108347155D01*
X64028830Y-108408428D01*
X64023893Y-108478073D01*
X63982109Y-108534010D01*
X63916726Y-108558505D01*
X63766194Y-108569522D01*
X63498225Y-108629215D01*
X63241803Y-108727288D01*
X63002391Y-108861653D01*
X62785094Y-109029443D01*
X62594545Y-109227083D01*
X62434802Y-109450364D01*
X62309272Y-109694521D01*
X62220629Y-109954352D01*
X62170763Y-110224325D01*
X62160737Y-110498678D01*
X62190763Y-110771569D01*
X62229601Y-110920124D01*
X62260204Y-111037182D01*
X62367019Y-111288540D01*
X62367577Y-111289852D01*
X62510596Y-111524199D01*
X62574661Y-111601181D01*
X62602337Y-111664689D01*
X62591625Y-111733133D01*
X62545868Y-111785148D01*
X62479349Y-111804500D01*
X61543878Y-111804500D01*
X61479281Y-111786346D01*
X61433600Y-111737198D01*
X61420209Y-111671449D01*
X61443030Y-111608350D01*
X61549583Y-111459415D01*
X61585196Y-111409637D01*
X61710727Y-111165479D01*
X61770809Y-110989365D01*
X61799370Y-110905647D01*
X61849236Y-110635674D01*
X61859262Y-110361321D01*
X61859157Y-110360371D01*
X61829236Y-110088429D01*
X61759796Y-109822818D01*
X61652423Y-109570148D01*
X61509405Y-109335804D01*
X61333791Y-109124782D01*
X61129323Y-108941577D01*
X60900359Y-108790096D01*
X60651779Y-108673567D01*
X60388881Y-108594473D01*
X60117269Y-108554500D01*
X59911453Y-108554500D01*
X59911448Y-108554500D01*
X59884734Y-108556455D01*
X59820057Y-108543609D01*
X59771110Y-108499422D01*
X59751736Y-108436391D01*
X59751622Y-108432484D01*
X59750552Y-108395685D01*
X59750500Y-108392080D01*
X59750500Y-108034322D01*
X59767113Y-107972322D01*
X59827179Y-107868284D01*
X59848613Y-107802318D01*
X59885674Y-107688256D01*
X59905460Y-107500000D01*
X59885674Y-107311744D01*
X59827179Y-107131716D01*
X59827179Y-107131715D01*
X59767113Y-107027678D01*
X59750500Y-106965678D01*
X59750500Y-106615638D01*
X59766223Y-106555206D01*
X59809404Y-106510099D01*
X59861407Y-106478023D01*
X59918656Y-106442712D01*
X60042712Y-106318656D01*
X60134814Y-106169334D01*
X60189999Y-106002797D01*
X60200500Y-105900009D01*
X60200499Y-105099992D01*
X60197201Y-105067711D01*
X60189999Y-104997203D01*
X60179164Y-104964506D01*
X60134814Y-104830666D01*
X60071961Y-104728764D01*
X60042711Y-104681342D01*
X59949049Y-104587680D01*
X59916955Y-104532092D01*
X59916955Y-104467905D01*
X59949048Y-104412319D01*
X60042712Y-104318656D01*
X60134814Y-104169334D01*
X60189999Y-104002797D01*
X60200500Y-103900009D01*
X60200499Y-103239499D01*
X60217112Y-103177500D01*
X60262499Y-103132113D01*
X60324499Y-103115500D01*
X61836370Y-103115500D01*
X61892826Y-103129097D01*
G37*
%TD.AperFunction*%
%TA.AperFunction,Conductor*%
G36*
X46813000Y-103141613D02*
G01*
X46858387Y-103187000D01*
X46875000Y-103249000D01*
X46875000Y-104724999D01*
X46887479Y-104724999D01*
X46990195Y-104714506D01*
X47156622Y-104659357D01*
X47305845Y-104567316D01*
X47429813Y-104443348D01*
X47431664Y-104440348D01*
X47476771Y-104397164D01*
X47537204Y-104381440D01*
X47597638Y-104397163D01*
X47642746Y-104440345D01*
X47644790Y-104443659D01*
X47768842Y-104567711D01*
X47801217Y-104587680D01*
X47918166Y-104659814D01*
X48010957Y-104690562D01*
X48084702Y-104714999D01*
X48094229Y-104715972D01*
X48187491Y-104725500D01*
X48404713Y-104725499D01*
X48461006Y-104739014D01*
X48505030Y-104776613D01*
X48527185Y-104830101D01*
X48522643Y-104887817D01*
X48492393Y-104937180D01*
X48392358Y-105037215D01*
X48378727Y-105048996D01*
X48359467Y-105063335D01*
X48327633Y-105101272D01*
X48320341Y-105109232D01*
X48316408Y-105113165D01*
X48297176Y-105137488D01*
X48294902Y-105140280D01*
X48245894Y-105198687D01*
X48235418Y-105215130D01*
X48203192Y-105284237D01*
X48201622Y-105287479D01*
X48167393Y-105355635D01*
X48160996Y-105374041D01*
X48145573Y-105448731D01*
X48144793Y-105452248D01*
X48127208Y-105526448D01*
X48125229Y-105545821D01*
X48127448Y-105622074D01*
X48127500Y-105625680D01*
X48127500Y-106000500D01*
X48110887Y-106062500D01*
X48065500Y-106107887D01*
X48003500Y-106124500D01*
X47990151Y-106124500D01*
X47986793Y-106124455D01*
X47905142Y-106122243D01*
X47905141Y-106122243D01*
X47904956Y-106122278D01*
X47881590Y-106124500D01*
X46718689Y-106124500D01*
X46658100Y-106108689D01*
X46612962Y-106065290D01*
X46607354Y-106056139D01*
X46589412Y-106026860D01*
X46420689Y-105829311D01*
X46228408Y-105665087D01*
X46223143Y-105660590D01*
X46222996Y-105660500D01*
X46001628Y-105524846D01*
X45901216Y-105483254D01*
X45761610Y-105425426D01*
X45508995Y-105364779D01*
X45250000Y-105344396D01*
X44991004Y-105364779D01*
X44738389Y-105425426D01*
X44545500Y-105505325D01*
X44498372Y-105524846D01*
X44400500Y-105584822D01*
X44276856Y-105660590D01*
X44079311Y-105829311D01*
X43910590Y-106026856D01*
X43879319Y-106077886D01*
X43774846Y-106248372D01*
X43760285Y-106283524D01*
X43675426Y-106488389D01*
X43614779Y-106741004D01*
X43594396Y-107000000D01*
X43614779Y-107258995D01*
X43675426Y-107511610D01*
X43716487Y-107610737D01*
X43774846Y-107751628D01*
X43896548Y-107950229D01*
X43910590Y-107973143D01*
X43960100Y-108031111D01*
X44079311Y-108170689D01*
X44198536Y-108272517D01*
X44253584Y-108319533D01*
X44276860Y-108339412D01*
X44498372Y-108475154D01*
X44663637Y-108543609D01*
X44738389Y-108574573D01*
X44813948Y-108592713D01*
X44991006Y-108635221D01*
X45250000Y-108655604D01*
X45508994Y-108635221D01*
X45761610Y-108574573D01*
X46001628Y-108475154D01*
X46223140Y-108339412D01*
X46420689Y-108170689D01*
X46589412Y-107973140D01*
X46612961Y-107934710D01*
X46658100Y-107891311D01*
X46718689Y-107875500D01*
X47562608Y-107875500D01*
X47610061Y-107884939D01*
X47650289Y-107911819D01*
X48317964Y-108579494D01*
X48351116Y-108639330D01*
X48347495Y-108707641D01*
X48308201Y-108763636D01*
X48245195Y-108790275D01*
X48177651Y-108779451D01*
X47951780Y-108673567D01*
X47804359Y-108629215D01*
X47688881Y-108594473D01*
X47417269Y-108554500D01*
X47211453Y-108554500D01*
X47211449Y-108554500D01*
X47006194Y-108569522D01*
X46738225Y-108629215D01*
X46481803Y-108727288D01*
X46242391Y-108861653D01*
X46025094Y-109029443D01*
X45834545Y-109227083D01*
X45674802Y-109450364D01*
X45549272Y-109694521D01*
X45460629Y-109954352D01*
X45410763Y-110224325D01*
X45400737Y-110498678D01*
X45430763Y-110771569D01*
X45469601Y-110920124D01*
X45500204Y-111037182D01*
X45607019Y-111288540D01*
X45607577Y-111289852D01*
X45750596Y-111524199D01*
X45814661Y-111601181D01*
X45842337Y-111664689D01*
X45831625Y-111733133D01*
X45785868Y-111785148D01*
X45719349Y-111804500D01*
X44783878Y-111804500D01*
X44719281Y-111786346D01*
X44673600Y-111737198D01*
X44660209Y-111671449D01*
X44683030Y-111608350D01*
X44789583Y-111459415D01*
X44825196Y-111409637D01*
X44950727Y-111165479D01*
X45010809Y-110989365D01*
X45039370Y-110905647D01*
X45089236Y-110635674D01*
X45099262Y-110361321D01*
X45099157Y-110360371D01*
X45069236Y-110088429D01*
X44999796Y-109822818D01*
X44892423Y-109570148D01*
X44749405Y-109335804D01*
X44573791Y-109124782D01*
X44369323Y-108941577D01*
X44140359Y-108790096D01*
X43891779Y-108673567D01*
X43628881Y-108594473D01*
X43357269Y-108554500D01*
X43151453Y-108554500D01*
X43151449Y-108554500D01*
X42946192Y-108569522D01*
X42901461Y-108579487D01*
X42846434Y-108579236D01*
X42796934Y-108555199D01*
X42762710Y-108512110D01*
X42750500Y-108458454D01*
X42750500Y-106615638D01*
X42766223Y-106555206D01*
X42809404Y-106510099D01*
X42861407Y-106478023D01*
X42918656Y-106442712D01*
X43042712Y-106318656D01*
X43134814Y-106169334D01*
X43189999Y-106002797D01*
X43200500Y-105900009D01*
X43200499Y-105099992D01*
X43197201Y-105067711D01*
X43189999Y-104997203D01*
X43179164Y-104964506D01*
X43134814Y-104830666D01*
X43071961Y-104728764D01*
X43042711Y-104681342D01*
X42949049Y-104587680D01*
X42916955Y-104532092D01*
X42916955Y-104467905D01*
X42949048Y-104412319D01*
X43042712Y-104318656D01*
X43134814Y-104169334D01*
X43189999Y-104002797D01*
X43200500Y-103900009D01*
X43200500Y-103875000D01*
X45412501Y-103875000D01*
X45412501Y-104024979D01*
X45422993Y-104127695D01*
X45478142Y-104294122D01*
X45570183Y-104443345D01*
X45694154Y-104567316D01*
X45843377Y-104659357D01*
X46009803Y-104714506D01*
X46112521Y-104725000D01*
X46125000Y-104725000D01*
X46125000Y-103875000D01*
X45412501Y-103875000D01*
X43200500Y-103875000D01*
X43200499Y-103364499D01*
X43217112Y-103302500D01*
X43262499Y-103257113D01*
X43324499Y-103240500D01*
X45506294Y-103240500D01*
X45524264Y-103241809D01*
X45528320Y-103242402D01*
X45548023Y-103245289D01*
X45597368Y-103240972D01*
X45608176Y-103240500D01*
X45613706Y-103240500D01*
X45613709Y-103240500D01*
X45644550Y-103236894D01*
X45648031Y-103236539D01*
X45722797Y-103229999D01*
X45722797Y-103229998D01*
X45724052Y-103229889D01*
X45743062Y-103225674D01*
X45744250Y-103225241D01*
X45744255Y-103225241D01*
X45814820Y-103199557D01*
X45818095Y-103198419D01*
X45889334Y-103174814D01*
X45889336Y-103174812D01*
X45890536Y-103174415D01*
X45908063Y-103165929D01*
X45909112Y-103165238D01*
X45909117Y-103165237D01*
X45939278Y-103145399D01*
X45971853Y-103130209D01*
X46007417Y-103125000D01*
X46751000Y-103125000D01*
X46813000Y-103141613D01*
G37*
%TD.AperFunction*%
%TA.AperFunction,Conductor*%
G36*
X69973681Y-107447351D02*
G01*
X70902000Y-108375670D01*
X71830319Y-107447351D01*
X71885906Y-107415257D01*
X71950094Y-107415257D01*
X72005681Y-107447351D01*
X72360648Y-107802318D01*
X72392742Y-107857905D01*
X72392742Y-107922093D01*
X72360648Y-107977680D01*
X71339066Y-108999262D01*
X71342896Y-109020982D01*
X71344610Y-109022468D01*
X71364744Y-109087500D01*
X71351835Y-109136829D01*
X71352626Y-109137059D01*
X71302402Y-109309927D01*
X71299500Y-109346808D01*
X71299500Y-110653192D01*
X71302402Y-110690072D01*
X71348255Y-110847897D01*
X71408244Y-110949332D01*
X71431919Y-110989365D01*
X71548135Y-111105581D01*
X71689602Y-111189244D01*
X71807958Y-111223630D01*
X71815438Y-111225803D01*
X71872495Y-111261357D01*
X71902612Y-111321461D01*
X71896936Y-111388449D01*
X71839692Y-111540975D01*
X71829409Y-111597641D01*
X71806619Y-111649878D01*
X71762869Y-111686403D01*
X71707402Y-111699500D01*
X69824500Y-111699500D01*
X69762500Y-111682887D01*
X69717113Y-111637500D01*
X69700500Y-111575500D01*
X69700500Y-110471808D01*
X69700032Y-110465856D01*
X69697598Y-110434931D01*
X69684802Y-110390889D01*
X69655424Y-110289768D01*
X69650500Y-110255173D01*
X69650500Y-109259494D01*
X69668962Y-109194397D01*
X69718849Y-109148684D01*
X69785307Y-109135966D01*
X69885999Y-109144775D01*
X70103886Y-109125712D01*
X70315159Y-109069102D01*
X70464931Y-108999261D01*
X69443351Y-107977681D01*
X69411257Y-107922094D01*
X69411257Y-107857906D01*
X69443351Y-107802319D01*
X69798319Y-107447351D01*
X69853906Y-107415257D01*
X69918094Y-107415257D01*
X69973681Y-107447351D01*
G37*
%TD.AperFunction*%
%TA.AperFunction,Conductor*%
G36*
X53213681Y-107447351D02*
G01*
X54142000Y-108375670D01*
X55070319Y-107447351D01*
X55125906Y-107415257D01*
X55190094Y-107415257D01*
X55245681Y-107447351D01*
X55600648Y-107802318D01*
X55632742Y-107857905D01*
X55632742Y-107922093D01*
X55600648Y-107977680D01*
X54579067Y-108999261D01*
X54728841Y-109069102D01*
X54739692Y-109072010D01*
X54795890Y-109104718D01*
X54827810Y-109161367D01*
X54826675Y-109226380D01*
X54802402Y-109309927D01*
X54799500Y-109346808D01*
X54799500Y-110653192D01*
X54802402Y-110690072D01*
X54848255Y-110847897D01*
X54908244Y-110949332D01*
X54931919Y-110989365D01*
X55048135Y-111105581D01*
X55112282Y-111143517D01*
X55183739Y-111185777D01*
X55189602Y-111189244D01*
X55203421Y-111193259D01*
X55257874Y-111226040D01*
X55288932Y-111281496D01*
X55288433Y-111345054D01*
X55256509Y-111400016D01*
X55068345Y-111588181D01*
X55028117Y-111615061D01*
X54980664Y-111624500D01*
X52924500Y-111624500D01*
X52862500Y-111607887D01*
X52817113Y-111562500D01*
X52800500Y-111500500D01*
X52800500Y-110346808D01*
X52800146Y-110342306D01*
X52797598Y-110309931D01*
X52794525Y-110299355D01*
X52755424Y-110164768D01*
X52750500Y-110130173D01*
X52750500Y-109245080D01*
X52763288Y-109190235D01*
X52799015Y-109146703D01*
X52850312Y-109123462D01*
X52897283Y-109125000D01*
X52897304Y-109124767D01*
X52901589Y-109125141D01*
X52906597Y-109125306D01*
X52908115Y-109125712D01*
X53126000Y-109144775D01*
X53343886Y-109125712D01*
X53555159Y-109069102D01*
X53704931Y-108999261D01*
X52683351Y-107977681D01*
X52651257Y-107922094D01*
X52651257Y-107857906D01*
X52683351Y-107802319D01*
X53038319Y-107447351D01*
X53093906Y-107415257D01*
X53158094Y-107415257D01*
X53213681Y-107447351D01*
G37*
%TD.AperFunction*%
%TA.AperFunction,Conductor*%
G36*
X86733681Y-107447351D02*
G01*
X87662000Y-108375670D01*
X88590319Y-107447351D01*
X88645906Y-107415257D01*
X88710094Y-107415257D01*
X88765681Y-107447351D01*
X89120648Y-107802318D01*
X89152742Y-107857905D01*
X89152742Y-107922093D01*
X89120648Y-107977680D01*
X88099067Y-108999261D01*
X88248841Y-109069102D01*
X88280592Y-109077610D01*
X88328893Y-109102977D01*
X88361631Y-109146619D01*
X88372470Y-109200088D01*
X88359311Y-109253034D01*
X88339391Y-109292698D01*
X88332996Y-109311098D01*
X88317573Y-109385788D01*
X88316793Y-109389305D01*
X88299208Y-109463505D01*
X88297229Y-109482878D01*
X88299448Y-109559131D01*
X88299500Y-109562737D01*
X88299500Y-109755173D01*
X88294576Y-109789768D01*
X88252402Y-109934927D01*
X88249500Y-109971808D01*
X88249500Y-111125500D01*
X88232887Y-111187500D01*
X88187500Y-111232887D01*
X88125500Y-111249500D01*
X86774500Y-111249500D01*
X86712500Y-111232887D01*
X86667113Y-111187500D01*
X86650500Y-111125500D01*
X86650500Y-109971808D01*
X86649929Y-109964549D01*
X86647598Y-109934931D01*
X86647196Y-109933549D01*
X86605424Y-109789768D01*
X86600500Y-109755173D01*
X86600500Y-109262381D01*
X86615355Y-109203531D01*
X86656361Y-109158781D01*
X86713693Y-109138853D01*
X86863886Y-109125712D01*
X87075159Y-109069102D01*
X87224931Y-108999261D01*
X86203351Y-107977681D01*
X86171257Y-107922094D01*
X86171257Y-107857906D01*
X86203351Y-107802319D01*
X86558319Y-107447351D01*
X86613906Y-107415257D01*
X86678094Y-107415257D01*
X86733681Y-107447351D01*
G37*
%TD.AperFunction*%
%TA.AperFunction,Conductor*%
G36*
X120253681Y-107447351D02*
G01*
X121182000Y-108375670D01*
X122110319Y-107447351D01*
X122165906Y-107415257D01*
X122230094Y-107415257D01*
X122285681Y-107447351D01*
X122640648Y-107802318D01*
X122672742Y-107857905D01*
X122672742Y-107922093D01*
X122640648Y-107977680D01*
X121619067Y-108999261D01*
X121778675Y-109073688D01*
X121778422Y-109074229D01*
X121815901Y-109093736D01*
X121848581Y-109136322D01*
X121860200Y-109188728D01*
X121848582Y-109241135D01*
X121825193Y-109291292D01*
X121823622Y-109294536D01*
X121789393Y-109362692D01*
X121782996Y-109381098D01*
X121767573Y-109455788D01*
X121766793Y-109459305D01*
X121749208Y-109533505D01*
X121747229Y-109552878D01*
X121749380Y-109626800D01*
X121744508Y-109665001D01*
X121702402Y-109809927D01*
X121699500Y-109846808D01*
X121699500Y-111000500D01*
X121682887Y-111062500D01*
X121637500Y-111107887D01*
X121575500Y-111124500D01*
X119824500Y-111124500D01*
X119762500Y-111107887D01*
X119717113Y-111062500D01*
X119700500Y-111000500D01*
X119700500Y-110706818D01*
X119708520Y-110672976D01*
X119706697Y-110672544D01*
X119709663Y-110660024D01*
X119716998Y-110638917D01*
X119717253Y-110637677D01*
X119717256Y-110637673D01*
X119732431Y-110564171D01*
X119733186Y-110560767D01*
X119750500Y-110487721D01*
X119750500Y-110487719D01*
X119750790Y-110486495D01*
X119752769Y-110467123D01*
X119752732Y-110465859D01*
X119752733Y-110465856D01*
X119750552Y-110390889D01*
X119750500Y-110387284D01*
X119750500Y-109234363D01*
X119763288Y-109179519D01*
X119799013Y-109135988D01*
X119850308Y-109112746D01*
X119906592Y-109114588D01*
X119948110Y-109125712D01*
X120166000Y-109144775D01*
X120383886Y-109125712D01*
X120595159Y-109069102D01*
X120744931Y-108999261D01*
X119723351Y-107977681D01*
X119691257Y-107922094D01*
X119691257Y-107857906D01*
X119723351Y-107802319D01*
X120078319Y-107447351D01*
X120133906Y-107415257D01*
X120198094Y-107415257D01*
X120253681Y-107447351D01*
G37*
%TD.AperFunction*%
%TA.AperFunction,Conductor*%
G36*
X103493681Y-107447351D02*
G01*
X104422000Y-108375670D01*
X105350319Y-107447351D01*
X105405906Y-107415257D01*
X105470094Y-107415257D01*
X105525681Y-107447351D01*
X105880648Y-107802318D01*
X105912742Y-107857905D01*
X105912742Y-107922093D01*
X105880648Y-107977680D01*
X104859067Y-108999261D01*
X104998849Y-109064443D01*
X105044808Y-109101324D01*
X105068554Y-109155256D01*
X105064722Y-109214059D01*
X105041050Y-109253113D01*
X105042884Y-109254563D01*
X105019176Y-109284545D01*
X105016902Y-109287337D01*
X104967894Y-109345744D01*
X104957418Y-109362187D01*
X104925192Y-109431294D01*
X104923622Y-109434536D01*
X104889393Y-109502692D01*
X104882996Y-109521098D01*
X104867574Y-109595787D01*
X104866793Y-109599308D01*
X104862652Y-109616780D01*
X104848730Y-109651299D01*
X104848255Y-109652101D01*
X104802402Y-109809927D01*
X104799500Y-109846808D01*
X104799500Y-111000500D01*
X104782887Y-111062500D01*
X104737500Y-111107887D01*
X104675500Y-111124500D01*
X102874500Y-111124500D01*
X102812500Y-111107887D01*
X102767113Y-111062500D01*
X102750500Y-111000500D01*
X102750500Y-109846808D01*
X102750322Y-109844549D01*
X102747598Y-109809931D01*
X102732730Y-109758757D01*
X102705424Y-109664768D01*
X102700500Y-109630173D01*
X102700500Y-109134883D01*
X102715786Y-109075240D01*
X102757875Y-109030302D01*
X102816390Y-109011148D01*
X102876905Y-109022501D01*
X102976841Y-109069102D01*
X103188113Y-109125712D01*
X103406000Y-109144775D01*
X103623886Y-109125712D01*
X103835159Y-109069102D01*
X103984931Y-108999261D01*
X102963351Y-107977681D01*
X102931257Y-107922094D01*
X102931257Y-107857906D01*
X102963351Y-107802319D01*
X103318319Y-107447351D01*
X103373906Y-107415257D01*
X103438094Y-107415257D01*
X103493681Y-107447351D01*
G37*
%TD.AperFunction*%
%TA.AperFunction,Conductor*%
G36*
X36453681Y-107447351D02*
G01*
X37382000Y-108375670D01*
X38310319Y-107447351D01*
X38365906Y-107415257D01*
X38430094Y-107415257D01*
X38485681Y-107447351D01*
X38840648Y-107802318D01*
X38872742Y-107857905D01*
X38872742Y-107922093D01*
X38840648Y-107977680D01*
X37819066Y-108999262D01*
X37819170Y-108999846D01*
X37869261Y-109043288D01*
X37889394Y-109108323D01*
X37872157Y-109174185D01*
X37848255Y-109214601D01*
X37802402Y-109372427D01*
X37799500Y-109409308D01*
X37799500Y-110500500D01*
X37782887Y-110562500D01*
X37737500Y-110607887D01*
X37675500Y-110624500D01*
X35924500Y-110624500D01*
X35862500Y-110607887D01*
X35817113Y-110562500D01*
X35800500Y-110500500D01*
X35800500Y-109346808D01*
X35799634Y-109335803D01*
X35797598Y-109309931D01*
X35771109Y-109218759D01*
X35768085Y-109162545D01*
X35790228Y-109110786D01*
X35832975Y-109074152D01*
X35887514Y-109060194D01*
X35925837Y-109068260D01*
X35926364Y-109066295D01*
X36148113Y-109125712D01*
X36366000Y-109144775D01*
X36583886Y-109125712D01*
X36795159Y-109069102D01*
X36944931Y-108999261D01*
X35923351Y-107977681D01*
X35891257Y-107922094D01*
X35891257Y-107857906D01*
X35923351Y-107802319D01*
X36278319Y-107447351D01*
X36333906Y-107415257D01*
X36398094Y-107415257D01*
X36453681Y-107447351D01*
G37*
%TD.AperFunction*%
%TA.AperFunction,Conductor*%
G36*
X131937500Y-73517113D02*
G01*
X131982887Y-73562500D01*
X131999500Y-73624500D01*
X131999500Y-83931027D01*
X131986236Y-83986825D01*
X131949283Y-84030687D01*
X131896545Y-84053228D01*
X131839305Y-84049627D01*
X131789808Y-84020654D01*
X131775299Y-84006782D01*
X131773310Y-84004836D01*
X129784211Y-82015737D01*
X129756570Y-81973628D01*
X129747958Y-81923999D01*
X129759797Y-81875040D01*
X129885436Y-81609400D01*
X130024476Y-81220811D01*
X130124757Y-80820465D01*
X130185315Y-80412218D01*
X130205566Y-80000000D01*
X130185315Y-79587782D01*
X130124757Y-79179535D01*
X130024476Y-78779189D01*
X129904488Y-78443847D01*
X129885438Y-78390605D01*
X129883947Y-78387453D01*
X129708978Y-78017510D01*
X129708977Y-78017508D01*
X129708975Y-78017504D01*
X129496803Y-77663517D01*
X129424520Y-77566055D01*
X129250946Y-77332017D01*
X129250944Y-77332015D01*
X129250942Y-77332012D01*
X128973784Y-77026215D01*
X128667987Y-76749057D01*
X128336482Y-76503196D01*
X127982495Y-76291024D01*
X127609394Y-76114561D01*
X127220813Y-75975524D01*
X126820466Y-75875243D01*
X126412219Y-75814685D01*
X126000000Y-75794433D01*
X125587780Y-75814685D01*
X125179533Y-75875243D01*
X124779186Y-75975524D01*
X124390605Y-76114561D01*
X124017504Y-76291024D01*
X123663517Y-76503196D01*
X123332012Y-76749057D01*
X123026215Y-77026215D01*
X122749057Y-77332012D01*
X122503196Y-77663517D01*
X122291024Y-78017504D01*
X122114561Y-78390605D01*
X121975524Y-78779186D01*
X121875243Y-79179533D01*
X121814685Y-79587780D01*
X121794433Y-80000000D01*
X121814685Y-80412219D01*
X121875243Y-80820466D01*
X121975524Y-81220813D01*
X122114563Y-81609398D01*
X122240201Y-81875040D01*
X122252040Y-81923999D01*
X122243428Y-81973628D01*
X122215787Y-82015737D01*
X121220343Y-83011181D01*
X121209980Y-83020443D01*
X121182335Y-83042491D01*
X121138735Y-83092392D01*
X121133050Y-83098473D01*
X121126059Y-83105464D01*
X121099928Y-83136764D01*
X121098124Y-83138876D01*
X121034235Y-83212003D01*
X121031986Y-83215767D01*
X121020739Y-83231617D01*
X121017932Y-83234979D01*
X120969978Y-83319490D01*
X120968604Y-83321849D01*
X120919719Y-83403671D01*
X120918782Y-83405241D01*
X120917246Y-83409335D01*
X120909009Y-83426944D01*
X120906847Y-83430753D01*
X120874762Y-83522444D01*
X120873814Y-83525057D01*
X120839691Y-83615978D01*
X120838910Y-83620282D01*
X120833950Y-83639077D01*
X120832501Y-83643217D01*
X120817304Y-83739166D01*
X120816838Y-83741907D01*
X120799500Y-83837450D01*
X120799500Y-83841830D01*
X120797973Y-83861229D01*
X120797290Y-83865539D01*
X120799469Y-83962640D01*
X120799500Y-83965422D01*
X120799500Y-87056153D01*
X120814623Y-87224190D01*
X120864472Y-87404810D01*
X120874507Y-87441170D01*
X120882073Y-87456882D01*
X120894353Y-87510682D01*
X120894353Y-87750001D01*
X120911583Y-87880871D01*
X120962096Y-88002824D01*
X121042453Y-88107545D01*
X121042454Y-88107546D01*
X121147177Y-88187903D01*
X121269129Y-88238417D01*
X121380156Y-88253034D01*
X121399999Y-88255647D01*
X121400000Y-88255647D01*
X121971889Y-88255647D01*
X121971891Y-88255647D01*
X121989353Y-88253135D01*
X121999527Y-88251672D01*
X122022732Y-88250535D01*
X122101746Y-88254084D01*
X122106329Y-88254290D01*
X122106329Y-88254289D01*
X122106330Y-88254290D01*
X122329387Y-88224075D01*
X122543464Y-88154517D01*
X122741681Y-88047852D01*
X122917666Y-87907508D01*
X123065765Y-87737996D01*
X123181215Y-87544764D01*
X123260307Y-87334024D01*
X123300500Y-87112547D01*
X123300500Y-84519336D01*
X123309939Y-84471883D01*
X123336819Y-84431655D01*
X123488100Y-84280374D01*
X123984264Y-83784208D01*
X124026370Y-83756570D01*
X124075999Y-83747958D01*
X124124958Y-83759796D01*
X124390600Y-83885436D01*
X124390603Y-83885437D01*
X124390605Y-83885438D01*
X124610232Y-83964022D01*
X124779189Y-84024476D01*
X125179535Y-84124757D01*
X125587782Y-84185315D01*
X126000000Y-84205566D01*
X126412218Y-84185315D01*
X126820465Y-84124757D01*
X127220811Y-84024476D01*
X127609400Y-83885436D01*
X127875042Y-83759796D01*
X127923999Y-83747958D01*
X127973628Y-83756570D01*
X128015737Y-83784211D01*
X129613181Y-85381655D01*
X129640061Y-85421883D01*
X129649500Y-85469336D01*
X129649500Y-105379807D01*
X129634858Y-105438260D01*
X129594390Y-105482909D01*
X129537654Y-105503210D01*
X129478048Y-105494368D01*
X129425278Y-105472510D01*
X129311610Y-105425426D01*
X129058995Y-105364779D01*
X128800000Y-105344396D01*
X128541004Y-105364779D01*
X128288389Y-105425426D01*
X128095500Y-105505325D01*
X128048372Y-105524846D01*
X127950500Y-105584822D01*
X127826856Y-105660590D01*
X127669411Y-105795062D01*
X127629311Y-105829311D01*
X127460588Y-106026860D01*
X127444403Y-106053271D01*
X127415437Y-106100539D01*
X127373004Y-106142378D01*
X127315953Y-106159591D01*
X127257460Y-106148202D01*
X127211034Y-106110842D01*
X127187398Y-106056139D01*
X127190475Y-106016497D01*
X127188619Y-106016308D01*
X127197263Y-105931690D01*
X127200500Y-105900009D01*
X127200499Y-105099992D01*
X127197201Y-105067711D01*
X127189999Y-104997203D01*
X127179164Y-104964506D01*
X127134814Y-104830666D01*
X127071961Y-104728764D01*
X127042711Y-104681342D01*
X126949049Y-104587680D01*
X126916955Y-104532092D01*
X126916955Y-104467905D01*
X126949048Y-104412319D01*
X127042712Y-104318656D01*
X127134814Y-104169334D01*
X127189999Y-104002797D01*
X127200500Y-103900009D01*
X127200499Y-103099992D01*
X127197770Y-103073281D01*
X127189999Y-102997203D01*
X127182649Y-102975021D01*
X127134814Y-102830666D01*
X127084751Y-102749500D01*
X127038612Y-102674696D01*
X127020505Y-102618968D01*
X127030009Y-102561149D01*
X127065000Y-102514148D01*
X127117665Y-102488462D01*
X127176243Y-102489824D01*
X127312023Y-102526207D01*
X127530000Y-102545277D01*
X127747977Y-102526207D01*
X127959330Y-102469575D01*
X128157639Y-102377102D01*
X128336877Y-102251598D01*
X128491598Y-102096877D01*
X128617102Y-101917639D01*
X128709575Y-101719330D01*
X128766207Y-101507977D01*
X128785277Y-101290000D01*
X128766207Y-101072023D01*
X128709575Y-100860670D01*
X128617102Y-100662362D01*
X128491598Y-100483123D01*
X128336877Y-100328402D01*
X128157639Y-100202898D01*
X128066205Y-100160261D01*
X127959331Y-100110425D01*
X127747974Y-100053792D01*
X127530000Y-100034722D01*
X127312025Y-100053792D01*
X127100668Y-100110425D01*
X126902361Y-100202898D01*
X126723122Y-100328402D01*
X126568405Y-100483119D01*
X126568402Y-100483122D01*
X126568402Y-100483123D01*
X126530025Y-100537932D01*
X126486575Y-100599985D01*
X126442257Y-100638850D01*
X126385000Y-100652861D01*
X126327743Y-100638850D01*
X126283425Y-100599985D01*
X126280676Y-100596059D01*
X126201598Y-100483123D01*
X126046877Y-100328402D01*
X125867639Y-100202898D01*
X125776205Y-100160261D01*
X125669331Y-100110425D01*
X125457974Y-100053792D01*
X125240000Y-100034722D01*
X125022025Y-100053792D01*
X124810668Y-100110425D01*
X124690118Y-100166639D01*
X124651903Y-100184459D01*
X124591390Y-100195812D01*
X124532875Y-100176658D01*
X124490786Y-100131720D01*
X124475500Y-100072077D01*
X124475500Y-100054308D01*
X124475500Y-100054306D01*
X124472598Y-100017431D01*
X124442589Y-99914142D01*
X124426744Y-99859602D01*
X124382806Y-99785306D01*
X124343081Y-99718135D01*
X124343080Y-99718134D01*
X124335107Y-99704652D01*
X124336680Y-99703721D01*
X124315533Y-99667094D01*
X124315533Y-99602906D01*
X124336680Y-99566278D01*
X124335107Y-99565348D01*
X124344979Y-99548655D01*
X124426744Y-99410398D01*
X124472598Y-99252569D01*
X124475500Y-99215694D01*
X124475500Y-98784306D01*
X124472598Y-98747431D01*
X124463644Y-98716613D01*
X124426744Y-98589602D01*
X124378468Y-98507972D01*
X124343081Y-98448135D01*
X124226865Y-98331919D01*
X124214192Y-98324424D01*
X124085397Y-98248255D01*
X123927572Y-98202402D01*
X123905444Y-98200660D01*
X123890694Y-98199500D01*
X122109306Y-98199500D01*
X122097014Y-98200467D01*
X122072427Y-98202402D01*
X121914602Y-98248255D01*
X121773134Y-98331919D01*
X121656919Y-98448134D01*
X121573255Y-98589602D01*
X121527402Y-98747427D01*
X121524500Y-98784308D01*
X121524500Y-98809243D01*
X121515061Y-98856696D01*
X121488181Y-98896924D01*
X119724890Y-100660212D01*
X119668800Y-100692439D01*
X119604111Y-100692032D01*
X119548431Y-100659102D01*
X119516912Y-100602610D01*
X119518133Y-100537934D01*
X119522598Y-100522569D01*
X119525500Y-100485694D01*
X119525500Y-100054306D01*
X119522598Y-100017431D01*
X119492589Y-99914142D01*
X119476744Y-99859602D01*
X119432806Y-99785306D01*
X119393081Y-99718135D01*
X119393080Y-99718134D01*
X119385107Y-99704652D01*
X119386569Y-99703786D01*
X119365178Y-99666733D01*
X119365182Y-99602540D01*
X119386296Y-99565979D01*
X119384709Y-99565040D01*
X119476281Y-99410199D01*
X119508296Y-99300000D01*
X117874000Y-99300000D01*
X117812000Y-99283387D01*
X117766613Y-99238000D01*
X117750000Y-99176000D01*
X117750000Y-98200000D01*
X118350000Y-98200000D01*
X118350000Y-98700000D01*
X119508296Y-98700000D01*
X119476281Y-98589800D01*
X119392682Y-98448442D01*
X119276557Y-98332317D01*
X119135197Y-98248717D01*
X118977493Y-98202900D01*
X118940639Y-98200000D01*
X118350000Y-98200000D01*
X117750000Y-98200000D01*
X117159361Y-98200000D01*
X117122506Y-98202900D01*
X116964802Y-98248717D01*
X116823442Y-98332317D01*
X116707318Y-98448441D01*
X116622308Y-98592185D01*
X116583654Y-98632703D01*
X116531117Y-98652085D01*
X116475410Y-98646378D01*
X116427895Y-98616744D01*
X114342016Y-96530865D01*
X114336882Y-96525412D01*
X114336014Y-96524432D01*
X114297751Y-96481242D01*
X114249180Y-96447715D01*
X114243161Y-96443286D01*
X114196715Y-96406899D01*
X114187821Y-96402895D01*
X114168281Y-96391875D01*
X114147862Y-96377782D01*
X114148463Y-96376910D01*
X114126098Y-96362765D01*
X114097921Y-96321941D01*
X114088000Y-96273340D01*
X114088000Y-96249544D01*
X114088226Y-96242057D01*
X114088263Y-96241434D01*
X114091789Y-96183154D01*
X114081147Y-96125088D01*
X114080026Y-96117728D01*
X114072914Y-96059142D01*
X114069454Y-96050021D01*
X114063428Y-96028400D01*
X114061672Y-96018815D01*
X114037453Y-95965003D01*
X114034595Y-95958103D01*
X114013668Y-95902923D01*
X114013668Y-95902922D01*
X114008126Y-95894893D01*
X113997102Y-95875347D01*
X113993101Y-95866457D01*
X113956705Y-95820001D01*
X113952285Y-95813993D01*
X113918758Y-95765421D01*
X113874579Y-95726282D01*
X113869141Y-95721162D01*
X113178844Y-95030865D01*
X113173710Y-95025412D01*
X113159464Y-95009332D01*
X113134579Y-94981242D01*
X113086008Y-94947715D01*
X113079989Y-94943286D01*
X113033543Y-94906899D01*
X113024649Y-94902895D01*
X113005109Y-94891875D01*
X112997077Y-94886331D01*
X112941901Y-94865405D01*
X112934984Y-94862540D01*
X112881183Y-94838326D01*
X112871587Y-94836568D01*
X112849974Y-94830543D01*
X112840858Y-94827086D01*
X112782291Y-94819974D01*
X112774888Y-94818847D01*
X112716847Y-94808211D01*
X112716846Y-94808211D01*
X112683568Y-94810224D01*
X112657949Y-94811774D01*
X112650462Y-94812000D01*
X95649513Y-94812000D01*
X95602060Y-94802561D01*
X95561832Y-94775681D01*
X94167017Y-93380865D01*
X94161883Y-93375412D01*
X94161015Y-93374432D01*
X94122752Y-93331242D01*
X94074181Y-93297715D01*
X94068162Y-93293286D01*
X94021716Y-93256899D01*
X94012822Y-93252895D01*
X93993282Y-93241875D01*
X93985250Y-93236331D01*
X93930074Y-93215405D01*
X93923157Y-93212540D01*
X93869356Y-93188326D01*
X93859760Y-93186568D01*
X93838147Y-93180543D01*
X93829031Y-93177086D01*
X93770464Y-93169974D01*
X93763061Y-93168847D01*
X93705020Y-93158211D01*
X93705019Y-93158211D01*
X93671741Y-93160224D01*
X93646122Y-93161774D01*
X93638635Y-93162000D01*
X80677476Y-93162000D01*
X80623193Y-93149487D01*
X80579866Y-93114474D01*
X80556705Y-93084911D01*
X80552285Y-93078903D01*
X80518758Y-93030331D01*
X80474579Y-92991192D01*
X80469141Y-92986072D01*
X79276434Y-91793365D01*
X79271300Y-91787912D01*
X79270432Y-91786932D01*
X79232169Y-91743742D01*
X79183598Y-91710215D01*
X79177574Y-91705783D01*
X79131133Y-91669399D01*
X79122239Y-91665395D01*
X79102699Y-91654375D01*
X79094667Y-91648831D01*
X79039491Y-91627905D01*
X79032574Y-91625040D01*
X78978773Y-91600826D01*
X78969177Y-91599068D01*
X78947564Y-91593043D01*
X78938448Y-91589586D01*
X78879881Y-91582474D01*
X78872478Y-91581347D01*
X78814437Y-91570711D01*
X78814436Y-91570711D01*
X78781158Y-91572724D01*
X78755539Y-91574274D01*
X78748052Y-91574500D01*
X76982038Y-91574500D01*
X76974551Y-91574274D01*
X76915651Y-91570710D01*
X76857609Y-91581347D01*
X76850208Y-91582474D01*
X76791638Y-91589586D01*
X76782521Y-91593044D01*
X76760912Y-91599068D01*
X76751315Y-91600826D01*
X76697520Y-91625038D01*
X76690604Y-91627903D01*
X76635418Y-91648833D01*
X76627385Y-91654378D01*
X76607850Y-91665396D01*
X76598956Y-91669399D01*
X76552513Y-91705783D01*
X76546486Y-91710218D01*
X76497918Y-91743743D01*
X76458787Y-91787912D01*
X76453655Y-91793364D01*
X76105936Y-92141083D01*
X76050349Y-92173177D01*
X75986162Y-92173177D01*
X75955407Y-92164936D01*
X75719999Y-92144340D01*
X75484592Y-92164936D01*
X75256336Y-92226097D01*
X75042170Y-92325965D01*
X74848601Y-92461503D01*
X74726285Y-92583819D01*
X74673539Y-92615114D01*
X74612246Y-92617303D01*
X74557401Y-92589850D01*
X74522422Y-92539471D01*
X74473352Y-92407911D01*
X74387188Y-92292811D01*
X74272089Y-92206647D01*
X74137375Y-92156402D01*
X74077824Y-92150000D01*
X73555000Y-92150000D01*
X73555000Y-93751000D01*
X73538387Y-93813000D01*
X73493000Y-93858387D01*
X73431000Y-93875000D01*
X72929000Y-93875000D01*
X72867000Y-93858387D01*
X72821613Y-93813000D01*
X72805000Y-93751000D01*
X72805000Y-92150000D01*
X72282176Y-92150000D01*
X72222622Y-92156402D01*
X72149323Y-92183741D01*
X72079631Y-92188725D01*
X72018309Y-92155240D01*
X71656434Y-91793365D01*
X71651300Y-91787912D01*
X71650432Y-91786932D01*
X71612169Y-91743742D01*
X71563598Y-91710215D01*
X71557574Y-91705783D01*
X71511133Y-91669399D01*
X71502239Y-91665395D01*
X71482699Y-91654375D01*
X71474667Y-91648831D01*
X71419491Y-91627905D01*
X71412574Y-91625040D01*
X71358773Y-91600826D01*
X71349177Y-91599068D01*
X71327564Y-91593043D01*
X71318448Y-91589586D01*
X71259881Y-91582474D01*
X71252478Y-91581347D01*
X71194437Y-91570711D01*
X71194436Y-91570711D01*
X71161158Y-91572724D01*
X71135539Y-91574274D01*
X71128052Y-91574500D01*
X69362038Y-91574500D01*
X69354551Y-91574274D01*
X69295651Y-91570710D01*
X69237609Y-91581347D01*
X69230208Y-91582474D01*
X69171638Y-91589586D01*
X69162521Y-91593044D01*
X69140912Y-91599068D01*
X69131315Y-91600826D01*
X69077520Y-91625038D01*
X69070604Y-91627903D01*
X69015418Y-91648833D01*
X69007385Y-91654378D01*
X68987850Y-91665396D01*
X68978956Y-91669399D01*
X68932513Y-91705783D01*
X68926486Y-91710218D01*
X68877918Y-91743743D01*
X68838787Y-91787912D01*
X68833655Y-91793364D01*
X68485936Y-92141083D01*
X68430349Y-92173177D01*
X68366162Y-92173177D01*
X68335407Y-92164936D01*
X68099999Y-92144340D01*
X67864592Y-92164936D01*
X67636336Y-92226097D01*
X67422170Y-92325965D01*
X67228598Y-92461505D01*
X67061508Y-92628595D01*
X66931574Y-92814160D01*
X66887255Y-92853026D01*
X66829999Y-92867036D01*
X66772742Y-92853025D01*
X66728426Y-92814161D01*
X66598495Y-92628599D01*
X66431401Y-92461505D01*
X66237830Y-92325965D01*
X66023663Y-92226097D01*
X65951074Y-92206647D01*
X65795407Y-92164936D01*
X65560000Y-92144340D01*
X65324592Y-92164936D01*
X65096336Y-92226097D01*
X64882170Y-92325965D01*
X64688598Y-92461505D01*
X64521508Y-92628595D01*
X64391574Y-92814160D01*
X64347255Y-92853026D01*
X64289999Y-92867036D01*
X64232742Y-92853025D01*
X64188426Y-92814161D01*
X64058495Y-92628599D01*
X63891401Y-92461505D01*
X63697830Y-92325965D01*
X63483663Y-92226097D01*
X63411074Y-92206647D01*
X63255407Y-92164936D01*
X63020000Y-92144340D01*
X62784592Y-92164936D01*
X62604262Y-92213255D01*
X62541330Y-92213584D01*
X62486342Y-92182977D01*
X62453461Y-92129318D01*
X62451156Y-92066427D01*
X62480019Y-92010507D01*
X62482533Y-92007716D01*
X62577179Y-91843784D01*
X62635674Y-91663756D01*
X62655460Y-91475500D01*
X62635674Y-91287244D01*
X62577179Y-91107216D01*
X62577179Y-91107215D01*
X62482533Y-90943283D01*
X62355870Y-90802610D01*
X62202730Y-90691348D01*
X62029802Y-90614355D01*
X61844648Y-90575000D01*
X61844646Y-90575000D01*
X61655354Y-90575000D01*
X61655352Y-90575000D01*
X61470197Y-90614355D01*
X61297269Y-90691348D01*
X61144129Y-90802610D01*
X61017466Y-90943283D01*
X60922820Y-91107215D01*
X60864326Y-91287242D01*
X60844540Y-91475499D01*
X60864326Y-91663757D01*
X60922820Y-91843784D01*
X60992227Y-91964000D01*
X61008840Y-92026000D01*
X60992227Y-92088000D01*
X60946840Y-92133387D01*
X60884840Y-92150000D01*
X60855000Y-92150000D01*
X60855000Y-93751000D01*
X60838387Y-93813000D01*
X60793000Y-93858387D01*
X60731000Y-93875000D01*
X60229000Y-93875000D01*
X60167000Y-93858387D01*
X60121613Y-93813000D01*
X60105000Y-93751000D01*
X60105000Y-92150000D01*
X59582176Y-92150000D01*
X59522624Y-92156402D01*
X59387910Y-92206647D01*
X59272811Y-92292811D01*
X59186646Y-92407913D01*
X59137576Y-92539472D01*
X59102597Y-92589850D01*
X59047753Y-92617303D01*
X58986460Y-92615114D01*
X58933714Y-92583818D01*
X58811404Y-92461508D01*
X58811401Y-92461505D01*
X58617830Y-92325965D01*
X58403663Y-92226097D01*
X58331074Y-92206647D01*
X58175407Y-92164936D01*
X57940000Y-92144340D01*
X57704592Y-92164936D01*
X57476336Y-92226097D01*
X57262170Y-92325965D01*
X57068598Y-92461505D01*
X56901508Y-92628595D01*
X56771574Y-92814160D01*
X56727255Y-92853026D01*
X56669999Y-92867036D01*
X56612742Y-92853025D01*
X56568426Y-92814161D01*
X56438495Y-92628599D01*
X56271401Y-92461505D01*
X56077830Y-92325965D01*
X55863663Y-92226097D01*
X55791074Y-92206647D01*
X55635407Y-92164936D01*
X55400000Y-92144340D01*
X55164592Y-92164936D01*
X54936336Y-92226097D01*
X54722170Y-92325965D01*
X54623224Y-92395247D01*
X54570073Y-92416362D01*
X54513098Y-92411377D01*
X54464421Y-92381352D01*
X53876434Y-91793365D01*
X53871300Y-91787912D01*
X53870432Y-91786932D01*
X53832169Y-91743742D01*
X53783598Y-91710215D01*
X53777574Y-91705783D01*
X53731133Y-91669399D01*
X53722239Y-91665395D01*
X53702699Y-91654375D01*
X53694667Y-91648831D01*
X53639491Y-91627905D01*
X53632574Y-91625040D01*
X53578773Y-91600826D01*
X53569177Y-91599068D01*
X53547564Y-91593043D01*
X53538448Y-91589586D01*
X53479881Y-91582474D01*
X53472478Y-91581347D01*
X53414437Y-91570711D01*
X53414436Y-91570711D01*
X53381158Y-91572724D01*
X53355539Y-91574274D01*
X53348052Y-91574500D01*
X51582038Y-91574500D01*
X51574551Y-91574274D01*
X51515651Y-91570710D01*
X51457609Y-91581347D01*
X51450208Y-91582474D01*
X51391638Y-91589586D01*
X51382521Y-91593044D01*
X51360912Y-91599068D01*
X51351315Y-91600826D01*
X51297520Y-91625038D01*
X51290604Y-91627903D01*
X51235418Y-91648833D01*
X51227385Y-91654378D01*
X51207850Y-91665396D01*
X51198956Y-91669399D01*
X51152513Y-91705783D01*
X51146486Y-91710218D01*
X51097918Y-91743743D01*
X51058787Y-91787912D01*
X51053655Y-91793364D01*
X50705936Y-92141083D01*
X50650349Y-92173177D01*
X50586162Y-92173177D01*
X50555407Y-92164936D01*
X50319999Y-92144340D01*
X50084592Y-92164936D01*
X49856336Y-92226097D01*
X49642170Y-92325965D01*
X49448601Y-92461503D01*
X49326285Y-92583819D01*
X49273539Y-92615114D01*
X49212246Y-92617303D01*
X49157401Y-92589850D01*
X49122422Y-92539471D01*
X49073352Y-92407911D01*
X48987188Y-92292811D01*
X48872089Y-92206647D01*
X48737375Y-92156402D01*
X48677824Y-92150000D01*
X48155000Y-92150000D01*
X48155000Y-93751000D01*
X48138387Y-93813000D01*
X48093000Y-93858387D01*
X48031000Y-93875000D01*
X47529000Y-93875000D01*
X47467000Y-93858387D01*
X47421613Y-93813000D01*
X47405000Y-93751000D01*
X47405000Y-92150000D01*
X46882176Y-92150000D01*
X46822624Y-92156402D01*
X46687910Y-92206647D01*
X46572811Y-92292811D01*
X46486646Y-92407913D01*
X46437576Y-92539472D01*
X46402597Y-92589850D01*
X46347753Y-92617303D01*
X46286460Y-92615114D01*
X46233714Y-92583818D01*
X46111404Y-92461508D01*
X46111401Y-92461505D01*
X45917830Y-92325965D01*
X45703663Y-92226097D01*
X45631074Y-92206647D01*
X45475407Y-92164936D01*
X45240000Y-92144340D01*
X45004592Y-92164936D01*
X44776336Y-92226097D01*
X44562170Y-92325965D01*
X44368598Y-92461505D01*
X44201508Y-92628595D01*
X44071574Y-92814160D01*
X44027255Y-92853026D01*
X43969999Y-92867036D01*
X43912742Y-92853025D01*
X43868426Y-92814161D01*
X43738495Y-92628599D01*
X43571401Y-92461505D01*
X43377830Y-92325965D01*
X43163663Y-92226097D01*
X43091074Y-92206647D01*
X42935407Y-92164936D01*
X42700000Y-92144340D01*
X42464592Y-92164936D01*
X42236336Y-92226097D01*
X42022170Y-92325965D01*
X41828598Y-92461505D01*
X41661508Y-92628595D01*
X41531574Y-92814160D01*
X41487255Y-92853026D01*
X41429999Y-92867036D01*
X41372742Y-92853025D01*
X41328426Y-92814161D01*
X41198495Y-92628599D01*
X41031401Y-92461505D01*
X40837830Y-92325965D01*
X40623663Y-92226097D01*
X40551074Y-92206647D01*
X40395407Y-92164936D01*
X40160000Y-92144340D01*
X39924592Y-92164936D01*
X39696336Y-92226097D01*
X39482170Y-92325965D01*
X39288598Y-92461505D01*
X39121508Y-92628595D01*
X38991574Y-92814160D01*
X38947255Y-92853026D01*
X38889999Y-92867036D01*
X38832742Y-92853025D01*
X38788426Y-92814161D01*
X38658495Y-92628599D01*
X38491401Y-92461505D01*
X38297830Y-92325965D01*
X38083663Y-92226097D01*
X38011074Y-92206647D01*
X37855407Y-92164936D01*
X37620000Y-92144340D01*
X37384592Y-92164936D01*
X37156336Y-92226097D01*
X36942170Y-92325965D01*
X36748601Y-92461503D01*
X36626285Y-92583819D01*
X36573539Y-92615114D01*
X36512246Y-92617303D01*
X36457401Y-92589850D01*
X36422422Y-92539471D01*
X36373352Y-92407911D01*
X36287188Y-92292811D01*
X36172089Y-92206647D01*
X36037375Y-92156402D01*
X35977824Y-92150000D01*
X35455000Y-92150000D01*
X35455000Y-94850000D01*
X35977824Y-94850000D01*
X36037375Y-94843597D01*
X36172089Y-94793352D01*
X36287188Y-94707188D01*
X36373352Y-94592089D01*
X36422422Y-94460528D01*
X36457401Y-94410149D01*
X36512246Y-94382696D01*
X36573539Y-94384885D01*
X36626285Y-94416181D01*
X36748599Y-94538495D01*
X36942170Y-94674035D01*
X37156337Y-94773903D01*
X37384592Y-94835063D01*
X37620000Y-94855659D01*
X37855408Y-94835063D01*
X38083663Y-94773903D01*
X38297830Y-94674035D01*
X38491401Y-94538495D01*
X38658495Y-94371401D01*
X38788426Y-94185839D01*
X38832743Y-94146976D01*
X38890000Y-94132965D01*
X38947257Y-94146976D01*
X38991573Y-94185839D01*
X39121505Y-94371401D01*
X39288599Y-94538495D01*
X39482170Y-94674035D01*
X39696337Y-94773903D01*
X39924592Y-94835063D01*
X40160000Y-94855659D01*
X40395408Y-94835063D01*
X40623663Y-94773903D01*
X40837830Y-94674035D01*
X41031401Y-94538495D01*
X41198495Y-94371401D01*
X41328426Y-94185839D01*
X41372743Y-94146976D01*
X41430000Y-94132965D01*
X41487257Y-94146976D01*
X41531573Y-94185839D01*
X41661505Y-94371401D01*
X41828599Y-94538495D01*
X42022170Y-94674035D01*
X42060677Y-94691991D01*
X42090692Y-94711730D01*
X42096658Y-94718837D01*
X42097039Y-94718457D01*
X42106142Y-94727560D01*
X42120253Y-94744881D01*
X42175709Y-94797201D01*
X42178296Y-94799714D01*
X42761019Y-95382437D01*
X42794399Y-95443279D01*
X42789860Y-95512528D01*
X42748825Y-95568494D01*
X42684146Y-95593646D01*
X42631532Y-95598249D01*
X42622630Y-95599028D01*
X42611824Y-95599500D01*
X42606291Y-95599500D01*
X42575501Y-95603098D01*
X42571917Y-95603464D01*
X42495961Y-95610109D01*
X42476921Y-95614330D01*
X42405232Y-95640421D01*
X42401831Y-95641603D01*
X42329479Y-95665579D01*
X42311925Y-95674077D01*
X42248228Y-95715970D01*
X42245193Y-95717903D01*
X42223905Y-95731035D01*
X42158803Y-95749500D01*
X33852180Y-95749500D01*
X33804727Y-95740061D01*
X33764499Y-95713181D01*
X33326819Y-95275501D01*
X33299939Y-95235273D01*
X33290500Y-95187820D01*
X33290500Y-94687701D01*
X33304511Y-94630444D01*
X33343374Y-94586127D01*
X33411401Y-94538495D01*
X33533717Y-94416178D01*
X33586460Y-94384885D01*
X33647752Y-94382696D01*
X33702597Y-94410149D01*
X33737577Y-94460528D01*
X33786647Y-94592088D01*
X33872811Y-94707188D01*
X33987910Y-94793352D01*
X34122624Y-94843597D01*
X34182176Y-94850000D01*
X34705000Y-94850000D01*
X34705000Y-92150000D01*
X34182176Y-92150000D01*
X34122624Y-92156402D01*
X33987910Y-92206647D01*
X33872811Y-92292811D01*
X33786646Y-92407913D01*
X33737576Y-92539472D01*
X33702597Y-92589850D01*
X33647753Y-92617303D01*
X33586460Y-92615114D01*
X33533714Y-92583818D01*
X33411404Y-92461508D01*
X33411401Y-92461505D01*
X33217830Y-92325965D01*
X33003663Y-92226097D01*
X32931074Y-92206647D01*
X32775407Y-92164936D01*
X32540000Y-92144340D01*
X32304592Y-92164936D01*
X32076336Y-92226097D01*
X31862170Y-92325965D01*
X31668598Y-92461505D01*
X31501508Y-92628595D01*
X31371574Y-92814160D01*
X31327255Y-92853026D01*
X31269999Y-92867036D01*
X31212742Y-92853025D01*
X31168426Y-92814161D01*
X31038495Y-92628599D01*
X30871401Y-92461505D01*
X30677830Y-92325965D01*
X30463663Y-92226097D01*
X30391074Y-92206647D01*
X30235407Y-92164936D01*
X30000000Y-92144340D01*
X29764592Y-92164936D01*
X29536336Y-92226097D01*
X29322170Y-92325965D01*
X29128598Y-92461505D01*
X28961505Y-92628598D01*
X28825965Y-92822170D01*
X28726097Y-93036336D01*
X28664936Y-93264592D01*
X28644340Y-93500000D01*
X28664936Y-93735407D01*
X28685727Y-93813000D01*
X28726097Y-93963663D01*
X28825965Y-94177830D01*
X28961505Y-94371401D01*
X29128599Y-94538495D01*
X29322170Y-94674035D01*
X29536337Y-94773903D01*
X29744934Y-94829795D01*
X29800521Y-94861889D01*
X32624267Y-97685634D01*
X32636048Y-97699266D01*
X32650390Y-97718530D01*
X32688355Y-97750386D01*
X32696317Y-97757684D01*
X32700224Y-97761591D01*
X32724542Y-97780819D01*
X32727298Y-97783063D01*
X32784786Y-97831302D01*
X32784788Y-97831303D01*
X32785757Y-97832116D01*
X32802177Y-97842576D01*
X32803321Y-97843109D01*
X32803323Y-97843111D01*
X32871357Y-97874835D01*
X32874456Y-97876335D01*
X32933342Y-97905909D01*
X32942704Y-97910611D01*
X32961084Y-97916998D01*
X32962321Y-97917253D01*
X32962327Y-97917256D01*
X33035862Y-97932439D01*
X33039209Y-97933181D01*
X33112279Y-97950500D01*
X33112281Y-97950500D01*
X33113505Y-97950790D01*
X33132876Y-97952769D01*
X33134140Y-97952732D01*
X33134144Y-97952733D01*
X33209110Y-97950552D01*
X33212716Y-97950500D01*
X33457325Y-97950500D01*
X33514198Y-97964311D01*
X33558401Y-98002669D01*
X33580088Y-98057028D01*
X33574428Y-98115280D01*
X33542681Y-98164446D01*
X33491920Y-98193576D01*
X33439802Y-98208717D01*
X33298442Y-98292317D01*
X33182317Y-98408442D01*
X33098718Y-98549800D01*
X33066704Y-98660000D01*
X34701000Y-98660000D01*
X34763000Y-98676613D01*
X34808387Y-98722000D01*
X34825000Y-98784000D01*
X34825000Y-99136000D01*
X34808387Y-99198000D01*
X34763000Y-99243387D01*
X34701000Y-99260000D01*
X33066704Y-99260000D01*
X33098718Y-99370199D01*
X33190291Y-99525040D01*
X33188703Y-99525978D01*
X33209817Y-99562547D01*
X33209822Y-99626728D01*
X33188431Y-99663787D01*
X33189893Y-99664652D01*
X33098255Y-99819602D01*
X33052402Y-99977427D01*
X33049500Y-100014308D01*
X33049500Y-100065082D01*
X33034214Y-100124725D01*
X32992125Y-100169663D01*
X32933610Y-100188817D01*
X32873096Y-100177464D01*
X32809500Y-100147809D01*
X32729331Y-100110425D01*
X32517974Y-100053792D01*
X32300000Y-100034722D01*
X32082025Y-100053792D01*
X31870668Y-100110425D01*
X31672361Y-100202898D01*
X31493122Y-100328402D01*
X31338405Y-100483119D01*
X31338402Y-100483122D01*
X31338402Y-100483123D01*
X31300025Y-100537932D01*
X31256575Y-100599985D01*
X31212257Y-100638850D01*
X31155000Y-100652861D01*
X31097743Y-100638850D01*
X31053425Y-100599985D01*
X31050676Y-100596059D01*
X30971598Y-100483123D01*
X30816877Y-100328402D01*
X30637639Y-100202898D01*
X30546205Y-100160261D01*
X30439331Y-100110425D01*
X30227974Y-100053792D01*
X30010000Y-100034722D01*
X29792025Y-100053792D01*
X29580668Y-100110425D01*
X29382361Y-100202898D01*
X29203122Y-100328402D01*
X29048402Y-100483122D01*
X28922898Y-100662361D01*
X28830425Y-100860668D01*
X28773792Y-101072025D01*
X28754722Y-101290000D01*
X28773792Y-101507974D01*
X28830425Y-101719331D01*
X28844428Y-101749360D01*
X28922898Y-101917639D01*
X29048402Y-102096877D01*
X29048405Y-102096880D01*
X29201500Y-102249975D01*
X29233594Y-102305562D01*
X29233594Y-102369749D01*
X29201501Y-102425337D01*
X29070181Y-102556657D01*
X28978142Y-102705877D01*
X28922993Y-102872303D01*
X28912500Y-102975021D01*
X28912500Y-103125000D01*
X30251000Y-103125000D01*
X30313000Y-103141613D01*
X30358387Y-103187000D01*
X30375000Y-103249000D01*
X30375000Y-104724999D01*
X30387479Y-104724999D01*
X30490195Y-104714506D01*
X30656622Y-104659357D01*
X30805845Y-104567316D01*
X30929813Y-104443348D01*
X30931664Y-104440348D01*
X30976771Y-104397164D01*
X31037204Y-104381440D01*
X31097638Y-104397163D01*
X31142746Y-104440345D01*
X31144790Y-104443659D01*
X31268842Y-104567711D01*
X31301217Y-104587680D01*
X31418166Y-104659814D01*
X31510957Y-104690562D01*
X31584702Y-104714999D01*
X31604290Y-104717000D01*
X31660693Y-104722762D01*
X31724645Y-104748573D01*
X31764918Y-104804557D01*
X31769053Y-104873398D01*
X31735772Y-104933801D01*
X31514358Y-105155215D01*
X31500727Y-105166996D01*
X31481467Y-105181335D01*
X31449633Y-105219272D01*
X31442341Y-105227232D01*
X31438408Y-105231165D01*
X31419176Y-105255488D01*
X31416902Y-105258280D01*
X31367894Y-105316687D01*
X31357418Y-105333130D01*
X31325192Y-105402237D01*
X31323622Y-105405479D01*
X31289393Y-105473635D01*
X31282996Y-105492041D01*
X31267573Y-105566731D01*
X31266793Y-105570248D01*
X31249208Y-105644448D01*
X31247229Y-105663821D01*
X31249448Y-105740074D01*
X31249500Y-105743680D01*
X31249500Y-106436294D01*
X31248191Y-106454264D01*
X31244711Y-106478023D01*
X31249028Y-106527369D01*
X31249500Y-106538176D01*
X31249500Y-106543708D01*
X31253098Y-106574496D01*
X31253464Y-106578081D01*
X31259295Y-106644733D01*
X31260110Y-106654041D01*
X31264329Y-106673071D01*
X31264758Y-106674251D01*
X31264759Y-106674255D01*
X31290413Y-106744742D01*
X31291582Y-106748107D01*
X31315580Y-106820524D01*
X31324075Y-106838072D01*
X31365979Y-106901784D01*
X31367889Y-106904782D01*
X31405451Y-106965678D01*
X31407952Y-106969732D01*
X31420253Y-106984830D01*
X31421168Y-106985693D01*
X31421170Y-106985696D01*
X31465668Y-107027678D01*
X31475708Y-107037150D01*
X31478295Y-107039663D01*
X32814269Y-108375637D01*
X32826051Y-108389270D01*
X32840389Y-108408529D01*
X32878337Y-108440372D01*
X32886311Y-108447680D01*
X32890221Y-108451590D01*
X32914537Y-108470816D01*
X32917336Y-108473096D01*
X32975752Y-108522113D01*
X32994597Y-108534118D01*
X33002964Y-108540734D01*
X33039912Y-108588888D01*
X33049581Y-108648809D01*
X33029653Y-108706140D01*
X32984903Y-108747145D01*
X32926053Y-108762000D01*
X32884306Y-108762000D01*
X32872014Y-108762967D01*
X32847427Y-108764902D01*
X32689602Y-108810755D01*
X32548134Y-108894419D01*
X32431919Y-109010634D01*
X32348255Y-109152102D01*
X32302402Y-109309927D01*
X32301735Y-109318406D01*
X32281731Y-109376793D01*
X32236059Y-109418305D01*
X32176032Y-109432657D01*
X32116522Y-109416295D01*
X32072271Y-109373271D01*
X32049405Y-109335803D01*
X31920302Y-109180671D01*
X31873791Y-109124782D01*
X31669323Y-108941577D01*
X31440359Y-108790096D01*
X31191779Y-108673567D01*
X30928881Y-108594473D01*
X30657269Y-108554500D01*
X30451453Y-108554500D01*
X30451449Y-108554500D01*
X30246194Y-108569522D01*
X29978225Y-108629215D01*
X29721803Y-108727288D01*
X29482391Y-108861653D01*
X29265094Y-109029443D01*
X29074545Y-109227083D01*
X28914802Y-109450364D01*
X28789272Y-109694521D01*
X28706858Y-109936096D01*
X28667418Y-109992520D01*
X28603962Y-110019213D01*
X28536048Y-110007947D01*
X28484610Y-109962195D01*
X28465500Y-109896059D01*
X28465500Y-108768143D01*
X28483773Y-108703353D01*
X28533205Y-108657658D01*
X28599227Y-108644525D01*
X28740000Y-108655604D01*
X28998994Y-108635221D01*
X29251610Y-108574573D01*
X29491628Y-108475154D01*
X29713140Y-108339412D01*
X29910689Y-108170689D01*
X30079412Y-107973140D01*
X30215154Y-107751628D01*
X30314573Y-107511610D01*
X30375221Y-107258994D01*
X30395604Y-107000000D01*
X30375221Y-106741006D01*
X30326526Y-106538176D01*
X30314573Y-106488389D01*
X30267048Y-106373655D01*
X30215154Y-106248372D01*
X30079412Y-106026860D01*
X30056898Y-106000500D01*
X29998129Y-105931690D01*
X29910689Y-105829311D01*
X29718408Y-105665087D01*
X29713143Y-105660590D01*
X29712996Y-105660500D01*
X29491628Y-105524846D01*
X29391216Y-105483254D01*
X29251610Y-105425426D01*
X28998995Y-105364779D01*
X28740000Y-105344396D01*
X28481004Y-105364779D01*
X28228389Y-105425426D01*
X28035500Y-105505325D01*
X27988372Y-105524846D01*
X27890500Y-105584822D01*
X27766856Y-105660590D01*
X27569311Y-105829311D01*
X27400590Y-106026856D01*
X27369319Y-106077886D01*
X27264846Y-106248372D01*
X27244590Y-106297276D01*
X27239061Y-106310623D01*
X27197385Y-106363488D01*
X27134229Y-106386788D01*
X27068205Y-106373655D01*
X27018773Y-106327960D01*
X27000500Y-106263170D01*
X27000500Y-103875000D01*
X28912501Y-103875000D01*
X28912501Y-104024979D01*
X28922993Y-104127695D01*
X28978142Y-104294122D01*
X29070183Y-104443345D01*
X29194154Y-104567316D01*
X29343377Y-104659357D01*
X29509803Y-104714506D01*
X29612521Y-104725000D01*
X29625000Y-104725000D01*
X29625000Y-103875000D01*
X28912501Y-103875000D01*
X27000500Y-103875000D01*
X27000500Y-82375000D01*
X32500000Y-82375000D01*
X32500000Y-83162049D01*
X32515386Y-83347732D01*
X32576413Y-83588721D01*
X32676266Y-83816365D01*
X32812233Y-84024477D01*
X32980596Y-84207368D01*
X33176766Y-84360053D01*
X33395394Y-84478369D01*
X33624999Y-84557192D01*
X33625000Y-84557192D01*
X33625000Y-82375000D01*
X34375000Y-82375000D01*
X34375000Y-84557192D01*
X34604605Y-84478369D01*
X34823233Y-84360053D01*
X35019403Y-84207368D01*
X35187766Y-84024477D01*
X35323733Y-83816365D01*
X35423586Y-83588721D01*
X35484613Y-83347732D01*
X35500000Y-83162049D01*
X35500000Y-82375000D01*
X34375000Y-82375000D01*
X33625000Y-82375000D01*
X32500000Y-82375000D01*
X27000500Y-82375000D01*
X27000500Y-75720000D01*
X28644340Y-75720000D01*
X28664936Y-75955407D01*
X28685727Y-76033000D01*
X28726097Y-76183663D01*
X28825965Y-76397830D01*
X28961505Y-76591401D01*
X29128599Y-76758495D01*
X29322170Y-76894035D01*
X29536337Y-76993903D01*
X29764592Y-77055063D01*
X30000000Y-77075659D01*
X30235408Y-77055063D01*
X30463663Y-76993903D01*
X30677830Y-76894035D01*
X30871401Y-76758495D01*
X31038495Y-76591401D01*
X31063927Y-76555080D01*
X31111142Y-76514755D01*
X31171990Y-76502376D01*
X31231210Y-76521048D01*
X31273953Y-76566090D01*
X31289500Y-76626206D01*
X31289500Y-76844895D01*
X31288720Y-76858779D01*
X31284761Y-76893907D01*
X31289219Y-76960013D01*
X31289500Y-76968355D01*
X31289500Y-76978236D01*
X31293153Y-77018830D01*
X31293371Y-77021602D01*
X31299904Y-77118495D01*
X31300973Y-77122738D01*
X31304229Y-77141901D01*
X31304622Y-77146266D01*
X31330465Y-77239905D01*
X31331158Y-77242528D01*
X31339574Y-77275925D01*
X31354904Y-77336765D01*
X31356712Y-77340745D01*
X31363342Y-77359031D01*
X31364506Y-77363249D01*
X31406657Y-77450780D01*
X31407835Y-77453298D01*
X31447992Y-77541706D01*
X31450483Y-77545301D01*
X31460271Y-77562110D01*
X31462170Y-77566055D01*
X31519258Y-77644629D01*
X31520868Y-77646898D01*
X31576178Y-77726733D01*
X31579268Y-77729823D01*
X31591905Y-77744618D01*
X31594478Y-77748159D01*
X31657399Y-77808318D01*
X31664699Y-77815297D01*
X31666688Y-77817243D01*
X33179101Y-79329656D01*
X33188367Y-79340024D01*
X33210412Y-79367667D01*
X33255539Y-79407094D01*
X33289525Y-79455536D01*
X33297191Y-79514212D01*
X33276791Y-79569759D01*
X33232973Y-79609528D01*
X33176766Y-79639946D01*
X32980596Y-79792631D01*
X32812233Y-79975522D01*
X32676266Y-80183634D01*
X32576413Y-80411278D01*
X32515386Y-80652267D01*
X32500000Y-80837951D01*
X32500000Y-81625000D01*
X35500000Y-81625000D01*
X35500000Y-80837951D01*
X35484613Y-80652267D01*
X35423586Y-80411278D01*
X35323733Y-80183634D01*
X35187766Y-79975522D01*
X35172081Y-79958483D01*
X35144178Y-79908898D01*
X35141356Y-79852071D01*
X35164212Y-79799966D01*
X35207931Y-79763554D01*
X35263311Y-79750500D01*
X37556153Y-79750500D01*
X37556155Y-79750500D01*
X37724188Y-79735377D01*
X37941170Y-79675493D01*
X38143973Y-79577829D01*
X38326078Y-79445522D01*
X38481632Y-79282825D01*
X38605635Y-79094968D01*
X38694103Y-78887988D01*
X38744191Y-78668537D01*
X38754290Y-78443670D01*
X38724075Y-78220613D01*
X38654517Y-78006536D01*
X38547852Y-77808319D01*
X38427737Y-77657701D01*
X38407509Y-77632335D01*
X38331646Y-77566055D01*
X38237996Y-77484235D01*
X38184293Y-77452149D01*
X38044762Y-77368783D01*
X37840075Y-77291964D01*
X37789415Y-77256473D01*
X37762203Y-77200926D01*
X37765209Y-77139144D01*
X37797686Y-77086501D01*
X37851552Y-77056096D01*
X37855406Y-77055063D01*
X37855408Y-77055063D01*
X38083663Y-76993903D01*
X38297830Y-76894035D01*
X38491401Y-76758495D01*
X38658495Y-76591401D01*
X38788426Y-76405839D01*
X38832743Y-76366975D01*
X38890000Y-76352964D01*
X38947257Y-76366975D01*
X38991573Y-76405839D01*
X39121505Y-76591401D01*
X39288599Y-76758495D01*
X39482170Y-76894035D01*
X39696337Y-76993903D01*
X39904868Y-77049778D01*
X39924592Y-77055063D01*
X39928621Y-77055416D01*
X39991399Y-77079136D01*
X40032623Y-77132090D01*
X40040221Y-77198768D01*
X40011966Y-77259639D01*
X39956135Y-77296875D01*
X39847995Y-77332012D01*
X39806536Y-77345483D01*
X39608319Y-77452148D01*
X39608317Y-77452149D01*
X39608318Y-77452149D01*
X39432335Y-77592490D01*
X39284233Y-77762006D01*
X39168783Y-77955237D01*
X39089693Y-78165974D01*
X39049500Y-78387453D01*
X39049500Y-79200249D01*
X39036384Y-79255753D01*
X38999811Y-79299515D01*
X38942456Y-79342451D01*
X38856204Y-79457668D01*
X38805909Y-79592515D01*
X38805909Y-79592517D01*
X38801749Y-79631215D01*
X38799500Y-79652130D01*
X38799500Y-84347869D01*
X38805909Y-84407484D01*
X38825060Y-84458830D01*
X38856204Y-84542331D01*
X38942454Y-84657546D01*
X39057669Y-84743796D01*
X39192517Y-84794091D01*
X39252127Y-84800500D01*
X41347872Y-84800499D01*
X41407483Y-84794091D01*
X41542331Y-84743796D01*
X41657546Y-84657546D01*
X41743796Y-84542331D01*
X41794091Y-84407483D01*
X41800500Y-84347873D01*
X41800499Y-79652128D01*
X41794091Y-79592517D01*
X41743796Y-79457669D01*
X41657546Y-79342454D01*
X41657544Y-79342452D01*
X41657543Y-79342451D01*
X41600189Y-79299515D01*
X41563616Y-79255753D01*
X41550500Y-79200249D01*
X41550500Y-78443847D01*
X41545708Y-78390600D01*
X41535377Y-78275812D01*
X41475493Y-78058830D01*
X41377829Y-77856027D01*
X41245522Y-77673922D01*
X41082825Y-77518368D01*
X41082822Y-77518366D01*
X41082821Y-77518365D01*
X40894968Y-77394365D01*
X40687987Y-77305896D01*
X40511930Y-77265713D01*
X40454503Y-77235087D01*
X40420497Y-77179595D01*
X40419281Y-77114524D01*
X40451188Y-77057799D01*
X40507427Y-77025047D01*
X40623663Y-76993903D01*
X40837830Y-76894035D01*
X41031401Y-76758495D01*
X41198495Y-76591401D01*
X41328426Y-76405839D01*
X41372743Y-76366975D01*
X41430000Y-76352964D01*
X41487257Y-76366975D01*
X41531573Y-76405839D01*
X41661505Y-76591401D01*
X41828599Y-76758495D01*
X42022170Y-76894035D01*
X42236337Y-76993903D01*
X42464592Y-77055063D01*
X42700000Y-77075659D01*
X42935408Y-77055063D01*
X43163663Y-76993903D01*
X43377830Y-76894035D01*
X43571401Y-76758495D01*
X43738495Y-76591401D01*
X43763927Y-76555080D01*
X43811142Y-76514755D01*
X43871990Y-76502376D01*
X43931210Y-76521048D01*
X43973953Y-76566090D01*
X43989500Y-76626206D01*
X43989500Y-83690664D01*
X43980061Y-83738117D01*
X43953181Y-83778345D01*
X42218345Y-85513181D01*
X42178117Y-85540061D01*
X42130664Y-85549500D01*
X39366289Y-85549500D01*
X39330908Y-85544345D01*
X39298468Y-85529309D01*
X39216607Y-85475827D01*
X38988882Y-85375937D01*
X38871352Y-85346174D01*
X38747821Y-85314892D01*
X38747819Y-85314891D01*
X38747816Y-85314891D01*
X38562073Y-85299500D01*
X38562067Y-85299500D01*
X36237933Y-85299500D01*
X36237927Y-85299500D01*
X36052183Y-85314891D01*
X36052179Y-85314891D01*
X36052179Y-85314892D01*
X35811119Y-85375937D01*
X35811116Y-85375938D01*
X35811117Y-85375938D01*
X35583395Y-85475825D01*
X35444607Y-85566499D01*
X35375215Y-85611836D01*
X35375213Y-85611837D01*
X35375214Y-85611837D01*
X35192259Y-85780259D01*
X35039529Y-85976485D01*
X34921170Y-86195194D01*
X34840429Y-86430384D01*
X34840429Y-86430386D01*
X34799500Y-86675665D01*
X34799500Y-86924335D01*
X34840429Y-87169614D01*
X34921172Y-87404810D01*
X35039526Y-87623509D01*
X35039529Y-87623514D01*
X35175036Y-87797612D01*
X35192262Y-87819744D01*
X35375215Y-87988164D01*
X35583393Y-88124173D01*
X35811119Y-88224063D01*
X36052179Y-88285108D01*
X36126480Y-88291264D01*
X36237927Y-88300500D01*
X36237933Y-88300500D01*
X38562067Y-88300500D01*
X38562073Y-88300500D01*
X38663387Y-88292104D01*
X38747821Y-88285108D01*
X38988881Y-88224063D01*
X39216607Y-88124173D01*
X39274125Y-88086594D01*
X39298468Y-88070691D01*
X39330908Y-88055655D01*
X39366289Y-88050500D01*
X42622814Y-88050500D01*
X42636698Y-88051280D01*
X42671826Y-88055238D01*
X42671826Y-88055237D01*
X42671827Y-88055238D01*
X42737934Y-88050780D01*
X42746274Y-88050500D01*
X42756150Y-88050500D01*
X42756155Y-88050500D01*
X42796800Y-88046841D01*
X42799504Y-88046628D01*
X42896412Y-88040096D01*
X42900652Y-88039027D01*
X42919837Y-88035768D01*
X42924188Y-88035377D01*
X43017856Y-88009525D01*
X43020466Y-88008836D01*
X43114683Y-87985096D01*
X43118658Y-87983290D01*
X43136961Y-87976655D01*
X43141167Y-87975494D01*
X43141167Y-87975493D01*
X43141170Y-87975493D01*
X43228739Y-87933321D01*
X43231165Y-87932187D01*
X43319626Y-87892007D01*
X43323209Y-87889524D01*
X43340039Y-87879723D01*
X43343973Y-87877829D01*
X43422608Y-87820696D01*
X43424781Y-87819155D01*
X43504654Y-87763820D01*
X43507740Y-87760732D01*
X43522543Y-87748089D01*
X43526078Y-87745522D01*
X43593239Y-87675275D01*
X43595096Y-87673376D01*
X46069667Y-85198805D01*
X46080016Y-85189557D01*
X46107666Y-85167508D01*
X46151267Y-85117601D01*
X46156956Y-85111517D01*
X46163944Y-85104530D01*
X46190099Y-85073200D01*
X46191856Y-85071143D01*
X46255765Y-84997996D01*
X46258002Y-84994251D01*
X46269269Y-84978370D01*
X46272068Y-84975019D01*
X46320008Y-84890529D01*
X46321375Y-84888182D01*
X46371214Y-84804765D01*
X46371215Y-84804764D01*
X46372749Y-84800674D01*
X46380998Y-84783041D01*
X46383153Y-84779245D01*
X46415253Y-84687507D01*
X46416153Y-84685023D01*
X46450307Y-84594024D01*
X46451087Y-84589723D01*
X46456052Y-84570913D01*
X46457498Y-84566783D01*
X46472708Y-84470746D01*
X46473144Y-84468181D01*
X46490500Y-84372547D01*
X46490500Y-84368170D01*
X46492027Y-84348771D01*
X46492169Y-84347873D01*
X46492710Y-84344460D01*
X46490531Y-84247378D01*
X46490500Y-84244596D01*
X46490500Y-77113917D01*
X46509005Y-77048750D01*
X46558996Y-77003033D01*
X46625553Y-76990411D01*
X46670884Y-77007781D01*
X46670965Y-77007565D01*
X46687666Y-77013794D01*
X46687669Y-77013796D01*
X46822517Y-77064091D01*
X46882127Y-77070500D01*
X48677872Y-77070499D01*
X48737483Y-77064091D01*
X48872331Y-77013796D01*
X48987546Y-76927546D01*
X49073796Y-76812331D01*
X49122810Y-76680916D01*
X49157789Y-76630537D01*
X49212634Y-76603084D01*
X49273927Y-76605273D01*
X49326673Y-76636569D01*
X49448599Y-76758495D01*
X49642170Y-76894035D01*
X49856337Y-76993903D01*
X50084592Y-77055063D01*
X50320000Y-77075659D01*
X50555408Y-77055063D01*
X50783663Y-76993903D01*
X50997830Y-76894035D01*
X51191401Y-76758495D01*
X51358495Y-76591401D01*
X51488426Y-76405839D01*
X51532743Y-76366975D01*
X51590000Y-76352964D01*
X51647257Y-76366975D01*
X51691573Y-76405839D01*
X51821505Y-76591401D01*
X51988599Y-76758495D01*
X52182170Y-76894035D01*
X52396337Y-76993903D01*
X52624592Y-77055063D01*
X52860000Y-77075659D01*
X53095408Y-77055063D01*
X53323663Y-76993903D01*
X53537830Y-76894035D01*
X53731401Y-76758495D01*
X53898495Y-76591401D01*
X54028426Y-76405839D01*
X54072743Y-76366975D01*
X54130000Y-76352964D01*
X54187257Y-76366975D01*
X54231573Y-76405839D01*
X54361505Y-76591401D01*
X54528599Y-76758495D01*
X54722170Y-76894035D01*
X54936337Y-76993903D01*
X55164592Y-77055063D01*
X55400000Y-77075659D01*
X55635408Y-77055063D01*
X55863663Y-76993903D01*
X56077830Y-76894035D01*
X56271401Y-76758495D01*
X56438495Y-76591401D01*
X56568426Y-76405839D01*
X56612743Y-76366975D01*
X56670000Y-76352964D01*
X56727257Y-76366975D01*
X56771573Y-76405839D01*
X56901505Y-76591401D01*
X57068599Y-76758495D01*
X57262170Y-76894035D01*
X57476337Y-76993903D01*
X57704592Y-77055063D01*
X57940000Y-77075659D01*
X58175408Y-77055063D01*
X58403663Y-76993903D01*
X58617830Y-76894035D01*
X58811401Y-76758495D01*
X58933717Y-76636178D01*
X58986460Y-76604885D01*
X59047752Y-76602696D01*
X59102597Y-76630149D01*
X59137577Y-76680528D01*
X59186647Y-76812088D01*
X59272811Y-76927188D01*
X59387910Y-77013352D01*
X59522624Y-77063597D01*
X59582176Y-77070000D01*
X60105000Y-77070000D01*
X60855000Y-77070000D01*
X61377824Y-77070000D01*
X61437375Y-77063597D01*
X61572089Y-77013352D01*
X61687188Y-76927188D01*
X61773352Y-76812089D01*
X61822422Y-76680528D01*
X61857401Y-76630149D01*
X61912246Y-76602696D01*
X61973539Y-76604885D01*
X62026285Y-76636181D01*
X62148599Y-76758495D01*
X62342170Y-76894035D01*
X62556337Y-76993903D01*
X62784592Y-77055063D01*
X63020000Y-77075659D01*
X63255408Y-77055063D01*
X63483663Y-76993903D01*
X63697830Y-76894035D01*
X63891401Y-76758495D01*
X64058495Y-76591401D01*
X64188426Y-76405839D01*
X64232743Y-76366975D01*
X64290000Y-76352964D01*
X64347257Y-76366975D01*
X64391573Y-76405839D01*
X64521505Y-76591401D01*
X64688599Y-76758495D01*
X64882170Y-76894035D01*
X65096337Y-76993903D01*
X65324592Y-77055063D01*
X65560000Y-77075659D01*
X65795408Y-77055063D01*
X66023663Y-76993903D01*
X66237830Y-76894035D01*
X66431401Y-76758495D01*
X66598495Y-76591401D01*
X66728426Y-76405839D01*
X66772743Y-76366975D01*
X66830000Y-76352964D01*
X66887257Y-76366975D01*
X66931573Y-76405839D01*
X67061505Y-76591401D01*
X67228599Y-76758495D01*
X67422170Y-76894035D01*
X67636337Y-76993903D01*
X67864592Y-77055063D01*
X68100000Y-77075659D01*
X68335408Y-77055063D01*
X68563663Y-76993903D01*
X68777830Y-76894035D01*
X68971401Y-76758495D01*
X69138495Y-76591401D01*
X69268426Y-76405839D01*
X69312743Y-76366975D01*
X69370000Y-76352964D01*
X69427257Y-76366975D01*
X69471573Y-76405839D01*
X69601505Y-76591401D01*
X69768599Y-76758495D01*
X69962170Y-76894035D01*
X70176337Y-76993903D01*
X70404592Y-77055063D01*
X70640000Y-77075659D01*
X70875408Y-77055063D01*
X71103663Y-76993903D01*
X71317830Y-76894035D01*
X71511401Y-76758495D01*
X71633717Y-76636178D01*
X71686460Y-76604885D01*
X71747752Y-76602696D01*
X71802597Y-76630149D01*
X71837577Y-76680528D01*
X71886647Y-76812088D01*
X71972811Y-76927188D01*
X72087910Y-77013352D01*
X72222624Y-77063597D01*
X72282176Y-77070000D01*
X72805000Y-77070000D01*
X73555000Y-77070000D01*
X74077824Y-77070000D01*
X74137375Y-77063597D01*
X74272089Y-77013352D01*
X74387188Y-76927188D01*
X74473352Y-76812089D01*
X74522422Y-76680528D01*
X74557401Y-76630149D01*
X74612246Y-76602696D01*
X74673539Y-76604885D01*
X74726285Y-76636181D01*
X74848599Y-76758495D01*
X75042170Y-76894035D01*
X75256337Y-76993903D01*
X75484592Y-77055063D01*
X75720000Y-77075659D01*
X75955408Y-77055063D01*
X76183663Y-76993903D01*
X76397830Y-76894035D01*
X76591401Y-76758495D01*
X76758495Y-76591401D01*
X76888426Y-76405839D01*
X76932743Y-76366975D01*
X76990000Y-76352964D01*
X77047257Y-76366975D01*
X77091573Y-76405839D01*
X77221505Y-76591401D01*
X77388599Y-76758495D01*
X77582170Y-76894035D01*
X77796337Y-76993903D01*
X78024592Y-77055063D01*
X78260000Y-77075659D01*
X78495408Y-77055063D01*
X78723663Y-76993903D01*
X78937830Y-76894035D01*
X79131401Y-76758495D01*
X79298495Y-76591401D01*
X79434035Y-76397830D01*
X79533903Y-76183663D01*
X79595063Y-75955408D01*
X79615659Y-75720000D01*
X79595063Y-75484592D01*
X79533903Y-75256337D01*
X79434035Y-75042171D01*
X79298495Y-74848599D01*
X79131401Y-74681505D01*
X78937830Y-74545965D01*
X78723663Y-74446097D01*
X78651074Y-74426647D01*
X78495407Y-74384936D01*
X78259999Y-74364340D01*
X78024592Y-74384936D01*
X77796336Y-74446097D01*
X77582170Y-74545965D01*
X77388598Y-74681505D01*
X77221505Y-74848598D01*
X77091575Y-75034159D01*
X77047257Y-75073025D01*
X76990000Y-75087036D01*
X76932743Y-75073025D01*
X76888425Y-75034159D01*
X76758494Y-74848598D01*
X76591404Y-74681508D01*
X76591401Y-74681505D01*
X76397830Y-74545965D01*
X76183663Y-74446097D01*
X76111074Y-74426647D01*
X75955407Y-74384936D01*
X75719999Y-74364340D01*
X75484592Y-74384936D01*
X75256336Y-74446097D01*
X75042170Y-74545965D01*
X74848601Y-74681503D01*
X74726285Y-74803819D01*
X74673539Y-74835114D01*
X74612246Y-74837303D01*
X74557401Y-74809850D01*
X74522422Y-74759471D01*
X74473352Y-74627911D01*
X74387188Y-74512811D01*
X74272089Y-74426647D01*
X74137375Y-74376402D01*
X74077824Y-74370000D01*
X73555000Y-74370000D01*
X73555000Y-77070000D01*
X72805000Y-77070000D01*
X72805000Y-74370000D01*
X72282176Y-74370000D01*
X72222624Y-74376402D01*
X72087910Y-74426647D01*
X71972811Y-74512811D01*
X71886646Y-74627913D01*
X71837576Y-74759472D01*
X71802597Y-74809850D01*
X71747753Y-74837303D01*
X71686460Y-74835114D01*
X71633714Y-74803818D01*
X71511404Y-74681508D01*
X71511401Y-74681505D01*
X71317830Y-74545965D01*
X71103663Y-74446097D01*
X71031074Y-74426647D01*
X70875407Y-74384936D01*
X70639999Y-74364340D01*
X70404592Y-74384936D01*
X70176336Y-74446097D01*
X69962170Y-74545965D01*
X69768598Y-74681505D01*
X69601505Y-74848598D01*
X69471575Y-75034159D01*
X69427257Y-75073025D01*
X69370000Y-75087036D01*
X69312743Y-75073025D01*
X69268425Y-75034159D01*
X69138494Y-74848598D01*
X68971404Y-74681508D01*
X68971401Y-74681505D01*
X68777830Y-74545965D01*
X68563663Y-74446097D01*
X68491074Y-74426647D01*
X68335407Y-74384936D01*
X68099999Y-74364340D01*
X67864592Y-74384936D01*
X67636336Y-74446097D01*
X67422170Y-74545965D01*
X67228598Y-74681505D01*
X67061505Y-74848598D01*
X66931575Y-75034159D01*
X66887257Y-75073025D01*
X66830000Y-75087036D01*
X66772743Y-75073025D01*
X66728425Y-75034159D01*
X66598494Y-74848598D01*
X66431404Y-74681508D01*
X66431401Y-74681505D01*
X66237830Y-74545965D01*
X66023663Y-74446097D01*
X65951074Y-74426647D01*
X65795407Y-74384936D01*
X65559999Y-74364340D01*
X65324592Y-74384936D01*
X65096336Y-74446097D01*
X64882170Y-74545965D01*
X64688598Y-74681505D01*
X64521505Y-74848598D01*
X64391575Y-75034159D01*
X64347257Y-75073025D01*
X64290000Y-75087036D01*
X64232743Y-75073025D01*
X64188425Y-75034159D01*
X64058494Y-74848598D01*
X63891404Y-74681508D01*
X63891401Y-74681505D01*
X63697830Y-74545965D01*
X63483663Y-74446097D01*
X63411074Y-74426647D01*
X63255407Y-74384936D01*
X63019999Y-74364340D01*
X62784592Y-74384936D01*
X62556336Y-74446097D01*
X62342170Y-74545965D01*
X62148601Y-74681503D01*
X62026285Y-74803819D01*
X61973539Y-74835114D01*
X61912246Y-74837303D01*
X61857401Y-74809850D01*
X61822422Y-74759471D01*
X61773352Y-74627911D01*
X61687188Y-74512811D01*
X61572089Y-74426647D01*
X61437375Y-74376402D01*
X61377824Y-74370000D01*
X60855000Y-74370000D01*
X60855000Y-77070000D01*
X60105000Y-77070000D01*
X60105000Y-74370000D01*
X59582176Y-74370000D01*
X59522624Y-74376402D01*
X59387910Y-74426647D01*
X59272811Y-74512811D01*
X59186646Y-74627913D01*
X59137576Y-74759472D01*
X59102597Y-74809850D01*
X59047753Y-74837303D01*
X58986460Y-74835114D01*
X58933714Y-74803818D01*
X58811404Y-74681508D01*
X58811401Y-74681505D01*
X58617830Y-74545965D01*
X58403663Y-74446097D01*
X58331074Y-74426647D01*
X58175407Y-74384936D01*
X57939999Y-74364340D01*
X57704592Y-74384936D01*
X57476336Y-74446097D01*
X57262170Y-74545965D01*
X57068598Y-74681505D01*
X56901505Y-74848598D01*
X56771575Y-75034159D01*
X56727257Y-75073025D01*
X56670000Y-75087036D01*
X56612743Y-75073025D01*
X56568425Y-75034159D01*
X56438494Y-74848598D01*
X56271404Y-74681508D01*
X56271401Y-74681505D01*
X56077830Y-74545965D01*
X55863663Y-74446097D01*
X55791074Y-74426647D01*
X55635407Y-74384936D01*
X55399999Y-74364340D01*
X55164592Y-74384936D01*
X54936336Y-74446097D01*
X54722170Y-74545965D01*
X54528598Y-74681505D01*
X54361505Y-74848598D01*
X54231575Y-75034159D01*
X54187257Y-75073025D01*
X54130000Y-75087036D01*
X54072743Y-75073025D01*
X54028425Y-75034159D01*
X53898494Y-74848598D01*
X53731404Y-74681508D01*
X53731401Y-74681505D01*
X53537830Y-74545965D01*
X53323663Y-74446097D01*
X53251074Y-74426647D01*
X53095407Y-74384936D01*
X52859999Y-74364340D01*
X52624592Y-74384936D01*
X52396336Y-74446097D01*
X52182170Y-74545965D01*
X51988598Y-74681505D01*
X51821505Y-74848598D01*
X51691575Y-75034159D01*
X51647257Y-75073025D01*
X51590000Y-75087036D01*
X51532743Y-75073025D01*
X51488425Y-75034159D01*
X51358494Y-74848598D01*
X51191404Y-74681508D01*
X51191401Y-74681505D01*
X50997830Y-74545965D01*
X50783663Y-74446097D01*
X50711074Y-74426647D01*
X50555407Y-74384936D01*
X50319999Y-74364340D01*
X50084592Y-74384936D01*
X49856336Y-74446097D01*
X49642170Y-74545965D01*
X49448601Y-74681503D01*
X49326673Y-74803431D01*
X49273926Y-74834726D01*
X49212634Y-74836915D01*
X49157789Y-74809462D01*
X49122810Y-74759082D01*
X49115658Y-74739907D01*
X49073796Y-74627669D01*
X48987546Y-74512454D01*
X48872331Y-74426204D01*
X48737483Y-74375909D01*
X48677873Y-74369500D01*
X48677869Y-74369500D01*
X46882130Y-74369500D01*
X46822515Y-74375909D01*
X46687669Y-74426204D01*
X46572454Y-74512454D01*
X46486204Y-74627669D01*
X46437189Y-74759083D01*
X46402209Y-74809462D01*
X46347365Y-74836915D01*
X46286072Y-74834726D01*
X46233326Y-74803430D01*
X46111404Y-74681508D01*
X46111401Y-74681505D01*
X45917830Y-74545965D01*
X45703663Y-74446097D01*
X45631074Y-74426647D01*
X45475407Y-74384936D01*
X45239999Y-74364340D01*
X45004592Y-74384936D01*
X44776336Y-74446097D01*
X44562170Y-74545965D01*
X44368598Y-74681505D01*
X44201505Y-74848598D01*
X44071575Y-75034159D01*
X44027257Y-75073025D01*
X43970000Y-75087036D01*
X43912743Y-75073025D01*
X43868425Y-75034159D01*
X43738494Y-74848598D01*
X43571404Y-74681508D01*
X43571401Y-74681505D01*
X43377830Y-74545965D01*
X43163663Y-74446097D01*
X43091074Y-74426647D01*
X42935407Y-74384936D01*
X42699999Y-74364340D01*
X42464592Y-74384936D01*
X42236336Y-74446097D01*
X42022170Y-74545965D01*
X41828598Y-74681505D01*
X41661505Y-74848598D01*
X41531575Y-75034159D01*
X41487257Y-75073025D01*
X41430000Y-75087036D01*
X41372743Y-75073025D01*
X41328425Y-75034159D01*
X41198494Y-74848598D01*
X41031404Y-74681508D01*
X41031401Y-74681505D01*
X40837830Y-74545965D01*
X40623663Y-74446097D01*
X40551074Y-74426647D01*
X40395407Y-74384936D01*
X40159999Y-74364340D01*
X39924592Y-74384936D01*
X39696336Y-74446097D01*
X39482170Y-74545965D01*
X39288598Y-74681505D01*
X39121505Y-74848598D01*
X38991575Y-75034159D01*
X38947257Y-75073025D01*
X38890000Y-75087036D01*
X38832743Y-75073025D01*
X38788425Y-75034159D01*
X38658494Y-74848598D01*
X38491404Y-74681508D01*
X38491401Y-74681505D01*
X38297830Y-74545965D01*
X38083663Y-74446097D01*
X38011074Y-74426647D01*
X37855407Y-74384936D01*
X37619999Y-74364340D01*
X37384592Y-74384936D01*
X37156336Y-74446097D01*
X36942170Y-74545965D01*
X36748601Y-74681503D01*
X36626285Y-74803819D01*
X36573539Y-74835114D01*
X36512246Y-74837303D01*
X36457401Y-74809850D01*
X36422422Y-74759471D01*
X36373352Y-74627911D01*
X36287188Y-74512811D01*
X36172089Y-74426647D01*
X36037375Y-74376402D01*
X35977824Y-74370000D01*
X35455000Y-74370000D01*
X35455000Y-75971000D01*
X35438387Y-76033000D01*
X35393000Y-76078387D01*
X35331000Y-76095000D01*
X34829000Y-76095000D01*
X34767000Y-76078387D01*
X34721613Y-76033000D01*
X34705000Y-75971000D01*
X34705000Y-74370000D01*
X34182176Y-74370000D01*
X34122624Y-74376402D01*
X33987910Y-74426647D01*
X33872811Y-74512811D01*
X33786646Y-74627913D01*
X33737576Y-74759472D01*
X33702597Y-74809850D01*
X33647753Y-74837303D01*
X33586460Y-74835114D01*
X33533714Y-74803818D01*
X33411404Y-74681508D01*
X33411401Y-74681505D01*
X33217830Y-74545965D01*
X33003663Y-74446097D01*
X32931074Y-74426647D01*
X32775407Y-74384936D01*
X32539999Y-74364340D01*
X32304592Y-74384936D01*
X32076336Y-74446097D01*
X31862170Y-74545965D01*
X31668598Y-74681505D01*
X31501505Y-74848598D01*
X31371575Y-75034159D01*
X31327257Y-75073025D01*
X31270000Y-75087036D01*
X31212743Y-75073025D01*
X31168425Y-75034159D01*
X31038494Y-74848598D01*
X30871404Y-74681508D01*
X30871401Y-74681505D01*
X30677830Y-74545965D01*
X30463663Y-74446097D01*
X30391074Y-74426647D01*
X30235407Y-74384936D01*
X29999999Y-74364340D01*
X29764592Y-74384936D01*
X29536336Y-74446097D01*
X29322170Y-74545965D01*
X29128598Y-74681505D01*
X28961505Y-74848598D01*
X28825965Y-75042170D01*
X28726097Y-75256336D01*
X28664936Y-75484592D01*
X28644340Y-75720000D01*
X27000500Y-75720000D01*
X27000500Y-73624500D01*
X27017113Y-73562500D01*
X27062500Y-73517113D01*
X27124500Y-73500500D01*
X131875500Y-73500500D01*
X131937500Y-73517113D01*
G37*
%TD.AperFunction*%
%TA.AperFunction,Conductor*%
G36*
X37198385Y-104119389D02*
G01*
X37235985Y-104163412D01*
X37249500Y-104219707D01*
X37249500Y-104632294D01*
X37248191Y-104650264D01*
X37244711Y-104674023D01*
X37249028Y-104723369D01*
X37249500Y-104734176D01*
X37249500Y-104739715D01*
X37249660Y-104741085D01*
X37249500Y-104742398D01*
X37249500Y-104746930D01*
X37248948Y-104746930D01*
X37242601Y-104799016D01*
X37209825Y-104847302D01*
X37158592Y-104875248D01*
X36952668Y-104930425D01*
X36754361Y-105022898D01*
X36575122Y-105148402D01*
X36420402Y-105303122D01*
X36294898Y-105482361D01*
X36202425Y-105680668D01*
X36171773Y-105795062D01*
X36139679Y-105850649D01*
X35437680Y-106552648D01*
X35382093Y-106584742D01*
X35317905Y-106584742D01*
X35262318Y-106552648D01*
X34907350Y-106197680D01*
X34875256Y-106142093D01*
X34875256Y-106077905D01*
X34907350Y-106022318D01*
X35650891Y-105278777D01*
X35686169Y-105254075D01*
X35727765Y-105242930D01*
X35761275Y-105239999D01*
X35761275Y-105239998D01*
X35762530Y-105239889D01*
X35781540Y-105235674D01*
X35782728Y-105235241D01*
X35782733Y-105235241D01*
X35853298Y-105209557D01*
X35856573Y-105208419D01*
X35927812Y-105184814D01*
X35927814Y-105184812D01*
X35929014Y-105184415D01*
X35946541Y-105175929D01*
X35947590Y-105175238D01*
X35947595Y-105175237D01*
X36010284Y-105134005D01*
X36013276Y-105132099D01*
X36077134Y-105092712D01*
X36077136Y-105092709D01*
X36078209Y-105092048D01*
X36093295Y-105079760D01*
X36094169Y-105078832D01*
X36094174Y-105078830D01*
X36145695Y-105024218D01*
X36148110Y-105021733D01*
X37037818Y-104132026D01*
X37087182Y-104101776D01*
X37144898Y-104097234D01*
X37198385Y-104119389D01*
G37*
%TD.AperFunction*%
%TA.AperFunction,Conductor*%
G36*
X112314559Y-103138957D02*
G01*
X112358633Y-103176767D01*
X112380660Y-103230497D01*
X112375809Y-103288364D01*
X112347993Y-103372304D01*
X112337500Y-103475021D01*
X112337500Y-103625000D01*
X113676000Y-103625000D01*
X113738000Y-103641613D01*
X113783387Y-103687000D01*
X113800000Y-103749000D01*
X113800000Y-105224999D01*
X113812479Y-105224999D01*
X113915195Y-105214506D01*
X114081622Y-105159357D01*
X114230845Y-105067316D01*
X114354813Y-104943348D01*
X114356664Y-104940348D01*
X114401771Y-104897164D01*
X114462204Y-104881440D01*
X114522638Y-104897163D01*
X114567746Y-104940345D01*
X114569790Y-104943659D01*
X114693842Y-105067711D01*
X114746318Y-105100078D01*
X114843166Y-105159814D01*
X114927209Y-105187663D01*
X115009702Y-105214999D01*
X115019776Y-105216028D01*
X115086345Y-105222828D01*
X115149704Y-105248177D01*
X115190057Y-105303211D01*
X115195180Y-105371262D01*
X115185573Y-105417787D01*
X115184793Y-105421305D01*
X115167208Y-105495505D01*
X115165229Y-105514878D01*
X115167448Y-105591131D01*
X115167500Y-105594737D01*
X115167500Y-106000500D01*
X115150887Y-106062500D01*
X115105500Y-106107887D01*
X115043500Y-106124500D01*
X115013537Y-106124500D01*
X115010179Y-106124455D01*
X114928528Y-106122243D01*
X114928527Y-106122243D01*
X114928342Y-106122278D01*
X114904976Y-106124500D01*
X113758689Y-106124500D01*
X113698100Y-106108689D01*
X113652962Y-106065290D01*
X113647354Y-106056139D01*
X113629412Y-106026860D01*
X113460689Y-105829311D01*
X113268408Y-105665087D01*
X113263143Y-105660590D01*
X113262996Y-105660500D01*
X113041628Y-105524846D01*
X112939063Y-105482362D01*
X112864183Y-105451345D01*
X112809855Y-105407611D01*
X112808870Y-105404667D01*
X112801224Y-105409134D01*
X112738734Y-105410331D01*
X112548995Y-105364779D01*
X112290000Y-105344396D01*
X112031004Y-105364779D01*
X111778389Y-105425426D01*
X111585500Y-105505325D01*
X111538372Y-105524846D01*
X111440500Y-105584822D01*
X111316856Y-105660590D01*
X111119311Y-105829311D01*
X110950588Y-106026859D01*
X110919319Y-106077886D01*
X110871104Y-106122951D01*
X110806597Y-106136898D01*
X110744072Y-106115774D01*
X110701240Y-106065565D01*
X110690234Y-106000492D01*
X110697263Y-105931690D01*
X110700500Y-105900009D01*
X110700499Y-105099992D01*
X110697201Y-105067711D01*
X110689999Y-104997203D01*
X110679164Y-104964506D01*
X110634814Y-104830666D01*
X110571961Y-104728764D01*
X110542711Y-104681342D01*
X110449049Y-104587680D01*
X110416955Y-104532092D01*
X110416955Y-104467905D01*
X110449048Y-104412319D01*
X110486367Y-104375000D01*
X112337501Y-104375000D01*
X112337501Y-104524979D01*
X112347993Y-104627695D01*
X112403142Y-104794122D01*
X112495183Y-104943345D01*
X112619154Y-105067316D01*
X112768378Y-105159357D01*
X112806684Y-105172051D01*
X112859144Y-105206028D01*
X112868519Y-105223753D01*
X112924240Y-105213426D01*
X113037522Y-105225000D01*
X113050000Y-105225000D01*
X113050000Y-104375000D01*
X112337501Y-104375000D01*
X110486367Y-104375000D01*
X110542712Y-104318656D01*
X110634814Y-104169334D01*
X110689999Y-104002797D01*
X110700500Y-103900009D01*
X110700499Y-103249359D01*
X110717112Y-103187360D01*
X110762499Y-103141973D01*
X110824499Y-103125360D01*
X112258103Y-103125360D01*
X112314559Y-103138957D01*
G37*
%TD.AperFunction*%
%TA.AperFunction,Conductor*%
G36*
X50385223Y-97959939D02*
G01*
X50425451Y-97986819D01*
X50426951Y-97988319D01*
X50457201Y-98037682D01*
X50461743Y-98095398D01*
X50439588Y-98148885D01*
X50395565Y-98186485D01*
X50339270Y-98200000D01*
X50109361Y-98200000D01*
X50072506Y-98202900D01*
X49914802Y-98248717D01*
X49773442Y-98332317D01*
X49657317Y-98448442D01*
X49573718Y-98589800D01*
X49541704Y-98700000D01*
X51176000Y-98700000D01*
X51238000Y-98716613D01*
X51283387Y-98762000D01*
X51300000Y-98824000D01*
X51300000Y-99176000D01*
X51283387Y-99238000D01*
X51238000Y-99283387D01*
X51176000Y-99300000D01*
X49541704Y-99300000D01*
X49573718Y-99410199D01*
X49665291Y-99565040D01*
X49663703Y-99565978D01*
X49684817Y-99602547D01*
X49684822Y-99666728D01*
X49663431Y-99703787D01*
X49664893Y-99704652D01*
X49573255Y-99859602D01*
X49533463Y-99996565D01*
X49500835Y-100050866D01*
X49445643Y-100081965D01*
X49382294Y-100081744D01*
X49277976Y-100053792D01*
X49059999Y-100034722D01*
X48939290Y-100045282D01*
X48886073Y-100038276D01*
X48840803Y-100009435D01*
X47345728Y-98514360D01*
X47333946Y-98500727D01*
X47319609Y-98481469D01*
X47281666Y-98449631D01*
X47273691Y-98442323D01*
X47269782Y-98438414D01*
X47269777Y-98438409D01*
X47245423Y-98419152D01*
X47242647Y-98416890D01*
X47184252Y-98367890D01*
X47165413Y-98355889D01*
X47157483Y-98349620D01*
X47117458Y-98293631D01*
X47113453Y-98224924D01*
X47146702Y-98164664D01*
X47196087Y-98115280D01*
X47324547Y-97986819D01*
X47364776Y-97959939D01*
X47412229Y-97950500D01*
X50337770Y-97950500D01*
X50385223Y-97959939D01*
G37*
%TD.AperFunction*%
%TA.AperFunction,Conductor*%
G36*
X70643593Y-96914015D02*
G01*
X70687616Y-96951615D01*
X70709771Y-97005102D01*
X70705229Y-97062818D01*
X70674979Y-97112181D01*
X69440880Y-98346278D01*
X69385292Y-98378372D01*
X69321105Y-98378372D01*
X69265518Y-98346278D01*
X69251557Y-98332317D01*
X69110197Y-98248717D01*
X68952493Y-98202900D01*
X68915639Y-98200000D01*
X68325000Y-98200000D01*
X68325000Y-99176000D01*
X68308387Y-99238000D01*
X68263000Y-99283387D01*
X68201000Y-99300000D01*
X66551576Y-99300000D01*
X66530068Y-99316060D01*
X66460430Y-99320990D01*
X66399165Y-99287518D01*
X65811647Y-98700000D01*
X66566704Y-98700000D01*
X67725000Y-98700000D01*
X67725000Y-98200000D01*
X67134361Y-98200000D01*
X67097506Y-98202900D01*
X66939802Y-98248717D01*
X66798442Y-98332317D01*
X66682317Y-98448442D01*
X66598718Y-98589800D01*
X66566704Y-98700000D01*
X65811647Y-98700000D01*
X64561592Y-97449945D01*
X64556458Y-97444492D01*
X64525555Y-97409610D01*
X64517327Y-97400322D01*
X64468756Y-97366795D01*
X64462737Y-97362366D01*
X64416291Y-97325979D01*
X64407397Y-97321975D01*
X64387857Y-97310955D01*
X64379825Y-97305411D01*
X64324649Y-97284485D01*
X64317732Y-97281620D01*
X64263931Y-97257406D01*
X64254335Y-97255648D01*
X64232722Y-97249623D01*
X64223606Y-97246166D01*
X64165039Y-97239054D01*
X64157636Y-97237927D01*
X64099595Y-97227291D01*
X64099594Y-97227291D01*
X64066316Y-97229304D01*
X64040697Y-97230854D01*
X64033210Y-97231080D01*
X62917261Y-97231080D01*
X62869808Y-97221641D01*
X62829580Y-97194761D01*
X62747000Y-97112181D01*
X62716750Y-97062818D01*
X62712208Y-97005102D01*
X62734363Y-96951615D01*
X62778386Y-96914015D01*
X62834681Y-96900500D01*
X70587298Y-96900500D01*
X70643593Y-96914015D01*
G37*
%TD.AperFunction*%
%TA.AperFunction,Conductor*%
G36*
X104494087Y-96851515D02*
G01*
X104538110Y-96889115D01*
X104560265Y-96942602D01*
X104555723Y-97000318D01*
X104525473Y-97049681D01*
X103061271Y-98513881D01*
X103013756Y-98543515D01*
X102958049Y-98549222D01*
X102905511Y-98529840D01*
X102866858Y-98489321D01*
X102842682Y-98448442D01*
X102726557Y-98332317D01*
X102585197Y-98248717D01*
X102427493Y-98202900D01*
X102390639Y-98200000D01*
X101800000Y-98200000D01*
X101800000Y-99176000D01*
X101783387Y-99238000D01*
X101738000Y-99283387D01*
X101676000Y-99300000D01*
X101554341Y-99300000D01*
X101506888Y-99290561D01*
X101466660Y-99263681D01*
X101421344Y-99218365D01*
X101416210Y-99212912D01*
X101415342Y-99211932D01*
X101377079Y-99168742D01*
X101328508Y-99135215D01*
X101322489Y-99130786D01*
X101276043Y-99094399D01*
X101276042Y-99094398D01*
X101273111Y-99093079D01*
X101234572Y-99065902D01*
X101208967Y-99026300D01*
X101200000Y-98980003D01*
X101200000Y-98200000D01*
X100609361Y-98200000D01*
X100572506Y-98202900D01*
X100414802Y-98248717D01*
X100273442Y-98332317D01*
X100157317Y-98448442D01*
X100073717Y-98589802D01*
X100027900Y-98747506D01*
X100025000Y-98784361D01*
X100025000Y-98875500D01*
X100008387Y-98937500D01*
X99963000Y-98982887D01*
X99901000Y-98999500D01*
X98524671Y-98999500D01*
X98487780Y-98993885D01*
X98454230Y-98977549D01*
X98411009Y-98947715D01*
X98404977Y-98943277D01*
X98358544Y-98906899D01*
X98349651Y-98902897D01*
X98330109Y-98891875D01*
X98322077Y-98886331D01*
X98266901Y-98865405D01*
X98259984Y-98862540D01*
X98206183Y-98838326D01*
X98196587Y-98836568D01*
X98174974Y-98830543D01*
X98165858Y-98827086D01*
X98107291Y-98819974D01*
X98099888Y-98818847D01*
X98041847Y-98808210D01*
X98023231Y-98809337D01*
X97971773Y-98801505D01*
X97928063Y-98773244D01*
X96204500Y-97049681D01*
X96174250Y-97000318D01*
X96169708Y-96942602D01*
X96191863Y-96889115D01*
X96235886Y-96851515D01*
X96292181Y-96838000D01*
X104437792Y-96838000D01*
X104494087Y-96851515D01*
G37*
%TD.AperFunction*%
%TD*%
M02*
