%TF.GenerationSoftware,KiCad,Pcbnew,7.0.1*%
%TF.CreationDate,2023-11-21T14:20:13-06:00*%
%TF.ProjectId,Pico Hub V1,5069636f-2048-4756-9220-56312e6b6963,rev?*%
%TF.SameCoordinates,Original*%
%TF.FileFunction,Drillmap*%
%TF.FilePolarity,Positive*%
%FSLAX45Y45*%
G04 Gerber Fmt 4.5, Leading zero omitted, Abs format (unit mm)*
G04 Created by KiCad (PCBNEW 7.0.1) date 2023-11-21 14:20:13*
%MOMM*%
%LPD*%
G01*
G04 APERTURE LIST*
%ADD10C,0.100000*%
%ADD11C,0.200000*%
%ADD12C,0.325000*%
G04 APERTURE END LIST*
D10*
X13200000Y-7350000D02*
X2700000Y-7350000D01*
X13200000Y-11600000D02*
X13200000Y-7350000D01*
X2700000Y-11600000D02*
X13200000Y-11600000D01*
X2700000Y-11600000D02*
X2700000Y-7350000D01*
D11*
D12*
X2889500Y-10880500D02*
X3214500Y-11205500D01*
X3214500Y-10880500D02*
X2889500Y-11205500D01*
X4159500Y-10880500D02*
X4484500Y-11205500D01*
X4484500Y-10880500D02*
X4159500Y-11205500D01*
X4565500Y-10880500D02*
X4890500Y-11205500D01*
X4890500Y-10880500D02*
X4565500Y-11205500D01*
X5835500Y-10880500D02*
X6160500Y-11205500D01*
X6160500Y-10880500D02*
X5835500Y-11205500D01*
X6241500Y-10880500D02*
X6566500Y-11205500D01*
X6566500Y-10880500D02*
X6241500Y-11205500D01*
X7511500Y-10880500D02*
X7836500Y-11205500D01*
X7836500Y-10880500D02*
X7511500Y-11205500D01*
X7917500Y-10880500D02*
X8242500Y-11205500D01*
X8242500Y-10880500D02*
X7917500Y-11205500D01*
X9187500Y-10880500D02*
X9512500Y-11205500D01*
X9512500Y-10880500D02*
X9187500Y-11205500D01*
X9593500Y-10880500D02*
X9918500Y-11205500D01*
X9918500Y-10880500D02*
X9593500Y-11205500D01*
X10863500Y-10880500D02*
X11188500Y-11205500D01*
X11188500Y-10880500D02*
X10863500Y-11205500D01*
X11269500Y-10880500D02*
X11594500Y-11205500D01*
X11594500Y-10880500D02*
X11269500Y-11205500D01*
X12539500Y-10880500D02*
X12864500Y-11205500D01*
X12864500Y-10880500D02*
X12539500Y-11205500D01*
D11*
X2942619Y-11917524D02*
X2942619Y-11717524D01*
X2942619Y-11717524D02*
X2990238Y-11717524D01*
X2990238Y-11717524D02*
X3018809Y-11727048D01*
X3018809Y-11727048D02*
X3037857Y-11746095D01*
X3037857Y-11746095D02*
X3047381Y-11765143D01*
X3047381Y-11765143D02*
X3056905Y-11803238D01*
X3056905Y-11803238D02*
X3056905Y-11831809D01*
X3056905Y-11831809D02*
X3047381Y-11869905D01*
X3047381Y-11869905D02*
X3037857Y-11888952D01*
X3037857Y-11888952D02*
X3018809Y-11908000D01*
X3018809Y-11908000D02*
X2990238Y-11917524D01*
X2990238Y-11917524D02*
X2942619Y-11917524D01*
X3142619Y-11917524D02*
X3142619Y-11784190D01*
X3142619Y-11822286D02*
X3152143Y-11803238D01*
X3152143Y-11803238D02*
X3161667Y-11793714D01*
X3161667Y-11793714D02*
X3180714Y-11784190D01*
X3180714Y-11784190D02*
X3199762Y-11784190D01*
X3266428Y-11917524D02*
X3266428Y-11784190D01*
X3266428Y-11717524D02*
X3256905Y-11727048D01*
X3256905Y-11727048D02*
X3266428Y-11736571D01*
X3266428Y-11736571D02*
X3275952Y-11727048D01*
X3275952Y-11727048D02*
X3266428Y-11717524D01*
X3266428Y-11717524D02*
X3266428Y-11736571D01*
X3390238Y-11917524D02*
X3371190Y-11908000D01*
X3371190Y-11908000D02*
X3361667Y-11888952D01*
X3361667Y-11888952D02*
X3361667Y-11717524D01*
X3495000Y-11917524D02*
X3475952Y-11908000D01*
X3475952Y-11908000D02*
X3466428Y-11888952D01*
X3466428Y-11888952D02*
X3466428Y-11717524D01*
X3723571Y-11917524D02*
X3723571Y-11717524D01*
X3723571Y-11717524D02*
X3790238Y-11860381D01*
X3790238Y-11860381D02*
X3856905Y-11717524D01*
X3856905Y-11717524D02*
X3856905Y-11917524D01*
X4037857Y-11917524D02*
X4037857Y-11812762D01*
X4037857Y-11812762D02*
X4028333Y-11793714D01*
X4028333Y-11793714D02*
X4009286Y-11784190D01*
X4009286Y-11784190D02*
X3971190Y-11784190D01*
X3971190Y-11784190D02*
X3952143Y-11793714D01*
X4037857Y-11908000D02*
X4018809Y-11917524D01*
X4018809Y-11917524D02*
X3971190Y-11917524D01*
X3971190Y-11917524D02*
X3952143Y-11908000D01*
X3952143Y-11908000D02*
X3942619Y-11888952D01*
X3942619Y-11888952D02*
X3942619Y-11869905D01*
X3942619Y-11869905D02*
X3952143Y-11850857D01*
X3952143Y-11850857D02*
X3971190Y-11841333D01*
X3971190Y-11841333D02*
X4018809Y-11841333D01*
X4018809Y-11841333D02*
X4037857Y-11831809D01*
X4133095Y-11784190D02*
X4133095Y-11984190D01*
X4133095Y-11793714D02*
X4152143Y-11784190D01*
X4152143Y-11784190D02*
X4190238Y-11784190D01*
X4190238Y-11784190D02*
X4209286Y-11793714D01*
X4209286Y-11793714D02*
X4218810Y-11803238D01*
X4218810Y-11803238D02*
X4228333Y-11822286D01*
X4228333Y-11822286D02*
X4228333Y-11879428D01*
X4228333Y-11879428D02*
X4218810Y-11898476D01*
X4218810Y-11898476D02*
X4209286Y-11908000D01*
X4209286Y-11908000D02*
X4190238Y-11917524D01*
X4190238Y-11917524D02*
X4152143Y-11917524D01*
X4152143Y-11917524D02*
X4133095Y-11908000D01*
X4314048Y-11898476D02*
X4323571Y-11908000D01*
X4323571Y-11908000D02*
X4314048Y-11917524D01*
X4314048Y-11917524D02*
X4304524Y-11908000D01*
X4304524Y-11908000D02*
X4314048Y-11898476D01*
X4314048Y-11898476D02*
X4314048Y-11917524D01*
X4314048Y-11793714D02*
X4323571Y-11803238D01*
X4323571Y-11803238D02*
X4314048Y-11812762D01*
X4314048Y-11812762D02*
X4304524Y-11803238D01*
X4304524Y-11803238D02*
X4314048Y-11793714D01*
X4314048Y-11793714D02*
X4314048Y-11812762D01*
X2495000Y-12145000D02*
X2695000Y-12345000D01*
X2695000Y-12145000D02*
X2495000Y-12345000D01*
X2923571Y-12137524D02*
X3047381Y-12137524D01*
X3047381Y-12137524D02*
X2980714Y-12213714D01*
X2980714Y-12213714D02*
X3009286Y-12213714D01*
X3009286Y-12213714D02*
X3028333Y-12223238D01*
X3028333Y-12223238D02*
X3037857Y-12232762D01*
X3037857Y-12232762D02*
X3047381Y-12251809D01*
X3047381Y-12251809D02*
X3047381Y-12299428D01*
X3047381Y-12299428D02*
X3037857Y-12318476D01*
X3037857Y-12318476D02*
X3028333Y-12328000D01*
X3028333Y-12328000D02*
X3009286Y-12337524D01*
X3009286Y-12337524D02*
X2952143Y-12337524D01*
X2952143Y-12337524D02*
X2933095Y-12328000D01*
X2933095Y-12328000D02*
X2923571Y-12318476D01*
X3133095Y-12318476D02*
X3142619Y-12328000D01*
X3142619Y-12328000D02*
X3133095Y-12337524D01*
X3133095Y-12337524D02*
X3123571Y-12328000D01*
X3123571Y-12328000D02*
X3133095Y-12318476D01*
X3133095Y-12318476D02*
X3133095Y-12337524D01*
X3218809Y-12156571D02*
X3228333Y-12147048D01*
X3228333Y-12147048D02*
X3247381Y-12137524D01*
X3247381Y-12137524D02*
X3295000Y-12137524D01*
X3295000Y-12137524D02*
X3314048Y-12147048D01*
X3314048Y-12147048D02*
X3323571Y-12156571D01*
X3323571Y-12156571D02*
X3333095Y-12175619D01*
X3333095Y-12175619D02*
X3333095Y-12194667D01*
X3333095Y-12194667D02*
X3323571Y-12223238D01*
X3323571Y-12223238D02*
X3209286Y-12337524D01*
X3209286Y-12337524D02*
X3333095Y-12337524D01*
X3514048Y-12137524D02*
X3418809Y-12137524D01*
X3418809Y-12137524D02*
X3409286Y-12232762D01*
X3409286Y-12232762D02*
X3418809Y-12223238D01*
X3418809Y-12223238D02*
X3437857Y-12213714D01*
X3437857Y-12213714D02*
X3485476Y-12213714D01*
X3485476Y-12213714D02*
X3504524Y-12223238D01*
X3504524Y-12223238D02*
X3514048Y-12232762D01*
X3514048Y-12232762D02*
X3523571Y-12251809D01*
X3523571Y-12251809D02*
X3523571Y-12299428D01*
X3523571Y-12299428D02*
X3514048Y-12318476D01*
X3514048Y-12318476D02*
X3504524Y-12328000D01*
X3504524Y-12328000D02*
X3485476Y-12337524D01*
X3485476Y-12337524D02*
X3437857Y-12337524D01*
X3437857Y-12337524D02*
X3418809Y-12328000D01*
X3418809Y-12328000D02*
X3409286Y-12318476D01*
X3647381Y-12137524D02*
X3666429Y-12137524D01*
X3666429Y-12137524D02*
X3685476Y-12147048D01*
X3685476Y-12147048D02*
X3695000Y-12156571D01*
X3695000Y-12156571D02*
X3704524Y-12175619D01*
X3704524Y-12175619D02*
X3714048Y-12213714D01*
X3714048Y-12213714D02*
X3714048Y-12261333D01*
X3714048Y-12261333D02*
X3704524Y-12299428D01*
X3704524Y-12299428D02*
X3695000Y-12318476D01*
X3695000Y-12318476D02*
X3685476Y-12328000D01*
X3685476Y-12328000D02*
X3666429Y-12337524D01*
X3666429Y-12337524D02*
X3647381Y-12337524D01*
X3647381Y-12337524D02*
X3628333Y-12328000D01*
X3628333Y-12328000D02*
X3618809Y-12318476D01*
X3618809Y-12318476D02*
X3609286Y-12299428D01*
X3609286Y-12299428D02*
X3599762Y-12261333D01*
X3599762Y-12261333D02*
X3599762Y-12213714D01*
X3599762Y-12213714D02*
X3609286Y-12175619D01*
X3609286Y-12175619D02*
X3618809Y-12156571D01*
X3618809Y-12156571D02*
X3628333Y-12147048D01*
X3628333Y-12147048D02*
X3647381Y-12137524D01*
X3799762Y-12337524D02*
X3799762Y-12204190D01*
X3799762Y-12223238D02*
X3809286Y-12213714D01*
X3809286Y-12213714D02*
X3828333Y-12204190D01*
X3828333Y-12204190D02*
X3856905Y-12204190D01*
X3856905Y-12204190D02*
X3875952Y-12213714D01*
X3875952Y-12213714D02*
X3885476Y-12232762D01*
X3885476Y-12232762D02*
X3885476Y-12337524D01*
X3885476Y-12232762D02*
X3895000Y-12213714D01*
X3895000Y-12213714D02*
X3914048Y-12204190D01*
X3914048Y-12204190D02*
X3942619Y-12204190D01*
X3942619Y-12204190D02*
X3961667Y-12213714D01*
X3961667Y-12213714D02*
X3971190Y-12232762D01*
X3971190Y-12232762D02*
X3971190Y-12337524D01*
X4066429Y-12337524D02*
X4066429Y-12204190D01*
X4066429Y-12223238D02*
X4075952Y-12213714D01*
X4075952Y-12213714D02*
X4095000Y-12204190D01*
X4095000Y-12204190D02*
X4123571Y-12204190D01*
X4123571Y-12204190D02*
X4142619Y-12213714D01*
X4142619Y-12213714D02*
X4152143Y-12232762D01*
X4152143Y-12232762D02*
X4152143Y-12337524D01*
X4152143Y-12232762D02*
X4161667Y-12213714D01*
X4161667Y-12213714D02*
X4180714Y-12204190D01*
X4180714Y-12204190D02*
X4209286Y-12204190D01*
X4209286Y-12204190D02*
X4228333Y-12213714D01*
X4228333Y-12213714D02*
X4237857Y-12232762D01*
X4237857Y-12232762D02*
X4237857Y-12337524D01*
X4628333Y-12128000D02*
X4456905Y-12385143D01*
X4885476Y-12137524D02*
X4904524Y-12137524D01*
X4904524Y-12137524D02*
X4923572Y-12147048D01*
X4923572Y-12147048D02*
X4933095Y-12156571D01*
X4933095Y-12156571D02*
X4942619Y-12175619D01*
X4942619Y-12175619D02*
X4952143Y-12213714D01*
X4952143Y-12213714D02*
X4952143Y-12261333D01*
X4952143Y-12261333D02*
X4942619Y-12299428D01*
X4942619Y-12299428D02*
X4933095Y-12318476D01*
X4933095Y-12318476D02*
X4923572Y-12328000D01*
X4923572Y-12328000D02*
X4904524Y-12337524D01*
X4904524Y-12337524D02*
X4885476Y-12337524D01*
X4885476Y-12337524D02*
X4866429Y-12328000D01*
X4866429Y-12328000D02*
X4856905Y-12318476D01*
X4856905Y-12318476D02*
X4847381Y-12299428D01*
X4847381Y-12299428D02*
X4837857Y-12261333D01*
X4837857Y-12261333D02*
X4837857Y-12213714D01*
X4837857Y-12213714D02*
X4847381Y-12175619D01*
X4847381Y-12175619D02*
X4856905Y-12156571D01*
X4856905Y-12156571D02*
X4866429Y-12147048D01*
X4866429Y-12147048D02*
X4885476Y-12137524D01*
X5037857Y-12318476D02*
X5047381Y-12328000D01*
X5047381Y-12328000D02*
X5037857Y-12337524D01*
X5037857Y-12337524D02*
X5028334Y-12328000D01*
X5028334Y-12328000D02*
X5037857Y-12318476D01*
X5037857Y-12318476D02*
X5037857Y-12337524D01*
X5237857Y-12337524D02*
X5123572Y-12337524D01*
X5180714Y-12337524D02*
X5180714Y-12137524D01*
X5180714Y-12137524D02*
X5161667Y-12166095D01*
X5161667Y-12166095D02*
X5142619Y-12185143D01*
X5142619Y-12185143D02*
X5123572Y-12194667D01*
X5314048Y-12156571D02*
X5323572Y-12147048D01*
X5323572Y-12147048D02*
X5342619Y-12137524D01*
X5342619Y-12137524D02*
X5390238Y-12137524D01*
X5390238Y-12137524D02*
X5409286Y-12147048D01*
X5409286Y-12147048D02*
X5418810Y-12156571D01*
X5418810Y-12156571D02*
X5428334Y-12175619D01*
X5428334Y-12175619D02*
X5428334Y-12194667D01*
X5428334Y-12194667D02*
X5418810Y-12223238D01*
X5418810Y-12223238D02*
X5304524Y-12337524D01*
X5304524Y-12337524D02*
X5428334Y-12337524D01*
X5542619Y-12223238D02*
X5523572Y-12213714D01*
X5523572Y-12213714D02*
X5514048Y-12204190D01*
X5514048Y-12204190D02*
X5504524Y-12185143D01*
X5504524Y-12185143D02*
X5504524Y-12175619D01*
X5504524Y-12175619D02*
X5514048Y-12156571D01*
X5514048Y-12156571D02*
X5523572Y-12147048D01*
X5523572Y-12147048D02*
X5542619Y-12137524D01*
X5542619Y-12137524D02*
X5580715Y-12137524D01*
X5580715Y-12137524D02*
X5599762Y-12147048D01*
X5599762Y-12147048D02*
X5609286Y-12156571D01*
X5609286Y-12156571D02*
X5618810Y-12175619D01*
X5618810Y-12175619D02*
X5618810Y-12185143D01*
X5618810Y-12185143D02*
X5609286Y-12204190D01*
X5609286Y-12204190D02*
X5599762Y-12213714D01*
X5599762Y-12213714D02*
X5580715Y-12223238D01*
X5580715Y-12223238D02*
X5542619Y-12223238D01*
X5542619Y-12223238D02*
X5523572Y-12232762D01*
X5523572Y-12232762D02*
X5514048Y-12242286D01*
X5514048Y-12242286D02*
X5504524Y-12261333D01*
X5504524Y-12261333D02*
X5504524Y-12299428D01*
X5504524Y-12299428D02*
X5514048Y-12318476D01*
X5514048Y-12318476D02*
X5523572Y-12328000D01*
X5523572Y-12328000D02*
X5542619Y-12337524D01*
X5542619Y-12337524D02*
X5580715Y-12337524D01*
X5580715Y-12337524D02*
X5599762Y-12328000D01*
X5599762Y-12328000D02*
X5609286Y-12318476D01*
X5609286Y-12318476D02*
X5618810Y-12299428D01*
X5618810Y-12299428D02*
X5618810Y-12261333D01*
X5618810Y-12261333D02*
X5609286Y-12242286D01*
X5609286Y-12242286D02*
X5599762Y-12232762D01*
X5599762Y-12232762D02*
X5580715Y-12223238D01*
X5742619Y-12137524D02*
X5761667Y-12137524D01*
X5761667Y-12137524D02*
X5780714Y-12147048D01*
X5780714Y-12147048D02*
X5790238Y-12156571D01*
X5790238Y-12156571D02*
X5799762Y-12175619D01*
X5799762Y-12175619D02*
X5809286Y-12213714D01*
X5809286Y-12213714D02*
X5809286Y-12261333D01*
X5809286Y-12261333D02*
X5799762Y-12299428D01*
X5799762Y-12299428D02*
X5790238Y-12318476D01*
X5790238Y-12318476D02*
X5780714Y-12328000D01*
X5780714Y-12328000D02*
X5761667Y-12337524D01*
X5761667Y-12337524D02*
X5742619Y-12337524D01*
X5742619Y-12337524D02*
X5723572Y-12328000D01*
X5723572Y-12328000D02*
X5714048Y-12318476D01*
X5714048Y-12318476D02*
X5704524Y-12299428D01*
X5704524Y-12299428D02*
X5695000Y-12261333D01*
X5695000Y-12261333D02*
X5695000Y-12213714D01*
X5695000Y-12213714D02*
X5704524Y-12175619D01*
X5704524Y-12175619D02*
X5714048Y-12156571D01*
X5714048Y-12156571D02*
X5723572Y-12147048D01*
X5723572Y-12147048D02*
X5742619Y-12137524D01*
X5885476Y-12137524D02*
X5885476Y-12175619D01*
X5961667Y-12137524D02*
X5961667Y-12175619D01*
X6256905Y-12413714D02*
X6247381Y-12404190D01*
X6247381Y-12404190D02*
X6228334Y-12375619D01*
X6228334Y-12375619D02*
X6218810Y-12356571D01*
X6218810Y-12356571D02*
X6209286Y-12328000D01*
X6209286Y-12328000D02*
X6199762Y-12280381D01*
X6199762Y-12280381D02*
X6199762Y-12242286D01*
X6199762Y-12242286D02*
X6209286Y-12194667D01*
X6209286Y-12194667D02*
X6218810Y-12166095D01*
X6218810Y-12166095D02*
X6228334Y-12147048D01*
X6228334Y-12147048D02*
X6247381Y-12118476D01*
X6247381Y-12118476D02*
X6256905Y-12108952D01*
X6437857Y-12337524D02*
X6323572Y-12337524D01*
X6380714Y-12337524D02*
X6380714Y-12137524D01*
X6380714Y-12137524D02*
X6361667Y-12166095D01*
X6361667Y-12166095D02*
X6342619Y-12185143D01*
X6342619Y-12185143D02*
X6323572Y-12194667D01*
X6514048Y-12156571D02*
X6523572Y-12147048D01*
X6523572Y-12147048D02*
X6542619Y-12137524D01*
X6542619Y-12137524D02*
X6590238Y-12137524D01*
X6590238Y-12137524D02*
X6609286Y-12147048D01*
X6609286Y-12147048D02*
X6618810Y-12156571D01*
X6618810Y-12156571D02*
X6628334Y-12175619D01*
X6628334Y-12175619D02*
X6628334Y-12194667D01*
X6628334Y-12194667D02*
X6618810Y-12223238D01*
X6618810Y-12223238D02*
X6504524Y-12337524D01*
X6504524Y-12337524D02*
X6628334Y-12337524D01*
X6866429Y-12337524D02*
X6866429Y-12137524D01*
X6952143Y-12337524D02*
X6952143Y-12232762D01*
X6952143Y-12232762D02*
X6942619Y-12213714D01*
X6942619Y-12213714D02*
X6923572Y-12204190D01*
X6923572Y-12204190D02*
X6895000Y-12204190D01*
X6895000Y-12204190D02*
X6875953Y-12213714D01*
X6875953Y-12213714D02*
X6866429Y-12223238D01*
X7075953Y-12337524D02*
X7056905Y-12328000D01*
X7056905Y-12328000D02*
X7047381Y-12318476D01*
X7047381Y-12318476D02*
X7037857Y-12299428D01*
X7037857Y-12299428D02*
X7037857Y-12242286D01*
X7037857Y-12242286D02*
X7047381Y-12223238D01*
X7047381Y-12223238D02*
X7056905Y-12213714D01*
X7056905Y-12213714D02*
X7075953Y-12204190D01*
X7075953Y-12204190D02*
X7104524Y-12204190D01*
X7104524Y-12204190D02*
X7123572Y-12213714D01*
X7123572Y-12213714D02*
X7133096Y-12223238D01*
X7133096Y-12223238D02*
X7142619Y-12242286D01*
X7142619Y-12242286D02*
X7142619Y-12299428D01*
X7142619Y-12299428D02*
X7133096Y-12318476D01*
X7133096Y-12318476D02*
X7123572Y-12328000D01*
X7123572Y-12328000D02*
X7104524Y-12337524D01*
X7104524Y-12337524D02*
X7075953Y-12337524D01*
X7256905Y-12337524D02*
X7237857Y-12328000D01*
X7237857Y-12328000D02*
X7228334Y-12308952D01*
X7228334Y-12308952D02*
X7228334Y-12137524D01*
X7409286Y-12328000D02*
X7390238Y-12337524D01*
X7390238Y-12337524D02*
X7352143Y-12337524D01*
X7352143Y-12337524D02*
X7333096Y-12328000D01*
X7333096Y-12328000D02*
X7323572Y-12308952D01*
X7323572Y-12308952D02*
X7323572Y-12232762D01*
X7323572Y-12232762D02*
X7333096Y-12213714D01*
X7333096Y-12213714D02*
X7352143Y-12204190D01*
X7352143Y-12204190D02*
X7390238Y-12204190D01*
X7390238Y-12204190D02*
X7409286Y-12213714D01*
X7409286Y-12213714D02*
X7418810Y-12232762D01*
X7418810Y-12232762D02*
X7418810Y-12251809D01*
X7418810Y-12251809D02*
X7323572Y-12270857D01*
X7495000Y-12328000D02*
X7514048Y-12337524D01*
X7514048Y-12337524D02*
X7552143Y-12337524D01*
X7552143Y-12337524D02*
X7571191Y-12328000D01*
X7571191Y-12328000D02*
X7580715Y-12308952D01*
X7580715Y-12308952D02*
X7580715Y-12299428D01*
X7580715Y-12299428D02*
X7571191Y-12280381D01*
X7571191Y-12280381D02*
X7552143Y-12270857D01*
X7552143Y-12270857D02*
X7523572Y-12270857D01*
X7523572Y-12270857D02*
X7504524Y-12261333D01*
X7504524Y-12261333D02*
X7495000Y-12242286D01*
X7495000Y-12242286D02*
X7495000Y-12232762D01*
X7495000Y-12232762D02*
X7504524Y-12213714D01*
X7504524Y-12213714D02*
X7523572Y-12204190D01*
X7523572Y-12204190D02*
X7552143Y-12204190D01*
X7552143Y-12204190D02*
X7571191Y-12213714D01*
X7647381Y-12413714D02*
X7656905Y-12404190D01*
X7656905Y-12404190D02*
X7675953Y-12375619D01*
X7675953Y-12375619D02*
X7685477Y-12356571D01*
X7685477Y-12356571D02*
X7695000Y-12328000D01*
X7695000Y-12328000D02*
X7704524Y-12280381D01*
X7704524Y-12280381D02*
X7704524Y-12242286D01*
X7704524Y-12242286D02*
X7695000Y-12194667D01*
X7695000Y-12194667D02*
X7685477Y-12166095D01*
X7685477Y-12166095D02*
X7675953Y-12147048D01*
X7675953Y-12147048D02*
X7656905Y-12118476D01*
X7656905Y-12118476D02*
X7647381Y-12108952D01*
X8009286Y-12413714D02*
X7999762Y-12404190D01*
X7999762Y-12404190D02*
X7980715Y-12375619D01*
X7980715Y-12375619D02*
X7971191Y-12356571D01*
X7971191Y-12356571D02*
X7961667Y-12328000D01*
X7961667Y-12328000D02*
X7952143Y-12280381D01*
X7952143Y-12280381D02*
X7952143Y-12242286D01*
X7952143Y-12242286D02*
X7961667Y-12194667D01*
X7961667Y-12194667D02*
X7971191Y-12166095D01*
X7971191Y-12166095D02*
X7980715Y-12147048D01*
X7980715Y-12147048D02*
X7999762Y-12118476D01*
X7999762Y-12118476D02*
X8009286Y-12108952D01*
X8085477Y-12204190D02*
X8085477Y-12337524D01*
X8085477Y-12223238D02*
X8095000Y-12213714D01*
X8095000Y-12213714D02*
X8114048Y-12204190D01*
X8114048Y-12204190D02*
X8142619Y-12204190D01*
X8142619Y-12204190D02*
X8161667Y-12213714D01*
X8161667Y-12213714D02*
X8171191Y-12232762D01*
X8171191Y-12232762D02*
X8171191Y-12337524D01*
X8295000Y-12337524D02*
X8275953Y-12328000D01*
X8275953Y-12328000D02*
X8266429Y-12318476D01*
X8266429Y-12318476D02*
X8256905Y-12299428D01*
X8256905Y-12299428D02*
X8256905Y-12242286D01*
X8256905Y-12242286D02*
X8266429Y-12223238D01*
X8266429Y-12223238D02*
X8275953Y-12213714D01*
X8275953Y-12213714D02*
X8295000Y-12204190D01*
X8295000Y-12204190D02*
X8323572Y-12204190D01*
X8323572Y-12204190D02*
X8342619Y-12213714D01*
X8342619Y-12213714D02*
X8352143Y-12223238D01*
X8352143Y-12223238D02*
X8361667Y-12242286D01*
X8361667Y-12242286D02*
X8361667Y-12299428D01*
X8361667Y-12299428D02*
X8352143Y-12318476D01*
X8352143Y-12318476D02*
X8342619Y-12328000D01*
X8342619Y-12328000D02*
X8323572Y-12337524D01*
X8323572Y-12337524D02*
X8295000Y-12337524D01*
X8418810Y-12204190D02*
X8495000Y-12204190D01*
X8447381Y-12137524D02*
X8447381Y-12308952D01*
X8447381Y-12308952D02*
X8456905Y-12328000D01*
X8456905Y-12328000D02*
X8475953Y-12337524D01*
X8475953Y-12337524D02*
X8495000Y-12337524D01*
X8714048Y-12204190D02*
X8714048Y-12404190D01*
X8714048Y-12213714D02*
X8733096Y-12204190D01*
X8733096Y-12204190D02*
X8771191Y-12204190D01*
X8771191Y-12204190D02*
X8790239Y-12213714D01*
X8790239Y-12213714D02*
X8799762Y-12223238D01*
X8799762Y-12223238D02*
X8809286Y-12242286D01*
X8809286Y-12242286D02*
X8809286Y-12299428D01*
X8809286Y-12299428D02*
X8799762Y-12318476D01*
X8799762Y-12318476D02*
X8790239Y-12328000D01*
X8790239Y-12328000D02*
X8771191Y-12337524D01*
X8771191Y-12337524D02*
X8733096Y-12337524D01*
X8733096Y-12337524D02*
X8714048Y-12328000D01*
X8923572Y-12337524D02*
X8904524Y-12328000D01*
X8904524Y-12328000D02*
X8895001Y-12308952D01*
X8895001Y-12308952D02*
X8895001Y-12137524D01*
X9085477Y-12337524D02*
X9085477Y-12232762D01*
X9085477Y-12232762D02*
X9075953Y-12213714D01*
X9075953Y-12213714D02*
X9056905Y-12204190D01*
X9056905Y-12204190D02*
X9018810Y-12204190D01*
X9018810Y-12204190D02*
X8999762Y-12213714D01*
X9085477Y-12328000D02*
X9066429Y-12337524D01*
X9066429Y-12337524D02*
X9018810Y-12337524D01*
X9018810Y-12337524D02*
X8999762Y-12328000D01*
X8999762Y-12328000D02*
X8990239Y-12308952D01*
X8990239Y-12308952D02*
X8990239Y-12289905D01*
X8990239Y-12289905D02*
X8999762Y-12270857D01*
X8999762Y-12270857D02*
X9018810Y-12261333D01*
X9018810Y-12261333D02*
X9066429Y-12261333D01*
X9066429Y-12261333D02*
X9085477Y-12251809D01*
X9152143Y-12204190D02*
X9228334Y-12204190D01*
X9180715Y-12137524D02*
X9180715Y-12308952D01*
X9180715Y-12308952D02*
X9190239Y-12328000D01*
X9190239Y-12328000D02*
X9209286Y-12337524D01*
X9209286Y-12337524D02*
X9228334Y-12337524D01*
X9371191Y-12328000D02*
X9352143Y-12337524D01*
X9352143Y-12337524D02*
X9314048Y-12337524D01*
X9314048Y-12337524D02*
X9295001Y-12328000D01*
X9295001Y-12328000D02*
X9285477Y-12308952D01*
X9285477Y-12308952D02*
X9285477Y-12232762D01*
X9285477Y-12232762D02*
X9295001Y-12213714D01*
X9295001Y-12213714D02*
X9314048Y-12204190D01*
X9314048Y-12204190D02*
X9352143Y-12204190D01*
X9352143Y-12204190D02*
X9371191Y-12213714D01*
X9371191Y-12213714D02*
X9380715Y-12232762D01*
X9380715Y-12232762D02*
X9380715Y-12251809D01*
X9380715Y-12251809D02*
X9285477Y-12270857D01*
X9552143Y-12337524D02*
X9552143Y-12137524D01*
X9552143Y-12328000D02*
X9533096Y-12337524D01*
X9533096Y-12337524D02*
X9495001Y-12337524D01*
X9495001Y-12337524D02*
X9475953Y-12328000D01*
X9475953Y-12328000D02*
X9466429Y-12318476D01*
X9466429Y-12318476D02*
X9456905Y-12299428D01*
X9456905Y-12299428D02*
X9456905Y-12242286D01*
X9456905Y-12242286D02*
X9466429Y-12223238D01*
X9466429Y-12223238D02*
X9475953Y-12213714D01*
X9475953Y-12213714D02*
X9495001Y-12204190D01*
X9495001Y-12204190D02*
X9533096Y-12204190D01*
X9533096Y-12204190D02*
X9552143Y-12213714D01*
X9628334Y-12413714D02*
X9637858Y-12404190D01*
X9637858Y-12404190D02*
X9656905Y-12375619D01*
X9656905Y-12375619D02*
X9666429Y-12356571D01*
X9666429Y-12356571D02*
X9675953Y-12328000D01*
X9675953Y-12328000D02*
X9685477Y-12280381D01*
X9685477Y-12280381D02*
X9685477Y-12242286D01*
X9685477Y-12242286D02*
X9675953Y-12194667D01*
X9675953Y-12194667D02*
X9666429Y-12166095D01*
X9666429Y-12166095D02*
X9656905Y-12147048D01*
X9656905Y-12147048D02*
X9637858Y-12118476D01*
X9637858Y-12118476D02*
X9628334Y-12108952D01*
M02*
