%TF.GenerationSoftware,KiCad,Pcbnew,7.0.1*%
%TF.CreationDate,2023-11-21T14:19:22-06:00*%
%TF.ProjectId,Pico Hub V1,5069636f-2048-4756-9220-56312e6b6963,rev?*%
%TF.SameCoordinates,Original*%
%TF.FileFunction,Copper,L1,Top*%
%TF.FilePolarity,Positive*%
%FSLAX46Y46*%
G04 Gerber Fmt 4.6, Leading zero omitted, Abs format (unit mm)*
G04 Created by KiCad (PCBNEW 7.0.1) date 2023-11-21 14:19:22*
%MOMM*%
%LPD*%
G01*
G04 APERTURE LIST*
%TA.AperFunction,ComponentPad*%
%ADD10C,0.800000*%
%TD*%
%TA.AperFunction,ComponentPad*%
%ADD11C,7.400000*%
%TD*%
%TA.AperFunction,ComponentPad*%
%ADD12R,1.500000X1.500000*%
%TD*%
%TA.AperFunction,ComponentPad*%
%ADD13C,1.500000*%
%TD*%
%TA.AperFunction,ComponentPad*%
%ADD14C,2.300000*%
%TD*%
%TA.AperFunction,ComponentPad*%
%ADD15O,1.700000X1.700000*%
%TD*%
%TA.AperFunction,ComponentPad*%
%ADD16R,1.700000X1.700000*%
%TD*%
%TA.AperFunction,ComponentPad*%
%ADD17O,4.200000X2.000000*%
%TD*%
%TA.AperFunction,ComponentPad*%
%ADD18O,2.000000X4.200000*%
%TD*%
%TA.AperFunction,ComponentPad*%
%ADD19R,2.000000X4.600000*%
%TD*%
%TA.AperFunction,ViaPad*%
%ADD20C,0.800000*%
%TD*%
%TA.AperFunction,Conductor*%
%ADD21C,0.500000*%
%TD*%
%TA.AperFunction,Conductor*%
%ADD22C,1.500000*%
%TD*%
%TA.AperFunction,Conductor*%
%ADD23C,0.375000*%
%TD*%
G04 APERTURE END LIST*
D10*
%TO.P,H1,1,1*%
%TO.N,Earth*%
X123225000Y-80000000D03*
D11*
X126000000Y-80000000D03*
D10*
X126000000Y-77225000D03*
X124037779Y-78037779D03*
X124037779Y-81962221D03*
X126000000Y-82775000D03*
X127962221Y-81962221D03*
X128775000Y-80000000D03*
X127962221Y-78037779D03*
%TD*%
D12*
%TO.P,J1,1*%
%TO.N,Net-(D1-A1)*%
X40430000Y-107890000D03*
D13*
%TO.P,J1,2*%
%TO.N,Net-(D1-A2)*%
X39414000Y-106110000D03*
%TO.P,J1,3*%
%TO.N,GND*%
X38398000Y-107890000D03*
%TO.P,J1,4*%
%TO.N,Serial1_det*%
X37382000Y-106110000D03*
%TO.P,J1,5*%
%TO.N,GND*%
X36366000Y-107890000D03*
%TO.P,J1,6*%
X35350000Y-106110000D03*
%TO.P,J1,7*%
%TO.N,Net-(D2-A2)*%
X34334000Y-107890000D03*
%TO.P,J1,8*%
%TO.N,Net-(D2-A1)*%
X33318000Y-106110000D03*
%TO.P,J1,9*%
%TO.N,Net-(RN4-R1.2)*%
X43730000Y-101290000D03*
%TO.P,J1,10*%
%TO.N,3V3*%
X41440000Y-101290000D03*
%TO.P,J1,11*%
%TO.N,Net-(RN4-R2.2)*%
X32300000Y-101290000D03*
%TO.P,J1,12*%
%TO.N,3V3*%
X30010000Y-101290000D03*
D14*
%TO.P,J1,SH*%
%TO.N,Earth*%
X28740000Y-107000000D03*
%TD*%
D15*
%TO.P,U1,1,GPIO0*%
%TO.N,Serial1_TX*%
X30000000Y-93500000D03*
%TO.P,U1,2,GPIO1*%
%TO.N,Serial1_RX*%
X32540000Y-93500000D03*
D16*
%TO.P,U1,3,GND*%
%TO.N,GND*%
X35080000Y-93500000D03*
D15*
%TO.P,U1,4,GPIO2*%
%TO.N,Serial1_det*%
X37620000Y-93500000D03*
%TO.P,U1,5,GPIO3*%
%TO.N,Serial2_det*%
X40160000Y-93500000D03*
%TO.P,U1,6,GPIO4*%
%TO.N,Serial2_TX*%
X42700000Y-93500000D03*
%TO.P,U1,7,GPIO5*%
%TO.N,Serial2_RX*%
X45240000Y-93500000D03*
D16*
%TO.P,U1,8,GND*%
%TO.N,GND*%
X47780000Y-93500000D03*
D15*
%TO.P,U1,9,GPIO6*%
%TO.N,PIO1_TX*%
X50320000Y-93500000D03*
%TO.P,U1,10,GPIO7*%
%TO.N,PIO1_RX*%
X52860000Y-93500000D03*
%TO.P,U1,11,GPIO8*%
%TO.N,PIO2_TX*%
X55400000Y-93500000D03*
%TO.P,U1,12,GPIO9*%
%TO.N,PIO2_RX*%
X57940000Y-93500000D03*
D16*
%TO.P,U1,13,GND*%
%TO.N,GND*%
X60480000Y-93500000D03*
D15*
%TO.P,U1,14,GPIO10*%
%TO.N,PIO2_det*%
X63020000Y-93500000D03*
%TO.P,U1,15,GPIO11*%
%TO.N,PIO3_det*%
X65560000Y-93500000D03*
%TO.P,U1,16,GPIO12*%
%TO.N,PIO3_TX*%
X68100000Y-93500000D03*
%TO.P,U1,17,GPIO13*%
%TO.N,PIO3_RX*%
X70640000Y-93500000D03*
D16*
%TO.P,U1,18,GND*%
%TO.N,GND*%
X73180000Y-93500000D03*
D15*
%TO.P,U1,19,GPIO14*%
%TO.N,PIO4_TX*%
X75720000Y-93500000D03*
%TO.P,U1,20,GPIO15*%
%TO.N,PIO4_RX*%
X78260000Y-93500000D03*
%TO.P,U1,21,GPIO16*%
%TO.N,PIO4_det*%
X78260000Y-75720000D03*
%TO.P,U1,22,GPIO17*%
%TO.N,PIO1_det*%
X75720000Y-75720000D03*
D16*
%TO.P,U1,23,GND*%
%TO.N,GND*%
X73180000Y-75720000D03*
D15*
%TO.P,U1,24,GPIO18*%
%TO.N,unconnected-(U1-GPIO18-Pad24)*%
X70640000Y-75720000D03*
%TO.P,U1,25,GPIO19*%
%TO.N,unconnected-(U1-GPIO19-Pad25)*%
X68100000Y-75720000D03*
%TO.P,U1,26,GPIO20*%
%TO.N,unconnected-(U1-GPIO20-Pad26)*%
X65560000Y-75720000D03*
%TO.P,U1,27,GPIO21*%
%TO.N,unconnected-(U1-GPIO21-Pad27)*%
X63020000Y-75720000D03*
D16*
%TO.P,U1,28,GND*%
%TO.N,GND*%
X60480000Y-75720000D03*
D15*
%TO.P,U1,29,GPIO22*%
%TO.N,unconnected-(U1-GPIO22-Pad29)*%
X57940000Y-75720000D03*
%TO.P,U1,30,RUN*%
%TO.N,unconnected-(U1-RUN-Pad30)*%
X55400000Y-75720000D03*
%TO.P,U1,31,GPIO26_ADC0*%
%TO.N,unconnected-(U1-GPIO26_ADC0-Pad31)*%
X52860000Y-75720000D03*
%TO.P,U1,32,GPIO27_ADC1*%
%TO.N,unconnected-(U1-GPIO27_ADC1-Pad32)*%
X50320000Y-75720000D03*
D16*
%TO.P,U1,33,AGND*%
%TO.N,unconnected-(U1-AGND-Pad33)*%
X47780000Y-75720000D03*
D15*
%TO.P,U1,34,GPIO28_ADC2*%
%TO.N,Net-(U1-GPIO28_ADC2)*%
X45240000Y-75720000D03*
%TO.P,U1,35,ADC_VREF*%
%TO.N,unconnected-(U1-ADC_VREF-Pad35)*%
X42700000Y-75720000D03*
%TO.P,U1,36,3V3*%
%TO.N,3V3*%
X40160000Y-75720000D03*
%TO.P,U1,37,3V3_EN*%
%TO.N,unconnected-(U1-3V3_EN-Pad37)*%
X37620000Y-75720000D03*
D16*
%TO.P,U1,38,GND*%
%TO.N,GND*%
X35080000Y-75720000D03*
D15*
%TO.P,U1,39,VSYS*%
%TO.N,Net-(D3-K)*%
X32540000Y-75720000D03*
%TO.P,U1,40,VBUS*%
%TO.N,unconnected-(U1-VBUS-Pad40)*%
X30000000Y-75720000D03*
%TD*%
D12*
%TO.P,J7,1*%
%TO.N,Net-(D12-A1)*%
X107470000Y-107890000D03*
D13*
%TO.P,J7,2*%
%TO.N,Net-(D12-A2)*%
X106454000Y-106110000D03*
%TO.P,J7,3*%
%TO.N,GND*%
X105438000Y-107890000D03*
%TO.P,J7,4*%
%TO.N,PIO3_det*%
X104422000Y-106110000D03*
%TO.P,J7,5*%
%TO.N,GND*%
X103406000Y-107890000D03*
%TO.P,J7,6*%
X102390000Y-106110000D03*
%TO.P,J7,7*%
%TO.N,Net-(D13-A2)*%
X101374000Y-107890000D03*
%TO.P,J7,8*%
%TO.N,Net-(D13-A1)*%
X100358000Y-106110000D03*
%TO.P,J7,9*%
%TO.N,Net-(RN2-R1.2)*%
X110770000Y-101290000D03*
%TO.P,J7,10*%
%TO.N,3V3*%
X108480000Y-101290000D03*
%TO.P,J7,11*%
%TO.N,Net-(RN2-R2.2)*%
X99340000Y-101290000D03*
%TO.P,J7,12*%
%TO.N,3V3*%
X97050000Y-101290000D03*
D14*
%TO.P,J7,SH*%
%TO.N,Earth*%
X95530000Y-107000000D03*
%TD*%
%TO.P,J6,SH*%
%TO.N,Earth*%
X112290000Y-107000000D03*
X128800000Y-107000000D03*
D13*
%TO.P,J6,12*%
%TO.N,3V3*%
X113810000Y-101290000D03*
%TO.P,J6,11*%
%TO.N,Net-(RN2-R3.2)*%
X116100000Y-101290000D03*
%TO.P,J6,10*%
%TO.N,3V3*%
X125240000Y-101290000D03*
%TO.P,J6,9*%
%TO.N,Net-(RN2-R4.2)*%
X127530000Y-101290000D03*
%TO.P,J6,8*%
%TO.N,Net-(D11-A1)*%
X117118000Y-106110000D03*
%TO.P,J6,7*%
%TO.N,Net-(D11-A2)*%
X118134000Y-107890000D03*
%TO.P,J6,6*%
%TO.N,GND*%
X119150000Y-106110000D03*
%TO.P,J6,5*%
X120166000Y-107890000D03*
%TO.P,J6,4*%
%TO.N,PIO4_det*%
X121182000Y-106110000D03*
%TO.P,J6,3*%
%TO.N,GND*%
X122198000Y-107890000D03*
%TO.P,J6,2*%
%TO.N,Net-(D10-A2)*%
X123214000Y-106110000D03*
D12*
%TO.P,J6,1*%
%TO.N,Net-(D10-A1)*%
X124230000Y-107890000D03*
%TD*%
D14*
%TO.P,J5,SH*%
%TO.N,Earth*%
X62010000Y-107000000D03*
D13*
%TO.P,J5,12*%
%TO.N,3V3*%
X63530000Y-101290000D03*
%TO.P,J5,11*%
%TO.N,Net-(RN1-R2.2)*%
X65820000Y-101290000D03*
%TO.P,J5,10*%
%TO.N,3V3*%
X74960000Y-101290000D03*
%TO.P,J5,9*%
%TO.N,Net-(RN1-R1.2)*%
X77250000Y-101290000D03*
%TO.P,J5,8*%
%TO.N,Net-(D9-A1)*%
X66838000Y-106110000D03*
%TO.P,J5,7*%
%TO.N,Net-(D9-A2)*%
X67854000Y-107890000D03*
%TO.P,J5,6*%
%TO.N,GND*%
X68870000Y-106110000D03*
%TO.P,J5,5*%
X69886000Y-107890000D03*
%TO.P,J5,4*%
%TO.N,PIO1_det*%
X70902000Y-106110000D03*
%TO.P,J5,3*%
%TO.N,GND*%
X71918000Y-107890000D03*
%TO.P,J5,2*%
%TO.N,Net-(D8-A2)*%
X72934000Y-106110000D03*
D12*
%TO.P,J5,1*%
%TO.N,Net-(D8-A1)*%
X73950000Y-107890000D03*
%TD*%
D14*
%TO.P,J4,SH*%
%TO.N,Earth*%
X78770000Y-107000000D03*
D13*
%TO.P,J4,12*%
%TO.N,3V3*%
X80290000Y-101290000D03*
%TO.P,J4,11*%
%TO.N,Net-(RN1-R3.2)*%
X82580000Y-101290000D03*
%TO.P,J4,10*%
%TO.N,3V3*%
X91720000Y-101290000D03*
%TO.P,J4,9*%
%TO.N,Net-(RN1-R4.2)*%
X94010000Y-101290000D03*
%TO.P,J4,8*%
%TO.N,Net-(D7-A1)*%
X83598000Y-106110000D03*
%TO.P,J4,7*%
%TO.N,Net-(D7-A2)*%
X84614000Y-107890000D03*
%TO.P,J4,6*%
%TO.N,GND*%
X85630000Y-106110000D03*
%TO.P,J4,5*%
X86646000Y-107890000D03*
%TO.P,J4,4*%
%TO.N,PIO2_det*%
X87662000Y-106110000D03*
%TO.P,J4,3*%
%TO.N,GND*%
X88678000Y-107890000D03*
%TO.P,J4,2*%
%TO.N,Net-(D6-A2)*%
X89694000Y-106110000D03*
D12*
%TO.P,J4,1*%
%TO.N,Net-(D6-A1)*%
X90710000Y-107890000D03*
%TD*%
%TO.P,J3,1*%
%TO.N,Net-(D4-A1)*%
X57190000Y-107890000D03*
D13*
%TO.P,J3,2*%
%TO.N,Net-(D4-A2)*%
X56174000Y-106110000D03*
%TO.P,J3,3*%
%TO.N,GND*%
X55158000Y-107890000D03*
%TO.P,J3,4*%
%TO.N,Serial2_det*%
X54142000Y-106110000D03*
%TO.P,J3,5*%
%TO.N,GND*%
X53126000Y-107890000D03*
%TO.P,J3,6*%
X52110000Y-106110000D03*
%TO.P,J3,7*%
%TO.N,Net-(D5-A2)*%
X51094000Y-107890000D03*
%TO.P,J3,8*%
%TO.N,Net-(D5-A1)*%
X50078000Y-106110000D03*
%TO.P,J3,9*%
%TO.N,Net-(RN4-R3.2)*%
X60490000Y-101290000D03*
%TO.P,J3,10*%
%TO.N,3V3*%
X58200000Y-101290000D03*
%TO.P,J3,11*%
%TO.N,Net-(RN4-R4.2)*%
X49060000Y-101290000D03*
%TO.P,J3,12*%
%TO.N,3V3*%
X46770000Y-101290000D03*
D14*
%TO.P,J3,SH*%
%TO.N,Earth*%
X45250000Y-107000000D03*
%TD*%
D17*
%TO.P,J2,3*%
%TO.N,Net-(U1-GPIO28_ADC2)*%
X37400000Y-86800000D03*
D18*
%TO.P,J2,2*%
%TO.N,GND*%
X34000000Y-82000000D03*
D19*
%TO.P,J2,1*%
%TO.N,Net-(D3-A)*%
X40300000Y-82000000D03*
%TD*%
D20*
%TO.N,GND*%
X101750000Y-99000000D03*
X63500000Y-97000000D03*
%TO.N,PIO1_det*%
X62181494Y-95425500D03*
X61750000Y-91475500D03*
%TO.N,GND*%
X48500000Y-98750000D03*
X51250000Y-99000000D03*
%TO.N,Net-(RN4-R3.2)*%
X46458308Y-95500500D03*
X44842550Y-99839757D03*
%TO.N,GND*%
X77250000Y-105000000D03*
X30000000Y-103500000D03*
X47000000Y-105250000D03*
X63000000Y-104250000D03*
X80000000Y-103000000D03*
X84500000Y-99000000D03*
X96925000Y-103750000D03*
X113250000Y-104250000D03*
X120600000Y-87000000D03*
%TO.N,Net-(D5-A1)*%
X50100000Y-111000000D03*
%TO.N,Net-(RN2-R3.2)*%
X114081099Y-99616600D03*
%TO.N,Net-(RN2-R2.2)*%
X111619500Y-99961449D03*
%TO.N,Net-(RN2-R4.2)*%
X113400000Y-98800000D03*
%TO.N,Net-(RN1-R4.2)*%
X90360000Y-97640000D03*
%TO.N,PIO2_TX*%
X84550000Y-100270000D03*
%TO.N,3V3*%
X118050000Y-102810000D03*
X101500000Y-102810000D03*
X84550000Y-102810000D03*
X68025000Y-102810000D03*
X34539060Y-102670500D03*
X51000000Y-102810000D03*
%TO.N,Net-(D10-A2)*%
X126000000Y-105500000D03*
%TO.N,Net-(D11-A1)*%
X117000000Y-110500000D03*
%TO.N,Net-(D12-A2)*%
X109500000Y-105500000D03*
%TO.N,Net-(D13-A1)*%
X100050000Y-110500000D03*
%TO.N,Net-(RN1-R4.2)*%
X79949500Y-98800000D03*
%TO.N,Net-(D6-A2)*%
X92500000Y-105500000D03*
%TO.N,Net-(D7-A1)*%
X83950000Y-110625000D03*
%TO.N,Net-(RN1-R2.2)*%
X78133791Y-99660550D03*
%TO.N,Net-(D9-A1)*%
X67000000Y-111125000D03*
%TO.N,Net-(D8-A2)*%
X75500000Y-107500000D03*
%TO.N,Net-(D4-A2)*%
X59000000Y-107500000D03*
%TO.N,Net-(RN4-R2.2)*%
X43848815Y-99732544D03*
%TO.N,Net-(D2-A1)*%
X33100000Y-110000000D03*
%TO.N,Net-(D1-A2)*%
X40500000Y-110062500D03*
%TD*%
D21*
%TO.N,Net-(RN4-R2.2)*%
X43491359Y-100090000D02*
X43848815Y-99732544D01*
X33500000Y-100090000D02*
X43491359Y-100090000D01*
X32300000Y-101290000D02*
X33500000Y-100090000D01*
%TO.N,Net-(RN2-R2.2)*%
X101397918Y-98150000D02*
X109808051Y-98150000D01*
X100630000Y-98917918D02*
X101397918Y-98150000D01*
X100630000Y-100000000D02*
X100630000Y-98917918D01*
X109808051Y-98150000D02*
X111619500Y-99961449D01*
D22*
%TO.N,GND*%
X73180000Y-75820000D02*
X73180000Y-75720000D01*
X60480000Y-78070000D02*
X70930000Y-78070000D01*
X60480000Y-75720000D02*
X60480000Y-78070000D01*
X70930000Y-78070000D02*
X73180000Y-75820000D01*
X60480000Y-75725585D02*
X60480000Y-75720000D01*
X58685585Y-77520000D02*
X60480000Y-75725585D01*
X35080000Y-75725585D02*
X36874415Y-77520000D01*
X36874415Y-77520000D02*
X58685585Y-77520000D01*
X35080000Y-75720000D02*
X35080000Y-75725585D01*
X35080000Y-80920000D02*
X34000000Y-82000000D01*
X35080000Y-75720000D02*
X35080000Y-80920000D01*
D23*
%TO.N,PIO3_det*%
X87262500Y-92262500D02*
X95500000Y-100500000D01*
D21*
%TO.N,GND*%
X101750000Y-100577057D02*
X101750000Y-99000000D01*
X98577057Y-103750000D02*
X101750000Y-100577057D01*
X96925000Y-103750000D02*
X98577057Y-103750000D01*
D23*
X63500000Y-95630312D02*
X63500000Y-97000000D01*
X61618000Y-94638000D02*
X62507688Y-94638000D01*
X62507688Y-94638000D02*
X63500000Y-95630312D01*
X60480000Y-93500000D02*
X61618000Y-94638000D01*
%TO.N,PIO1_det*%
X69292000Y-104500000D02*
X70902000Y-106110000D01*
X65131332Y-104500000D02*
X69292000Y-104500000D01*
X61782500Y-100890000D02*
X62392500Y-101500000D01*
X62000000Y-100672500D02*
X61782500Y-100890000D01*
X62181494Y-95425500D02*
X62000000Y-95606994D01*
X62000000Y-95606994D02*
X62000000Y-100672500D01*
X62392500Y-101500000D02*
X62392500Y-101761168D01*
X62392500Y-101761168D02*
X65131332Y-104500000D01*
X61750000Y-91500000D02*
X61750000Y-91475500D01*
X61782500Y-91532500D02*
X61750000Y-91500000D01*
X61782500Y-90157500D02*
X61782500Y-91532500D01*
%TO.N,PIO2_TX*%
X63597590Y-92262500D02*
X64322500Y-92987410D01*
X64322500Y-94012590D02*
X65735410Y-95425500D01*
X65735410Y-95425500D02*
X69250000Y-95425500D01*
X56637500Y-92262500D02*
X63597590Y-92262500D01*
X55400000Y-93500000D02*
X56637500Y-92262500D01*
X64322500Y-92987410D02*
X64322500Y-94012590D01*
D21*
X69574500Y-95750000D02*
X75631522Y-95750000D01*
%TO.N,GND*%
X47970000Y-98220000D02*
X48500000Y-98750000D01*
X47780000Y-98220000D02*
X47970000Y-98220000D01*
X47780000Y-98220000D02*
X47780000Y-93500000D01*
X45570000Y-103820000D02*
X45570000Y-100430000D01*
X45570000Y-100430000D02*
X47780000Y-98220000D01*
X47000000Y-105250000D02*
X45570000Y-103820000D01*
D23*
%TO.N,Serial2_det*%
X41397500Y-92262500D02*
X40160000Y-93500000D01*
X50197500Y-103121194D02*
X50197500Y-95180000D01*
X49017500Y-92262500D02*
X41397500Y-92262500D01*
X52048806Y-104972500D02*
X50197500Y-103121194D01*
X49017500Y-94000000D02*
X49017500Y-92262500D01*
X53004500Y-104972500D02*
X52048806Y-104972500D01*
X50197500Y-95180000D02*
X49017500Y-94000000D01*
%TO.N,Net-(RN4-R3.2)*%
X46458308Y-95500500D02*
X46085327Y-95500500D01*
X46085327Y-95500500D02*
X44842550Y-96743277D01*
X44842550Y-96743277D02*
X44842550Y-99839757D01*
D21*
%TO.N,PIO2_TX*%
X84370000Y-100090000D02*
X84550000Y-100270000D01*
X75631522Y-95750000D02*
X79971522Y-100090000D01*
X69250000Y-95425500D02*
X69574500Y-95750000D01*
X79971522Y-100090000D02*
X84370000Y-100090000D01*
D23*
%TO.N,GND*%
X59337500Y-94642500D02*
X60480000Y-93500000D01*
X59337500Y-102337500D02*
X59337500Y-94642500D01*
X61250000Y-104250000D02*
X59337500Y-102337500D01*
X63000000Y-104250000D02*
X61250000Y-104250000D01*
%TO.N,PIO3_det*%
X103284500Y-104972500D02*
X104422000Y-106110000D01*
X98633832Y-105462500D02*
X99123832Y-104972500D01*
X95962500Y-105462500D02*
X98633832Y-105462500D01*
X99123832Y-104972500D02*
X103284500Y-104972500D01*
X95500000Y-100500000D02*
X95500000Y-105000000D01*
X66797500Y-92262500D02*
X87262500Y-92262500D01*
X65560000Y-93500000D02*
X66797500Y-92262500D01*
X95500000Y-105000000D02*
X95962500Y-105462500D01*
D21*
%TO.N,3V3*%
X87460000Y-101290000D02*
X91720000Y-101290000D01*
X85940000Y-102810000D02*
X87460000Y-101290000D01*
X84550000Y-102810000D02*
X85940000Y-102810000D01*
%TO.N,Net-(RN1-R2.2)*%
X70272888Y-99660550D02*
X78133791Y-99660550D01*
X68643438Y-101290000D02*
X70272888Y-99660550D01*
X65820000Y-101290000D02*
X68643438Y-101290000D01*
D22*
%TO.N,GND*%
X120166000Y-107890000D02*
X122198000Y-107890000D01*
X103406000Y-107890000D02*
X105438000Y-107890000D01*
X35350000Y-106482164D02*
X35350000Y-106110000D01*
X36366000Y-107498164D02*
X35350000Y-106482164D01*
X36366000Y-107890000D02*
X36366000Y-107498164D01*
X38398000Y-107890000D02*
X36366000Y-107890000D01*
X53126000Y-107498164D02*
X53126000Y-107890000D01*
X52110000Y-106482164D02*
X53126000Y-107498164D01*
X52110000Y-106110000D02*
X52110000Y-106482164D01*
X55158000Y-107890000D02*
X53126000Y-107890000D01*
X86646000Y-107890000D02*
X88678000Y-107890000D01*
X69886000Y-107890000D02*
X71918000Y-107890000D01*
X68870000Y-106501836D02*
X69886000Y-107517836D01*
X69886000Y-107517836D02*
X69886000Y-107890000D01*
X68870000Y-106110000D02*
X68870000Y-106501836D01*
X85630000Y-106501836D02*
X86646000Y-107517836D01*
X86646000Y-107517836D02*
X86646000Y-107890000D01*
X85630000Y-106110000D02*
X85630000Y-106501836D01*
X120166000Y-107517836D02*
X120166000Y-107890000D01*
X119150000Y-106501836D02*
X120166000Y-107517836D01*
X119150000Y-106110000D02*
X119150000Y-106501836D01*
X103406000Y-107498164D02*
X103406000Y-107890000D01*
X102390000Y-106482164D02*
X103406000Y-107498164D01*
X102390000Y-106110000D02*
X102390000Y-106482164D01*
D21*
%TO.N,3V3*%
X128027057Y-102490000D02*
X126440000Y-102490000D01*
X126440000Y-102490000D02*
X125240000Y-101290000D01*
X129000000Y-101517057D02*
X128027057Y-102490000D01*
X102357057Y-74420000D02*
X129000000Y-101062943D01*
X129000000Y-101062943D02*
X129000000Y-101517057D01*
X41460000Y-74420000D02*
X102357057Y-74420000D01*
X40160000Y-75720000D02*
X41460000Y-74420000D01*
X29330000Y-74420000D02*
X38860000Y-74420000D01*
X38860000Y-74420000D02*
X40160000Y-75720000D01*
X28250000Y-75500000D02*
X29330000Y-74420000D01*
X28250000Y-99530000D02*
X28250000Y-75500000D01*
X30010000Y-101290000D02*
X28250000Y-99530000D01*
%TO.N,Net-(D9-A1)*%
X66088000Y-106860000D02*
X66838000Y-106110000D01*
X67000000Y-110384796D02*
X66088000Y-109472796D01*
X66088000Y-109472796D02*
X66088000Y-106860000D01*
X67000000Y-111125000D02*
X67000000Y-110384796D01*
%TO.N,Net-(D5-A1)*%
X50100000Y-110000000D02*
X50100000Y-111000000D01*
D23*
%TO.N,PIO4_det*%
X112407000Y-99635255D02*
X88491745Y-75720000D01*
X112407000Y-101495668D02*
X112407000Y-99635255D01*
X114508832Y-103597500D02*
X112407000Y-101495668D01*
X118669500Y-103597500D02*
X114508832Y-103597500D01*
X88491745Y-75720000D02*
X78260000Y-75720000D01*
X121182000Y-106110000D02*
X118669500Y-103597500D01*
%TO.N,Net-(RN2-R3.2)*%
X114426600Y-99616600D02*
X116100000Y-101290000D01*
X114081099Y-99616600D02*
X114426600Y-99616600D01*
D21*
%TO.N,Net-(RN2-R2.2)*%
X100630000Y-100000000D02*
X99340000Y-101290000D01*
D23*
%TO.N,Net-(RN2-R4.2)*%
X125040000Y-98800000D02*
X113400000Y-98800000D01*
X127530000Y-101290000D02*
X125040000Y-98800000D01*
%TO.N,Net-(RN1-R4.2)*%
X81109500Y-97640000D02*
X90360000Y-97640000D01*
X79949500Y-98800000D02*
X81109500Y-97640000D01*
%TO.N,PIO2_det*%
X85477000Y-103925000D02*
X87662000Y-106110000D01*
X66500000Y-103925000D02*
X85477000Y-103925000D01*
X64667500Y-102092500D02*
X66500000Y-103925000D01*
X64667500Y-95647500D02*
X64667500Y-102092500D01*
X63020000Y-94000000D02*
X64667500Y-95647500D01*
%TO.N,PIO1_det*%
X61782500Y-90157500D02*
X75720000Y-76220000D01*
%TO.N,Serial2_det*%
X53004500Y-104972500D02*
X54142000Y-106110000D01*
%TO.N,3V3*%
X119570000Y-101290000D02*
X118050000Y-102810000D01*
X125240000Y-101290000D02*
X119570000Y-101290000D01*
X106960000Y-102810000D02*
X101500000Y-102810000D01*
X108480000Y-101290000D02*
X106960000Y-102810000D01*
X69545000Y-101290000D02*
X68025000Y-102810000D01*
X74960000Y-101290000D02*
X69545000Y-101290000D01*
%TO.N,Serial1_det*%
X33972500Y-104972500D02*
X36244500Y-104972500D01*
X31828832Y-102828832D02*
X33972500Y-104972500D01*
X36244500Y-104972500D02*
X37382000Y-106110000D01*
X31828832Y-102427500D02*
X31828832Y-102828832D01*
D21*
%TO.N,3V3*%
X34624500Y-102670500D02*
X34539060Y-102670500D01*
X36005000Y-101290000D02*
X34624500Y-102670500D01*
D23*
X58200000Y-101290000D02*
X52520000Y-101290000D01*
X52520000Y-101290000D02*
X51000000Y-102810000D01*
D21*
X41440000Y-101290000D02*
X36005000Y-101290000D01*
D23*
%TO.N,Serial1_det*%
X31162500Y-100457500D02*
X37620000Y-94000000D01*
X31162500Y-101761168D02*
X31162500Y-100457500D01*
X31828832Y-102427500D02*
X31162500Y-101761168D01*
D21*
%TO.N,Net-(D10-A2)*%
X125390000Y-106110000D02*
X126000000Y-105500000D01*
X123214000Y-106110000D02*
X125390000Y-106110000D01*
%TO.N,Net-(D11-A1)*%
X117000000Y-110000000D02*
X117000000Y-110500000D01*
X116368000Y-109368000D02*
X117000000Y-110000000D01*
X116368000Y-106860000D02*
X116368000Y-109368000D01*
X117118000Y-106110000D02*
X116368000Y-106860000D01*
%TO.N,Net-(D12-A2)*%
X108890000Y-106110000D02*
X109500000Y-105500000D01*
X106454000Y-106110000D02*
X108890000Y-106110000D01*
%TO.N,Net-(D13-A1)*%
X100050000Y-106418000D02*
X100050000Y-110500000D01*
X100358000Y-106110000D02*
X100050000Y-106418000D01*
%TO.N,Net-(D6-A2)*%
X91890000Y-106110000D02*
X92500000Y-105500000D01*
X89694000Y-106110000D02*
X91890000Y-106110000D01*
%TO.N,Net-(D7-A1)*%
X83598000Y-106110000D02*
X82848000Y-106860000D01*
X82848000Y-106860000D02*
X82848000Y-109523000D01*
X82848000Y-109523000D02*
X83950000Y-110625000D01*
%TO.N,Net-(D8-A2)*%
X75500000Y-107040000D02*
X75500000Y-107500000D01*
X74570000Y-106110000D02*
X75500000Y-107040000D01*
X72934000Y-106110000D02*
X74570000Y-106110000D01*
%TO.N,Net-(D4-A2)*%
X57610000Y-106110000D02*
X56174000Y-106110000D01*
X59000000Y-107500000D02*
X57610000Y-106110000D01*
%TO.N,Net-(D5-A1)*%
X49328000Y-106860000D02*
X49328000Y-109228000D01*
X49328000Y-109228000D02*
X50100000Y-110000000D01*
X50078000Y-106110000D02*
X49328000Y-106860000D01*
%TO.N,Net-(D2-A1)*%
X33100000Y-106328000D02*
X33100000Y-110000000D01*
X33318000Y-106110000D02*
X33100000Y-106328000D01*
%TO.N,Net-(D1-A2)*%
X41822398Y-108740102D02*
X40500000Y-110062500D01*
X41050000Y-106110000D02*
X41822398Y-106882398D01*
X39414000Y-106110000D02*
X41050000Y-106110000D01*
X41822398Y-106882398D02*
X41822398Y-108740102D01*
%TD*%
%TA.AperFunction,Conductor*%
%TO.N,GND*%
G36*
X29015294Y-73516756D02*
G01*
X29060579Y-73561262D01*
X29077897Y-73622349D01*
X29062708Y-73684000D01*
X29018995Y-73730050D01*
X29012029Y-73734345D01*
X28991926Y-73744076D01*
X28928221Y-73785975D01*
X28925181Y-73787912D01*
X28860280Y-73827944D01*
X28845165Y-73840256D01*
X28792832Y-73895725D01*
X28790320Y-73898311D01*
X27764359Y-74924272D01*
X27750726Y-74936054D01*
X27731467Y-74950391D01*
X27699633Y-74988329D01*
X27692341Y-74996289D01*
X27688408Y-75000222D01*
X27669176Y-75024545D01*
X27666902Y-75027337D01*
X27617894Y-75085744D01*
X27607418Y-75102187D01*
X27575192Y-75171294D01*
X27573622Y-75174536D01*
X27539393Y-75242692D01*
X27532996Y-75261098D01*
X27517573Y-75335788D01*
X27516793Y-75339305D01*
X27499208Y-75413505D01*
X27497229Y-75432878D01*
X27499448Y-75509131D01*
X27499500Y-75512737D01*
X27499500Y-99466294D01*
X27498191Y-99484264D01*
X27494711Y-99508023D01*
X27499028Y-99557369D01*
X27499500Y-99568176D01*
X27499500Y-99573708D01*
X27503098Y-99604496D01*
X27503464Y-99608081D01*
X27510110Y-99684041D01*
X27514329Y-99703071D01*
X27514758Y-99704251D01*
X27514759Y-99704255D01*
X27540413Y-99774742D01*
X27541582Y-99778107D01*
X27565580Y-99850524D01*
X27574075Y-99868072D01*
X27615979Y-99931784D01*
X27617889Y-99934782D01*
X27655750Y-99996162D01*
X27657952Y-99999732D01*
X27670253Y-100014830D01*
X27671168Y-100015693D01*
X27671170Y-100015696D01*
X27714400Y-100056481D01*
X27725708Y-100067150D01*
X27728295Y-100069663D01*
X28729435Y-101070803D01*
X28758276Y-101116073D01*
X28765282Y-101169290D01*
X28754722Y-101289999D01*
X28773792Y-101507974D01*
X28830425Y-101719331D01*
X28856213Y-101774632D01*
X28922898Y-101917639D01*
X29048402Y-102096877D01*
X29203123Y-102251598D01*
X29382361Y-102377102D01*
X29580670Y-102469575D01*
X29792023Y-102526207D01*
X30010000Y-102545277D01*
X30227977Y-102526207D01*
X30439330Y-102469575D01*
X30637639Y-102377102D01*
X30651110Y-102367668D01*
X30704261Y-102346553D01*
X30761237Y-102351537D01*
X30809915Y-102381562D01*
X31104513Y-102676160D01*
X31131393Y-102716388D01*
X31140832Y-102763841D01*
X31140832Y-102804294D01*
X31140606Y-102811781D01*
X31137043Y-102870679D01*
X31147679Y-102928720D01*
X31148806Y-102936123D01*
X31155918Y-102994690D01*
X31159375Y-103003806D01*
X31165400Y-103025419D01*
X31167158Y-103035015D01*
X31191372Y-103088816D01*
X31194237Y-103095733D01*
X31215163Y-103150909D01*
X31220707Y-103158941D01*
X31231727Y-103178481D01*
X31235731Y-103187375D01*
X31272118Y-103233821D01*
X31276547Y-103239840D01*
X31310074Y-103288411D01*
X31330723Y-103306704D01*
X31354244Y-103327542D01*
X31359697Y-103332676D01*
X32143279Y-104116258D01*
X32810353Y-104783331D01*
X32840933Y-104833724D01*
X32844788Y-104892544D01*
X32821048Y-104946498D01*
X32775078Y-104983394D01*
X32690359Y-105022899D01*
X32511122Y-105148402D01*
X32356402Y-105303122D01*
X32230898Y-105482361D01*
X32138425Y-105680668D01*
X32081792Y-105892025D01*
X32062722Y-106109999D01*
X32081792Y-106327974D01*
X32138425Y-106539331D01*
X32230898Y-106737640D01*
X32327075Y-106874995D01*
X32343761Y-106908831D01*
X32349500Y-106946118D01*
X32349500Y-109386315D01*
X32333188Y-109447791D01*
X32288543Y-109493093D01*
X32227312Y-109510302D01*
X32165604Y-109494890D01*
X32119654Y-109450911D01*
X32049405Y-109335804D01*
X32022697Y-109303711D01*
X31873791Y-109124782D01*
X31669323Y-108941577D01*
X31440359Y-108790096D01*
X31191779Y-108673567D01*
X30928881Y-108594473D01*
X30657269Y-108554500D01*
X30451453Y-108554500D01*
X30451449Y-108554500D01*
X30246194Y-108569522D01*
X29978225Y-108629215D01*
X29721803Y-108727288D01*
X29482391Y-108861653D01*
X29265094Y-109029443D01*
X29074545Y-109227083D01*
X28914802Y-109450364D01*
X28789272Y-109694521D01*
X28700629Y-109954352D01*
X28650763Y-110224325D01*
X28640737Y-110498678D01*
X28670763Y-110771569D01*
X28705816Y-110905646D01*
X28740204Y-111037182D01*
X28817202Y-111218373D01*
X28847577Y-111289852D01*
X28971729Y-111493284D01*
X28990595Y-111524196D01*
X29166209Y-111735218D01*
X29370677Y-111918423D01*
X29599641Y-112069904D01*
X29848221Y-112186433D01*
X30111119Y-112265527D01*
X30382731Y-112305500D01*
X30588547Y-112305500D01*
X30588551Y-112305500D01*
X30793805Y-112290477D01*
X30905813Y-112265526D01*
X31061775Y-112230784D01*
X31318198Y-112132711D01*
X31557609Y-111998347D01*
X31774904Y-111830557D01*
X31965454Y-111632916D01*
X32125196Y-111409637D01*
X32250727Y-111165479D01*
X32339370Y-110905646D01*
X32356435Y-110813256D01*
X32359866Y-110794683D01*
X32385914Y-110738584D01*
X32435819Y-110702047D01*
X32497165Y-110694160D01*
X32554688Y-110716886D01*
X32647270Y-110784151D01*
X32647271Y-110784151D01*
X32647272Y-110784152D01*
X32820197Y-110861144D01*
X33005352Y-110900500D01*
X33005354Y-110900500D01*
X33194646Y-110900500D01*
X33194648Y-110900500D01*
X33318083Y-110874262D01*
X33379803Y-110861144D01*
X33552730Y-110784151D01*
X33615448Y-110738584D01*
X33705870Y-110672889D01*
X33742943Y-110631716D01*
X33832533Y-110532216D01*
X33927179Y-110368284D01*
X33985674Y-110188256D01*
X34005460Y-110000000D01*
X33985674Y-109811744D01*
X33942695Y-109679468D01*
X33927179Y-109631715D01*
X33867113Y-109527678D01*
X33850500Y-109465678D01*
X33850500Y-109216661D01*
X33863288Y-109161817D01*
X33899013Y-109118285D01*
X33950309Y-109095044D01*
X34006593Y-109096886D01*
X34110705Y-109124782D01*
X34116023Y-109126207D01*
X34334000Y-109145277D01*
X34551977Y-109126207D01*
X34763330Y-109069575D01*
X34914119Y-108999261D01*
X35787067Y-108999261D01*
X35936840Y-109069102D01*
X36148113Y-109125712D01*
X36366000Y-109144775D01*
X36583886Y-109125712D01*
X36795159Y-109069102D01*
X36944932Y-108999261D01*
X36366001Y-108420330D01*
X36366000Y-108420330D01*
X35787067Y-108999261D01*
X34914119Y-108999261D01*
X34961639Y-108977102D01*
X35140877Y-108851598D01*
X35295598Y-108696877D01*
X35421102Y-108517639D01*
X35513575Y-108319330D01*
X35544227Y-108204933D01*
X35576319Y-108149349D01*
X36278318Y-107447350D01*
X36333905Y-107415256D01*
X36398093Y-107415256D01*
X36453680Y-107447350D01*
X37382000Y-108375670D01*
X38310319Y-107447351D01*
X38365906Y-107415257D01*
X38430094Y-107415257D01*
X38485681Y-107447351D01*
X38840648Y-107802318D01*
X38872742Y-107857905D01*
X38872742Y-107922093D01*
X38840648Y-107977680D01*
X37819067Y-108999261D01*
X37968840Y-109069102D01*
X38180113Y-109125712D01*
X38398000Y-109144775D01*
X38615886Y-109125712D01*
X38827159Y-109069102D01*
X39025389Y-108976665D01*
X39111634Y-108916276D01*
X39170644Y-108894443D01*
X39232773Y-108904384D01*
X39282025Y-108943540D01*
X39322452Y-108997544D01*
X39322453Y-108997544D01*
X39322454Y-108997546D01*
X39437669Y-109083796D01*
X39572517Y-109134091D01*
X39632127Y-109140500D01*
X39855370Y-109140499D01*
X39915106Y-109155837D01*
X39960065Y-109198056D01*
X39979124Y-109256712D01*
X39967568Y-109317294D01*
X39928256Y-109364816D01*
X39894129Y-109389611D01*
X39767466Y-109530283D01*
X39672820Y-109694215D01*
X39614326Y-109874242D01*
X39594540Y-110062500D01*
X39614326Y-110250757D01*
X39672820Y-110430784D01*
X39767466Y-110594716D01*
X39894129Y-110735389D01*
X40047269Y-110846651D01*
X40220197Y-110923644D01*
X40405352Y-110963000D01*
X40405354Y-110963000D01*
X40594646Y-110963000D01*
X40594648Y-110963000D01*
X40718181Y-110936742D01*
X40779803Y-110923644D01*
X40952730Y-110846651D01*
X41105871Y-110735388D01*
X41153227Y-110682792D01*
X41199615Y-110650519D01*
X41255510Y-110642181D01*
X41309300Y-110659513D01*
X41349812Y-110698915D01*
X41368632Y-110752202D01*
X41370763Y-110771569D01*
X41405816Y-110905646D01*
X41440204Y-111037182D01*
X41517202Y-111218373D01*
X41547577Y-111289852D01*
X41671729Y-111493284D01*
X41690595Y-111524196D01*
X41866209Y-111735218D01*
X42070677Y-111918423D01*
X42299641Y-112069904D01*
X42548221Y-112186433D01*
X42811119Y-112265527D01*
X43082731Y-112305500D01*
X43288547Y-112305500D01*
X43288551Y-112305500D01*
X43493805Y-112290477D01*
X43605813Y-112265526D01*
X43761775Y-112230784D01*
X44018198Y-112132711D01*
X44257609Y-111998347D01*
X44474904Y-111830557D01*
X44665454Y-111632916D01*
X44825196Y-111409637D01*
X44950727Y-111165479D01*
X45009472Y-110993284D01*
X45039370Y-110905647D01*
X45089236Y-110635674D01*
X45099262Y-110361321D01*
X45097644Y-110346620D01*
X45069236Y-110088429D01*
X44999796Y-109822818D01*
X44892423Y-109570148D01*
X44749405Y-109335804D01*
X44573791Y-109124782D01*
X44369323Y-108941577D01*
X44140359Y-108790096D01*
X43891779Y-108673567D01*
X43628881Y-108594473D01*
X43357269Y-108554500D01*
X43151453Y-108554500D01*
X43151449Y-108554500D01*
X42946194Y-108569522D01*
X42723860Y-108619050D01*
X42668833Y-108618799D01*
X42619333Y-108594762D01*
X42585108Y-108551673D01*
X42572898Y-108498017D01*
X42572898Y-107000000D01*
X43594396Y-107000000D01*
X43614779Y-107258995D01*
X43675426Y-107511610D01*
X43717512Y-107613212D01*
X43774846Y-107751628D01*
X43879307Y-107922093D01*
X43910590Y-107973143D01*
X43961044Y-108032216D01*
X44079311Y-108170689D01*
X44121332Y-108206578D01*
X44253344Y-108319328D01*
X44276860Y-108339412D01*
X44498372Y-108475154D01*
X44678385Y-108549718D01*
X44738389Y-108574573D01*
X44818197Y-108593733D01*
X44991006Y-108635221D01*
X45250000Y-108655604D01*
X45508994Y-108635221D01*
X45761610Y-108574573D01*
X46001628Y-108475154D01*
X46223140Y-108339412D01*
X46420689Y-108170689D01*
X46589412Y-107973140D01*
X46725154Y-107751628D01*
X46824573Y-107511610D01*
X46885221Y-107258994D01*
X46905604Y-107000000D01*
X46885221Y-106741006D01*
X46824573Y-106488390D01*
X46820727Y-106479106D01*
X46793207Y-106412667D01*
X46725154Y-106248372D01*
X46589412Y-106026860D01*
X46580910Y-106016906D01*
X46528454Y-105955488D01*
X46420689Y-105829311D01*
X46265561Y-105696819D01*
X46223143Y-105660590D01*
X46210718Y-105652976D01*
X46001628Y-105524846D01*
X45899063Y-105482362D01*
X45761610Y-105425426D01*
X45508995Y-105364779D01*
X45250000Y-105344396D01*
X44991004Y-105364779D01*
X44738389Y-105425426D01*
X44533524Y-105510285D01*
X44498372Y-105524846D01*
X44417791Y-105574226D01*
X44276856Y-105660590D01*
X44079311Y-105829311D01*
X43910590Y-106026856D01*
X43887690Y-106064226D01*
X43774846Y-106248372D01*
X43764192Y-106274094D01*
X43675426Y-106488389D01*
X43614779Y-106741004D01*
X43594396Y-107000000D01*
X42572898Y-107000000D01*
X42572898Y-106946104D01*
X42574207Y-106928134D01*
X42574736Y-106924516D01*
X42577687Y-106904375D01*
X42573370Y-106855029D01*
X42572898Y-106844222D01*
X42572898Y-106838687D01*
X42569301Y-106807919D01*
X42568934Y-106804327D01*
X42567595Y-106789016D01*
X42562397Y-106729601D01*
X42562396Y-106729599D01*
X42562287Y-106728347D01*
X42558070Y-106709328D01*
X42554996Y-106700883D01*
X42531989Y-106637671D01*
X42530806Y-106634266D01*
X42526850Y-106622327D01*
X42507212Y-106563064D01*
X42507210Y-106563061D01*
X42506813Y-106561862D01*
X42498327Y-106544334D01*
X42497635Y-106543282D01*
X42497635Y-106543281D01*
X42456399Y-106480586D01*
X42454484Y-106477579D01*
X42414446Y-106412667D01*
X42402146Y-106397568D01*
X42346671Y-106345230D01*
X42344084Y-106342717D01*
X41625728Y-105624360D01*
X41613946Y-105610727D01*
X41613377Y-105609963D01*
X41599610Y-105591470D01*
X41593291Y-105586168D01*
X41561666Y-105559631D01*
X41553691Y-105552323D01*
X41549782Y-105548414D01*
X41549777Y-105548409D01*
X41525423Y-105529152D01*
X41522647Y-105526890D01*
X41464251Y-105477890D01*
X41447821Y-105467422D01*
X41378691Y-105435186D01*
X41375447Y-105433615D01*
X41307306Y-105399394D01*
X41288903Y-105392997D01*
X41214211Y-105377574D01*
X41210692Y-105376794D01*
X41136490Y-105359208D01*
X41117121Y-105357229D01*
X41040869Y-105359448D01*
X41037263Y-105359500D01*
X40479624Y-105359500D01*
X40422366Y-105345489D01*
X40378047Y-105306621D01*
X40375595Y-105303119D01*
X40220880Y-105148405D01*
X40220877Y-105148402D01*
X40041639Y-105022898D01*
X39939912Y-104975462D01*
X39843331Y-104930425D01*
X39631974Y-104873792D01*
X39414000Y-104854722D01*
X39196025Y-104873792D01*
X38984668Y-104930425D01*
X38786361Y-105022898D01*
X38607122Y-105148402D01*
X38485681Y-105269844D01*
X38430094Y-105301938D01*
X38365906Y-105301938D01*
X38310319Y-105269844D01*
X38188880Y-105148405D01*
X38188877Y-105148402D01*
X38009639Y-105022898D01*
X37907912Y-104975462D01*
X37811331Y-104930425D01*
X37599974Y-104873792D01*
X37381999Y-104854722D01*
X37180013Y-104872393D01*
X37126795Y-104865387D01*
X37081525Y-104836546D01*
X36748344Y-104503365D01*
X36743210Y-104497912D01*
X36742342Y-104496932D01*
X36704079Y-104453742D01*
X36655508Y-104420215D01*
X36649489Y-104415786D01*
X36603043Y-104379399D01*
X36594149Y-104375395D01*
X36574609Y-104364375D01*
X36566577Y-104358831D01*
X36511401Y-104337905D01*
X36504484Y-104335040D01*
X36450683Y-104310826D01*
X36441087Y-104309068D01*
X36419474Y-104303043D01*
X36410358Y-104299586D01*
X36351791Y-104292474D01*
X36344388Y-104291347D01*
X36286347Y-104280711D01*
X36286346Y-104280711D01*
X36253068Y-104282724D01*
X36227449Y-104284274D01*
X36219962Y-104284500D01*
X34308840Y-104284500D01*
X34261387Y-104275061D01*
X34221159Y-104248181D01*
X32655025Y-102682046D01*
X32622931Y-102626458D01*
X32622931Y-102562271D01*
X32655025Y-102506683D01*
X32710614Y-102474590D01*
X32713607Y-102473787D01*
X32729330Y-102469575D01*
X32927639Y-102377102D01*
X33106877Y-102251598D01*
X33261598Y-102096877D01*
X33387102Y-101917639D01*
X33479575Y-101719330D01*
X33536207Y-101507977D01*
X33555277Y-101290000D01*
X33544716Y-101169289D01*
X33551722Y-101116074D01*
X33580561Y-101070805D01*
X33774547Y-100876819D01*
X33814776Y-100849939D01*
X33862229Y-100840500D01*
X35093771Y-100840500D01*
X35150066Y-100854015D01*
X35194089Y-100891615D01*
X35216244Y-100945102D01*
X35211702Y-101002818D01*
X35181452Y-101052181D01*
X34494792Y-101738839D01*
X34466279Y-101760131D01*
X34432892Y-101772448D01*
X34259257Y-101809355D01*
X34086329Y-101886348D01*
X33933189Y-101997610D01*
X33806526Y-102138283D01*
X33711880Y-102302215D01*
X33653386Y-102482242D01*
X33633600Y-102670500D01*
X33653386Y-102858757D01*
X33711880Y-103038784D01*
X33806526Y-103202716D01*
X33933189Y-103343389D01*
X34086329Y-103454651D01*
X34259257Y-103531644D01*
X34444412Y-103571000D01*
X34444414Y-103571000D01*
X34633706Y-103571000D01*
X34633708Y-103571000D01*
X34757144Y-103544762D01*
X34818863Y-103531644D01*
X34991790Y-103454651D01*
X35007453Y-103443271D01*
X35144930Y-103343389D01*
X35154302Y-103332981D01*
X35271593Y-103202716D01*
X35366239Y-103038784D01*
X35380459Y-102995018D01*
X35410706Y-102945660D01*
X36279548Y-102076819D01*
X36319777Y-102049939D01*
X36367230Y-102040500D01*
X40374376Y-102040500D01*
X40431631Y-102054510D01*
X40475949Y-102093374D01*
X40478402Y-102096877D01*
X40633123Y-102251598D01*
X40812361Y-102377102D01*
X41010670Y-102469575D01*
X41222023Y-102526207D01*
X41440000Y-102545277D01*
X41657977Y-102526207D01*
X41869330Y-102469575D01*
X42067639Y-102377102D01*
X42246877Y-102251598D01*
X42401598Y-102096877D01*
X42483427Y-101980013D01*
X42527743Y-101941149D01*
X42585000Y-101927138D01*
X42642257Y-101941149D01*
X42686572Y-101980013D01*
X42768402Y-102096877D01*
X42923123Y-102251598D01*
X43102361Y-102377102D01*
X43300670Y-102469575D01*
X43512023Y-102526207D01*
X43730000Y-102545277D01*
X43947977Y-102526207D01*
X44159330Y-102469575D01*
X44357639Y-102377102D01*
X44536877Y-102251598D01*
X44691598Y-102096877D01*
X44817102Y-101917639D01*
X44909575Y-101719330D01*
X44966207Y-101507977D01*
X44985277Y-101290000D01*
X44966207Y-101072023D01*
X44914357Y-100878516D01*
X44914936Y-100812244D01*
X44949564Y-100755735D01*
X45008351Y-100725133D01*
X45122353Y-100700901D01*
X45295280Y-100623908D01*
X45448420Y-100512646D01*
X45484417Y-100472668D01*
X45575083Y-100371973D01*
X45669729Y-100208041D01*
X45728224Y-100028013D01*
X45748010Y-99839757D01*
X45728224Y-99651501D01*
X45681605Y-99508023D01*
X45669729Y-99471472D01*
X45575083Y-99307541D01*
X45562401Y-99293456D01*
X45538786Y-99254921D01*
X45530550Y-99210483D01*
X45530550Y-97079618D01*
X45539989Y-97032165D01*
X45566869Y-96991937D01*
X45832821Y-96725985D01*
X46146284Y-96412520D01*
X46198747Y-96381308D01*
X46259746Y-96378912D01*
X46363661Y-96401000D01*
X46363662Y-96401000D01*
X46552954Y-96401000D01*
X46552956Y-96401000D01*
X46676391Y-96374762D01*
X46738111Y-96361644D01*
X46911038Y-96284651D01*
X47064179Y-96173388D01*
X47190841Y-96032716D01*
X47285487Y-95868784D01*
X47343982Y-95688756D01*
X47363768Y-95500500D01*
X47343982Y-95312244D01*
X47297133Y-95168059D01*
X47285487Y-95132215D01*
X47229937Y-95036000D01*
X47213324Y-94974000D01*
X47229937Y-94912000D01*
X47275324Y-94866613D01*
X47337324Y-94850000D01*
X47405000Y-94850000D01*
X47405000Y-93249000D01*
X47421613Y-93187000D01*
X47467000Y-93141613D01*
X47529000Y-93125000D01*
X48031000Y-93125000D01*
X48093000Y-93141613D01*
X48138387Y-93187000D01*
X48155000Y-93249000D01*
X48155000Y-94850000D01*
X48677824Y-94850000D01*
X48737379Y-94843597D01*
X48772503Y-94830497D01*
X48818787Y-94822713D01*
X48864649Y-94832690D01*
X48903518Y-94858997D01*
X49473181Y-95428660D01*
X49500061Y-95468888D01*
X49509500Y-95516341D01*
X49509500Y-99954229D01*
X49496712Y-100009073D01*
X49460986Y-100052605D01*
X49409691Y-100075846D01*
X49353406Y-100074004D01*
X49277974Y-100053792D01*
X49060000Y-100034722D01*
X48842025Y-100053792D01*
X48630668Y-100110425D01*
X48432361Y-100202898D01*
X48253122Y-100328402D01*
X48098405Y-100483119D01*
X48098404Y-100483121D01*
X48098402Y-100483123D01*
X48020565Y-100594287D01*
X48016575Y-100599985D01*
X47972257Y-100638850D01*
X47915000Y-100652861D01*
X47857743Y-100638850D01*
X47813425Y-100599985D01*
X47812182Y-100598210D01*
X47731598Y-100483123D01*
X47576877Y-100328402D01*
X47397639Y-100202898D01*
X47284943Y-100150347D01*
X47199331Y-100110425D01*
X46987974Y-100053792D01*
X46770000Y-100034722D01*
X46552025Y-100053792D01*
X46340668Y-100110425D01*
X46142361Y-100202898D01*
X45963122Y-100328402D01*
X45808402Y-100483122D01*
X45682898Y-100662361D01*
X45590425Y-100860668D01*
X45533792Y-101072025D01*
X45514722Y-101289999D01*
X45533792Y-101507974D01*
X45590425Y-101719331D01*
X45616213Y-101774632D01*
X45682898Y-101917639D01*
X45808402Y-102096877D01*
X45963123Y-102251598D01*
X46142361Y-102377102D01*
X46340670Y-102469575D01*
X46552023Y-102526207D01*
X46770000Y-102545277D01*
X46987977Y-102526207D01*
X47199330Y-102469575D01*
X47397639Y-102377102D01*
X47576877Y-102251598D01*
X47731598Y-102096877D01*
X47813427Y-101980013D01*
X47857743Y-101941149D01*
X47915000Y-101927138D01*
X47972257Y-101941149D01*
X48016572Y-101980013D01*
X48098402Y-102096877D01*
X48253123Y-102251598D01*
X48432361Y-102377102D01*
X48630670Y-102469575D01*
X48842023Y-102526207D01*
X49060000Y-102545277D01*
X49277977Y-102526207D01*
X49342556Y-102508903D01*
X49353406Y-102505996D01*
X49409691Y-102504154D01*
X49460986Y-102527395D01*
X49496712Y-102570927D01*
X49509500Y-102625771D01*
X49509500Y-103096656D01*
X49509274Y-103104143D01*
X49505711Y-103163041D01*
X49516347Y-103221082D01*
X49517474Y-103228485D01*
X49524586Y-103287052D01*
X49528043Y-103296168D01*
X49534068Y-103317781D01*
X49535826Y-103327377D01*
X49560040Y-103381178D01*
X49562905Y-103388095D01*
X49583831Y-103443271D01*
X49589375Y-103451303D01*
X49600395Y-103470843D01*
X49604399Y-103479737D01*
X49640786Y-103526183D01*
X49645215Y-103532202D01*
X49678742Y-103580773D01*
X49705947Y-103604874D01*
X49722912Y-103619904D01*
X49728365Y-103625038D01*
X51544968Y-105441641D01*
X51550088Y-105447079D01*
X51589227Y-105491258D01*
X51637799Y-105524785D01*
X51643807Y-105529205D01*
X51690263Y-105565601D01*
X51699153Y-105569602D01*
X51718699Y-105580626D01*
X51726728Y-105586168D01*
X51781909Y-105607095D01*
X51788809Y-105609953D01*
X51842621Y-105634172D01*
X51852208Y-105635928D01*
X51873827Y-105641954D01*
X51882948Y-105645414D01*
X51941534Y-105652526D01*
X51948894Y-105653647D01*
X52006960Y-105664289D01*
X52063379Y-105660875D01*
X52065857Y-105660726D01*
X52073344Y-105660500D01*
X52139468Y-105660500D01*
X52186921Y-105669939D01*
X52227149Y-105696819D01*
X52552649Y-106022319D01*
X52584743Y-106077906D01*
X52584743Y-106142094D01*
X52552649Y-106197681D01*
X52197681Y-106552649D01*
X52142094Y-106584743D01*
X52077906Y-106584743D01*
X52022319Y-106552649D01*
X51320319Y-105850649D01*
X51288226Y-105795064D01*
X51257575Y-105680670D01*
X51165102Y-105482362D01*
X51039598Y-105303123D01*
X50884877Y-105148402D01*
X50705639Y-105022898D01*
X50603912Y-104975462D01*
X50507331Y-104930425D01*
X50295974Y-104873792D01*
X50078000Y-104854722D01*
X49860025Y-104873792D01*
X49648668Y-104930425D01*
X49450361Y-105022898D01*
X49271122Y-105148402D01*
X49116402Y-105303122D01*
X48990898Y-105482361D01*
X48898425Y-105680668D01*
X48841792Y-105892025D01*
X48822722Y-106110000D01*
X48832870Y-106226000D01*
X48827603Y-106274094D01*
X48804331Y-106316512D01*
X48777634Y-106348328D01*
X48770341Y-106356289D01*
X48766408Y-106360222D01*
X48747176Y-106384545D01*
X48744902Y-106387337D01*
X48695894Y-106445744D01*
X48685418Y-106462187D01*
X48653192Y-106531294D01*
X48651622Y-106534536D01*
X48617393Y-106602692D01*
X48610996Y-106621098D01*
X48595573Y-106695788D01*
X48594793Y-106699305D01*
X48577208Y-106773505D01*
X48575229Y-106792878D01*
X48577448Y-106869131D01*
X48577500Y-106872737D01*
X48577500Y-108808891D01*
X48559931Y-108872518D01*
X48512203Y-108918115D01*
X48447840Y-108932762D01*
X48385081Y-108912307D01*
X48200359Y-108790096D01*
X47951779Y-108673567D01*
X47688881Y-108594473D01*
X47417269Y-108554500D01*
X47211453Y-108554500D01*
X47211449Y-108554500D01*
X47006194Y-108569522D01*
X46738225Y-108629215D01*
X46481803Y-108727288D01*
X46242391Y-108861653D01*
X46025094Y-109029443D01*
X45834545Y-109227083D01*
X45674802Y-109450364D01*
X45549272Y-109694521D01*
X45460629Y-109954352D01*
X45410763Y-110224325D01*
X45400737Y-110498678D01*
X45430763Y-110771569D01*
X45465816Y-110905646D01*
X45500204Y-111037182D01*
X45577202Y-111218373D01*
X45607577Y-111289852D01*
X45731729Y-111493284D01*
X45750595Y-111524196D01*
X45926209Y-111735218D01*
X46130677Y-111918423D01*
X46359641Y-112069904D01*
X46608221Y-112186433D01*
X46871119Y-112265527D01*
X47142731Y-112305500D01*
X47348547Y-112305500D01*
X47348551Y-112305500D01*
X47553805Y-112290477D01*
X47665813Y-112265526D01*
X47821775Y-112230784D01*
X48078198Y-112132711D01*
X48317609Y-111998347D01*
X48534904Y-111830557D01*
X48725454Y-111632916D01*
X48885196Y-111409637D01*
X48994774Y-111196506D01*
X49032457Y-111152680D01*
X49085919Y-111130694D01*
X49143539Y-111135335D01*
X49192794Y-111165593D01*
X49222980Y-111214892D01*
X49272820Y-111368284D01*
X49367466Y-111532216D01*
X49494129Y-111672889D01*
X49647269Y-111784151D01*
X49820197Y-111861144D01*
X50005352Y-111900500D01*
X50005354Y-111900500D01*
X50194646Y-111900500D01*
X50194648Y-111900500D01*
X50318084Y-111874262D01*
X50379803Y-111861144D01*
X50552730Y-111784151D01*
X50705871Y-111672888D01*
X50832533Y-111532216D01*
X50927179Y-111368284D01*
X50985674Y-111188256D01*
X51005460Y-111000000D01*
X50985674Y-110811744D01*
X50949013Y-110698915D01*
X50927179Y-110631715D01*
X50867113Y-110527678D01*
X50859342Y-110498678D01*
X58100737Y-110498678D01*
X58130763Y-110771569D01*
X58165816Y-110905646D01*
X58200204Y-111037182D01*
X58277202Y-111218373D01*
X58307577Y-111289852D01*
X58431729Y-111493284D01*
X58450595Y-111524196D01*
X58626209Y-111735218D01*
X58830677Y-111918423D01*
X59059641Y-112069904D01*
X59308221Y-112186433D01*
X59571119Y-112265527D01*
X59842731Y-112305500D01*
X60048547Y-112305500D01*
X60048551Y-112305500D01*
X60253805Y-112290477D01*
X60365813Y-112265526D01*
X60521775Y-112230784D01*
X60778198Y-112132711D01*
X61017609Y-111998347D01*
X61234904Y-111830557D01*
X61425454Y-111632916D01*
X61585196Y-111409637D01*
X61710727Y-111165479D01*
X61769472Y-110993284D01*
X61799370Y-110905647D01*
X61849236Y-110635674D01*
X61859262Y-110361321D01*
X61857644Y-110346620D01*
X61829236Y-110088429D01*
X61759796Y-109822818D01*
X61652423Y-109570148D01*
X61509405Y-109335804D01*
X61333791Y-109124782D01*
X61129323Y-108941577D01*
X60900359Y-108790096D01*
X60651779Y-108673567D01*
X60388881Y-108594473D01*
X60117269Y-108554500D01*
X59911453Y-108554500D01*
X59911449Y-108554500D01*
X59706194Y-108569522D01*
X59438225Y-108629215D01*
X59181803Y-108727288D01*
X58942391Y-108861653D01*
X58725094Y-109029443D01*
X58534545Y-109227083D01*
X58374802Y-109450364D01*
X58249272Y-109694521D01*
X58160629Y-109954352D01*
X58110763Y-110224325D01*
X58100737Y-110498678D01*
X50859342Y-110498678D01*
X50850500Y-110465678D01*
X50850500Y-110063706D01*
X50851809Y-110045736D01*
X50852338Y-110042118D01*
X50855289Y-110021977D01*
X50850972Y-109972628D01*
X50850500Y-109961824D01*
X50850500Y-109956289D01*
X50846903Y-109925521D01*
X50846536Y-109921929D01*
X50844539Y-109899100D01*
X50839999Y-109847203D01*
X50839998Y-109847201D01*
X50839889Y-109845949D01*
X50835672Y-109826930D01*
X50834175Y-109822818D01*
X50809591Y-109755273D01*
X50808408Y-109751868D01*
X50800497Y-109727994D01*
X50784814Y-109680666D01*
X50784812Y-109680663D01*
X50784415Y-109679464D01*
X50775929Y-109661936D01*
X50775237Y-109660884D01*
X50775237Y-109660883D01*
X50734001Y-109598188D01*
X50732086Y-109595181D01*
X50692048Y-109530269D01*
X50679748Y-109515170D01*
X50624273Y-109462832D01*
X50621686Y-109460319D01*
X50349242Y-109187874D01*
X50316101Y-109128087D01*
X50319679Y-109059822D01*
X50358888Y-109003827D01*
X50421812Y-108977117D01*
X50489325Y-108987810D01*
X50664670Y-109069575D01*
X50876023Y-109126207D01*
X51094000Y-109145277D01*
X51311977Y-109126207D01*
X51523330Y-109069575D01*
X51674119Y-108999261D01*
X52547067Y-108999261D01*
X52696840Y-109069102D01*
X52908113Y-109125712D01*
X53126000Y-109144775D01*
X53343886Y-109125712D01*
X53555159Y-109069102D01*
X53704932Y-108999261D01*
X53126001Y-108420330D01*
X53126000Y-108420330D01*
X52547067Y-108999261D01*
X51674119Y-108999261D01*
X51721639Y-108977102D01*
X51900877Y-108851598D01*
X52055598Y-108696877D01*
X52181102Y-108517639D01*
X52273575Y-108319330D01*
X52304227Y-108204933D01*
X52336319Y-108149349D01*
X53038318Y-107447350D01*
X53093905Y-107415256D01*
X53158093Y-107415256D01*
X53213680Y-107447350D01*
X54142000Y-108375670D01*
X55070319Y-107447351D01*
X55125906Y-107415257D01*
X55190094Y-107415257D01*
X55245681Y-107447351D01*
X55600648Y-107802318D01*
X55632742Y-107857905D01*
X55632742Y-107922093D01*
X55600648Y-107977680D01*
X54579067Y-108999261D01*
X54728840Y-109069102D01*
X54940113Y-109125712D01*
X55158000Y-109144775D01*
X55375886Y-109125712D01*
X55587159Y-109069102D01*
X55785389Y-108976665D01*
X55871634Y-108916276D01*
X55930644Y-108894443D01*
X55992773Y-108904384D01*
X56042025Y-108943540D01*
X56082452Y-108997544D01*
X56082453Y-108997544D01*
X56082454Y-108997546D01*
X56197669Y-109083796D01*
X56332517Y-109134091D01*
X56392127Y-109140500D01*
X57987872Y-109140499D01*
X58047483Y-109134091D01*
X58182331Y-109083796D01*
X58297546Y-108997546D01*
X58383796Y-108882331D01*
X58434091Y-108747483D01*
X58440500Y-108687873D01*
X58440499Y-108427555D01*
X58455526Y-108368389D01*
X58496964Y-108323562D01*
X58554771Y-108303939D01*
X58614935Y-108314278D01*
X58720197Y-108361144D01*
X58905352Y-108400500D01*
X58905354Y-108400500D01*
X59094646Y-108400500D01*
X59094648Y-108400500D01*
X59218084Y-108374262D01*
X59279803Y-108361144D01*
X59452730Y-108284151D01*
X59605871Y-108172888D01*
X59732533Y-108032216D01*
X59827179Y-107868284D01*
X59885674Y-107688256D01*
X59905460Y-107500000D01*
X59885674Y-107311744D01*
X59827179Y-107131716D01*
X59827179Y-107131715D01*
X59751133Y-107000000D01*
X60354396Y-107000000D01*
X60374779Y-107258995D01*
X60435426Y-107511610D01*
X60477512Y-107613212D01*
X60534846Y-107751628D01*
X60639307Y-107922093D01*
X60670590Y-107973143D01*
X60721044Y-108032216D01*
X60839311Y-108170689D01*
X60881332Y-108206578D01*
X61013344Y-108319328D01*
X61036860Y-108339412D01*
X61258372Y-108475154D01*
X61438385Y-108549718D01*
X61498389Y-108574573D01*
X61578197Y-108593733D01*
X61751006Y-108635221D01*
X62010000Y-108655604D01*
X62268994Y-108635221D01*
X62521610Y-108574573D01*
X62761628Y-108475154D01*
X62983140Y-108339412D01*
X63180689Y-108170689D01*
X63349412Y-107973140D01*
X63485154Y-107751628D01*
X63584573Y-107511610D01*
X63645221Y-107258994D01*
X63665604Y-107000000D01*
X63645221Y-106741006D01*
X63584573Y-106488390D01*
X63580727Y-106479106D01*
X63553207Y-106412667D01*
X63485154Y-106248372D01*
X63349412Y-106026860D01*
X63340910Y-106016906D01*
X63288454Y-105955488D01*
X63180689Y-105829311D01*
X63025561Y-105696819D01*
X62983143Y-105660590D01*
X62970718Y-105652976D01*
X62761628Y-105524846D01*
X62659063Y-105482362D01*
X62521610Y-105425426D01*
X62268995Y-105364779D01*
X62010000Y-105344396D01*
X61751004Y-105364779D01*
X61498389Y-105425426D01*
X61293524Y-105510285D01*
X61258372Y-105524846D01*
X61177791Y-105574226D01*
X61036856Y-105660590D01*
X60839311Y-105829311D01*
X60670590Y-106026856D01*
X60647690Y-106064226D01*
X60534846Y-106248372D01*
X60524192Y-106274094D01*
X60435426Y-106488389D01*
X60374779Y-106741004D01*
X60354396Y-107000000D01*
X59751133Y-107000000D01*
X59732533Y-106967783D01*
X59605870Y-106827110D01*
X59452730Y-106715848D01*
X59279803Y-106638855D01*
X59214669Y-106625011D01*
X59181283Y-106612694D01*
X59152769Y-106591402D01*
X58671367Y-106110000D01*
X58185728Y-105624360D01*
X58173946Y-105610727D01*
X58173377Y-105609963D01*
X58159610Y-105591470D01*
X58153291Y-105586168D01*
X58121666Y-105559631D01*
X58113691Y-105552323D01*
X58109782Y-105548414D01*
X58109777Y-105548409D01*
X58085423Y-105529152D01*
X58082647Y-105526890D01*
X58024251Y-105477890D01*
X58007821Y-105467422D01*
X57938691Y-105435186D01*
X57935447Y-105433615D01*
X57867306Y-105399394D01*
X57848903Y-105392997D01*
X57774211Y-105377574D01*
X57770692Y-105376794D01*
X57696490Y-105359208D01*
X57677121Y-105357229D01*
X57600869Y-105359448D01*
X57597263Y-105359500D01*
X57239624Y-105359500D01*
X57182366Y-105345489D01*
X57138047Y-105306621D01*
X57135595Y-105303119D01*
X56980880Y-105148405D01*
X56980877Y-105148402D01*
X56801639Y-105022898D01*
X56699912Y-104975462D01*
X56603331Y-104930425D01*
X56391974Y-104873792D01*
X56174000Y-104854722D01*
X55956025Y-104873792D01*
X55744668Y-104930425D01*
X55546361Y-105022898D01*
X55367122Y-105148402D01*
X55245681Y-105269844D01*
X55190094Y-105301938D01*
X55125906Y-105301938D01*
X55070319Y-105269844D01*
X54948880Y-105148405D01*
X54948877Y-105148402D01*
X54769639Y-105022898D01*
X54667912Y-104975462D01*
X54571331Y-104930425D01*
X54359974Y-104873792D01*
X54141999Y-104854722D01*
X53940013Y-104872393D01*
X53886795Y-104865387D01*
X53841525Y-104836546D01*
X53508344Y-104503365D01*
X53503210Y-104497912D01*
X53502342Y-104496932D01*
X53464079Y-104453742D01*
X53415508Y-104420215D01*
X53409489Y-104415786D01*
X53363043Y-104379399D01*
X53354149Y-104375395D01*
X53334609Y-104364375D01*
X53326577Y-104358831D01*
X53271401Y-104337905D01*
X53264484Y-104335040D01*
X53210683Y-104310826D01*
X53201087Y-104309068D01*
X53179474Y-104303043D01*
X53170358Y-104299586D01*
X53111791Y-104292474D01*
X53104388Y-104291347D01*
X53046347Y-104280711D01*
X53046346Y-104280711D01*
X53013068Y-104282724D01*
X52987449Y-104284274D01*
X52979962Y-104284500D01*
X52385147Y-104284500D01*
X52337694Y-104275061D01*
X52297466Y-104248181D01*
X51654159Y-103604874D01*
X51622643Y-103551372D01*
X51621018Y-103489298D01*
X51649689Y-103434222D01*
X51732533Y-103342216D01*
X51827179Y-103178284D01*
X51885674Y-102998256D01*
X51892940Y-102929114D01*
X51904340Y-102888695D01*
X51928577Y-102854400D01*
X52768659Y-102014319D01*
X52808888Y-101987439D01*
X52856341Y-101978000D01*
X57090613Y-101978000D01*
X57147870Y-101992011D01*
X57192187Y-102030876D01*
X57235949Y-102093374D01*
X57238402Y-102096877D01*
X57393123Y-102251598D01*
X57572361Y-102377102D01*
X57770670Y-102469575D01*
X57982023Y-102526207D01*
X58200000Y-102545277D01*
X58417977Y-102526207D01*
X58629330Y-102469575D01*
X58827639Y-102377102D01*
X59006877Y-102251598D01*
X59161598Y-102096877D01*
X59243427Y-101980013D01*
X59287743Y-101941149D01*
X59345000Y-101927138D01*
X59402257Y-101941149D01*
X59446572Y-101980013D01*
X59528402Y-102096877D01*
X59683123Y-102251598D01*
X59862361Y-102377102D01*
X60060670Y-102469575D01*
X60272023Y-102526207D01*
X60490000Y-102545277D01*
X60707977Y-102526207D01*
X60919330Y-102469575D01*
X61117639Y-102377102D01*
X61296877Y-102251598D01*
X61451598Y-102096877D01*
X61531939Y-101982138D01*
X61581484Y-101940706D01*
X61645147Y-101929810D01*
X61705654Y-101952409D01*
X61746587Y-102002371D01*
X61755039Y-102021150D01*
X61757905Y-102028069D01*
X61778831Y-102083245D01*
X61784375Y-102091277D01*
X61795395Y-102110817D01*
X61799399Y-102119711D01*
X61835786Y-102166157D01*
X61840215Y-102172176D01*
X61873742Y-102220747D01*
X61908566Y-102251598D01*
X61917912Y-102259878D01*
X61923365Y-102265012D01*
X64627479Y-104969125D01*
X64632613Y-104974578D01*
X64671753Y-105018758D01*
X64705203Y-105041847D01*
X64720320Y-105052281D01*
X64726344Y-105056713D01*
X64772789Y-105093101D01*
X64781683Y-105097104D01*
X64801220Y-105108122D01*
X64809254Y-105113668D01*
X64864440Y-105134596D01*
X64871327Y-105137449D01*
X64925146Y-105161672D01*
X64934732Y-105163428D01*
X64956356Y-105169455D01*
X64965474Y-105172914D01*
X65024067Y-105180028D01*
X65031424Y-105181148D01*
X65089486Y-105191788D01*
X65148371Y-105188226D01*
X65155859Y-105188000D01*
X65718811Y-105188000D01*
X65783139Y-105205991D01*
X65828800Y-105254743D01*
X65842546Y-105320110D01*
X65820387Y-105383120D01*
X65753464Y-105478698D01*
X65750897Y-105482364D01*
X65658425Y-105680668D01*
X65601792Y-105892025D01*
X65582722Y-106110000D01*
X65592870Y-106226000D01*
X65587603Y-106274094D01*
X65564331Y-106316512D01*
X65537634Y-106348328D01*
X65530341Y-106356289D01*
X65526408Y-106360222D01*
X65507176Y-106384545D01*
X65504902Y-106387337D01*
X65455894Y-106445744D01*
X65445418Y-106462187D01*
X65413192Y-106531294D01*
X65411622Y-106534536D01*
X65377393Y-106602692D01*
X65370996Y-106621098D01*
X65355573Y-106695788D01*
X65354793Y-106699305D01*
X65337208Y-106773505D01*
X65335229Y-106792878D01*
X65337448Y-106869131D01*
X65337500Y-106872737D01*
X65337500Y-108808891D01*
X65319931Y-108872518D01*
X65272203Y-108918115D01*
X65207840Y-108932762D01*
X65145081Y-108912307D01*
X64960359Y-108790096D01*
X64711779Y-108673567D01*
X64448881Y-108594473D01*
X64177269Y-108554500D01*
X63971453Y-108554500D01*
X63971449Y-108554500D01*
X63766194Y-108569522D01*
X63498225Y-108629215D01*
X63241803Y-108727288D01*
X63002391Y-108861653D01*
X62785094Y-109029443D01*
X62594545Y-109227083D01*
X62434802Y-109450364D01*
X62309272Y-109694521D01*
X62220629Y-109954352D01*
X62170763Y-110224325D01*
X62160737Y-110498678D01*
X62190763Y-110771569D01*
X62225816Y-110905646D01*
X62260204Y-111037182D01*
X62337202Y-111218373D01*
X62367577Y-111289852D01*
X62491729Y-111493284D01*
X62510595Y-111524196D01*
X62686209Y-111735218D01*
X62890677Y-111918423D01*
X63119641Y-112069904D01*
X63368221Y-112186433D01*
X63631119Y-112265527D01*
X63902731Y-112305500D01*
X64108547Y-112305500D01*
X64108551Y-112305500D01*
X64313805Y-112290477D01*
X64425813Y-112265526D01*
X64581775Y-112230784D01*
X64838198Y-112132711D01*
X65077609Y-111998347D01*
X65294904Y-111830557D01*
X65485454Y-111632916D01*
X65645196Y-111409637D01*
X65770727Y-111165479D01*
X65814496Y-111037182D01*
X65859370Y-110905648D01*
X65910093Y-110631033D01*
X65939301Y-110571231D01*
X65995223Y-110535145D01*
X66061747Y-110533170D01*
X66119711Y-110565875D01*
X66155953Y-110602117D01*
X66184793Y-110647385D01*
X66191801Y-110700599D01*
X66175664Y-110751790D01*
X66172821Y-110756713D01*
X66114326Y-110936742D01*
X66094540Y-111124999D01*
X66094540Y-111125000D01*
X66095626Y-111135335D01*
X66114326Y-111313257D01*
X66172820Y-111493284D01*
X66267466Y-111657216D01*
X66394129Y-111797889D01*
X66547269Y-111909151D01*
X66720197Y-111986144D01*
X66905352Y-112025500D01*
X66905354Y-112025500D01*
X67094646Y-112025500D01*
X67094648Y-112025500D01*
X67222397Y-111998346D01*
X67279803Y-111986144D01*
X67452730Y-111909151D01*
X67605871Y-111797888D01*
X67732533Y-111657216D01*
X67827179Y-111493284D01*
X67885674Y-111313256D01*
X67905460Y-111125000D01*
X67885674Y-110936744D01*
X67855332Y-110843363D01*
X67827179Y-110756715D01*
X67767113Y-110652678D01*
X67750500Y-110590678D01*
X67750500Y-110498678D01*
X74860737Y-110498678D01*
X74890763Y-110771569D01*
X74925816Y-110905646D01*
X74960204Y-111037182D01*
X75037202Y-111218373D01*
X75067577Y-111289852D01*
X75191729Y-111493284D01*
X75210595Y-111524196D01*
X75386209Y-111735218D01*
X75590677Y-111918423D01*
X75819641Y-112069904D01*
X76068221Y-112186433D01*
X76331119Y-112265527D01*
X76602731Y-112305500D01*
X76808547Y-112305500D01*
X76808551Y-112305500D01*
X77013805Y-112290477D01*
X77125813Y-112265526D01*
X77281775Y-112230784D01*
X77538198Y-112132711D01*
X77777609Y-111998347D01*
X77994904Y-111830557D01*
X78185454Y-111632916D01*
X78345196Y-111409637D01*
X78470727Y-111165479D01*
X78529472Y-110993284D01*
X78559370Y-110905647D01*
X78609236Y-110635674D01*
X78619262Y-110361321D01*
X78617644Y-110346620D01*
X78589236Y-110088429D01*
X78519796Y-109822818D01*
X78412423Y-109570148D01*
X78269405Y-109335804D01*
X78093791Y-109124782D01*
X77889323Y-108941577D01*
X77660359Y-108790096D01*
X77411779Y-108673567D01*
X77148881Y-108594473D01*
X76877269Y-108554500D01*
X76671453Y-108554500D01*
X76671449Y-108554500D01*
X76466194Y-108569522D01*
X76198225Y-108629215D01*
X75941803Y-108727288D01*
X75702391Y-108861653D01*
X75485094Y-109029443D01*
X75294545Y-109227083D01*
X75134802Y-109450364D01*
X75009272Y-109694521D01*
X74920629Y-109954352D01*
X74870763Y-110224325D01*
X74860737Y-110498678D01*
X67750500Y-110498678D01*
X67750500Y-110448502D01*
X67751809Y-110430532D01*
X67754272Y-110413714D01*
X67755289Y-110406773D01*
X67750972Y-110357427D01*
X67750500Y-110346620D01*
X67750500Y-110341085D01*
X67746903Y-110310317D01*
X67746536Y-110306725D01*
X67739889Y-110230745D01*
X67735672Y-110211726D01*
X67709592Y-110140070D01*
X67708408Y-110136664D01*
X67706768Y-110131715D01*
X67684814Y-110065462D01*
X67684812Y-110065459D01*
X67684415Y-110064260D01*
X67675929Y-110046732D01*
X67675237Y-110045680D01*
X67675237Y-110045679D01*
X67634001Y-109982984D01*
X67632086Y-109979977D01*
X67592712Y-109916141D01*
X67592711Y-109916140D01*
X67592048Y-109915065D01*
X67579748Y-109899966D01*
X67524273Y-109847628D01*
X67521686Y-109845115D01*
X66874819Y-109198247D01*
X66847939Y-109158019D01*
X66838500Y-109110566D01*
X66838500Y-108942337D01*
X66852015Y-108886042D01*
X66889615Y-108842019D01*
X66943102Y-108819864D01*
X67000818Y-108824406D01*
X67037275Y-108846747D01*
X67038237Y-108845375D01*
X67047119Y-108851594D01*
X67047123Y-108851598D01*
X67226361Y-108977102D01*
X67424670Y-109069575D01*
X67636023Y-109126207D01*
X67854000Y-109145277D01*
X68071977Y-109126207D01*
X68283330Y-109069575D01*
X68434119Y-108999261D01*
X69307067Y-108999261D01*
X69456840Y-109069102D01*
X69668113Y-109125712D01*
X69886000Y-109144775D01*
X70103886Y-109125712D01*
X70315159Y-109069102D01*
X70464932Y-108999261D01*
X69886001Y-108420330D01*
X69886000Y-108420330D01*
X69307067Y-108999261D01*
X68434119Y-108999261D01*
X68481639Y-108977102D01*
X68660877Y-108851598D01*
X68815598Y-108696877D01*
X68941102Y-108517639D01*
X69033575Y-108319330D01*
X69064227Y-108204933D01*
X69096319Y-108149349D01*
X69798318Y-107447350D01*
X69853905Y-107415256D01*
X69918093Y-107415256D01*
X69973680Y-107447350D01*
X70902000Y-108375670D01*
X71830319Y-107447351D01*
X71885906Y-107415257D01*
X71950094Y-107415257D01*
X72005681Y-107447351D01*
X72360648Y-107802318D01*
X72392742Y-107857905D01*
X72392742Y-107922093D01*
X72360648Y-107977680D01*
X71339067Y-108999261D01*
X71488840Y-109069102D01*
X71700113Y-109125712D01*
X71918000Y-109144775D01*
X72135886Y-109125712D01*
X72347159Y-109069102D01*
X72545389Y-108976665D01*
X72631634Y-108916276D01*
X72690644Y-108894443D01*
X72752773Y-108904384D01*
X72802025Y-108943540D01*
X72842452Y-108997544D01*
X72842453Y-108997544D01*
X72842454Y-108997546D01*
X72957669Y-109083796D01*
X73092517Y-109134091D01*
X73152127Y-109140500D01*
X74747872Y-109140499D01*
X74807483Y-109134091D01*
X74942331Y-109083796D01*
X75057546Y-108997546D01*
X75143796Y-108882331D01*
X75194091Y-108747483D01*
X75200500Y-108687873D01*
X75200499Y-108510082D01*
X75212578Y-108456701D01*
X75246463Y-108413718D01*
X75295552Y-108389510D01*
X75350280Y-108388794D01*
X75405352Y-108400500D01*
X75405354Y-108400500D01*
X75594646Y-108400500D01*
X75594648Y-108400500D01*
X75718084Y-108374262D01*
X75779803Y-108361144D01*
X75952730Y-108284151D01*
X76105871Y-108172888D01*
X76232533Y-108032216D01*
X76327179Y-107868284D01*
X76385674Y-107688256D01*
X76405460Y-107500000D01*
X76385674Y-107311744D01*
X76327179Y-107131716D01*
X76327179Y-107131715D01*
X76263684Y-107021739D01*
X76256480Y-107000000D01*
X77114396Y-107000000D01*
X77134779Y-107258995D01*
X77195426Y-107511610D01*
X77237512Y-107613212D01*
X77294846Y-107751628D01*
X77399307Y-107922093D01*
X77430590Y-107973143D01*
X77481044Y-108032216D01*
X77599311Y-108170689D01*
X77641332Y-108206578D01*
X77773344Y-108319328D01*
X77796860Y-108339412D01*
X78018372Y-108475154D01*
X78198385Y-108549718D01*
X78258389Y-108574573D01*
X78338197Y-108593733D01*
X78511006Y-108635221D01*
X78770000Y-108655604D01*
X79028994Y-108635221D01*
X79281610Y-108574573D01*
X79521628Y-108475154D01*
X79743140Y-108339412D01*
X79940689Y-108170689D01*
X80109412Y-107973140D01*
X80245154Y-107751628D01*
X80344573Y-107511610D01*
X80405221Y-107258994D01*
X80425604Y-107000000D01*
X80405221Y-106741006D01*
X80344573Y-106488390D01*
X80340727Y-106479106D01*
X80313207Y-106412667D01*
X80245154Y-106248372D01*
X80109412Y-106026860D01*
X80100910Y-106016906D01*
X80048454Y-105955488D01*
X79940689Y-105829311D01*
X79785561Y-105696819D01*
X79743143Y-105660590D01*
X79730718Y-105652976D01*
X79521628Y-105524846D01*
X79419063Y-105482362D01*
X79281610Y-105425426D01*
X79028995Y-105364779D01*
X78770000Y-105344396D01*
X78511004Y-105364779D01*
X78258389Y-105425426D01*
X78053524Y-105510285D01*
X78018372Y-105524846D01*
X77937791Y-105574226D01*
X77796856Y-105660590D01*
X77599311Y-105829311D01*
X77430590Y-106026856D01*
X77407690Y-106064226D01*
X77294846Y-106248372D01*
X77284192Y-106274094D01*
X77195426Y-106488389D01*
X77134779Y-106741004D01*
X77114396Y-107000000D01*
X76256480Y-107000000D01*
X76247910Y-106974138D01*
X76246897Y-106965470D01*
X76246536Y-106961929D01*
X76243603Y-106928402D01*
X76239999Y-106887203D01*
X76239998Y-106887201D01*
X76239889Y-106885949D01*
X76235672Y-106866930D01*
X76235074Y-106865288D01*
X76209591Y-106795273D01*
X76208408Y-106791868D01*
X76192226Y-106743034D01*
X76184814Y-106720666D01*
X76184812Y-106720663D01*
X76184415Y-106719464D01*
X76175929Y-106701936D01*
X76175237Y-106700884D01*
X76175237Y-106700883D01*
X76134001Y-106638188D01*
X76132086Y-106635181D01*
X76131522Y-106634266D01*
X76092712Y-106571345D01*
X76092711Y-106571344D01*
X76092048Y-106570269D01*
X76079748Y-106555170D01*
X76024273Y-106502832D01*
X76021686Y-106500319D01*
X75145728Y-105624360D01*
X75133946Y-105610727D01*
X75133377Y-105609963D01*
X75119610Y-105591470D01*
X75113291Y-105586168D01*
X75081666Y-105559631D01*
X75073691Y-105552323D01*
X75069782Y-105548414D01*
X75069777Y-105548409D01*
X75045423Y-105529152D01*
X75042647Y-105526890D01*
X74984251Y-105477890D01*
X74967821Y-105467422D01*
X74898691Y-105435186D01*
X74895447Y-105433615D01*
X74827306Y-105399394D01*
X74808903Y-105392997D01*
X74734211Y-105377574D01*
X74730692Y-105376794D01*
X74656490Y-105359208D01*
X74637121Y-105357229D01*
X74560869Y-105359448D01*
X74557263Y-105359500D01*
X73999624Y-105359500D01*
X73942366Y-105345489D01*
X73898047Y-105306621D01*
X73895595Y-105303119D01*
X73740880Y-105148405D01*
X73740877Y-105148402D01*
X73561639Y-105022898D01*
X73459912Y-104975462D01*
X73363331Y-104930425D01*
X73151974Y-104873792D01*
X73000359Y-104860528D01*
X72941528Y-104839599D01*
X72933999Y-104831014D01*
X72926472Y-104839599D01*
X72867641Y-104860528D01*
X72716025Y-104873792D01*
X72504668Y-104930425D01*
X72306361Y-105022898D01*
X72127122Y-105148402D01*
X72005681Y-105269844D01*
X71950094Y-105301938D01*
X71885906Y-105301938D01*
X71830319Y-105269844D01*
X71708880Y-105148405D01*
X71708877Y-105148402D01*
X71529639Y-105022898D01*
X71427912Y-104975462D01*
X71331331Y-104930425D01*
X71119974Y-104873792D01*
X70968359Y-104860528D01*
X70909528Y-104839599D01*
X70902000Y-104831014D01*
X70894472Y-104839599D01*
X70835640Y-104860528D01*
X70700012Y-104872393D01*
X70646795Y-104865387D01*
X70601525Y-104836546D01*
X70589660Y-104824681D01*
X70559410Y-104775318D01*
X70554868Y-104717602D01*
X70577023Y-104664115D01*
X70621046Y-104626515D01*
X70677341Y-104613000D01*
X70824834Y-104613000D01*
X70885266Y-104628723D01*
X70901999Y-104644742D01*
X70918734Y-104628723D01*
X70979166Y-104613000D01*
X72856834Y-104613000D01*
X72917266Y-104628723D01*
X72933999Y-104644742D01*
X72950734Y-104628723D01*
X73011166Y-104613000D01*
X83520834Y-104613000D01*
X83581266Y-104628723D01*
X83597999Y-104644742D01*
X83614734Y-104628723D01*
X83675166Y-104613000D01*
X85140659Y-104613000D01*
X85188112Y-104622439D01*
X85228340Y-104649319D01*
X85292734Y-104713713D01*
X85324828Y-104769300D01*
X85324828Y-104833487D01*
X85292735Y-104889075D01*
X85237148Y-104921168D01*
X85200847Y-104930895D01*
X85051067Y-105000737D01*
X86072649Y-106022319D01*
X86104743Y-106077906D01*
X86104743Y-106142094D01*
X86072649Y-106197681D01*
X85717681Y-106552649D01*
X85662094Y-106584743D01*
X85597906Y-106584743D01*
X85542319Y-106552649D01*
X84840319Y-105850649D01*
X84808226Y-105795064D01*
X84777575Y-105680670D01*
X84685102Y-105482362D01*
X84559598Y-105303123D01*
X84404877Y-105148402D01*
X84225639Y-105022898D01*
X84123912Y-104975462D01*
X84027331Y-104930425D01*
X83815974Y-104873792D01*
X83664359Y-104860528D01*
X83605528Y-104839599D01*
X83597999Y-104831014D01*
X83590472Y-104839599D01*
X83531641Y-104860528D01*
X83380025Y-104873792D01*
X83168668Y-104930425D01*
X82970361Y-105022898D01*
X82791122Y-105148402D01*
X82636402Y-105303122D01*
X82510898Y-105482361D01*
X82418425Y-105680668D01*
X82361792Y-105892025D01*
X82342722Y-106110000D01*
X82352870Y-106226000D01*
X82347603Y-106274094D01*
X82324331Y-106316512D01*
X82297634Y-106348328D01*
X82290341Y-106356289D01*
X82286408Y-106360222D01*
X82267176Y-106384545D01*
X82264902Y-106387337D01*
X82215894Y-106445744D01*
X82205418Y-106462187D01*
X82173192Y-106531294D01*
X82171622Y-106534536D01*
X82137393Y-106602692D01*
X82130996Y-106621098D01*
X82115573Y-106695788D01*
X82114793Y-106699305D01*
X82097208Y-106773505D01*
X82095229Y-106792878D01*
X82097448Y-106869131D01*
X82097500Y-106872737D01*
X82097500Y-108808891D01*
X82079931Y-108872518D01*
X82032203Y-108918115D01*
X81967840Y-108932762D01*
X81905081Y-108912307D01*
X81720359Y-108790096D01*
X81471779Y-108673567D01*
X81208881Y-108594473D01*
X80937269Y-108554500D01*
X80731453Y-108554500D01*
X80731449Y-108554500D01*
X80526194Y-108569522D01*
X80258225Y-108629215D01*
X80001803Y-108727288D01*
X79762391Y-108861653D01*
X79545094Y-109029443D01*
X79354545Y-109227083D01*
X79194802Y-109450364D01*
X79069272Y-109694521D01*
X78980629Y-109954352D01*
X78930763Y-110224325D01*
X78920737Y-110498678D01*
X78950763Y-110771569D01*
X78985816Y-110905646D01*
X79020204Y-111037182D01*
X79097202Y-111218373D01*
X79127577Y-111289852D01*
X79251729Y-111493284D01*
X79270595Y-111524196D01*
X79446209Y-111735218D01*
X79650677Y-111918423D01*
X79879641Y-112069904D01*
X80128221Y-112186433D01*
X80391119Y-112265527D01*
X80662731Y-112305500D01*
X80868547Y-112305500D01*
X80868551Y-112305500D01*
X81073805Y-112290477D01*
X81185813Y-112265526D01*
X81341775Y-112230784D01*
X81598198Y-112132711D01*
X81837609Y-111998347D01*
X82054904Y-111830557D01*
X82245454Y-111632916D01*
X82405196Y-111409637D01*
X82530727Y-111165479D01*
X82574496Y-111037182D01*
X82619370Y-110905648D01*
X82662266Y-110673409D01*
X82691474Y-110613607D01*
X82747396Y-110577521D01*
X82813920Y-110575546D01*
X82871884Y-110608251D01*
X83037228Y-110773595D01*
X83067478Y-110822958D01*
X83122820Y-110993284D01*
X83217466Y-111157216D01*
X83344129Y-111297889D01*
X83497269Y-111409151D01*
X83670197Y-111486144D01*
X83855352Y-111525500D01*
X83855354Y-111525500D01*
X84044646Y-111525500D01*
X84044648Y-111525500D01*
X84168083Y-111499262D01*
X84229803Y-111486144D01*
X84402730Y-111409151D01*
X84468806Y-111361144D01*
X84555870Y-111297889D01*
X84682533Y-111157216D01*
X84777179Y-110993284D01*
X84795551Y-110936742D01*
X84835674Y-110813256D01*
X84855460Y-110625000D01*
X84842183Y-110498678D01*
X91620737Y-110498678D01*
X91650763Y-110771569D01*
X91685816Y-110905646D01*
X91720204Y-111037182D01*
X91797202Y-111218373D01*
X91827577Y-111289852D01*
X91951729Y-111493284D01*
X91970595Y-111524196D01*
X92146209Y-111735218D01*
X92350677Y-111918423D01*
X92579641Y-112069904D01*
X92828221Y-112186433D01*
X93091119Y-112265527D01*
X93362731Y-112305500D01*
X93568547Y-112305500D01*
X93568551Y-112305500D01*
X93773805Y-112290477D01*
X93885813Y-112265526D01*
X94041775Y-112230784D01*
X94298198Y-112132711D01*
X94537609Y-111998347D01*
X94754904Y-111830557D01*
X94945454Y-111632916D01*
X95105196Y-111409637D01*
X95230727Y-111165479D01*
X95289472Y-110993284D01*
X95319370Y-110905647D01*
X95369236Y-110635674D01*
X95379262Y-110361321D01*
X95377644Y-110346620D01*
X95349236Y-110088429D01*
X95279796Y-109822818D01*
X95172423Y-109570148D01*
X95029405Y-109335804D01*
X94853791Y-109124782D01*
X94649323Y-108941577D01*
X94420359Y-108790096D01*
X94171779Y-108673567D01*
X93908881Y-108594473D01*
X93637269Y-108554500D01*
X93431453Y-108554500D01*
X93431449Y-108554500D01*
X93226194Y-108569522D01*
X92958225Y-108629215D01*
X92701803Y-108727288D01*
X92462391Y-108861653D01*
X92245094Y-109029443D01*
X92054545Y-109227083D01*
X91894802Y-109450364D01*
X91769272Y-109694521D01*
X91680629Y-109954352D01*
X91630763Y-110224325D01*
X91620737Y-110498678D01*
X84842183Y-110498678D01*
X84835674Y-110436744D01*
X84777179Y-110256716D01*
X84777179Y-110256715D01*
X84682533Y-110092783D01*
X84555870Y-109952110D01*
X84402730Y-109840848D01*
X84229802Y-109763855D01*
X84164670Y-109750011D01*
X84131283Y-109737694D01*
X84102770Y-109716402D01*
X83634819Y-109248451D01*
X83607939Y-109208223D01*
X83598500Y-109160770D01*
X83598500Y-108942337D01*
X83612015Y-108886042D01*
X83649615Y-108842019D01*
X83703102Y-108819864D01*
X83760818Y-108824406D01*
X83797275Y-108846747D01*
X83798237Y-108845375D01*
X83807119Y-108851594D01*
X83807123Y-108851598D01*
X83986361Y-108977102D01*
X84184670Y-109069575D01*
X84396023Y-109126207D01*
X84614000Y-109145277D01*
X84831977Y-109126207D01*
X85043330Y-109069575D01*
X85194119Y-108999261D01*
X86067067Y-108999261D01*
X86216840Y-109069102D01*
X86428113Y-109125712D01*
X86646000Y-109144775D01*
X86863886Y-109125712D01*
X87075159Y-109069102D01*
X87224932Y-108999261D01*
X86646001Y-108420330D01*
X86646000Y-108420330D01*
X86067067Y-108999261D01*
X85194119Y-108999261D01*
X85241639Y-108977102D01*
X85420877Y-108851598D01*
X85575598Y-108696877D01*
X85701102Y-108517639D01*
X85793575Y-108319330D01*
X85824227Y-108204933D01*
X85856319Y-108149349D01*
X86558318Y-107447350D01*
X86613905Y-107415256D01*
X86678093Y-107415256D01*
X86733680Y-107447350D01*
X87662000Y-108375670D01*
X88590319Y-107447351D01*
X88645906Y-107415257D01*
X88710094Y-107415257D01*
X88765681Y-107447351D01*
X89120648Y-107802318D01*
X89152742Y-107857905D01*
X89152742Y-107922093D01*
X89120648Y-107977680D01*
X88099067Y-108999261D01*
X88248840Y-109069102D01*
X88460113Y-109125712D01*
X88678000Y-109144775D01*
X88895886Y-109125712D01*
X89107159Y-109069102D01*
X89305389Y-108976665D01*
X89391634Y-108916276D01*
X89450644Y-108894443D01*
X89512773Y-108904384D01*
X89562025Y-108943540D01*
X89602452Y-108997544D01*
X89602453Y-108997544D01*
X89602454Y-108997546D01*
X89717669Y-109083796D01*
X89852517Y-109134091D01*
X89912127Y-109140500D01*
X91507872Y-109140499D01*
X91567483Y-109134091D01*
X91702331Y-109083796D01*
X91817546Y-108997546D01*
X91903796Y-108882331D01*
X91954091Y-108747483D01*
X91960500Y-108687873D01*
X91960499Y-107092128D01*
X91954091Y-107032517D01*
X91947909Y-107015942D01*
X91940751Y-106959836D01*
X91959254Y-106906388D01*
X91999570Y-106866717D01*
X92029771Y-106856804D01*
X92029028Y-106854562D01*
X92041249Y-106850511D01*
X92063062Y-106845674D01*
X92064250Y-106845241D01*
X92064255Y-106845241D01*
X92134820Y-106819557D01*
X92138095Y-106818419D01*
X92209334Y-106794814D01*
X92209336Y-106794812D01*
X92210536Y-106794415D01*
X92228063Y-106785929D01*
X92229112Y-106785238D01*
X92229117Y-106785237D01*
X92291806Y-106744005D01*
X92294798Y-106742099D01*
X92358656Y-106702712D01*
X92358656Y-106702711D01*
X92359729Y-106702050D01*
X92374824Y-106689753D01*
X92375692Y-106688832D01*
X92375696Y-106688830D01*
X92427186Y-106634252D01*
X92429632Y-106631734D01*
X92652772Y-106408593D01*
X92681282Y-106387304D01*
X92714665Y-106374988D01*
X92779803Y-106361144D01*
X92779804Y-106361143D01*
X92779806Y-106361143D01*
X92952730Y-106284151D01*
X93105870Y-106172889D01*
X93112846Y-106165142D01*
X93232533Y-106032216D01*
X93327179Y-105868284D01*
X93385674Y-105688256D01*
X93405460Y-105500000D01*
X93385674Y-105311744D01*
X93342876Y-105180026D01*
X93327179Y-105131715D01*
X93232533Y-104967783D01*
X93105870Y-104827110D01*
X92952730Y-104715848D01*
X92779802Y-104638855D01*
X92594648Y-104599500D01*
X92594646Y-104599500D01*
X92405354Y-104599500D01*
X92405352Y-104599500D01*
X92220197Y-104638855D01*
X92047269Y-104715848D01*
X91894129Y-104827110D01*
X91767466Y-104967783D01*
X91672821Y-105131714D01*
X91626648Y-105273819D01*
X91600867Y-105318473D01*
X91559152Y-105348780D01*
X91508717Y-105359500D01*
X90759624Y-105359500D01*
X90702366Y-105345489D01*
X90658047Y-105306621D01*
X90655595Y-105303119D01*
X90500880Y-105148405D01*
X90500877Y-105148402D01*
X90321639Y-105022898D01*
X90219912Y-104975462D01*
X90123331Y-104930425D01*
X89911974Y-104873792D01*
X89694000Y-104854722D01*
X89476025Y-104873792D01*
X89264668Y-104930425D01*
X89066361Y-105022898D01*
X88887122Y-105148402D01*
X88765681Y-105269844D01*
X88710094Y-105301938D01*
X88645906Y-105301938D01*
X88590319Y-105269844D01*
X88468880Y-105148405D01*
X88468877Y-105148402D01*
X88289639Y-105022898D01*
X88187912Y-104975462D01*
X88091331Y-104930425D01*
X87879974Y-104873792D01*
X87661999Y-104854722D01*
X87460013Y-104872393D01*
X87406795Y-104865387D01*
X87361525Y-104836546D01*
X86221565Y-103696586D01*
X86189950Y-103642737D01*
X86188589Y-103580308D01*
X86217825Y-103525131D01*
X86248678Y-103505158D01*
X86246993Y-103502426D01*
X86257945Y-103495670D01*
X86278063Y-103485929D01*
X86279112Y-103485238D01*
X86279117Y-103485237D01*
X86341806Y-103444005D01*
X86344798Y-103442099D01*
X86408656Y-103402712D01*
X86408656Y-103402711D01*
X86409729Y-103402050D01*
X86424824Y-103389753D01*
X86425692Y-103388832D01*
X86425696Y-103388830D01*
X86477185Y-103334253D01*
X86479631Y-103331735D01*
X87734547Y-102076819D01*
X87774776Y-102049939D01*
X87822229Y-102040500D01*
X90654376Y-102040500D01*
X90711631Y-102054510D01*
X90755949Y-102093374D01*
X90758402Y-102096877D01*
X90913123Y-102251598D01*
X91092361Y-102377102D01*
X91290670Y-102469575D01*
X91502023Y-102526207D01*
X91720000Y-102545277D01*
X91937977Y-102526207D01*
X92149330Y-102469575D01*
X92347639Y-102377102D01*
X92526877Y-102251598D01*
X92681598Y-102096877D01*
X92763427Y-101980013D01*
X92807743Y-101941149D01*
X92865000Y-101927138D01*
X92922257Y-101941149D01*
X92966572Y-101980013D01*
X93048402Y-102096877D01*
X93203123Y-102251598D01*
X93382361Y-102377102D01*
X93580670Y-102469575D01*
X93792023Y-102526207D01*
X94010000Y-102545277D01*
X94227977Y-102526207D01*
X94439330Y-102469575D01*
X94635595Y-102378054D01*
X94696110Y-102366702D01*
X94754625Y-102385856D01*
X94796714Y-102430794D01*
X94812000Y-102490437D01*
X94812000Y-104975462D01*
X94811774Y-104982949D01*
X94808211Y-105041847D01*
X94818847Y-105099888D01*
X94819974Y-105107291D01*
X94827086Y-105165858D01*
X94830543Y-105174974D01*
X94836568Y-105196587D01*
X94838326Y-105206183D01*
X94862540Y-105259984D01*
X94865405Y-105266901D01*
X94891670Y-105336153D01*
X94891089Y-105336373D01*
X94904398Y-105369564D01*
X94900883Y-105424244D01*
X94874146Y-105472070D01*
X94829408Y-105503705D01*
X94778378Y-105524842D01*
X94556856Y-105660590D01*
X94359311Y-105829311D01*
X94190590Y-106026856D01*
X94167690Y-106064226D01*
X94054846Y-106248372D01*
X94044192Y-106274094D01*
X93955426Y-106488389D01*
X93894779Y-106741004D01*
X93874396Y-107000000D01*
X93894779Y-107258995D01*
X93955426Y-107511610D01*
X93997512Y-107613212D01*
X94054846Y-107751628D01*
X94159307Y-107922093D01*
X94190590Y-107973143D01*
X94241044Y-108032216D01*
X94359311Y-108170689D01*
X94401332Y-108206578D01*
X94533344Y-108319328D01*
X94556860Y-108339412D01*
X94778372Y-108475154D01*
X94958385Y-108549718D01*
X95018389Y-108574573D01*
X95098197Y-108593733D01*
X95271006Y-108635221D01*
X95530000Y-108655604D01*
X95788994Y-108635221D01*
X96041610Y-108574573D01*
X96281628Y-108475154D01*
X96503140Y-108339412D01*
X96700689Y-108170689D01*
X96869412Y-107973140D01*
X97005154Y-107751628D01*
X97104573Y-107511610D01*
X97165221Y-107258994D01*
X97185604Y-107000000D01*
X97165221Y-106741006D01*
X97104573Y-106488390D01*
X97100727Y-106479106D01*
X97044233Y-106342717D01*
X97035631Y-106321951D01*
X97026790Y-106262346D01*
X97047091Y-106205610D01*
X97091740Y-106165142D01*
X97150193Y-106150500D01*
X98609294Y-106150500D01*
X98616781Y-106150726D01*
X98619401Y-106150884D01*
X98675678Y-106154289D01*
X98733747Y-106143646D01*
X98741102Y-106142526D01*
X98799690Y-106135414D01*
X98808802Y-106131957D01*
X98830430Y-106125928D01*
X98840017Y-106124172D01*
X98893823Y-106099954D01*
X98900698Y-106097106D01*
X98941931Y-106081469D01*
X98998155Y-106074020D01*
X99051818Y-106092388D01*
X99091689Y-106132730D01*
X99109424Y-106186606D01*
X99121792Y-106327974D01*
X99178425Y-106539331D01*
X99270898Y-106737639D01*
X99277076Y-106746462D01*
X99293761Y-106780297D01*
X99299500Y-106817584D01*
X99299500Y-109245408D01*
X99284938Y-109303711D01*
X99244673Y-109348321D01*
X99188161Y-109368760D01*
X99128676Y-109360227D01*
X99080188Y-109324728D01*
X98970184Y-109192545D01*
X98913791Y-109124782D01*
X98709323Y-108941577D01*
X98480359Y-108790096D01*
X98231779Y-108673567D01*
X97968881Y-108594473D01*
X97697269Y-108554500D01*
X97491453Y-108554500D01*
X97491449Y-108554500D01*
X97286194Y-108569522D01*
X97018225Y-108629215D01*
X96761803Y-108727288D01*
X96522391Y-108861653D01*
X96305094Y-109029443D01*
X96114545Y-109227083D01*
X95954802Y-109450364D01*
X95829272Y-109694521D01*
X95740629Y-109954352D01*
X95690763Y-110224325D01*
X95680737Y-110498678D01*
X95710763Y-110771569D01*
X95745816Y-110905646D01*
X95780204Y-111037182D01*
X95857202Y-111218373D01*
X95887577Y-111289852D01*
X96011729Y-111493284D01*
X96030595Y-111524196D01*
X96206209Y-111735218D01*
X96410677Y-111918423D01*
X96639641Y-112069904D01*
X96888221Y-112186433D01*
X97151119Y-112265527D01*
X97422731Y-112305500D01*
X97628547Y-112305500D01*
X97628551Y-112305500D01*
X97833805Y-112290477D01*
X97945813Y-112265526D01*
X98101775Y-112230784D01*
X98358198Y-112132711D01*
X98597609Y-111998347D01*
X98814904Y-111830557D01*
X99005454Y-111632916D01*
X99165196Y-111409637D01*
X99263532Y-111218372D01*
X99297309Y-111177482D01*
X99345083Y-111154444D01*
X99398112Y-111153476D01*
X99446695Y-111174753D01*
X99597269Y-111284151D01*
X99770197Y-111361144D01*
X99955352Y-111400500D01*
X99955354Y-111400500D01*
X100144646Y-111400500D01*
X100144648Y-111400500D01*
X100268084Y-111374262D01*
X100329803Y-111361144D01*
X100502730Y-111284151D01*
X100598057Y-111214892D01*
X100655870Y-111172889D01*
X100782533Y-111032216D01*
X100877179Y-110868284D01*
X100899620Y-110799217D01*
X100935674Y-110688256D01*
X100955460Y-110500000D01*
X100955321Y-110498678D01*
X108380737Y-110498678D01*
X108410763Y-110771569D01*
X108445816Y-110905646D01*
X108480204Y-111037182D01*
X108557202Y-111218373D01*
X108587577Y-111289852D01*
X108711729Y-111493284D01*
X108730595Y-111524196D01*
X108906209Y-111735218D01*
X109110677Y-111918423D01*
X109339641Y-112069904D01*
X109588221Y-112186433D01*
X109851119Y-112265527D01*
X110122731Y-112305500D01*
X110328547Y-112305500D01*
X110328551Y-112305500D01*
X110533805Y-112290477D01*
X110645813Y-112265526D01*
X110801775Y-112230784D01*
X111058198Y-112132711D01*
X111297609Y-111998347D01*
X111514904Y-111830557D01*
X111705454Y-111632916D01*
X111865196Y-111409637D01*
X111990727Y-111165479D01*
X112049472Y-110993284D01*
X112079370Y-110905647D01*
X112129236Y-110635674D01*
X112139262Y-110361321D01*
X112137644Y-110346620D01*
X112109236Y-110088429D01*
X112039796Y-109822818D01*
X111932423Y-109570148D01*
X111789405Y-109335804D01*
X111613791Y-109124782D01*
X111409323Y-108941577D01*
X111180359Y-108790096D01*
X110931779Y-108673567D01*
X110668881Y-108594473D01*
X110397269Y-108554500D01*
X110191453Y-108554500D01*
X110191449Y-108554500D01*
X109986194Y-108569522D01*
X109718225Y-108629215D01*
X109461803Y-108727288D01*
X109222391Y-108861653D01*
X109005094Y-109029443D01*
X108814545Y-109227083D01*
X108654802Y-109450364D01*
X108529272Y-109694521D01*
X108440629Y-109954352D01*
X108390763Y-110224325D01*
X108380737Y-110498678D01*
X100955321Y-110498678D01*
X100935674Y-110311744D01*
X100902791Y-110210541D01*
X100877179Y-110131715D01*
X100817113Y-110027678D01*
X100800500Y-109965678D01*
X100800500Y-109192545D01*
X100813288Y-109137701D01*
X100849014Y-109094169D01*
X100900309Y-109070928D01*
X100956593Y-109072769D01*
X101156023Y-109126207D01*
X101374000Y-109145277D01*
X101591977Y-109126207D01*
X101803330Y-109069575D01*
X101954119Y-108999261D01*
X102827067Y-108999261D01*
X102976840Y-109069102D01*
X103188113Y-109125712D01*
X103406000Y-109144775D01*
X103623886Y-109125712D01*
X103835159Y-109069102D01*
X103984932Y-108999261D01*
X103406001Y-108420330D01*
X103406000Y-108420330D01*
X102827067Y-108999261D01*
X101954119Y-108999261D01*
X102001639Y-108977102D01*
X102180877Y-108851598D01*
X102335598Y-108696877D01*
X102461102Y-108517639D01*
X102553575Y-108319330D01*
X102584227Y-108204933D01*
X102616319Y-108149349D01*
X103318318Y-107447350D01*
X103373905Y-107415256D01*
X103438093Y-107415256D01*
X103493680Y-107447350D01*
X104422000Y-108375670D01*
X105350319Y-107447351D01*
X105405906Y-107415257D01*
X105470094Y-107415257D01*
X105525681Y-107447351D01*
X105880648Y-107802318D01*
X105912742Y-107857905D01*
X105912742Y-107922093D01*
X105880648Y-107977680D01*
X104859067Y-108999261D01*
X105008840Y-109069102D01*
X105220113Y-109125712D01*
X105438000Y-109144775D01*
X105655886Y-109125712D01*
X105867159Y-109069102D01*
X106065389Y-108976665D01*
X106151634Y-108916276D01*
X106210644Y-108894443D01*
X106272773Y-108904384D01*
X106322025Y-108943540D01*
X106362452Y-108997544D01*
X106362453Y-108997544D01*
X106362454Y-108997546D01*
X106477669Y-109083796D01*
X106612517Y-109134091D01*
X106672127Y-109140500D01*
X108267872Y-109140499D01*
X108327483Y-109134091D01*
X108462331Y-109083796D01*
X108577546Y-108997546D01*
X108663796Y-108882331D01*
X108714091Y-108747483D01*
X108720500Y-108687873D01*
X108720499Y-107092128D01*
X108714091Y-107032517D01*
X108714090Y-107032513D01*
X108712473Y-107028177D01*
X108709707Y-107000000D01*
X110634396Y-107000000D01*
X110654779Y-107258995D01*
X110715426Y-107511610D01*
X110757512Y-107613212D01*
X110814846Y-107751628D01*
X110919307Y-107922093D01*
X110950590Y-107973143D01*
X111001044Y-108032216D01*
X111119311Y-108170689D01*
X111161332Y-108206578D01*
X111293344Y-108319328D01*
X111316860Y-108339412D01*
X111538372Y-108475154D01*
X111718385Y-108549718D01*
X111778389Y-108574573D01*
X111858197Y-108593733D01*
X112031006Y-108635221D01*
X112290000Y-108655604D01*
X112548994Y-108635221D01*
X112801610Y-108574573D01*
X113041628Y-108475154D01*
X113263140Y-108339412D01*
X113460689Y-108170689D01*
X113629412Y-107973140D01*
X113765154Y-107751628D01*
X113864573Y-107511610D01*
X113925221Y-107258994D01*
X113945604Y-107000000D01*
X113925221Y-106741006D01*
X113864573Y-106488390D01*
X113860727Y-106479106D01*
X113833207Y-106412667D01*
X113765154Y-106248372D01*
X113629412Y-106026860D01*
X113620910Y-106016906D01*
X113568454Y-105955488D01*
X113460689Y-105829311D01*
X113305561Y-105696819D01*
X113263143Y-105660590D01*
X113250718Y-105652976D01*
X113041628Y-105524846D01*
X112939063Y-105482362D01*
X112801610Y-105425426D01*
X112548995Y-105364779D01*
X112290000Y-105344396D01*
X112031004Y-105364779D01*
X111778389Y-105425426D01*
X111573524Y-105510285D01*
X111538372Y-105524846D01*
X111457791Y-105574226D01*
X111316856Y-105660590D01*
X111119311Y-105829311D01*
X110950590Y-106026856D01*
X110927690Y-106064226D01*
X110814846Y-106248372D01*
X110804192Y-106274094D01*
X110715426Y-106488389D01*
X110654779Y-106741004D01*
X110634396Y-107000000D01*
X108709707Y-107000000D01*
X108706265Y-106964928D01*
X108732207Y-106906910D01*
X108783485Y-106869365D01*
X108846623Y-106862154D01*
X108868023Y-106865289D01*
X108917368Y-106860972D01*
X108928176Y-106860500D01*
X108933706Y-106860500D01*
X108933709Y-106860500D01*
X108964550Y-106856894D01*
X108968031Y-106856539D01*
X109042797Y-106849999D01*
X109042797Y-106849998D01*
X109044052Y-106849889D01*
X109063062Y-106845674D01*
X109064250Y-106845241D01*
X109064255Y-106845241D01*
X109134820Y-106819557D01*
X109138095Y-106818419D01*
X109209334Y-106794814D01*
X109209336Y-106794812D01*
X109210536Y-106794415D01*
X109228063Y-106785929D01*
X109229112Y-106785238D01*
X109229117Y-106785237D01*
X109291806Y-106744005D01*
X109294798Y-106742099D01*
X109358656Y-106702712D01*
X109358656Y-106702711D01*
X109359729Y-106702050D01*
X109374824Y-106689753D01*
X109375692Y-106688832D01*
X109375696Y-106688830D01*
X109427186Y-106634252D01*
X109429632Y-106631734D01*
X109652772Y-106408593D01*
X109681282Y-106387304D01*
X109714665Y-106374988D01*
X109779803Y-106361144D01*
X109779804Y-106361143D01*
X109779806Y-106361143D01*
X109952730Y-106284151D01*
X110105870Y-106172889D01*
X110112846Y-106165142D01*
X110232533Y-106032216D01*
X110327179Y-105868284D01*
X110385674Y-105688256D01*
X110405460Y-105500000D01*
X110385674Y-105311744D01*
X110342876Y-105180026D01*
X110327179Y-105131715D01*
X110232533Y-104967783D01*
X110105870Y-104827110D01*
X109952730Y-104715848D01*
X109779802Y-104638855D01*
X109594648Y-104599500D01*
X109594646Y-104599500D01*
X109405354Y-104599500D01*
X109405352Y-104599500D01*
X109220197Y-104638855D01*
X109047269Y-104715848D01*
X108894129Y-104827110D01*
X108767466Y-104967783D01*
X108672821Y-105131714D01*
X108626648Y-105273819D01*
X108600867Y-105318473D01*
X108559152Y-105348780D01*
X108508717Y-105359500D01*
X107519624Y-105359500D01*
X107462366Y-105345489D01*
X107418047Y-105306621D01*
X107415595Y-105303119D01*
X107260880Y-105148405D01*
X107260877Y-105148402D01*
X107081639Y-105022898D01*
X106979912Y-104975462D01*
X106883331Y-104930425D01*
X106671974Y-104873792D01*
X106454000Y-104854722D01*
X106236025Y-104873792D01*
X106024668Y-104930425D01*
X105826361Y-105022898D01*
X105647122Y-105148402D01*
X105525681Y-105269844D01*
X105470094Y-105301938D01*
X105405906Y-105301938D01*
X105350319Y-105269844D01*
X105228880Y-105148405D01*
X105228877Y-105148402D01*
X105049639Y-105022898D01*
X104947912Y-104975462D01*
X104851331Y-104930425D01*
X104639974Y-104873792D01*
X104421999Y-104854722D01*
X104220013Y-104872393D01*
X104166795Y-104865387D01*
X104121525Y-104836546D01*
X103788344Y-104503365D01*
X103783210Y-104497912D01*
X103782342Y-104496932D01*
X103744079Y-104453742D01*
X103695508Y-104420215D01*
X103689489Y-104415786D01*
X103643043Y-104379399D01*
X103634149Y-104375395D01*
X103614609Y-104364375D01*
X103606577Y-104358831D01*
X103551401Y-104337905D01*
X103544484Y-104335040D01*
X103490683Y-104310826D01*
X103481087Y-104309068D01*
X103459474Y-104303043D01*
X103450358Y-104299586D01*
X103391791Y-104292474D01*
X103384388Y-104291347D01*
X103326347Y-104280711D01*
X103326346Y-104280711D01*
X103293068Y-104282724D01*
X103267449Y-104284274D01*
X103259962Y-104284500D01*
X99148376Y-104284500D01*
X99140889Y-104284274D01*
X99081983Y-104280710D01*
X99023942Y-104291346D01*
X99016543Y-104292472D01*
X98957973Y-104299585D01*
X98948849Y-104303045D01*
X98927248Y-104309066D01*
X98917647Y-104310826D01*
X98863833Y-104335045D01*
X98856917Y-104337910D01*
X98801755Y-104358831D01*
X98793723Y-104364375D01*
X98774183Y-104375394D01*
X98770103Y-104377231D01*
X98765285Y-104379400D01*
X98718837Y-104415789D01*
X98712808Y-104420226D01*
X98664249Y-104453744D01*
X98625119Y-104497912D01*
X98619987Y-104503364D01*
X98385169Y-104738183D01*
X98344944Y-104765061D01*
X98297491Y-104774500D01*
X96312000Y-104774500D01*
X96250000Y-104757887D01*
X96204613Y-104712500D01*
X96188000Y-104650500D01*
X96188000Y-102451202D01*
X96205991Y-102386874D01*
X96254743Y-102341213D01*
X96320110Y-102327468D01*
X96383121Y-102349626D01*
X96422361Y-102377102D01*
X96620670Y-102469575D01*
X96832023Y-102526207D01*
X97050000Y-102545277D01*
X97267977Y-102526207D01*
X97479330Y-102469575D01*
X97677639Y-102377102D01*
X97856877Y-102251598D01*
X98011598Y-102096877D01*
X98093427Y-101980013D01*
X98137743Y-101941149D01*
X98195000Y-101927138D01*
X98252257Y-101941149D01*
X98296572Y-101980013D01*
X98378402Y-102096877D01*
X98533123Y-102251598D01*
X98712361Y-102377102D01*
X98910670Y-102469575D01*
X99122023Y-102526207D01*
X99340000Y-102545277D01*
X99557977Y-102526207D01*
X99769330Y-102469575D01*
X99967639Y-102377102D01*
X100146877Y-102251598D01*
X100301598Y-102096877D01*
X100427102Y-101917639D01*
X100519575Y-101719330D01*
X100576207Y-101507977D01*
X100595277Y-101290000D01*
X100584716Y-101169289D01*
X100591722Y-101116074D01*
X100620561Y-101070805D01*
X101115638Y-100575727D01*
X101129256Y-100563957D01*
X101148530Y-100549610D01*
X101180382Y-100511649D01*
X101187668Y-100503697D01*
X101191590Y-100499777D01*
X101210859Y-100475405D01*
X101213054Y-100472711D01*
X101261302Y-100415214D01*
X101261302Y-100415212D01*
X101262117Y-100414242D01*
X101272566Y-100397840D01*
X101273105Y-100396682D01*
X101273110Y-100396677D01*
X101304832Y-100328647D01*
X101306348Y-100325516D01*
X101340040Y-100258433D01*
X101340040Y-100258429D01*
X101340610Y-100257296D01*
X101346999Y-100238917D01*
X101351022Y-100219433D01*
X101362431Y-100164171D01*
X101363186Y-100160767D01*
X101380500Y-100087721D01*
X101380500Y-100087719D01*
X101380790Y-100086495D01*
X101382769Y-100067123D01*
X101382732Y-100065859D01*
X101382733Y-100065856D01*
X101380552Y-99990889D01*
X101380500Y-99987284D01*
X101380500Y-99280148D01*
X101389939Y-99232695D01*
X101416819Y-99192467D01*
X101672467Y-98936819D01*
X101712695Y-98909939D01*
X101760148Y-98900500D01*
X109445821Y-98900500D01*
X109493274Y-98909939D01*
X109533502Y-98936819D01*
X110477802Y-99881119D01*
X110509896Y-99936706D01*
X110509896Y-100000893D01*
X110477802Y-100056481D01*
X110422215Y-100088575D01*
X110340668Y-100110425D01*
X110142361Y-100202898D01*
X109963122Y-100328402D01*
X109808405Y-100483119D01*
X109808404Y-100483121D01*
X109808402Y-100483123D01*
X109730565Y-100594287D01*
X109726575Y-100599985D01*
X109682257Y-100638850D01*
X109625000Y-100652861D01*
X109567743Y-100638850D01*
X109523425Y-100599985D01*
X109522182Y-100598210D01*
X109441598Y-100483123D01*
X109286877Y-100328402D01*
X109107639Y-100202898D01*
X108994943Y-100150347D01*
X108909331Y-100110425D01*
X108697974Y-100053792D01*
X108480000Y-100034722D01*
X108262025Y-100053792D01*
X108050668Y-100110425D01*
X107852361Y-100202898D01*
X107673122Y-100328402D01*
X107518402Y-100483122D01*
X107392898Y-100662361D01*
X107300425Y-100860668D01*
X107243792Y-101072025D01*
X107224722Y-101290000D01*
X107242393Y-101491985D01*
X107235387Y-101545203D01*
X107206546Y-101590473D01*
X106711340Y-102085681D01*
X106671112Y-102112561D01*
X106623659Y-102122000D01*
X102125361Y-102122000D01*
X102087043Y-102115931D01*
X102052475Y-102098318D01*
X102050494Y-102096879D01*
X101952730Y-102025849D01*
X101952729Y-102025848D01*
X101952727Y-102025847D01*
X101779802Y-101948855D01*
X101594648Y-101909500D01*
X101594646Y-101909500D01*
X101405354Y-101909500D01*
X101405352Y-101909500D01*
X101220197Y-101948855D01*
X101047269Y-102025848D01*
X100894129Y-102137110D01*
X100767466Y-102277783D01*
X100672820Y-102441715D01*
X100614326Y-102621742D01*
X100594540Y-102810000D01*
X100614326Y-102998257D01*
X100672820Y-103178284D01*
X100767466Y-103342216D01*
X100894129Y-103482889D01*
X101047269Y-103594151D01*
X101220197Y-103671144D01*
X101405352Y-103710500D01*
X101405354Y-103710500D01*
X101594646Y-103710500D01*
X101594648Y-103710500D01*
X101718083Y-103684262D01*
X101779803Y-103671144D01*
X101952730Y-103594151D01*
X102052476Y-103521681D01*
X102087043Y-103504069D01*
X102125361Y-103498000D01*
X106935462Y-103498000D01*
X106942949Y-103498226D01*
X106945569Y-103498384D01*
X107001846Y-103501789D01*
X107059915Y-103491146D01*
X107067270Y-103490026D01*
X107125858Y-103482914D01*
X107134970Y-103479457D01*
X107156598Y-103473428D01*
X107166185Y-103471672D01*
X107219991Y-103447454D01*
X107226890Y-103444597D01*
X107282078Y-103423668D01*
X107290104Y-103418127D01*
X107309657Y-103407100D01*
X107318543Y-103403101D01*
X107365016Y-103366690D01*
X107370989Y-103362296D01*
X107419579Y-103328758D01*
X107458718Y-103284576D01*
X107463820Y-103279157D01*
X108179526Y-102563451D01*
X108224794Y-102534612D01*
X108278012Y-102527606D01*
X108480000Y-102545277D01*
X108697977Y-102526207D01*
X108909330Y-102469575D01*
X109107639Y-102377102D01*
X109286877Y-102251598D01*
X109441598Y-102096877D01*
X109523427Y-101980013D01*
X109567743Y-101941149D01*
X109625000Y-101927138D01*
X109682257Y-101941149D01*
X109726572Y-101980013D01*
X109808402Y-102096877D01*
X109963123Y-102251598D01*
X110142361Y-102377102D01*
X110340670Y-102469575D01*
X110552023Y-102526207D01*
X110770000Y-102545277D01*
X110987977Y-102526207D01*
X111199330Y-102469575D01*
X111397639Y-102377102D01*
X111576877Y-102251598D01*
X111731598Y-102096877D01*
X111771886Y-102039338D01*
X111811456Y-102003080D01*
X111862649Y-101986938D01*
X111915867Y-101993944D01*
X111961138Y-102022785D01*
X114004979Y-104066625D01*
X114010113Y-104072078D01*
X114049253Y-104116258D01*
X114097820Y-104149781D01*
X114103844Y-104154213D01*
X114150289Y-104190601D01*
X114159179Y-104194602D01*
X114178725Y-104205626D01*
X114186754Y-104211168D01*
X114241935Y-104232095D01*
X114248835Y-104234953D01*
X114302647Y-104259172D01*
X114312234Y-104260928D01*
X114333853Y-104266954D01*
X114342974Y-104270414D01*
X114401560Y-104277526D01*
X114408920Y-104278647D01*
X114466986Y-104289289D01*
X114523405Y-104285875D01*
X114525883Y-104285726D01*
X114533370Y-104285500D01*
X118333159Y-104285500D01*
X118380612Y-104294939D01*
X118420840Y-104321819D01*
X118812734Y-104713713D01*
X118844828Y-104769300D01*
X118844828Y-104833487D01*
X118812735Y-104889075D01*
X118757148Y-104921168D01*
X118720847Y-104930895D01*
X118571067Y-105000737D01*
X119592649Y-106022319D01*
X119624743Y-106077906D01*
X119624743Y-106142094D01*
X119592649Y-106197681D01*
X119237681Y-106552649D01*
X119182094Y-106584743D01*
X119117906Y-106584743D01*
X119062319Y-106552649D01*
X118360319Y-105850649D01*
X118328226Y-105795064D01*
X118297575Y-105680670D01*
X118205102Y-105482362D01*
X118079598Y-105303123D01*
X117924877Y-105148402D01*
X117745639Y-105022898D01*
X117643912Y-104975462D01*
X117547331Y-104930425D01*
X117335974Y-104873792D01*
X117118000Y-104854722D01*
X116900025Y-104873792D01*
X116688668Y-104930425D01*
X116490361Y-105022898D01*
X116311122Y-105148402D01*
X116156402Y-105303122D01*
X116030898Y-105482361D01*
X115938425Y-105680668D01*
X115881792Y-105892025D01*
X115862722Y-106110000D01*
X115872870Y-106226000D01*
X115867603Y-106274094D01*
X115844331Y-106316512D01*
X115817634Y-106348328D01*
X115810341Y-106356289D01*
X115806408Y-106360222D01*
X115787176Y-106384545D01*
X115784902Y-106387337D01*
X115735894Y-106445744D01*
X115725418Y-106462187D01*
X115693192Y-106531294D01*
X115691622Y-106534536D01*
X115657393Y-106602692D01*
X115650996Y-106621098D01*
X115635573Y-106695788D01*
X115634793Y-106699305D01*
X115617208Y-106773505D01*
X115615229Y-106792878D01*
X115617448Y-106869131D01*
X115617500Y-106872737D01*
X115617500Y-108808891D01*
X115599931Y-108872518D01*
X115552203Y-108918115D01*
X115487840Y-108932762D01*
X115425081Y-108912307D01*
X115240359Y-108790096D01*
X114991779Y-108673567D01*
X114728881Y-108594473D01*
X114457269Y-108554500D01*
X114251453Y-108554500D01*
X114251449Y-108554500D01*
X114046194Y-108569522D01*
X113778225Y-108629215D01*
X113521803Y-108727288D01*
X113282391Y-108861653D01*
X113065094Y-109029443D01*
X112874545Y-109227083D01*
X112714802Y-109450364D01*
X112589272Y-109694521D01*
X112500629Y-109954352D01*
X112450763Y-110224325D01*
X112440737Y-110498678D01*
X112470763Y-110771569D01*
X112505816Y-110905646D01*
X112540204Y-111037182D01*
X112617202Y-111218373D01*
X112647577Y-111289852D01*
X112771729Y-111493284D01*
X112790595Y-111524196D01*
X112966209Y-111735218D01*
X113170677Y-111918423D01*
X113399641Y-112069904D01*
X113648221Y-112186433D01*
X113911119Y-112265527D01*
X114182731Y-112305500D01*
X114388547Y-112305500D01*
X114388551Y-112305500D01*
X114593805Y-112290477D01*
X114705813Y-112265526D01*
X114861775Y-112230784D01*
X115118198Y-112132711D01*
X115357609Y-111998347D01*
X115574904Y-111830557D01*
X115765454Y-111632916D01*
X115925196Y-111409637D01*
X116050727Y-111165479D01*
X116075062Y-111094145D01*
X116110462Y-111041131D01*
X116167525Y-111012709D01*
X116231168Y-111016394D01*
X116284570Y-111051211D01*
X116394129Y-111172888D01*
X116394132Y-111172890D01*
X116547269Y-111284151D01*
X116720197Y-111361144D01*
X116905352Y-111400500D01*
X116905354Y-111400500D01*
X117094646Y-111400500D01*
X117094648Y-111400500D01*
X117218084Y-111374262D01*
X117279803Y-111361144D01*
X117452730Y-111284151D01*
X117548057Y-111214892D01*
X117605870Y-111172889D01*
X117732533Y-111032216D01*
X117827179Y-110868284D01*
X117849620Y-110799217D01*
X117885674Y-110688256D01*
X117905460Y-110500000D01*
X117905321Y-110498678D01*
X125140737Y-110498678D01*
X125170763Y-110771569D01*
X125205816Y-110905646D01*
X125240204Y-111037182D01*
X125317202Y-111218373D01*
X125347577Y-111289852D01*
X125471729Y-111493284D01*
X125490595Y-111524196D01*
X125666209Y-111735218D01*
X125870677Y-111918423D01*
X126099641Y-112069904D01*
X126348221Y-112186433D01*
X126611119Y-112265527D01*
X126882731Y-112305500D01*
X127088547Y-112305500D01*
X127088551Y-112305500D01*
X127293805Y-112290477D01*
X127405813Y-112265526D01*
X127561775Y-112230784D01*
X127818198Y-112132711D01*
X128057609Y-111998347D01*
X128274904Y-111830557D01*
X128465454Y-111632916D01*
X128625196Y-111409637D01*
X128750727Y-111165479D01*
X128809472Y-110993284D01*
X128839370Y-110905647D01*
X128889236Y-110635674D01*
X128899262Y-110361321D01*
X128897644Y-110346620D01*
X128869236Y-110088429D01*
X128799796Y-109822818D01*
X128692423Y-109570148D01*
X128549405Y-109335804D01*
X128373791Y-109124782D01*
X128169323Y-108941577D01*
X127940359Y-108790096D01*
X127691779Y-108673567D01*
X127428881Y-108594473D01*
X127157269Y-108554500D01*
X126951453Y-108554500D01*
X126951449Y-108554500D01*
X126746194Y-108569522D01*
X126478225Y-108629215D01*
X126221803Y-108727288D01*
X125982391Y-108861653D01*
X125765094Y-109029443D01*
X125574545Y-109227083D01*
X125414802Y-109450364D01*
X125289272Y-109694521D01*
X125200629Y-109954352D01*
X125150763Y-110224325D01*
X125140737Y-110498678D01*
X117905321Y-110498678D01*
X117885674Y-110311744D01*
X117852791Y-110210541D01*
X117827179Y-110131715D01*
X117767510Y-110028366D01*
X117751369Y-109977171D01*
X117750970Y-109972612D01*
X117750500Y-109961826D01*
X117750500Y-109956289D01*
X117746903Y-109925521D01*
X117746536Y-109921929D01*
X117744539Y-109899100D01*
X117739999Y-109847203D01*
X117739998Y-109847201D01*
X117739889Y-109845949D01*
X117735672Y-109826930D01*
X117734175Y-109822818D01*
X117709591Y-109755273D01*
X117708408Y-109751868D01*
X117684417Y-109679468D01*
X117675929Y-109661936D01*
X117675237Y-109660884D01*
X117675237Y-109660883D01*
X117633999Y-109598184D01*
X117632087Y-109595181D01*
X117592050Y-109530270D01*
X117579750Y-109515172D01*
X117524290Y-109462848D01*
X117521703Y-109460335D01*
X117154819Y-109093451D01*
X117127939Y-109053223D01*
X117118500Y-109005770D01*
X117118500Y-108942337D01*
X117132015Y-108886042D01*
X117169615Y-108842019D01*
X117223102Y-108819864D01*
X117280818Y-108824406D01*
X117317275Y-108846747D01*
X117318237Y-108845375D01*
X117327119Y-108851594D01*
X117327123Y-108851598D01*
X117506361Y-108977102D01*
X117704670Y-109069575D01*
X117916023Y-109126207D01*
X118134000Y-109145277D01*
X118351977Y-109126207D01*
X118563330Y-109069575D01*
X118714119Y-108999261D01*
X119587067Y-108999261D01*
X119736840Y-109069102D01*
X119948113Y-109125712D01*
X120166000Y-109144775D01*
X120383886Y-109125712D01*
X120595159Y-109069102D01*
X120744932Y-108999261D01*
X120166001Y-108420330D01*
X120166000Y-108420330D01*
X119587067Y-108999261D01*
X118714119Y-108999261D01*
X118761639Y-108977102D01*
X118940877Y-108851598D01*
X119095598Y-108696877D01*
X119221102Y-108517639D01*
X119313575Y-108319330D01*
X119344227Y-108204933D01*
X119376319Y-108149349D01*
X120078318Y-107447350D01*
X120133905Y-107415256D01*
X120198093Y-107415256D01*
X120253680Y-107447350D01*
X121182000Y-108375670D01*
X122110319Y-107447351D01*
X122165906Y-107415257D01*
X122230094Y-107415257D01*
X122285681Y-107447351D01*
X122640648Y-107802318D01*
X122672742Y-107857905D01*
X122672742Y-107922093D01*
X122640648Y-107977680D01*
X121619067Y-108999261D01*
X121768840Y-109069102D01*
X121980113Y-109125712D01*
X122198000Y-109144775D01*
X122415886Y-109125712D01*
X122627159Y-109069102D01*
X122825389Y-108976665D01*
X122911634Y-108916276D01*
X122970644Y-108894443D01*
X123032773Y-108904384D01*
X123082025Y-108943540D01*
X123122452Y-108997544D01*
X123122453Y-108997544D01*
X123122454Y-108997546D01*
X123237669Y-109083796D01*
X123372517Y-109134091D01*
X123432127Y-109140500D01*
X125027872Y-109140499D01*
X125087483Y-109134091D01*
X125222331Y-109083796D01*
X125337546Y-108997546D01*
X125423796Y-108882331D01*
X125474091Y-108747483D01*
X125480500Y-108687873D01*
X125480499Y-107092128D01*
X125474091Y-107032517D01*
X125472472Y-107028177D01*
X125466179Y-107011303D01*
X125464694Y-106999999D01*
X127144396Y-106999999D01*
X127164779Y-107258995D01*
X127225426Y-107511610D01*
X127267512Y-107613212D01*
X127324846Y-107751628D01*
X127429307Y-107922093D01*
X127460590Y-107973143D01*
X127511044Y-108032216D01*
X127629311Y-108170689D01*
X127671332Y-108206578D01*
X127803344Y-108319328D01*
X127826860Y-108339412D01*
X128048372Y-108475154D01*
X128228385Y-108549718D01*
X128288389Y-108574573D01*
X128368197Y-108593733D01*
X128541006Y-108635221D01*
X128800000Y-108655604D01*
X129058994Y-108635221D01*
X129311610Y-108574573D01*
X129551628Y-108475154D01*
X129773140Y-108339412D01*
X129970689Y-108170689D01*
X130139412Y-107973140D01*
X130275154Y-107751628D01*
X130374573Y-107511610D01*
X130435221Y-107258994D01*
X130455604Y-107000000D01*
X130435221Y-106741006D01*
X130374573Y-106488390D01*
X130370727Y-106479106D01*
X130343207Y-106412667D01*
X130275154Y-106248372D01*
X130139412Y-106026860D01*
X130130910Y-106016906D01*
X130078454Y-105955488D01*
X129970689Y-105829311D01*
X129815561Y-105696819D01*
X129773143Y-105660590D01*
X129760718Y-105652976D01*
X129551628Y-105524846D01*
X129449063Y-105482362D01*
X129311610Y-105425426D01*
X129058995Y-105364779D01*
X128800000Y-105344396D01*
X128541004Y-105364779D01*
X128288389Y-105425426D01*
X128083524Y-105510285D01*
X128048372Y-105524846D01*
X127967791Y-105574226D01*
X127826856Y-105660590D01*
X127629311Y-105829311D01*
X127460590Y-106026856D01*
X127437690Y-106064226D01*
X127324846Y-106248372D01*
X127314192Y-106274094D01*
X127225426Y-106488389D01*
X127164779Y-106741004D01*
X127144396Y-106999999D01*
X125464694Y-106999999D01*
X125458929Y-106956101D01*
X125476564Y-106903291D01*
X125515527Y-106863521D01*
X125550889Y-106850900D01*
X125550634Y-106850198D01*
X125564251Y-106845241D01*
X125564255Y-106845241D01*
X125634820Y-106819557D01*
X125638095Y-106818419D01*
X125709334Y-106794814D01*
X125709336Y-106794812D01*
X125710536Y-106794415D01*
X125728063Y-106785929D01*
X125729112Y-106785238D01*
X125729117Y-106785237D01*
X125791806Y-106744005D01*
X125794798Y-106742099D01*
X125858656Y-106702712D01*
X125858656Y-106702711D01*
X125859729Y-106702050D01*
X125874824Y-106689753D01*
X125875692Y-106688832D01*
X125875696Y-106688830D01*
X125927186Y-106634252D01*
X125929632Y-106631734D01*
X126152772Y-106408593D01*
X126181282Y-106387304D01*
X126214665Y-106374988D01*
X126279803Y-106361144D01*
X126279804Y-106361143D01*
X126279806Y-106361143D01*
X126452730Y-106284151D01*
X126605870Y-106172889D01*
X126612846Y-106165142D01*
X126732533Y-106032216D01*
X126827179Y-105868284D01*
X126885674Y-105688256D01*
X126905460Y-105500000D01*
X126885674Y-105311744D01*
X126842876Y-105180026D01*
X126827179Y-105131715D01*
X126732533Y-104967783D01*
X126605870Y-104827110D01*
X126452730Y-104715848D01*
X126279802Y-104638855D01*
X126094648Y-104599500D01*
X126094646Y-104599500D01*
X125905354Y-104599500D01*
X125905352Y-104599500D01*
X125720197Y-104638855D01*
X125547269Y-104715848D01*
X125394129Y-104827110D01*
X125267466Y-104967783D01*
X125172821Y-105131714D01*
X125126648Y-105273819D01*
X125100867Y-105318473D01*
X125059152Y-105348780D01*
X125008717Y-105359500D01*
X124279624Y-105359500D01*
X124222366Y-105345489D01*
X124178047Y-105306621D01*
X124175595Y-105303119D01*
X124020880Y-105148405D01*
X124020877Y-105148402D01*
X123841639Y-105022898D01*
X123739912Y-104975462D01*
X123643331Y-104930425D01*
X123431974Y-104873792D01*
X123214000Y-104854722D01*
X122996025Y-104873792D01*
X122784668Y-104930425D01*
X122586361Y-105022898D01*
X122407122Y-105148402D01*
X122285681Y-105269844D01*
X122230094Y-105301938D01*
X122165906Y-105301938D01*
X122110319Y-105269844D01*
X121988880Y-105148405D01*
X121988877Y-105148402D01*
X121809639Y-105022898D01*
X121707912Y-104975462D01*
X121611331Y-104930425D01*
X121399974Y-104873792D01*
X121181999Y-104854722D01*
X120980013Y-104872393D01*
X120926795Y-104865387D01*
X120881525Y-104836546D01*
X119173344Y-103128365D01*
X119168210Y-103122912D01*
X119144949Y-103096656D01*
X119129079Y-103078742D01*
X119080508Y-103045215D01*
X119074504Y-103040798D01*
X119028043Y-103004399D01*
X119026379Y-103003095D01*
X118986050Y-102947111D01*
X118981884Y-102878240D01*
X119015171Y-102817806D01*
X119818659Y-102014319D01*
X119858888Y-101987439D01*
X119906341Y-101978000D01*
X124130613Y-101978000D01*
X124187870Y-101992011D01*
X124232187Y-102030876D01*
X124275949Y-102093374D01*
X124278402Y-102096877D01*
X124433123Y-102251598D01*
X124612361Y-102377102D01*
X124810670Y-102469575D01*
X125022023Y-102526207D01*
X125118095Y-102534612D01*
X125239998Y-102545277D01*
X125239998Y-102545276D01*
X125240000Y-102545277D01*
X125360708Y-102534716D01*
X125413924Y-102541722D01*
X125459195Y-102570563D01*
X125864267Y-102975634D01*
X125876048Y-102989266D01*
X125890387Y-103008526D01*
X125890390Y-103008530D01*
X125928355Y-103040386D01*
X125936317Y-103047684D01*
X125940224Y-103051591D01*
X125964542Y-103070819D01*
X125967298Y-103073063D01*
X126024786Y-103121302D01*
X126024788Y-103121303D01*
X126025757Y-103122116D01*
X126042177Y-103132576D01*
X126043321Y-103133109D01*
X126043323Y-103133111D01*
X126111357Y-103164835D01*
X126114456Y-103166335D01*
X126180667Y-103199588D01*
X126182704Y-103200611D01*
X126201084Y-103206998D01*
X126202321Y-103207253D01*
X126202327Y-103207256D01*
X126275862Y-103222439D01*
X126279209Y-103223181D01*
X126352279Y-103240500D01*
X126352281Y-103240500D01*
X126353505Y-103240790D01*
X126372876Y-103242769D01*
X126374140Y-103242732D01*
X126374144Y-103242733D01*
X126449110Y-103240552D01*
X126452716Y-103240500D01*
X127963351Y-103240500D01*
X127981321Y-103241809D01*
X127985377Y-103242402D01*
X128005080Y-103245289D01*
X128054425Y-103240972D01*
X128065233Y-103240500D01*
X128070763Y-103240500D01*
X128070766Y-103240500D01*
X128101607Y-103236894D01*
X128105088Y-103236539D01*
X128179854Y-103229999D01*
X128179854Y-103229998D01*
X128181109Y-103229889D01*
X128200119Y-103225674D01*
X128201307Y-103225241D01*
X128201312Y-103225241D01*
X128271877Y-103199557D01*
X128275152Y-103198419D01*
X128346391Y-103174814D01*
X128346393Y-103174812D01*
X128347593Y-103174415D01*
X128365120Y-103165929D01*
X128366169Y-103165238D01*
X128366174Y-103165237D01*
X128428863Y-103124005D01*
X128431855Y-103122099D01*
X128495713Y-103082712D01*
X128495713Y-103082711D01*
X128496786Y-103082050D01*
X128511881Y-103069753D01*
X128512749Y-103068832D01*
X128512753Y-103068830D01*
X128564243Y-103014252D01*
X128566689Y-103011734D01*
X129485641Y-102092782D01*
X129499258Y-102081014D01*
X129518530Y-102066667D01*
X129550382Y-102028706D01*
X129557668Y-102020754D01*
X129561590Y-102016834D01*
X129580863Y-101992456D01*
X129583030Y-101989796D01*
X129631302Y-101932271D01*
X129631303Y-101932267D01*
X129632119Y-101931296D01*
X129642575Y-101914882D01*
X129643109Y-101913736D01*
X129643111Y-101913734D01*
X129674816Y-101845739D01*
X129676369Y-101842532D01*
X129710040Y-101775490D01*
X129710040Y-101775486D01*
X129710610Y-101774353D01*
X129716999Y-101755974D01*
X129720537Y-101738839D01*
X129732431Y-101681228D01*
X129733186Y-101677824D01*
X129750500Y-101604778D01*
X129750500Y-101604776D01*
X129750790Y-101603552D01*
X129752769Y-101584180D01*
X129752732Y-101582916D01*
X129752733Y-101582913D01*
X129750552Y-101507946D01*
X129750500Y-101504341D01*
X129750500Y-101126649D01*
X129751809Y-101108679D01*
X129752338Y-101105061D01*
X129755289Y-101084920D01*
X129750971Y-101035576D01*
X129750500Y-101024770D01*
X129750500Y-101019234D01*
X129747644Y-100994805D01*
X129746897Y-100988414D01*
X129746534Y-100984858D01*
X129739888Y-100908885D01*
X129735674Y-100889878D01*
X129725043Y-100860670D01*
X129709571Y-100818160D01*
X129708424Y-100814860D01*
X129684814Y-100743608D01*
X129684812Y-100743605D01*
X129684415Y-100742406D01*
X129675929Y-100724879D01*
X129675237Y-100723827D01*
X129675237Y-100723826D01*
X129634025Y-100661167D01*
X129632106Y-100658155D01*
X129592048Y-100593210D01*
X129579750Y-100578115D01*
X129524290Y-100525791D01*
X129521703Y-100523278D01*
X108998425Y-80000000D01*
X121794433Y-80000000D01*
X121814685Y-80412219D01*
X121875243Y-80820466D01*
X121975524Y-81220813D01*
X122114561Y-81609394D01*
X122291024Y-81982495D01*
X122503196Y-82336482D01*
X122749057Y-82667987D01*
X123026215Y-82973784D01*
X123332012Y-83250942D01*
X123663517Y-83496803D01*
X124017504Y-83708975D01*
X124017508Y-83708977D01*
X124017510Y-83708978D01*
X124390600Y-83885436D01*
X124390603Y-83885437D01*
X124390605Y-83885438D01*
X124779186Y-84024475D01*
X124779189Y-84024476D01*
X125179535Y-84124757D01*
X125587782Y-84185315D01*
X126000000Y-84205566D01*
X126412218Y-84185315D01*
X126820465Y-84124757D01*
X127220811Y-84024476D01*
X127609400Y-83885436D01*
X127982490Y-83708978D01*
X128336487Y-83496800D01*
X128667983Y-83250946D01*
X128973784Y-82973784D01*
X129250946Y-82667983D01*
X129496800Y-82336487D01*
X129708978Y-81982490D01*
X129885436Y-81609400D01*
X130024476Y-81220811D01*
X130124757Y-80820465D01*
X130185315Y-80412218D01*
X130205566Y-80000000D01*
X130185315Y-79587782D01*
X130124757Y-79179535D01*
X130024476Y-78779189D01*
X129885436Y-78390600D01*
X129708978Y-78017510D01*
X129708977Y-78017508D01*
X129708975Y-78017504D01*
X129496803Y-77663517D01*
X129250942Y-77332012D01*
X128973784Y-77026215D01*
X128667987Y-76749057D01*
X128336482Y-76503196D01*
X127982495Y-76291024D01*
X127609394Y-76114561D01*
X127220813Y-75975524D01*
X126820466Y-75875243D01*
X126412219Y-75814685D01*
X126000000Y-75794433D01*
X125587780Y-75814685D01*
X125179533Y-75875243D01*
X124779186Y-75975524D01*
X124390605Y-76114561D01*
X124017504Y-76291024D01*
X123663517Y-76503196D01*
X123332012Y-76749057D01*
X123026215Y-77026215D01*
X122749057Y-77332012D01*
X122503196Y-77663517D01*
X122291024Y-78017504D01*
X122114561Y-78390605D01*
X121975524Y-78779186D01*
X121875243Y-79179533D01*
X121814685Y-79587780D01*
X121794433Y-80000000D01*
X108998425Y-80000000D01*
X102932785Y-73934360D01*
X102921003Y-73920727D01*
X102906666Y-73901469D01*
X102868723Y-73869631D01*
X102860748Y-73862323D01*
X102856839Y-73858414D01*
X102856834Y-73858409D01*
X102832480Y-73839152D01*
X102829704Y-73836890D01*
X102771308Y-73787890D01*
X102754878Y-73777422D01*
X102685748Y-73745186D01*
X102682504Y-73743615D01*
X102665969Y-73735311D01*
X102617233Y-73691430D01*
X102597695Y-73628828D01*
X102612818Y-73565016D01*
X102658374Y-73517842D01*
X102721619Y-73500500D01*
X131875500Y-73500500D01*
X131937500Y-73517113D01*
X131982887Y-73562500D01*
X131999500Y-73624500D01*
X131999500Y-115875500D01*
X131982887Y-115937500D01*
X131937500Y-115982887D01*
X131875500Y-115999500D01*
X27124500Y-115999500D01*
X27062500Y-115982887D01*
X27017113Y-115937500D01*
X27000500Y-115875500D01*
X27000500Y-107736830D01*
X27018773Y-107672040D01*
X27068205Y-107626345D01*
X27134229Y-107613212D01*
X27197385Y-107636512D01*
X27239060Y-107689376D01*
X27264846Y-107751628D01*
X27369307Y-107922093D01*
X27400590Y-107973143D01*
X27451044Y-108032216D01*
X27569311Y-108170689D01*
X27611332Y-108206578D01*
X27743344Y-108319328D01*
X27766860Y-108339412D01*
X27988372Y-108475154D01*
X28168385Y-108549718D01*
X28228389Y-108574573D01*
X28308197Y-108593733D01*
X28481006Y-108635221D01*
X28740000Y-108655604D01*
X28998994Y-108635221D01*
X29251610Y-108574573D01*
X29491628Y-108475154D01*
X29713140Y-108339412D01*
X29910689Y-108170689D01*
X30079412Y-107973140D01*
X30215154Y-107751628D01*
X30314573Y-107511610D01*
X30375221Y-107258994D01*
X30395604Y-107000000D01*
X30375221Y-106741006D01*
X30314573Y-106488390D01*
X30310727Y-106479106D01*
X30283207Y-106412667D01*
X30215154Y-106248372D01*
X30079412Y-106026860D01*
X30070910Y-106016906D01*
X30018454Y-105955488D01*
X29910689Y-105829311D01*
X29755561Y-105696819D01*
X29713143Y-105660590D01*
X29700718Y-105652976D01*
X29491628Y-105524846D01*
X29389063Y-105482362D01*
X29251610Y-105425426D01*
X28998995Y-105364779D01*
X28740000Y-105344396D01*
X28481004Y-105364779D01*
X28228389Y-105425426D01*
X28023524Y-105510285D01*
X27988372Y-105524846D01*
X27907791Y-105574226D01*
X27766856Y-105660590D01*
X27569311Y-105829311D01*
X27400590Y-106026856D01*
X27377690Y-106064226D01*
X27264846Y-106248372D01*
X27239158Y-106310390D01*
X27239061Y-106310623D01*
X27197385Y-106363488D01*
X27134229Y-106386788D01*
X27068205Y-106373655D01*
X27018773Y-106327960D01*
X27000500Y-106263170D01*
X27000500Y-73624500D01*
X27017113Y-73562500D01*
X27062500Y-73517113D01*
X27124500Y-73500500D01*
X28953916Y-73500500D01*
X29015294Y-73516756D01*
G37*
%TD.AperFunction*%
%TA.AperFunction,Conductor*%
G36*
X91414060Y-97407853D02*
G01*
X91465901Y-97438880D01*
X93869547Y-99842526D01*
X93902926Y-99903367D01*
X93898389Y-99972615D01*
X93857356Y-100028580D01*
X93802242Y-100050015D01*
X93802502Y-100050985D01*
X93793653Y-100053355D01*
X93792679Y-100053735D01*
X93792025Y-100053792D01*
X93580668Y-100110425D01*
X93382361Y-100202898D01*
X93203122Y-100328402D01*
X93048405Y-100483119D01*
X93048404Y-100483121D01*
X93048402Y-100483123D01*
X92970565Y-100594287D01*
X92966575Y-100599985D01*
X92922257Y-100638850D01*
X92865000Y-100652861D01*
X92807743Y-100638850D01*
X92763425Y-100599985D01*
X92762182Y-100598210D01*
X92681598Y-100483123D01*
X92526877Y-100328402D01*
X92347639Y-100202898D01*
X92234943Y-100150347D01*
X92149331Y-100110425D01*
X91937974Y-100053792D01*
X91720000Y-100034722D01*
X91502025Y-100053792D01*
X91290668Y-100110425D01*
X91092361Y-100202898D01*
X90913121Y-100328403D01*
X90758404Y-100483119D01*
X90755953Y-100486621D01*
X90711634Y-100525489D01*
X90654376Y-100539500D01*
X87523706Y-100539500D01*
X87505736Y-100538191D01*
X87491853Y-100536157D01*
X87481977Y-100534711D01*
X87481976Y-100534711D01*
X87432631Y-100539028D01*
X87421824Y-100539500D01*
X87416291Y-100539500D01*
X87385501Y-100543098D01*
X87381917Y-100543464D01*
X87305961Y-100550109D01*
X87286921Y-100554330D01*
X87215232Y-100580421D01*
X87211831Y-100581603D01*
X87139474Y-100605580D01*
X87121927Y-100614075D01*
X87058221Y-100655975D01*
X87055181Y-100657912D01*
X86990280Y-100697944D01*
X86975165Y-100710256D01*
X86922832Y-100765725D01*
X86920320Y-100768311D01*
X85665451Y-102023181D01*
X85625223Y-102050061D01*
X85577770Y-102059500D01*
X85089337Y-102059500D01*
X85051018Y-102053431D01*
X85016450Y-102035817D01*
X85002728Y-102025847D01*
X84829802Y-101948855D01*
X84644648Y-101909500D01*
X84644646Y-101909500D01*
X84455354Y-101909500D01*
X84455352Y-101909500D01*
X84270197Y-101948855D01*
X84097269Y-102025848D01*
X83944129Y-102137110D01*
X83817466Y-102277783D01*
X83722820Y-102441715D01*
X83664326Y-102621742D01*
X83659411Y-102668505D01*
X83644540Y-102810000D01*
X83664326Y-102998256D01*
X83689159Y-103074684D01*
X83693701Y-103132398D01*
X83671546Y-103185885D01*
X83627523Y-103223485D01*
X83571228Y-103237000D01*
X69003772Y-103237000D01*
X68947477Y-103223485D01*
X68903454Y-103185885D01*
X68881299Y-103132398D01*
X68885840Y-103074684D01*
X68910674Y-102998256D01*
X68917940Y-102929114D01*
X68929340Y-102888695D01*
X68953577Y-102854400D01*
X69793659Y-102014319D01*
X69833888Y-101987439D01*
X69881341Y-101978000D01*
X73850613Y-101978000D01*
X73907870Y-101992011D01*
X73952187Y-102030876D01*
X73995949Y-102093374D01*
X73998402Y-102096877D01*
X74153123Y-102251598D01*
X74332361Y-102377102D01*
X74530670Y-102469575D01*
X74742023Y-102526207D01*
X74960000Y-102545277D01*
X75177977Y-102526207D01*
X75389330Y-102469575D01*
X75587639Y-102377102D01*
X75766877Y-102251598D01*
X75921598Y-102096877D01*
X76003427Y-101980013D01*
X76047743Y-101941149D01*
X76105000Y-101927138D01*
X76162257Y-101941149D01*
X76206572Y-101980013D01*
X76288402Y-102096877D01*
X76443123Y-102251598D01*
X76622361Y-102377102D01*
X76820670Y-102469575D01*
X77032023Y-102526207D01*
X77250000Y-102545277D01*
X77467977Y-102526207D01*
X77679330Y-102469575D01*
X77877639Y-102377102D01*
X78056877Y-102251598D01*
X78211598Y-102096877D01*
X78337102Y-101917639D01*
X78429575Y-101719330D01*
X78486207Y-101507977D01*
X78505277Y-101290000D01*
X78486207Y-101072023D01*
X78429575Y-100860670D01*
X78349261Y-100688438D01*
X78338181Y-100624510D01*
X78360904Y-100563735D01*
X78411209Y-100522755D01*
X78413590Y-100521694D01*
X78413594Y-100521694D01*
X78586521Y-100444701D01*
X78586521Y-100444700D01*
X78586523Y-100444700D01*
X78739661Y-100333439D01*
X78744194Y-100328405D01*
X78848347Y-100212731D01*
X78904242Y-100177122D01*
X78970494Y-100175387D01*
X79028177Y-100208023D01*
X79244481Y-100424327D01*
X79274506Y-100473004D01*
X79279491Y-100529979D01*
X79258375Y-100583131D01*
X79202898Y-100662360D01*
X79110425Y-100860668D01*
X79053792Y-101072025D01*
X79034722Y-101290000D01*
X79053792Y-101507974D01*
X79110425Y-101719331D01*
X79136213Y-101774632D01*
X79202898Y-101917639D01*
X79328402Y-102096877D01*
X79483123Y-102251598D01*
X79662361Y-102377102D01*
X79860670Y-102469575D01*
X80072023Y-102526207D01*
X80290000Y-102545277D01*
X80507977Y-102526207D01*
X80719330Y-102469575D01*
X80917639Y-102377102D01*
X81096877Y-102251598D01*
X81251598Y-102096877D01*
X81333427Y-101980013D01*
X81377743Y-101941149D01*
X81435000Y-101927138D01*
X81492257Y-101941149D01*
X81536572Y-101980013D01*
X81618402Y-102096877D01*
X81773123Y-102251598D01*
X81952361Y-102377102D01*
X82150670Y-102469575D01*
X82362023Y-102526207D01*
X82580000Y-102545277D01*
X82797977Y-102526207D01*
X83009330Y-102469575D01*
X83207639Y-102377102D01*
X83386877Y-102251598D01*
X83541598Y-102096877D01*
X83667102Y-101917639D01*
X83759575Y-101719330D01*
X83816207Y-101507977D01*
X83835277Y-101290000D01*
X83835277Y-101289999D01*
X83819174Y-101105930D01*
X83827094Y-101050281D01*
X83858770Y-101003847D01*
X83907692Y-100976168D01*
X83963809Y-100972933D01*
X84015585Y-100994803D01*
X84063927Y-101029926D01*
X84097272Y-101054153D01*
X84270197Y-101131144D01*
X84455352Y-101170500D01*
X84455354Y-101170500D01*
X84644646Y-101170500D01*
X84644648Y-101170500D01*
X84768084Y-101144262D01*
X84829803Y-101131144D01*
X85002730Y-101054151D01*
X85110065Y-100976168D01*
X85155870Y-100942889D01*
X85186488Y-100908885D01*
X85282533Y-100802216D01*
X85377179Y-100638284D01*
X85435674Y-100458256D01*
X85455460Y-100270000D01*
X85435674Y-100081744D01*
X85395548Y-99958249D01*
X85377179Y-99901715D01*
X85282533Y-99737783D01*
X85155870Y-99597110D01*
X85002730Y-99485848D01*
X84829802Y-99408855D01*
X84644648Y-99369500D01*
X84644646Y-99369500D01*
X84604636Y-99369500D01*
X84579561Y-99366938D01*
X84534212Y-99357574D01*
X84530692Y-99356794D01*
X84456490Y-99339208D01*
X84437121Y-99337229D01*
X84360869Y-99339448D01*
X84357263Y-99339500D01*
X80891719Y-99339500D01*
X80835424Y-99325985D01*
X80791401Y-99288385D01*
X80769246Y-99234898D01*
X80773788Y-99177182D01*
X80790278Y-99126430D01*
X80835174Y-98988256D01*
X80842440Y-98919114D01*
X80853840Y-98878695D01*
X80878077Y-98844400D01*
X81358159Y-98364319D01*
X81398388Y-98337439D01*
X81445841Y-98328000D01*
X89734639Y-98328000D01*
X89772957Y-98334069D01*
X89807523Y-98351681D01*
X89907270Y-98424151D01*
X89907271Y-98424151D01*
X89907272Y-98424152D01*
X90080197Y-98501144D01*
X90265352Y-98540500D01*
X90265354Y-98540500D01*
X90454646Y-98540500D01*
X90454648Y-98540500D01*
X90586019Y-98512576D01*
X90639803Y-98501144D01*
X90812730Y-98424151D01*
X90909325Y-98353971D01*
X90965870Y-98312889D01*
X91092533Y-98172216D01*
X91187179Y-98008284D01*
X91206220Y-97949682D01*
X91245674Y-97828256D01*
X91265460Y-97640000D01*
X91254899Y-97539520D01*
X91263412Y-97479709D01*
X91299179Y-97431017D01*
X91353710Y-97405007D01*
X91414060Y-97407853D01*
G37*
%TD.AperFunction*%
%TA.AperFunction,Conductor*%
G36*
X60793000Y-93141613D02*
G01*
X60838387Y-93187000D01*
X60855000Y-93249000D01*
X60855000Y-94850000D01*
X61259177Y-94850000D01*
X61321177Y-94866613D01*
X61366564Y-94912000D01*
X61383177Y-94974001D01*
X61366564Y-95035999D01*
X61364278Y-95039960D01*
X61354313Y-95057218D01*
X61295820Y-95237242D01*
X61276034Y-95425500D01*
X61295820Y-95613757D01*
X61305931Y-95644874D01*
X61312000Y-95683192D01*
X61312000Y-100100790D01*
X61294008Y-100165119D01*
X61245254Y-100210781D01*
X61179886Y-100224524D01*
X61128029Y-100206285D01*
X61127471Y-100207483D01*
X61117636Y-100202897D01*
X61034745Y-100164244D01*
X60919331Y-100110425D01*
X60707974Y-100053792D01*
X60490000Y-100034722D01*
X60272025Y-100053792D01*
X60060668Y-100110425D01*
X59862361Y-100202898D01*
X59683122Y-100328402D01*
X59528405Y-100483119D01*
X59528404Y-100483121D01*
X59528402Y-100483123D01*
X59450565Y-100594287D01*
X59446575Y-100599985D01*
X59402257Y-100638850D01*
X59345000Y-100652861D01*
X59287743Y-100638850D01*
X59243425Y-100599985D01*
X59242182Y-100598210D01*
X59161598Y-100483123D01*
X59006877Y-100328402D01*
X58827639Y-100202898D01*
X58714943Y-100150347D01*
X58629331Y-100110425D01*
X58417974Y-100053792D01*
X58200000Y-100034722D01*
X57982025Y-100053792D01*
X57770668Y-100110425D01*
X57572361Y-100202898D01*
X57393122Y-100328402D01*
X57238403Y-100483121D01*
X57228055Y-100497900D01*
X57196408Y-100543098D01*
X57192189Y-100549123D01*
X57147871Y-100587989D01*
X57090614Y-100602000D01*
X52544544Y-100602000D01*
X52537057Y-100601774D01*
X52478151Y-100598210D01*
X52420110Y-100608846D01*
X52412711Y-100609972D01*
X52354141Y-100617085D01*
X52345017Y-100620545D01*
X52323416Y-100626566D01*
X52313815Y-100628326D01*
X52260001Y-100652545D01*
X52253085Y-100655410D01*
X52197923Y-100676331D01*
X52189891Y-100681875D01*
X52170350Y-100692896D01*
X52161453Y-100696900D01*
X52115005Y-100733289D01*
X52108976Y-100737726D01*
X52060417Y-100771244D01*
X52021287Y-100815412D01*
X52016155Y-100820864D01*
X51097181Y-101739840D01*
X51047818Y-101770090D01*
X50990102Y-101774632D01*
X50936615Y-101752477D01*
X50899015Y-101708454D01*
X50885500Y-101652159D01*
X50885500Y-95204538D01*
X50885726Y-95197051D01*
X50886249Y-95188409D01*
X50889289Y-95138154D01*
X50878647Y-95080088D01*
X50877526Y-95072728D01*
X50870414Y-95014142D01*
X50866954Y-95005021D01*
X50860928Y-94983400D01*
X50860624Y-94981742D01*
X50859172Y-94973815D01*
X50834953Y-94920003D01*
X50832094Y-94913101D01*
X50831676Y-94912000D01*
X50822132Y-94886832D01*
X50820796Y-94883308D01*
X50813893Y-94822465D01*
X50836946Y-94765737D01*
X50884332Y-94726959D01*
X50997830Y-94674035D01*
X51191401Y-94538495D01*
X51358495Y-94371401D01*
X51488426Y-94185839D01*
X51532743Y-94146976D01*
X51590000Y-94132965D01*
X51647257Y-94146976D01*
X51691573Y-94185839D01*
X51821505Y-94371401D01*
X51988599Y-94538495D01*
X52182170Y-94674035D01*
X52396337Y-94773903D01*
X52624592Y-94835063D01*
X52860000Y-94855659D01*
X53095408Y-94835063D01*
X53323663Y-94773903D01*
X53537830Y-94674035D01*
X53731401Y-94538495D01*
X53898495Y-94371401D01*
X54028426Y-94185839D01*
X54072743Y-94146976D01*
X54130000Y-94132965D01*
X54187257Y-94146976D01*
X54231573Y-94185839D01*
X54361505Y-94371401D01*
X54528599Y-94538495D01*
X54722170Y-94674035D01*
X54936337Y-94773903D01*
X55164592Y-94835063D01*
X55400000Y-94855659D01*
X55635408Y-94835063D01*
X55863663Y-94773903D01*
X56077830Y-94674035D01*
X56271401Y-94538495D01*
X56438495Y-94371401D01*
X56568426Y-94185839D01*
X56612743Y-94146976D01*
X56670000Y-94132965D01*
X56727257Y-94146976D01*
X56771573Y-94185839D01*
X56901505Y-94371401D01*
X57068599Y-94538495D01*
X57262170Y-94674035D01*
X57476337Y-94773903D01*
X57704592Y-94835063D01*
X57940000Y-94855659D01*
X58175408Y-94835063D01*
X58403663Y-94773903D01*
X58617830Y-94674035D01*
X58811401Y-94538495D01*
X58933717Y-94416178D01*
X58986460Y-94384885D01*
X59047752Y-94382696D01*
X59102597Y-94410149D01*
X59137577Y-94460528D01*
X59186647Y-94592088D01*
X59272811Y-94707188D01*
X59387910Y-94793352D01*
X59522624Y-94843597D01*
X59582176Y-94850000D01*
X60105000Y-94850000D01*
X60105000Y-93249000D01*
X60121613Y-93187000D01*
X60167000Y-93141613D01*
X60229000Y-93125000D01*
X60731000Y-93125000D01*
X60793000Y-93141613D01*
G37*
%TD.AperFunction*%
%TA.AperFunction,Conductor*%
G36*
X63237432Y-95211225D02*
G01*
X63289273Y-95242252D01*
X63943181Y-95896160D01*
X63970061Y-95936388D01*
X63979500Y-95983841D01*
X63979500Y-99954229D01*
X63966712Y-100009073D01*
X63930986Y-100052605D01*
X63879691Y-100075846D01*
X63823406Y-100074004D01*
X63747974Y-100053792D01*
X63530000Y-100034722D01*
X63312025Y-100053792D01*
X63100668Y-100110425D01*
X62902360Y-100202898D01*
X62883123Y-100216369D01*
X62820109Y-100238529D01*
X62754743Y-100224783D01*
X62705991Y-100179122D01*
X62688000Y-100114794D01*
X62688000Y-96233762D01*
X62701515Y-96177467D01*
X62739115Y-96133444D01*
X62787364Y-96098389D01*
X62846497Y-96032716D01*
X62914027Y-95957716D01*
X63008673Y-95793784D01*
X63067168Y-95613756D01*
X63086954Y-95425500D01*
X63078271Y-95342890D01*
X63086784Y-95283081D01*
X63122551Y-95234390D01*
X63177082Y-95208379D01*
X63237432Y-95211225D01*
G37*
%TD.AperFunction*%
%TA.AperFunction,Conductor*%
G36*
X35393000Y-75361613D02*
G01*
X35438387Y-75407000D01*
X35455000Y-75469000D01*
X35455000Y-77070000D01*
X35977824Y-77070000D01*
X36037375Y-77063597D01*
X36172089Y-77013352D01*
X36287188Y-76927188D01*
X36373352Y-76812089D01*
X36422422Y-76680528D01*
X36457401Y-76630149D01*
X36512246Y-76602696D01*
X36573539Y-76604885D01*
X36626285Y-76636181D01*
X36748599Y-76758495D01*
X36942170Y-76894035D01*
X37156337Y-76993903D01*
X37384592Y-77055063D01*
X37620000Y-77075659D01*
X37855408Y-77055063D01*
X38083663Y-76993903D01*
X38297830Y-76894035D01*
X38491401Y-76758495D01*
X38658495Y-76591401D01*
X38788426Y-76405839D01*
X38832743Y-76366975D01*
X38890000Y-76352964D01*
X38947257Y-76366975D01*
X38991573Y-76405839D01*
X39121505Y-76591401D01*
X39288599Y-76758495D01*
X39482170Y-76894035D01*
X39696337Y-76993903D01*
X39924592Y-77055063D01*
X40160000Y-77075659D01*
X40395408Y-77055063D01*
X40623663Y-76993903D01*
X40837830Y-76894035D01*
X41031401Y-76758495D01*
X41198495Y-76591401D01*
X41328426Y-76405839D01*
X41372743Y-76366975D01*
X41430000Y-76352964D01*
X41487257Y-76366975D01*
X41531573Y-76405839D01*
X41661505Y-76591401D01*
X41828599Y-76758495D01*
X42022170Y-76894035D01*
X42236337Y-76993903D01*
X42464592Y-77055063D01*
X42700000Y-77075659D01*
X42935408Y-77055063D01*
X43163663Y-76993903D01*
X43377830Y-76894035D01*
X43571401Y-76758495D01*
X43738495Y-76591401D01*
X43868426Y-76405839D01*
X43912743Y-76366975D01*
X43970000Y-76352964D01*
X44027257Y-76366975D01*
X44071573Y-76405839D01*
X44201505Y-76591401D01*
X44368599Y-76758495D01*
X44562170Y-76894035D01*
X44776337Y-76993903D01*
X45004592Y-77055063D01*
X45240000Y-77075659D01*
X45475408Y-77055063D01*
X45703663Y-76993903D01*
X45917830Y-76894035D01*
X46111401Y-76758495D01*
X46233329Y-76636566D01*
X46286072Y-76605273D01*
X46347365Y-76603084D01*
X46402209Y-76630537D01*
X46437189Y-76680916D01*
X46462603Y-76749054D01*
X46486204Y-76812331D01*
X46572454Y-76927546D01*
X46687669Y-77013796D01*
X46822517Y-77064091D01*
X46882127Y-77070500D01*
X48677872Y-77070499D01*
X48737483Y-77064091D01*
X48872331Y-77013796D01*
X48987546Y-76927546D01*
X49073796Y-76812331D01*
X49122810Y-76680916D01*
X49157789Y-76630537D01*
X49212634Y-76603084D01*
X49273927Y-76605273D01*
X49326673Y-76636569D01*
X49448599Y-76758495D01*
X49642170Y-76894035D01*
X49856337Y-76993903D01*
X50084592Y-77055063D01*
X50320000Y-77075659D01*
X50555408Y-77055063D01*
X50783663Y-76993903D01*
X50997830Y-76894035D01*
X51191401Y-76758495D01*
X51358495Y-76591401D01*
X51488426Y-76405839D01*
X51532743Y-76366975D01*
X51590000Y-76352964D01*
X51647257Y-76366975D01*
X51691573Y-76405839D01*
X51821505Y-76591401D01*
X51988599Y-76758495D01*
X52182170Y-76894035D01*
X52396337Y-76993903D01*
X52624592Y-77055063D01*
X52860000Y-77075659D01*
X53095408Y-77055063D01*
X53323663Y-76993903D01*
X53537830Y-76894035D01*
X53731401Y-76758495D01*
X53898495Y-76591401D01*
X54028426Y-76405839D01*
X54072743Y-76366975D01*
X54130000Y-76352964D01*
X54187257Y-76366975D01*
X54231573Y-76405839D01*
X54361505Y-76591401D01*
X54528599Y-76758495D01*
X54722170Y-76894035D01*
X54936337Y-76993903D01*
X55164592Y-77055063D01*
X55400000Y-77075659D01*
X55635408Y-77055063D01*
X55863663Y-76993903D01*
X56077830Y-76894035D01*
X56271401Y-76758495D01*
X56438495Y-76591401D01*
X56568426Y-76405839D01*
X56612743Y-76366975D01*
X56670000Y-76352964D01*
X56727257Y-76366975D01*
X56771573Y-76405839D01*
X56901505Y-76591401D01*
X57068599Y-76758495D01*
X57262170Y-76894035D01*
X57476337Y-76993903D01*
X57704592Y-77055063D01*
X57940000Y-77075659D01*
X58175408Y-77055063D01*
X58403663Y-76993903D01*
X58617830Y-76894035D01*
X58811401Y-76758495D01*
X58933717Y-76636178D01*
X58986460Y-76604885D01*
X59047752Y-76602696D01*
X59102597Y-76630149D01*
X59137577Y-76680528D01*
X59186647Y-76812088D01*
X59272811Y-76927188D01*
X59387910Y-77013352D01*
X59522624Y-77063597D01*
X59582176Y-77070000D01*
X60105000Y-77070000D01*
X60105000Y-75469000D01*
X60121613Y-75407000D01*
X60167000Y-75361613D01*
X60229000Y-75345000D01*
X60731000Y-75345000D01*
X60793000Y-75361613D01*
X60838387Y-75407000D01*
X60855000Y-75469000D01*
X60855000Y-77070000D01*
X61377824Y-77070000D01*
X61437375Y-77063597D01*
X61572089Y-77013352D01*
X61687188Y-76927188D01*
X61773352Y-76812089D01*
X61822422Y-76680528D01*
X61857401Y-76630149D01*
X61912246Y-76602696D01*
X61973539Y-76604885D01*
X62026285Y-76636181D01*
X62148599Y-76758495D01*
X62342170Y-76894035D01*
X62556337Y-76993903D01*
X62784592Y-77055063D01*
X63020000Y-77075659D01*
X63255408Y-77055063D01*
X63483663Y-76993903D01*
X63697830Y-76894035D01*
X63891401Y-76758495D01*
X64058495Y-76591401D01*
X64188426Y-76405839D01*
X64232743Y-76366975D01*
X64290000Y-76352964D01*
X64347257Y-76366975D01*
X64391573Y-76405839D01*
X64521505Y-76591401D01*
X64688599Y-76758495D01*
X64882170Y-76894035D01*
X65096337Y-76993903D01*
X65324592Y-77055063D01*
X65560000Y-77075659D01*
X65795408Y-77055063D01*
X66023663Y-76993903D01*
X66237830Y-76894035D01*
X66431401Y-76758495D01*
X66598495Y-76591401D01*
X66728426Y-76405839D01*
X66772743Y-76366975D01*
X66830000Y-76352964D01*
X66887257Y-76366975D01*
X66931573Y-76405839D01*
X67061505Y-76591401D01*
X67228599Y-76758495D01*
X67422170Y-76894035D01*
X67636337Y-76993903D01*
X67864592Y-77055063D01*
X68100000Y-77075659D01*
X68335408Y-77055063D01*
X68563663Y-76993903D01*
X68777830Y-76894035D01*
X68971401Y-76758495D01*
X69138495Y-76591401D01*
X69268426Y-76405839D01*
X69312743Y-76366975D01*
X69370000Y-76352964D01*
X69427257Y-76366975D01*
X69471573Y-76405839D01*
X69601505Y-76591401D01*
X69768599Y-76758495D01*
X69962170Y-76894035D01*
X70176337Y-76993903D01*
X70404592Y-77055063D01*
X70640000Y-77075659D01*
X70875408Y-77055063D01*
X71103663Y-76993903D01*
X71317830Y-76894035D01*
X71511401Y-76758495D01*
X71633717Y-76636178D01*
X71686460Y-76604885D01*
X71747752Y-76602696D01*
X71802597Y-76630149D01*
X71837577Y-76680528D01*
X71886647Y-76812088D01*
X71972811Y-76927188D01*
X72087910Y-77013352D01*
X72222624Y-77063597D01*
X72282176Y-77070000D01*
X72805000Y-77070000D01*
X72805000Y-75469000D01*
X72821613Y-75407000D01*
X72867000Y-75361613D01*
X72929000Y-75345000D01*
X73431000Y-75345000D01*
X73493000Y-75361613D01*
X73538387Y-75407000D01*
X73555000Y-75469000D01*
X73555000Y-77070000D01*
X73597658Y-77070000D01*
X73653953Y-77083515D01*
X73697976Y-77121115D01*
X73720131Y-77174602D01*
X73715589Y-77232318D01*
X73685339Y-77281681D01*
X61313364Y-89653655D01*
X61307912Y-89658787D01*
X61263743Y-89697918D01*
X61230218Y-89746486D01*
X61225783Y-89752513D01*
X61189399Y-89798956D01*
X61185396Y-89807850D01*
X61174378Y-89827385D01*
X61168833Y-89835418D01*
X61147903Y-89890604D01*
X61145038Y-89897520D01*
X61120826Y-89951315D01*
X61119068Y-89960912D01*
X61113044Y-89982521D01*
X61109586Y-89991638D01*
X61102474Y-90050208D01*
X61101347Y-90057609D01*
X61090710Y-90115651D01*
X61094274Y-90174551D01*
X61094500Y-90182038D01*
X61094500Y-90810131D01*
X61086264Y-90854569D01*
X61062651Y-90893101D01*
X61044255Y-90913532D01*
X61017464Y-90943286D01*
X60922820Y-91107215D01*
X60864326Y-91287242D01*
X60864325Y-91287244D01*
X60864326Y-91287244D01*
X60845805Y-91463463D01*
X60825286Y-91519840D01*
X60780700Y-91559985D01*
X60722485Y-91574500D01*
X56662038Y-91574500D01*
X56654551Y-91574274D01*
X56595651Y-91570710D01*
X56537609Y-91581347D01*
X56530208Y-91582474D01*
X56471638Y-91589586D01*
X56462521Y-91593044D01*
X56440912Y-91599068D01*
X56431315Y-91600826D01*
X56377520Y-91625038D01*
X56370604Y-91627903D01*
X56315418Y-91648833D01*
X56307385Y-91654378D01*
X56287850Y-91665396D01*
X56278956Y-91669399D01*
X56232513Y-91705783D01*
X56226486Y-91710218D01*
X56177918Y-91743743D01*
X56138787Y-91787912D01*
X56133655Y-91793364D01*
X55785936Y-92141083D01*
X55730349Y-92173177D01*
X55666162Y-92173177D01*
X55635407Y-92164936D01*
X55399999Y-92144340D01*
X55164592Y-92164936D01*
X54936336Y-92226097D01*
X54722170Y-92325965D01*
X54528598Y-92461505D01*
X54361508Y-92628595D01*
X54231574Y-92814160D01*
X54187255Y-92853026D01*
X54129999Y-92867036D01*
X54072742Y-92853025D01*
X54028426Y-92814161D01*
X53898495Y-92628599D01*
X53731401Y-92461505D01*
X53537830Y-92325965D01*
X53323663Y-92226097D01*
X53251074Y-92206647D01*
X53095407Y-92164936D01*
X52860000Y-92144340D01*
X52624592Y-92164936D01*
X52396336Y-92226097D01*
X52182170Y-92325965D01*
X51988598Y-92461505D01*
X51821508Y-92628595D01*
X51691574Y-92814160D01*
X51647255Y-92853026D01*
X51589999Y-92867036D01*
X51532742Y-92853025D01*
X51488426Y-92814161D01*
X51358495Y-92628599D01*
X51191401Y-92461505D01*
X50997830Y-92325965D01*
X50783663Y-92226097D01*
X50711074Y-92206647D01*
X50555407Y-92164936D01*
X50320000Y-92144340D01*
X50084592Y-92164936D01*
X49848836Y-92228106D01*
X49779057Y-92226465D01*
X49721218Y-92187394D01*
X49693647Y-92123274D01*
X49690414Y-92096642D01*
X49678207Y-92064454D01*
X49673754Y-92050163D01*
X49665516Y-92016739D01*
X49649518Y-91986259D01*
X49643374Y-91972609D01*
X49631168Y-91940422D01*
X49611613Y-91912092D01*
X49603865Y-91899276D01*
X49587871Y-91868801D01*
X49565051Y-91843042D01*
X49555817Y-91831256D01*
X49536257Y-91802919D01*
X49510492Y-91780093D01*
X49499904Y-91769506D01*
X49477079Y-91743742D01*
X49477078Y-91743741D01*
X49448739Y-91724180D01*
X49436970Y-91714960D01*
X49411199Y-91692129D01*
X49411197Y-91692127D01*
X49380721Y-91676132D01*
X49367909Y-91668387D01*
X49339579Y-91648833D01*
X49339578Y-91648832D01*
X49339576Y-91648831D01*
X49307394Y-91636626D01*
X49293738Y-91630480D01*
X49263259Y-91614483D01*
X49229837Y-91606245D01*
X49215547Y-91601792D01*
X49183361Y-91589586D01*
X49149188Y-91585437D01*
X49134460Y-91582738D01*
X49133389Y-91582474D01*
X49101038Y-91574500D01*
X49101037Y-91574500D01*
X41422038Y-91574500D01*
X41414551Y-91574274D01*
X41355651Y-91570710D01*
X41297609Y-91581347D01*
X41290208Y-91582474D01*
X41231638Y-91589586D01*
X41222521Y-91593044D01*
X41200912Y-91599068D01*
X41191315Y-91600826D01*
X41137520Y-91625038D01*
X41130604Y-91627903D01*
X41075418Y-91648833D01*
X41067385Y-91654378D01*
X41047850Y-91665396D01*
X41038956Y-91669399D01*
X40992513Y-91705783D01*
X40986486Y-91710218D01*
X40937918Y-91743743D01*
X40898787Y-91787912D01*
X40893655Y-91793364D01*
X40545936Y-92141083D01*
X40490349Y-92173177D01*
X40426162Y-92173177D01*
X40395407Y-92164936D01*
X40159999Y-92144340D01*
X39924592Y-92164936D01*
X39696336Y-92226097D01*
X39482170Y-92325965D01*
X39288598Y-92461505D01*
X39121508Y-92628595D01*
X38991574Y-92814160D01*
X38947255Y-92853026D01*
X38889999Y-92867036D01*
X38832742Y-92853025D01*
X38788426Y-92814161D01*
X38658495Y-92628599D01*
X38491401Y-92461505D01*
X38297830Y-92325965D01*
X38083663Y-92226097D01*
X38011074Y-92206647D01*
X37855407Y-92164936D01*
X37620000Y-92144340D01*
X37384592Y-92164936D01*
X37156336Y-92226097D01*
X36942170Y-92325965D01*
X36748601Y-92461503D01*
X36626285Y-92583819D01*
X36573539Y-92615114D01*
X36512246Y-92617303D01*
X36457401Y-92589850D01*
X36422422Y-92539471D01*
X36373352Y-92407911D01*
X36287188Y-92292811D01*
X36172089Y-92206647D01*
X36037375Y-92156402D01*
X35977824Y-92150000D01*
X35455000Y-92150000D01*
X35455000Y-94850000D01*
X35497658Y-94850000D01*
X35553953Y-94863515D01*
X35597976Y-94901115D01*
X35620131Y-94954602D01*
X35615589Y-95012318D01*
X35585339Y-95061681D01*
X30693364Y-99953655D01*
X30687912Y-99958787D01*
X30643743Y-99997918D01*
X30610218Y-100046486D01*
X30605783Y-100052513D01*
X30588762Y-100074240D01*
X30546057Y-100108951D01*
X30492537Y-100121762D01*
X30449983Y-100112577D01*
X30449808Y-100113233D01*
X30439331Y-100110425D01*
X30439330Y-100110425D01*
X30263663Y-100063355D01*
X30227974Y-100053792D01*
X30009999Y-100034722D01*
X29889290Y-100045282D01*
X29836073Y-100038276D01*
X29790803Y-100009435D01*
X29036819Y-99255451D01*
X29009939Y-99215223D01*
X29000500Y-99167770D01*
X29000500Y-94687001D01*
X29018491Y-94622673D01*
X29067243Y-94577012D01*
X29132610Y-94563266D01*
X29195623Y-94585426D01*
X29205139Y-94592089D01*
X29322170Y-94674035D01*
X29536337Y-94773903D01*
X29764592Y-94835063D01*
X30000000Y-94855659D01*
X30235408Y-94835063D01*
X30463663Y-94773903D01*
X30677830Y-94674035D01*
X30871401Y-94538495D01*
X31038495Y-94371401D01*
X31168426Y-94185839D01*
X31212743Y-94146976D01*
X31270000Y-94132965D01*
X31327257Y-94146976D01*
X31371573Y-94185839D01*
X31501505Y-94371401D01*
X31668599Y-94538495D01*
X31862170Y-94674035D01*
X32076337Y-94773903D01*
X32304592Y-94835063D01*
X32540000Y-94855659D01*
X32775408Y-94835063D01*
X33003663Y-94773903D01*
X33217830Y-94674035D01*
X33411401Y-94538495D01*
X33533717Y-94416178D01*
X33586460Y-94384885D01*
X33647752Y-94382696D01*
X33702597Y-94410149D01*
X33737577Y-94460528D01*
X33786647Y-94592088D01*
X33872811Y-94707188D01*
X33987910Y-94793352D01*
X34122624Y-94843597D01*
X34182176Y-94850000D01*
X34705000Y-94850000D01*
X34705000Y-92150000D01*
X34182176Y-92150000D01*
X34122624Y-92156402D01*
X33987910Y-92206647D01*
X33872811Y-92292811D01*
X33786646Y-92407913D01*
X33737576Y-92539472D01*
X33702597Y-92589850D01*
X33647753Y-92617303D01*
X33586460Y-92615114D01*
X33533714Y-92583818D01*
X33411404Y-92461508D01*
X33411401Y-92461505D01*
X33217830Y-92325965D01*
X33003663Y-92226097D01*
X32931074Y-92206647D01*
X32775407Y-92164936D01*
X32540000Y-92144340D01*
X32304592Y-92164936D01*
X32076336Y-92226097D01*
X31862170Y-92325965D01*
X31668598Y-92461505D01*
X31501508Y-92628595D01*
X31371574Y-92814160D01*
X31327255Y-92853026D01*
X31269999Y-92867036D01*
X31212742Y-92853025D01*
X31168426Y-92814161D01*
X31038495Y-92628599D01*
X30871401Y-92461505D01*
X30677830Y-92325965D01*
X30463663Y-92226097D01*
X30391074Y-92206647D01*
X30235407Y-92164936D01*
X30000000Y-92144340D01*
X29764592Y-92164936D01*
X29536336Y-92226097D01*
X29393269Y-92292811D01*
X29322171Y-92325965D01*
X29195620Y-92414576D01*
X29132610Y-92436735D01*
X29067243Y-92422989D01*
X29018491Y-92377328D01*
X29000500Y-92313000D01*
X29000500Y-86924335D01*
X34799500Y-86924335D01*
X34840429Y-87169614D01*
X34921172Y-87404810D01*
X35039526Y-87623509D01*
X35039529Y-87623514D01*
X35175036Y-87797612D01*
X35192262Y-87819744D01*
X35375215Y-87988164D01*
X35583393Y-88124173D01*
X35811119Y-88224063D01*
X36052179Y-88285108D01*
X36126480Y-88291264D01*
X36237927Y-88300500D01*
X36237933Y-88300500D01*
X38562067Y-88300500D01*
X38562073Y-88300500D01*
X38663387Y-88292104D01*
X38747821Y-88285108D01*
X38988881Y-88224063D01*
X39216607Y-88124173D01*
X39424785Y-87988164D01*
X39607738Y-87819744D01*
X39760474Y-87623509D01*
X39878828Y-87404810D01*
X39959571Y-87169614D01*
X40000500Y-86924335D01*
X40000500Y-86675665D01*
X39959571Y-86430386D01*
X39878828Y-86195190D01*
X39760474Y-85976491D01*
X39760471Y-85976487D01*
X39760470Y-85976485D01*
X39607740Y-85780259D01*
X39607738Y-85780256D01*
X39424785Y-85611836D01*
X39216607Y-85475827D01*
X39216604Y-85475825D01*
X39091523Y-85420960D01*
X38988881Y-85375937D01*
X38747821Y-85314892D01*
X38747819Y-85314891D01*
X38747816Y-85314891D01*
X38562073Y-85299500D01*
X38562067Y-85299500D01*
X36237933Y-85299500D01*
X36237927Y-85299500D01*
X36052183Y-85314891D01*
X36052179Y-85314891D01*
X36052179Y-85314892D01*
X35811119Y-85375937D01*
X35811116Y-85375938D01*
X35811117Y-85375938D01*
X35583395Y-85475825D01*
X35444607Y-85566499D01*
X35375215Y-85611836D01*
X35375213Y-85611837D01*
X35375214Y-85611837D01*
X35192259Y-85780259D01*
X35039529Y-85976485D01*
X34921170Y-86195194D01*
X34840429Y-86430384D01*
X34840429Y-86430386D01*
X34799500Y-86675665D01*
X34799500Y-86924335D01*
X29000500Y-86924335D01*
X29000500Y-82375000D01*
X32500000Y-82375000D01*
X32500000Y-83162049D01*
X32515386Y-83347732D01*
X32576413Y-83588721D01*
X32676266Y-83816365D01*
X32812233Y-84024477D01*
X32980596Y-84207368D01*
X33176766Y-84360053D01*
X33395394Y-84478369D01*
X33624999Y-84557192D01*
X33625000Y-84557192D01*
X33625000Y-82375000D01*
X34375000Y-82375000D01*
X34375000Y-84557192D01*
X34604605Y-84478369D01*
X34823233Y-84360053D01*
X34838887Y-84347869D01*
X38799500Y-84347869D01*
X38800810Y-84360053D01*
X38805909Y-84407483D01*
X38856204Y-84542331D01*
X38942454Y-84657546D01*
X39057669Y-84743796D01*
X39192517Y-84794091D01*
X39252127Y-84800500D01*
X41347872Y-84800499D01*
X41407483Y-84794091D01*
X41542331Y-84743796D01*
X41657546Y-84657546D01*
X41743796Y-84542331D01*
X41794091Y-84407483D01*
X41800500Y-84347873D01*
X41800499Y-79652128D01*
X41794091Y-79592517D01*
X41743796Y-79457669D01*
X41657546Y-79342454D01*
X41542331Y-79256204D01*
X41407483Y-79205909D01*
X41347873Y-79199500D01*
X41347869Y-79199500D01*
X39252130Y-79199500D01*
X39192515Y-79205909D01*
X39057669Y-79256204D01*
X38942454Y-79342454D01*
X38856204Y-79457668D01*
X38805909Y-79592516D01*
X38799500Y-79652130D01*
X38799500Y-84347869D01*
X34838887Y-84347869D01*
X35019403Y-84207368D01*
X35187766Y-84024477D01*
X35323733Y-83816365D01*
X35423586Y-83588721D01*
X35484613Y-83347732D01*
X35500000Y-83162049D01*
X35500000Y-82375000D01*
X34375000Y-82375000D01*
X33625000Y-82375000D01*
X32500000Y-82375000D01*
X29000500Y-82375000D01*
X29000500Y-81625000D01*
X32500000Y-81625000D01*
X33625000Y-81625000D01*
X33625000Y-79442808D01*
X33624999Y-79442807D01*
X34375000Y-79442807D01*
X34375000Y-81625000D01*
X35500000Y-81625000D01*
X35500000Y-80837951D01*
X35484613Y-80652267D01*
X35423586Y-80411278D01*
X35323733Y-80183634D01*
X35187766Y-79975522D01*
X35019403Y-79792631D01*
X34823233Y-79639946D01*
X34604605Y-79521630D01*
X34375000Y-79442807D01*
X33624999Y-79442807D01*
X33395394Y-79521630D01*
X33176766Y-79639946D01*
X32980596Y-79792631D01*
X32812233Y-79975522D01*
X32676266Y-80183634D01*
X32576413Y-80411278D01*
X32515386Y-80652267D01*
X32500000Y-80837951D01*
X32500000Y-81625000D01*
X29000500Y-81625000D01*
X29000500Y-76907001D01*
X29018491Y-76842673D01*
X29067243Y-76797012D01*
X29132610Y-76783266D01*
X29195623Y-76805426D01*
X29248818Y-76842673D01*
X29322170Y-76894035D01*
X29536337Y-76993903D01*
X29764592Y-77055063D01*
X30000000Y-77075659D01*
X30235408Y-77055063D01*
X30463663Y-76993903D01*
X30677830Y-76894035D01*
X30871401Y-76758495D01*
X31038495Y-76591401D01*
X31168426Y-76405839D01*
X31212743Y-76366975D01*
X31270000Y-76352964D01*
X31327257Y-76366975D01*
X31371573Y-76405839D01*
X31501505Y-76591401D01*
X31668599Y-76758495D01*
X31862170Y-76894035D01*
X32076337Y-76993903D01*
X32304592Y-77055063D01*
X32540000Y-77075659D01*
X32775408Y-77055063D01*
X33003663Y-76993903D01*
X33217830Y-76894035D01*
X33411401Y-76758495D01*
X33533717Y-76636178D01*
X33586460Y-76604885D01*
X33647752Y-76602696D01*
X33702597Y-76630149D01*
X33737577Y-76680528D01*
X33786647Y-76812088D01*
X33872811Y-76927188D01*
X33987910Y-77013352D01*
X34122624Y-77063597D01*
X34182176Y-77070000D01*
X34705000Y-77070000D01*
X34705000Y-75469000D01*
X34721613Y-75407000D01*
X34767000Y-75361613D01*
X34829000Y-75345000D01*
X35331000Y-75345000D01*
X35393000Y-75361613D01*
G37*
%TD.AperFunction*%
%TD*%
M02*
