G04 #@! TF.GenerationSoftware,KiCad,Pcbnew,7.0.1*
G04 #@! TF.CreationDate,2023-08-26T14:25:07-05:00*
G04 #@! TF.ProjectId,Shift In Breakout Board V2,53686966-7420-4496-9e20-427265616b6f,rev?*
G04 #@! TF.SameCoordinates,Original*
G04 #@! TF.FileFunction,Copper,L2,Bot*
G04 #@! TF.FilePolarity,Positive*
%FSLAX46Y46*%
G04 Gerber Fmt 4.6, Leading zero omitted, Abs format (unit mm)*
G04 Created by KiCad (PCBNEW 7.0.1) date 2023-08-26 14:25:07*
%MOMM*%
%LPD*%
G01*
G04 APERTURE LIST*
G04 Aperture macros list*
%AMRoundRect*
0 Rectangle with rounded corners*
0 $1 Rounding radius*
0 $2 $3 $4 $5 $6 $7 $8 $9 X,Y pos of 4 corners*
0 Add a 4 corners polygon primitive as box body*
4,1,4,$2,$3,$4,$5,$6,$7,$8,$9,$2,$3,0*
0 Add four circle primitives for the rounded corners*
1,1,$1+$1,$2,$3*
1,1,$1+$1,$4,$5*
1,1,$1+$1,$6,$7*
1,1,$1+$1,$8,$9*
0 Add four rect primitives between the rounded corners*
20,1,$1+$1,$2,$3,$4,$5,0*
20,1,$1+$1,$4,$5,$6,$7,0*
20,1,$1+$1,$6,$7,$8,$9,0*
20,1,$1+$1,$8,$9,$2,$3,0*%
G04 Aperture macros list end*
G04 #@! TA.AperFunction,ComponentPad*
%ADD10RoundRect,0.250000X0.620000X0.845000X-0.620000X0.845000X-0.620000X-0.845000X0.620000X-0.845000X0*%
G04 #@! TD*
G04 #@! TA.AperFunction,ComponentPad*
%ADD11O,1.740000X2.190000*%
G04 #@! TD*
G04 #@! TA.AperFunction,ComponentPad*
%ADD12RoundRect,0.250000X-0.845000X0.620000X-0.845000X-0.620000X0.845000X-0.620000X0.845000X0.620000X0*%
G04 #@! TD*
G04 #@! TA.AperFunction,ComponentPad*
%ADD13O,2.190000X1.740000*%
G04 #@! TD*
G04 #@! TA.AperFunction,ComponentPad*
%ADD14R,1.700000X1.700000*%
G04 #@! TD*
G04 #@! TA.AperFunction,ComponentPad*
%ADD15RoundRect,0.250000X0.845000X-0.620000X0.845000X0.620000X-0.845000X0.620000X-0.845000X-0.620000X0*%
G04 #@! TD*
G04 #@! TA.AperFunction,ViaPad*
%ADD16C,0.800000*%
G04 #@! TD*
G04 #@! TA.AperFunction,Conductor*
%ADD17C,0.500000*%
G04 #@! TD*
G04 APERTURE END LIST*
D10*
X155689949Y-102310051D03*
D11*
X153149949Y-102310051D03*
D12*
X184169949Y-83230051D03*
D13*
X184169949Y-85770051D03*
X184169949Y-88310051D03*
X184169949Y-90850051D03*
X184169949Y-93390051D03*
D10*
X135689949Y-102310051D03*
D11*
X133149949Y-102310051D03*
D10*
X125689949Y-102310051D03*
D11*
X123149949Y-102310051D03*
D14*
X138149949Y-102310051D03*
X128149949Y-102310051D03*
D10*
X165689949Y-102310051D03*
D11*
X163149949Y-102310051D03*
D15*
X114709949Y-93390051D03*
D13*
X114709949Y-90850051D03*
X114709949Y-88310051D03*
X114709949Y-85770051D03*
X114709949Y-83230051D03*
D14*
X118149949Y-102310051D03*
D10*
X175689949Y-102310051D03*
D11*
X173149949Y-102310051D03*
D14*
X178149949Y-102310051D03*
X148149949Y-102310051D03*
X188149949Y-102310051D03*
X168149949Y-102310051D03*
D10*
X115689949Y-102310051D03*
D11*
X113149949Y-102310051D03*
D10*
X185689949Y-102310051D03*
D11*
X183149949Y-102310051D03*
D10*
X145689949Y-102310051D03*
D11*
X143149949Y-102310051D03*
D14*
X158149949Y-102310051D03*
D16*
X159100000Y-89775000D03*
X155448000Y-89916000D03*
X146558000Y-84963000D03*
X154175000Y-85025000D03*
X155445000Y-85025000D03*
D17*
X158959000Y-89916000D02*
X159100000Y-89775000D01*
X155448000Y-89916000D02*
X158959000Y-89916000D01*
X116367000Y-84113000D02*
X153263000Y-84113000D01*
X153263000Y-84113000D02*
X154175000Y-85025000D01*
X114709949Y-85770051D02*
X116367000Y-84113000D01*
X113938187Y-81910051D02*
X152330051Y-81910051D01*
X152330051Y-81910051D02*
X155445000Y-85025000D01*
X155025000Y-85875000D02*
X154175000Y-85025000D01*
X180689949Y-83810051D02*
X171189949Y-83810051D01*
X182649949Y-85770051D02*
X180689949Y-83810051D01*
X169125000Y-85875000D02*
X155025000Y-85875000D01*
X184169949Y-85770051D02*
X182649949Y-85770051D01*
X171189949Y-83810051D02*
X169125000Y-85875000D01*
X155959949Y-84510051D02*
X155445000Y-85025000D01*
X158564949Y-84510051D02*
X155959949Y-84510051D01*
X185714949Y-82320102D02*
X185304898Y-81910051D01*
X161164949Y-81910051D02*
X158564949Y-84510051D01*
X185714949Y-86765051D02*
X185714949Y-82320102D01*
X113164949Y-86765051D02*
X113164949Y-82683289D01*
X185304898Y-81910051D02*
X161164949Y-81910051D01*
X114709949Y-88310051D02*
X113164949Y-86765051D01*
X113164949Y-82683289D02*
X113938187Y-81910051D01*
X184169949Y-88310051D02*
X185714949Y-86765051D01*
G04 #@! TA.AperFunction,Conductor*
G36*
X188504043Y-80310816D02*
G01*
X188585933Y-80316183D01*
X188586534Y-80316224D01*
X188761203Y-80328686D01*
X188776539Y-80330751D01*
X188891141Y-80353547D01*
X188893249Y-80353986D01*
X189029798Y-80383691D01*
X189043277Y-80387432D01*
X189159351Y-80426834D01*
X189162711Y-80428031D01*
X189270064Y-80468072D01*
X189288337Y-80474888D01*
X189299846Y-80479857D01*
X189411714Y-80535025D01*
X189416297Y-80537405D01*
X189531996Y-80600582D01*
X189541441Y-80606300D01*
X189646069Y-80676211D01*
X189651436Y-80680009D01*
X189756235Y-80758462D01*
X189763622Y-80764451D01*
X189858556Y-80847708D01*
X189864466Y-80853245D01*
X189956790Y-80945571D01*
X189962337Y-80951494D01*
X190045547Y-81046380D01*
X190051586Y-81053828D01*
X190130007Y-81158589D01*
X190133842Y-81164009D01*
X190203712Y-81268581D01*
X190209442Y-81278045D01*
X190272618Y-81393748D01*
X190274998Y-81398331D01*
X190330157Y-81510187D01*
X190335127Y-81521698D01*
X190381968Y-81647291D01*
X190383205Y-81650766D01*
X190422578Y-81766764D01*
X190426325Y-81780264D01*
X190456014Y-81916756D01*
X190456465Y-81918923D01*
X190479260Y-82033532D01*
X190481326Y-82048879D01*
X190493378Y-82217457D01*
X190493429Y-82218190D01*
X190499235Y-82306783D01*
X190499500Y-82314892D01*
X190499500Y-105305989D01*
X190499235Y-105314097D01*
X190494197Y-105390977D01*
X190494145Y-105391733D01*
X190481225Y-105572001D01*
X190479160Y-105587325D01*
X190457604Y-105695709D01*
X190457153Y-105697877D01*
X190426088Y-105840693D01*
X190422341Y-105854193D01*
X190384325Y-105966192D01*
X190383087Y-105969668D01*
X190334739Y-106099299D01*
X190329771Y-106110808D01*
X190276098Y-106219653D01*
X190273717Y-106224237D01*
X190208866Y-106343007D01*
X190203136Y-106352471D01*
X190134909Y-106454583D01*
X190131074Y-106460003D01*
X190050783Y-106567262D01*
X190044745Y-106574710D01*
X189963371Y-106667504D01*
X189957832Y-106673417D01*
X189910595Y-106720655D01*
X189863356Y-106767896D01*
X189857434Y-106773443D01*
X189764662Y-106854803D01*
X189757213Y-106860842D01*
X189649921Y-106941161D01*
X189644503Y-106944995D01*
X189542425Y-107013204D01*
X189532959Y-107018935D01*
X189414171Y-107083799D01*
X189409588Y-107086179D01*
X189300754Y-107139850D01*
X189289245Y-107144819D01*
X189159599Y-107193176D01*
X189156123Y-107194414D01*
X189044140Y-107232428D01*
X189030639Y-107236175D01*
X188887822Y-107267243D01*
X188885656Y-107267694D01*
X188777301Y-107289248D01*
X188761955Y-107291315D01*
X188576018Y-107304613D01*
X188575282Y-107304664D01*
X188504780Y-107309285D01*
X188496670Y-107309550D01*
X111694011Y-107309550D01*
X111685905Y-107309285D01*
X111677347Y-107308724D01*
X111606597Y-107304088D01*
X111605862Y-107304037D01*
X111428376Y-107291347D01*
X111413030Y-107289281D01*
X111301625Y-107267123D01*
X111299459Y-107266672D01*
X111159725Y-107236278D01*
X111146222Y-107232531D01*
X111032234Y-107193838D01*
X111028761Y-107192601D01*
X110969306Y-107170427D01*
X110901136Y-107145002D01*
X110889646Y-107140041D01*
X110779288Y-107085620D01*
X110774735Y-107083256D01*
X110657443Y-107019211D01*
X110647996Y-107013491D01*
X110544662Y-106944446D01*
X110539280Y-106940637D01*
X110433218Y-106861241D01*
X110425771Y-106855203D01*
X110331962Y-106772936D01*
X110326039Y-106767388D01*
X110232610Y-106673959D01*
X110227062Y-106668036D01*
X110144795Y-106574227D01*
X110138757Y-106566780D01*
X110059351Y-106460705D01*
X110055563Y-106455352D01*
X109986498Y-106351988D01*
X109980796Y-106342569D01*
X109916724Y-106225228D01*
X109914397Y-106220748D01*
X109859949Y-106110334D01*
X109855005Y-106098882D01*
X109807382Y-105971196D01*
X109806160Y-105967764D01*
X109767460Y-105853753D01*
X109763724Y-105840289D01*
X109733315Y-105700487D01*
X109732891Y-105698451D01*
X109710714Y-105586952D01*
X109708653Y-105571641D01*
X109695934Y-105393757D01*
X109690715Y-105314095D01*
X109690450Y-105305990D01*
X109690450Y-105258193D01*
X109690449Y-105258188D01*
X109690449Y-102560051D01*
X111779949Y-102560051D01*
X111779949Y-102593249D01*
X111794772Y-102767415D01*
X111853538Y-102993105D01*
X111949595Y-103205608D01*
X112080185Y-103398823D01*
X112241552Y-103567190D01*
X112429050Y-103705863D01*
X112637288Y-103810854D01*
X112860275Y-103879143D01*
X112899949Y-103884223D01*
X112899949Y-103882626D01*
X113399949Y-103882626D01*
X113552570Y-103849733D01*
X113768954Y-103762783D01*
X113967543Y-103640507D01*
X114142603Y-103486435D01*
X114174673Y-103446718D01*
X114227939Y-103408390D01*
X114293306Y-103402613D01*
X114352469Y-103431005D01*
X114374428Y-103463961D01*
X114377527Y-103462050D01*
X114385134Y-103474384D01*
X114385135Y-103474385D01*
X114405767Y-103507836D01*
X114477237Y-103623708D01*
X114601291Y-103747762D01*
X114625644Y-103762783D01*
X114750615Y-103839865D01*
X114861965Y-103876763D01*
X114917151Y-103895050D01*
X114927651Y-103896122D01*
X115019940Y-103905551D01*
X116359957Y-103905550D01*
X116462746Y-103895050D01*
X116629283Y-103839865D01*
X116778605Y-103747763D01*
X116902661Y-103623707D01*
X116902664Y-103623701D01*
X116904380Y-103621986D01*
X116954306Y-103591555D01*
X117012627Y-103587384D01*
X117040308Y-103599238D01*
X117040914Y-103597616D01*
X117057615Y-103603845D01*
X117057618Y-103603847D01*
X117192466Y-103654142D01*
X117252076Y-103660551D01*
X119047821Y-103660550D01*
X119107432Y-103654142D01*
X119242280Y-103603847D01*
X119357495Y-103517597D01*
X119443745Y-103402382D01*
X119494040Y-103267534D01*
X119500449Y-103207924D01*
X119500448Y-102560051D01*
X121779949Y-102560051D01*
X121779949Y-102593249D01*
X121794772Y-102767415D01*
X121853538Y-102993105D01*
X121949595Y-103205608D01*
X122080185Y-103398823D01*
X122241552Y-103567190D01*
X122429050Y-103705863D01*
X122637288Y-103810854D01*
X122860275Y-103879143D01*
X122899949Y-103884223D01*
X122899949Y-103882626D01*
X123399949Y-103882626D01*
X123552570Y-103849733D01*
X123768954Y-103762783D01*
X123967543Y-103640507D01*
X124142603Y-103486435D01*
X124174673Y-103446718D01*
X124227939Y-103408390D01*
X124293306Y-103402613D01*
X124352469Y-103431005D01*
X124374428Y-103463961D01*
X124377527Y-103462050D01*
X124385134Y-103474384D01*
X124385135Y-103474385D01*
X124405767Y-103507836D01*
X124477237Y-103623708D01*
X124601291Y-103747762D01*
X124625644Y-103762783D01*
X124750615Y-103839865D01*
X124861965Y-103876763D01*
X124917151Y-103895050D01*
X124927651Y-103896122D01*
X125019940Y-103905551D01*
X126359957Y-103905550D01*
X126462746Y-103895050D01*
X126629283Y-103839865D01*
X126778605Y-103747763D01*
X126902661Y-103623707D01*
X126902664Y-103623701D01*
X126904380Y-103621986D01*
X126954306Y-103591555D01*
X127012627Y-103587384D01*
X127040308Y-103599238D01*
X127040914Y-103597616D01*
X127057615Y-103603845D01*
X127057618Y-103603847D01*
X127192466Y-103654142D01*
X127252076Y-103660551D01*
X129047821Y-103660550D01*
X129107432Y-103654142D01*
X129242280Y-103603847D01*
X129357495Y-103517597D01*
X129443745Y-103402382D01*
X129494040Y-103267534D01*
X129500449Y-103207924D01*
X129500448Y-102560051D01*
X131779949Y-102560051D01*
X131779949Y-102593249D01*
X131794772Y-102767415D01*
X131853538Y-102993105D01*
X131949595Y-103205608D01*
X132080185Y-103398823D01*
X132241552Y-103567190D01*
X132429050Y-103705863D01*
X132637288Y-103810854D01*
X132860275Y-103879143D01*
X132899949Y-103884224D01*
X132899949Y-103882626D01*
X133399949Y-103882626D01*
X133552570Y-103849733D01*
X133768954Y-103762783D01*
X133967543Y-103640507D01*
X134142603Y-103486435D01*
X134174673Y-103446718D01*
X134227939Y-103408390D01*
X134293306Y-103402613D01*
X134352469Y-103431005D01*
X134374428Y-103463961D01*
X134377527Y-103462050D01*
X134385134Y-103474384D01*
X134385135Y-103474385D01*
X134405767Y-103507836D01*
X134477237Y-103623708D01*
X134601291Y-103747762D01*
X134625644Y-103762783D01*
X134750615Y-103839865D01*
X134861965Y-103876763D01*
X134917151Y-103895050D01*
X134927651Y-103896122D01*
X135019940Y-103905551D01*
X136359957Y-103905550D01*
X136462746Y-103895050D01*
X136629283Y-103839865D01*
X136778605Y-103747763D01*
X136902661Y-103623707D01*
X136902664Y-103623701D01*
X136904380Y-103621986D01*
X136954306Y-103591555D01*
X137012627Y-103587384D01*
X137040308Y-103599238D01*
X137040914Y-103597616D01*
X137057615Y-103603845D01*
X137057618Y-103603847D01*
X137192466Y-103654142D01*
X137252076Y-103660551D01*
X139047821Y-103660550D01*
X139107432Y-103654142D01*
X139242280Y-103603847D01*
X139357495Y-103517597D01*
X139443745Y-103402382D01*
X139494040Y-103267534D01*
X139500449Y-103207924D01*
X139500448Y-102560051D01*
X141779949Y-102560051D01*
X141779949Y-102593249D01*
X141794772Y-102767415D01*
X141853538Y-102993105D01*
X141949595Y-103205608D01*
X142080185Y-103398823D01*
X142241552Y-103567190D01*
X142429050Y-103705863D01*
X142637288Y-103810854D01*
X142860275Y-103879143D01*
X142899949Y-103884223D01*
X142899949Y-103882626D01*
X143399949Y-103882626D01*
X143552570Y-103849733D01*
X143768954Y-103762783D01*
X143967543Y-103640507D01*
X144142603Y-103486435D01*
X144174673Y-103446718D01*
X144227939Y-103408390D01*
X144293306Y-103402613D01*
X144352469Y-103431005D01*
X144374428Y-103463961D01*
X144377527Y-103462050D01*
X144385134Y-103474384D01*
X144385135Y-103474385D01*
X144405767Y-103507836D01*
X144477237Y-103623708D01*
X144601291Y-103747762D01*
X144625644Y-103762783D01*
X144750615Y-103839865D01*
X144861965Y-103876763D01*
X144917151Y-103895050D01*
X144927651Y-103896122D01*
X145019940Y-103905551D01*
X146359957Y-103905550D01*
X146462746Y-103895050D01*
X146629283Y-103839865D01*
X146778605Y-103747763D01*
X146902661Y-103623707D01*
X146902664Y-103623701D01*
X146904380Y-103621986D01*
X146954306Y-103591555D01*
X147012627Y-103587384D01*
X147040308Y-103599238D01*
X147040914Y-103597616D01*
X147057615Y-103603845D01*
X147057618Y-103603847D01*
X147192466Y-103654142D01*
X147252076Y-103660551D01*
X149047821Y-103660550D01*
X149107432Y-103654142D01*
X149242280Y-103603847D01*
X149357495Y-103517597D01*
X149443745Y-103402382D01*
X149494040Y-103267534D01*
X149500449Y-103207924D01*
X149500448Y-102560051D01*
X151779949Y-102560051D01*
X151779949Y-102593249D01*
X151794772Y-102767415D01*
X151853538Y-102993105D01*
X151949595Y-103205608D01*
X152080185Y-103398823D01*
X152241552Y-103567190D01*
X152429050Y-103705863D01*
X152637288Y-103810854D01*
X152860275Y-103879143D01*
X152899949Y-103884223D01*
X152899949Y-103882626D01*
X153399949Y-103882626D01*
X153552570Y-103849733D01*
X153768954Y-103762783D01*
X153967543Y-103640507D01*
X154142603Y-103486435D01*
X154174673Y-103446718D01*
X154227939Y-103408390D01*
X154293306Y-103402613D01*
X154352469Y-103431005D01*
X154374428Y-103463961D01*
X154377527Y-103462050D01*
X154385134Y-103474384D01*
X154385135Y-103474385D01*
X154405767Y-103507836D01*
X154477237Y-103623708D01*
X154601291Y-103747762D01*
X154625644Y-103762783D01*
X154750615Y-103839865D01*
X154861965Y-103876763D01*
X154917151Y-103895050D01*
X154927651Y-103896122D01*
X155019940Y-103905551D01*
X156359957Y-103905550D01*
X156462746Y-103895050D01*
X156629283Y-103839865D01*
X156778605Y-103747763D01*
X156902661Y-103623707D01*
X156902664Y-103623701D01*
X156904380Y-103621986D01*
X156954306Y-103591555D01*
X157012627Y-103587384D01*
X157040308Y-103599238D01*
X157040914Y-103597616D01*
X157057615Y-103603845D01*
X157057618Y-103603847D01*
X157192466Y-103654142D01*
X157252076Y-103660551D01*
X159047821Y-103660550D01*
X159107432Y-103654142D01*
X159242280Y-103603847D01*
X159357495Y-103517597D01*
X159443745Y-103402382D01*
X159494040Y-103267534D01*
X159500449Y-103207924D01*
X159500448Y-102560051D01*
X161779949Y-102560051D01*
X161779949Y-102593249D01*
X161794772Y-102767415D01*
X161853538Y-102993105D01*
X161949595Y-103205608D01*
X162080185Y-103398823D01*
X162241552Y-103567190D01*
X162429050Y-103705863D01*
X162637288Y-103810854D01*
X162860275Y-103879143D01*
X162899949Y-103884223D01*
X162899949Y-103882626D01*
X163399949Y-103882626D01*
X163552570Y-103849733D01*
X163768954Y-103762783D01*
X163967543Y-103640507D01*
X164142603Y-103486435D01*
X164174673Y-103446718D01*
X164227939Y-103408390D01*
X164293306Y-103402613D01*
X164352469Y-103431005D01*
X164374428Y-103463961D01*
X164377527Y-103462050D01*
X164385134Y-103474384D01*
X164385135Y-103474385D01*
X164405767Y-103507836D01*
X164477237Y-103623708D01*
X164601291Y-103747762D01*
X164625644Y-103762783D01*
X164750615Y-103839865D01*
X164861965Y-103876763D01*
X164917151Y-103895050D01*
X164927651Y-103896122D01*
X165019940Y-103905551D01*
X166359957Y-103905550D01*
X166462746Y-103895050D01*
X166629283Y-103839865D01*
X166778605Y-103747763D01*
X166902661Y-103623707D01*
X166902664Y-103623701D01*
X166904380Y-103621986D01*
X166954306Y-103591555D01*
X167012627Y-103587384D01*
X167040308Y-103599238D01*
X167040914Y-103597616D01*
X167057615Y-103603845D01*
X167057618Y-103603847D01*
X167192466Y-103654142D01*
X167252076Y-103660551D01*
X169047821Y-103660550D01*
X169107432Y-103654142D01*
X169242280Y-103603847D01*
X169357495Y-103517597D01*
X169443745Y-103402382D01*
X169494040Y-103267534D01*
X169500449Y-103207924D01*
X169500448Y-102560051D01*
X171779949Y-102560051D01*
X171779949Y-102593249D01*
X171794772Y-102767415D01*
X171853538Y-102993105D01*
X171949595Y-103205608D01*
X172080185Y-103398823D01*
X172241552Y-103567190D01*
X172429050Y-103705863D01*
X172637288Y-103810854D01*
X172860275Y-103879143D01*
X172899949Y-103884224D01*
X172899949Y-103882626D01*
X173399949Y-103882626D01*
X173552570Y-103849733D01*
X173768954Y-103762783D01*
X173967543Y-103640507D01*
X174142603Y-103486435D01*
X174174673Y-103446718D01*
X174227939Y-103408390D01*
X174293306Y-103402613D01*
X174352469Y-103431005D01*
X174374428Y-103463961D01*
X174377527Y-103462050D01*
X174385134Y-103474384D01*
X174385135Y-103474385D01*
X174405767Y-103507836D01*
X174477237Y-103623708D01*
X174601291Y-103747762D01*
X174625644Y-103762783D01*
X174750615Y-103839865D01*
X174861965Y-103876763D01*
X174917151Y-103895050D01*
X174927651Y-103896122D01*
X175019940Y-103905551D01*
X176359957Y-103905550D01*
X176462746Y-103895050D01*
X176629283Y-103839865D01*
X176778605Y-103747763D01*
X176902661Y-103623707D01*
X176902664Y-103623701D01*
X176904380Y-103621986D01*
X176954306Y-103591555D01*
X177012627Y-103587384D01*
X177040308Y-103599238D01*
X177040914Y-103597616D01*
X177057615Y-103603845D01*
X177057618Y-103603847D01*
X177192466Y-103654142D01*
X177252076Y-103660551D01*
X179047821Y-103660550D01*
X179107432Y-103654142D01*
X179242280Y-103603847D01*
X179357495Y-103517597D01*
X179443745Y-103402382D01*
X179494040Y-103267534D01*
X179500449Y-103207924D01*
X179500448Y-102560051D01*
X181779949Y-102560051D01*
X181779949Y-102593249D01*
X181794772Y-102767415D01*
X181853538Y-102993105D01*
X181949595Y-103205608D01*
X182080185Y-103398823D01*
X182241552Y-103567190D01*
X182429050Y-103705863D01*
X182637288Y-103810854D01*
X182860275Y-103879143D01*
X182899949Y-103884224D01*
X182899949Y-103882626D01*
X183399949Y-103882626D01*
X183552570Y-103849733D01*
X183768954Y-103762783D01*
X183967543Y-103640507D01*
X184142603Y-103486435D01*
X184174673Y-103446718D01*
X184227939Y-103408390D01*
X184293306Y-103402613D01*
X184352469Y-103431005D01*
X184374428Y-103463961D01*
X184377527Y-103462050D01*
X184385134Y-103474384D01*
X184385135Y-103474385D01*
X184405767Y-103507836D01*
X184477237Y-103623708D01*
X184601291Y-103747762D01*
X184625644Y-103762783D01*
X184750615Y-103839865D01*
X184861965Y-103876763D01*
X184917151Y-103895050D01*
X184927651Y-103896122D01*
X185019940Y-103905551D01*
X186359957Y-103905550D01*
X186462746Y-103895050D01*
X186629283Y-103839865D01*
X186778605Y-103747763D01*
X186902661Y-103623707D01*
X186902664Y-103623701D01*
X186904380Y-103621986D01*
X186954306Y-103591555D01*
X187012627Y-103587384D01*
X187040308Y-103599238D01*
X187040914Y-103597616D01*
X187057615Y-103603845D01*
X187057618Y-103603847D01*
X187192466Y-103654142D01*
X187252076Y-103660551D01*
X189047821Y-103660550D01*
X189107432Y-103654142D01*
X189242280Y-103603847D01*
X189357495Y-103517597D01*
X189443745Y-103402382D01*
X189494040Y-103267534D01*
X189500449Y-103207924D01*
X189500448Y-101412179D01*
X189494040Y-101352568D01*
X189443745Y-101217720D01*
X189357495Y-101102505D01*
X189242280Y-101016255D01*
X189107432Y-100965960D01*
X189047822Y-100959551D01*
X189047818Y-100959551D01*
X187252079Y-100959551D01*
X187192464Y-100965960D01*
X187040913Y-101022485D01*
X187040307Y-101020861D01*
X187012618Y-101032717D01*
X186954302Y-101028544D01*
X186904381Y-100998114D01*
X186778606Y-100872339D01*
X186629283Y-100780237D01*
X186462746Y-100725051D01*
X186359958Y-100714551D01*
X185019940Y-100714551D01*
X184917152Y-100725051D01*
X184750614Y-100780237D01*
X184601291Y-100872339D01*
X184477237Y-100996393D01*
X184377527Y-101158052D01*
X184374708Y-101156313D01*
X184354349Y-101187562D01*
X184298380Y-101216634D01*
X184235349Y-101214414D01*
X184181563Y-101181475D01*
X184058345Y-101052911D01*
X183870847Y-100914238D01*
X183662609Y-100809247D01*
X183439622Y-100740958D01*
X183399949Y-100735878D01*
X183399949Y-103882626D01*
X182899949Y-103882626D01*
X182899949Y-102560051D01*
X181779949Y-102560051D01*
X179500448Y-102560051D01*
X179500448Y-102060051D01*
X181779949Y-102060051D01*
X182899949Y-102060051D01*
X182899949Y-100737475D01*
X182747327Y-100770368D01*
X182530943Y-100857318D01*
X182332354Y-100979594D01*
X182157291Y-101133669D01*
X182010788Y-101315108D01*
X181897052Y-101518706D01*
X181819360Y-101738595D01*
X181779949Y-101968445D01*
X181779949Y-102060051D01*
X179500448Y-102060051D01*
X179500448Y-101412179D01*
X179494040Y-101352568D01*
X179443745Y-101217720D01*
X179357495Y-101102505D01*
X179242280Y-101016255D01*
X179107432Y-100965960D01*
X179047822Y-100959551D01*
X179047818Y-100959551D01*
X177252079Y-100959551D01*
X177192464Y-100965960D01*
X177040913Y-101022485D01*
X177040307Y-101020861D01*
X177012618Y-101032717D01*
X176954302Y-101028544D01*
X176904381Y-100998114D01*
X176778606Y-100872339D01*
X176629283Y-100780237D01*
X176462746Y-100725051D01*
X176359958Y-100714551D01*
X175019940Y-100714551D01*
X174917152Y-100725051D01*
X174750614Y-100780237D01*
X174601291Y-100872339D01*
X174477237Y-100996393D01*
X174377527Y-101158052D01*
X174374708Y-101156313D01*
X174354349Y-101187562D01*
X174298380Y-101216634D01*
X174235349Y-101214414D01*
X174181563Y-101181475D01*
X174058345Y-101052911D01*
X173870847Y-100914238D01*
X173662609Y-100809247D01*
X173439622Y-100740958D01*
X173399949Y-100735878D01*
X173399949Y-103882626D01*
X172899949Y-103882626D01*
X172899949Y-102560051D01*
X171779949Y-102560051D01*
X169500448Y-102560051D01*
X169500448Y-102060051D01*
X171779949Y-102060051D01*
X172899949Y-102060051D01*
X172899949Y-100737475D01*
X172747327Y-100770368D01*
X172530943Y-100857318D01*
X172332354Y-100979594D01*
X172157291Y-101133669D01*
X172010788Y-101315108D01*
X171897052Y-101518706D01*
X171819360Y-101738595D01*
X171779949Y-101968445D01*
X171779949Y-102060051D01*
X169500448Y-102060051D01*
X169500448Y-101412179D01*
X169494040Y-101352568D01*
X169443745Y-101217720D01*
X169357495Y-101102505D01*
X169242280Y-101016255D01*
X169107432Y-100965960D01*
X169047822Y-100959551D01*
X169047818Y-100959551D01*
X167252079Y-100959551D01*
X167192464Y-100965960D01*
X167040913Y-101022485D01*
X167040307Y-101020861D01*
X167012618Y-101032717D01*
X166954302Y-101028544D01*
X166904381Y-100998114D01*
X166778606Y-100872339D01*
X166629283Y-100780237D01*
X166462746Y-100725051D01*
X166359958Y-100714551D01*
X165019940Y-100714551D01*
X164917152Y-100725051D01*
X164750614Y-100780237D01*
X164601291Y-100872339D01*
X164477237Y-100996393D01*
X164377527Y-101158052D01*
X164374708Y-101156313D01*
X164354349Y-101187562D01*
X164298380Y-101216634D01*
X164235349Y-101214414D01*
X164181563Y-101181475D01*
X164058345Y-101052911D01*
X163870847Y-100914238D01*
X163662609Y-100809247D01*
X163439622Y-100740958D01*
X163399949Y-100735878D01*
X163399949Y-103882626D01*
X162899949Y-103882626D01*
X162899949Y-102560051D01*
X161779949Y-102560051D01*
X159500448Y-102560051D01*
X159500448Y-102060051D01*
X161779949Y-102060051D01*
X162899949Y-102060051D01*
X162899949Y-100737475D01*
X162747327Y-100770368D01*
X162530943Y-100857318D01*
X162332354Y-100979594D01*
X162157291Y-101133669D01*
X162010788Y-101315108D01*
X161897052Y-101518706D01*
X161819360Y-101738595D01*
X161779949Y-101968445D01*
X161779949Y-102060051D01*
X159500448Y-102060051D01*
X159500448Y-101412179D01*
X159494040Y-101352568D01*
X159443745Y-101217720D01*
X159357495Y-101102505D01*
X159242280Y-101016255D01*
X159107432Y-100965960D01*
X159047822Y-100959551D01*
X159047818Y-100959551D01*
X157252079Y-100959551D01*
X157192464Y-100965960D01*
X157040913Y-101022485D01*
X157040307Y-101020861D01*
X157012618Y-101032717D01*
X156954302Y-101028544D01*
X156904381Y-100998114D01*
X156778606Y-100872339D01*
X156629283Y-100780237D01*
X156462746Y-100725051D01*
X156359958Y-100714551D01*
X155019940Y-100714551D01*
X154917152Y-100725051D01*
X154750614Y-100780237D01*
X154601291Y-100872339D01*
X154477237Y-100996393D01*
X154377527Y-101158052D01*
X154374708Y-101156313D01*
X154354349Y-101187562D01*
X154298380Y-101216634D01*
X154235349Y-101214414D01*
X154181563Y-101181475D01*
X154058345Y-101052911D01*
X153870847Y-100914238D01*
X153662609Y-100809247D01*
X153439622Y-100740958D01*
X153399949Y-100735878D01*
X153399949Y-103882626D01*
X152899949Y-103882626D01*
X152899949Y-102560051D01*
X151779949Y-102560051D01*
X149500448Y-102560051D01*
X149500448Y-102060051D01*
X151779949Y-102060051D01*
X152899949Y-102060051D01*
X152899949Y-100737475D01*
X152747327Y-100770368D01*
X152530943Y-100857318D01*
X152332354Y-100979594D01*
X152157291Y-101133669D01*
X152010788Y-101315108D01*
X151897052Y-101518706D01*
X151819360Y-101738595D01*
X151779949Y-101968445D01*
X151779949Y-102060051D01*
X149500448Y-102060051D01*
X149500448Y-101412179D01*
X149494040Y-101352568D01*
X149443745Y-101217720D01*
X149357495Y-101102505D01*
X149242280Y-101016255D01*
X149107432Y-100965960D01*
X149047822Y-100959551D01*
X149047818Y-100959551D01*
X147252079Y-100959551D01*
X147192464Y-100965960D01*
X147040913Y-101022485D01*
X147040307Y-101020861D01*
X147012618Y-101032717D01*
X146954302Y-101028544D01*
X146904381Y-100998114D01*
X146778606Y-100872339D01*
X146629283Y-100780237D01*
X146462746Y-100725051D01*
X146359958Y-100714551D01*
X145019940Y-100714551D01*
X144917152Y-100725051D01*
X144750614Y-100780237D01*
X144601291Y-100872339D01*
X144477237Y-100996393D01*
X144377527Y-101158052D01*
X144374708Y-101156313D01*
X144354349Y-101187562D01*
X144298380Y-101216634D01*
X144235349Y-101214414D01*
X144181563Y-101181475D01*
X144058345Y-101052911D01*
X143870847Y-100914238D01*
X143662609Y-100809247D01*
X143439622Y-100740958D01*
X143399949Y-100735878D01*
X143399949Y-103882626D01*
X142899949Y-103882626D01*
X142899949Y-102560051D01*
X141779949Y-102560051D01*
X139500448Y-102560051D01*
X139500448Y-102060051D01*
X141779949Y-102060051D01*
X142899949Y-102060051D01*
X142899949Y-100737475D01*
X142747327Y-100770368D01*
X142530943Y-100857318D01*
X142332354Y-100979594D01*
X142157291Y-101133669D01*
X142010788Y-101315108D01*
X141897052Y-101518706D01*
X141819360Y-101738595D01*
X141779949Y-101968445D01*
X141779949Y-102060051D01*
X139500448Y-102060051D01*
X139500448Y-101412179D01*
X139494040Y-101352568D01*
X139443745Y-101217720D01*
X139357495Y-101102505D01*
X139242280Y-101016255D01*
X139107432Y-100965960D01*
X139047822Y-100959551D01*
X139047818Y-100959551D01*
X137252079Y-100959551D01*
X137192464Y-100965960D01*
X137040913Y-101022485D01*
X137040307Y-101020861D01*
X137012618Y-101032717D01*
X136954302Y-101028544D01*
X136904381Y-100998114D01*
X136778606Y-100872339D01*
X136629283Y-100780237D01*
X136462746Y-100725051D01*
X136359958Y-100714551D01*
X135019940Y-100714551D01*
X134917152Y-100725051D01*
X134750614Y-100780237D01*
X134601291Y-100872339D01*
X134477237Y-100996393D01*
X134377527Y-101158052D01*
X134374708Y-101156313D01*
X134354349Y-101187562D01*
X134298380Y-101216634D01*
X134235349Y-101214414D01*
X134181563Y-101181475D01*
X134058345Y-101052911D01*
X133870847Y-100914238D01*
X133662609Y-100809247D01*
X133439622Y-100740958D01*
X133399949Y-100735878D01*
X133399949Y-103882626D01*
X132899949Y-103882626D01*
X132899949Y-102560051D01*
X131779949Y-102560051D01*
X129500448Y-102560051D01*
X129500448Y-102060051D01*
X131779949Y-102060051D01*
X132899949Y-102060051D01*
X132899949Y-100737476D01*
X132747327Y-100770368D01*
X132530943Y-100857318D01*
X132332354Y-100979594D01*
X132157291Y-101133669D01*
X132010788Y-101315108D01*
X131897052Y-101518706D01*
X131819360Y-101738595D01*
X131779949Y-101968445D01*
X131779949Y-102060051D01*
X129500448Y-102060051D01*
X129500448Y-101412179D01*
X129494040Y-101352568D01*
X129443745Y-101217720D01*
X129357495Y-101102505D01*
X129242280Y-101016255D01*
X129107432Y-100965960D01*
X129047822Y-100959551D01*
X129047818Y-100959551D01*
X127252079Y-100959551D01*
X127192464Y-100965960D01*
X127040913Y-101022485D01*
X127040307Y-101020861D01*
X127012618Y-101032717D01*
X126954302Y-101028544D01*
X126904381Y-100998114D01*
X126778606Y-100872339D01*
X126629283Y-100780237D01*
X126462746Y-100725051D01*
X126359958Y-100714551D01*
X125019940Y-100714551D01*
X124917152Y-100725051D01*
X124750614Y-100780237D01*
X124601291Y-100872339D01*
X124477237Y-100996393D01*
X124377527Y-101158052D01*
X124374708Y-101156313D01*
X124354349Y-101187562D01*
X124298380Y-101216634D01*
X124235349Y-101214414D01*
X124181563Y-101181475D01*
X124058345Y-101052911D01*
X123870847Y-100914238D01*
X123662609Y-100809247D01*
X123439622Y-100740958D01*
X123399949Y-100735878D01*
X123399949Y-103882626D01*
X122899949Y-103882626D01*
X122899949Y-102560051D01*
X121779949Y-102560051D01*
X119500448Y-102560051D01*
X119500448Y-102060051D01*
X121779949Y-102060051D01*
X122899949Y-102060051D01*
X122899949Y-100737475D01*
X122747327Y-100770368D01*
X122530943Y-100857318D01*
X122332354Y-100979594D01*
X122157291Y-101133669D01*
X122010788Y-101315108D01*
X121897052Y-101518706D01*
X121819360Y-101738595D01*
X121779949Y-101968445D01*
X121779949Y-102060051D01*
X119500448Y-102060051D01*
X119500448Y-101412179D01*
X119494040Y-101352568D01*
X119443745Y-101217720D01*
X119357495Y-101102505D01*
X119242280Y-101016255D01*
X119107432Y-100965960D01*
X119047822Y-100959551D01*
X119047818Y-100959551D01*
X117252079Y-100959551D01*
X117192464Y-100965960D01*
X117040913Y-101022485D01*
X117040307Y-101020861D01*
X117012618Y-101032717D01*
X116954302Y-101028544D01*
X116904381Y-100998114D01*
X116778606Y-100872339D01*
X116629283Y-100780237D01*
X116462746Y-100725051D01*
X116359958Y-100714551D01*
X115019940Y-100714551D01*
X114917152Y-100725051D01*
X114750614Y-100780237D01*
X114601291Y-100872339D01*
X114477237Y-100996393D01*
X114377527Y-101158052D01*
X114374708Y-101156313D01*
X114354349Y-101187562D01*
X114298380Y-101216634D01*
X114235349Y-101214414D01*
X114181563Y-101181475D01*
X114058345Y-101052911D01*
X113870847Y-100914238D01*
X113662609Y-100809247D01*
X113439622Y-100740958D01*
X113399949Y-100735878D01*
X113399949Y-103882626D01*
X112899949Y-103882626D01*
X112899949Y-102560051D01*
X111779949Y-102560051D01*
X109690449Y-102560051D01*
X109690449Y-102060051D01*
X111779949Y-102060051D01*
X112899949Y-102060051D01*
X112899949Y-100737475D01*
X112747327Y-100770368D01*
X112530943Y-100857318D01*
X112332354Y-100979594D01*
X112157291Y-101133669D01*
X112010788Y-101315108D01*
X111897052Y-101518706D01*
X111819360Y-101738595D01*
X111779949Y-101968445D01*
X111779949Y-102060051D01*
X109690449Y-102060051D01*
X109690449Y-93640051D01*
X113114950Y-93640051D01*
X113114950Y-94060030D01*
X113125442Y-94162746D01*
X113180591Y-94329173D01*
X113272632Y-94478396D01*
X113396603Y-94602367D01*
X113545826Y-94694408D01*
X113712252Y-94749557D01*
X113814970Y-94760051D01*
X114459949Y-94760051D01*
X114459949Y-93640051D01*
X114959949Y-93640051D01*
X114959949Y-94760050D01*
X115604928Y-94760050D01*
X115707644Y-94749557D01*
X115874071Y-94694408D01*
X116023294Y-94602367D01*
X116147265Y-94478396D01*
X116239306Y-94329173D01*
X116294455Y-94162747D01*
X116304949Y-94060030D01*
X116304949Y-93640051D01*
X182597374Y-93640051D01*
X182630266Y-93792672D01*
X182717216Y-94009056D01*
X182839492Y-94207645D01*
X182993567Y-94382708D01*
X183175006Y-94529211D01*
X183378604Y-94642947D01*
X183598493Y-94720639D01*
X183828343Y-94760051D01*
X183919949Y-94760051D01*
X183919949Y-93640051D01*
X184419949Y-93640051D01*
X184419949Y-94760051D01*
X184453147Y-94760051D01*
X184627313Y-94745227D01*
X184853003Y-94686461D01*
X185065506Y-94590404D01*
X185258721Y-94459814D01*
X185427088Y-94298447D01*
X185565761Y-94110949D01*
X185670752Y-93902711D01*
X185739041Y-93679724D01*
X185744122Y-93640051D01*
X184419949Y-93640051D01*
X183919949Y-93640051D01*
X182597374Y-93640051D01*
X116304949Y-93640051D01*
X114959949Y-93640051D01*
X114459949Y-93640051D01*
X113114950Y-93640051D01*
X109690449Y-93640051D01*
X109690449Y-86743074D01*
X112409660Y-86743074D01*
X112413977Y-86792420D01*
X112414449Y-86803227D01*
X112414449Y-86808759D01*
X112418047Y-86839547D01*
X112418413Y-86843132D01*
X112425059Y-86919092D01*
X112429278Y-86938122D01*
X112429707Y-86939302D01*
X112429708Y-86939306D01*
X112455362Y-87009793D01*
X112456531Y-87013158D01*
X112480529Y-87085575D01*
X112489024Y-87103123D01*
X112530928Y-87166835D01*
X112532838Y-87169833D01*
X112572237Y-87233707D01*
X112572901Y-87234783D01*
X112585202Y-87249881D01*
X112586117Y-87250744D01*
X112586119Y-87250747D01*
X112640657Y-87302201D01*
X112643244Y-87304714D01*
X113138864Y-87800334D01*
X113171507Y-87858044D01*
X113169748Y-87924324D01*
X113140366Y-88020268D01*
X113140366Y-88020270D01*
X113140366Y-88020271D01*
X113111936Y-88242286D01*
X113110733Y-88251678D01*
X113120634Y-88484755D01*
X113169785Y-88712818D01*
X113256768Y-88929282D01*
X113256770Y-88929286D01*
X113379087Y-89127942D01*
X113480447Y-89243110D01*
X113533219Y-89303070D01*
X113714725Y-89449627D01*
X113755050Y-89472154D01*
X113800166Y-89515394D01*
X113818464Y-89575145D01*
X113805299Y-89636233D01*
X113764013Y-89683143D01*
X113620861Y-89779897D01*
X113452432Y-89941323D01*
X113313709Y-90128889D01*
X113208679Y-90337203D01*
X113174782Y-90447888D01*
X113140366Y-90560271D01*
X113122454Y-90700151D01*
X113110733Y-90791678D01*
X113120634Y-91024755D01*
X113169785Y-91252818D01*
X113256768Y-91469282D01*
X113256770Y-91469286D01*
X113379087Y-91667942D01*
X113379088Y-91667943D01*
X113533219Y-91843070D01*
X113573179Y-91875336D01*
X113611506Y-91928597D01*
X113617286Y-91993959D01*
X113588902Y-92053120D01*
X113556205Y-92074912D01*
X113558162Y-92078085D01*
X113396603Y-92177734D01*
X113272632Y-92301705D01*
X113180591Y-92450928D01*
X113125442Y-92617354D01*
X113114949Y-92720072D01*
X113114949Y-93140051D01*
X116304948Y-93140051D01*
X116304948Y-92720072D01*
X116294455Y-92617355D01*
X116239306Y-92450928D01*
X116147265Y-92301705D01*
X116023294Y-92177734D01*
X115861736Y-92078085D01*
X115863522Y-92075188D01*
X115832571Y-92055026D01*
X115803495Y-91999055D01*
X115805714Y-91936022D01*
X115838651Y-91882236D01*
X115967465Y-91758779D01*
X116106189Y-91571212D01*
X116211219Y-91362898D01*
X116279532Y-91139831D01*
X116309165Y-90908427D01*
X116299263Y-90675344D01*
X116250113Y-90447286D01*
X116163128Y-90230816D01*
X116040811Y-90032160D01*
X115886680Y-89857033D01*
X115886678Y-89857031D01*
X115705170Y-89710472D01*
X115664846Y-89687946D01*
X115619731Y-89644706D01*
X115601433Y-89584955D01*
X115614598Y-89523867D01*
X115655882Y-89476960D01*
X115799037Y-89380204D01*
X115967465Y-89218779D01*
X116106189Y-89031212D01*
X116211219Y-88822898D01*
X116279532Y-88599831D01*
X116307963Y-88377815D01*
X119835736Y-88377815D01*
X119865362Y-88647067D01*
X119865363Y-88647069D01*
X119933877Y-88909139D01*
X119987669Y-89035721D01*
X120039820Y-89158443D01*
X120180931Y-89389662D01*
X120325521Y-89563405D01*
X120354204Y-89597871D01*
X120555947Y-89778633D01*
X120781859Y-89928095D01*
X120888160Y-89977926D01*
X121027126Y-90043072D01*
X121286511Y-90121109D01*
X121286518Y-90121111D01*
X121554510Y-90160551D01*
X121757580Y-90160551D01*
X121757583Y-90160551D01*
X121960105Y-90145728D01*
X121971076Y-90143284D01*
X122224502Y-90086831D01*
X122477507Y-89990065D01*
X122609476Y-89916000D01*
X154542540Y-89916000D01*
X154562326Y-90104257D01*
X154620820Y-90284284D01*
X154715466Y-90448216D01*
X154842129Y-90588889D01*
X154995269Y-90700151D01*
X155168197Y-90777144D01*
X155353352Y-90816500D01*
X155353354Y-90816500D01*
X155542646Y-90816500D01*
X155542648Y-90816500D01*
X155666084Y-90790262D01*
X155727803Y-90777144D01*
X155900730Y-90700151D01*
X155914449Y-90690183D01*
X155949018Y-90672569D01*
X155987337Y-90666500D01*
X158895293Y-90666500D01*
X158913265Y-90667809D01*
X158937023Y-90671289D01*
X158952927Y-90669897D01*
X158989523Y-90672134D01*
X159005354Y-90675500D01*
X159194646Y-90675500D01*
X159194648Y-90675500D01*
X159318084Y-90649262D01*
X159379803Y-90636144D01*
X159552730Y-90559151D01*
X159705871Y-90447888D01*
X159832533Y-90307216D01*
X159927179Y-90143284D01*
X159985674Y-89963256D01*
X160005460Y-89775000D01*
X159985674Y-89586744D01*
X159948441Y-89472154D01*
X159927179Y-89406715D01*
X159832533Y-89242783D01*
X159705870Y-89102110D01*
X159552730Y-88990848D01*
X159379802Y-88913855D01*
X159194648Y-88874500D01*
X159194646Y-88874500D01*
X159005354Y-88874500D01*
X159005352Y-88874500D01*
X158820197Y-88913855D01*
X158647269Y-88990848D01*
X158494130Y-89102110D01*
X158473996Y-89124472D01*
X158432282Y-89154779D01*
X158381846Y-89165500D01*
X155987337Y-89165500D01*
X155949018Y-89159431D01*
X155914450Y-89141817D01*
X155900728Y-89131847D01*
X155727802Y-89054855D01*
X155542648Y-89015500D01*
X155542646Y-89015500D01*
X155353354Y-89015500D01*
X155353352Y-89015500D01*
X155168197Y-89054855D01*
X154995269Y-89131848D01*
X154842129Y-89243110D01*
X154715466Y-89383783D01*
X154620820Y-89547715D01*
X154562326Y-89727742D01*
X154542540Y-89916000D01*
X122609476Y-89916000D01*
X122713726Y-89857492D01*
X122928126Y-89691939D01*
X123116135Y-89496932D01*
X123273748Y-89276630D01*
X123397605Y-89035726D01*
X123485067Y-88779356D01*
X123534268Y-88512984D01*
X123539208Y-88377815D01*
X175335736Y-88377815D01*
X175365362Y-88647067D01*
X175365363Y-88647069D01*
X175433877Y-88909139D01*
X175487669Y-89035721D01*
X175539820Y-89158443D01*
X175680931Y-89389662D01*
X175825521Y-89563405D01*
X175854204Y-89597871D01*
X176055947Y-89778633D01*
X176281859Y-89928095D01*
X176388160Y-89977926D01*
X176527126Y-90043072D01*
X176786511Y-90121109D01*
X176786518Y-90121111D01*
X177054510Y-90160551D01*
X177257580Y-90160551D01*
X177257583Y-90160551D01*
X177460105Y-90145728D01*
X177471076Y-90143284D01*
X177724502Y-90086831D01*
X177977507Y-89990065D01*
X178213726Y-89857492D01*
X178428126Y-89691939D01*
X178616135Y-89496932D01*
X178773748Y-89276630D01*
X178897605Y-89035726D01*
X178985067Y-88779356D01*
X179034268Y-88512984D01*
X179044161Y-88242286D01*
X179014535Y-87973033D01*
X178946021Y-87710963D01*
X178840079Y-87461661D01*
X178742762Y-87302201D01*
X178698966Y-87230439D01*
X178525695Y-87022232D01*
X178420707Y-86928163D01*
X178323951Y-86841469D01*
X178098039Y-86692007D01*
X178098035Y-86692005D01*
X177852771Y-86577029D01*
X177593386Y-86498992D01*
X177593380Y-86498991D01*
X177325388Y-86459551D01*
X177122318Y-86459551D01*
X177122315Y-86459551D01*
X176919792Y-86474373D01*
X176655398Y-86533270D01*
X176402390Y-86630037D01*
X176166172Y-86762610D01*
X175951774Y-86928160D01*
X175763762Y-87123171D01*
X175606150Y-87343471D01*
X175482291Y-87584380D01*
X175394830Y-87840746D01*
X175345629Y-88107117D01*
X175335736Y-88377815D01*
X123539208Y-88377815D01*
X123544161Y-88242286D01*
X123514535Y-87973033D01*
X123446021Y-87710963D01*
X123340079Y-87461661D01*
X123242762Y-87302201D01*
X123198966Y-87230439D01*
X123025695Y-87022232D01*
X122920707Y-86928163D01*
X122823951Y-86841469D01*
X122598039Y-86692007D01*
X122598035Y-86692005D01*
X122352771Y-86577029D01*
X122093386Y-86498992D01*
X122093380Y-86498991D01*
X121825388Y-86459551D01*
X121622318Y-86459551D01*
X121622315Y-86459551D01*
X121419792Y-86474373D01*
X121155398Y-86533270D01*
X120902390Y-86630037D01*
X120666172Y-86762610D01*
X120451774Y-86928160D01*
X120263762Y-87123171D01*
X120106150Y-87343471D01*
X119982291Y-87584380D01*
X119894830Y-87840746D01*
X119845629Y-88107117D01*
X119835736Y-88377815D01*
X116307963Y-88377815D01*
X116309165Y-88368427D01*
X116299263Y-88135344D01*
X116250113Y-87907286D01*
X116163128Y-87690816D01*
X116040811Y-87492160D01*
X115886680Y-87317033D01*
X115886678Y-87317031D01*
X115705170Y-87170472D01*
X115664846Y-87147946D01*
X115619731Y-87104706D01*
X115601433Y-87044955D01*
X115614598Y-86983867D01*
X115655882Y-86936960D01*
X115799037Y-86840204D01*
X115967465Y-86678779D01*
X116106189Y-86491212D01*
X116211219Y-86282898D01*
X116279532Y-86059831D01*
X116309165Y-85828427D01*
X116299263Y-85595344D01*
X116250863Y-85370766D01*
X116253137Y-85309598D01*
X116284397Y-85256969D01*
X116641548Y-84899819D01*
X116681777Y-84872939D01*
X116729230Y-84863500D01*
X152900770Y-84863500D01*
X152948223Y-84872939D01*
X152988451Y-84899819D01*
X153262228Y-85173596D01*
X153292478Y-85222958D01*
X153347821Y-85393285D01*
X153442466Y-85557216D01*
X153569129Y-85697889D01*
X153722269Y-85809151D01*
X153895193Y-85886143D01*
X153895196Y-85886143D01*
X153895197Y-85886144D01*
X153960330Y-85899987D01*
X153993716Y-85912304D01*
X154022230Y-85933597D01*
X154449269Y-86360637D01*
X154461049Y-86374268D01*
X154475390Y-86393530D01*
X154513339Y-86425373D01*
X154521314Y-86432681D01*
X154525224Y-86436591D01*
X154535690Y-86444866D01*
X154549543Y-86455820D01*
X154552330Y-86458090D01*
X154609786Y-86506302D01*
X154609788Y-86506303D01*
X154610750Y-86507110D01*
X154627180Y-86517578D01*
X154628322Y-86518110D01*
X154628323Y-86518111D01*
X154696350Y-86549832D01*
X154699527Y-86551371D01*
X154765667Y-86584588D01*
X154767702Y-86585610D01*
X154786085Y-86591999D01*
X154787322Y-86592254D01*
X154787328Y-86592257D01*
X154860852Y-86607437D01*
X154864286Y-86608199D01*
X154892510Y-86614889D01*
X154938506Y-86625791D01*
X154957879Y-86627770D01*
X154959141Y-86627733D01*
X154959145Y-86627734D01*
X155031534Y-86625627D01*
X155034132Y-86625552D01*
X155037738Y-86625500D01*
X169061294Y-86625500D01*
X169079264Y-86626809D01*
X169083320Y-86627402D01*
X169103023Y-86630289D01*
X169152368Y-86625972D01*
X169163176Y-86625500D01*
X169168706Y-86625500D01*
X169168709Y-86625500D01*
X169199550Y-86621894D01*
X169203031Y-86621539D01*
X169277797Y-86614999D01*
X169277797Y-86614998D01*
X169279052Y-86614889D01*
X169298062Y-86610674D01*
X169299250Y-86610241D01*
X169299255Y-86610241D01*
X169369820Y-86584557D01*
X169373095Y-86583419D01*
X169444334Y-86559814D01*
X169444336Y-86559812D01*
X169445536Y-86559415D01*
X169463063Y-86550929D01*
X169464112Y-86550238D01*
X169464117Y-86550237D01*
X169526806Y-86509005D01*
X169529798Y-86507099D01*
X169593656Y-86467712D01*
X169593656Y-86467711D01*
X169594729Y-86467050D01*
X169609824Y-86454753D01*
X169610692Y-86453832D01*
X169610696Y-86453830D01*
X169662184Y-86399254D01*
X169664630Y-86396736D01*
X171464497Y-84596870D01*
X171504726Y-84569990D01*
X171552179Y-84560551D01*
X180327719Y-84560551D01*
X180375172Y-84569990D01*
X180415400Y-84596870D01*
X182074216Y-86255685D01*
X182085997Y-86269317D01*
X182100338Y-86288580D01*
X182138288Y-86320424D01*
X182146263Y-86327732D01*
X182150173Y-86331642D01*
X182168621Y-86346229D01*
X182174492Y-86350871D01*
X182177279Y-86353141D01*
X182234735Y-86401353D01*
X182234737Y-86401354D01*
X182235699Y-86402161D01*
X182252129Y-86412629D01*
X182253271Y-86413161D01*
X182253272Y-86413162D01*
X182321299Y-86444883D01*
X182324476Y-86446422D01*
X182366868Y-86467712D01*
X182392651Y-86480661D01*
X182411034Y-86487050D01*
X182412271Y-86487305D01*
X182412277Y-86487308D01*
X182485801Y-86502488D01*
X182489235Y-86503250D01*
X182513586Y-86509022D01*
X182563455Y-86520842D01*
X182582828Y-86522821D01*
X182584090Y-86522784D01*
X182584094Y-86522785D01*
X182656483Y-86520678D01*
X182659081Y-86520603D01*
X182662687Y-86520551D01*
X182728322Y-86520551D01*
X182788795Y-86536297D01*
X182833910Y-86579534D01*
X182839087Y-86587942D01*
X182983752Y-86752314D01*
X182993219Y-86763070D01*
X183174725Y-86909627D01*
X183215050Y-86932154D01*
X183260166Y-86975394D01*
X183278464Y-87035145D01*
X183265299Y-87096233D01*
X183224013Y-87143143D01*
X183080861Y-87239897D01*
X182912432Y-87401323D01*
X182773709Y-87588889D01*
X182668679Y-87797203D01*
X182651576Y-87853049D01*
X182600366Y-88020271D01*
X182571936Y-88242286D01*
X182570733Y-88251678D01*
X182580634Y-88484755D01*
X182629785Y-88712818D01*
X182716768Y-88929282D01*
X182716770Y-88929286D01*
X182839087Y-89127942D01*
X182940447Y-89243110D01*
X182993219Y-89303070D01*
X183174725Y-89449627D01*
X183215050Y-89472154D01*
X183260166Y-89515394D01*
X183278464Y-89575145D01*
X183265299Y-89636233D01*
X183224013Y-89683143D01*
X183080861Y-89779897D01*
X182912432Y-89941323D01*
X182773709Y-90128889D01*
X182668679Y-90337203D01*
X182634782Y-90447888D01*
X182600366Y-90560271D01*
X182582454Y-90700151D01*
X182570733Y-90791678D01*
X182580634Y-91024755D01*
X182629785Y-91252818D01*
X182716768Y-91469282D01*
X182716770Y-91469286D01*
X182839087Y-91667942D01*
X182839088Y-91667943D01*
X182993219Y-91843070D01*
X183174725Y-91989627D01*
X183215539Y-92012427D01*
X183260655Y-92055667D01*
X183278953Y-92115418D01*
X183265788Y-92176506D01*
X183224502Y-92223416D01*
X183081176Y-92320287D01*
X182912809Y-92481654D01*
X182774136Y-92669152D01*
X182669145Y-92877390D01*
X182600856Y-93100377D01*
X182595776Y-93140051D01*
X185742524Y-93140051D01*
X185709631Y-92987429D01*
X185622681Y-92771045D01*
X185500405Y-92572456D01*
X185346330Y-92397393D01*
X185164889Y-92250888D01*
X185124382Y-92228260D01*
X185079267Y-92185021D01*
X185060969Y-92125269D01*
X185074134Y-92064182D01*
X185115418Y-92017273D01*
X185259037Y-91920204D01*
X185427465Y-91758779D01*
X185566189Y-91571212D01*
X185671219Y-91362898D01*
X185739532Y-91139831D01*
X185769165Y-90908427D01*
X185759263Y-90675344D01*
X185710113Y-90447286D01*
X185623128Y-90230816D01*
X185500811Y-90032160D01*
X185346680Y-89857033D01*
X185346678Y-89857031D01*
X185165170Y-89710472D01*
X185124846Y-89687946D01*
X185079731Y-89644706D01*
X185061433Y-89584955D01*
X185074598Y-89523867D01*
X185115882Y-89476960D01*
X185259037Y-89380204D01*
X185427465Y-89218779D01*
X185566189Y-89031212D01*
X185671219Y-88822898D01*
X185739532Y-88599831D01*
X185769165Y-88368427D01*
X185759263Y-88135344D01*
X185710863Y-87910766D01*
X185713137Y-87849599D01*
X185744397Y-87796969D01*
X186200591Y-87340775D01*
X186214209Y-87329005D01*
X186233479Y-87314661D01*
X186265325Y-87276707D01*
X186272611Y-87268755D01*
X186276540Y-87264828D01*
X186295782Y-87240490D01*
X186298039Y-87237721D01*
X186312802Y-87220126D01*
X186346251Y-87180265D01*
X186346252Y-87180262D01*
X186347064Y-87179295D01*
X186357522Y-87162878D01*
X186358055Y-87161733D01*
X186358060Y-87161728D01*
X186389782Y-87093697D01*
X186391311Y-87090539D01*
X186424989Y-87023484D01*
X186424989Y-87023483D01*
X186425561Y-87022345D01*
X186431949Y-87003965D01*
X186432204Y-87002726D01*
X186432206Y-87002724D01*
X186447396Y-86929154D01*
X186448135Y-86925821D01*
X186465449Y-86852772D01*
X186465449Y-86852768D01*
X186465740Y-86851540D01*
X186467719Y-86832172D01*
X186467682Y-86830910D01*
X186467683Y-86830907D01*
X186465501Y-86755920D01*
X186465449Y-86752314D01*
X186465449Y-82383808D01*
X186466758Y-82365838D01*
X186467287Y-82362220D01*
X186470238Y-82342079D01*
X186465921Y-82292733D01*
X186465449Y-82281926D01*
X186465449Y-82276391D01*
X186461852Y-82245623D01*
X186461485Y-82242031D01*
X186456366Y-82183512D01*
X186454948Y-82167305D01*
X186454947Y-82167303D01*
X186454838Y-82166051D01*
X186450621Y-82147032D01*
X186424541Y-82075376D01*
X186423357Y-82071970D01*
X186410620Y-82033532D01*
X186399763Y-82000768D01*
X186399761Y-82000765D01*
X186399364Y-81999566D01*
X186390878Y-81982038D01*
X186390186Y-81980986D01*
X186390186Y-81980985D01*
X186348950Y-81918290D01*
X186347035Y-81915283D01*
X186306997Y-81850371D01*
X186294697Y-81835272D01*
X186239223Y-81782935D01*
X186236636Y-81780422D01*
X185880626Y-81424411D01*
X185868844Y-81410778D01*
X185854507Y-81391520D01*
X185816564Y-81359682D01*
X185808589Y-81352374D01*
X185804680Y-81348465D01*
X185804675Y-81348460D01*
X185780321Y-81329203D01*
X185777545Y-81326941D01*
X185719149Y-81277941D01*
X185702719Y-81267473D01*
X185633589Y-81235237D01*
X185630345Y-81233666D01*
X185562204Y-81199445D01*
X185543801Y-81193048D01*
X185469109Y-81177625D01*
X185465590Y-81176845D01*
X185391388Y-81159259D01*
X185372019Y-81157280D01*
X185295767Y-81159499D01*
X185292161Y-81159551D01*
X161228655Y-81159551D01*
X161210685Y-81158242D01*
X161196802Y-81156208D01*
X161186926Y-81154762D01*
X161186925Y-81154762D01*
X161137583Y-81159079D01*
X161126776Y-81159551D01*
X161121238Y-81159551D01*
X161090436Y-81163150D01*
X161086855Y-81163516D01*
X161010901Y-81170162D01*
X160991875Y-81174380D01*
X160920194Y-81200468D01*
X160916791Y-81201651D01*
X160844423Y-81225631D01*
X160826876Y-81234127D01*
X160763185Y-81276016D01*
X160760145Y-81277953D01*
X160695229Y-81317994D01*
X160680114Y-81330306D01*
X160627797Y-81385759D01*
X160625285Y-81388345D01*
X158290400Y-83723232D01*
X158250172Y-83750112D01*
X158202719Y-83759551D01*
X156023655Y-83759551D01*
X156005685Y-83758242D01*
X155991802Y-83756208D01*
X155981926Y-83754762D01*
X155981925Y-83754762D01*
X155932580Y-83759079D01*
X155921773Y-83759551D01*
X155916240Y-83759551D01*
X155885450Y-83763149D01*
X155881866Y-83763515D01*
X155805910Y-83770160D01*
X155786870Y-83774381D01*
X155715181Y-83800472D01*
X155711780Y-83801654D01*
X155639423Y-83825631D01*
X155621876Y-83834126D01*
X155558170Y-83876026D01*
X155555128Y-83877964D01*
X155517475Y-83901188D01*
X155465579Y-83918944D01*
X155411100Y-83912576D01*
X155364698Y-83883330D01*
X152905779Y-81424411D01*
X152893997Y-81410778D01*
X152879660Y-81391520D01*
X152841717Y-81359682D01*
X152833742Y-81352374D01*
X152829833Y-81348465D01*
X152829828Y-81348460D01*
X152805474Y-81329203D01*
X152802698Y-81326941D01*
X152744302Y-81277941D01*
X152727872Y-81267473D01*
X152658742Y-81235237D01*
X152655498Y-81233666D01*
X152587357Y-81199445D01*
X152568954Y-81193048D01*
X152494262Y-81177625D01*
X152490743Y-81176845D01*
X152416541Y-81159259D01*
X152397172Y-81157280D01*
X152320920Y-81159499D01*
X152317314Y-81159551D01*
X114001893Y-81159551D01*
X113983923Y-81158242D01*
X113970040Y-81156208D01*
X113960164Y-81154762D01*
X113960163Y-81154762D01*
X113910818Y-81159079D01*
X113900011Y-81159551D01*
X113894478Y-81159551D01*
X113863688Y-81163149D01*
X113860104Y-81163515D01*
X113784148Y-81170160D01*
X113765108Y-81174381D01*
X113693419Y-81200472D01*
X113690018Y-81201654D01*
X113617661Y-81225631D01*
X113600114Y-81234126D01*
X113536408Y-81276026D01*
X113533368Y-81277963D01*
X113468467Y-81317995D01*
X113453352Y-81330307D01*
X113401019Y-81385776D01*
X113398507Y-81388362D01*
X112679308Y-82107560D01*
X112665677Y-82119340D01*
X112646418Y-82133678D01*
X112614582Y-82171618D01*
X112607290Y-82179578D01*
X112603357Y-82183511D01*
X112584125Y-82207834D01*
X112581851Y-82210626D01*
X112532843Y-82269033D01*
X112522367Y-82285476D01*
X112490141Y-82354583D01*
X112488571Y-82357825D01*
X112454342Y-82425981D01*
X112447945Y-82444387D01*
X112432522Y-82519077D01*
X112431742Y-82522594D01*
X112414157Y-82596794D01*
X112412178Y-82616167D01*
X112414397Y-82692420D01*
X112414449Y-82696026D01*
X112414449Y-86701345D01*
X112413140Y-86719315D01*
X112409660Y-86743074D01*
X109690449Y-86743074D01*
X109690449Y-82314112D01*
X109690714Y-82306007D01*
X109691937Y-82287338D01*
X109695926Y-82226445D01*
X109708655Y-82048441D01*
X109710716Y-82033135D01*
X109732887Y-81921665D01*
X109733267Y-81919838D01*
X109763734Y-81779772D01*
X109767459Y-81766347D01*
X109806163Y-81652322D01*
X109807336Y-81649030D01*
X109855012Y-81521203D01*
X109859964Y-81509730D01*
X109914379Y-81399386D01*
X109916694Y-81394928D01*
X109980811Y-81277504D01*
X109986494Y-81268117D01*
X110055554Y-81164759D01*
X110059335Y-81159416D01*
X110138792Y-81053274D01*
X110144784Y-81045883D01*
X110227075Y-80952047D01*
X110232562Y-80946189D01*
X110326090Y-80852661D01*
X110331948Y-80847174D01*
X110425765Y-80764899D01*
X110433180Y-80758887D01*
X110539319Y-80679434D01*
X110544664Y-80675651D01*
X110647999Y-80606605D01*
X110657411Y-80600907D01*
X110774796Y-80536811D01*
X110779297Y-80534474D01*
X110889632Y-80480063D01*
X110901114Y-80475107D01*
X111028925Y-80427437D01*
X111032230Y-80426261D01*
X111146220Y-80387568D01*
X111159689Y-80383830D01*
X111299758Y-80353362D01*
X111301537Y-80352992D01*
X111413038Y-80330815D01*
X111428337Y-80328756D01*
X111606505Y-80316016D01*
X111683544Y-80310968D01*
X111685874Y-80310816D01*
X111693979Y-80310551D01*
X188495933Y-80310551D01*
X188504043Y-80310816D01*
G37*
G04 #@! TD.AperFunction*
M02*
