G04 #@! TF.GenerationSoftware,KiCad,Pcbnew,7.0.1*
G04 #@! TF.CreationDate,2023-06-05T16:12:44-05:00*
G04 #@! TF.ProjectId,Pico Breakout Board,5069636f-2042-4726-9561-6b6f75742042,rev?*
G04 #@! TF.SameCoordinates,Original*
G04 #@! TF.FileFunction,Soldermask,Top*
G04 #@! TF.FilePolarity,Negative*
%FSLAX46Y46*%
G04 Gerber Fmt 4.6, Leading zero omitted, Abs format (unit mm)*
G04 Created by KiCad (PCBNEW 7.0.1) date 2023-06-05 16:12:44*
%MOMM*%
%LPD*%
G01*
G04 APERTURE LIST*
G04 Aperture macros list*
%AMRoundRect*
0 Rectangle with rounded corners*
0 $1 Rounding radius*
0 $2 $3 $4 $5 $6 $7 $8 $9 X,Y pos of 4 corners*
0 Add a 4 corners polygon primitive as box body*
4,1,4,$2,$3,$4,$5,$6,$7,$8,$9,$2,$3,0*
0 Add four circle primitives for the rounded corners*
1,1,$1+$1,$2,$3*
1,1,$1+$1,$4,$5*
1,1,$1+$1,$6,$7*
1,1,$1+$1,$8,$9*
0 Add four rect primitives between the rounded corners*
20,1,$1+$1,$2,$3,$4,$5,0*
20,1,$1+$1,$4,$5,$6,$7,0*
20,1,$1+$1,$6,$7,$8,$9,0*
20,1,$1+$1,$8,$9,$2,$3,0*%
%AMFreePoly0*
4,1,6,1.000000,0.000000,0.500000,-0.750000,-0.500000,-0.750000,-0.500000,0.750000,0.500000,0.750000,1.000000,0.000000,1.000000,0.000000,$1*%
G04 Aperture macros list end*
%ADD10O,1.740000X2.190000*%
%ADD11RoundRect,0.250000X-0.620000X-0.845000X0.620000X-0.845000X0.620000X0.845000X-0.620000X0.845000X0*%
%ADD12RoundRect,0.250000X0.620000X0.845000X-0.620000X0.845000X-0.620000X-0.845000X0.620000X-0.845000X0*%
%ADD13C,1.700000*%
%ADD14RoundRect,0.250000X0.600000X-0.600000X0.600000X0.600000X-0.600000X0.600000X-0.600000X-0.600000X0*%
%ADD15O,1.700000X1.700000*%
%ADD16R,1.700000X1.700000*%
%ADD17O,1.800000X1.800000*%
%ADD18O,1.500000X1.500000*%
%ADD19C,3.000000*%
%ADD20R,0.900000X1.700000*%
%ADD21RoundRect,0.250000X-0.845000X0.620000X-0.845000X-0.620000X0.845000X-0.620000X0.845000X0.620000X0*%
%ADD22O,2.190000X1.740000*%
%ADD23RoundRect,0.250000X0.845000X-0.620000X0.845000X0.620000X-0.845000X0.620000X-0.845000X-0.620000X0*%
%ADD24R,1.500000X1.500000*%
%ADD25FreePoly0,0.000000*%
%ADD26FreePoly0,180.000000*%
%ADD27C,4.000000*%
%ADD28R,4.000000X4.000000*%
%ADD29O,2.200000X2.200000*%
%ADD30R,2.200000X2.200000*%
%ADD31R,2.000000X1.500000*%
%ADD32R,2.000000X2.000000*%
%ADD33C,2.000000*%
G04 APERTURE END LIST*
D10*
X145796000Y-138430000D03*
X143256000Y-138430000D03*
X140716000Y-138430000D03*
D11*
X138176000Y-138430000D03*
D12*
X135636000Y-138430000D03*
D10*
X133096000Y-138430000D03*
X130556000Y-138430000D03*
X128016000Y-138430000D03*
D12*
X125476000Y-138430000D03*
D10*
X122936000Y-138430000D03*
D13*
X125603000Y-124333000D03*
X128143000Y-124333000D03*
X130683000Y-124333000D03*
X133223000Y-124333000D03*
X135763000Y-124333000D03*
X138303000Y-124333000D03*
X140843000Y-124333000D03*
X143383000Y-124333000D03*
X143383000Y-126873000D03*
X140843000Y-126873000D03*
X138303000Y-126873000D03*
X135763000Y-126873000D03*
X133223000Y-126873000D03*
X130683000Y-126873000D03*
X128143000Y-126873000D03*
D14*
X125603000Y-126873000D03*
D15*
X137185000Y-110455000D03*
D16*
X134645000Y-110455000D03*
D15*
X132105000Y-110455000D03*
X143535000Y-62425000D03*
X143535000Y-64965000D03*
D16*
X143535000Y-67505000D03*
D15*
X143535000Y-70045000D03*
X143535000Y-72585000D03*
X143535000Y-75125000D03*
X143535000Y-77665000D03*
D16*
X143535000Y-80205000D03*
D15*
X143535000Y-82745000D03*
X143535000Y-85285000D03*
X143535000Y-87825000D03*
X143535000Y-90365000D03*
D16*
X143535000Y-92905000D03*
D15*
X143535000Y-95445000D03*
X143535000Y-97985000D03*
X143535000Y-100525000D03*
X143535000Y-103065000D03*
D16*
X143535000Y-105605000D03*
D15*
X143535000Y-108145000D03*
X143535000Y-110685000D03*
X125755000Y-110685000D03*
X125755000Y-108145000D03*
D16*
X125755000Y-105605000D03*
D15*
X125755000Y-103065000D03*
X125755000Y-100525000D03*
X125755000Y-97985000D03*
X125755000Y-95445000D03*
D16*
X125755000Y-92905000D03*
D15*
X125755000Y-90365000D03*
X125755000Y-87825000D03*
X125755000Y-85285000D03*
X125755000Y-82745000D03*
D16*
X125755000Y-80205000D03*
D15*
X125755000Y-77665000D03*
X125755000Y-75125000D03*
X125755000Y-72585000D03*
X125755000Y-70045000D03*
D16*
X125755000Y-67505000D03*
D15*
X125755000Y-64965000D03*
X125755000Y-62425000D03*
D17*
X137370000Y-62555000D03*
D18*
X137070000Y-65585000D03*
X132220000Y-65585000D03*
D17*
X131920000Y-62555000D03*
D19*
X160782000Y-52578000D03*
X160782000Y-34798000D03*
X117602000Y-52578000D03*
X117602000Y-34798000D03*
D20*
X142494000Y-58166000D03*
X145894000Y-58166000D03*
X123141000Y-58420000D03*
X126541000Y-58420000D03*
D21*
X154452000Y-56642000D03*
D22*
X154452000Y-59182000D03*
X154452000Y-61722000D03*
X154452000Y-64262000D03*
X154452000Y-66802000D03*
X154452000Y-69342000D03*
D21*
X154452000Y-71882000D03*
D22*
X154452000Y-74422000D03*
D21*
X154452000Y-76962000D03*
D22*
X154452000Y-79502000D03*
X154452000Y-82042000D03*
X154452000Y-84582000D03*
D21*
X154452000Y-87122000D03*
D22*
X154452000Y-89662000D03*
D23*
X154452000Y-99822000D03*
D22*
X154452000Y-97282000D03*
X154452000Y-94742000D03*
X154452000Y-92202000D03*
D21*
X154452000Y-102362000D03*
D22*
X154452000Y-104902000D03*
X154452000Y-107442000D03*
X154452000Y-109982000D03*
D21*
X154452000Y-112522000D03*
D22*
X154452000Y-115062000D03*
D23*
X115316000Y-94615000D03*
D22*
X115316000Y-92075000D03*
X115316000Y-66675000D03*
D23*
X115316000Y-69215000D03*
D22*
X115316000Y-114935000D03*
X115316000Y-112395000D03*
X115316000Y-109855000D03*
D21*
X115316000Y-107315000D03*
D22*
X115316000Y-97155000D03*
X115316000Y-99695000D03*
X115316000Y-102235000D03*
D23*
X115316000Y-104775000D03*
D22*
X115316000Y-89535000D03*
X115316000Y-86995000D03*
X115316000Y-84455000D03*
D21*
X115316000Y-81915000D03*
D23*
X115316000Y-79375000D03*
D22*
X115316000Y-76835000D03*
X115316000Y-74295000D03*
X115316000Y-71755000D03*
D23*
X115316000Y-64135000D03*
D22*
X115316000Y-61595000D03*
X115316000Y-59055000D03*
X115316000Y-56515000D03*
D24*
X154673000Y-126619000D03*
X152273000Y-126619000D03*
D25*
X151473000Y-126619000D03*
D26*
X155473000Y-126619000D03*
D25*
X113443000Y-127000000D03*
D26*
X117443000Y-127000000D03*
D24*
X116643000Y-127000000D03*
X114243000Y-127000000D03*
D10*
X150499000Y-138630000D03*
X153039000Y-138630000D03*
D12*
X155579000Y-138630000D03*
X117729000Y-138283000D03*
D10*
X115189000Y-138283000D03*
X112649000Y-138283000D03*
D27*
X110617000Y-40894000D03*
D28*
X110617000Y-45974000D03*
D29*
X129667000Y-58547000D03*
D30*
X139827000Y-58547000D03*
D31*
X151384000Y-119888000D03*
X151384000Y-123188000D03*
X156284000Y-123188000D03*
X156284000Y-119888000D03*
X118110000Y-119761000D03*
X118110000Y-123061000D03*
X113210000Y-123061000D03*
X113210000Y-119761000D03*
D32*
X130820000Y-113919000D03*
D33*
X138420000Y-113919000D03*
M02*
