G04 #@! TF.GenerationSoftware,KiCad,Pcbnew,7.0.1*
G04 #@! TF.CreationDate,2023-06-05T16:12:44-05:00*
G04 #@! TF.ProjectId,Pico Breakout Board,5069636f-2042-4726-9561-6b6f75742042,rev?*
G04 #@! TF.SameCoordinates,Original*
G04 #@! TF.FileFunction,Copper,L1,Top*
G04 #@! TF.FilePolarity,Positive*
%FSLAX46Y46*%
G04 Gerber Fmt 4.6, Leading zero omitted, Abs format (unit mm)*
G04 Created by KiCad (PCBNEW 7.0.1) date 2023-06-05 16:12:44*
%MOMM*%
%LPD*%
G01*
G04 APERTURE LIST*
G04 Aperture macros list*
%AMRoundRect*
0 Rectangle with rounded corners*
0 $1 Rounding radius*
0 $2 $3 $4 $5 $6 $7 $8 $9 X,Y pos of 4 corners*
0 Add a 4 corners polygon primitive as box body*
4,1,4,$2,$3,$4,$5,$6,$7,$8,$9,$2,$3,0*
0 Add four circle primitives for the rounded corners*
1,1,$1+$1,$2,$3*
1,1,$1+$1,$4,$5*
1,1,$1+$1,$6,$7*
1,1,$1+$1,$8,$9*
0 Add four rect primitives between the rounded corners*
20,1,$1+$1,$2,$3,$4,$5,0*
20,1,$1+$1,$4,$5,$6,$7,0*
20,1,$1+$1,$6,$7,$8,$9,0*
20,1,$1+$1,$8,$9,$2,$3,0*%
%AMFreePoly0*
4,1,6,1.000000,0.000000,0.500000,-0.750000,-0.500000,-0.750000,-0.500000,0.750000,0.500000,0.750000,1.000000,0.000000,1.000000,0.000000,$1*%
%AMFreePoly1*
4,1,7,0.700000,0.000000,1.200000,-0.750000,-1.200000,-0.750000,-0.700000,0.000000,-1.200000,0.750000,1.200000,0.750000,0.700000,0.000000,0.700000,0.000000,$1*%
G04 Aperture macros list end*
G04 #@! TA.AperFunction,ComponentPad*
%ADD10O,1.740000X2.190000*%
G04 #@! TD*
G04 #@! TA.AperFunction,ComponentPad*
%ADD11RoundRect,0.250000X-0.620000X-0.845000X0.620000X-0.845000X0.620000X0.845000X-0.620000X0.845000X0*%
G04 #@! TD*
G04 #@! TA.AperFunction,ComponentPad*
%ADD12RoundRect,0.250000X0.620000X0.845000X-0.620000X0.845000X-0.620000X-0.845000X0.620000X-0.845000X0*%
G04 #@! TD*
G04 #@! TA.AperFunction,ComponentPad*
%ADD13C,1.700000*%
G04 #@! TD*
G04 #@! TA.AperFunction,ComponentPad*
%ADD14RoundRect,0.250000X0.600000X-0.600000X0.600000X0.600000X-0.600000X0.600000X-0.600000X-0.600000X0*%
G04 #@! TD*
G04 #@! TA.AperFunction,ComponentPad*
%ADD15O,1.700000X1.700000*%
G04 #@! TD*
G04 #@! TA.AperFunction,ComponentPad*
%ADD16R,1.700000X1.700000*%
G04 #@! TD*
G04 #@! TA.AperFunction,ComponentPad*
%ADD17C,3.000000*%
G04 #@! TD*
G04 #@! TA.AperFunction,SMDPad,CuDef*
%ADD18R,0.900000X1.700000*%
G04 #@! TD*
G04 #@! TA.AperFunction,ComponentPad*
%ADD19RoundRect,0.250000X-0.845000X0.620000X-0.845000X-0.620000X0.845000X-0.620000X0.845000X0.620000X0*%
G04 #@! TD*
G04 #@! TA.AperFunction,ComponentPad*
%ADD20O,2.190000X1.740000*%
G04 #@! TD*
G04 #@! TA.AperFunction,ComponentPad*
%ADD21RoundRect,0.250000X0.845000X-0.620000X0.845000X0.620000X-0.845000X0.620000X-0.845000X-0.620000X0*%
G04 #@! TD*
G04 #@! TA.AperFunction,SMDPad,CuDef*
%ADD22FreePoly0,0.000000*%
G04 #@! TD*
G04 #@! TA.AperFunction,SMDPad,CuDef*
%ADD23FreePoly1,0.000000*%
G04 #@! TD*
G04 #@! TA.AperFunction,SMDPad,CuDef*
%ADD24FreePoly0,180.000000*%
G04 #@! TD*
G04 #@! TA.AperFunction,SMDPad,CuDef*
%ADD25FreePoly1,180.000000*%
G04 #@! TD*
G04 #@! TA.AperFunction,ComponentPad*
%ADD26C,4.000000*%
G04 #@! TD*
G04 #@! TA.AperFunction,ComponentPad*
%ADD27R,4.000000X4.000000*%
G04 #@! TD*
G04 #@! TA.AperFunction,ComponentPad*
%ADD28O,2.200000X2.200000*%
G04 #@! TD*
G04 #@! TA.AperFunction,ComponentPad*
%ADD29R,2.200000X2.200000*%
G04 #@! TD*
G04 #@! TA.AperFunction,SMDPad,CuDef*
%ADD30R,2.000000X1.500000*%
G04 #@! TD*
G04 #@! TA.AperFunction,ComponentPad*
%ADD31R,2.000000X2.000000*%
G04 #@! TD*
G04 #@! TA.AperFunction,ComponentPad*
%ADD32C,2.000000*%
G04 #@! TD*
G04 #@! TA.AperFunction,ViaPad*
%ADD33C,0.800000*%
G04 #@! TD*
G04 #@! TA.AperFunction,Conductor*
%ADD34C,3.000000*%
G04 #@! TD*
G04 #@! TA.AperFunction,Conductor*
%ADD35C,1.500000*%
G04 #@! TD*
G04 #@! TA.AperFunction,Conductor*
%ADD36C,0.250000*%
G04 #@! TD*
G04 #@! TA.AperFunction,Conductor*
%ADD37C,2.000000*%
G04 #@! TD*
G04 APERTURE END LIST*
D10*
X145796000Y-138430000D03*
X143256000Y-138430000D03*
X140716000Y-138430000D03*
D11*
X138176000Y-138430000D03*
D12*
X135636000Y-138430000D03*
D10*
X133096000Y-138430000D03*
X130556000Y-138430000D03*
X128016000Y-138430000D03*
D12*
X125476000Y-138430000D03*
D10*
X122936000Y-138430000D03*
D13*
X125603000Y-124333000D03*
X128143000Y-124333000D03*
X130683000Y-124333000D03*
X133223000Y-124333000D03*
X135763000Y-124333000D03*
X138303000Y-124333000D03*
X140843000Y-124333000D03*
X143383000Y-124333000D03*
X143383000Y-126873000D03*
X140843000Y-126873000D03*
X138303000Y-126873000D03*
X135763000Y-126873000D03*
X133223000Y-126873000D03*
X130683000Y-126873000D03*
X128143000Y-126873000D03*
D14*
X125603000Y-126873000D03*
D15*
X137185000Y-110455000D03*
D16*
X134645000Y-110455000D03*
D15*
X132105000Y-110455000D03*
X143535000Y-62425000D03*
X143535000Y-64965000D03*
D16*
X143535000Y-67505000D03*
D15*
X143535000Y-70045000D03*
X143535000Y-72585000D03*
X143535000Y-75125000D03*
X143535000Y-77665000D03*
D16*
X143535000Y-80205000D03*
D15*
X143535000Y-82745000D03*
X143535000Y-85285000D03*
X143535000Y-87825000D03*
X143535000Y-90365000D03*
D16*
X143535000Y-92905000D03*
D15*
X143535000Y-95445000D03*
X143535000Y-97985000D03*
X143535000Y-100525000D03*
X143535000Y-103065000D03*
D16*
X143535000Y-105605000D03*
D15*
X143535000Y-108145000D03*
X143535000Y-110685000D03*
X125755000Y-110685000D03*
X125755000Y-108145000D03*
D16*
X125755000Y-105605000D03*
D15*
X125755000Y-103065000D03*
X125755000Y-100525000D03*
X125755000Y-97985000D03*
X125755000Y-95445000D03*
D16*
X125755000Y-92905000D03*
D15*
X125755000Y-90365000D03*
X125755000Y-87825000D03*
X125755000Y-85285000D03*
X125755000Y-82745000D03*
D16*
X125755000Y-80205000D03*
D15*
X125755000Y-77665000D03*
X125755000Y-75125000D03*
X125755000Y-72585000D03*
X125755000Y-70045000D03*
D16*
X125755000Y-67505000D03*
D15*
X125755000Y-64965000D03*
X125755000Y-62425000D03*
D17*
X160782000Y-52578000D03*
X160782000Y-34798000D03*
X117602000Y-52578000D03*
X117602000Y-34798000D03*
D18*
X142494000Y-58166000D03*
X145894000Y-58166000D03*
X123141000Y-58420000D03*
X126541000Y-58420000D03*
D19*
X154452000Y-56642000D03*
D20*
X154452000Y-59182000D03*
X154452000Y-61722000D03*
X154452000Y-64262000D03*
X154452000Y-66802000D03*
X154452000Y-69342000D03*
D19*
X154452000Y-71882000D03*
D20*
X154452000Y-74422000D03*
D19*
X154452000Y-76962000D03*
D20*
X154452000Y-79502000D03*
X154452000Y-82042000D03*
X154452000Y-84582000D03*
D19*
X154452000Y-87122000D03*
D20*
X154452000Y-89662000D03*
D21*
X154452000Y-99822000D03*
D20*
X154452000Y-97282000D03*
X154452000Y-94742000D03*
X154452000Y-92202000D03*
D19*
X154452000Y-102362000D03*
D20*
X154452000Y-104902000D03*
X154452000Y-107442000D03*
X154452000Y-109982000D03*
D19*
X154452000Y-112522000D03*
D20*
X154452000Y-115062000D03*
D21*
X115316000Y-94615000D03*
D20*
X115316000Y-92075000D03*
X115316000Y-66675000D03*
D21*
X115316000Y-69215000D03*
D20*
X115316000Y-114935000D03*
X115316000Y-112395000D03*
X115316000Y-109855000D03*
D19*
X115316000Y-107315000D03*
D20*
X115316000Y-97155000D03*
X115316000Y-99695000D03*
X115316000Y-102235000D03*
D21*
X115316000Y-104775000D03*
D20*
X115316000Y-89535000D03*
X115316000Y-86995000D03*
X115316000Y-84455000D03*
D19*
X115316000Y-81915000D03*
D21*
X115316000Y-79375000D03*
D20*
X115316000Y-76835000D03*
X115316000Y-74295000D03*
X115316000Y-71755000D03*
D21*
X115316000Y-64135000D03*
D20*
X115316000Y-61595000D03*
X115316000Y-59055000D03*
X115316000Y-56515000D03*
D22*
X151473000Y-126619000D03*
D23*
X153473000Y-126619000D03*
D24*
X155473000Y-126619000D03*
D22*
X113443000Y-127000000D03*
D25*
X115443000Y-127000000D03*
D24*
X117443000Y-127000000D03*
D10*
X150499000Y-138630000D03*
X153039000Y-138630000D03*
D12*
X155579000Y-138630000D03*
X117729000Y-138283000D03*
D10*
X115189000Y-138283000D03*
X112649000Y-138283000D03*
D26*
X110617000Y-40894000D03*
D27*
X110617000Y-45974000D03*
D28*
X129667000Y-58547000D03*
D29*
X139827000Y-58547000D03*
D30*
X151384000Y-119888000D03*
X151384000Y-123188000D03*
X156284000Y-123188000D03*
X156284000Y-119888000D03*
X118110000Y-119761000D03*
X118110000Y-123061000D03*
X113210000Y-123061000D03*
X113210000Y-119761000D03*
D31*
X130820000Y-113919000D03*
D32*
X138420000Y-113919000D03*
D33*
X137414000Y-90170000D03*
X137414000Y-89154000D03*
X145823000Y-104240000D03*
X138176000Y-104267000D03*
X139708599Y-108068401D03*
X138811000Y-70358000D03*
X151130000Y-125476000D03*
X131191000Y-133604000D03*
X132334000Y-133604000D03*
X151473000Y-126619000D03*
X119634000Y-118110000D03*
X119709502Y-120269000D03*
X113665000Y-124841000D03*
X153035000Y-133350000D03*
X150622000Y-130937000D03*
X139573000Y-133858000D03*
X139954000Y-128942500D03*
X140335000Y-101346000D03*
X148971000Y-101092000D03*
X135763000Y-101981000D03*
X133223000Y-131318000D03*
X122296700Y-115701300D03*
X135763000Y-131318000D03*
X144780000Y-114046000D03*
X131377201Y-120971799D03*
X129413000Y-121285000D03*
X123317000Y-116840000D03*
X150876000Y-106680000D03*
X136906000Y-117094000D03*
X128143000Y-108077000D03*
X127654500Y-102997000D03*
X130877799Y-100262201D03*
X127762000Y-98171000D03*
X118110000Y-108712000D03*
X118110000Y-119761000D03*
X113210000Y-119761000D03*
X151384000Y-119888000D03*
X156284000Y-119888000D03*
X139700000Y-63373000D03*
X141859000Y-61087000D03*
X149098000Y-70612000D03*
D34*
X113445427Y-40894000D02*
X110617000Y-40894000D01*
X116459000Y-47879000D02*
X116459000Y-43907573D01*
X113284000Y-51054000D02*
X116459000Y-47879000D01*
X112521000Y-55246000D02*
X113284000Y-54483000D01*
X116459000Y-43907573D02*
X113445427Y-40894000D01*
X112521000Y-67739529D02*
X112521000Y-55246000D01*
X113284000Y-54483000D02*
X113284000Y-51054000D01*
D35*
X148712811Y-119888000D02*
X151384000Y-119888000D01*
X141735000Y-105916811D02*
X141735000Y-112910189D01*
X141735000Y-112910189D02*
X148712811Y-119888000D01*
X137414000Y-101595811D02*
X141735000Y-105916811D01*
X137414000Y-89154000D02*
X137414000Y-101595811D01*
D36*
X140645000Y-115389792D02*
X140645000Y-110029402D01*
X140645000Y-110029402D02*
X130877799Y-100262201D01*
X140378000Y-117264000D02*
X140378000Y-115656792D01*
X142208000Y-119094000D02*
X140378000Y-117264000D01*
X142208000Y-125698000D02*
X142208000Y-119094000D01*
X140378000Y-115656792D02*
X140645000Y-115389792D01*
X143383000Y-126873000D02*
X142208000Y-125698000D01*
X140195000Y-110604000D02*
X127762000Y-98171000D01*
X140195000Y-115203396D02*
X140195000Y-110604000D01*
X139928000Y-115470396D02*
X140195000Y-115203396D01*
X139928000Y-123418000D02*
X139928000Y-115470396D01*
X140843000Y-124333000D02*
X139928000Y-123418000D01*
X131388701Y-102997000D02*
X127654500Y-102997000D01*
X138360000Y-109968299D02*
X131388701Y-102997000D01*
X139745000Y-111678000D02*
X138360000Y-110293000D01*
X138360000Y-110293000D02*
X138360000Y-109968299D01*
X139745000Y-115017000D02*
X139745000Y-111678000D01*
X139478000Y-125508000D02*
X139478000Y-115284000D01*
X140843000Y-126873000D02*
X139478000Y-125508000D01*
X139478000Y-115284000D02*
X139745000Y-115017000D01*
X138176000Y-104267000D02*
X138022000Y-104240000D01*
X135763000Y-101981000D02*
X138176000Y-104267000D01*
X132233000Y-63780000D02*
X138811000Y-70358000D01*
X130801000Y-63780000D02*
X132233000Y-63780000D01*
X126541000Y-59520000D02*
X130801000Y-63780000D01*
X126541000Y-58420000D02*
X126541000Y-59520000D01*
X139700000Y-83990000D02*
X143535000Y-87825000D01*
X139700000Y-63373000D02*
X139700000Y-83990000D01*
D35*
X153334000Y-124888000D02*
X151910496Y-124888000D01*
X151323000Y-125475496D02*
X151323000Y-126469000D01*
X153924000Y-122428000D02*
X153924000Y-124298000D01*
X151910496Y-124888000D02*
X151323000Y-125475496D01*
X151384000Y-119888000D02*
X153924000Y-122428000D01*
X153924000Y-124298000D02*
X153334000Y-124888000D01*
X151323000Y-126469000D02*
X151473000Y-126619000D01*
X131191000Y-133604000D02*
X132334000Y-133604000D01*
X124047000Y-133604000D02*
X131191000Y-133604000D01*
X117443000Y-127000000D02*
X124047000Y-133604000D01*
D36*
X119709502Y-118185502D02*
X119634000Y-118110000D01*
X119709502Y-120269000D02*
X119709502Y-118185502D01*
X113210000Y-124386000D02*
X113665000Y-124841000D01*
X113210000Y-123061000D02*
X113210000Y-124386000D01*
X153035000Y-133350000D02*
X153039000Y-133354000D01*
X153039000Y-133354000D02*
X153039000Y-138630000D01*
X150248000Y-124324000D02*
X150248000Y-130563000D01*
X150248000Y-130563000D02*
X150622000Y-130937000D01*
X151384000Y-123188000D02*
X150248000Y-124324000D01*
D35*
X118745000Y-125698000D02*
X117443000Y-127000000D01*
X118745000Y-125349000D02*
X118745000Y-125698000D01*
X118157000Y-124761000D02*
X118745000Y-125349000D01*
X115623000Y-124224000D02*
X116160000Y-124761000D01*
X116160000Y-124761000D02*
X118157000Y-124761000D01*
X115623000Y-122174000D02*
X115623000Y-124224000D01*
X113210000Y-119761000D02*
X115623000Y-122174000D01*
D34*
X157988000Y-74098471D02*
X155741529Y-71852000D01*
X157988000Y-89338471D02*
X157988000Y-74098471D01*
X157988000Y-110490000D02*
X157988000Y-89338471D01*
X157988000Y-89338471D02*
X155741529Y-87092000D01*
X155986000Y-112492000D02*
X157988000Y-110490000D01*
X155741529Y-112492000D02*
X155986000Y-112492000D01*
X158984000Y-125638000D02*
X158984000Y-115734471D01*
X158003000Y-126619000D02*
X158984000Y-125638000D01*
X158984000Y-115734471D02*
X155741529Y-112492000D01*
X156373000Y-126619000D02*
X158003000Y-126619000D01*
X158149000Y-128395000D02*
X156373000Y-126619000D01*
X158149000Y-140282716D02*
X158149000Y-128395000D01*
X157006716Y-141425000D02*
X158149000Y-140282716D01*
X124200529Y-141425000D02*
X157006716Y-141425000D01*
X124000529Y-141225000D02*
X124200529Y-141425000D01*
X124000529Y-141225000D02*
X125506000Y-139719529D01*
X110079000Y-139572529D02*
X111731471Y-141225000D01*
X110079000Y-128009836D02*
X110079000Y-139572529D01*
X111088836Y-127000000D02*
X110079000Y-128009836D01*
X111731471Y-141225000D02*
X124000529Y-141225000D01*
X111088836Y-127000000D02*
X112543000Y-127000000D01*
X110510000Y-126421164D02*
X111088836Y-127000000D01*
X110510000Y-95150529D02*
X110510000Y-126421164D01*
X112521000Y-93139529D02*
X110510000Y-95150529D01*
X112521000Y-93139529D02*
X114026471Y-94645000D01*
X112521000Y-67739529D02*
X112521000Y-93139529D01*
X112521000Y-67739529D02*
X114026471Y-69245000D01*
X116587000Y-34927000D02*
X110493000Y-41021000D01*
D36*
X147320000Y-63774000D02*
X147320000Y-71340000D01*
X154452000Y-56642000D02*
X147320000Y-63774000D01*
X147320000Y-71340000D02*
X143535000Y-75125000D01*
X139954000Y-128942500D02*
X139573000Y-129323500D01*
X139573000Y-129323500D02*
X139573000Y-133858000D01*
X140335000Y-93565000D02*
X143535000Y-90365000D01*
X140335000Y-101346000D02*
X140335000Y-93565000D01*
X145823000Y-104240000D02*
X148971000Y-101092000D01*
X128034827Y-131318000D02*
X122296700Y-125579873D01*
X122296700Y-125579873D02*
X122296700Y-115701300D01*
X133223000Y-131318000D02*
X128034827Y-131318000D01*
X135763000Y-126873000D02*
X135763000Y-131318000D01*
X144780000Y-111930000D02*
X143535000Y-110685000D01*
X144780000Y-114046000D02*
X144780000Y-111930000D01*
X131858000Y-121452598D02*
X131377201Y-120971799D01*
X131858000Y-125698000D02*
X131858000Y-121452598D01*
X130683000Y-126873000D02*
X131858000Y-125698000D01*
X129413000Y-125603000D02*
X129413000Y-121285000D01*
X128143000Y-126873000D02*
X129413000Y-125603000D01*
X123317000Y-124587000D02*
X123317000Y-116840000D01*
X125603000Y-126873000D02*
X123317000Y-124587000D01*
X152654000Y-104902000D02*
X154452000Y-104902000D01*
X150876000Y-106680000D02*
X152654000Y-104902000D01*
X136938000Y-117062000D02*
X136938000Y-116949701D01*
X136906000Y-117094000D02*
X136938000Y-117062000D01*
X136938000Y-117126000D02*
X136906000Y-117094000D01*
X128143000Y-108154701D02*
X128143000Y-108077000D01*
X136938000Y-116949701D02*
X128143000Y-108154701D01*
X136938000Y-125508000D02*
X136938000Y-117126000D01*
X138303000Y-126873000D02*
X136938000Y-125508000D01*
X138176000Y-129540000D02*
X138176000Y-138430000D01*
X140843000Y-126873000D02*
X138176000Y-129540000D01*
X140716000Y-129540000D02*
X140716000Y-138430000D01*
X143383000Y-126873000D02*
X140716000Y-129540000D01*
X134398000Y-125698000D02*
X134398000Y-137128000D01*
X135763000Y-124333000D02*
X134398000Y-125698000D01*
X134398000Y-137128000D02*
X133096000Y-138430000D01*
X126930000Y-96620000D02*
X125755000Y-95445000D01*
X126930000Y-115500000D02*
X126930000Y-96620000D01*
X135763000Y-124333000D02*
X126930000Y-115500000D01*
X130683000Y-121285000D02*
X118110000Y-108712000D01*
X130683000Y-124333000D02*
X130683000Y-121285000D01*
X117475000Y-109855000D02*
X115316000Y-109855000D01*
X125603000Y-117983000D02*
X117475000Y-109855000D01*
X125603000Y-124333000D02*
X125603000Y-117983000D01*
D35*
X115443000Y-127000000D02*
X115443000Y-131572000D01*
X115443000Y-131572000D02*
X112649000Y-134366000D01*
X112649000Y-134366000D02*
X112649000Y-138283000D01*
D37*
X146429000Y-34927000D02*
X159767000Y-34927000D01*
X129667000Y-51689000D02*
X146429000Y-34927000D01*
X129667000Y-58547000D02*
X129667000Y-51689000D01*
D35*
X150499000Y-133600000D02*
X150499000Y-138630000D01*
X153473000Y-130626000D02*
X150499000Y-133600000D01*
X153473000Y-126619000D02*
X153473000Y-130626000D01*
D36*
X149156000Y-94904000D02*
X149156000Y-82258000D01*
X149156000Y-82258000D02*
X154452000Y-76962000D01*
X143535000Y-100525000D02*
X149156000Y-94904000D01*
X149606000Y-84348000D02*
X154452000Y-79502000D01*
X143535000Y-103065000D02*
X149606000Y-96994000D01*
X149606000Y-96994000D02*
X149606000Y-84348000D01*
X155956000Y-98318000D02*
X154452000Y-99822000D01*
X155956000Y-96871015D02*
X155956000Y-98318000D01*
X155171985Y-96087000D02*
X155956000Y-96871015D01*
X153732015Y-96087000D02*
X155171985Y-96087000D01*
X151858000Y-99822000D02*
X151858000Y-97961015D01*
X151858000Y-97961015D02*
X153732015Y-96087000D01*
X143535000Y-108145000D02*
X151858000Y-99822000D01*
X153032000Y-98702000D02*
X154452000Y-97282000D01*
X153032000Y-101188000D02*
X153032000Y-98702000D01*
X143535000Y-110685000D02*
X153032000Y-101188000D01*
X144780000Y-58166000D02*
X141859000Y-61087000D01*
X145894000Y-58166000D02*
X144780000Y-58166000D01*
X148373000Y-72827000D02*
X148373000Y-65261000D01*
X143535000Y-77665000D02*
X148373000Y-72827000D01*
X148373000Y-65261000D02*
X154452000Y-59182000D01*
X149098000Y-74642000D02*
X149098000Y-70612000D01*
X143535000Y-80205000D02*
X149098000Y-74642000D01*
X149987000Y-76293000D02*
X149987000Y-66187000D01*
X149987000Y-66187000D02*
X154452000Y-61722000D01*
X143535000Y-82745000D02*
X149987000Y-76293000D01*
X153032000Y-65682000D02*
X154452000Y-64262000D01*
X153032000Y-75788000D02*
X153032000Y-65682000D01*
X143535000Y-85285000D02*
X153032000Y-75788000D01*
D35*
X139827000Y-61257000D02*
X143535000Y-64965000D01*
X139827000Y-58547000D02*
X139827000Y-61257000D01*
D36*
X124580000Y-94080000D02*
X126930000Y-94080000D01*
X126930000Y-89000000D02*
X125755000Y-87825000D01*
X124580000Y-100591000D02*
X124580000Y-94080000D01*
X126930000Y-94080000D02*
X126930000Y-89000000D01*
X115316000Y-109855000D02*
X124580000Y-100591000D01*
X117186000Y-105445000D02*
X117186000Y-98934000D01*
X115316000Y-107315000D02*
X117186000Y-105445000D01*
X117186000Y-98934000D02*
X125755000Y-90365000D01*
X116736000Y-103355000D02*
X116736000Y-94304000D01*
X116736000Y-94304000D02*
X125755000Y-85285000D01*
X115316000Y-104775000D02*
X116736000Y-103355000D01*
X121505000Y-81915000D02*
X125755000Y-77665000D01*
X115316000Y-81915000D02*
X121505000Y-81915000D01*
X118965000Y-79375000D02*
X125755000Y-72585000D01*
X115316000Y-79375000D02*
X118965000Y-79375000D01*
X118965000Y-76835000D02*
X125755000Y-70045000D01*
X115316000Y-76835000D02*
X118965000Y-76835000D01*
X115316000Y-64135000D02*
X116146000Y-64965000D01*
X116146000Y-64965000D02*
X125755000Y-64965000D01*
X124925000Y-61595000D02*
X125755000Y-62425000D01*
X115316000Y-61595000D02*
X124925000Y-61595000D01*
G04 #@! TA.AperFunction,Conductor*
G36*
X159666112Y-32915168D02*
G01*
X159711000Y-32956960D01*
X159730369Y-33015154D01*
X159719479Y-33075511D01*
X159680996Y-33123267D01*
X159468602Y-33282263D01*
X159360685Y-33390181D01*
X159320457Y-33417061D01*
X159273004Y-33426500D01*
X146529865Y-33426500D01*
X146514527Y-33425548D01*
X146491219Y-33422642D01*
X146404160Y-33426243D01*
X146400526Y-33426394D01*
X146395404Y-33426500D01*
X146366933Y-33426500D01*
X146362774Y-33426844D01*
X146338550Y-33428851D01*
X146333440Y-33429168D01*
X146242762Y-33432919D01*
X146242763Y-33432919D01*
X146219776Y-33437738D01*
X146204579Y-33439952D01*
X146181180Y-33441891D01*
X146093215Y-33464166D01*
X146088225Y-33465320D01*
X145999385Y-33483949D01*
X145977501Y-33492488D01*
X145962874Y-33497174D01*
X145940116Y-33502937D01*
X145857023Y-33539385D01*
X145852291Y-33541346D01*
X145767723Y-33574345D01*
X145747547Y-33586367D01*
X145733895Y-33593394D01*
X145712396Y-33602825D01*
X145636410Y-33652468D01*
X145632065Y-33655180D01*
X145554104Y-33701635D01*
X145536183Y-33716813D01*
X145523868Y-33725995D01*
X145504218Y-33738833D01*
X145437447Y-33800299D01*
X145433610Y-33803687D01*
X145411878Y-33822093D01*
X145391739Y-33842232D01*
X145388045Y-33845775D01*
X145321262Y-33907254D01*
X145306832Y-33925793D01*
X145296664Y-33937306D01*
X128677306Y-50556664D01*
X128665793Y-50566832D01*
X128647254Y-50581262D01*
X128585775Y-50648045D01*
X128582232Y-50651739D01*
X128562093Y-50671878D01*
X128543687Y-50693610D01*
X128540299Y-50697447D01*
X128478833Y-50764218D01*
X128465995Y-50783868D01*
X128456813Y-50796183D01*
X128441636Y-50814102D01*
X128395174Y-50892074D01*
X128392462Y-50896417D01*
X128342826Y-50972392D01*
X128333396Y-50993891D01*
X128326368Y-51007545D01*
X128314343Y-51027726D01*
X128281346Y-51112288D01*
X128279386Y-51117020D01*
X128242936Y-51200120D01*
X128237169Y-51222890D01*
X128232484Y-51237515D01*
X128223951Y-51259385D01*
X128205324Y-51348211D01*
X128204170Y-51353200D01*
X128181891Y-51441180D01*
X128179952Y-51464578D01*
X128177738Y-51479777D01*
X128172919Y-51502762D01*
X128169168Y-51593440D01*
X128168851Y-51598550D01*
X128166500Y-51626934D01*
X128166500Y-51655404D01*
X128166394Y-51660529D01*
X128162642Y-51751219D01*
X128165548Y-51774527D01*
X128166500Y-51789865D01*
X128166500Y-57962553D01*
X128157061Y-58010006D01*
X128140126Y-58050888D01*
X128081317Y-58295850D01*
X128061551Y-58547000D01*
X128081317Y-58798149D01*
X128140126Y-59043110D01*
X128188330Y-59159484D01*
X128236534Y-59275859D01*
X128368164Y-59490659D01*
X128531776Y-59682224D01*
X128723341Y-59845836D01*
X128938141Y-59977466D01*
X129170889Y-60073873D01*
X129415852Y-60132683D01*
X129667000Y-60152449D01*
X129918148Y-60132683D01*
X130163111Y-60073873D01*
X130395859Y-59977466D01*
X130610659Y-59845836D01*
X130802224Y-59682224D01*
X130965836Y-59490659D01*
X131097466Y-59275859D01*
X131193873Y-59043111D01*
X131252683Y-58798148D01*
X131272449Y-58547000D01*
X131252683Y-58295852D01*
X131193873Y-58050889D01*
X131188709Y-58038423D01*
X131176939Y-58010006D01*
X131167500Y-57962553D01*
X131167500Y-54301657D01*
X159765448Y-54301657D01*
X159949045Y-54401909D01*
X160217100Y-54501889D01*
X160496642Y-54562699D01*
X160782000Y-54583109D01*
X161067357Y-54562699D01*
X161346899Y-54501889D01*
X161614954Y-54401909D01*
X161798550Y-54301658D01*
X161798550Y-54301657D01*
X160782000Y-53285107D01*
X159765448Y-54301657D01*
X131167500Y-54301657D01*
X131167500Y-52577999D01*
X158776890Y-52577999D01*
X158797300Y-52863357D01*
X158858111Y-53142902D01*
X158958088Y-53410952D01*
X159058341Y-53594550D01*
X160074893Y-52578001D01*
X160074893Y-52578000D01*
X159058341Y-51561448D01*
X159058339Y-51561448D01*
X158958090Y-51745043D01*
X158858111Y-52013097D01*
X158797300Y-52292642D01*
X158776890Y-52577999D01*
X131167500Y-52577999D01*
X131167500Y-52361890D01*
X131176939Y-52314437D01*
X131203819Y-52274209D01*
X132623687Y-50854341D01*
X159765448Y-50854341D01*
X160782000Y-51870893D01*
X160782001Y-51870893D01*
X161798550Y-50854341D01*
X161798550Y-50854340D01*
X161614952Y-50754088D01*
X161346902Y-50654111D01*
X161067357Y-50593300D01*
X160782000Y-50572890D01*
X160496642Y-50593300D01*
X160217097Y-50654111D01*
X159949043Y-50754090D01*
X159765448Y-50854339D01*
X159765448Y-50854341D01*
X132623687Y-50854341D01*
X147014209Y-36463819D01*
X147054437Y-36436939D01*
X147101890Y-36427500D01*
X159579301Y-36427500D01*
X159618460Y-36433846D01*
X159653610Y-36452232D01*
X159697685Y-36485226D01*
X159948839Y-36622367D01*
X160216954Y-36722369D01*
X160216957Y-36722369D01*
X160216958Y-36722370D01*
X160269217Y-36733738D01*
X160496572Y-36783196D01*
X160760012Y-36802037D01*
X160781999Y-36803610D01*
X160781999Y-36803609D01*
X160782000Y-36803610D01*
X161067428Y-36783196D01*
X161347046Y-36722369D01*
X161615161Y-36622367D01*
X161866315Y-36485226D01*
X162095395Y-36313739D01*
X162297739Y-36111395D01*
X162376733Y-36005870D01*
X162424489Y-35967388D01*
X162484846Y-35956498D01*
X162543040Y-35975867D01*
X162584832Y-36020755D01*
X162600000Y-36080182D01*
X162600000Y-51431909D01*
X162580315Y-51498948D01*
X162527512Y-51544703D01*
X162521545Y-51545560D01*
X161489107Y-52578000D01*
X161489107Y-52578001D01*
X162521545Y-53610438D01*
X162527512Y-53611296D01*
X162580315Y-53657051D01*
X162600000Y-53724090D01*
X162600000Y-143376000D01*
X162583387Y-143438000D01*
X162538000Y-143483387D01*
X162476000Y-143500000D01*
X157855188Y-143500000D01*
X157789645Y-143481262D01*
X157743911Y-143430711D01*
X157731807Y-143363625D01*
X157756992Y-143300279D01*
X157811853Y-143259818D01*
X157839877Y-143249367D01*
X157898877Y-143217149D01*
X157906757Y-143213205D01*
X157967903Y-143185282D01*
X158024442Y-143148945D01*
X158032050Y-143144431D01*
X158091031Y-143112226D01*
X158144830Y-143071950D01*
X158152087Y-143066912D01*
X158208633Y-143030574D01*
X158259426Y-142986560D01*
X158266312Y-142981012D01*
X158312343Y-142946554D01*
X158320111Y-142940739D01*
X158522455Y-142738395D01*
X158581035Y-142679815D01*
X158581037Y-142679811D01*
X159614089Y-141646761D01*
X159664732Y-141596118D01*
X159664732Y-141596117D01*
X159664739Y-141596111D01*
X159705023Y-141542296D01*
X159710545Y-141535443D01*
X159754574Y-141484633D01*
X159790926Y-141428066D01*
X159795932Y-141420855D01*
X159836226Y-141367031D01*
X159868438Y-141308037D01*
X159872945Y-141300444D01*
X159909283Y-141243902D01*
X159937207Y-141182753D01*
X159941151Y-141174873D01*
X159973367Y-141115877D01*
X159996855Y-141052899D01*
X160000236Y-141044738D01*
X160028156Y-140983604D01*
X160047095Y-140919100D01*
X160049871Y-140910759D01*
X160073369Y-140847762D01*
X160077541Y-140828582D01*
X160087655Y-140782089D01*
X160089839Y-140773528D01*
X160108776Y-140709038D01*
X160118340Y-140642507D01*
X160119902Y-140633845D01*
X160134196Y-140568144D01*
X160138991Y-140501092D01*
X160139931Y-140492343D01*
X160149500Y-140425794D01*
X160149500Y-140139637D01*
X160149500Y-128323552D01*
X160149500Y-128251921D01*
X160139931Y-128185375D01*
X160138991Y-128176620D01*
X160134196Y-128109572D01*
X160119908Y-128043891D01*
X160118338Y-128035190D01*
X160108775Y-127968677D01*
X160089843Y-127904202D01*
X160087656Y-127895630D01*
X160073370Y-127829958D01*
X160073369Y-127829954D01*
X160049874Y-127766963D01*
X160047090Y-127758597D01*
X160028156Y-127694111D01*
X160000232Y-127632968D01*
X159996855Y-127624817D01*
X159978375Y-127575266D01*
X159973392Y-127505576D01*
X160006875Y-127444257D01*
X160449089Y-127002045D01*
X160449089Y-127002044D01*
X160499739Y-126951395D01*
X160540025Y-126897576D01*
X160545545Y-126890727D01*
X160589574Y-126839917D01*
X160625926Y-126783350D01*
X160630932Y-126776139D01*
X160671226Y-126722315D01*
X160703438Y-126663321D01*
X160707945Y-126655728D01*
X160718339Y-126639555D01*
X160744283Y-126599186D01*
X160772207Y-126538037D01*
X160776151Y-126530157D01*
X160808367Y-126471161D01*
X160831855Y-126408183D01*
X160835236Y-126400022D01*
X160863156Y-126338888D01*
X160882095Y-126274384D01*
X160884871Y-126266043D01*
X160908369Y-126203046D01*
X160910267Y-126194319D01*
X160922655Y-126137373D01*
X160924839Y-126128812D01*
X160943776Y-126064322D01*
X160953340Y-125997791D01*
X160954902Y-125989129D01*
X160969196Y-125923428D01*
X160973991Y-125856376D01*
X160974931Y-125847627D01*
X160984500Y-125781078D01*
X160984500Y-125494921D01*
X160984500Y-115663023D01*
X160984500Y-115591392D01*
X160974931Y-115524846D01*
X160973991Y-115516091D01*
X160969196Y-115449043D01*
X160954908Y-115383362D01*
X160953338Y-115374661D01*
X160943775Y-115308148D01*
X160924843Y-115243673D01*
X160922656Y-115235101D01*
X160908370Y-115169429D01*
X160908369Y-115169425D01*
X160884874Y-115106434D01*
X160882090Y-115098068D01*
X160863156Y-115033582D01*
X160859914Y-115026484D01*
X160835235Y-114972446D01*
X160831855Y-114964288D01*
X160812883Y-114913418D01*
X160808368Y-114901311D01*
X160791013Y-114869529D01*
X160776150Y-114842310D01*
X160772205Y-114834427D01*
X160744282Y-114773284D01*
X160707946Y-114716744D01*
X160703429Y-114709131D01*
X160671227Y-114650157D01*
X160630948Y-114596351D01*
X160625899Y-114589078D01*
X160589575Y-114532555D01*
X160545564Y-114481764D01*
X160540010Y-114474872D01*
X160499739Y-114421076D01*
X160297395Y-114218732D01*
X158780579Y-112701916D01*
X158748485Y-112646329D01*
X158748485Y-112582141D01*
X158780579Y-112526554D01*
X159066680Y-112240453D01*
X159453089Y-111854045D01*
X159453089Y-111854044D01*
X159503739Y-111803395D01*
X159544025Y-111749576D01*
X159549545Y-111742727D01*
X159593574Y-111691917D01*
X159629926Y-111635350D01*
X159634932Y-111628139D01*
X159675226Y-111574315D01*
X159707438Y-111515321D01*
X159711945Y-111507728D01*
X159748283Y-111451186D01*
X159776207Y-111390037D01*
X159780151Y-111382157D01*
X159812367Y-111323161D01*
X159835855Y-111260183D01*
X159839236Y-111252022D01*
X159843184Y-111243377D01*
X159867156Y-111190888D01*
X159886095Y-111126384D01*
X159888871Y-111118043D01*
X159912369Y-111055046D01*
X159919803Y-111020872D01*
X159926655Y-110989373D01*
X159928839Y-110980812D01*
X159947776Y-110916322D01*
X159957340Y-110849791D01*
X159958902Y-110841129D01*
X159973196Y-110775428D01*
X159977991Y-110708376D01*
X159978931Y-110699627D01*
X159988500Y-110633078D01*
X159988500Y-110346921D01*
X159988500Y-89267023D01*
X159988500Y-89195392D01*
X159988500Y-74027023D01*
X159988500Y-73955392D01*
X159978932Y-73888850D01*
X159977988Y-73880062D01*
X159973197Y-73813048D01*
X159972781Y-73811135D01*
X159958905Y-73747352D01*
X159957338Y-73738662D01*
X159947777Y-73672154D01*
X159933489Y-73623495D01*
X159928834Y-73607640D01*
X159926659Y-73599119D01*
X159912369Y-73533425D01*
X159888874Y-73470434D01*
X159886092Y-73462076D01*
X159867156Y-73397583D01*
X159839239Y-73336453D01*
X159835854Y-73328279D01*
X159812368Y-73265313D01*
X159812367Y-73265310D01*
X159780153Y-73206316D01*
X159776200Y-73198417D01*
X159770690Y-73186354D01*
X159748282Y-73137285D01*
X159711941Y-73080738D01*
X159707435Y-73073142D01*
X159693934Y-73048417D01*
X159675226Y-73014156D01*
X159634941Y-72960341D01*
X159629928Y-72953122D01*
X159593574Y-72896554D01*
X159549563Y-72845763D01*
X159544008Y-72838870D01*
X159503736Y-72785072D01*
X159456469Y-72737806D01*
X159456445Y-72737780D01*
X157105581Y-70386917D01*
X157009493Y-70303656D01*
X156943446Y-70246426D01*
X156943444Y-70246425D01*
X156943441Y-70246422D01*
X156702717Y-70091718D01*
X156442418Y-69972843D01*
X156167855Y-69892225D01*
X156094668Y-69881702D01*
X156044975Y-69863084D01*
X156007615Y-69825397D01*
X155989430Y-69775543D01*
X155993752Y-69722655D01*
X156021583Y-69631780D01*
X156051216Y-69400376D01*
X156041314Y-69167293D01*
X155992164Y-68939235D01*
X155905179Y-68722765D01*
X155782862Y-68524109D01*
X155628731Y-68348982D01*
X155628729Y-68348980D01*
X155447221Y-68202421D01*
X155406897Y-68179895D01*
X155361782Y-68136655D01*
X155343484Y-68076904D01*
X155356649Y-68015816D01*
X155397933Y-67968909D01*
X155541088Y-67872153D01*
X155709516Y-67710728D01*
X155848240Y-67523161D01*
X155953270Y-67314847D01*
X156021583Y-67091780D01*
X156051216Y-66860376D01*
X156041314Y-66627293D01*
X155992164Y-66399235D01*
X155989209Y-66391882D01*
X155917183Y-66212639D01*
X155905179Y-66182765D01*
X155782862Y-65984109D01*
X155628731Y-65808982D01*
X155628729Y-65808980D01*
X155447221Y-65662421D01*
X155406897Y-65639895D01*
X155361782Y-65596655D01*
X155343484Y-65536904D01*
X155356649Y-65475816D01*
X155397933Y-65428909D01*
X155541088Y-65332153D01*
X155709516Y-65170728D01*
X155848240Y-64983161D01*
X155953270Y-64774847D01*
X156021583Y-64551780D01*
X156051216Y-64320376D01*
X156041314Y-64087293D01*
X155992164Y-63859235D01*
X155984810Y-63840935D01*
X155908824Y-63651837D01*
X155905179Y-63642765D01*
X155782862Y-63444109D01*
X155628731Y-63268982D01*
X155628729Y-63268980D01*
X155447221Y-63122421D01*
X155406897Y-63099895D01*
X155361782Y-63056655D01*
X155343484Y-62996904D01*
X155356649Y-62935816D01*
X155397933Y-62888909D01*
X155541088Y-62792153D01*
X155709516Y-62630728D01*
X155848240Y-62443161D01*
X155953270Y-62234847D01*
X156021583Y-62011780D01*
X156051216Y-61780376D01*
X156041314Y-61547293D01*
X155992164Y-61319235D01*
X155985750Y-61303274D01*
X155936140Y-61179814D01*
X155905179Y-61102765D01*
X155782862Y-60904109D01*
X155628731Y-60728982D01*
X155628729Y-60728980D01*
X155447221Y-60582421D01*
X155406897Y-60559895D01*
X155361782Y-60516655D01*
X155343484Y-60456904D01*
X155356649Y-60395816D01*
X155397933Y-60348909D01*
X155541088Y-60252153D01*
X155709516Y-60090728D01*
X155848240Y-59903161D01*
X155953270Y-59694847D01*
X156021583Y-59471780D01*
X156051216Y-59240376D01*
X156041314Y-59007293D01*
X155992164Y-58779235D01*
X155905179Y-58562765D01*
X155782862Y-58364109D01*
X155628731Y-58188982D01*
X155589230Y-58157087D01*
X155550897Y-58103807D01*
X155545131Y-58038423D01*
X155573549Y-57979256D01*
X155605994Y-57957657D01*
X155603999Y-57954422D01*
X155616334Y-57946814D01*
X155765656Y-57854712D01*
X155889712Y-57730656D01*
X155981814Y-57581334D01*
X156036999Y-57414797D01*
X156047500Y-57312009D01*
X156047499Y-55971992D01*
X156036999Y-55869203D01*
X155981814Y-55702666D01*
X155924593Y-55609895D01*
X155889711Y-55553342D01*
X155765657Y-55429288D01*
X155616334Y-55337186D01*
X155449797Y-55282000D01*
X155347009Y-55271500D01*
X153556991Y-55271500D01*
X153454203Y-55282000D01*
X153287665Y-55337186D01*
X153138342Y-55429288D01*
X153014288Y-55553342D01*
X152922186Y-55702665D01*
X152867000Y-55869202D01*
X152856500Y-55971991D01*
X152856500Y-57301545D01*
X152847061Y-57348998D01*
X152820181Y-57389226D01*
X146936208Y-63273199D01*
X146920110Y-63286096D01*
X146872096Y-63337225D01*
X146869391Y-63340017D01*
X146849874Y-63359534D01*
X146847415Y-63362705D01*
X146839842Y-63371572D01*
X146809935Y-63403420D01*
X146800285Y-63420974D01*
X146789609Y-63437228D01*
X146777326Y-63453063D01*
X146759975Y-63493158D01*
X146754838Y-63503644D01*
X146733802Y-63541907D01*
X146728821Y-63561309D01*
X146722520Y-63579711D01*
X146714561Y-63598102D01*
X146707728Y-63641242D01*
X146705360Y-63652674D01*
X146694500Y-63694978D01*
X146694500Y-63715016D01*
X146692973Y-63734413D01*
X146689840Y-63754196D01*
X146692476Y-63782077D01*
X146693950Y-63797675D01*
X146694500Y-63809344D01*
X146694500Y-71029547D01*
X146685061Y-71077000D01*
X146658181Y-71117228D01*
X145102807Y-72672601D01*
X145041965Y-72705981D01*
X144972716Y-72701442D01*
X144916750Y-72660407D01*
X144891598Y-72595728D01*
X144870063Y-72349592D01*
X144870062Y-72349591D01*
X144808903Y-72121337D01*
X144709035Y-71907171D01*
X144573495Y-71713599D01*
X144406401Y-71546505D01*
X144220839Y-71416573D01*
X144181974Y-71372255D01*
X144167964Y-71314999D01*
X144181975Y-71257742D01*
X144220837Y-71213428D01*
X144406401Y-71083495D01*
X144573495Y-70916401D01*
X144709035Y-70722830D01*
X144808903Y-70508663D01*
X144870063Y-70280408D01*
X144890659Y-70045000D01*
X144870063Y-69809592D01*
X144808903Y-69581337D01*
X144709035Y-69367171D01*
X144573495Y-69173599D01*
X144451181Y-69051285D01*
X144419885Y-68998539D01*
X144417696Y-68937246D01*
X144445149Y-68882401D01*
X144495528Y-68847422D01*
X144627089Y-68798352D01*
X144742188Y-68712188D01*
X144828352Y-68597089D01*
X144878597Y-68462375D01*
X144885000Y-68402824D01*
X144885000Y-68005000D01*
X142185000Y-68005000D01*
X142185000Y-68402824D01*
X142191402Y-68462375D01*
X142241647Y-68597089D01*
X142327811Y-68712188D01*
X142442911Y-68798352D01*
X142574471Y-68847422D01*
X142624850Y-68882401D01*
X142652303Y-68937246D01*
X142650114Y-68998539D01*
X142618819Y-69051285D01*
X142496503Y-69173601D01*
X142360965Y-69367170D01*
X142261097Y-69581336D01*
X142199936Y-69809592D01*
X142179340Y-70045000D01*
X142199936Y-70280407D01*
X142244054Y-70445058D01*
X142261097Y-70508663D01*
X142360965Y-70722830D01*
X142496505Y-70916401D01*
X142663599Y-71083495D01*
X142849160Y-71213426D01*
X142888024Y-71257743D01*
X142902035Y-71315000D01*
X142888024Y-71372257D01*
X142849159Y-71416575D01*
X142663595Y-71546508D01*
X142496505Y-71713598D01*
X142360965Y-71907170D01*
X142261097Y-72121336D01*
X142199936Y-72349592D01*
X142179340Y-72584999D01*
X142199936Y-72820407D01*
X142238392Y-72963927D01*
X142261097Y-73048663D01*
X142360965Y-73262830D01*
X142496505Y-73456401D01*
X142663599Y-73623495D01*
X142849160Y-73753426D01*
X142888024Y-73797743D01*
X142902035Y-73855000D01*
X142888024Y-73912257D01*
X142849158Y-73956575D01*
X142748549Y-74027023D01*
X142663595Y-74086508D01*
X142496505Y-74253598D01*
X142360965Y-74447170D01*
X142261097Y-74661336D01*
X142199936Y-74889592D01*
X142179340Y-75125000D01*
X142199936Y-75360407D01*
X142238990Y-75506158D01*
X142261097Y-75588663D01*
X142360965Y-75802830D01*
X142496505Y-75996401D01*
X142663599Y-76163495D01*
X142849160Y-76293426D01*
X142888024Y-76337743D01*
X142902035Y-76395000D01*
X142888024Y-76452257D01*
X142849158Y-76496575D01*
X142681550Y-76613936D01*
X142663595Y-76626508D01*
X142496505Y-76793598D01*
X142360965Y-76987170D01*
X142261097Y-77201336D01*
X142199936Y-77429592D01*
X142179340Y-77664999D01*
X142199936Y-77900407D01*
X142231026Y-78016435D01*
X142261097Y-78128663D01*
X142360965Y-78342830D01*
X142496505Y-78536401D01*
X142496508Y-78536404D01*
X142618430Y-78658326D01*
X142649726Y-78711072D01*
X142651915Y-78772365D01*
X142624462Y-78827209D01*
X142574083Y-78862189D01*
X142442669Y-78911204D01*
X142327454Y-78997454D01*
X142241204Y-79112668D01*
X142190909Y-79247516D01*
X142184500Y-79307130D01*
X142184500Y-81102869D01*
X142187207Y-81128045D01*
X142190909Y-81162483D01*
X142241204Y-81297331D01*
X142327454Y-81412546D01*
X142442669Y-81498796D01*
X142554907Y-81540658D01*
X142574082Y-81547810D01*
X142624462Y-81582789D01*
X142651915Y-81637634D01*
X142649726Y-81698926D01*
X142618431Y-81751673D01*
X142496503Y-81873601D01*
X142360965Y-82067170D01*
X142261097Y-82281336D01*
X142199936Y-82509592D01*
X142179340Y-82744999D01*
X142199936Y-82980407D01*
X142244709Y-83147501D01*
X142261097Y-83208663D01*
X142360965Y-83422830D01*
X142496505Y-83616401D01*
X142663599Y-83783495D01*
X142849160Y-83913426D01*
X142888024Y-83957743D01*
X142902035Y-84015000D01*
X142888024Y-84072257D01*
X142849159Y-84116575D01*
X142818738Y-84137875D01*
X142721447Y-84206000D01*
X142663595Y-84246508D01*
X142496505Y-84413598D01*
X142360965Y-84607170D01*
X142261097Y-84821336D01*
X142199936Y-85049592D01*
X142178401Y-85295728D01*
X142153249Y-85360407D01*
X142097283Y-85401442D01*
X142028034Y-85405981D01*
X141967192Y-85372601D01*
X140361819Y-83767228D01*
X140334939Y-83727000D01*
X140325500Y-83679547D01*
X140325500Y-64071687D01*
X140333736Y-64027249D01*
X140357347Y-63988717D01*
X140432533Y-63905216D01*
X140436452Y-63898428D01*
X140452101Y-63871324D01*
X140490597Y-63830222D01*
X140543303Y-63810385D01*
X140599346Y-63815905D01*
X140647169Y-63845643D01*
X142272640Y-65471114D01*
X142297341Y-65506390D01*
X142321690Y-65558606D01*
X142360965Y-65642830D01*
X142496505Y-65836401D01*
X142496508Y-65836404D01*
X142618818Y-65958714D01*
X142650114Y-66011460D01*
X142652303Y-66072753D01*
X142624850Y-66127597D01*
X142574472Y-66162576D01*
X142442913Y-66211646D01*
X142327811Y-66297811D01*
X142241647Y-66412910D01*
X142191402Y-66547624D01*
X142185000Y-66607176D01*
X142185000Y-67005000D01*
X144885000Y-67005000D01*
X144885000Y-66607176D01*
X144878597Y-66547624D01*
X144828352Y-66412910D01*
X144742188Y-66297811D01*
X144627088Y-66211647D01*
X144495528Y-66162577D01*
X144445149Y-66127597D01*
X144417696Y-66072752D01*
X144419885Y-66011460D01*
X144451178Y-65958717D01*
X144573495Y-65836401D01*
X144709035Y-65642830D01*
X144808903Y-65428663D01*
X144870063Y-65200408D01*
X144890659Y-64965000D01*
X144874054Y-64775214D01*
X144870063Y-64729592D01*
X144808903Y-64501337D01*
X144709035Y-64287171D01*
X144573495Y-64093599D01*
X144406401Y-63926505D01*
X144220839Y-63796573D01*
X144181975Y-63752257D01*
X144167964Y-63695000D01*
X144181975Y-63637743D01*
X144220839Y-63593426D01*
X144406401Y-63463495D01*
X144573495Y-63296401D01*
X144709035Y-63102830D01*
X144808903Y-62888663D01*
X144870063Y-62660408D01*
X144890659Y-62425000D01*
X144870063Y-62189592D01*
X144808903Y-61961337D01*
X144709035Y-61747171D01*
X144573495Y-61553599D01*
X144406401Y-61386505D01*
X144212830Y-61250965D01*
X143998663Y-61151097D01*
X143898479Y-61124253D01*
X143770407Y-61089936D01*
X143535000Y-61069340D01*
X143299592Y-61089936D01*
X143071336Y-61151097D01*
X142974473Y-61196265D01*
X142906956Y-61206959D01*
X142844032Y-61180249D01*
X142804824Y-61124253D01*
X142801246Y-61055989D01*
X142834385Y-60996204D01*
X144747515Y-59083073D01*
X144800261Y-59051778D01*
X144861554Y-59049589D01*
X144916399Y-59077042D01*
X144951378Y-59127422D01*
X145000204Y-59258331D01*
X145086454Y-59373546D01*
X145201669Y-59459796D01*
X145336517Y-59510091D01*
X145396127Y-59516500D01*
X146391872Y-59516499D01*
X146451483Y-59510091D01*
X146586331Y-59459796D01*
X146701546Y-59373546D01*
X146787796Y-59258331D01*
X146838091Y-59123483D01*
X146844500Y-59063873D01*
X146844499Y-57268128D01*
X146838091Y-57208517D01*
X146787796Y-57073669D01*
X146701546Y-56958454D01*
X146586331Y-56872204D01*
X146451483Y-56821909D01*
X146391873Y-56815500D01*
X146391869Y-56815500D01*
X145396130Y-56815500D01*
X145336515Y-56821909D01*
X145201669Y-56872204D01*
X145086454Y-56958454D01*
X145000204Y-57073668D01*
X144949909Y-57208516D01*
X144943500Y-57268131D01*
X144943500Y-57414889D01*
X144927530Y-57475761D01*
X144883735Y-57520954D01*
X144823395Y-57538827D01*
X144773061Y-57540409D01*
X144772127Y-57540439D01*
X144768232Y-57540500D01*
X144740650Y-57540500D01*
X144736665Y-57541003D01*
X144725033Y-57541918D01*
X144681369Y-57543290D01*
X144662129Y-57548880D01*
X144643081Y-57552825D01*
X144623209Y-57555335D01*
X144582599Y-57571413D01*
X144571554Y-57575194D01*
X144529610Y-57587381D01*
X144512365Y-57597579D01*
X144494904Y-57606133D01*
X144476267Y-57613512D01*
X144440931Y-57639185D01*
X144431174Y-57645595D01*
X144393580Y-57667829D01*
X144379413Y-57681996D01*
X144364624Y-57694626D01*
X144348413Y-57706404D01*
X144320572Y-57740058D01*
X144312711Y-57748697D01*
X143481728Y-58579681D01*
X143441500Y-58606561D01*
X143394047Y-58616000D01*
X142168000Y-58616000D01*
X142106000Y-58599387D01*
X142060613Y-58554000D01*
X142044000Y-58492000D01*
X142044000Y-56816000D01*
X142944000Y-56816000D01*
X142944000Y-57716000D01*
X143444000Y-57716000D01*
X143444000Y-57268176D01*
X143437597Y-57208624D01*
X143387352Y-57073910D01*
X143301188Y-56958811D01*
X143186089Y-56872647D01*
X143051375Y-56822402D01*
X142991824Y-56816000D01*
X142944000Y-56816000D01*
X142044000Y-56816000D01*
X141996176Y-56816000D01*
X141936624Y-56822402D01*
X141801910Y-56872647D01*
X141686811Y-56958811D01*
X141600646Y-57073913D01*
X141571016Y-57153352D01*
X141532640Y-57206569D01*
X141472482Y-57232755D01*
X141407382Y-57224578D01*
X141355569Y-57184329D01*
X141284546Y-57089454D01*
X141169331Y-57003204D01*
X141034483Y-56952909D01*
X140974873Y-56946500D01*
X140974869Y-56946500D01*
X138679130Y-56946500D01*
X138619515Y-56952909D01*
X138484669Y-57003204D01*
X138369454Y-57089454D01*
X138283204Y-57204668D01*
X138232909Y-57339516D01*
X138226500Y-57399130D01*
X138226500Y-59694869D01*
X138232909Y-59754484D01*
X138238696Y-59770000D01*
X138283204Y-59889331D01*
X138369454Y-60004546D01*
X138484669Y-60090796D01*
X138492478Y-60093708D01*
X138495835Y-60094961D01*
X138538071Y-60121400D01*
X138566488Y-60162330D01*
X138576500Y-60211142D01*
X138576500Y-61179814D01*
X138575720Y-61193698D01*
X138571761Y-61228826D01*
X138576219Y-61294932D01*
X138576500Y-61303274D01*
X138576500Y-61313155D01*
X138580153Y-61353749D01*
X138580371Y-61356521D01*
X138586904Y-61453414D01*
X138587973Y-61457657D01*
X138591229Y-61476824D01*
X138591914Y-61484430D01*
X138582032Y-61545221D01*
X138544121Y-61593758D01*
X138487533Y-61618069D01*
X138426228Y-61612155D01*
X138375332Y-61577477D01*
X138342564Y-61540245D01*
X138342562Y-61540243D01*
X138342560Y-61540241D01*
X138337439Y-61536106D01*
X138324115Y-61523619D01*
X138321785Y-61521088D01*
X138240936Y-61458161D01*
X138239199Y-61456783D01*
X138157082Y-61390477D01*
X138154315Y-61388932D01*
X138138637Y-61378538D01*
X138138626Y-61378529D01*
X138045552Y-61328161D01*
X138044209Y-61327423D01*
X137948954Y-61274210D01*
X137948947Y-61274207D01*
X137948753Y-61274099D01*
X137937401Y-61269059D01*
X137886944Y-61251737D01*
X137831252Y-61232617D01*
X137830233Y-61232263D01*
X137721202Y-61193739D01*
X137603772Y-61174144D01*
X137603226Y-61174051D01*
X137489202Y-61154500D01*
X137489200Y-61154500D01*
X137486049Y-61154500D01*
X137253951Y-61154500D01*
X137253949Y-61154500D01*
X137199991Y-61163503D01*
X137190102Y-61164747D01*
X137132460Y-61169653D01*
X137083077Y-61182511D01*
X137072249Y-61184819D01*
X137025023Y-61192701D01*
X137025021Y-61192701D01*
X137025019Y-61192702D01*
X136970056Y-61211570D01*
X136961052Y-61214284D01*
X136901748Y-61229725D01*
X136858361Y-61249337D01*
X136847554Y-61253624D01*
X136805496Y-61268063D01*
X136751395Y-61297341D01*
X136743460Y-61301276D01*
X136684509Y-61327925D01*
X136647882Y-61352679D01*
X136637470Y-61358994D01*
X136601373Y-61378529D01*
X136550124Y-61418417D01*
X136543402Y-61423296D01*
X136486999Y-61461418D01*
X136457549Y-61489643D01*
X136447919Y-61497967D01*
X136418216Y-61521087D01*
X136418214Y-61521088D01*
X136418214Y-61521089D01*
X136371926Y-61571369D01*
X136366500Y-61576905D01*
X136314883Y-61626376D01*
X136292659Y-61656426D01*
X136284196Y-61666670D01*
X136261023Y-61691843D01*
X136221782Y-61751905D01*
X136217671Y-61757815D01*
X136173119Y-61818054D01*
X136157826Y-61848384D01*
X136150917Y-61860371D01*
X136134077Y-61886147D01*
X136103887Y-61954974D01*
X136101054Y-61960987D01*
X136065792Y-62030925D01*
X136056847Y-62060131D01*
X136051842Y-62073620D01*
X136040844Y-62098695D01*
X136021552Y-62174871D01*
X136019912Y-62180736D01*
X135995983Y-62258875D01*
X135992538Y-62285775D01*
X135989750Y-62300455D01*
X135983865Y-62323697D01*
X135977097Y-62405377D01*
X135976517Y-62410886D01*
X135965701Y-62495348D01*
X135966707Y-62519025D01*
X135966396Y-62534520D01*
X135964699Y-62554998D01*
X135971750Y-62640097D01*
X135972061Y-62645071D01*
X135975820Y-62733532D01*
X135980092Y-62753356D01*
X135982451Y-62769237D01*
X135983865Y-62786301D01*
X135983865Y-62786304D01*
X135983866Y-62786305D01*
X136005301Y-62870952D01*
X136005661Y-62872371D01*
X136006669Y-62876676D01*
X136018630Y-62932171D01*
X136026046Y-62966581D01*
X136032333Y-62982226D01*
X136037479Y-62998017D01*
X136040843Y-63011301D01*
X136077875Y-63095727D01*
X136079377Y-63099301D01*
X136114936Y-63187790D01*
X136121979Y-63199229D01*
X136129945Y-63214431D01*
X136134076Y-63223849D01*
X136186366Y-63303886D01*
X136188147Y-63306693D01*
X136239931Y-63390796D01*
X136246539Y-63398303D01*
X136257268Y-63412409D01*
X136261021Y-63418153D01*
X136328117Y-63491040D01*
X136329930Y-63493054D01*
X136372926Y-63541907D01*
X136397437Y-63569756D01*
X136402561Y-63573894D01*
X136415886Y-63586382D01*
X136418216Y-63588913D01*
X136458620Y-63620360D01*
X136499062Y-63651837D01*
X136500800Y-63653215D01*
X136552525Y-63694981D01*
X136582920Y-63719523D01*
X136585685Y-63721067D01*
X136601359Y-63731458D01*
X136601374Y-63731470D01*
X136694507Y-63781870D01*
X136695785Y-63782573D01*
X136791046Y-63835790D01*
X136791051Y-63835791D01*
X136791252Y-63835904D01*
X136802584Y-63840935D01*
X136805492Y-63841933D01*
X136805497Y-63841936D01*
X136908790Y-63877396D01*
X136909696Y-63877712D01*
X136958931Y-63895107D01*
X137015829Y-63915211D01*
X137015832Y-63915211D01*
X137018800Y-63916260D01*
X137025017Y-63917297D01*
X137025019Y-63917298D01*
X137136197Y-63935849D01*
X137136528Y-63935906D01*
X137191028Y-63945251D01*
X137250799Y-63955500D01*
X137250800Y-63955500D01*
X137253951Y-63955500D01*
X137429497Y-63955500D01*
X137486047Y-63955500D01*
X137486049Y-63955500D01*
X137540010Y-63946494D01*
X137549905Y-63945251D01*
X137607541Y-63940346D01*
X137656941Y-63927482D01*
X137667760Y-63925177D01*
X137697221Y-63920261D01*
X137714982Y-63917298D01*
X137769946Y-63898428D01*
X137778949Y-63895714D01*
X137838249Y-63880275D01*
X137881642Y-63860659D01*
X137892443Y-63856374D01*
X137934503Y-63841936D01*
X137988622Y-63812647D01*
X137996530Y-63808726D01*
X138055486Y-63782077D01*
X138092108Y-63757324D01*
X138102515Y-63751011D01*
X138138626Y-63731470D01*
X138189877Y-63691578D01*
X138196589Y-63686706D01*
X138246944Y-63652674D01*
X138253002Y-63648580D01*
X138260658Y-63641242D01*
X138282460Y-63620345D01*
X138292064Y-63612044D01*
X138321784Y-63588913D01*
X138368081Y-63538619D01*
X138373490Y-63533100D01*
X138425118Y-63483621D01*
X138447350Y-63453559D01*
X138455797Y-63443333D01*
X138478979Y-63418153D01*
X138518238Y-63358060D01*
X138522307Y-63352210D01*
X138566879Y-63291947D01*
X138566881Y-63291942D01*
X138571602Y-63285560D01*
X138621633Y-63245676D01*
X138684886Y-63236043D01*
X138744522Y-63259225D01*
X138784661Y-63309051D01*
X138792701Y-63360089D01*
X138793178Y-63360039D01*
X138794148Y-63369275D01*
X138794618Y-63372254D01*
X138794539Y-63372996D01*
X138814326Y-63561257D01*
X138872820Y-63741284D01*
X138967464Y-63905213D01*
X138977411Y-63916260D01*
X139042652Y-63988717D01*
X139066264Y-64027249D01*
X139074500Y-64071687D01*
X139074500Y-69340264D01*
X139062420Y-69393648D01*
X139028535Y-69436630D01*
X138979447Y-69460838D01*
X138924718Y-69461553D01*
X138905646Y-69457500D01*
X138846452Y-69457500D01*
X138798999Y-69448061D01*
X138758771Y-69421181D01*
X134922591Y-65585000D01*
X135814723Y-65585000D01*
X135816332Y-65603400D01*
X135816678Y-65619753D01*
X135815709Y-65641328D01*
X135826444Y-65720576D01*
X135827094Y-65726413D01*
X135833792Y-65802976D01*
X135839461Y-65824132D01*
X135842564Y-65839578D01*
X135845925Y-65864390D01*
X135869573Y-65937170D01*
X135871416Y-65943393D01*
X135890423Y-66014327D01*
X135901135Y-66037298D01*
X135906683Y-66051383D01*
X135915481Y-66078460D01*
X135950128Y-66142847D01*
X135953314Y-66149199D01*
X135982896Y-66212637D01*
X135999406Y-66236215D01*
X136007023Y-66248575D01*
X136022148Y-66276681D01*
X136057219Y-66320659D01*
X136065588Y-66331153D01*
X136070214Y-66337340D01*
X136108403Y-66391878D01*
X136131186Y-66414661D01*
X136140452Y-66425029D01*
X136162493Y-66452667D01*
X136212387Y-66496259D01*
X136218484Y-66501959D01*
X136263123Y-66546598D01*
X136292330Y-66567049D01*
X136302793Y-66575244D01*
X136322585Y-66592535D01*
X136332004Y-66600765D01*
X136385940Y-66632990D01*
X136393435Y-66637843D01*
X136442361Y-66672102D01*
X136452490Y-66676825D01*
X136477799Y-66688628D01*
X136488991Y-66694560D01*
X136525236Y-66716215D01*
X136525239Y-66716216D01*
X136580839Y-66737083D01*
X136589669Y-66740792D01*
X136634003Y-66761466D01*
X136640670Y-66764575D01*
X136681757Y-66775584D01*
X136693235Y-66779266D01*
X136704903Y-66783645D01*
X136735976Y-66795307D01*
X136791024Y-66805296D01*
X136800970Y-66807527D01*
X136852023Y-66821207D01*
X136896133Y-66825065D01*
X136897814Y-66825213D01*
X136909148Y-66826733D01*
X136957453Y-66835500D01*
X137009985Y-66835500D01*
X137020791Y-66835971D01*
X137070000Y-66840277D01*
X137119208Y-66835971D01*
X137122511Y-66835827D01*
X137126145Y-66835500D01*
X137126155Y-66835500D01*
X137180172Y-66830638D01*
X137180180Y-66830727D01*
X137180479Y-66830611D01*
X137287977Y-66821207D01*
X137287977Y-66821206D01*
X137292663Y-66820797D01*
X137294183Y-66820377D01*
X137294188Y-66820377D01*
X137397726Y-66791800D01*
X137398413Y-66791614D01*
X137444500Y-66779266D01*
X137504377Y-66763223D01*
X137509148Y-66761466D01*
X137511166Y-66760494D01*
X137511170Y-66760493D01*
X137604951Y-66715329D01*
X137606007Y-66714830D01*
X137697639Y-66672102D01*
X137697645Y-66672097D01*
X137699392Y-66671283D01*
X137713155Y-66663222D01*
X137713973Y-66662829D01*
X137795324Y-66603722D01*
X137797043Y-66602497D01*
X137876871Y-66546603D01*
X137876873Y-66546600D01*
X137876877Y-66546598D01*
X137877748Y-66545726D01*
X137892543Y-66533089D01*
X137896078Y-66530522D01*
X137963237Y-66460277D01*
X137965097Y-66458377D01*
X138031593Y-66391882D01*
X138031593Y-66391881D01*
X138031598Y-66391877D01*
X138034285Y-66388039D01*
X138046232Y-66373471D01*
X138051632Y-66367825D01*
X138103288Y-66289566D01*
X138105082Y-66286929D01*
X138157102Y-66212639D01*
X138160539Y-66205267D01*
X138169434Y-66189362D01*
X138169585Y-66189132D01*
X138175635Y-66179968D01*
X138211114Y-66096958D01*
X138212734Y-66093333D01*
X138249575Y-66014330D01*
X138252572Y-66003143D01*
X138258324Y-65986508D01*
X138259350Y-65984107D01*
X138264103Y-65972988D01*
X138283434Y-65888291D01*
X138284533Y-65883863D01*
X138288282Y-65869872D01*
X138306207Y-65802977D01*
X138307516Y-65788005D01*
X138310153Y-65771227D01*
X138314191Y-65753537D01*
X138317934Y-65670183D01*
X138318274Y-65665039D01*
X138325277Y-65585000D01*
X138323667Y-65566608D01*
X138323321Y-65550238D01*
X138323366Y-65549242D01*
X138324290Y-65528670D01*
X138313549Y-65449385D01*
X138312905Y-65443596D01*
X138307517Y-65381993D01*
X138306208Y-65367027D01*
X138304610Y-65361063D01*
X138300536Y-65345860D01*
X138297434Y-65330414D01*
X138294075Y-65305614D01*
X138286291Y-65281659D01*
X138270421Y-65232816D01*
X138268578Y-65226592D01*
X138254855Y-65175375D01*
X138249575Y-65155670D01*
X138238865Y-65132704D01*
X138233317Y-65118619D01*
X138224517Y-65091535D01*
X138189869Y-65027148D01*
X138186681Y-65020794D01*
X138157102Y-64957362D01*
X138157101Y-64957361D01*
X138140591Y-64933782D01*
X138132975Y-64921423D01*
X138117852Y-64893319D01*
X138074404Y-64838837D01*
X138069785Y-64832661D01*
X138031598Y-64778123D01*
X138008804Y-64755329D01*
X137999546Y-64744969D01*
X137977506Y-64717332D01*
X137927611Y-64673739D01*
X137921514Y-64668039D01*
X137876878Y-64623402D01*
X137847664Y-64602947D01*
X137837210Y-64594759D01*
X137807996Y-64569235D01*
X137805156Y-64567538D01*
X137754073Y-64537017D01*
X137746550Y-64532145D01*
X137697640Y-64497898D01*
X137676043Y-64487827D01*
X137662201Y-64481372D01*
X137651014Y-64475442D01*
X137614764Y-64453784D01*
X137559171Y-64432921D01*
X137550349Y-64429216D01*
X137499330Y-64405425D01*
X137499328Y-64405424D01*
X137471575Y-64397987D01*
X137458228Y-64394411D01*
X137446762Y-64390732D01*
X137404024Y-64374693D01*
X137360636Y-64366818D01*
X137348964Y-64364700D01*
X137339018Y-64362468D01*
X137287980Y-64348793D01*
X137242175Y-64344785D01*
X137230846Y-64343264D01*
X137182550Y-64334500D01*
X137182547Y-64334500D01*
X137130015Y-64334500D01*
X137119208Y-64334028D01*
X137115788Y-64333728D01*
X137070000Y-64329722D01*
X137024211Y-64333728D01*
X137020791Y-64334028D01*
X137017481Y-64334172D01*
X136959916Y-64339352D01*
X136959612Y-64339379D01*
X136847332Y-64349203D01*
X136742522Y-64378129D01*
X136741627Y-64378373D01*
X136635660Y-64406767D01*
X136630809Y-64408553D01*
X136535246Y-64454573D01*
X136533853Y-64455233D01*
X136440634Y-64498703D01*
X136426875Y-64506762D01*
X136426030Y-64507169D01*
X136344662Y-64566284D01*
X136342904Y-64567538D01*
X136263118Y-64623405D01*
X136262235Y-64624289D01*
X136247467Y-64636901D01*
X136243923Y-64639476D01*
X136176846Y-64709632D01*
X136174903Y-64711619D01*
X136108401Y-64778122D01*
X136105708Y-64781968D01*
X136093776Y-64796517D01*
X136088370Y-64802172D01*
X136036775Y-64880333D01*
X136034866Y-64883141D01*
X135982897Y-64957363D01*
X135979460Y-64964734D01*
X135970571Y-64980629D01*
X135964364Y-64990032D01*
X135928893Y-65073021D01*
X135927260Y-65076676D01*
X135920331Y-65091536D01*
X135890423Y-65155673D01*
X135887426Y-65166856D01*
X135881680Y-65183478D01*
X135875897Y-65197009D01*
X135856576Y-65281659D01*
X135855460Y-65286157D01*
X135833793Y-65367020D01*
X135832483Y-65381993D01*
X135829847Y-65398767D01*
X135825809Y-65416460D01*
X135822066Y-65499777D01*
X135821719Y-65505016D01*
X135815908Y-65571452D01*
X135814723Y-65585000D01*
X134922591Y-65585000D01*
X132985217Y-63647626D01*
X132954859Y-63597931D01*
X132950536Y-63539857D01*
X132973200Y-63486214D01*
X132975118Y-63483621D01*
X132997348Y-63453561D01*
X133005797Y-63443333D01*
X133028979Y-63418153D01*
X133068238Y-63358060D01*
X133072312Y-63352203D01*
X133116879Y-63291947D01*
X133132163Y-63261630D01*
X133139079Y-63249632D01*
X133147957Y-63236043D01*
X133155924Y-63223849D01*
X133186123Y-63155000D01*
X133188927Y-63149045D01*
X133224207Y-63079074D01*
X133233150Y-63049868D01*
X133238158Y-63036374D01*
X133249157Y-63011300D01*
X133268453Y-62935099D01*
X133270088Y-62929255D01*
X133287943Y-62870952D01*
X133294016Y-62851123D01*
X133297461Y-62824215D01*
X133300247Y-62809548D01*
X133306134Y-62786305D01*
X133312903Y-62704600D01*
X133313484Y-62699095D01*
X133315855Y-62680580D01*
X133324298Y-62614654D01*
X133323291Y-62590960D01*
X133323602Y-62575481D01*
X133325300Y-62555000D01*
X133318248Y-62469902D01*
X133317938Y-62464944D01*
X133317270Y-62449213D01*
X133314180Y-62376468D01*
X133309907Y-62356642D01*
X133307547Y-62340756D01*
X133307349Y-62338363D01*
X133306134Y-62323695D01*
X133284328Y-62237589D01*
X133283336Y-62233354D01*
X133263954Y-62143419D01*
X133257665Y-62127770D01*
X133252521Y-62111989D01*
X133249157Y-62098700D01*
X133212102Y-62014224D01*
X133210621Y-62010696D01*
X133175066Y-61922214D01*
X133175064Y-61922210D01*
X133168016Y-61910764D01*
X133160051Y-61895561D01*
X133156840Y-61888240D01*
X133155924Y-61886151D01*
X133103628Y-61806106D01*
X133101879Y-61803350D01*
X133050069Y-61719205D01*
X133043454Y-61711689D01*
X133032730Y-61697588D01*
X133028980Y-61691849D01*
X133028979Y-61691847D01*
X132961876Y-61618953D01*
X132960068Y-61616944D01*
X132955853Y-61612155D01*
X132892564Y-61540245D01*
X132891253Y-61539186D01*
X132887439Y-61536106D01*
X132874115Y-61523619D01*
X132871785Y-61521088D01*
X132790936Y-61458161D01*
X132789199Y-61456783D01*
X132707082Y-61390477D01*
X132704315Y-61388932D01*
X132688637Y-61378538D01*
X132688626Y-61378529D01*
X132595552Y-61328161D01*
X132594209Y-61327423D01*
X132498954Y-61274210D01*
X132498947Y-61274207D01*
X132498753Y-61274099D01*
X132487401Y-61269059D01*
X132436944Y-61251737D01*
X132381252Y-61232617D01*
X132380233Y-61232263D01*
X132271202Y-61193739D01*
X132153772Y-61174144D01*
X132153226Y-61174051D01*
X132039202Y-61154500D01*
X132039200Y-61154500D01*
X132036049Y-61154500D01*
X131803951Y-61154500D01*
X131803949Y-61154500D01*
X131749991Y-61163503D01*
X131740102Y-61164747D01*
X131682460Y-61169653D01*
X131633077Y-61182511D01*
X131622249Y-61184819D01*
X131575023Y-61192701D01*
X131575021Y-61192701D01*
X131575019Y-61192702D01*
X131520056Y-61211570D01*
X131511052Y-61214284D01*
X131451748Y-61229725D01*
X131408361Y-61249337D01*
X131397554Y-61253624D01*
X131355496Y-61268063D01*
X131301395Y-61297341D01*
X131293460Y-61301276D01*
X131234509Y-61327925D01*
X131197882Y-61352679D01*
X131187470Y-61358994D01*
X131151373Y-61378529D01*
X131100124Y-61418417D01*
X131093402Y-61423296D01*
X131036999Y-61461418D01*
X131007549Y-61489643D01*
X130997919Y-61497967D01*
X130968216Y-61521087D01*
X130968214Y-61521088D01*
X130968214Y-61521089D01*
X130921926Y-61571369D01*
X130916500Y-61576905D01*
X130864883Y-61626376D01*
X130842659Y-61656426D01*
X130834196Y-61666670D01*
X130811023Y-61691843D01*
X130771782Y-61751905D01*
X130767671Y-61757815D01*
X130723119Y-61818054D01*
X130707826Y-61848384D01*
X130700917Y-61860371D01*
X130684077Y-61886147D01*
X130653887Y-61954974D01*
X130651054Y-61960987D01*
X130615792Y-62030925D01*
X130606847Y-62060131D01*
X130601842Y-62073620D01*
X130590844Y-62098695D01*
X130571552Y-62174871D01*
X130569912Y-62180736D01*
X130545983Y-62258875D01*
X130542538Y-62285775D01*
X130539750Y-62300455D01*
X130533865Y-62323697D01*
X130532650Y-62338363D01*
X130507709Y-62403270D01*
X130451751Y-62444546D01*
X130382374Y-62449213D01*
X130321393Y-62415803D01*
X127486561Y-59580971D01*
X127460254Y-59542103D01*
X127450277Y-59496241D01*
X127458060Y-59449956D01*
X127485091Y-59377483D01*
X127491500Y-59317873D01*
X127491499Y-57522128D01*
X127485091Y-57462517D01*
X127434796Y-57327669D01*
X127348546Y-57212454D01*
X127233331Y-57126204D01*
X127098483Y-57075909D01*
X127038873Y-57069500D01*
X127038869Y-57069500D01*
X126043130Y-57069500D01*
X125983515Y-57075909D01*
X125848669Y-57126204D01*
X125733454Y-57212454D01*
X125647204Y-57327668D01*
X125596909Y-57462516D01*
X125590500Y-57522130D01*
X125590500Y-59317869D01*
X125596447Y-59373188D01*
X125596909Y-59377483D01*
X125647204Y-59512331D01*
X125701428Y-59584765D01*
X125733454Y-59627546D01*
X125848670Y-59713797D01*
X125910011Y-59736675D01*
X125953477Y-59764301D01*
X125981970Y-59807205D01*
X125988514Y-59823733D01*
X126014180Y-59859059D01*
X126020593Y-59868822D01*
X126042826Y-59906416D01*
X126042829Y-59906419D01*
X126042830Y-59906420D01*
X126056995Y-59920585D01*
X126069627Y-59935375D01*
X126081406Y-59951587D01*
X126115058Y-59979426D01*
X126123699Y-59987289D01*
X130300197Y-64163787D01*
X130313098Y-64179889D01*
X130315212Y-64181874D01*
X130315214Y-64181877D01*
X130362561Y-64226339D01*
X130364240Y-64227916D01*
X130367036Y-64230626D01*
X130386530Y-64250120D01*
X130389704Y-64252582D01*
X130398568Y-64260153D01*
X130430418Y-64290062D01*
X130440914Y-64295832D01*
X130447974Y-64299714D01*
X130464231Y-64310392D01*
X130480064Y-64322674D01*
X130496185Y-64329649D01*
X130520156Y-64340023D01*
X130530643Y-64345160D01*
X130568908Y-64366197D01*
X130588316Y-64371180D01*
X130606710Y-64377478D01*
X130625105Y-64385438D01*
X130668254Y-64392271D01*
X130679680Y-64394638D01*
X130695222Y-64398629D01*
X130721980Y-64405500D01*
X130721981Y-64405500D01*
X130742016Y-64405500D01*
X130761413Y-64407026D01*
X130781196Y-64410160D01*
X130824674Y-64406050D01*
X130836344Y-64405500D01*
X131331664Y-64405500D01*
X131387963Y-64419018D01*
X131431988Y-64456623D01*
X131454140Y-64510118D01*
X131449589Y-64567838D01*
X131419327Y-64617200D01*
X131412232Y-64624292D01*
X131397467Y-64636901D01*
X131393923Y-64639476D01*
X131326846Y-64709632D01*
X131324903Y-64711619D01*
X131258401Y-64778122D01*
X131255708Y-64781968D01*
X131243776Y-64796517D01*
X131238370Y-64802172D01*
X131186775Y-64880333D01*
X131184866Y-64883141D01*
X131132897Y-64957363D01*
X131129460Y-64964734D01*
X131120571Y-64980629D01*
X131114364Y-64990032D01*
X131078893Y-65073021D01*
X131077260Y-65076676D01*
X131070331Y-65091536D01*
X131040423Y-65155673D01*
X131037426Y-65166856D01*
X131031680Y-65183478D01*
X131025897Y-65197009D01*
X131006576Y-65281659D01*
X131005460Y-65286157D01*
X130983793Y-65367020D01*
X130982483Y-65381993D01*
X130979847Y-65398767D01*
X130975809Y-65416460D01*
X130972066Y-65499777D01*
X130971719Y-65505016D01*
X130965908Y-65571452D01*
X130964723Y-65585000D01*
X130966332Y-65603400D01*
X130966678Y-65619753D01*
X130965709Y-65641328D01*
X130976444Y-65720576D01*
X130977094Y-65726413D01*
X130983792Y-65802976D01*
X130989461Y-65824132D01*
X130992564Y-65839578D01*
X130995925Y-65864390D01*
X131019573Y-65937170D01*
X131021416Y-65943393D01*
X131040423Y-66014327D01*
X131051135Y-66037298D01*
X131056683Y-66051383D01*
X131065481Y-66078460D01*
X131100128Y-66142847D01*
X131103314Y-66149199D01*
X131132896Y-66212637D01*
X131149406Y-66236215D01*
X131157023Y-66248575D01*
X131172148Y-66276681D01*
X131207219Y-66320659D01*
X131215588Y-66331153D01*
X131220214Y-66337340D01*
X131258403Y-66391878D01*
X131281186Y-66414661D01*
X131290452Y-66425029D01*
X131312493Y-66452667D01*
X131362387Y-66496259D01*
X131368484Y-66501959D01*
X131413123Y-66546598D01*
X131442330Y-66567049D01*
X131452793Y-66575244D01*
X131472585Y-66592535D01*
X131482004Y-66600765D01*
X131535940Y-66632990D01*
X131543435Y-66637843D01*
X131592361Y-66672102D01*
X131602490Y-66676825D01*
X131627799Y-66688628D01*
X131638991Y-66694560D01*
X131675236Y-66716215D01*
X131675239Y-66716216D01*
X131730839Y-66737083D01*
X131739669Y-66740792D01*
X131784003Y-66761466D01*
X131790670Y-66764575D01*
X131831757Y-66775584D01*
X131843235Y-66779266D01*
X131854903Y-66783645D01*
X131885976Y-66795307D01*
X131941024Y-66805296D01*
X131950970Y-66807527D01*
X132002023Y-66821207D01*
X132046133Y-66825065D01*
X132047814Y-66825213D01*
X132059148Y-66826733D01*
X132107453Y-66835500D01*
X132159985Y-66835500D01*
X132170791Y-66835971D01*
X132220000Y-66840277D01*
X132269208Y-66835971D01*
X132272511Y-66835827D01*
X132276145Y-66835500D01*
X132276155Y-66835500D01*
X132330172Y-66830638D01*
X132330180Y-66830727D01*
X132330479Y-66830611D01*
X132437977Y-66821207D01*
X132437977Y-66821206D01*
X132442663Y-66820797D01*
X132444183Y-66820377D01*
X132444188Y-66820377D01*
X132547726Y-66791800D01*
X132548413Y-66791614D01*
X132594500Y-66779266D01*
X132654377Y-66763223D01*
X132659148Y-66761466D01*
X132661166Y-66760494D01*
X132661170Y-66760493D01*
X132754951Y-66715329D01*
X132756007Y-66714830D01*
X132847639Y-66672102D01*
X132847645Y-66672097D01*
X132849392Y-66671283D01*
X132863155Y-66663222D01*
X132863973Y-66662829D01*
X132945324Y-66603722D01*
X132947043Y-66602497D01*
X133026871Y-66546603D01*
X133026873Y-66546600D01*
X133026877Y-66546598D01*
X133027748Y-66545726D01*
X133042543Y-66533089D01*
X133046078Y-66530522D01*
X133113237Y-66460277D01*
X133115097Y-66458377D01*
X133181593Y-66391882D01*
X133181593Y-66391881D01*
X133181598Y-66391877D01*
X133184285Y-66388039D01*
X133196232Y-66373471D01*
X133201632Y-66367825D01*
X133253288Y-66289566D01*
X133255082Y-66286929D01*
X133307102Y-66212639D01*
X133310539Y-66205267D01*
X133319434Y-66189362D01*
X133319585Y-66189132D01*
X133325635Y-66179968D01*
X133361114Y-66096959D01*
X133362734Y-66093333D01*
X133382984Y-66049908D01*
X133419878Y-66003940D01*
X133473832Y-65980200D01*
X133532652Y-65984055D01*
X133583044Y-66014634D01*
X135748304Y-68179895D01*
X137872038Y-70303629D01*
X137896277Y-70337926D01*
X137907678Y-70378348D01*
X137925326Y-70546257D01*
X137983820Y-70726284D01*
X138078466Y-70890216D01*
X138205129Y-71030889D01*
X138358269Y-71142151D01*
X138531197Y-71219144D01*
X138716352Y-71258500D01*
X138716354Y-71258500D01*
X138905646Y-71258500D01*
X138924718Y-71254446D01*
X138979447Y-71255162D01*
X139028535Y-71279370D01*
X139062420Y-71322352D01*
X139074500Y-71375736D01*
X139074500Y-83907256D01*
X139072235Y-83927762D01*
X139074439Y-83997873D01*
X139074500Y-84001768D01*
X139074500Y-84029349D01*
X139075003Y-84033334D01*
X139075918Y-84044967D01*
X139077290Y-84088626D01*
X139082879Y-84107860D01*
X139086825Y-84126916D01*
X139089335Y-84146792D01*
X139105414Y-84187404D01*
X139109197Y-84198451D01*
X139121382Y-84240391D01*
X139131580Y-84257635D01*
X139140136Y-84275100D01*
X139147514Y-84293732D01*
X139147515Y-84293733D01*
X139173180Y-84329059D01*
X139179593Y-84338822D01*
X139201826Y-84376416D01*
X139201829Y-84376419D01*
X139201830Y-84376420D01*
X139215995Y-84390585D01*
X139228627Y-84405375D01*
X139240406Y-84421587D01*
X139274058Y-84449426D01*
X139282699Y-84457289D01*
X142194761Y-87369352D01*
X142226855Y-87424939D01*
X142226855Y-87489125D01*
X142199936Y-87589591D01*
X142179340Y-87825000D01*
X142199936Y-88060407D01*
X142239787Y-88209131D01*
X142261097Y-88288663D01*
X142360965Y-88502830D01*
X142496505Y-88696401D01*
X142663599Y-88863495D01*
X142849160Y-88993426D01*
X142888024Y-89037743D01*
X142902035Y-89095000D01*
X142888024Y-89152257D01*
X142849158Y-89196575D01*
X142721447Y-89286000D01*
X142663595Y-89326508D01*
X142496505Y-89493598D01*
X142360965Y-89687170D01*
X142261097Y-89901336D01*
X142199936Y-90129592D01*
X142179340Y-90364999D01*
X142199936Y-90600408D01*
X142226855Y-90700873D01*
X142226855Y-90765059D01*
X142194761Y-90820646D01*
X139951208Y-93064199D01*
X139935110Y-93077096D01*
X139887096Y-93128225D01*
X139884391Y-93131017D01*
X139864874Y-93150534D01*
X139862415Y-93153705D01*
X139854842Y-93162572D01*
X139824935Y-93194420D01*
X139815285Y-93211974D01*
X139804609Y-93228228D01*
X139792326Y-93244063D01*
X139774975Y-93284158D01*
X139769838Y-93294644D01*
X139748802Y-93332907D01*
X139743821Y-93352309D01*
X139737520Y-93370711D01*
X139729561Y-93389102D01*
X139722728Y-93432242D01*
X139720360Y-93443674D01*
X139709500Y-93485978D01*
X139709500Y-93506016D01*
X139707973Y-93525413D01*
X139707584Y-93527868D01*
X139704840Y-93545194D01*
X139708950Y-93588675D01*
X139709500Y-93600344D01*
X139709500Y-100647313D01*
X139701264Y-100691751D01*
X139677652Y-100730282D01*
X139650528Y-100760407D01*
X139602464Y-100813786D01*
X139507820Y-100977715D01*
X139449326Y-101157742D01*
X139448579Y-101164847D01*
X139429540Y-101346000D01*
X139449326Y-101534256D01*
X139449326Y-101534258D01*
X139450689Y-101547218D01*
X139448629Y-101547434D01*
X139450866Y-101594881D01*
X139420243Y-101652714D01*
X139364446Y-101686905D01*
X139299015Y-101687932D01*
X139242172Y-101655509D01*
X138700819Y-101114156D01*
X138673939Y-101073928D01*
X138664500Y-101026475D01*
X138664500Y-89097847D01*
X138660339Y-89051613D01*
X138649377Y-88929812D01*
X138589493Y-88712830D01*
X138491829Y-88510027D01*
X138359522Y-88327922D01*
X138196825Y-88172368D01*
X138196822Y-88172366D01*
X138196821Y-88172365D01*
X138008968Y-88048365D01*
X137801987Y-87959896D01*
X137582537Y-87909809D01*
X137357671Y-87899709D01*
X137134611Y-87929925D01*
X136920537Y-87999482D01*
X136829698Y-88048365D01*
X136722319Y-88106148D01*
X136722317Y-88106149D01*
X136722318Y-88106149D01*
X136546335Y-88246490D01*
X136398233Y-88416006D01*
X136282783Y-88609237D01*
X136203693Y-88819974D01*
X136163500Y-89041453D01*
X136163500Y-100992383D01*
X136151421Y-101045766D01*
X136117536Y-101088749D01*
X136068448Y-101112957D01*
X136013720Y-101113673D01*
X135857649Y-101080500D01*
X135857646Y-101080500D01*
X135668354Y-101080500D01*
X135668352Y-101080500D01*
X135483197Y-101119855D01*
X135310269Y-101196848D01*
X135157129Y-101308110D01*
X135030466Y-101448783D01*
X134935820Y-101612715D01*
X134877326Y-101792742D01*
X134857540Y-101981000D01*
X134877326Y-102169257D01*
X134935820Y-102349284D01*
X135030466Y-102513216D01*
X135157129Y-102653889D01*
X135310269Y-102765151D01*
X135483197Y-102842144D01*
X135668352Y-102881500D01*
X135668354Y-102881500D01*
X135754623Y-102881500D01*
X135800524Y-102890308D01*
X135839903Y-102915482D01*
X137237732Y-104239741D01*
X137263641Y-104274868D01*
X137275773Y-104316797D01*
X137290326Y-104455257D01*
X137348820Y-104635284D01*
X137443466Y-104799216D01*
X137570129Y-104939889D01*
X137723269Y-105051151D01*
X137896197Y-105128144D01*
X138081352Y-105167500D01*
X138081354Y-105167500D01*
X138270646Y-105167500D01*
X138270648Y-105167500D01*
X138394083Y-105141262D01*
X138455803Y-105128144D01*
X138628730Y-105051151D01*
X138781871Y-104939888D01*
X138792860Y-104927682D01*
X138848750Y-104892074D01*
X138915004Y-104890338D01*
X138972689Y-104922974D01*
X140448181Y-106398466D01*
X140475061Y-106438694D01*
X140484500Y-106486147D01*
X140484500Y-107275683D01*
X140466227Y-107340473D01*
X140416795Y-107386168D01*
X140350771Y-107399301D01*
X140287615Y-107376001D01*
X140161329Y-107284249D01*
X139988401Y-107207256D01*
X139803247Y-107167901D01*
X139803245Y-107167901D01*
X139613953Y-107167901D01*
X139613951Y-107167901D01*
X139428796Y-107207256D01*
X139255868Y-107284249D01*
X139102727Y-107395512D01*
X139092069Y-107407349D01*
X139036173Y-107442955D01*
X138969923Y-107444688D01*
X138912242Y-107412053D01*
X131816759Y-100316570D01*
X131792519Y-100282272D01*
X131781120Y-100241856D01*
X131763473Y-100073945D01*
X131704978Y-99893917D01*
X131704978Y-99893916D01*
X131610332Y-99729984D01*
X131483669Y-99589311D01*
X131330529Y-99478049D01*
X131157601Y-99401056D01*
X130972447Y-99361701D01*
X130972445Y-99361701D01*
X130783153Y-99361701D01*
X130783151Y-99361701D01*
X130597996Y-99401056D01*
X130425068Y-99478049D01*
X130271927Y-99589312D01*
X130261270Y-99601148D01*
X130205374Y-99636754D01*
X130139124Y-99638487D01*
X130081443Y-99605852D01*
X128700960Y-98225369D01*
X128676720Y-98191071D01*
X128665321Y-98150655D01*
X128647674Y-97982744D01*
X128609451Y-97865105D01*
X128589179Y-97802715D01*
X128494533Y-97638783D01*
X128367870Y-97498110D01*
X128214730Y-97386848D01*
X128041802Y-97309855D01*
X127856648Y-97270500D01*
X127856646Y-97270500D01*
X127679500Y-97270500D01*
X127617500Y-97253887D01*
X127572113Y-97208500D01*
X127555500Y-97146500D01*
X127555500Y-96702744D01*
X127557764Y-96682237D01*
X127557658Y-96678876D01*
X127555561Y-96612127D01*
X127555500Y-96608232D01*
X127555500Y-96580653D01*
X127554997Y-96576672D01*
X127554080Y-96565019D01*
X127552709Y-96521373D01*
X127547120Y-96502140D01*
X127543174Y-96483082D01*
X127540664Y-96463206D01*
X127524588Y-96422604D01*
X127520804Y-96411553D01*
X127514881Y-96391168D01*
X127508618Y-96369610D01*
X127498414Y-96352355D01*
X127489861Y-96334895D01*
X127482486Y-96316268D01*
X127456808Y-96280925D01*
X127450401Y-96271171D01*
X127445837Y-96263453D01*
X127428170Y-96233580D01*
X127414005Y-96219415D01*
X127401367Y-96204617D01*
X127389595Y-96188413D01*
X127355941Y-96160573D01*
X127347299Y-96152709D01*
X127095237Y-95900647D01*
X127063143Y-95845059D01*
X127063143Y-95780872D01*
X127064198Y-95776935D01*
X127090063Y-95680408D01*
X127110659Y-95445000D01*
X127090063Y-95209592D01*
X127028903Y-94981337D01*
X126976455Y-94868864D01*
X126965852Y-94800633D01*
X126993386Y-94737308D01*
X127050517Y-94698530D01*
X127055914Y-94696777D01*
X127078676Y-94691689D01*
X127086792Y-94690664D01*
X127138396Y-94670231D01*
X127145671Y-94667612D01*
X127198441Y-94650467D01*
X127205337Y-94646090D01*
X127226132Y-94635494D01*
X127233732Y-94632486D01*
X127278624Y-94599869D01*
X127285026Y-94595517D01*
X127331877Y-94565786D01*
X127337461Y-94559838D01*
X127354979Y-94544394D01*
X127361587Y-94539594D01*
X127361588Y-94539591D01*
X127361590Y-94539591D01*
X127396938Y-94496861D01*
X127402080Y-94491027D01*
X127440062Y-94450582D01*
X127443999Y-94443418D01*
X127457119Y-94424114D01*
X127462324Y-94417823D01*
X127485942Y-94367630D01*
X127489467Y-94360711D01*
X127516197Y-94312092D01*
X127518228Y-94304177D01*
X127526132Y-94282223D01*
X127529614Y-94274826D01*
X127540010Y-94220325D01*
X127541698Y-94212768D01*
X127555500Y-94159019D01*
X127555500Y-94150849D01*
X127557696Y-94127615D01*
X127559227Y-94119587D01*
X127555745Y-94064241D01*
X127555500Y-94056455D01*
X127555500Y-89082744D01*
X127557764Y-89062237D01*
X127556994Y-89037743D01*
X127555561Y-88992127D01*
X127555500Y-88988232D01*
X127555500Y-88960653D01*
X127554997Y-88956672D01*
X127554080Y-88945019D01*
X127553168Y-88915994D01*
X127552709Y-88901373D01*
X127547120Y-88882140D01*
X127543174Y-88863082D01*
X127540664Y-88843206D01*
X127524588Y-88802604D01*
X127520804Y-88791553D01*
X127509778Y-88753603D01*
X127508618Y-88749610D01*
X127498414Y-88732355D01*
X127489861Y-88714895D01*
X127489043Y-88712828D01*
X127482486Y-88696268D01*
X127456808Y-88660925D01*
X127450401Y-88651171D01*
X127428169Y-88613579D01*
X127414006Y-88599416D01*
X127401367Y-88584617D01*
X127389595Y-88568413D01*
X127355941Y-88540573D01*
X127347299Y-88532709D01*
X127095237Y-88280647D01*
X127063143Y-88225059D01*
X127063143Y-88160872D01*
X127090063Y-88060408D01*
X127110659Y-87825000D01*
X127090063Y-87589592D01*
X127028903Y-87361337D01*
X126929035Y-87147171D01*
X126793495Y-86953599D01*
X126626401Y-86786505D01*
X126440839Y-86656573D01*
X126401975Y-86612257D01*
X126387964Y-86555000D01*
X126401975Y-86497743D01*
X126440839Y-86453426D01*
X126626401Y-86323495D01*
X126793495Y-86156401D01*
X126929035Y-85962830D01*
X127028903Y-85748663D01*
X127090063Y-85520408D01*
X127110659Y-85285000D01*
X127090063Y-85049592D01*
X127028903Y-84821337D01*
X126929035Y-84607171D01*
X126793495Y-84413599D01*
X126626401Y-84246505D01*
X126440839Y-84116573D01*
X126401975Y-84072257D01*
X126387964Y-84015000D01*
X126401975Y-83957743D01*
X126440839Y-83913426D01*
X126626401Y-83783495D01*
X126793495Y-83616401D01*
X126929035Y-83422830D01*
X127028903Y-83208663D01*
X127090063Y-82980408D01*
X127110659Y-82745000D01*
X127090063Y-82509592D01*
X127028903Y-82281337D01*
X126929035Y-82067171D01*
X126793495Y-81873599D01*
X126671181Y-81751285D01*
X126639885Y-81698539D01*
X126637696Y-81637246D01*
X126665149Y-81582401D01*
X126715528Y-81547422D01*
X126847089Y-81498352D01*
X126962188Y-81412188D01*
X127048352Y-81297089D01*
X127098597Y-81162375D01*
X127105000Y-81102824D01*
X127105000Y-80705000D01*
X124405000Y-80705000D01*
X124405000Y-81102824D01*
X124411402Y-81162375D01*
X124461647Y-81297089D01*
X124547811Y-81412188D01*
X124662911Y-81498352D01*
X124794471Y-81547422D01*
X124844850Y-81582401D01*
X124872303Y-81637246D01*
X124870114Y-81698539D01*
X124838819Y-81751285D01*
X124716503Y-81873601D01*
X124580965Y-82067170D01*
X124481097Y-82281336D01*
X124419936Y-82509592D01*
X124399340Y-82745000D01*
X124419936Y-82980407D01*
X124464709Y-83147501D01*
X124481097Y-83208663D01*
X124580965Y-83422830D01*
X124716505Y-83616401D01*
X124883599Y-83783495D01*
X125069160Y-83913426D01*
X125108024Y-83957743D01*
X125122035Y-84015000D01*
X125108024Y-84072257D01*
X125069159Y-84116575D01*
X125038738Y-84137875D01*
X124941447Y-84206000D01*
X124883595Y-84246508D01*
X124716505Y-84413598D01*
X124580965Y-84607170D01*
X124481097Y-84821336D01*
X124419936Y-85049592D01*
X124399340Y-85284999D01*
X124419936Y-85520408D01*
X124446855Y-85620873D01*
X124446855Y-85685059D01*
X124414761Y-85740646D01*
X116775348Y-93380059D01*
X116728946Y-93409305D01*
X116674467Y-93415673D01*
X116622571Y-93397917D01*
X116467999Y-93302578D01*
X116469738Y-93299757D01*
X116438510Y-93279424D01*
X116409422Y-93223452D01*
X116411634Y-93160411D01*
X116444576Y-93106615D01*
X116573139Y-92983396D01*
X116711812Y-92795898D01*
X116816803Y-92587660D01*
X116820680Y-92575000D01*
X114940000Y-92575000D01*
X114878000Y-92558387D01*
X114832613Y-92513000D01*
X114816000Y-92451000D01*
X114816000Y-90035000D01*
X115816000Y-90035000D01*
X115816000Y-91575000D01*
X116816552Y-91575000D01*
X116768732Y-91455994D01*
X116646456Y-91257405D01*
X116492381Y-91082342D01*
X116310940Y-90935838D01*
X116269945Y-90912937D01*
X116224829Y-90869697D01*
X116206530Y-90809946D01*
X116219695Y-90748857D01*
X116260982Y-90701947D01*
X116404773Y-90604761D01*
X116573139Y-90443396D01*
X116711812Y-90255898D01*
X116816803Y-90047660D01*
X116820680Y-90035000D01*
X115816000Y-90035000D01*
X114816000Y-90035000D01*
X114816000Y-89159000D01*
X114832613Y-89097000D01*
X114878000Y-89051613D01*
X114940000Y-89035000D01*
X116816552Y-89035000D01*
X116768732Y-88915994D01*
X116646456Y-88717405D01*
X116492381Y-88542342D01*
X116310940Y-88395837D01*
X116270433Y-88373209D01*
X116225318Y-88329970D01*
X116207020Y-88270218D01*
X116220185Y-88209131D01*
X116261469Y-88162222D01*
X116405088Y-88065153D01*
X116573516Y-87903728D01*
X116712240Y-87716161D01*
X116817270Y-87507847D01*
X116885583Y-87284780D01*
X116915216Y-87053376D01*
X116905314Y-86820293D01*
X116856164Y-86592235D01*
X116769179Y-86375765D01*
X116646862Y-86177109D01*
X116492731Y-86001982D01*
X116492729Y-86001980D01*
X116311221Y-85855421D01*
X116270897Y-85832895D01*
X116225782Y-85789655D01*
X116207484Y-85729904D01*
X116220649Y-85668816D01*
X116261933Y-85621909D01*
X116405088Y-85525153D01*
X116573516Y-85363728D01*
X116712240Y-85176161D01*
X116817270Y-84967847D01*
X116885583Y-84744780D01*
X116915216Y-84513376D01*
X116905314Y-84280293D01*
X116856164Y-84052235D01*
X116853243Y-84044967D01*
X116807314Y-83930667D01*
X116769179Y-83835765D01*
X116646862Y-83637109D01*
X116492731Y-83461982D01*
X116453230Y-83430087D01*
X116414897Y-83376807D01*
X116409131Y-83311423D01*
X116437549Y-83252256D01*
X116469994Y-83230657D01*
X116467999Y-83227422D01*
X116497508Y-83209221D01*
X116629656Y-83127712D01*
X116753712Y-83003656D01*
X116845814Y-82854334D01*
X116900999Y-82687797D01*
X116904667Y-82651897D01*
X116925090Y-82595359D01*
X116969704Y-82555071D01*
X117028025Y-82540500D01*
X121422256Y-82540500D01*
X121442762Y-82542764D01*
X121445665Y-82542672D01*
X121445667Y-82542673D01*
X121512872Y-82540561D01*
X121516768Y-82540500D01*
X121544349Y-82540500D01*
X121544350Y-82540500D01*
X121548319Y-82539998D01*
X121559965Y-82539080D01*
X121603627Y-82537709D01*
X121622859Y-82532120D01*
X121641918Y-82528174D01*
X121648196Y-82527381D01*
X121661792Y-82525664D01*
X121702407Y-82509582D01*
X121713444Y-82505803D01*
X121755390Y-82493618D01*
X121772629Y-82483422D01*
X121790102Y-82474862D01*
X121808732Y-82467486D01*
X121844064Y-82441814D01*
X121853830Y-82435400D01*
X121891418Y-82413171D01*
X121891417Y-82413171D01*
X121891420Y-82413170D01*
X121905585Y-82399004D01*
X121920373Y-82386373D01*
X121936587Y-82374594D01*
X121964438Y-82340926D01*
X121972279Y-82332309D01*
X124563269Y-79741319D01*
X124603498Y-79714439D01*
X124650951Y-79705000D01*
X127105000Y-79705000D01*
X127105000Y-79307176D01*
X127098597Y-79247624D01*
X127048352Y-79112910D01*
X126962188Y-78997811D01*
X126847088Y-78911647D01*
X126715528Y-78862577D01*
X126665149Y-78827597D01*
X126637696Y-78772752D01*
X126639885Y-78711460D01*
X126671178Y-78658717D01*
X126793495Y-78536401D01*
X126929035Y-78342830D01*
X127028903Y-78128663D01*
X127090063Y-77900408D01*
X127110659Y-77665000D01*
X127090063Y-77429592D01*
X127028903Y-77201337D01*
X126929035Y-76987171D01*
X126793495Y-76793599D01*
X126626401Y-76626505D01*
X126440839Y-76496573D01*
X126401975Y-76452257D01*
X126387964Y-76395000D01*
X126401975Y-76337743D01*
X126440839Y-76293426D01*
X126626401Y-76163495D01*
X126793495Y-75996401D01*
X126929035Y-75802830D01*
X127028903Y-75588663D01*
X127090063Y-75360408D01*
X127110659Y-75125000D01*
X127090063Y-74889592D01*
X127028903Y-74661337D01*
X126929035Y-74447171D01*
X126793495Y-74253599D01*
X126626401Y-74086505D01*
X126440839Y-73956573D01*
X126401975Y-73912257D01*
X126387964Y-73855000D01*
X126401975Y-73797743D01*
X126440839Y-73753426D01*
X126626401Y-73623495D01*
X126793495Y-73456401D01*
X126929035Y-73262830D01*
X127028903Y-73048663D01*
X127090063Y-72820408D01*
X127110659Y-72585000D01*
X127090063Y-72349592D01*
X127028903Y-72121337D01*
X126929035Y-71907171D01*
X126793495Y-71713599D01*
X126626401Y-71546505D01*
X126440839Y-71416573D01*
X126401974Y-71372255D01*
X126387964Y-71314999D01*
X126401975Y-71257742D01*
X126440837Y-71213428D01*
X126626401Y-71083495D01*
X126793495Y-70916401D01*
X126929035Y-70722830D01*
X127028903Y-70508663D01*
X127090063Y-70280408D01*
X127110659Y-70045000D01*
X127090063Y-69809592D01*
X127028903Y-69581337D01*
X126929035Y-69367171D01*
X126793495Y-69173599D01*
X126671181Y-69051285D01*
X126639885Y-68998539D01*
X126637696Y-68937246D01*
X126665149Y-68882401D01*
X126715528Y-68847422D01*
X126847089Y-68798352D01*
X126962188Y-68712188D01*
X127048352Y-68597089D01*
X127098597Y-68462375D01*
X127105000Y-68402824D01*
X127105000Y-68005000D01*
X124405000Y-68005000D01*
X124405000Y-68402824D01*
X124411402Y-68462375D01*
X124461647Y-68597089D01*
X124547811Y-68712188D01*
X124662911Y-68798352D01*
X124794471Y-68847422D01*
X124844850Y-68882401D01*
X124872303Y-68937246D01*
X124870114Y-68998539D01*
X124838819Y-69051285D01*
X124716503Y-69173601D01*
X124580965Y-69367170D01*
X124481097Y-69581336D01*
X124419936Y-69809592D01*
X124399340Y-70044999D01*
X124419936Y-70280405D01*
X124419937Y-70280407D01*
X124419937Y-70280408D01*
X124440727Y-70358000D01*
X124446856Y-70380871D01*
X124446856Y-70445058D01*
X124414762Y-70500646D01*
X118742228Y-76173181D01*
X118702000Y-76200061D01*
X118654547Y-76209500D01*
X116834592Y-76209500D01*
X116774118Y-76193754D01*
X116729002Y-76150514D01*
X116679569Y-76070229D01*
X116646862Y-76017109D01*
X116492731Y-75841982D01*
X116492729Y-75841980D01*
X116311221Y-75695421D01*
X116270897Y-75672895D01*
X116225782Y-75629655D01*
X116207484Y-75569904D01*
X116220649Y-75508816D01*
X116261933Y-75461909D01*
X116405088Y-75365153D01*
X116573516Y-75203728D01*
X116712240Y-75016161D01*
X116817270Y-74807847D01*
X116885583Y-74584780D01*
X116915216Y-74353376D01*
X116905314Y-74120293D01*
X116856164Y-73892235D01*
X116854811Y-73888869D01*
X116769180Y-73675768D01*
X116769179Y-73675765D01*
X116646862Y-73477109D01*
X116492731Y-73301982D01*
X116492729Y-73301980D01*
X116311221Y-73155421D01*
X116270408Y-73132622D01*
X116225293Y-73089383D01*
X116206995Y-73029631D01*
X116220160Y-72968543D01*
X116261447Y-72921633D01*
X116404773Y-72824761D01*
X116573139Y-72663396D01*
X116711812Y-72475898D01*
X116816803Y-72267660D01*
X116820680Y-72255000D01*
X114940000Y-72255000D01*
X114878000Y-72238387D01*
X114832613Y-72193000D01*
X114816000Y-72131000D01*
X114816000Y-71379000D01*
X114832613Y-71317000D01*
X114878000Y-71271613D01*
X114940000Y-71255000D01*
X116816552Y-71255000D01*
X116768732Y-71135994D01*
X116646456Y-70937405D01*
X116492383Y-70762344D01*
X116452666Y-70730274D01*
X116414334Y-70676998D01*
X116408566Y-70611619D01*
X116436976Y-70552454D01*
X116469911Y-70530523D01*
X116467999Y-70527422D01*
X116480334Y-70519814D01*
X116629656Y-70427712D01*
X116753712Y-70303656D01*
X116845814Y-70154334D01*
X116900999Y-69987797D01*
X116911500Y-69885009D01*
X116911499Y-68544992D01*
X116900999Y-68442203D01*
X116845814Y-68275666D01*
X116753712Y-68126344D01*
X116753711Y-68126342D01*
X116629657Y-68002288D01*
X116467999Y-67902578D01*
X116469738Y-67899757D01*
X116438510Y-67879424D01*
X116409422Y-67823452D01*
X116411634Y-67760411D01*
X116444576Y-67706615D01*
X116573139Y-67583396D01*
X116711812Y-67395898D01*
X116816803Y-67187660D01*
X116820680Y-67175000D01*
X114940000Y-67175000D01*
X114878000Y-67158387D01*
X114832613Y-67113000D01*
X114816000Y-67051000D01*
X114816000Y-66299000D01*
X114832613Y-66237000D01*
X114878000Y-66191613D01*
X114940000Y-66175000D01*
X116816552Y-66175000D01*
X116768732Y-66055994D01*
X116646456Y-65857405D01*
X116592786Y-65796424D01*
X116566140Y-65746763D01*
X116564226Y-65690438D01*
X116587440Y-65639083D01*
X116630986Y-65603307D01*
X116685869Y-65590500D01*
X124479773Y-65590500D01*
X124537030Y-65604511D01*
X124581346Y-65643374D01*
X124716505Y-65836401D01*
X124716507Y-65836403D01*
X124716508Y-65836404D01*
X124838818Y-65958714D01*
X124870114Y-66011460D01*
X124872303Y-66072753D01*
X124844850Y-66127597D01*
X124794472Y-66162576D01*
X124662913Y-66211646D01*
X124547811Y-66297811D01*
X124461647Y-66412910D01*
X124411402Y-66547624D01*
X124405000Y-66607176D01*
X124405000Y-67005000D01*
X127105000Y-67005000D01*
X127105000Y-66607176D01*
X127098597Y-66547624D01*
X127048352Y-66412910D01*
X126962188Y-66297811D01*
X126847088Y-66211647D01*
X126715528Y-66162577D01*
X126665149Y-66127597D01*
X126637696Y-66072752D01*
X126639885Y-66011460D01*
X126671178Y-65958717D01*
X126793495Y-65836401D01*
X126929035Y-65642830D01*
X127028903Y-65428663D01*
X127090063Y-65200408D01*
X127110659Y-64965000D01*
X127090063Y-64729592D01*
X127028903Y-64501337D01*
X126929035Y-64287171D01*
X126793495Y-64093599D01*
X126626401Y-63926505D01*
X126440839Y-63796573D01*
X126401975Y-63752257D01*
X126387964Y-63695000D01*
X126401975Y-63637743D01*
X126440839Y-63593426D01*
X126626401Y-63463495D01*
X126793495Y-63296401D01*
X126929035Y-63102830D01*
X127028903Y-62888663D01*
X127090063Y-62660408D01*
X127110659Y-62425000D01*
X127090063Y-62189592D01*
X127028903Y-61961337D01*
X126929035Y-61747171D01*
X126793495Y-61553599D01*
X126626401Y-61386505D01*
X126432830Y-61250965D01*
X126218663Y-61151097D01*
X126118479Y-61124253D01*
X125990407Y-61089936D01*
X125755000Y-61069340D01*
X125519591Y-61089936D01*
X125416115Y-61117662D01*
X125353813Y-61118151D01*
X125299138Y-61088277D01*
X125295582Y-61084938D01*
X125295581Y-61084937D01*
X125286251Y-61079808D01*
X125278024Y-61075285D01*
X125261764Y-61064604D01*
X125245936Y-61052327D01*
X125205851Y-61034980D01*
X125195361Y-61029841D01*
X125157091Y-61008802D01*
X125137691Y-61003821D01*
X125119284Y-60997519D01*
X125100897Y-60989562D01*
X125057758Y-60982729D01*
X125046324Y-60980361D01*
X125004019Y-60969500D01*
X124983984Y-60969500D01*
X124964586Y-60967973D01*
X124957162Y-60966797D01*
X124944805Y-60964840D01*
X124944804Y-60964840D01*
X124911751Y-60967964D01*
X124901325Y-60968950D01*
X124889656Y-60969500D01*
X116834592Y-60969500D01*
X116774118Y-60953754D01*
X116729002Y-60910514D01*
X116725057Y-60904107D01*
X116646862Y-60777109D01*
X116492731Y-60601982D01*
X116492729Y-60601980D01*
X116311221Y-60455421D01*
X116270897Y-60432895D01*
X116225782Y-60389655D01*
X116207484Y-60329904D01*
X116220649Y-60268816D01*
X116261933Y-60221909D01*
X116405088Y-60125153D01*
X116573516Y-59963728D01*
X116712240Y-59776161D01*
X116817270Y-59567847D01*
X116885583Y-59344780D01*
X116915216Y-59113376D01*
X116905314Y-58880293D01*
X116903096Y-58870000D01*
X122191000Y-58870000D01*
X122191000Y-59317824D01*
X122197402Y-59377375D01*
X122247647Y-59512089D01*
X122333811Y-59627188D01*
X122448910Y-59713352D01*
X122583624Y-59763597D01*
X122643176Y-59770000D01*
X122691000Y-59770000D01*
X122691000Y-58870000D01*
X123591000Y-58870000D01*
X123591000Y-59770000D01*
X123638824Y-59770000D01*
X123698375Y-59763597D01*
X123833089Y-59713352D01*
X123948188Y-59627188D01*
X124034352Y-59512089D01*
X124084597Y-59377375D01*
X124091000Y-59317824D01*
X124091000Y-58870000D01*
X123591000Y-58870000D01*
X122691000Y-58870000D01*
X122191000Y-58870000D01*
X116903096Y-58870000D01*
X116856164Y-58652235D01*
X116769179Y-58435765D01*
X116646862Y-58237109D01*
X116492731Y-58061982D01*
X116478993Y-58050889D01*
X116378815Y-57970000D01*
X122191000Y-57970000D01*
X122691000Y-57970000D01*
X122691000Y-57070000D01*
X123591000Y-57070000D01*
X123591000Y-57970000D01*
X124091000Y-57970000D01*
X124091000Y-57522176D01*
X124084597Y-57462624D01*
X124034352Y-57327910D01*
X123948188Y-57212811D01*
X123833089Y-57126647D01*
X123698375Y-57076402D01*
X123638824Y-57070000D01*
X123591000Y-57070000D01*
X122691000Y-57070000D01*
X122643176Y-57070000D01*
X122583624Y-57076402D01*
X122448910Y-57126647D01*
X122333811Y-57212811D01*
X122247647Y-57327910D01*
X122197402Y-57462624D01*
X122191000Y-57522176D01*
X122191000Y-57970000D01*
X116378815Y-57970000D01*
X116311221Y-57915421D01*
X116270408Y-57892622D01*
X116225293Y-57849383D01*
X116206995Y-57789631D01*
X116220160Y-57728543D01*
X116261447Y-57681633D01*
X116404773Y-57584761D01*
X116573139Y-57423396D01*
X116711812Y-57235898D01*
X116816803Y-57027660D01*
X116820680Y-57015000D01*
X114940000Y-57015000D01*
X114878000Y-56998387D01*
X114832613Y-56953000D01*
X114816000Y-56891000D01*
X114816000Y-55816074D01*
X114823819Y-55772739D01*
X114846289Y-55734869D01*
X114874195Y-55702665D01*
X114889574Y-55684917D01*
X114925917Y-55628364D01*
X114930957Y-55621107D01*
X114971226Y-55567315D01*
X115003435Y-55508326D01*
X115007952Y-55500715D01*
X115044282Y-55444186D01*
X115044281Y-55444186D01*
X115072197Y-55383057D01*
X115076158Y-55375145D01*
X115108367Y-55316161D01*
X115131858Y-55253178D01*
X115135234Y-55245028D01*
X115163156Y-55183888D01*
X115166600Y-55172159D01*
X115815999Y-55172159D01*
X115816000Y-55172160D01*
X115816000Y-56015000D01*
X116816552Y-56015000D01*
X116768732Y-55895994D01*
X116646456Y-55697405D01*
X116492381Y-55522342D01*
X116310942Y-55375839D01*
X116107344Y-55262103D01*
X115887455Y-55184411D01*
X115815999Y-55172159D01*
X115166600Y-55172159D01*
X115182092Y-55119395D01*
X115184883Y-55111012D01*
X115187902Y-55102918D01*
X115208369Y-55048046D01*
X115222658Y-54982351D01*
X115224846Y-54973786D01*
X115243775Y-54909323D01*
X115253336Y-54842817D01*
X115254903Y-54834127D01*
X115269196Y-54768428D01*
X115273990Y-54701383D01*
X115274932Y-54692617D01*
X115284500Y-54626079D01*
X115284500Y-54339921D01*
X115284500Y-54301657D01*
X116585448Y-54301657D01*
X116769045Y-54401909D01*
X117037100Y-54501889D01*
X117316642Y-54562699D01*
X117602000Y-54583109D01*
X117887357Y-54562699D01*
X118166899Y-54501889D01*
X118434954Y-54401909D01*
X118618550Y-54301658D01*
X118618550Y-54301657D01*
X117602000Y-53285107D01*
X116585448Y-54301657D01*
X115284500Y-54301657D01*
X115284500Y-51933996D01*
X115293939Y-51886543D01*
X115320819Y-51846315D01*
X115449363Y-51717771D01*
X115596470Y-51570663D01*
X115657790Y-51537180D01*
X115727482Y-51542164D01*
X115783415Y-51584035D01*
X115807833Y-51649498D01*
X115792982Y-51717771D01*
X115778089Y-51745045D01*
X115678111Y-52013097D01*
X115617300Y-52292642D01*
X115596890Y-52577999D01*
X115617300Y-52863357D01*
X115678111Y-53142902D01*
X115778088Y-53410952D01*
X115878341Y-53594550D01*
X116894892Y-52578000D01*
X118309107Y-52578000D01*
X119325657Y-53594550D01*
X119325658Y-53594550D01*
X119425909Y-53410954D01*
X119525889Y-53142899D01*
X119586699Y-52863357D01*
X119607109Y-52577999D01*
X119586699Y-52292642D01*
X119525889Y-52013100D01*
X119425909Y-51745045D01*
X119325657Y-51561448D01*
X118309107Y-52578000D01*
X116894892Y-52578000D01*
X117602000Y-51870893D01*
X118618550Y-50854341D01*
X118618550Y-50854340D01*
X118434952Y-50754088D01*
X118166902Y-50654111D01*
X117887357Y-50593300D01*
X117602000Y-50572890D01*
X117316642Y-50593300D01*
X117037097Y-50654111D01*
X116769045Y-50754089D01*
X116741771Y-50768982D01*
X116673498Y-50783833D01*
X116608035Y-50759415D01*
X116566164Y-50703482D01*
X116561180Y-50633791D01*
X116594663Y-50572470D01*
X117924088Y-49243046D01*
X117924088Y-49243045D01*
X117974739Y-49192395D01*
X118015022Y-49138580D01*
X118020541Y-49131732D01*
X118064574Y-49080918D01*
X118100915Y-49024367D01*
X118105958Y-49017105D01*
X118146226Y-48963315D01*
X118178431Y-48904333D01*
X118182948Y-48896722D01*
X118219282Y-48840187D01*
X118247205Y-48779041D01*
X118251156Y-48771149D01*
X118283367Y-48712161D01*
X118306855Y-48649181D01*
X118310232Y-48641030D01*
X118338156Y-48579889D01*
X118357093Y-48515393D01*
X118359874Y-48507036D01*
X118383369Y-48444046D01*
X118389176Y-48417352D01*
X118397657Y-48378364D01*
X118399846Y-48369785D01*
X118418775Y-48305322D01*
X118428338Y-48238800D01*
X118429903Y-48230127D01*
X118444196Y-48164428D01*
X118448990Y-48097383D01*
X118449932Y-48088617D01*
X118459500Y-48022079D01*
X118459500Y-47735921D01*
X118459500Y-43836125D01*
X118459500Y-43764494D01*
X118449932Y-43697952D01*
X118448988Y-43689164D01*
X118444197Y-43622150D01*
X118444196Y-43622145D01*
X118429905Y-43556454D01*
X118428338Y-43547764D01*
X118418777Y-43481256D01*
X118418776Y-43481251D01*
X118399834Y-43416742D01*
X118397659Y-43408221D01*
X118383369Y-43342527D01*
X118359874Y-43279536D01*
X118357092Y-43271178D01*
X118338156Y-43206685D01*
X118310239Y-43145555D01*
X118306854Y-43137381D01*
X118283368Y-43074415D01*
X118283367Y-43074412D01*
X118251153Y-43015418D01*
X118247200Y-43007519D01*
X118241690Y-42995456D01*
X118219282Y-42946387D01*
X118182941Y-42889840D01*
X118178435Y-42882244D01*
X118146892Y-42824478D01*
X118146226Y-42823258D01*
X118105941Y-42769443D01*
X118100928Y-42762224D01*
X118064574Y-42705656D01*
X118020563Y-42654865D01*
X118015008Y-42647972D01*
X117974736Y-42594174D01*
X117927469Y-42546908D01*
X117927445Y-42546882D01*
X114949528Y-39568966D01*
X114917434Y-39513379D01*
X114917434Y-39449191D01*
X114949526Y-39393606D01*
X117503652Y-36839480D01*
X117548003Y-36810979D01*
X117593170Y-36804488D01*
X117593153Y-36804243D01*
X117596589Y-36803997D01*
X117600186Y-36803480D01*
X117602000Y-36803610D01*
X117887428Y-36783196D01*
X118167046Y-36722369D01*
X118435161Y-36622367D01*
X118686315Y-36485226D01*
X118915395Y-36313739D01*
X119117739Y-36111395D01*
X119289226Y-35882315D01*
X119426367Y-35631161D01*
X119526369Y-35363046D01*
X119587196Y-35083428D01*
X119607610Y-34798000D01*
X119587196Y-34512572D01*
X119526369Y-34232954D01*
X119426367Y-33964839D01*
X119348424Y-33822098D01*
X119289227Y-33713686D01*
X119184917Y-33574345D01*
X119117739Y-33484605D01*
X118915395Y-33282261D01*
X118767385Y-33171462D01*
X118703004Y-33123267D01*
X118664521Y-33075511D01*
X118653631Y-33015154D01*
X118673000Y-32956960D01*
X118717888Y-32915168D01*
X118777315Y-32900000D01*
X159606685Y-32900000D01*
X159666112Y-32915168D01*
G37*
G04 #@! TD.AperFunction*
G04 #@! TA.AperFunction,Conductor*
G36*
X115703858Y-32917813D02*
G01*
X115749495Y-32966133D01*
X115763623Y-33031079D01*
X115742184Y-33093991D01*
X115691337Y-33136794D01*
X115625812Y-33166717D01*
X115385083Y-33321425D01*
X115222947Y-33461917D01*
X110297047Y-38387817D01*
X110263919Y-38411491D01*
X110224909Y-38423158D01*
X110147524Y-38432934D01*
X109842774Y-38511180D01*
X109550235Y-38627005D01*
X109274515Y-38778583D01*
X109019971Y-38963519D01*
X108790612Y-39178902D01*
X108590053Y-39421336D01*
X108421463Y-39686992D01*
X108287495Y-39971689D01*
X108190269Y-40270917D01*
X108131311Y-40579989D01*
X108111555Y-40894000D01*
X108131311Y-41208010D01*
X108190269Y-41517082D01*
X108287495Y-41816310D01*
X108421463Y-42101007D01*
X108590053Y-42366663D01*
X108790612Y-42609097D01*
X109019971Y-42824480D01*
X109274515Y-43009416D01*
X109285464Y-43015435D01*
X109550234Y-43160994D01*
X109665634Y-43206684D01*
X109736414Y-43234708D01*
X109790161Y-43275860D01*
X109814288Y-43339106D01*
X109801603Y-43405600D01*
X109755889Y-43455523D01*
X109690767Y-43474000D01*
X108569176Y-43474000D01*
X108509624Y-43480402D01*
X108374910Y-43530647D01*
X108259811Y-43616811D01*
X108173647Y-43731910D01*
X108123402Y-43866624D01*
X108117000Y-43926176D01*
X108117000Y-45474000D01*
X113117000Y-45474000D01*
X113117000Y-43926176D01*
X113110597Y-43866624D01*
X113060352Y-43731910D01*
X112974188Y-43616811D01*
X112859089Y-43530647D01*
X112724375Y-43480402D01*
X112664824Y-43474000D01*
X111543233Y-43474000D01*
X111478111Y-43455523D01*
X111432397Y-43405600D01*
X111419712Y-43339106D01*
X111443839Y-43275860D01*
X111497586Y-43234708D01*
X111540206Y-43217833D01*
X111683766Y-43160994D01*
X111959484Y-43009416D01*
X112046234Y-42946389D01*
X112085058Y-42918182D01*
X112119625Y-42900569D01*
X112157943Y-42894500D01*
X112565431Y-42894500D01*
X112612884Y-42903939D01*
X112653112Y-42930819D01*
X114422181Y-44699889D01*
X114449061Y-44740117D01*
X114458500Y-44787570D01*
X114458500Y-46999004D01*
X114449061Y-47046457D01*
X114422181Y-47086685D01*
X113320968Y-48187897D01*
X113269070Y-48218941D01*
X113208662Y-48221746D01*
X113154110Y-48195647D01*
X113118390Y-48146850D01*
X113109997Y-48086961D01*
X113117000Y-48021823D01*
X113117000Y-46474000D01*
X111117000Y-46474000D01*
X111117000Y-48474000D01*
X112664823Y-48474000D01*
X112729961Y-48466997D01*
X112789850Y-48475390D01*
X112838647Y-48511110D01*
X112864746Y-48565662D01*
X112861941Y-48626070D01*
X112830897Y-48677968D01*
X111970605Y-49538261D01*
X111768260Y-49740604D01*
X111727988Y-49794400D01*
X111722438Y-49801287D01*
X111678427Y-49852080D01*
X111642092Y-49908617D01*
X111637047Y-49915883D01*
X111596771Y-49969687D01*
X111564568Y-50028662D01*
X111560053Y-50036272D01*
X111523720Y-50092808D01*
X111495801Y-50153941D01*
X111491841Y-50161852D01*
X111459634Y-50220837D01*
X111436146Y-50283807D01*
X111432761Y-50291978D01*
X111404843Y-50353113D01*
X111385909Y-50417593D01*
X111383115Y-50425987D01*
X111359631Y-50488952D01*
X111345343Y-50554634D01*
X111343154Y-50563211D01*
X111324225Y-50627675D01*
X111314660Y-50694196D01*
X111313088Y-50702903D01*
X111299752Y-50764218D01*
X111298804Y-50768574D01*
X111294008Y-50835608D01*
X111293062Y-50844403D01*
X111283500Y-50910918D01*
X111283500Y-53603003D01*
X111274061Y-53650456D01*
X111247181Y-53690683D01*
X111207604Y-53730261D01*
X111207605Y-53730261D01*
X111149017Y-53788848D01*
X111005261Y-53932603D01*
X110964988Y-53986400D01*
X110959438Y-53993287D01*
X110915427Y-54044080D01*
X110879092Y-54100617D01*
X110874047Y-54107883D01*
X110833771Y-54161687D01*
X110801568Y-54220662D01*
X110797053Y-54228272D01*
X110760720Y-54284808D01*
X110732801Y-54345941D01*
X110728841Y-54353852D01*
X110696634Y-54412837D01*
X110673146Y-54475807D01*
X110669761Y-54483978D01*
X110641843Y-54545113D01*
X110622909Y-54609593D01*
X110620115Y-54617987D01*
X110596631Y-54680952D01*
X110582343Y-54746634D01*
X110580154Y-54755211D01*
X110561225Y-54819675D01*
X110551660Y-54886196D01*
X110550088Y-54894903D01*
X110546953Y-54909322D01*
X110535804Y-54960574D01*
X110531008Y-55027608D01*
X110530062Y-55036403D01*
X110520500Y-55102918D01*
X110520500Y-92259533D01*
X110511061Y-92306986D01*
X110484181Y-92347213D01*
X109825645Y-93005749D01*
X109179164Y-93652230D01*
X108994261Y-93837132D01*
X108953988Y-93890929D01*
X108948438Y-93897816D01*
X108904427Y-93948609D01*
X108868092Y-94005146D01*
X108863047Y-94012412D01*
X108822771Y-94066216D01*
X108790568Y-94125191D01*
X108786053Y-94132801D01*
X108749720Y-94189337D01*
X108721801Y-94250470D01*
X108717841Y-94258381D01*
X108685634Y-94317366D01*
X108662146Y-94380336D01*
X108658761Y-94388507D01*
X108630843Y-94449642D01*
X108611909Y-94514122D01*
X108609115Y-94522516D01*
X108585631Y-94585481D01*
X108571343Y-94651163D01*
X108569154Y-94659740D01*
X108550225Y-94724204D01*
X108540660Y-94790725D01*
X108539089Y-94799432D01*
X108524804Y-94865103D01*
X108520008Y-94932137D01*
X108519062Y-94940932D01*
X108509500Y-95007447D01*
X108509500Y-126564245D01*
X108519062Y-126630758D01*
X108520008Y-126639555D01*
X108523916Y-126694186D01*
X108517887Y-126742190D01*
X108493948Y-126784234D01*
X108473424Y-126807920D01*
X108437092Y-126864453D01*
X108432047Y-126871719D01*
X108391771Y-126925523D01*
X108359568Y-126984498D01*
X108355053Y-126992108D01*
X108318720Y-127048644D01*
X108290801Y-127109777D01*
X108286841Y-127117688D01*
X108254634Y-127176673D01*
X108231146Y-127239643D01*
X108227761Y-127247814D01*
X108199843Y-127308949D01*
X108180909Y-127373429D01*
X108178115Y-127381823D01*
X108154631Y-127444788D01*
X108140343Y-127510470D01*
X108138155Y-127519042D01*
X108134943Y-127529980D01*
X108119225Y-127583511D01*
X108109660Y-127650032D01*
X108108089Y-127658739D01*
X108093804Y-127724410D01*
X108089008Y-127791444D01*
X108088062Y-127800239D01*
X108078500Y-127866754D01*
X108078500Y-139715610D01*
X108088062Y-139782123D01*
X108089008Y-139790919D01*
X108093804Y-139857958D01*
X108108089Y-139923625D01*
X108109661Y-139932335D01*
X108119225Y-139998855D01*
X108138154Y-140063321D01*
X108140343Y-140071896D01*
X108154630Y-140137574D01*
X108178118Y-140200547D01*
X108180909Y-140208934D01*
X108199844Y-140273417D01*
X108219178Y-140315753D01*
X108227760Y-140334546D01*
X108231145Y-140342719D01*
X108254632Y-140405688D01*
X108286840Y-140464673D01*
X108290801Y-140472587D01*
X108318717Y-140533714D01*
X108355054Y-140590256D01*
X108359570Y-140597868D01*
X108391774Y-140656846D01*
X108432039Y-140710632D01*
X108437084Y-140717896D01*
X108473426Y-140774446D01*
X108480049Y-140782089D01*
X108517434Y-140825234D01*
X108522987Y-140832125D01*
X108563262Y-140885925D01*
X108613912Y-140936575D01*
X110370780Y-142693445D01*
X110370806Y-142693469D01*
X110418072Y-142740736D01*
X110471870Y-142781008D01*
X110478763Y-142786563D01*
X110529554Y-142830574D01*
X110586122Y-142866928D01*
X110593341Y-142871941D01*
X110647156Y-142912226D01*
X110691057Y-142936198D01*
X110706142Y-142944435D01*
X110713738Y-142948941D01*
X110770285Y-142985282D01*
X110819354Y-143007690D01*
X110831417Y-143013200D01*
X110839316Y-143017153D01*
X110898310Y-143049367D01*
X110898313Y-143049368D01*
X110961279Y-143072854D01*
X110969453Y-143076239D01*
X111030583Y-143104156D01*
X111095076Y-143123092D01*
X111103434Y-143125874D01*
X111166425Y-143149369D01*
X111232119Y-143163659D01*
X111240640Y-143165834D01*
X111305149Y-143184776D01*
X111305152Y-143184776D01*
X111305154Y-143184777D01*
X111337378Y-143189409D01*
X111371670Y-143194339D01*
X111380352Y-143195905D01*
X111446043Y-143210196D01*
X111446048Y-143210197D01*
X111488801Y-143213253D01*
X111513072Y-143214989D01*
X111521850Y-143215932D01*
X111588392Y-143225500D01*
X111660023Y-143225500D01*
X111874550Y-143225500D01*
X123292010Y-143225500D01*
X123351434Y-143240666D01*
X123367368Y-143249367D01*
X123367371Y-143249368D01*
X123395390Y-143259819D01*
X123450252Y-143300281D01*
X123475436Y-143363627D01*
X123463332Y-143430712D01*
X123417598Y-143481262D01*
X123352055Y-143500000D01*
X106724000Y-143500000D01*
X106662000Y-143483387D01*
X106616613Y-143438000D01*
X106600000Y-143376000D01*
X106600000Y-46474000D01*
X108117000Y-46474000D01*
X108117000Y-48021824D01*
X108123402Y-48081375D01*
X108173647Y-48216089D01*
X108259811Y-48331188D01*
X108374910Y-48417352D01*
X108509624Y-48467597D01*
X108569176Y-48474000D01*
X110117000Y-48474000D01*
X110117000Y-46474000D01*
X108117000Y-46474000D01*
X106600000Y-46474000D01*
X106600000Y-33024000D01*
X106616613Y-32962000D01*
X106662000Y-32916613D01*
X106724000Y-32900000D01*
X115639825Y-32900000D01*
X115703858Y-32917813D01*
G37*
G04 #@! TD.AperFunction*
G04 #@! TA.AperFunction,Conductor*
G36*
X141432818Y-114395594D02*
G01*
X141482181Y-114425844D01*
X147773993Y-120717656D01*
X147783259Y-120728024D01*
X147805304Y-120755667D01*
X147855206Y-120799266D01*
X147861301Y-120804964D01*
X147868282Y-120811945D01*
X147899610Y-120838100D01*
X147901630Y-120839824D01*
X147974815Y-120903765D01*
X147978571Y-120906009D01*
X147994435Y-120917266D01*
X147997789Y-120920066D01*
X147997790Y-120920067D01*
X147997792Y-120920068D01*
X148036247Y-120941888D01*
X148082261Y-120967997D01*
X148084665Y-120969397D01*
X148168047Y-121019215D01*
X148168050Y-121019216D01*
X148172134Y-121020749D01*
X148189764Y-121028996D01*
X148193563Y-121031152D01*
X148193566Y-121031153D01*
X148285290Y-121063248D01*
X148287814Y-121064164D01*
X148378787Y-121098307D01*
X148383085Y-121099086D01*
X148401901Y-121104053D01*
X148406029Y-121105498D01*
X148502058Y-121120707D01*
X148504639Y-121121145D01*
X148600264Y-121138500D01*
X148604641Y-121138500D01*
X148624037Y-121140026D01*
X148628351Y-121140710D01*
X148725452Y-121138530D01*
X148728233Y-121138500D01*
X150336127Y-121138500D01*
X150814664Y-121138500D01*
X150862117Y-121147939D01*
X150902345Y-121174819D01*
X151453345Y-121725819D01*
X151483595Y-121775182D01*
X151488137Y-121832898D01*
X151465982Y-121886385D01*
X151421959Y-121923985D01*
X151365664Y-121937500D01*
X150336130Y-121937500D01*
X150276515Y-121943909D01*
X150141669Y-121994204D01*
X150026454Y-122080454D01*
X149940204Y-122195668D01*
X149889909Y-122330516D01*
X149883500Y-122390131D01*
X149883500Y-123749316D01*
X149874792Y-123794965D01*
X149849890Y-123834202D01*
X149800096Y-123887225D01*
X149797391Y-123890017D01*
X149777874Y-123909534D01*
X149775415Y-123912705D01*
X149767842Y-123921572D01*
X149737935Y-123953420D01*
X149728285Y-123970974D01*
X149717609Y-123987228D01*
X149705326Y-124003063D01*
X149687975Y-124043158D01*
X149682838Y-124053644D01*
X149661802Y-124091907D01*
X149656821Y-124111309D01*
X149650520Y-124129711D01*
X149642561Y-124148102D01*
X149635728Y-124191242D01*
X149633360Y-124202674D01*
X149622500Y-124244978D01*
X149622500Y-124265016D01*
X149620973Y-124284413D01*
X149617840Y-124304196D01*
X149619045Y-124316946D01*
X149621950Y-124347675D01*
X149622500Y-124359344D01*
X149622500Y-130480256D01*
X149620235Y-130500762D01*
X149622439Y-130570873D01*
X149622500Y-130574768D01*
X149622500Y-130602349D01*
X149623003Y-130606334D01*
X149623918Y-130617967D01*
X149625290Y-130661626D01*
X149630879Y-130680860D01*
X149634825Y-130699916D01*
X149637335Y-130719792D01*
X149653414Y-130760404D01*
X149657197Y-130771451D01*
X149669382Y-130813391D01*
X149679580Y-130830635D01*
X149688137Y-130848101D01*
X149700806Y-130880096D01*
X149711805Y-130903150D01*
X149713470Y-130924218D01*
X149715178Y-130924039D01*
X149716540Y-130936999D01*
X149716540Y-130937000D01*
X149718509Y-130955736D01*
X149736326Y-131125257D01*
X149794820Y-131305284D01*
X149889466Y-131469216D01*
X150016129Y-131609889D01*
X150169267Y-131721150D01*
X150241278Y-131753211D01*
X150308968Y-131783349D01*
X150355912Y-131819861D01*
X150380457Y-131874032D01*
X150376955Y-131933400D01*
X150346214Y-131984310D01*
X149669343Y-132661181D01*
X149658980Y-132670443D01*
X149631335Y-132692491D01*
X149587735Y-132742392D01*
X149582050Y-132748473D01*
X149575059Y-132755464D01*
X149548928Y-132786764D01*
X149547124Y-132788876D01*
X149483235Y-132862003D01*
X149480986Y-132865767D01*
X149469739Y-132881617D01*
X149466932Y-132884979D01*
X149418978Y-132969490D01*
X149417604Y-132971849D01*
X149406679Y-132990137D01*
X149367782Y-133055241D01*
X149366246Y-133059335D01*
X149358009Y-133076944D01*
X149355847Y-133080753D01*
X149323762Y-133172444D01*
X149322814Y-133175057D01*
X149288691Y-133265978D01*
X149287910Y-133270282D01*
X149282950Y-133289077D01*
X149281501Y-133293217D01*
X149266304Y-133389166D01*
X149265838Y-133391907D01*
X149248500Y-133487450D01*
X149248500Y-133491830D01*
X149246973Y-133511229D01*
X149246290Y-133515539D01*
X149248469Y-133612640D01*
X149248500Y-133615422D01*
X149248500Y-137809109D01*
X149241417Y-137850418D01*
X149167925Y-138058418D01*
X149128500Y-138288351D01*
X149128500Y-138913220D01*
X149143329Y-139087451D01*
X149190667Y-139269255D01*
X149192155Y-139325337D01*
X149168776Y-139376334D01*
X149125315Y-139411809D01*
X149070668Y-139424500D01*
X147146714Y-139424500D01*
X147085094Y-139408106D01*
X147039768Y-139363258D01*
X147022721Y-139301816D01*
X147038460Y-139240026D01*
X147048896Y-139221344D01*
X147126588Y-139001455D01*
X147138840Y-138930000D01*
X145420000Y-138930000D01*
X145358000Y-138913387D01*
X145312613Y-138868000D01*
X145296000Y-138806000D01*
X145296000Y-136929447D01*
X145176994Y-136977267D01*
X144978405Y-137099543D01*
X144803342Y-137253618D01*
X144656839Y-137435057D01*
X144634209Y-137475567D01*
X144590969Y-137520681D01*
X144531218Y-137538979D01*
X144470131Y-137525814D01*
X144423221Y-137484528D01*
X144326153Y-137340912D01*
X144164727Y-137172483D01*
X143977161Y-137033760D01*
X143768847Y-136928730D01*
X143757712Y-136925320D01*
X146296000Y-136925320D01*
X146296000Y-137930000D01*
X147140075Y-137930000D01*
X147092412Y-137746946D01*
X146996353Y-137534442D01*
X146865763Y-137341227D01*
X146704396Y-137172860D01*
X146516898Y-137034187D01*
X146308660Y-136929196D01*
X146296000Y-136925320D01*
X143757712Y-136925320D01*
X143545780Y-136860417D01*
X143314376Y-136830784D01*
X143314372Y-136830784D01*
X143081295Y-136840685D01*
X142853232Y-136889836D01*
X142636768Y-136976819D01*
X142438107Y-137099139D01*
X142262980Y-137253270D01*
X142116423Y-137434777D01*
X142093895Y-137475103D01*
X142050655Y-137520217D01*
X141990904Y-137538515D01*
X141929816Y-137525350D01*
X141882907Y-137484064D01*
X141878952Y-137478213D01*
X141786153Y-137340912D01*
X141624728Y-137172484D01*
X141437161Y-137033760D01*
X141437160Y-137033759D01*
X141437158Y-137033758D01*
X141409674Y-137019901D01*
X141359910Y-136974193D01*
X141341500Y-136909179D01*
X141341500Y-129850452D01*
X141350939Y-129802999D01*
X141377819Y-129762771D01*
X141733348Y-129407242D01*
X142927353Y-128213235D01*
X142982939Y-128181143D01*
X143047126Y-128181143D01*
X143147592Y-128208063D01*
X143383000Y-128228659D01*
X143618408Y-128208063D01*
X143846663Y-128146903D01*
X144060830Y-128047035D01*
X144254401Y-127911495D01*
X144421495Y-127744401D01*
X144557035Y-127550830D01*
X144656903Y-127336663D01*
X144718063Y-127108408D01*
X144738659Y-126873000D01*
X144718063Y-126637592D01*
X144656903Y-126409337D01*
X144557035Y-126195171D01*
X144421495Y-126001599D01*
X144254401Y-125834505D01*
X144060830Y-125698965D01*
X143993405Y-125667524D01*
X143950819Y-125634846D01*
X143926034Y-125587232D01*
X143925847Y-125582954D01*
X142869819Y-124526926D01*
X142842939Y-124486698D01*
X142833500Y-124439245D01*
X142833500Y-124333000D01*
X144090107Y-124333000D01*
X144623727Y-124866621D01*
X144656431Y-124796490D01*
X144717569Y-124568318D01*
X144738157Y-124332999D01*
X144717569Y-124097681D01*
X144656430Y-123869507D01*
X144623728Y-123799377D01*
X144090107Y-124333000D01*
X142833500Y-124333000D01*
X142833500Y-124226755D01*
X142842939Y-124179302D01*
X142869819Y-124139074D01*
X143383000Y-123625893D01*
X143916621Y-123092270D01*
X143846494Y-123059570D01*
X143618318Y-122998430D01*
X143383000Y-122977842D01*
X143147681Y-122998430D01*
X142989594Y-123040790D01*
X142933309Y-123042632D01*
X142882014Y-123019391D01*
X142846288Y-122975859D01*
X142833500Y-122921015D01*
X142833500Y-119176744D01*
X142835764Y-119156237D01*
X142833561Y-119086127D01*
X142833500Y-119082232D01*
X142833500Y-119054653D01*
X142832997Y-119050672D01*
X142832080Y-119039019D01*
X142831813Y-119030515D01*
X142830709Y-118995373D01*
X142825120Y-118976140D01*
X142821174Y-118957082D01*
X142818664Y-118937206D01*
X142802588Y-118896604D01*
X142798804Y-118885553D01*
X142792881Y-118865168D01*
X142786618Y-118843610D01*
X142776414Y-118826355D01*
X142767861Y-118808895D01*
X142760486Y-118790269D01*
X142760486Y-118790268D01*
X142734808Y-118754925D01*
X142728401Y-118745171D01*
X142706169Y-118707579D01*
X142692006Y-118693416D01*
X142679367Y-118678617D01*
X142667595Y-118662413D01*
X142633941Y-118634573D01*
X142625299Y-118626709D01*
X141039819Y-117041228D01*
X141012939Y-117001000D01*
X141003500Y-116953547D01*
X141003500Y-115970865D01*
X141012207Y-115925218D01*
X141037107Y-115885982D01*
X141063685Y-115857679D01*
X141092934Y-115826531D01*
X141095582Y-115823799D01*
X141115120Y-115804263D01*
X141117581Y-115801090D01*
X141125156Y-115792219D01*
X141155062Y-115760374D01*
X141164712Y-115742819D01*
X141175400Y-115726549D01*
X141187671Y-115710730D01*
X141187673Y-115710728D01*
X141205026Y-115670624D01*
X141210157Y-115660154D01*
X141231197Y-115621884D01*
X141236175Y-115602491D01*
X141242481Y-115584074D01*
X141244018Y-115580520D01*
X141250438Y-115565688D01*
X141257272Y-115522537D01*
X141259635Y-115511123D01*
X141270500Y-115468811D01*
X141270500Y-115448776D01*
X141272027Y-115429377D01*
X141273591Y-115419500D01*
X141275160Y-115409596D01*
X141271050Y-115366117D01*
X141270500Y-115354448D01*
X141270500Y-114513525D01*
X141284015Y-114457230D01*
X141321615Y-114413207D01*
X141375102Y-114391052D01*
X141432818Y-114395594D01*
G37*
G04 #@! TD.AperFunction*
G04 #@! TA.AperFunction,Conductor*
G36*
X116886045Y-128248614D02*
G01*
X116925238Y-128260246D01*
X116958523Y-128283997D01*
X123108182Y-134433656D01*
X123117448Y-134444024D01*
X123139493Y-134471667D01*
X123189394Y-134515265D01*
X123195494Y-134520968D01*
X123202467Y-134527942D01*
X123233740Y-134554051D01*
X123235853Y-134555856D01*
X123291993Y-134604903D01*
X123309004Y-134619765D01*
X123312760Y-134622009D01*
X123328624Y-134633266D01*
X123331978Y-134636066D01*
X123331979Y-134636067D01*
X123331981Y-134636068D01*
X123363434Y-134653915D01*
X123416450Y-134683997D01*
X123418854Y-134685397D01*
X123502236Y-134735215D01*
X123502239Y-134735216D01*
X123506323Y-134736749D01*
X123523953Y-134744996D01*
X123527753Y-134747152D01*
X123527755Y-134747153D01*
X123619468Y-134779245D01*
X123621998Y-134780162D01*
X123712976Y-134814307D01*
X123716972Y-134815032D01*
X123717269Y-134815086D01*
X123736088Y-134820053D01*
X123740217Y-134821498D01*
X123836251Y-134836707D01*
X123838847Y-134837149D01*
X123896735Y-134847655D01*
X123934452Y-134854500D01*
X123934453Y-134854500D01*
X123938830Y-134854500D01*
X123958226Y-134856026D01*
X123962540Y-134856710D01*
X124057299Y-134854583D01*
X124059622Y-134854531D01*
X124062404Y-134854500D01*
X132390153Y-134854500D01*
X132390155Y-134854500D01*
X132558188Y-134839377D01*
X132775170Y-134779493D01*
X132977973Y-134681829D01*
X133160078Y-134549522D01*
X133315632Y-134386825D01*
X133439635Y-134198968D01*
X133522315Y-134005530D01*
X133532490Y-133981725D01*
X133533636Y-133982214D01*
X133554510Y-133940864D01*
X133603197Y-133906318D01*
X133662383Y-133898526D01*
X133718351Y-133919292D01*
X133758130Y-133963804D01*
X133772500Y-134021746D01*
X133772500Y-136811189D01*
X133759223Y-136867014D01*
X133722235Y-136910885D01*
X133669456Y-136933405D01*
X133612190Y-136929754D01*
X133608848Y-136928730D01*
X133608847Y-136928730D01*
X133385780Y-136860417D01*
X133154376Y-136830784D01*
X133154372Y-136830784D01*
X132921295Y-136840685D01*
X132693232Y-136889836D01*
X132476768Y-136976819D01*
X132278107Y-137099139D01*
X132102980Y-137253270D01*
X131956423Y-137434777D01*
X131933895Y-137475103D01*
X131890655Y-137520217D01*
X131830904Y-137538515D01*
X131769816Y-137525350D01*
X131722907Y-137484064D01*
X131718952Y-137478213D01*
X131626153Y-137340912D01*
X131464728Y-137172484D01*
X131391120Y-137118044D01*
X131277161Y-137033760D01*
X131068847Y-136928730D01*
X130845780Y-136860417D01*
X130614376Y-136830784D01*
X130614372Y-136830784D01*
X130381295Y-136840685D01*
X130153232Y-136889836D01*
X129936768Y-136976819D01*
X129738107Y-137099139D01*
X129562980Y-137253270D01*
X129416423Y-137434776D01*
X129393622Y-137475592D01*
X129350382Y-137520706D01*
X129290631Y-137539004D01*
X129229543Y-137525839D01*
X129182634Y-137484553D01*
X129085763Y-137341227D01*
X128924396Y-137172860D01*
X128736898Y-137034187D01*
X128528660Y-136929196D01*
X128516000Y-136925320D01*
X128516000Y-138806000D01*
X128499387Y-138868000D01*
X128454000Y-138913387D01*
X128392000Y-138930000D01*
X127640000Y-138930000D01*
X127578000Y-138913387D01*
X127532613Y-138868000D01*
X127516000Y-138806000D01*
X127516000Y-136929447D01*
X127396994Y-136977267D01*
X127198405Y-137099543D01*
X127023343Y-137253617D01*
X126991273Y-137293334D01*
X126938000Y-137331664D01*
X126872626Y-137337435D01*
X126813462Y-137309030D01*
X126791522Y-137276088D01*
X126788422Y-137278001D01*
X126773167Y-137253269D01*
X126692509Y-137122500D01*
X126688711Y-137116342D01*
X126564657Y-136992288D01*
X126415334Y-136900186D01*
X126248797Y-136845000D01*
X126146009Y-136834500D01*
X124805991Y-136834500D01*
X124703203Y-136845000D01*
X124536665Y-136900186D01*
X124387342Y-136992288D01*
X124263288Y-137116342D01*
X124211442Y-137200400D01*
X124178833Y-137253269D01*
X124163578Y-137278001D01*
X124160759Y-137276262D01*
X124140400Y-137307511D01*
X124084431Y-137336583D01*
X124021400Y-137334363D01*
X123967614Y-137301424D01*
X123844396Y-137172860D01*
X123656898Y-137034187D01*
X123448660Y-136929196D01*
X123436000Y-136925320D01*
X123436000Y-138806000D01*
X123419387Y-138868000D01*
X123374000Y-138913387D01*
X123312000Y-138930000D01*
X121591925Y-138930000D01*
X121628184Y-139069255D01*
X121629672Y-139125336D01*
X121606293Y-139176334D01*
X121562832Y-139211809D01*
X121508185Y-139224500D01*
X119223000Y-139224500D01*
X119161000Y-139207887D01*
X119115613Y-139162500D01*
X119099000Y-139100500D01*
X119099000Y-138783000D01*
X117353000Y-138783000D01*
X117291000Y-138766387D01*
X117245613Y-138721000D01*
X117229000Y-138659000D01*
X117229000Y-137930000D01*
X121593159Y-137930000D01*
X122436000Y-137930000D01*
X122436000Y-136929447D01*
X122316994Y-136977267D01*
X122118405Y-137099543D01*
X121943342Y-137253618D01*
X121796839Y-137435057D01*
X121683103Y-137638655D01*
X121605411Y-137858544D01*
X121593159Y-137930000D01*
X117229000Y-137930000D01*
X117229000Y-136688001D01*
X117059021Y-136688001D01*
X116956304Y-136698493D01*
X116789877Y-136753642D01*
X116640654Y-136845683D01*
X116516683Y-136969654D01*
X116417034Y-137131213D01*
X116414138Y-137129426D01*
X116393966Y-137160385D01*
X116337997Y-137189455D01*
X116274967Y-137187233D01*
X116221183Y-137154295D01*
X116168320Y-137099139D01*
X116097728Y-137025484D01*
X116090179Y-137019901D01*
X115910161Y-136886760D01*
X115701847Y-136781730D01*
X115478780Y-136713417D01*
X115456009Y-136710501D01*
X115280299Y-136688000D01*
X118229000Y-136688000D01*
X118229000Y-137783000D01*
X119098999Y-137783000D01*
X119098999Y-137388021D01*
X119088506Y-137285304D01*
X119033357Y-137118877D01*
X118941316Y-136969654D01*
X118817345Y-136845683D01*
X118668122Y-136753642D01*
X118501696Y-136698493D01*
X118398979Y-136688000D01*
X118229000Y-136688000D01*
X115280299Y-136688000D01*
X115247376Y-136683784D01*
X115247372Y-136683784D01*
X115014295Y-136693685D01*
X114786232Y-136742836D01*
X114569768Y-136829819D01*
X114371107Y-136952139D01*
X114195982Y-137106268D01*
X114119976Y-137200400D01*
X114071681Y-137236757D01*
X114011935Y-137245960D01*
X113954938Y-137225821D01*
X113914235Y-137181127D01*
X113899500Y-137122500D01*
X113899500Y-134935336D01*
X113908939Y-134887883D01*
X113935819Y-134847655D01*
X114460751Y-134322723D01*
X116272667Y-132510805D01*
X116283016Y-132501557D01*
X116310666Y-132479508D01*
X116354268Y-132429600D01*
X116359959Y-132423514D01*
X116366945Y-132416529D01*
X116393090Y-132385210D01*
X116394784Y-132383225D01*
X116458765Y-132309996D01*
X116461008Y-132306240D01*
X116472270Y-132290370D01*
X116475069Y-132287018D01*
X116523037Y-132202476D01*
X116524369Y-132200190D01*
X116574215Y-132116764D01*
X116575749Y-132112674D01*
X116583997Y-132095044D01*
X116586154Y-132091245D01*
X116618259Y-131999489D01*
X116619149Y-131997034D01*
X116653307Y-131906024D01*
X116654087Y-131901724D01*
X116659051Y-131882914D01*
X116660498Y-131878782D01*
X116675712Y-131782718D01*
X116676143Y-131780185D01*
X116693500Y-131684547D01*
X116693500Y-131680175D01*
X116695027Y-131660775D01*
X116695711Y-131656459D01*
X116693531Y-131559333D01*
X116693500Y-131556551D01*
X116693500Y-128365092D01*
X116712741Y-128298748D01*
X116764493Y-128252993D01*
X116832690Y-128242026D01*
X116886045Y-128248614D01*
G37*
G04 #@! TD.AperFunction*
G04 #@! TA.AperFunction,Conductor*
G36*
X154885818Y-127980065D02*
G01*
X154935181Y-128010315D01*
X156112181Y-129187315D01*
X156139061Y-129227543D01*
X156148500Y-129274996D01*
X156148500Y-136914138D01*
X156139061Y-136961591D01*
X156112181Y-137001819D01*
X156079000Y-137035000D01*
X156079000Y-139006000D01*
X156062387Y-139068000D01*
X156017000Y-139113387D01*
X155955000Y-139130000D01*
X155203000Y-139130000D01*
X155141000Y-139113387D01*
X155095613Y-139068000D01*
X155079000Y-139006000D01*
X155079000Y-137035001D01*
X154909021Y-137035001D01*
X154806304Y-137045493D01*
X154639877Y-137100642D01*
X154490654Y-137192683D01*
X154366683Y-137316654D01*
X154267034Y-137478213D01*
X154264138Y-137476426D01*
X154243966Y-137507385D01*
X154187997Y-137536455D01*
X154124967Y-137534233D01*
X154071183Y-137501295D01*
X154061745Y-137491448D01*
X153947728Y-137372484D01*
X153899573Y-137336869D01*
X153760158Y-137233758D01*
X153732674Y-137219901D01*
X153682910Y-137174193D01*
X153664500Y-137109179D01*
X153664500Y-134044244D01*
X153672736Y-133999806D01*
X153696351Y-133961271D01*
X153767533Y-133882216D01*
X153862179Y-133718284D01*
X153917615Y-133547670D01*
X153920674Y-133538256D01*
X153940460Y-133350000D01*
X153920674Y-133161744D01*
X153864915Y-132990137D01*
X153862179Y-132981715D01*
X153767533Y-132817783D01*
X153640870Y-132677110D01*
X153497396Y-132572871D01*
X153462092Y-132533142D01*
X153446663Y-132482282D01*
X153453945Y-132429634D01*
X153482597Y-132384875D01*
X154302672Y-131564801D01*
X154313021Y-131555553D01*
X154340666Y-131533508D01*
X154384261Y-131483608D01*
X154389952Y-131477522D01*
X154396945Y-131470530D01*
X154423158Y-131439130D01*
X154424783Y-131437227D01*
X154488765Y-131363996D01*
X154491008Y-131360240D01*
X154502269Y-131344371D01*
X154505068Y-131341019D01*
X154553008Y-131256529D01*
X154554375Y-131254182D01*
X154604214Y-131170765D01*
X154604215Y-131170764D01*
X154605749Y-131166674D01*
X154613998Y-131149041D01*
X154616153Y-131145245D01*
X154648253Y-131053507D01*
X154649153Y-131051023D01*
X154683307Y-130960024D01*
X154684087Y-130955723D01*
X154689052Y-130936913D01*
X154690498Y-130932783D01*
X154705708Y-130836746D01*
X154706144Y-130834181D01*
X154723500Y-130738547D01*
X154723500Y-130734170D01*
X154725027Y-130714771D01*
X154725710Y-130710460D01*
X154723531Y-130613378D01*
X154723500Y-130610596D01*
X154723500Y-128097996D01*
X154737015Y-128041701D01*
X154774615Y-127997678D01*
X154828102Y-127975523D01*
X154885818Y-127980065D01*
G37*
G04 #@! TD.AperFunction*
G04 #@! TA.AperFunction,Conductor*
G36*
X112715703Y-96156254D02*
G01*
X112824555Y-96250575D01*
X113065287Y-96405284D01*
X113325580Y-96524155D01*
X113600148Y-96604776D01*
X113616324Y-96607101D01*
X113743627Y-96625404D01*
X113789556Y-96641682D01*
X113804254Y-96655000D01*
X115692000Y-96655000D01*
X115754000Y-96671613D01*
X115799387Y-96717000D01*
X115816000Y-96779000D01*
X115816000Y-97531000D01*
X115799387Y-97593000D01*
X115754000Y-97638387D01*
X115692000Y-97655000D01*
X113815447Y-97655000D01*
X113863267Y-97774005D01*
X113985543Y-97972594D01*
X114139618Y-98147657D01*
X114321057Y-98294160D01*
X114361565Y-98316789D01*
X114406680Y-98360029D01*
X114424979Y-98419780D01*
X114411814Y-98480868D01*
X114370529Y-98527778D01*
X114226910Y-98624848D01*
X114058483Y-98786272D01*
X113919760Y-98973838D01*
X113814730Y-99182152D01*
X113803483Y-99218876D01*
X113746417Y-99405220D01*
X113726725Y-99559000D01*
X113716784Y-99636627D01*
X113726685Y-99869704D01*
X113775836Y-100097767D01*
X113862373Y-100313121D01*
X113862821Y-100314235D01*
X113951003Y-100457452D01*
X113985139Y-100512892D01*
X114139270Y-100688019D01*
X114320776Y-100834576D01*
X114361101Y-100857103D01*
X114406217Y-100900343D01*
X114424515Y-100960094D01*
X114411350Y-101021182D01*
X114370064Y-101068092D01*
X114226912Y-101164846D01*
X114058483Y-101326272D01*
X113919760Y-101513838D01*
X113814730Y-101722152D01*
X113766936Y-101878216D01*
X113746417Y-101945220D01*
X113717728Y-102169257D01*
X113716784Y-102176627D01*
X113726685Y-102409704D01*
X113775836Y-102637767D01*
X113852919Y-102829594D01*
X113862821Y-102854235D01*
X113985138Y-103052891D01*
X114057223Y-103134796D01*
X114139270Y-103228019D01*
X114178768Y-103259912D01*
X114217095Y-103313174D01*
X114222875Y-103378539D01*
X114194487Y-103437700D01*
X114162007Y-103459345D01*
X114164001Y-103462578D01*
X114002342Y-103562288D01*
X113878288Y-103686342D01*
X113786186Y-103835665D01*
X113731000Y-104002202D01*
X113720500Y-104104990D01*
X113720500Y-105445008D01*
X113731000Y-105547796D01*
X113786186Y-105714334D01*
X113878286Y-105863654D01*
X113878287Y-105863655D01*
X113878288Y-105863656D01*
X113971951Y-105957319D01*
X114004044Y-106012905D01*
X114004044Y-106077092D01*
X113971951Y-106132680D01*
X113878287Y-106226344D01*
X113786186Y-106375665D01*
X113731000Y-106542202D01*
X113720500Y-106644990D01*
X113720500Y-107985008D01*
X113731000Y-108087796D01*
X113786186Y-108254334D01*
X113878288Y-108403657D01*
X114002342Y-108527711D01*
X114164001Y-108627422D01*
X114162186Y-108630364D01*
X114192952Y-108650396D01*
X114222041Y-108706369D01*
X114219829Y-108769410D01*
X114186888Y-108823206D01*
X114058483Y-108946271D01*
X113919760Y-109133838D01*
X113814730Y-109342152D01*
X113746417Y-109565219D01*
X113744063Y-109583599D01*
X113736008Y-109646508D01*
X113716784Y-109796627D01*
X113726685Y-110029704D01*
X113775836Y-110257767D01*
X113862819Y-110474231D01*
X113862821Y-110474235D01*
X113985138Y-110672891D01*
X114008640Y-110699595D01*
X114139270Y-110848019D01*
X114320776Y-110994576D01*
X114361101Y-111017103D01*
X114406217Y-111060343D01*
X114424515Y-111120094D01*
X114411350Y-111181182D01*
X114370064Y-111228092D01*
X114226912Y-111324846D01*
X114058483Y-111486272D01*
X113919760Y-111673838D01*
X113814730Y-111882152D01*
X113778929Y-111999054D01*
X113746417Y-112105220D01*
X113719695Y-112313898D01*
X113716784Y-112336627D01*
X113726685Y-112569704D01*
X113775836Y-112797767D01*
X113862819Y-113014231D01*
X113862821Y-113014235D01*
X113985138Y-113212891D01*
X114057223Y-113294796D01*
X114139270Y-113388019D01*
X114320776Y-113534576D01*
X114361590Y-113557376D01*
X114406706Y-113600616D01*
X114425004Y-113660367D01*
X114411839Y-113721455D01*
X114370553Y-113768365D01*
X114227227Y-113865236D01*
X114058860Y-114026603D01*
X113920187Y-114214101D01*
X113815196Y-114422339D01*
X113811320Y-114435000D01*
X116816552Y-114435000D01*
X116768732Y-114315994D01*
X116646456Y-114117405D01*
X116492381Y-113942342D01*
X116310940Y-113795837D01*
X116270433Y-113773209D01*
X116225318Y-113729970D01*
X116207020Y-113670218D01*
X116220185Y-113609131D01*
X116261469Y-113562222D01*
X116405088Y-113465153D01*
X116573516Y-113303728D01*
X116712240Y-113116161D01*
X116817270Y-112907847D01*
X116885583Y-112684780D01*
X116915216Y-112453376D01*
X116905314Y-112220293D01*
X116856164Y-111992235D01*
X116849594Y-111975886D01*
X116793627Y-111836606D01*
X116769179Y-111775765D01*
X116646862Y-111577109D01*
X116492731Y-111401982D01*
X116492729Y-111401980D01*
X116311221Y-111255421D01*
X116270897Y-111232895D01*
X116225782Y-111189655D01*
X116207484Y-111129904D01*
X116220649Y-111068816D01*
X116261933Y-111021909D01*
X116405088Y-110925153D01*
X116573516Y-110763728D01*
X116712240Y-110576161D01*
X116726099Y-110548674D01*
X116771807Y-110498910D01*
X116836821Y-110480500D01*
X117164548Y-110480500D01*
X117212001Y-110489939D01*
X117252229Y-110516819D01*
X121642205Y-114906796D01*
X121673720Y-114960298D01*
X121675346Y-115022371D01*
X121646674Y-115077449D01*
X121564166Y-115169083D01*
X121469520Y-115333015D01*
X121411026Y-115513042D01*
X121391240Y-115701299D01*
X121411026Y-115889557D01*
X121469520Y-116069584D01*
X121564164Y-116233513D01*
X121564167Y-116233516D01*
X121639352Y-116317017D01*
X121662964Y-116355549D01*
X121671200Y-116399987D01*
X121671200Y-125497129D01*
X121668935Y-125517635D01*
X121671139Y-125587746D01*
X121671200Y-125591641D01*
X121671200Y-125619222D01*
X121671703Y-125623207D01*
X121672618Y-125634840D01*
X121673990Y-125678499D01*
X121679579Y-125697733D01*
X121683525Y-125716789D01*
X121686035Y-125736665D01*
X121702114Y-125777277D01*
X121705897Y-125788324D01*
X121718082Y-125830264D01*
X121728280Y-125847508D01*
X121736836Y-125864973D01*
X121744214Y-125883605D01*
X121744215Y-125883606D01*
X121769880Y-125918932D01*
X121776293Y-125928695D01*
X121798526Y-125966289D01*
X121798529Y-125966292D01*
X121798530Y-125966293D01*
X121812695Y-125980458D01*
X121825327Y-125995248D01*
X121837106Y-126011460D01*
X121870758Y-126039299D01*
X121879399Y-126047162D01*
X127534023Y-131701787D01*
X127546923Y-131717888D01*
X127598050Y-131765900D01*
X127600847Y-131768611D01*
X127620356Y-131788120D01*
X127623538Y-131790588D01*
X127632398Y-131798155D01*
X127664245Y-131828062D01*
X127681799Y-131837712D01*
X127698063Y-131848396D01*
X127709799Y-131857499D01*
X127713891Y-131860673D01*
X127738736Y-131871424D01*
X127753979Y-131878021D01*
X127764458Y-131883154D01*
X127802735Y-131904197D01*
X127822133Y-131909177D01*
X127840535Y-131915477D01*
X127858931Y-131923438D01*
X127902088Y-131930273D01*
X127913491Y-131932634D01*
X127955808Y-131943500D01*
X127975843Y-131943500D01*
X127995240Y-131945026D01*
X128015023Y-131948160D01*
X128058501Y-131944050D01*
X128070171Y-131943500D01*
X132519253Y-131943500D01*
X132569688Y-131954220D01*
X132611401Y-131984526D01*
X132617129Y-131990888D01*
X132770270Y-132102151D01*
X132770271Y-132102151D01*
X132770272Y-132102152D01*
X132943197Y-132179144D01*
X133128352Y-132218500D01*
X133128354Y-132218500D01*
X133317646Y-132218500D01*
X133317648Y-132218500D01*
X133447768Y-132190842D01*
X133502803Y-132179144D01*
X133550331Y-132157982D01*
X133598064Y-132136731D01*
X133658228Y-132126392D01*
X133716035Y-132146015D01*
X133757473Y-132190842D01*
X133772500Y-132250010D01*
X133772500Y-133201640D01*
X133753197Y-133268082D01*
X133701297Y-133313838D01*
X133632959Y-133324662D01*
X133569460Y-133297184D01*
X133530569Y-133239959D01*
X133488517Y-133110536D01*
X133381852Y-132912319D01*
X133251189Y-132748473D01*
X133241509Y-132736335D01*
X133155489Y-132661181D01*
X133071996Y-132588235D01*
X133034528Y-132565849D01*
X132878762Y-132472783D01*
X132668025Y-132393693D01*
X132446547Y-132353500D01*
X131303547Y-132353500D01*
X124616337Y-132353500D01*
X124568884Y-132344061D01*
X124528656Y-132317181D01*
X119299155Y-127087680D01*
X119267061Y-127032093D01*
X119267061Y-126967906D01*
X119299155Y-126912318D01*
X119435380Y-126776093D01*
X119574667Y-126636805D01*
X119585016Y-126627557D01*
X119612666Y-126605508D01*
X119656268Y-126555600D01*
X119661959Y-126549514D01*
X119668945Y-126542529D01*
X119695132Y-126511160D01*
X119696781Y-126509229D01*
X119760765Y-126435996D01*
X119763002Y-126432251D01*
X119774269Y-126416370D01*
X119777068Y-126413019D01*
X119825008Y-126328529D01*
X119826375Y-126326182D01*
X119838153Y-126306467D01*
X119876215Y-126242764D01*
X119877749Y-126238674D01*
X119885998Y-126221041D01*
X119888153Y-126217245D01*
X119920253Y-126125507D01*
X119921153Y-126123023D01*
X119955307Y-126032024D01*
X119956087Y-126027723D01*
X119961052Y-126008913D01*
X119962498Y-126004783D01*
X119977708Y-125908746D01*
X119978144Y-125906181D01*
X119995500Y-125810547D01*
X119995500Y-125806170D01*
X119997027Y-125786771D01*
X119997670Y-125782710D01*
X119997710Y-125782460D01*
X119995531Y-125685378D01*
X119995500Y-125682596D01*
X119995500Y-125426186D01*
X119996280Y-125412301D01*
X120000238Y-125377172D01*
X119995781Y-125311063D01*
X119995500Y-125302722D01*
X119995500Y-125292848D01*
X119995500Y-125292845D01*
X119991844Y-125252224D01*
X119991630Y-125249498D01*
X119990443Y-125231890D01*
X119985097Y-125152588D01*
X119984028Y-125148346D01*
X119980768Y-125129155D01*
X119980377Y-125124814D01*
X119980377Y-125124812D01*
X119954513Y-125031100D01*
X119953855Y-125028609D01*
X119930096Y-124934317D01*
X119928285Y-124930331D01*
X119921656Y-124912046D01*
X119920493Y-124907830D01*
X119878332Y-124820283D01*
X119877181Y-124817823D01*
X119837007Y-124729375D01*
X119834519Y-124725784D01*
X119824723Y-124708961D01*
X119822829Y-124705027D01*
X119765706Y-124626404D01*
X119764128Y-124624180D01*
X119759932Y-124618124D01*
X119708820Y-124544346D01*
X119705733Y-124541259D01*
X119693091Y-124526458D01*
X119690522Y-124522922D01*
X119620299Y-124455782D01*
X119618310Y-124453836D01*
X119485573Y-124321099D01*
X119455142Y-124271174D01*
X119450971Y-124212855D01*
X119473987Y-124159107D01*
X119553352Y-124053088D01*
X119603597Y-123918375D01*
X119610000Y-123858824D01*
X119610000Y-123561000D01*
X118540990Y-123561000D01*
X118497419Y-123553093D01*
X118491026Y-123550693D01*
X118488722Y-123550275D01*
X118486721Y-123549911D01*
X118467917Y-123544948D01*
X118463782Y-123543501D01*
X118367847Y-123528306D01*
X118365106Y-123527840D01*
X118269550Y-123510500D01*
X118269547Y-123510500D01*
X118265170Y-123510500D01*
X118245773Y-123508973D01*
X118241460Y-123508290D01*
X118144358Y-123510469D01*
X118141578Y-123510500D01*
X117734000Y-123510500D01*
X117672000Y-123493887D01*
X117626613Y-123448500D01*
X117610000Y-123386500D01*
X117610000Y-121811000D01*
X118610000Y-121811000D01*
X118610000Y-122561000D01*
X119610000Y-122561000D01*
X119610000Y-122263176D01*
X119603597Y-122203624D01*
X119553352Y-122068910D01*
X119467188Y-121953811D01*
X119352089Y-121867647D01*
X119217375Y-121817402D01*
X119157824Y-121811000D01*
X118610000Y-121811000D01*
X117610000Y-121811000D01*
X117062176Y-121811000D01*
X117002621Y-121817402D01*
X116967228Y-121830603D01*
X116906166Y-121837147D01*
X116849453Y-121813588D01*
X116810999Y-121765706D01*
X116806291Y-121755342D01*
X116799655Y-121737040D01*
X116798493Y-121732830D01*
X116756346Y-121645311D01*
X116755189Y-121642839D01*
X116732709Y-121593346D01*
X116715008Y-121554375D01*
X116714062Y-121553010D01*
X116712517Y-121550780D01*
X116702724Y-121533962D01*
X116700830Y-121530029D01*
X116700829Y-121530027D01*
X116643704Y-121451402D01*
X116642163Y-121449229D01*
X116586820Y-121369345D01*
X116583727Y-121366252D01*
X116571088Y-121351453D01*
X116568522Y-121347921D01*
X116498321Y-121280802D01*
X116496332Y-121278857D01*
X115776344Y-120558869D01*
X116609500Y-120558869D01*
X116615224Y-120612112D01*
X116615909Y-120618483D01*
X116666204Y-120753331D01*
X116752454Y-120868546D01*
X116867669Y-120954796D01*
X117002517Y-121005091D01*
X117062127Y-121011500D01*
X119157872Y-121011499D01*
X119159152Y-121011499D01*
X119197469Y-121017568D01*
X119232036Y-121035180D01*
X119256772Y-121053151D01*
X119429699Y-121130144D01*
X119614854Y-121169500D01*
X119614856Y-121169500D01*
X119804148Y-121169500D01*
X119804150Y-121169500D01*
X119939600Y-121140709D01*
X119989305Y-121130144D01*
X120162232Y-121053151D01*
X120315373Y-120941888D01*
X120442035Y-120801216D01*
X120536681Y-120637284D01*
X120595176Y-120457256D01*
X120614962Y-120269000D01*
X120595176Y-120080744D01*
X120536681Y-119900716D01*
X120536681Y-119900715D01*
X120442037Y-119736786D01*
X120428929Y-119722229D01*
X120366849Y-119653282D01*
X120343238Y-119614751D01*
X120335002Y-119570313D01*
X120335002Y-118724834D01*
X120343238Y-118680395D01*
X120364869Y-118645097D01*
X120366531Y-118642217D01*
X120366533Y-118642216D01*
X120461179Y-118478284D01*
X120519674Y-118298256D01*
X120539460Y-118110000D01*
X120519674Y-117921744D01*
X120488632Y-117826208D01*
X120461179Y-117741715D01*
X120366533Y-117577783D01*
X120239870Y-117437110D01*
X120086730Y-117325848D01*
X119913802Y-117248855D01*
X119728648Y-117209500D01*
X119728646Y-117209500D01*
X119539354Y-117209500D01*
X119539352Y-117209500D01*
X119354197Y-117248855D01*
X119181269Y-117325848D01*
X119028129Y-117437110D01*
X118901466Y-117577783D01*
X118806820Y-117741715D01*
X118748326Y-117921742D01*
X118728540Y-118110000D01*
X118748326Y-118298257D01*
X118764548Y-118348182D01*
X118769090Y-118405898D01*
X118746935Y-118459386D01*
X118702912Y-118496985D01*
X118646617Y-118510500D01*
X117062130Y-118510500D01*
X117002515Y-118516909D01*
X116867669Y-118567204D01*
X116752454Y-118653454D01*
X116666204Y-118768668D01*
X116615909Y-118903516D01*
X116609500Y-118963130D01*
X116609500Y-120558869D01*
X115776344Y-120558869D01*
X115637705Y-120420230D01*
X114746817Y-119529343D01*
X114719938Y-119489116D01*
X114710499Y-119441663D01*
X114710499Y-118963130D01*
X114709849Y-118957082D01*
X114704091Y-118903517D01*
X114653796Y-118768669D01*
X114567546Y-118653454D01*
X114452331Y-118567204D01*
X114317483Y-118516909D01*
X114257873Y-118510500D01*
X114257869Y-118510500D01*
X113318173Y-118510500D01*
X113298779Y-118508974D01*
X113294460Y-118508290D01*
X113197336Y-118510469D01*
X113194555Y-118510500D01*
X113188302Y-118510500D01*
X112634499Y-118510500D01*
X112572500Y-118493888D01*
X112527113Y-118448501D01*
X112510500Y-118386501D01*
X112510500Y-115435000D01*
X113815447Y-115435000D01*
X113863267Y-115554005D01*
X113985543Y-115752594D01*
X114139618Y-115927657D01*
X114321057Y-116074160D01*
X114524655Y-116187896D01*
X114744544Y-116265588D01*
X114816000Y-116277840D01*
X114816000Y-115435000D01*
X115816000Y-115435000D01*
X115816000Y-116279075D01*
X115999053Y-116231412D01*
X116211557Y-116135353D01*
X116404772Y-116004763D01*
X116573139Y-115843396D01*
X116711812Y-115655898D01*
X116816803Y-115447660D01*
X116820680Y-115435000D01*
X115816000Y-115435000D01*
X114816000Y-115435000D01*
X113815447Y-115435000D01*
X112510500Y-115435000D01*
X112510500Y-96249967D01*
X112530185Y-96182928D01*
X112582989Y-96137173D01*
X112652147Y-96127229D01*
X112715703Y-96156254D01*
G37*
G04 #@! TD.AperFunction*
G04 #@! TA.AperFunction,Conductor*
G36*
X126391478Y-117897686D02*
G01*
X126441583Y-117928174D01*
X128888877Y-120375468D01*
X128917532Y-120420230D01*
X128924814Y-120472877D01*
X128909386Y-120523737D01*
X128874082Y-120563467D01*
X128807128Y-120612112D01*
X128680466Y-120752783D01*
X128585820Y-120916715D01*
X128527326Y-121096742D01*
X128507540Y-121285000D01*
X128527326Y-121473257D01*
X128585820Y-121653284D01*
X128680464Y-121817213D01*
X128680467Y-121817216D01*
X128755652Y-121900717D01*
X128779264Y-121939249D01*
X128787500Y-121983687D01*
X128787500Y-122949334D01*
X128772214Y-123008977D01*
X128730124Y-123053915D01*
X128671608Y-123073069D01*
X128611093Y-123061715D01*
X128606492Y-123059569D01*
X128378318Y-122998430D01*
X128143000Y-122977842D01*
X127907681Y-122998430D01*
X127679507Y-123059569D01*
X127609377Y-123092270D01*
X128751181Y-124234074D01*
X128778061Y-124274302D01*
X128787500Y-124321755D01*
X128787500Y-124344245D01*
X128778061Y-124391698D01*
X128751181Y-124431926D01*
X127600149Y-125582956D01*
X127599963Y-125587237D01*
X127575178Y-125634848D01*
X127532594Y-125667525D01*
X127465168Y-125698966D01*
X127271598Y-125834505D01*
X127096834Y-126009270D01*
X127094261Y-126006697D01*
X127057290Y-126036773D01*
X126990223Y-126045568D01*
X126928518Y-126017858D01*
X126890539Y-125961890D01*
X126887814Y-125953666D01*
X126814315Y-125834505D01*
X126795711Y-125804342D01*
X126671657Y-125680288D01*
X126546351Y-125603000D01*
X126522334Y-125588186D01*
X126514107Y-125585460D01*
X126458122Y-125547458D01*
X126430422Y-125485720D01*
X126439259Y-125418633D01*
X126469311Y-125381747D01*
X126466730Y-125379166D01*
X126553051Y-125292845D01*
X126641495Y-125204401D01*
X126777035Y-125010830D01*
X126808476Y-124943404D01*
X126841151Y-124900822D01*
X126888763Y-124876036D01*
X126893042Y-124875849D01*
X127435893Y-124333001D01*
X127435893Y-124333000D01*
X126893042Y-123790149D01*
X126888762Y-123789963D01*
X126841150Y-123765177D01*
X126808475Y-123722595D01*
X126777035Y-123655171D01*
X126756609Y-123626000D01*
X126698843Y-123543501D01*
X126641495Y-123461599D01*
X126474401Y-123294505D01*
X126281374Y-123159346D01*
X126242511Y-123115030D01*
X126228500Y-123057773D01*
X126228500Y-118065744D01*
X126230764Y-118045238D01*
X126229963Y-118019751D01*
X126242037Y-117962355D01*
X126279138Y-117916929D01*
X126332966Y-117893635D01*
X126391478Y-117897686D01*
G37*
G04 #@! TD.AperFunction*
G04 #@! TA.AperFunction,Conductor*
G36*
X152805385Y-102447133D02*
G01*
X152842985Y-102491156D01*
X152856500Y-102547451D01*
X152856500Y-103032008D01*
X152867000Y-103134796D01*
X152922186Y-103301334D01*
X153014288Y-103450657D01*
X153138342Y-103574711D01*
X153300001Y-103674422D01*
X153298186Y-103677364D01*
X153328952Y-103697396D01*
X153358041Y-103753369D01*
X153355829Y-103816410D01*
X153322888Y-103870206D01*
X153194483Y-103993271D01*
X153055758Y-104180841D01*
X153041901Y-104208326D01*
X152996193Y-104258090D01*
X152931179Y-104276500D01*
X152736744Y-104276500D01*
X152716236Y-104274235D01*
X152646113Y-104276439D01*
X152642219Y-104276500D01*
X152614650Y-104276500D01*
X152610671Y-104277002D01*
X152599041Y-104277917D01*
X152555372Y-104279289D01*
X152536128Y-104284880D01*
X152517084Y-104288824D01*
X152497208Y-104291335D01*
X152456600Y-104307413D01*
X152445554Y-104311194D01*
X152403610Y-104323382D01*
X152403607Y-104323383D01*
X152386365Y-104333579D01*
X152368904Y-104342133D01*
X152350267Y-104349512D01*
X152314931Y-104375185D01*
X152305174Y-104381595D01*
X152267580Y-104403829D01*
X152253413Y-104417996D01*
X152238624Y-104430626D01*
X152222413Y-104442404D01*
X152194572Y-104476058D01*
X152186711Y-104484697D01*
X150928228Y-105743181D01*
X150888000Y-105770061D01*
X150840547Y-105779500D01*
X150781352Y-105779500D01*
X150596197Y-105818855D01*
X150423269Y-105895848D01*
X150270129Y-106007110D01*
X150143466Y-106147783D01*
X150048820Y-106311715D01*
X149990326Y-106491742D01*
X149970540Y-106680000D01*
X149990326Y-106868257D01*
X150048820Y-107048284D01*
X150143466Y-107212216D01*
X150270129Y-107352889D01*
X150423269Y-107464151D01*
X150596197Y-107541144D01*
X150781352Y-107580500D01*
X150781354Y-107580500D01*
X150970646Y-107580500D01*
X150970648Y-107580500D01*
X151094084Y-107554262D01*
X151155803Y-107541144D01*
X151328730Y-107464151D01*
X151417989Y-107399301D01*
X151481870Y-107352889D01*
X151493050Y-107340473D01*
X151608533Y-107212216D01*
X151703179Y-107048284D01*
X151761674Y-106868256D01*
X151779321Y-106700344D01*
X151790721Y-106659925D01*
X151814958Y-106625630D01*
X152857559Y-105583030D01*
X152904550Y-105553579D01*
X152959682Y-105547557D01*
X153011925Y-105566172D01*
X153050827Y-105605698D01*
X153121138Y-105719891D01*
X153173600Y-105779500D01*
X153275270Y-105895019D01*
X153456776Y-106041576D01*
X153497101Y-106064103D01*
X153542217Y-106107343D01*
X153560515Y-106167094D01*
X153547350Y-106228182D01*
X153506064Y-106275092D01*
X153362912Y-106371846D01*
X153194483Y-106533272D01*
X153055760Y-106720838D01*
X152950730Y-106929152D01*
X152888657Y-107131842D01*
X152882417Y-107152220D01*
X152853761Y-107376001D01*
X152852784Y-107383627D01*
X152862685Y-107616704D01*
X152911836Y-107844767D01*
X152968190Y-107985008D01*
X152998821Y-108061235D01*
X153121138Y-108259891D01*
X153121139Y-108259892D01*
X153275270Y-108435019D01*
X153456776Y-108581576D01*
X153497590Y-108604376D01*
X153542706Y-108647616D01*
X153561004Y-108707367D01*
X153547839Y-108768455D01*
X153506553Y-108815365D01*
X153363227Y-108912236D01*
X153194860Y-109073603D01*
X153056187Y-109261101D01*
X152951196Y-109469339D01*
X152947320Y-109482000D01*
X154828000Y-109482000D01*
X154890000Y-109498613D01*
X154935387Y-109544000D01*
X154952000Y-109606000D01*
X154952000Y-110358000D01*
X154935387Y-110420000D01*
X154890000Y-110465387D01*
X154828000Y-110482000D01*
X152951447Y-110482000D01*
X152999267Y-110601005D01*
X153121543Y-110799594D01*
X153275616Y-110974655D01*
X153315333Y-111006725D01*
X153353659Y-111059987D01*
X153359439Y-111125351D01*
X153331052Y-111184512D01*
X153298090Y-111206480D01*
X153300001Y-111209578D01*
X153138342Y-111309288D01*
X153014288Y-111433342D01*
X152922186Y-111582665D01*
X152867000Y-111749202D01*
X152856500Y-111851990D01*
X152856500Y-113192008D01*
X152867000Y-113294796D01*
X152922186Y-113461334D01*
X153014288Y-113610657D01*
X153138342Y-113734711D01*
X153300001Y-113834422D01*
X153298261Y-113837242D01*
X153329490Y-113857576D01*
X153358578Y-113913548D01*
X153356366Y-113976589D01*
X153323424Y-114030385D01*
X153194860Y-114153603D01*
X153056187Y-114341101D01*
X152951196Y-114549339D01*
X152947320Y-114562000D01*
X154828000Y-114562000D01*
X154890000Y-114578613D01*
X154935387Y-114624000D01*
X154952000Y-114686000D01*
X154952000Y-116406075D01*
X155135053Y-116358412D01*
X155347557Y-116262353D01*
X155540772Y-116131763D01*
X155709139Y-115970396D01*
X155847812Y-115782898D01*
X155889785Y-115699650D01*
X155927303Y-115655390D01*
X155980850Y-115633043D01*
X156038701Y-115637503D01*
X156088189Y-115667794D01*
X156947181Y-116526786D01*
X156974061Y-116567014D01*
X156983500Y-116614467D01*
X156983500Y-118513500D01*
X156966887Y-118575500D01*
X156921500Y-118620887D01*
X156859500Y-118637500D01*
X155236130Y-118637500D01*
X155176515Y-118643909D01*
X155041669Y-118694204D01*
X154926454Y-118780454D01*
X154840204Y-118895668D01*
X154789909Y-119030516D01*
X154783500Y-119090130D01*
X154783500Y-120685869D01*
X154789909Y-120745484D01*
X154792836Y-120753331D01*
X154840204Y-120880331D01*
X154926454Y-120995546D01*
X155041669Y-121081796D01*
X155176517Y-121132091D01*
X155236127Y-121138500D01*
X156859500Y-121138499D01*
X156921500Y-121155112D01*
X156966887Y-121200499D01*
X156983500Y-121262499D01*
X156983500Y-121814000D01*
X156966887Y-121876000D01*
X156921500Y-121921387D01*
X156859500Y-121938000D01*
X156784000Y-121938000D01*
X156784000Y-123564000D01*
X156767387Y-123626000D01*
X156722000Y-123671387D01*
X156660000Y-123688000D01*
X155908000Y-123688000D01*
X155846000Y-123671387D01*
X155800613Y-123626000D01*
X155784000Y-123564000D01*
X155784000Y-121938000D01*
X155236176Y-121938000D01*
X155171489Y-121944954D01*
X155120397Y-121939750D01*
X155075796Y-121914291D01*
X155045337Y-121872947D01*
X155016007Y-121808374D01*
X155013520Y-121804784D01*
X155003720Y-121787954D01*
X155001830Y-121784029D01*
X155001829Y-121784027D01*
X154944713Y-121705414D01*
X154943125Y-121703175D01*
X154887819Y-121623345D01*
X154884734Y-121620260D01*
X154872091Y-121605458D01*
X154869522Y-121601922D01*
X154799299Y-121534782D01*
X154797310Y-121532836D01*
X152920818Y-119656344D01*
X152893938Y-119616116D01*
X152884499Y-119568663D01*
X152884499Y-119090130D01*
X152883650Y-119082232D01*
X152878091Y-119030517D01*
X152827796Y-118895669D01*
X152741546Y-118780454D01*
X152626331Y-118694204D01*
X152491483Y-118643909D01*
X152431873Y-118637500D01*
X152431869Y-118637500D01*
X151492170Y-118637500D01*
X151472773Y-118635973D01*
X151468460Y-118635290D01*
X151371358Y-118637469D01*
X151368578Y-118637500D01*
X149282147Y-118637500D01*
X149234694Y-118628061D01*
X149194466Y-118601181D01*
X146155285Y-115562000D01*
X152951447Y-115562000D01*
X152999267Y-115681005D01*
X153121543Y-115879594D01*
X153275618Y-116054657D01*
X153457057Y-116201160D01*
X153660655Y-116314896D01*
X153880544Y-116392588D01*
X153952000Y-116404840D01*
X153952000Y-115562000D01*
X152951447Y-115562000D01*
X146155285Y-115562000D01*
X145434159Y-114840874D01*
X145402643Y-114787372D01*
X145401018Y-114725298D01*
X145429689Y-114670222D01*
X145512533Y-114578216D01*
X145607179Y-114414284D01*
X145665674Y-114234256D01*
X145685460Y-114046000D01*
X145665674Y-113857744D01*
X145625698Y-113734711D01*
X145607179Y-113677715D01*
X145512535Y-113513786D01*
X145499427Y-113499229D01*
X145437347Y-113430282D01*
X145413736Y-113391751D01*
X145405500Y-113347313D01*
X145405500Y-112012744D01*
X145407764Y-111992237D01*
X145405561Y-111922127D01*
X145405500Y-111918232D01*
X145405500Y-111890653D01*
X145404997Y-111886672D01*
X145404080Y-111875019D01*
X145403421Y-111854044D01*
X145402709Y-111831373D01*
X145397120Y-111812140D01*
X145393174Y-111793082D01*
X145390664Y-111773206D01*
X145374588Y-111732604D01*
X145370804Y-111721553D01*
X145358853Y-111680420D01*
X145358618Y-111679610D01*
X145348414Y-111662355D01*
X145339861Y-111644895D01*
X145334617Y-111631651D01*
X145332486Y-111626268D01*
X145306808Y-111590925D01*
X145300401Y-111581171D01*
X145297998Y-111577107D01*
X145278170Y-111543580D01*
X145264006Y-111529415D01*
X145251367Y-111514617D01*
X145239595Y-111498413D01*
X145205941Y-111470573D01*
X145197299Y-111462709D01*
X144875237Y-111140647D01*
X144843143Y-111085059D01*
X144843143Y-111020872D01*
X144846934Y-111006725D01*
X144870063Y-110920408D01*
X144890659Y-110685000D01*
X144870063Y-110449592D01*
X144843143Y-110349126D01*
X144843143Y-110284939D01*
X144875235Y-110229353D01*
X152644821Y-102459768D01*
X152694182Y-102429520D01*
X152751898Y-102424978D01*
X152805385Y-102447133D01*
G37*
G04 #@! TD.AperFunction*
G04 #@! TA.AperFunction,Conductor*
G36*
X138400221Y-111234241D02*
G01*
X138445492Y-111263082D01*
X139083181Y-111900771D01*
X139110061Y-111940999D01*
X139119500Y-111988452D01*
X139119500Y-112399536D01*
X139105751Y-112456287D01*
X139067553Y-112500453D01*
X139013377Y-112522241D01*
X138955237Y-112516817D01*
X138789493Y-112459916D01*
X138544293Y-112419000D01*
X138295707Y-112419000D01*
X138050506Y-112459916D01*
X137815395Y-112540629D01*
X137772143Y-112564036D01*
X139039425Y-113831318D01*
X139071519Y-113886905D01*
X139071519Y-113951093D01*
X139039425Y-114006680D01*
X137772142Y-115273962D01*
X137772143Y-115273963D01*
X137815393Y-115297368D01*
X138050506Y-115378083D01*
X138295707Y-115419000D01*
X138544293Y-115419000D01*
X138708090Y-115391667D01*
X138761418Y-115394425D01*
X138808641Y-115419354D01*
X138841002Y-115461830D01*
X138852500Y-115513976D01*
X138852500Y-122920497D01*
X138839712Y-122975341D01*
X138803986Y-123018873D01*
X138752691Y-123042114D01*
X138696407Y-123040272D01*
X138538407Y-122997936D01*
X138303000Y-122977340D01*
X138067592Y-122997936D01*
X137839336Y-123059097D01*
X137739905Y-123105463D01*
X137679390Y-123116816D01*
X137620875Y-123097662D01*
X137578786Y-123052724D01*
X137563500Y-122993081D01*
X137563500Y-117757148D01*
X137571736Y-117712710D01*
X137595350Y-117674176D01*
X137638533Y-117626216D01*
X137733179Y-117462284D01*
X137741358Y-117437112D01*
X137791674Y-117282256D01*
X137811460Y-117094000D01*
X137791674Y-116905744D01*
X137733179Y-116725716D01*
X137733179Y-116725715D01*
X137638533Y-116561783D01*
X137511870Y-116421110D01*
X137358730Y-116309848D01*
X137185802Y-116232855D01*
X137120063Y-116218882D01*
X137086676Y-116206565D01*
X137058163Y-116185273D01*
X134791889Y-113918999D01*
X136914858Y-113918999D01*
X136935386Y-114166732D01*
X136996413Y-114407721D01*
X137065856Y-114566036D01*
X137712893Y-113919001D01*
X137712893Y-113919000D01*
X137065856Y-113271963D01*
X136996413Y-113430279D01*
X136935386Y-113671267D01*
X136914858Y-113918999D01*
X134791889Y-113918999D01*
X132716478Y-111843588D01*
X132685898Y-111793194D01*
X132682043Y-111734374D01*
X132705784Y-111680420D01*
X132751752Y-111643526D01*
X132782830Y-111629035D01*
X132976401Y-111493495D01*
X133098329Y-111371566D01*
X133151072Y-111340273D01*
X133212365Y-111338084D01*
X133267209Y-111365537D01*
X133302189Y-111415916D01*
X133315344Y-111451186D01*
X133351204Y-111547331D01*
X133437454Y-111662546D01*
X133552669Y-111748796D01*
X133687517Y-111799091D01*
X133747127Y-111805500D01*
X135542872Y-111805499D01*
X135602483Y-111799091D01*
X135737331Y-111748796D01*
X135852546Y-111662546D01*
X135938796Y-111547331D01*
X135987810Y-111415916D01*
X136022789Y-111365537D01*
X136077634Y-111338084D01*
X136138927Y-111340273D01*
X136191673Y-111371569D01*
X136313599Y-111493495D01*
X136507170Y-111629035D01*
X136721337Y-111728903D01*
X136949592Y-111790063D01*
X137185000Y-111810659D01*
X137420408Y-111790063D01*
X137648663Y-111728903D01*
X137862830Y-111629035D01*
X138056401Y-111493495D01*
X138223495Y-111326401D01*
X138256238Y-111279637D01*
X138295809Y-111243377D01*
X138347002Y-111227235D01*
X138400221Y-111234241D01*
G37*
G04 #@! TD.AperFunction*
G04 #@! TA.AperFunction,Conductor*
G36*
X124775526Y-101455422D02*
G01*
X124883599Y-101563495D01*
X125069160Y-101693426D01*
X125108024Y-101737743D01*
X125122035Y-101795000D01*
X125108024Y-101852257D01*
X125069158Y-101896575D01*
X124894478Y-102018888D01*
X124883595Y-102026508D01*
X124716505Y-102193598D01*
X124580965Y-102387170D01*
X124481097Y-102601336D01*
X124419936Y-102829592D01*
X124399340Y-103064999D01*
X124419936Y-103300407D01*
X124463390Y-103462578D01*
X124481097Y-103528663D01*
X124580965Y-103742830D01*
X124716505Y-103936401D01*
X124716507Y-103936403D01*
X124716508Y-103936404D01*
X124838818Y-104058714D01*
X124870114Y-104111460D01*
X124872303Y-104172753D01*
X124844850Y-104227597D01*
X124794472Y-104262576D01*
X124662913Y-104311646D01*
X124547811Y-104397811D01*
X124461647Y-104512910D01*
X124411402Y-104647624D01*
X124405000Y-104707176D01*
X124405000Y-105105000D01*
X126131000Y-105105000D01*
X126193000Y-105121613D01*
X126238387Y-105167000D01*
X126255000Y-105229000D01*
X126255000Y-105981000D01*
X126238387Y-106043000D01*
X126193000Y-106088387D01*
X126131000Y-106105000D01*
X124405000Y-106105000D01*
X124405000Y-106502824D01*
X124411402Y-106562375D01*
X124461647Y-106697089D01*
X124547811Y-106812188D01*
X124662911Y-106898352D01*
X124794471Y-106947422D01*
X124844850Y-106982401D01*
X124872303Y-107037246D01*
X124870114Y-107098539D01*
X124838819Y-107151285D01*
X124716503Y-107273601D01*
X124580965Y-107467170D01*
X124481097Y-107681336D01*
X124419936Y-107909592D01*
X124399340Y-108145000D01*
X124419936Y-108380407D01*
X124464709Y-108547501D01*
X124481097Y-108608663D01*
X124580965Y-108822830D01*
X124716505Y-109016401D01*
X124883599Y-109183495D01*
X125069160Y-109313426D01*
X125108024Y-109357743D01*
X125122035Y-109415000D01*
X125108024Y-109472257D01*
X125069158Y-109516575D01*
X124932164Y-109612500D01*
X124883595Y-109646508D01*
X124716505Y-109813598D01*
X124580965Y-110007170D01*
X124481097Y-110221336D01*
X124419936Y-110449592D01*
X124399340Y-110684999D01*
X124419936Y-110920407D01*
X124457337Y-111059987D01*
X124481097Y-111148663D01*
X124580965Y-111362830D01*
X124716505Y-111556401D01*
X124883599Y-111723495D01*
X125077170Y-111859035D01*
X125291337Y-111958903D01*
X125519592Y-112020063D01*
X125755000Y-112040659D01*
X125990408Y-112020063D01*
X126094276Y-111992232D01*
X126148407Y-111977728D01*
X126204691Y-111975886D01*
X126255986Y-111999127D01*
X126291712Y-112042659D01*
X126304500Y-112097503D01*
X126304500Y-115417256D01*
X126302235Y-115437762D01*
X126304439Y-115507873D01*
X126304500Y-115511768D01*
X126304500Y-115539349D01*
X126305003Y-115543334D01*
X126305918Y-115554967D01*
X126307290Y-115598626D01*
X126312879Y-115617860D01*
X126316825Y-115636916D01*
X126319335Y-115656792D01*
X126335414Y-115697404D01*
X126339197Y-115708452D01*
X126347027Y-115735401D01*
X126348247Y-115800078D01*
X126316728Y-115856569D01*
X126261048Y-115889499D01*
X126196360Y-115889906D01*
X126140270Y-115857679D01*
X119048960Y-108766369D01*
X119024720Y-108732071D01*
X119013321Y-108691655D01*
X118995674Y-108523744D01*
X118949101Y-108380407D01*
X118937179Y-108343715D01*
X118842533Y-108179783D01*
X118715870Y-108039110D01*
X118562730Y-107927848D01*
X118426569Y-107867224D01*
X118379625Y-107830712D01*
X118355081Y-107776542D01*
X118358583Y-107717174D01*
X118389322Y-107666266D01*
X124600169Y-101455420D01*
X124655752Y-101423329D01*
X124719940Y-101423329D01*
X124775526Y-101455422D01*
G37*
G04 #@! TD.AperFunction*
G04 #@! TA.AperFunction,Conductor*
G36*
X126193000Y-92421613D02*
G01*
X126238387Y-92467000D01*
X126255000Y-92529000D01*
X126255000Y-93281000D01*
X126238387Y-93343000D01*
X126193000Y-93388387D01*
X126131000Y-93405000D01*
X124405000Y-93405000D01*
X124400703Y-93409296D01*
X124394280Y-93439516D01*
X124363972Y-93481231D01*
X124319318Y-93507011D01*
X124316550Y-93507911D01*
X124311558Y-93509533D01*
X124304656Y-93513913D01*
X124283876Y-93524501D01*
X124276268Y-93527513D01*
X124231389Y-93560119D01*
X124224952Y-93564494D01*
X124178120Y-93594215D01*
X124172528Y-93600171D01*
X124155031Y-93615597D01*
X124148412Y-93620406D01*
X124113053Y-93663146D01*
X124107905Y-93668986D01*
X124069938Y-93709417D01*
X124065997Y-93716586D01*
X124052886Y-93735878D01*
X124047675Y-93742176D01*
X124024060Y-93792360D01*
X124020526Y-93799296D01*
X123993802Y-93847908D01*
X123991770Y-93855823D01*
X123983868Y-93877774D01*
X123980385Y-93885174D01*
X123969993Y-93939650D01*
X123968295Y-93947247D01*
X123954500Y-94000980D01*
X123954500Y-94009151D01*
X123952304Y-94032385D01*
X123950772Y-94040412D01*
X123954255Y-94095759D01*
X123954500Y-94103545D01*
X123954500Y-100280547D01*
X123945061Y-100328000D01*
X123918181Y-100368228D01*
X117123180Y-107163228D01*
X117073817Y-107193478D01*
X117016101Y-107198020D01*
X116962614Y-107175865D01*
X116925014Y-107131842D01*
X116911499Y-107075547D01*
X116911499Y-106655453D01*
X116920938Y-106608000D01*
X116947818Y-106567772D01*
X117240498Y-106275092D01*
X117569789Y-105945800D01*
X117585885Y-105932906D01*
X117587873Y-105930787D01*
X117587877Y-105930786D01*
X117633948Y-105881723D01*
X117636566Y-105879023D01*
X117656120Y-105859471D01*
X117658581Y-105856298D01*
X117666156Y-105847427D01*
X117696062Y-105815582D01*
X117705717Y-105798018D01*
X117716394Y-105781764D01*
X117728673Y-105765936D01*
X117746018Y-105725852D01*
X117751160Y-105715356D01*
X117755920Y-105706698D01*
X117772197Y-105677092D01*
X117777179Y-105657684D01*
X117783481Y-105639280D01*
X117791437Y-105620896D01*
X117798269Y-105577752D01*
X117800633Y-105566338D01*
X117811500Y-105524019D01*
X117811500Y-105503984D01*
X117813027Y-105484585D01*
X117813068Y-105484321D01*
X117816160Y-105464804D01*
X117812050Y-105421325D01*
X117811500Y-105409656D01*
X117811500Y-99244452D01*
X117820939Y-99196999D01*
X117847819Y-99156771D01*
X124563271Y-92441319D01*
X124603499Y-92414439D01*
X124650952Y-92405000D01*
X126131000Y-92405000D01*
X126193000Y-92421613D01*
G37*
G04 #@! TD.AperFunction*
G04 #@! TA.AperFunction,Conductor*
G36*
X145052223Y-104750830D02*
G01*
X145101150Y-104784081D01*
X145217129Y-104912889D01*
X145370267Y-105024150D01*
X145410293Y-105041970D01*
X145482903Y-105074299D01*
X145529846Y-105110810D01*
X145554391Y-105164981D01*
X145550890Y-105224349D01*
X145520148Y-105275259D01*
X144726727Y-106068681D01*
X144686499Y-106095561D01*
X144639046Y-106105000D01*
X143159000Y-106105000D01*
X143097000Y-106088387D01*
X143051613Y-106043000D01*
X143035000Y-105981000D01*
X143035000Y-105229000D01*
X143051613Y-105167000D01*
X143097000Y-105121613D01*
X143159000Y-105105000D01*
X144885000Y-105105000D01*
X144885000Y-104867053D01*
X144899111Y-104809604D01*
X144938231Y-104765231D01*
X144993459Y-104744031D01*
X145052223Y-104750830D01*
G37*
G04 #@! TD.AperFunction*
G04 #@! TA.AperFunction,Conductor*
G36*
X152805385Y-77047133D02*
G01*
X152842985Y-77091156D01*
X152856500Y-77147451D01*
X152856500Y-77621545D01*
X152847061Y-77668998D01*
X152820181Y-77709226D01*
X148772208Y-81757199D01*
X148756110Y-81770096D01*
X148708096Y-81821225D01*
X148705391Y-81824017D01*
X148685874Y-81843534D01*
X148683415Y-81846705D01*
X148675842Y-81855572D01*
X148645935Y-81887420D01*
X148636285Y-81904974D01*
X148625609Y-81921228D01*
X148613326Y-81937063D01*
X148595975Y-81977158D01*
X148590838Y-81987644D01*
X148569802Y-82025907D01*
X148564821Y-82045309D01*
X148558520Y-82063711D01*
X148550561Y-82082102D01*
X148543728Y-82125242D01*
X148541360Y-82136674D01*
X148530500Y-82178978D01*
X148530500Y-82199016D01*
X148528973Y-82218415D01*
X148525840Y-82238194D01*
X148529950Y-82281675D01*
X148530500Y-82293344D01*
X148530500Y-94593547D01*
X148521061Y-94641000D01*
X148494181Y-94681228D01*
X145102807Y-98072601D01*
X145041965Y-98105981D01*
X144972716Y-98101442D01*
X144916750Y-98060407D01*
X144891598Y-97995728D01*
X144870063Y-97749592D01*
X144864525Y-97728923D01*
X144808903Y-97521337D01*
X144709035Y-97307171D01*
X144573495Y-97113599D01*
X144406401Y-96946505D01*
X144220839Y-96816573D01*
X144181974Y-96772255D01*
X144167964Y-96714999D01*
X144181975Y-96657742D01*
X144220837Y-96613428D01*
X144406401Y-96483495D01*
X144573495Y-96316401D01*
X144709035Y-96122830D01*
X144808903Y-95908663D01*
X144870063Y-95680408D01*
X144890659Y-95445000D01*
X144870063Y-95209592D01*
X144808903Y-94981337D01*
X144709035Y-94767171D01*
X144573495Y-94573599D01*
X144451181Y-94451285D01*
X144419885Y-94398539D01*
X144417696Y-94337246D01*
X144445149Y-94282401D01*
X144495528Y-94247422D01*
X144627089Y-94198352D01*
X144742188Y-94112188D01*
X144828352Y-93997089D01*
X144878597Y-93862375D01*
X144885000Y-93802824D01*
X144885000Y-93405000D01*
X142185000Y-93405000D01*
X142185000Y-93802824D01*
X142191402Y-93862375D01*
X142241647Y-93997089D01*
X142327811Y-94112188D01*
X142442911Y-94198352D01*
X142574471Y-94247422D01*
X142624850Y-94282401D01*
X142652303Y-94337246D01*
X142650114Y-94398539D01*
X142618819Y-94451285D01*
X142496503Y-94573601D01*
X142360965Y-94767170D01*
X142261097Y-94981336D01*
X142199936Y-95209592D01*
X142179340Y-95445000D01*
X142199936Y-95680407D01*
X142225801Y-95776935D01*
X142261097Y-95908663D01*
X142360965Y-96122830D01*
X142496505Y-96316401D01*
X142663599Y-96483495D01*
X142849160Y-96613426D01*
X142888024Y-96657743D01*
X142902035Y-96715000D01*
X142888024Y-96772257D01*
X142849159Y-96816575D01*
X142663595Y-96946508D01*
X142496505Y-97113598D01*
X142360965Y-97307170D01*
X142261097Y-97521336D01*
X142199936Y-97749592D01*
X142179340Y-97984999D01*
X142199936Y-98220407D01*
X142236677Y-98357525D01*
X142261097Y-98448663D01*
X142360965Y-98662830D01*
X142496505Y-98856401D01*
X142663599Y-99023495D01*
X142849160Y-99153426D01*
X142888024Y-99197743D01*
X142902035Y-99255000D01*
X142888024Y-99312257D01*
X142849158Y-99356575D01*
X142675676Y-99478049D01*
X142663595Y-99486508D01*
X142496505Y-99653598D01*
X142360965Y-99847170D01*
X142261097Y-100061336D01*
X142199936Y-100289592D01*
X142179340Y-100524999D01*
X142199936Y-100760407D01*
X142225846Y-100857103D01*
X142261097Y-100988663D01*
X142360965Y-101202830D01*
X142496505Y-101396401D01*
X142663599Y-101563495D01*
X142849160Y-101693426D01*
X142888024Y-101737743D01*
X142902035Y-101795000D01*
X142888024Y-101852257D01*
X142849158Y-101896575D01*
X142674478Y-102018888D01*
X142663595Y-102026508D01*
X142496505Y-102193598D01*
X142360965Y-102387170D01*
X142261097Y-102601336D01*
X142199936Y-102829592D01*
X142179340Y-103065000D01*
X142199936Y-103300407D01*
X142243390Y-103462578D01*
X142261097Y-103528663D01*
X142360965Y-103742830D01*
X142496505Y-103936401D01*
X142496508Y-103936403D01*
X142496508Y-103936404D01*
X142618818Y-104058714D01*
X142650114Y-104111460D01*
X142652303Y-104172753D01*
X142624850Y-104227597D01*
X142574472Y-104262576D01*
X142442913Y-104311646D01*
X142327809Y-104397811D01*
X142266581Y-104479602D01*
X142210648Y-104521472D01*
X142140956Y-104526456D01*
X142079634Y-104492971D01*
X140019255Y-102432592D01*
X139987504Y-102378257D01*
X139986515Y-102315333D01*
X140016544Y-102260027D01*
X140069855Y-102226585D01*
X140132716Y-102223621D01*
X140190272Y-102235855D01*
X140240353Y-102246500D01*
X140240354Y-102246500D01*
X140429646Y-102246500D01*
X140429648Y-102246500D01*
X140553084Y-102220262D01*
X140614803Y-102207144D01*
X140787730Y-102130151D01*
X140940871Y-102018888D01*
X141067533Y-101878216D01*
X141162179Y-101714284D01*
X141220674Y-101534256D01*
X141240460Y-101346000D01*
X141220674Y-101157744D01*
X141180698Y-101034712D01*
X141162179Y-100977715D01*
X141067535Y-100813786D01*
X141054427Y-100799229D01*
X140992347Y-100730282D01*
X140968736Y-100691751D01*
X140960500Y-100647313D01*
X140960500Y-93875452D01*
X140969939Y-93827999D01*
X140996819Y-93787771D01*
X142343271Y-92441319D01*
X142383499Y-92414439D01*
X142430952Y-92405000D01*
X144885000Y-92405000D01*
X144885000Y-92007176D01*
X144878597Y-91947624D01*
X144828352Y-91812910D01*
X144742188Y-91697811D01*
X144627088Y-91611647D01*
X144495528Y-91562577D01*
X144445149Y-91527597D01*
X144417696Y-91472752D01*
X144419885Y-91411460D01*
X144451178Y-91358717D01*
X144573495Y-91236401D01*
X144709035Y-91042830D01*
X144808903Y-90828663D01*
X144870063Y-90600408D01*
X144890659Y-90365000D01*
X144870063Y-90129592D01*
X144808903Y-89901337D01*
X144709035Y-89687171D01*
X144573495Y-89493599D01*
X144406401Y-89326505D01*
X144220839Y-89196573D01*
X144181975Y-89152257D01*
X144167964Y-89095000D01*
X144181975Y-89037743D01*
X144220839Y-88993426D01*
X144406401Y-88863495D01*
X144573495Y-88696401D01*
X144709035Y-88502830D01*
X144808903Y-88288663D01*
X144870063Y-88060408D01*
X144890659Y-87825000D01*
X144870063Y-87589592D01*
X144808903Y-87361337D01*
X144709035Y-87147171D01*
X144573495Y-86953599D01*
X144406401Y-86786505D01*
X144220839Y-86656573D01*
X144181975Y-86612257D01*
X144167964Y-86555000D01*
X144181975Y-86497743D01*
X144220839Y-86453426D01*
X144406401Y-86323495D01*
X144573495Y-86156401D01*
X144709035Y-85962830D01*
X144808903Y-85748663D01*
X144870063Y-85520408D01*
X144890659Y-85285000D01*
X144870063Y-85049592D01*
X144843143Y-84949126D01*
X144843143Y-84884939D01*
X144875235Y-84829353D01*
X152644821Y-77059768D01*
X152694182Y-77029520D01*
X152751898Y-77024978D01*
X152805385Y-77047133D01*
G37*
G04 #@! TD.AperFunction*
G04 #@! TA.AperFunction,Conductor*
G36*
X152781775Y-82148281D02*
G01*
X152837603Y-82182859D01*
X152867943Y-82241100D01*
X152911836Y-82444766D01*
X152998819Y-82661231D01*
X152998821Y-82661235D01*
X153121138Y-82859891D01*
X153234369Y-82988547D01*
X153275270Y-83035019D01*
X153456776Y-83181576D01*
X153497590Y-83204376D01*
X153542706Y-83247616D01*
X153561004Y-83307367D01*
X153547839Y-83368455D01*
X153506553Y-83415365D01*
X153363227Y-83512236D01*
X153194860Y-83673603D01*
X153056187Y-83861101D01*
X152951196Y-84069339D01*
X152947320Y-84082000D01*
X154828000Y-84082000D01*
X154890000Y-84098613D01*
X154935387Y-84144000D01*
X154952000Y-84206000D01*
X154952000Y-84958000D01*
X154935387Y-85020000D01*
X154890000Y-85065387D01*
X154828000Y-85082000D01*
X152951447Y-85082000D01*
X152999267Y-85201005D01*
X153121543Y-85399594D01*
X153275616Y-85574655D01*
X153315333Y-85606725D01*
X153353659Y-85659987D01*
X153359439Y-85725351D01*
X153331052Y-85784512D01*
X153298090Y-85806480D01*
X153300001Y-85809578D01*
X153138342Y-85909288D01*
X153014288Y-86033342D01*
X152922186Y-86182665D01*
X152867000Y-86349202D01*
X152856500Y-86451990D01*
X152856500Y-87792008D01*
X152867000Y-87894796D01*
X152922186Y-88061334D01*
X153014288Y-88210657D01*
X153138342Y-88334711D01*
X153200758Y-88373209D01*
X153270143Y-88416006D01*
X153300001Y-88434422D01*
X153298261Y-88437242D01*
X153329490Y-88457576D01*
X153358578Y-88513548D01*
X153356366Y-88576589D01*
X153323424Y-88630385D01*
X153194860Y-88753603D01*
X153056187Y-88941101D01*
X152951196Y-89149339D01*
X152947320Y-89162000D01*
X154828000Y-89162000D01*
X154890000Y-89178613D01*
X154935387Y-89224000D01*
X154952000Y-89286000D01*
X154952000Y-92578000D01*
X154935387Y-92640000D01*
X154890000Y-92685387D01*
X154828000Y-92702000D01*
X152951447Y-92702000D01*
X152999267Y-92821005D01*
X153121543Y-93019594D01*
X153275618Y-93194657D01*
X153457057Y-93341160D01*
X153497565Y-93363789D01*
X153542680Y-93407029D01*
X153560979Y-93466780D01*
X153547814Y-93527868D01*
X153506529Y-93574778D01*
X153362910Y-93671848D01*
X153194483Y-93833272D01*
X153055760Y-94020838D01*
X152950730Y-94229152D01*
X152882918Y-94450582D01*
X152882417Y-94452220D01*
X152854682Y-94668808D01*
X152852784Y-94683627D01*
X152862685Y-94916704D01*
X152911836Y-95144767D01*
X152998819Y-95361231D01*
X152998821Y-95361235D01*
X153121138Y-95559891D01*
X153121139Y-95559892D01*
X153162890Y-95607331D01*
X153190835Y-95662273D01*
X153188873Y-95723883D01*
X153157487Y-95776935D01*
X151474208Y-97460214D01*
X151458110Y-97473111D01*
X151410096Y-97524240D01*
X151407391Y-97527032D01*
X151387874Y-97546549D01*
X151385415Y-97549720D01*
X151377842Y-97558587D01*
X151347935Y-97590435D01*
X151338285Y-97607989D01*
X151327609Y-97624243D01*
X151315326Y-97640078D01*
X151297975Y-97680173D01*
X151292838Y-97690659D01*
X151271802Y-97728922D01*
X151266821Y-97748324D01*
X151260520Y-97766726D01*
X151252561Y-97785117D01*
X151245728Y-97828257D01*
X151243360Y-97839689D01*
X151232500Y-97881993D01*
X151232500Y-97902031D01*
X151230973Y-97921430D01*
X151227840Y-97941209D01*
X151231950Y-97984690D01*
X151232500Y-97996359D01*
X151232500Y-99511547D01*
X151223061Y-99559000D01*
X151196181Y-99599228D01*
X150008337Y-100787070D01*
X149954314Y-100818734D01*
X149891708Y-100819963D01*
X149836484Y-100790444D01*
X149802725Y-100737706D01*
X149798179Y-100723716D01*
X149703533Y-100559783D01*
X149576870Y-100419110D01*
X149423730Y-100307848D01*
X149250802Y-100230855D01*
X149065648Y-100191500D01*
X149065646Y-100191500D01*
X148876354Y-100191500D01*
X148876352Y-100191500D01*
X148691197Y-100230855D01*
X148518269Y-100307848D01*
X148365129Y-100419110D01*
X148238466Y-100559783D01*
X148143820Y-100723715D01*
X148085326Y-100903742D01*
X148067679Y-101071649D01*
X148056279Y-101112070D01*
X148032039Y-101146368D01*
X145875228Y-103303181D01*
X145835000Y-103330061D01*
X145787547Y-103339500D01*
X145728352Y-103339500D01*
X145543197Y-103378855D01*
X145370269Y-103455848D01*
X145217129Y-103567110D01*
X145090466Y-103707783D01*
X144995820Y-103871715D01*
X144937326Y-104051742D01*
X144917540Y-104240000D01*
X144920837Y-104271373D01*
X144913615Y-104327889D01*
X144881881Y-104375209D01*
X144832337Y-104403344D01*
X144775441Y-104406352D01*
X144723205Y-104383600D01*
X144627088Y-104311647D01*
X144495528Y-104262577D01*
X144445149Y-104227597D01*
X144417696Y-104172752D01*
X144419885Y-104111460D01*
X144451178Y-104058717D01*
X144573495Y-103936401D01*
X144709035Y-103742830D01*
X144808903Y-103528663D01*
X144870063Y-103300408D01*
X144890659Y-103065000D01*
X144870063Y-102829592D01*
X144843143Y-102729126D01*
X144843143Y-102664939D01*
X144875235Y-102609353D01*
X149989786Y-97494802D01*
X150005887Y-97481904D01*
X150007874Y-97479787D01*
X150007877Y-97479786D01*
X150053932Y-97430741D01*
X150056613Y-97427976D01*
X150076120Y-97408470D01*
X150078581Y-97405295D01*
X150086152Y-97396431D01*
X150116062Y-97364582D01*
X150125713Y-97347026D01*
X150136393Y-97330767D01*
X150148674Y-97314936D01*
X150166018Y-97274851D01*
X150171160Y-97264356D01*
X150192197Y-97226092D01*
X150197178Y-97206688D01*
X150203480Y-97188283D01*
X150211438Y-97169895D01*
X150218270Y-97126748D01*
X150220639Y-97115316D01*
X150231500Y-97073020D01*
X150231500Y-97052984D01*
X150233027Y-97033585D01*
X150236160Y-97013804D01*
X150232050Y-96970325D01*
X150231500Y-96958656D01*
X150231500Y-91702000D01*
X152947320Y-91702000D01*
X153952000Y-91702000D01*
X153952000Y-90162000D01*
X152951447Y-90162000D01*
X152999267Y-90281005D01*
X153121543Y-90479594D01*
X153275618Y-90654657D01*
X153457057Y-90801160D01*
X153498054Y-90824062D01*
X153543169Y-90867301D01*
X153561468Y-90927053D01*
X153548303Y-90988141D01*
X153507017Y-91035051D01*
X153363227Y-91132236D01*
X153194860Y-91293603D01*
X153056187Y-91481101D01*
X152951196Y-91689339D01*
X152947320Y-91702000D01*
X150231500Y-91702000D01*
X150231500Y-84658452D01*
X150240939Y-84610999D01*
X150267819Y-84570771D01*
X150840717Y-83997873D01*
X152659047Y-82179541D01*
X152716118Y-82147061D01*
X152781775Y-82148281D01*
G37*
G04 #@! TD.AperFunction*
M02*
