M48
; DRILL file {KiCad 7.0.1} date Mon Jun  5 16:13:46 2023
; FORMAT={-:-/ absolute / metric / decimal}
; #@! TF.CreationDate,2023-06-05T16:13:46-05:00
; #@! TF.GenerationSoftware,Kicad,Pcbnew,7.0.1
; #@! TF.FileFunction,Plated,1,2,PTH
FMAT,2
METRIC
; #@! TA.AperFunction,Plated,PTH,ViaDrill
T1C0.400
; #@! TA.AperFunction,Plated,PTH,ComponentDrill
T2C1.000
; #@! TA.AperFunction,Plated,PTH,ComponentDrill
T3C1.020
; #@! TA.AperFunction,Plated,PTH,ComponentDrill
T4C1.100
; #@! TA.AperFunction,Plated,PTH,ComponentDrill
T5C1.190
; #@! TA.AperFunction,Plated,PTH,ComponentDrill
T6C1.520
%
G90
G05
T1
X113.21Y-119.761
X113.665Y-124.841
X118.11Y-108.712
X118.11Y-119.761
X119.634Y-118.11
X119.71Y-120.269
X122.297Y-115.701
X123.317Y-116.84
X127.654Y-102.997
X127.762Y-98.171
X128.143Y-108.077
X129.413Y-121.285
X130.878Y-100.262
X131.191Y-133.604
X131.377Y-120.972
X132.334Y-133.604
X133.223Y-131.318
X135.763Y-101.981
X135.763Y-131.318
X136.906Y-117.094
X137.414Y-89.154
X137.414Y-90.17
X138.176Y-104.267
X138.811Y-70.358
X139.573Y-133.858
X139.7Y-63.373
X139.709Y-108.068
X139.954Y-128.942
X140.335Y-101.346
X141.859Y-61.087
X144.78Y-114.046
X145.823Y-104.24
X148.971Y-101.092
X149.098Y-70.612
X150.622Y-130.937
X150.876Y-106.68
X151.13Y-125.476
X151.384Y-119.888
X151.473Y-126.619
X153.035Y-133.35
X156.284Y-119.888
T2
X117.602Y-34.798
X117.602Y-52.578
X125.603Y-124.333
X125.603Y-126.873
X128.143Y-124.333
X128.143Y-126.873
X130.683Y-124.333
X130.683Y-126.873
X130.82Y-113.919
X133.223Y-124.333
X133.223Y-126.873
X135.763Y-124.333
X135.763Y-126.873
X138.303Y-124.333
X138.303Y-126.873
X138.42Y-113.919
X140.843Y-124.333
X140.843Y-126.873
X143.383Y-124.333
X143.383Y-126.873
X160.782Y-34.798
X160.782Y-52.578
T3
X125.755Y-62.425
X125.755Y-64.965
X125.755Y-67.505
X125.755Y-70.045
X125.755Y-72.585
X125.755Y-75.125
X125.755Y-77.665
X125.755Y-80.205
X125.755Y-82.745
X125.755Y-85.285
X125.755Y-87.825
X125.755Y-90.365
X125.755Y-92.905
X125.755Y-95.445
X125.755Y-97.985
X125.755Y-100.525
X125.755Y-103.065
X125.755Y-105.605
X125.755Y-108.145
X125.755Y-110.685
X132.105Y-110.455
X134.645Y-110.455
X137.185Y-110.455
X143.535Y-62.425
X143.535Y-64.965
X143.535Y-67.505
X143.535Y-70.045
X143.535Y-72.585
X143.535Y-75.125
X143.535Y-77.665
X143.535Y-80.205
X143.535Y-82.745
X143.535Y-85.285
X143.535Y-87.825
X143.535Y-90.365
X143.535Y-92.905
X143.535Y-95.445
X143.535Y-97.985
X143.535Y-100.525
X143.535Y-103.065
X143.535Y-105.605
X143.535Y-108.145
X143.535Y-110.685
T4
X129.667Y-58.547
X139.827Y-58.547
T5
X112.649Y-138.283
X115.189Y-138.283
X115.316Y-56.515
X115.316Y-59.055
X115.316Y-61.595
X115.316Y-64.135
X115.316Y-66.675
X115.316Y-69.215
X115.316Y-71.755
X115.316Y-74.295
X115.316Y-76.835
X115.316Y-79.375
X115.316Y-81.915
X115.316Y-84.455
X115.316Y-86.995
X115.316Y-89.535
X115.316Y-92.075
X115.316Y-94.615
X115.316Y-97.155
X115.316Y-99.695
X115.316Y-102.235
X115.316Y-104.775
X115.316Y-107.315
X115.316Y-109.855
X115.316Y-112.395
X115.316Y-114.935
X117.729Y-138.283
X122.936Y-138.43
X125.476Y-138.43
X128.016Y-138.43
X130.556Y-138.43
X133.096Y-138.43
X135.636Y-138.43
X138.176Y-138.43
X140.716Y-138.43
X143.256Y-138.43
X145.796Y-138.43
X150.499Y-138.63
X153.039Y-138.63
X154.452Y-56.642
X154.452Y-59.182
X154.452Y-61.722
X154.452Y-64.262
X154.452Y-66.802
X154.452Y-69.342
X154.452Y-71.882
X154.452Y-74.422
X154.452Y-76.962
X154.452Y-79.502
X154.452Y-82.042
X154.452Y-84.582
X154.452Y-87.122
X154.452Y-89.662
X154.452Y-92.202
X154.452Y-94.742
X154.452Y-97.282
X154.452Y-99.822
X154.452Y-102.362
X154.452Y-104.902
X154.452Y-107.442
X154.452Y-109.982
X154.452Y-112.522
X154.452Y-115.062
X155.579Y-138.63
T6
X110.617Y-40.894
X110.617Y-45.974
T0
M30
