G04 #@! TF.GenerationSoftware,KiCad,Pcbnew,7.0.1*
G04 #@! TF.CreationDate,2023-07-05T13:46:03-05:00*
G04 #@! TF.ProjectId,MCP23008 Keypad Breakout,4d435032-3330-4303-9820-4b6579706164,rev?*
G04 #@! TF.SameCoordinates,Original*
G04 #@! TF.FileFunction,Copper,L1,Top*
G04 #@! TF.FilePolarity,Positive*
%FSLAX46Y46*%
G04 Gerber Fmt 4.6, Leading zero omitted, Abs format (unit mm)*
G04 Created by KiCad (PCBNEW 7.0.1) date 2023-07-05 13:46:03*
%MOMM*%
%LPD*%
G01*
G04 APERTURE LIST*
G04 Aperture macros list*
%AMRoundRect*
0 Rectangle with rounded corners*
0 $1 Rounding radius*
0 $2 $3 $4 $5 $6 $7 $8 $9 X,Y pos of 4 corners*
0 Add a 4 corners polygon primitive as box body*
4,1,4,$2,$3,$4,$5,$6,$7,$8,$9,$2,$3,0*
0 Add four circle primitives for the rounded corners*
1,1,$1+$1,$2,$3*
1,1,$1+$1,$4,$5*
1,1,$1+$1,$6,$7*
1,1,$1+$1,$8,$9*
0 Add four rect primitives between the rounded corners*
20,1,$1+$1,$2,$3,$4,$5,0*
20,1,$1+$1,$4,$5,$6,$7,0*
20,1,$1+$1,$6,$7,$8,$9,0*
20,1,$1+$1,$8,$9,$2,$3,0*%
%AMFreePoly0*
4,1,19,0.550000,-0.750000,0.000000,-0.750000,0.000000,-0.744911,-0.071157,-0.744911,-0.207708,-0.704816,-0.327430,-0.627875,-0.420627,-0.520320,-0.479746,-0.390866,-0.500000,-0.250000,-0.500000,0.250000,-0.479746,0.390866,-0.420627,0.520320,-0.327430,0.627875,-0.207708,0.704816,-0.071157,0.744911,0.000000,0.744911,0.000000,0.750000,0.550000,0.750000,0.550000,-0.750000,0.550000,-0.750000,
$1*%
%AMFreePoly1*
4,1,19,0.000000,0.744911,0.071157,0.744911,0.207708,0.704816,0.327430,0.627875,0.420627,0.520320,0.479746,0.390866,0.500000,0.250000,0.500000,-0.250000,0.479746,-0.390866,0.420627,-0.520320,0.327430,-0.627875,0.207708,-0.704816,0.071157,-0.744911,0.000000,-0.744911,0.000000,-0.750000,-0.550000,-0.750000,-0.550000,0.750000,0.000000,0.750000,0.000000,0.744911,0.000000,0.744911,
$1*%
G04 Aperture macros list end*
G04 #@! TA.AperFunction,ComponentPad*
%ADD10RoundRect,0.250000X-0.845000X0.620000X-0.845000X-0.620000X0.845000X-0.620000X0.845000X0.620000X0*%
G04 #@! TD*
G04 #@! TA.AperFunction,ComponentPad*
%ADD11O,2.190000X1.740000*%
G04 #@! TD*
G04 #@! TA.AperFunction,ComponentPad*
%ADD12RoundRect,0.250000X0.620000X0.845000X-0.620000X0.845000X-0.620000X-0.845000X0.620000X-0.845000X0*%
G04 #@! TD*
G04 #@! TA.AperFunction,ComponentPad*
%ADD13O,1.740000X2.190000*%
G04 #@! TD*
G04 #@! TA.AperFunction,SMDPad,CuDef*
%ADD14FreePoly0,0.000000*%
G04 #@! TD*
G04 #@! TA.AperFunction,SMDPad,CuDef*
%ADD15R,1.000000X1.500000*%
G04 #@! TD*
G04 #@! TA.AperFunction,SMDPad,CuDef*
%ADD16FreePoly1,0.000000*%
G04 #@! TD*
G04 #@! TA.AperFunction,ComponentPad*
%ADD17C,1.400000*%
G04 #@! TD*
G04 #@! TA.AperFunction,ComponentPad*
%ADD18O,1.400000X1.400000*%
G04 #@! TD*
G04 #@! TA.AperFunction,ComponentPad*
%ADD19RoundRect,0.250000X0.845000X-0.620000X0.845000X0.620000X-0.845000X0.620000X-0.845000X-0.620000X0*%
G04 #@! TD*
G04 #@! TA.AperFunction,ComponentPad*
%ADD20R,1.500000X1.500000*%
G04 #@! TD*
G04 #@! TA.AperFunction,ComponentPad*
%ADD21C,1.500000*%
G04 #@! TD*
G04 #@! TA.AperFunction,ComponentPad*
%ADD22C,3.000000*%
G04 #@! TD*
G04 #@! TA.AperFunction,ComponentPad*
%ADD23R,1.600000X1.600000*%
G04 #@! TD*
G04 #@! TA.AperFunction,ComponentPad*
%ADD24O,1.600000X1.600000*%
G04 #@! TD*
G04 #@! TA.AperFunction,ComponentPad*
%ADD25C,1.600000*%
G04 #@! TD*
G04 #@! TA.AperFunction,ViaPad*
%ADD26C,0.800000*%
G04 #@! TD*
G04 #@! TA.AperFunction,Conductor*
%ADD27C,0.300000*%
G04 #@! TD*
G04 APERTURE END LIST*
D10*
X170688000Y-115570000D03*
D11*
X170688000Y-118110000D03*
X170688000Y-120650000D03*
X170688000Y-123190000D03*
D12*
X165354000Y-120142000D03*
D13*
X162814000Y-120142000D03*
X160274000Y-120142000D03*
X157734000Y-120142000D03*
X155194000Y-120142000D03*
X152654000Y-120142000D03*
X150114000Y-120142000D03*
X147574000Y-120142000D03*
D14*
X160274000Y-108966000D03*
D15*
X161574000Y-108966000D03*
D16*
X162874000Y-108966000D03*
D17*
X134620000Y-131572000D03*
D18*
X134620000Y-123952000D03*
D14*
X150622000Y-108966000D03*
D15*
X151922000Y-108966000D03*
D16*
X153222000Y-108966000D03*
D19*
X129814000Y-123190000D03*
D11*
X129814000Y-120650000D03*
X129814000Y-118110000D03*
X129814000Y-115570000D03*
D20*
X152146000Y-117094000D03*
D21*
X153416000Y-114554000D03*
X154686000Y-117094000D03*
X155956000Y-114554000D03*
X157226000Y-117094000D03*
X158496000Y-114554000D03*
X159766000Y-117094000D03*
X161036000Y-114554000D03*
D22*
X148821000Y-126494000D03*
X164361000Y-126494000D03*
D17*
X134620000Y-114808000D03*
D18*
X134620000Y-107188000D03*
D14*
X155418000Y-108966000D03*
D15*
X156718000Y-108966000D03*
D16*
X158018000Y-108966000D03*
D23*
X136906000Y-109220000D03*
D24*
X136906000Y-111760000D03*
X136906000Y-114300000D03*
X136906000Y-116840000D03*
X136906000Y-119380000D03*
X136906000Y-121920000D03*
X136906000Y-124460000D03*
X136906000Y-127000000D03*
X136906000Y-129540000D03*
X144526000Y-129540000D03*
X144526000Y-127000000D03*
X144526000Y-124460000D03*
X144526000Y-121920000D03*
X144526000Y-119380000D03*
X144526000Y-116840000D03*
X144526000Y-114300000D03*
X144526000Y-111760000D03*
X144526000Y-109220000D03*
D25*
X134620000Y-121840000D03*
X134620000Y-116840000D03*
D26*
X153222000Y-108966000D03*
X132334000Y-117602000D03*
X160274000Y-108966000D03*
X150622000Y-108966000D03*
X155448000Y-108966000D03*
D27*
X170688000Y-120650000D02*
X162874000Y-112836000D01*
X158018000Y-108966000D02*
X159288000Y-110236000D01*
X157568000Y-109416000D02*
X158018000Y-108966000D01*
X157568000Y-110066000D02*
X157568000Y-109416000D01*
X155418000Y-108966000D02*
X155448000Y-108966000D01*
X161036000Y-114554000D02*
X165354000Y-118872000D01*
X158242000Y-111760000D02*
X161036000Y-114554000D01*
X144526000Y-111760000D02*
X158242000Y-111760000D01*
X165354000Y-118872000D02*
X165354000Y-120142000D01*
X159766000Y-114268365D02*
X159766000Y-117094000D01*
X158019635Y-112522000D02*
X159766000Y-114268365D01*
X159766000Y-117094000D02*
X162814000Y-120142000D01*
X144526000Y-114300000D02*
X146304000Y-112522000D01*
X146304000Y-112522000D02*
X158019635Y-112522000D01*
X157226000Y-113284000D02*
X158496000Y-114554000D01*
X148082000Y-113284000D02*
X157226000Y-113284000D01*
X158496000Y-114554000D02*
X158496000Y-117379635D01*
X158496000Y-117379635D02*
X160274000Y-119157635D01*
X144526000Y-116840000D02*
X148082000Y-113284000D01*
X160274000Y-119157635D02*
X160274000Y-120142000D01*
X157226000Y-117094000D02*
X157226000Y-119634000D01*
X157226000Y-119634000D02*
X157734000Y-120142000D01*
X145712000Y-118194000D02*
X156126000Y-118194000D01*
X156126000Y-118194000D02*
X157226000Y-117094000D01*
X144526000Y-119380000D02*
X145712000Y-118194000D01*
X147071659Y-118694000D02*
X153746000Y-118694000D01*
X153746000Y-118694000D02*
X155194000Y-120142000D01*
X144526000Y-121920000D02*
X144526000Y-121239659D01*
X144526000Y-121239659D02*
X147071659Y-118694000D01*
X145002346Y-117990000D02*
X148438346Y-114554000D01*
X143376000Y-125850000D02*
X143376000Y-118903654D01*
X145676000Y-124580000D02*
X150114000Y-120142000D01*
X148438346Y-114554000D02*
X153416000Y-114554000D01*
X144526000Y-127000000D02*
X145676000Y-125850000D01*
X143376000Y-118903654D02*
X144289654Y-117990000D01*
X144526000Y-127000000D02*
X143376000Y-125850000D01*
X145676000Y-125850000D02*
X145676000Y-124580000D01*
X144289654Y-117990000D02*
X145002346Y-117990000D01*
X136906000Y-109220000D02*
X136652000Y-109220000D01*
X139760000Y-106366000D02*
X136906000Y-109220000D01*
X136906000Y-109220000D02*
X136164000Y-109220000D01*
X162433189Y-106366000D02*
X139760000Y-106366000D01*
X170688000Y-115570000D02*
X170688000Y-114620811D01*
X136652000Y-109220000D02*
X134620000Y-107188000D01*
X136164000Y-109220000D02*
X129814000Y-115570000D01*
X170688000Y-114620811D02*
X162433189Y-106366000D01*
X165488000Y-112910000D02*
X170688000Y-118110000D01*
X134620000Y-123466346D02*
X134620000Y-123952000D01*
X136164000Y-111760000D02*
X136906000Y-111760000D01*
X165488000Y-110127918D02*
X165488000Y-112910000D01*
X136906000Y-111760000D02*
X141800000Y-106866000D01*
X129814000Y-118110000D02*
X129814000Y-118660346D01*
X129814000Y-118660346D02*
X134620000Y-123466346D01*
X141800000Y-106866000D02*
X162226082Y-106866000D01*
X162226082Y-106866000D02*
X165488000Y-110127918D01*
X129814000Y-118110000D02*
X136164000Y-111760000D01*
X144049654Y-110610000D02*
X138176000Y-116483654D01*
X145593173Y-111200827D02*
X145002346Y-110610000D01*
X150982149Y-111200827D02*
X151922000Y-110260976D01*
X151922000Y-110260976D02*
X151922000Y-108966000D01*
X145002346Y-110610000D02*
X144049654Y-110610000D01*
X138176000Y-118110000D02*
X136906000Y-119380000D01*
X138176000Y-116483654D02*
X138176000Y-118110000D01*
X145593173Y-111200827D02*
X150982149Y-111200827D01*
X162874000Y-108966000D02*
X162874000Y-109616000D01*
X162254000Y-110236000D02*
X159288000Y-110236000D01*
X134620000Y-125456000D02*
X134620000Y-131572000D01*
X154322000Y-110066000D02*
X153222000Y-108966000D01*
X162874000Y-109616000D02*
X162254000Y-110236000D01*
X162874000Y-112836000D02*
X162874000Y-108966000D01*
X157568000Y-110066000D02*
X154322000Y-110066000D01*
X129814000Y-120650000D02*
X134620000Y-125456000D01*
X138684000Y-115062000D02*
X138684000Y-113195654D01*
X156668000Y-107866000D02*
X156718000Y-107916000D01*
X138684000Y-113195654D02*
X144013654Y-107866000D01*
X144013654Y-107866000D02*
X156668000Y-107866000D01*
X136906000Y-116840000D02*
X138684000Y-115062000D01*
X156718000Y-107916000D02*
X156718000Y-108966000D01*
X160468976Y-107366000D02*
X142926346Y-107366000D01*
X161574000Y-108966000D02*
X161574000Y-108471024D01*
X142926346Y-107366000D02*
X136906000Y-113386346D01*
X136906000Y-113386346D02*
X136906000Y-114300000D01*
X161574000Y-108471024D02*
X160468976Y-107366000D01*
G04 #@! TA.AperFunction,Conductor*
G36*
X135897248Y-115153592D02*
G01*
X135952374Y-115185560D01*
X136010342Y-115243528D01*
X136066863Y-115300049D01*
X136234838Y-115417665D01*
X136253266Y-115430568D01*
X136311275Y-115457618D01*
X136363450Y-115503375D01*
X136382869Y-115570000D01*
X136363450Y-115636625D01*
X136311275Y-115682382D01*
X136253263Y-115709433D01*
X136066859Y-115839953D01*
X135905955Y-116000857D01*
X135860076Y-116066380D01*
X135810906Y-116107638D01*
X135747694Y-116118784D01*
X135699025Y-116114526D01*
X134973553Y-116840000D01*
X134973553Y-116840001D01*
X135699025Y-117565472D01*
X135747692Y-117561214D01*
X135810904Y-117572360D01*
X135860075Y-117613619D01*
X135905952Y-117679139D01*
X136066859Y-117840046D01*
X136202890Y-117935295D01*
X136253266Y-117970568D01*
X136311275Y-117997618D01*
X136363450Y-118043375D01*
X136382869Y-118110000D01*
X136363450Y-118176625D01*
X136311275Y-118222382D01*
X136253263Y-118249433D01*
X136066859Y-118379953D01*
X135905953Y-118540859D01*
X135775432Y-118727264D01*
X135679261Y-118933502D01*
X135620364Y-119153310D01*
X135600531Y-119379999D01*
X135620364Y-119606689D01*
X135679261Y-119826497D01*
X135775432Y-120032735D01*
X135905953Y-120219140D01*
X136066859Y-120380046D01*
X136202890Y-120475295D01*
X136253266Y-120510568D01*
X136311273Y-120537617D01*
X136363449Y-120583373D01*
X136382869Y-120649997D01*
X136363451Y-120716622D01*
X136311276Y-120762380D01*
X136253266Y-120789431D01*
X136066860Y-120919953D01*
X135905954Y-121080859D01*
X135892582Y-121099957D01*
X135848264Y-121138822D01*
X135791007Y-121152832D01*
X135733750Y-121138821D01*
X135689433Y-121099955D01*
X135620046Y-121000859D01*
X135459140Y-120839953D01*
X135272735Y-120709432D01*
X135066497Y-120613261D01*
X134846689Y-120554364D01*
X134620000Y-120534531D01*
X134393310Y-120554364D01*
X134173502Y-120613261D01*
X133967264Y-120709432D01*
X133780859Y-120839953D01*
X133619953Y-121000859D01*
X133483210Y-121196152D01*
X133481633Y-121195048D01*
X133454689Y-121228619D01*
X133400735Y-121252358D01*
X133341916Y-121248503D01*
X133291523Y-121217923D01*
X131155896Y-119082296D01*
X131125538Y-119032599D01*
X131121216Y-118974523D01*
X131143878Y-118920887D01*
X131210240Y-118831161D01*
X131315270Y-118622847D01*
X131383583Y-118399780D01*
X131413216Y-118168376D01*
X131403314Y-117935293D01*
X131399808Y-117919026D01*
X133894526Y-117919026D01*
X133967515Y-117970133D01*
X134173673Y-118066266D01*
X134393397Y-118125141D01*
X134620000Y-118144966D01*
X134846602Y-118125141D01*
X135066326Y-118066266D01*
X135272480Y-117970134D01*
X135345472Y-117919025D01*
X134620001Y-117193553D01*
X134620000Y-117193553D01*
X133894526Y-117919025D01*
X133894526Y-117919026D01*
X131399808Y-117919026D01*
X131354164Y-117707235D01*
X131322367Y-117628107D01*
X131313430Y-117581002D01*
X131323034Y-117534022D01*
X131349743Y-117494201D01*
X132003944Y-116840000D01*
X133315033Y-116840000D01*
X133334858Y-117066602D01*
X133393733Y-117286326D01*
X133489866Y-117492484D01*
X133540972Y-117565471D01*
X133540974Y-117565472D01*
X134266446Y-116840001D01*
X134266446Y-116840000D01*
X133540973Y-116114526D01*
X133540973Y-116114527D01*
X133489865Y-116187516D01*
X133393733Y-116393672D01*
X133334858Y-116613397D01*
X133315033Y-116840000D01*
X132003944Y-116840000D01*
X133410849Y-115433095D01*
X133472001Y-115399649D01*
X133541536Y-115404476D01*
X133597479Y-115446049D01*
X133673113Y-115546204D01*
X133729020Y-115620238D01*
X133778278Y-115665142D01*
X133893438Y-115770124D01*
X133908093Y-115779198D01*
X133908098Y-115779201D01*
X133930500Y-115796946D01*
X134620000Y-116486446D01*
X134620001Y-116486446D01*
X135309497Y-115796947D01*
X135331898Y-115779203D01*
X135346562Y-115770124D01*
X135510981Y-115620236D01*
X135645058Y-115442689D01*
X135744229Y-115243528D01*
X135745427Y-115239314D01*
X135778028Y-115184559D01*
X135833521Y-115153225D01*
X135897248Y-115153592D01*
G37*
G04 #@! TD.AperFunction*
G04 #@! TA.AperFunction,Conductor*
G36*
X150859500Y-108533113D02*
G01*
X150904887Y-108578500D01*
X150921500Y-108640500D01*
X150921500Y-109763869D01*
X150927909Y-109823484D01*
X150978204Y-109958332D01*
X151053589Y-110059034D01*
X151076605Y-110112781D01*
X151072434Y-110171100D01*
X151042003Y-110221025D01*
X150749019Y-110514010D01*
X150708794Y-110540888D01*
X150661341Y-110550327D01*
X145913981Y-110550327D01*
X145866528Y-110540888D01*
X145826300Y-110514008D01*
X145535944Y-110223652D01*
X145505919Y-110174975D01*
X145500934Y-110118000D01*
X145522050Y-110064848D01*
X145656567Y-109872735D01*
X145656568Y-109872734D01*
X145752739Y-109666496D01*
X145811635Y-109446692D01*
X145831468Y-109220000D01*
X145811635Y-108993308D01*
X145752739Y-108773504D01*
X145715155Y-108692905D01*
X145703802Y-108632390D01*
X145722956Y-108573875D01*
X145767894Y-108531786D01*
X145827537Y-108516500D01*
X150797500Y-108516500D01*
X150859500Y-108533113D01*
G37*
G04 #@! TD.AperFunction*
G04 #@! TA.AperFunction,Conductor*
G36*
X160195621Y-108025939D02*
G01*
X160235849Y-108052819D01*
X160537181Y-108354151D01*
X160564061Y-108394379D01*
X160573500Y-108441832D01*
X160573500Y-108976000D01*
X160573501Y-109461500D01*
X160556888Y-109523500D01*
X160511501Y-109568887D01*
X160449501Y-109585500D01*
X159608808Y-109585500D01*
X159561355Y-109576061D01*
X159521127Y-109549181D01*
X159059966Y-109088020D01*
X159033086Y-109047792D01*
X159023647Y-109000339D01*
X159023647Y-108792320D01*
X159023963Y-108783473D01*
X159028789Y-108715999D01*
X159023642Y-108644039D01*
X159005304Y-108516500D01*
X159003180Y-108501723D01*
X158987844Y-108431227D01*
X158962632Y-108363630D01*
X158912301Y-108253421D01*
X158902903Y-108232842D01*
X158886641Y-108207538D01*
X158867036Y-108144925D01*
X158882125Y-108081073D01*
X158927684Y-108033858D01*
X158990957Y-108016500D01*
X160148168Y-108016500D01*
X160195621Y-108025939D01*
G37*
G04 #@! TD.AperFunction*
G04 #@! TA.AperFunction,Conductor*
G36*
X155655500Y-108533113D02*
G01*
X155700887Y-108578500D01*
X155717500Y-108640500D01*
X155717501Y-109291500D01*
X155700888Y-109353500D01*
X155655501Y-109398887D01*
X155593501Y-109415500D01*
X154642808Y-109415500D01*
X154595355Y-109406061D01*
X154555127Y-109379181D01*
X154263966Y-109088020D01*
X154237086Y-109047792D01*
X154227647Y-109000339D01*
X154227647Y-108792320D01*
X154227963Y-108783473D01*
X154232789Y-108715999D01*
X154228022Y-108649346D01*
X154241490Y-108583680D01*
X154287168Y-108534619D01*
X154351706Y-108516500D01*
X155593500Y-108516500D01*
X155655500Y-108533113D01*
G37*
G04 #@! TD.AperFunction*
G04 #@! TA.AperFunction,Conductor*
G36*
X173739032Y-105410649D02*
G01*
X173741828Y-105410786D01*
X173888663Y-105417999D01*
X174111097Y-105429658D01*
X174122757Y-105430825D01*
X174298923Y-105456957D01*
X174299840Y-105457098D01*
X174493424Y-105487758D01*
X174504111Y-105489938D01*
X174681944Y-105534483D01*
X174683696Y-105534938D01*
X174867842Y-105584279D01*
X174877513Y-105587301D01*
X175052097Y-105649768D01*
X175054743Y-105650748D01*
X175230560Y-105718238D01*
X175239091Y-105721886D01*
X175407811Y-105801685D01*
X175410954Y-105803228D01*
X175577803Y-105888242D01*
X175585239Y-105892359D01*
X175745823Y-105988610D01*
X175749530Y-105990923D01*
X175906016Y-106092546D01*
X175912337Y-106096937D01*
X176062991Y-106208669D01*
X176067161Y-106211901D01*
X176211861Y-106329077D01*
X176217098Y-106333565D01*
X176356185Y-106459626D01*
X176360593Y-106463823D01*
X176492175Y-106595405D01*
X176496372Y-106599813D01*
X176622433Y-106738900D01*
X176626921Y-106744137D01*
X176744097Y-106888837D01*
X176747329Y-106893007D01*
X176859061Y-107043661D01*
X176863458Y-107049991D01*
X176965057Y-107206439D01*
X176967406Y-107210204D01*
X177063634Y-107370751D01*
X177067761Y-107378205D01*
X177152750Y-107545005D01*
X177154341Y-107548245D01*
X177234097Y-107716873D01*
X177237766Y-107725453D01*
X177305243Y-107901238D01*
X177306230Y-107903901D01*
X177368697Y-108078485D01*
X177371721Y-108088165D01*
X177421033Y-108272198D01*
X177421542Y-108274162D01*
X177466055Y-108451866D01*
X177468244Y-108462598D01*
X177498874Y-108655991D01*
X177499059Y-108657194D01*
X177525170Y-108833220D01*
X177526342Y-108844925D01*
X177537992Y-109067222D01*
X177537889Y-109067227D01*
X177538014Y-109067627D01*
X177545351Y-109216967D01*
X177545500Y-109223052D01*
X177545500Y-129536948D01*
X177545351Y-129543033D01*
X177538017Y-129692303D01*
X177537996Y-129692708D01*
X177526342Y-129915073D01*
X177525170Y-129926778D01*
X177499059Y-130102804D01*
X177498874Y-130104007D01*
X177468244Y-130297400D01*
X177466055Y-130308132D01*
X177421542Y-130485836D01*
X177421033Y-130487800D01*
X177371721Y-130671833D01*
X177368697Y-130681513D01*
X177306230Y-130856097D01*
X177305243Y-130858760D01*
X177237766Y-131034545D01*
X177234097Y-131043125D01*
X177154360Y-131211715D01*
X177152750Y-131214993D01*
X177067761Y-131381793D01*
X177063634Y-131389247D01*
X176967406Y-131549794D01*
X176965043Y-131553581D01*
X176863458Y-131710007D01*
X176859061Y-131716337D01*
X176747329Y-131866991D01*
X176744097Y-131871161D01*
X176626921Y-132015861D01*
X176622433Y-132021098D01*
X176496372Y-132160185D01*
X176492175Y-132164593D01*
X176360593Y-132296175D01*
X176356185Y-132300372D01*
X176217098Y-132426433D01*
X176211861Y-132430921D01*
X176067161Y-132548097D01*
X176062991Y-132551329D01*
X175912337Y-132663061D01*
X175906007Y-132667458D01*
X175749581Y-132769043D01*
X175745794Y-132771406D01*
X175585247Y-132867634D01*
X175577793Y-132871761D01*
X175410993Y-132956750D01*
X175407715Y-132958360D01*
X175239125Y-133038097D01*
X175230545Y-133041766D01*
X175054760Y-133109243D01*
X175052097Y-133110230D01*
X174877513Y-133172697D01*
X174867833Y-133175721D01*
X174683800Y-133225033D01*
X174681836Y-133225542D01*
X174504132Y-133270055D01*
X174493400Y-133272244D01*
X174300007Y-133302874D01*
X174298804Y-133303059D01*
X174122778Y-133329170D01*
X174111073Y-133330342D01*
X173888708Y-133341996D01*
X173888303Y-133342017D01*
X173739033Y-133349351D01*
X173732948Y-133349500D01*
X127257052Y-133349500D01*
X127250967Y-133349351D01*
X127101695Y-133342017D01*
X127101290Y-133341996D01*
X126878925Y-133330342D01*
X126867220Y-133329170D01*
X126691194Y-133303059D01*
X126689991Y-133302874D01*
X126496598Y-133272244D01*
X126485866Y-133270055D01*
X126308162Y-133225542D01*
X126306198Y-133225033D01*
X126122165Y-133175721D01*
X126112485Y-133172697D01*
X125937901Y-133110230D01*
X125935238Y-133109243D01*
X125759453Y-133041766D01*
X125750883Y-133038101D01*
X125582245Y-132958341D01*
X125579005Y-132956750D01*
X125412205Y-132871761D01*
X125404751Y-132867634D01*
X125244204Y-132771406D01*
X125240439Y-132769057D01*
X125083991Y-132667458D01*
X125077661Y-132663061D01*
X124927007Y-132551329D01*
X124922837Y-132548097D01*
X124778137Y-132430921D01*
X124772900Y-132426433D01*
X124633813Y-132300372D01*
X124629405Y-132296175D01*
X124497823Y-132164593D01*
X124493626Y-132160185D01*
X124367565Y-132021098D01*
X124363077Y-132015861D01*
X124245901Y-131871161D01*
X124242669Y-131866991D01*
X124130937Y-131716337D01*
X124126540Y-131710007D01*
X124024923Y-131553530D01*
X124022610Y-131549823D01*
X123926359Y-131389239D01*
X123922237Y-131381793D01*
X123906577Y-131351058D01*
X123837228Y-131214954D01*
X123835685Y-131211811D01*
X123755886Y-131043091D01*
X123752238Y-131034560D01*
X123684748Y-130858743D01*
X123683768Y-130856097D01*
X123621301Y-130681513D01*
X123618277Y-130671833D01*
X123617822Y-130670134D01*
X123568938Y-130487696D01*
X123568483Y-130485944D01*
X123523938Y-130308111D01*
X123521758Y-130297424D01*
X123491098Y-130103840D01*
X123490957Y-130102923D01*
X123464825Y-129926757D01*
X123463658Y-129915097D01*
X123451999Y-129692663D01*
X123447829Y-129607764D01*
X125399787Y-129607764D01*
X125429413Y-129877016D01*
X125463998Y-130009304D01*
X125497928Y-130139088D01*
X125565214Y-130297424D01*
X125603871Y-130388392D01*
X125744982Y-130619611D01*
X125918253Y-130827818D01*
X125918255Y-130827820D01*
X126119998Y-131008582D01*
X126345910Y-131158044D01*
X126452211Y-131207876D01*
X126591177Y-131273021D01*
X126848581Y-131350462D01*
X126850569Y-131351060D01*
X127118561Y-131390500D01*
X127321631Y-131390500D01*
X127321634Y-131390500D01*
X127524156Y-131375677D01*
X127524156Y-131375676D01*
X127788553Y-131316780D01*
X128041558Y-131220014D01*
X128277777Y-131087441D01*
X128492177Y-130921888D01*
X128680186Y-130726881D01*
X128837799Y-130506579D01*
X128961656Y-130265675D01*
X129049118Y-130009305D01*
X129098319Y-129742933D01*
X129108212Y-129472235D01*
X129078586Y-129202982D01*
X129010072Y-128940912D01*
X128904130Y-128691610D01*
X128763018Y-128460390D01*
X128763017Y-128460388D01*
X128589746Y-128252181D01*
X128484758Y-128158112D01*
X128388002Y-128071418D01*
X128162090Y-127921956D01*
X128162086Y-127921954D01*
X127916822Y-127806978D01*
X127657437Y-127728941D01*
X127657431Y-127728940D01*
X127389439Y-127689500D01*
X127186369Y-127689500D01*
X127186366Y-127689500D01*
X126983843Y-127704322D01*
X126719449Y-127763219D01*
X126466441Y-127859986D01*
X126230223Y-127992559D01*
X126015825Y-128158109D01*
X125827813Y-128353120D01*
X125670201Y-128573420D01*
X125546342Y-128814329D01*
X125458881Y-129070695D01*
X125409680Y-129337066D01*
X125399787Y-129607764D01*
X123447829Y-129607764D01*
X123444649Y-129543032D01*
X123444500Y-129536949D01*
X123444500Y-123440000D01*
X128219001Y-123440000D01*
X128219001Y-123859979D01*
X128229493Y-123962695D01*
X128284642Y-124129122D01*
X128376683Y-124278345D01*
X128500654Y-124402316D01*
X128649877Y-124494357D01*
X128816303Y-124549506D01*
X128919021Y-124560000D01*
X129564000Y-124560000D01*
X129564000Y-123440000D01*
X128219001Y-123440000D01*
X123444500Y-123440000D01*
X123444500Y-120591627D01*
X128214784Y-120591627D01*
X128224685Y-120824704D01*
X128273836Y-121052767D01*
X128360819Y-121269231D01*
X128360821Y-121269235D01*
X128483138Y-121467891D01*
X128595165Y-121595179D01*
X128637270Y-121643019D01*
X128677230Y-121675285D01*
X128715557Y-121728546D01*
X128721337Y-121793908D01*
X128692953Y-121853069D01*
X128660256Y-121874861D01*
X128662213Y-121878034D01*
X128500654Y-121977683D01*
X128376683Y-122101654D01*
X128284642Y-122250877D01*
X128229493Y-122417303D01*
X128219000Y-122520021D01*
X128219000Y-122940000D01*
X129940000Y-122940000D01*
X130002000Y-122956613D01*
X130047387Y-123002000D01*
X130064000Y-123064000D01*
X130064000Y-124559999D01*
X130708979Y-124559999D01*
X130811695Y-124549506D01*
X130978122Y-124494357D01*
X131127345Y-124402316D01*
X131251316Y-124278345D01*
X131343357Y-124129122D01*
X131398506Y-123962696D01*
X131408999Y-123859979D01*
X131408999Y-123464307D01*
X131422514Y-123408012D01*
X131460113Y-123363989D01*
X131513601Y-123341834D01*
X131571317Y-123346376D01*
X131620680Y-123376626D01*
X133933181Y-125689127D01*
X133960061Y-125729355D01*
X133969500Y-125776808D01*
X133969500Y-130493713D01*
X133953829Y-130554052D01*
X133910777Y-130599140D01*
X133893437Y-130609876D01*
X133729019Y-130759762D01*
X133594941Y-130937311D01*
X133495769Y-131136473D01*
X133434885Y-131350462D01*
X133414357Y-131572000D01*
X133434885Y-131793537D01*
X133495769Y-132007526D01*
X133594941Y-132206688D01*
X133729019Y-132384237D01*
X133893437Y-132534124D01*
X134082595Y-132651245D01*
X134082597Y-132651245D01*
X134082599Y-132651247D01*
X134290060Y-132731618D01*
X134508757Y-132772500D01*
X134731241Y-132772500D01*
X134731243Y-132772500D01*
X134949940Y-132731618D01*
X135157401Y-132651247D01*
X135346562Y-132534124D01*
X135510981Y-132384236D01*
X135645058Y-132206689D01*
X135744229Y-132007528D01*
X135805115Y-131793536D01*
X135825643Y-131572000D01*
X135805115Y-131350464D01*
X135767999Y-131220014D01*
X135744230Y-131136473D01*
X135645058Y-130937311D01*
X135510980Y-130759762D01*
X135346562Y-130609876D01*
X135329223Y-130599140D01*
X135286171Y-130554052D01*
X135270500Y-130493713D01*
X135270500Y-129790000D01*
X135627128Y-129790000D01*
X135679733Y-129986326D01*
X135775865Y-130192480D01*
X135906341Y-130378819D01*
X136067180Y-130539658D01*
X136253519Y-130670134D01*
X136459673Y-130766266D01*
X136655999Y-130818871D01*
X136656000Y-130818872D01*
X136656000Y-129790000D01*
X137156000Y-129790000D01*
X137156000Y-130818871D01*
X137352326Y-130766266D01*
X137558480Y-130670134D01*
X137744819Y-130539658D01*
X137905658Y-130378819D01*
X138036134Y-130192480D01*
X138132266Y-129986326D01*
X138184872Y-129790000D01*
X137156000Y-129790000D01*
X136656000Y-129790000D01*
X135627128Y-129790000D01*
X135270500Y-129790000D01*
X135270500Y-125541504D01*
X135272841Y-125520294D01*
X135270561Y-125447737D01*
X135270500Y-125443842D01*
X135270500Y-125415081D01*
X135270500Y-125415075D01*
X135269946Y-125410695D01*
X135269030Y-125399054D01*
X135267597Y-125353430D01*
X135261675Y-125333047D01*
X135257732Y-125314010D01*
X135255071Y-125292942D01*
X135238266Y-125250498D01*
X135234481Y-125239444D01*
X135221744Y-125195602D01*
X135221744Y-125195601D01*
X135210934Y-125177322D01*
X135202382Y-125159867D01*
X135194568Y-125140129D01*
X135194565Y-125140125D01*
X135190818Y-125130660D01*
X135182585Y-125074180D01*
X135200524Y-125019995D01*
X135240832Y-124979588D01*
X135346562Y-124914124D01*
X135465014Y-124806140D01*
X135520624Y-124776964D01*
X135583400Y-124778776D01*
X135637237Y-124811114D01*
X135668324Y-124865683D01*
X135679259Y-124906493D01*
X135775432Y-125112735D01*
X135905953Y-125299140D01*
X136066859Y-125460046D01*
X136253263Y-125590566D01*
X136253266Y-125590568D01*
X136311275Y-125617618D01*
X136363450Y-125663375D01*
X136382869Y-125730000D01*
X136363450Y-125796625D01*
X136311275Y-125842382D01*
X136253263Y-125869433D01*
X136066859Y-125999953D01*
X135905953Y-126160859D01*
X135775432Y-126347264D01*
X135679261Y-126553502D01*
X135620364Y-126773310D01*
X135600531Y-126999999D01*
X135620364Y-127226689D01*
X135679261Y-127446497D01*
X135775432Y-127652735D01*
X135905953Y-127839140D01*
X136066859Y-128000046D01*
X136253264Y-128130567D01*
X136253265Y-128130567D01*
X136253266Y-128130568D01*
X136311865Y-128157893D01*
X136364040Y-128203650D01*
X136383460Y-128270274D01*
X136364041Y-128336899D01*
X136311866Y-128382656D01*
X136253522Y-128409863D01*
X136067180Y-128540341D01*
X135906341Y-128701180D01*
X135775865Y-128887519D01*
X135679733Y-129093673D01*
X135627128Y-129289999D01*
X135627128Y-129290000D01*
X138184872Y-129290000D01*
X138184871Y-129289999D01*
X138132266Y-129093673D01*
X138036134Y-128887519D01*
X137905658Y-128701180D01*
X137744819Y-128540341D01*
X137558482Y-128409866D01*
X137500133Y-128382657D01*
X137447958Y-128336899D01*
X137428539Y-128270274D01*
X137447959Y-128203649D01*
X137500134Y-128157893D01*
X137558734Y-128130568D01*
X137745139Y-128000047D01*
X137906047Y-127839139D01*
X138036568Y-127652734D01*
X138132739Y-127446496D01*
X138191635Y-127226692D01*
X138211468Y-127000000D01*
X138191635Y-126773308D01*
X138132739Y-126553504D01*
X138036568Y-126347266D01*
X138028539Y-126335800D01*
X137906046Y-126160859D01*
X137745140Y-125999953D01*
X137558733Y-125869431D01*
X137500725Y-125842382D01*
X137448549Y-125796625D01*
X137429129Y-125730000D01*
X137448549Y-125663375D01*
X137500725Y-125617618D01*
X137558734Y-125590568D01*
X137745139Y-125460047D01*
X137906047Y-125299139D01*
X138036568Y-125112734D01*
X138132739Y-124906496D01*
X138191635Y-124686692D01*
X138211468Y-124460000D01*
X138191635Y-124233308D01*
X138132739Y-124013504D01*
X138036568Y-123807266D01*
X138021377Y-123785571D01*
X137906046Y-123620859D01*
X137745140Y-123459953D01*
X137558732Y-123329430D01*
X137500724Y-123302380D01*
X137448549Y-123256623D01*
X137429130Y-123189997D01*
X137448550Y-123123373D01*
X137500721Y-123077619D01*
X137558734Y-123050568D01*
X137745139Y-122920047D01*
X137906047Y-122759139D01*
X138036568Y-122572734D01*
X138132739Y-122366496D01*
X138191635Y-122146692D01*
X138211468Y-121920000D01*
X138191635Y-121693308D01*
X138132739Y-121473504D01*
X138036568Y-121267266D01*
X138026129Y-121252358D01*
X137906046Y-121080859D01*
X137745140Y-120919953D01*
X137558733Y-120789431D01*
X137500725Y-120762382D01*
X137448549Y-120716625D01*
X137429129Y-120650000D01*
X137448549Y-120583375D01*
X137500725Y-120537618D01*
X137558734Y-120510568D01*
X137745139Y-120380047D01*
X137906047Y-120219139D01*
X138036568Y-120032734D01*
X138132739Y-119826496D01*
X138191635Y-119606692D01*
X138211468Y-119380000D01*
X138191635Y-119153308D01*
X138180790Y-119112834D01*
X138180790Y-119048648D01*
X138212882Y-118993062D01*
X138575513Y-118630431D01*
X138592162Y-118617094D01*
X138593936Y-118615204D01*
X138593940Y-118615202D01*
X138641898Y-118564130D01*
X138644546Y-118561398D01*
X138664911Y-118541035D01*
X138667611Y-118537552D01*
X138675187Y-118528681D01*
X138706448Y-118495393D01*
X138716675Y-118476787D01*
X138727348Y-118460539D01*
X138740362Y-118443764D01*
X138758495Y-118401857D01*
X138763625Y-118391387D01*
X138785627Y-118351368D01*
X138790903Y-118330813D01*
X138797206Y-118312402D01*
X138805635Y-118292927D01*
X138812777Y-118247825D01*
X138815140Y-118236418D01*
X138826500Y-118192177D01*
X138826500Y-118170949D01*
X138828027Y-118151550D01*
X138829070Y-118144966D01*
X138831346Y-118130595D01*
X138827050Y-118085148D01*
X138826500Y-118073479D01*
X138826500Y-116804462D01*
X138835939Y-116757009D01*
X138862819Y-116716781D01*
X139942975Y-115636625D01*
X143197524Y-112382074D01*
X143247912Y-112351497D01*
X143306729Y-112347640D01*
X143360682Y-112371375D01*
X143387634Y-112404950D01*
X143389210Y-112403848D01*
X143525953Y-112599140D01*
X143686859Y-112760046D01*
X143853783Y-112876926D01*
X143873266Y-112890568D01*
X143931275Y-112917618D01*
X143983450Y-112963375D01*
X144002869Y-113030000D01*
X143983450Y-113096625D01*
X143931275Y-113142381D01*
X143915105Y-113149922D01*
X143873263Y-113169433D01*
X143686859Y-113299953D01*
X143525953Y-113460859D01*
X143395432Y-113647264D01*
X143299261Y-113853502D01*
X143240364Y-114073310D01*
X143220531Y-114299999D01*
X143240364Y-114526689D01*
X143299261Y-114746497D01*
X143395432Y-114952735D01*
X143525953Y-115139140D01*
X143686859Y-115300046D01*
X143836002Y-115404476D01*
X143873266Y-115430568D01*
X143931275Y-115457618D01*
X143983450Y-115503375D01*
X144002869Y-115570000D01*
X143983450Y-115636625D01*
X143931275Y-115682382D01*
X143873263Y-115709433D01*
X143686859Y-115839953D01*
X143525953Y-116000859D01*
X143395432Y-116187264D01*
X143299261Y-116393502D01*
X143240364Y-116613310D01*
X143220531Y-116839999D01*
X143240364Y-117066689D01*
X143299261Y-117286497D01*
X143395432Y-117492735D01*
X143529949Y-117684848D01*
X143551065Y-117738000D01*
X143546080Y-117794975D01*
X143516055Y-117843652D01*
X142976485Y-118383221D01*
X142959833Y-118396562D01*
X142910133Y-118449487D01*
X142907427Y-118452280D01*
X142887083Y-118472625D01*
X142884376Y-118476114D01*
X142876807Y-118484975D01*
X142845551Y-118518261D01*
X142835322Y-118536866D01*
X142824645Y-118553121D01*
X142811636Y-118569892D01*
X142793506Y-118611786D01*
X142788370Y-118622270D01*
X142766372Y-118662286D01*
X142761091Y-118682853D01*
X142754791Y-118701254D01*
X142746364Y-118720728D01*
X142739223Y-118765815D01*
X142736855Y-118777247D01*
X142728838Y-118808478D01*
X142725500Y-118821478D01*
X142725500Y-118842699D01*
X142723973Y-118862098D01*
X142720653Y-118883057D01*
X142724950Y-118928515D01*
X142725500Y-118940184D01*
X142725500Y-125764495D01*
X142723158Y-125785704D01*
X142725439Y-125858262D01*
X142725500Y-125862157D01*
X142725500Y-125890926D01*
X142726053Y-125895307D01*
X142726968Y-125906940D01*
X142728402Y-125952569D01*
X142734323Y-125972950D01*
X142738267Y-125991995D01*
X142740928Y-126013059D01*
X142757737Y-126055515D01*
X142761520Y-126066563D01*
X142774256Y-126110400D01*
X142785061Y-126128670D01*
X142793621Y-126146143D01*
X142801431Y-126165869D01*
X142828267Y-126202808D01*
X142834673Y-126212560D01*
X142857919Y-126251865D01*
X142857921Y-126251866D01*
X142857921Y-126251867D01*
X142872925Y-126266871D01*
X142885564Y-126281669D01*
X142898037Y-126298837D01*
X142933212Y-126327936D01*
X142941854Y-126335800D01*
X143219115Y-126613061D01*
X143251209Y-126668648D01*
X143251209Y-126732834D01*
X143240364Y-126773307D01*
X143220531Y-127000000D01*
X143240364Y-127226689D01*
X143299261Y-127446497D01*
X143395432Y-127652735D01*
X143525953Y-127839140D01*
X143686859Y-128000046D01*
X143792642Y-128074115D01*
X143873266Y-128130568D01*
X143931273Y-128157617D01*
X143983449Y-128203373D01*
X144002869Y-128269997D01*
X143983451Y-128336622D01*
X143931276Y-128382380D01*
X143873266Y-128409431D01*
X143686859Y-128539953D01*
X143525953Y-128700859D01*
X143395432Y-128887264D01*
X143299261Y-129093502D01*
X143240364Y-129313310D01*
X143220531Y-129539999D01*
X143240364Y-129766689D01*
X143299261Y-129986497D01*
X143395432Y-130192735D01*
X143525953Y-130379140D01*
X143686859Y-130540046D01*
X143873264Y-130670567D01*
X143873265Y-130670567D01*
X143873266Y-130670568D01*
X144079504Y-130766739D01*
X144299308Y-130825635D01*
X144526000Y-130845468D01*
X144752692Y-130825635D01*
X144972496Y-130766739D01*
X145178734Y-130670568D01*
X145365139Y-130540047D01*
X145526047Y-130379139D01*
X145656568Y-130192734D01*
X145752739Y-129986496D01*
X145811635Y-129766692D01*
X145825539Y-129607764D01*
X171881787Y-129607764D01*
X171911413Y-129877016D01*
X171945998Y-130009304D01*
X171979928Y-130139088D01*
X172047214Y-130297424D01*
X172085871Y-130388392D01*
X172226982Y-130619611D01*
X172400253Y-130827818D01*
X172400255Y-130827820D01*
X172601998Y-131008582D01*
X172827910Y-131158044D01*
X172934211Y-131207876D01*
X173073177Y-131273021D01*
X173330581Y-131350462D01*
X173332569Y-131351060D01*
X173600561Y-131390500D01*
X173803631Y-131390500D01*
X173803634Y-131390500D01*
X174006156Y-131375677D01*
X174006156Y-131375676D01*
X174270553Y-131316780D01*
X174523558Y-131220014D01*
X174759777Y-131087441D01*
X174974177Y-130921888D01*
X175162186Y-130726881D01*
X175319799Y-130506579D01*
X175443656Y-130265675D01*
X175531118Y-130009305D01*
X175580319Y-129742933D01*
X175590212Y-129472235D01*
X175560586Y-129202982D01*
X175492072Y-128940912D01*
X175386130Y-128691610D01*
X175245018Y-128460390D01*
X175245017Y-128460388D01*
X175071746Y-128252181D01*
X174966758Y-128158112D01*
X174870002Y-128071418D01*
X174644090Y-127921956D01*
X174644086Y-127921954D01*
X174398822Y-127806978D01*
X174139437Y-127728941D01*
X174139431Y-127728940D01*
X173871439Y-127689500D01*
X173668369Y-127689500D01*
X173668366Y-127689500D01*
X173465843Y-127704322D01*
X173201449Y-127763219D01*
X172948441Y-127859986D01*
X172712223Y-127992559D01*
X172497825Y-128158109D01*
X172309813Y-128353120D01*
X172152201Y-128573420D01*
X172028342Y-128814329D01*
X171940881Y-129070695D01*
X171891680Y-129337066D01*
X171881787Y-129607764D01*
X145825539Y-129607764D01*
X145831468Y-129540000D01*
X145811635Y-129313308D01*
X145752739Y-129093504D01*
X145656568Y-128887266D01*
X145605497Y-128814329D01*
X145526046Y-128700859D01*
X145365140Y-128539953D01*
X145178733Y-128409431D01*
X145120725Y-128382382D01*
X145068549Y-128336625D01*
X145049129Y-128270000D01*
X145068549Y-128203375D01*
X145120725Y-128157618D01*
X145178734Y-128130568D01*
X145259358Y-128074115D01*
X147594436Y-128074115D01*
X147736958Y-128180806D01*
X147988047Y-128317911D01*
X148256097Y-128417888D01*
X148535642Y-128478699D01*
X148821000Y-128499109D01*
X149106357Y-128478699D01*
X149385902Y-128417888D01*
X149653952Y-128317911D01*
X149905041Y-128180806D01*
X150047562Y-128074115D01*
X163134436Y-128074115D01*
X163276958Y-128180806D01*
X163528047Y-128317911D01*
X163796097Y-128417888D01*
X164075642Y-128478699D01*
X164361000Y-128499109D01*
X164646357Y-128478699D01*
X164925902Y-128417888D01*
X165193952Y-128317911D01*
X165445041Y-128180806D01*
X165587562Y-128074115D01*
X164361001Y-126847553D01*
X164361000Y-126847553D01*
X163134436Y-128074115D01*
X150047562Y-128074115D01*
X148821001Y-126847553D01*
X148821000Y-126847553D01*
X147594436Y-128074115D01*
X145259358Y-128074115D01*
X145365139Y-128000047D01*
X145526047Y-127839139D01*
X145656568Y-127652734D01*
X145752739Y-127446496D01*
X145811635Y-127226692D01*
X145831468Y-127000000D01*
X145811635Y-126773308D01*
X145800790Y-126732834D01*
X145800790Y-126668648D01*
X145832882Y-126613062D01*
X145951944Y-126494000D01*
X146815890Y-126494000D01*
X146836300Y-126779357D01*
X146897111Y-127058902D01*
X146997088Y-127326952D01*
X147134193Y-127578042D01*
X147240883Y-127720562D01*
X148467446Y-126494000D01*
X147240883Y-125267436D01*
X147240882Y-125267437D01*
X147134195Y-125409954D01*
X146997088Y-125661047D01*
X146897111Y-125929097D01*
X146836300Y-126208642D01*
X146815890Y-126494000D01*
X145951944Y-126494000D01*
X146075513Y-126370431D01*
X146092162Y-126357094D01*
X146093936Y-126355204D01*
X146093940Y-126355202D01*
X146141898Y-126304130D01*
X146144546Y-126301398D01*
X146164912Y-126281034D01*
X146167612Y-126277551D01*
X146175188Y-126268680D01*
X146206448Y-126235393D01*
X146216672Y-126216793D01*
X146227351Y-126200536D01*
X146240363Y-126183763D01*
X146258498Y-126141852D01*
X146263633Y-126131374D01*
X146285626Y-126091370D01*
X146290903Y-126070815D01*
X146297208Y-126052399D01*
X146305636Y-126032926D01*
X146312778Y-125987824D01*
X146315143Y-125976405D01*
X146326500Y-125932177D01*
X146326500Y-125910955D01*
X146328027Y-125891556D01*
X146328127Y-125890925D01*
X146331347Y-125870595D01*
X146327049Y-125825136D01*
X146326500Y-125813469D01*
X146326500Y-124900808D01*
X146335939Y-124853355D01*
X146362819Y-124813127D01*
X146872095Y-124303851D01*
X149496018Y-121679925D01*
X149553727Y-121647284D01*
X149620003Y-121649042D01*
X149757291Y-121691086D01*
X149813636Y-121727245D01*
X149842972Y-121787428D01*
X149836742Y-121854089D01*
X149796765Y-121907795D01*
X149621095Y-122043442D01*
X149430545Y-122241083D01*
X149270802Y-122464364D01*
X149145272Y-122708521D01*
X149056629Y-122968352D01*
X149006763Y-123238325D01*
X148996737Y-123512678D01*
X149026763Y-123785569D01*
X149032890Y-123809005D01*
X149096204Y-124051182D01*
X149203577Y-124303852D01*
X149213736Y-124320498D01*
X149231889Y-124385043D01*
X149213788Y-124449603D01*
X149164724Y-124495301D01*
X149099043Y-124508777D01*
X148821000Y-124488890D01*
X148535642Y-124509300D01*
X148256097Y-124570111D01*
X147988047Y-124670088D01*
X147736954Y-124807195D01*
X147594437Y-124913882D01*
X147594436Y-124913882D01*
X148821000Y-126140447D01*
X150401115Y-127720562D01*
X150507806Y-127578041D01*
X150644911Y-127326952D01*
X150744888Y-127058902D01*
X150805699Y-126779357D01*
X150826109Y-126494000D01*
X150805699Y-126208642D01*
X150744888Y-125929097D01*
X150644911Y-125661047D01*
X150553131Y-125492964D01*
X150538146Y-125426797D01*
X150560225Y-125362647D01*
X150612757Y-125319718D01*
X150680017Y-125310859D01*
X150713284Y-125315754D01*
X150738729Y-125319500D01*
X150738731Y-125319500D01*
X150944547Y-125319500D01*
X150944551Y-125319500D01*
X151149805Y-125304477D01*
X151149804Y-125304477D01*
X151417775Y-125244784D01*
X151674198Y-125146711D01*
X151913609Y-125012347D01*
X152130904Y-124844557D01*
X152321454Y-124646916D01*
X152481196Y-124423637D01*
X152606727Y-124179479D01*
X152665366Y-124007594D01*
X152695370Y-123919647D01*
X152745236Y-123649674D01*
X152755262Y-123375321D01*
X152752105Y-123346633D01*
X152725236Y-123102429D01*
X152655796Y-122836818D01*
X152548423Y-122584148D01*
X152405405Y-122349804D01*
X152229791Y-122138782D01*
X152025323Y-121955577D01*
X151796359Y-121804096D01*
X151547779Y-121687567D01*
X151284881Y-121608473D01*
X151284880Y-121608472D01*
X151284874Y-121608471D01*
X151115202Y-121583500D01*
X151052001Y-121554489D01*
X151014357Y-121496017D01*
X151014108Y-121426476D01*
X151051332Y-121367740D01*
X151107018Y-121318731D01*
X151253578Y-121137220D01*
X151274025Y-121100618D01*
X151276103Y-121096899D01*
X151319342Y-121051783D01*
X151379094Y-121033484D01*
X151440182Y-121046649D01*
X151487092Y-121087935D01*
X151495217Y-121099957D01*
X151583847Y-121231088D01*
X151745272Y-121399516D01*
X151932839Y-121538240D01*
X152141153Y-121643270D01*
X152364220Y-121711583D01*
X152595624Y-121741216D01*
X152828707Y-121731314D01*
X153056765Y-121682164D01*
X153273235Y-121595179D01*
X153471891Y-121472862D01*
X153647018Y-121318731D01*
X153793578Y-121137220D01*
X153814025Y-121100618D01*
X153816103Y-121096899D01*
X153859342Y-121051783D01*
X153919094Y-121033484D01*
X153980182Y-121046649D01*
X154027092Y-121087935D01*
X154035217Y-121099957D01*
X154123847Y-121231088D01*
X154285272Y-121399516D01*
X154472839Y-121538240D01*
X154681153Y-121643270D01*
X154904220Y-121711583D01*
X155135624Y-121741216D01*
X155368707Y-121731314D01*
X155596765Y-121682164D01*
X155813235Y-121595179D01*
X156011891Y-121472862D01*
X156187018Y-121318731D01*
X156333578Y-121137220D01*
X156354025Y-121100618D01*
X156356103Y-121096899D01*
X156399342Y-121051783D01*
X156459094Y-121033484D01*
X156520182Y-121046649D01*
X156567092Y-121087935D01*
X156575217Y-121099957D01*
X156663847Y-121231088D01*
X156825272Y-121399516D01*
X157012839Y-121538240D01*
X157221153Y-121643270D01*
X157444220Y-121711583D01*
X157675624Y-121741216D01*
X157908707Y-121731314D01*
X158136765Y-121682164D01*
X158353235Y-121595179D01*
X158551891Y-121472862D01*
X158727018Y-121318731D01*
X158873578Y-121137220D01*
X158894025Y-121100618D01*
X158896103Y-121096899D01*
X158939342Y-121051783D01*
X158999094Y-121033484D01*
X159060182Y-121046649D01*
X159107092Y-121087935D01*
X159115217Y-121099957D01*
X159203847Y-121231088D01*
X159365272Y-121399516D01*
X159552839Y-121538240D01*
X159761153Y-121643270D01*
X159984220Y-121711583D01*
X160215624Y-121741216D01*
X160448707Y-121731314D01*
X160676765Y-121682164D01*
X160893235Y-121595179D01*
X161091891Y-121472862D01*
X161267018Y-121318731D01*
X161413578Y-121137220D01*
X161434025Y-121100618D01*
X161436103Y-121096899D01*
X161479342Y-121051783D01*
X161539094Y-121033484D01*
X161600182Y-121046649D01*
X161647092Y-121087935D01*
X161743846Y-121231087D01*
X161905273Y-121399518D01*
X161907322Y-121401033D01*
X161912073Y-121406612D01*
X161912575Y-121407136D01*
X161912544Y-121407165D01*
X161943752Y-121443813D01*
X161957560Y-121498280D01*
X161945911Y-121553249D01*
X161911197Y-121597433D01*
X161860546Y-121621759D01*
X161764225Y-121643215D01*
X161507803Y-121741288D01*
X161268391Y-121875653D01*
X161051094Y-122043443D01*
X160860545Y-122241083D01*
X160700802Y-122464364D01*
X160575272Y-122708521D01*
X160486629Y-122968352D01*
X160436763Y-123238325D01*
X160426737Y-123512678D01*
X160456763Y-123785569D01*
X160526204Y-124051181D01*
X160633577Y-124303852D01*
X160750416Y-124495301D01*
X160776595Y-124538196D01*
X160952209Y-124749218D01*
X161156677Y-124932423D01*
X161385641Y-125083904D01*
X161634221Y-125200433D01*
X161897119Y-125279527D01*
X162168731Y-125319500D01*
X162374547Y-125319500D01*
X162374549Y-125319500D01*
X162421410Y-125316070D01*
X162511187Y-125309499D01*
X162575604Y-125322215D01*
X162624498Y-125366042D01*
X162644157Y-125428690D01*
X162629070Y-125492595D01*
X162537088Y-125661046D01*
X162437111Y-125929097D01*
X162376300Y-126208642D01*
X162355890Y-126494000D01*
X162376300Y-126779357D01*
X162437111Y-127058902D01*
X162537088Y-127326952D01*
X162674193Y-127578042D01*
X162780883Y-127720562D01*
X164007447Y-126494000D01*
X164714553Y-126494000D01*
X165941115Y-127720562D01*
X166047806Y-127578041D01*
X166184911Y-127326952D01*
X166284888Y-127058902D01*
X166345699Y-126779357D01*
X166366109Y-126494000D01*
X166345699Y-126208642D01*
X166284888Y-125929097D01*
X166184911Y-125661047D01*
X166047806Y-125409958D01*
X165941115Y-125267436D01*
X164714553Y-126494000D01*
X164007447Y-126494000D01*
X164361000Y-126140447D01*
X165587562Y-124913883D01*
X165445042Y-124807193D01*
X165193952Y-124670088D01*
X164925902Y-124570111D01*
X164646357Y-124509300D01*
X164360999Y-124488890D01*
X164079148Y-124509049D01*
X164015489Y-124496592D01*
X163966829Y-124453698D01*
X163946485Y-124392105D01*
X163960024Y-124328667D01*
X164035093Y-124182657D01*
X164036727Y-124179479D01*
X164095366Y-124007594D01*
X164125370Y-123919647D01*
X164175236Y-123649674D01*
X164182898Y-123440000D01*
X169115425Y-123440000D01*
X169148317Y-123592621D01*
X169235267Y-123809005D01*
X169357543Y-124007594D01*
X169511618Y-124182657D01*
X169693057Y-124329160D01*
X169896655Y-124442896D01*
X170116544Y-124520588D01*
X170346394Y-124560000D01*
X170438000Y-124560000D01*
X170438000Y-123440000D01*
X170938000Y-123440000D01*
X170938000Y-124560000D01*
X170971198Y-124560000D01*
X171145364Y-124545176D01*
X171371054Y-124486410D01*
X171583557Y-124390353D01*
X171776772Y-124259763D01*
X171945139Y-124098396D01*
X172083812Y-123910898D01*
X172188803Y-123702660D01*
X172257092Y-123479673D01*
X172262173Y-123440000D01*
X170938000Y-123440000D01*
X170438000Y-123440000D01*
X169115425Y-123440000D01*
X164182898Y-123440000D01*
X164185262Y-123375321D01*
X164182105Y-123346633D01*
X164155236Y-123102429D01*
X164085796Y-122836818D01*
X163978423Y-122584148D01*
X163835405Y-122349804D01*
X163659791Y-122138782D01*
X163455323Y-121955577D01*
X163305133Y-121856212D01*
X163261499Y-121805900D01*
X163250187Y-121740269D01*
X163274462Y-121678252D01*
X163327317Y-121637740D01*
X163433235Y-121595179D01*
X163631891Y-121472862D01*
X163807018Y-121318731D01*
X163838911Y-121279231D01*
X163892178Y-121240902D01*
X163957547Y-121235126D01*
X164016710Y-121263521D01*
X164038344Y-121295993D01*
X164041578Y-121293999D01*
X164049185Y-121306333D01*
X164049186Y-121306334D01*
X164069818Y-121339785D01*
X164141288Y-121455657D01*
X164265342Y-121579711D01*
X164290420Y-121595179D01*
X164414666Y-121671814D01*
X164479537Y-121693310D01*
X164581202Y-121726999D01*
X164591703Y-121728071D01*
X164683991Y-121737500D01*
X166024008Y-121737499D01*
X166126797Y-121726999D01*
X166293334Y-121671814D01*
X166442656Y-121579712D01*
X166566712Y-121455656D01*
X166658814Y-121306334D01*
X166713999Y-121139797D01*
X166724500Y-121037009D01*
X166724499Y-119246992D01*
X166714929Y-119153312D01*
X166713999Y-119144203D01*
X166700352Y-119103019D01*
X166658814Y-118977666D01*
X166575566Y-118842699D01*
X166566711Y-118828342D01*
X166442657Y-118704288D01*
X166293334Y-118612186D01*
X166126797Y-118557000D01*
X166024009Y-118546500D01*
X165987972Y-118546500D01*
X165926535Y-118530210D01*
X165881240Y-118485622D01*
X165872081Y-118470135D01*
X165870189Y-118468243D01*
X165857068Y-118455122D01*
X165844435Y-118440330D01*
X165831963Y-118423163D01*
X165796779Y-118394056D01*
X165788140Y-118386194D01*
X162302060Y-114900114D01*
X162269966Y-114844525D01*
X162269967Y-114780336D01*
X162272207Y-114771977D01*
X162291277Y-114554000D01*
X162272207Y-114336023D01*
X162215575Y-114124670D01*
X162123102Y-113926362D01*
X161997598Y-113747123D01*
X161842877Y-113592402D01*
X161663639Y-113466898D01*
X161511169Y-113395800D01*
X161465331Y-113374425D01*
X161253974Y-113317792D01*
X161036000Y-113298722D01*
X160818019Y-113317792D01*
X160809654Y-113320034D01*
X160745470Y-113320032D01*
X160689885Y-113287939D01*
X158762434Y-111360488D01*
X158749091Y-111343833D01*
X158696166Y-111294134D01*
X158693369Y-111291423D01*
X158673034Y-111271088D01*
X158669547Y-111268383D01*
X158660671Y-111260801D01*
X158627394Y-111229552D01*
X158608793Y-111219326D01*
X158592532Y-111208645D01*
X158575764Y-111195638D01*
X158533870Y-111177508D01*
X158523379Y-111172369D01*
X158483367Y-111150372D01*
X158462800Y-111145091D01*
X158444398Y-111138791D01*
X158424924Y-111130364D01*
X158379837Y-111123223D01*
X158368398Y-111120854D01*
X158324178Y-111109500D01*
X158324177Y-111109500D01*
X158302955Y-111109500D01*
X158283556Y-111107973D01*
X158262596Y-111104653D01*
X158262595Y-111104653D01*
X158240558Y-111106736D01*
X158217139Y-111108950D01*
X158205470Y-111109500D01*
X152292783Y-111109500D01*
X152236488Y-111095985D01*
X152192465Y-111058386D01*
X152170310Y-111004898D01*
X152174852Y-110947182D01*
X152205098Y-110897822D01*
X152321517Y-110781403D01*
X152338162Y-110768070D01*
X152339936Y-110766180D01*
X152339940Y-110766178D01*
X152387898Y-110715106D01*
X152390546Y-110712374D01*
X152410911Y-110692011D01*
X152413611Y-110688528D01*
X152421187Y-110679657D01*
X152452448Y-110646369D01*
X152462675Y-110627763D01*
X152473348Y-110611515D01*
X152486362Y-110594740D01*
X152504491Y-110552844D01*
X152509631Y-110542353D01*
X152531627Y-110502344D01*
X152536906Y-110481781D01*
X152543204Y-110463382D01*
X152551635Y-110443902D01*
X152558777Y-110398800D01*
X152561145Y-110387373D01*
X152576397Y-110327978D01*
X152577180Y-110328179D01*
X152589113Y-110283647D01*
X152634500Y-110238260D01*
X152696500Y-110221647D01*
X153293889Y-110221647D01*
X153436345Y-110201165D01*
X153443724Y-110198997D01*
X153509327Y-110197824D01*
X153566346Y-110230292D01*
X153801564Y-110465510D01*
X153814912Y-110482169D01*
X153867831Y-110531864D01*
X153870628Y-110534575D01*
X153890961Y-110554908D01*
X153894442Y-110557608D01*
X153903325Y-110565194D01*
X153921570Y-110582327D01*
X153936607Y-110596448D01*
X153955206Y-110606673D01*
X153971466Y-110617354D01*
X153988236Y-110630362D01*
X154007722Y-110638794D01*
X154030131Y-110648492D01*
X154040623Y-110653632D01*
X154080629Y-110675626D01*
X154080631Y-110675626D01*
X154080632Y-110675627D01*
X154101185Y-110680904D01*
X154119594Y-110687206D01*
X154139074Y-110695636D01*
X154184178Y-110702779D01*
X154195597Y-110705144D01*
X154239823Y-110716500D01*
X154261045Y-110716500D01*
X154280443Y-110718026D01*
X154301405Y-110721347D01*
X154343319Y-110717384D01*
X154346861Y-110717050D01*
X154358530Y-110716500D01*
X157494788Y-110716500D01*
X157518022Y-110718696D01*
X157526830Y-110720376D01*
X157584543Y-110716744D01*
X157592329Y-110716500D01*
X157608924Y-110716500D01*
X157608925Y-110716500D01*
X157625398Y-110714418D01*
X157633146Y-110713687D01*
X157654556Y-110712340D01*
X157690860Y-110710056D01*
X157699377Y-110707288D01*
X157722170Y-110702193D01*
X157731058Y-110701071D01*
X157784854Y-110679771D01*
X157792141Y-110677147D01*
X157847171Y-110659268D01*
X157854741Y-110654463D01*
X157875535Y-110643867D01*
X157883871Y-110640568D01*
X157930671Y-110606564D01*
X157937088Y-110602203D01*
X157985940Y-110571202D01*
X157992076Y-110564667D01*
X158009580Y-110549236D01*
X158011998Y-110547479D01*
X158016837Y-110543963D01*
X158053720Y-110499378D01*
X158058843Y-110493567D01*
X158098448Y-110451393D01*
X158102766Y-110443536D01*
X158115888Y-110424230D01*
X158121600Y-110417326D01*
X158146228Y-110364986D01*
X158149745Y-110358082D01*
X158177627Y-110307368D01*
X158177627Y-110307366D01*
X158185175Y-110293638D01*
X158185867Y-110294018D01*
X158208781Y-110253474D01*
X158264428Y-110220856D01*
X158328930Y-110220601D01*
X158384833Y-110252779D01*
X158767564Y-110635510D01*
X158780912Y-110652169D01*
X158833831Y-110701864D01*
X158836628Y-110704575D01*
X158856961Y-110724908D01*
X158860442Y-110727608D01*
X158869325Y-110735194D01*
X158902607Y-110766448D01*
X158912213Y-110771729D01*
X158921204Y-110776672D01*
X158937464Y-110787352D01*
X158954236Y-110800362D01*
X158996140Y-110818495D01*
X159006620Y-110823629D01*
X159046632Y-110845627D01*
X159067195Y-110850906D01*
X159085598Y-110857207D01*
X159105073Y-110865635D01*
X159150175Y-110872778D01*
X159161570Y-110875137D01*
X159205823Y-110886500D01*
X159227051Y-110886500D01*
X159246449Y-110888026D01*
X159267405Y-110891346D01*
X159312851Y-110887050D01*
X159324521Y-110886500D01*
X162099500Y-110886500D01*
X162161500Y-110903113D01*
X162206887Y-110948500D01*
X162223500Y-111010500D01*
X162223500Y-112750495D01*
X162221158Y-112771704D01*
X162223439Y-112844262D01*
X162223500Y-112848157D01*
X162223500Y-112876926D01*
X162224053Y-112881307D01*
X162224968Y-112892940D01*
X162226402Y-112938569D01*
X162232323Y-112958950D01*
X162236267Y-112977995D01*
X162238928Y-112999059D01*
X162255737Y-113041515D01*
X162259520Y-113052563D01*
X162272256Y-113096400D01*
X162283061Y-113114670D01*
X162291621Y-113132143D01*
X162299431Y-113151869D01*
X162326267Y-113188808D01*
X162332673Y-113198560D01*
X162355919Y-113237865D01*
X162355921Y-113237867D01*
X162370925Y-113252871D01*
X162383562Y-113267667D01*
X162396037Y-113284837D01*
X162428708Y-113311865D01*
X162431212Y-113313936D01*
X162439854Y-113321800D01*
X165807232Y-116689178D01*
X169150072Y-120032017D01*
X169182715Y-120089728D01*
X169180956Y-120156007D01*
X169118417Y-120360220D01*
X169089841Y-120583375D01*
X169088784Y-120591627D01*
X169098685Y-120824704D01*
X169147836Y-121052767D01*
X169234819Y-121269231D01*
X169234821Y-121269235D01*
X169357138Y-121467891D01*
X169469165Y-121595179D01*
X169511270Y-121643019D01*
X169692776Y-121789576D01*
X169733590Y-121812376D01*
X169778706Y-121855616D01*
X169797004Y-121915367D01*
X169783839Y-121976455D01*
X169742553Y-122023365D01*
X169599227Y-122120236D01*
X169430860Y-122281603D01*
X169292187Y-122469101D01*
X169187196Y-122677339D01*
X169118907Y-122900326D01*
X169113827Y-122940000D01*
X172260575Y-122940000D01*
X172227682Y-122787378D01*
X172140732Y-122570994D01*
X172018456Y-122372405D01*
X171864381Y-122197342D01*
X171682940Y-122050837D01*
X171642433Y-122028209D01*
X171597318Y-121984970D01*
X171579020Y-121925218D01*
X171592185Y-121864131D01*
X171633469Y-121817222D01*
X171777088Y-121720153D01*
X171945516Y-121558728D01*
X172084240Y-121371161D01*
X172189270Y-121162847D01*
X172257583Y-120939780D01*
X172287216Y-120708376D01*
X172277314Y-120475293D01*
X172228164Y-120247235D01*
X172216874Y-120219140D01*
X172164872Y-120089728D01*
X172141179Y-120030765D01*
X172018862Y-119832109D01*
X171864731Y-119656982D01*
X171864729Y-119656980D01*
X171683221Y-119510421D01*
X171642897Y-119487895D01*
X171597782Y-119444655D01*
X171579484Y-119384904D01*
X171592649Y-119323816D01*
X171633933Y-119276909D01*
X171777088Y-119180153D01*
X171945516Y-119018728D01*
X172084240Y-118831161D01*
X172189270Y-118622847D01*
X172257583Y-118399780D01*
X172287216Y-118168376D01*
X172277314Y-117935293D01*
X172228164Y-117707235D01*
X172196370Y-117628114D01*
X172142558Y-117494198D01*
X172141179Y-117490765D01*
X172018862Y-117292109D01*
X171864731Y-117116982D01*
X171825230Y-117085087D01*
X171786897Y-117031807D01*
X171781131Y-116966423D01*
X171809549Y-116907256D01*
X171841994Y-116885657D01*
X171839999Y-116882422D01*
X171908775Y-116840001D01*
X172001656Y-116782712D01*
X172125712Y-116658656D01*
X172217814Y-116509334D01*
X172272999Y-116342797D01*
X172283500Y-116240009D01*
X172283499Y-114899992D01*
X172272999Y-114797203D01*
X172217814Y-114630666D01*
X172125712Y-114481344D01*
X172125711Y-114481342D01*
X172001657Y-114357288D01*
X171852334Y-114265186D01*
X171685797Y-114210000D01*
X171583009Y-114199500D01*
X171243879Y-114199500D01*
X171201875Y-114192169D01*
X171164838Y-114171044D01*
X171130779Y-114142867D01*
X171122140Y-114135005D01*
X166274899Y-109287764D01*
X171881787Y-109287764D01*
X171911413Y-109557016D01*
X171940351Y-109667705D01*
X171979928Y-109819088D01*
X172084365Y-110064848D01*
X172085871Y-110068392D01*
X172226982Y-110299611D01*
X172378908Y-110482169D01*
X172400255Y-110507820D01*
X172601998Y-110688582D01*
X172827910Y-110838044D01*
X172931276Y-110886500D01*
X173073177Y-110953021D01*
X173332562Y-111031058D01*
X173332569Y-111031060D01*
X173600561Y-111070500D01*
X173803631Y-111070500D01*
X173803634Y-111070500D01*
X174006156Y-111055677D01*
X174006155Y-111055677D01*
X174270553Y-110996780D01*
X174523558Y-110900014D01*
X174759777Y-110767441D01*
X174974177Y-110601888D01*
X175162186Y-110406881D01*
X175319799Y-110186579D01*
X175443656Y-109945675D01*
X175531118Y-109689305D01*
X175580319Y-109422933D01*
X175590212Y-109152235D01*
X175560586Y-108882982D01*
X175492072Y-108620912D01*
X175386130Y-108371610D01*
X175245018Y-108140390D01*
X175245017Y-108140388D01*
X175071746Y-107932181D01*
X175037211Y-107901238D01*
X174870002Y-107751418D01*
X174644090Y-107601956D01*
X174616105Y-107588837D01*
X174398822Y-107486978D01*
X174139437Y-107408941D01*
X174139431Y-107408940D01*
X173871439Y-107369500D01*
X173668369Y-107369500D01*
X173668366Y-107369500D01*
X173465843Y-107384322D01*
X173201449Y-107443219D01*
X172948441Y-107539986D01*
X172712223Y-107672559D01*
X172497825Y-107838109D01*
X172309813Y-108033120D01*
X172152201Y-108253420D01*
X172028342Y-108494329D01*
X171940881Y-108750695D01*
X171891680Y-109017066D01*
X171881787Y-109287764D01*
X166274899Y-109287764D01*
X162953623Y-105966488D01*
X162940280Y-105949833D01*
X162887355Y-105900134D01*
X162884558Y-105897423D01*
X162864223Y-105877088D01*
X162860736Y-105874383D01*
X162851860Y-105866801D01*
X162818583Y-105835552D01*
X162799982Y-105825326D01*
X162783721Y-105814645D01*
X162766953Y-105801638D01*
X162743366Y-105791431D01*
X162725058Y-105783508D01*
X162714568Y-105778369D01*
X162674556Y-105756372D01*
X162653989Y-105751091D01*
X162635587Y-105744791D01*
X162616113Y-105736364D01*
X162571026Y-105729223D01*
X162559587Y-105726854D01*
X162515367Y-105715500D01*
X162515366Y-105715500D01*
X162494144Y-105715500D01*
X162474745Y-105713973D01*
X162453785Y-105710653D01*
X162453784Y-105710653D01*
X162431747Y-105712736D01*
X162408328Y-105714950D01*
X162396659Y-105715500D01*
X139845505Y-105715500D01*
X139824294Y-105713158D01*
X139751724Y-105715439D01*
X139747829Y-105715500D01*
X139719074Y-105715500D01*
X139714701Y-105716052D01*
X139703069Y-105716967D01*
X139657428Y-105718401D01*
X139637041Y-105724324D01*
X139617998Y-105728268D01*
X139596942Y-105730928D01*
X139554496Y-105747733D01*
X139543450Y-105751514D01*
X139499602Y-105764254D01*
X139481324Y-105775063D01*
X139463861Y-105783618D01*
X139444130Y-105791431D01*
X139407187Y-105818270D01*
X139397428Y-105824680D01*
X139358135Y-105847918D01*
X139343125Y-105862928D01*
X139328336Y-105875558D01*
X139311164Y-105888034D01*
X139282057Y-105923218D01*
X139274196Y-105931856D01*
X137322872Y-107883181D01*
X137282644Y-107910061D01*
X137235191Y-107919500D01*
X136322808Y-107919500D01*
X136275355Y-107910061D01*
X136235127Y-107883181D01*
X135842575Y-107490629D01*
X135813626Y-107445059D01*
X135806785Y-107391509D01*
X135825643Y-107188000D01*
X135805115Y-106966464D01*
X135758685Y-106803279D01*
X135744230Y-106752473D01*
X135645058Y-106553311D01*
X135510980Y-106375762D01*
X135346562Y-106225875D01*
X135157404Y-106108754D01*
X135012239Y-106052517D01*
X134949940Y-106028382D01*
X134731243Y-105987500D01*
X134508757Y-105987500D01*
X134290060Y-106028381D01*
X134290060Y-106028382D01*
X134082595Y-106108754D01*
X133893437Y-106225875D01*
X133729019Y-106375762D01*
X133594941Y-106553311D01*
X133495769Y-106752473D01*
X133434885Y-106966462D01*
X133429374Y-107025939D01*
X133414357Y-107188000D01*
X133424620Y-107298767D01*
X133434885Y-107409537D01*
X133495769Y-107623526D01*
X133594941Y-107822688D01*
X133729019Y-108000237D01*
X133893437Y-108150124D01*
X134082595Y-108267245D01*
X134082597Y-108267245D01*
X134082599Y-108267247D01*
X134290060Y-108347618D01*
X134508757Y-108388500D01*
X134731243Y-108388500D01*
X134731246Y-108388500D01*
X134809639Y-108373845D01*
X134869104Y-108377282D01*
X134920106Y-108408052D01*
X135400372Y-108888318D01*
X135432466Y-108943905D01*
X135432466Y-109008093D01*
X135400372Y-109063680D01*
X130293994Y-114170058D01*
X130243881Y-114200549D01*
X130185360Y-114204594D01*
X130155648Y-114199500D01*
X130155647Y-114199500D01*
X129530784Y-114199500D01*
X129530780Y-114199500D01*
X129356548Y-114214329D01*
X129130779Y-114273114D01*
X128918198Y-114369207D01*
X128724912Y-114499846D01*
X128556483Y-114661272D01*
X128417760Y-114848838D01*
X128312730Y-115057152D01*
X128255653Y-115243528D01*
X128244417Y-115280220D01*
X128215841Y-115503375D01*
X128214784Y-115511627D01*
X128224685Y-115744704D01*
X128273836Y-115972767D01*
X128360130Y-116187516D01*
X128360821Y-116189235D01*
X128426639Y-116296130D01*
X128483139Y-116387892D01*
X128637270Y-116563019D01*
X128818776Y-116709576D01*
X128859101Y-116732103D01*
X128904217Y-116775343D01*
X128922515Y-116835094D01*
X128909350Y-116896182D01*
X128868064Y-116943092D01*
X128724912Y-117039846D01*
X128556483Y-117201272D01*
X128417760Y-117388838D01*
X128312730Y-117597152D01*
X128312730Y-117597153D01*
X128244417Y-117820220D01*
X128215841Y-118043375D01*
X128214784Y-118051627D01*
X128224685Y-118284704D01*
X128273836Y-118512767D01*
X128360819Y-118729231D01*
X128360821Y-118729235D01*
X128483138Y-118927891D01*
X128598769Y-119059274D01*
X128637270Y-119103019D01*
X128818776Y-119249576D01*
X128859101Y-119272103D01*
X128904217Y-119315343D01*
X128922515Y-119375094D01*
X128909350Y-119436182D01*
X128868064Y-119483092D01*
X128724912Y-119579846D01*
X128556483Y-119741272D01*
X128417760Y-119928838D01*
X128312730Y-120137152D01*
X128306955Y-120156008D01*
X128244417Y-120360220D01*
X128215841Y-120583375D01*
X128214784Y-120591627D01*
X123444500Y-120591627D01*
X123444500Y-109287764D01*
X125399787Y-109287764D01*
X125429413Y-109557016D01*
X125458351Y-109667705D01*
X125497928Y-109819088D01*
X125602365Y-110064848D01*
X125603871Y-110068392D01*
X125744982Y-110299611D01*
X125896908Y-110482169D01*
X125918255Y-110507820D01*
X126119998Y-110688582D01*
X126345910Y-110838044D01*
X126449276Y-110886500D01*
X126591177Y-110953021D01*
X126850562Y-111031058D01*
X126850569Y-111031060D01*
X127118561Y-111070500D01*
X127321631Y-111070500D01*
X127321634Y-111070500D01*
X127524156Y-111055677D01*
X127524155Y-111055677D01*
X127788553Y-110996780D01*
X128041558Y-110900014D01*
X128277777Y-110767441D01*
X128492177Y-110601888D01*
X128680186Y-110406881D01*
X128837799Y-110186579D01*
X128961656Y-109945675D01*
X129049118Y-109689305D01*
X129098319Y-109422933D01*
X129108212Y-109152235D01*
X129078586Y-108882982D01*
X129010072Y-108620912D01*
X128904130Y-108371610D01*
X128763018Y-108140390D01*
X128763017Y-108140388D01*
X128589746Y-107932181D01*
X128555211Y-107901238D01*
X128388002Y-107751418D01*
X128162090Y-107601956D01*
X128134105Y-107588837D01*
X127916822Y-107486978D01*
X127657437Y-107408941D01*
X127657431Y-107408940D01*
X127389439Y-107369500D01*
X127186369Y-107369500D01*
X127186366Y-107369500D01*
X126983843Y-107384322D01*
X126719449Y-107443219D01*
X126466441Y-107539986D01*
X126230223Y-107672559D01*
X126015825Y-107838109D01*
X125827813Y-108033120D01*
X125670201Y-108253420D01*
X125546342Y-108494329D01*
X125458881Y-108750695D01*
X125409680Y-109017066D01*
X125399787Y-109287764D01*
X123444500Y-109287764D01*
X123444500Y-109223051D01*
X123444649Y-109216967D01*
X123447829Y-109152235D01*
X123451993Y-109067463D01*
X123463658Y-108844898D01*
X123464825Y-108833247D01*
X123490969Y-108656994D01*
X123491087Y-108656226D01*
X123521760Y-108462566D01*
X123523936Y-108451897D01*
X123568500Y-108273991D01*
X123568922Y-108272362D01*
X123618283Y-108088143D01*
X123621301Y-108078485D01*
X123683768Y-107903901D01*
X123684727Y-107901312D01*
X123752246Y-107725420D01*
X123755877Y-107716927D01*
X123835711Y-107548133D01*
X123837201Y-107545099D01*
X123922255Y-107378171D01*
X123926345Y-107370785D01*
X124022641Y-107210125D01*
X124024891Y-107206518D01*
X124126566Y-107049952D01*
X124130937Y-107043661D01*
X124141058Y-107030015D01*
X124242695Y-106892972D01*
X124245857Y-106888893D01*
X124363107Y-106744101D01*
X124367534Y-106738935D01*
X124493664Y-106599772D01*
X124497783Y-106595446D01*
X124629446Y-106463783D01*
X124633772Y-106459664D01*
X124772935Y-106333534D01*
X124778101Y-106329107D01*
X124922893Y-106211857D01*
X124926972Y-106208695D01*
X125077670Y-106096930D01*
X125083952Y-106092566D01*
X125240518Y-105990891D01*
X125244125Y-105988641D01*
X125404785Y-105892345D01*
X125412171Y-105888255D01*
X125579099Y-105803201D01*
X125582133Y-105801711D01*
X125750927Y-105721877D01*
X125759420Y-105718246D01*
X125935312Y-105650727D01*
X125937901Y-105649768D01*
X126112485Y-105587301D01*
X126122143Y-105584283D01*
X126306362Y-105534922D01*
X126307991Y-105534500D01*
X126485897Y-105489936D01*
X126496566Y-105487760D01*
X126690226Y-105457087D01*
X126690994Y-105456969D01*
X126867247Y-105430825D01*
X126878898Y-105429658D01*
X127101494Y-105417992D01*
X127247578Y-105410815D01*
X127250968Y-105410649D01*
X127257051Y-105410500D01*
X173732949Y-105410500D01*
X173739032Y-105410649D01*
G37*
G04 #@! TD.AperFunction*
M02*
