G04 #@! TF.GenerationSoftware,KiCad,Pcbnew,7.0.1*
G04 #@! TF.CreationDate,2023-07-05T13:46:03-05:00*
G04 #@! TF.ProjectId,MCP23008 Keypad Breakout,4d435032-3330-4303-9820-4b6579706164,rev?*
G04 #@! TF.SameCoordinates,Original*
G04 #@! TF.FileFunction,Soldermask,Bot*
G04 #@! TF.FilePolarity,Negative*
%FSLAX46Y46*%
G04 Gerber Fmt 4.6, Leading zero omitted, Abs format (unit mm)*
G04 Created by KiCad (PCBNEW 7.0.1) date 2023-07-05 13:46:03*
%MOMM*%
%LPD*%
G01*
G04 APERTURE LIST*
G04 Aperture macros list*
%AMRoundRect*
0 Rectangle with rounded corners*
0 $1 Rounding radius*
0 $2 $3 $4 $5 $6 $7 $8 $9 X,Y pos of 4 corners*
0 Add a 4 corners polygon primitive as box body*
4,1,4,$2,$3,$4,$5,$6,$7,$8,$9,$2,$3,0*
0 Add four circle primitives for the rounded corners*
1,1,$1+$1,$2,$3*
1,1,$1+$1,$4,$5*
1,1,$1+$1,$6,$7*
1,1,$1+$1,$8,$9*
0 Add four rect primitives between the rounded corners*
20,1,$1+$1,$2,$3,$4,$5,0*
20,1,$1+$1,$4,$5,$6,$7,0*
20,1,$1+$1,$6,$7,$8,$9,0*
20,1,$1+$1,$8,$9,$2,$3,0*%
G04 Aperture macros list end*
%ADD10RoundRect,0.250000X-0.845000X0.620000X-0.845000X-0.620000X0.845000X-0.620000X0.845000X0.620000X0*%
%ADD11O,2.190000X1.740000*%
%ADD12C,3.200000*%
%ADD13RoundRect,0.250000X0.620000X0.845000X-0.620000X0.845000X-0.620000X-0.845000X0.620000X-0.845000X0*%
%ADD14O,1.740000X2.190000*%
%ADD15C,1.400000*%
%ADD16O,1.400000X1.400000*%
%ADD17RoundRect,0.250000X0.845000X-0.620000X0.845000X0.620000X-0.845000X0.620000X-0.845000X-0.620000X0*%
%ADD18C,3.250000*%
%ADD19R,1.500000X1.500000*%
%ADD20C,1.500000*%
%ADD21C,3.000000*%
%ADD22R,1.600000X1.600000*%
%ADD23O,1.600000X1.600000*%
%ADD24C,1.600000*%
G04 APERTURE END LIST*
D10*
X170688000Y-115570000D03*
D11*
X170688000Y-118110000D03*
X170688000Y-120650000D03*
X170688000Y-123190000D03*
D12*
X173736000Y-109220000D03*
D13*
X165354000Y-120142000D03*
D14*
X162814000Y-120142000D03*
X160274000Y-120142000D03*
X157734000Y-120142000D03*
X155194000Y-120142000D03*
X152654000Y-120142000D03*
X150114000Y-120142000D03*
X147574000Y-120142000D03*
D15*
X134620000Y-131572000D03*
D16*
X134620000Y-123952000D03*
D12*
X173736000Y-129540000D03*
X127254000Y-129540000D03*
D17*
X129814000Y-123190000D03*
D11*
X129814000Y-120650000D03*
X129814000Y-118110000D03*
X129814000Y-115570000D03*
D18*
X150876000Y-123444000D03*
X162306000Y-123444000D03*
D19*
X152146000Y-117094000D03*
D20*
X153416000Y-114554000D03*
X154686000Y-117094000D03*
X155956000Y-114554000D03*
X157226000Y-117094000D03*
X158496000Y-114554000D03*
X159766000Y-117094000D03*
X161036000Y-114554000D03*
D21*
X148821000Y-126494000D03*
X164361000Y-126494000D03*
D15*
X134620000Y-114808000D03*
D16*
X134620000Y-107188000D03*
D12*
X127254000Y-109220000D03*
D22*
X136906000Y-109220000D03*
D23*
X136906000Y-111760000D03*
X136906000Y-114300000D03*
X136906000Y-116840000D03*
X136906000Y-119380000D03*
X136906000Y-121920000D03*
X136906000Y-124460000D03*
X136906000Y-127000000D03*
X136906000Y-129540000D03*
X144526000Y-129540000D03*
X144526000Y-127000000D03*
X144526000Y-124460000D03*
X144526000Y-121920000D03*
X144526000Y-119380000D03*
X144526000Y-116840000D03*
X144526000Y-114300000D03*
X144526000Y-111760000D03*
X144526000Y-109220000D03*
D24*
X134620000Y-121840000D03*
X134620000Y-116840000D03*
M02*
