M48
; DRILL file {KiCad 7.0.1} date Wed Jul  5 13:46:17 2023
; FORMAT={-:-/ absolute / metric / decimal}
; #@! TF.CreationDate,2023-07-05T13:46:17-05:00
; #@! TF.GenerationSoftware,Kicad,Pcbnew,7.0.1
; #@! TF.FileFunction,Plated,1,2,PTH
FMAT,2
METRIC
; #@! TA.AperFunction,Plated,PTH,ViaDrill
T1C0.400
; #@! TA.AperFunction,Plated,PTH,ComponentDrill
T2C0.700
; #@! TA.AperFunction,Plated,PTH,ComponentDrill
T3C0.800
; #@! TA.AperFunction,Plated,PTH,ComponentDrill
T4C0.900
; #@! TA.AperFunction,Plated,PTH,ComponentDrill
T5C1.190
; #@! TA.AperFunction,Plated,PTH,ComponentDrill
T6C1.600
%
G90
G05
T1
X132.334Y-117.602
X150.622Y-108.966
X153.222Y-108.966
X155.448Y-108.966
X160.274Y-108.966
T2
X134.62Y-107.188
X134.62Y-114.808
X134.62Y-123.952
X134.62Y-131.572
T3
X134.62Y-116.84
X134.62Y-121.84
X136.906Y-109.22
X136.906Y-111.76
X136.906Y-114.3
X136.906Y-116.84
X136.906Y-119.38
X136.906Y-121.92
X136.906Y-124.46
X136.906Y-127.0
X136.906Y-129.54
X144.526Y-109.22
X144.526Y-111.76
X144.526Y-114.3
X144.526Y-116.84
X144.526Y-119.38
X144.526Y-121.92
X144.526Y-124.46
X144.526Y-127.0
X144.526Y-129.54
T4
X152.146Y-117.094
X153.416Y-114.554
X154.686Y-117.094
X155.956Y-114.554
X157.226Y-117.094
X158.496Y-114.554
X159.766Y-117.094
X161.036Y-114.554
T5
X129.814Y-115.57
X129.814Y-118.11
X129.814Y-120.65
X129.814Y-123.19
X147.574Y-120.142
X150.114Y-120.142
X152.654Y-120.142
X155.194Y-120.142
X157.734Y-120.142
X160.274Y-120.142
X162.814Y-120.142
X165.354Y-120.142
X170.688Y-115.57
X170.688Y-118.11
X170.688Y-120.65
X170.688Y-123.19
T6
X148.821Y-126.494
X164.361Y-126.494
T0
M30
