G04 #@! TF.GenerationSoftware,KiCad,Pcbnew,7.0.1*
G04 #@! TF.CreationDate,2023-07-05T13:46:03-05:00*
G04 #@! TF.ProjectId,MCP23008 Keypad Breakout,4d435032-3330-4303-9820-4b6579706164,rev?*
G04 #@! TF.SameCoordinates,Original*
G04 #@! TF.FileFunction,Copper,L2,Bot*
G04 #@! TF.FilePolarity,Positive*
%FSLAX46Y46*%
G04 Gerber Fmt 4.6, Leading zero omitted, Abs format (unit mm)*
G04 Created by KiCad (PCBNEW 7.0.1) date 2023-07-05 13:46:03*
%MOMM*%
%LPD*%
G01*
G04 APERTURE LIST*
G04 Aperture macros list*
%AMRoundRect*
0 Rectangle with rounded corners*
0 $1 Rounding radius*
0 $2 $3 $4 $5 $6 $7 $8 $9 X,Y pos of 4 corners*
0 Add a 4 corners polygon primitive as box body*
4,1,4,$2,$3,$4,$5,$6,$7,$8,$9,$2,$3,0*
0 Add four circle primitives for the rounded corners*
1,1,$1+$1,$2,$3*
1,1,$1+$1,$4,$5*
1,1,$1+$1,$6,$7*
1,1,$1+$1,$8,$9*
0 Add four rect primitives between the rounded corners*
20,1,$1+$1,$2,$3,$4,$5,0*
20,1,$1+$1,$4,$5,$6,$7,0*
20,1,$1+$1,$6,$7,$8,$9,0*
20,1,$1+$1,$8,$9,$2,$3,0*%
G04 Aperture macros list end*
G04 #@! TA.AperFunction,ComponentPad*
%ADD10RoundRect,0.250000X-0.845000X0.620000X-0.845000X-0.620000X0.845000X-0.620000X0.845000X0.620000X0*%
G04 #@! TD*
G04 #@! TA.AperFunction,ComponentPad*
%ADD11O,2.190000X1.740000*%
G04 #@! TD*
G04 #@! TA.AperFunction,ComponentPad*
%ADD12RoundRect,0.250000X0.620000X0.845000X-0.620000X0.845000X-0.620000X-0.845000X0.620000X-0.845000X0*%
G04 #@! TD*
G04 #@! TA.AperFunction,ComponentPad*
%ADD13O,1.740000X2.190000*%
G04 #@! TD*
G04 #@! TA.AperFunction,ComponentPad*
%ADD14C,1.400000*%
G04 #@! TD*
G04 #@! TA.AperFunction,ComponentPad*
%ADD15O,1.400000X1.400000*%
G04 #@! TD*
G04 #@! TA.AperFunction,ComponentPad*
%ADD16RoundRect,0.250000X0.845000X-0.620000X0.845000X0.620000X-0.845000X0.620000X-0.845000X-0.620000X0*%
G04 #@! TD*
G04 #@! TA.AperFunction,ComponentPad*
%ADD17R,1.500000X1.500000*%
G04 #@! TD*
G04 #@! TA.AperFunction,ComponentPad*
%ADD18C,1.500000*%
G04 #@! TD*
G04 #@! TA.AperFunction,ComponentPad*
%ADD19C,3.000000*%
G04 #@! TD*
G04 #@! TA.AperFunction,ComponentPad*
%ADD20R,1.600000X1.600000*%
G04 #@! TD*
G04 #@! TA.AperFunction,ComponentPad*
%ADD21O,1.600000X1.600000*%
G04 #@! TD*
G04 #@! TA.AperFunction,ComponentPad*
%ADD22C,1.600000*%
G04 #@! TD*
G04 #@! TA.AperFunction,ViaPad*
%ADD23C,0.800000*%
G04 #@! TD*
G04 #@! TA.AperFunction,Conductor*
%ADD24C,0.300000*%
G04 #@! TD*
G04 APERTURE END LIST*
D10*
X170688000Y-115570000D03*
D11*
X170688000Y-118110000D03*
X170688000Y-120650000D03*
X170688000Y-123190000D03*
D12*
X165354000Y-120142000D03*
D13*
X162814000Y-120142000D03*
X160274000Y-120142000D03*
X157734000Y-120142000D03*
X155194000Y-120142000D03*
X152654000Y-120142000D03*
X150114000Y-120142000D03*
X147574000Y-120142000D03*
D14*
X134620000Y-131572000D03*
D15*
X134620000Y-123952000D03*
D16*
X129814000Y-123190000D03*
D11*
X129814000Y-120650000D03*
X129814000Y-118110000D03*
X129814000Y-115570000D03*
D17*
X152146000Y-117094000D03*
D18*
X153416000Y-114554000D03*
X154686000Y-117094000D03*
X155956000Y-114554000D03*
X157226000Y-117094000D03*
X158496000Y-114554000D03*
X159766000Y-117094000D03*
X161036000Y-114554000D03*
D19*
X148821000Y-126494000D03*
X164361000Y-126494000D03*
D14*
X134620000Y-114808000D03*
D15*
X134620000Y-107188000D03*
D20*
X136906000Y-109220000D03*
D21*
X136906000Y-111760000D03*
X136906000Y-114300000D03*
X136906000Y-116840000D03*
X136906000Y-119380000D03*
X136906000Y-121920000D03*
X136906000Y-124460000D03*
X136906000Y-127000000D03*
X136906000Y-129540000D03*
X144526000Y-129540000D03*
X144526000Y-127000000D03*
X144526000Y-124460000D03*
X144526000Y-121920000D03*
X144526000Y-119380000D03*
X144526000Y-116840000D03*
X144526000Y-114300000D03*
X144526000Y-111760000D03*
X144526000Y-109220000D03*
D22*
X134620000Y-121840000D03*
X134620000Y-116840000D03*
D23*
X153222000Y-108966000D03*
X132334000Y-117602000D03*
X160274000Y-108966000D03*
X150622000Y-108966000D03*
X155448000Y-108966000D03*
D24*
X141097000Y-112649000D02*
X144526000Y-109220000D01*
X145325999Y-110019999D02*
X144526000Y-109220000D01*
X141097000Y-117729000D02*
X141097000Y-112649000D01*
X136906000Y-121920000D02*
X141097000Y-117729000D01*
X152168001Y-110019999D02*
X153222000Y-108966000D01*
X145325999Y-110019999D02*
X152168001Y-110019999D01*
X155194000Y-120142000D02*
X155956000Y-119380000D01*
X155956000Y-119380000D02*
X155956000Y-114554000D01*
X145657370Y-124460000D02*
X148894000Y-121223370D01*
X149608659Y-118697000D02*
X151209000Y-118697000D01*
X148894000Y-119411659D02*
X149608659Y-118697000D01*
X152654000Y-120142000D02*
X152654000Y-119126000D01*
X144526000Y-124460000D02*
X145657370Y-124460000D01*
X152654000Y-119126000D02*
X154686000Y-117094000D01*
X148894000Y-121223370D02*
X148894000Y-119411659D01*
X151209000Y-118697000D02*
X152654000Y-120142000D01*
X143376000Y-128390000D02*
X143376000Y-123743654D01*
X144049654Y-123070000D02*
X145002346Y-123070000D01*
X147574000Y-120498346D02*
X147574000Y-120142000D01*
X144526000Y-129540000D02*
X143376000Y-128390000D01*
X145002346Y-123070000D02*
X147574000Y-120498346D01*
X143376000Y-123743654D02*
X144049654Y-123070000D01*
X147574000Y-119197000D02*
X149677000Y-117094000D01*
X149677000Y-117094000D02*
X152146000Y-117094000D01*
X147574000Y-120142000D02*
X147574000Y-119197000D01*
X136906000Y-121920000D02*
X134700000Y-121920000D01*
X133470000Y-120690000D02*
X134620000Y-121840000D01*
X134700000Y-121920000D02*
X134620000Y-121840000D01*
X133430000Y-120650000D02*
X134620000Y-121840000D01*
X134620000Y-114808000D02*
X133470000Y-115958000D01*
X133470000Y-115958000D02*
X133470000Y-120690000D01*
X129814000Y-120650000D02*
X133430000Y-120650000D01*
G04 #@! TA.AperFunction,Conductor*
G36*
X135897248Y-115153592D02*
G01*
X135952374Y-115185560D01*
X136010342Y-115243528D01*
X136066863Y-115300049D01*
X136202890Y-115395295D01*
X136253266Y-115430568D01*
X136311275Y-115457618D01*
X136363450Y-115503375D01*
X136382869Y-115570000D01*
X136363450Y-115636625D01*
X136311275Y-115682382D01*
X136253263Y-115709433D01*
X136066859Y-115839953D01*
X135905955Y-116000857D01*
X135860076Y-116066380D01*
X135810906Y-116107638D01*
X135747694Y-116118784D01*
X135699025Y-116114526D01*
X134973553Y-116840000D01*
X134973553Y-116840001D01*
X135699025Y-117565472D01*
X135747692Y-117561214D01*
X135810904Y-117572360D01*
X135860075Y-117613619D01*
X135905952Y-117679139D01*
X136066859Y-117840046D01*
X136252646Y-117970134D01*
X136253266Y-117970568D01*
X136306486Y-117995385D01*
X136311275Y-117997618D01*
X136363450Y-118043375D01*
X136382869Y-118110000D01*
X136363450Y-118176625D01*
X136311275Y-118222382D01*
X136253263Y-118249433D01*
X136066859Y-118379953D01*
X135905953Y-118540859D01*
X135775432Y-118727264D01*
X135679261Y-118933502D01*
X135620364Y-119153310D01*
X135600531Y-119379999D01*
X135620364Y-119606689D01*
X135679261Y-119826497D01*
X135775432Y-120032735D01*
X135905953Y-120219140D01*
X136066859Y-120380046D01*
X136202890Y-120475295D01*
X136253266Y-120510568D01*
X136311273Y-120537617D01*
X136363449Y-120583373D01*
X136382869Y-120649997D01*
X136363451Y-120716622D01*
X136311276Y-120762380D01*
X136253266Y-120789431D01*
X136066860Y-120919953D01*
X135905954Y-121080859D01*
X135892582Y-121099957D01*
X135848264Y-121138822D01*
X135791007Y-121152832D01*
X135733750Y-121138821D01*
X135689433Y-121099955D01*
X135620046Y-121000859D01*
X135459140Y-120839953D01*
X135272735Y-120709432D01*
X135066497Y-120613261D01*
X134846689Y-120554364D01*
X134620000Y-120534531D01*
X134393307Y-120554364D01*
X134352834Y-120565209D01*
X134288648Y-120565209D01*
X134233061Y-120533115D01*
X134156819Y-120456873D01*
X134129939Y-120416645D01*
X134120500Y-120369192D01*
X134120500Y-118213619D01*
X134133288Y-118158775D01*
X134169014Y-118115243D01*
X134220309Y-118092002D01*
X134276594Y-118093844D01*
X134393397Y-118125141D01*
X134620000Y-118144966D01*
X134846602Y-118125141D01*
X135066326Y-118066266D01*
X135272480Y-117970134D01*
X135345472Y-117919025D01*
X134354128Y-116927681D01*
X134322034Y-116872094D01*
X134322034Y-116807906D01*
X134354128Y-116752319D01*
X134620000Y-116486447D01*
X135309497Y-115796947D01*
X135331898Y-115779203D01*
X135346562Y-115770124D01*
X135510981Y-115620236D01*
X135645058Y-115442689D01*
X135744229Y-115243528D01*
X135745427Y-115239314D01*
X135778028Y-115184559D01*
X135833521Y-115153225D01*
X135897248Y-115153592D01*
G37*
G04 #@! TD.AperFunction*
G04 #@! TA.AperFunction,Conductor*
G36*
X173739032Y-105410649D02*
G01*
X173741828Y-105410786D01*
X173888663Y-105417999D01*
X174111097Y-105429658D01*
X174122757Y-105430825D01*
X174298923Y-105456957D01*
X174299840Y-105457098D01*
X174493424Y-105487758D01*
X174504111Y-105489938D01*
X174681944Y-105534483D01*
X174683696Y-105534938D01*
X174867842Y-105584279D01*
X174877513Y-105587301D01*
X175052097Y-105649768D01*
X175054743Y-105650748D01*
X175230560Y-105718238D01*
X175239091Y-105721886D01*
X175407811Y-105801685D01*
X175410954Y-105803228D01*
X175577803Y-105888242D01*
X175585239Y-105892359D01*
X175745823Y-105988610D01*
X175749530Y-105990923D01*
X175906016Y-106092546D01*
X175912337Y-106096937D01*
X176062991Y-106208669D01*
X176067161Y-106211901D01*
X176211861Y-106329077D01*
X176217098Y-106333565D01*
X176356185Y-106459626D01*
X176360593Y-106463823D01*
X176492175Y-106595405D01*
X176496372Y-106599813D01*
X176622433Y-106738900D01*
X176626921Y-106744137D01*
X176744097Y-106888837D01*
X176747329Y-106893007D01*
X176859061Y-107043661D01*
X176863458Y-107049991D01*
X176965057Y-107206439D01*
X176967406Y-107210204D01*
X177063634Y-107370751D01*
X177067761Y-107378205D01*
X177152750Y-107545005D01*
X177154341Y-107548245D01*
X177179744Y-107601954D01*
X177234097Y-107716873D01*
X177237766Y-107725453D01*
X177305243Y-107901238D01*
X177306230Y-107903901D01*
X177368697Y-108078485D01*
X177371721Y-108088165D01*
X177421033Y-108272198D01*
X177421542Y-108274162D01*
X177466055Y-108451866D01*
X177468244Y-108462598D01*
X177498874Y-108655991D01*
X177499059Y-108657194D01*
X177525170Y-108833220D01*
X177526342Y-108844925D01*
X177537992Y-109067222D01*
X177537889Y-109067227D01*
X177538014Y-109067627D01*
X177545351Y-109216967D01*
X177545500Y-109223052D01*
X177545500Y-129536948D01*
X177545351Y-129543033D01*
X177538017Y-129692303D01*
X177537996Y-129692708D01*
X177526342Y-129915073D01*
X177525170Y-129926778D01*
X177499059Y-130102804D01*
X177498874Y-130104007D01*
X177468244Y-130297400D01*
X177466055Y-130308132D01*
X177421542Y-130485836D01*
X177421033Y-130487800D01*
X177371721Y-130671833D01*
X177368697Y-130681513D01*
X177306230Y-130856097D01*
X177305243Y-130858760D01*
X177237766Y-131034545D01*
X177234097Y-131043125D01*
X177154360Y-131211715D01*
X177152750Y-131214993D01*
X177067761Y-131381793D01*
X177063634Y-131389247D01*
X176967406Y-131549794D01*
X176965043Y-131553581D01*
X176863458Y-131710007D01*
X176859061Y-131716337D01*
X176747329Y-131866991D01*
X176744097Y-131871161D01*
X176626921Y-132015861D01*
X176622433Y-132021098D01*
X176496372Y-132160185D01*
X176492175Y-132164593D01*
X176360593Y-132296175D01*
X176356185Y-132300372D01*
X176217098Y-132426433D01*
X176211861Y-132430921D01*
X176067161Y-132548097D01*
X176062991Y-132551329D01*
X175912337Y-132663061D01*
X175906007Y-132667458D01*
X175749581Y-132769043D01*
X175745794Y-132771406D01*
X175585247Y-132867634D01*
X175577793Y-132871761D01*
X175410993Y-132956750D01*
X175407715Y-132958360D01*
X175239125Y-133038097D01*
X175230545Y-133041766D01*
X175054760Y-133109243D01*
X175052097Y-133110230D01*
X174877513Y-133172697D01*
X174867833Y-133175721D01*
X174683800Y-133225033D01*
X174681836Y-133225542D01*
X174504132Y-133270055D01*
X174493400Y-133272244D01*
X174300007Y-133302874D01*
X174298804Y-133303059D01*
X174122778Y-133329170D01*
X174111073Y-133330342D01*
X173888708Y-133341996D01*
X173888303Y-133342017D01*
X173739033Y-133349351D01*
X173732948Y-133349500D01*
X127257052Y-133349500D01*
X127250967Y-133349351D01*
X127101695Y-133342017D01*
X127101290Y-133341996D01*
X126878925Y-133330342D01*
X126867220Y-133329170D01*
X126691194Y-133303059D01*
X126689991Y-133302874D01*
X126496598Y-133272244D01*
X126485866Y-133270055D01*
X126308162Y-133225542D01*
X126306198Y-133225033D01*
X126122165Y-133175721D01*
X126112485Y-133172697D01*
X125937901Y-133110230D01*
X125935238Y-133109243D01*
X125759453Y-133041766D01*
X125750883Y-133038101D01*
X125582245Y-132958341D01*
X125579005Y-132956750D01*
X125412205Y-132871761D01*
X125404751Y-132867634D01*
X125244204Y-132771406D01*
X125240439Y-132769057D01*
X125083991Y-132667458D01*
X125077661Y-132663061D01*
X124927007Y-132551329D01*
X124922837Y-132548097D01*
X124778137Y-132430921D01*
X124772900Y-132426433D01*
X124633813Y-132300372D01*
X124629405Y-132296175D01*
X124497823Y-132164593D01*
X124493626Y-132160185D01*
X124367565Y-132021098D01*
X124363077Y-132015861D01*
X124245901Y-131871161D01*
X124242669Y-131866991D01*
X124130937Y-131716337D01*
X124126540Y-131710007D01*
X124036918Y-131572000D01*
X133414357Y-131572000D01*
X133434885Y-131793537D01*
X133495769Y-132007526D01*
X133594941Y-132206688D01*
X133729019Y-132384237D01*
X133893437Y-132534124D01*
X134082595Y-132651245D01*
X134082597Y-132651245D01*
X134082599Y-132651247D01*
X134290060Y-132731618D01*
X134508757Y-132772500D01*
X134731241Y-132772500D01*
X134731243Y-132772500D01*
X134949940Y-132731618D01*
X135157401Y-132651247D01*
X135346562Y-132534124D01*
X135510981Y-132384236D01*
X135645058Y-132206689D01*
X135744229Y-132007528D01*
X135805115Y-131793536D01*
X135825643Y-131572000D01*
X135805115Y-131350464D01*
X135767999Y-131220014D01*
X135744230Y-131136473D01*
X135645058Y-130937311D01*
X135510980Y-130759762D01*
X135346562Y-130609875D01*
X135157404Y-130492754D01*
X135090904Y-130466992D01*
X134949940Y-130412382D01*
X134731243Y-130371500D01*
X134508757Y-130371500D01*
X134290060Y-130412381D01*
X134290060Y-130412382D01*
X134082595Y-130492754D01*
X133893437Y-130609875D01*
X133729019Y-130759762D01*
X133594941Y-130937311D01*
X133495769Y-131136473D01*
X133434885Y-131350462D01*
X133414357Y-131572000D01*
X124036918Y-131572000D01*
X124024923Y-131553530D01*
X124022610Y-131549823D01*
X123926359Y-131389239D01*
X123922237Y-131381793D01*
X123906577Y-131351058D01*
X123837228Y-131214954D01*
X123835685Y-131211811D01*
X123755886Y-131043091D01*
X123752238Y-131034560D01*
X123684748Y-130858743D01*
X123683768Y-130856097D01*
X123621301Y-130681513D01*
X123618277Y-130671833D01*
X123617822Y-130670134D01*
X123568938Y-130487696D01*
X123568483Y-130485944D01*
X123523938Y-130308111D01*
X123521758Y-130297424D01*
X123491098Y-130103840D01*
X123490957Y-130102923D01*
X123464825Y-129926757D01*
X123463658Y-129915097D01*
X123451999Y-129692663D01*
X123447829Y-129607764D01*
X125399787Y-129607764D01*
X125429413Y-129877016D01*
X125463998Y-130009304D01*
X125497928Y-130139088D01*
X125565214Y-130297424D01*
X125603871Y-130388392D01*
X125744982Y-130619611D01*
X125918253Y-130827818D01*
X125918255Y-130827820D01*
X126119998Y-131008582D01*
X126345910Y-131158044D01*
X126452211Y-131207876D01*
X126591177Y-131273021D01*
X126848581Y-131350462D01*
X126850569Y-131351060D01*
X127118561Y-131390500D01*
X127321631Y-131390500D01*
X127321634Y-131390500D01*
X127524156Y-131375677D01*
X127524156Y-131375676D01*
X127788553Y-131316780D01*
X128041558Y-131220014D01*
X128277777Y-131087441D01*
X128492177Y-130921888D01*
X128680186Y-130726881D01*
X128837799Y-130506579D01*
X128961656Y-130265675D01*
X129049118Y-130009305D01*
X129089625Y-129790000D01*
X135627128Y-129790000D01*
X135679733Y-129986326D01*
X135775865Y-130192480D01*
X135906341Y-130378819D01*
X136067180Y-130539658D01*
X136253519Y-130670134D01*
X136459673Y-130766266D01*
X136655999Y-130818871D01*
X136656000Y-130818872D01*
X136656000Y-129790000D01*
X137156000Y-129790000D01*
X137156000Y-130818871D01*
X137352326Y-130766266D01*
X137558480Y-130670134D01*
X137744819Y-130539658D01*
X137905658Y-130378819D01*
X138036134Y-130192480D01*
X138132266Y-129986326D01*
X138184872Y-129790000D01*
X137156000Y-129790000D01*
X136656000Y-129790000D01*
X135627128Y-129790000D01*
X129089625Y-129790000D01*
X129098319Y-129742933D01*
X129108212Y-129472235D01*
X129078586Y-129202982D01*
X129010072Y-128940912D01*
X128904130Y-128691610D01*
X128763018Y-128460390D01*
X128763017Y-128460388D01*
X128589746Y-128252181D01*
X128484758Y-128158112D01*
X128388002Y-128071418D01*
X128162090Y-127921956D01*
X128162086Y-127921954D01*
X127916822Y-127806978D01*
X127657437Y-127728941D01*
X127657431Y-127728940D01*
X127389439Y-127689500D01*
X127186369Y-127689500D01*
X127186366Y-127689500D01*
X126983843Y-127704322D01*
X126719449Y-127763219D01*
X126466441Y-127859986D01*
X126230223Y-127992559D01*
X126015825Y-128158109D01*
X125827813Y-128353120D01*
X125670201Y-128573420D01*
X125546342Y-128814329D01*
X125458881Y-129070695D01*
X125409680Y-129337066D01*
X125399787Y-129607764D01*
X123447829Y-129607764D01*
X123444649Y-129543032D01*
X123444500Y-129536949D01*
X123444500Y-123440000D01*
X128219001Y-123440000D01*
X128219001Y-123859979D01*
X128229493Y-123962695D01*
X128284642Y-124129122D01*
X128376683Y-124278345D01*
X128500654Y-124402316D01*
X128649877Y-124494357D01*
X128816303Y-124549506D01*
X128919021Y-124560000D01*
X129564000Y-124560000D01*
X129564000Y-123440000D01*
X130064000Y-123440000D01*
X130064000Y-124559999D01*
X130708979Y-124559999D01*
X130811695Y-124549506D01*
X130978122Y-124494357D01*
X131127345Y-124402316D01*
X131251316Y-124278345D01*
X131343357Y-124129122D01*
X131398506Y-123962696D01*
X131409000Y-123859979D01*
X131409000Y-123440000D01*
X130064000Y-123440000D01*
X129564000Y-123440000D01*
X128219001Y-123440000D01*
X123444500Y-123440000D01*
X123444500Y-120591627D01*
X128214784Y-120591627D01*
X128224685Y-120824704D01*
X128273836Y-121052767D01*
X128360819Y-121269231D01*
X128360821Y-121269235D01*
X128483138Y-121467891D01*
X128611242Y-121613446D01*
X128637270Y-121643019D01*
X128677230Y-121675285D01*
X128715557Y-121728546D01*
X128721337Y-121793908D01*
X128692953Y-121853069D01*
X128660256Y-121874861D01*
X128662213Y-121878034D01*
X128500654Y-121977683D01*
X128376683Y-122101654D01*
X128284642Y-122250877D01*
X128229493Y-122417303D01*
X128219000Y-122520021D01*
X128219000Y-122940000D01*
X131408999Y-122940000D01*
X131408999Y-122520021D01*
X131398506Y-122417304D01*
X131343357Y-122250877D01*
X131251316Y-122101654D01*
X131127345Y-121977683D01*
X130965787Y-121878034D01*
X130967573Y-121875137D01*
X130936622Y-121854975D01*
X130907546Y-121799004D01*
X130909765Y-121735971D01*
X130942702Y-121682185D01*
X131071516Y-121558728D01*
X131210240Y-121371161D01*
X131211493Y-121368674D01*
X131214497Y-121365404D01*
X131216515Y-121362676D01*
X131216805Y-121362890D01*
X131257202Y-121318910D01*
X131322216Y-121300500D01*
X133109192Y-121300500D01*
X133156645Y-121309939D01*
X133196873Y-121336819D01*
X133313115Y-121453061D01*
X133345209Y-121508648D01*
X133345209Y-121572834D01*
X133334364Y-121613307D01*
X133314531Y-121840000D01*
X133334364Y-122066689D01*
X133393261Y-122286497D01*
X133489432Y-122492735D01*
X133619953Y-122679140D01*
X133780860Y-122840047D01*
X133810594Y-122860867D01*
X133847567Y-122901686D01*
X133863216Y-122954490D01*
X133854454Y-123008863D01*
X133823010Y-123054079D01*
X133729017Y-123139765D01*
X133594941Y-123317311D01*
X133495769Y-123516473D01*
X133434885Y-123730462D01*
X133414357Y-123952000D01*
X133434885Y-124173537D01*
X133495769Y-124387526D01*
X133594941Y-124586688D01*
X133729019Y-124764237D01*
X133893437Y-124914124D01*
X134082595Y-125031245D01*
X134082597Y-125031245D01*
X134082599Y-125031247D01*
X134290060Y-125111618D01*
X134508757Y-125152500D01*
X134731241Y-125152500D01*
X134731243Y-125152500D01*
X134949940Y-125111618D01*
X135157401Y-125031247D01*
X135346562Y-124914124D01*
X135465014Y-124806140D01*
X135520624Y-124776964D01*
X135583400Y-124778776D01*
X135637237Y-124811114D01*
X135668324Y-124865683D01*
X135679259Y-124906493D01*
X135775432Y-125112735D01*
X135905953Y-125299140D01*
X136066859Y-125460046D01*
X136253263Y-125590566D01*
X136253266Y-125590568D01*
X136311275Y-125617618D01*
X136363450Y-125663375D01*
X136382869Y-125730000D01*
X136363450Y-125796625D01*
X136311275Y-125842382D01*
X136253263Y-125869433D01*
X136066859Y-125999953D01*
X135905953Y-126160859D01*
X135775432Y-126347264D01*
X135679261Y-126553502D01*
X135620364Y-126773310D01*
X135600531Y-126999999D01*
X135620364Y-127226689D01*
X135679261Y-127446497D01*
X135775432Y-127652735D01*
X135905953Y-127839140D01*
X136066859Y-128000046D01*
X136253264Y-128130567D01*
X136253265Y-128130567D01*
X136253266Y-128130568D01*
X136311865Y-128157893D01*
X136364040Y-128203650D01*
X136383460Y-128270274D01*
X136364041Y-128336899D01*
X136311866Y-128382656D01*
X136253522Y-128409863D01*
X136067180Y-128540341D01*
X135906341Y-128701180D01*
X135775865Y-128887519D01*
X135679733Y-129093673D01*
X135627128Y-129289999D01*
X135627128Y-129290000D01*
X138184872Y-129290000D01*
X138184871Y-129289999D01*
X138132266Y-129093673D01*
X138036134Y-128887519D01*
X137905658Y-128701180D01*
X137744819Y-128540341D01*
X137558482Y-128409866D01*
X137500133Y-128382657D01*
X137447958Y-128336899D01*
X137428539Y-128270274D01*
X137447959Y-128203649D01*
X137500134Y-128157893D01*
X137558734Y-128130568D01*
X137745139Y-128000047D01*
X137906047Y-127839139D01*
X138036568Y-127652734D01*
X138132739Y-127446496D01*
X138191635Y-127226692D01*
X138211468Y-127000000D01*
X138191635Y-126773308D01*
X138132739Y-126553504D01*
X138036568Y-126347266D01*
X137939503Y-126208642D01*
X137906046Y-126160859D01*
X137745140Y-125999953D01*
X137558733Y-125869431D01*
X137500725Y-125842382D01*
X137448549Y-125796625D01*
X137429129Y-125730000D01*
X137448549Y-125663375D01*
X137500725Y-125617618D01*
X137558734Y-125590568D01*
X137745139Y-125460047D01*
X137906047Y-125299139D01*
X138036568Y-125112734D01*
X138132739Y-124906496D01*
X138191635Y-124686692D01*
X138211468Y-124460000D01*
X138191635Y-124233308D01*
X138132739Y-124013504D01*
X138036568Y-123807266D01*
X138021377Y-123785571D01*
X137906046Y-123620859D01*
X137745140Y-123459953D01*
X137558732Y-123329430D01*
X137500724Y-123302380D01*
X137448549Y-123256623D01*
X137429130Y-123189997D01*
X137448550Y-123123373D01*
X137500721Y-123077619D01*
X137558734Y-123050568D01*
X137745139Y-122920047D01*
X137906047Y-122759139D01*
X138036568Y-122572734D01*
X138132739Y-122366496D01*
X138191635Y-122146692D01*
X138211468Y-121920000D01*
X138191635Y-121693308D01*
X138180790Y-121652834D01*
X138180790Y-121588648D01*
X138212882Y-121533062D01*
X141496513Y-118249431D01*
X141513162Y-118236094D01*
X141514936Y-118234204D01*
X141514940Y-118234202D01*
X141562898Y-118183130D01*
X141565546Y-118180398D01*
X141585911Y-118160035D01*
X141588611Y-118156552D01*
X141596187Y-118147681D01*
X141627448Y-118114393D01*
X141637675Y-118095787D01*
X141648348Y-118079539D01*
X141661362Y-118062764D01*
X141679491Y-118020868D01*
X141684631Y-118010377D01*
X141706627Y-117970368D01*
X141711906Y-117949805D01*
X141718204Y-117931406D01*
X141726635Y-117911926D01*
X141733777Y-117866824D01*
X141736145Y-117855397D01*
X141747500Y-117811178D01*
X141747500Y-117789955D01*
X141749027Y-117770556D01*
X141749336Y-117768602D01*
X141752347Y-117749595D01*
X141748050Y-117704139D01*
X141747500Y-117692470D01*
X141747500Y-112969808D01*
X141756939Y-112922355D01*
X141783819Y-112882127D01*
X142077901Y-112588045D01*
X143009793Y-111656151D01*
X143061217Y-111625252D01*
X143121131Y-111622112D01*
X143175506Y-111647467D01*
X143211614Y-111695381D01*
X143221000Y-111754639D01*
X143220531Y-111759997D01*
X143240364Y-111986689D01*
X143299261Y-112206497D01*
X143395432Y-112412735D01*
X143525953Y-112599140D01*
X143686859Y-112760046D01*
X143861211Y-112882127D01*
X143873266Y-112890568D01*
X143931275Y-112917618D01*
X143983450Y-112963375D01*
X144002869Y-113030000D01*
X143983450Y-113096625D01*
X143931275Y-113142382D01*
X143873263Y-113169433D01*
X143686859Y-113299953D01*
X143525953Y-113460859D01*
X143395432Y-113647264D01*
X143299261Y-113853502D01*
X143240364Y-114073310D01*
X143220531Y-114299999D01*
X143240364Y-114526689D01*
X143299261Y-114746497D01*
X143395432Y-114952735D01*
X143525953Y-115139140D01*
X143686859Y-115300046D01*
X143822890Y-115395295D01*
X143873266Y-115430568D01*
X143931275Y-115457618D01*
X143983450Y-115503375D01*
X144002869Y-115570000D01*
X143983450Y-115636625D01*
X143931275Y-115682382D01*
X143873263Y-115709433D01*
X143686859Y-115839953D01*
X143525953Y-116000859D01*
X143395432Y-116187264D01*
X143299261Y-116393502D01*
X143240364Y-116613310D01*
X143220531Y-116839999D01*
X143240364Y-117066689D01*
X143299261Y-117286497D01*
X143395432Y-117492735D01*
X143525953Y-117679140D01*
X143686859Y-117840046D01*
X143872646Y-117970134D01*
X143873266Y-117970568D01*
X143926486Y-117995385D01*
X143931275Y-117997618D01*
X143983450Y-118043375D01*
X144002869Y-118110000D01*
X143983450Y-118176625D01*
X143931275Y-118222382D01*
X143873263Y-118249433D01*
X143686859Y-118379953D01*
X143525953Y-118540859D01*
X143395432Y-118727264D01*
X143299261Y-118933502D01*
X143240364Y-119153310D01*
X143220531Y-119379999D01*
X143240364Y-119606689D01*
X143299261Y-119826497D01*
X143395432Y-120032735D01*
X143525953Y-120219140D01*
X143686859Y-120380046D01*
X143822890Y-120475295D01*
X143873266Y-120510568D01*
X143931273Y-120537617D01*
X143983449Y-120583373D01*
X144002869Y-120649997D01*
X143983451Y-120716622D01*
X143931276Y-120762380D01*
X143873266Y-120789431D01*
X143686859Y-120919953D01*
X143525953Y-121080859D01*
X143395432Y-121267264D01*
X143299261Y-121473502D01*
X143240364Y-121693310D01*
X143220531Y-121919999D01*
X143240364Y-122146689D01*
X143253936Y-122197342D01*
X143299261Y-122366496D01*
X143395432Y-122572734D01*
X143429354Y-122621180D01*
X143431110Y-122623688D01*
X143452225Y-122676840D01*
X143447240Y-122733814D01*
X143417215Y-122782491D01*
X142976484Y-123223222D01*
X142959831Y-123236564D01*
X142910133Y-123289487D01*
X142907427Y-123292280D01*
X142887083Y-123312625D01*
X142884376Y-123316114D01*
X142876807Y-123324975D01*
X142845551Y-123358261D01*
X142835322Y-123376866D01*
X142824645Y-123393121D01*
X142811636Y-123409892D01*
X142793506Y-123451786D01*
X142788370Y-123462270D01*
X142766372Y-123502286D01*
X142761091Y-123522853D01*
X142754791Y-123541254D01*
X142746364Y-123560728D01*
X142739223Y-123605815D01*
X142736855Y-123617247D01*
X142728531Y-123649674D01*
X142725500Y-123661478D01*
X142725500Y-123682699D01*
X142723973Y-123702098D01*
X142720653Y-123723057D01*
X142724950Y-123768515D01*
X142725500Y-123780184D01*
X142725500Y-128304495D01*
X142723158Y-128325704D01*
X142725439Y-128398262D01*
X142725500Y-128402157D01*
X142725500Y-128430926D01*
X142726053Y-128435307D01*
X142726968Y-128446940D01*
X142728402Y-128492569D01*
X142734323Y-128512950D01*
X142738267Y-128531995D01*
X142740928Y-128553059D01*
X142757737Y-128595515D01*
X142761520Y-128606563D01*
X142774256Y-128650400D01*
X142785061Y-128668670D01*
X142793621Y-128686143D01*
X142801431Y-128705869D01*
X142828267Y-128742808D01*
X142834673Y-128752560D01*
X142857919Y-128791865D01*
X142857921Y-128791867D01*
X142872925Y-128806871D01*
X142885564Y-128821669D01*
X142898037Y-128838837D01*
X142933212Y-128867936D01*
X142941854Y-128875800D01*
X143219115Y-129153061D01*
X143251209Y-129208648D01*
X143251209Y-129272834D01*
X143240364Y-129313307D01*
X143220531Y-129540000D01*
X143240364Y-129766689D01*
X143299261Y-129986497D01*
X143395432Y-130192735D01*
X143525953Y-130379140D01*
X143686859Y-130540046D01*
X143873264Y-130670567D01*
X143873265Y-130670567D01*
X143873266Y-130670568D01*
X144079504Y-130766739D01*
X144299308Y-130825635D01*
X144526000Y-130845468D01*
X144752692Y-130825635D01*
X144972496Y-130766739D01*
X145178734Y-130670568D01*
X145365139Y-130540047D01*
X145526047Y-130379139D01*
X145656568Y-130192734D01*
X145752739Y-129986496D01*
X145811635Y-129766692D01*
X145825539Y-129607764D01*
X171881787Y-129607764D01*
X171911413Y-129877016D01*
X171945998Y-130009304D01*
X171979928Y-130139088D01*
X172047214Y-130297424D01*
X172085871Y-130388392D01*
X172226982Y-130619611D01*
X172400253Y-130827818D01*
X172400255Y-130827820D01*
X172601998Y-131008582D01*
X172827910Y-131158044D01*
X172934211Y-131207876D01*
X173073177Y-131273021D01*
X173330581Y-131350462D01*
X173332569Y-131351060D01*
X173600561Y-131390500D01*
X173803631Y-131390500D01*
X173803634Y-131390500D01*
X174006156Y-131375677D01*
X174006156Y-131375676D01*
X174270553Y-131316780D01*
X174523558Y-131220014D01*
X174759777Y-131087441D01*
X174974177Y-130921888D01*
X175162186Y-130726881D01*
X175319799Y-130506579D01*
X175443656Y-130265675D01*
X175531118Y-130009305D01*
X175580319Y-129742933D01*
X175590212Y-129472235D01*
X175560586Y-129202982D01*
X175492072Y-128940912D01*
X175386130Y-128691610D01*
X175245018Y-128460390D01*
X175245017Y-128460388D01*
X175071746Y-128252181D01*
X174966758Y-128158112D01*
X174870002Y-128071418D01*
X174644090Y-127921956D01*
X174644086Y-127921954D01*
X174398822Y-127806978D01*
X174139437Y-127728941D01*
X174139431Y-127728940D01*
X173871439Y-127689500D01*
X173668369Y-127689500D01*
X173668366Y-127689500D01*
X173465843Y-127704322D01*
X173201449Y-127763219D01*
X172948441Y-127859986D01*
X172712223Y-127992559D01*
X172497825Y-128158109D01*
X172309813Y-128353120D01*
X172152201Y-128573420D01*
X172028342Y-128814329D01*
X171940881Y-129070695D01*
X171891680Y-129337066D01*
X171881787Y-129607764D01*
X145825539Y-129607764D01*
X145831468Y-129540000D01*
X145811635Y-129313308D01*
X145752739Y-129093504D01*
X145656568Y-128887266D01*
X145648539Y-128875800D01*
X145526046Y-128700859D01*
X145365140Y-128539953D01*
X145178733Y-128409431D01*
X145120725Y-128382382D01*
X145068549Y-128336625D01*
X145049129Y-128270000D01*
X145068549Y-128203375D01*
X145120725Y-128157618D01*
X145178734Y-128130568D01*
X145259358Y-128074115D01*
X147594436Y-128074115D01*
X147736958Y-128180806D01*
X147988047Y-128317911D01*
X148256097Y-128417888D01*
X148535642Y-128478699D01*
X148821000Y-128499109D01*
X149106357Y-128478699D01*
X149385902Y-128417888D01*
X149653952Y-128317911D01*
X149905041Y-128180806D01*
X150047562Y-128074115D01*
X163134436Y-128074115D01*
X163276958Y-128180806D01*
X163528047Y-128317911D01*
X163796097Y-128417888D01*
X164075642Y-128478699D01*
X164361000Y-128499109D01*
X164646357Y-128478699D01*
X164925902Y-128417888D01*
X165193952Y-128317911D01*
X165445041Y-128180806D01*
X165587562Y-128074115D01*
X164361001Y-126847553D01*
X164361000Y-126847553D01*
X163134436Y-128074115D01*
X150047562Y-128074115D01*
X148821001Y-126847553D01*
X148821000Y-126847553D01*
X147594436Y-128074115D01*
X145259358Y-128074115D01*
X145365139Y-128000047D01*
X145526047Y-127839139D01*
X145656568Y-127652734D01*
X145752739Y-127446496D01*
X145811635Y-127226692D01*
X145831468Y-127000000D01*
X145811635Y-126773308D01*
X145752739Y-126553504D01*
X145724992Y-126494000D01*
X146815890Y-126494000D01*
X146836300Y-126779357D01*
X146897111Y-127058902D01*
X146997088Y-127326952D01*
X147134193Y-127578042D01*
X147240883Y-127720562D01*
X148467446Y-126494000D01*
X147240883Y-125267436D01*
X147240882Y-125267437D01*
X147134195Y-125409954D01*
X146997088Y-125661047D01*
X146897111Y-125929097D01*
X146836300Y-126208642D01*
X146815890Y-126494000D01*
X145724992Y-126494000D01*
X145656568Y-126347266D01*
X145559503Y-126208642D01*
X145526046Y-126160859D01*
X145365140Y-125999953D01*
X145178733Y-125869431D01*
X145120725Y-125842382D01*
X145068549Y-125796625D01*
X145049129Y-125730000D01*
X145068549Y-125663375D01*
X145120725Y-125617618D01*
X145178734Y-125590568D01*
X145365139Y-125460047D01*
X145526047Y-125299139D01*
X145622304Y-125161667D01*
X145664902Y-125123714D01*
X145719985Y-125108852D01*
X145759939Y-125107597D01*
X145780319Y-125101675D01*
X145799359Y-125097732D01*
X145820428Y-125095071D01*
X145862890Y-125078258D01*
X145873927Y-125074480D01*
X145917768Y-125061744D01*
X145936040Y-125050936D01*
X145953506Y-125042380D01*
X145973241Y-125034568D01*
X146010186Y-125007725D01*
X146019918Y-125001332D01*
X146059235Y-124978081D01*
X146074244Y-124963071D01*
X146089033Y-124950439D01*
X146106207Y-124937963D01*
X146135316Y-124902774D01*
X146143160Y-124894154D01*
X149293513Y-121743801D01*
X149310162Y-121730464D01*
X149311936Y-121728574D01*
X149311940Y-121728572D01*
X149359898Y-121677500D01*
X149362546Y-121674768D01*
X149382911Y-121654405D01*
X149385611Y-121650922D01*
X149393197Y-121642041D01*
X149395800Y-121639268D01*
X149439175Y-121609422D01*
X149491026Y-121600264D01*
X149541998Y-121613444D01*
X149601153Y-121643270D01*
X149757291Y-121691086D01*
X149813636Y-121727245D01*
X149842972Y-121787428D01*
X149836742Y-121854089D01*
X149796765Y-121907795D01*
X149621095Y-122043442D01*
X149430545Y-122241083D01*
X149270802Y-122464364D01*
X149145272Y-122708521D01*
X149056629Y-122968352D01*
X149006763Y-123238325D01*
X148996737Y-123512678D01*
X149026763Y-123785569D01*
X149032890Y-123809005D01*
X149096204Y-124051182D01*
X149203577Y-124303852D01*
X149213736Y-124320498D01*
X149231889Y-124385043D01*
X149213788Y-124449603D01*
X149164724Y-124495301D01*
X149099043Y-124508777D01*
X148821000Y-124488890D01*
X148535642Y-124509300D01*
X148256097Y-124570111D01*
X147988047Y-124670088D01*
X147736954Y-124807195D01*
X147594437Y-124913882D01*
X147594436Y-124913882D01*
X148821000Y-126140447D01*
X150401115Y-127720562D01*
X150507806Y-127578041D01*
X150644911Y-127326952D01*
X150744888Y-127058902D01*
X150805699Y-126779357D01*
X150826109Y-126494000D01*
X150805699Y-126208642D01*
X150744888Y-125929097D01*
X150644911Y-125661047D01*
X150553131Y-125492964D01*
X150538146Y-125426797D01*
X150560225Y-125362647D01*
X150612757Y-125319718D01*
X150680017Y-125310859D01*
X150713284Y-125315754D01*
X150738729Y-125319500D01*
X150738731Y-125319500D01*
X150944547Y-125319500D01*
X150944551Y-125319500D01*
X151149805Y-125304477D01*
X151149804Y-125304477D01*
X151417775Y-125244784D01*
X151674198Y-125146711D01*
X151913609Y-125012347D01*
X152130904Y-124844557D01*
X152321454Y-124646916D01*
X152481196Y-124423637D01*
X152606727Y-124179479D01*
X152665366Y-124007594D01*
X152695370Y-123919647D01*
X152745236Y-123649674D01*
X152755262Y-123375321D01*
X152749722Y-123324975D01*
X152725236Y-123102429D01*
X152655796Y-122836818D01*
X152548423Y-122584148D01*
X152405405Y-122349804D01*
X152229791Y-122138782D01*
X152025323Y-121955577D01*
X151796359Y-121804096D01*
X151547779Y-121687567D01*
X151284881Y-121608473D01*
X151284880Y-121608472D01*
X151284874Y-121608471D01*
X151115202Y-121583500D01*
X151052001Y-121554489D01*
X151014357Y-121496017D01*
X151014108Y-121426476D01*
X151051332Y-121367740D01*
X151107018Y-121318731D01*
X151253578Y-121137220D01*
X151267121Y-121112975D01*
X151276103Y-121096899D01*
X151319342Y-121051783D01*
X151379094Y-121033484D01*
X151440182Y-121046649D01*
X151487092Y-121087935D01*
X151495217Y-121099957D01*
X151583847Y-121231088D01*
X151745272Y-121399516D01*
X151932839Y-121538240D01*
X152141153Y-121643270D01*
X152364220Y-121711583D01*
X152595624Y-121741216D01*
X152828707Y-121731314D01*
X153056765Y-121682164D01*
X153273235Y-121595179D01*
X153471891Y-121472862D01*
X153647018Y-121318731D01*
X153793578Y-121137220D01*
X153807121Y-121112975D01*
X153816103Y-121096899D01*
X153859342Y-121051783D01*
X153919094Y-121033484D01*
X153980182Y-121046649D01*
X154027092Y-121087935D01*
X154035217Y-121099957D01*
X154123847Y-121231088D01*
X154285272Y-121399516D01*
X154472839Y-121538240D01*
X154681153Y-121643270D01*
X154904220Y-121711583D01*
X155135624Y-121741216D01*
X155368707Y-121731314D01*
X155596765Y-121682164D01*
X155813235Y-121595179D01*
X156011891Y-121472862D01*
X156187018Y-121318731D01*
X156333578Y-121137220D01*
X156347121Y-121112975D01*
X156356103Y-121096899D01*
X156399342Y-121051783D01*
X156459094Y-121033484D01*
X156520182Y-121046649D01*
X156567092Y-121087935D01*
X156575217Y-121099957D01*
X156663847Y-121231088D01*
X156825272Y-121399516D01*
X157012839Y-121538240D01*
X157221153Y-121643270D01*
X157444220Y-121711583D01*
X157675624Y-121741216D01*
X157908707Y-121731314D01*
X158136765Y-121682164D01*
X158353235Y-121595179D01*
X158551891Y-121472862D01*
X158727018Y-121318731D01*
X158873578Y-121137220D01*
X158887121Y-121112975D01*
X158896103Y-121096899D01*
X158939342Y-121051783D01*
X158999094Y-121033484D01*
X159060182Y-121046649D01*
X159107092Y-121087935D01*
X159115217Y-121099957D01*
X159203847Y-121231088D01*
X159365272Y-121399516D01*
X159552839Y-121538240D01*
X159761153Y-121643270D01*
X159984220Y-121711583D01*
X160215624Y-121741216D01*
X160448707Y-121731314D01*
X160676765Y-121682164D01*
X160893235Y-121595179D01*
X161091891Y-121472862D01*
X161267018Y-121318731D01*
X161413578Y-121137220D01*
X161427121Y-121112975D01*
X161436103Y-121096899D01*
X161479342Y-121051783D01*
X161539094Y-121033484D01*
X161600182Y-121046649D01*
X161647092Y-121087935D01*
X161743846Y-121231087D01*
X161905273Y-121399518D01*
X161907322Y-121401033D01*
X161912073Y-121406612D01*
X161912575Y-121407136D01*
X161912544Y-121407165D01*
X161943752Y-121443813D01*
X161957560Y-121498280D01*
X161945911Y-121553249D01*
X161911197Y-121597433D01*
X161860546Y-121621759D01*
X161764225Y-121643215D01*
X161507803Y-121741288D01*
X161268391Y-121875653D01*
X161051094Y-122043443D01*
X160860545Y-122241083D01*
X160700802Y-122464364D01*
X160575272Y-122708521D01*
X160486629Y-122968352D01*
X160436763Y-123238325D01*
X160426737Y-123512678D01*
X160456763Y-123785569D01*
X160526204Y-124051181D01*
X160633577Y-124303852D01*
X160750416Y-124495301D01*
X160776595Y-124538196D01*
X160952209Y-124749218D01*
X161156677Y-124932423D01*
X161385641Y-125083904D01*
X161634221Y-125200433D01*
X161897119Y-125279527D01*
X162168731Y-125319500D01*
X162374547Y-125319500D01*
X162374549Y-125319500D01*
X162421410Y-125316070D01*
X162511187Y-125309499D01*
X162575604Y-125322215D01*
X162624498Y-125366042D01*
X162644157Y-125428690D01*
X162629070Y-125492595D01*
X162537088Y-125661046D01*
X162437111Y-125929097D01*
X162376300Y-126208642D01*
X162355890Y-126494000D01*
X162376300Y-126779357D01*
X162437111Y-127058902D01*
X162537088Y-127326952D01*
X162674193Y-127578042D01*
X162780883Y-127720562D01*
X164007447Y-126494000D01*
X164714553Y-126494000D01*
X165941115Y-127720562D01*
X166047806Y-127578041D01*
X166184911Y-127326952D01*
X166284888Y-127058902D01*
X166345699Y-126779357D01*
X166366109Y-126494000D01*
X166345699Y-126208642D01*
X166284888Y-125929097D01*
X166184911Y-125661047D01*
X166047806Y-125409958D01*
X165941115Y-125267436D01*
X164714553Y-126494000D01*
X164007447Y-126494000D01*
X164361000Y-126140447D01*
X165587562Y-124913883D01*
X165445042Y-124807193D01*
X165193952Y-124670088D01*
X164925902Y-124570111D01*
X164646357Y-124509300D01*
X164360999Y-124488890D01*
X164079148Y-124509049D01*
X164015489Y-124496592D01*
X163966829Y-124453698D01*
X163946485Y-124392105D01*
X163960024Y-124328667D01*
X164035093Y-124182657D01*
X164036727Y-124179479D01*
X164095366Y-124007594D01*
X164125370Y-123919647D01*
X164175236Y-123649674D01*
X164182898Y-123440000D01*
X169115425Y-123440000D01*
X169148317Y-123592621D01*
X169235267Y-123809005D01*
X169357543Y-124007594D01*
X169511618Y-124182657D01*
X169693057Y-124329160D01*
X169896655Y-124442896D01*
X170116544Y-124520588D01*
X170346394Y-124560000D01*
X170438000Y-124560000D01*
X170438000Y-123440000D01*
X170938000Y-123440000D01*
X170938000Y-124560000D01*
X170971198Y-124560000D01*
X171145364Y-124545176D01*
X171371054Y-124486410D01*
X171583557Y-124390353D01*
X171776772Y-124259763D01*
X171945139Y-124098396D01*
X172083812Y-123910898D01*
X172188803Y-123702660D01*
X172257092Y-123479673D01*
X172262173Y-123440000D01*
X170938000Y-123440000D01*
X170438000Y-123440000D01*
X169115425Y-123440000D01*
X164182898Y-123440000D01*
X164185262Y-123375321D01*
X164179722Y-123324975D01*
X164155236Y-123102429D01*
X164085796Y-122836818D01*
X163978423Y-122584148D01*
X163835405Y-122349804D01*
X163659791Y-122138782D01*
X163455323Y-121955577D01*
X163305133Y-121856212D01*
X163261499Y-121805900D01*
X163250187Y-121740269D01*
X163274462Y-121678252D01*
X163327317Y-121637740D01*
X163433235Y-121595179D01*
X163631891Y-121472862D01*
X163807018Y-121318731D01*
X163838911Y-121279231D01*
X163892178Y-121240902D01*
X163957547Y-121235126D01*
X164016710Y-121263521D01*
X164038344Y-121295993D01*
X164041578Y-121293999D01*
X164049185Y-121306333D01*
X164049186Y-121306334D01*
X164056943Y-121318910D01*
X164141288Y-121455657D01*
X164265342Y-121579711D01*
X164290420Y-121595179D01*
X164414666Y-121671814D01*
X164479537Y-121693310D01*
X164581202Y-121726999D01*
X164591703Y-121728071D01*
X164683991Y-121737500D01*
X166024008Y-121737499D01*
X166126797Y-121726999D01*
X166293334Y-121671814D01*
X166442656Y-121579712D01*
X166566712Y-121455656D01*
X166658814Y-121306334D01*
X166713999Y-121139797D01*
X166724500Y-121037009D01*
X166724500Y-120591627D01*
X169088784Y-120591627D01*
X169098685Y-120824704D01*
X169147836Y-121052767D01*
X169234819Y-121269231D01*
X169234821Y-121269235D01*
X169357138Y-121467891D01*
X169485242Y-121613446D01*
X169511270Y-121643019D01*
X169692776Y-121789576D01*
X169733590Y-121812376D01*
X169778706Y-121855616D01*
X169797004Y-121915367D01*
X169783839Y-121976455D01*
X169742553Y-122023365D01*
X169599227Y-122120236D01*
X169430860Y-122281603D01*
X169292187Y-122469101D01*
X169187196Y-122677339D01*
X169118907Y-122900326D01*
X169113827Y-122940000D01*
X172260575Y-122940000D01*
X172227682Y-122787378D01*
X172140732Y-122570994D01*
X172018456Y-122372405D01*
X171864381Y-122197342D01*
X171682940Y-122050837D01*
X171642433Y-122028209D01*
X171597318Y-121984970D01*
X171579020Y-121925218D01*
X171592185Y-121864131D01*
X171633469Y-121817222D01*
X171777088Y-121720153D01*
X171945516Y-121558728D01*
X172084240Y-121371161D01*
X172189270Y-121162847D01*
X172257583Y-120939780D01*
X172287216Y-120708376D01*
X172277314Y-120475293D01*
X172228164Y-120247235D01*
X172216874Y-120219140D01*
X172183929Y-120137152D01*
X172141179Y-120030765D01*
X172018862Y-119832109D01*
X171864731Y-119656982D01*
X171864729Y-119656980D01*
X171683221Y-119510421D01*
X171642897Y-119487895D01*
X171597782Y-119444655D01*
X171579484Y-119384904D01*
X171592649Y-119323816D01*
X171633933Y-119276909D01*
X171777088Y-119180153D01*
X171945516Y-119018728D01*
X172084240Y-118831161D01*
X172189270Y-118622847D01*
X172257583Y-118399780D01*
X172287216Y-118168376D01*
X172277314Y-117935293D01*
X172228164Y-117707235D01*
X172224582Y-117698322D01*
X172152220Y-117518241D01*
X172141179Y-117490765D01*
X172018862Y-117292109D01*
X171864731Y-117116982D01*
X171825230Y-117085087D01*
X171786897Y-117031807D01*
X171781131Y-116966423D01*
X171809549Y-116907256D01*
X171841994Y-116885657D01*
X171839999Y-116882422D01*
X171852334Y-116874814D01*
X172001656Y-116782712D01*
X172125712Y-116658656D01*
X172217814Y-116509334D01*
X172272999Y-116342797D01*
X172283500Y-116240009D01*
X172283499Y-114899992D01*
X172272999Y-114797203D01*
X172217814Y-114630666D01*
X172125712Y-114481344D01*
X172125711Y-114481342D01*
X172001657Y-114357288D01*
X171852334Y-114265186D01*
X171685797Y-114210000D01*
X171583009Y-114199500D01*
X169792991Y-114199500D01*
X169690203Y-114210000D01*
X169523665Y-114265186D01*
X169374342Y-114357288D01*
X169250288Y-114481342D01*
X169158186Y-114630665D01*
X169103000Y-114797202D01*
X169092500Y-114899990D01*
X169092500Y-116240008D01*
X169103000Y-116342796D01*
X169158186Y-116509334D01*
X169250288Y-116658657D01*
X169374342Y-116782711D01*
X169536001Y-116882422D01*
X169534186Y-116885364D01*
X169564952Y-116905396D01*
X169594041Y-116961369D01*
X169591829Y-117024410D01*
X169558888Y-117078206D01*
X169430483Y-117201271D01*
X169291760Y-117388838D01*
X169186730Y-117597152D01*
X169122618Y-117806500D01*
X169118417Y-117820220D01*
X169089441Y-118046500D01*
X169088784Y-118051627D01*
X169098685Y-118284704D01*
X169147836Y-118512767D01*
X169234819Y-118729231D01*
X169234821Y-118729235D01*
X169357138Y-118927891D01*
X169501274Y-119091662D01*
X169511270Y-119103019D01*
X169692776Y-119249576D01*
X169733101Y-119272103D01*
X169778217Y-119315343D01*
X169796515Y-119375094D01*
X169783350Y-119436182D01*
X169742064Y-119483092D01*
X169598912Y-119579846D01*
X169430483Y-119741272D01*
X169291760Y-119928838D01*
X169186730Y-120137152D01*
X169186730Y-120137153D01*
X169118417Y-120360220D01*
X169089841Y-120583375D01*
X169088784Y-120591627D01*
X166724500Y-120591627D01*
X166724499Y-119246992D01*
X166713999Y-119144203D01*
X166658814Y-118977666D01*
X166566712Y-118828344D01*
X166566711Y-118828342D01*
X166442657Y-118704288D01*
X166293334Y-118612186D01*
X166126797Y-118557000D01*
X166024009Y-118546500D01*
X164683991Y-118546500D01*
X164581203Y-118557000D01*
X164414665Y-118612186D01*
X164265342Y-118704288D01*
X164141288Y-118828342D01*
X164077999Y-118930952D01*
X164056833Y-118965269D01*
X164041578Y-118990001D01*
X164038637Y-118988187D01*
X164018574Y-119018978D01*
X163962605Y-119048047D01*
X163899576Y-119045825D01*
X163845792Y-119012887D01*
X163816740Y-118982575D01*
X163722728Y-118884484D01*
X163695291Y-118864192D01*
X163535161Y-118745760D01*
X163326847Y-118640730D01*
X163103780Y-118572417D01*
X163103779Y-118572416D01*
X162872376Y-118542784D01*
X162872372Y-118542784D01*
X162639295Y-118552685D01*
X162411232Y-118601836D01*
X162194768Y-118688819D01*
X161996107Y-118811139D01*
X161820980Y-118965270D01*
X161674423Y-119146777D01*
X161651895Y-119187103D01*
X161608655Y-119232217D01*
X161548904Y-119250515D01*
X161487816Y-119237350D01*
X161440907Y-119196064D01*
X161440906Y-119196063D01*
X161344153Y-119052912D01*
X161182728Y-118884484D01*
X161155291Y-118864192D01*
X160995161Y-118745760D01*
X160786847Y-118640730D01*
X160563780Y-118572417D01*
X160563779Y-118572416D01*
X160332376Y-118542784D01*
X160332372Y-118542784D01*
X160100600Y-118552630D01*
X160042006Y-118540688D01*
X160041532Y-118540298D01*
X160034117Y-118551036D01*
X159978942Y-118578623D01*
X159935051Y-118588082D01*
X159871233Y-118601836D01*
X159654768Y-118688819D01*
X159456107Y-118811139D01*
X159280980Y-118965270D01*
X159134423Y-119146777D01*
X159111895Y-119187103D01*
X159068655Y-119232217D01*
X159008904Y-119250515D01*
X158947816Y-119237350D01*
X158900907Y-119196064D01*
X158900906Y-119196063D01*
X158804153Y-119052912D01*
X158642728Y-118884484D01*
X158615291Y-118864192D01*
X158455161Y-118745760D01*
X158246847Y-118640730D01*
X158023780Y-118572417D01*
X158023779Y-118572416D01*
X157792376Y-118542784D01*
X157792372Y-118542784D01*
X157560600Y-118552630D01*
X157502006Y-118540688D01*
X157501532Y-118540298D01*
X157494117Y-118551036D01*
X157438942Y-118578623D01*
X157395051Y-118588082D01*
X157331233Y-118601836D01*
X157114768Y-118688819D01*
X156916107Y-118811139D01*
X156812423Y-118902393D01*
X156762763Y-118929038D01*
X156706438Y-118930952D01*
X156655083Y-118907738D01*
X156619307Y-118864192D01*
X156606500Y-118809309D01*
X156606500Y-118379538D01*
X156621786Y-118319895D01*
X156663876Y-118274957D01*
X156722392Y-118255803D01*
X156782906Y-118267156D01*
X156796670Y-118273575D01*
X157008023Y-118330207D01*
X157153340Y-118342920D01*
X157225999Y-118349277D01*
X157225999Y-118349276D01*
X157226000Y-118349277D01*
X157262417Y-118346091D01*
X157402010Y-118333879D01*
X157462869Y-118343958D01*
X157465579Y-118346091D01*
X157470919Y-118337914D01*
X157523242Y-118308967D01*
X157655330Y-118273575D01*
X157853639Y-118181102D01*
X158032877Y-118055598D01*
X158187598Y-117900877D01*
X158313102Y-117721639D01*
X158383617Y-117570417D01*
X158429375Y-117518241D01*
X158496000Y-117498822D01*
X158562625Y-117518241D01*
X158608382Y-117570417D01*
X158678898Y-117721639D01*
X158804402Y-117900877D01*
X158959123Y-118055598D01*
X159138361Y-118181102D01*
X159336670Y-118273575D01*
X159548023Y-118330207D01*
X159693340Y-118342920D01*
X159765999Y-118349277D01*
X159765999Y-118349276D01*
X159766000Y-118349277D01*
X159802417Y-118346091D01*
X159942010Y-118333879D01*
X160002869Y-118343958D01*
X160005579Y-118346091D01*
X160010919Y-118337914D01*
X160063242Y-118308967D01*
X160195330Y-118273575D01*
X160393639Y-118181102D01*
X160572877Y-118055598D01*
X160727598Y-117900877D01*
X160853102Y-117721639D01*
X160945575Y-117523330D01*
X161002207Y-117311977D01*
X161021277Y-117094000D01*
X161002207Y-116876023D01*
X160945575Y-116664670D01*
X160853102Y-116466362D01*
X160727598Y-116287123D01*
X160572877Y-116132402D01*
X160393639Y-116006898D01*
X160244611Y-115937405D01*
X160195331Y-115914425D01*
X159983974Y-115857792D01*
X159766000Y-115838722D01*
X159548025Y-115857792D01*
X159336668Y-115914425D01*
X159138361Y-116006898D01*
X158959122Y-116132402D01*
X158804402Y-116287122D01*
X158678898Y-116466361D01*
X158608382Y-116617583D01*
X158562625Y-116669759D01*
X158496000Y-116689178D01*
X158429375Y-116669759D01*
X158383618Y-116617583D01*
X158369118Y-116586488D01*
X158313102Y-116466362D01*
X158187598Y-116287123D01*
X158032877Y-116132402D01*
X157853639Y-116006898D01*
X157704611Y-115937405D01*
X157655331Y-115914425D01*
X157443974Y-115857792D01*
X157226000Y-115838722D01*
X157008025Y-115857792D01*
X156796668Y-115914425D01*
X156782907Y-115920843D01*
X156722392Y-115932197D01*
X156663876Y-115913043D01*
X156621786Y-115868105D01*
X156606500Y-115808462D01*
X156606500Y-115689645D01*
X156620511Y-115632388D01*
X156659374Y-115588071D01*
X156762877Y-115515598D01*
X156917598Y-115360877D01*
X157043102Y-115181639D01*
X157113617Y-115030417D01*
X157159375Y-114978241D01*
X157226000Y-114958822D01*
X157292625Y-114978241D01*
X157338382Y-115030417D01*
X157408898Y-115181639D01*
X157534402Y-115360877D01*
X157689123Y-115515598D01*
X157868361Y-115641102D01*
X158066670Y-115733575D01*
X158278023Y-115790207D01*
X158496000Y-115809277D01*
X158713977Y-115790207D01*
X158925330Y-115733575D01*
X159123639Y-115641102D01*
X159302877Y-115515598D01*
X159457598Y-115360877D01*
X159583102Y-115181639D01*
X159653617Y-115030417D01*
X159699375Y-114978241D01*
X159766000Y-114958822D01*
X159832625Y-114978241D01*
X159878382Y-115030417D01*
X159948898Y-115181639D01*
X160074402Y-115360877D01*
X160229123Y-115515598D01*
X160408361Y-115641102D01*
X160606670Y-115733575D01*
X160818023Y-115790207D01*
X161036000Y-115809277D01*
X161253977Y-115790207D01*
X161465330Y-115733575D01*
X161663639Y-115641102D01*
X161842877Y-115515598D01*
X161997598Y-115360877D01*
X162123102Y-115181639D01*
X162215575Y-114983330D01*
X162272207Y-114771977D01*
X162291277Y-114554000D01*
X162272207Y-114336023D01*
X162215575Y-114124670D01*
X162123102Y-113926362D01*
X161997598Y-113747123D01*
X161842877Y-113592402D01*
X161663639Y-113466898D01*
X161572205Y-113424261D01*
X161465331Y-113374425D01*
X161253974Y-113317792D01*
X161036000Y-113298722D01*
X160818025Y-113317792D01*
X160606668Y-113374425D01*
X160408361Y-113466898D01*
X160229122Y-113592402D01*
X160074402Y-113747122D01*
X159948898Y-113926361D01*
X159878382Y-114077583D01*
X159832625Y-114129759D01*
X159766000Y-114149178D01*
X159699375Y-114129759D01*
X159653618Y-114077583D01*
X159609529Y-113983035D01*
X159583102Y-113926362D01*
X159457598Y-113747123D01*
X159302877Y-113592402D01*
X159123639Y-113466898D01*
X159032205Y-113424261D01*
X158925331Y-113374425D01*
X158713974Y-113317792D01*
X158496000Y-113298722D01*
X158278025Y-113317792D01*
X158066668Y-113374425D01*
X157868361Y-113466898D01*
X157689122Y-113592402D01*
X157534402Y-113747122D01*
X157408898Y-113926361D01*
X157338382Y-114077583D01*
X157292625Y-114129759D01*
X157226000Y-114149178D01*
X157159375Y-114129759D01*
X157113618Y-114077583D01*
X157069529Y-113983035D01*
X157043102Y-113926362D01*
X156917598Y-113747123D01*
X156762877Y-113592402D01*
X156583639Y-113466898D01*
X156492205Y-113424261D01*
X156385331Y-113374425D01*
X156173974Y-113317792D01*
X155956000Y-113298722D01*
X155738025Y-113317792D01*
X155526668Y-113374425D01*
X155328361Y-113466898D01*
X155149122Y-113592402D01*
X154994402Y-113747122D01*
X154868898Y-113926361D01*
X154798382Y-114077583D01*
X154752625Y-114129759D01*
X154686000Y-114149178D01*
X154619375Y-114129759D01*
X154573618Y-114077583D01*
X154529529Y-113983035D01*
X154503102Y-113926362D01*
X154377598Y-113747123D01*
X154222877Y-113592402D01*
X154043639Y-113466898D01*
X153952205Y-113424261D01*
X153845331Y-113374425D01*
X153633974Y-113317792D01*
X153416000Y-113298722D01*
X153198025Y-113317792D01*
X152986668Y-113374425D01*
X152788361Y-113466898D01*
X152609122Y-113592402D01*
X152454402Y-113747122D01*
X152328898Y-113926361D01*
X152236425Y-114124668D01*
X152179792Y-114336025D01*
X152160722Y-114553999D01*
X152179792Y-114771974D01*
X152236425Y-114983331D01*
X152257971Y-115029536D01*
X152328898Y-115181639D01*
X152454402Y-115360877D01*
X152609123Y-115515598D01*
X152755263Y-115617926D01*
X152795589Y-115665142D01*
X152807968Y-115725990D01*
X152789296Y-115785210D01*
X152744254Y-115827953D01*
X152684138Y-115843500D01*
X151348130Y-115843500D01*
X151288515Y-115849909D01*
X151153669Y-115900204D01*
X151038454Y-115986454D01*
X150952204Y-116101668D01*
X150901909Y-116236516D01*
X150900627Y-116248438D01*
X150896469Y-116287122D01*
X150895500Y-116296131D01*
X150895500Y-116319500D01*
X150878887Y-116381500D01*
X150833500Y-116426887D01*
X150771500Y-116443500D01*
X149762504Y-116443500D01*
X149741294Y-116441158D01*
X149668737Y-116443439D01*
X149664842Y-116443500D01*
X149636071Y-116443500D01*
X149631690Y-116444053D01*
X149620059Y-116444968D01*
X149574428Y-116446402D01*
X149554052Y-116452322D01*
X149535006Y-116456267D01*
X149513939Y-116458928D01*
X149471492Y-116475734D01*
X149460445Y-116479516D01*
X149416601Y-116492255D01*
X149398330Y-116503060D01*
X149380864Y-116511617D01*
X149361129Y-116519431D01*
X149324202Y-116546260D01*
X149314442Y-116552671D01*
X149275136Y-116575917D01*
X149260125Y-116590928D01*
X149245336Y-116603558D01*
X149228164Y-116616034D01*
X149199057Y-116651218D01*
X149191196Y-116659856D01*
X147296478Y-118554574D01*
X147268119Y-118575782D01*
X147234923Y-118588110D01*
X147171230Y-118601837D01*
X146954768Y-118688819D01*
X146756107Y-118811139D01*
X146580980Y-118965270D01*
X146434423Y-119146776D01*
X146320645Y-119350448D01*
X146242925Y-119570418D01*
X146203500Y-119800351D01*
X146203500Y-120425220D01*
X146218329Y-120599451D01*
X146269565Y-120796225D01*
X146269226Y-120859987D01*
X146237247Y-120915151D01*
X145854476Y-121297922D01*
X145804081Y-121328502D01*
X145745259Y-121332356D01*
X145691304Y-121308613D01*
X145664367Y-121275047D01*
X145662790Y-121276152D01*
X145526046Y-121080859D01*
X145365140Y-120919953D01*
X145178733Y-120789431D01*
X145120725Y-120762382D01*
X145068549Y-120716625D01*
X145049129Y-120650000D01*
X145068549Y-120583375D01*
X145120725Y-120537618D01*
X145178734Y-120510568D01*
X145365139Y-120380047D01*
X145526047Y-120219139D01*
X145656568Y-120032734D01*
X145752739Y-119826496D01*
X145811635Y-119606692D01*
X145831468Y-119380000D01*
X145811635Y-119153308D01*
X145752739Y-118933504D01*
X145656568Y-118727266D01*
X145629647Y-118688819D01*
X145526046Y-118540859D01*
X145365140Y-118379953D01*
X145178733Y-118249431D01*
X145120725Y-118222382D01*
X145068549Y-118176625D01*
X145049129Y-118110000D01*
X145068549Y-118043375D01*
X145120725Y-117997618D01*
X145125514Y-117995385D01*
X145178734Y-117970568D01*
X145365139Y-117840047D01*
X145526047Y-117679139D01*
X145656568Y-117492734D01*
X145752739Y-117286496D01*
X145811635Y-117066692D01*
X145831468Y-116840000D01*
X145811635Y-116613308D01*
X145752739Y-116393504D01*
X145656568Y-116187266D01*
X145618154Y-116132405D01*
X145526046Y-116000859D01*
X145365140Y-115839953D01*
X145178732Y-115709430D01*
X145120724Y-115682380D01*
X145068549Y-115636623D01*
X145049130Y-115569997D01*
X145068550Y-115503373D01*
X145120721Y-115457619D01*
X145178734Y-115430568D01*
X145365139Y-115300047D01*
X145526047Y-115139139D01*
X145656568Y-114952734D01*
X145752739Y-114746496D01*
X145811635Y-114526692D01*
X145831468Y-114300000D01*
X145811635Y-114073308D01*
X145752739Y-113853504D01*
X145656568Y-113647266D01*
X145618154Y-113592405D01*
X145526046Y-113460859D01*
X145365140Y-113299953D01*
X145178736Y-113169433D01*
X145120723Y-113142381D01*
X145068548Y-113096623D01*
X145049129Y-113029997D01*
X145068549Y-112963372D01*
X145120721Y-112917619D01*
X145178734Y-112890568D01*
X145365139Y-112760047D01*
X145526047Y-112599139D01*
X145656568Y-112412734D01*
X145752739Y-112206496D01*
X145811635Y-111986692D01*
X145831468Y-111760000D01*
X145811635Y-111533308D01*
X145752739Y-111313504D01*
X145656568Y-111107266D01*
X145630824Y-111070500D01*
X145526046Y-110920859D01*
X145487367Y-110882180D01*
X145457117Y-110832817D01*
X145452575Y-110775101D01*
X145474730Y-110721614D01*
X145518753Y-110684014D01*
X145575048Y-110670499D01*
X152082496Y-110670499D01*
X152103705Y-110672840D01*
X152106295Y-110672758D01*
X152106297Y-110672759D01*
X152176263Y-110670559D01*
X152180158Y-110670499D01*
X152208921Y-110670499D01*
X152208926Y-110670499D01*
X152213303Y-110669945D01*
X152224942Y-110669029D01*
X152270570Y-110667596D01*
X152290950Y-110661674D01*
X152309990Y-110657731D01*
X152331059Y-110655070D01*
X152373521Y-110638257D01*
X152384558Y-110634479D01*
X152428399Y-110621743D01*
X152446671Y-110610935D01*
X152464137Y-110602379D01*
X152483872Y-110594567D01*
X152520817Y-110567724D01*
X152530549Y-110561331D01*
X152569866Y-110538080D01*
X152584875Y-110523070D01*
X152599664Y-110510438D01*
X152616838Y-110497962D01*
X152645947Y-110462773D01*
X152653791Y-110454153D01*
X153205126Y-109902819D01*
X153245355Y-109875939D01*
X153292808Y-109866500D01*
X153316648Y-109866500D01*
X153440084Y-109840262D01*
X153501803Y-109827144D01*
X153674730Y-109750151D01*
X153827871Y-109638888D01*
X153954533Y-109498216D01*
X154049179Y-109334284D01*
X154064294Y-109287764D01*
X171881787Y-109287764D01*
X171911413Y-109557016D01*
X171932818Y-109638889D01*
X171979928Y-109819088D01*
X172000076Y-109866500D01*
X172085871Y-110068392D01*
X172226982Y-110299611D01*
X172385425Y-110490000D01*
X172400255Y-110507820D01*
X172601998Y-110688582D01*
X172827910Y-110838044D01*
X172922061Y-110882180D01*
X173073177Y-110953021D01*
X173332562Y-111031058D01*
X173332569Y-111031060D01*
X173600561Y-111070500D01*
X173803631Y-111070500D01*
X173803634Y-111070500D01*
X174006156Y-111055677D01*
X174006155Y-111055677D01*
X174270553Y-110996780D01*
X174523558Y-110900014D01*
X174759777Y-110767441D01*
X174974177Y-110601888D01*
X175162186Y-110406881D01*
X175319799Y-110186579D01*
X175443656Y-109945675D01*
X175531118Y-109689305D01*
X175580319Y-109422933D01*
X175590212Y-109152235D01*
X175560586Y-108882982D01*
X175492072Y-108620912D01*
X175386130Y-108371610D01*
X175245018Y-108140390D01*
X175245017Y-108140388D01*
X175071746Y-107932181D01*
X175052048Y-107914532D01*
X174870002Y-107751418D01*
X174644090Y-107601956D01*
X174616105Y-107588837D01*
X174398822Y-107486978D01*
X174139437Y-107408941D01*
X174139431Y-107408940D01*
X173871439Y-107369500D01*
X173668369Y-107369500D01*
X173668366Y-107369500D01*
X173465843Y-107384322D01*
X173201449Y-107443219D01*
X172948441Y-107539986D01*
X172712223Y-107672559D01*
X172497825Y-107838109D01*
X172309813Y-108033120D01*
X172152201Y-108253420D01*
X172028342Y-108494329D01*
X171940881Y-108750695D01*
X171891680Y-109017066D01*
X171881787Y-109287764D01*
X154064294Y-109287764D01*
X154107674Y-109154256D01*
X154127460Y-108966000D01*
X154107674Y-108777744D01*
X154049179Y-108597716D01*
X154049179Y-108597715D01*
X153954533Y-108433783D01*
X153827870Y-108293110D01*
X153674730Y-108181848D01*
X153501802Y-108104855D01*
X153316648Y-108065500D01*
X153316646Y-108065500D01*
X153127354Y-108065500D01*
X153127352Y-108065500D01*
X152942197Y-108104855D01*
X152769269Y-108181848D01*
X152616129Y-108293110D01*
X152489466Y-108433783D01*
X152394820Y-108597715D01*
X152336326Y-108777742D01*
X152322831Y-108906143D01*
X152311431Y-108946564D01*
X152287191Y-108980862D01*
X151934874Y-109333180D01*
X151894646Y-109360060D01*
X151847193Y-109369499D01*
X145953711Y-109369499D01*
X145888614Y-109351037D01*
X145842900Y-109301150D01*
X145830183Y-109234691D01*
X145831468Y-109219999D01*
X145815090Y-109032802D01*
X145811635Y-108993308D01*
X145752739Y-108773504D01*
X145656568Y-108567266D01*
X145605497Y-108494329D01*
X145526046Y-108380859D01*
X145365140Y-108219953D01*
X145178735Y-108089432D01*
X144972497Y-107993261D01*
X144752689Y-107934364D01*
X144526000Y-107914531D01*
X144299310Y-107934364D01*
X144079502Y-107993261D01*
X143873264Y-108089432D01*
X143686859Y-108219953D01*
X143525953Y-108380859D01*
X143395432Y-108567264D01*
X143299261Y-108773502D01*
X143240364Y-108993310D01*
X143220531Y-109219999D01*
X143240364Y-109446688D01*
X143251209Y-109487162D01*
X143251209Y-109551350D01*
X143219115Y-109606937D01*
X140697484Y-112128568D01*
X140680831Y-112141910D01*
X140631133Y-112194833D01*
X140628427Y-112197626D01*
X140608083Y-112217971D01*
X140605376Y-112221460D01*
X140597807Y-112230321D01*
X140566551Y-112263607D01*
X140556322Y-112282212D01*
X140545645Y-112298467D01*
X140532636Y-112315238D01*
X140514506Y-112357132D01*
X140509370Y-112367616D01*
X140487372Y-112407632D01*
X140482091Y-112428199D01*
X140475791Y-112446600D01*
X140467364Y-112466074D01*
X140460223Y-112511161D01*
X140457855Y-112522598D01*
X140446500Y-112566824D01*
X140446500Y-112588045D01*
X140444973Y-112607444D01*
X140441653Y-112628403D01*
X140445950Y-112673861D01*
X140446500Y-112685530D01*
X140446500Y-117408192D01*
X140437061Y-117455645D01*
X140410181Y-117495873D01*
X138422208Y-119483844D01*
X138370780Y-119514745D01*
X138310864Y-119517884D01*
X138256488Y-119492526D01*
X138220382Y-119444608D01*
X138210999Y-119385353D01*
X138211468Y-119380000D01*
X138191635Y-119153308D01*
X138132739Y-118933504D01*
X138036568Y-118727266D01*
X138009647Y-118688819D01*
X137906046Y-118540859D01*
X137745140Y-118379953D01*
X137558733Y-118249431D01*
X137500725Y-118222382D01*
X137448549Y-118176625D01*
X137429129Y-118110000D01*
X137448549Y-118043375D01*
X137500725Y-117997618D01*
X137505514Y-117995385D01*
X137558734Y-117970568D01*
X137745139Y-117840047D01*
X137906047Y-117679139D01*
X138036568Y-117492734D01*
X138132739Y-117286496D01*
X138191635Y-117066692D01*
X138211468Y-116840000D01*
X138191635Y-116613308D01*
X138132739Y-116393504D01*
X138036568Y-116187266D01*
X137998154Y-116132405D01*
X137906046Y-116000859D01*
X137745140Y-115839953D01*
X137558732Y-115709430D01*
X137500724Y-115682380D01*
X137448549Y-115636623D01*
X137429130Y-115569997D01*
X137448550Y-115503373D01*
X137500721Y-115457619D01*
X137558734Y-115430568D01*
X137745139Y-115300047D01*
X137906047Y-115139139D01*
X138036568Y-114952734D01*
X138132739Y-114746496D01*
X138191635Y-114526692D01*
X138211468Y-114300000D01*
X138191635Y-114073308D01*
X138132739Y-113853504D01*
X138036568Y-113647266D01*
X137998154Y-113592405D01*
X137906046Y-113460859D01*
X137745140Y-113299953D01*
X137558736Y-113169433D01*
X137500723Y-113142381D01*
X137448548Y-113096623D01*
X137429129Y-113029997D01*
X137448549Y-112963372D01*
X137500721Y-112917619D01*
X137558734Y-112890568D01*
X137745139Y-112760047D01*
X137906047Y-112599139D01*
X138036568Y-112412734D01*
X138132739Y-112206496D01*
X138191635Y-111986692D01*
X138211468Y-111760000D01*
X138191635Y-111533308D01*
X138132739Y-111313504D01*
X138036568Y-111107266D01*
X138010824Y-111070500D01*
X137906046Y-110920859D01*
X137745140Y-110759953D01*
X137720537Y-110742726D01*
X137681399Y-110697884D01*
X137667666Y-110639970D01*
X137682500Y-110582328D01*
X137722485Y-110538239D01*
X137778406Y-110517861D01*
X137813483Y-110514091D01*
X137948331Y-110463796D01*
X138063546Y-110377546D01*
X138149796Y-110262331D01*
X138200091Y-110127483D01*
X138206500Y-110067873D01*
X138206499Y-108372128D01*
X138200091Y-108312517D01*
X138149796Y-108177669D01*
X138063546Y-108062454D01*
X137948331Y-107976204D01*
X137813483Y-107925909D01*
X137753873Y-107919500D01*
X137753869Y-107919500D01*
X136058130Y-107919500D01*
X135998515Y-107925909D01*
X135863669Y-107976204D01*
X135794925Y-108027665D01*
X135741091Y-108050695D01*
X135682692Y-108046456D01*
X135632749Y-108015893D01*
X135602397Y-107965820D01*
X135598405Y-107907404D01*
X135621659Y-107853673D01*
X135645058Y-107822689D01*
X135744229Y-107623528D01*
X135750368Y-107601954D01*
X135795531Y-107443219D01*
X135805115Y-107409536D01*
X135825643Y-107188000D01*
X135805115Y-106966464D01*
X135758685Y-106803279D01*
X135744230Y-106752473D01*
X135645058Y-106553311D01*
X135510980Y-106375762D01*
X135346562Y-106225875D01*
X135157404Y-106108754D01*
X135012239Y-106052517D01*
X134949940Y-106028382D01*
X134731243Y-105987500D01*
X134508757Y-105987500D01*
X134290060Y-106028381D01*
X134290060Y-106028382D01*
X134082595Y-106108754D01*
X133893437Y-106225875D01*
X133729019Y-106375762D01*
X133594941Y-106553311D01*
X133495769Y-106752473D01*
X133434885Y-106966462D01*
X133434884Y-106966464D01*
X133434885Y-106966464D01*
X133414357Y-107188000D01*
X133424620Y-107298767D01*
X133434885Y-107409537D01*
X133495769Y-107623526D01*
X133594941Y-107822688D01*
X133729019Y-108000237D01*
X133893437Y-108150124D01*
X134082595Y-108267245D01*
X134082597Y-108267245D01*
X134082599Y-108267247D01*
X134290060Y-108347618D01*
X134508757Y-108388500D01*
X134731241Y-108388500D01*
X134731243Y-108388500D01*
X134949940Y-108347618D01*
X135157401Y-108267247D01*
X135295326Y-108181848D01*
X135346559Y-108150126D01*
X135346559Y-108150125D01*
X135346562Y-108150124D01*
X135461498Y-108045345D01*
X135519694Y-108015601D01*
X135584933Y-108019578D01*
X135639087Y-108056175D01*
X135667110Y-108115223D01*
X135661216Y-108180317D01*
X135611909Y-108312514D01*
X135605500Y-108372130D01*
X135605500Y-110067869D01*
X135611909Y-110127483D01*
X135662204Y-110262331D01*
X135748454Y-110377546D01*
X135863669Y-110463796D01*
X135998517Y-110514091D01*
X136033594Y-110517862D01*
X136089513Y-110538239D01*
X136129497Y-110582327D01*
X136144332Y-110639968D01*
X136130600Y-110697881D01*
X136091464Y-110742724D01*
X136066860Y-110759952D01*
X135905953Y-110920859D01*
X135775432Y-111107264D01*
X135679261Y-111313502D01*
X135620364Y-111533310D01*
X135600531Y-111760000D01*
X135620364Y-111986689D01*
X135679261Y-112206497D01*
X135775432Y-112412735D01*
X135905953Y-112599140D01*
X136066859Y-112760046D01*
X136241211Y-112882127D01*
X136253266Y-112890568D01*
X136311275Y-112917618D01*
X136363450Y-112963375D01*
X136382869Y-113030000D01*
X136363450Y-113096625D01*
X136311275Y-113142382D01*
X136253263Y-113169433D01*
X136066859Y-113299953D01*
X135905953Y-113460859D01*
X135775432Y-113647264D01*
X135679260Y-113853505D01*
X135668324Y-113894316D01*
X135637237Y-113948884D01*
X135583400Y-113981222D01*
X135520624Y-113983035D01*
X135465012Y-113953857D01*
X135346562Y-113845875D01*
X135157404Y-113728754D01*
X135096174Y-113705033D01*
X134949940Y-113648382D01*
X134731243Y-113607500D01*
X134508757Y-113607500D01*
X134296041Y-113647264D01*
X134290060Y-113648382D01*
X134082595Y-113728754D01*
X133893437Y-113845875D01*
X133729019Y-113995762D01*
X133594941Y-114173311D01*
X133495769Y-114372473D01*
X133434885Y-114586462D01*
X133414357Y-114808000D01*
X133433214Y-115011506D01*
X133426373Y-115065058D01*
X133397424Y-115110628D01*
X133070484Y-115437568D01*
X133053831Y-115450910D01*
X133004133Y-115503833D01*
X133001427Y-115506626D01*
X132981083Y-115526971D01*
X132978376Y-115530460D01*
X132970807Y-115539321D01*
X132939551Y-115572607D01*
X132929322Y-115591212D01*
X132918645Y-115607467D01*
X132905636Y-115624238D01*
X132887506Y-115666132D01*
X132882370Y-115676616D01*
X132860372Y-115716632D01*
X132855091Y-115737199D01*
X132848791Y-115755600D01*
X132840364Y-115775074D01*
X132833223Y-115820161D01*
X132830855Y-115831593D01*
X132824130Y-115857792D01*
X132819500Y-115875824D01*
X132819500Y-115897045D01*
X132817973Y-115916444D01*
X132814653Y-115937403D01*
X132818950Y-115982861D01*
X132819500Y-115994530D01*
X132819500Y-119875500D01*
X132802887Y-119937500D01*
X132757500Y-119982887D01*
X132695500Y-119999500D01*
X131317199Y-119999500D01*
X131256725Y-119983754D01*
X131211609Y-119940514D01*
X131209753Y-119937500D01*
X131144862Y-119832109D01*
X130990731Y-119656982D01*
X130990729Y-119656980D01*
X130809221Y-119510421D01*
X130768897Y-119487895D01*
X130723782Y-119444655D01*
X130705484Y-119384904D01*
X130718649Y-119323816D01*
X130759933Y-119276909D01*
X130903088Y-119180153D01*
X131071516Y-119018728D01*
X131210240Y-118831161D01*
X131315270Y-118622847D01*
X131383583Y-118399780D01*
X131413216Y-118168376D01*
X131403314Y-117935293D01*
X131354164Y-117707235D01*
X131350582Y-117698322D01*
X131278220Y-117518241D01*
X131267179Y-117490765D01*
X131144862Y-117292109D01*
X130990731Y-117116982D01*
X130990729Y-117116980D01*
X130809221Y-116970421D01*
X130768897Y-116947895D01*
X130723782Y-116904655D01*
X130705484Y-116844904D01*
X130718649Y-116783816D01*
X130759933Y-116736909D01*
X130903088Y-116640153D01*
X131071516Y-116478728D01*
X131210240Y-116291161D01*
X131315270Y-116082847D01*
X131383583Y-115859780D01*
X131413216Y-115628376D01*
X131403314Y-115395293D01*
X131354164Y-115167235D01*
X131342874Y-115139140D01*
X131291587Y-115011506D01*
X131267179Y-114950765D01*
X131144862Y-114752109D01*
X130990731Y-114576982D01*
X130990729Y-114576980D01*
X130809223Y-114430423D01*
X130605551Y-114316645D01*
X130385581Y-114238925D01*
X130155649Y-114199500D01*
X130155647Y-114199500D01*
X129530784Y-114199500D01*
X129530780Y-114199500D01*
X129356548Y-114214329D01*
X129130779Y-114273114D01*
X128918198Y-114369207D01*
X128724912Y-114499846D01*
X128556483Y-114661272D01*
X128417760Y-114848838D01*
X128312730Y-115057152D01*
X128255653Y-115243528D01*
X128244417Y-115280220D01*
X128215841Y-115503375D01*
X128214784Y-115511627D01*
X128224685Y-115744704D01*
X128273836Y-115972767D01*
X128360819Y-116189231D01*
X128360821Y-116189235D01*
X128483138Y-116387891D01*
X128592030Y-116511617D01*
X128637270Y-116563019D01*
X128818776Y-116709576D01*
X128859101Y-116732103D01*
X128904217Y-116775343D01*
X128922515Y-116835094D01*
X128909350Y-116896182D01*
X128868064Y-116943092D01*
X128724912Y-117039846D01*
X128556483Y-117201272D01*
X128417760Y-117388838D01*
X128312730Y-117597152D01*
X128248618Y-117806500D01*
X128244417Y-117820220D01*
X128215441Y-118046500D01*
X128214784Y-118051627D01*
X128224685Y-118284704D01*
X128273836Y-118512767D01*
X128360819Y-118729231D01*
X128360821Y-118729235D01*
X128483138Y-118927891D01*
X128627274Y-119091662D01*
X128637270Y-119103019D01*
X128818776Y-119249576D01*
X128859101Y-119272103D01*
X128904217Y-119315343D01*
X128922515Y-119375094D01*
X128909350Y-119436182D01*
X128868064Y-119483092D01*
X128724912Y-119579846D01*
X128556483Y-119741272D01*
X128417760Y-119928838D01*
X128312730Y-120137152D01*
X128312730Y-120137153D01*
X128244417Y-120360220D01*
X128215841Y-120583375D01*
X128214784Y-120591627D01*
X123444500Y-120591627D01*
X123444500Y-109287764D01*
X125399787Y-109287764D01*
X125429413Y-109557016D01*
X125450818Y-109638889D01*
X125497928Y-109819088D01*
X125518076Y-109866500D01*
X125603871Y-110068392D01*
X125744982Y-110299611D01*
X125903425Y-110490000D01*
X125918255Y-110507820D01*
X126119998Y-110688582D01*
X126345910Y-110838044D01*
X126440061Y-110882180D01*
X126591177Y-110953021D01*
X126850562Y-111031058D01*
X126850569Y-111031060D01*
X127118561Y-111070500D01*
X127321631Y-111070500D01*
X127321634Y-111070500D01*
X127524156Y-111055677D01*
X127524155Y-111055677D01*
X127788553Y-110996780D01*
X128041558Y-110900014D01*
X128277777Y-110767441D01*
X128492177Y-110601888D01*
X128680186Y-110406881D01*
X128837799Y-110186579D01*
X128961656Y-109945675D01*
X129049118Y-109689305D01*
X129098319Y-109422933D01*
X129108212Y-109152235D01*
X129078586Y-108882982D01*
X129010072Y-108620912D01*
X128904130Y-108371610D01*
X128763018Y-108140390D01*
X128763017Y-108140388D01*
X128589746Y-107932181D01*
X128570048Y-107914532D01*
X128388002Y-107751418D01*
X128162090Y-107601956D01*
X128134105Y-107588837D01*
X127916822Y-107486978D01*
X127657437Y-107408941D01*
X127657431Y-107408940D01*
X127389439Y-107369500D01*
X127186369Y-107369500D01*
X127186366Y-107369500D01*
X126983843Y-107384322D01*
X126719449Y-107443219D01*
X126466441Y-107539986D01*
X126230223Y-107672559D01*
X126015825Y-107838109D01*
X125827813Y-108033120D01*
X125670201Y-108253420D01*
X125546342Y-108494329D01*
X125458881Y-108750695D01*
X125409680Y-109017066D01*
X125399787Y-109287764D01*
X123444500Y-109287764D01*
X123444500Y-109223051D01*
X123444649Y-109216967D01*
X123451993Y-109067463D01*
X123463658Y-108844898D01*
X123464825Y-108833247D01*
X123490969Y-108656994D01*
X123491087Y-108656226D01*
X123521760Y-108462566D01*
X123523936Y-108451897D01*
X123568500Y-108273991D01*
X123568922Y-108272362D01*
X123618283Y-108088143D01*
X123621301Y-108078485D01*
X123683768Y-107903901D01*
X123684727Y-107901312D01*
X123752246Y-107725420D01*
X123755877Y-107716927D01*
X123835711Y-107548133D01*
X123837201Y-107545099D01*
X123922255Y-107378171D01*
X123926345Y-107370785D01*
X124022641Y-107210125D01*
X124024891Y-107206518D01*
X124126566Y-107049952D01*
X124130937Y-107043661D01*
X124242695Y-106892972D01*
X124245857Y-106888893D01*
X124363107Y-106744101D01*
X124367534Y-106738935D01*
X124493664Y-106599772D01*
X124497783Y-106595446D01*
X124629446Y-106463783D01*
X124633772Y-106459664D01*
X124772935Y-106333534D01*
X124778101Y-106329107D01*
X124922893Y-106211857D01*
X124926972Y-106208695D01*
X125077670Y-106096930D01*
X125083952Y-106092566D01*
X125240518Y-105990891D01*
X125244125Y-105988641D01*
X125404785Y-105892345D01*
X125412171Y-105888255D01*
X125579099Y-105803201D01*
X125582133Y-105801711D01*
X125750927Y-105721877D01*
X125759420Y-105718246D01*
X125935312Y-105650727D01*
X125937901Y-105649768D01*
X126112485Y-105587301D01*
X126122143Y-105584283D01*
X126306362Y-105534922D01*
X126307991Y-105534500D01*
X126485897Y-105489936D01*
X126496566Y-105487760D01*
X126690226Y-105457087D01*
X126690994Y-105456969D01*
X126867247Y-105430825D01*
X126878898Y-105429658D01*
X127101494Y-105417992D01*
X127247578Y-105410815D01*
X127250968Y-105410649D01*
X127257051Y-105410500D01*
X173732949Y-105410500D01*
X173739032Y-105410649D01*
G37*
G04 #@! TD.AperFunction*
M02*
