G04 #@! TF.GenerationSoftware,KiCad,Pcbnew,7.0.1*
G04 #@! TF.CreationDate,2025-03-09T11:47:29-05:00*
G04 #@! TF.ProjectId,Single Mosfet Board V2,53696e67-6c65-4204-9d6f-736665742042,rev?*
G04 #@! TF.SameCoordinates,Original*
G04 #@! TF.FileFunction,Copper,L2,Bot*
G04 #@! TF.FilePolarity,Positive*
%FSLAX46Y46*%
G04 Gerber Fmt 4.6, Leading zero omitted, Abs format (unit mm)*
G04 Created by KiCad (PCBNEW 7.0.1) date 2025-03-09 11:47:29*
%MOMM*%
%LPD*%
G01*
G04 APERTURE LIST*
G04 Aperture macros list*
%AMRoundRect*
0 Rectangle with rounded corners*
0 $1 Rounding radius*
0 $2 $3 $4 $5 $6 $7 $8 $9 X,Y pos of 4 corners*
0 Add a 4 corners polygon primitive as box body*
4,1,4,$2,$3,$4,$5,$6,$7,$8,$9,$2,$3,0*
0 Add four circle primitives for the rounded corners*
1,1,$1+$1,$2,$3*
1,1,$1+$1,$4,$5*
1,1,$1+$1,$6,$7*
1,1,$1+$1,$8,$9*
0 Add four rect primitives between the rounded corners*
20,1,$1+$1,$2,$3,$4,$5,0*
20,1,$1+$1,$4,$5,$6,$7,0*
20,1,$1+$1,$6,$7,$8,$9,0*
20,1,$1+$1,$8,$9,$2,$3,0*%
G04 Aperture macros list end*
G04 #@! TA.AperFunction,ComponentPad*
%ADD10RoundRect,0.250000X-0.620000X-0.845000X0.620000X-0.845000X0.620000X0.845000X-0.620000X0.845000X0*%
G04 #@! TD*
G04 #@! TA.AperFunction,ComponentPad*
%ADD11O,1.740000X2.190000*%
G04 #@! TD*
G04 #@! TA.AperFunction,ComponentPad*
%ADD12R,1.700000X1.700000*%
G04 #@! TD*
G04 #@! TA.AperFunction,ComponentPad*
%ADD13O,1.700000X1.700000*%
G04 #@! TD*
G04 #@! TA.AperFunction,ComponentPad*
%ADD14RoundRect,0.250000X0.620000X0.845000X-0.620000X0.845000X-0.620000X-0.845000X0.620000X-0.845000X0*%
G04 #@! TD*
G04 #@! TA.AperFunction,ViaPad*
%ADD15C,0.800000*%
G04 #@! TD*
G04 #@! TA.AperFunction,Conductor*
%ADD16C,1.500000*%
G04 #@! TD*
G04 APERTURE END LIST*
D10*
X138938000Y-66270000D03*
D11*
X141478000Y-66270000D03*
D12*
X144330000Y-93430000D03*
D13*
X148844000Y-77714000D03*
X148844000Y-80254000D03*
X148844000Y-82794000D03*
D12*
X148844000Y-85334000D03*
X129540000Y-77700000D03*
D13*
X129540000Y-80240000D03*
X129540000Y-82780000D03*
X129540000Y-85320000D03*
D12*
X136478000Y-66270000D03*
D14*
X141870000Y-93430000D03*
D11*
X139330000Y-93430000D03*
D15*
X141224000Y-87884000D03*
X143256000Y-87884000D03*
D16*
X141224000Y-87884000D02*
X143256000Y-87884000D01*
X139330000Y-89778000D02*
X141224000Y-87884000D01*
X139330000Y-93430000D02*
X139330000Y-89778000D01*
G04 #@! TA.AperFunction,Conductor*
G36*
X147503032Y-61270649D02*
G01*
X147507384Y-61270862D01*
X147652450Y-61277989D01*
X147843670Y-61288010D01*
X147855324Y-61289177D01*
X148021254Y-61313791D01*
X148022225Y-61313940D01*
X148194897Y-61341289D01*
X148205570Y-61343465D01*
X148371374Y-61384997D01*
X148373014Y-61385422D01*
X148538880Y-61429866D01*
X148548544Y-61432884D01*
X148652693Y-61470150D01*
X148710526Y-61490843D01*
X148713188Y-61491830D01*
X148746726Y-61504704D01*
X148872097Y-61552829D01*
X148880623Y-61556475D01*
X149036869Y-61630374D01*
X149040055Y-61631939D01*
X149182487Y-61704511D01*
X149191094Y-61708897D01*
X149198547Y-61713023D01*
X149347075Y-61802047D01*
X149350824Y-61804387D01*
X149492670Y-61896503D01*
X149498977Y-61900884D01*
X149638210Y-62004147D01*
X149642365Y-62007367D01*
X149773635Y-62113667D01*
X149778872Y-62118155D01*
X149907389Y-62234636D01*
X149911797Y-62238833D01*
X150031165Y-62358201D01*
X150035362Y-62362609D01*
X150151843Y-62491126D01*
X150156331Y-62496363D01*
X150262620Y-62627619D01*
X150265851Y-62631788D01*
X150369114Y-62771021D01*
X150373512Y-62777353D01*
X150465599Y-62919155D01*
X150467963Y-62922942D01*
X150556975Y-63071451D01*
X150561101Y-63078904D01*
X150638037Y-63229898D01*
X150639647Y-63233176D01*
X150713510Y-63389345D01*
X150717179Y-63397925D01*
X150778168Y-63556810D01*
X150779155Y-63559472D01*
X150837111Y-63721447D01*
X150840135Y-63731128D01*
X150884535Y-63896827D01*
X150885044Y-63898792D01*
X150926526Y-64064398D01*
X150928715Y-64075130D01*
X150956041Y-64247665D01*
X150956226Y-64248867D01*
X150980818Y-64414649D01*
X150981990Y-64426355D01*
X150991989Y-64617157D01*
X150991886Y-64617162D01*
X150992011Y-64617561D01*
X150999351Y-64766967D01*
X150999500Y-64773052D01*
X150999500Y-94496948D01*
X150999351Y-94503033D01*
X150992014Y-94652369D01*
X150991993Y-94652774D01*
X150981990Y-94843644D01*
X150980818Y-94855349D01*
X150956226Y-95021131D01*
X150956041Y-95022333D01*
X150928715Y-95194868D01*
X150926526Y-95205600D01*
X150885044Y-95371206D01*
X150884535Y-95373171D01*
X150840135Y-95538870D01*
X150837111Y-95548551D01*
X150779155Y-95710526D01*
X150778168Y-95713188D01*
X150717179Y-95872073D01*
X150713510Y-95880653D01*
X150639647Y-96036822D01*
X150638037Y-96040100D01*
X150561101Y-96191094D01*
X150556975Y-96198547D01*
X150467963Y-96347056D01*
X150465599Y-96350843D01*
X150373512Y-96492645D01*
X150369114Y-96498977D01*
X150265851Y-96638210D01*
X150262620Y-96642379D01*
X150156331Y-96773635D01*
X150151843Y-96778872D01*
X150035362Y-96907389D01*
X150031165Y-96911797D01*
X149911797Y-97031165D01*
X149907389Y-97035362D01*
X149778872Y-97151843D01*
X149773635Y-97156331D01*
X149642379Y-97262620D01*
X149638210Y-97265851D01*
X149498977Y-97369114D01*
X149492645Y-97373512D01*
X149350843Y-97465599D01*
X149347056Y-97467963D01*
X149198547Y-97556975D01*
X149191094Y-97561101D01*
X149040100Y-97638037D01*
X149036822Y-97639647D01*
X148880653Y-97713510D01*
X148872073Y-97717179D01*
X148713188Y-97778168D01*
X148710526Y-97779155D01*
X148548551Y-97837111D01*
X148538870Y-97840135D01*
X148373171Y-97884535D01*
X148371206Y-97885044D01*
X148205600Y-97926526D01*
X148194868Y-97928715D01*
X148022333Y-97956041D01*
X148021131Y-97956226D01*
X147855349Y-97980818D01*
X147843644Y-97981990D01*
X147652774Y-97991993D01*
X147652369Y-97992014D01*
X147503033Y-97999351D01*
X147496948Y-97999500D01*
X131003052Y-97999500D01*
X130996967Y-97999351D01*
X130847629Y-97992014D01*
X130847224Y-97991993D01*
X130656354Y-97981990D01*
X130644649Y-97980818D01*
X130478867Y-97956226D01*
X130477665Y-97956041D01*
X130305130Y-97928715D01*
X130294398Y-97926526D01*
X130128792Y-97885044D01*
X130126827Y-97884535D01*
X129961128Y-97840135D01*
X129951447Y-97837111D01*
X129789472Y-97779155D01*
X129786810Y-97778168D01*
X129627925Y-97717179D01*
X129619351Y-97713512D01*
X129463176Y-97639647D01*
X129459898Y-97638037D01*
X129308904Y-97561101D01*
X129301451Y-97556975D01*
X129152942Y-97467963D01*
X129149155Y-97465599D01*
X129101996Y-97434973D01*
X129007343Y-97373505D01*
X129001021Y-97369114D01*
X128861788Y-97265851D01*
X128857619Y-97262620D01*
X128726363Y-97156331D01*
X128721126Y-97151843D01*
X128592609Y-97035362D01*
X128588201Y-97031165D01*
X128468833Y-96911797D01*
X128464636Y-96907389D01*
X128348155Y-96778872D01*
X128343667Y-96773635D01*
X128237378Y-96642379D01*
X128234147Y-96638210D01*
X128130884Y-96498977D01*
X128126503Y-96492670D01*
X128034387Y-96350824D01*
X128032035Y-96347056D01*
X127943023Y-96198547D01*
X127938897Y-96191094D01*
X127933251Y-96180013D01*
X127861939Y-96040055D01*
X127860374Y-96036869D01*
X127786475Y-95880623D01*
X127782829Y-95872097D01*
X127721830Y-95713188D01*
X127720843Y-95710526D01*
X127662887Y-95548551D01*
X127659863Y-95538870D01*
X127615422Y-95373014D01*
X127614997Y-95371374D01*
X127573465Y-95205570D01*
X127571289Y-95194897D01*
X127543940Y-95022225D01*
X127543791Y-95021254D01*
X127519177Y-94855324D01*
X127518010Y-94843670D01*
X127507985Y-94652369D01*
X127503829Y-94567764D01*
X129145787Y-94567764D01*
X129175413Y-94837016D01*
X129207517Y-94959813D01*
X129243928Y-95099088D01*
X129289191Y-95205600D01*
X129349871Y-95348392D01*
X129490982Y-95579611D01*
X129602146Y-95713188D01*
X129664255Y-95787820D01*
X129865998Y-95968582D01*
X130091910Y-96118044D01*
X130159338Y-96149653D01*
X130337177Y-96233021D01*
X130596562Y-96311058D01*
X130596569Y-96311060D01*
X130864561Y-96350500D01*
X131067631Y-96350500D01*
X131067634Y-96350500D01*
X131270156Y-96335677D01*
X131270155Y-96335677D01*
X131534553Y-96276780D01*
X131787558Y-96180014D01*
X132023777Y-96047441D01*
X132238177Y-95881888D01*
X132426186Y-95686881D01*
X132583799Y-95466579D01*
X132707656Y-95225675D01*
X132795118Y-94969305D01*
X132844319Y-94702933D01*
X132854212Y-94432235D01*
X132824586Y-94162982D01*
X132756072Y-93900912D01*
X132676311Y-93713220D01*
X137959500Y-93713220D01*
X137974329Y-93887451D01*
X138033114Y-94113220D01*
X138129207Y-94325801D01*
X138248995Y-94503033D01*
X138259847Y-94519088D01*
X138421272Y-94687516D01*
X138608839Y-94826240D01*
X138817153Y-94931270D01*
X139040220Y-94999583D01*
X139271624Y-95029216D01*
X139504707Y-95019314D01*
X139732765Y-94970164D01*
X139949235Y-94883179D01*
X140147891Y-94760862D01*
X140323018Y-94606731D01*
X140354911Y-94567231D01*
X140408178Y-94528902D01*
X140473547Y-94523126D01*
X140532710Y-94551521D01*
X140554344Y-94583993D01*
X140557578Y-94581999D01*
X140565185Y-94594333D01*
X140565186Y-94594334D01*
X140585818Y-94627785D01*
X140657288Y-94743657D01*
X140781342Y-94867711D01*
X140806420Y-94883179D01*
X140930666Y-94959814D01*
X141042017Y-94996712D01*
X141097202Y-95014999D01*
X141107703Y-95016071D01*
X141199991Y-95025500D01*
X142540008Y-95025499D01*
X142642797Y-95014999D01*
X142809334Y-94959814D01*
X142958656Y-94867712D01*
X143082712Y-94743656D01*
X143082715Y-94743650D01*
X143084431Y-94741935D01*
X143134357Y-94711504D01*
X143192678Y-94707333D01*
X143220359Y-94719187D01*
X143220965Y-94717565D01*
X143237666Y-94723794D01*
X143237669Y-94723796D01*
X143372517Y-94774091D01*
X143432127Y-94780500D01*
X145227872Y-94780499D01*
X145287483Y-94774091D01*
X145422331Y-94723796D01*
X145537546Y-94637546D01*
X145623796Y-94522331D01*
X145674091Y-94387483D01*
X145680500Y-94327873D01*
X145680499Y-92532128D01*
X145674091Y-92472517D01*
X145623796Y-92337669D01*
X145537546Y-92222454D01*
X145422331Y-92136204D01*
X145287483Y-92085909D01*
X145227873Y-92079500D01*
X145227869Y-92079500D01*
X143432130Y-92079500D01*
X143372515Y-92085909D01*
X143220964Y-92142434D01*
X143220358Y-92140810D01*
X143192669Y-92152666D01*
X143134353Y-92148493D01*
X143084432Y-92118063D01*
X142958657Y-91992288D01*
X142809334Y-91900186D01*
X142642797Y-91845000D01*
X142540009Y-91834500D01*
X141199991Y-91834500D01*
X141097203Y-91845000D01*
X140930665Y-91900186D01*
X140769596Y-91999534D01*
X140707204Y-92017966D01*
X140644068Y-92002272D01*
X140597566Y-91956774D01*
X140580500Y-91893995D01*
X140580500Y-90347336D01*
X140589939Y-90299883D01*
X140616819Y-90259655D01*
X141705655Y-89170819D01*
X141745883Y-89143939D01*
X141793336Y-89134500D01*
X143312153Y-89134500D01*
X143312155Y-89134500D01*
X143480188Y-89119377D01*
X143697170Y-89059493D01*
X143899973Y-88961829D01*
X144082078Y-88829522D01*
X144237632Y-88666825D01*
X144361635Y-88478968D01*
X144450103Y-88271988D01*
X144500191Y-88052537D01*
X144510290Y-87827670D01*
X144480075Y-87604613D01*
X144410517Y-87390536D01*
X144303852Y-87192319D01*
X144163508Y-87016334D01*
X143993996Y-86868235D01*
X143985686Y-86863270D01*
X143800762Y-86752783D01*
X143590025Y-86673693D01*
X143368547Y-86633500D01*
X141301176Y-86633500D01*
X141287293Y-86632720D01*
X141282815Y-86632215D01*
X141252171Y-86628762D01*
X141186077Y-86633219D01*
X141177736Y-86633500D01*
X141167842Y-86633500D01*
X141127238Y-86637153D01*
X141124470Y-86637371D01*
X141027585Y-86643904D01*
X141023343Y-86644973D01*
X141004180Y-86648229D01*
X140999814Y-86648622D01*
X140906152Y-86674470D01*
X140903465Y-86675179D01*
X140809311Y-86698904D01*
X140805328Y-86700714D01*
X140787050Y-86707341D01*
X140782833Y-86708505D01*
X140695323Y-86750646D01*
X140692806Y-86751823D01*
X140604374Y-86791991D01*
X140600776Y-86794485D01*
X140583972Y-86804271D01*
X140580027Y-86806170D01*
X140501434Y-86863270D01*
X140499169Y-86864877D01*
X140419339Y-86920185D01*
X140416239Y-86923285D01*
X140401464Y-86935904D01*
X140397921Y-86938478D01*
X140330803Y-87008677D01*
X140328859Y-87010665D01*
X138500343Y-88839181D01*
X138489980Y-88848443D01*
X138462335Y-88870491D01*
X138418735Y-88920392D01*
X138413050Y-88926473D01*
X138406059Y-88933464D01*
X138379928Y-88964764D01*
X138378124Y-88966876D01*
X138314235Y-89040003D01*
X138311986Y-89043767D01*
X138300739Y-89059617D01*
X138297932Y-89062979D01*
X138249978Y-89147490D01*
X138248604Y-89149849D01*
X138199719Y-89231671D01*
X138198782Y-89233241D01*
X138197246Y-89237335D01*
X138189009Y-89254944D01*
X138186847Y-89258753D01*
X138154762Y-89350444D01*
X138153814Y-89353057D01*
X138119691Y-89443978D01*
X138118910Y-89448282D01*
X138113950Y-89467077D01*
X138112501Y-89471217D01*
X138097304Y-89567166D01*
X138096838Y-89569907D01*
X138079500Y-89665450D01*
X138079500Y-89669830D01*
X138077973Y-89689229D01*
X138077290Y-89693539D01*
X138079469Y-89790640D01*
X138079500Y-89793422D01*
X138079500Y-92609109D01*
X138072417Y-92650418D01*
X137998925Y-92858418D01*
X137959500Y-93088351D01*
X137959500Y-93713220D01*
X132676311Y-93713220D01*
X132650130Y-93651610D01*
X132509018Y-93420390D01*
X132509017Y-93420388D01*
X132335746Y-93212181D01*
X132230758Y-93118112D01*
X132134002Y-93031418D01*
X131908090Y-92881956D01*
X131908086Y-92881954D01*
X131662822Y-92766978D01*
X131403437Y-92688941D01*
X131403431Y-92688940D01*
X131135439Y-92649500D01*
X130932369Y-92649500D01*
X130932366Y-92649500D01*
X130729843Y-92664322D01*
X130465449Y-92723219D01*
X130212441Y-92819986D01*
X129976223Y-92952559D01*
X129761825Y-93118109D01*
X129573813Y-93313120D01*
X129416201Y-93533420D01*
X129292342Y-93774329D01*
X129204881Y-94030695D01*
X129155680Y-94297066D01*
X129145787Y-94567764D01*
X127503829Y-94567764D01*
X127500649Y-94503032D01*
X127500500Y-94496949D01*
X127500500Y-85570000D01*
X128209364Y-85570000D01*
X128266569Y-85783492D01*
X128366399Y-85997576D01*
X128501893Y-86191081D01*
X128668918Y-86358106D01*
X128862423Y-86493600D01*
X129076507Y-86593430D01*
X129289999Y-86650635D01*
X129290000Y-86650636D01*
X129290000Y-85570000D01*
X129790000Y-85570000D01*
X129790000Y-86650635D01*
X130003492Y-86593430D01*
X130217576Y-86493600D01*
X130411081Y-86358106D01*
X130578106Y-86191081D01*
X130713600Y-85997576D01*
X130813430Y-85783492D01*
X130866885Y-85584000D01*
X147494000Y-85584000D01*
X147494000Y-86231824D01*
X147500402Y-86291375D01*
X147550647Y-86426089D01*
X147636811Y-86541188D01*
X147751910Y-86627352D01*
X147886624Y-86677597D01*
X147946176Y-86684000D01*
X148594000Y-86684000D01*
X148594000Y-85584000D01*
X149094000Y-85584000D01*
X149094000Y-86684000D01*
X149741824Y-86684000D01*
X149801375Y-86677597D01*
X149936089Y-86627352D01*
X150051188Y-86541188D01*
X150137352Y-86426089D01*
X150187597Y-86291375D01*
X150194000Y-86231824D01*
X150194000Y-85584000D01*
X149094000Y-85584000D01*
X148594000Y-85584000D01*
X147494000Y-85584000D01*
X130866885Y-85584000D01*
X130870636Y-85570000D01*
X129790000Y-85570000D01*
X129290000Y-85570000D01*
X128209364Y-85570000D01*
X127500500Y-85570000D01*
X127500500Y-85084000D01*
X147494000Y-85084000D01*
X148594000Y-85084000D01*
X148594000Y-83044000D01*
X149094000Y-83044000D01*
X149094000Y-85084000D01*
X150194000Y-85084000D01*
X150194000Y-84436176D01*
X150187597Y-84376624D01*
X150137352Y-84241910D01*
X150051188Y-84126811D01*
X149936088Y-84040647D01*
X149804012Y-83991385D01*
X149753633Y-83956405D01*
X149726180Y-83901561D01*
X149728369Y-83840268D01*
X149759665Y-83787521D01*
X149882109Y-83665077D01*
X150017600Y-83471576D01*
X150117430Y-83257492D01*
X150174636Y-83044000D01*
X149094000Y-83044000D01*
X148594000Y-83044000D01*
X147513364Y-83044000D01*
X147570569Y-83257492D01*
X147670399Y-83471576D01*
X147805893Y-83665081D01*
X147928334Y-83787522D01*
X147959630Y-83840268D01*
X147961819Y-83901561D01*
X147934366Y-83956405D01*
X147883987Y-83991385D01*
X147751911Y-84040647D01*
X147636811Y-84126811D01*
X147550647Y-84241910D01*
X147500402Y-84376624D01*
X147494000Y-84436176D01*
X147494000Y-85084000D01*
X127500500Y-85084000D01*
X127500500Y-83030000D01*
X128209364Y-83030000D01*
X128266569Y-83243492D01*
X128366399Y-83457576D01*
X128501893Y-83651081D01*
X128668918Y-83818106D01*
X128855031Y-83948425D01*
X128893896Y-83992743D01*
X128907907Y-84050000D01*
X128893896Y-84107257D01*
X128855031Y-84151575D01*
X128668918Y-84281893D01*
X128501890Y-84448921D01*
X128366400Y-84642421D01*
X128266569Y-84856507D01*
X128209364Y-85069999D01*
X128209364Y-85070000D01*
X129290000Y-85070000D01*
X129290000Y-83030000D01*
X129790000Y-83030000D01*
X129790000Y-85070000D01*
X130870636Y-85070000D01*
X130870635Y-85069999D01*
X130813430Y-84856507D01*
X130713599Y-84642421D01*
X130578109Y-84448921D01*
X130411081Y-84281893D01*
X130224968Y-84151575D01*
X130186103Y-84107257D01*
X130172092Y-84050000D01*
X130186103Y-83992743D01*
X130224968Y-83948425D01*
X130411081Y-83818106D01*
X130578106Y-83651081D01*
X130713600Y-83457576D01*
X130813430Y-83243492D01*
X130870636Y-83030000D01*
X129790000Y-83030000D01*
X129290000Y-83030000D01*
X128209364Y-83030000D01*
X127500500Y-83030000D01*
X127500500Y-80239999D01*
X128184340Y-80239999D01*
X128204936Y-80475407D01*
X128208688Y-80489408D01*
X128266097Y-80703663D01*
X128365965Y-80917830D01*
X128501505Y-81111401D01*
X128668599Y-81278495D01*
X128854597Y-81408732D01*
X128893460Y-81453048D01*
X128907471Y-81510305D01*
X128893461Y-81567561D01*
X128854595Y-81611880D01*
X128668919Y-81741892D01*
X128501890Y-81908921D01*
X128366400Y-82102421D01*
X128266569Y-82316507D01*
X128209364Y-82529999D01*
X128209364Y-82530000D01*
X130870636Y-82530000D01*
X130870635Y-82529999D01*
X130813430Y-82316507D01*
X130713599Y-82102421D01*
X130578109Y-81908921D01*
X130411081Y-81741893D01*
X130225404Y-81611880D01*
X130186539Y-81567562D01*
X130172528Y-81510305D01*
X130186539Y-81453048D01*
X130225402Y-81408732D01*
X130411401Y-81278495D01*
X130578495Y-81111401D01*
X130714035Y-80917830D01*
X130813903Y-80703663D01*
X130875063Y-80475408D01*
X130894434Y-80253999D01*
X147488340Y-80253999D01*
X147508936Y-80489407D01*
X147553709Y-80656501D01*
X147570097Y-80717663D01*
X147669965Y-80931830D01*
X147805505Y-81125401D01*
X147972599Y-81292495D01*
X148158597Y-81422732D01*
X148197460Y-81467048D01*
X148211471Y-81524305D01*
X148197461Y-81581561D01*
X148158595Y-81625880D01*
X147972919Y-81755892D01*
X147805890Y-81922921D01*
X147670400Y-82116421D01*
X147570569Y-82330507D01*
X147513364Y-82543999D01*
X147513364Y-82544000D01*
X150174636Y-82544000D01*
X150174635Y-82543999D01*
X150117430Y-82330507D01*
X150017599Y-82116421D01*
X149882109Y-81922921D01*
X149715081Y-81755893D01*
X149529404Y-81625880D01*
X149490539Y-81581562D01*
X149476528Y-81524305D01*
X149490539Y-81467048D01*
X149529402Y-81422732D01*
X149715401Y-81292495D01*
X149882495Y-81125401D01*
X150018035Y-80931830D01*
X150117903Y-80717663D01*
X150179063Y-80489408D01*
X150199659Y-80254000D01*
X150179063Y-80018592D01*
X150117903Y-79790337D01*
X150018035Y-79576171D01*
X149882495Y-79382599D01*
X149715401Y-79215505D01*
X149529839Y-79085573D01*
X149490975Y-79041257D01*
X149476964Y-78984000D01*
X149490975Y-78926743D01*
X149529839Y-78882426D01*
X149715401Y-78752495D01*
X149882495Y-78585401D01*
X150018035Y-78391830D01*
X150117903Y-78177663D01*
X150179063Y-77949408D01*
X150199659Y-77714000D01*
X150179063Y-77478592D01*
X150117903Y-77250337D01*
X150018035Y-77036171D01*
X149882495Y-76842599D01*
X149715401Y-76675505D01*
X149521830Y-76539965D01*
X149307663Y-76440097D01*
X149246502Y-76423709D01*
X149079407Y-76378936D01*
X148844000Y-76358340D01*
X148608592Y-76378936D01*
X148380336Y-76440097D01*
X148166170Y-76539965D01*
X147972598Y-76675505D01*
X147805505Y-76842598D01*
X147669965Y-77036170D01*
X147570097Y-77250336D01*
X147508936Y-77478592D01*
X147488340Y-77714000D01*
X147508936Y-77949407D01*
X147553709Y-78116501D01*
X147570097Y-78177663D01*
X147669965Y-78391830D01*
X147805505Y-78585401D01*
X147972599Y-78752495D01*
X148158160Y-78882426D01*
X148197024Y-78926743D01*
X148211035Y-78984000D01*
X148197024Y-79041257D01*
X148158159Y-79085575D01*
X147972595Y-79215508D01*
X147805505Y-79382598D01*
X147669965Y-79576170D01*
X147570097Y-79790336D01*
X147508936Y-80018592D01*
X147488340Y-80253999D01*
X130894434Y-80253999D01*
X130895659Y-80240000D01*
X130875063Y-80004592D01*
X130813903Y-79776337D01*
X130714035Y-79562171D01*
X130578495Y-79368599D01*
X130456569Y-79246673D01*
X130425273Y-79193927D01*
X130423084Y-79132634D01*
X130450537Y-79077789D01*
X130500916Y-79042810D01*
X130632331Y-78993796D01*
X130747546Y-78907546D01*
X130833796Y-78792331D01*
X130884091Y-78657483D01*
X130890500Y-78597873D01*
X130890499Y-76802128D01*
X130884091Y-76742517D01*
X130833796Y-76607669D01*
X130747546Y-76492454D01*
X130632331Y-76406204D01*
X130497483Y-76355909D01*
X130437873Y-76349500D01*
X130437869Y-76349500D01*
X128642130Y-76349500D01*
X128582515Y-76355909D01*
X128447669Y-76406204D01*
X128332454Y-76492454D01*
X128246204Y-76607668D01*
X128195909Y-76742516D01*
X128189500Y-76802130D01*
X128189500Y-78597869D01*
X128195909Y-78657483D01*
X128246204Y-78792331D01*
X128332454Y-78907546D01*
X128447669Y-78993796D01*
X128559907Y-79035658D01*
X128579082Y-79042810D01*
X128629462Y-79077789D01*
X128656915Y-79132634D01*
X128654726Y-79193926D01*
X128623431Y-79246673D01*
X128501503Y-79368601D01*
X128365965Y-79562170D01*
X128266097Y-79776336D01*
X128204936Y-80004592D01*
X128184340Y-80239999D01*
X127500500Y-80239999D01*
X127500500Y-67167869D01*
X135127500Y-67167869D01*
X135133909Y-67227483D01*
X135184204Y-67362331D01*
X135270454Y-67477546D01*
X135385669Y-67563796D01*
X135520517Y-67614091D01*
X135580127Y-67620500D01*
X137375872Y-67620499D01*
X137435483Y-67614091D01*
X137570331Y-67563796D01*
X137570332Y-67563795D01*
X137587036Y-67557565D01*
X137587641Y-67559187D01*
X137615305Y-67547336D01*
X137673633Y-67551501D01*
X137723566Y-67581935D01*
X137849342Y-67707711D01*
X137849344Y-67707712D01*
X137998666Y-67799814D01*
X138110016Y-67836712D01*
X138165202Y-67854999D01*
X138175703Y-67856071D01*
X138267991Y-67865500D01*
X139608008Y-67865499D01*
X139710797Y-67854999D01*
X139877334Y-67799814D01*
X140026656Y-67707712D01*
X140150712Y-67583656D01*
X140242814Y-67434334D01*
X140242814Y-67434333D01*
X140250422Y-67421999D01*
X140253242Y-67423738D01*
X140273568Y-67392516D01*
X140329542Y-67363422D01*
X140392586Y-67365633D01*
X140446385Y-67398575D01*
X140569603Y-67527139D01*
X140757101Y-67665812D01*
X140965339Y-67770803D01*
X141188326Y-67839092D01*
X141228000Y-67844172D01*
X141228000Y-66520000D01*
X141728000Y-66520000D01*
X141728000Y-67842575D01*
X141880621Y-67809682D01*
X142097005Y-67722732D01*
X142295594Y-67600456D01*
X142470657Y-67446381D01*
X142617160Y-67264942D01*
X142730896Y-67061344D01*
X142808588Y-66841455D01*
X142848000Y-66611606D01*
X142848000Y-66520000D01*
X141728000Y-66520000D01*
X141228000Y-66520000D01*
X141228000Y-64697424D01*
X141075378Y-64730317D01*
X140858994Y-64817267D01*
X140660405Y-64939543D01*
X140485343Y-65093617D01*
X140453273Y-65133334D01*
X140400000Y-65171664D01*
X140334626Y-65177435D01*
X140275462Y-65149030D01*
X140253522Y-65116088D01*
X140250422Y-65118001D01*
X140150711Y-64956342D01*
X140026657Y-64832288D01*
X139877334Y-64740186D01*
X139743470Y-64695827D01*
X141728000Y-64695827D01*
X141728000Y-66020000D01*
X142848000Y-66020000D01*
X142848000Y-65986802D01*
X142833176Y-65812635D01*
X142774410Y-65586945D01*
X142678353Y-65374442D01*
X142547763Y-65181227D01*
X142386396Y-65012860D01*
X142198898Y-64874187D01*
X142126657Y-64837764D01*
X145645787Y-64837764D01*
X145675413Y-65107016D01*
X145709998Y-65239304D01*
X145743928Y-65369088D01*
X145746437Y-65374992D01*
X145849871Y-65618392D01*
X145990982Y-65849611D01*
X146132781Y-66020000D01*
X146164255Y-66057820D01*
X146365998Y-66238582D01*
X146591910Y-66388044D01*
X146698211Y-66437875D01*
X146837177Y-66503021D01*
X147096562Y-66581058D01*
X147096569Y-66581060D01*
X147364561Y-66620500D01*
X147567631Y-66620500D01*
X147567634Y-66620500D01*
X147770156Y-66605677D01*
X147770155Y-66605677D01*
X148034553Y-66546780D01*
X148287558Y-66450014D01*
X148523777Y-66317441D01*
X148738177Y-66151888D01*
X148926186Y-65956881D01*
X149083799Y-65736579D01*
X149207656Y-65495675D01*
X149295118Y-65239305D01*
X149344319Y-64972933D01*
X149354212Y-64702235D01*
X149324586Y-64432982D01*
X149256072Y-64170912D01*
X149150130Y-63921610D01*
X149009018Y-63690390D01*
X149009017Y-63690388D01*
X148835746Y-63482181D01*
X148741710Y-63397925D01*
X148634002Y-63301418D01*
X148408090Y-63151956D01*
X148408086Y-63151954D01*
X148162822Y-63036978D01*
X147903437Y-62958941D01*
X147903431Y-62958940D01*
X147635439Y-62919500D01*
X147432369Y-62919500D01*
X147432366Y-62919500D01*
X147229843Y-62934322D01*
X146965449Y-62993219D01*
X146712441Y-63089986D01*
X146476223Y-63222559D01*
X146261825Y-63388109D01*
X146073813Y-63583120D01*
X145916201Y-63803420D01*
X145792342Y-64044329D01*
X145704881Y-64300695D01*
X145655680Y-64567066D01*
X145645787Y-64837764D01*
X142126657Y-64837764D01*
X141990660Y-64769196D01*
X141767673Y-64700907D01*
X141728000Y-64695827D01*
X139743470Y-64695827D01*
X139710797Y-64685000D01*
X139608009Y-64674500D01*
X138267991Y-64674500D01*
X138165203Y-64685000D01*
X137998665Y-64740186D01*
X137849344Y-64832287D01*
X137723567Y-64958064D01*
X137673646Y-64988493D01*
X137615332Y-64992667D01*
X137587640Y-64980811D01*
X137587035Y-64982435D01*
X137570332Y-64976205D01*
X137570331Y-64976204D01*
X137435483Y-64925909D01*
X137375873Y-64919500D01*
X137375869Y-64919500D01*
X135580130Y-64919500D01*
X135520515Y-64925909D01*
X135385669Y-64976204D01*
X135270454Y-65062454D01*
X135184204Y-65177668D01*
X135133909Y-65312516D01*
X135127500Y-65372130D01*
X135127500Y-67167869D01*
X127500500Y-67167869D01*
X127500500Y-64773051D01*
X127500649Y-64766967D01*
X127507998Y-64617372D01*
X127518010Y-64426327D01*
X127519176Y-64414679D01*
X127543801Y-64248671D01*
X127543929Y-64247842D01*
X127571290Y-64075093D01*
X127573463Y-64064438D01*
X127615016Y-63898551D01*
X127615406Y-63897043D01*
X127659870Y-63731105D01*
X127662880Y-63721469D01*
X127720867Y-63559405D01*
X127721830Y-63556810D01*
X127782836Y-63397883D01*
X127786466Y-63389395D01*
X127860400Y-63233076D01*
X127861912Y-63229997D01*
X127938909Y-63078881D01*
X127943010Y-63071474D01*
X128032078Y-62922873D01*
X128034354Y-62919225D01*
X128126523Y-62777298D01*
X128130860Y-62771055D01*
X128234170Y-62631757D01*
X128237331Y-62627679D01*
X128343698Y-62496325D01*
X128348123Y-62491162D01*
X128464674Y-62362568D01*
X128468793Y-62358242D01*
X128588242Y-62238793D01*
X128592568Y-62234674D01*
X128721162Y-62118123D01*
X128726325Y-62113698D01*
X128857679Y-62007331D01*
X128861757Y-62004170D01*
X129001055Y-61900860D01*
X129007298Y-61896523D01*
X129149225Y-61804354D01*
X129152873Y-61802078D01*
X129301474Y-61713010D01*
X129308881Y-61708909D01*
X129459997Y-61631912D01*
X129463076Y-61630400D01*
X129619395Y-61556466D01*
X129627883Y-61552836D01*
X129786847Y-61491816D01*
X129789405Y-61490867D01*
X129951469Y-61432880D01*
X129961105Y-61429870D01*
X130127043Y-61385406D01*
X130128551Y-61385016D01*
X130294438Y-61343463D01*
X130305093Y-61341290D01*
X130477842Y-61313929D01*
X130478671Y-61313801D01*
X130644679Y-61289176D01*
X130656325Y-61288010D01*
X130847402Y-61277996D01*
X130993747Y-61270807D01*
X130996968Y-61270649D01*
X131003051Y-61270500D01*
X147496949Y-61270500D01*
X147503032Y-61270649D01*
G37*
G04 #@! TD.AperFunction*
M02*
