G04 #@! TF.GenerationSoftware,KiCad,Pcbnew,7.0.1*
G04 #@! TF.CreationDate,2025-03-09T11:47:29-05:00*
G04 #@! TF.ProjectId,Single Mosfet Board V2,53696e67-6c65-4204-9d6f-736665742042,rev?*
G04 #@! TF.SameCoordinates,Original*
G04 #@! TF.FileFunction,Copper,L1,Top*
G04 #@! TF.FilePolarity,Positive*
%FSLAX46Y46*%
G04 Gerber Fmt 4.6, Leading zero omitted, Abs format (unit mm)*
G04 Created by KiCad (PCBNEW 7.0.1) date 2025-03-09 11:47:29*
%MOMM*%
%LPD*%
G01*
G04 APERTURE LIST*
G04 Aperture macros list*
%AMRoundRect*
0 Rectangle with rounded corners*
0 $1 Rounding radius*
0 $2 $3 $4 $5 $6 $7 $8 $9 X,Y pos of 4 corners*
0 Add a 4 corners polygon primitive as box body*
4,1,4,$2,$3,$4,$5,$6,$7,$8,$9,$2,$3,0*
0 Add four circle primitives for the rounded corners*
1,1,$1+$1,$2,$3*
1,1,$1+$1,$4,$5*
1,1,$1+$1,$6,$7*
1,1,$1+$1,$8,$9*
0 Add four rect primitives between the rounded corners*
20,1,$1+$1,$2,$3,$4,$5,0*
20,1,$1+$1,$4,$5,$6,$7,0*
20,1,$1+$1,$6,$7,$8,$9,0*
20,1,$1+$1,$8,$9,$2,$3,0*%
G04 Aperture macros list end*
G04 #@! TA.AperFunction,SMDPad,CuDef*
%ADD10RoundRect,0.250000X-0.450000X0.350000X-0.450000X-0.350000X0.450000X-0.350000X0.450000X0.350000X0*%
G04 #@! TD*
G04 #@! TA.AperFunction,SMDPad,CuDef*
%ADD11RoundRect,0.250000X-0.300000X2.050000X-0.300000X-2.050000X0.300000X-2.050000X0.300000X2.050000X0*%
G04 #@! TD*
G04 #@! TA.AperFunction,SMDPad,CuDef*
%ADD12RoundRect,0.250002X-5.149998X4.449998X-5.149998X-4.449998X5.149998X-4.449998X5.149998X4.449998X0*%
G04 #@! TD*
G04 #@! TA.AperFunction,SMDPad,CuDef*
%ADD13RoundRect,0.250000X-2.375000X2.025000X-2.375000X-2.025000X2.375000X-2.025000X2.375000X2.025000X0*%
G04 #@! TD*
G04 #@! TA.AperFunction,ComponentPad*
%ADD14RoundRect,0.250000X-0.620000X-0.845000X0.620000X-0.845000X0.620000X0.845000X-0.620000X0.845000X0*%
G04 #@! TD*
G04 #@! TA.AperFunction,ComponentPad*
%ADD15O,1.740000X2.190000*%
G04 #@! TD*
G04 #@! TA.AperFunction,ComponentPad*
%ADD16R,1.700000X1.700000*%
G04 #@! TD*
G04 #@! TA.AperFunction,ComponentPad*
%ADD17O,1.700000X1.700000*%
G04 #@! TD*
G04 #@! TA.AperFunction,SMDPad,CuDef*
%ADD18RoundRect,0.250001X0.624999X-0.462499X0.624999X0.462499X-0.624999X0.462499X-0.624999X-0.462499X0*%
G04 #@! TD*
G04 #@! TA.AperFunction,ComponentPad*
%ADD19RoundRect,0.250000X0.620000X0.845000X-0.620000X0.845000X-0.620000X-0.845000X0.620000X-0.845000X0*%
G04 #@! TD*
G04 #@! TA.AperFunction,SMDPad,CuDef*
%ADD20RoundRect,0.250000X-1.500000X-0.650000X1.500000X-0.650000X1.500000X0.650000X-1.500000X0.650000X0*%
G04 #@! TD*
G04 #@! TA.AperFunction,SMDPad,CuDef*
%ADD21RoundRect,0.250000X-0.350000X-0.450000X0.350000X-0.450000X0.350000X0.450000X-0.350000X0.450000X0*%
G04 #@! TD*
G04 #@! TA.AperFunction,ViaPad*
%ADD22C,0.800000*%
G04 #@! TD*
G04 #@! TA.AperFunction,Conductor*
%ADD23C,0.350000*%
G04 #@! TD*
G04 #@! TA.AperFunction,Conductor*
%ADD24C,1.500000*%
G04 #@! TD*
G04 APERTURE END LIST*
D10*
X134874000Y-71374000D03*
X134874000Y-73374000D03*
D11*
X141986000Y-71876000D03*
X136906000Y-71876000D03*
D12*
X139446000Y-81026000D03*
D13*
X136671000Y-83451000D03*
X142221000Y-78601000D03*
X142221000Y-83451000D03*
X136671000Y-78601000D03*
D14*
X138938000Y-66270000D03*
D15*
X141478000Y-66270000D03*
D16*
X144330000Y-93430000D03*
D17*
X148844000Y-77714000D03*
X148844000Y-80254000D03*
X148844000Y-82794000D03*
D16*
X148844000Y-85334000D03*
X129540000Y-77700000D03*
D17*
X129540000Y-80240000D03*
X129540000Y-82780000D03*
X129540000Y-85320000D03*
D18*
X136144000Y-96701000D03*
X136144000Y-93726000D03*
D16*
X136478000Y-66270000D03*
D10*
X144018000Y-71374000D03*
X144018000Y-73374000D03*
D19*
X141870000Y-93430000D03*
D15*
X139330000Y-93430000D03*
D20*
X137200000Y-87884000D03*
X142200000Y-87884000D03*
D21*
X134550000Y-91000000D03*
X136550000Y-91000000D03*
D22*
X141224000Y-87884000D03*
X143256000Y-87884000D03*
D23*
X134874000Y-73374000D02*
X135408000Y-73374000D01*
X135408000Y-73374000D02*
X136906000Y-71876000D01*
X134874000Y-67874000D02*
X136478000Y-66270000D01*
X134874000Y-71374000D02*
X134874000Y-67874000D01*
X138938000Y-66270000D02*
X136478000Y-66270000D01*
X140408000Y-67740000D02*
X138938000Y-66270000D01*
X141400000Y-67740000D02*
X140408000Y-67740000D01*
X144018000Y-70358000D02*
X141400000Y-67740000D01*
X144018000Y-71374000D02*
X144018000Y-70358000D01*
X142520000Y-71876000D02*
X144018000Y-73374000D01*
X141986000Y-71876000D02*
X142520000Y-71876000D01*
D24*
X142200000Y-83472000D02*
X142221000Y-83451000D01*
X142200000Y-87884000D02*
X142200000Y-83472000D01*
X136550000Y-93320000D02*
X136550000Y-91000000D01*
X136144000Y-93726000D02*
X136550000Y-93320000D01*
X136144000Y-96616000D02*
X139330000Y-93430000D01*
X136144000Y-96701000D02*
X136144000Y-96616000D01*
X134550000Y-88340945D02*
X134550000Y-91000000D01*
X135006945Y-87884000D02*
X134550000Y-88340945D01*
X141732000Y-89734000D02*
X144454000Y-89734000D01*
X141870000Y-89872000D02*
X141732000Y-89734000D01*
X139050000Y-89734000D02*
X141732000Y-89734000D01*
X141870000Y-93430000D02*
X141870000Y-89872000D01*
X148844000Y-77714000D02*
X148844000Y-80254000D01*
X147044000Y-81810000D02*
X148600000Y-80254000D01*
X148600000Y-80254000D02*
X148844000Y-80254000D01*
X144454000Y-89734000D02*
X147044000Y-87144000D01*
X147044000Y-87144000D02*
X147044000Y-81810000D01*
X137200000Y-87884000D02*
X139050000Y-89734000D01*
X129540000Y-77700000D02*
X129540000Y-80240000D01*
X130786000Y-80240000D02*
X129540000Y-80240000D01*
X131340000Y-84217055D02*
X131340000Y-80794000D01*
X135006945Y-87884000D02*
X131340000Y-84217055D01*
X131340000Y-80794000D02*
X130786000Y-80240000D01*
X137200000Y-87884000D02*
X135006945Y-87884000D01*
X144330000Y-93430000D02*
X141870000Y-93430000D01*
G04 #@! TA.AperFunction,Conductor*
G36*
X147503032Y-61270649D02*
G01*
X147507384Y-61270862D01*
X147652450Y-61277989D01*
X147843670Y-61288010D01*
X147855324Y-61289177D01*
X148021254Y-61313791D01*
X148022225Y-61313940D01*
X148194897Y-61341289D01*
X148205570Y-61343465D01*
X148371374Y-61384997D01*
X148373014Y-61385422D01*
X148538880Y-61429866D01*
X148548544Y-61432884D01*
X148652693Y-61470150D01*
X148710526Y-61490843D01*
X148713188Y-61491830D01*
X148746726Y-61504704D01*
X148872097Y-61552829D01*
X148880623Y-61556475D01*
X149036869Y-61630374D01*
X149040055Y-61631939D01*
X149182487Y-61704511D01*
X149191094Y-61708897D01*
X149198547Y-61713023D01*
X149347075Y-61802047D01*
X149350824Y-61804387D01*
X149492670Y-61896503D01*
X149498977Y-61900884D01*
X149638210Y-62004147D01*
X149642365Y-62007367D01*
X149773635Y-62113667D01*
X149778872Y-62118155D01*
X149907389Y-62234636D01*
X149911797Y-62238833D01*
X150031165Y-62358201D01*
X150035362Y-62362609D01*
X150151843Y-62491126D01*
X150156331Y-62496363D01*
X150262620Y-62627619D01*
X150265851Y-62631788D01*
X150369114Y-62771021D01*
X150373512Y-62777353D01*
X150465599Y-62919155D01*
X150467963Y-62922942D01*
X150556975Y-63071451D01*
X150561101Y-63078904D01*
X150638037Y-63229898D01*
X150639647Y-63233176D01*
X150713510Y-63389345D01*
X150717179Y-63397925D01*
X150778168Y-63556810D01*
X150779155Y-63559472D01*
X150837111Y-63721447D01*
X150840135Y-63731128D01*
X150884535Y-63896827D01*
X150885044Y-63898792D01*
X150926526Y-64064398D01*
X150928715Y-64075130D01*
X150956041Y-64247665D01*
X150956226Y-64248867D01*
X150980818Y-64414649D01*
X150981990Y-64426355D01*
X150991989Y-64617157D01*
X150991886Y-64617162D01*
X150992011Y-64617561D01*
X150999351Y-64766967D01*
X150999500Y-64773052D01*
X150999500Y-94496948D01*
X150999351Y-94503033D01*
X150992014Y-94652369D01*
X150991993Y-94652774D01*
X150981990Y-94843644D01*
X150980818Y-94855349D01*
X150956226Y-95021131D01*
X150956041Y-95022333D01*
X150928715Y-95194868D01*
X150926526Y-95205600D01*
X150885044Y-95371206D01*
X150884535Y-95373171D01*
X150840135Y-95538870D01*
X150837111Y-95548551D01*
X150779155Y-95710526D01*
X150778168Y-95713188D01*
X150717179Y-95872073D01*
X150713510Y-95880653D01*
X150639647Y-96036822D01*
X150638037Y-96040100D01*
X150561101Y-96191094D01*
X150556975Y-96198547D01*
X150467963Y-96347056D01*
X150465599Y-96350843D01*
X150373512Y-96492645D01*
X150369114Y-96498977D01*
X150265851Y-96638210D01*
X150262620Y-96642379D01*
X150156331Y-96773635D01*
X150151843Y-96778872D01*
X150035362Y-96907389D01*
X150031165Y-96911797D01*
X149911797Y-97031165D01*
X149907389Y-97035362D01*
X149778872Y-97151843D01*
X149773635Y-97156331D01*
X149642379Y-97262620D01*
X149638210Y-97265851D01*
X149498977Y-97369114D01*
X149492645Y-97373512D01*
X149350843Y-97465599D01*
X149347056Y-97467963D01*
X149198547Y-97556975D01*
X149191094Y-97561101D01*
X149040100Y-97638037D01*
X149036822Y-97639647D01*
X148880653Y-97713510D01*
X148872073Y-97717179D01*
X148713188Y-97778168D01*
X148710526Y-97779155D01*
X148548551Y-97837111D01*
X148538870Y-97840135D01*
X148373171Y-97884535D01*
X148371206Y-97885044D01*
X148205600Y-97926526D01*
X148194868Y-97928715D01*
X148022333Y-97956041D01*
X148021131Y-97956226D01*
X147855349Y-97980818D01*
X147843644Y-97981990D01*
X147652774Y-97991993D01*
X147652369Y-97992014D01*
X147503033Y-97999351D01*
X147496948Y-97999500D01*
X137280460Y-97999500D01*
X137219086Y-97983246D01*
X137173802Y-97938745D01*
X137156479Y-97877664D01*
X137171659Y-97816016D01*
X137215363Y-97769962D01*
X137237654Y-97756212D01*
X137361711Y-97632155D01*
X137453813Y-97482836D01*
X137458742Y-97467963D01*
X137508999Y-97316297D01*
X137519500Y-97213508D01*
X137519500Y-97060336D01*
X137528939Y-97012883D01*
X137555819Y-96972655D01*
X138035829Y-96492645D01*
X139484548Y-95043924D01*
X139512903Y-95022719D01*
X139546098Y-95010392D01*
X139732765Y-94970164D01*
X139949235Y-94883179D01*
X140147891Y-94760862D01*
X140323018Y-94606731D01*
X140354911Y-94567231D01*
X140408178Y-94528902D01*
X140473547Y-94523126D01*
X140532710Y-94551521D01*
X140554344Y-94583993D01*
X140557578Y-94581999D01*
X140565185Y-94594333D01*
X140565186Y-94594334D01*
X140585818Y-94627785D01*
X140657288Y-94743657D01*
X140781342Y-94867711D01*
X140790426Y-94873314D01*
X140930666Y-94959814D01*
X141042017Y-94996712D01*
X141097202Y-95014999D01*
X141107703Y-95016071D01*
X141199991Y-95025500D01*
X142540008Y-95025499D01*
X142642797Y-95014999D01*
X142809334Y-94959814D01*
X142958656Y-94867712D01*
X143082712Y-94743656D01*
X143082713Y-94743653D01*
X143084431Y-94741936D01*
X143134353Y-94711506D01*
X143192669Y-94707333D01*
X143220359Y-94719188D01*
X143220965Y-94717565D01*
X143237666Y-94723794D01*
X143237669Y-94723796D01*
X143372517Y-94774091D01*
X143432127Y-94780500D01*
X145227872Y-94780499D01*
X145287483Y-94774091D01*
X145422331Y-94723796D01*
X145537546Y-94637546D01*
X145623796Y-94522331D01*
X145674091Y-94387483D01*
X145680500Y-94327873D01*
X145680499Y-92532128D01*
X145674091Y-92472517D01*
X145623796Y-92337669D01*
X145537546Y-92222454D01*
X145422331Y-92136204D01*
X145287483Y-92085909D01*
X145227873Y-92079500D01*
X145227869Y-92079500D01*
X143432130Y-92079500D01*
X143372515Y-92085909D01*
X143287833Y-92117494D01*
X143229046Y-92124345D01*
X143173780Y-92103168D01*
X143134624Y-92058787D01*
X143120500Y-92001312D01*
X143120500Y-91108500D01*
X143137113Y-91046500D01*
X143182500Y-91001113D01*
X143244500Y-90984500D01*
X144376814Y-90984500D01*
X144390698Y-90985280D01*
X144425826Y-90989238D01*
X144425826Y-90989237D01*
X144425827Y-90989238D01*
X144491934Y-90984780D01*
X144500274Y-90984500D01*
X144510150Y-90984500D01*
X144510155Y-90984500D01*
X144550800Y-90980841D01*
X144553504Y-90980628D01*
X144650412Y-90974096D01*
X144654652Y-90973027D01*
X144673837Y-90969768D01*
X144678188Y-90969377D01*
X144771856Y-90943525D01*
X144774466Y-90942836D01*
X144868683Y-90919096D01*
X144872658Y-90917290D01*
X144890961Y-90910655D01*
X144895167Y-90909494D01*
X144895167Y-90909493D01*
X144895170Y-90909493D01*
X144982739Y-90867321D01*
X144985165Y-90866187D01*
X145073626Y-90826007D01*
X145077209Y-90823524D01*
X145094039Y-90813723D01*
X145097973Y-90811829D01*
X145176608Y-90754696D01*
X145178781Y-90753155D01*
X145258654Y-90697820D01*
X145261740Y-90694732D01*
X145276543Y-90682089D01*
X145280078Y-90679522D01*
X145347238Y-90609276D01*
X145349095Y-90607377D01*
X147873672Y-88082801D01*
X147884021Y-88073553D01*
X147911666Y-88051508D01*
X147955261Y-88001608D01*
X147960952Y-87995522D01*
X147967945Y-87988530D01*
X147994158Y-87957130D01*
X147995783Y-87955227D01*
X148059765Y-87881996D01*
X148062008Y-87878240D01*
X148073269Y-87862371D01*
X148076068Y-87859019D01*
X148124008Y-87774529D01*
X148125375Y-87772182D01*
X148175214Y-87688765D01*
X148175215Y-87688764D01*
X148176749Y-87684674D01*
X148184998Y-87667041D01*
X148187153Y-87663245D01*
X148219253Y-87571507D01*
X148220153Y-87569023D01*
X148254307Y-87478024D01*
X148255087Y-87473723D01*
X148260052Y-87454913D01*
X148261498Y-87450783D01*
X148276708Y-87354746D01*
X148277144Y-87352181D01*
X148294500Y-87256547D01*
X148294500Y-87252170D01*
X148296027Y-87232771D01*
X148296710Y-87228460D01*
X148294531Y-87131378D01*
X148294500Y-87128596D01*
X148294500Y-86808000D01*
X148311113Y-86746000D01*
X148356500Y-86700613D01*
X148418500Y-86684000D01*
X148594000Y-86684000D01*
X148594000Y-85584000D01*
X149094000Y-85584000D01*
X149094000Y-86684000D01*
X149741824Y-86684000D01*
X149801375Y-86677597D01*
X149936089Y-86627352D01*
X150051188Y-86541188D01*
X150137352Y-86426089D01*
X150187597Y-86291375D01*
X150194000Y-86231824D01*
X150194000Y-85584000D01*
X149094000Y-85584000D01*
X148594000Y-85584000D01*
X148594000Y-83044000D01*
X149094000Y-83044000D01*
X149094000Y-85084000D01*
X150194000Y-85084000D01*
X150194000Y-84436176D01*
X150187597Y-84376624D01*
X150137352Y-84241910D01*
X150051188Y-84126811D01*
X149936088Y-84040647D01*
X149804012Y-83991385D01*
X149753633Y-83956405D01*
X149726180Y-83901561D01*
X149728369Y-83840268D01*
X149759665Y-83787521D01*
X149882109Y-83665077D01*
X150017600Y-83471576D01*
X150117430Y-83257492D01*
X150174636Y-83044000D01*
X149094000Y-83044000D01*
X148594000Y-83044000D01*
X148594000Y-82668000D01*
X148610613Y-82606000D01*
X148656000Y-82560613D01*
X148718000Y-82544000D01*
X150174636Y-82544000D01*
X150174635Y-82543999D01*
X150117430Y-82330507D01*
X150017599Y-82116421D01*
X149882109Y-81922921D01*
X149715081Y-81755893D01*
X149529404Y-81625880D01*
X149490539Y-81581562D01*
X149476528Y-81524305D01*
X149490539Y-81467048D01*
X149529402Y-81422732D01*
X149715401Y-81292495D01*
X149882495Y-81125401D01*
X150018035Y-80931830D01*
X150117903Y-80717663D01*
X150179063Y-80489408D01*
X150199659Y-80254000D01*
X150192692Y-80174374D01*
X150179063Y-80018592D01*
X150147501Y-79900800D01*
X150117903Y-79790337D01*
X150111375Y-79776337D01*
X150106118Y-79765063D01*
X150094500Y-79712659D01*
X150094500Y-78255341D01*
X150106118Y-78202937D01*
X150117902Y-78177665D01*
X150179063Y-77949407D01*
X150199659Y-77714000D01*
X150179063Y-77478592D01*
X150179062Y-77478591D01*
X150117903Y-77250337D01*
X150018035Y-77036171D01*
X149882495Y-76842599D01*
X149715401Y-76675505D01*
X149521830Y-76539965D01*
X149307663Y-76440097D01*
X149244613Y-76423203D01*
X149079407Y-76378936D01*
X148844000Y-76358340D01*
X148608592Y-76378936D01*
X148380336Y-76440097D01*
X148166170Y-76539965D01*
X147972598Y-76675505D01*
X147805505Y-76842598D01*
X147669965Y-77036170D01*
X147570097Y-77250336D01*
X147508936Y-77478592D01*
X147488340Y-77714000D01*
X147508936Y-77949407D01*
X147570097Y-78177665D01*
X147581882Y-78202937D01*
X147593500Y-78255341D01*
X147593500Y-79440664D01*
X147584061Y-79488117D01*
X147557181Y-79528345D01*
X146214344Y-80871180D01*
X146203981Y-80880442D01*
X146176335Y-80902491D01*
X146132735Y-80952392D01*
X146127050Y-80958473D01*
X146120059Y-80965464D01*
X146093928Y-80996764D01*
X146092124Y-80998876D01*
X146028235Y-81072003D01*
X146025986Y-81075767D01*
X146014739Y-81091617D01*
X146011932Y-81094979D01*
X145963978Y-81179490D01*
X145962604Y-81181849D01*
X145913719Y-81263671D01*
X145912782Y-81265241D01*
X145911246Y-81269335D01*
X145903009Y-81286944D01*
X145900847Y-81290753D01*
X145868762Y-81382444D01*
X145867814Y-81385057D01*
X145833691Y-81475978D01*
X145832910Y-81480282D01*
X145827950Y-81499077D01*
X145826501Y-81503217D01*
X145811304Y-81599166D01*
X145810838Y-81601907D01*
X145793500Y-81697450D01*
X145793500Y-81701830D01*
X145791973Y-81721229D01*
X145791290Y-81725539D01*
X145793469Y-81822640D01*
X145793500Y-81825422D01*
X145793500Y-86574664D01*
X145784061Y-86622117D01*
X145757181Y-86662345D01*
X144662180Y-87757345D01*
X144612817Y-87787595D01*
X144555101Y-87792137D01*
X144501614Y-87769982D01*
X144464014Y-87725959D01*
X144450499Y-87669664D01*
X144450499Y-87183991D01*
X144439999Y-87081203D01*
X144439998Y-87081202D01*
X144384814Y-86914666D01*
X144292712Y-86765344D01*
X144292711Y-86765342D01*
X144168657Y-86641288D01*
X144019334Y-86549186D01*
X143852797Y-86494000D01*
X143750009Y-86483500D01*
X143574500Y-86483500D01*
X143512500Y-86466887D01*
X143467113Y-86421500D01*
X143450500Y-86359500D01*
X143450500Y-86350499D01*
X143467113Y-86288499D01*
X143512500Y-86243112D01*
X143574500Y-86226499D01*
X144646009Y-86226499D01*
X144697402Y-86221249D01*
X144748797Y-86215999D01*
X144915334Y-86160814D01*
X145064656Y-86068712D01*
X145188712Y-85944656D01*
X145280814Y-85795334D01*
X145335999Y-85628797D01*
X145346500Y-85526009D01*
X145346500Y-83535460D01*
X145346499Y-80676014D01*
X145346500Y-80676009D01*
X145346499Y-76525992D01*
X145335999Y-76423203D01*
X145280814Y-76256666D01*
X145188712Y-76107344D01*
X145188711Y-76107342D01*
X145064657Y-75983288D01*
X144915334Y-75891186D01*
X144748797Y-75836000D01*
X144646009Y-75825500D01*
X144646007Y-75825500D01*
X139096014Y-75825500D01*
X139096009Y-75825500D01*
X134245991Y-75825500D01*
X134143203Y-75836000D01*
X133976665Y-75891186D01*
X133827342Y-75983288D01*
X133703288Y-76107342D01*
X133611186Y-76256665D01*
X133556000Y-76423203D01*
X133552272Y-76459710D01*
X133552272Y-76459714D01*
X133545500Y-76525995D01*
X133545500Y-84354719D01*
X133531985Y-84411014D01*
X133494385Y-84455037D01*
X133440898Y-84477192D01*
X133383182Y-84472650D01*
X133333819Y-84442400D01*
X132626819Y-83735400D01*
X132599939Y-83695172D01*
X132590500Y-83647719D01*
X132590500Y-80871176D01*
X132591280Y-80857291D01*
X132595237Y-80822171D01*
X132590781Y-80756077D01*
X132590500Y-80747736D01*
X132590500Y-80737848D01*
X132586844Y-80697228D01*
X132586626Y-80694452D01*
X132580096Y-80597589D01*
X132580096Y-80597587D01*
X132579027Y-80593345D01*
X132575768Y-80574157D01*
X132575377Y-80569812D01*
X132549534Y-80476173D01*
X132548840Y-80473547D01*
X132525096Y-80379316D01*
X132523290Y-80375340D01*
X132516655Y-80357040D01*
X132515493Y-80352830D01*
X132473346Y-80265311D01*
X132472189Y-80262839D01*
X132449709Y-80213346D01*
X132432008Y-80174375D01*
X132431062Y-80173010D01*
X132429517Y-80170780D01*
X132419724Y-80153962D01*
X132417830Y-80150029D01*
X132417829Y-80150027D01*
X132360704Y-80071402D01*
X132359163Y-80069229D01*
X132303820Y-79989345D01*
X132300727Y-79986252D01*
X132288088Y-79971453D01*
X132285522Y-79967921D01*
X132215319Y-79900800D01*
X132213330Y-79898855D01*
X131724816Y-79410342D01*
X131715550Y-79399974D01*
X131693506Y-79372332D01*
X131643603Y-79328732D01*
X131637507Y-79323033D01*
X131630527Y-79316053D01*
X131599255Y-79289945D01*
X131597140Y-79288139D01*
X131572809Y-79266882D01*
X131523996Y-79224235D01*
X131520236Y-79221988D01*
X131504370Y-79210730D01*
X131501018Y-79207931D01*
X131416548Y-79160001D01*
X131414145Y-79158601D01*
X131330765Y-79108785D01*
X131326671Y-79107249D01*
X131309046Y-79099003D01*
X131305245Y-79096847D01*
X131305244Y-79096846D01*
X131305243Y-79096846D01*
X131213568Y-79064767D01*
X131210954Y-79063819D01*
X131120028Y-79029694D01*
X131120025Y-79029693D01*
X131120024Y-79029693D01*
X131115721Y-79028911D01*
X131096917Y-79023948D01*
X131092782Y-79022501D01*
X130996847Y-79007306D01*
X130994106Y-79006841D01*
X130982185Y-79004677D01*
X130908878Y-78991374D01*
X130852283Y-78965161D01*
X130815608Y-78914709D01*
X130808135Y-78852784D01*
X130831755Y-78795057D01*
X130833796Y-78792331D01*
X130884091Y-78657483D01*
X130890500Y-78597873D01*
X130890499Y-76802128D01*
X130884091Y-76742517D01*
X130833796Y-76607669D01*
X130747546Y-76492454D01*
X130632331Y-76406204D01*
X130497483Y-76355909D01*
X130437873Y-76349500D01*
X130437869Y-76349500D01*
X128642130Y-76349500D01*
X128582515Y-76355909D01*
X128447669Y-76406204D01*
X128332454Y-76492454D01*
X128246204Y-76607668D01*
X128195909Y-76742516D01*
X128189500Y-76802130D01*
X128189500Y-78597869D01*
X128195909Y-78657483D01*
X128246204Y-78792331D01*
X128264768Y-78817129D01*
X128283155Y-78852280D01*
X128289500Y-78891439D01*
X128289500Y-79698659D01*
X128277882Y-79751063D01*
X128266097Y-79776334D01*
X128204936Y-80004592D01*
X128184340Y-80239999D01*
X128204936Y-80475407D01*
X128208688Y-80489408D01*
X128266097Y-80703663D01*
X128365965Y-80917830D01*
X128501505Y-81111401D01*
X128668599Y-81278495D01*
X128854597Y-81408732D01*
X128893460Y-81453048D01*
X128907471Y-81510305D01*
X128893461Y-81567561D01*
X128854595Y-81611880D01*
X128668919Y-81741892D01*
X128501890Y-81908921D01*
X128366400Y-82102421D01*
X128266569Y-82316507D01*
X128209364Y-82529999D01*
X128209364Y-82530000D01*
X129666000Y-82530000D01*
X129728000Y-82546613D01*
X129773387Y-82592000D01*
X129790000Y-82654000D01*
X129790000Y-86650635D01*
X130003492Y-86593430D01*
X130217576Y-86493600D01*
X130411081Y-86358106D01*
X130578106Y-86191081D01*
X130713600Y-85997576D01*
X130813431Y-85783491D01*
X130826424Y-85734998D01*
X130858517Y-85679410D01*
X130914104Y-85647315D01*
X130978292Y-85647315D01*
X131033880Y-85679409D01*
X133295500Y-87941029D01*
X133325750Y-87990392D01*
X133330292Y-88048108D01*
X133317304Y-88130110D01*
X133316838Y-88132852D01*
X133299500Y-88228395D01*
X133299500Y-88232775D01*
X133297973Y-88252174D01*
X133297290Y-88256484D01*
X133299469Y-88353585D01*
X133299500Y-88356367D01*
X133299500Y-91056153D01*
X133314623Y-91224190D01*
X133374507Y-91441171D01*
X133473423Y-91646573D01*
X133479409Y-91661369D01*
X133515186Y-91769336D01*
X133607288Y-91918657D01*
X133731342Y-92042711D01*
X133731344Y-92042712D01*
X133880666Y-92134814D01*
X133992016Y-92171712D01*
X134047202Y-92189999D01*
X134057702Y-92191071D01*
X134149991Y-92200500D01*
X134176067Y-92200499D01*
X134203659Y-92203607D01*
X134381463Y-92244191D01*
X134588528Y-92253490D01*
X134606328Y-92254290D01*
X134606328Y-92254289D01*
X134606330Y-92254290D01*
X134829387Y-92224075D01*
X134883268Y-92206567D01*
X134921586Y-92200499D01*
X134950009Y-92200499D01*
X135001402Y-92195249D01*
X135052797Y-92189999D01*
X135136495Y-92162264D01*
X135194363Y-92157413D01*
X135248093Y-92179440D01*
X135285903Y-92223514D01*
X135299500Y-92279970D01*
X135299500Y-92456063D01*
X135288877Y-92506278D01*
X135258830Y-92547890D01*
X135214505Y-92573768D01*
X135208846Y-92575643D01*
X135199662Y-92578687D01*
X135050344Y-92670788D01*
X134926288Y-92794844D01*
X134834186Y-92944163D01*
X134779000Y-93110702D01*
X134768500Y-93213492D01*
X134768500Y-94238508D01*
X134779000Y-94341297D01*
X134834186Y-94507836D01*
X134926288Y-94657155D01*
X135050344Y-94781211D01*
X135199663Y-94873313D01*
X135366202Y-94928499D01*
X135468992Y-94939000D01*
X135753163Y-94939000D01*
X135809458Y-94952515D01*
X135853481Y-94990115D01*
X135875636Y-95043602D01*
X135871094Y-95101318D01*
X135840844Y-95150681D01*
X135538649Y-95452876D01*
X135504189Y-95477193D01*
X135463571Y-95488553D01*
X135366202Y-95498500D01*
X135199663Y-95553686D01*
X135050344Y-95645788D01*
X134926288Y-95769844D01*
X134834186Y-95919163D01*
X134779000Y-96085702D01*
X134768500Y-96188492D01*
X134768500Y-97213508D01*
X134779000Y-97316297D01*
X134834186Y-97482836D01*
X134926288Y-97632155D01*
X135050345Y-97756212D01*
X135072637Y-97769962D01*
X135116341Y-97816016D01*
X135131521Y-97877664D01*
X135114198Y-97938745D01*
X135068914Y-97983246D01*
X135007540Y-97999500D01*
X131003052Y-97999500D01*
X130996967Y-97999351D01*
X130847629Y-97992014D01*
X130847224Y-97991993D01*
X130656354Y-97981990D01*
X130644649Y-97980818D01*
X130478867Y-97956226D01*
X130477665Y-97956041D01*
X130305130Y-97928715D01*
X130294398Y-97926526D01*
X130128792Y-97885044D01*
X130126827Y-97884535D01*
X129961128Y-97840135D01*
X129951447Y-97837111D01*
X129789472Y-97779155D01*
X129786810Y-97778168D01*
X129627925Y-97717179D01*
X129619351Y-97713512D01*
X129463176Y-97639647D01*
X129459898Y-97638037D01*
X129308904Y-97561101D01*
X129301451Y-97556975D01*
X129152942Y-97467963D01*
X129149155Y-97465599D01*
X129101996Y-97434973D01*
X129007343Y-97373505D01*
X129001021Y-97369114D01*
X128861788Y-97265851D01*
X128857619Y-97262620D01*
X128726363Y-97156331D01*
X128721126Y-97151843D01*
X128592609Y-97035362D01*
X128588201Y-97031165D01*
X128468833Y-96911797D01*
X128464636Y-96907389D01*
X128348155Y-96778872D01*
X128343667Y-96773635D01*
X128237378Y-96642379D01*
X128234147Y-96638210D01*
X128130884Y-96498977D01*
X128126503Y-96492670D01*
X128034387Y-96350824D01*
X128032035Y-96347056D01*
X127943023Y-96198547D01*
X127938897Y-96191094D01*
X127933251Y-96180013D01*
X127861939Y-96040055D01*
X127860374Y-96036869D01*
X127786475Y-95880623D01*
X127782829Y-95872097D01*
X127721830Y-95713188D01*
X127720843Y-95710526D01*
X127674000Y-95579610D01*
X127662884Y-95548544D01*
X127659863Y-95538870D01*
X127649046Y-95498500D01*
X127615422Y-95373014D01*
X127614997Y-95371374D01*
X127573465Y-95205570D01*
X127571289Y-95194897D01*
X127543940Y-95022225D01*
X127543791Y-95021254D01*
X127519177Y-94855324D01*
X127518010Y-94843670D01*
X127507985Y-94652369D01*
X127503829Y-94567764D01*
X129145787Y-94567764D01*
X129175413Y-94837016D01*
X129205609Y-94952515D01*
X129243928Y-95099088D01*
X129289191Y-95205600D01*
X129349871Y-95348392D01*
X129490982Y-95579611D01*
X129602146Y-95713188D01*
X129664255Y-95787820D01*
X129865998Y-95968582D01*
X130091910Y-96118044D01*
X130159338Y-96149653D01*
X130337177Y-96233021D01*
X130596562Y-96311058D01*
X130596569Y-96311060D01*
X130864561Y-96350500D01*
X131067631Y-96350500D01*
X131067634Y-96350500D01*
X131270156Y-96335677D01*
X131270155Y-96335677D01*
X131534553Y-96276780D01*
X131787558Y-96180014D01*
X132023777Y-96047441D01*
X132238177Y-95881888D01*
X132426186Y-95686881D01*
X132583799Y-95466579D01*
X132707656Y-95225675D01*
X132795118Y-94969305D01*
X132844319Y-94702933D01*
X132854212Y-94432235D01*
X132824586Y-94162982D01*
X132756072Y-93900912D01*
X132650130Y-93651610D01*
X132509018Y-93420390D01*
X132509017Y-93420388D01*
X132335746Y-93212181D01*
X132230758Y-93118112D01*
X132134002Y-93031418D01*
X131908090Y-92881956D01*
X131857875Y-92858416D01*
X131662822Y-92766978D01*
X131403437Y-92688941D01*
X131403431Y-92688940D01*
X131135439Y-92649500D01*
X130932369Y-92649500D01*
X130932366Y-92649500D01*
X130729843Y-92664322D01*
X130465449Y-92723219D01*
X130212441Y-92819986D01*
X129976223Y-92952559D01*
X129761825Y-93118109D01*
X129573813Y-93313120D01*
X129416201Y-93533420D01*
X129292342Y-93774329D01*
X129204881Y-94030695D01*
X129155680Y-94297066D01*
X129145787Y-94567764D01*
X127503829Y-94567764D01*
X127500649Y-94503032D01*
X127500500Y-94496949D01*
X127500500Y-85570000D01*
X128209364Y-85570000D01*
X128266569Y-85783492D01*
X128366399Y-85997576D01*
X128501893Y-86191081D01*
X128668918Y-86358106D01*
X128862423Y-86493600D01*
X129076507Y-86593430D01*
X129289999Y-86650635D01*
X129290000Y-86650636D01*
X129290000Y-85570000D01*
X128209364Y-85570000D01*
X127500500Y-85570000D01*
X127500500Y-83030000D01*
X128209364Y-83030000D01*
X128266569Y-83243492D01*
X128366399Y-83457576D01*
X128501893Y-83651081D01*
X128668918Y-83818106D01*
X128855031Y-83948425D01*
X128893896Y-83992743D01*
X128907907Y-84050000D01*
X128893896Y-84107257D01*
X128855031Y-84151575D01*
X128668918Y-84281893D01*
X128501890Y-84448921D01*
X128366400Y-84642421D01*
X128266569Y-84856507D01*
X128209364Y-85069999D01*
X128209364Y-85070000D01*
X129290000Y-85070000D01*
X129290000Y-83030000D01*
X128209364Y-83030000D01*
X127500500Y-83030000D01*
X127500500Y-73624000D01*
X133674001Y-73624000D01*
X133674001Y-73773979D01*
X133684493Y-73876695D01*
X133739642Y-74043122D01*
X133831683Y-74192345D01*
X133955654Y-74316316D01*
X134104877Y-74408357D01*
X134271303Y-74463506D01*
X134374021Y-74474000D01*
X134624000Y-74474000D01*
X134624000Y-73624000D01*
X133674001Y-73624000D01*
X127500500Y-73624000D01*
X127500500Y-71774008D01*
X133673500Y-71774008D01*
X133684000Y-71876796D01*
X133739186Y-72043334D01*
X133831288Y-72192657D01*
X133925303Y-72286672D01*
X133957397Y-72342259D01*
X133957397Y-72406446D01*
X133925304Y-72462034D01*
X133831681Y-72555656D01*
X133739642Y-72704877D01*
X133684493Y-72871303D01*
X133674000Y-72974021D01*
X133674000Y-73124000D01*
X135000000Y-73124000D01*
X135062000Y-73140613D01*
X135107387Y-73186000D01*
X135124000Y-73248000D01*
X135124000Y-74473999D01*
X135373979Y-74473999D01*
X135476695Y-74463506D01*
X135643122Y-74408357D01*
X135804681Y-74308708D01*
X135805249Y-74309630D01*
X135835547Y-74290634D01*
X135890655Y-74284596D01*
X135942888Y-74303176D01*
X135981803Y-74342660D01*
X136013683Y-74394345D01*
X136137654Y-74518316D01*
X136286877Y-74610357D01*
X136453303Y-74665506D01*
X136556021Y-74676000D01*
X136656000Y-74676000D01*
X136656000Y-72126000D01*
X137156000Y-72126000D01*
X137156000Y-74675999D01*
X137255979Y-74675999D01*
X137358695Y-74665506D01*
X137525122Y-74610357D01*
X137674345Y-74518316D01*
X137798316Y-74394345D01*
X137890357Y-74245122D01*
X137945506Y-74078696D01*
X137956000Y-73975979D01*
X137956000Y-72126000D01*
X137156000Y-72126000D01*
X136656000Y-72126000D01*
X136656000Y-69076001D01*
X136556021Y-69076001D01*
X136453304Y-69086493D01*
X136286877Y-69141642D01*
X136137654Y-69233683D01*
X136013683Y-69357654D01*
X135921642Y-69506877D01*
X135866493Y-69673303D01*
X135856000Y-69776021D01*
X135856000Y-70248185D01*
X135838934Y-70310964D01*
X135792432Y-70356462D01*
X135729296Y-70372156D01*
X135666904Y-70353724D01*
X135643334Y-70339186D01*
X135643333Y-70339185D01*
X135634495Y-70336257D01*
X135590171Y-70310380D01*
X135560123Y-70268768D01*
X135549500Y-70218552D01*
X135549500Y-69076000D01*
X137156000Y-69076000D01*
X137156000Y-71626000D01*
X137955999Y-71626000D01*
X137955999Y-69776021D01*
X137945506Y-69673304D01*
X137890357Y-69506877D01*
X137798316Y-69357654D01*
X137674345Y-69233683D01*
X137525122Y-69141642D01*
X137358696Y-69086493D01*
X137255979Y-69076000D01*
X137156000Y-69076000D01*
X135549500Y-69076000D01*
X135549500Y-68205163D01*
X135558939Y-68157710D01*
X135585819Y-68117482D01*
X136046482Y-67656818D01*
X136086710Y-67629938D01*
X136134163Y-67620499D01*
X137375870Y-67620499D01*
X137375872Y-67620499D01*
X137435483Y-67614091D01*
X137570331Y-67563796D01*
X137570332Y-67563795D01*
X137587036Y-67557565D01*
X137587641Y-67559187D01*
X137615305Y-67547336D01*
X137673633Y-67551501D01*
X137723566Y-67581935D01*
X137849342Y-67707711D01*
X137849344Y-67707712D01*
X137998666Y-67799814D01*
X138098549Y-67832912D01*
X138165202Y-67854999D01*
X138175703Y-67856071D01*
X138267991Y-67865500D01*
X139526836Y-67865499D01*
X139574289Y-67874938D01*
X139614517Y-67901818D01*
X139913271Y-68200572D01*
X139918406Y-68206027D01*
X139956770Y-68249332D01*
X140004389Y-68282200D01*
X140010422Y-68286639D01*
X140055972Y-68322326D01*
X140064523Y-68326174D01*
X140084059Y-68337193D01*
X140091774Y-68342518D01*
X140145883Y-68363039D01*
X140152798Y-68365903D01*
X140205561Y-68389650D01*
X140214768Y-68391337D01*
X140236388Y-68397364D01*
X140245151Y-68400687D01*
X140245153Y-68400687D01*
X140245155Y-68400688D01*
X140302617Y-68407665D01*
X140309982Y-68408785D01*
X140366915Y-68419219D01*
X140424664Y-68415726D01*
X140432151Y-68415500D01*
X141068837Y-68415500D01*
X141116290Y-68424939D01*
X141156518Y-68451819D01*
X141584458Y-68879759D01*
X141616072Y-68933608D01*
X141617435Y-68996036D01*
X141588200Y-69051213D01*
X141535782Y-69085146D01*
X141443773Y-69115635D01*
X141366666Y-69141186D01*
X141366664Y-69141186D01*
X141366664Y-69141187D01*
X141217342Y-69233288D01*
X141093288Y-69357342D01*
X141001186Y-69506665D01*
X140946000Y-69673202D01*
X140935500Y-69775990D01*
X140935500Y-73976008D01*
X140946000Y-74078796D01*
X141001186Y-74245334D01*
X141093288Y-74394657D01*
X141217342Y-74518711D01*
X141217344Y-74518712D01*
X141366666Y-74610814D01*
X141478017Y-74647712D01*
X141533202Y-74665999D01*
X141542729Y-74666972D01*
X141635991Y-74676500D01*
X142336008Y-74676499D01*
X142438797Y-74665999D01*
X142605334Y-74610814D01*
X142754656Y-74518712D01*
X142878712Y-74394656D01*
X142910289Y-74343460D01*
X142949201Y-74303978D01*
X143001430Y-74285397D01*
X143056538Y-74291431D01*
X143086371Y-74310133D01*
X143087007Y-74309103D01*
X143176677Y-74364411D01*
X143248666Y-74408814D01*
X143360016Y-74445712D01*
X143415202Y-74463999D01*
X143425703Y-74465071D01*
X143517991Y-74474500D01*
X144518008Y-74474499D01*
X144620797Y-74463999D01*
X144787334Y-74408814D01*
X144936656Y-74316712D01*
X145060712Y-74192656D01*
X145152814Y-74043334D01*
X145207999Y-73876797D01*
X145218500Y-73774009D01*
X145218499Y-72973992D01*
X145207999Y-72871203D01*
X145152814Y-72704666D01*
X145106762Y-72630004D01*
X145060713Y-72555345D01*
X145060712Y-72555344D01*
X144967047Y-72461679D01*
X144934955Y-72406094D01*
X144934955Y-72341906D01*
X144967047Y-72286320D01*
X145060712Y-72192656D01*
X145152814Y-72043334D01*
X145207999Y-71876797D01*
X145218500Y-71774009D01*
X145218499Y-70973992D01*
X145207999Y-70871203D01*
X145152814Y-70704666D01*
X145060712Y-70555344D01*
X145060711Y-70555342D01*
X144936657Y-70431288D01*
X144787333Y-70339185D01*
X144766969Y-70332437D01*
X144710012Y-70293261D01*
X144682880Y-70229679D01*
X144681529Y-70218552D01*
X144678688Y-70195155D01*
X144678687Y-70195153D01*
X144678687Y-70195151D01*
X144675364Y-70186388D01*
X144669337Y-70164768D01*
X144667650Y-70155561D01*
X144643903Y-70102798D01*
X144641039Y-70095883D01*
X144620518Y-70041774D01*
X144615193Y-70034059D01*
X144604174Y-70014523D01*
X144600326Y-70005972D01*
X144564639Y-69960422D01*
X144560200Y-69954389D01*
X144527332Y-69906770D01*
X144484027Y-69868406D01*
X144478572Y-69863271D01*
X142346581Y-67731280D01*
X142313833Y-67673143D01*
X142315957Y-67606451D01*
X142352338Y-67550516D01*
X142470657Y-67446381D01*
X142617160Y-67264942D01*
X142730896Y-67061344D01*
X142808588Y-66841455D01*
X142848000Y-66611606D01*
X142848000Y-66520000D01*
X141352000Y-66520000D01*
X141290000Y-66503387D01*
X141244613Y-66458000D01*
X141228000Y-66396000D01*
X141228000Y-64697424D01*
X141075378Y-64730317D01*
X140858994Y-64817267D01*
X140660405Y-64939543D01*
X140485343Y-65093617D01*
X140453273Y-65133334D01*
X140400000Y-65171664D01*
X140334626Y-65177435D01*
X140275462Y-65149030D01*
X140253522Y-65116088D01*
X140250422Y-65118001D01*
X140150711Y-64956342D01*
X140026657Y-64832288D01*
X139877334Y-64740186D01*
X139743470Y-64695827D01*
X141728000Y-64695827D01*
X141728000Y-66020000D01*
X142848000Y-66020000D01*
X142848000Y-65986802D01*
X142833176Y-65812635D01*
X142774410Y-65586945D01*
X142678353Y-65374442D01*
X142547763Y-65181227D01*
X142386396Y-65012860D01*
X142198898Y-64874187D01*
X142126657Y-64837764D01*
X145645787Y-64837764D01*
X145675413Y-65107016D01*
X145709998Y-65239304D01*
X145743928Y-65369088D01*
X145746437Y-65374992D01*
X145849871Y-65618392D01*
X145990982Y-65849611D01*
X146132781Y-66020000D01*
X146164255Y-66057820D01*
X146365998Y-66238582D01*
X146591910Y-66388044D01*
X146608882Y-66396000D01*
X146837177Y-66503021D01*
X147096562Y-66581058D01*
X147096569Y-66581060D01*
X147364561Y-66620500D01*
X147567631Y-66620500D01*
X147567634Y-66620500D01*
X147770156Y-66605677D01*
X147770155Y-66605677D01*
X148034553Y-66546780D01*
X148287558Y-66450014D01*
X148523777Y-66317441D01*
X148738177Y-66151888D01*
X148926186Y-65956881D01*
X149083799Y-65736579D01*
X149207656Y-65495675D01*
X149295118Y-65239305D01*
X149344319Y-64972933D01*
X149354212Y-64702235D01*
X149324586Y-64432982D01*
X149256072Y-64170912D01*
X149150130Y-63921610D01*
X149009018Y-63690390D01*
X149009017Y-63690388D01*
X148835746Y-63482181D01*
X148741710Y-63397925D01*
X148634002Y-63301418D01*
X148408090Y-63151956D01*
X148408086Y-63151954D01*
X148162822Y-63036978D01*
X147903437Y-62958941D01*
X147903431Y-62958940D01*
X147635439Y-62919500D01*
X147432369Y-62919500D01*
X147432366Y-62919500D01*
X147229843Y-62934322D01*
X146965449Y-62993219D01*
X146712441Y-63089986D01*
X146476223Y-63222559D01*
X146261825Y-63388109D01*
X146073813Y-63583120D01*
X145916201Y-63803420D01*
X145792342Y-64044329D01*
X145704881Y-64300695D01*
X145655680Y-64567066D01*
X145645787Y-64837764D01*
X142126657Y-64837764D01*
X141990660Y-64769196D01*
X141767673Y-64700907D01*
X141728000Y-64695827D01*
X139743470Y-64695827D01*
X139710797Y-64685000D01*
X139608009Y-64674500D01*
X138267991Y-64674500D01*
X138165203Y-64685000D01*
X137998665Y-64740186D01*
X137849344Y-64832287D01*
X137723567Y-64958064D01*
X137673646Y-64988493D01*
X137615332Y-64992667D01*
X137587640Y-64980811D01*
X137587035Y-64982435D01*
X137570332Y-64976205D01*
X137570331Y-64976204D01*
X137435483Y-64925909D01*
X137375873Y-64919500D01*
X137375869Y-64919500D01*
X135580130Y-64919500D01*
X135520515Y-64925909D01*
X135385669Y-64976204D01*
X135270454Y-65062454D01*
X135184204Y-65177668D01*
X135133909Y-65312516D01*
X135127500Y-65372131D01*
X135127500Y-66613836D01*
X135118061Y-66661289D01*
X135091181Y-66701517D01*
X134413424Y-67379273D01*
X134407972Y-67384406D01*
X134364668Y-67422770D01*
X134331800Y-67470387D01*
X134327363Y-67476417D01*
X134291673Y-67521973D01*
X134287824Y-67530524D01*
X134276807Y-67550058D01*
X134271481Y-67557775D01*
X134250965Y-67611868D01*
X134248102Y-67618782D01*
X134224349Y-67671562D01*
X134222661Y-67680776D01*
X134216638Y-67702383D01*
X134213310Y-67711157D01*
X134206333Y-67768612D01*
X134205207Y-67776011D01*
X134194780Y-67832912D01*
X134198274Y-67890664D01*
X134198500Y-67898151D01*
X134198500Y-70218552D01*
X134187877Y-70268768D01*
X134157829Y-70310380D01*
X134113504Y-70336257D01*
X134109039Y-70337736D01*
X134104665Y-70339186D01*
X133955342Y-70431288D01*
X133831288Y-70555342D01*
X133739186Y-70704665D01*
X133684000Y-70871202D01*
X133673500Y-70973990D01*
X133673500Y-71774008D01*
X127500500Y-71774008D01*
X127500500Y-64773051D01*
X127500649Y-64766967D01*
X127507998Y-64617372D01*
X127518010Y-64426327D01*
X127519176Y-64414679D01*
X127543801Y-64248671D01*
X127543929Y-64247842D01*
X127571290Y-64075093D01*
X127573463Y-64064438D01*
X127615016Y-63898551D01*
X127615406Y-63897043D01*
X127659870Y-63731105D01*
X127662880Y-63721469D01*
X127720867Y-63559405D01*
X127721830Y-63556810D01*
X127782836Y-63397883D01*
X127786466Y-63389395D01*
X127860400Y-63233076D01*
X127861912Y-63229997D01*
X127938909Y-63078881D01*
X127943010Y-63071474D01*
X128032078Y-62922873D01*
X128034354Y-62919225D01*
X128126523Y-62777298D01*
X128130860Y-62771055D01*
X128234170Y-62631757D01*
X128237331Y-62627679D01*
X128343698Y-62496325D01*
X128348123Y-62491162D01*
X128464674Y-62362568D01*
X128468793Y-62358242D01*
X128588242Y-62238793D01*
X128592568Y-62234674D01*
X128721162Y-62118123D01*
X128726325Y-62113698D01*
X128857679Y-62007331D01*
X128861757Y-62004170D01*
X129001055Y-61900860D01*
X129007298Y-61896523D01*
X129149225Y-61804354D01*
X129152873Y-61802078D01*
X129301474Y-61713010D01*
X129308881Y-61708909D01*
X129459997Y-61631912D01*
X129463076Y-61630400D01*
X129619395Y-61556466D01*
X129627883Y-61552836D01*
X129786847Y-61491816D01*
X129789405Y-61490867D01*
X129951469Y-61432880D01*
X129961105Y-61429870D01*
X130127043Y-61385406D01*
X130128551Y-61385016D01*
X130294438Y-61343463D01*
X130305093Y-61341290D01*
X130477842Y-61313929D01*
X130478671Y-61313801D01*
X130644679Y-61289176D01*
X130656325Y-61288010D01*
X130847402Y-61277996D01*
X130993747Y-61270807D01*
X130996968Y-61270649D01*
X131003051Y-61270500D01*
X147496949Y-61270500D01*
X147503032Y-61270649D01*
G37*
G04 #@! TD.AperFunction*
M02*
