%TF.GenerationSoftware,KiCad,Pcbnew,7.0.1*%
%TF.CreationDate,2023-12-05T18:06:43-06:00*%
%TF.ProjectId,Pico Breakout Board V3,5069636f-2042-4726-9561-6b6f75742042,rev?*%
%TF.SameCoordinates,Original*%
%TF.FileFunction,Drillmap*%
%TF.FilePolarity,Positive*%
%FSLAX45Y45*%
G04 Gerber Fmt 4.5, Leading zero omitted, Abs format (unit mm)*
G04 Created by KiCad (PCBNEW 7.0.1) date 2023-12-05 18:06:43*
%MOMM*%
%LPD*%
G01*
G04 APERTURE LIST*
%ADD10C,0.100000*%
%ADD11C,0.200000*%
%ADD12C,0.325000*%
G04 APERTURE END LIST*
D10*
X10050000Y-3575000D02*
G75*
G03*
X9750000Y-3875000I0J-300000D01*
G01*
X17100000Y-3875000D02*
G75*
G03*
X16800000Y-3575000I-300000J0D01*
G01*
X9750000Y-11050000D02*
G75*
G03*
X10050000Y-11350000I300000J0D01*
G01*
X16800000Y-11350000D02*
G75*
G03*
X17100000Y-11050000I0J300000D01*
G01*
X9750000Y-3875000D02*
X9750000Y-11050000D01*
X16800000Y-3575000D02*
X10050000Y-3575000D01*
X16800000Y-11350000D02*
X10050000Y-11350000D01*
X17100000Y-3875000D02*
X17100000Y-11050000D01*
D11*
D12*
X10167500Y-4487500D02*
X10492500Y-4812500D01*
X10492500Y-4487500D02*
X10167500Y-4812500D01*
X11437500Y-4487500D02*
X11762500Y-4812500D01*
X11762500Y-4487500D02*
X11437500Y-4812500D01*
D11*
X9992619Y-11667524D02*
X9992619Y-11467524D01*
X9992619Y-11467524D02*
X10040238Y-11467524D01*
X10040238Y-11467524D02*
X10068810Y-11477048D01*
X10068810Y-11477048D02*
X10087857Y-11496095D01*
X10087857Y-11496095D02*
X10097381Y-11515143D01*
X10097381Y-11515143D02*
X10106905Y-11553238D01*
X10106905Y-11553238D02*
X10106905Y-11581809D01*
X10106905Y-11581809D02*
X10097381Y-11619905D01*
X10097381Y-11619905D02*
X10087857Y-11638952D01*
X10087857Y-11638952D02*
X10068810Y-11658000D01*
X10068810Y-11658000D02*
X10040238Y-11667524D01*
X10040238Y-11667524D02*
X9992619Y-11667524D01*
X10192619Y-11667524D02*
X10192619Y-11534190D01*
X10192619Y-11572286D02*
X10202143Y-11553238D01*
X10202143Y-11553238D02*
X10211667Y-11543714D01*
X10211667Y-11543714D02*
X10230714Y-11534190D01*
X10230714Y-11534190D02*
X10249762Y-11534190D01*
X10316429Y-11667524D02*
X10316429Y-11534190D01*
X10316429Y-11467524D02*
X10306905Y-11477048D01*
X10306905Y-11477048D02*
X10316429Y-11486571D01*
X10316429Y-11486571D02*
X10325952Y-11477048D01*
X10325952Y-11477048D02*
X10316429Y-11467524D01*
X10316429Y-11467524D02*
X10316429Y-11486571D01*
X10440238Y-11667524D02*
X10421190Y-11658000D01*
X10421190Y-11658000D02*
X10411667Y-11638952D01*
X10411667Y-11638952D02*
X10411667Y-11467524D01*
X10545000Y-11667524D02*
X10525952Y-11658000D01*
X10525952Y-11658000D02*
X10516429Y-11638952D01*
X10516429Y-11638952D02*
X10516429Y-11467524D01*
X10773571Y-11667524D02*
X10773571Y-11467524D01*
X10773571Y-11467524D02*
X10840238Y-11610381D01*
X10840238Y-11610381D02*
X10906905Y-11467524D01*
X10906905Y-11467524D02*
X10906905Y-11667524D01*
X11087857Y-11667524D02*
X11087857Y-11562762D01*
X11087857Y-11562762D02*
X11078333Y-11543714D01*
X11078333Y-11543714D02*
X11059286Y-11534190D01*
X11059286Y-11534190D02*
X11021190Y-11534190D01*
X11021190Y-11534190D02*
X11002143Y-11543714D01*
X11087857Y-11658000D02*
X11068810Y-11667524D01*
X11068810Y-11667524D02*
X11021190Y-11667524D01*
X11021190Y-11667524D02*
X11002143Y-11658000D01*
X11002143Y-11658000D02*
X10992619Y-11638952D01*
X10992619Y-11638952D02*
X10992619Y-11619905D01*
X10992619Y-11619905D02*
X11002143Y-11600857D01*
X11002143Y-11600857D02*
X11021190Y-11591333D01*
X11021190Y-11591333D02*
X11068810Y-11591333D01*
X11068810Y-11591333D02*
X11087857Y-11581809D01*
X11183095Y-11534190D02*
X11183095Y-11734190D01*
X11183095Y-11543714D02*
X11202143Y-11534190D01*
X11202143Y-11534190D02*
X11240238Y-11534190D01*
X11240238Y-11534190D02*
X11259286Y-11543714D01*
X11259286Y-11543714D02*
X11268809Y-11553238D01*
X11268809Y-11553238D02*
X11278333Y-11572286D01*
X11278333Y-11572286D02*
X11278333Y-11629428D01*
X11278333Y-11629428D02*
X11268809Y-11648476D01*
X11268809Y-11648476D02*
X11259286Y-11658000D01*
X11259286Y-11658000D02*
X11240238Y-11667524D01*
X11240238Y-11667524D02*
X11202143Y-11667524D01*
X11202143Y-11667524D02*
X11183095Y-11658000D01*
X11364048Y-11648476D02*
X11373571Y-11658000D01*
X11373571Y-11658000D02*
X11364048Y-11667524D01*
X11364048Y-11667524D02*
X11354524Y-11658000D01*
X11354524Y-11658000D02*
X11364048Y-11648476D01*
X11364048Y-11648476D02*
X11364048Y-11667524D01*
X11364048Y-11543714D02*
X11373571Y-11553238D01*
X11373571Y-11553238D02*
X11364048Y-11562762D01*
X11364048Y-11562762D02*
X11354524Y-11553238D01*
X11354524Y-11553238D02*
X11364048Y-11543714D01*
X11364048Y-11543714D02*
X11364048Y-11562762D01*
X9545000Y-11895000D02*
X9745000Y-12095000D01*
X9745000Y-11895000D02*
X9545000Y-12095000D01*
X9973571Y-11887524D02*
X10097381Y-11887524D01*
X10097381Y-11887524D02*
X10030714Y-11963714D01*
X10030714Y-11963714D02*
X10059286Y-11963714D01*
X10059286Y-11963714D02*
X10078333Y-11973238D01*
X10078333Y-11973238D02*
X10087857Y-11982762D01*
X10087857Y-11982762D02*
X10097381Y-12001809D01*
X10097381Y-12001809D02*
X10097381Y-12049428D01*
X10097381Y-12049428D02*
X10087857Y-12068476D01*
X10087857Y-12068476D02*
X10078333Y-12078000D01*
X10078333Y-12078000D02*
X10059286Y-12087524D01*
X10059286Y-12087524D02*
X10002143Y-12087524D01*
X10002143Y-12087524D02*
X9983095Y-12078000D01*
X9983095Y-12078000D02*
X9973571Y-12068476D01*
X10183095Y-12068476D02*
X10192619Y-12078000D01*
X10192619Y-12078000D02*
X10183095Y-12087524D01*
X10183095Y-12087524D02*
X10173571Y-12078000D01*
X10173571Y-12078000D02*
X10183095Y-12068476D01*
X10183095Y-12068476D02*
X10183095Y-12087524D01*
X10268810Y-11906571D02*
X10278333Y-11897048D01*
X10278333Y-11897048D02*
X10297381Y-11887524D01*
X10297381Y-11887524D02*
X10345000Y-11887524D01*
X10345000Y-11887524D02*
X10364048Y-11897048D01*
X10364048Y-11897048D02*
X10373571Y-11906571D01*
X10373571Y-11906571D02*
X10383095Y-11925619D01*
X10383095Y-11925619D02*
X10383095Y-11944667D01*
X10383095Y-11944667D02*
X10373571Y-11973238D01*
X10373571Y-11973238D02*
X10259286Y-12087524D01*
X10259286Y-12087524D02*
X10383095Y-12087524D01*
X10564048Y-11887524D02*
X10468810Y-11887524D01*
X10468810Y-11887524D02*
X10459286Y-11982762D01*
X10459286Y-11982762D02*
X10468810Y-11973238D01*
X10468810Y-11973238D02*
X10487857Y-11963714D01*
X10487857Y-11963714D02*
X10535476Y-11963714D01*
X10535476Y-11963714D02*
X10554524Y-11973238D01*
X10554524Y-11973238D02*
X10564048Y-11982762D01*
X10564048Y-11982762D02*
X10573571Y-12001809D01*
X10573571Y-12001809D02*
X10573571Y-12049428D01*
X10573571Y-12049428D02*
X10564048Y-12068476D01*
X10564048Y-12068476D02*
X10554524Y-12078000D01*
X10554524Y-12078000D02*
X10535476Y-12087524D01*
X10535476Y-12087524D02*
X10487857Y-12087524D01*
X10487857Y-12087524D02*
X10468810Y-12078000D01*
X10468810Y-12078000D02*
X10459286Y-12068476D01*
X10697381Y-11887524D02*
X10716429Y-11887524D01*
X10716429Y-11887524D02*
X10735476Y-11897048D01*
X10735476Y-11897048D02*
X10745000Y-11906571D01*
X10745000Y-11906571D02*
X10754524Y-11925619D01*
X10754524Y-11925619D02*
X10764048Y-11963714D01*
X10764048Y-11963714D02*
X10764048Y-12011333D01*
X10764048Y-12011333D02*
X10754524Y-12049428D01*
X10754524Y-12049428D02*
X10745000Y-12068476D01*
X10745000Y-12068476D02*
X10735476Y-12078000D01*
X10735476Y-12078000D02*
X10716429Y-12087524D01*
X10716429Y-12087524D02*
X10697381Y-12087524D01*
X10697381Y-12087524D02*
X10678333Y-12078000D01*
X10678333Y-12078000D02*
X10668810Y-12068476D01*
X10668810Y-12068476D02*
X10659286Y-12049428D01*
X10659286Y-12049428D02*
X10649762Y-12011333D01*
X10649762Y-12011333D02*
X10649762Y-11963714D01*
X10649762Y-11963714D02*
X10659286Y-11925619D01*
X10659286Y-11925619D02*
X10668810Y-11906571D01*
X10668810Y-11906571D02*
X10678333Y-11897048D01*
X10678333Y-11897048D02*
X10697381Y-11887524D01*
X10849762Y-12087524D02*
X10849762Y-11954190D01*
X10849762Y-11973238D02*
X10859286Y-11963714D01*
X10859286Y-11963714D02*
X10878333Y-11954190D01*
X10878333Y-11954190D02*
X10906905Y-11954190D01*
X10906905Y-11954190D02*
X10925952Y-11963714D01*
X10925952Y-11963714D02*
X10935476Y-11982762D01*
X10935476Y-11982762D02*
X10935476Y-12087524D01*
X10935476Y-11982762D02*
X10945000Y-11963714D01*
X10945000Y-11963714D02*
X10964048Y-11954190D01*
X10964048Y-11954190D02*
X10992619Y-11954190D01*
X10992619Y-11954190D02*
X11011667Y-11963714D01*
X11011667Y-11963714D02*
X11021191Y-11982762D01*
X11021191Y-11982762D02*
X11021191Y-12087524D01*
X11116429Y-12087524D02*
X11116429Y-11954190D01*
X11116429Y-11973238D02*
X11125952Y-11963714D01*
X11125952Y-11963714D02*
X11145000Y-11954190D01*
X11145000Y-11954190D02*
X11173572Y-11954190D01*
X11173572Y-11954190D02*
X11192619Y-11963714D01*
X11192619Y-11963714D02*
X11202143Y-11982762D01*
X11202143Y-11982762D02*
X11202143Y-12087524D01*
X11202143Y-11982762D02*
X11211667Y-11963714D01*
X11211667Y-11963714D02*
X11230714Y-11954190D01*
X11230714Y-11954190D02*
X11259286Y-11954190D01*
X11259286Y-11954190D02*
X11278333Y-11963714D01*
X11278333Y-11963714D02*
X11287857Y-11982762D01*
X11287857Y-11982762D02*
X11287857Y-12087524D01*
X11678333Y-11878000D02*
X11506905Y-12135143D01*
X11935476Y-11887524D02*
X11954524Y-11887524D01*
X11954524Y-11887524D02*
X11973572Y-11897048D01*
X11973572Y-11897048D02*
X11983095Y-11906571D01*
X11983095Y-11906571D02*
X11992619Y-11925619D01*
X11992619Y-11925619D02*
X12002143Y-11963714D01*
X12002143Y-11963714D02*
X12002143Y-12011333D01*
X12002143Y-12011333D02*
X11992619Y-12049428D01*
X11992619Y-12049428D02*
X11983095Y-12068476D01*
X11983095Y-12068476D02*
X11973572Y-12078000D01*
X11973572Y-12078000D02*
X11954524Y-12087524D01*
X11954524Y-12087524D02*
X11935476Y-12087524D01*
X11935476Y-12087524D02*
X11916429Y-12078000D01*
X11916429Y-12078000D02*
X11906905Y-12068476D01*
X11906905Y-12068476D02*
X11897381Y-12049428D01*
X11897381Y-12049428D02*
X11887857Y-12011333D01*
X11887857Y-12011333D02*
X11887857Y-11963714D01*
X11887857Y-11963714D02*
X11897381Y-11925619D01*
X11897381Y-11925619D02*
X11906905Y-11906571D01*
X11906905Y-11906571D02*
X11916429Y-11897048D01*
X11916429Y-11897048D02*
X11935476Y-11887524D01*
X12087857Y-12068476D02*
X12097381Y-12078000D01*
X12097381Y-12078000D02*
X12087857Y-12087524D01*
X12087857Y-12087524D02*
X12078333Y-12078000D01*
X12078333Y-12078000D02*
X12087857Y-12068476D01*
X12087857Y-12068476D02*
X12087857Y-12087524D01*
X12287857Y-12087524D02*
X12173572Y-12087524D01*
X12230714Y-12087524D02*
X12230714Y-11887524D01*
X12230714Y-11887524D02*
X12211667Y-11916095D01*
X12211667Y-11916095D02*
X12192619Y-11935143D01*
X12192619Y-11935143D02*
X12173572Y-11944667D01*
X12364048Y-11906571D02*
X12373572Y-11897048D01*
X12373572Y-11897048D02*
X12392619Y-11887524D01*
X12392619Y-11887524D02*
X12440238Y-11887524D01*
X12440238Y-11887524D02*
X12459286Y-11897048D01*
X12459286Y-11897048D02*
X12468810Y-11906571D01*
X12468810Y-11906571D02*
X12478333Y-11925619D01*
X12478333Y-11925619D02*
X12478333Y-11944667D01*
X12478333Y-11944667D02*
X12468810Y-11973238D01*
X12468810Y-11973238D02*
X12354524Y-12087524D01*
X12354524Y-12087524D02*
X12478333Y-12087524D01*
X12592619Y-11973238D02*
X12573572Y-11963714D01*
X12573572Y-11963714D02*
X12564048Y-11954190D01*
X12564048Y-11954190D02*
X12554524Y-11935143D01*
X12554524Y-11935143D02*
X12554524Y-11925619D01*
X12554524Y-11925619D02*
X12564048Y-11906571D01*
X12564048Y-11906571D02*
X12573572Y-11897048D01*
X12573572Y-11897048D02*
X12592619Y-11887524D01*
X12592619Y-11887524D02*
X12630714Y-11887524D01*
X12630714Y-11887524D02*
X12649762Y-11897048D01*
X12649762Y-11897048D02*
X12659286Y-11906571D01*
X12659286Y-11906571D02*
X12668810Y-11925619D01*
X12668810Y-11925619D02*
X12668810Y-11935143D01*
X12668810Y-11935143D02*
X12659286Y-11954190D01*
X12659286Y-11954190D02*
X12649762Y-11963714D01*
X12649762Y-11963714D02*
X12630714Y-11973238D01*
X12630714Y-11973238D02*
X12592619Y-11973238D01*
X12592619Y-11973238D02*
X12573572Y-11982762D01*
X12573572Y-11982762D02*
X12564048Y-11992286D01*
X12564048Y-11992286D02*
X12554524Y-12011333D01*
X12554524Y-12011333D02*
X12554524Y-12049428D01*
X12554524Y-12049428D02*
X12564048Y-12068476D01*
X12564048Y-12068476D02*
X12573572Y-12078000D01*
X12573572Y-12078000D02*
X12592619Y-12087524D01*
X12592619Y-12087524D02*
X12630714Y-12087524D01*
X12630714Y-12087524D02*
X12649762Y-12078000D01*
X12649762Y-12078000D02*
X12659286Y-12068476D01*
X12659286Y-12068476D02*
X12668810Y-12049428D01*
X12668810Y-12049428D02*
X12668810Y-12011333D01*
X12668810Y-12011333D02*
X12659286Y-11992286D01*
X12659286Y-11992286D02*
X12649762Y-11982762D01*
X12649762Y-11982762D02*
X12630714Y-11973238D01*
X12792619Y-11887524D02*
X12811667Y-11887524D01*
X12811667Y-11887524D02*
X12830714Y-11897048D01*
X12830714Y-11897048D02*
X12840238Y-11906571D01*
X12840238Y-11906571D02*
X12849762Y-11925619D01*
X12849762Y-11925619D02*
X12859286Y-11963714D01*
X12859286Y-11963714D02*
X12859286Y-12011333D01*
X12859286Y-12011333D02*
X12849762Y-12049428D01*
X12849762Y-12049428D02*
X12840238Y-12068476D01*
X12840238Y-12068476D02*
X12830714Y-12078000D01*
X12830714Y-12078000D02*
X12811667Y-12087524D01*
X12811667Y-12087524D02*
X12792619Y-12087524D01*
X12792619Y-12087524D02*
X12773572Y-12078000D01*
X12773572Y-12078000D02*
X12764048Y-12068476D01*
X12764048Y-12068476D02*
X12754524Y-12049428D01*
X12754524Y-12049428D02*
X12745000Y-12011333D01*
X12745000Y-12011333D02*
X12745000Y-11963714D01*
X12745000Y-11963714D02*
X12754524Y-11925619D01*
X12754524Y-11925619D02*
X12764048Y-11906571D01*
X12764048Y-11906571D02*
X12773572Y-11897048D01*
X12773572Y-11897048D02*
X12792619Y-11887524D01*
X12935476Y-11887524D02*
X12935476Y-11925619D01*
X13011667Y-11887524D02*
X13011667Y-11925619D01*
X13306905Y-12163714D02*
X13297381Y-12154190D01*
X13297381Y-12154190D02*
X13278334Y-12125619D01*
X13278334Y-12125619D02*
X13268810Y-12106571D01*
X13268810Y-12106571D02*
X13259286Y-12078000D01*
X13259286Y-12078000D02*
X13249762Y-12030381D01*
X13249762Y-12030381D02*
X13249762Y-11992286D01*
X13249762Y-11992286D02*
X13259286Y-11944667D01*
X13259286Y-11944667D02*
X13268810Y-11916095D01*
X13268810Y-11916095D02*
X13278334Y-11897048D01*
X13278334Y-11897048D02*
X13297381Y-11868476D01*
X13297381Y-11868476D02*
X13306905Y-11858952D01*
X13373572Y-11906571D02*
X13383095Y-11897048D01*
X13383095Y-11897048D02*
X13402143Y-11887524D01*
X13402143Y-11887524D02*
X13449762Y-11887524D01*
X13449762Y-11887524D02*
X13468810Y-11897048D01*
X13468810Y-11897048D02*
X13478334Y-11906571D01*
X13478334Y-11906571D02*
X13487857Y-11925619D01*
X13487857Y-11925619D02*
X13487857Y-11944667D01*
X13487857Y-11944667D02*
X13478334Y-11973238D01*
X13478334Y-11973238D02*
X13364048Y-12087524D01*
X13364048Y-12087524D02*
X13487857Y-12087524D01*
X13725953Y-12087524D02*
X13725953Y-11887524D01*
X13811667Y-12087524D02*
X13811667Y-11982762D01*
X13811667Y-11982762D02*
X13802143Y-11963714D01*
X13802143Y-11963714D02*
X13783096Y-11954190D01*
X13783096Y-11954190D02*
X13754524Y-11954190D01*
X13754524Y-11954190D02*
X13735476Y-11963714D01*
X13735476Y-11963714D02*
X13725953Y-11973238D01*
X13935476Y-12087524D02*
X13916429Y-12078000D01*
X13916429Y-12078000D02*
X13906905Y-12068476D01*
X13906905Y-12068476D02*
X13897381Y-12049428D01*
X13897381Y-12049428D02*
X13897381Y-11992286D01*
X13897381Y-11992286D02*
X13906905Y-11973238D01*
X13906905Y-11973238D02*
X13916429Y-11963714D01*
X13916429Y-11963714D02*
X13935476Y-11954190D01*
X13935476Y-11954190D02*
X13964048Y-11954190D01*
X13964048Y-11954190D02*
X13983096Y-11963714D01*
X13983096Y-11963714D02*
X13992619Y-11973238D01*
X13992619Y-11973238D02*
X14002143Y-11992286D01*
X14002143Y-11992286D02*
X14002143Y-12049428D01*
X14002143Y-12049428D02*
X13992619Y-12068476D01*
X13992619Y-12068476D02*
X13983096Y-12078000D01*
X13983096Y-12078000D02*
X13964048Y-12087524D01*
X13964048Y-12087524D02*
X13935476Y-12087524D01*
X14116429Y-12087524D02*
X14097381Y-12078000D01*
X14097381Y-12078000D02*
X14087857Y-12058952D01*
X14087857Y-12058952D02*
X14087857Y-11887524D01*
X14268810Y-12078000D02*
X14249762Y-12087524D01*
X14249762Y-12087524D02*
X14211667Y-12087524D01*
X14211667Y-12087524D02*
X14192619Y-12078000D01*
X14192619Y-12078000D02*
X14183096Y-12058952D01*
X14183096Y-12058952D02*
X14183096Y-11982762D01*
X14183096Y-11982762D02*
X14192619Y-11963714D01*
X14192619Y-11963714D02*
X14211667Y-11954190D01*
X14211667Y-11954190D02*
X14249762Y-11954190D01*
X14249762Y-11954190D02*
X14268810Y-11963714D01*
X14268810Y-11963714D02*
X14278334Y-11982762D01*
X14278334Y-11982762D02*
X14278334Y-12001809D01*
X14278334Y-12001809D02*
X14183096Y-12020857D01*
X14354524Y-12078000D02*
X14373572Y-12087524D01*
X14373572Y-12087524D02*
X14411667Y-12087524D01*
X14411667Y-12087524D02*
X14430715Y-12078000D01*
X14430715Y-12078000D02*
X14440238Y-12058952D01*
X14440238Y-12058952D02*
X14440238Y-12049428D01*
X14440238Y-12049428D02*
X14430715Y-12030381D01*
X14430715Y-12030381D02*
X14411667Y-12020857D01*
X14411667Y-12020857D02*
X14383096Y-12020857D01*
X14383096Y-12020857D02*
X14364048Y-12011333D01*
X14364048Y-12011333D02*
X14354524Y-11992286D01*
X14354524Y-11992286D02*
X14354524Y-11982762D01*
X14354524Y-11982762D02*
X14364048Y-11963714D01*
X14364048Y-11963714D02*
X14383096Y-11954190D01*
X14383096Y-11954190D02*
X14411667Y-11954190D01*
X14411667Y-11954190D02*
X14430715Y-11963714D01*
X14506905Y-12163714D02*
X14516429Y-12154190D01*
X14516429Y-12154190D02*
X14535477Y-12125619D01*
X14535477Y-12125619D02*
X14545000Y-12106571D01*
X14545000Y-12106571D02*
X14554524Y-12078000D01*
X14554524Y-12078000D02*
X14564048Y-12030381D01*
X14564048Y-12030381D02*
X14564048Y-11992286D01*
X14564048Y-11992286D02*
X14554524Y-11944667D01*
X14554524Y-11944667D02*
X14545000Y-11916095D01*
X14545000Y-11916095D02*
X14535477Y-11897048D01*
X14535477Y-11897048D02*
X14516429Y-11868476D01*
X14516429Y-11868476D02*
X14506905Y-11858952D01*
X14868810Y-12163714D02*
X14859286Y-12154190D01*
X14859286Y-12154190D02*
X14840238Y-12125619D01*
X14840238Y-12125619D02*
X14830715Y-12106571D01*
X14830715Y-12106571D02*
X14821191Y-12078000D01*
X14821191Y-12078000D02*
X14811667Y-12030381D01*
X14811667Y-12030381D02*
X14811667Y-11992286D01*
X14811667Y-11992286D02*
X14821191Y-11944667D01*
X14821191Y-11944667D02*
X14830715Y-11916095D01*
X14830715Y-11916095D02*
X14840238Y-11897048D01*
X14840238Y-11897048D02*
X14859286Y-11868476D01*
X14859286Y-11868476D02*
X14868810Y-11858952D01*
X14945000Y-11954190D02*
X14945000Y-12087524D01*
X14945000Y-11973238D02*
X14954524Y-11963714D01*
X14954524Y-11963714D02*
X14973572Y-11954190D01*
X14973572Y-11954190D02*
X15002143Y-11954190D01*
X15002143Y-11954190D02*
X15021191Y-11963714D01*
X15021191Y-11963714D02*
X15030715Y-11982762D01*
X15030715Y-11982762D02*
X15030715Y-12087524D01*
X15154524Y-12087524D02*
X15135477Y-12078000D01*
X15135477Y-12078000D02*
X15125953Y-12068476D01*
X15125953Y-12068476D02*
X15116429Y-12049428D01*
X15116429Y-12049428D02*
X15116429Y-11992286D01*
X15116429Y-11992286D02*
X15125953Y-11973238D01*
X15125953Y-11973238D02*
X15135477Y-11963714D01*
X15135477Y-11963714D02*
X15154524Y-11954190D01*
X15154524Y-11954190D02*
X15183096Y-11954190D01*
X15183096Y-11954190D02*
X15202143Y-11963714D01*
X15202143Y-11963714D02*
X15211667Y-11973238D01*
X15211667Y-11973238D02*
X15221191Y-11992286D01*
X15221191Y-11992286D02*
X15221191Y-12049428D01*
X15221191Y-12049428D02*
X15211667Y-12068476D01*
X15211667Y-12068476D02*
X15202143Y-12078000D01*
X15202143Y-12078000D02*
X15183096Y-12087524D01*
X15183096Y-12087524D02*
X15154524Y-12087524D01*
X15278334Y-11954190D02*
X15354524Y-11954190D01*
X15306905Y-11887524D02*
X15306905Y-12058952D01*
X15306905Y-12058952D02*
X15316429Y-12078000D01*
X15316429Y-12078000D02*
X15335477Y-12087524D01*
X15335477Y-12087524D02*
X15354524Y-12087524D01*
X15573572Y-11954190D02*
X15573572Y-12154190D01*
X15573572Y-11963714D02*
X15592619Y-11954190D01*
X15592619Y-11954190D02*
X15630715Y-11954190D01*
X15630715Y-11954190D02*
X15649762Y-11963714D01*
X15649762Y-11963714D02*
X15659286Y-11973238D01*
X15659286Y-11973238D02*
X15668810Y-11992286D01*
X15668810Y-11992286D02*
X15668810Y-12049428D01*
X15668810Y-12049428D02*
X15659286Y-12068476D01*
X15659286Y-12068476D02*
X15649762Y-12078000D01*
X15649762Y-12078000D02*
X15630715Y-12087524D01*
X15630715Y-12087524D02*
X15592619Y-12087524D01*
X15592619Y-12087524D02*
X15573572Y-12078000D01*
X15783096Y-12087524D02*
X15764048Y-12078000D01*
X15764048Y-12078000D02*
X15754524Y-12058952D01*
X15754524Y-12058952D02*
X15754524Y-11887524D01*
X15945000Y-12087524D02*
X15945000Y-11982762D01*
X15945000Y-11982762D02*
X15935477Y-11963714D01*
X15935477Y-11963714D02*
X15916429Y-11954190D01*
X15916429Y-11954190D02*
X15878334Y-11954190D01*
X15878334Y-11954190D02*
X15859286Y-11963714D01*
X15945000Y-12078000D02*
X15925953Y-12087524D01*
X15925953Y-12087524D02*
X15878334Y-12087524D01*
X15878334Y-12087524D02*
X15859286Y-12078000D01*
X15859286Y-12078000D02*
X15849762Y-12058952D01*
X15849762Y-12058952D02*
X15849762Y-12039905D01*
X15849762Y-12039905D02*
X15859286Y-12020857D01*
X15859286Y-12020857D02*
X15878334Y-12011333D01*
X15878334Y-12011333D02*
X15925953Y-12011333D01*
X15925953Y-12011333D02*
X15945000Y-12001809D01*
X16011667Y-11954190D02*
X16087858Y-11954190D01*
X16040239Y-11887524D02*
X16040239Y-12058952D01*
X16040239Y-12058952D02*
X16049762Y-12078000D01*
X16049762Y-12078000D02*
X16068810Y-12087524D01*
X16068810Y-12087524D02*
X16087858Y-12087524D01*
X16230715Y-12078000D02*
X16211667Y-12087524D01*
X16211667Y-12087524D02*
X16173572Y-12087524D01*
X16173572Y-12087524D02*
X16154524Y-12078000D01*
X16154524Y-12078000D02*
X16145000Y-12058952D01*
X16145000Y-12058952D02*
X16145000Y-11982762D01*
X16145000Y-11982762D02*
X16154524Y-11963714D01*
X16154524Y-11963714D02*
X16173572Y-11954190D01*
X16173572Y-11954190D02*
X16211667Y-11954190D01*
X16211667Y-11954190D02*
X16230715Y-11963714D01*
X16230715Y-11963714D02*
X16240239Y-11982762D01*
X16240239Y-11982762D02*
X16240239Y-12001809D01*
X16240239Y-12001809D02*
X16145000Y-12020857D01*
X16411667Y-12087524D02*
X16411667Y-11887524D01*
X16411667Y-12078000D02*
X16392620Y-12087524D01*
X16392620Y-12087524D02*
X16354524Y-12087524D01*
X16354524Y-12087524D02*
X16335477Y-12078000D01*
X16335477Y-12078000D02*
X16325953Y-12068476D01*
X16325953Y-12068476D02*
X16316429Y-12049428D01*
X16316429Y-12049428D02*
X16316429Y-11992286D01*
X16316429Y-11992286D02*
X16325953Y-11973238D01*
X16325953Y-11973238D02*
X16335477Y-11963714D01*
X16335477Y-11963714D02*
X16354524Y-11954190D01*
X16354524Y-11954190D02*
X16392620Y-11954190D01*
X16392620Y-11954190D02*
X16411667Y-11963714D01*
X16487858Y-12163714D02*
X16497381Y-12154190D01*
X16497381Y-12154190D02*
X16516429Y-12125619D01*
X16516429Y-12125619D02*
X16525953Y-12106571D01*
X16525953Y-12106571D02*
X16535477Y-12078000D01*
X16535477Y-12078000D02*
X16545000Y-12030381D01*
X16545000Y-12030381D02*
X16545000Y-11992286D01*
X16545000Y-11992286D02*
X16535477Y-11944667D01*
X16535477Y-11944667D02*
X16525953Y-11916095D01*
X16525953Y-11916095D02*
X16516429Y-11897048D01*
X16516429Y-11897048D02*
X16497381Y-11868476D01*
X16497381Y-11868476D02*
X16487858Y-11858952D01*
M02*
