M48
; DRILL file {KiCad 7.0.1} date Tue Dec  5 18:06:42 2023
; FORMAT={-:-/ absolute / metric / decimal}
; #@! TF.CreationDate,2023-12-05T18:06:42-06:00
; #@! TF.GenerationSoftware,Kicad,Pcbnew,7.0.1
; #@! TF.FileFunction,Plated,1,2,PTH
FMAT,2
METRIC
; #@! TA.AperFunction,Plated,PTH,ViaDrill
T1C0.400
; #@! TA.AperFunction,Plated,PTH,ComponentDrill
T2C0.500
; #@! TA.AperFunction,Plated,PTH,ComponentDrill
T3C0.890
; #@! TA.AperFunction,Plated,PTH,ComponentDrill
T4C1.000
; #@! TA.AperFunction,Plated,PTH,ComponentDrill
T5C1.020
; #@! TA.AperFunction,Plated,PTH,ComponentDrill
T6C1.100
; #@! TA.AperFunction,Plated,PTH,ComponentDrill
T7C1.190
; #@! TA.AperFunction,Plated,PTH,ComponentDrill
T8C1.570
; #@! TA.AperFunction,Plated,PTH,ComponentDrill
T9C3.700
%
G90
G05
T1
X99.25Y-81.75
X100.25Y-110.5
X102.0Y-63.0
X102.25Y-68.0
X102.5Y-52.5
X102.75Y-58.0
X111.75Y-60.75
X114.5Y-58.25
X114.7Y-92.85
X116.25Y-39.25
X116.25Y-40.25
X116.8Y-93.7
X117.25Y-52.75
X118.749Y-92.749
X119.9Y-91.05
X123.75Y-38.96
X129.25Y-59.75
X133.0Y-77.25
X137.25Y-44.645
X142.469Y-55.75
X142.469Y-63.25
X142.75Y-60.75
X147.0Y-65.25
X149.25Y-102.0
X150.5Y-70.5
X153.25Y-70.5
X155.389Y-70.5
X156.25Y-72.5
X159.0Y-79.0
X159.0Y-80.25
T2
X120.45Y-96.0
X121.263Y-94.038
X121.263Y-97.962
X123.225Y-93.225
X123.225Y-98.775
X125.187Y-94.038
X125.187Y-97.962
X126.0Y-96.0
X152.225Y-43.025
X153.038Y-41.063
X153.038Y-44.987
X155.0Y-40.25
X155.0Y-45.8
X156.962Y-41.063
X156.962Y-44.987
X157.775Y-43.025
T3
X102.79Y-55.64
X105.08Y-55.64
X106.09Y-49.04
X107.106Y-50.82
X108.122Y-49.04
X109.138Y-50.82
X110.154Y-49.04
X111.17Y-50.82
X112.186Y-49.04
X113.202Y-50.82
X114.22Y-55.64
X116.51Y-55.64
T4
X102.13Y-43.0
X107.0Y-97.35
X115.16Y-105.5
X130.4Y-95.75
X135.4Y-95.75
X135.48Y-105.5
X138.0Y-95.75
X143.07Y-49.0
X143.07Y-67.6
X145.61Y-49.0
X145.61Y-67.6
X154.46Y-49.0
X154.46Y-67.6
X157.0Y-49.0
X157.0Y-67.6
X168.5Y-105.5
T5
X121.0Y-40.51
X121.0Y-43.05
X121.0Y-45.59
X121.0Y-48.13
X121.0Y-50.67
X121.0Y-53.21
X121.0Y-55.75
X121.0Y-58.29
X121.0Y-60.83
X121.0Y-63.37
X121.0Y-65.91
X121.0Y-68.45
X121.0Y-70.99
X121.0Y-73.53
X121.0Y-76.07
X121.0Y-78.61
X121.0Y-81.15
X121.0Y-83.69
X121.0Y-86.23
X121.0Y-88.77
X138.78Y-40.51
X138.78Y-43.05
X138.78Y-45.59
X138.78Y-48.13
X138.78Y-50.67
X138.78Y-53.21
X138.78Y-55.75
X138.78Y-58.29
X138.78Y-60.83
X138.78Y-63.37
X138.78Y-65.91
X138.78Y-68.45
X138.78Y-70.99
X138.78Y-73.53
X138.78Y-76.07
X138.78Y-78.61
X138.78Y-81.15
X138.78Y-83.69
X138.78Y-86.23
X138.78Y-88.77
T6
X143.5Y-40.75
X143.5Y-45.25
X150.0Y-40.75
X150.0Y-45.25
T7
X102.46Y-105.5
X104.67Y-43.0
X105.0Y-105.5
X107.0Y-59.25
X107.0Y-61.79
X107.0Y-64.33
X107.0Y-66.87
X107.0Y-69.41
X107.0Y-71.95
X107.0Y-74.49
X107.0Y-77.03
X107.0Y-79.57
X107.0Y-82.11
X107.0Y-84.65
X107.0Y-87.19
X107.0Y-89.73
X107.0Y-92.27
X107.0Y-94.81
X107.21Y-43.0
X107.54Y-105.5
X109.75Y-43.0
X110.08Y-105.5
X112.16Y-77.4
X112.16Y-88.02
X112.17Y-98.5
X112.21Y-66.77
X112.29Y-43.0
X112.62Y-105.5
X114.7Y-77.4
X114.7Y-88.02
X114.71Y-98.5
X114.75Y-66.77
X114.83Y-43.0
X117.24Y-77.4
X117.24Y-88.02
X117.25Y-98.5
X117.29Y-66.77
X117.7Y-105.5
X120.24Y-105.5
X122.78Y-105.5
X125.32Y-105.5
X127.86Y-105.5
X130.4Y-105.5
X132.94Y-105.5
X138.02Y-105.5
X140.56Y-105.5
X142.76Y-97.3
X142.81Y-86.2
X143.02Y-75.52
X143.1Y-105.5
X145.3Y-97.3
X145.35Y-86.2
X145.56Y-75.52
X145.64Y-105.5
X147.84Y-97.3
X147.89Y-86.2
X148.1Y-75.52
X148.18Y-105.5
X150.72Y-105.5
X151.9Y-97.2
X152.02Y-75.5
X152.02Y-86.2
X153.26Y-105.5
X154.44Y-97.2
X154.56Y-75.5
X154.56Y-86.2
X155.8Y-105.5
X156.98Y-97.2
X157.1Y-75.5
X157.1Y-86.2
X158.34Y-105.5
X160.88Y-105.5
X163.0Y-41.0
X163.0Y-43.54
X163.0Y-46.08
X163.0Y-48.62
X163.0Y-51.16
X163.0Y-53.7
X163.0Y-56.24
X163.0Y-58.78
X163.0Y-61.32
X163.0Y-63.86
X163.0Y-66.4
X163.0Y-68.94
X163.0Y-71.48
X163.0Y-74.02
X163.0Y-76.56
X163.0Y-79.1
X163.0Y-81.64
X163.0Y-84.18
X163.0Y-86.72
X163.0Y-89.26
X163.0Y-91.8
X163.0Y-94.34
X163.0Y-96.88
X163.0Y-99.42
X163.42Y-105.5
X165.96Y-105.5
T8
X101.52Y-49.93
X117.78Y-49.93
T9
X123.225Y-96.0
X155.0Y-43.025
T4
X123.6Y-48.8G85X123.6Y-46.6
G05
X129.5Y-44.3G85X127.3Y-44.3
G05
X129.7Y-50.6G85X127.1Y-50.6
G05
T0
M30
