G04 #@! TF.GenerationSoftware,KiCad,Pcbnew,7.0.1*
G04 #@! TF.CreationDate,2023-12-05T18:06:22-06:00*
G04 #@! TF.ProjectId,Pico Breakout Board V3,5069636f-2042-4726-9561-6b6f75742042,rev?*
G04 #@! TF.SameCoordinates,Original*
G04 #@! TF.FileFunction,Soldermask,Bot*
G04 #@! TF.FilePolarity,Negative*
%FSLAX46Y46*%
G04 Gerber Fmt 4.6, Leading zero omitted, Abs format (unit mm)*
G04 Created by KiCad (PCBNEW 7.0.1) date 2023-12-05 18:06:22*
%MOMM*%
%LPD*%
G01*
G04 APERTURE LIST*
G04 Aperture macros list*
%AMRoundRect*
0 Rectangle with rounded corners*
0 $1 Rounding radius*
0 $2 $3 $4 $5 $6 $7 $8 $9 X,Y pos of 4 corners*
0 Add a 4 corners polygon primitive as box body*
4,1,4,$2,$3,$4,$5,$6,$7,$8,$9,$2,$3,0*
0 Add four circle primitives for the rounded corners*
1,1,$1+$1,$2,$3*
1,1,$1+$1,$4,$5*
1,1,$1+$1,$6,$7*
1,1,$1+$1,$8,$9*
0 Add four rect primitives between the rounded corners*
20,1,$1+$1,$2,$3,$4,$5,0*
20,1,$1+$1,$4,$5,$6,$7,0*
20,1,$1+$1,$6,$7,$8,$9,0*
20,1,$1+$1,$8,$9,$2,$3,0*%
%AMFreePoly0*
4,1,19,0.000000,0.744911,0.071157,0.744911,0.207708,0.704816,0.327430,0.627875,0.420627,0.520320,0.479746,0.390866,0.500000,0.250000,0.500000,-0.250000,0.479746,-0.390866,0.420627,-0.520320,0.327430,-0.627875,0.207708,-0.704816,0.071157,-0.744911,0.000000,-0.744911,0.000000,-0.750000,-0.500000,-0.750000,-0.500000,0.750000,0.000000,0.750000,0.000000,0.744911,0.000000,0.744911,
$1*%
%AMFreePoly1*
4,1,19,0.500000,-0.750000,0.000000,-0.750000,0.000000,-0.744911,-0.071157,-0.744911,-0.207708,-0.704816,-0.327430,-0.627875,-0.420627,-0.520320,-0.479746,-0.390866,-0.500000,-0.250000,-0.500000,0.250000,-0.479746,0.390866,-0.420627,0.520320,-0.327430,0.627875,-0.207708,0.704816,-0.071157,0.744911,0.000000,0.744911,0.000000,0.750000,0.500000,0.750000,0.500000,-0.750000,0.500000,-0.750000,
$1*%
G04 Aperture macros list end*
%ADD10O,1.740000X2.190000*%
%ADD11RoundRect,0.250000X-0.620000X-0.845000X0.620000X-0.845000X0.620000X0.845000X-0.620000X0.845000X0*%
%ADD12R,1.700000X1.700000*%
%ADD13RoundRect,0.250000X-0.350000X-0.450000X0.350000X-0.450000X0.350000X0.450000X-0.350000X0.450000X0*%
%ADD14O,2.190000X1.740000*%
%ADD15RoundRect,0.250000X0.845000X-0.620000X0.845000X0.620000X-0.845000X0.620000X-0.845000X-0.620000X0*%
%ADD16C,2.000000*%
%ADD17RoundRect,0.150000X0.150000X-0.825000X0.150000X0.825000X-0.150000X0.825000X-0.150000X-0.825000X0*%
%ADD18O,1.700000X1.700000*%
%ADD19RoundRect,0.250000X-0.564711X0.078109X-0.214711X-0.528109X0.564711X-0.078109X0.214711X0.528109X0*%
%ADD20FreePoly0,90.000000*%
%ADD21FreePoly1,90.000000*%
%ADD22R,4.600000X2.000000*%
%ADD23O,4.200000X2.000000*%
%ADD24O,2.000000X4.200000*%
%ADD25RoundRect,0.250000X-0.845000X0.620000X-0.845000X-0.620000X0.845000X-0.620000X0.845000X0.620000X0*%
%ADD26RoundRect,0.250000X0.620000X0.845000X-0.620000X0.845000X-0.620000X-0.845000X0.620000X-0.845000X0*%
%ADD27C,3.250000*%
%ADD28R,1.500000X1.500000*%
%ADD29C,1.500000*%
%ADD30C,2.300000*%
%ADD31C,0.800000*%
%ADD32C,7.400000*%
%ADD33RoundRect,0.250000X-0.300000X0.300000X-0.300000X-0.300000X0.300000X-0.300000X0.300000X0.300000X0*%
%ADD34RoundRect,0.150000X0.587500X0.150000X-0.587500X0.150000X-0.587500X-0.150000X0.587500X-0.150000X0*%
%ADD35RoundRect,0.150000X-0.587500X-0.150000X0.587500X-0.150000X0.587500X0.150000X-0.587500X0.150000X0*%
%ADD36RoundRect,0.250000X0.337500X0.475000X-0.337500X0.475000X-0.337500X-0.475000X0.337500X-0.475000X0*%
%ADD37R,2.000000X2.000000*%
G04 APERTURE END LIST*
D10*
X117240000Y-88020000D03*
X114700000Y-88020000D03*
D11*
X112160000Y-88020000D03*
D12*
X135400000Y-95750000D03*
D10*
X114830000Y-43000000D03*
X112290000Y-43000000D03*
X109750000Y-43000000D03*
X107210000Y-43000000D03*
D11*
X104670000Y-43000000D03*
D13*
X114500000Y-58250000D03*
X116500000Y-58250000D03*
X102750000Y-58000000D03*
X104750000Y-58000000D03*
D14*
X107000000Y-84650000D03*
X107000000Y-87190000D03*
X107000000Y-89730000D03*
X107000000Y-92270000D03*
D15*
X107000000Y-94810000D03*
X107000000Y-82110000D03*
D14*
X107000000Y-79570000D03*
X107000000Y-77030000D03*
X107000000Y-74490000D03*
D12*
X107000000Y-97350000D03*
D15*
X107000000Y-71950000D03*
D14*
X107000000Y-69410000D03*
X107000000Y-66870000D03*
X107000000Y-64330000D03*
X107000000Y-61790000D03*
X107000000Y-59250000D03*
D12*
X135480000Y-105500000D03*
D16*
X143500000Y-45250000D03*
X150000000Y-45250000D03*
X143500000Y-40750000D03*
X150000000Y-40750000D03*
D17*
X112500000Y-53550000D03*
X111230000Y-53550000D03*
X109960000Y-53550000D03*
X108690000Y-53550000D03*
X108690000Y-58500000D03*
X109960000Y-58500000D03*
X111230000Y-58500000D03*
X112500000Y-58500000D03*
D16*
X143070000Y-49000000D03*
X145610000Y-49000000D03*
X154460000Y-49000000D03*
X157000000Y-49000000D03*
X157000000Y-67600000D03*
X154460000Y-67600000D03*
X145610000Y-67600000D03*
X143070000Y-67600000D03*
D18*
X121000000Y-40510000D03*
X121000000Y-43050000D03*
D12*
X121000000Y-45590000D03*
D18*
X121000000Y-48130000D03*
X121000000Y-50670000D03*
X121000000Y-53210000D03*
X121000000Y-55750000D03*
D12*
X121000000Y-58290000D03*
D18*
X121000000Y-60830000D03*
X121000000Y-63370000D03*
X121000000Y-65910000D03*
X121000000Y-68450000D03*
D12*
X121000000Y-70990000D03*
D18*
X121000000Y-73530000D03*
X121000000Y-76070000D03*
X121000000Y-78610000D03*
X121000000Y-81150000D03*
D12*
X121000000Y-83690000D03*
D18*
X121000000Y-86230000D03*
X121000000Y-88770000D03*
X138780000Y-88770000D03*
X138780000Y-86230000D03*
D12*
X138780000Y-83690000D03*
D18*
X138780000Y-81150000D03*
X138780000Y-78610000D03*
X138780000Y-76070000D03*
X138780000Y-73530000D03*
D12*
X138780000Y-70990000D03*
D18*
X138780000Y-68450000D03*
X138780000Y-65910000D03*
X138780000Y-63370000D03*
X138780000Y-60830000D03*
D12*
X138780000Y-58290000D03*
D18*
X138780000Y-55750000D03*
X138780000Y-53210000D03*
X138780000Y-50670000D03*
X138780000Y-48130000D03*
D12*
X138780000Y-45590000D03*
D18*
X138780000Y-43050000D03*
X138780000Y-40510000D03*
D19*
X113750000Y-48017950D03*
X114750000Y-49750000D03*
D20*
X127750000Y-40200000D03*
D21*
X127750000Y-41500000D03*
D11*
X142760000Y-97300000D03*
D10*
X145300000Y-97300000D03*
X147840000Y-97300000D03*
X147890000Y-86200000D03*
X145350000Y-86200000D03*
D11*
X142810000Y-86200000D03*
D10*
X156980000Y-97200000D03*
X154440000Y-97200000D03*
D11*
X151900000Y-97200000D03*
X112170000Y-98500000D03*
D10*
X114710000Y-98500000D03*
X117250000Y-98500000D03*
D11*
X112160000Y-77400000D03*
D10*
X114700000Y-77400000D03*
X117240000Y-77400000D03*
D12*
X102130000Y-43000000D03*
D22*
X128400000Y-50600000D03*
D23*
X128400000Y-44300000D03*
D24*
X123600000Y-47700000D03*
D14*
X163000000Y-63860000D03*
X163000000Y-61320000D03*
X163000000Y-58780000D03*
X163000000Y-56240000D03*
X163000000Y-53700000D03*
D25*
X163000000Y-51160000D03*
D14*
X163000000Y-99420000D03*
X163000000Y-96880000D03*
X163000000Y-94340000D03*
D25*
X163000000Y-91800000D03*
X163000000Y-66400000D03*
D14*
X163000000Y-68940000D03*
X163000000Y-71480000D03*
X163000000Y-74020000D03*
D10*
X150720000Y-105500000D03*
X153260000Y-105500000D03*
X155800000Y-105500000D03*
X158340000Y-105500000D03*
X160880000Y-105500000D03*
X163420000Y-105500000D03*
D26*
X165960000Y-105500000D03*
D11*
X112210000Y-66770000D03*
D10*
X114750000Y-66770000D03*
X117290000Y-66770000D03*
D12*
X168500000Y-105500000D03*
D10*
X157100000Y-86200000D03*
X154560000Y-86200000D03*
D11*
X152020000Y-86200000D03*
D12*
X115160000Y-105500000D03*
D10*
X157100000Y-75500000D03*
X154560000Y-75500000D03*
D11*
X152020000Y-75500000D03*
D10*
X148100000Y-75520000D03*
X145560000Y-75520000D03*
D11*
X143020000Y-75520000D03*
D25*
X163000000Y-76560000D03*
D14*
X163000000Y-79100000D03*
X163000000Y-81640000D03*
X163000000Y-84180000D03*
X163000000Y-86720000D03*
X163000000Y-89260000D03*
D25*
X163000000Y-41000000D03*
D14*
X163000000Y-43540000D03*
X163000000Y-46080000D03*
X163000000Y-48620000D03*
D26*
X132940000Y-105500000D03*
D10*
X130400000Y-105500000D03*
X127860000Y-105500000D03*
X125320000Y-105500000D03*
X122780000Y-105500000D03*
X120240000Y-105500000D03*
X117700000Y-105500000D03*
X102460000Y-105500000D03*
X105000000Y-105500000D03*
X107540000Y-105500000D03*
X110080000Y-105500000D03*
D26*
X112620000Y-105500000D03*
D10*
X138020000Y-105500000D03*
X140560000Y-105500000D03*
X143100000Y-105500000D03*
X145640000Y-105500000D03*
D26*
X148180000Y-105500000D03*
D27*
X116000000Y-46500000D03*
X103300000Y-46500000D03*
D28*
X106090000Y-49040000D03*
D29*
X107106000Y-50820000D03*
X108122000Y-49040000D03*
X109138000Y-50820000D03*
X110154000Y-49040000D03*
X111170000Y-50820000D03*
X112186000Y-49040000D03*
X113202000Y-50820000D03*
X102790000Y-55640000D03*
X105080000Y-55640000D03*
X114220000Y-55640000D03*
X116510000Y-55640000D03*
D30*
X101520000Y-49930000D03*
X117780000Y-49930000D03*
D31*
X156962221Y-41062779D03*
X157775000Y-43025000D03*
X156962221Y-44987221D03*
X155000000Y-45800000D03*
X153037779Y-44987221D03*
X153037779Y-41062779D03*
X155000000Y-40250000D03*
D32*
X155000000Y-43025000D03*
D31*
X152225000Y-43025000D03*
X125187221Y-94037779D03*
X126000000Y-96000000D03*
X125187221Y-97962221D03*
X123225000Y-98775000D03*
X121262779Y-97962221D03*
X121262779Y-94037779D03*
X123225000Y-93225000D03*
D32*
X123225000Y-96000000D03*
D31*
X120450000Y-96000000D03*
D33*
X141000000Y-43100000D03*
X141000000Y-45900000D03*
D34*
X104375000Y-51550000D03*
X104375000Y-53450000D03*
X102500000Y-52500000D03*
D35*
X117250000Y-52750000D03*
X115375000Y-51800000D03*
X115375000Y-53700000D03*
D36*
X111750000Y-60750000D03*
X109675000Y-60750000D03*
D16*
X138000000Y-95750000D03*
D37*
X130400000Y-95750000D03*
M02*
