G04 #@! TF.GenerationSoftware,KiCad,Pcbnew,7.0.1*
G04 #@! TF.CreationDate,2023-12-05T18:06:22-06:00*
G04 #@! TF.ProjectId,Pico Breakout Board V3,5069636f-2042-4726-9561-6b6f75742042,rev?*
G04 #@! TF.SameCoordinates,Original*
G04 #@! TF.FileFunction,Copper,L1,Top*
G04 #@! TF.FilePolarity,Positive*
%FSLAX46Y46*%
G04 Gerber Fmt 4.6, Leading zero omitted, Abs format (unit mm)*
G04 Created by KiCad (PCBNEW 7.0.1) date 2023-12-05 18:06:22*
%MOMM*%
%LPD*%
G01*
G04 APERTURE LIST*
G04 Aperture macros list*
%AMRoundRect*
0 Rectangle with rounded corners*
0 $1 Rounding radius*
0 $2 $3 $4 $5 $6 $7 $8 $9 X,Y pos of 4 corners*
0 Add a 4 corners polygon primitive as box body*
4,1,4,$2,$3,$4,$5,$6,$7,$8,$9,$2,$3,0*
0 Add four circle primitives for the rounded corners*
1,1,$1+$1,$2,$3*
1,1,$1+$1,$4,$5*
1,1,$1+$1,$6,$7*
1,1,$1+$1,$8,$9*
0 Add four rect primitives between the rounded corners*
20,1,$1+$1,$2,$3,$4,$5,0*
20,1,$1+$1,$4,$5,$6,$7,0*
20,1,$1+$1,$6,$7,$8,$9,0*
20,1,$1+$1,$8,$9,$2,$3,0*%
G04 Aperture macros list end*
G04 #@! TA.AperFunction,ComponentPad*
%ADD10O,1.740000X2.190000*%
G04 #@! TD*
G04 #@! TA.AperFunction,ComponentPad*
%ADD11RoundRect,0.250000X-0.620000X-0.845000X0.620000X-0.845000X0.620000X0.845000X-0.620000X0.845000X0*%
G04 #@! TD*
G04 #@! TA.AperFunction,ComponentPad*
%ADD12R,1.700000X1.700000*%
G04 #@! TD*
G04 #@! TA.AperFunction,ComponentPad*
%ADD13O,2.190000X1.740000*%
G04 #@! TD*
G04 #@! TA.AperFunction,ComponentPad*
%ADD14RoundRect,0.250000X0.845000X-0.620000X0.845000X0.620000X-0.845000X0.620000X-0.845000X-0.620000X0*%
G04 #@! TD*
G04 #@! TA.AperFunction,ComponentPad*
%ADD15C,2.000000*%
G04 #@! TD*
G04 #@! TA.AperFunction,ComponentPad*
%ADD16O,1.700000X1.700000*%
G04 #@! TD*
G04 #@! TA.AperFunction,ComponentPad*
%ADD17R,4.600000X2.000000*%
G04 #@! TD*
G04 #@! TA.AperFunction,ComponentPad*
%ADD18O,4.200000X2.000000*%
G04 #@! TD*
G04 #@! TA.AperFunction,ComponentPad*
%ADD19O,2.000000X4.200000*%
G04 #@! TD*
G04 #@! TA.AperFunction,ComponentPad*
%ADD20RoundRect,0.250000X-0.845000X0.620000X-0.845000X-0.620000X0.845000X-0.620000X0.845000X0.620000X0*%
G04 #@! TD*
G04 #@! TA.AperFunction,ComponentPad*
%ADD21RoundRect,0.250000X0.620000X0.845000X-0.620000X0.845000X-0.620000X-0.845000X0.620000X-0.845000X0*%
G04 #@! TD*
G04 #@! TA.AperFunction,ComponentPad*
%ADD22R,1.500000X1.500000*%
G04 #@! TD*
G04 #@! TA.AperFunction,ComponentPad*
%ADD23C,1.500000*%
G04 #@! TD*
G04 #@! TA.AperFunction,ComponentPad*
%ADD24C,2.300000*%
G04 #@! TD*
G04 #@! TA.AperFunction,ComponentPad*
%ADD25C,0.800000*%
G04 #@! TD*
G04 #@! TA.AperFunction,ComponentPad*
%ADD26C,7.400000*%
G04 #@! TD*
G04 #@! TA.AperFunction,ComponentPad*
%ADD27R,2.000000X2.000000*%
G04 #@! TD*
G04 #@! TA.AperFunction,ViaPad*
%ADD28C,0.800000*%
G04 #@! TD*
G04 #@! TA.AperFunction,Conductor*
%ADD29C,0.500000*%
G04 #@! TD*
G04 #@! TA.AperFunction,Conductor*
%ADD30C,0.375000*%
G04 #@! TD*
G04 #@! TA.AperFunction,Conductor*
%ADD31C,2.000000*%
G04 #@! TD*
G04 #@! TA.AperFunction,Conductor*
%ADD32C,1.000000*%
G04 #@! TD*
G04 APERTURE END LIST*
D10*
X117240000Y-88020000D03*
X114700000Y-88020000D03*
D11*
X112160000Y-88020000D03*
D12*
X135400000Y-95750000D03*
D10*
X114830000Y-43000000D03*
X112290000Y-43000000D03*
X109750000Y-43000000D03*
X107210000Y-43000000D03*
D11*
X104670000Y-43000000D03*
D13*
X107000000Y-84650000D03*
X107000000Y-87190000D03*
X107000000Y-89730000D03*
X107000000Y-92270000D03*
D14*
X107000000Y-94810000D03*
X107000000Y-82110000D03*
D13*
X107000000Y-79570000D03*
X107000000Y-77030000D03*
X107000000Y-74490000D03*
D12*
X107000000Y-97350000D03*
D14*
X107000000Y-71950000D03*
D13*
X107000000Y-69410000D03*
X107000000Y-66870000D03*
X107000000Y-64330000D03*
X107000000Y-61790000D03*
X107000000Y-59250000D03*
D12*
X135480000Y-105500000D03*
D15*
X143500000Y-45250000D03*
X150000000Y-45250000D03*
X143500000Y-40750000D03*
X150000000Y-40750000D03*
X143070000Y-49000000D03*
X145610000Y-49000000D03*
X154460000Y-49000000D03*
X157000000Y-49000000D03*
X157000000Y-67600000D03*
X154460000Y-67600000D03*
X145610000Y-67600000D03*
X143070000Y-67600000D03*
D16*
X121000000Y-40510000D03*
X121000000Y-43050000D03*
D12*
X121000000Y-45590000D03*
D16*
X121000000Y-48130000D03*
X121000000Y-50670000D03*
X121000000Y-53210000D03*
X121000000Y-55750000D03*
D12*
X121000000Y-58290000D03*
D16*
X121000000Y-60830000D03*
X121000000Y-63370000D03*
X121000000Y-65910000D03*
X121000000Y-68450000D03*
D12*
X121000000Y-70990000D03*
D16*
X121000000Y-73530000D03*
X121000000Y-76070000D03*
X121000000Y-78610000D03*
X121000000Y-81150000D03*
D12*
X121000000Y-83690000D03*
D16*
X121000000Y-86230000D03*
X121000000Y-88770000D03*
X138780000Y-88770000D03*
X138780000Y-86230000D03*
D12*
X138780000Y-83690000D03*
D16*
X138780000Y-81150000D03*
X138780000Y-78610000D03*
X138780000Y-76070000D03*
X138780000Y-73530000D03*
D12*
X138780000Y-70990000D03*
D16*
X138780000Y-68450000D03*
X138780000Y-65910000D03*
X138780000Y-63370000D03*
X138780000Y-60830000D03*
D12*
X138780000Y-58290000D03*
D16*
X138780000Y-55750000D03*
X138780000Y-53210000D03*
X138780000Y-50670000D03*
X138780000Y-48130000D03*
D12*
X138780000Y-45590000D03*
D16*
X138780000Y-43050000D03*
X138780000Y-40510000D03*
D11*
X142760000Y-97300000D03*
D10*
X145300000Y-97300000D03*
X147840000Y-97300000D03*
X147890000Y-86200000D03*
X145350000Y-86200000D03*
D11*
X142810000Y-86200000D03*
D10*
X156980000Y-97200000D03*
X154440000Y-97200000D03*
D11*
X151900000Y-97200000D03*
X112170000Y-98500000D03*
D10*
X114710000Y-98500000D03*
X117250000Y-98500000D03*
D11*
X112160000Y-77400000D03*
D10*
X114700000Y-77400000D03*
X117240000Y-77400000D03*
D12*
X102130000Y-43000000D03*
D17*
X128400000Y-50600000D03*
D18*
X128400000Y-44300000D03*
D19*
X123600000Y-47700000D03*
D13*
X163000000Y-63860000D03*
X163000000Y-61320000D03*
X163000000Y-58780000D03*
X163000000Y-56240000D03*
X163000000Y-53700000D03*
D20*
X163000000Y-51160000D03*
D13*
X163000000Y-99420000D03*
X163000000Y-96880000D03*
X163000000Y-94340000D03*
D20*
X163000000Y-91800000D03*
X163000000Y-66400000D03*
D13*
X163000000Y-68940000D03*
X163000000Y-71480000D03*
X163000000Y-74020000D03*
D10*
X150720000Y-105500000D03*
X153260000Y-105500000D03*
X155800000Y-105500000D03*
X158340000Y-105500000D03*
X160880000Y-105500000D03*
X163420000Y-105500000D03*
D21*
X165960000Y-105500000D03*
D11*
X112210000Y-66770000D03*
D10*
X114750000Y-66770000D03*
X117290000Y-66770000D03*
D12*
X168500000Y-105500000D03*
D10*
X157100000Y-86200000D03*
X154560000Y-86200000D03*
D11*
X152020000Y-86200000D03*
D12*
X115160000Y-105500000D03*
D10*
X157100000Y-75500000D03*
X154560000Y-75500000D03*
D11*
X152020000Y-75500000D03*
D10*
X148100000Y-75520000D03*
X145560000Y-75520000D03*
D11*
X143020000Y-75520000D03*
D20*
X163000000Y-76560000D03*
D13*
X163000000Y-79100000D03*
X163000000Y-81640000D03*
X163000000Y-84180000D03*
X163000000Y-86720000D03*
X163000000Y-89260000D03*
D20*
X163000000Y-41000000D03*
D13*
X163000000Y-43540000D03*
X163000000Y-46080000D03*
X163000000Y-48620000D03*
D21*
X132940000Y-105500000D03*
D10*
X130400000Y-105500000D03*
X127860000Y-105500000D03*
X125320000Y-105500000D03*
X122780000Y-105500000D03*
X120240000Y-105500000D03*
X117700000Y-105500000D03*
X102460000Y-105500000D03*
X105000000Y-105500000D03*
X107540000Y-105500000D03*
X110080000Y-105500000D03*
D21*
X112620000Y-105500000D03*
D10*
X138020000Y-105500000D03*
X140560000Y-105500000D03*
X143100000Y-105500000D03*
X145640000Y-105500000D03*
D21*
X148180000Y-105500000D03*
D22*
X106090000Y-49040000D03*
D23*
X107106000Y-50820000D03*
X108122000Y-49040000D03*
X109138000Y-50820000D03*
X110154000Y-49040000D03*
X111170000Y-50820000D03*
X112186000Y-49040000D03*
X113202000Y-50820000D03*
X102790000Y-55640000D03*
X105080000Y-55640000D03*
X114220000Y-55640000D03*
X116510000Y-55640000D03*
D24*
X101520000Y-49930000D03*
X117780000Y-49930000D03*
D25*
X156962221Y-41062779D03*
X157775000Y-43025000D03*
X156962221Y-44987221D03*
X155000000Y-45800000D03*
X153037779Y-44987221D03*
X153037779Y-41062779D03*
X155000000Y-40250000D03*
D26*
X155000000Y-43025000D03*
D25*
X152225000Y-43025000D03*
X125187221Y-94037779D03*
X126000000Y-96000000D03*
X125187221Y-97962221D03*
X123225000Y-98775000D03*
X121262779Y-97962221D03*
X121262779Y-94037779D03*
X123225000Y-93225000D03*
D26*
X123225000Y-96000000D03*
D25*
X120450000Y-96000000D03*
D15*
X138000000Y-95750000D03*
D27*
X130400000Y-95750000D03*
D28*
X102000000Y-63000000D03*
X102250000Y-68000000D03*
X100250000Y-110500000D03*
X99250000Y-81750000D03*
X156250000Y-72500000D03*
X133000000Y-77250000D03*
X129250000Y-59750000D03*
X116250000Y-39250000D03*
X149250000Y-102000000D03*
X123750000Y-38960000D03*
X116250000Y-40250000D03*
X155389500Y-70500000D03*
X150500000Y-70500000D03*
X153250000Y-70500000D03*
X159000000Y-80250000D03*
X159000000Y-79000000D03*
X137250000Y-44645000D03*
X147000000Y-65250000D03*
X142469500Y-55750000D03*
X142469500Y-63250000D03*
X142750000Y-60750000D03*
X118749125Y-92749500D03*
X119900000Y-91050500D03*
X114700000Y-92850500D03*
X116800000Y-93700000D03*
X111750000Y-60750000D03*
X117250000Y-52750000D03*
X102500000Y-52500000D03*
X102750000Y-58000000D03*
X114500000Y-58250000D03*
D29*
X151900000Y-98100000D02*
X151900000Y-97200000D01*
X153120000Y-99320000D02*
X151900000Y-98100000D01*
X154700000Y-99320000D02*
X153120000Y-99320000D01*
X160880000Y-105500000D02*
X154700000Y-99320000D01*
D30*
X144382500Y-87772500D02*
X142810000Y-86200000D01*
X144382500Y-88132500D02*
X144382500Y-87772500D01*
X153919126Y-98682500D02*
X153157500Y-97920874D01*
X153157500Y-97920874D02*
X153157500Y-93790939D01*
X153157500Y-93790939D02*
X147499061Y-88132500D01*
X155282500Y-98682500D02*
X153919126Y-98682500D01*
X160617500Y-104017500D02*
X155282500Y-98682500D01*
X161937500Y-104017500D02*
X160617500Y-104017500D01*
X163420000Y-105500000D02*
X161937500Y-104017500D01*
X147499061Y-88132500D02*
X144382500Y-88132500D01*
D29*
X157100000Y-84320000D02*
X157100000Y-86200000D01*
D30*
X157080000Y-74500000D02*
X157080000Y-84300000D01*
D29*
X154540000Y-84500000D02*
X154560000Y-84520000D01*
X154560000Y-84520000D02*
X154560000Y-86200000D01*
X154540000Y-70347968D02*
X154540000Y-84500000D01*
X143319500Y-55397918D02*
X143319500Y-59127468D01*
X141131582Y-53210000D02*
X143319500Y-55397918D01*
X143319500Y-59127468D02*
X154540000Y-70347968D01*
X138780000Y-53210000D02*
X141131582Y-53210000D01*
D30*
X151020000Y-85200000D02*
X152020000Y-86200000D01*
X151020000Y-82000000D02*
X151020000Y-85200000D01*
X140037500Y-73980000D02*
X140017500Y-73960000D01*
X140037500Y-74960000D02*
X140037500Y-73980000D01*
X146022500Y-77002500D02*
X151020000Y-82000000D01*
D29*
X151900000Y-94900000D02*
X151900000Y-97200000D01*
X138780000Y-88770000D02*
X145770000Y-88770000D01*
X145770000Y-88770000D02*
X151900000Y-94900000D01*
D31*
X149250000Y-102000000D02*
X149250000Y-103205000D01*
D30*
X158340000Y-104480000D02*
X158340000Y-105500000D01*
X154360000Y-100500000D02*
X158340000Y-104480000D01*
X149712222Y-100500000D02*
X154360000Y-100500000D01*
X146400000Y-100500000D02*
X147262500Y-99637500D01*
X148849722Y-99637500D02*
X149712222Y-100500000D01*
X144042500Y-96554126D02*
X144042500Y-98142500D01*
X144042500Y-98142500D02*
X146400000Y-100500000D01*
X144100000Y-96496626D02*
X144042500Y-96554126D01*
X147262500Y-99637500D02*
X148849722Y-99637500D01*
X144100000Y-94226626D02*
X144100000Y-96496626D01*
D29*
X142196737Y-96736737D02*
X142760000Y-97300000D01*
X142196737Y-94750000D02*
X142196737Y-96736737D01*
X144100000Y-93350000D02*
X140757500Y-90007500D01*
X144100000Y-94226626D02*
X144100000Y-93350000D01*
D30*
X138267410Y-90007500D02*
X140757500Y-90007500D01*
X137542500Y-88257410D02*
X137542500Y-89282590D01*
X138299910Y-87500000D02*
X137542500Y-88257410D01*
X137542500Y-89282590D02*
X138267410Y-90007500D01*
X139260090Y-87500000D02*
X138299910Y-87500000D01*
X140017500Y-86742590D02*
X139260090Y-87500000D01*
X140017500Y-79847500D02*
X140017500Y-86742590D01*
X138780000Y-78610000D02*
X140017500Y-79847500D01*
D29*
X112160000Y-76200000D02*
X114830000Y-73530000D01*
X112160000Y-77400000D02*
X112160000Y-76200000D01*
X110960000Y-77400000D02*
X109950000Y-78410000D01*
X112160000Y-77400000D02*
X110960000Y-77400000D01*
X119500000Y-85500000D02*
X116210000Y-82210000D01*
X119500000Y-90650500D02*
X119500000Y-85500000D01*
X119900000Y-91050500D02*
X119500000Y-90650500D01*
X118570000Y-97213987D02*
X125106013Y-103750000D01*
X126110000Y-103750000D02*
X127860000Y-105500000D01*
X118570000Y-92928625D02*
X118570000Y-97213987D01*
X125106013Y-103750000D02*
X126110000Y-103750000D01*
X118749125Y-92749500D02*
X118570000Y-92928625D01*
X112170000Y-88010000D02*
X112160000Y-88020000D01*
X112170000Y-86250000D02*
X112170000Y-88010000D01*
X121456013Y-91900000D02*
X110700000Y-91900000D01*
X121506013Y-91850000D02*
X121456013Y-91900000D01*
X127375000Y-94281013D02*
X124943987Y-91850000D01*
X127375000Y-102475000D02*
X127375000Y-94281013D01*
X124943987Y-91850000D02*
X121506013Y-91850000D01*
X130400000Y-105500000D02*
X127375000Y-102475000D01*
X110700000Y-91900000D02*
X109950000Y-91150000D01*
X109950000Y-91150000D02*
X109950000Y-78410000D01*
X110080000Y-96720000D02*
X110080000Y-105500000D01*
X113949500Y-92850500D02*
X110080000Y-96720000D01*
X114700000Y-92850500D02*
X113949500Y-92850500D01*
X112500000Y-105380000D02*
X112620000Y-105500000D01*
X112500000Y-101750000D02*
X112500000Y-105380000D01*
X110850000Y-97365051D02*
X110850000Y-100100000D01*
X114515051Y-93700000D02*
X110850000Y-97365051D01*
X110850000Y-100100000D02*
X112500000Y-101750000D01*
X116800000Y-93700000D02*
X114515051Y-93700000D01*
X119000000Y-69651762D02*
X119000000Y-62830000D01*
X117836762Y-70815000D02*
X119000000Y-69651762D01*
X114100101Y-70815000D02*
X117836762Y-70815000D01*
X108545000Y-90725000D02*
X108545000Y-76370101D01*
X119000000Y-62830000D02*
X121000000Y-60830000D01*
X107000000Y-92270000D02*
X108545000Y-90725000D01*
X108545000Y-76370101D02*
X114100101Y-70815000D01*
X109250000Y-76655051D02*
X109250000Y-95000000D01*
X114155051Y-71750000D02*
X109250000Y-76655051D01*
X119500000Y-71750000D02*
X114155051Y-71750000D01*
X119700000Y-71550000D02*
X119500000Y-71750000D01*
X109250000Y-95000000D02*
X107190000Y-95000000D01*
X107190000Y-95000000D02*
X107000000Y-94810000D01*
X119700000Y-64670000D02*
X119700000Y-71550000D01*
X121000000Y-63370000D02*
X119700000Y-64670000D01*
X114830000Y-73530000D02*
X121000000Y-73530000D01*
X119200000Y-57550000D02*
X121000000Y-55750000D01*
X119200000Y-59780000D02*
X119200000Y-57550000D01*
X112210000Y-66770000D02*
X119200000Y-59780000D01*
X109570000Y-69410000D02*
X112210000Y-66770000D01*
X107000000Y-69410000D02*
X109570000Y-69410000D01*
X101550000Y-51793503D02*
X101550000Y-52893503D01*
X101550000Y-52893503D02*
X103096497Y-54440000D01*
X101813503Y-51530000D02*
X101550000Y-51793503D01*
X110745000Y-41455000D02*
X112290000Y-43000000D01*
X103675000Y-41455000D02*
X110745000Y-41455000D01*
X102130000Y-43000000D02*
X103675000Y-41455000D01*
D30*
X102462222Y-40250000D02*
X116250000Y-40250000D01*
X100892500Y-41819722D02*
X102462222Y-40250000D01*
X100892500Y-44237500D02*
X100892500Y-41819722D01*
X103432500Y-44237500D02*
X100892500Y-44237500D01*
X104670000Y-43000000D02*
X103432500Y-44237500D01*
D31*
X99170000Y-72352422D02*
X99170000Y-41580000D01*
X103490000Y-37260000D02*
X132000000Y-37260000D01*
X106387578Y-79570000D02*
X99170000Y-72352422D01*
X107000000Y-79570000D02*
X106387578Y-79570000D01*
X99170000Y-41580000D02*
X103490000Y-37260000D01*
D29*
X156940000Y-70500000D02*
X163000000Y-76560000D01*
X155389500Y-70500000D02*
X156940000Y-70500000D01*
D31*
X148752192Y-58780000D02*
X163000000Y-58780000D01*
X141172192Y-51200000D02*
X148752192Y-58780000D01*
X139310000Y-51200000D02*
X141172192Y-51200000D01*
X146750000Y-47860000D02*
X146750000Y-37260000D01*
X145610000Y-49000000D02*
X146750000Y-47860000D01*
X146750000Y-37260000D02*
X162775610Y-37260000D01*
X132000000Y-37260000D02*
X146750000Y-37260000D01*
X154117422Y-103205000D02*
X149250000Y-103205000D01*
X149250000Y-103205000D02*
X144782578Y-103205000D01*
D32*
X122290000Y-44300000D02*
X128400000Y-44300000D01*
X121000000Y-45590000D02*
X122290000Y-44300000D01*
X110154000Y-45136000D02*
X112290000Y-43000000D01*
X110154000Y-49040000D02*
X110154000Y-45136000D01*
D31*
X163612422Y-66400000D02*
X163000000Y-66400000D01*
X162775610Y-37260000D02*
X165295000Y-39779390D01*
X165295000Y-39779390D02*
X165295000Y-64717422D01*
X165295000Y-64717422D02*
X163612422Y-66400000D01*
X138020000Y-106112422D02*
X138020000Y-105500000D01*
X139702578Y-107795000D02*
X138020000Y-106112422D01*
X149400610Y-107795000D02*
X139702578Y-107795000D01*
X150720000Y-106475610D02*
X149400610Y-107795000D01*
X150720000Y-105500000D02*
X150720000Y-106475610D01*
X143100000Y-104887578D02*
X143100000Y-105500000D01*
X144782578Y-103205000D02*
X143100000Y-104887578D01*
X155800000Y-104887578D02*
X154117422Y-103205000D01*
X155800000Y-105500000D02*
X155800000Y-104887578D01*
X128400000Y-50600000D02*
X132000000Y-47000000D01*
X132000000Y-47000000D02*
X132000000Y-37260000D01*
D32*
X120040000Y-38960000D02*
X123750000Y-38960000D01*
X117780000Y-52220000D02*
X117250000Y-52750000D01*
X117780000Y-49930000D02*
X117780000Y-52220000D01*
X117780000Y-49930000D02*
X117780000Y-49253704D01*
X117780000Y-49253704D02*
X118750000Y-48283704D01*
X118750000Y-40250000D02*
X118750000Y-48283704D01*
D29*
X104890000Y-47915204D02*
X109535204Y-43270000D01*
X104890000Y-48860000D02*
X104890000Y-47915204D01*
X102220000Y-51530000D02*
X104890000Y-48860000D01*
X101813503Y-51530000D02*
X102220000Y-51530000D01*
D32*
X120040000Y-38960000D02*
X118750000Y-40250000D01*
D29*
X106280000Y-54440000D02*
X103096497Y-54440000D01*
D32*
X117000000Y-52500000D02*
X117250000Y-52750000D01*
X102500000Y-52500000D02*
X117000000Y-52500000D01*
D30*
X142080000Y-77002500D02*
X146022500Y-77002500D01*
X140037500Y-74960000D02*
X142080000Y-77002500D01*
X139500000Y-72250000D02*
X140017500Y-72767500D01*
X137565000Y-72250000D02*
X139500000Y-72250000D01*
X140017500Y-72767500D02*
X140017500Y-73960000D01*
X138780000Y-55750000D02*
X137542500Y-56987500D01*
X137542500Y-56987500D02*
X137542500Y-72227500D01*
X137542500Y-72227500D02*
X137565000Y-72250000D01*
D29*
X150500000Y-70500000D02*
X153250000Y-70500000D01*
X148040000Y-65547918D02*
X148080000Y-65587918D01*
X148040000Y-64837918D02*
X148040000Y-65547918D01*
D30*
X141722500Y-72532500D02*
X141682500Y-72492500D01*
X141722500Y-73242500D02*
X141722500Y-72532500D01*
X123825000Y-89000000D02*
X128750000Y-93925000D01*
X136967500Y-75342500D02*
X138780000Y-73530000D01*
X136967500Y-89520762D02*
X136967500Y-75342500D01*
X142196737Y-94750000D02*
X136967500Y-89520762D01*
X159000000Y-80250000D02*
X160390000Y-81640000D01*
X160390000Y-81640000D02*
X163000000Y-81640000D01*
X159100000Y-79100000D02*
X163000000Y-79100000D01*
X159000000Y-79000000D02*
X159100000Y-79100000D01*
D29*
X147000000Y-65000000D02*
X147000000Y-65250000D01*
X142750000Y-60750000D02*
X147000000Y-65000000D01*
D30*
X141682500Y-72492500D02*
X141682500Y-64037000D01*
X141682500Y-64037000D02*
X142469500Y-63250000D01*
X143000000Y-74520000D02*
X141722500Y-73242500D01*
D29*
X152995000Y-77065000D02*
X154560000Y-75500000D01*
X147105000Y-77065000D02*
X152995000Y-77065000D01*
X145560000Y-75520000D02*
X147105000Y-77065000D01*
X141492082Y-58290000D02*
X138780000Y-58290000D01*
X148040000Y-64837918D02*
X141492082Y-58290000D01*
X148080000Y-74520000D02*
X148080000Y-65587918D01*
D30*
X142469500Y-55750000D02*
X138780000Y-55750000D01*
X137607500Y-44287500D02*
X137250000Y-44645000D01*
X139962500Y-44287500D02*
X137607500Y-44287500D01*
X143500000Y-40750000D02*
X139962500Y-44287500D01*
D29*
X142469500Y-63250000D02*
X138900000Y-63250000D01*
X138900000Y-63250000D02*
X138780000Y-63370000D01*
X138860000Y-60750000D02*
X138780000Y-60830000D01*
X142750000Y-60750000D02*
X138860000Y-60750000D01*
X130400000Y-82150000D02*
X130400000Y-95750000D01*
X123000000Y-50831522D02*
X123000000Y-74750000D01*
X121000000Y-48831522D02*
X123000000Y-50831522D01*
X121000000Y-48130000D02*
X121000000Y-48831522D01*
X123000000Y-74750000D02*
X130400000Y-82150000D01*
D31*
X138780000Y-50670000D02*
X139310000Y-51200000D01*
D29*
X116210000Y-82210000D02*
X119810000Y-78610000D01*
X112170000Y-86250000D02*
X116210000Y-82210000D01*
D30*
X126802500Y-106982500D02*
X125320000Y-105500000D01*
X134017500Y-106982500D02*
X126802500Y-106982500D01*
X134242500Y-106757500D02*
X134017500Y-106982500D01*
X134242500Y-104435939D02*
X134242500Y-106757500D01*
X132969162Y-103162601D02*
X134242500Y-104435939D01*
X129837399Y-103162601D02*
X132969162Y-103162601D01*
X128750000Y-102075202D02*
X129837399Y-103162601D01*
X128750000Y-93925000D02*
X128750000Y-102075202D01*
X123825000Y-78895000D02*
X123825000Y-89000000D01*
X121000000Y-76070000D02*
X123825000Y-78895000D01*
X121900000Y-81150000D02*
X121000000Y-81150000D01*
X123250000Y-82500000D02*
X121900000Y-81150000D01*
X123250000Y-89250000D02*
X123250000Y-82500000D01*
X128012500Y-94012500D02*
X123250000Y-89250000D01*
X128012500Y-102150874D02*
X128012500Y-94012500D01*
X129879126Y-104017500D02*
X128012500Y-102150874D01*
X131457500Y-104017500D02*
X129879126Y-104017500D01*
X132940000Y-105500000D02*
X131457500Y-104017500D01*
D29*
X119810000Y-78610000D02*
X121000000Y-78610000D01*
D30*
X117862500Y-53807500D02*
X121000000Y-50670000D01*
X117862500Y-57137500D02*
X117862500Y-53807500D01*
X109412500Y-65587500D02*
X117862500Y-57137500D01*
D29*
X118500000Y-55710000D02*
X121000000Y-53210000D01*
X118500000Y-58000000D02*
X118500000Y-55710000D01*
X113750000Y-62750000D02*
X118500000Y-58000000D01*
X113151561Y-62750000D02*
X113750000Y-62750000D01*
X109031561Y-66870000D02*
X113151561Y-62750000D01*
X107000000Y-66870000D02*
X109031561Y-66870000D01*
D30*
X105517500Y-66232500D02*
X105517500Y-70467500D01*
X109412500Y-65587500D02*
X106162500Y-65587500D01*
X106162500Y-65587500D02*
X105517500Y-66232500D01*
X105517500Y-70467500D02*
X107000000Y-71950000D01*
D29*
X113202082Y-60750000D02*
X111750000Y-60750000D01*
X115350000Y-58602082D02*
X113202082Y-60750000D01*
X115350000Y-56800000D02*
X115350000Y-58602082D01*
X116510000Y-55640000D02*
X115350000Y-56800000D01*
X115310000Y-54440000D02*
X116510000Y-55640000D01*
X106280000Y-54440000D02*
X115310000Y-54440000D01*
X105080000Y-55640000D02*
X106280000Y-54440000D01*
X109535204Y-43270000D02*
X109750000Y-43270000D01*
D31*
X163612422Y-91800000D02*
X163000000Y-91800000D01*
X165295000Y-90117422D02*
X163612422Y-91800000D01*
X165295000Y-70622578D02*
X165295000Y-90117422D01*
X163000000Y-68940000D02*
X163612422Y-68940000D01*
X163612422Y-68940000D02*
X165295000Y-70622578D01*
D29*
X102790000Y-57960000D02*
X102750000Y-58000000D01*
X102790000Y-55640000D02*
X102790000Y-57960000D01*
X114220000Y-57970000D02*
X114500000Y-58250000D01*
X114220000Y-55640000D02*
X114220000Y-57970000D01*
D32*
X110154000Y-49804000D02*
X110154000Y-49040000D01*
X111170000Y-50820000D02*
X110154000Y-49804000D01*
X111170000Y-50820000D02*
X109138000Y-50820000D01*
X109138000Y-50056000D02*
X109138000Y-50820000D01*
X108122000Y-49040000D02*
X109138000Y-50056000D01*
X108122000Y-49040000D02*
X110154000Y-49040000D01*
D31*
X163000000Y-46080000D02*
X163000000Y-48620000D01*
X163000000Y-71480000D02*
X163000000Y-74020000D01*
X163000000Y-96880000D02*
X163000000Y-99420000D01*
X107000000Y-74490000D02*
X107000000Y-77030000D01*
X107000000Y-79570000D02*
X107000000Y-82110000D01*
X154460000Y-49000000D02*
X157000000Y-49000000D01*
X163000000Y-66400000D02*
X163000000Y-68940000D01*
X163000000Y-91800000D02*
X163000000Y-94340000D01*
X143070000Y-49000000D02*
X145610000Y-49000000D01*
G04 #@! TA.AperFunction,Conductor*
G36*
X168003243Y-35750669D02*
G01*
X168133379Y-35757490D01*
X168313908Y-35767628D01*
X168326309Y-35768955D01*
X168474990Y-35792504D01*
X168476245Y-35792709D01*
X168635324Y-35819738D01*
X168646606Y-35822202D01*
X168795635Y-35862134D01*
X168797761Y-35862725D01*
X168949174Y-35906347D01*
X168959260Y-35909729D01*
X169104710Y-35965562D01*
X169107599Y-35966714D01*
X169251768Y-36026430D01*
X169260594Y-36030500D01*
X169400064Y-36101565D01*
X169403748Y-36103521D01*
X169457625Y-36133297D01*
X169539548Y-36178574D01*
X169547061Y-36183081D01*
X169678754Y-36268604D01*
X169682947Y-36271452D01*
X169809147Y-36360996D01*
X169815428Y-36365759D01*
X169937567Y-36464665D01*
X169942158Y-36468571D01*
X170057424Y-36571579D01*
X170062478Y-36576358D01*
X170173640Y-36687520D01*
X170178419Y-36692574D01*
X170281427Y-36807840D01*
X170285333Y-36812431D01*
X170384239Y-36934570D01*
X170389002Y-36940851D01*
X170478546Y-37067051D01*
X170481409Y-37071266D01*
X170566907Y-37202921D01*
X170571430Y-37210460D01*
X170646477Y-37346250D01*
X170648433Y-37349934D01*
X170719498Y-37489404D01*
X170723575Y-37498247D01*
X170783259Y-37642337D01*
X170784462Y-37645353D01*
X170840265Y-37790727D01*
X170843655Y-37800836D01*
X170887258Y-37952185D01*
X170887879Y-37954419D01*
X170927791Y-38103370D01*
X170930264Y-38114694D01*
X170957282Y-38273715D01*
X170957507Y-38275087D01*
X170981040Y-38423666D01*
X170982372Y-38436111D01*
X170992498Y-38616421D01*
X170992523Y-38616884D01*
X170999330Y-38746757D01*
X170999500Y-38753247D01*
X170999500Y-110496753D01*
X170999330Y-110503243D01*
X170992523Y-110633114D01*
X170992498Y-110633577D01*
X170982372Y-110813887D01*
X170981040Y-110826332D01*
X170957507Y-110974911D01*
X170957282Y-110976283D01*
X170930264Y-111135304D01*
X170927791Y-111146628D01*
X170887879Y-111295579D01*
X170887258Y-111297813D01*
X170843655Y-111449162D01*
X170840265Y-111459271D01*
X170784462Y-111604645D01*
X170783259Y-111607661D01*
X170723575Y-111751751D01*
X170719498Y-111760594D01*
X170648433Y-111900064D01*
X170646477Y-111903748D01*
X170571430Y-112039538D01*
X170566897Y-112047094D01*
X170481412Y-112178728D01*
X170478546Y-112182947D01*
X170389002Y-112309147D01*
X170384239Y-112315428D01*
X170285333Y-112437567D01*
X170281427Y-112442158D01*
X170178419Y-112557424D01*
X170173640Y-112562478D01*
X170062478Y-112673640D01*
X170057424Y-112678419D01*
X169942158Y-112781427D01*
X169937567Y-112785333D01*
X169815428Y-112884239D01*
X169809147Y-112889002D01*
X169682947Y-112978546D01*
X169678728Y-112981412D01*
X169547094Y-113066897D01*
X169539538Y-113071430D01*
X169403748Y-113146477D01*
X169400064Y-113148433D01*
X169260594Y-113219498D01*
X169251751Y-113223575D01*
X169107661Y-113283259D01*
X169104645Y-113284462D01*
X168959271Y-113340265D01*
X168949162Y-113343655D01*
X168797813Y-113387258D01*
X168795579Y-113387879D01*
X168646628Y-113427791D01*
X168635304Y-113430264D01*
X168476283Y-113457282D01*
X168474911Y-113457507D01*
X168326332Y-113481040D01*
X168313887Y-113482372D01*
X168133577Y-113492498D01*
X168133114Y-113492523D01*
X168003243Y-113499330D01*
X167996753Y-113499500D01*
X100503247Y-113499500D01*
X100496757Y-113499330D01*
X100366884Y-113492523D01*
X100366421Y-113492498D01*
X100186111Y-113482372D01*
X100173666Y-113481040D01*
X100025087Y-113457507D01*
X100023715Y-113457282D01*
X99864694Y-113430264D01*
X99853370Y-113427791D01*
X99704419Y-113387879D01*
X99702185Y-113387258D01*
X99550836Y-113343655D01*
X99540727Y-113340265D01*
X99395353Y-113284462D01*
X99392337Y-113283259D01*
X99248247Y-113223575D01*
X99239404Y-113219498D01*
X99099934Y-113148433D01*
X99096250Y-113146477D01*
X98960460Y-113071430D01*
X98952921Y-113066907D01*
X98821266Y-112981409D01*
X98817051Y-112978546D01*
X98690851Y-112889002D01*
X98684570Y-112884239D01*
X98562431Y-112785333D01*
X98557840Y-112781427D01*
X98442574Y-112678419D01*
X98437520Y-112673640D01*
X98326358Y-112562478D01*
X98321579Y-112557424D01*
X98218571Y-112442158D01*
X98214665Y-112437567D01*
X98115759Y-112315428D01*
X98110996Y-112309147D01*
X98021452Y-112182947D01*
X98018604Y-112178754D01*
X97933081Y-112047061D01*
X97928568Y-112039538D01*
X97853521Y-111903748D01*
X97851565Y-111900064D01*
X97780500Y-111760594D01*
X97776430Y-111751768D01*
X97716714Y-111607599D01*
X97715562Y-111604710D01*
X97659729Y-111459260D01*
X97656347Y-111449174D01*
X97612725Y-111297761D01*
X97612134Y-111295635D01*
X97572202Y-111146606D01*
X97569738Y-111135324D01*
X97542709Y-110976245D01*
X97542491Y-110974911D01*
X97518955Y-110826309D01*
X97517628Y-110813908D01*
X97507485Y-110633285D01*
X97507476Y-110633114D01*
X97500669Y-110503243D01*
X97500500Y-110496755D01*
X97500500Y-105783220D01*
X101089500Y-105783220D01*
X101104329Y-105957451D01*
X101163114Y-106183220D01*
X101259207Y-106395801D01*
X101376009Y-106568615D01*
X101389847Y-106589088D01*
X101551272Y-106757516D01*
X101738839Y-106896240D01*
X101947153Y-107001270D01*
X102170220Y-107069583D01*
X102401624Y-107099216D01*
X102634707Y-107089314D01*
X102862765Y-107040164D01*
X103079235Y-106953179D01*
X103277891Y-106830862D01*
X103453018Y-106676731D01*
X103599578Y-106495220D01*
X103622375Y-106454410D01*
X103665615Y-106409294D01*
X103725367Y-106390995D01*
X103786455Y-106404160D01*
X103833365Y-106445446D01*
X103930236Y-106588772D01*
X104091603Y-106757139D01*
X104279101Y-106895812D01*
X104487339Y-107000803D01*
X104625000Y-107042961D01*
X104625000Y-103954364D01*
X104597379Y-103960316D01*
X104380994Y-104047267D01*
X104182405Y-104169543D01*
X104007342Y-104323618D01*
X103860839Y-104505057D01*
X103838209Y-104545567D01*
X103794969Y-104590681D01*
X103735218Y-104608979D01*
X103674131Y-104595814D01*
X103627221Y-104554528D01*
X103530153Y-104410912D01*
X103368727Y-104242483D01*
X103181161Y-104103760D01*
X102972847Y-103998730D01*
X102749780Y-103930417D01*
X102749779Y-103930416D01*
X102518376Y-103900784D01*
X102518372Y-103900784D01*
X102285295Y-103910685D01*
X102057232Y-103959836D01*
X101840768Y-104046819D01*
X101642107Y-104169139D01*
X101466980Y-104323270D01*
X101320423Y-104504776D01*
X101206645Y-104708448D01*
X101128925Y-104928418D01*
X101089500Y-105158351D01*
X101089500Y-105783220D01*
X97500500Y-105783220D01*
X97500500Y-97725000D01*
X105650000Y-97725000D01*
X105650000Y-98247824D01*
X105656402Y-98307375D01*
X105706647Y-98442089D01*
X105792811Y-98557188D01*
X105907910Y-98643352D01*
X106042624Y-98693597D01*
X106102176Y-98700000D01*
X106625000Y-98700000D01*
X106625000Y-97725000D01*
X107375000Y-97725000D01*
X107375000Y-98700000D01*
X107897824Y-98700000D01*
X107957375Y-98693597D01*
X108092089Y-98643352D01*
X108207188Y-98557188D01*
X108293352Y-98442089D01*
X108343597Y-98307375D01*
X108350000Y-98247824D01*
X108350000Y-97725000D01*
X107375000Y-97725000D01*
X106625000Y-97725000D01*
X105650000Y-97725000D01*
X97500500Y-97725000D01*
X97500500Y-72866881D01*
X97514642Y-72809372D01*
X97553843Y-72764981D01*
X97609161Y-72743833D01*
X97667978Y-72750753D01*
X97716877Y-72784162D01*
X97744704Y-72836437D01*
X97745937Y-72841303D01*
X97782393Y-72924415D01*
X97784354Y-72929150D01*
X97817344Y-73013697D01*
X97829364Y-73033870D01*
X97836395Y-73047529D01*
X97845824Y-73069025D01*
X97845827Y-73069029D01*
X97895481Y-73145031D01*
X97898153Y-73149312D01*
X97944634Y-73227316D01*
X97959808Y-73245233D01*
X97968991Y-73257547D01*
X97981837Y-73277209D01*
X98043294Y-73343969D01*
X98046686Y-73347810D01*
X98065095Y-73369545D01*
X98085227Y-73389677D01*
X98088776Y-73393375D01*
X98150258Y-73460162D01*
X98168787Y-73474584D01*
X98180307Y-73484757D01*
X105255243Y-80559693D01*
X105265415Y-80571211D01*
X105279839Y-80589743D01*
X105346623Y-80651222D01*
X105350320Y-80654770D01*
X105370452Y-80674902D01*
X105392197Y-80693319D01*
X105396018Y-80696694D01*
X105459482Y-80755116D01*
X105489056Y-80796535D01*
X105499500Y-80846346D01*
X105499500Y-81087975D01*
X105481039Y-81153068D01*
X105476047Y-81161164D01*
X105470185Y-81170668D01*
X105415000Y-81337202D01*
X105404500Y-81439990D01*
X105404500Y-82780008D01*
X105415000Y-82882796D01*
X105470186Y-83049334D01*
X105562288Y-83198657D01*
X105686342Y-83322711D01*
X105848001Y-83422422D01*
X105846186Y-83425364D01*
X105876952Y-83445396D01*
X105906041Y-83501369D01*
X105903829Y-83564410D01*
X105870888Y-83618206D01*
X105742483Y-83741271D01*
X105603760Y-83928838D01*
X105498730Y-84137152D01*
X105431489Y-84356717D01*
X105430417Y-84360220D01*
X105401263Y-84587888D01*
X105400784Y-84591627D01*
X105410685Y-84824704D01*
X105459836Y-85052767D01*
X105540911Y-85254528D01*
X105546821Y-85269235D01*
X105669138Y-85467891D01*
X105795098Y-85611010D01*
X105823270Y-85643019D01*
X106004776Y-85789576D01*
X106045590Y-85812376D01*
X106090706Y-85855616D01*
X106109004Y-85915367D01*
X106095839Y-85976455D01*
X106054553Y-86023365D01*
X105911227Y-86120236D01*
X105742860Y-86281603D01*
X105604187Y-86469101D01*
X105499196Y-86677339D01*
X105457038Y-86815000D01*
X107251000Y-86815000D01*
X107313000Y-86831613D01*
X107358387Y-86877000D01*
X107375000Y-86939000D01*
X107375000Y-87441000D01*
X107358387Y-87503000D01*
X107313000Y-87548387D01*
X107251000Y-87565000D01*
X105454364Y-87565000D01*
X105460316Y-87592620D01*
X105547267Y-87809005D01*
X105669543Y-88007594D01*
X105823618Y-88182657D01*
X106005057Y-88329160D01*
X106045565Y-88351789D01*
X106090680Y-88395029D01*
X106108979Y-88454780D01*
X106095814Y-88515868D01*
X106054529Y-88562778D01*
X105910910Y-88659848D01*
X105742483Y-88821272D01*
X105603760Y-89008838D01*
X105498730Y-89217152D01*
X105430417Y-89440219D01*
X105428177Y-89457711D01*
X105401919Y-89662767D01*
X105400784Y-89671627D01*
X105410685Y-89904704D01*
X105459836Y-90132767D01*
X105546819Y-90349231D01*
X105546821Y-90349235D01*
X105669138Y-90547891D01*
X105807357Y-90704939D01*
X105823270Y-90723019D01*
X106004776Y-90869576D01*
X106045101Y-90892103D01*
X106090217Y-90935343D01*
X106108515Y-90995094D01*
X106095350Y-91056182D01*
X106054064Y-91103092D01*
X105910912Y-91199846D01*
X105742483Y-91361272D01*
X105603760Y-91548838D01*
X105498730Y-91757152D01*
X105430417Y-91980219D01*
X105400784Y-92211627D01*
X105410685Y-92444704D01*
X105459836Y-92672767D01*
X105546236Y-92887780D01*
X105546821Y-92889235D01*
X105662030Y-93076347D01*
X105669139Y-93087892D01*
X105823270Y-93263019D01*
X105862768Y-93294912D01*
X105901095Y-93348174D01*
X105906875Y-93413539D01*
X105878487Y-93472700D01*
X105846007Y-93494345D01*
X105848001Y-93497578D01*
X105686342Y-93597288D01*
X105562288Y-93721342D01*
X105470186Y-93870665D01*
X105415000Y-94037202D01*
X105404500Y-94139990D01*
X105404500Y-95480008D01*
X105415000Y-95582796D01*
X105470186Y-95749334D01*
X105562286Y-95898654D01*
X105686345Y-96022713D01*
X105705204Y-96034345D01*
X105750966Y-96084330D01*
X105763615Y-96150908D01*
X105739374Y-96214193D01*
X105706647Y-96257910D01*
X105656402Y-96392624D01*
X105650000Y-96452176D01*
X105650000Y-96975000D01*
X108350000Y-96975000D01*
X108350000Y-96452176D01*
X108343597Y-96392624D01*
X108293352Y-96257910D01*
X108260626Y-96214195D01*
X108236383Y-96150908D01*
X108249033Y-96084328D01*
X108294794Y-96034345D01*
X108313656Y-96022712D01*
X108437712Y-95898656D01*
X108492762Y-95809404D01*
X108537870Y-95766223D01*
X108598302Y-95750500D01*
X109224554Y-95750500D01*
X109231764Y-95750710D01*
X109234367Y-95750861D01*
X109293935Y-95754331D01*
X109355304Y-95743508D01*
X109362384Y-95742471D01*
X109424255Y-95735241D01*
X109434790Y-95731405D01*
X109455661Y-95725812D01*
X109466711Y-95723865D01*
X109523899Y-95699196D01*
X109530580Y-95696541D01*
X109589117Y-95675237D01*
X109598479Y-95669078D01*
X109617517Y-95658814D01*
X109627804Y-95654377D01*
X109677786Y-95617165D01*
X109683648Y-95613061D01*
X109735696Y-95578830D01*
X109743391Y-95570673D01*
X109759534Y-95556306D01*
X109768530Y-95549610D01*
X109808567Y-95501893D01*
X109813333Y-95496537D01*
X109856092Y-95451218D01*
X109861699Y-95441504D01*
X109874097Y-95423800D01*
X109881302Y-95415214D01*
X109909255Y-95359551D01*
X109912669Y-95353221D01*
X109924333Y-95333019D01*
X109943812Y-95299281D01*
X109947028Y-95288535D01*
X109955010Y-95268448D01*
X109960040Y-95258433D01*
X109974405Y-95197820D01*
X109976271Y-95190860D01*
X109994130Y-95131210D01*
X109994781Y-95120009D01*
X109997916Y-95098620D01*
X110000500Y-95087721D01*
X110000500Y-95025446D01*
X110000710Y-95018236D01*
X110004331Y-94956065D01*
X110002384Y-94945023D01*
X110000500Y-94923490D01*
X110000500Y-92559796D01*
X110019437Y-92493934D01*
X110070465Y-92448188D01*
X110137998Y-92436533D01*
X110201407Y-92462527D01*
X110224542Y-92480819D01*
X110227298Y-92483063D01*
X110284786Y-92531302D01*
X110284788Y-92531303D01*
X110285757Y-92532116D01*
X110302177Y-92542576D01*
X110303321Y-92543109D01*
X110303323Y-92543111D01*
X110371357Y-92574835D01*
X110374456Y-92576335D01*
X110441567Y-92610040D01*
X110442704Y-92610611D01*
X110461084Y-92616998D01*
X110462321Y-92617253D01*
X110462327Y-92617256D01*
X110535862Y-92632439D01*
X110539209Y-92633181D01*
X110612279Y-92650500D01*
X110612281Y-92650500D01*
X110613505Y-92650790D01*
X110632876Y-92652769D01*
X110634140Y-92652732D01*
X110634144Y-92652733D01*
X110709110Y-92650552D01*
X110712716Y-92650500D01*
X112788771Y-92650500D01*
X112845066Y-92664015D01*
X112889089Y-92701615D01*
X112911244Y-92755102D01*
X112906702Y-92812818D01*
X112876452Y-92862181D01*
X109594358Y-96144272D01*
X109580727Y-96156053D01*
X109561467Y-96170392D01*
X109529633Y-96208329D01*
X109522341Y-96216289D01*
X109518408Y-96220222D01*
X109499176Y-96244545D01*
X109496902Y-96247337D01*
X109447894Y-96305744D01*
X109437418Y-96322187D01*
X109405192Y-96391294D01*
X109403622Y-96394536D01*
X109369393Y-96462692D01*
X109362996Y-96481098D01*
X109347573Y-96555788D01*
X109346793Y-96559305D01*
X109329208Y-96633505D01*
X109327229Y-96652878D01*
X109329448Y-96729131D01*
X109329500Y-96732737D01*
X109329500Y-104058373D01*
X109313754Y-104118846D01*
X109270516Y-104163961D01*
X109265399Y-104167112D01*
X109262107Y-104169139D01*
X109086980Y-104323270D01*
X108940423Y-104504777D01*
X108917895Y-104545103D01*
X108874655Y-104590217D01*
X108814904Y-104608515D01*
X108753816Y-104595350D01*
X108706907Y-104554064D01*
X108706595Y-104553603D01*
X108610153Y-104410912D01*
X108448728Y-104242484D01*
X108448725Y-104242482D01*
X108261161Y-104103760D01*
X108052847Y-103998730D01*
X107829780Y-103930417D01*
X107829779Y-103930416D01*
X107598376Y-103900784D01*
X107598372Y-103900784D01*
X107365295Y-103910685D01*
X107137232Y-103959836D01*
X106920768Y-104046819D01*
X106722107Y-104169139D01*
X106546980Y-104323270D01*
X106400423Y-104504776D01*
X106377622Y-104545592D01*
X106334382Y-104590706D01*
X106274631Y-104609004D01*
X106213543Y-104595839D01*
X106166634Y-104554553D01*
X106069763Y-104411227D01*
X105908396Y-104242860D01*
X105720898Y-104104187D01*
X105512660Y-103999196D01*
X105375000Y-103957038D01*
X105375000Y-107045636D01*
X105402620Y-107039683D01*
X105619005Y-106952732D01*
X105817594Y-106830456D01*
X105992657Y-106676381D01*
X106139161Y-106494940D01*
X106161789Y-106454435D01*
X106205028Y-106409319D01*
X106264779Y-106391020D01*
X106325868Y-106404185D01*
X106372778Y-106445471D01*
X106456420Y-106569222D01*
X106469847Y-106589088D01*
X106631272Y-106757516D01*
X106818839Y-106896240D01*
X107027153Y-107001270D01*
X107250220Y-107069583D01*
X107481624Y-107099216D01*
X107714707Y-107089314D01*
X107942765Y-107040164D01*
X108159235Y-106953179D01*
X108357891Y-106830862D01*
X108533018Y-106676731D01*
X108679578Y-106495220D01*
X108702102Y-106454899D01*
X108745342Y-106409783D01*
X108805094Y-106391484D01*
X108866182Y-106404649D01*
X108913092Y-106445935D01*
X108996009Y-106568615D01*
X109009847Y-106589088D01*
X109171272Y-106757516D01*
X109358839Y-106896240D01*
X109567153Y-107001270D01*
X109790220Y-107069583D01*
X110021624Y-107099216D01*
X110254707Y-107089314D01*
X110482765Y-107040164D01*
X110699235Y-106953179D01*
X110897891Y-106830862D01*
X111073018Y-106676731D01*
X111104911Y-106637231D01*
X111158178Y-106598902D01*
X111223547Y-106593126D01*
X111282710Y-106621521D01*
X111304344Y-106653993D01*
X111307578Y-106651999D01*
X111315185Y-106664333D01*
X111315186Y-106664334D01*
X111322833Y-106676732D01*
X111407288Y-106813657D01*
X111531342Y-106937711D01*
X111539933Y-106943010D01*
X111680666Y-107029814D01*
X111792017Y-107066712D01*
X111847202Y-107084999D01*
X111857703Y-107086071D01*
X111949991Y-107095500D01*
X113290008Y-107095499D01*
X113392797Y-107084999D01*
X113559334Y-107029814D01*
X113708656Y-106937712D01*
X113832712Y-106813656D01*
X113844345Y-106794794D01*
X113894328Y-106749033D01*
X113960908Y-106736383D01*
X114024195Y-106760626D01*
X114067910Y-106793352D01*
X114202624Y-106843597D01*
X114262176Y-106850000D01*
X114785000Y-106850000D01*
X115535000Y-106850000D01*
X116057824Y-106850000D01*
X116117375Y-106843597D01*
X116252089Y-106793352D01*
X116367190Y-106707187D01*
X116444392Y-106604058D01*
X116484810Y-106569222D01*
X116536126Y-106554597D01*
X116588837Y-106562891D01*
X116633182Y-106592568D01*
X116758604Y-106723431D01*
X116791272Y-106757516D01*
X116978839Y-106896240D01*
X117187153Y-107001270D01*
X117410220Y-107069583D01*
X117641624Y-107099216D01*
X117874707Y-107089314D01*
X118102765Y-107040164D01*
X118319235Y-106953179D01*
X118517891Y-106830862D01*
X118693018Y-106676731D01*
X118839578Y-106495220D01*
X118862375Y-106454410D01*
X118905615Y-106409294D01*
X118965367Y-106390995D01*
X119026455Y-106404160D01*
X119073365Y-106445446D01*
X119170236Y-106588772D01*
X119331603Y-106757139D01*
X119519101Y-106895812D01*
X119727339Y-107000803D01*
X119865000Y-107042961D01*
X119865000Y-103954364D01*
X119837379Y-103960316D01*
X119620994Y-104047267D01*
X119422405Y-104169543D01*
X119247342Y-104323618D01*
X119100839Y-104505057D01*
X119078209Y-104545567D01*
X119034969Y-104590681D01*
X118975218Y-104608979D01*
X118914131Y-104595814D01*
X118867221Y-104554528D01*
X118770153Y-104410912D01*
X118608727Y-104242483D01*
X118421161Y-104103760D01*
X118212847Y-103998730D01*
X117989780Y-103930417D01*
X117989779Y-103930416D01*
X117758376Y-103900784D01*
X117758372Y-103900784D01*
X117525295Y-103910685D01*
X117297232Y-103959836D01*
X117080768Y-104046819D01*
X116882107Y-104169139D01*
X116706982Y-104323268D01*
X116642670Y-104402917D01*
X116598628Y-104437385D01*
X116543921Y-104448996D01*
X116489675Y-104435388D01*
X116446927Y-104399328D01*
X116367188Y-104292811D01*
X116252089Y-104206647D01*
X116117375Y-104156402D01*
X116057824Y-104150000D01*
X115535000Y-104150000D01*
X115535000Y-106850000D01*
X114785000Y-106850000D01*
X114785000Y-104150000D01*
X114262176Y-104150000D01*
X114202624Y-104156402D01*
X114067910Y-104206647D01*
X114024193Y-104239374D01*
X113960908Y-104263615D01*
X113894330Y-104250966D01*
X113844345Y-104205204D01*
X113832713Y-104186345D01*
X113708654Y-104062286D01*
X113559334Y-103970186D01*
X113392796Y-103915000D01*
X113361898Y-103911844D01*
X113305360Y-103891421D01*
X113265071Y-103846807D01*
X113250500Y-103788486D01*
X113250500Y-101813706D01*
X113251809Y-101795736D01*
X113253189Y-101786314D01*
X113255289Y-101771977D01*
X113250971Y-101722633D01*
X113250500Y-101711827D01*
X113250500Y-101706291D01*
X113248904Y-101692640D01*
X113246897Y-101675471D01*
X113246534Y-101671915D01*
X113245661Y-101661940D01*
X113241200Y-101610941D01*
X113239888Y-101595942D01*
X113235674Y-101576935D01*
X113235241Y-101575745D01*
X113209571Y-101505217D01*
X113208424Y-101501917D01*
X113184814Y-101430665D01*
X113184812Y-101430662D01*
X113184415Y-101429463D01*
X113175929Y-101411936D01*
X113175237Y-101410884D01*
X113175237Y-101410883D01*
X113133994Y-101348176D01*
X113132099Y-101345201D01*
X113092711Y-101281344D01*
X113092047Y-101280267D01*
X113079748Y-101265170D01*
X113024273Y-101212832D01*
X113021686Y-101210319D01*
X112118548Y-100307180D01*
X112088298Y-100257817D01*
X112083756Y-100200101D01*
X112105911Y-100146614D01*
X112149934Y-100109014D01*
X112206229Y-100095499D01*
X112840009Y-100095499D01*
X112891402Y-100090249D01*
X112942797Y-100084999D01*
X113109334Y-100029814D01*
X113258656Y-99937712D01*
X113382712Y-99813656D01*
X113474814Y-99664334D01*
X113474814Y-99664333D01*
X113482422Y-99651999D01*
X113485365Y-99653814D01*
X113505387Y-99623056D01*
X113561361Y-99593960D01*
X113624407Y-99596169D01*
X113678206Y-99629111D01*
X113801272Y-99757516D01*
X113988839Y-99896240D01*
X114197153Y-100001270D01*
X114420220Y-100069583D01*
X114651624Y-100099216D01*
X114884707Y-100089314D01*
X115112765Y-100040164D01*
X115329235Y-99953179D01*
X115527891Y-99830862D01*
X115703018Y-99676731D01*
X115849578Y-99495220D01*
X115872375Y-99454410D01*
X115915615Y-99409294D01*
X115975367Y-99390995D01*
X116036455Y-99404160D01*
X116083365Y-99445446D01*
X116180236Y-99588772D01*
X116341603Y-99757139D01*
X116529101Y-99895812D01*
X116737339Y-100000803D01*
X116875000Y-100042961D01*
X116875000Y-96954364D01*
X116847379Y-96960316D01*
X116630994Y-97047267D01*
X116432405Y-97169543D01*
X116257342Y-97323618D01*
X116110839Y-97505057D01*
X116088209Y-97545567D01*
X116044969Y-97590681D01*
X115985218Y-97608979D01*
X115924131Y-97595814D01*
X115877221Y-97554528D01*
X115780153Y-97410912D01*
X115642333Y-97267113D01*
X115618728Y-97242484D01*
X115520105Y-97169543D01*
X115431161Y-97103760D01*
X115222847Y-96998730D01*
X114999780Y-96930417D01*
X114999779Y-96930416D01*
X114768376Y-96900784D01*
X114768372Y-96900784D01*
X114535295Y-96910685D01*
X114307232Y-96959836D01*
X114090768Y-97046819D01*
X113892107Y-97169139D01*
X113716981Y-97323269D01*
X113685086Y-97362770D01*
X113631810Y-97401101D01*
X113566432Y-97406869D01*
X113507267Y-97378459D01*
X113485657Y-97346005D01*
X113482422Y-97348001D01*
X113467167Y-97323269D01*
X113417339Y-97242483D01*
X113382711Y-97186342D01*
X113258657Y-97062288D01*
X113109334Y-96970186D01*
X112942797Y-96915000D01*
X112840009Y-96904500D01*
X112671280Y-96904500D01*
X112614985Y-96890985D01*
X112570962Y-96853385D01*
X112548807Y-96799898D01*
X112553349Y-96742182D01*
X112583599Y-96692819D01*
X113599699Y-95676720D01*
X114789599Y-94486819D01*
X114829828Y-94459939D01*
X114877281Y-94450500D01*
X116260663Y-94450500D01*
X116298982Y-94456569D01*
X116333550Y-94474183D01*
X116347271Y-94484152D01*
X116520197Y-94561144D01*
X116705352Y-94600500D01*
X116705354Y-94600500D01*
X116894646Y-94600500D01*
X116894648Y-94600500D01*
X117018083Y-94574262D01*
X117079803Y-94561144D01*
X117252730Y-94484151D01*
X117359743Y-94406402D01*
X117405870Y-94372889D01*
X117532533Y-94232216D01*
X117588113Y-94135949D01*
X117633500Y-94090562D01*
X117695500Y-94073949D01*
X117757500Y-94090562D01*
X117802887Y-94135949D01*
X117819500Y-94197949D01*
X117819500Y-96848944D01*
X117806223Y-96904769D01*
X117769234Y-96948640D01*
X117716456Y-96971160D01*
X117659190Y-96967509D01*
X117625000Y-96957038D01*
X117625000Y-100045636D01*
X117652620Y-100039683D01*
X117869005Y-99952732D01*
X118067594Y-99830456D01*
X118242657Y-99676381D01*
X118389160Y-99494942D01*
X118502896Y-99291344D01*
X118580588Y-99071455D01*
X118620000Y-98841606D01*
X118620000Y-98624717D01*
X118633515Y-98568422D01*
X118671115Y-98524399D01*
X118724602Y-98502244D01*
X118782318Y-98506786D01*
X118831681Y-98537036D01*
X124388274Y-104093628D01*
X124421022Y-104151765D01*
X124418898Y-104218456D01*
X124382517Y-104274391D01*
X124343871Y-104308404D01*
X124326983Y-104323268D01*
X124180421Y-104504780D01*
X124157895Y-104545103D01*
X124114655Y-104590217D01*
X124054904Y-104608515D01*
X123993816Y-104595350D01*
X123946907Y-104554064D01*
X123946595Y-104553603D01*
X123850153Y-104410912D01*
X123688728Y-104242484D01*
X123688725Y-104242482D01*
X123501161Y-104103760D01*
X123292847Y-103998730D01*
X123069780Y-103930417D01*
X123069779Y-103930416D01*
X122838376Y-103900784D01*
X122838372Y-103900784D01*
X122605295Y-103910685D01*
X122377232Y-103959836D01*
X122160768Y-104046819D01*
X121962107Y-104169139D01*
X121786980Y-104323270D01*
X121640423Y-104504776D01*
X121617622Y-104545592D01*
X121574382Y-104590706D01*
X121514631Y-104609004D01*
X121453543Y-104595839D01*
X121406634Y-104554553D01*
X121309763Y-104411227D01*
X121148396Y-104242860D01*
X120960898Y-104104187D01*
X120752660Y-103999196D01*
X120615000Y-103957038D01*
X120615000Y-107045636D01*
X120642620Y-107039683D01*
X120859005Y-106952732D01*
X121057594Y-106830456D01*
X121232657Y-106676381D01*
X121379161Y-106494940D01*
X121401789Y-106454435D01*
X121445028Y-106409319D01*
X121504779Y-106391020D01*
X121565868Y-106404185D01*
X121612778Y-106445471D01*
X121696420Y-106569222D01*
X121709847Y-106589088D01*
X121871272Y-106757516D01*
X122058839Y-106896240D01*
X122267153Y-107001270D01*
X122490220Y-107069583D01*
X122721624Y-107099216D01*
X122954707Y-107089314D01*
X123182765Y-107040164D01*
X123399235Y-106953179D01*
X123597891Y-106830862D01*
X123773018Y-106676731D01*
X123919578Y-106495220D01*
X123942102Y-106454899D01*
X123985342Y-106409783D01*
X124045094Y-106391484D01*
X124106182Y-106404649D01*
X124153092Y-106445935D01*
X124236009Y-106568615D01*
X124249847Y-106589088D01*
X124411272Y-106757516D01*
X124598839Y-106896240D01*
X124807153Y-107001270D01*
X125030220Y-107069583D01*
X125261624Y-107099216D01*
X125494707Y-107089314D01*
X125722765Y-107040164D01*
X125764056Y-107023571D01*
X125811166Y-107014633D01*
X125858147Y-107024237D01*
X125897970Y-107050949D01*
X126298662Y-107451641D01*
X126303782Y-107457079D01*
X126342921Y-107501258D01*
X126362378Y-107514688D01*
X126391479Y-107534775D01*
X126397512Y-107539214D01*
X126443958Y-107575602D01*
X126443959Y-107575602D01*
X126443960Y-107575603D01*
X126452847Y-107579603D01*
X126472394Y-107590627D01*
X126480422Y-107596168D01*
X126535591Y-107617090D01*
X126542501Y-107619952D01*
X126596315Y-107644173D01*
X126605915Y-107645932D01*
X126627526Y-107651956D01*
X126636642Y-107655414D01*
X126695223Y-107662527D01*
X126702569Y-107663644D01*
X126760654Y-107674289D01*
X126819556Y-107670726D01*
X126827044Y-107670500D01*
X133992962Y-107670500D01*
X134000449Y-107670726D01*
X134003069Y-107670884D01*
X134059346Y-107674289D01*
X134117415Y-107663646D01*
X134124770Y-107662526D01*
X134183358Y-107655414D01*
X134192470Y-107651957D01*
X134214098Y-107645928D01*
X134223685Y-107644172D01*
X134277496Y-107619953D01*
X134284390Y-107617097D01*
X134339578Y-107596168D01*
X134347604Y-107590627D01*
X134367157Y-107579600D01*
X134376043Y-107575601D01*
X134422516Y-107539190D01*
X134428489Y-107534796D01*
X134477079Y-107501258D01*
X134516218Y-107457076D01*
X134521320Y-107451657D01*
X134711657Y-107261320D01*
X134717076Y-107256218D01*
X134761258Y-107217079D01*
X134794796Y-107168489D01*
X134799190Y-107162516D01*
X134835601Y-107116043D01*
X134839600Y-107107156D01*
X134850627Y-107087604D01*
X134856168Y-107079578D01*
X134877097Y-107024390D01*
X134879959Y-107017482D01*
X134881242Y-107014633D01*
X134904172Y-106963685D01*
X134905928Y-106954098D01*
X134911974Y-106932425D01*
X134912907Y-106929966D01*
X134939427Y-106888070D01*
X134980242Y-106859914D01*
X135028826Y-106850000D01*
X135105000Y-106850000D01*
X135105000Y-104150000D01*
X134948449Y-104150000D01*
X134902152Y-104141033D01*
X134862551Y-104115429D01*
X134836888Y-104079039D01*
X134835601Y-104077396D01*
X134799205Y-104030940D01*
X134794785Y-104024932D01*
X134761258Y-103976360D01*
X134717079Y-103937221D01*
X134711641Y-103932101D01*
X133473006Y-102693466D01*
X133467872Y-102688013D01*
X133467004Y-102687033D01*
X133428741Y-102643843D01*
X133380170Y-102610316D01*
X133374151Y-102605887D01*
X133327705Y-102569500D01*
X133318811Y-102565496D01*
X133299271Y-102554476D01*
X133291239Y-102548932D01*
X133236063Y-102528006D01*
X133229146Y-102525141D01*
X133175345Y-102500927D01*
X133165749Y-102499169D01*
X133144136Y-102493144D01*
X133135020Y-102489687D01*
X133076453Y-102482575D01*
X133069050Y-102481448D01*
X133011009Y-102470812D01*
X133011008Y-102470812D01*
X132977730Y-102472825D01*
X132952111Y-102474375D01*
X132944624Y-102474601D01*
X130173740Y-102474601D01*
X130126287Y-102465162D01*
X130086059Y-102438282D01*
X129474319Y-101826542D01*
X129447439Y-101786314D01*
X129438000Y-101738861D01*
X129438000Y-97374500D01*
X129454613Y-97312500D01*
X129500000Y-97267113D01*
X129562000Y-97250500D01*
X131447823Y-97250499D01*
X131447872Y-97250499D01*
X131507483Y-97244091D01*
X131642331Y-97193796D01*
X131757546Y-97107546D01*
X131843796Y-96992331D01*
X131894091Y-96857483D01*
X131900500Y-96797873D01*
X131900500Y-96125000D01*
X134050000Y-96125000D01*
X134050000Y-96647824D01*
X134056402Y-96707375D01*
X134106647Y-96842089D01*
X134192811Y-96957188D01*
X134307910Y-97043352D01*
X134442624Y-97093597D01*
X134502176Y-97100000D01*
X135025000Y-97100000D01*
X135025000Y-96125000D01*
X134050000Y-96125000D01*
X131900500Y-96125000D01*
X131900499Y-95375000D01*
X134050000Y-95375000D01*
X135025000Y-95375000D01*
X135025000Y-94400000D01*
X135775000Y-94400000D01*
X135775000Y-97100000D01*
X136297824Y-97100000D01*
X136357375Y-97093597D01*
X136492089Y-97043352D01*
X136492707Y-97042889D01*
X137237440Y-97042889D01*
X137395393Y-97128368D01*
X137630506Y-97209083D01*
X137875707Y-97250000D01*
X138124293Y-97250000D01*
X138369493Y-97209083D01*
X138604603Y-97128369D01*
X138762558Y-97042888D01*
X138000000Y-96280330D01*
X137237440Y-97042888D01*
X137237440Y-97042889D01*
X136492707Y-97042889D01*
X136607188Y-96957188D01*
X136693352Y-96842088D01*
X136743597Y-96707376D01*
X136747080Y-96674968D01*
X136747080Y-96674967D01*
X136733572Y-96661459D01*
X136701478Y-96605872D01*
X136701478Y-96541684D01*
X136733572Y-96486097D01*
X137469669Y-95750001D01*
X138530330Y-95750001D01*
X139293290Y-96512961D01*
X139323730Y-96466369D01*
X139423586Y-96238721D01*
X139484613Y-95997732D01*
X139505141Y-95750000D01*
X139484613Y-95502267D01*
X139423586Y-95261278D01*
X139323732Y-95033632D01*
X139293291Y-94987038D01*
X138530330Y-95750000D01*
X138530330Y-95750001D01*
X137469669Y-95750001D01*
X137469670Y-95750000D01*
X136733571Y-95013901D01*
X136701477Y-94958313D01*
X136701478Y-94894125D01*
X136733572Y-94838537D01*
X136747080Y-94825028D01*
X136743597Y-94792623D01*
X136693352Y-94657911D01*
X136607188Y-94542811D01*
X136492707Y-94457110D01*
X137237439Y-94457110D01*
X138000000Y-95219670D01*
X138000001Y-95219670D01*
X138762559Y-94457110D01*
X138604606Y-94371631D01*
X138369493Y-94290916D01*
X138124293Y-94250000D01*
X137875707Y-94250000D01*
X137630506Y-94290916D01*
X137395392Y-94371631D01*
X137237439Y-94457110D01*
X136492707Y-94457110D01*
X136492089Y-94456647D01*
X136357375Y-94406402D01*
X136297824Y-94400000D01*
X135775000Y-94400000D01*
X135025000Y-94400000D01*
X134502176Y-94400000D01*
X134442624Y-94406402D01*
X134307910Y-94456647D01*
X134192811Y-94542811D01*
X134106647Y-94657910D01*
X134056402Y-94792624D01*
X134050000Y-94852176D01*
X134050000Y-95375000D01*
X131900499Y-95375000D01*
X131900499Y-94702128D01*
X131894091Y-94642517D01*
X131843796Y-94507669D01*
X131757546Y-94392454D01*
X131642331Y-94306204D01*
X131507483Y-94255909D01*
X131447873Y-94249500D01*
X131447869Y-94249500D01*
X131274500Y-94249500D01*
X131212500Y-94232887D01*
X131167113Y-94187500D01*
X131150500Y-94125500D01*
X131150500Y-82213706D01*
X131151809Y-82195736D01*
X131152869Y-82188495D01*
X131155289Y-82171977D01*
X131150971Y-82122633D01*
X131150500Y-82111827D01*
X131150500Y-82106291D01*
X131150499Y-82106290D01*
X131146897Y-82075471D01*
X131146534Y-82071915D01*
X131139888Y-81995942D01*
X131135674Y-81976935D01*
X131135241Y-81975745D01*
X131109571Y-81905217D01*
X131108424Y-81901917D01*
X131084814Y-81830665D01*
X131084812Y-81830662D01*
X131084415Y-81829463D01*
X131075929Y-81811936D01*
X131075237Y-81810884D01*
X131075237Y-81810883D01*
X131033994Y-81748176D01*
X131032099Y-81745201D01*
X130992711Y-81681344D01*
X130992047Y-81680267D01*
X130979748Y-81665170D01*
X130924272Y-81612831D01*
X130921685Y-81610318D01*
X123786819Y-74475451D01*
X123759939Y-74435223D01*
X123750500Y-74387770D01*
X123750500Y-50895228D01*
X123751809Y-50877258D01*
X123752338Y-50873640D01*
X123755289Y-50853499D01*
X123750971Y-50804155D01*
X123750500Y-50793349D01*
X123750500Y-50787814D01*
X123750500Y-50787813D01*
X123746893Y-50756958D01*
X123746537Y-50753478D01*
X123739998Y-50678725D01*
X123739888Y-50677465D01*
X123735674Y-50658457D01*
X123717229Y-50607780D01*
X123709567Y-50586729D01*
X123708399Y-50583366D01*
X123684814Y-50512188D01*
X123684811Y-50512184D01*
X123684416Y-50510990D01*
X123675927Y-50493454D01*
X123671001Y-50485964D01*
X123651049Y-50428349D01*
X123660970Y-50368189D01*
X123698365Y-50320030D01*
X123754190Y-50295518D01*
X123969614Y-50259571D01*
X124204810Y-50178828D01*
X124423509Y-50060474D01*
X124619744Y-49907738D01*
X124788164Y-49724785D01*
X124924173Y-49516607D01*
X125024063Y-49288881D01*
X125085108Y-49047821D01*
X125093022Y-48952318D01*
X125100500Y-48862073D01*
X125100500Y-46537927D01*
X125088904Y-46397989D01*
X125085108Y-46352179D01*
X125024063Y-46111119D01*
X124924173Y-45883393D01*
X124788164Y-45675215D01*
X124619744Y-45492262D01*
X124508663Y-45405804D01*
X124423514Y-45339529D01*
X124423510Y-45339526D01*
X124423509Y-45339526D01*
X124204810Y-45221172D01*
X124204806Y-45221170D01*
X124204805Y-45221170D01*
X123969615Y-45140429D01*
X123724335Y-45099500D01*
X123475665Y-45099500D01*
X123230384Y-45140429D01*
X122995194Y-45221170D01*
X122776485Y-45339529D01*
X122580259Y-45492259D01*
X122565230Y-45508585D01*
X122516196Y-45541202D01*
X122457645Y-45547519D01*
X122402783Y-45526111D01*
X122363984Y-45481808D01*
X122350000Y-45424602D01*
X122350000Y-44692176D01*
X122348153Y-44675000D01*
X125842808Y-44675000D01*
X125921630Y-44904605D01*
X126039946Y-45123233D01*
X126192631Y-45319403D01*
X126375522Y-45487766D01*
X126583634Y-45623733D01*
X126811278Y-45723586D01*
X127052267Y-45784613D01*
X127237951Y-45800000D01*
X128025000Y-45800000D01*
X128025000Y-44675000D01*
X125842808Y-44675000D01*
X122348153Y-44675000D01*
X122343597Y-44632624D01*
X122293352Y-44497910D01*
X122207188Y-44382811D01*
X122092088Y-44296647D01*
X121960528Y-44247577D01*
X121910149Y-44212597D01*
X121882696Y-44157752D01*
X121884885Y-44096460D01*
X121916178Y-44043717D01*
X122034897Y-43924999D01*
X125842807Y-43924999D01*
X125842808Y-43925000D01*
X128025000Y-43925000D01*
X128025000Y-42800000D01*
X127237951Y-42800000D01*
X127052267Y-42815386D01*
X126811278Y-42876413D01*
X126583634Y-42976266D01*
X126375522Y-43112233D01*
X126192631Y-43280596D01*
X126039946Y-43476766D01*
X125921630Y-43695394D01*
X125842807Y-43924999D01*
X122034897Y-43924999D01*
X122038495Y-43921401D01*
X122174035Y-43727830D01*
X122273903Y-43513663D01*
X122335063Y-43285408D01*
X122355659Y-43050000D01*
X122354886Y-43041170D01*
X122335063Y-42814592D01*
X122331153Y-42800000D01*
X122273903Y-42586337D01*
X122174035Y-42372171D01*
X122038495Y-42178599D01*
X121871401Y-42011505D01*
X121685839Y-41881573D01*
X121646975Y-41837257D01*
X121632964Y-41780000D01*
X121646975Y-41722743D01*
X121685839Y-41678426D01*
X121871401Y-41548495D01*
X122038495Y-41381401D01*
X122174035Y-41187830D01*
X122273903Y-40973663D01*
X122335063Y-40745408D01*
X122355659Y-40510000D01*
X122335063Y-40274592D01*
X122292728Y-40116593D01*
X122290886Y-40060309D01*
X122314127Y-40009014D01*
X122357659Y-39973288D01*
X122412503Y-39960500D01*
X123800740Y-39960500D01*
X123800742Y-39960500D01*
X123952438Y-39945074D01*
X124146588Y-39884159D01*
X124324502Y-39785409D01*
X124478895Y-39652866D01*
X124603448Y-39491958D01*
X124693060Y-39309271D01*
X124744063Y-39112285D01*
X124754369Y-38909064D01*
X124753482Y-38903274D01*
X124756836Y-38850388D01*
X124781966Y-38803730D01*
X124824281Y-38771825D01*
X124876052Y-38760500D01*
X130375500Y-38760500D01*
X130437500Y-38777113D01*
X130482887Y-38822500D01*
X130499500Y-38884500D01*
X130499500Y-42932115D01*
X130482023Y-42995589D01*
X130434517Y-43041170D01*
X130370376Y-43056009D01*
X130307678Y-43035924D01*
X130216365Y-42976266D01*
X129988721Y-42876413D01*
X129747732Y-42815386D01*
X129562049Y-42800000D01*
X128775000Y-42800000D01*
X128775000Y-45800000D01*
X129562049Y-45800000D01*
X129747732Y-45784613D01*
X129988721Y-45723586D01*
X130216365Y-45623733D01*
X130307678Y-45564076D01*
X130370376Y-45543991D01*
X130434517Y-45558830D01*
X130482023Y-45604411D01*
X130499500Y-45667885D01*
X130499500Y-46327110D01*
X130490061Y-46374563D01*
X130463181Y-46414791D01*
X127814789Y-49063181D01*
X127774561Y-49090061D01*
X127727108Y-49099500D01*
X126052130Y-49099500D01*
X125992515Y-49105909D01*
X125857669Y-49156204D01*
X125742454Y-49242454D01*
X125656204Y-49357668D01*
X125607324Y-49488721D01*
X125605909Y-49492517D01*
X125600170Y-49545902D01*
X125599500Y-49552130D01*
X125599500Y-51647869D01*
X125605909Y-51707484D01*
X125616206Y-51735090D01*
X125656204Y-51842331D01*
X125742454Y-51957546D01*
X125857669Y-52043796D01*
X125992517Y-52094091D01*
X126052127Y-52100500D01*
X128299129Y-52100499D01*
X128314467Y-52101450D01*
X128337779Y-52104357D01*
X128337780Y-52104356D01*
X128337781Y-52104357D01*
X128428485Y-52100605D01*
X128433610Y-52100499D01*
X130747870Y-52100499D01*
X130747872Y-52100499D01*
X130807483Y-52094091D01*
X130942331Y-52043796D01*
X131057546Y-51957546D01*
X131143796Y-51842331D01*
X131194091Y-51707483D01*
X131200500Y-51647873D01*
X131200499Y-49972888D01*
X131209938Y-49925436D01*
X131236815Y-49885211D01*
X132989701Y-48132325D01*
X133001203Y-48122167D01*
X133019744Y-48107738D01*
X133081235Y-48040939D01*
X133084713Y-48037314D01*
X133104902Y-48017126D01*
X133123318Y-47995380D01*
X133126669Y-47991584D01*
X133188164Y-47924785D01*
X133201006Y-47905126D01*
X133210188Y-47892813D01*
X133225366Y-47874894D01*
X133271848Y-47796884D01*
X133274505Y-47792627D01*
X133324173Y-47716607D01*
X133333604Y-47695105D01*
X133340635Y-47681445D01*
X133352656Y-47661273D01*
X133385663Y-47576679D01*
X133387600Y-47572005D01*
X133424063Y-47488881D01*
X133429826Y-47466117D01*
X133434516Y-47451483D01*
X133436820Y-47445578D01*
X133443050Y-47429614D01*
X133461678Y-47340772D01*
X133462824Y-47335816D01*
X133485108Y-47247821D01*
X133486131Y-47235479D01*
X133487047Y-47224426D01*
X133489263Y-47209217D01*
X133494081Y-47186238D01*
X133497831Y-47095550D01*
X133498149Y-47090428D01*
X133500500Y-47062068D01*
X133500500Y-47033596D01*
X133500606Y-47028471D01*
X133500864Y-47022246D01*
X133504357Y-46937779D01*
X133501452Y-46914473D01*
X133500500Y-46899135D01*
X133500500Y-44645000D01*
X136344540Y-44645000D01*
X136364326Y-44833257D01*
X136422820Y-45013284D01*
X136517466Y-45177216D01*
X136644129Y-45317889D01*
X136797269Y-45429151D01*
X136970197Y-45506144D01*
X137155352Y-45545500D01*
X137155354Y-45545500D01*
X137344646Y-45545500D01*
X137344648Y-45545500D01*
X137468083Y-45519262D01*
X137529803Y-45506144D01*
X137702730Y-45429151D01*
X137855871Y-45317888D01*
X137911570Y-45256027D01*
X137919866Y-45250000D01*
X141994858Y-45250000D01*
X142015386Y-45497732D01*
X142076413Y-45738721D01*
X142176267Y-45966366D01*
X142206708Y-46012960D01*
X142969670Y-45250001D01*
X142969670Y-45250000D01*
X144030330Y-45250000D01*
X144793290Y-46012961D01*
X144823730Y-45966369D01*
X144923586Y-45738721D01*
X144984613Y-45497732D01*
X145001924Y-45288830D01*
X145015554Y-45250000D01*
X145001924Y-45211170D01*
X144984613Y-45002267D01*
X144923586Y-44761278D01*
X144823732Y-44533632D01*
X144793291Y-44487038D01*
X144030330Y-45250000D01*
X142969670Y-45250000D01*
X142969670Y-45249999D01*
X142206708Y-44487037D01*
X142206707Y-44487038D01*
X142176268Y-44533630D01*
X142076413Y-44761278D01*
X142015386Y-45002267D01*
X141994858Y-45250000D01*
X137919866Y-45250000D01*
X137953285Y-45225720D01*
X138003720Y-45215000D01*
X140130000Y-45215000D01*
X140130000Y-45046754D01*
X140138967Y-45000458D01*
X140164569Y-44960858D01*
X140203106Y-44933680D01*
X140207610Y-44931653D01*
X140222491Y-44924954D01*
X140229390Y-44922097D01*
X140284578Y-44901168D01*
X140292604Y-44895627D01*
X140312157Y-44884600D01*
X140321043Y-44880601D01*
X140367516Y-44844190D01*
X140373489Y-44839796D01*
X140422079Y-44806258D01*
X140461218Y-44762076D01*
X140466320Y-44756657D01*
X141265867Y-43957110D01*
X142737439Y-43957110D01*
X143500000Y-44719670D01*
X143500001Y-44719670D01*
X144262559Y-43957110D01*
X144104606Y-43871631D01*
X143869493Y-43790916D01*
X143624293Y-43750000D01*
X143375707Y-43750000D01*
X143130506Y-43790916D01*
X142895392Y-43871631D01*
X142737439Y-43957110D01*
X141265867Y-43957110D01*
X142988571Y-42234406D01*
X143048303Y-42201279D01*
X143116514Y-42204808D01*
X143130386Y-42209571D01*
X143130388Y-42209571D01*
X143130390Y-42209572D01*
X143375665Y-42250500D01*
X143624335Y-42250500D01*
X143869614Y-42209571D01*
X144104810Y-42128828D01*
X144323509Y-42010474D01*
X144519744Y-41857738D01*
X144688164Y-41674785D01*
X144824173Y-41466607D01*
X144924063Y-41238881D01*
X144985108Y-40997821D01*
X145001075Y-40805128D01*
X145001924Y-40794888D01*
X145017680Y-40750000D01*
X145001924Y-40705112D01*
X144985108Y-40502183D01*
X144985108Y-40502179D01*
X144924063Y-40261119D01*
X144824173Y-40033393D01*
X144688164Y-39825215D01*
X144519744Y-39642262D01*
X144458945Y-39594940D01*
X144323514Y-39489529D01*
X144323510Y-39489526D01*
X144323509Y-39489526D01*
X144104810Y-39371172D01*
X144104806Y-39371170D01*
X144104805Y-39371170D01*
X143869615Y-39290429D01*
X143624335Y-39249500D01*
X143375665Y-39249500D01*
X143130384Y-39290429D01*
X142895194Y-39371170D01*
X142676485Y-39489529D01*
X142480259Y-39642259D01*
X142480256Y-39642261D01*
X142480256Y-39642262D01*
X142311836Y-39825215D01*
X142285897Y-39864918D01*
X142175825Y-40033395D01*
X142097502Y-40211955D01*
X142075937Y-40261119D01*
X142039258Y-40405962D01*
X142014891Y-40502183D01*
X141994356Y-40750000D01*
X142014891Y-40997816D01*
X142014891Y-40997819D01*
X142014892Y-40997821D01*
X142046604Y-41123050D01*
X142051003Y-41140420D01*
X142050348Y-41203778D01*
X142018478Y-41258541D01*
X140331041Y-42945978D01*
X140270198Y-42979358D01*
X140200949Y-42974819D01*
X140144984Y-42933783D01*
X140119832Y-42869103D01*
X140115063Y-42814592D01*
X140111153Y-42800000D01*
X140053903Y-42586337D01*
X139954035Y-42372171D01*
X139818495Y-42178599D01*
X139651401Y-42011505D01*
X139465839Y-41881573D01*
X139426975Y-41837257D01*
X139412964Y-41780000D01*
X139426975Y-41722743D01*
X139465839Y-41678426D01*
X139651401Y-41548495D01*
X139818495Y-41381401D01*
X139954035Y-41187830D01*
X140053903Y-40973663D01*
X140115063Y-40745408D01*
X140135659Y-40510000D01*
X140115063Y-40274592D01*
X140053903Y-40046337D01*
X139954035Y-39832171D01*
X139818495Y-39638599D01*
X139651401Y-39471505D01*
X139457830Y-39335965D01*
X139243663Y-39236097D01*
X139136526Y-39207390D01*
X139015407Y-39174936D01*
X138780000Y-39154340D01*
X138544592Y-39174936D01*
X138316336Y-39236097D01*
X138102170Y-39335965D01*
X137908598Y-39471505D01*
X137741505Y-39638598D01*
X137605965Y-39832170D01*
X137506097Y-40046336D01*
X137444936Y-40274592D01*
X137424340Y-40510000D01*
X137444936Y-40745407D01*
X137482311Y-40884891D01*
X137506097Y-40973663D01*
X137605965Y-41187830D01*
X137741505Y-41381401D01*
X137908599Y-41548495D01*
X138094160Y-41678426D01*
X138133024Y-41722743D01*
X138147035Y-41780000D01*
X138133024Y-41837257D01*
X138094158Y-41881575D01*
X137910072Y-42010474D01*
X137908595Y-42011508D01*
X137741505Y-42178598D01*
X137605965Y-42372170D01*
X137506097Y-42586336D01*
X137444936Y-42814592D01*
X137424340Y-43049999D01*
X137444936Y-43285407D01*
X137495051Y-43472441D01*
X137494146Y-43539830D01*
X137458127Y-43596793D01*
X137414416Y-43618259D01*
X137415042Y-43619649D01*
X137347505Y-43650044D01*
X137340587Y-43652910D01*
X137285419Y-43673832D01*
X137277385Y-43679378D01*
X137257849Y-43690396D01*
X137248957Y-43694398D01*
X137218652Y-43718141D01*
X137167960Y-43741820D01*
X136970197Y-43783855D01*
X136797269Y-43860848D01*
X136644129Y-43972110D01*
X136517466Y-44112783D01*
X136422820Y-44276715D01*
X136364326Y-44456742D01*
X136344540Y-44645000D01*
X133500500Y-44645000D01*
X133500500Y-38884500D01*
X133517113Y-38822500D01*
X133562500Y-38777113D01*
X133624500Y-38760500D01*
X145125500Y-38760500D01*
X145187500Y-38777113D01*
X145232887Y-38822500D01*
X145249500Y-38884500D01*
X145249500Y-40694872D01*
X145235134Y-40750000D01*
X145249500Y-40805128D01*
X145249500Y-45200930D01*
X145236713Y-45250000D01*
X145249500Y-45299070D01*
X145249500Y-47187111D01*
X145240061Y-47234564D01*
X145213181Y-47274792D01*
X145024791Y-47463181D01*
X144984563Y-47490061D01*
X144937110Y-47499500D01*
X142945663Y-47499500D01*
X142889293Y-47508905D01*
X142879127Y-47510172D01*
X142822180Y-47514891D01*
X142766787Y-47528918D01*
X142756762Y-47531020D01*
X142700388Y-47540428D01*
X142646318Y-47558989D01*
X142636502Y-47561911D01*
X142581119Y-47575937D01*
X142528791Y-47598890D01*
X142519244Y-47602615D01*
X142465190Y-47621171D01*
X142414928Y-47648372D01*
X142405722Y-47652872D01*
X142353393Y-47675825D01*
X142305561Y-47707075D01*
X142296763Y-47712318D01*
X142246489Y-47739526D01*
X142201395Y-47774624D01*
X142193059Y-47780576D01*
X142145217Y-47811834D01*
X142103176Y-47850535D01*
X142095358Y-47857156D01*
X142050258Y-47892259D01*
X142038403Y-47905137D01*
X142011544Y-47934312D01*
X142004312Y-47941544D01*
X141991507Y-47953333D01*
X141962259Y-47980258D01*
X141927156Y-48025358D01*
X141920535Y-48033176D01*
X141881834Y-48075217D01*
X141850576Y-48123059D01*
X141844624Y-48131395D01*
X141809526Y-48176489D01*
X141782318Y-48226763D01*
X141777075Y-48235561D01*
X141745825Y-48283393D01*
X141722872Y-48335722D01*
X141718372Y-48344928D01*
X141691171Y-48395190D01*
X141672615Y-48449244D01*
X141668890Y-48458791D01*
X141645937Y-48511119D01*
X141631911Y-48566502D01*
X141628989Y-48576318D01*
X141610428Y-48630388D01*
X141601020Y-48686762D01*
X141598918Y-48696787D01*
X141584891Y-48752180D01*
X141580172Y-48809127D01*
X141578905Y-48819293D01*
X141569500Y-48875663D01*
X141569500Y-48932810D01*
X141569076Y-48943051D01*
X141564356Y-49000000D01*
X141569076Y-49056949D01*
X141569500Y-49067190D01*
X141569500Y-49124337D01*
X141578905Y-49180704D01*
X141580172Y-49190871D01*
X141584891Y-49247819D01*
X141598918Y-49303213D01*
X141601020Y-49313238D01*
X141610428Y-49369611D01*
X141628983Y-49423661D01*
X141631906Y-49433479D01*
X141645896Y-49488721D01*
X141645937Y-49488881D01*
X141651505Y-49501575D01*
X141668893Y-49541216D01*
X141672618Y-49550763D01*
X141683525Y-49582535D01*
X141687860Y-49646990D01*
X141659187Y-49704879D01*
X141605288Y-49740489D01*
X141540792Y-49744157D01*
X141512983Y-49738325D01*
X141507995Y-49737171D01*
X141420011Y-49714891D01*
X141396613Y-49712952D01*
X141381415Y-49710738D01*
X141358429Y-49705919D01*
X141333286Y-49704879D01*
X141267751Y-49702168D01*
X141262640Y-49701851D01*
X141239200Y-49699909D01*
X141234259Y-49699500D01*
X141234258Y-49699500D01*
X141205788Y-49699500D01*
X141200665Y-49699394D01*
X141196893Y-49699238D01*
X141109972Y-49695642D01*
X141086665Y-49698548D01*
X141071327Y-49699500D01*
X139982890Y-49699500D01*
X139935437Y-49690061D01*
X139895211Y-49663183D01*
X139797126Y-49565098D01*
X139654894Y-49444634D01*
X139651731Y-49442749D01*
X139604641Y-49414689D01*
X139561446Y-49371395D01*
X139544199Y-49312722D01*
X139557093Y-49252940D01*
X139596990Y-49206593D01*
X139651401Y-49168495D01*
X139818495Y-49001401D01*
X139954035Y-48807830D01*
X140053903Y-48593663D01*
X140115063Y-48365408D01*
X140135659Y-48130000D01*
X140115063Y-47894592D01*
X140053903Y-47666337D01*
X139954035Y-47452171D01*
X139818495Y-47258599D01*
X139696181Y-47136285D01*
X139664885Y-47083539D01*
X139662696Y-47022246D01*
X139690149Y-46967401D01*
X139740528Y-46932422D01*
X139872089Y-46883352D01*
X139987188Y-46797188D01*
X140073352Y-46682089D01*
X140123597Y-46547375D01*
X140124079Y-46542889D01*
X142737440Y-46542889D01*
X142895393Y-46628368D01*
X143130506Y-46709083D01*
X143375707Y-46750000D01*
X143624293Y-46750000D01*
X143869493Y-46709083D01*
X144104603Y-46628369D01*
X144262558Y-46542888D01*
X143500000Y-45780330D01*
X142737440Y-46542888D01*
X142737440Y-46542889D01*
X140124079Y-46542889D01*
X140130000Y-46487824D01*
X140130000Y-45965000D01*
X137430000Y-45965000D01*
X137430000Y-46487824D01*
X137436402Y-46547375D01*
X137486647Y-46682089D01*
X137572811Y-46797188D01*
X137687911Y-46883352D01*
X137819471Y-46932422D01*
X137869850Y-46967401D01*
X137897303Y-47022246D01*
X137895114Y-47083539D01*
X137863819Y-47136285D01*
X137741503Y-47258601D01*
X137605965Y-47452170D01*
X137506097Y-47666336D01*
X137444936Y-47894592D01*
X137424340Y-48130000D01*
X137444936Y-48365407D01*
X137480403Y-48497770D01*
X137506097Y-48593663D01*
X137605965Y-48807830D01*
X137741505Y-49001401D01*
X137908599Y-49168495D01*
X137962912Y-49206525D01*
X138001645Y-49250590D01*
X138015786Y-49307529D01*
X138002168Y-49364597D01*
X137963841Y-49409016D01*
X137806901Y-49521069D01*
X137631069Y-49696901D01*
X137486571Y-49899283D01*
X137377355Y-50122687D01*
X137306401Y-50361017D01*
X137275642Y-50607780D01*
X137281667Y-50753439D01*
X137285919Y-50856237D01*
X137302678Y-50936162D01*
X137336951Y-51099616D01*
X137427342Y-51331270D01*
X137427344Y-51331274D01*
X137554634Y-51544894D01*
X137641849Y-51647869D01*
X137675103Y-51687132D01*
X137951661Y-51963690D01*
X137980502Y-52008960D01*
X137987508Y-52062177D01*
X137971368Y-52113370D01*
X137935105Y-52152945D01*
X137908597Y-52171506D01*
X137741505Y-52338598D01*
X137605965Y-52532170D01*
X137506097Y-52746336D01*
X137444936Y-52974592D01*
X137424340Y-53210000D01*
X137444936Y-53445407D01*
X137476985Y-53565016D01*
X137506097Y-53673663D01*
X137605965Y-53887830D01*
X137741505Y-54081401D01*
X137908599Y-54248495D01*
X138094160Y-54378426D01*
X138133024Y-54422743D01*
X138147035Y-54480000D01*
X138133024Y-54537257D01*
X138094158Y-54581575D01*
X137935002Y-54693018D01*
X137908595Y-54711508D01*
X137741505Y-54878598D01*
X137605965Y-55072170D01*
X137506097Y-55286336D01*
X137444936Y-55514592D01*
X137424340Y-55749999D01*
X137444936Y-55985407D01*
X137453177Y-56016162D01*
X137453177Y-56080349D01*
X137421083Y-56135936D01*
X137073364Y-56483655D01*
X137067912Y-56488787D01*
X137023743Y-56527918D01*
X136990218Y-56576486D01*
X136985783Y-56582513D01*
X136949399Y-56628956D01*
X136945396Y-56637850D01*
X136934378Y-56657385D01*
X136928833Y-56665418D01*
X136907903Y-56720604D01*
X136905038Y-56727520D01*
X136880826Y-56781315D01*
X136879068Y-56790912D01*
X136873044Y-56812521D01*
X136869586Y-56821638D01*
X136862474Y-56880208D01*
X136861347Y-56887609D01*
X136850710Y-56945651D01*
X136854274Y-57004551D01*
X136854500Y-57012038D01*
X136854500Y-72202962D01*
X136854274Y-72210449D01*
X136850711Y-72269347D01*
X136861347Y-72327388D01*
X136862474Y-72334791D01*
X136869586Y-72393358D01*
X136873043Y-72402474D01*
X136879068Y-72424087D01*
X136880826Y-72433683D01*
X136905040Y-72487484D01*
X136907905Y-72494401D01*
X136928831Y-72549577D01*
X136934375Y-72557609D01*
X136945395Y-72577149D01*
X136949399Y-72586043D01*
X136985786Y-72632489D01*
X136990217Y-72638510D01*
X137022514Y-72685301D01*
X137023742Y-72687079D01*
X137043734Y-72704791D01*
X137061437Y-72720474D01*
X137072023Y-72731061D01*
X137105418Y-72768756D01*
X137105421Y-72768758D01*
X137153986Y-72802279D01*
X137160004Y-72806708D01*
X137204160Y-72841303D01*
X137206457Y-72843102D01*
X137215346Y-72847102D01*
X137234893Y-72858126D01*
X137242922Y-72863668D01*
X137298132Y-72884606D01*
X137304991Y-72887448D01*
X137358815Y-72911672D01*
X137368402Y-72913428D01*
X137390027Y-72919456D01*
X137399142Y-72922914D01*
X137413224Y-72928255D01*
X137412890Y-72929133D01*
X137462266Y-72950366D01*
X137501336Y-73008204D01*
X137502976Y-73077982D01*
X137444936Y-73294592D01*
X137424340Y-73529999D01*
X137444936Y-73765407D01*
X137453177Y-73796162D01*
X137453177Y-73860349D01*
X137421083Y-73915936D01*
X136498364Y-74838655D01*
X136492912Y-74843787D01*
X136448743Y-74882918D01*
X136415218Y-74931486D01*
X136410783Y-74937513D01*
X136374399Y-74983956D01*
X136370396Y-74992850D01*
X136359378Y-75012385D01*
X136353833Y-75020418D01*
X136332903Y-75075604D01*
X136330038Y-75082520D01*
X136305826Y-75136315D01*
X136304068Y-75145912D01*
X136298044Y-75167521D01*
X136294586Y-75176638D01*
X136287474Y-75235208D01*
X136286347Y-75242609D01*
X136275710Y-75300651D01*
X136279274Y-75359551D01*
X136279500Y-75367038D01*
X136279500Y-89496224D01*
X136279274Y-89503711D01*
X136275711Y-89562609D01*
X136286347Y-89620650D01*
X136287474Y-89628053D01*
X136294586Y-89686620D01*
X136298043Y-89695736D01*
X136304068Y-89717349D01*
X136305826Y-89726945D01*
X136330040Y-89780746D01*
X136332905Y-89787663D01*
X136353831Y-89842839D01*
X136359375Y-89850871D01*
X136370395Y-89870411D01*
X136374399Y-89879305D01*
X136410786Y-89925751D01*
X136415215Y-89931770D01*
X136448742Y-89980341D01*
X136471696Y-90000676D01*
X136492912Y-90019472D01*
X136498365Y-90024606D01*
X141409918Y-94936160D01*
X141436798Y-94976388D01*
X141446237Y-95023841D01*
X141446237Y-96142662D01*
X141439943Y-96181666D01*
X141400000Y-96302202D01*
X141389500Y-96404990D01*
X141389500Y-98195008D01*
X141400000Y-98297796D01*
X141455186Y-98464334D01*
X141547288Y-98613657D01*
X141671342Y-98737711D01*
X141684191Y-98745636D01*
X141820666Y-98829814D01*
X141932016Y-98866712D01*
X141987202Y-98884999D01*
X141997703Y-98886071D01*
X142089991Y-98895500D01*
X143430008Y-98895499D01*
X143532797Y-98884999D01*
X143669922Y-98839559D01*
X143737521Y-98836608D01*
X143796606Y-98869585D01*
X145854440Y-100927419D01*
X145972581Y-101045560D01*
X146002053Y-101063376D01*
X146014356Y-101071868D01*
X146041457Y-101093101D01*
X146072848Y-101107229D01*
X146086102Y-101114186D01*
X146115562Y-101131995D01*
X146148424Y-101142235D01*
X146162424Y-101147544D01*
X146193814Y-101161672D01*
X146227678Y-101167877D01*
X146242199Y-101171456D01*
X146275074Y-101181700D01*
X146309431Y-101183778D01*
X146324294Y-101185582D01*
X146358154Y-101191788D01*
X146392521Y-101189709D01*
X146407464Y-101189709D01*
X146441846Y-101191789D01*
X146475714Y-101185581D01*
X146490570Y-101183777D01*
X146524926Y-101181700D01*
X146557781Y-101171461D01*
X146572326Y-101167876D01*
X146606185Y-101161672D01*
X146637573Y-101147544D01*
X146651577Y-101142234D01*
X146652752Y-101141868D01*
X146684438Y-101131995D01*
X146713904Y-101114181D01*
X146727155Y-101107226D01*
X146758543Y-101093101D01*
X146785653Y-101071861D01*
X146797961Y-101063366D01*
X146827419Y-101045559D01*
X146846267Y-101026709D01*
X146846272Y-101026706D01*
X146857060Y-101015917D01*
X146857063Y-101015916D01*
X147511160Y-100361818D01*
X147551388Y-100334939D01*
X147598841Y-100325500D01*
X148513381Y-100325500D01*
X148560834Y-100334939D01*
X148601062Y-100361819D01*
X148667251Y-100428008D01*
X148697261Y-100476640D01*
X148702275Y-100533566D01*
X148681227Y-100586695D01*
X148638588Y-100624743D01*
X148426490Y-100739526D01*
X148230259Y-100892259D01*
X148230256Y-100892261D01*
X148230256Y-100892262D01*
X148072741Y-101063369D01*
X148061837Y-101075214D01*
X147925825Y-101283395D01*
X147825938Y-101511115D01*
X147825936Y-101511119D01*
X147825937Y-101511119D01*
X147800657Y-101610943D01*
X147776170Y-101659330D01*
X147733373Y-101692640D01*
X147680453Y-101704500D01*
X144883443Y-101704500D01*
X144868105Y-101703548D01*
X144844797Y-101700642D01*
X144757738Y-101704243D01*
X144754104Y-101704394D01*
X144748982Y-101704500D01*
X144720511Y-101704500D01*
X144716352Y-101704844D01*
X144692128Y-101706851D01*
X144687018Y-101707168D01*
X144596340Y-101710919D01*
X144596341Y-101710919D01*
X144573354Y-101715738D01*
X144558157Y-101717952D01*
X144534758Y-101719891D01*
X144446793Y-101742166D01*
X144441803Y-101743320D01*
X144352963Y-101761949D01*
X144331079Y-101770488D01*
X144316452Y-101775174D01*
X144293694Y-101780937D01*
X144210601Y-101817385D01*
X144205869Y-101819346D01*
X144121301Y-101852345D01*
X144101125Y-101864367D01*
X144087473Y-101871394D01*
X144065974Y-101880825D01*
X143989988Y-101930468D01*
X143985643Y-101933180D01*
X143907682Y-101979635D01*
X143889761Y-101994813D01*
X143877446Y-102003995D01*
X143857793Y-102016835D01*
X143791027Y-102078297D01*
X143787188Y-102081687D01*
X143765455Y-102100094D01*
X143745329Y-102120220D01*
X143741634Y-102123765D01*
X143674839Y-102185255D01*
X143660410Y-102203793D01*
X143650241Y-102215308D01*
X142110306Y-103755242D01*
X142098793Y-103765410D01*
X142080254Y-103779840D01*
X142018775Y-103846623D01*
X142015232Y-103850317D01*
X141995093Y-103870456D01*
X141976687Y-103892188D01*
X141973299Y-103896025D01*
X141911833Y-103962796D01*
X141898995Y-103982446D01*
X141889813Y-103994761D01*
X141874636Y-104012680D01*
X141828174Y-104090652D01*
X141825462Y-104094995D01*
X141775826Y-104170970D01*
X141766396Y-104192469D01*
X141759368Y-104206123D01*
X141747345Y-104226301D01*
X141732660Y-104263934D01*
X141696779Y-104313903D01*
X141641299Y-104340480D01*
X141579873Y-104337121D01*
X141527621Y-104304655D01*
X141468396Y-104242860D01*
X141280898Y-104104187D01*
X141072660Y-103999196D01*
X140935000Y-103957038D01*
X140935000Y-105751000D01*
X140918387Y-105813000D01*
X140873000Y-105858387D01*
X140811000Y-105875000D01*
X140309000Y-105875000D01*
X140247000Y-105858387D01*
X140201613Y-105813000D01*
X140185000Y-105751000D01*
X140185000Y-103954364D01*
X140157379Y-103960316D01*
X139940994Y-104047267D01*
X139742405Y-104169543D01*
X139567342Y-104323618D01*
X139420839Y-104505057D01*
X139399638Y-104543009D01*
X139360303Y-104585617D01*
X139305896Y-104605681D01*
X139248315Y-104598813D01*
X139200156Y-104566516D01*
X139188263Y-104553597D01*
X139176768Y-104539063D01*
X139090153Y-104410912D01*
X138928728Y-104242484D01*
X138928725Y-104242482D01*
X138741161Y-104103760D01*
X138532847Y-103998730D01*
X138309780Y-103930417D01*
X138309779Y-103930416D01*
X138078376Y-103900784D01*
X138078372Y-103900784D01*
X137845295Y-103910685D01*
X137617232Y-103959836D01*
X137400768Y-104046819D01*
X137202107Y-104169139D01*
X137026982Y-104323268D01*
X136962670Y-104402917D01*
X136918628Y-104437385D01*
X136863921Y-104448996D01*
X136809675Y-104435388D01*
X136766927Y-104399328D01*
X136687188Y-104292811D01*
X136572089Y-104206647D01*
X136437375Y-104156402D01*
X136377824Y-104150000D01*
X135855000Y-104150000D01*
X135855000Y-106850000D01*
X136377824Y-106850000D01*
X136437375Y-106843597D01*
X136559932Y-106797886D01*
X136614743Y-106790600D01*
X136667272Y-106807864D01*
X136707074Y-106846246D01*
X136745463Y-106905004D01*
X136748153Y-106909313D01*
X136794634Y-106987316D01*
X136809808Y-107005233D01*
X136818991Y-107017547D01*
X136831837Y-107037209D01*
X136893294Y-107103969D01*
X136896686Y-107107810D01*
X136915095Y-107129545D01*
X136935227Y-107149677D01*
X136938776Y-107153375D01*
X137000258Y-107220162D01*
X137018787Y-107234584D01*
X137030307Y-107244757D01*
X138570243Y-108784692D01*
X138580408Y-108796202D01*
X138594840Y-108814744D01*
X138661634Y-108876232D01*
X138665334Y-108879783D01*
X138685447Y-108899897D01*
X138707178Y-108918302D01*
X138711019Y-108921694D01*
X138777793Y-108983164D01*
X138797451Y-108996006D01*
X138809762Y-109005187D01*
X138827684Y-109020366D01*
X138905656Y-109066827D01*
X138909985Y-109069529D01*
X138985971Y-109119173D01*
X139007484Y-109128609D01*
X139021127Y-109135633D01*
X139041305Y-109147656D01*
X139125880Y-109180657D01*
X139130563Y-109182596D01*
X139213697Y-109219063D01*
X139236454Y-109224825D01*
X139251089Y-109229514D01*
X139251092Y-109229515D01*
X139272964Y-109238050D01*
X139361804Y-109256678D01*
X139366771Y-109257827D01*
X139454757Y-109280108D01*
X139463211Y-109280808D01*
X139478151Y-109282047D01*
X139493359Y-109284262D01*
X139516341Y-109289081D01*
X139607030Y-109292831D01*
X139612135Y-109293148D01*
X139633598Y-109294927D01*
X139640510Y-109295500D01*
X139640511Y-109295500D01*
X139668982Y-109295500D01*
X139674104Y-109295605D01*
X139694561Y-109296452D01*
X139764797Y-109299357D01*
X139764797Y-109299356D01*
X139764799Y-109299357D01*
X139788104Y-109296452D01*
X139803443Y-109295500D01*
X149299745Y-109295500D01*
X149315083Y-109296452D01*
X149338389Y-109299357D01*
X149338389Y-109299356D01*
X149338390Y-109299357D01*
X149408627Y-109296452D01*
X149429083Y-109295605D01*
X149434206Y-109295500D01*
X149462678Y-109295500D01*
X149468146Y-109295046D01*
X149491054Y-109293147D01*
X149496153Y-109292831D01*
X149586847Y-109289081D01*
X149609819Y-109284263D01*
X149625023Y-109282047D01*
X149648431Y-109280108D01*
X149736448Y-109257818D01*
X149741364Y-109256680D01*
X149830224Y-109238049D01*
X149852106Y-109229510D01*
X149866726Y-109224827D01*
X149889491Y-109219063D01*
X149972618Y-109182599D01*
X149977309Y-109180656D01*
X150061884Y-109147656D01*
X150082066Y-109135628D01*
X150095711Y-109128605D01*
X150117217Y-109119173D01*
X150193203Y-109069528D01*
X150197526Y-109066830D01*
X150275504Y-109020366D01*
X150293423Y-109005188D01*
X150305736Y-108996006D01*
X150325395Y-108983164D01*
X150392194Y-108921669D01*
X150395990Y-108918318D01*
X150417736Y-108899902D01*
X150437924Y-108879713D01*
X150441553Y-108876232D01*
X150508348Y-108814744D01*
X150522777Y-108796203D01*
X150532935Y-108784701D01*
X151709701Y-107607935D01*
X151721203Y-107597777D01*
X151739744Y-107583348D01*
X151801235Y-107516549D01*
X151804713Y-107512924D01*
X151824902Y-107492736D01*
X151843318Y-107470990D01*
X151846669Y-107467194D01*
X151908164Y-107400395D01*
X151921006Y-107380736D01*
X151930188Y-107368423D01*
X151945366Y-107350504D01*
X151991830Y-107272526D01*
X151994533Y-107268196D01*
X151999014Y-107261337D01*
X152044173Y-107192217D01*
X152053605Y-107170711D01*
X152060628Y-107157066D01*
X152072656Y-107136884D01*
X152105656Y-107052309D01*
X152107599Y-107047618D01*
X152144063Y-106964491D01*
X152149827Y-106941726D01*
X152154510Y-106927106D01*
X152163049Y-106905224D01*
X152175574Y-106845488D01*
X152202647Y-106790400D01*
X152252828Y-106755045D01*
X152313817Y-106748091D01*
X152370668Y-106771240D01*
X152539101Y-106895812D01*
X152747339Y-107000803D01*
X152885000Y-107042961D01*
X152885000Y-105249000D01*
X152901613Y-105187000D01*
X152947000Y-105141613D01*
X153009000Y-105125000D01*
X153511000Y-105125000D01*
X153573000Y-105141613D01*
X153618387Y-105187000D01*
X153635000Y-105249000D01*
X153635000Y-107045636D01*
X153662620Y-107039683D01*
X153879005Y-106952732D01*
X154077594Y-106830456D01*
X154252657Y-106676381D01*
X154399161Y-106494940D01*
X154420360Y-106456993D01*
X154459694Y-106414383D01*
X154514102Y-106394318D01*
X154571683Y-106401186D01*
X154619845Y-106433485D01*
X154631730Y-106446396D01*
X154643234Y-106460940D01*
X154716009Y-106568615D01*
X154729847Y-106589088D01*
X154891272Y-106757516D01*
X155078839Y-106896240D01*
X155287153Y-107001270D01*
X155510220Y-107069583D01*
X155741624Y-107099216D01*
X155974707Y-107089314D01*
X156202765Y-107040164D01*
X156419235Y-106953179D01*
X156617891Y-106830862D01*
X156793018Y-106676731D01*
X156939578Y-106495220D01*
X156957538Y-106463067D01*
X156974558Y-106439563D01*
X156980381Y-106433238D01*
X157026081Y-106401884D01*
X157080880Y-106393571D01*
X157133827Y-106409964D01*
X157174343Y-106447787D01*
X157257673Y-106571076D01*
X157269847Y-106589088D01*
X157431272Y-106757516D01*
X157618839Y-106896240D01*
X157827153Y-107001270D01*
X158050220Y-107069583D01*
X158281624Y-107099216D01*
X158514707Y-107089314D01*
X158742765Y-107040164D01*
X158959235Y-106953179D01*
X159157891Y-106830862D01*
X159333018Y-106676731D01*
X159479578Y-106495220D01*
X159502102Y-106454899D01*
X159545342Y-106409783D01*
X159605094Y-106391484D01*
X159666182Y-106404649D01*
X159713092Y-106445935D01*
X159796009Y-106568615D01*
X159809847Y-106589088D01*
X159971272Y-106757516D01*
X160158839Y-106896240D01*
X160367153Y-107001270D01*
X160590220Y-107069583D01*
X160821624Y-107099216D01*
X161054707Y-107089314D01*
X161282765Y-107040164D01*
X161499235Y-106953179D01*
X161697891Y-106830862D01*
X161873018Y-106676731D01*
X162019578Y-106495220D01*
X162042102Y-106454899D01*
X162085342Y-106409783D01*
X162145094Y-106391484D01*
X162206182Y-106404649D01*
X162253092Y-106445935D01*
X162336009Y-106568615D01*
X162349847Y-106589088D01*
X162511272Y-106757516D01*
X162698839Y-106896240D01*
X162907153Y-107001270D01*
X163130220Y-107069583D01*
X163361624Y-107099216D01*
X163594707Y-107089314D01*
X163822765Y-107040164D01*
X164039235Y-106953179D01*
X164237891Y-106830862D01*
X164413018Y-106676731D01*
X164444911Y-106637231D01*
X164498178Y-106598902D01*
X164563547Y-106593126D01*
X164622710Y-106621521D01*
X164644344Y-106653993D01*
X164647578Y-106651999D01*
X164655185Y-106664333D01*
X164655186Y-106664334D01*
X164662833Y-106676732D01*
X164747288Y-106813657D01*
X164871342Y-106937711D01*
X164879933Y-106943010D01*
X165020666Y-107029814D01*
X165132017Y-107066712D01*
X165187202Y-107084999D01*
X165197703Y-107086071D01*
X165289991Y-107095500D01*
X166630008Y-107095499D01*
X166732797Y-107084999D01*
X166899334Y-107029814D01*
X167048656Y-106937712D01*
X167172712Y-106813656D01*
X167184345Y-106794794D01*
X167234328Y-106749033D01*
X167300908Y-106736383D01*
X167364195Y-106760626D01*
X167407910Y-106793352D01*
X167542624Y-106843597D01*
X167602176Y-106850000D01*
X168125000Y-106850000D01*
X168125000Y-105875000D01*
X168875000Y-105875000D01*
X168875000Y-106850000D01*
X169397824Y-106850000D01*
X169457375Y-106843597D01*
X169592089Y-106793352D01*
X169707188Y-106707188D01*
X169793352Y-106592089D01*
X169843597Y-106457375D01*
X169850000Y-106397824D01*
X169850000Y-105875000D01*
X168875000Y-105875000D01*
X168125000Y-105875000D01*
X168125000Y-104150000D01*
X168875000Y-104150000D01*
X168875000Y-105125000D01*
X169850000Y-105125000D01*
X169850000Y-104602176D01*
X169843597Y-104542624D01*
X169793352Y-104407910D01*
X169707188Y-104292811D01*
X169592089Y-104206647D01*
X169457375Y-104156402D01*
X169397824Y-104150000D01*
X168875000Y-104150000D01*
X168125000Y-104150000D01*
X167602176Y-104150000D01*
X167542624Y-104156402D01*
X167407910Y-104206647D01*
X167364193Y-104239374D01*
X167300908Y-104263615D01*
X167234330Y-104250966D01*
X167184345Y-104205204D01*
X167172713Y-104186345D01*
X167048654Y-104062286D01*
X166899334Y-103970186D01*
X166732797Y-103915000D01*
X166630009Y-103904500D01*
X165289991Y-103904500D01*
X165187203Y-103915000D01*
X165020665Y-103970186D01*
X164871342Y-104062288D01*
X164747288Y-104186342D01*
X164669017Y-104313242D01*
X164657222Y-104332366D01*
X164647578Y-104348001D01*
X164644637Y-104346187D01*
X164624574Y-104376978D01*
X164568605Y-104406047D01*
X164505576Y-104403825D01*
X164451792Y-104370887D01*
X164418035Y-104335666D01*
X164328728Y-104242484D01*
X164328725Y-104242482D01*
X164141161Y-104103760D01*
X163932847Y-103998730D01*
X163709780Y-103930417D01*
X163709779Y-103930416D01*
X163478376Y-103900784D01*
X163478372Y-103900784D01*
X163245295Y-103910685D01*
X163133630Y-103934751D01*
X163017235Y-103959836D01*
X163017233Y-103959836D01*
X163017232Y-103959837D01*
X162975942Y-103976428D01*
X162928831Y-103985366D01*
X162881851Y-103975761D01*
X162842029Y-103949050D01*
X162441344Y-103548365D01*
X162436210Y-103542912D01*
X162435342Y-103541932D01*
X162397079Y-103498742D01*
X162348508Y-103465215D01*
X162342489Y-103460786D01*
X162296043Y-103424399D01*
X162287149Y-103420395D01*
X162267609Y-103409375D01*
X162259577Y-103403831D01*
X162204401Y-103382905D01*
X162197484Y-103380040D01*
X162143683Y-103355826D01*
X162134087Y-103354068D01*
X162112474Y-103348043D01*
X162103358Y-103344586D01*
X162044791Y-103337474D01*
X162037388Y-103336347D01*
X161979347Y-103325711D01*
X161979346Y-103325711D01*
X161946068Y-103327724D01*
X161920449Y-103329274D01*
X161912962Y-103329500D01*
X160953840Y-103329500D01*
X160906387Y-103320061D01*
X160866159Y-103293181D01*
X157367979Y-99795000D01*
X161454364Y-99795000D01*
X161460316Y-99822620D01*
X161547267Y-100039005D01*
X161669543Y-100237594D01*
X161823618Y-100412657D01*
X162005057Y-100559160D01*
X162208653Y-100672895D01*
X162428545Y-100750588D01*
X162625000Y-100784274D01*
X162625000Y-99795000D01*
X163375000Y-99795000D01*
X163375000Y-100782186D01*
X163457364Y-100775176D01*
X163683054Y-100716410D01*
X163895557Y-100620353D01*
X164088772Y-100489763D01*
X164257139Y-100328396D01*
X164395812Y-100140898D01*
X164500803Y-99932660D01*
X164542962Y-99795000D01*
X163375000Y-99795000D01*
X162625000Y-99795000D01*
X161454364Y-99795000D01*
X157367979Y-99795000D01*
X156540364Y-98967385D01*
X156508044Y-98910941D01*
X156508741Y-98845903D01*
X156542262Y-98790165D01*
X156556440Y-98782444D01*
X156554735Y-98780138D01*
X156605000Y-98742962D01*
X156605000Y-97575000D01*
X157355000Y-97575000D01*
X157355000Y-98745636D01*
X157382620Y-98739683D01*
X157599005Y-98652732D01*
X157797594Y-98530456D01*
X157972657Y-98376381D01*
X158119160Y-98194942D01*
X158232895Y-97991346D01*
X158310588Y-97771454D01*
X158344274Y-97575000D01*
X157355000Y-97575000D01*
X156605000Y-97575000D01*
X156605000Y-97255000D01*
X161454364Y-97255000D01*
X161460316Y-97282620D01*
X161547267Y-97499005D01*
X161669543Y-97697594D01*
X161823618Y-97872657D01*
X162005057Y-98019160D01*
X162046054Y-98042062D01*
X162091169Y-98085301D01*
X162109468Y-98145053D01*
X162096303Y-98206141D01*
X162055017Y-98253051D01*
X161911227Y-98350236D01*
X161742860Y-98511603D01*
X161604187Y-98699101D01*
X161499196Y-98907339D01*
X161457038Y-99045000D01*
X162625000Y-99045000D01*
X162625000Y-97255000D01*
X163375000Y-97255000D01*
X163375000Y-99045000D01*
X164545636Y-99045000D01*
X164539683Y-99017379D01*
X164452732Y-98800994D01*
X164330456Y-98602405D01*
X164176381Y-98427342D01*
X163994940Y-98280838D01*
X163953945Y-98257937D01*
X163908829Y-98214697D01*
X163890530Y-98154946D01*
X163903695Y-98093857D01*
X163944982Y-98046947D01*
X164088773Y-97949761D01*
X164257139Y-97788396D01*
X164395812Y-97600898D01*
X164500803Y-97392660D01*
X164542962Y-97255000D01*
X163375000Y-97255000D01*
X162625000Y-97255000D01*
X161454364Y-97255000D01*
X156605000Y-97255000D01*
X156605000Y-95657038D01*
X157355000Y-95657038D01*
X157355000Y-96825000D01*
X158342186Y-96825000D01*
X158335176Y-96742635D01*
X158276410Y-96516945D01*
X158180353Y-96304442D01*
X158049763Y-96111227D01*
X157888396Y-95942860D01*
X157700898Y-95804187D01*
X157492660Y-95699196D01*
X157355000Y-95657038D01*
X156605000Y-95657038D01*
X156605000Y-95654364D01*
X156577379Y-95660316D01*
X156360994Y-95747267D01*
X156162405Y-95869543D01*
X155987342Y-96023618D01*
X155840839Y-96205057D01*
X155818209Y-96245567D01*
X155774969Y-96290681D01*
X155715218Y-96308979D01*
X155654131Y-96295814D01*
X155607221Y-96254528D01*
X155510153Y-96110912D01*
X155463663Y-96062405D01*
X155348728Y-95942484D01*
X155250105Y-95869543D01*
X155161161Y-95803760D01*
X154952847Y-95698730D01*
X154729780Y-95630417D01*
X154729779Y-95630416D01*
X154498376Y-95600784D01*
X154498372Y-95600784D01*
X154265295Y-95610685D01*
X154037233Y-95659836D01*
X154015734Y-95668476D01*
X153956364Y-95676720D01*
X153900063Y-95656153D01*
X153859987Y-95611581D01*
X153845500Y-95553418D01*
X153845500Y-93815477D01*
X153845726Y-93807990D01*
X153847456Y-93779391D01*
X153849289Y-93749093D01*
X153838647Y-93691027D01*
X153837526Y-93683667D01*
X153830414Y-93625081D01*
X153826954Y-93615960D01*
X153820928Y-93594339D01*
X153819331Y-93585624D01*
X153819172Y-93584754D01*
X153794953Y-93530942D01*
X153792095Y-93524042D01*
X153790564Y-93520004D01*
X153771168Y-93468861D01*
X153765626Y-93460832D01*
X153754602Y-93441286D01*
X153750601Y-93432396D01*
X153714205Y-93385940D01*
X153709785Y-93379932D01*
X153676258Y-93331360D01*
X153632079Y-93292221D01*
X153626641Y-93287101D01*
X148273136Y-87933596D01*
X148242061Y-87881595D01*
X148239330Y-87821079D01*
X148265593Y-87766489D01*
X148314583Y-87730857D01*
X148509006Y-87652732D01*
X148707594Y-87530456D01*
X148882657Y-87376381D01*
X149029160Y-87194942D01*
X149142895Y-86991346D01*
X149220588Y-86771454D01*
X149254274Y-86575000D01*
X147639000Y-86575000D01*
X147577000Y-86558387D01*
X147531613Y-86513000D01*
X147515000Y-86451000D01*
X147515000Y-84657038D01*
X148265000Y-84657038D01*
X148265000Y-85825000D01*
X149252186Y-85825000D01*
X149245176Y-85742635D01*
X149186410Y-85516945D01*
X149090353Y-85304442D01*
X148959763Y-85111227D01*
X148798396Y-84942860D01*
X148610898Y-84804187D01*
X148402660Y-84699196D01*
X148265000Y-84657038D01*
X147515000Y-84657038D01*
X147515000Y-84654364D01*
X147487379Y-84660316D01*
X147270994Y-84747267D01*
X147072405Y-84869543D01*
X146897342Y-85023618D01*
X146750839Y-85205057D01*
X146728209Y-85245567D01*
X146684969Y-85290681D01*
X146625218Y-85308979D01*
X146564131Y-85295814D01*
X146517221Y-85254528D01*
X146420153Y-85110912D01*
X146348035Y-85035665D01*
X146258728Y-84942484D01*
X146258725Y-84942482D01*
X146071161Y-84803760D01*
X145862847Y-84698730D01*
X145639780Y-84630417D01*
X145639779Y-84630416D01*
X145408376Y-84600784D01*
X145408372Y-84600784D01*
X145175295Y-84610685D01*
X144947232Y-84659836D01*
X144730768Y-84746819D01*
X144532107Y-84869139D01*
X144356981Y-85023269D01*
X144325086Y-85062770D01*
X144271810Y-85101101D01*
X144206432Y-85106869D01*
X144147267Y-85078459D01*
X144125657Y-85046005D01*
X144122422Y-85048001D01*
X144107167Y-85023269D01*
X144022712Y-84886344D01*
X144022711Y-84886342D01*
X143898657Y-84762288D01*
X143749334Y-84670186D01*
X143582797Y-84615000D01*
X143480009Y-84604500D01*
X142139991Y-84604500D01*
X142037203Y-84615000D01*
X141870665Y-84670186D01*
X141721342Y-84762288D01*
X141597288Y-84886342D01*
X141505186Y-85035665D01*
X141450000Y-85202202D01*
X141439500Y-85304990D01*
X141439500Y-87095008D01*
X141450000Y-87197796D01*
X141505186Y-87364334D01*
X141597288Y-87513657D01*
X141721342Y-87637711D01*
X141745695Y-87652732D01*
X141870666Y-87729814D01*
X141974747Y-87764303D01*
X142015459Y-87777794D01*
X142072366Y-87816906D01*
X142099531Y-87880389D01*
X142088530Y-87948558D01*
X142042776Y-88000274D01*
X141976455Y-88019500D01*
X140012930Y-88019500D01*
X139956635Y-88005985D01*
X139912612Y-87968385D01*
X139890457Y-87914898D01*
X139894999Y-87857182D01*
X139925249Y-87807819D01*
X140202612Y-87530456D01*
X140486657Y-87246410D01*
X140492075Y-87241309D01*
X140536258Y-87202169D01*
X140569805Y-87153566D01*
X140574186Y-87147612D01*
X140610601Y-87101133D01*
X140614600Y-87092246D01*
X140625627Y-87072694D01*
X140631168Y-87064668D01*
X140652093Y-87009488D01*
X140654958Y-87002574D01*
X140659920Y-86991551D01*
X140679172Y-86948776D01*
X140680928Y-86939190D01*
X140686960Y-86917553D01*
X140690414Y-86908447D01*
X140695325Y-86868001D01*
X140697527Y-86849862D01*
X140698653Y-86842467D01*
X140709288Y-86784436D01*
X140705726Y-86725550D01*
X140705500Y-86718063D01*
X140705500Y-79872038D01*
X140705726Y-79864551D01*
X140705875Y-79862073D01*
X140709289Y-79805654D01*
X140698647Y-79747588D01*
X140697526Y-79740228D01*
X140690414Y-79681642D01*
X140686954Y-79672521D01*
X140680928Y-79650900D01*
X140679172Y-79641315D01*
X140654953Y-79587503D01*
X140652095Y-79580603D01*
X140650663Y-79576827D01*
X140631168Y-79525422D01*
X140625626Y-79517393D01*
X140614602Y-79497847D01*
X140610601Y-79488957D01*
X140574205Y-79442501D01*
X140569785Y-79436493D01*
X140536258Y-79387921D01*
X140492079Y-79348782D01*
X140486641Y-79343662D01*
X140138916Y-78995937D01*
X140106822Y-78940349D01*
X140106823Y-78876161D01*
X140115063Y-78845409D01*
X140135659Y-78610000D01*
X140115063Y-78374592D01*
X140102340Y-78327110D01*
X140053903Y-78146337D01*
X139954035Y-77932171D01*
X139818495Y-77738599D01*
X139651401Y-77571505D01*
X139465839Y-77441573D01*
X139426975Y-77397257D01*
X139412964Y-77340000D01*
X139426975Y-77282743D01*
X139465839Y-77238426D01*
X139651401Y-77108495D01*
X139818495Y-76941401D01*
X139954035Y-76747830D01*
X140053903Y-76533663D01*
X140115063Y-76305408D01*
X140115609Y-76299172D01*
X140140760Y-76234493D01*
X140196726Y-76193456D01*
X140265975Y-76188917D01*
X140326818Y-76222297D01*
X141576162Y-77471641D01*
X141581282Y-77477079D01*
X141620421Y-77521258D01*
X141668993Y-77554785D01*
X141675001Y-77559205D01*
X141721457Y-77595601D01*
X141730347Y-77599602D01*
X141749893Y-77610626D01*
X141757922Y-77616168D01*
X141813103Y-77637095D01*
X141820003Y-77639953D01*
X141873815Y-77664172D01*
X141883402Y-77665928D01*
X141905021Y-77671954D01*
X141914142Y-77675414D01*
X141972728Y-77682526D01*
X141980088Y-77683647D01*
X142038154Y-77694289D01*
X142094573Y-77690875D01*
X142097051Y-77690726D01*
X142104538Y-77690500D01*
X145686159Y-77690500D01*
X145733612Y-77699939D01*
X145773840Y-77726819D01*
X150295681Y-82248660D01*
X150322561Y-82288888D01*
X150332000Y-82336341D01*
X150332000Y-85175462D01*
X150331774Y-85182949D01*
X150328211Y-85241847D01*
X150338847Y-85299888D01*
X150339974Y-85307291D01*
X150347086Y-85365858D01*
X150350543Y-85374974D01*
X150356568Y-85396587D01*
X150358326Y-85406183D01*
X150382540Y-85459984D01*
X150385405Y-85466901D01*
X150406331Y-85522077D01*
X150411875Y-85530109D01*
X150422895Y-85549649D01*
X150426899Y-85558543D01*
X150463286Y-85604989D01*
X150467715Y-85611008D01*
X150501242Y-85659579D01*
X150544432Y-85697842D01*
X150545412Y-85698710D01*
X150550865Y-85703844D01*
X150613181Y-85766160D01*
X150640061Y-85806388D01*
X150649500Y-85853841D01*
X150649500Y-87095008D01*
X150660000Y-87197796D01*
X150715186Y-87364334D01*
X150807288Y-87513657D01*
X150931342Y-87637711D01*
X150955695Y-87652732D01*
X151080666Y-87729814D01*
X151191344Y-87766489D01*
X151247202Y-87784999D01*
X151257702Y-87786071D01*
X151349991Y-87795500D01*
X152690008Y-87795499D01*
X152792797Y-87784999D01*
X152959334Y-87729814D01*
X153108656Y-87637712D01*
X153232712Y-87513656D01*
X153324814Y-87364334D01*
X153324814Y-87364333D01*
X153332422Y-87351999D01*
X153335365Y-87353814D01*
X153355387Y-87323056D01*
X153411361Y-87293960D01*
X153474407Y-87296169D01*
X153528206Y-87329111D01*
X153651272Y-87457516D01*
X153838839Y-87596240D01*
X154047153Y-87701270D01*
X154270220Y-87769583D01*
X154501624Y-87799216D01*
X154734707Y-87789314D01*
X154962765Y-87740164D01*
X155179235Y-87653179D01*
X155377891Y-87530862D01*
X155553018Y-87376731D01*
X155699578Y-87195220D01*
X155722102Y-87154899D01*
X155765342Y-87109783D01*
X155825094Y-87091484D01*
X155886182Y-87104649D01*
X155933092Y-87145935D01*
X156029846Y-87289087D01*
X156081278Y-87342750D01*
X156191272Y-87457516D01*
X156378839Y-87596240D01*
X156587153Y-87701270D01*
X156810220Y-87769583D01*
X157041624Y-87799216D01*
X157274707Y-87789314D01*
X157502765Y-87740164D01*
X157719235Y-87653179D01*
X157917891Y-87530862D01*
X158093018Y-87376731D01*
X158209080Y-87232991D01*
X158239576Y-87195223D01*
X158239578Y-87195220D01*
X158353354Y-86991552D01*
X158431073Y-86771584D01*
X158431096Y-86771454D01*
X158470500Y-86541649D01*
X158470500Y-85916780D01*
X158455670Y-85742548D01*
X158454571Y-85738329D01*
X158429755Y-85643018D01*
X158396885Y-85516779D01*
X158300792Y-85304198D01*
X158170153Y-85110912D01*
X158098035Y-85035665D01*
X158008728Y-84942484D01*
X158008727Y-84942483D01*
X158008726Y-84942482D01*
X157900765Y-84862634D01*
X157863777Y-84818764D01*
X157850500Y-84762939D01*
X157850500Y-84276296D01*
X157850500Y-84276291D01*
X157835241Y-84145745D01*
X157832114Y-84137153D01*
X157775478Y-83981544D01*
X157768000Y-83939134D01*
X157768000Y-76992424D01*
X157783746Y-76931950D01*
X157826986Y-76886834D01*
X157842902Y-76877034D01*
X157917891Y-76830862D01*
X158093018Y-76676731D01*
X158179901Y-76569128D01*
X158239576Y-76495223D01*
X158239578Y-76495220D01*
X158353354Y-76291552D01*
X158431073Y-76071584D01*
X158431493Y-76069139D01*
X158470500Y-75841649D01*
X158470500Y-75216780D01*
X158455670Y-75042548D01*
X158452795Y-75031508D01*
X158414106Y-74882918D01*
X158396885Y-74816779D01*
X158300792Y-74604198D01*
X158170153Y-74410912D01*
X158105323Y-74343270D01*
X158008728Y-74242484D01*
X158008725Y-74242482D01*
X157821161Y-74103760D01*
X157738906Y-74062288D01*
X157612847Y-73998730D01*
X157612846Y-73998729D01*
X157612845Y-73998729D01*
X157545146Y-73977996D01*
X157499232Y-73952248D01*
X157473699Y-73929628D01*
X157325761Y-73851984D01*
X157172228Y-73814142D01*
X157163538Y-73812000D01*
X156996462Y-73812000D01*
X156987772Y-73814142D01*
X156834238Y-73851984D01*
X156686303Y-73929627D01*
X156630894Y-73978714D01*
X156594904Y-74000955D01*
X156480764Y-74046821D01*
X156282107Y-74169139D01*
X156106980Y-74323270D01*
X155960423Y-74504777D01*
X155937895Y-74545103D01*
X155894655Y-74590217D01*
X155834904Y-74608515D01*
X155773816Y-74595350D01*
X155726907Y-74554064D01*
X155720850Y-74545103D01*
X155630153Y-74410912D01*
X155468728Y-74242484D01*
X155468727Y-74242483D01*
X155468726Y-74242482D01*
X155340765Y-74147842D01*
X155303777Y-74103972D01*
X155290500Y-74048147D01*
X155290500Y-71524500D01*
X155307113Y-71462500D01*
X155352500Y-71417113D01*
X155414500Y-71400500D01*
X155484148Y-71400500D01*
X155607584Y-71374262D01*
X155669303Y-71361144D01*
X155842230Y-71284151D01*
X155855949Y-71274183D01*
X155890518Y-71256569D01*
X155928837Y-71250500D01*
X156577770Y-71250500D01*
X156625223Y-71259939D01*
X156665451Y-71286819D01*
X161368181Y-75989548D01*
X161395061Y-76029776D01*
X161404500Y-76077229D01*
X161404500Y-77230008D01*
X161415000Y-77332796D01*
X161470186Y-77499334D01*
X161562288Y-77648657D01*
X161686342Y-77772711D01*
X161738690Y-77804999D01*
X161833477Y-77863464D01*
X161848001Y-77872422D01*
X161846186Y-77875364D01*
X161876952Y-77895396D01*
X161906041Y-77951369D01*
X161903829Y-78014410D01*
X161870888Y-78068206D01*
X161742482Y-78191272D01*
X161616409Y-78361735D01*
X161572539Y-78398723D01*
X161516714Y-78412000D01*
X159737513Y-78412000D01*
X159687078Y-78401280D01*
X159645363Y-78370972D01*
X159605870Y-78327110D01*
X159452730Y-78215848D01*
X159279802Y-78138855D01*
X159094648Y-78099500D01*
X159094646Y-78099500D01*
X158905354Y-78099500D01*
X158905352Y-78099500D01*
X158720197Y-78138855D01*
X158547269Y-78215848D01*
X158394129Y-78327110D01*
X158267466Y-78467783D01*
X158172820Y-78631715D01*
X158114326Y-78811742D01*
X158094540Y-79000000D01*
X158114326Y-79188257D01*
X158172820Y-79368284D01*
X158267466Y-79532216D01*
X158276301Y-79542028D01*
X158304468Y-79595002D01*
X158304468Y-79654998D01*
X158276301Y-79707972D01*
X158267466Y-79717783D01*
X158172820Y-79881715D01*
X158114326Y-80061742D01*
X158094540Y-80250000D01*
X158114326Y-80438257D01*
X158172820Y-80618284D01*
X158267466Y-80782216D01*
X158394129Y-80922889D01*
X158547269Y-81034151D01*
X158720197Y-81111145D01*
X158897576Y-81148847D01*
X158930963Y-81161164D01*
X158959477Y-81182456D01*
X159886162Y-82109141D01*
X159891282Y-82114579D01*
X159930421Y-82158758D01*
X159978993Y-82192285D01*
X159985001Y-82196705D01*
X160031457Y-82233101D01*
X160040347Y-82237102D01*
X160059893Y-82248126D01*
X160067922Y-82253668D01*
X160123103Y-82274595D01*
X160130003Y-82277453D01*
X160183815Y-82301672D01*
X160193402Y-82303428D01*
X160215021Y-82309454D01*
X160224142Y-82312914D01*
X160282728Y-82320026D01*
X160290088Y-82321147D01*
X160348154Y-82331789D01*
X160407056Y-82328226D01*
X160414544Y-82328000D01*
X161519890Y-82328000D01*
X161580364Y-82343746D01*
X161625479Y-82386985D01*
X161669137Y-82457890D01*
X161823270Y-82633019D01*
X162004776Y-82779576D01*
X162045101Y-82802103D01*
X162090217Y-82845343D01*
X162108515Y-82905094D01*
X162095350Y-82966182D01*
X162054064Y-83013092D01*
X161910912Y-83109846D01*
X161742483Y-83271272D01*
X161603760Y-83458838D01*
X161498730Y-83667152D01*
X161430417Y-83890219D01*
X161400784Y-84121627D01*
X161410685Y-84354704D01*
X161459836Y-84582767D01*
X161546819Y-84799231D01*
X161546821Y-84799235D01*
X161669138Y-84997891D01*
X161730314Y-85067401D01*
X161823270Y-85173019D01*
X162004776Y-85319576D01*
X162045590Y-85342376D01*
X162090706Y-85385616D01*
X162109004Y-85445367D01*
X162095839Y-85506455D01*
X162054553Y-85553365D01*
X161911227Y-85650236D01*
X161742860Y-85811603D01*
X161604187Y-85999101D01*
X161499196Y-86207339D01*
X161457038Y-86345000D01*
X163251000Y-86345000D01*
X163313000Y-86361613D01*
X163358387Y-86407000D01*
X163375000Y-86469000D01*
X163375000Y-86971000D01*
X163358387Y-87033000D01*
X163313000Y-87078387D01*
X163251000Y-87095000D01*
X161454364Y-87095000D01*
X161460316Y-87122620D01*
X161547267Y-87339005D01*
X161669543Y-87537594D01*
X161823618Y-87712657D01*
X162005057Y-87859160D01*
X162045565Y-87881789D01*
X162090680Y-87925029D01*
X162108979Y-87984780D01*
X162095814Y-88045868D01*
X162054529Y-88092778D01*
X161910910Y-88189848D01*
X161742483Y-88351272D01*
X161603760Y-88538838D01*
X161498730Y-88747152D01*
X161434797Y-88955916D01*
X161430417Y-88970220D01*
X161401456Y-89196381D01*
X161400784Y-89201627D01*
X161410685Y-89434704D01*
X161459836Y-89662767D01*
X161532196Y-89842840D01*
X161546821Y-89879235D01*
X161669138Y-90077891D01*
X161758555Y-90179489D01*
X161823270Y-90253019D01*
X161862768Y-90284912D01*
X161901095Y-90338174D01*
X161906875Y-90403539D01*
X161878487Y-90462700D01*
X161846007Y-90484345D01*
X161848001Y-90487578D01*
X161686342Y-90587288D01*
X161562288Y-90711342D01*
X161470186Y-90860665D01*
X161415000Y-91027202D01*
X161404500Y-91129990D01*
X161404500Y-92470008D01*
X161415000Y-92572796D01*
X161445559Y-92665015D01*
X161470186Y-92739334D01*
X161479912Y-92755102D01*
X161481040Y-92756931D01*
X161499500Y-92822026D01*
X161499500Y-93806078D01*
X161494065Y-93842383D01*
X161451189Y-93982389D01*
X161434404Y-94037202D01*
X161430417Y-94050220D01*
X161402231Y-94270330D01*
X161400784Y-94281627D01*
X161410685Y-94514704D01*
X161459836Y-94742767D01*
X161546819Y-94959231D01*
X161546821Y-94959235D01*
X161669138Y-95157891D01*
X161793578Y-95299283D01*
X161823270Y-95333019D01*
X162004776Y-95479576D01*
X162045590Y-95502376D01*
X162090706Y-95545616D01*
X162109004Y-95605367D01*
X162095839Y-95666455D01*
X162054553Y-95713365D01*
X161911227Y-95810236D01*
X161742860Y-95971603D01*
X161604187Y-96159101D01*
X161499196Y-96367339D01*
X161457038Y-96505000D01*
X164545636Y-96505000D01*
X164539683Y-96477379D01*
X164452732Y-96260994D01*
X164330456Y-96062405D01*
X164176381Y-95887342D01*
X163994942Y-95740839D01*
X163954433Y-95718210D01*
X163909318Y-95674970D01*
X163891019Y-95615219D01*
X163904184Y-95554131D01*
X163945469Y-95507222D01*
X164089088Y-95410153D01*
X164257516Y-95248728D01*
X164396240Y-95061161D01*
X164501270Y-94852847D01*
X164569583Y-94629780D01*
X164599216Y-94398376D01*
X164589314Y-94165293D01*
X164540164Y-93937235D01*
X164509441Y-93860780D01*
X164500500Y-93814547D01*
X164500500Y-93076347D01*
X164510944Y-93026538D01*
X164540515Y-92985119D01*
X164582239Y-92946708D01*
X164604006Y-92926669D01*
X164607802Y-92923318D01*
X164629548Y-92904902D01*
X164649736Y-92884713D01*
X164653361Y-92881235D01*
X164720160Y-92819744D01*
X164734589Y-92801203D01*
X164744747Y-92789701D01*
X166284697Y-91249750D01*
X166296199Y-91239593D01*
X166314744Y-91225160D01*
X166376247Y-91158348D01*
X166379725Y-91154723D01*
X166399902Y-91134547D01*
X166418311Y-91112809D01*
X166421690Y-91108985D01*
X166472507Y-91053783D01*
X166483164Y-91042207D01*
X166496006Y-91022548D01*
X166505188Y-91010235D01*
X166520366Y-90992316D01*
X166566848Y-90914306D01*
X166569505Y-90910049D01*
X166619173Y-90834029D01*
X166628604Y-90812527D01*
X166635635Y-90798867D01*
X166647656Y-90778695D01*
X166680663Y-90694101D01*
X166682600Y-90689427D01*
X166719063Y-90606303D01*
X166724826Y-90583539D01*
X166729516Y-90568905D01*
X166731820Y-90563000D01*
X166738050Y-90547036D01*
X166756678Y-90458194D01*
X166757824Y-90453238D01*
X166780108Y-90365243D01*
X166780905Y-90355621D01*
X166782047Y-90341848D01*
X166784263Y-90326639D01*
X166789081Y-90303660D01*
X166792831Y-90212972D01*
X166793149Y-90207850D01*
X166795500Y-90179490D01*
X166795500Y-90151018D01*
X166795606Y-90145893D01*
X166799357Y-90055202D01*
X166796452Y-90031895D01*
X166795500Y-90016557D01*
X166795500Y-70723443D01*
X166796452Y-70708105D01*
X166799357Y-70684797D01*
X166795606Y-70594107D01*
X166795500Y-70588982D01*
X166795500Y-70560510D01*
X166793149Y-70532148D01*
X166792831Y-70527026D01*
X166789081Y-70436343D01*
X166787803Y-70430250D01*
X166784262Y-70413359D01*
X166782047Y-70398151D01*
X166780108Y-70374762D01*
X166780108Y-70374757D01*
X166757827Y-70286771D01*
X166756675Y-70281791D01*
X166747109Y-70236170D01*
X166738050Y-70192964D01*
X166729514Y-70171089D01*
X166724825Y-70156454D01*
X166719063Y-70133697D01*
X166682596Y-70050563D01*
X166680657Y-70045880D01*
X166647656Y-69961305D01*
X166635633Y-69941127D01*
X166628609Y-69927484D01*
X166619173Y-69905971D01*
X166594293Y-69867890D01*
X166569529Y-69829985D01*
X166566827Y-69825656D01*
X166520366Y-69747684D01*
X166505187Y-69729762D01*
X166496006Y-69717451D01*
X166483164Y-69697793D01*
X166421694Y-69631019D01*
X166418302Y-69627178D01*
X166399897Y-69605447D01*
X166379783Y-69585334D01*
X166376232Y-69581634D01*
X166314744Y-69514840D01*
X166314743Y-69514839D01*
X166296202Y-69500408D01*
X166284692Y-69490243D01*
X164744757Y-67950307D01*
X164734584Y-67938787D01*
X164720162Y-67920258D01*
X164653375Y-67858776D01*
X164649677Y-67855227D01*
X164629545Y-67835095D01*
X164607810Y-67816686D01*
X164603968Y-67813294D01*
X164547410Y-67761228D01*
X164512073Y-67703740D01*
X164512073Y-67636259D01*
X164547408Y-67578772D01*
X164604009Y-67526666D01*
X164607802Y-67523318D01*
X164629548Y-67504902D01*
X164649736Y-67484713D01*
X164653361Y-67481235D01*
X164720160Y-67419744D01*
X164734589Y-67401203D01*
X164744747Y-67389701D01*
X166284697Y-65849750D01*
X166296199Y-65839593D01*
X166314744Y-65825160D01*
X166376247Y-65758348D01*
X166379725Y-65754723D01*
X166399902Y-65734547D01*
X166418311Y-65712809D01*
X166421690Y-65708985D01*
X166483160Y-65642211D01*
X166483164Y-65642207D01*
X166496006Y-65622548D01*
X166505188Y-65610235D01*
X166520366Y-65592316D01*
X166566848Y-65514306D01*
X166569505Y-65510049D01*
X166619173Y-65434029D01*
X166628604Y-65412527D01*
X166635635Y-65398867D01*
X166647656Y-65378695D01*
X166680663Y-65294101D01*
X166682600Y-65289427D01*
X166719063Y-65206303D01*
X166724826Y-65183539D01*
X166729516Y-65168905D01*
X166732606Y-65160985D01*
X166738050Y-65147036D01*
X166756678Y-65058194D01*
X166757824Y-65053238D01*
X166780108Y-64965243D01*
X166781351Y-64950242D01*
X166782047Y-64941848D01*
X166784263Y-64926639D01*
X166789081Y-64903660D01*
X166792831Y-64812972D01*
X166793149Y-64807850D01*
X166795500Y-64779490D01*
X166795500Y-64751018D01*
X166795606Y-64745893D01*
X166799357Y-64655202D01*
X166796452Y-64631895D01*
X166795500Y-64616557D01*
X166795500Y-39880256D01*
X166796452Y-39864918D01*
X166799357Y-39841610D01*
X166795606Y-39750919D01*
X166795500Y-39745794D01*
X166795500Y-39717322D01*
X166793149Y-39688960D01*
X166792831Y-39683838D01*
X166789081Y-39593155D01*
X166784262Y-39570171D01*
X166782047Y-39554963D01*
X166780272Y-39533548D01*
X166780108Y-39531569D01*
X166757827Y-39443583D01*
X166756675Y-39438603D01*
X166742536Y-39371170D01*
X166738050Y-39349776D01*
X166729514Y-39327901D01*
X166724825Y-39313266D01*
X166719063Y-39290509D01*
X166682596Y-39207375D01*
X166680657Y-39202692D01*
X166647656Y-39118117D01*
X166635633Y-39097939D01*
X166628609Y-39084296D01*
X166619173Y-39062783D01*
X166569529Y-38986797D01*
X166566827Y-38982468D01*
X166520366Y-38904496D01*
X166505187Y-38886574D01*
X166496006Y-38874263D01*
X166483164Y-38854605D01*
X166421694Y-38787831D01*
X166418302Y-38783990D01*
X166399897Y-38762259D01*
X166379783Y-38742146D01*
X166376232Y-38738446D01*
X166314744Y-38671652D01*
X166296202Y-38657220D01*
X166284692Y-38647055D01*
X163907945Y-36270307D01*
X163897772Y-36258787D01*
X163883350Y-36240258D01*
X163816563Y-36178776D01*
X163812865Y-36175227D01*
X163792733Y-36155095D01*
X163770998Y-36136686D01*
X163767157Y-36133294D01*
X163700397Y-36071837D01*
X163680735Y-36058991D01*
X163668421Y-36049808D01*
X163650504Y-36034634D01*
X163572501Y-35988153D01*
X163568190Y-35985462D01*
X163557239Y-35978307D01*
X163515046Y-35931704D01*
X163501131Y-35870398D01*
X163519069Y-35810147D01*
X163564251Y-35766436D01*
X163625063Y-35750500D01*
X167996755Y-35750500D01*
X168003243Y-35750669D01*
G37*
G04 #@! TD.AperFunction*
G04 #@! TA.AperFunction,Conductor*
G36*
X145455223Y-89529939D02*
G01*
X145495451Y-89556819D01*
X151113181Y-95174548D01*
X151140061Y-95214776D01*
X151149500Y-95262229D01*
X151149500Y-95518071D01*
X151138877Y-95568286D01*
X151108830Y-95609898D01*
X151064504Y-95635777D01*
X150960666Y-95670186D01*
X150960664Y-95670186D01*
X150960664Y-95670187D01*
X150811342Y-95762288D01*
X150687288Y-95886342D01*
X150595186Y-96035665D01*
X150540000Y-96202202D01*
X150529500Y-96304990D01*
X150529500Y-98095008D01*
X150540000Y-98197796D01*
X150595186Y-98364334D01*
X150687288Y-98513657D01*
X150811342Y-98637711D01*
X150811344Y-98637712D01*
X150960666Y-98729814D01*
X151069708Y-98765947D01*
X151127202Y-98784999D01*
X151136729Y-98785972D01*
X151229991Y-98795500D01*
X151482769Y-98795499D01*
X151530221Y-98804938D01*
X151570450Y-98831818D01*
X152030184Y-99291552D01*
X152338952Y-99600319D01*
X152369202Y-99649682D01*
X152373744Y-99707398D01*
X152351589Y-99760885D01*
X152307566Y-99798485D01*
X152251271Y-99812000D01*
X150048563Y-99812000D01*
X150001110Y-99802561D01*
X149960882Y-99775681D01*
X149353566Y-99168365D01*
X149348432Y-99162912D01*
X149347564Y-99161932D01*
X149309301Y-99118742D01*
X149260730Y-99085215D01*
X149254706Y-99080783D01*
X149208265Y-99044399D01*
X149199371Y-99040395D01*
X149179831Y-99029375D01*
X149171799Y-99023831D01*
X149116623Y-99002905D01*
X149109706Y-99000040D01*
X149055905Y-98975826D01*
X149046309Y-98974068D01*
X149024696Y-98968043D01*
X149015580Y-98964586D01*
X148957013Y-98957474D01*
X148949610Y-98956347D01*
X148891569Y-98945711D01*
X148891568Y-98945711D01*
X148858290Y-98947724D01*
X148832671Y-98949274D01*
X148825184Y-98949500D01*
X148577327Y-98949500D01*
X148515936Y-98933236D01*
X148470649Y-98888712D01*
X148453345Y-98827606D01*
X148468564Y-98765947D01*
X148512313Y-98719910D01*
X148657594Y-98630456D01*
X148832657Y-98476381D01*
X148979160Y-98294942D01*
X149092895Y-98091346D01*
X149170588Y-97871454D01*
X149204274Y-97675000D01*
X147589000Y-97675000D01*
X147527000Y-97658387D01*
X147481613Y-97613000D01*
X147465000Y-97551000D01*
X147465000Y-95757038D01*
X148215000Y-95757038D01*
X148215000Y-96925000D01*
X149202186Y-96925000D01*
X149195176Y-96842635D01*
X149136410Y-96616945D01*
X149040353Y-96404442D01*
X148909763Y-96211227D01*
X148748396Y-96042860D01*
X148560898Y-95904187D01*
X148352660Y-95799196D01*
X148215000Y-95757038D01*
X147465000Y-95757038D01*
X147465000Y-95754364D01*
X147437379Y-95760316D01*
X147220994Y-95847267D01*
X147022405Y-95969543D01*
X146847342Y-96123618D01*
X146700839Y-96305057D01*
X146678209Y-96345567D01*
X146634969Y-96390681D01*
X146575218Y-96408979D01*
X146514131Y-96395814D01*
X146467221Y-96354528D01*
X146370153Y-96210912D01*
X146208727Y-96042483D01*
X146021161Y-95903760D01*
X145812847Y-95798730D01*
X145589780Y-95730417D01*
X145568524Y-95727695D01*
X145358376Y-95700784D01*
X145358372Y-95700784D01*
X145125295Y-95710685D01*
X145003742Y-95736882D01*
X144938123Y-95751023D01*
X144883309Y-95750442D01*
X144834101Y-95726283D01*
X144800117Y-95683269D01*
X144788000Y-95629807D01*
X144788000Y-94558332D01*
X144801191Y-94502679D01*
X144809156Y-94486819D01*
X144810040Y-94485059D01*
X144830585Y-94398376D01*
X144850500Y-94314349D01*
X144850500Y-93413706D01*
X144851809Y-93395736D01*
X144852338Y-93392118D01*
X144855289Y-93371977D01*
X144850972Y-93322631D01*
X144850500Y-93311824D01*
X144850500Y-93306289D01*
X144846903Y-93275521D01*
X144846536Y-93271929D01*
X144839889Y-93195949D01*
X144835672Y-93176930D01*
X144809592Y-93105274D01*
X144808408Y-93101868D01*
X144803777Y-93087892D01*
X144784814Y-93030666D01*
X144784812Y-93030663D01*
X144784415Y-93029464D01*
X144775929Y-93011936D01*
X144775237Y-93010884D01*
X144775237Y-93010883D01*
X144734001Y-92948188D01*
X144732086Y-92945181D01*
X144731007Y-92943431D01*
X144692712Y-92881345D01*
X144692711Y-92881344D01*
X144692048Y-92880269D01*
X144679748Y-92865170D01*
X144624272Y-92812831D01*
X144621685Y-92810318D01*
X141543549Y-89732181D01*
X141513299Y-89682818D01*
X141508757Y-89625102D01*
X141530912Y-89571615D01*
X141574935Y-89534015D01*
X141631230Y-89520500D01*
X145407770Y-89520500D01*
X145455223Y-89529939D01*
G37*
G04 #@! TD.AperFunction*
G04 #@! TA.AperFunction,Conductor*
G36*
X116297681Y-83359048D02*
G01*
X118713181Y-85774548D01*
X118740061Y-85814776D01*
X118749500Y-85862229D01*
X118749500Y-87232991D01*
X118731638Y-87297106D01*
X118683197Y-87342750D01*
X118618134Y-87356772D01*
X118555193Y-87335133D01*
X118512508Y-87284067D01*
X118440353Y-87124442D01*
X118309763Y-86931227D01*
X118148396Y-86762860D01*
X117960898Y-86624187D01*
X117752660Y-86519196D01*
X117615000Y-86477038D01*
X117615000Y-89565636D01*
X117642620Y-89559683D01*
X117859005Y-89472732D01*
X118057594Y-89350456D01*
X118232657Y-89196381D01*
X118379160Y-89014942D01*
X118492896Y-88811344D01*
X118508583Y-88766946D01*
X118548423Y-88711121D01*
X118611841Y-88685010D01*
X118679437Y-88696600D01*
X118730534Y-88742347D01*
X118749500Y-88808255D01*
X118749500Y-90586794D01*
X118748191Y-90604764D01*
X118744711Y-90628523D01*
X118749028Y-90677869D01*
X118749500Y-90688676D01*
X118749500Y-90694208D01*
X118753098Y-90724996D01*
X118753464Y-90728581D01*
X118759721Y-90800102D01*
X118760110Y-90804541D01*
X118764329Y-90823571D01*
X118764758Y-90824751D01*
X118764759Y-90824755D01*
X118790413Y-90895242D01*
X118791582Y-90898607D01*
X118819743Y-90983585D01*
X118816533Y-90984648D01*
X118827803Y-91022802D01*
X118812107Y-91085936D01*
X118766609Y-91132435D01*
X118703832Y-91149500D01*
X111062230Y-91149500D01*
X111014777Y-91140061D01*
X110974549Y-91113181D01*
X110736819Y-90875451D01*
X110709939Y-90835223D01*
X110700500Y-90787770D01*
X110700500Y-89370787D01*
X110716754Y-89309413D01*
X110761255Y-89264128D01*
X110822337Y-89246806D01*
X110883985Y-89261987D01*
X110930039Y-89305691D01*
X110947288Y-89333657D01*
X111071342Y-89457711D01*
X111071344Y-89457712D01*
X111220666Y-89549814D01*
X111312090Y-89580109D01*
X111387202Y-89604999D01*
X111397702Y-89606071D01*
X111489991Y-89615500D01*
X112830008Y-89615499D01*
X112932797Y-89604999D01*
X113099334Y-89549814D01*
X113248656Y-89457712D01*
X113372712Y-89333656D01*
X113464814Y-89184334D01*
X113464814Y-89184333D01*
X113472422Y-89171999D01*
X113475365Y-89173814D01*
X113495387Y-89143056D01*
X113551361Y-89113960D01*
X113614407Y-89116169D01*
X113668206Y-89149111D01*
X113791272Y-89277516D01*
X113978839Y-89416240D01*
X114187153Y-89521270D01*
X114410220Y-89589583D01*
X114641624Y-89619216D01*
X114874707Y-89609314D01*
X115102765Y-89560164D01*
X115319235Y-89473179D01*
X115517891Y-89350862D01*
X115693018Y-89196731D01*
X115839578Y-89015220D01*
X115862375Y-88974410D01*
X115905615Y-88929294D01*
X115965367Y-88910995D01*
X116026455Y-88924160D01*
X116073365Y-88965446D01*
X116170236Y-89108772D01*
X116331603Y-89277139D01*
X116519101Y-89415812D01*
X116727339Y-89520803D01*
X116865000Y-89562961D01*
X116865000Y-86474364D01*
X116837379Y-86480316D01*
X116620994Y-86567267D01*
X116422405Y-86689543D01*
X116247342Y-86843618D01*
X116100839Y-87025057D01*
X116078209Y-87065567D01*
X116034969Y-87110681D01*
X115975218Y-87128979D01*
X115914131Y-87115814D01*
X115867221Y-87074528D01*
X115770153Y-86930912D01*
X115608727Y-86762483D01*
X115421161Y-86623760D01*
X115212847Y-86518730D01*
X114989780Y-86450417D01*
X114758376Y-86420784D01*
X114758372Y-86420784D01*
X114525295Y-86430685D01*
X114297232Y-86479836D01*
X114080768Y-86566819D01*
X113882107Y-86689139D01*
X113706981Y-86843269D01*
X113675086Y-86882770D01*
X113621810Y-86921101D01*
X113556432Y-86926869D01*
X113497267Y-86898459D01*
X113475657Y-86866005D01*
X113472422Y-86868001D01*
X113457167Y-86843269D01*
X113372712Y-86706344D01*
X113372711Y-86706342D01*
X113248657Y-86582288D01*
X113165917Y-86531254D01*
X113126433Y-86492341D01*
X113107851Y-86440111D01*
X113113887Y-86385004D01*
X113143330Y-86338036D01*
X116122319Y-83359048D01*
X116177906Y-83326954D01*
X116242094Y-83326954D01*
X116297681Y-83359048D01*
G37*
G04 #@! TD.AperFunction*
G04 #@! TA.AperFunction,Conductor*
G36*
X119869556Y-74294511D02*
G01*
X119913872Y-74333374D01*
X119961505Y-74401401D01*
X120128599Y-74568495D01*
X120314160Y-74698426D01*
X120353024Y-74742743D01*
X120367035Y-74800000D01*
X120353024Y-74857257D01*
X120314158Y-74901575D01*
X120155906Y-75012385D01*
X120128595Y-75031508D01*
X119961505Y-75198598D01*
X119825965Y-75392170D01*
X119726097Y-75606336D01*
X119664936Y-75834592D01*
X119644340Y-76070000D01*
X119664936Y-76305407D01*
X119705271Y-76455937D01*
X119726097Y-76533663D01*
X119825965Y-76747830D01*
X119961505Y-76941401D01*
X120128599Y-77108495D01*
X120314160Y-77238426D01*
X120353024Y-77282743D01*
X120367035Y-77340000D01*
X120353024Y-77397257D01*
X120314158Y-77441575D01*
X120168528Y-77543547D01*
X120128595Y-77571508D01*
X119961504Y-77738598D01*
X119916515Y-77802851D01*
X119876940Y-77839115D01*
X119825747Y-77855256D01*
X119782631Y-77859028D01*
X119771824Y-77859500D01*
X119766291Y-77859500D01*
X119735501Y-77863098D01*
X119731917Y-77863464D01*
X119655961Y-77870109D01*
X119636921Y-77874330D01*
X119565232Y-77900421D01*
X119561831Y-77901603D01*
X119489474Y-77925580D01*
X119471927Y-77934075D01*
X119408221Y-77975975D01*
X119405181Y-77977912D01*
X119340280Y-78017944D01*
X119325164Y-78030257D01*
X119272831Y-78085726D01*
X119270319Y-78088312D01*
X115697309Y-81661321D01*
X115692064Y-81666270D01*
X115645538Y-81707675D01*
X115639101Y-81716868D01*
X115625212Y-81733419D01*
X111684358Y-85674272D01*
X111670727Y-85686053D01*
X111651467Y-85700392D01*
X111619633Y-85738329D01*
X111612341Y-85746289D01*
X111608408Y-85750222D01*
X111589176Y-85774545D01*
X111586902Y-85777337D01*
X111537894Y-85835744D01*
X111527418Y-85852187D01*
X111495192Y-85921294D01*
X111493622Y-85924536D01*
X111459393Y-85992692D01*
X111452996Y-86011098D01*
X111437573Y-86085788D01*
X111436793Y-86089305D01*
X111419208Y-86163505D01*
X111417229Y-86182878D01*
X111419448Y-86259131D01*
X111419500Y-86262737D01*
X111419500Y-86334758D01*
X111408877Y-86384973D01*
X111378829Y-86426585D01*
X111334504Y-86452463D01*
X111301902Y-86463267D01*
X111220665Y-86490186D01*
X111071342Y-86582288D01*
X110947288Y-86706342D01*
X110930039Y-86734309D01*
X110883985Y-86778013D01*
X110822337Y-86793194D01*
X110761255Y-86775872D01*
X110716754Y-86730587D01*
X110700500Y-86669213D01*
X110700500Y-78772231D01*
X110709937Y-78724782D01*
X110736813Y-78684555D01*
X110744993Y-78676374D01*
X110791963Y-78646926D01*
X110847072Y-78640888D01*
X110899303Y-78659468D01*
X110938218Y-78698953D01*
X110947286Y-78713655D01*
X111071342Y-78837711D01*
X111096420Y-78853179D01*
X111220666Y-78929814D01*
X111332017Y-78966712D01*
X111387202Y-78984999D01*
X111397703Y-78986071D01*
X111489991Y-78995500D01*
X112830008Y-78995499D01*
X112932797Y-78984999D01*
X113099334Y-78929814D01*
X113248656Y-78837712D01*
X113372712Y-78713656D01*
X113464814Y-78564334D01*
X113464814Y-78564333D01*
X113472422Y-78551999D01*
X113475365Y-78553814D01*
X113495387Y-78523056D01*
X113551361Y-78493960D01*
X113614407Y-78496169D01*
X113668206Y-78529111D01*
X113791272Y-78657516D01*
X113978839Y-78796240D01*
X114187153Y-78901270D01*
X114410220Y-78969583D01*
X114641624Y-78999216D01*
X114874707Y-78989314D01*
X115102765Y-78940164D01*
X115319235Y-78853179D01*
X115517891Y-78730862D01*
X115693018Y-78576731D01*
X115839578Y-78395220D01*
X115862375Y-78354410D01*
X115905615Y-78309294D01*
X115965367Y-78290995D01*
X116026455Y-78304160D01*
X116073365Y-78345446D01*
X116170236Y-78488772D01*
X116331603Y-78657139D01*
X116519101Y-78795812D01*
X116727339Y-78900803D01*
X116865000Y-78942961D01*
X116865000Y-77775000D01*
X117615000Y-77775000D01*
X117615000Y-78945636D01*
X117642620Y-78939683D01*
X117859005Y-78852732D01*
X118057594Y-78730456D01*
X118232657Y-78576381D01*
X118379160Y-78394942D01*
X118492895Y-78191346D01*
X118570588Y-77971454D01*
X118604274Y-77775000D01*
X117615000Y-77775000D01*
X116865000Y-77775000D01*
X116865000Y-75857038D01*
X117615000Y-75857038D01*
X117615000Y-77025000D01*
X118602186Y-77025000D01*
X118595176Y-76942635D01*
X118536410Y-76716945D01*
X118440353Y-76504442D01*
X118309763Y-76311227D01*
X118148396Y-76142860D01*
X117960898Y-76004187D01*
X117752660Y-75899196D01*
X117615000Y-75857038D01*
X116865000Y-75857038D01*
X116865000Y-75854364D01*
X116837379Y-75860316D01*
X116620994Y-75947267D01*
X116422405Y-76069543D01*
X116247342Y-76223618D01*
X116100839Y-76405057D01*
X116078209Y-76445567D01*
X116034969Y-76490681D01*
X115975218Y-76508979D01*
X115914131Y-76495814D01*
X115867221Y-76454528D01*
X115770153Y-76310912D01*
X115608727Y-76142483D01*
X115421161Y-76003760D01*
X115212847Y-75898730D01*
X114989780Y-75830417D01*
X114758376Y-75800784D01*
X114758372Y-75800784D01*
X114525295Y-75810685D01*
X114297232Y-75859836D01*
X114080768Y-75946819D01*
X113882107Y-76069139D01*
X113706981Y-76223269D01*
X113675086Y-76262770D01*
X113621810Y-76301101D01*
X113556432Y-76306869D01*
X113497267Y-76278459D01*
X113475657Y-76246005D01*
X113472422Y-76248001D01*
X113457167Y-76223269D01*
X113418349Y-76160335D01*
X113409804Y-76146480D01*
X113392048Y-76094584D01*
X113398415Y-76040105D01*
X113427660Y-75993705D01*
X115104547Y-74316819D01*
X115144776Y-74289939D01*
X115192229Y-74280500D01*
X119812299Y-74280500D01*
X119869556Y-74294511D01*
G37*
G04 #@! TD.AperFunction*
G04 #@! TA.AperFunction,Conductor*
G36*
X120068416Y-79588312D02*
G01*
X120128599Y-79648495D01*
X120314160Y-79778426D01*
X120353024Y-79822743D01*
X120367035Y-79880000D01*
X120353024Y-79937257D01*
X120314158Y-79981575D01*
X120155002Y-80093018D01*
X120128595Y-80111508D01*
X119961505Y-80278598D01*
X119825965Y-80472170D01*
X119726097Y-80686336D01*
X119664936Y-80914592D01*
X119644340Y-81149999D01*
X119664936Y-81385407D01*
X119679562Y-81439990D01*
X119726097Y-81613663D01*
X119825965Y-81827830D01*
X119961505Y-82021401D01*
X119961508Y-82021404D01*
X120083818Y-82143714D01*
X120115114Y-82196460D01*
X120117303Y-82257753D01*
X120089850Y-82312597D01*
X120039472Y-82347576D01*
X119907913Y-82396646D01*
X119792811Y-82482811D01*
X119706647Y-82597910D01*
X119656402Y-82732624D01*
X119650000Y-82792176D01*
X119650000Y-83315000D01*
X121251000Y-83315000D01*
X121313000Y-83331613D01*
X121358387Y-83377000D01*
X121375000Y-83439000D01*
X121375000Y-83941000D01*
X121358387Y-84003000D01*
X121313000Y-84048387D01*
X121251000Y-84065000D01*
X119650000Y-84065000D01*
X119650000Y-84289271D01*
X119636485Y-84345566D01*
X119598885Y-84389589D01*
X119545398Y-84411744D01*
X119487682Y-84407202D01*
X119438319Y-84376952D01*
X117359048Y-82297681D01*
X117326954Y-82242094D01*
X117326954Y-82177906D01*
X117359048Y-82122319D01*
X118579632Y-80901735D01*
X119893058Y-79588309D01*
X119948641Y-79556218D01*
X120012829Y-79556218D01*
X120068416Y-79588312D01*
G37*
G04 #@! TD.AperFunction*
G04 #@! TA.AperFunction,Conductor*
G36*
X100851438Y-53226087D02*
G01*
X100898101Y-53268104D01*
X100915979Y-53295287D01*
X100917889Y-53298285D01*
X100957288Y-53362159D01*
X100957952Y-53363235D01*
X100970253Y-53378333D01*
X100971168Y-53379196D01*
X100971170Y-53379199D01*
X101017609Y-53423012D01*
X101025708Y-53430653D01*
X101028295Y-53433166D01*
X102049435Y-54454306D01*
X102078276Y-54499576D01*
X102085282Y-54552793D01*
X102069142Y-54603985D01*
X102032880Y-54643560D01*
X101983122Y-54678402D01*
X101828402Y-54833122D01*
X101702898Y-55012361D01*
X101610425Y-55210668D01*
X101553792Y-55422025D01*
X101534722Y-55640000D01*
X101553792Y-55857974D01*
X101597439Y-56020868D01*
X101610425Y-56069330D01*
X101702898Y-56267639D01*
X101828402Y-56446877D01*
X101828405Y-56446879D01*
X101828405Y-56446880D01*
X101983123Y-56601598D01*
X101986626Y-56604051D01*
X102025490Y-56648369D01*
X102039500Y-56705624D01*
X102039500Y-57396395D01*
X102022887Y-57458395D01*
X101922820Y-57631715D01*
X101864326Y-57811742D01*
X101844540Y-58000000D01*
X101864326Y-58188257D01*
X101922820Y-58368284D01*
X102017466Y-58532216D01*
X102144129Y-58672889D01*
X102297269Y-58784151D01*
X102470197Y-58861144D01*
X102655352Y-58900500D01*
X102655354Y-58900500D01*
X102844646Y-58900500D01*
X102844648Y-58900500D01*
X102968280Y-58874221D01*
X103029803Y-58861144D01*
X103202730Y-58784151D01*
X103228762Y-58765238D01*
X103355870Y-58672889D01*
X103482533Y-58532216D01*
X103577179Y-58368284D01*
X103585956Y-58341272D01*
X103635674Y-58188256D01*
X103655460Y-58000000D01*
X103635674Y-57811744D01*
X103602345Y-57709168D01*
X103577179Y-57631715D01*
X103557113Y-57596960D01*
X103540500Y-57534960D01*
X103540500Y-56705624D01*
X103554510Y-56648369D01*
X103593374Y-56604051D01*
X103593985Y-56603622D01*
X103596877Y-56601598D01*
X103751598Y-56446877D01*
X103833427Y-56330013D01*
X103877743Y-56291149D01*
X103935000Y-56277138D01*
X103992257Y-56291149D01*
X104036572Y-56330013D01*
X104118402Y-56446877D01*
X104273123Y-56601598D01*
X104452361Y-56727102D01*
X104650670Y-56819575D01*
X104862023Y-56876207D01*
X105080000Y-56895277D01*
X105297977Y-56876207D01*
X105509330Y-56819575D01*
X105707639Y-56727102D01*
X105886877Y-56601598D01*
X106041598Y-56446877D01*
X106167102Y-56267639D01*
X106259575Y-56069330D01*
X106316207Y-55857977D01*
X106335277Y-55640000D01*
X106324716Y-55519289D01*
X106331722Y-55466074D01*
X106360561Y-55420805D01*
X106554547Y-55226819D01*
X106594776Y-55199939D01*
X106642229Y-55190500D01*
X112884229Y-55190500D01*
X112939073Y-55203288D01*
X112982605Y-55239014D01*
X113005846Y-55290309D01*
X113004004Y-55346594D01*
X112983792Y-55422025D01*
X112964722Y-55640000D01*
X112983792Y-55857974D01*
X113027439Y-56020868D01*
X113040425Y-56069330D01*
X113132898Y-56267639D01*
X113258402Y-56446877D01*
X113258405Y-56446880D01*
X113413123Y-56601598D01*
X113416626Y-56604051D01*
X113455490Y-56648369D01*
X113469500Y-56705624D01*
X113469500Y-57906294D01*
X113468191Y-57924264D01*
X113464711Y-57948023D01*
X113469028Y-57997369D01*
X113469500Y-58008176D01*
X113469500Y-58013708D01*
X113473098Y-58044496D01*
X113473464Y-58048081D01*
X113478918Y-58110423D01*
X113480110Y-58124041D01*
X113484329Y-58143071D01*
X113484758Y-58144251D01*
X113484759Y-58144255D01*
X113510413Y-58214742D01*
X113511582Y-58218107D01*
X113535580Y-58290524D01*
X113544075Y-58308072D01*
X113585959Y-58371754D01*
X113587895Y-58374792D01*
X113596883Y-58389363D01*
X113609430Y-58426144D01*
X113610299Y-58425862D01*
X113672820Y-58618284D01*
X113767466Y-58782216D01*
X113850308Y-58874221D01*
X113878980Y-58929299D01*
X113877354Y-58991372D01*
X113845839Y-59044874D01*
X112927533Y-59963181D01*
X112887305Y-59990061D01*
X112839852Y-59999500D01*
X112289337Y-59999500D01*
X112251018Y-59993431D01*
X112216450Y-59975817D01*
X112202728Y-59965847D01*
X112029802Y-59888855D01*
X111844648Y-59849500D01*
X111844646Y-59849500D01*
X111655354Y-59849500D01*
X111655352Y-59849500D01*
X111470197Y-59888855D01*
X111297269Y-59965848D01*
X111144129Y-60077110D01*
X111017466Y-60217783D01*
X110922820Y-60381715D01*
X110864326Y-60561742D01*
X110844540Y-60749999D01*
X110864326Y-60938257D01*
X110922820Y-61118284D01*
X111017466Y-61282216D01*
X111144129Y-61422889D01*
X111297269Y-61534151D01*
X111470197Y-61611144D01*
X111655352Y-61650500D01*
X111655354Y-61650500D01*
X111844646Y-61650500D01*
X111844648Y-61650500D01*
X111968083Y-61624262D01*
X112029803Y-61611144D01*
X112114515Y-61573427D01*
X112181780Y-61563853D01*
X112243992Y-61591162D01*
X112282475Y-61647155D01*
X112285676Y-61715021D01*
X112252633Y-61774387D01*
X109163840Y-64863181D01*
X109123612Y-64890061D01*
X109076159Y-64899500D01*
X108651579Y-64899500D01*
X108595754Y-64886223D01*
X108551883Y-64849235D01*
X108529363Y-64796456D01*
X108533014Y-64739190D01*
X108534982Y-64732765D01*
X108569583Y-64619780D01*
X108599216Y-64388376D01*
X108589314Y-64155293D01*
X108540164Y-63927235D01*
X108453179Y-63710765D01*
X108330862Y-63512109D01*
X108176731Y-63336982D01*
X108176729Y-63336980D01*
X107995221Y-63190421D01*
X107954408Y-63167622D01*
X107909293Y-63124383D01*
X107890995Y-63064631D01*
X107904160Y-63003543D01*
X107945447Y-62956633D01*
X108088773Y-62859761D01*
X108257139Y-62698396D01*
X108395812Y-62510898D01*
X108500803Y-62302660D01*
X108542962Y-62165000D01*
X105454364Y-62165000D01*
X105460316Y-62192620D01*
X105547267Y-62409005D01*
X105669543Y-62607594D01*
X105823618Y-62782657D01*
X106005057Y-62929160D01*
X106045565Y-62951789D01*
X106090680Y-62995029D01*
X106108979Y-63054780D01*
X106095814Y-63115868D01*
X106054529Y-63162778D01*
X105910910Y-63259848D01*
X105742483Y-63421272D01*
X105603760Y-63608838D01*
X105498730Y-63817152D01*
X105430417Y-64040219D01*
X105427564Y-64062500D01*
X105401919Y-64262767D01*
X105400784Y-64271627D01*
X105410685Y-64504704D01*
X105459836Y-64732767D01*
X105546820Y-64949235D01*
X105602526Y-65039708D01*
X105620238Y-65091586D01*
X105613853Y-65146031D01*
X105584617Y-65192402D01*
X105048364Y-65728655D01*
X105042912Y-65733787D01*
X104998743Y-65772918D01*
X104965218Y-65821486D01*
X104960783Y-65827513D01*
X104924399Y-65873956D01*
X104920396Y-65882850D01*
X104909378Y-65902385D01*
X104903833Y-65910418D01*
X104882903Y-65965604D01*
X104880038Y-65972520D01*
X104855826Y-66026315D01*
X104854068Y-66035912D01*
X104848044Y-66057521D01*
X104844586Y-66066638D01*
X104837474Y-66125208D01*
X104836347Y-66132609D01*
X104825710Y-66190651D01*
X104829274Y-66249551D01*
X104829500Y-66257038D01*
X104829500Y-70442962D01*
X104829274Y-70450449D01*
X104825711Y-70509347D01*
X104836347Y-70567388D01*
X104837474Y-70574791D01*
X104844586Y-70633358D01*
X104848043Y-70642474D01*
X104854068Y-70664087D01*
X104855826Y-70673683D01*
X104880040Y-70727484D01*
X104882905Y-70734401D01*
X104903831Y-70789577D01*
X104909375Y-70797609D01*
X104920395Y-70817149D01*
X104924399Y-70826043D01*
X104960786Y-70872489D01*
X104965215Y-70878508D01*
X104998742Y-70927079D01*
X105041932Y-70965342D01*
X105042912Y-70966210D01*
X105048365Y-70971344D01*
X105368181Y-71291160D01*
X105395061Y-71331388D01*
X105404500Y-71378841D01*
X105404500Y-72620008D01*
X105415000Y-72722796D01*
X105470186Y-72889334D01*
X105562288Y-73038657D01*
X105686342Y-73162711D01*
X105686344Y-73162712D01*
X105791084Y-73227316D01*
X105848001Y-73262422D01*
X105846261Y-73265242D01*
X105877490Y-73285576D01*
X105906578Y-73341548D01*
X105904366Y-73404589D01*
X105871424Y-73458385D01*
X105742860Y-73581603D01*
X105604187Y-73769101D01*
X105499196Y-73977339D01*
X105457038Y-74115000D01*
X108545636Y-74115000D01*
X108539683Y-74087379D01*
X108452732Y-73870994D01*
X108330456Y-73672405D01*
X108176383Y-73497344D01*
X108136666Y-73465274D01*
X108098334Y-73411998D01*
X108092566Y-73346619D01*
X108120976Y-73287454D01*
X108153911Y-73265523D01*
X108151999Y-73262422D01*
X108179880Y-73245225D01*
X108313656Y-73162712D01*
X108437712Y-73038656D01*
X108529814Y-72889334D01*
X108584999Y-72722797D01*
X108595500Y-72620009D01*
X108595499Y-71279992D01*
X108584999Y-71177203D01*
X108529814Y-71010666D01*
X108437712Y-70861344D01*
X108437711Y-70861342D01*
X108313657Y-70737288D01*
X108151999Y-70637578D01*
X108153812Y-70634637D01*
X108123030Y-70614584D01*
X108093954Y-70558613D01*
X108096173Y-70495580D01*
X108129110Y-70441794D01*
X108257516Y-70318728D01*
X108319252Y-70235256D01*
X108337366Y-70210765D01*
X108381236Y-70173777D01*
X108437061Y-70160500D01*
X109506294Y-70160500D01*
X109524264Y-70161809D01*
X109528320Y-70162402D01*
X109548023Y-70165289D01*
X109597368Y-70160972D01*
X109608176Y-70160500D01*
X109613706Y-70160500D01*
X109613709Y-70160500D01*
X109644550Y-70156894D01*
X109648031Y-70156539D01*
X109722797Y-70149999D01*
X109722797Y-70149998D01*
X109724052Y-70149889D01*
X109743062Y-70145674D01*
X109744250Y-70145241D01*
X109744255Y-70145241D01*
X109814820Y-70119557D01*
X109818095Y-70118419D01*
X109889334Y-70094814D01*
X109889336Y-70094812D01*
X109890536Y-70094415D01*
X109908063Y-70085929D01*
X109909112Y-70085238D01*
X109909117Y-70085237D01*
X109971806Y-70044005D01*
X109974798Y-70042099D01*
X110038656Y-70002712D01*
X110038656Y-70002711D01*
X110039729Y-70002050D01*
X110054824Y-69989753D01*
X110055692Y-69988832D01*
X110055696Y-69988830D01*
X110107184Y-69934254D01*
X110109630Y-69931736D01*
X111639549Y-68401817D01*
X111679777Y-68374938D01*
X111727230Y-68365499D01*
X112880009Y-68365499D01*
X112931402Y-68360249D01*
X112982797Y-68354999D01*
X113149334Y-68299814D01*
X113298656Y-68207712D01*
X113422712Y-68083656D01*
X113514814Y-67934334D01*
X113514814Y-67934333D01*
X113522422Y-67921999D01*
X113525365Y-67923814D01*
X113545387Y-67893056D01*
X113601361Y-67863960D01*
X113664407Y-67866169D01*
X113718206Y-67899111D01*
X113841272Y-68027516D01*
X114028839Y-68166240D01*
X114237153Y-68271270D01*
X114460220Y-68339583D01*
X114691624Y-68369216D01*
X114924707Y-68359314D01*
X115152765Y-68310164D01*
X115369235Y-68223179D01*
X115567891Y-68100862D01*
X115743018Y-67946731D01*
X115889578Y-67765220D01*
X115912375Y-67724410D01*
X115955615Y-67679294D01*
X116015367Y-67660995D01*
X116076455Y-67674160D01*
X116123365Y-67715446D01*
X116220236Y-67858772D01*
X116381603Y-68027139D01*
X116569101Y-68165812D01*
X116777339Y-68270803D01*
X116915000Y-68312961D01*
X116915000Y-65224364D01*
X116887379Y-65230316D01*
X116670994Y-65317267D01*
X116472405Y-65439543D01*
X116297342Y-65593618D01*
X116150839Y-65775057D01*
X116128209Y-65815567D01*
X116084969Y-65860681D01*
X116025218Y-65878979D01*
X115964131Y-65865814D01*
X115917221Y-65824528D01*
X115820153Y-65680912D01*
X115760129Y-65618284D01*
X115658728Y-65512484D01*
X115569291Y-65446337D01*
X115471161Y-65373760D01*
X115262847Y-65268730D01*
X115084784Y-65214199D01*
X115031117Y-65180958D01*
X115000770Y-65125604D01*
X115001608Y-65062482D01*
X115033411Y-65007955D01*
X119444953Y-60596413D01*
X119496378Y-60565514D01*
X119556292Y-60562374D01*
X119610668Y-60587730D01*
X119646775Y-60635645D01*
X119656160Y-60694903D01*
X119644340Y-60829999D01*
X119662977Y-61043011D01*
X119655971Y-61096229D01*
X119627130Y-61141500D01*
X118514358Y-62254272D01*
X118500727Y-62266053D01*
X118481467Y-62280392D01*
X118449633Y-62318329D01*
X118442341Y-62326289D01*
X118438408Y-62330222D01*
X118419176Y-62354545D01*
X118416902Y-62357337D01*
X118367894Y-62415744D01*
X118357418Y-62432187D01*
X118325192Y-62501294D01*
X118323622Y-62504536D01*
X118289393Y-62572692D01*
X118282996Y-62591098D01*
X118267573Y-62665788D01*
X118266793Y-62669305D01*
X118249208Y-62743505D01*
X118247229Y-62762878D01*
X118249448Y-62839131D01*
X118249500Y-62842737D01*
X118249500Y-65304717D01*
X118231090Y-65369731D01*
X118181325Y-65415440D01*
X118114984Y-65428270D01*
X118051766Y-65404413D01*
X118010898Y-65374187D01*
X117802660Y-65269196D01*
X117665000Y-65227038D01*
X117665000Y-68315636D01*
X117692620Y-68309683D01*
X117909010Y-68222730D01*
X118060486Y-68129463D01*
X118122868Y-68111080D01*
X118185974Y-68126798D01*
X118232446Y-68172294D01*
X118249500Y-68235052D01*
X118249500Y-69289533D01*
X118240061Y-69336986D01*
X118213181Y-69377214D01*
X117562213Y-70028181D01*
X117521985Y-70055061D01*
X117474532Y-70064500D01*
X114163807Y-70064500D01*
X114145837Y-70063191D01*
X114131954Y-70061157D01*
X114122078Y-70059711D01*
X114122077Y-70059711D01*
X114072735Y-70064028D01*
X114061928Y-70064500D01*
X114056390Y-70064500D01*
X114025588Y-70068099D01*
X114022007Y-70068465D01*
X113946053Y-70075111D01*
X113927024Y-70079329D01*
X113855372Y-70105408D01*
X113851969Y-70106591D01*
X113779580Y-70130579D01*
X113762028Y-70139076D01*
X113698329Y-70180970D01*
X113695291Y-70182905D01*
X113630382Y-70222943D01*
X113615265Y-70235256D01*
X113562949Y-70290708D01*
X113560437Y-70293294D01*
X108690707Y-75163024D01*
X108630178Y-75196334D01*
X108561219Y-75192083D01*
X108505239Y-75151591D01*
X108479616Y-75087429D01*
X108492305Y-75019515D01*
X108500802Y-75002661D01*
X108542962Y-74865000D01*
X107375000Y-74865000D01*
X107375000Y-77281000D01*
X107358387Y-77343000D01*
X107313000Y-77388387D01*
X107251000Y-77405000D01*
X106749000Y-77405000D01*
X106687000Y-77388387D01*
X106641613Y-77343000D01*
X106625000Y-77281000D01*
X106625000Y-74865000D01*
X105454364Y-74865000D01*
X105460316Y-74892620D01*
X105547267Y-75109005D01*
X105669543Y-75307594D01*
X105823618Y-75482657D01*
X106005057Y-75629160D01*
X106046054Y-75652062D01*
X106091169Y-75695301D01*
X106109468Y-75755053D01*
X106096303Y-75816141D01*
X106055017Y-75863051D01*
X105911227Y-75960236D01*
X105742860Y-76121603D01*
X105604189Y-76309099D01*
X105562215Y-76392350D01*
X105524696Y-76436610D01*
X105471150Y-76458956D01*
X105413299Y-76454496D01*
X105363811Y-76424205D01*
X100706819Y-71767213D01*
X100679939Y-71726985D01*
X100670500Y-71679532D01*
X100670500Y-59191627D01*
X105400784Y-59191627D01*
X105410685Y-59424704D01*
X105459836Y-59652767D01*
X105546819Y-59869231D01*
X105546821Y-59869235D01*
X105669138Y-60067891D01*
X105801059Y-60217783D01*
X105823270Y-60243019D01*
X106004776Y-60389576D01*
X106045590Y-60412376D01*
X106090706Y-60455616D01*
X106109004Y-60515367D01*
X106095839Y-60576455D01*
X106054553Y-60623365D01*
X105911227Y-60720236D01*
X105742860Y-60881603D01*
X105604187Y-61069101D01*
X105499196Y-61277339D01*
X105457038Y-61415000D01*
X108545636Y-61415000D01*
X108539683Y-61387379D01*
X108452732Y-61170994D01*
X108330456Y-60972405D01*
X108176381Y-60797342D01*
X107994940Y-60650837D01*
X107954433Y-60628209D01*
X107909318Y-60584970D01*
X107891020Y-60525218D01*
X107904185Y-60464131D01*
X107945469Y-60417222D01*
X108089088Y-60320153D01*
X108257516Y-60158728D01*
X108396240Y-59971161D01*
X108501270Y-59762847D01*
X108569583Y-59539780D01*
X108599216Y-59308376D01*
X108589314Y-59075293D01*
X108540164Y-58847235D01*
X108453179Y-58630765D01*
X108330862Y-58432109D01*
X108176731Y-58256982D01*
X108176729Y-58256980D01*
X107995223Y-58110423D01*
X107791551Y-57996645D01*
X107571581Y-57918925D01*
X107341649Y-57879500D01*
X107341647Y-57879500D01*
X106716784Y-57879500D01*
X106716780Y-57879500D01*
X106542548Y-57894329D01*
X106316779Y-57953114D01*
X106104198Y-58049207D01*
X105910912Y-58179846D01*
X105742483Y-58341272D01*
X105603760Y-58528838D01*
X105498730Y-58737152D01*
X105441849Y-58922888D01*
X105430417Y-58960220D01*
X105401265Y-59187873D01*
X105400784Y-59191627D01*
X100670500Y-59191627D01*
X100670500Y-53336242D01*
X100686399Y-53275495D01*
X100730019Y-53230326D01*
X100790173Y-53212318D01*
X100851438Y-53226087D01*
G37*
G04 #@! TD.AperFunction*
G04 #@! TA.AperFunction,Conductor*
G36*
X140932500Y-64017113D02*
G01*
X140977887Y-64062500D01*
X140994500Y-64124500D01*
X140994500Y-72467962D01*
X140994274Y-72475449D01*
X140990711Y-72534347D01*
X141001347Y-72592388D01*
X141002474Y-72599791D01*
X141009586Y-72658358D01*
X141013043Y-72667474D01*
X141019068Y-72689088D01*
X141020826Y-72698681D01*
X141023576Y-72704791D01*
X141034500Y-72755682D01*
X141034500Y-73217962D01*
X141034274Y-73225449D01*
X141030711Y-73284347D01*
X141041347Y-73342388D01*
X141042474Y-73349791D01*
X141049586Y-73408358D01*
X141053043Y-73417474D01*
X141059068Y-73439087D01*
X141060826Y-73448683D01*
X141085040Y-73502484D01*
X141087905Y-73509401D01*
X141108831Y-73564577D01*
X141114375Y-73572609D01*
X141125395Y-73592149D01*
X141129399Y-73601043D01*
X141165786Y-73647489D01*
X141170215Y-73653508D01*
X141203742Y-73702079D01*
X141243144Y-73736986D01*
X141247912Y-73741210D01*
X141253365Y-73746344D01*
X141702127Y-74195106D01*
X141731373Y-74241506D01*
X141737742Y-74295982D01*
X141719989Y-74347877D01*
X141715187Y-74355662D01*
X141660000Y-74522202D01*
X141649500Y-74624991D01*
X141649500Y-75299659D01*
X141635985Y-75355954D01*
X141598385Y-75399977D01*
X141544898Y-75422132D01*
X141487182Y-75417590D01*
X141437819Y-75387340D01*
X140761819Y-74711340D01*
X140734939Y-74671112D01*
X140725500Y-74623659D01*
X140725500Y-74004538D01*
X140725726Y-73997051D01*
X140726835Y-73978714D01*
X140729289Y-73938154D01*
X140718647Y-73880088D01*
X140717526Y-73872728D01*
X140710414Y-73814142D01*
X140710413Y-73814141D01*
X140708599Y-73799193D01*
X140709283Y-73799109D01*
X140705500Y-73778461D01*
X140705500Y-72792044D01*
X140705726Y-72784557D01*
X140706111Y-72778191D01*
X140709289Y-72725654D01*
X140698644Y-72667569D01*
X140697527Y-72660223D01*
X140690414Y-72601642D01*
X140686956Y-72592526D01*
X140680932Y-72570915D01*
X140679173Y-72561315D01*
X140654952Y-72507501D01*
X140652092Y-72500597D01*
X140631168Y-72445422D01*
X140625627Y-72437394D01*
X140614603Y-72417847D01*
X140610603Y-72408960D01*
X140610602Y-72408959D01*
X140610602Y-72408958D01*
X140577450Y-72366643D01*
X140574214Y-72362512D01*
X140569775Y-72356479D01*
X140555573Y-72335904D01*
X140536258Y-72307921D01*
X140492079Y-72268782D01*
X140486641Y-72263662D01*
X140166319Y-71943340D01*
X140139439Y-71903112D01*
X140130000Y-71855659D01*
X140130000Y-71365000D01*
X138529000Y-71365000D01*
X138467000Y-71348387D01*
X138421613Y-71303000D01*
X138405000Y-71241000D01*
X138405000Y-70739000D01*
X138421613Y-70677000D01*
X138467000Y-70631613D01*
X138529000Y-70615000D01*
X140130000Y-70615000D01*
X140130000Y-70092176D01*
X140123597Y-70032624D01*
X140073352Y-69897910D01*
X139987188Y-69782811D01*
X139872088Y-69696647D01*
X139740528Y-69647577D01*
X139690149Y-69612597D01*
X139662696Y-69557752D01*
X139664885Y-69496460D01*
X139696178Y-69443717D01*
X139818495Y-69321401D01*
X139954035Y-69127830D01*
X140053903Y-68913663D01*
X140115063Y-68685408D01*
X140135659Y-68450000D01*
X140125998Y-68339582D01*
X140115063Y-68214592D01*
X140102107Y-68166239D01*
X140053903Y-67986337D01*
X139954035Y-67772171D01*
X139818495Y-67578599D01*
X139651401Y-67411505D01*
X139465839Y-67281573D01*
X139426975Y-67237257D01*
X139412964Y-67180000D01*
X139426975Y-67122743D01*
X139465839Y-67078426D01*
X139651401Y-66948495D01*
X139818495Y-66781401D01*
X139954035Y-66587830D01*
X140053903Y-66373663D01*
X140115063Y-66145408D01*
X140135659Y-65910000D01*
X140115063Y-65674592D01*
X140053903Y-65446337D01*
X139954035Y-65232171D01*
X139818495Y-65038599D01*
X139651401Y-64871505D01*
X139465839Y-64741573D01*
X139426974Y-64697255D01*
X139412964Y-64639999D01*
X139426975Y-64582742D01*
X139465837Y-64538428D01*
X139651401Y-64408495D01*
X139818495Y-64241401D01*
X139950151Y-64053376D01*
X139994470Y-64014511D01*
X140051727Y-64000500D01*
X140870500Y-64000500D01*
X140932500Y-64017113D01*
G37*
G04 #@! TD.AperFunction*
G04 #@! TA.AperFunction,Conductor*
G36*
X144232318Y-56401267D02*
G01*
X144281681Y-56431517D01*
X147619857Y-59769693D01*
X147630029Y-59781211D01*
X147644454Y-59799744D01*
X147706298Y-59856675D01*
X147711237Y-59861222D01*
X147714935Y-59864771D01*
X147735066Y-59884902D01*
X147756812Y-59903319D01*
X147760633Y-59906694D01*
X147827407Y-59968164D01*
X147847065Y-59981006D01*
X147859376Y-59990187D01*
X147877298Y-60005366D01*
X147955270Y-60051827D01*
X147959599Y-60054529D01*
X148035585Y-60104173D01*
X148057098Y-60113609D01*
X148070741Y-60120633D01*
X148090919Y-60132656D01*
X148175494Y-60165657D01*
X148180177Y-60167596D01*
X148263311Y-60204063D01*
X148286068Y-60209825D01*
X148300703Y-60214514D01*
X148309083Y-60217784D01*
X148322578Y-60223050D01*
X148411418Y-60241678D01*
X148416385Y-60242827D01*
X148504371Y-60265108D01*
X148512825Y-60265808D01*
X148527765Y-60267047D01*
X148542973Y-60269262D01*
X148565955Y-60274081D01*
X148656644Y-60277831D01*
X148661749Y-60278148D01*
X148681402Y-60279777D01*
X148690124Y-60280500D01*
X148690125Y-60280500D01*
X148718596Y-60280500D01*
X148723718Y-60280605D01*
X148744175Y-60281452D01*
X148814411Y-60284357D01*
X148814411Y-60284356D01*
X148814413Y-60284357D01*
X148837718Y-60281452D01*
X148853057Y-60280500D01*
X161593885Y-60280500D01*
X161658899Y-60298910D01*
X161704608Y-60348675D01*
X161717438Y-60415016D01*
X161693581Y-60478235D01*
X161604186Y-60599104D01*
X161499196Y-60807339D01*
X161457038Y-60945000D01*
X163251000Y-60945000D01*
X163313000Y-60961613D01*
X163358387Y-61007000D01*
X163375000Y-61069000D01*
X163375000Y-61571000D01*
X163358387Y-61633000D01*
X163313000Y-61678387D01*
X163251000Y-61695000D01*
X161454364Y-61695000D01*
X161460316Y-61722620D01*
X161547267Y-61939005D01*
X161669543Y-62137594D01*
X161823618Y-62312657D01*
X162005057Y-62459160D01*
X162045565Y-62481789D01*
X162090680Y-62525029D01*
X162108979Y-62584780D01*
X162095814Y-62645868D01*
X162054529Y-62692778D01*
X161910910Y-62789848D01*
X161742483Y-62951272D01*
X161603760Y-63138838D01*
X161498730Y-63347152D01*
X161448213Y-63512107D01*
X161430417Y-63570220D01*
X161403270Y-63782216D01*
X161400784Y-63801627D01*
X161410685Y-64034704D01*
X161459836Y-64262767D01*
X161518394Y-64408493D01*
X161546821Y-64479235D01*
X161669138Y-64677891D01*
X161814317Y-64842847D01*
X161823270Y-64853019D01*
X161862768Y-64884912D01*
X161901095Y-64938174D01*
X161906875Y-65003539D01*
X161878487Y-65062700D01*
X161846007Y-65084345D01*
X161848001Y-65087578D01*
X161686342Y-65187288D01*
X161562288Y-65311342D01*
X161470186Y-65460665D01*
X161415000Y-65627202D01*
X161404500Y-65729990D01*
X161404500Y-67070008D01*
X161415000Y-67172796D01*
X161429358Y-67216124D01*
X161470186Y-67339334D01*
X161471574Y-67341584D01*
X161481040Y-67356931D01*
X161499500Y-67422026D01*
X161499500Y-68406078D01*
X161494065Y-68442383D01*
X161476528Y-68499651D01*
X161430466Y-68650061D01*
X161430417Y-68650220D01*
X161403493Y-68860474D01*
X161400784Y-68881627D01*
X161410685Y-69114704D01*
X161459836Y-69342767D01*
X161538215Y-69537819D01*
X161546821Y-69559235D01*
X161669138Y-69757891D01*
X161691070Y-69782811D01*
X161809074Y-69916890D01*
X161823269Y-69933018D01*
X162004780Y-70079578D01*
X162036929Y-70097537D01*
X162060431Y-70114555D01*
X162067129Y-70120720D01*
X162098490Y-70166423D01*
X162106806Y-70221224D01*
X162090414Y-70274173D01*
X162052591Y-70314691D01*
X161911225Y-70410238D01*
X161742860Y-70571603D01*
X161604187Y-70759101D01*
X161499196Y-70967339D01*
X161457038Y-71105000D01*
X163251000Y-71105000D01*
X163313000Y-71121613D01*
X163358387Y-71167000D01*
X163375000Y-71229000D01*
X163375000Y-74271000D01*
X163358387Y-74333000D01*
X163313000Y-74378387D01*
X163251000Y-74395000D01*
X162749000Y-74395000D01*
X162687000Y-74378387D01*
X162641613Y-74333000D01*
X162625000Y-74271000D01*
X162625000Y-71855000D01*
X161454364Y-71855000D01*
X161460316Y-71882620D01*
X161547267Y-72099005D01*
X161669543Y-72297594D01*
X161823618Y-72472657D01*
X162005057Y-72619160D01*
X162046054Y-72642062D01*
X162091169Y-72685301D01*
X162109468Y-72745053D01*
X162096303Y-72806141D01*
X162055017Y-72853051D01*
X161911227Y-72950236D01*
X161742860Y-73111603D01*
X161604187Y-73299101D01*
X161499196Y-73507339D01*
X161444600Y-73685615D01*
X161411359Y-73739282D01*
X161356005Y-73769629D01*
X161292883Y-73768791D01*
X161238354Y-73736986D01*
X157515728Y-70014360D01*
X157503946Y-70000727D01*
X157499606Y-69994898D01*
X157489610Y-69981470D01*
X157465578Y-69961305D01*
X157451666Y-69949631D01*
X157443691Y-69942323D01*
X157439782Y-69938414D01*
X157439777Y-69938409D01*
X157415423Y-69919152D01*
X157412647Y-69916890D01*
X157354251Y-69867890D01*
X157337821Y-69857422D01*
X157268691Y-69825186D01*
X157265447Y-69823615D01*
X157197306Y-69789394D01*
X157178903Y-69782997D01*
X157104211Y-69767574D01*
X157100692Y-69766794D01*
X157026490Y-69749208D01*
X157007121Y-69747229D01*
X156930869Y-69749448D01*
X156927263Y-69749500D01*
X155928837Y-69749500D01*
X155890518Y-69743431D01*
X155855950Y-69725817D01*
X155842228Y-69715847D01*
X155669302Y-69638855D01*
X155484148Y-69599500D01*
X155484146Y-69599500D01*
X155294854Y-69599500D01*
X155294852Y-69599500D01*
X155109697Y-69638855D01*
X155037098Y-69671179D01*
X154988827Y-69681881D01*
X154940211Y-69672871D01*
X154898981Y-69645581D01*
X154556759Y-69303359D01*
X154523926Y-69244874D01*
X154526352Y-69177848D01*
X154563325Y-69121889D01*
X154624031Y-69093369D01*
X154829492Y-69059083D01*
X155064603Y-68978369D01*
X155222556Y-68892889D01*
X156237440Y-68892889D01*
X156395393Y-68978368D01*
X156630506Y-69059083D01*
X156875707Y-69100000D01*
X157124293Y-69100000D01*
X157369493Y-69059083D01*
X157604603Y-68978369D01*
X157762558Y-68892888D01*
X157000000Y-68130330D01*
X156237440Y-68892888D01*
X156237440Y-68892889D01*
X155222556Y-68892889D01*
X155222558Y-68892888D01*
X153929670Y-67600000D01*
X154990330Y-67600000D01*
X155730000Y-68339670D01*
X156469669Y-67600001D01*
X157530330Y-67600001D01*
X158293290Y-68362961D01*
X158323730Y-68316369D01*
X158423586Y-68088721D01*
X158484613Y-67847732D01*
X158505141Y-67599999D01*
X158484613Y-67352267D01*
X158423586Y-67111278D01*
X158323732Y-66883632D01*
X158293291Y-66837038D01*
X157530330Y-67600000D01*
X157530330Y-67600001D01*
X156469669Y-67600001D01*
X156469670Y-67600000D01*
X155730000Y-66860330D01*
X154990330Y-67600000D01*
X153929670Y-67600000D01*
X153166708Y-66837038D01*
X153166707Y-66837038D01*
X153136268Y-66883630D01*
X153036413Y-67111278D01*
X152975385Y-67352268D01*
X152969186Y-67427088D01*
X152944245Y-67491995D01*
X152888288Y-67533272D01*
X152818910Y-67537939D01*
X152757929Y-67504529D01*
X151560510Y-66307110D01*
X153697439Y-66307110D01*
X154460000Y-67069670D01*
X154460001Y-67069670D01*
X155222559Y-66307110D01*
X156237439Y-66307110D01*
X157000000Y-67069670D01*
X157000001Y-67069670D01*
X157762559Y-66307110D01*
X157604606Y-66221631D01*
X157369493Y-66140916D01*
X157124293Y-66100000D01*
X156875707Y-66100000D01*
X156630506Y-66140916D01*
X156395392Y-66221631D01*
X156237439Y-66307110D01*
X155222559Y-66307110D01*
X155064606Y-66221631D01*
X154829493Y-66140916D01*
X154584293Y-66100000D01*
X154335707Y-66100000D01*
X154090506Y-66140916D01*
X153855392Y-66221631D01*
X153697439Y-66307110D01*
X151560510Y-66307110D01*
X144106319Y-58852919D01*
X144079439Y-58812691D01*
X144070000Y-58765238D01*
X144070000Y-56519198D01*
X144083515Y-56462903D01*
X144121115Y-56418880D01*
X144174602Y-56396725D01*
X144232318Y-56401267D01*
G37*
G04 #@! TD.AperFunction*
G04 #@! TA.AperFunction,Conductor*
G36*
X153801205Y-38779414D02*
G01*
X153846949Y-38830385D01*
X153858658Y-38897865D01*
X153832759Y-38961267D01*
X153777155Y-39001251D01*
X153390605Y-39139561D01*
X153017504Y-39316024D01*
X152663517Y-39528196D01*
X152332012Y-39774057D01*
X152026215Y-40051215D01*
X151749057Y-40357012D01*
X151680546Y-40449389D01*
X151625650Y-40491184D01*
X151556914Y-40497171D01*
X151495619Y-40465494D01*
X151460742Y-40405962D01*
X151424063Y-40261119D01*
X151324173Y-40033393D01*
X151188164Y-39825215D01*
X151019744Y-39642262D01*
X150958945Y-39594940D01*
X150823514Y-39489529D01*
X150823510Y-39489526D01*
X150823509Y-39489526D01*
X150604810Y-39371172D01*
X150604806Y-39371170D01*
X150604805Y-39371170D01*
X150369615Y-39290429D01*
X150124335Y-39249500D01*
X149875665Y-39249500D01*
X149630384Y-39290429D01*
X149395194Y-39371170D01*
X149176485Y-39489529D01*
X148980259Y-39642259D01*
X148980256Y-39642261D01*
X148980256Y-39642262D01*
X148811836Y-39825215D01*
X148785897Y-39864918D01*
X148675825Y-40033395D01*
X148597502Y-40211955D01*
X148575937Y-40261119D01*
X148539258Y-40405962D01*
X148514891Y-40502183D01*
X148498076Y-40705112D01*
X148482319Y-40750000D01*
X148498076Y-40794888D01*
X148514891Y-40997816D01*
X148514891Y-40997819D01*
X148514892Y-40997821D01*
X148575937Y-41238881D01*
X148584561Y-41258541D01*
X148675825Y-41466604D01*
X148675827Y-41466607D01*
X148811836Y-41674785D01*
X148980256Y-41857738D01*
X149010882Y-41881575D01*
X149176485Y-42010470D01*
X149176487Y-42010471D01*
X149176491Y-42010474D01*
X149395190Y-42128828D01*
X149630386Y-42209571D01*
X149875665Y-42250500D01*
X150124335Y-42250500D01*
X150369614Y-42209571D01*
X150604810Y-42128828D01*
X150693002Y-42081100D01*
X150759142Y-42066360D01*
X150823157Y-42088590D01*
X150865926Y-42141153D01*
X150874677Y-42208350D01*
X150814685Y-42612780D01*
X150794433Y-43025000D01*
X150814685Y-43437219D01*
X150866704Y-43787903D01*
X150857953Y-43855100D01*
X150815184Y-43907662D01*
X150751171Y-43929893D01*
X150685029Y-43915153D01*
X150604607Y-43871631D01*
X150369493Y-43790916D01*
X150124293Y-43750000D01*
X149875707Y-43750000D01*
X149630506Y-43790916D01*
X149395392Y-43871631D01*
X149237439Y-43957110D01*
X150000000Y-44719670D01*
X151293290Y-46012961D01*
X151323730Y-45966369D01*
X151423586Y-45738720D01*
X151450918Y-45630791D01*
X151485795Y-45571259D01*
X151547090Y-45539582D01*
X151615826Y-45545569D01*
X151670721Y-45587363D01*
X151709868Y-45640147D01*
X151749057Y-45692987D01*
X152026215Y-45998784D01*
X152332012Y-46275942D01*
X152332015Y-46275944D01*
X152332017Y-46275946D01*
X152496573Y-46397989D01*
X152663517Y-46521803D01*
X153017504Y-46733975D01*
X153017508Y-46733977D01*
X153017510Y-46733978D01*
X153390600Y-46910436D01*
X153390603Y-46910437D01*
X153390605Y-46910438D01*
X153779186Y-47049475D01*
X153779189Y-47049476D01*
X154179535Y-47149757D01*
X154587782Y-47210315D01*
X155000000Y-47230566D01*
X155412218Y-47210315D01*
X155820465Y-47149757D01*
X156220811Y-47049476D01*
X156609400Y-46910436D01*
X156982490Y-46733978D01*
X157336487Y-46521800D01*
X157426556Y-46455000D01*
X161454364Y-46455000D01*
X161460316Y-46482620D01*
X161547267Y-46699005D01*
X161669543Y-46897594D01*
X161823618Y-47072657D01*
X162005057Y-47219160D01*
X162046054Y-47242062D01*
X162091169Y-47285301D01*
X162109468Y-47345053D01*
X162096303Y-47406141D01*
X162055017Y-47453051D01*
X161911227Y-47550236D01*
X161742860Y-47711603D01*
X161604187Y-47899101D01*
X161499196Y-48107339D01*
X161457038Y-48245000D01*
X162625000Y-48245000D01*
X162625000Y-46455000D01*
X161454364Y-46455000D01*
X157426556Y-46455000D01*
X157667983Y-46275946D01*
X157973784Y-45998784D01*
X158250946Y-45692983D01*
X158496800Y-45361487D01*
X158708978Y-45007490D01*
X158885436Y-44634400D01*
X159024476Y-44245811D01*
X159124757Y-43845465D01*
X159185315Y-43437218D01*
X159205566Y-43025000D01*
X159185315Y-42612782D01*
X159124757Y-42204535D01*
X159024476Y-41804189D01*
X159009958Y-41763615D01*
X158885438Y-41415605D01*
X158885152Y-41415001D01*
X158708978Y-41042510D01*
X158708977Y-41042508D01*
X158708975Y-41042504D01*
X158496803Y-40688517D01*
X158422586Y-40588447D01*
X158250946Y-40357017D01*
X158250944Y-40357015D01*
X158250942Y-40357012D01*
X157973784Y-40051215D01*
X157667987Y-39774057D01*
X157336482Y-39528196D01*
X156982495Y-39316024D01*
X156609394Y-39139561D01*
X156222845Y-39001251D01*
X156167241Y-38961267D01*
X156141342Y-38897865D01*
X156153051Y-38830385D01*
X156198795Y-38779414D01*
X156264620Y-38760500D01*
X162102720Y-38760500D01*
X162150173Y-38769939D01*
X162190401Y-38796819D01*
X162568519Y-39174937D01*
X162811402Y-39417819D01*
X162841652Y-39467182D01*
X162846194Y-39524898D01*
X162824039Y-39578385D01*
X162780016Y-39615985D01*
X162723721Y-39629500D01*
X162104991Y-39629500D01*
X162002203Y-39640000D01*
X161835665Y-39695186D01*
X161686342Y-39787288D01*
X161562288Y-39911342D01*
X161470186Y-40060665D01*
X161415000Y-40227202D01*
X161404500Y-40329990D01*
X161404500Y-41670008D01*
X161415000Y-41772796D01*
X161470186Y-41939334D01*
X161562288Y-42088657D01*
X161686342Y-42212711D01*
X161848001Y-42312422D01*
X161846186Y-42315364D01*
X161876952Y-42335396D01*
X161906041Y-42391369D01*
X161903829Y-42454410D01*
X161870888Y-42508206D01*
X161742483Y-42631271D01*
X161603760Y-42818838D01*
X161498730Y-43027152D01*
X161461071Y-43150121D01*
X161430417Y-43250220D01*
X161403880Y-43457453D01*
X161400784Y-43481627D01*
X161410685Y-43714704D01*
X161459836Y-43942767D01*
X161546225Y-44157752D01*
X161546821Y-44159235D01*
X161669138Y-44357891D01*
X161821768Y-44531313D01*
X161823270Y-44533019D01*
X162004776Y-44679576D01*
X162045590Y-44702376D01*
X162090706Y-44745616D01*
X162109004Y-44805367D01*
X162095839Y-44866455D01*
X162054553Y-44913365D01*
X161911227Y-45010236D01*
X161742860Y-45171603D01*
X161604187Y-45359101D01*
X161499196Y-45567339D01*
X161457038Y-45705000D01*
X163251000Y-45705000D01*
X163313000Y-45721613D01*
X163358387Y-45767000D01*
X163375000Y-45829000D01*
X163375000Y-48871000D01*
X163358387Y-48933000D01*
X163313000Y-48978387D01*
X163251000Y-48995000D01*
X161454364Y-48995000D01*
X161460316Y-49022620D01*
X161547267Y-49239005D01*
X161669543Y-49437594D01*
X161823616Y-49612655D01*
X161863333Y-49644725D01*
X161901659Y-49697987D01*
X161907439Y-49763351D01*
X161879052Y-49822512D01*
X161846090Y-49844480D01*
X161848001Y-49847578D01*
X161686342Y-49947288D01*
X161562288Y-50071342D01*
X161470186Y-50220665D01*
X161415000Y-50387202D01*
X161404500Y-50489990D01*
X161404500Y-51830008D01*
X161415000Y-51932796D01*
X161470186Y-52099334D01*
X161562288Y-52248657D01*
X161686342Y-52372711D01*
X161848001Y-52472422D01*
X161846186Y-52475364D01*
X161876952Y-52495396D01*
X161906041Y-52551369D01*
X161903829Y-52614410D01*
X161870888Y-52668206D01*
X161742483Y-52791271D01*
X161603760Y-52978838D01*
X161498730Y-53187152D01*
X161442742Y-53369972D01*
X161430417Y-53410220D01*
X161403983Y-53616649D01*
X161400784Y-53641627D01*
X161410685Y-53874704D01*
X161459836Y-54102767D01*
X161518395Y-54248495D01*
X161546821Y-54319235D01*
X161645808Y-54480000D01*
X161669139Y-54517892D01*
X161823270Y-54693019D01*
X162004776Y-54839576D01*
X162045101Y-54862103D01*
X162090217Y-54905343D01*
X162108515Y-54965094D01*
X162095350Y-55026182D01*
X162054064Y-55073092D01*
X161910912Y-55169846D01*
X161742483Y-55331272D01*
X161603760Y-55518838D01*
X161498730Y-55727152D01*
X161430417Y-55950219D01*
X161400784Y-56181627D01*
X161410685Y-56414704D01*
X161459836Y-56642767D01*
X161546225Y-56857752D01*
X161546821Y-56859235D01*
X161669138Y-57057891D01*
X161669139Y-57057892D01*
X161682943Y-57073576D01*
X161709589Y-57123236D01*
X161711503Y-57179562D01*
X161688289Y-57230916D01*
X161644743Y-57266693D01*
X161589860Y-57279500D01*
X149425082Y-57279500D01*
X149377629Y-57270061D01*
X149337401Y-57243181D01*
X142798127Y-50703907D01*
X142766675Y-50650624D01*
X142764884Y-50588776D01*
X142793202Y-50533763D01*
X142844577Y-50499281D01*
X142906217Y-50493917D01*
X142945665Y-50500500D01*
X143007933Y-50500500D01*
X143194335Y-50500500D01*
X145485665Y-50500500D01*
X145509135Y-50500500D01*
X145524473Y-50501452D01*
X145547779Y-50504357D01*
X145547779Y-50504356D01*
X145547780Y-50504357D01*
X145618017Y-50501452D01*
X145638473Y-50500605D01*
X145643596Y-50500500D01*
X145734334Y-50500500D01*
X145734335Y-50500500D01*
X145757487Y-50496636D01*
X145772773Y-50495051D01*
X145774613Y-50494974D01*
X145796237Y-50494081D01*
X145819225Y-50489260D01*
X145834413Y-50487047D01*
X145857821Y-50485108D01*
X145913221Y-50471078D01*
X145923232Y-50468979D01*
X145979614Y-50459571D01*
X146001832Y-50451942D01*
X146016640Y-50447865D01*
X146039614Y-50443049D01*
X146061496Y-50434509D01*
X146076106Y-50429829D01*
X146098881Y-50424063D01*
X146151220Y-50401103D01*
X146160745Y-50397387D01*
X146214810Y-50378828D01*
X146235470Y-50367646D01*
X146249398Y-50361191D01*
X146271274Y-50352656D01*
X146291456Y-50340628D01*
X146305101Y-50333605D01*
X146326607Y-50324173D01*
X146374455Y-50292911D01*
X146374492Y-50292889D01*
X153697440Y-50292889D01*
X153855393Y-50378368D01*
X154090506Y-50459083D01*
X154335707Y-50500000D01*
X154584293Y-50500000D01*
X154829493Y-50459083D01*
X155064603Y-50378369D01*
X155222556Y-50292889D01*
X156237440Y-50292889D01*
X156395393Y-50378368D01*
X156630506Y-50459083D01*
X156875707Y-50500000D01*
X157124293Y-50500000D01*
X157369493Y-50459083D01*
X157604603Y-50378369D01*
X157762558Y-50292888D01*
X157000000Y-49530330D01*
X156237440Y-50292888D01*
X156237440Y-50292889D01*
X155222556Y-50292889D01*
X155222558Y-50292888D01*
X154460000Y-49530330D01*
X153697440Y-50292888D01*
X153697440Y-50292889D01*
X146374492Y-50292889D01*
X146383225Y-50287685D01*
X146433509Y-50260474D01*
X146452040Y-50246049D01*
X146464721Y-50237385D01*
X146484894Y-50225366D01*
X146502823Y-50210179D01*
X146515118Y-50201011D01*
X146534785Y-50188164D01*
X146576829Y-50149459D01*
X146584642Y-50142841D01*
X146629744Y-50107738D01*
X146668468Y-50065671D01*
X146675671Y-50058468D01*
X146717738Y-50019744D01*
X146732167Y-50001203D01*
X146742325Y-49989701D01*
X147732025Y-49000000D01*
X152954858Y-49000000D01*
X152975386Y-49247732D01*
X153036413Y-49488721D01*
X153136267Y-49716366D01*
X153166708Y-49762960D01*
X153929670Y-49000001D01*
X153929670Y-49000000D01*
X154990330Y-49000000D01*
X155730000Y-49739670D01*
X156469669Y-49000001D01*
X157530330Y-49000001D01*
X158293290Y-49762961D01*
X158323730Y-49716369D01*
X158423586Y-49488721D01*
X158484613Y-49247732D01*
X158505141Y-49000000D01*
X158484613Y-48752267D01*
X158423586Y-48511278D01*
X158323732Y-48283632D01*
X158293291Y-48237038D01*
X157530330Y-49000000D01*
X157530330Y-49000001D01*
X156469669Y-49000001D01*
X156469670Y-49000000D01*
X155730000Y-48260330D01*
X154990330Y-49000000D01*
X153929670Y-49000000D01*
X153929670Y-48999999D01*
X153166708Y-48237037D01*
X153166707Y-48237038D01*
X153136268Y-48283630D01*
X153036413Y-48511278D01*
X152975386Y-48752267D01*
X152954858Y-49000000D01*
X147732025Y-49000000D01*
X147739697Y-48992328D01*
X147751199Y-48982171D01*
X147769744Y-48967738D01*
X147831247Y-48900926D01*
X147834725Y-48897301D01*
X147854901Y-48877126D01*
X147873315Y-48855382D01*
X147876700Y-48851552D01*
X147938160Y-48784789D01*
X147938164Y-48784785D01*
X147951006Y-48765126D01*
X147960188Y-48752813D01*
X147975366Y-48734894D01*
X148021838Y-48656901D01*
X148024539Y-48652576D01*
X148074173Y-48576607D01*
X148083604Y-48555104D01*
X148090637Y-48541443D01*
X148092402Y-48538479D01*
X148102655Y-48521274D01*
X148135656Y-48436695D01*
X148137593Y-48432021D01*
X148174063Y-48348881D01*
X148179827Y-48326116D01*
X148184510Y-48311496D01*
X148193049Y-48289614D01*
X148211669Y-48200809D01*
X148212822Y-48195825D01*
X148217718Y-48176491D01*
X148235108Y-48107821D01*
X148237046Y-48084413D01*
X148239263Y-48069205D01*
X148239443Y-48068346D01*
X148244080Y-48046237D01*
X148247830Y-47955544D01*
X148248146Y-47950467D01*
X148250500Y-47922067D01*
X148250500Y-47893589D01*
X148250606Y-47888464D01*
X148254357Y-47797780D01*
X148252729Y-47784723D01*
X148251452Y-47774474D01*
X148250500Y-47759136D01*
X148250500Y-47707110D01*
X153697439Y-47707110D01*
X154460000Y-48469670D01*
X154460001Y-48469670D01*
X155222559Y-47707110D01*
X156237439Y-47707110D01*
X157000000Y-48469670D01*
X157000001Y-48469670D01*
X157762559Y-47707110D01*
X157604606Y-47621631D01*
X157369493Y-47540916D01*
X157124293Y-47500000D01*
X156875707Y-47500000D01*
X156630506Y-47540916D01*
X156395392Y-47621631D01*
X156237439Y-47707110D01*
X155222559Y-47707110D01*
X155064606Y-47621631D01*
X154829493Y-47540916D01*
X154584293Y-47500000D01*
X154335707Y-47500000D01*
X154090506Y-47540916D01*
X153855392Y-47621631D01*
X153697439Y-47707110D01*
X148250500Y-47707110D01*
X148250500Y-46542889D01*
X149237440Y-46542889D01*
X149395393Y-46628368D01*
X149630506Y-46709083D01*
X149875707Y-46750000D01*
X150124293Y-46750000D01*
X150369493Y-46709083D01*
X150604603Y-46628369D01*
X150762558Y-46542888D01*
X150000000Y-45780330D01*
X149237440Y-46542888D01*
X149237440Y-46542889D01*
X148250500Y-46542889D01*
X148250500Y-45299070D01*
X148263286Y-45250000D01*
X148263286Y-45249999D01*
X148484445Y-45249999D01*
X148498076Y-45288830D01*
X148515386Y-45497732D01*
X148576413Y-45738721D01*
X148676267Y-45966366D01*
X148706708Y-46012960D01*
X149469670Y-45250001D01*
X149469670Y-45250000D01*
X148706708Y-44487038D01*
X148706707Y-44487038D01*
X148676268Y-44533630D01*
X148576413Y-44761278D01*
X148515386Y-45002267D01*
X148498076Y-45211170D01*
X148484445Y-45249999D01*
X148263286Y-45249999D01*
X148250500Y-45200930D01*
X148250500Y-40805128D01*
X148264865Y-40750000D01*
X148250500Y-40694872D01*
X148250500Y-38884500D01*
X148267113Y-38822500D01*
X148312500Y-38777113D01*
X148374500Y-38760500D01*
X153735380Y-38760500D01*
X153801205Y-38779414D01*
G37*
G04 #@! TD.AperFunction*
G04 #@! TA.AperFunction,Conductor*
G36*
X118581512Y-38774015D02*
G01*
X118625535Y-38811615D01*
X118647690Y-38865102D01*
X118643148Y-38922818D01*
X118612898Y-38972181D01*
X118052645Y-39532433D01*
X118050398Y-39534624D01*
X117986948Y-39594940D01*
X117953244Y-39643362D01*
X117947573Y-39650882D01*
X117910301Y-39696593D01*
X117896210Y-39723566D01*
X117888082Y-39736983D01*
X117870705Y-39761950D01*
X117847439Y-39816165D01*
X117843399Y-39824671D01*
X117816090Y-39876952D01*
X117807720Y-39906201D01*
X117802459Y-39920978D01*
X117790460Y-39948942D01*
X117778587Y-40006713D01*
X117776342Y-40015860D01*
X117760113Y-40072580D01*
X117757802Y-40102925D01*
X117755622Y-40118466D01*
X117749500Y-40148259D01*
X117749500Y-40207242D01*
X117749142Y-40216656D01*
X117744663Y-40275477D01*
X117748506Y-40305651D01*
X117749500Y-40321317D01*
X117749500Y-45327424D01*
X117734938Y-45385727D01*
X117694673Y-45430337D01*
X117638161Y-45450776D01*
X117578676Y-45442243D01*
X117530188Y-45406744D01*
X117404760Y-45256028D01*
X117353791Y-45194782D01*
X117149323Y-45011577D01*
X116920359Y-44860096D01*
X116671779Y-44743567D01*
X116408881Y-44664473D01*
X116137269Y-44624500D01*
X115931453Y-44624500D01*
X115931449Y-44624500D01*
X115726199Y-44639522D01*
X115538847Y-44681256D01*
X115470230Y-44677016D01*
X115414417Y-44636876D01*
X115388564Y-44573175D01*
X115400618Y-44505492D01*
X115446873Y-44454632D01*
X115449228Y-44453181D01*
X115449235Y-44453179D01*
X115647891Y-44330862D01*
X115823018Y-44176731D01*
X115930423Y-44043713D01*
X115969576Y-43995223D01*
X115982488Y-43972110D01*
X116083354Y-43791552D01*
X116161073Y-43571584D01*
X116162032Y-43565995D01*
X116200500Y-43341649D01*
X116200500Y-42716780D01*
X116185670Y-42542548D01*
X116126885Y-42316779D01*
X116030792Y-42104198D01*
X115900153Y-41910912D01*
X115797867Y-41804189D01*
X115738728Y-41742484D01*
X115712036Y-41722743D01*
X115551161Y-41603760D01*
X115342847Y-41498730D01*
X115119780Y-41430417D01*
X114888376Y-41400784D01*
X114888372Y-41400784D01*
X114655295Y-41410685D01*
X114427232Y-41459836D01*
X114210768Y-41546819D01*
X114012107Y-41669139D01*
X113836980Y-41823270D01*
X113690423Y-42004776D01*
X113667622Y-42045592D01*
X113624382Y-42090706D01*
X113564631Y-42109004D01*
X113503543Y-42095839D01*
X113456634Y-42054553D01*
X113359763Y-41911227D01*
X113198396Y-41742860D01*
X113010898Y-41604187D01*
X112802660Y-41499196D01*
X112665000Y-41457038D01*
X112665000Y-44545636D01*
X112692620Y-44539683D01*
X112909005Y-44452732D01*
X113107594Y-44330456D01*
X113282657Y-44176381D01*
X113429161Y-43994940D01*
X113451789Y-43954435D01*
X113495028Y-43909319D01*
X113554779Y-43891020D01*
X113615868Y-43904185D01*
X113662778Y-43945471D01*
X113759846Y-44089087D01*
X113878221Y-44212597D01*
X113921272Y-44257516D01*
X114108839Y-44396240D01*
X114317153Y-44501270D01*
X114540220Y-44569583D01*
X114771624Y-44599216D01*
X115004707Y-44589314D01*
X115121912Y-44564054D01*
X115191275Y-44569055D01*
X115247040Y-44610614D01*
X115271660Y-44675658D01*
X115257391Y-44743725D01*
X115208721Y-44793405D01*
X114962391Y-44931653D01*
X114745094Y-45099443D01*
X114554545Y-45297083D01*
X114394802Y-45520364D01*
X114269272Y-45764521D01*
X114180629Y-46024352D01*
X114130763Y-46294325D01*
X114120737Y-46568678D01*
X114150763Y-46841569D01*
X114193029Y-47003235D01*
X114220204Y-47107182D01*
X114295896Y-47285301D01*
X114327577Y-47359852D01*
X114459451Y-47575937D01*
X114470595Y-47594196D01*
X114646209Y-47805218D01*
X114850677Y-47988423D01*
X115079641Y-48139904D01*
X115328221Y-48256433D01*
X115591119Y-48335527D01*
X115862731Y-48375500D01*
X116068547Y-48375500D01*
X116068551Y-48375500D01*
X116273805Y-48360477D01*
X116325861Y-48348881D01*
X116541775Y-48300784D01*
X116798198Y-48202711D01*
X117037609Y-48068347D01*
X117254904Y-47900557D01*
X117445454Y-47702916D01*
X117524652Y-47592216D01*
X117572048Y-47552480D01*
X117632743Y-47540580D01*
X117691636Y-47559478D01*
X117734075Y-47604472D01*
X117749500Y-47664368D01*
X117749500Y-47817921D01*
X117740061Y-47865374D01*
X117713181Y-47905602D01*
X117277238Y-48341544D01*
X117237011Y-48368424D01*
X117172393Y-48395190D01*
X117028372Y-48454846D01*
X116936283Y-48511278D01*
X116806856Y-48590590D01*
X116609311Y-48759311D01*
X116440590Y-48956856D01*
X116409308Y-49007905D01*
X116304846Y-49178372D01*
X116300424Y-49189048D01*
X116205426Y-49418389D01*
X116144779Y-49671004D01*
X116127921Y-49885208D01*
X116124396Y-49930000D01*
X116130001Y-50001216D01*
X116144779Y-50188995D01*
X116205426Y-50441610D01*
X116234165Y-50510990D01*
X116304846Y-50681628D01*
X116411845Y-50856235D01*
X116440590Y-50903143D01*
X116442524Y-50905407D01*
X116609311Y-51100689D01*
X116709192Y-51185995D01*
X116736032Y-51208919D01*
X116768110Y-51251295D01*
X116779500Y-51303209D01*
X116779500Y-51375500D01*
X116762887Y-51437500D01*
X116717500Y-51482887D01*
X116655500Y-51499500D01*
X114459560Y-51499500D01*
X114399917Y-51484214D01*
X114354979Y-51442125D01*
X114335825Y-51383610D01*
X114347178Y-51323095D01*
X114363627Y-51287819D01*
X114381575Y-51249330D01*
X114438207Y-51037977D01*
X114457277Y-50820000D01*
X114438207Y-50602023D01*
X114381575Y-50390670D01*
X114289102Y-50192362D01*
X114163598Y-50013123D01*
X114008877Y-49858402D01*
X113829639Y-49732898D01*
X113737775Y-49690061D01*
X113631331Y-49640425D01*
X113460378Y-49594618D01*
X113404790Y-49562524D01*
X113372697Y-49506936D01*
X113372697Y-49442749D01*
X113372801Y-49442361D01*
X113422207Y-49257977D01*
X113441277Y-49040000D01*
X113422207Y-48822023D01*
X113365575Y-48610670D01*
X113273102Y-48412362D01*
X113147598Y-48233123D01*
X112992877Y-48078402D01*
X112813639Y-47952898D01*
X112711215Y-47905137D01*
X112615331Y-47860425D01*
X112403974Y-47803792D01*
X112186000Y-47784722D01*
X111968025Y-47803792D01*
X111756668Y-47860425D01*
X111558361Y-47952898D01*
X111379122Y-48078402D01*
X111224402Y-48233122D01*
X111098898Y-48412361D01*
X111006425Y-48610668D01*
X110975773Y-48725062D01*
X110943679Y-48780649D01*
X110241680Y-49482648D01*
X110186093Y-49514742D01*
X110121905Y-49514742D01*
X110066318Y-49482648D01*
X109138000Y-48554330D01*
X108209681Y-49482649D01*
X108154094Y-49514743D01*
X108089906Y-49514743D01*
X108034319Y-49482649D01*
X107679350Y-49127680D01*
X107647256Y-49072093D01*
X107647256Y-49007905D01*
X107679350Y-48952318D01*
X108700931Y-47930737D01*
X109575067Y-47930737D01*
X110154000Y-48509670D01*
X110154001Y-48509670D01*
X110732932Y-47930737D01*
X110732932Y-47930736D01*
X110583161Y-47860898D01*
X110371886Y-47804287D01*
X110154000Y-47785224D01*
X109936113Y-47804287D01*
X109724843Y-47860897D01*
X109575067Y-47930737D01*
X108700931Y-47930737D01*
X108700932Y-47930736D01*
X108551161Y-47860898D01*
X108339886Y-47804287D01*
X108122000Y-47785224D01*
X107904113Y-47804287D01*
X107692840Y-47860897D01*
X107494611Y-47953333D01*
X107408364Y-48013724D01*
X107349354Y-48035556D01*
X107287225Y-48025614D01*
X107237974Y-47986459D01*
X107233330Y-47980256D01*
X107213176Y-47953333D01*
X107197547Y-47932455D01*
X107187301Y-47924785D01*
X107082331Y-47846204D01*
X106947483Y-47795909D01*
X106887873Y-47789500D01*
X106887869Y-47789500D01*
X106376433Y-47789500D01*
X106320138Y-47775985D01*
X106276115Y-47738385D01*
X106253960Y-47684898D01*
X106258502Y-47627182D01*
X106288752Y-47577819D01*
X107025002Y-46841569D01*
X109282546Y-44584023D01*
X109340256Y-44551382D01*
X109406535Y-44553141D01*
X109434246Y-44561628D01*
X109460216Y-44569582D01*
X109460217Y-44569582D01*
X109460220Y-44569583D01*
X109691624Y-44599216D01*
X109924707Y-44589314D01*
X110152765Y-44540164D01*
X110369235Y-44453179D01*
X110567891Y-44330862D01*
X110743018Y-44176731D01*
X110889578Y-43995220D01*
X110912375Y-43954410D01*
X110955615Y-43909294D01*
X111015367Y-43890995D01*
X111076455Y-43904160D01*
X111123365Y-43945446D01*
X111220236Y-44088772D01*
X111381603Y-44257139D01*
X111569101Y-44395812D01*
X111777339Y-44500803D01*
X111915000Y-44542961D01*
X111915000Y-41454364D01*
X111887379Y-41460316D01*
X111670994Y-41547267D01*
X111472405Y-41669543D01*
X111297342Y-41823618D01*
X111150839Y-42005057D01*
X111128209Y-42045567D01*
X111084969Y-42090681D01*
X111025218Y-42108979D01*
X110964131Y-42095814D01*
X110917221Y-42054528D01*
X110820153Y-41910912D01*
X110717867Y-41804189D01*
X110658728Y-41742484D01*
X110632036Y-41722743D01*
X110471161Y-41603760D01*
X110262847Y-41498730D01*
X110039780Y-41430417D01*
X109808376Y-41400784D01*
X109808372Y-41400784D01*
X109575295Y-41410685D01*
X109347232Y-41459836D01*
X109130768Y-41546819D01*
X108932107Y-41669139D01*
X108756980Y-41823270D01*
X108610423Y-42004777D01*
X108587895Y-42045103D01*
X108544655Y-42090217D01*
X108484904Y-42108515D01*
X108423816Y-42095350D01*
X108376907Y-42054064D01*
X108370850Y-42045103D01*
X108280153Y-41910912D01*
X108118728Y-41742484D01*
X108092036Y-41722743D01*
X107931161Y-41603760D01*
X107722847Y-41498730D01*
X107499780Y-41430417D01*
X107268376Y-41400784D01*
X107268372Y-41400784D01*
X107035295Y-41410685D01*
X106807232Y-41459836D01*
X106590768Y-41546819D01*
X106392107Y-41669139D01*
X106216981Y-41823269D01*
X106185086Y-41862770D01*
X106131810Y-41901101D01*
X106066432Y-41906869D01*
X106007267Y-41878459D01*
X105985657Y-41846005D01*
X105982422Y-41848001D01*
X105967167Y-41823269D01*
X105895236Y-41706648D01*
X105882711Y-41686342D01*
X105758657Y-41562288D01*
X105609334Y-41470186D01*
X105442797Y-41415000D01*
X105340009Y-41404500D01*
X103999991Y-41404500D01*
X103897203Y-41415000D01*
X103730665Y-41470186D01*
X103581342Y-41562288D01*
X103457289Y-41686341D01*
X103445654Y-41705205D01*
X103395668Y-41750966D01*
X103329090Y-41763615D01*
X103265806Y-41739373D01*
X103222091Y-41706648D01*
X103087375Y-41656402D01*
X103027824Y-41650000D01*
X102334563Y-41650000D01*
X102278268Y-41636485D01*
X102234245Y-41598885D01*
X102212090Y-41545398D01*
X102216632Y-41487682D01*
X102246882Y-41438319D01*
X102710882Y-40974319D01*
X102751110Y-40947439D01*
X102798563Y-40938000D01*
X115624639Y-40938000D01*
X115662957Y-40944069D01*
X115697523Y-40961681D01*
X115797270Y-41034151D01*
X115797271Y-41034151D01*
X115797272Y-41034152D01*
X115970197Y-41111144D01*
X116155352Y-41150500D01*
X116155354Y-41150500D01*
X116344646Y-41150500D01*
X116344648Y-41150500D01*
X116473789Y-41123050D01*
X116529803Y-41111144D01*
X116702730Y-41034151D01*
X116741939Y-41005664D01*
X116855870Y-40922889D01*
X116982533Y-40782216D01*
X117077179Y-40618284D01*
X117086874Y-40588447D01*
X117135674Y-40438256D01*
X117155460Y-40250000D01*
X117135674Y-40061744D01*
X117089936Y-39920978D01*
X117077179Y-39881715D01*
X116982533Y-39717783D01*
X116855870Y-39577110D01*
X116702730Y-39465848D01*
X116529802Y-39388855D01*
X116344648Y-39349500D01*
X116344646Y-39349500D01*
X116155354Y-39349500D01*
X116155352Y-39349500D01*
X115970197Y-39388855D01*
X115797272Y-39465847D01*
X115764681Y-39489526D01*
X115711457Y-39528196D01*
X115697525Y-39538318D01*
X115662957Y-39555931D01*
X115624639Y-39562000D01*
X103609389Y-39562000D01*
X103553094Y-39548485D01*
X103509071Y-39510885D01*
X103486916Y-39457398D01*
X103491458Y-39399682D01*
X103521708Y-39350319D01*
X104075208Y-38796819D01*
X104115436Y-38769939D01*
X104162889Y-38760500D01*
X118525217Y-38760500D01*
X118581512Y-38774015D01*
G37*
G04 #@! TD.AperFunction*
M02*
