G04 #@! TF.GenerationSoftware,KiCad,Pcbnew,7.0.1*
G04 #@! TF.CreationDate,2023-12-05T18:06:22-06:00*
G04 #@! TF.ProjectId,Pico Breakout Board V3,5069636f-2042-4726-9561-6b6f75742042,rev?*
G04 #@! TF.SameCoordinates,Original*
G04 #@! TF.FileFunction,Legend,Bot*
G04 #@! TF.FilePolarity,Positive*
%FSLAX46Y46*%
G04 Gerber Fmt 4.6, Leading zero omitted, Abs format (unit mm)*
G04 Created by KiCad (PCBNEW 7.0.1) date 2023-12-05 18:06:22*
%MOMM*%
%LPD*%
G01*
G04 APERTURE LIST*
G04 Aperture macros list*
%AMRoundRect*
0 Rectangle with rounded corners*
0 $1 Rounding radius*
0 $2 $3 $4 $5 $6 $7 $8 $9 X,Y pos of 4 corners*
0 Add a 4 corners polygon primitive as box body*
4,1,4,$2,$3,$4,$5,$6,$7,$8,$9,$2,$3,0*
0 Add four circle primitives for the rounded corners*
1,1,$1+$1,$2,$3*
1,1,$1+$1,$4,$5*
1,1,$1+$1,$6,$7*
1,1,$1+$1,$8,$9*
0 Add four rect primitives between the rounded corners*
20,1,$1+$1,$2,$3,$4,$5,0*
20,1,$1+$1,$4,$5,$6,$7,0*
20,1,$1+$1,$6,$7,$8,$9,0*
20,1,$1+$1,$8,$9,$2,$3,0*%
%AMFreePoly0*
4,1,19,0.000000,0.744911,0.071157,0.744911,0.207708,0.704816,0.327430,0.627875,0.420627,0.520320,0.479746,0.390866,0.500000,0.250000,0.500000,-0.250000,0.479746,-0.390866,0.420627,-0.520320,0.327430,-0.627875,0.207708,-0.704816,0.071157,-0.744911,0.000000,-0.744911,0.000000,-0.750000,-0.500000,-0.750000,-0.500000,0.750000,0.000000,0.750000,0.000000,0.744911,0.000000,0.744911,
$1*%
%AMFreePoly1*
4,1,19,0.500000,-0.750000,0.000000,-0.750000,0.000000,-0.744911,-0.071157,-0.744911,-0.207708,-0.704816,-0.327430,-0.627875,-0.420627,-0.520320,-0.479746,-0.390866,-0.500000,-0.250000,-0.500000,0.250000,-0.479746,0.390866,-0.420627,0.520320,-0.327430,0.627875,-0.207708,0.704816,-0.071157,0.744911,0.000000,0.744911,0.000000,0.750000,0.500000,0.750000,0.500000,-0.750000,0.500000,-0.750000,
$1*%
G04 Aperture macros list end*
%ADD10C,0.150000*%
%ADD11C,0.120000*%
%ADD12O,1.740000X2.190000*%
%ADD13RoundRect,0.250000X-0.620000X-0.845000X0.620000X-0.845000X0.620000X0.845000X-0.620000X0.845000X0*%
%ADD14R,1.700000X1.700000*%
%ADD15RoundRect,0.250000X-0.350000X-0.450000X0.350000X-0.450000X0.350000X0.450000X-0.350000X0.450000X0*%
%ADD16O,2.190000X1.740000*%
%ADD17RoundRect,0.250000X0.845000X-0.620000X0.845000X0.620000X-0.845000X0.620000X-0.845000X-0.620000X0*%
%ADD18C,2.000000*%
%ADD19RoundRect,0.150000X0.150000X-0.825000X0.150000X0.825000X-0.150000X0.825000X-0.150000X-0.825000X0*%
%ADD20O,1.700000X1.700000*%
%ADD21RoundRect,0.250000X-0.564711X0.078109X-0.214711X-0.528109X0.564711X-0.078109X0.214711X0.528109X0*%
%ADD22FreePoly0,90.000000*%
%ADD23FreePoly1,90.000000*%
%ADD24R,4.600000X2.000000*%
%ADD25O,4.200000X2.000000*%
%ADD26O,2.000000X4.200000*%
%ADD27RoundRect,0.250000X-0.845000X0.620000X-0.845000X-0.620000X0.845000X-0.620000X0.845000X0.620000X0*%
%ADD28RoundRect,0.250000X0.620000X0.845000X-0.620000X0.845000X-0.620000X-0.845000X0.620000X-0.845000X0*%
%ADD29C,3.250000*%
%ADD30R,1.500000X1.500000*%
%ADD31C,1.500000*%
%ADD32C,2.300000*%
%ADD33C,0.800000*%
%ADD34C,7.400000*%
%ADD35RoundRect,0.250000X-0.300000X0.300000X-0.300000X-0.300000X0.300000X-0.300000X0.300000X0.300000X0*%
%ADD36RoundRect,0.150000X0.587500X0.150000X-0.587500X0.150000X-0.587500X-0.150000X0.587500X-0.150000X0*%
%ADD37RoundRect,0.150000X-0.587500X-0.150000X0.587500X-0.150000X0.587500X0.150000X-0.587500X0.150000X0*%
%ADD38RoundRect,0.250000X0.337500X0.475000X-0.337500X0.475000X-0.337500X-0.475000X0.337500X-0.475000X0*%
%ADD39R,2.000000X2.000000*%
G04 APERTURE END LIST*
D10*
X129300000Y-41000000D02*
X129900000Y-41600000D01*
X130100000Y-40800000D02*
X129300000Y-41000000D01*
X129300000Y-41000000D02*
X130100000Y-40800000D01*
X131800000Y-41800000D02*
X129300000Y-41000000D01*
X131490952Y-42338095D02*
X132348095Y-42338095D01*
X132348095Y-42338095D02*
X132443333Y-42290476D01*
X132443333Y-42290476D02*
X132490952Y-42195238D01*
X132490952Y-42195238D02*
X132490952Y-42147619D01*
X131157619Y-42338095D02*
X131205238Y-42290476D01*
X131205238Y-42290476D02*
X131252857Y-42338095D01*
X131252857Y-42338095D02*
X131205238Y-42385714D01*
X131205238Y-42385714D02*
X131157619Y-42338095D01*
X131157619Y-42338095D02*
X131252857Y-42338095D01*
X131490952Y-43242856D02*
X132157619Y-43242856D01*
X131490952Y-42814285D02*
X132014761Y-42814285D01*
X132014761Y-42814285D02*
X132110000Y-42861904D01*
X132110000Y-42861904D02*
X132157619Y-42957142D01*
X132157619Y-42957142D02*
X132157619Y-43099999D01*
X132157619Y-43099999D02*
X132110000Y-43195237D01*
X132110000Y-43195237D02*
X132062380Y-43242856D01*
X132157619Y-43719047D02*
X131490952Y-43719047D01*
X131586190Y-43719047D02*
X131538571Y-43766666D01*
X131538571Y-43766666D02*
X131490952Y-43861904D01*
X131490952Y-43861904D02*
X131490952Y-44004761D01*
X131490952Y-44004761D02*
X131538571Y-44099999D01*
X131538571Y-44099999D02*
X131633809Y-44147618D01*
X131633809Y-44147618D02*
X132157619Y-44147618D01*
X131633809Y-44147618D02*
X131538571Y-44195237D01*
X131538571Y-44195237D02*
X131490952Y-44290475D01*
X131490952Y-44290475D02*
X131490952Y-44433332D01*
X131490952Y-44433332D02*
X131538571Y-44528571D01*
X131538571Y-44528571D02*
X131633809Y-44576190D01*
X131633809Y-44576190D02*
X132157619Y-44576190D01*
X131490952Y-45052380D02*
X132490952Y-45052380D01*
X131538571Y-45052380D02*
X131490952Y-45147618D01*
X131490952Y-45147618D02*
X131490952Y-45338094D01*
X131490952Y-45338094D02*
X131538571Y-45433332D01*
X131538571Y-45433332D02*
X131586190Y-45480951D01*
X131586190Y-45480951D02*
X131681428Y-45528570D01*
X131681428Y-45528570D02*
X131967142Y-45528570D01*
X131967142Y-45528570D02*
X132062380Y-45480951D01*
X132062380Y-45480951D02*
X132110000Y-45433332D01*
X132110000Y-45433332D02*
X132157619Y-45338094D01*
X132157619Y-45338094D02*
X132157619Y-45147618D01*
X132157619Y-45147618D02*
X132110000Y-45052380D01*
X132157619Y-46719047D02*
X131490952Y-46719047D01*
X131157619Y-46719047D02*
X131205238Y-46671428D01*
X131205238Y-46671428D02*
X131252857Y-46719047D01*
X131252857Y-46719047D02*
X131205238Y-46766666D01*
X131205238Y-46766666D02*
X131157619Y-46719047D01*
X131157619Y-46719047D02*
X131252857Y-46719047D01*
X131490952Y-47052380D02*
X131490952Y-47433332D01*
X132157619Y-47195237D02*
X131300476Y-47195237D01*
X131300476Y-47195237D02*
X131205238Y-47242856D01*
X131205238Y-47242856D02*
X131157619Y-47338094D01*
X131157619Y-47338094D02*
X131157619Y-47433332D01*
X131490952Y-48528571D02*
X132157619Y-48528571D01*
X131586190Y-48528571D02*
X131538571Y-48576190D01*
X131538571Y-48576190D02*
X131490952Y-48671428D01*
X131490952Y-48671428D02*
X131490952Y-48814285D01*
X131490952Y-48814285D02*
X131538571Y-48909523D01*
X131538571Y-48909523D02*
X131633809Y-48957142D01*
X131633809Y-48957142D02*
X132157619Y-48957142D01*
X132157619Y-49576190D02*
X132110000Y-49480952D01*
X132110000Y-49480952D02*
X132062380Y-49433333D01*
X132062380Y-49433333D02*
X131967142Y-49385714D01*
X131967142Y-49385714D02*
X131681428Y-49385714D01*
X131681428Y-49385714D02*
X131586190Y-49433333D01*
X131586190Y-49433333D02*
X131538571Y-49480952D01*
X131538571Y-49480952D02*
X131490952Y-49576190D01*
X131490952Y-49576190D02*
X131490952Y-49719047D01*
X131490952Y-49719047D02*
X131538571Y-49814285D01*
X131538571Y-49814285D02*
X131586190Y-49861904D01*
X131586190Y-49861904D02*
X131681428Y-49909523D01*
X131681428Y-49909523D02*
X131967142Y-49909523D01*
X131967142Y-49909523D02*
X132062380Y-49861904D01*
X132062380Y-49861904D02*
X132110000Y-49814285D01*
X132110000Y-49814285D02*
X132157619Y-49719047D01*
X132157619Y-49719047D02*
X132157619Y-49576190D01*
X132110000Y-51480952D02*
X132157619Y-51385714D01*
X132157619Y-51385714D02*
X132157619Y-51195238D01*
X132157619Y-51195238D02*
X132110000Y-51100000D01*
X132110000Y-51100000D02*
X132014761Y-51052381D01*
X132014761Y-51052381D02*
X131633809Y-51052381D01*
X131633809Y-51052381D02*
X131538571Y-51100000D01*
X131538571Y-51100000D02*
X131490952Y-51195238D01*
X131490952Y-51195238D02*
X131490952Y-51385714D01*
X131490952Y-51385714D02*
X131538571Y-51480952D01*
X131538571Y-51480952D02*
X131633809Y-51528571D01*
X131633809Y-51528571D02*
X131729047Y-51528571D01*
X131729047Y-51528571D02*
X131824285Y-51052381D01*
X132157619Y-52385714D02*
X131633809Y-52385714D01*
X131633809Y-52385714D02*
X131538571Y-52338095D01*
X131538571Y-52338095D02*
X131490952Y-52242857D01*
X131490952Y-52242857D02*
X131490952Y-52052381D01*
X131490952Y-52052381D02*
X131538571Y-51957143D01*
X132110000Y-52385714D02*
X132157619Y-52290476D01*
X132157619Y-52290476D02*
X132157619Y-52052381D01*
X132157619Y-52052381D02*
X132110000Y-51957143D01*
X132110000Y-51957143D02*
X132014761Y-51909524D01*
X132014761Y-51909524D02*
X131919523Y-51909524D01*
X131919523Y-51909524D02*
X131824285Y-51957143D01*
X131824285Y-51957143D02*
X131776666Y-52052381D01*
X131776666Y-52052381D02*
X131776666Y-52290476D01*
X131776666Y-52290476D02*
X131729047Y-52385714D01*
X132157619Y-52861905D02*
X131490952Y-52861905D01*
X131681428Y-52861905D02*
X131586190Y-52909524D01*
X131586190Y-52909524D02*
X131538571Y-52957143D01*
X131538571Y-52957143D02*
X131490952Y-53052381D01*
X131490952Y-53052381D02*
X131490952Y-53147619D01*
X131490952Y-53338096D02*
X131490952Y-53719048D01*
X131157619Y-53480953D02*
X132014761Y-53480953D01*
X132014761Y-53480953D02*
X132110000Y-53528572D01*
X132110000Y-53528572D02*
X132157619Y-53623810D01*
X132157619Y-53623810D02*
X132157619Y-53719048D01*
X132157619Y-54052382D02*
X131157619Y-54052382D01*
X132157619Y-54480953D02*
X131633809Y-54480953D01*
X131633809Y-54480953D02*
X131538571Y-54433334D01*
X131538571Y-54433334D02*
X131490952Y-54338096D01*
X131490952Y-54338096D02*
X131490952Y-54195239D01*
X131490952Y-54195239D02*
X131538571Y-54100001D01*
X131538571Y-54100001D02*
X131586190Y-54052382D01*
X131490952Y-56147620D02*
X132300476Y-56147620D01*
X132300476Y-56147620D02*
X132395714Y-56100001D01*
X132395714Y-56100001D02*
X132443333Y-56052382D01*
X132443333Y-56052382D02*
X132490952Y-55957144D01*
X132490952Y-55957144D02*
X132490952Y-55814287D01*
X132490952Y-55814287D02*
X132443333Y-55719049D01*
X132110000Y-56147620D02*
X132157619Y-56052382D01*
X132157619Y-56052382D02*
X132157619Y-55861906D01*
X132157619Y-55861906D02*
X132110000Y-55766668D01*
X132110000Y-55766668D02*
X132062380Y-55719049D01*
X132062380Y-55719049D02*
X131967142Y-55671430D01*
X131967142Y-55671430D02*
X131681428Y-55671430D01*
X131681428Y-55671430D02*
X131586190Y-55719049D01*
X131586190Y-55719049D02*
X131538571Y-55766668D01*
X131538571Y-55766668D02*
X131490952Y-55861906D01*
X131490952Y-55861906D02*
X131490952Y-56052382D01*
X131490952Y-56052382D02*
X131538571Y-56147620D01*
X132157619Y-56623811D02*
X131490952Y-56623811D01*
X131681428Y-56623811D02*
X131586190Y-56671430D01*
X131586190Y-56671430D02*
X131538571Y-56719049D01*
X131538571Y-56719049D02*
X131490952Y-56814287D01*
X131490952Y-56814287D02*
X131490952Y-56909525D01*
X132157619Y-57385716D02*
X132110000Y-57290478D01*
X132110000Y-57290478D02*
X132062380Y-57242859D01*
X132062380Y-57242859D02*
X131967142Y-57195240D01*
X131967142Y-57195240D02*
X131681428Y-57195240D01*
X131681428Y-57195240D02*
X131586190Y-57242859D01*
X131586190Y-57242859D02*
X131538571Y-57290478D01*
X131538571Y-57290478D02*
X131490952Y-57385716D01*
X131490952Y-57385716D02*
X131490952Y-57528573D01*
X131490952Y-57528573D02*
X131538571Y-57623811D01*
X131538571Y-57623811D02*
X131586190Y-57671430D01*
X131586190Y-57671430D02*
X131681428Y-57719049D01*
X131681428Y-57719049D02*
X131967142Y-57719049D01*
X131967142Y-57719049D02*
X132062380Y-57671430D01*
X132062380Y-57671430D02*
X132110000Y-57623811D01*
X132110000Y-57623811D02*
X132157619Y-57528573D01*
X132157619Y-57528573D02*
X132157619Y-57385716D01*
X131490952Y-58576192D02*
X132157619Y-58576192D01*
X131490952Y-58147621D02*
X132014761Y-58147621D01*
X132014761Y-58147621D02*
X132110000Y-58195240D01*
X132110000Y-58195240D02*
X132157619Y-58290478D01*
X132157619Y-58290478D02*
X132157619Y-58433335D01*
X132157619Y-58433335D02*
X132110000Y-58528573D01*
X132110000Y-58528573D02*
X132062380Y-58576192D01*
X131490952Y-59052383D02*
X132157619Y-59052383D01*
X131586190Y-59052383D02*
X131538571Y-59100002D01*
X131538571Y-59100002D02*
X131490952Y-59195240D01*
X131490952Y-59195240D02*
X131490952Y-59338097D01*
X131490952Y-59338097D02*
X131538571Y-59433335D01*
X131538571Y-59433335D02*
X131633809Y-59480954D01*
X131633809Y-59480954D02*
X132157619Y-59480954D01*
X132157619Y-60385716D02*
X131157619Y-60385716D01*
X132110000Y-60385716D02*
X132157619Y-60290478D01*
X132157619Y-60290478D02*
X132157619Y-60100002D01*
X132157619Y-60100002D02*
X132110000Y-60004764D01*
X132110000Y-60004764D02*
X132062380Y-59957145D01*
X132062380Y-59957145D02*
X131967142Y-59909526D01*
X131967142Y-59909526D02*
X131681428Y-59909526D01*
X131681428Y-59909526D02*
X131586190Y-59957145D01*
X131586190Y-59957145D02*
X131538571Y-60004764D01*
X131538571Y-60004764D02*
X131490952Y-60100002D01*
X131490952Y-60100002D02*
X131490952Y-60290478D01*
X131490952Y-60290478D02*
X131538571Y-60385716D01*
X132110000Y-62052383D02*
X132157619Y-61957145D01*
X132157619Y-61957145D02*
X132157619Y-61766669D01*
X132157619Y-61766669D02*
X132110000Y-61671431D01*
X132110000Y-61671431D02*
X132062380Y-61623812D01*
X132062380Y-61623812D02*
X131967142Y-61576193D01*
X131967142Y-61576193D02*
X131681428Y-61576193D01*
X131681428Y-61576193D02*
X131586190Y-61623812D01*
X131586190Y-61623812D02*
X131538571Y-61671431D01*
X131538571Y-61671431D02*
X131490952Y-61766669D01*
X131490952Y-61766669D02*
X131490952Y-61957145D01*
X131490952Y-61957145D02*
X131538571Y-62052383D01*
X132157619Y-62623812D02*
X132110000Y-62528574D01*
X132110000Y-62528574D02*
X132062380Y-62480955D01*
X132062380Y-62480955D02*
X131967142Y-62433336D01*
X131967142Y-62433336D02*
X131681428Y-62433336D01*
X131681428Y-62433336D02*
X131586190Y-62480955D01*
X131586190Y-62480955D02*
X131538571Y-62528574D01*
X131538571Y-62528574D02*
X131490952Y-62623812D01*
X131490952Y-62623812D02*
X131490952Y-62766669D01*
X131490952Y-62766669D02*
X131538571Y-62861907D01*
X131538571Y-62861907D02*
X131586190Y-62909526D01*
X131586190Y-62909526D02*
X131681428Y-62957145D01*
X131681428Y-62957145D02*
X131967142Y-62957145D01*
X131967142Y-62957145D02*
X132062380Y-62909526D01*
X132062380Y-62909526D02*
X132110000Y-62861907D01*
X132110000Y-62861907D02*
X132157619Y-62766669D01*
X132157619Y-62766669D02*
X132157619Y-62623812D01*
X131490952Y-63385717D02*
X132157619Y-63385717D01*
X131586190Y-63385717D02*
X131538571Y-63433336D01*
X131538571Y-63433336D02*
X131490952Y-63528574D01*
X131490952Y-63528574D02*
X131490952Y-63671431D01*
X131490952Y-63671431D02*
X131538571Y-63766669D01*
X131538571Y-63766669D02*
X131633809Y-63814288D01*
X131633809Y-63814288D02*
X132157619Y-63814288D01*
X131490952Y-64290479D02*
X132157619Y-64290479D01*
X131586190Y-64290479D02*
X131538571Y-64338098D01*
X131538571Y-64338098D02*
X131490952Y-64433336D01*
X131490952Y-64433336D02*
X131490952Y-64576193D01*
X131490952Y-64576193D02*
X131538571Y-64671431D01*
X131538571Y-64671431D02*
X131633809Y-64719050D01*
X131633809Y-64719050D02*
X132157619Y-64719050D01*
X132110000Y-65576193D02*
X132157619Y-65480955D01*
X132157619Y-65480955D02*
X132157619Y-65290479D01*
X132157619Y-65290479D02*
X132110000Y-65195241D01*
X132110000Y-65195241D02*
X132014761Y-65147622D01*
X132014761Y-65147622D02*
X131633809Y-65147622D01*
X131633809Y-65147622D02*
X131538571Y-65195241D01*
X131538571Y-65195241D02*
X131490952Y-65290479D01*
X131490952Y-65290479D02*
X131490952Y-65480955D01*
X131490952Y-65480955D02*
X131538571Y-65576193D01*
X131538571Y-65576193D02*
X131633809Y-65623812D01*
X131633809Y-65623812D02*
X131729047Y-65623812D01*
X131729047Y-65623812D02*
X131824285Y-65147622D01*
X132110000Y-66480955D02*
X132157619Y-66385717D01*
X132157619Y-66385717D02*
X132157619Y-66195241D01*
X132157619Y-66195241D02*
X132110000Y-66100003D01*
X132110000Y-66100003D02*
X132062380Y-66052384D01*
X132062380Y-66052384D02*
X131967142Y-66004765D01*
X131967142Y-66004765D02*
X131681428Y-66004765D01*
X131681428Y-66004765D02*
X131586190Y-66052384D01*
X131586190Y-66052384D02*
X131538571Y-66100003D01*
X131538571Y-66100003D02*
X131490952Y-66195241D01*
X131490952Y-66195241D02*
X131490952Y-66385717D01*
X131490952Y-66385717D02*
X131538571Y-66480955D01*
X131490952Y-66766670D02*
X131490952Y-67147622D01*
X131157619Y-66909527D02*
X132014761Y-66909527D01*
X132014761Y-66909527D02*
X132110000Y-66957146D01*
X132110000Y-66957146D02*
X132157619Y-67052384D01*
X132157619Y-67052384D02*
X132157619Y-67147622D01*
X132157619Y-67480956D02*
X131490952Y-67480956D01*
X131157619Y-67480956D02*
X131205238Y-67433337D01*
X131205238Y-67433337D02*
X131252857Y-67480956D01*
X131252857Y-67480956D02*
X131205238Y-67528575D01*
X131205238Y-67528575D02*
X131157619Y-67480956D01*
X131157619Y-67480956D02*
X131252857Y-67480956D01*
X132157619Y-68100003D02*
X132110000Y-68004765D01*
X132110000Y-68004765D02*
X132062380Y-67957146D01*
X132062380Y-67957146D02*
X131967142Y-67909527D01*
X131967142Y-67909527D02*
X131681428Y-67909527D01*
X131681428Y-67909527D02*
X131586190Y-67957146D01*
X131586190Y-67957146D02*
X131538571Y-68004765D01*
X131538571Y-68004765D02*
X131490952Y-68100003D01*
X131490952Y-68100003D02*
X131490952Y-68242860D01*
X131490952Y-68242860D02*
X131538571Y-68338098D01*
X131538571Y-68338098D02*
X131586190Y-68385717D01*
X131586190Y-68385717D02*
X131681428Y-68433336D01*
X131681428Y-68433336D02*
X131967142Y-68433336D01*
X131967142Y-68433336D02*
X132062380Y-68385717D01*
X132062380Y-68385717D02*
X132110000Y-68338098D01*
X132110000Y-68338098D02*
X132157619Y-68242860D01*
X132157619Y-68242860D02*
X132157619Y-68100003D01*
X131490952Y-68861908D02*
X132157619Y-68861908D01*
X131586190Y-68861908D02*
X131538571Y-68909527D01*
X131538571Y-68909527D02*
X131490952Y-69004765D01*
X131490952Y-69004765D02*
X131490952Y-69147622D01*
X131490952Y-69147622D02*
X131538571Y-69242860D01*
X131538571Y-69242860D02*
X131633809Y-69290479D01*
X131633809Y-69290479D02*
X132157619Y-69290479D01*
X134158571Y-42623809D02*
X134110952Y-42576190D01*
X134110952Y-42576190D02*
X133968095Y-42480952D01*
X133968095Y-42480952D02*
X133872857Y-42433333D01*
X133872857Y-42433333D02*
X133730000Y-42385714D01*
X133730000Y-42385714D02*
X133491904Y-42338095D01*
X133491904Y-42338095D02*
X133301428Y-42338095D01*
X133301428Y-42338095D02*
X133063333Y-42385714D01*
X133063333Y-42385714D02*
X132920476Y-42433333D01*
X132920476Y-42433333D02*
X132825238Y-42480952D01*
X132825238Y-42480952D02*
X132682380Y-42576190D01*
X132682380Y-42576190D02*
X132634761Y-42623809D01*
X133110952Y-43004762D02*
X133777619Y-43004762D01*
X133206190Y-43004762D02*
X133158571Y-43052381D01*
X133158571Y-43052381D02*
X133110952Y-43147619D01*
X133110952Y-43147619D02*
X133110952Y-43290476D01*
X133110952Y-43290476D02*
X133158571Y-43385714D01*
X133158571Y-43385714D02*
X133253809Y-43433333D01*
X133253809Y-43433333D02*
X133777619Y-43433333D01*
X133777619Y-44052381D02*
X133730000Y-43957143D01*
X133730000Y-43957143D02*
X133682380Y-43909524D01*
X133682380Y-43909524D02*
X133587142Y-43861905D01*
X133587142Y-43861905D02*
X133301428Y-43861905D01*
X133301428Y-43861905D02*
X133206190Y-43909524D01*
X133206190Y-43909524D02*
X133158571Y-43957143D01*
X133158571Y-43957143D02*
X133110952Y-44052381D01*
X133110952Y-44052381D02*
X133110952Y-44195238D01*
X133110952Y-44195238D02*
X133158571Y-44290476D01*
X133158571Y-44290476D02*
X133206190Y-44338095D01*
X133206190Y-44338095D02*
X133301428Y-44385714D01*
X133301428Y-44385714D02*
X133587142Y-44385714D01*
X133587142Y-44385714D02*
X133682380Y-44338095D01*
X133682380Y-44338095D02*
X133730000Y-44290476D01*
X133730000Y-44290476D02*
X133777619Y-44195238D01*
X133777619Y-44195238D02*
X133777619Y-44052381D01*
X133110952Y-44671429D02*
X133110952Y-45052381D01*
X132777619Y-44814286D02*
X133634761Y-44814286D01*
X133634761Y-44814286D02*
X133730000Y-44861905D01*
X133730000Y-44861905D02*
X133777619Y-44957143D01*
X133777619Y-44957143D02*
X133777619Y-45052381D01*
X133777619Y-46147620D02*
X133110952Y-46147620D01*
X133301428Y-46147620D02*
X133206190Y-46195239D01*
X133206190Y-46195239D02*
X133158571Y-46242858D01*
X133158571Y-46242858D02*
X133110952Y-46338096D01*
X133110952Y-46338096D02*
X133110952Y-46433334D01*
X133730000Y-47147620D02*
X133777619Y-47052382D01*
X133777619Y-47052382D02*
X133777619Y-46861906D01*
X133777619Y-46861906D02*
X133730000Y-46766668D01*
X133730000Y-46766668D02*
X133634761Y-46719049D01*
X133634761Y-46719049D02*
X133253809Y-46719049D01*
X133253809Y-46719049D02*
X133158571Y-46766668D01*
X133158571Y-46766668D02*
X133110952Y-46861906D01*
X133110952Y-46861906D02*
X133110952Y-47052382D01*
X133110952Y-47052382D02*
X133158571Y-47147620D01*
X133158571Y-47147620D02*
X133253809Y-47195239D01*
X133253809Y-47195239D02*
X133349047Y-47195239D01*
X133349047Y-47195239D02*
X133444285Y-46719049D01*
X133730000Y-48052382D02*
X133777619Y-47957144D01*
X133777619Y-47957144D02*
X133777619Y-47766668D01*
X133777619Y-47766668D02*
X133730000Y-47671430D01*
X133730000Y-47671430D02*
X133682380Y-47623811D01*
X133682380Y-47623811D02*
X133587142Y-47576192D01*
X133587142Y-47576192D02*
X133301428Y-47576192D01*
X133301428Y-47576192D02*
X133206190Y-47623811D01*
X133206190Y-47623811D02*
X133158571Y-47671430D01*
X133158571Y-47671430D02*
X133110952Y-47766668D01*
X133110952Y-47766668D02*
X133110952Y-47957144D01*
X133110952Y-47957144D02*
X133158571Y-48052382D01*
X133777619Y-48623811D02*
X133730000Y-48528573D01*
X133730000Y-48528573D02*
X133682380Y-48480954D01*
X133682380Y-48480954D02*
X133587142Y-48433335D01*
X133587142Y-48433335D02*
X133301428Y-48433335D01*
X133301428Y-48433335D02*
X133206190Y-48480954D01*
X133206190Y-48480954D02*
X133158571Y-48528573D01*
X133158571Y-48528573D02*
X133110952Y-48623811D01*
X133110952Y-48623811D02*
X133110952Y-48766668D01*
X133110952Y-48766668D02*
X133158571Y-48861906D01*
X133158571Y-48861906D02*
X133206190Y-48909525D01*
X133206190Y-48909525D02*
X133301428Y-48957144D01*
X133301428Y-48957144D02*
X133587142Y-48957144D01*
X133587142Y-48957144D02*
X133682380Y-48909525D01*
X133682380Y-48909525D02*
X133730000Y-48861906D01*
X133730000Y-48861906D02*
X133777619Y-48766668D01*
X133777619Y-48766668D02*
X133777619Y-48623811D01*
X133777619Y-49385716D02*
X133110952Y-49385716D01*
X133206190Y-49385716D02*
X133158571Y-49433335D01*
X133158571Y-49433335D02*
X133110952Y-49528573D01*
X133110952Y-49528573D02*
X133110952Y-49671430D01*
X133110952Y-49671430D02*
X133158571Y-49766668D01*
X133158571Y-49766668D02*
X133253809Y-49814287D01*
X133253809Y-49814287D02*
X133777619Y-49814287D01*
X133253809Y-49814287D02*
X133158571Y-49861906D01*
X133158571Y-49861906D02*
X133110952Y-49957144D01*
X133110952Y-49957144D02*
X133110952Y-50100001D01*
X133110952Y-50100001D02*
X133158571Y-50195240D01*
X133158571Y-50195240D02*
X133253809Y-50242859D01*
X133253809Y-50242859D02*
X133777619Y-50242859D01*
X133777619Y-50719049D02*
X133110952Y-50719049D01*
X133206190Y-50719049D02*
X133158571Y-50766668D01*
X133158571Y-50766668D02*
X133110952Y-50861906D01*
X133110952Y-50861906D02*
X133110952Y-51004763D01*
X133110952Y-51004763D02*
X133158571Y-51100001D01*
X133158571Y-51100001D02*
X133253809Y-51147620D01*
X133253809Y-51147620D02*
X133777619Y-51147620D01*
X133253809Y-51147620D02*
X133158571Y-51195239D01*
X133158571Y-51195239D02*
X133110952Y-51290477D01*
X133110952Y-51290477D02*
X133110952Y-51433334D01*
X133110952Y-51433334D02*
X133158571Y-51528573D01*
X133158571Y-51528573D02*
X133253809Y-51576192D01*
X133253809Y-51576192D02*
X133777619Y-51576192D01*
X133730000Y-52433334D02*
X133777619Y-52338096D01*
X133777619Y-52338096D02*
X133777619Y-52147620D01*
X133777619Y-52147620D02*
X133730000Y-52052382D01*
X133730000Y-52052382D02*
X133634761Y-52004763D01*
X133634761Y-52004763D02*
X133253809Y-52004763D01*
X133253809Y-52004763D02*
X133158571Y-52052382D01*
X133158571Y-52052382D02*
X133110952Y-52147620D01*
X133110952Y-52147620D02*
X133110952Y-52338096D01*
X133110952Y-52338096D02*
X133158571Y-52433334D01*
X133158571Y-52433334D02*
X133253809Y-52480953D01*
X133253809Y-52480953D02*
X133349047Y-52480953D01*
X133349047Y-52480953D02*
X133444285Y-52004763D01*
X133110952Y-52909525D02*
X133777619Y-52909525D01*
X133206190Y-52909525D02*
X133158571Y-52957144D01*
X133158571Y-52957144D02*
X133110952Y-53052382D01*
X133110952Y-53052382D02*
X133110952Y-53195239D01*
X133110952Y-53195239D02*
X133158571Y-53290477D01*
X133158571Y-53290477D02*
X133253809Y-53338096D01*
X133253809Y-53338096D02*
X133777619Y-53338096D01*
X133777619Y-54242858D02*
X132777619Y-54242858D01*
X133730000Y-54242858D02*
X133777619Y-54147620D01*
X133777619Y-54147620D02*
X133777619Y-53957144D01*
X133777619Y-53957144D02*
X133730000Y-53861906D01*
X133730000Y-53861906D02*
X133682380Y-53814287D01*
X133682380Y-53814287D02*
X133587142Y-53766668D01*
X133587142Y-53766668D02*
X133301428Y-53766668D01*
X133301428Y-53766668D02*
X133206190Y-53814287D01*
X133206190Y-53814287D02*
X133158571Y-53861906D01*
X133158571Y-53861906D02*
X133110952Y-53957144D01*
X133110952Y-53957144D02*
X133110952Y-54147620D01*
X133110952Y-54147620D02*
X133158571Y-54242858D01*
X133730000Y-55100001D02*
X133777619Y-55004763D01*
X133777619Y-55004763D02*
X133777619Y-54814287D01*
X133777619Y-54814287D02*
X133730000Y-54719049D01*
X133730000Y-54719049D02*
X133634761Y-54671430D01*
X133634761Y-54671430D02*
X133253809Y-54671430D01*
X133253809Y-54671430D02*
X133158571Y-54719049D01*
X133158571Y-54719049D02*
X133110952Y-54814287D01*
X133110952Y-54814287D02*
X133110952Y-55004763D01*
X133110952Y-55004763D02*
X133158571Y-55100001D01*
X133158571Y-55100001D02*
X133253809Y-55147620D01*
X133253809Y-55147620D02*
X133349047Y-55147620D01*
X133349047Y-55147620D02*
X133444285Y-54671430D01*
X133777619Y-56004763D02*
X132777619Y-56004763D01*
X133730000Y-56004763D02*
X133777619Y-55909525D01*
X133777619Y-55909525D02*
X133777619Y-55719049D01*
X133777619Y-55719049D02*
X133730000Y-55623811D01*
X133730000Y-55623811D02*
X133682380Y-55576192D01*
X133682380Y-55576192D02*
X133587142Y-55528573D01*
X133587142Y-55528573D02*
X133301428Y-55528573D01*
X133301428Y-55528573D02*
X133206190Y-55576192D01*
X133206190Y-55576192D02*
X133158571Y-55623811D01*
X133158571Y-55623811D02*
X133110952Y-55719049D01*
X133110952Y-55719049D02*
X133110952Y-55909525D01*
X133110952Y-55909525D02*
X133158571Y-56004763D01*
X134158571Y-56385716D02*
X134110952Y-56433335D01*
X134110952Y-56433335D02*
X133968095Y-56528573D01*
X133968095Y-56528573D02*
X133872857Y-56576192D01*
X133872857Y-56576192D02*
X133730000Y-56623811D01*
X133730000Y-56623811D02*
X133491904Y-56671430D01*
X133491904Y-56671430D02*
X133301428Y-56671430D01*
X133301428Y-56671430D02*
X133063333Y-56623811D01*
X133063333Y-56623811D02*
X132920476Y-56576192D01*
X132920476Y-56576192D02*
X132825238Y-56528573D01*
X132825238Y-56528573D02*
X132682380Y-56433335D01*
X132682380Y-56433335D02*
X132634761Y-56385716D01*
X115666666Y-60362619D02*
X115999999Y-59886428D01*
X116238094Y-60362619D02*
X116238094Y-59362619D01*
X116238094Y-59362619D02*
X115857142Y-59362619D01*
X115857142Y-59362619D02*
X115761904Y-59410238D01*
X115761904Y-59410238D02*
X115714285Y-59457857D01*
X115714285Y-59457857D02*
X115666666Y-59553095D01*
X115666666Y-59553095D02*
X115666666Y-59695952D01*
X115666666Y-59695952D02*
X115714285Y-59791190D01*
X115714285Y-59791190D02*
X115761904Y-59838809D01*
X115761904Y-59838809D02*
X115857142Y-59886428D01*
X115857142Y-59886428D02*
X116238094Y-59886428D01*
X115333332Y-59362619D02*
X114714285Y-59362619D01*
X114714285Y-59362619D02*
X115047618Y-59743571D01*
X115047618Y-59743571D02*
X114904761Y-59743571D01*
X114904761Y-59743571D02*
X114809523Y-59791190D01*
X114809523Y-59791190D02*
X114761904Y-59838809D01*
X114761904Y-59838809D02*
X114714285Y-59934047D01*
X114714285Y-59934047D02*
X114714285Y-60172142D01*
X114714285Y-60172142D02*
X114761904Y-60267380D01*
X114761904Y-60267380D02*
X114809523Y-60315000D01*
X114809523Y-60315000D02*
X114904761Y-60362619D01*
X114904761Y-60362619D02*
X115190475Y-60362619D01*
X115190475Y-60362619D02*
X115285713Y-60315000D01*
X115285713Y-60315000D02*
X115333332Y-60267380D01*
X103916666Y-60112619D02*
X104249999Y-59636428D01*
X104488094Y-60112619D02*
X104488094Y-59112619D01*
X104488094Y-59112619D02*
X104107142Y-59112619D01*
X104107142Y-59112619D02*
X104011904Y-59160238D01*
X104011904Y-59160238D02*
X103964285Y-59207857D01*
X103964285Y-59207857D02*
X103916666Y-59303095D01*
X103916666Y-59303095D02*
X103916666Y-59445952D01*
X103916666Y-59445952D02*
X103964285Y-59541190D01*
X103964285Y-59541190D02*
X104011904Y-59588809D01*
X104011904Y-59588809D02*
X104107142Y-59636428D01*
X104107142Y-59636428D02*
X104488094Y-59636428D01*
X103535713Y-59207857D02*
X103488094Y-59160238D01*
X103488094Y-59160238D02*
X103392856Y-59112619D01*
X103392856Y-59112619D02*
X103154761Y-59112619D01*
X103154761Y-59112619D02*
X103059523Y-59160238D01*
X103059523Y-59160238D02*
X103011904Y-59207857D01*
X103011904Y-59207857D02*
X102964285Y-59303095D01*
X102964285Y-59303095D02*
X102964285Y-59398333D01*
X102964285Y-59398333D02*
X103011904Y-59541190D01*
X103011904Y-59541190D02*
X103583332Y-60112619D01*
X103583332Y-60112619D02*
X102964285Y-60112619D01*
X110057619Y-55263095D02*
X110867142Y-55263095D01*
X110867142Y-55263095D02*
X110962380Y-55310714D01*
X110962380Y-55310714D02*
X111010000Y-55358333D01*
X111010000Y-55358333D02*
X111057619Y-55453571D01*
X111057619Y-55453571D02*
X111057619Y-55644047D01*
X111057619Y-55644047D02*
X111010000Y-55739285D01*
X111010000Y-55739285D02*
X110962380Y-55786904D01*
X110962380Y-55786904D02*
X110867142Y-55834523D01*
X110867142Y-55834523D02*
X110057619Y-55834523D01*
X110057619Y-56215476D02*
X110057619Y-56834523D01*
X110057619Y-56834523D02*
X110438571Y-56501190D01*
X110438571Y-56501190D02*
X110438571Y-56644047D01*
X110438571Y-56644047D02*
X110486190Y-56739285D01*
X110486190Y-56739285D02*
X110533809Y-56786904D01*
X110533809Y-56786904D02*
X110629047Y-56834523D01*
X110629047Y-56834523D02*
X110867142Y-56834523D01*
X110867142Y-56834523D02*
X110962380Y-56786904D01*
X110962380Y-56786904D02*
X111010000Y-56739285D01*
X111010000Y-56739285D02*
X111057619Y-56644047D01*
X111057619Y-56644047D02*
X111057619Y-56358333D01*
X111057619Y-56358333D02*
X111010000Y-56263095D01*
X111010000Y-56263095D02*
X110962380Y-56215476D01*
X112582693Y-46675646D02*
X113161752Y-46726226D01*
X112868407Y-47170518D02*
X113734432Y-46670518D01*
X113734432Y-46670518D02*
X113543956Y-46340603D01*
X113543956Y-46340603D02*
X113455098Y-46281934D01*
X113455098Y-46281934D02*
X113390049Y-46264505D01*
X113390049Y-46264505D02*
X113283761Y-46270884D01*
X113283761Y-46270884D02*
X113160043Y-46342313D01*
X113160043Y-46342313D02*
X113101374Y-46431171D01*
X113101374Y-46431171D02*
X113083944Y-46496220D01*
X113083944Y-46496220D02*
X113090324Y-46602508D01*
X113090324Y-46602508D02*
X113280800Y-46932423D01*
X112106502Y-45850860D02*
X112392217Y-46345732D01*
X112249359Y-46098296D02*
X113115385Y-45598296D01*
X113115385Y-45598296D02*
X113039286Y-45752203D01*
X113039286Y-45752203D02*
X113004426Y-45882301D01*
X113004426Y-45882301D02*
X113010806Y-45988589D01*
X141462619Y-40461905D02*
X140462619Y-40461905D01*
X140462619Y-40461905D02*
X140462619Y-40700000D01*
X140462619Y-40700000D02*
X140510238Y-40842857D01*
X140510238Y-40842857D02*
X140605476Y-40938095D01*
X140605476Y-40938095D02*
X140700714Y-40985714D01*
X140700714Y-40985714D02*
X140891190Y-41033333D01*
X140891190Y-41033333D02*
X141034047Y-41033333D01*
X141034047Y-41033333D02*
X141224523Y-40985714D01*
X141224523Y-40985714D02*
X141319761Y-40938095D01*
X141319761Y-40938095D02*
X141415000Y-40842857D01*
X141415000Y-40842857D02*
X141462619Y-40700000D01*
X141462619Y-40700000D02*
X141462619Y-40461905D01*
X140462619Y-41366667D02*
X140462619Y-41985714D01*
X140462619Y-41985714D02*
X140843571Y-41652381D01*
X140843571Y-41652381D02*
X140843571Y-41795238D01*
X140843571Y-41795238D02*
X140891190Y-41890476D01*
X140891190Y-41890476D02*
X140938809Y-41938095D01*
X140938809Y-41938095D02*
X141034047Y-41985714D01*
X141034047Y-41985714D02*
X141272142Y-41985714D01*
X141272142Y-41985714D02*
X141367380Y-41938095D01*
X141367380Y-41938095D02*
X141415000Y-41890476D01*
X141415000Y-41890476D02*
X141462619Y-41795238D01*
X141462619Y-41795238D02*
X141462619Y-41509524D01*
X141462619Y-41509524D02*
X141415000Y-41414286D01*
X141415000Y-41414286D02*
X141367380Y-41366667D01*
X104538094Y-50562619D02*
X104538094Y-49562619D01*
X104538094Y-49562619D02*
X104299999Y-49562619D01*
X104299999Y-49562619D02*
X104157142Y-49610238D01*
X104157142Y-49610238D02*
X104061904Y-49705476D01*
X104061904Y-49705476D02*
X104014285Y-49800714D01*
X104014285Y-49800714D02*
X103966666Y-49991190D01*
X103966666Y-49991190D02*
X103966666Y-50134047D01*
X103966666Y-50134047D02*
X104014285Y-50324523D01*
X104014285Y-50324523D02*
X104061904Y-50419761D01*
X104061904Y-50419761D02*
X104157142Y-50515000D01*
X104157142Y-50515000D02*
X104299999Y-50562619D01*
X104299999Y-50562619D02*
X104538094Y-50562619D01*
X103585713Y-49657857D02*
X103538094Y-49610238D01*
X103538094Y-49610238D02*
X103442856Y-49562619D01*
X103442856Y-49562619D02*
X103204761Y-49562619D01*
X103204761Y-49562619D02*
X103109523Y-49610238D01*
X103109523Y-49610238D02*
X103061904Y-49657857D01*
X103061904Y-49657857D02*
X103014285Y-49753095D01*
X103014285Y-49753095D02*
X103014285Y-49848333D01*
X103014285Y-49848333D02*
X103061904Y-49991190D01*
X103061904Y-49991190D02*
X103633332Y-50562619D01*
X103633332Y-50562619D02*
X103014285Y-50562619D01*
X119838094Y-52162619D02*
X119838094Y-51162619D01*
X119838094Y-51162619D02*
X119599999Y-51162619D01*
X119599999Y-51162619D02*
X119457142Y-51210238D01*
X119457142Y-51210238D02*
X119361904Y-51305476D01*
X119361904Y-51305476D02*
X119314285Y-51400714D01*
X119314285Y-51400714D02*
X119266666Y-51591190D01*
X119266666Y-51591190D02*
X119266666Y-51734047D01*
X119266666Y-51734047D02*
X119314285Y-51924523D01*
X119314285Y-51924523D02*
X119361904Y-52019761D01*
X119361904Y-52019761D02*
X119457142Y-52115000D01*
X119457142Y-52115000D02*
X119599999Y-52162619D01*
X119599999Y-52162619D02*
X119838094Y-52162619D01*
X118314285Y-52162619D02*
X118885713Y-52162619D01*
X118599999Y-52162619D02*
X118599999Y-51162619D01*
X118599999Y-51162619D02*
X118695237Y-51305476D01*
X118695237Y-51305476D02*
X118790475Y-51400714D01*
X118790475Y-51400714D02*
X118885713Y-51448333D01*
X111066666Y-62767380D02*
X111114285Y-62815000D01*
X111114285Y-62815000D02*
X111257142Y-62862619D01*
X111257142Y-62862619D02*
X111352380Y-62862619D01*
X111352380Y-62862619D02*
X111495237Y-62815000D01*
X111495237Y-62815000D02*
X111590475Y-62719761D01*
X111590475Y-62719761D02*
X111638094Y-62624523D01*
X111638094Y-62624523D02*
X111685713Y-62434047D01*
X111685713Y-62434047D02*
X111685713Y-62291190D01*
X111685713Y-62291190D02*
X111638094Y-62100714D01*
X111638094Y-62100714D02*
X111590475Y-62005476D01*
X111590475Y-62005476D02*
X111495237Y-61910238D01*
X111495237Y-61910238D02*
X111352380Y-61862619D01*
X111352380Y-61862619D02*
X111257142Y-61862619D01*
X111257142Y-61862619D02*
X111114285Y-61910238D01*
X111114285Y-61910238D02*
X111066666Y-61957857D01*
X110114285Y-62862619D02*
X110685713Y-62862619D01*
X110399999Y-62862619D02*
X110399999Y-61862619D01*
X110399999Y-61862619D02*
X110495237Y-62005476D01*
X110495237Y-62005476D02*
X110590475Y-62100714D01*
X110590475Y-62100714D02*
X110685713Y-62148333D01*
D11*
X115272936Y-58985000D02*
X115727064Y-58985000D01*
X115272936Y-57515000D02*
X115727064Y-57515000D01*
X103522936Y-58735000D02*
X103977064Y-58735000D01*
X103522936Y-57265000D02*
X103977064Y-57265000D01*
X108035000Y-56025000D02*
X108035000Y-57975000D01*
X113155000Y-56025000D02*
X113155000Y-59475000D01*
X108035000Y-56025000D02*
X108035000Y-54075000D01*
X113155000Y-56025000D02*
X113155000Y-54075000D01*
X113499939Y-49054832D02*
X113727003Y-49448118D01*
X114772997Y-48319832D02*
X115000061Y-48713118D01*
X127450000Y-39450000D02*
G75*
G03*
X126750000Y-40150000I0J-700000D01*
G01*
X126750000Y-41550000D02*
G75*
G03*
X127450000Y-42250000I699999J-1D01*
G01*
X128050000Y-42250000D02*
G75*
G03*
X128750000Y-41550000I1J699999D01*
G01*
X128750000Y-40150000D02*
G75*
G03*
X128050000Y-39450000I-700000J0D01*
G01*
X127450000Y-42250000D02*
X128050000Y-42250000D01*
X128050000Y-39450000D02*
X127450000Y-39450000D01*
X126750000Y-40150000D02*
X126750000Y-41550000D01*
X128750000Y-41550000D02*
X128750000Y-40150000D01*
X142000000Y-42290000D02*
X142000000Y-46150000D01*
X140000000Y-42290000D02*
X142000000Y-42290000D01*
X140000000Y-42290000D02*
X140000000Y-46150000D01*
X103437500Y-50940000D02*
X102787500Y-50940000D01*
X103437500Y-54060000D02*
X102787500Y-54060000D01*
X103437500Y-50940000D02*
X105112500Y-50940000D01*
X103437500Y-54060000D02*
X104087500Y-54060000D01*
X116312500Y-51190000D02*
X115662500Y-51190000D01*
X116312500Y-54310000D02*
X114637500Y-54310000D01*
X116312500Y-51190000D02*
X116962500Y-51190000D01*
X116312500Y-54310000D02*
X116962500Y-54310000D01*
X110973752Y-60015000D02*
X110451248Y-60015000D01*
X110973752Y-61485000D02*
X110451248Y-61485000D01*
%LPC*%
D12*
X117240000Y-88020000D03*
X114700000Y-88020000D03*
D13*
X112160000Y-88020000D03*
D14*
X135400000Y-95750000D03*
D12*
X114830000Y-43000000D03*
X112290000Y-43000000D03*
X109750000Y-43000000D03*
X107210000Y-43000000D03*
D13*
X104670000Y-43000000D03*
D15*
X114500000Y-58250000D03*
X116500000Y-58250000D03*
X102750000Y-58000000D03*
X104750000Y-58000000D03*
D16*
X107000000Y-84650000D03*
X107000000Y-87190000D03*
X107000000Y-89730000D03*
X107000000Y-92270000D03*
D17*
X107000000Y-94810000D03*
X107000000Y-82110000D03*
D16*
X107000000Y-79570000D03*
X107000000Y-77030000D03*
X107000000Y-74490000D03*
D14*
X107000000Y-97350000D03*
D17*
X107000000Y-71950000D03*
D16*
X107000000Y-69410000D03*
X107000000Y-66870000D03*
X107000000Y-64330000D03*
X107000000Y-61790000D03*
X107000000Y-59250000D03*
D14*
X135480000Y-105500000D03*
D18*
X143500000Y-45250000D03*
X150000000Y-45250000D03*
X143500000Y-40750000D03*
X150000000Y-40750000D03*
D19*
X112500000Y-53550000D03*
X111230000Y-53550000D03*
X109960000Y-53550000D03*
X108690000Y-53550000D03*
X108690000Y-58500000D03*
X109960000Y-58500000D03*
X111230000Y-58500000D03*
X112500000Y-58500000D03*
D18*
X143070000Y-49000000D03*
X145610000Y-49000000D03*
X154460000Y-49000000D03*
X157000000Y-49000000D03*
X157000000Y-67600000D03*
X154460000Y-67600000D03*
X145610000Y-67600000D03*
X143070000Y-67600000D03*
D20*
X121000000Y-40510000D03*
X121000000Y-43050000D03*
D14*
X121000000Y-45590000D03*
D20*
X121000000Y-48130000D03*
X121000000Y-50670000D03*
X121000000Y-53210000D03*
X121000000Y-55750000D03*
D14*
X121000000Y-58290000D03*
D20*
X121000000Y-60830000D03*
X121000000Y-63370000D03*
X121000000Y-65910000D03*
X121000000Y-68450000D03*
D14*
X121000000Y-70990000D03*
D20*
X121000000Y-73530000D03*
X121000000Y-76070000D03*
X121000000Y-78610000D03*
X121000000Y-81150000D03*
D14*
X121000000Y-83690000D03*
D20*
X121000000Y-86230000D03*
X121000000Y-88770000D03*
X138780000Y-88770000D03*
X138780000Y-86230000D03*
D14*
X138780000Y-83690000D03*
D20*
X138780000Y-81150000D03*
X138780000Y-78610000D03*
X138780000Y-76070000D03*
X138780000Y-73530000D03*
D14*
X138780000Y-70990000D03*
D20*
X138780000Y-68450000D03*
X138780000Y-65910000D03*
X138780000Y-63370000D03*
X138780000Y-60830000D03*
D14*
X138780000Y-58290000D03*
D20*
X138780000Y-55750000D03*
X138780000Y-53210000D03*
X138780000Y-50670000D03*
X138780000Y-48130000D03*
D14*
X138780000Y-45590000D03*
D20*
X138780000Y-43050000D03*
X138780000Y-40510000D03*
D21*
X113750000Y-48017950D03*
X114750000Y-49750000D03*
D22*
X127750000Y-40200000D03*
D23*
X127750000Y-41500000D03*
D13*
X142760000Y-97300000D03*
D12*
X145300000Y-97300000D03*
X147840000Y-97300000D03*
X147890000Y-86200000D03*
X145350000Y-86200000D03*
D13*
X142810000Y-86200000D03*
D12*
X156980000Y-97200000D03*
X154440000Y-97200000D03*
D13*
X151900000Y-97200000D03*
X112170000Y-98500000D03*
D12*
X114710000Y-98500000D03*
X117250000Y-98500000D03*
D13*
X112160000Y-77400000D03*
D12*
X114700000Y-77400000D03*
X117240000Y-77400000D03*
D14*
X102130000Y-43000000D03*
D24*
X128400000Y-50600000D03*
D25*
X128400000Y-44300000D03*
D26*
X123600000Y-47700000D03*
D16*
X163000000Y-63860000D03*
X163000000Y-61320000D03*
X163000000Y-58780000D03*
X163000000Y-56240000D03*
X163000000Y-53700000D03*
D27*
X163000000Y-51160000D03*
D16*
X163000000Y-99420000D03*
X163000000Y-96880000D03*
X163000000Y-94340000D03*
D27*
X163000000Y-91800000D03*
X163000000Y-66400000D03*
D16*
X163000000Y-68940000D03*
X163000000Y-71480000D03*
X163000000Y-74020000D03*
D12*
X150720000Y-105500000D03*
X153260000Y-105500000D03*
X155800000Y-105500000D03*
X158340000Y-105500000D03*
X160880000Y-105500000D03*
X163420000Y-105500000D03*
D28*
X165960000Y-105500000D03*
D13*
X112210000Y-66770000D03*
D12*
X114750000Y-66770000D03*
X117290000Y-66770000D03*
D14*
X168500000Y-105500000D03*
D12*
X157100000Y-86200000D03*
X154560000Y-86200000D03*
D13*
X152020000Y-86200000D03*
D14*
X115160000Y-105500000D03*
D12*
X157100000Y-75500000D03*
X154560000Y-75500000D03*
D13*
X152020000Y-75500000D03*
D12*
X148100000Y-75520000D03*
X145560000Y-75520000D03*
D13*
X143020000Y-75520000D03*
D27*
X163000000Y-76560000D03*
D16*
X163000000Y-79100000D03*
X163000000Y-81640000D03*
X163000000Y-84180000D03*
X163000000Y-86720000D03*
X163000000Y-89260000D03*
D27*
X163000000Y-41000000D03*
D16*
X163000000Y-43540000D03*
X163000000Y-46080000D03*
X163000000Y-48620000D03*
D28*
X132940000Y-105500000D03*
D12*
X130400000Y-105500000D03*
X127860000Y-105500000D03*
X125320000Y-105500000D03*
X122780000Y-105500000D03*
X120240000Y-105500000D03*
X117700000Y-105500000D03*
X102460000Y-105500000D03*
X105000000Y-105500000D03*
X107540000Y-105500000D03*
X110080000Y-105500000D03*
D28*
X112620000Y-105500000D03*
D12*
X138020000Y-105500000D03*
X140560000Y-105500000D03*
X143100000Y-105500000D03*
X145640000Y-105500000D03*
D28*
X148180000Y-105500000D03*
D29*
X116000000Y-46500000D03*
X103300000Y-46500000D03*
D30*
X106090000Y-49040000D03*
D31*
X107106000Y-50820000D03*
X108122000Y-49040000D03*
X109138000Y-50820000D03*
X110154000Y-49040000D03*
X111170000Y-50820000D03*
X112186000Y-49040000D03*
X113202000Y-50820000D03*
X102790000Y-55640000D03*
X105080000Y-55640000D03*
X114220000Y-55640000D03*
X116510000Y-55640000D03*
D32*
X101520000Y-49930000D03*
X117780000Y-49930000D03*
D33*
X156962221Y-41062779D03*
X157775000Y-43025000D03*
X156962221Y-44987221D03*
X155000000Y-45800000D03*
X153037779Y-44987221D03*
X153037779Y-41062779D03*
X155000000Y-40250000D03*
D34*
X155000000Y-43025000D03*
D33*
X152225000Y-43025000D03*
X125187221Y-94037779D03*
X126000000Y-96000000D03*
X125187221Y-97962221D03*
X123225000Y-98775000D03*
X121262779Y-97962221D03*
X121262779Y-94037779D03*
X123225000Y-93225000D03*
D34*
X123225000Y-96000000D03*
D33*
X120450000Y-96000000D03*
D35*
X141000000Y-43100000D03*
X141000000Y-45900000D03*
D36*
X104375000Y-51550000D03*
X104375000Y-53450000D03*
X102500000Y-52500000D03*
D37*
X117250000Y-52750000D03*
X115375000Y-51800000D03*
X115375000Y-53700000D03*
D38*
X111750000Y-60750000D03*
X109675000Y-60750000D03*
D18*
X138000000Y-95750000D03*
D39*
X130400000Y-95750000D03*
M02*
