%TF.GenerationSoftware,KiCad,Pcbnew,7.0.1*%
%TF.CreationDate,2023-06-05T16:13:59-05:00*%
%TF.ProjectId,Pico Breakout Board,5069636f-2042-4726-9561-6b6f75742042,rev?*%
%TF.SameCoordinates,Original*%
%TF.FileFunction,Drillmap*%
%TF.FilePolarity,Positive*%
%FSLAX45Y45*%
G04 Gerber Fmt 4.5, Leading zero omitted, Abs format (unit mm)*
G04 Created by KiCad (PCBNEW 7.0.1) date 2023-06-05 16:13:59*
%MOMM*%
%LPD*%
G01*
G04 APERTURE LIST*
%ADD10C,0.100000*%
%ADD11C,0.200000*%
%ADD12C,0.040000*%
%ADD13C,0.102000*%
%ADD14C,0.110000*%
%ADD15C,0.119000*%
%ADD16C,0.152000*%
G04 APERTURE END LIST*
D10*
X10642600Y-3276600D02*
X16268700Y-3276600D01*
X16268700Y-14363700D01*
X10642600Y-14363700D01*
X10642600Y-3276600D01*
D11*
D12*
X11301000Y-11956100D02*
X11341000Y-11996100D01*
X11341000Y-11956100D02*
X11301000Y-11996100D01*
X11346500Y-12464100D02*
X11386500Y-12504100D01*
X11386500Y-12464100D02*
X11346500Y-12504100D01*
X11791000Y-10851200D02*
X11831000Y-10891200D01*
X11831000Y-10851200D02*
X11791000Y-10891200D01*
X11791000Y-11956100D02*
X11831000Y-11996100D01*
X11831000Y-11956100D02*
X11791000Y-11996100D01*
X11943400Y-11791000D02*
X11983400Y-11831000D01*
X11983400Y-11791000D02*
X11943400Y-11831000D01*
X11950950Y-12006900D02*
X11990950Y-12046900D01*
X11990950Y-12006900D02*
X11950950Y-12046900D01*
X12209670Y-11550130D02*
X12249670Y-11590130D01*
X12249670Y-11550130D02*
X12209670Y-11590130D01*
X12311700Y-11664000D02*
X12351700Y-11704000D01*
X12351700Y-11664000D02*
X12311700Y-11704000D01*
X12745450Y-10279700D02*
X12785450Y-10319700D01*
X12785450Y-10279700D02*
X12745450Y-10319700D01*
X12756200Y-9797100D02*
X12796200Y-9837100D01*
X12796200Y-9797100D02*
X12756200Y-9837100D01*
X12794300Y-10787700D02*
X12834300Y-10827700D01*
X12834300Y-10787700D02*
X12794300Y-10827700D01*
X12921300Y-12108500D02*
X12961300Y-12148500D01*
X12961300Y-12108500D02*
X12921300Y-12148500D01*
X13067780Y-10006220D02*
X13107780Y-10046220D01*
X13107780Y-10006220D02*
X13067780Y-10046220D01*
X13099100Y-13340400D02*
X13139100Y-13380400D01*
X13139100Y-13340400D02*
X13099100Y-13380400D01*
X13117720Y-12077180D02*
X13157720Y-12117180D01*
X13157720Y-12077180D02*
X13117720Y-12117180D01*
X13213400Y-13340400D02*
X13253400Y-13380400D01*
X13253400Y-13340400D02*
X13213400Y-13380400D01*
X13302300Y-13111800D02*
X13342300Y-13151800D01*
X13342300Y-13111800D02*
X13302300Y-13151800D01*
X13556300Y-10178100D02*
X13596300Y-10218100D01*
X13596300Y-10178100D02*
X13556300Y-10218100D01*
X13556300Y-13111800D02*
X13596300Y-13151800D01*
X13596300Y-13111800D02*
X13556300Y-13151800D01*
X13670600Y-11689400D02*
X13710600Y-11729400D01*
X13710600Y-11689400D02*
X13670600Y-11729400D01*
X13721400Y-8895400D02*
X13761400Y-8935400D01*
X13761400Y-8895400D02*
X13721400Y-8935400D01*
X13721400Y-8997000D02*
X13761400Y-9037000D01*
X13761400Y-8997000D02*
X13721400Y-9037000D01*
X13797600Y-10406700D02*
X13837600Y-10446700D01*
X13837600Y-10406700D02*
X13797600Y-10446700D01*
X13861100Y-7015800D02*
X13901100Y-7055800D01*
X13901100Y-7015800D02*
X13861100Y-7055800D01*
X13937300Y-13365800D02*
X13977300Y-13405800D01*
X13977300Y-13365800D02*
X13937300Y-13405800D01*
X13950000Y-6317300D02*
X13990000Y-6357300D01*
X13990000Y-6317300D02*
X13950000Y-6357300D01*
X13950860Y-10786840D02*
X13990860Y-10826840D01*
X13990860Y-10786840D02*
X13950860Y-10826840D01*
X13975400Y-12874250D02*
X14015400Y-12914250D01*
X14015400Y-12874250D02*
X13975400Y-12914250D01*
X14013500Y-10114600D02*
X14053500Y-10154600D01*
X14053500Y-10114600D02*
X14013500Y-10154600D01*
X14165900Y-6088700D02*
X14205900Y-6128700D01*
X14205900Y-6088700D02*
X14165900Y-6128700D01*
X14458000Y-11384600D02*
X14498000Y-11424600D01*
X14498000Y-11384600D02*
X14458000Y-11424600D01*
X14562300Y-10404000D02*
X14602300Y-10444000D01*
X14602300Y-10404000D02*
X14562300Y-10444000D01*
X14877100Y-10089200D02*
X14917100Y-10129200D01*
X14917100Y-10089200D02*
X14877100Y-10129200D01*
X14889800Y-7041200D02*
X14929800Y-7081200D01*
X14929800Y-7041200D02*
X14889800Y-7081200D01*
X15042200Y-13073700D02*
X15082200Y-13113700D01*
X15082200Y-13073700D02*
X15042200Y-13113700D01*
X15067600Y-10648000D02*
X15107600Y-10688000D01*
X15107600Y-10648000D02*
X15067600Y-10688000D01*
X15093000Y-12527600D02*
X15133000Y-12567600D01*
X15133000Y-12527600D02*
X15093000Y-12567600D01*
X15118400Y-11968800D02*
X15158400Y-12008800D01*
X15158400Y-11968800D02*
X15118400Y-12008800D01*
X15127300Y-12641900D02*
X15167300Y-12681900D01*
X15167300Y-12641900D02*
X15127300Y-12681900D01*
X15283500Y-13315000D02*
X15323500Y-13355000D01*
X15323500Y-13315000D02*
X15283500Y-13355000D01*
X15608400Y-11968800D02*
X15648400Y-12008800D01*
X15648400Y-11968800D02*
X15608400Y-12008800D01*
D10*
X11810200Y-3479800D02*
G75*
G03*
X11810200Y-3479800I-50000J0D01*
G01*
X11810200Y-5257800D02*
G75*
G03*
X11810200Y-5257800I-50000J0D01*
G01*
X12610300Y-12433300D02*
G75*
G03*
X12610300Y-12433300I-50000J0D01*
G01*
X12610300Y-12687300D02*
G75*
G03*
X12610300Y-12687300I-50000J0D01*
G01*
X12864300Y-12433300D02*
G75*
G03*
X12864300Y-12433300I-50000J0D01*
G01*
X12864300Y-12687300D02*
G75*
G03*
X12864300Y-12687300I-50000J0D01*
G01*
X13118300Y-12433300D02*
G75*
G03*
X13118300Y-12433300I-50000J0D01*
G01*
X13118300Y-12687300D02*
G75*
G03*
X13118300Y-12687300I-50000J0D01*
G01*
X13132000Y-11391900D02*
G75*
G03*
X13132000Y-11391900I-50000J0D01*
G01*
X13372300Y-12433300D02*
G75*
G03*
X13372300Y-12433300I-50000J0D01*
G01*
X13372300Y-12687300D02*
G75*
G03*
X13372300Y-12687300I-50000J0D01*
G01*
X13626300Y-12433300D02*
G75*
G03*
X13626300Y-12433300I-50000J0D01*
G01*
X13626300Y-12687300D02*
G75*
G03*
X13626300Y-12687300I-50000J0D01*
G01*
X13880300Y-12433300D02*
G75*
G03*
X13880300Y-12433300I-50000J0D01*
G01*
X13880300Y-12687300D02*
G75*
G03*
X13880300Y-12687300I-50000J0D01*
G01*
X13892000Y-11391900D02*
G75*
G03*
X13892000Y-11391900I-50000J0D01*
G01*
X14134300Y-12433300D02*
G75*
G03*
X14134300Y-12433300I-50000J0D01*
G01*
X14134300Y-12687300D02*
G75*
G03*
X14134300Y-12687300I-50000J0D01*
G01*
X14388300Y-12433300D02*
G75*
G03*
X14388300Y-12433300I-50000J0D01*
G01*
X14388300Y-12687300D02*
G75*
G03*
X14388300Y-12687300I-50000J0D01*
G01*
X16128200Y-3479800D02*
G75*
G03*
X16128200Y-3479800I-50000J0D01*
G01*
X16128200Y-5257800D02*
G75*
G03*
X16128200Y-5257800I-50000J0D01*
G01*
D13*
X12575500Y-6191500D02*
X12575500Y-6293500D01*
X12524500Y-6242500D02*
X12626500Y-6242500D01*
X12575500Y-6445500D02*
X12575500Y-6547500D01*
X12524500Y-6496500D02*
X12626500Y-6496500D01*
X12575500Y-6699500D02*
X12575500Y-6801500D01*
X12524500Y-6750500D02*
X12626500Y-6750500D01*
X12575500Y-6953500D02*
X12575500Y-7055500D01*
X12524500Y-7004500D02*
X12626500Y-7004500D01*
X12575500Y-7207500D02*
X12575500Y-7309500D01*
X12524500Y-7258500D02*
X12626500Y-7258500D01*
X12575500Y-7461500D02*
X12575500Y-7563500D01*
X12524500Y-7512500D02*
X12626500Y-7512500D01*
X12575500Y-7715500D02*
X12575500Y-7817500D01*
X12524500Y-7766500D02*
X12626500Y-7766500D01*
X12575500Y-7969500D02*
X12575500Y-8071500D01*
X12524500Y-8020500D02*
X12626500Y-8020500D01*
X12575500Y-8223500D02*
X12575500Y-8325500D01*
X12524500Y-8274500D02*
X12626500Y-8274500D01*
X12575500Y-8477500D02*
X12575500Y-8579500D01*
X12524500Y-8528500D02*
X12626500Y-8528500D01*
X12575500Y-8731500D02*
X12575500Y-8833500D01*
X12524500Y-8782500D02*
X12626500Y-8782500D01*
X12575500Y-8985500D02*
X12575500Y-9087500D01*
X12524500Y-9036500D02*
X12626500Y-9036500D01*
X12575500Y-9239500D02*
X12575500Y-9341500D01*
X12524500Y-9290500D02*
X12626500Y-9290500D01*
X12575500Y-9493500D02*
X12575500Y-9595500D01*
X12524500Y-9544500D02*
X12626500Y-9544500D01*
X12575500Y-9747500D02*
X12575500Y-9849500D01*
X12524500Y-9798500D02*
X12626500Y-9798500D01*
X12575500Y-10001500D02*
X12575500Y-10103500D01*
X12524500Y-10052500D02*
X12626500Y-10052500D01*
X12575500Y-10255500D02*
X12575500Y-10357500D01*
X12524500Y-10306500D02*
X12626500Y-10306500D01*
X12575500Y-10509500D02*
X12575500Y-10611500D01*
X12524500Y-10560500D02*
X12626500Y-10560500D01*
X12575500Y-10763500D02*
X12575500Y-10865500D01*
X12524500Y-10814500D02*
X12626500Y-10814500D01*
X12575500Y-11017500D02*
X12575500Y-11119500D01*
X12524500Y-11068500D02*
X12626500Y-11068500D01*
X13210500Y-10994500D02*
X13210500Y-11096500D01*
X13159500Y-11045500D02*
X13261500Y-11045500D01*
X13464500Y-10994500D02*
X13464500Y-11096500D01*
X13413500Y-11045500D02*
X13515500Y-11045500D01*
X13718500Y-10994500D02*
X13718500Y-11096500D01*
X13667500Y-11045500D02*
X13769500Y-11045500D01*
X14353500Y-6191500D02*
X14353500Y-6293500D01*
X14302500Y-6242500D02*
X14404500Y-6242500D01*
X14353500Y-6445500D02*
X14353500Y-6547500D01*
X14302500Y-6496500D02*
X14404500Y-6496500D01*
X14353500Y-6699500D02*
X14353500Y-6801500D01*
X14302500Y-6750500D02*
X14404500Y-6750500D01*
X14353500Y-6953500D02*
X14353500Y-7055500D01*
X14302500Y-7004500D02*
X14404500Y-7004500D01*
X14353500Y-7207500D02*
X14353500Y-7309500D01*
X14302500Y-7258500D02*
X14404500Y-7258500D01*
X14353500Y-7461500D02*
X14353500Y-7563500D01*
X14302500Y-7512500D02*
X14404500Y-7512500D01*
X14353500Y-7715500D02*
X14353500Y-7817500D01*
X14302500Y-7766500D02*
X14404500Y-7766500D01*
X14353500Y-7969500D02*
X14353500Y-8071500D01*
X14302500Y-8020500D02*
X14404500Y-8020500D01*
X14353500Y-8223500D02*
X14353500Y-8325500D01*
X14302500Y-8274500D02*
X14404500Y-8274500D01*
X14353500Y-8477500D02*
X14353500Y-8579500D01*
X14302500Y-8528500D02*
X14404500Y-8528500D01*
X14353500Y-8731500D02*
X14353500Y-8833500D01*
X14302500Y-8782500D02*
X14404500Y-8782500D01*
X14353500Y-8985500D02*
X14353500Y-9087500D01*
X14302500Y-9036500D02*
X14404500Y-9036500D01*
X14353500Y-9239500D02*
X14353500Y-9341500D01*
X14302500Y-9290500D02*
X14404500Y-9290500D01*
X14353500Y-9493500D02*
X14353500Y-9595500D01*
X14302500Y-9544500D02*
X14404500Y-9544500D01*
X14353500Y-9747500D02*
X14353500Y-9849500D01*
X14302500Y-9798500D02*
X14404500Y-9798500D01*
X14353500Y-10001500D02*
X14353500Y-10103500D01*
X14302500Y-10052500D02*
X14404500Y-10052500D01*
X14353500Y-10255500D02*
X14353500Y-10357500D01*
X14302500Y-10306500D02*
X14404500Y-10306500D01*
X14353500Y-10509500D02*
X14353500Y-10611500D01*
X14302500Y-10560500D02*
X14404500Y-10560500D01*
X14353500Y-10763500D02*
X14353500Y-10865500D01*
X14302500Y-10814500D02*
X14404500Y-10814500D01*
X14353500Y-11017500D02*
X14353500Y-11119500D01*
X14302500Y-11068500D02*
X14404500Y-11068500D01*
D14*
X13005591Y-5893591D02*
X13005591Y-5815809D01*
X12927809Y-5815809D01*
X12927809Y-5893591D01*
X13005591Y-5893591D01*
X14021591Y-5893591D02*
X14021591Y-5815809D01*
X13943809Y-5815809D01*
X13943809Y-5893591D01*
X14021591Y-5893591D01*
D15*
X11264900Y-13887800D02*
X11324400Y-13828300D01*
X11264900Y-13768800D01*
X11205400Y-13828300D01*
X11264900Y-13887800D01*
X11518900Y-13887800D02*
X11578400Y-13828300D01*
X11518900Y-13768800D01*
X11459400Y-13828300D01*
X11518900Y-13887800D01*
X11531600Y-5711000D02*
X11591100Y-5651500D01*
X11531600Y-5592000D01*
X11472100Y-5651500D01*
X11531600Y-5711000D01*
X11531600Y-5965000D02*
X11591100Y-5905500D01*
X11531600Y-5846000D01*
X11472100Y-5905500D01*
X11531600Y-5965000D01*
X11531600Y-6219000D02*
X11591100Y-6159500D01*
X11531600Y-6100000D01*
X11472100Y-6159500D01*
X11531600Y-6219000D01*
X11531600Y-6473000D02*
X11591100Y-6413500D01*
X11531600Y-6354000D01*
X11472100Y-6413500D01*
X11531600Y-6473000D01*
X11531600Y-6727000D02*
X11591100Y-6667500D01*
X11531600Y-6608000D01*
X11472100Y-6667500D01*
X11531600Y-6727000D01*
X11531600Y-6981000D02*
X11591100Y-6921500D01*
X11531600Y-6862000D01*
X11472100Y-6921500D01*
X11531600Y-6981000D01*
X11531600Y-7235000D02*
X11591100Y-7175500D01*
X11531600Y-7116000D01*
X11472100Y-7175500D01*
X11531600Y-7235000D01*
X11531600Y-7489000D02*
X11591100Y-7429500D01*
X11531600Y-7370000D01*
X11472100Y-7429500D01*
X11531600Y-7489000D01*
X11531600Y-7743000D02*
X11591100Y-7683500D01*
X11531600Y-7624000D01*
X11472100Y-7683500D01*
X11531600Y-7743000D01*
X11531600Y-7997000D02*
X11591100Y-7937500D01*
X11531600Y-7878000D01*
X11472100Y-7937500D01*
X11531600Y-7997000D01*
X11531600Y-8251000D02*
X11591100Y-8191500D01*
X11531600Y-8132000D01*
X11472100Y-8191500D01*
X11531600Y-8251000D01*
X11531600Y-8505000D02*
X11591100Y-8445500D01*
X11531600Y-8386000D01*
X11472100Y-8445500D01*
X11531600Y-8505000D01*
X11531600Y-8759000D02*
X11591100Y-8699500D01*
X11531600Y-8640000D01*
X11472100Y-8699500D01*
X11531600Y-8759000D01*
X11531600Y-9013000D02*
X11591100Y-8953500D01*
X11531600Y-8894000D01*
X11472100Y-8953500D01*
X11531600Y-9013000D01*
X11531600Y-9267000D02*
X11591100Y-9207500D01*
X11531600Y-9148000D01*
X11472100Y-9207500D01*
X11531600Y-9267000D01*
X11531600Y-9521000D02*
X11591100Y-9461500D01*
X11531600Y-9402000D01*
X11472100Y-9461500D01*
X11531600Y-9521000D01*
X11531600Y-9775000D02*
X11591100Y-9715500D01*
X11531600Y-9656000D01*
X11472100Y-9715500D01*
X11531600Y-9775000D01*
X11531600Y-10029000D02*
X11591100Y-9969500D01*
X11531600Y-9910000D01*
X11472100Y-9969500D01*
X11531600Y-10029000D01*
X11531600Y-10283000D02*
X11591100Y-10223500D01*
X11531600Y-10164000D01*
X11472100Y-10223500D01*
X11531600Y-10283000D01*
X11531600Y-10537000D02*
X11591100Y-10477500D01*
X11531600Y-10418000D01*
X11472100Y-10477500D01*
X11531600Y-10537000D01*
X11531600Y-10791000D02*
X11591100Y-10731500D01*
X11531600Y-10672000D01*
X11472100Y-10731500D01*
X11531600Y-10791000D01*
X11531600Y-11045000D02*
X11591100Y-10985500D01*
X11531600Y-10926000D01*
X11472100Y-10985500D01*
X11531600Y-11045000D01*
X11531600Y-11299000D02*
X11591100Y-11239500D01*
X11531600Y-11180000D01*
X11472100Y-11239500D01*
X11531600Y-11299000D01*
X11531600Y-11553000D02*
X11591100Y-11493500D01*
X11531600Y-11434000D01*
X11472100Y-11493500D01*
X11531600Y-11553000D01*
X11772900Y-13887800D02*
X11832400Y-13828300D01*
X11772900Y-13768800D01*
X11713400Y-13828300D01*
X11772900Y-13887800D01*
X12293600Y-13902500D02*
X12353100Y-13843000D01*
X12293600Y-13783500D01*
X12234100Y-13843000D01*
X12293600Y-13902500D01*
X12547600Y-13902500D02*
X12607100Y-13843000D01*
X12547600Y-13783500D01*
X12488100Y-13843000D01*
X12547600Y-13902500D01*
X12801600Y-13902500D02*
X12861100Y-13843000D01*
X12801600Y-13783500D01*
X12742100Y-13843000D01*
X12801600Y-13902500D01*
X13055600Y-13902500D02*
X13115100Y-13843000D01*
X13055600Y-13783500D01*
X12996100Y-13843000D01*
X13055600Y-13902500D01*
X13309600Y-13902500D02*
X13369100Y-13843000D01*
X13309600Y-13783500D01*
X13250100Y-13843000D01*
X13309600Y-13902500D01*
X13563600Y-13902500D02*
X13623100Y-13843000D01*
X13563600Y-13783500D01*
X13504100Y-13843000D01*
X13563600Y-13902500D01*
X13817600Y-13902500D02*
X13877100Y-13843000D01*
X13817600Y-13783500D01*
X13758100Y-13843000D01*
X13817600Y-13902500D01*
X14071600Y-13902500D02*
X14131100Y-13843000D01*
X14071600Y-13783500D01*
X14012100Y-13843000D01*
X14071600Y-13902500D01*
X14325600Y-13902500D02*
X14385100Y-13843000D01*
X14325600Y-13783500D01*
X14266100Y-13843000D01*
X14325600Y-13902500D01*
X14579600Y-13902500D02*
X14639100Y-13843000D01*
X14579600Y-13783500D01*
X14520100Y-13843000D01*
X14579600Y-13902500D01*
X15049900Y-13922500D02*
X15109400Y-13863000D01*
X15049900Y-13803500D01*
X14990400Y-13863000D01*
X15049900Y-13922500D01*
X15303900Y-13922500D02*
X15363400Y-13863000D01*
X15303900Y-13803500D01*
X15244400Y-13863000D01*
X15303900Y-13922500D01*
X15445200Y-5723700D02*
X15504700Y-5664200D01*
X15445200Y-5604700D01*
X15385700Y-5664200D01*
X15445200Y-5723700D01*
X15445200Y-5977700D02*
X15504700Y-5918200D01*
X15445200Y-5858700D01*
X15385700Y-5918200D01*
X15445200Y-5977700D01*
X15445200Y-6231700D02*
X15504700Y-6172200D01*
X15445200Y-6112700D01*
X15385700Y-6172200D01*
X15445200Y-6231700D01*
X15445200Y-6485700D02*
X15504700Y-6426200D01*
X15445200Y-6366700D01*
X15385700Y-6426200D01*
X15445200Y-6485700D01*
X15445200Y-6739700D02*
X15504700Y-6680200D01*
X15445200Y-6620700D01*
X15385700Y-6680200D01*
X15445200Y-6739700D01*
X15445200Y-6993700D02*
X15504700Y-6934200D01*
X15445200Y-6874700D01*
X15385700Y-6934200D01*
X15445200Y-6993700D01*
X15445200Y-7247700D02*
X15504700Y-7188200D01*
X15445200Y-7128700D01*
X15385700Y-7188200D01*
X15445200Y-7247700D01*
X15445200Y-7501700D02*
X15504700Y-7442200D01*
X15445200Y-7382700D01*
X15385700Y-7442200D01*
X15445200Y-7501700D01*
X15445200Y-7755700D02*
X15504700Y-7696200D01*
X15445200Y-7636700D01*
X15385700Y-7696200D01*
X15445200Y-7755700D01*
X15445200Y-8009700D02*
X15504700Y-7950200D01*
X15445200Y-7890700D01*
X15385700Y-7950200D01*
X15445200Y-8009700D01*
X15445200Y-8263700D02*
X15504700Y-8204200D01*
X15445200Y-8144700D01*
X15385700Y-8204200D01*
X15445200Y-8263700D01*
X15445200Y-8517700D02*
X15504700Y-8458200D01*
X15445200Y-8398700D01*
X15385700Y-8458200D01*
X15445200Y-8517700D01*
X15445200Y-8771700D02*
X15504700Y-8712200D01*
X15445200Y-8652700D01*
X15385700Y-8712200D01*
X15445200Y-8771700D01*
X15445200Y-9025700D02*
X15504700Y-8966200D01*
X15445200Y-8906700D01*
X15385700Y-8966200D01*
X15445200Y-9025700D01*
X15445200Y-9279700D02*
X15504700Y-9220200D01*
X15445200Y-9160700D01*
X15385700Y-9220200D01*
X15445200Y-9279700D01*
X15445200Y-9533700D02*
X15504700Y-9474200D01*
X15445200Y-9414700D01*
X15385700Y-9474200D01*
X15445200Y-9533700D01*
X15445200Y-9787700D02*
X15504700Y-9728200D01*
X15445200Y-9668700D01*
X15385700Y-9728200D01*
X15445200Y-9787700D01*
X15445200Y-10041700D02*
X15504700Y-9982200D01*
X15445200Y-9922700D01*
X15385700Y-9982200D01*
X15445200Y-10041700D01*
X15445200Y-10295700D02*
X15504700Y-10236200D01*
X15445200Y-10176700D01*
X15385700Y-10236200D01*
X15445200Y-10295700D01*
X15445200Y-10549700D02*
X15504700Y-10490200D01*
X15445200Y-10430700D01*
X15385700Y-10490200D01*
X15445200Y-10549700D01*
X15445200Y-10803700D02*
X15504700Y-10744200D01*
X15445200Y-10684700D01*
X15385700Y-10744200D01*
X15445200Y-10803700D01*
X15445200Y-11057700D02*
X15504700Y-10998200D01*
X15445200Y-10938700D01*
X15385700Y-10998200D01*
X15445200Y-11057700D01*
X15445200Y-11311700D02*
X15504700Y-11252200D01*
X15445200Y-11192700D01*
X15385700Y-11252200D01*
X15445200Y-11311700D01*
X15445200Y-11565700D02*
X15504700Y-11506200D01*
X15445200Y-11446700D01*
X15385700Y-11506200D01*
X15445200Y-11565700D01*
X15557900Y-13922500D02*
X15617400Y-13863000D01*
X15557900Y-13803500D01*
X15498400Y-13863000D01*
X15557900Y-13922500D01*
D16*
X10985700Y-4013400D02*
X11137700Y-4165400D01*
X11137700Y-4013400D02*
X10985700Y-4165400D01*
X11137700Y-4089400D02*
G75*
G03*
X11137700Y-4089400I-76000J0D01*
G01*
X10985700Y-4521400D02*
X11137700Y-4673400D01*
X11137700Y-4521400D02*
X10985700Y-4673400D01*
X11137700Y-4597400D02*
G75*
G03*
X11137700Y-4597400I-76000J0D01*
G01*
D11*
X10885219Y-14681224D02*
X10885219Y-14481224D01*
X10885219Y-14481224D02*
X10932838Y-14481224D01*
X10932838Y-14481224D02*
X10961410Y-14490748D01*
X10961410Y-14490748D02*
X10980457Y-14509795D01*
X10980457Y-14509795D02*
X10989981Y-14528843D01*
X10989981Y-14528843D02*
X10999505Y-14566938D01*
X10999505Y-14566938D02*
X10999505Y-14595509D01*
X10999505Y-14595509D02*
X10989981Y-14633605D01*
X10989981Y-14633605D02*
X10980457Y-14652652D01*
X10980457Y-14652652D02*
X10961410Y-14671700D01*
X10961410Y-14671700D02*
X10932838Y-14681224D01*
X10932838Y-14681224D02*
X10885219Y-14681224D01*
X11085219Y-14681224D02*
X11085219Y-14547890D01*
X11085219Y-14585986D02*
X11094743Y-14566938D01*
X11094743Y-14566938D02*
X11104267Y-14557414D01*
X11104267Y-14557414D02*
X11123314Y-14547890D01*
X11123314Y-14547890D02*
X11142362Y-14547890D01*
X11209028Y-14681224D02*
X11209028Y-14547890D01*
X11209028Y-14481224D02*
X11199505Y-14490748D01*
X11199505Y-14490748D02*
X11209028Y-14500271D01*
X11209028Y-14500271D02*
X11218552Y-14490748D01*
X11218552Y-14490748D02*
X11209028Y-14481224D01*
X11209028Y-14481224D02*
X11209028Y-14500271D01*
X11332838Y-14681224D02*
X11313790Y-14671700D01*
X11313790Y-14671700D02*
X11304267Y-14652652D01*
X11304267Y-14652652D02*
X11304267Y-14481224D01*
X11437600Y-14681224D02*
X11418552Y-14671700D01*
X11418552Y-14671700D02*
X11409028Y-14652652D01*
X11409028Y-14652652D02*
X11409028Y-14481224D01*
X11666171Y-14681224D02*
X11666171Y-14481224D01*
X11666171Y-14481224D02*
X11732838Y-14624081D01*
X11732838Y-14624081D02*
X11799505Y-14481224D01*
X11799505Y-14481224D02*
X11799505Y-14681224D01*
X11980457Y-14681224D02*
X11980457Y-14576462D01*
X11980457Y-14576462D02*
X11970933Y-14557414D01*
X11970933Y-14557414D02*
X11951886Y-14547890D01*
X11951886Y-14547890D02*
X11913790Y-14547890D01*
X11913790Y-14547890D02*
X11894743Y-14557414D01*
X11980457Y-14671700D02*
X11961409Y-14681224D01*
X11961409Y-14681224D02*
X11913790Y-14681224D01*
X11913790Y-14681224D02*
X11894743Y-14671700D01*
X11894743Y-14671700D02*
X11885219Y-14652652D01*
X11885219Y-14652652D02*
X11885219Y-14633605D01*
X11885219Y-14633605D02*
X11894743Y-14614557D01*
X11894743Y-14614557D02*
X11913790Y-14605033D01*
X11913790Y-14605033D02*
X11961409Y-14605033D01*
X11961409Y-14605033D02*
X11980457Y-14595509D01*
X12075695Y-14547890D02*
X12075695Y-14747890D01*
X12075695Y-14557414D02*
X12094743Y-14547890D01*
X12094743Y-14547890D02*
X12132838Y-14547890D01*
X12132838Y-14547890D02*
X12151886Y-14557414D01*
X12151886Y-14557414D02*
X12161409Y-14566938D01*
X12161409Y-14566938D02*
X12170933Y-14585986D01*
X12170933Y-14585986D02*
X12170933Y-14643128D01*
X12170933Y-14643128D02*
X12161409Y-14662176D01*
X12161409Y-14662176D02*
X12151886Y-14671700D01*
X12151886Y-14671700D02*
X12132838Y-14681224D01*
X12132838Y-14681224D02*
X12094743Y-14681224D01*
X12094743Y-14681224D02*
X12075695Y-14671700D01*
X12256648Y-14662176D02*
X12266171Y-14671700D01*
X12266171Y-14671700D02*
X12256648Y-14681224D01*
X12256648Y-14681224D02*
X12247124Y-14671700D01*
X12247124Y-14671700D02*
X12256648Y-14662176D01*
X12256648Y-14662176D02*
X12256648Y-14681224D01*
X12256648Y-14557414D02*
X12266171Y-14566938D01*
X12266171Y-14566938D02*
X12256648Y-14576462D01*
X12256648Y-14576462D02*
X12247124Y-14566938D01*
X12247124Y-14566938D02*
X12256648Y-14557414D01*
X12256648Y-14557414D02*
X12256648Y-14576462D01*
D12*
X10597600Y-14988700D02*
X10637600Y-15028700D01*
X10637600Y-14988700D02*
X10597600Y-15028700D01*
D11*
X10923314Y-14901224D02*
X10942362Y-14901224D01*
X10942362Y-14901224D02*
X10961410Y-14910748D01*
X10961410Y-14910748D02*
X10970933Y-14920271D01*
X10970933Y-14920271D02*
X10980457Y-14939319D01*
X10980457Y-14939319D02*
X10989981Y-14977414D01*
X10989981Y-14977414D02*
X10989981Y-15025033D01*
X10989981Y-15025033D02*
X10980457Y-15063128D01*
X10980457Y-15063128D02*
X10970933Y-15082176D01*
X10970933Y-15082176D02*
X10961410Y-15091700D01*
X10961410Y-15091700D02*
X10942362Y-15101224D01*
X10942362Y-15101224D02*
X10923314Y-15101224D01*
X10923314Y-15101224D02*
X10904267Y-15091700D01*
X10904267Y-15091700D02*
X10894743Y-15082176D01*
X10894743Y-15082176D02*
X10885219Y-15063128D01*
X10885219Y-15063128D02*
X10875695Y-15025033D01*
X10875695Y-15025033D02*
X10875695Y-14977414D01*
X10875695Y-14977414D02*
X10885219Y-14939319D01*
X10885219Y-14939319D02*
X10894743Y-14920271D01*
X10894743Y-14920271D02*
X10904267Y-14910748D01*
X10904267Y-14910748D02*
X10923314Y-14901224D01*
X11075695Y-15082176D02*
X11085219Y-15091700D01*
X11085219Y-15091700D02*
X11075695Y-15101224D01*
X11075695Y-15101224D02*
X11066171Y-15091700D01*
X11066171Y-15091700D02*
X11075695Y-15082176D01*
X11075695Y-15082176D02*
X11075695Y-15101224D01*
X11256648Y-14967890D02*
X11256648Y-15101224D01*
X11209028Y-14891700D02*
X11161410Y-15034557D01*
X11161410Y-15034557D02*
X11285219Y-15034557D01*
X11399505Y-14901224D02*
X11418552Y-14901224D01*
X11418552Y-14901224D02*
X11437600Y-14910748D01*
X11437600Y-14910748D02*
X11447124Y-14920271D01*
X11447124Y-14920271D02*
X11456648Y-14939319D01*
X11456648Y-14939319D02*
X11466171Y-14977414D01*
X11466171Y-14977414D02*
X11466171Y-15025033D01*
X11466171Y-15025033D02*
X11456648Y-15063128D01*
X11456648Y-15063128D02*
X11447124Y-15082176D01*
X11447124Y-15082176D02*
X11437600Y-15091700D01*
X11437600Y-15091700D02*
X11418552Y-15101224D01*
X11418552Y-15101224D02*
X11399505Y-15101224D01*
X11399505Y-15101224D02*
X11380457Y-15091700D01*
X11380457Y-15091700D02*
X11370933Y-15082176D01*
X11370933Y-15082176D02*
X11361409Y-15063128D01*
X11361409Y-15063128D02*
X11351886Y-15025033D01*
X11351886Y-15025033D02*
X11351886Y-14977414D01*
X11351886Y-14977414D02*
X11361409Y-14939319D01*
X11361409Y-14939319D02*
X11370933Y-14920271D01*
X11370933Y-14920271D02*
X11380457Y-14910748D01*
X11380457Y-14910748D02*
X11399505Y-14901224D01*
X11589981Y-14901224D02*
X11609029Y-14901224D01*
X11609029Y-14901224D02*
X11628076Y-14910748D01*
X11628076Y-14910748D02*
X11637600Y-14920271D01*
X11637600Y-14920271D02*
X11647124Y-14939319D01*
X11647124Y-14939319D02*
X11656648Y-14977414D01*
X11656648Y-14977414D02*
X11656648Y-15025033D01*
X11656648Y-15025033D02*
X11647124Y-15063128D01*
X11647124Y-15063128D02*
X11637600Y-15082176D01*
X11637600Y-15082176D02*
X11628076Y-15091700D01*
X11628076Y-15091700D02*
X11609029Y-15101224D01*
X11609029Y-15101224D02*
X11589981Y-15101224D01*
X11589981Y-15101224D02*
X11570933Y-15091700D01*
X11570933Y-15091700D02*
X11561409Y-15082176D01*
X11561409Y-15082176D02*
X11551886Y-15063128D01*
X11551886Y-15063128D02*
X11542362Y-15025033D01*
X11542362Y-15025033D02*
X11542362Y-14977414D01*
X11542362Y-14977414D02*
X11551886Y-14939319D01*
X11551886Y-14939319D02*
X11561409Y-14920271D01*
X11561409Y-14920271D02*
X11570933Y-14910748D01*
X11570933Y-14910748D02*
X11589981Y-14901224D01*
X11742362Y-15101224D02*
X11742362Y-14967890D01*
X11742362Y-14986938D02*
X11751886Y-14977414D01*
X11751886Y-14977414D02*
X11770933Y-14967890D01*
X11770933Y-14967890D02*
X11799505Y-14967890D01*
X11799505Y-14967890D02*
X11818552Y-14977414D01*
X11818552Y-14977414D02*
X11828076Y-14996462D01*
X11828076Y-14996462D02*
X11828076Y-15101224D01*
X11828076Y-14996462D02*
X11837600Y-14977414D01*
X11837600Y-14977414D02*
X11856648Y-14967890D01*
X11856648Y-14967890D02*
X11885219Y-14967890D01*
X11885219Y-14967890D02*
X11904267Y-14977414D01*
X11904267Y-14977414D02*
X11913790Y-14996462D01*
X11913790Y-14996462D02*
X11913790Y-15101224D01*
X12009029Y-15101224D02*
X12009029Y-14967890D01*
X12009029Y-14986938D02*
X12018552Y-14977414D01*
X12018552Y-14977414D02*
X12037600Y-14967890D01*
X12037600Y-14967890D02*
X12066171Y-14967890D01*
X12066171Y-14967890D02*
X12085219Y-14977414D01*
X12085219Y-14977414D02*
X12094743Y-14996462D01*
X12094743Y-14996462D02*
X12094743Y-15101224D01*
X12094743Y-14996462D02*
X12104267Y-14977414D01*
X12104267Y-14977414D02*
X12123314Y-14967890D01*
X12123314Y-14967890D02*
X12151886Y-14967890D01*
X12151886Y-14967890D02*
X12170933Y-14977414D01*
X12170933Y-14977414D02*
X12180457Y-14996462D01*
X12180457Y-14996462D02*
X12180457Y-15101224D01*
X12570933Y-14891700D02*
X12399505Y-15148843D01*
X12828076Y-14901224D02*
X12847124Y-14901224D01*
X12847124Y-14901224D02*
X12866172Y-14910748D01*
X12866172Y-14910748D02*
X12875695Y-14920271D01*
X12875695Y-14920271D02*
X12885219Y-14939319D01*
X12885219Y-14939319D02*
X12894743Y-14977414D01*
X12894743Y-14977414D02*
X12894743Y-15025033D01*
X12894743Y-15025033D02*
X12885219Y-15063128D01*
X12885219Y-15063128D02*
X12875695Y-15082176D01*
X12875695Y-15082176D02*
X12866172Y-15091700D01*
X12866172Y-15091700D02*
X12847124Y-15101224D01*
X12847124Y-15101224D02*
X12828076Y-15101224D01*
X12828076Y-15101224D02*
X12809029Y-15091700D01*
X12809029Y-15091700D02*
X12799505Y-15082176D01*
X12799505Y-15082176D02*
X12789981Y-15063128D01*
X12789981Y-15063128D02*
X12780457Y-15025033D01*
X12780457Y-15025033D02*
X12780457Y-14977414D01*
X12780457Y-14977414D02*
X12789981Y-14939319D01*
X12789981Y-14939319D02*
X12799505Y-14920271D01*
X12799505Y-14920271D02*
X12809029Y-14910748D01*
X12809029Y-14910748D02*
X12828076Y-14901224D01*
X12980457Y-15082176D02*
X12989981Y-15091700D01*
X12989981Y-15091700D02*
X12980457Y-15101224D01*
X12980457Y-15101224D02*
X12970933Y-15091700D01*
X12970933Y-15091700D02*
X12980457Y-15082176D01*
X12980457Y-15082176D02*
X12980457Y-15101224D01*
X13113791Y-14901224D02*
X13132838Y-14901224D01*
X13132838Y-14901224D02*
X13151886Y-14910748D01*
X13151886Y-14910748D02*
X13161410Y-14920271D01*
X13161410Y-14920271D02*
X13170933Y-14939319D01*
X13170933Y-14939319D02*
X13180457Y-14977414D01*
X13180457Y-14977414D02*
X13180457Y-15025033D01*
X13180457Y-15025033D02*
X13170933Y-15063128D01*
X13170933Y-15063128D02*
X13161410Y-15082176D01*
X13161410Y-15082176D02*
X13151886Y-15091700D01*
X13151886Y-15091700D02*
X13132838Y-15101224D01*
X13132838Y-15101224D02*
X13113791Y-15101224D01*
X13113791Y-15101224D02*
X13094743Y-15091700D01*
X13094743Y-15091700D02*
X13085219Y-15082176D01*
X13085219Y-15082176D02*
X13075695Y-15063128D01*
X13075695Y-15063128D02*
X13066172Y-15025033D01*
X13066172Y-15025033D02*
X13066172Y-14977414D01*
X13066172Y-14977414D02*
X13075695Y-14939319D01*
X13075695Y-14939319D02*
X13085219Y-14920271D01*
X13085219Y-14920271D02*
X13094743Y-14910748D01*
X13094743Y-14910748D02*
X13113791Y-14901224D01*
X13370933Y-15101224D02*
X13256648Y-15101224D01*
X13313791Y-15101224D02*
X13313791Y-14901224D01*
X13313791Y-14901224D02*
X13294743Y-14929795D01*
X13294743Y-14929795D02*
X13275695Y-14948843D01*
X13275695Y-14948843D02*
X13256648Y-14958367D01*
X13551886Y-14901224D02*
X13456648Y-14901224D01*
X13456648Y-14901224D02*
X13447124Y-14996462D01*
X13447124Y-14996462D02*
X13456648Y-14986938D01*
X13456648Y-14986938D02*
X13475695Y-14977414D01*
X13475695Y-14977414D02*
X13523314Y-14977414D01*
X13523314Y-14977414D02*
X13542362Y-14986938D01*
X13542362Y-14986938D02*
X13551886Y-14996462D01*
X13551886Y-14996462D02*
X13561410Y-15015509D01*
X13561410Y-15015509D02*
X13561410Y-15063128D01*
X13561410Y-15063128D02*
X13551886Y-15082176D01*
X13551886Y-15082176D02*
X13542362Y-15091700D01*
X13542362Y-15091700D02*
X13523314Y-15101224D01*
X13523314Y-15101224D02*
X13475695Y-15101224D01*
X13475695Y-15101224D02*
X13456648Y-15091700D01*
X13456648Y-15091700D02*
X13447124Y-15082176D01*
X13628076Y-14901224D02*
X13761410Y-14901224D01*
X13761410Y-14901224D02*
X13675695Y-15101224D01*
X13828076Y-14901224D02*
X13828076Y-14939319D01*
X13904267Y-14901224D02*
X13904267Y-14939319D01*
X14199505Y-15177414D02*
X14189981Y-15167890D01*
X14189981Y-15167890D02*
X14170934Y-15139319D01*
X14170934Y-15139319D02*
X14161410Y-15120271D01*
X14161410Y-15120271D02*
X14151886Y-15091700D01*
X14151886Y-15091700D02*
X14142362Y-15044081D01*
X14142362Y-15044081D02*
X14142362Y-15005986D01*
X14142362Y-15005986D02*
X14151886Y-14958367D01*
X14151886Y-14958367D02*
X14161410Y-14929795D01*
X14161410Y-14929795D02*
X14170934Y-14910748D01*
X14170934Y-14910748D02*
X14189981Y-14882176D01*
X14189981Y-14882176D02*
X14199505Y-14872652D01*
X14361410Y-14967890D02*
X14361410Y-15101224D01*
X14313791Y-14891700D02*
X14266172Y-15034557D01*
X14266172Y-15034557D02*
X14389981Y-15034557D01*
X14570934Y-15101224D02*
X14456648Y-15101224D01*
X14513791Y-15101224D02*
X14513791Y-14901224D01*
X14513791Y-14901224D02*
X14494743Y-14929795D01*
X14494743Y-14929795D02*
X14475695Y-14948843D01*
X14475695Y-14948843D02*
X14456648Y-14958367D01*
X14809029Y-15101224D02*
X14809029Y-14901224D01*
X14894743Y-15101224D02*
X14894743Y-14996462D01*
X14894743Y-14996462D02*
X14885219Y-14977414D01*
X14885219Y-14977414D02*
X14866172Y-14967890D01*
X14866172Y-14967890D02*
X14837600Y-14967890D01*
X14837600Y-14967890D02*
X14818553Y-14977414D01*
X14818553Y-14977414D02*
X14809029Y-14986938D01*
X15018553Y-15101224D02*
X14999505Y-15091700D01*
X14999505Y-15091700D02*
X14989981Y-15082176D01*
X14989981Y-15082176D02*
X14980457Y-15063128D01*
X14980457Y-15063128D02*
X14980457Y-15005986D01*
X14980457Y-15005986D02*
X14989981Y-14986938D01*
X14989981Y-14986938D02*
X14999505Y-14977414D01*
X14999505Y-14977414D02*
X15018553Y-14967890D01*
X15018553Y-14967890D02*
X15047124Y-14967890D01*
X15047124Y-14967890D02*
X15066172Y-14977414D01*
X15066172Y-14977414D02*
X15075696Y-14986938D01*
X15075696Y-14986938D02*
X15085219Y-15005986D01*
X15085219Y-15005986D02*
X15085219Y-15063128D01*
X15085219Y-15063128D02*
X15075696Y-15082176D01*
X15075696Y-15082176D02*
X15066172Y-15091700D01*
X15066172Y-15091700D02*
X15047124Y-15101224D01*
X15047124Y-15101224D02*
X15018553Y-15101224D01*
X15199505Y-15101224D02*
X15180457Y-15091700D01*
X15180457Y-15091700D02*
X15170934Y-15072652D01*
X15170934Y-15072652D02*
X15170934Y-14901224D01*
X15351886Y-15091700D02*
X15332838Y-15101224D01*
X15332838Y-15101224D02*
X15294743Y-15101224D01*
X15294743Y-15101224D02*
X15275696Y-15091700D01*
X15275696Y-15091700D02*
X15266172Y-15072652D01*
X15266172Y-15072652D02*
X15266172Y-14996462D01*
X15266172Y-14996462D02*
X15275696Y-14977414D01*
X15275696Y-14977414D02*
X15294743Y-14967890D01*
X15294743Y-14967890D02*
X15332838Y-14967890D01*
X15332838Y-14967890D02*
X15351886Y-14977414D01*
X15351886Y-14977414D02*
X15361410Y-14996462D01*
X15361410Y-14996462D02*
X15361410Y-15015509D01*
X15361410Y-15015509D02*
X15266172Y-15034557D01*
X15437600Y-15091700D02*
X15456648Y-15101224D01*
X15456648Y-15101224D02*
X15494743Y-15101224D01*
X15494743Y-15101224D02*
X15513791Y-15091700D01*
X15513791Y-15091700D02*
X15523315Y-15072652D01*
X15523315Y-15072652D02*
X15523315Y-15063128D01*
X15523315Y-15063128D02*
X15513791Y-15044081D01*
X15513791Y-15044081D02*
X15494743Y-15034557D01*
X15494743Y-15034557D02*
X15466172Y-15034557D01*
X15466172Y-15034557D02*
X15447124Y-15025033D01*
X15447124Y-15025033D02*
X15437600Y-15005986D01*
X15437600Y-15005986D02*
X15437600Y-14996462D01*
X15437600Y-14996462D02*
X15447124Y-14977414D01*
X15447124Y-14977414D02*
X15466172Y-14967890D01*
X15466172Y-14967890D02*
X15494743Y-14967890D01*
X15494743Y-14967890D02*
X15513791Y-14977414D01*
X15589981Y-15177414D02*
X15599505Y-15167890D01*
X15599505Y-15167890D02*
X15618553Y-15139319D01*
X15618553Y-15139319D02*
X15628077Y-15120271D01*
X15628077Y-15120271D02*
X15637600Y-15091700D01*
X15637600Y-15091700D02*
X15647124Y-15044081D01*
X15647124Y-15044081D02*
X15647124Y-15005986D01*
X15647124Y-15005986D02*
X15637600Y-14958367D01*
X15637600Y-14958367D02*
X15628077Y-14929795D01*
X15628077Y-14929795D02*
X15618553Y-14910748D01*
X15618553Y-14910748D02*
X15599505Y-14882176D01*
X15599505Y-14882176D02*
X15589981Y-14872652D01*
D10*
X10637600Y-15272700D02*
G75*
G03*
X10637600Y-15272700I-50000J0D01*
G01*
D11*
X10989981Y-15365224D02*
X10875695Y-15365224D01*
X10932838Y-15365224D02*
X10932838Y-15165224D01*
X10932838Y-15165224D02*
X10913790Y-15193795D01*
X10913790Y-15193795D02*
X10894743Y-15212843D01*
X10894743Y-15212843D02*
X10875695Y-15222367D01*
X11075695Y-15346176D02*
X11085219Y-15355700D01*
X11085219Y-15355700D02*
X11075695Y-15365224D01*
X11075695Y-15365224D02*
X11066171Y-15355700D01*
X11066171Y-15355700D02*
X11075695Y-15346176D01*
X11075695Y-15346176D02*
X11075695Y-15365224D01*
X11209028Y-15165224D02*
X11228076Y-15165224D01*
X11228076Y-15165224D02*
X11247124Y-15174748D01*
X11247124Y-15174748D02*
X11256648Y-15184271D01*
X11256648Y-15184271D02*
X11266171Y-15203319D01*
X11266171Y-15203319D02*
X11275695Y-15241414D01*
X11275695Y-15241414D02*
X11275695Y-15289033D01*
X11275695Y-15289033D02*
X11266171Y-15327128D01*
X11266171Y-15327128D02*
X11256648Y-15346176D01*
X11256648Y-15346176D02*
X11247124Y-15355700D01*
X11247124Y-15355700D02*
X11228076Y-15365224D01*
X11228076Y-15365224D02*
X11209028Y-15365224D01*
X11209028Y-15365224D02*
X11189981Y-15355700D01*
X11189981Y-15355700D02*
X11180457Y-15346176D01*
X11180457Y-15346176D02*
X11170933Y-15327128D01*
X11170933Y-15327128D02*
X11161410Y-15289033D01*
X11161410Y-15289033D02*
X11161410Y-15241414D01*
X11161410Y-15241414D02*
X11170933Y-15203319D01*
X11170933Y-15203319D02*
X11180457Y-15184271D01*
X11180457Y-15184271D02*
X11189981Y-15174748D01*
X11189981Y-15174748D02*
X11209028Y-15165224D01*
X11399505Y-15165224D02*
X11418552Y-15165224D01*
X11418552Y-15165224D02*
X11437600Y-15174748D01*
X11437600Y-15174748D02*
X11447124Y-15184271D01*
X11447124Y-15184271D02*
X11456648Y-15203319D01*
X11456648Y-15203319D02*
X11466171Y-15241414D01*
X11466171Y-15241414D02*
X11466171Y-15289033D01*
X11466171Y-15289033D02*
X11456648Y-15327128D01*
X11456648Y-15327128D02*
X11447124Y-15346176D01*
X11447124Y-15346176D02*
X11437600Y-15355700D01*
X11437600Y-15355700D02*
X11418552Y-15365224D01*
X11418552Y-15365224D02*
X11399505Y-15365224D01*
X11399505Y-15365224D02*
X11380457Y-15355700D01*
X11380457Y-15355700D02*
X11370933Y-15346176D01*
X11370933Y-15346176D02*
X11361409Y-15327128D01*
X11361409Y-15327128D02*
X11351886Y-15289033D01*
X11351886Y-15289033D02*
X11351886Y-15241414D01*
X11351886Y-15241414D02*
X11361409Y-15203319D01*
X11361409Y-15203319D02*
X11370933Y-15184271D01*
X11370933Y-15184271D02*
X11380457Y-15174748D01*
X11380457Y-15174748D02*
X11399505Y-15165224D01*
X11589981Y-15165224D02*
X11609029Y-15165224D01*
X11609029Y-15165224D02*
X11628076Y-15174748D01*
X11628076Y-15174748D02*
X11637600Y-15184271D01*
X11637600Y-15184271D02*
X11647124Y-15203319D01*
X11647124Y-15203319D02*
X11656648Y-15241414D01*
X11656648Y-15241414D02*
X11656648Y-15289033D01*
X11656648Y-15289033D02*
X11647124Y-15327128D01*
X11647124Y-15327128D02*
X11637600Y-15346176D01*
X11637600Y-15346176D02*
X11628076Y-15355700D01*
X11628076Y-15355700D02*
X11609029Y-15365224D01*
X11609029Y-15365224D02*
X11589981Y-15365224D01*
X11589981Y-15365224D02*
X11570933Y-15355700D01*
X11570933Y-15355700D02*
X11561409Y-15346176D01*
X11561409Y-15346176D02*
X11551886Y-15327128D01*
X11551886Y-15327128D02*
X11542362Y-15289033D01*
X11542362Y-15289033D02*
X11542362Y-15241414D01*
X11542362Y-15241414D02*
X11551886Y-15203319D01*
X11551886Y-15203319D02*
X11561409Y-15184271D01*
X11561409Y-15184271D02*
X11570933Y-15174748D01*
X11570933Y-15174748D02*
X11589981Y-15165224D01*
X11742362Y-15365224D02*
X11742362Y-15231890D01*
X11742362Y-15250938D02*
X11751886Y-15241414D01*
X11751886Y-15241414D02*
X11770933Y-15231890D01*
X11770933Y-15231890D02*
X11799505Y-15231890D01*
X11799505Y-15231890D02*
X11818552Y-15241414D01*
X11818552Y-15241414D02*
X11828076Y-15260462D01*
X11828076Y-15260462D02*
X11828076Y-15365224D01*
X11828076Y-15260462D02*
X11837600Y-15241414D01*
X11837600Y-15241414D02*
X11856648Y-15231890D01*
X11856648Y-15231890D02*
X11885219Y-15231890D01*
X11885219Y-15231890D02*
X11904267Y-15241414D01*
X11904267Y-15241414D02*
X11913790Y-15260462D01*
X11913790Y-15260462D02*
X11913790Y-15365224D01*
X12009029Y-15365224D02*
X12009029Y-15231890D01*
X12009029Y-15250938D02*
X12018552Y-15241414D01*
X12018552Y-15241414D02*
X12037600Y-15231890D01*
X12037600Y-15231890D02*
X12066171Y-15231890D01*
X12066171Y-15231890D02*
X12085219Y-15241414D01*
X12085219Y-15241414D02*
X12094743Y-15260462D01*
X12094743Y-15260462D02*
X12094743Y-15365224D01*
X12094743Y-15260462D02*
X12104267Y-15241414D01*
X12104267Y-15241414D02*
X12123314Y-15231890D01*
X12123314Y-15231890D02*
X12151886Y-15231890D01*
X12151886Y-15231890D02*
X12170933Y-15241414D01*
X12170933Y-15241414D02*
X12180457Y-15260462D01*
X12180457Y-15260462D02*
X12180457Y-15365224D01*
X12570933Y-15155700D02*
X12399505Y-15412843D01*
X12828076Y-15165224D02*
X12847124Y-15165224D01*
X12847124Y-15165224D02*
X12866172Y-15174748D01*
X12866172Y-15174748D02*
X12875695Y-15184271D01*
X12875695Y-15184271D02*
X12885219Y-15203319D01*
X12885219Y-15203319D02*
X12894743Y-15241414D01*
X12894743Y-15241414D02*
X12894743Y-15289033D01*
X12894743Y-15289033D02*
X12885219Y-15327128D01*
X12885219Y-15327128D02*
X12875695Y-15346176D01*
X12875695Y-15346176D02*
X12866172Y-15355700D01*
X12866172Y-15355700D02*
X12847124Y-15365224D01*
X12847124Y-15365224D02*
X12828076Y-15365224D01*
X12828076Y-15365224D02*
X12809029Y-15355700D01*
X12809029Y-15355700D02*
X12799505Y-15346176D01*
X12799505Y-15346176D02*
X12789981Y-15327128D01*
X12789981Y-15327128D02*
X12780457Y-15289033D01*
X12780457Y-15289033D02*
X12780457Y-15241414D01*
X12780457Y-15241414D02*
X12789981Y-15203319D01*
X12789981Y-15203319D02*
X12799505Y-15184271D01*
X12799505Y-15184271D02*
X12809029Y-15174748D01*
X12809029Y-15174748D02*
X12828076Y-15165224D01*
X12980457Y-15346176D02*
X12989981Y-15355700D01*
X12989981Y-15355700D02*
X12980457Y-15365224D01*
X12980457Y-15365224D02*
X12970933Y-15355700D01*
X12970933Y-15355700D02*
X12980457Y-15346176D01*
X12980457Y-15346176D02*
X12980457Y-15365224D01*
X13113791Y-15165224D02*
X13132838Y-15165224D01*
X13132838Y-15165224D02*
X13151886Y-15174748D01*
X13151886Y-15174748D02*
X13161410Y-15184271D01*
X13161410Y-15184271D02*
X13170933Y-15203319D01*
X13170933Y-15203319D02*
X13180457Y-15241414D01*
X13180457Y-15241414D02*
X13180457Y-15289033D01*
X13180457Y-15289033D02*
X13170933Y-15327128D01*
X13170933Y-15327128D02*
X13161410Y-15346176D01*
X13161410Y-15346176D02*
X13151886Y-15355700D01*
X13151886Y-15355700D02*
X13132838Y-15365224D01*
X13132838Y-15365224D02*
X13113791Y-15365224D01*
X13113791Y-15365224D02*
X13094743Y-15355700D01*
X13094743Y-15355700D02*
X13085219Y-15346176D01*
X13085219Y-15346176D02*
X13075695Y-15327128D01*
X13075695Y-15327128D02*
X13066172Y-15289033D01*
X13066172Y-15289033D02*
X13066172Y-15241414D01*
X13066172Y-15241414D02*
X13075695Y-15203319D01*
X13075695Y-15203319D02*
X13085219Y-15184271D01*
X13085219Y-15184271D02*
X13094743Y-15174748D01*
X13094743Y-15174748D02*
X13113791Y-15165224D01*
X13247124Y-15165224D02*
X13370933Y-15165224D01*
X13370933Y-15165224D02*
X13304267Y-15241414D01*
X13304267Y-15241414D02*
X13332838Y-15241414D01*
X13332838Y-15241414D02*
X13351886Y-15250938D01*
X13351886Y-15250938D02*
X13361410Y-15260462D01*
X13361410Y-15260462D02*
X13370933Y-15279509D01*
X13370933Y-15279509D02*
X13370933Y-15327128D01*
X13370933Y-15327128D02*
X13361410Y-15346176D01*
X13361410Y-15346176D02*
X13351886Y-15355700D01*
X13351886Y-15355700D02*
X13332838Y-15365224D01*
X13332838Y-15365224D02*
X13275695Y-15365224D01*
X13275695Y-15365224D02*
X13256648Y-15355700D01*
X13256648Y-15355700D02*
X13247124Y-15346176D01*
X13466172Y-15365224D02*
X13504267Y-15365224D01*
X13504267Y-15365224D02*
X13523314Y-15355700D01*
X13523314Y-15355700D02*
X13532838Y-15346176D01*
X13532838Y-15346176D02*
X13551886Y-15317605D01*
X13551886Y-15317605D02*
X13561410Y-15279509D01*
X13561410Y-15279509D02*
X13561410Y-15203319D01*
X13561410Y-15203319D02*
X13551886Y-15184271D01*
X13551886Y-15184271D02*
X13542362Y-15174748D01*
X13542362Y-15174748D02*
X13523314Y-15165224D01*
X13523314Y-15165224D02*
X13485219Y-15165224D01*
X13485219Y-15165224D02*
X13466172Y-15174748D01*
X13466172Y-15174748D02*
X13456648Y-15184271D01*
X13456648Y-15184271D02*
X13447124Y-15203319D01*
X13447124Y-15203319D02*
X13447124Y-15250938D01*
X13447124Y-15250938D02*
X13456648Y-15269986D01*
X13456648Y-15269986D02*
X13466172Y-15279509D01*
X13466172Y-15279509D02*
X13485219Y-15289033D01*
X13485219Y-15289033D02*
X13523314Y-15289033D01*
X13523314Y-15289033D02*
X13542362Y-15279509D01*
X13542362Y-15279509D02*
X13551886Y-15269986D01*
X13551886Y-15269986D02*
X13561410Y-15250938D01*
X13732838Y-15231890D02*
X13732838Y-15365224D01*
X13685219Y-15155700D02*
X13637600Y-15298557D01*
X13637600Y-15298557D02*
X13761410Y-15298557D01*
X13828076Y-15165224D02*
X13828076Y-15203319D01*
X13904267Y-15165224D02*
X13904267Y-15203319D01*
X14199505Y-15441414D02*
X14189981Y-15431890D01*
X14189981Y-15431890D02*
X14170934Y-15403319D01*
X14170934Y-15403319D02*
X14161410Y-15384271D01*
X14161410Y-15384271D02*
X14151886Y-15355700D01*
X14151886Y-15355700D02*
X14142362Y-15308081D01*
X14142362Y-15308081D02*
X14142362Y-15269986D01*
X14142362Y-15269986D02*
X14151886Y-15222367D01*
X14151886Y-15222367D02*
X14161410Y-15193795D01*
X14161410Y-15193795D02*
X14170934Y-15174748D01*
X14170934Y-15174748D02*
X14189981Y-15146176D01*
X14189981Y-15146176D02*
X14199505Y-15136652D01*
X14266172Y-15184271D02*
X14275695Y-15174748D01*
X14275695Y-15174748D02*
X14294743Y-15165224D01*
X14294743Y-15165224D02*
X14342362Y-15165224D01*
X14342362Y-15165224D02*
X14361410Y-15174748D01*
X14361410Y-15174748D02*
X14370934Y-15184271D01*
X14370934Y-15184271D02*
X14380457Y-15203319D01*
X14380457Y-15203319D02*
X14380457Y-15222367D01*
X14380457Y-15222367D02*
X14370934Y-15250938D01*
X14370934Y-15250938D02*
X14256648Y-15365224D01*
X14256648Y-15365224D02*
X14380457Y-15365224D01*
X14456648Y-15184271D02*
X14466172Y-15174748D01*
X14466172Y-15174748D02*
X14485219Y-15165224D01*
X14485219Y-15165224D02*
X14532838Y-15165224D01*
X14532838Y-15165224D02*
X14551886Y-15174748D01*
X14551886Y-15174748D02*
X14561410Y-15184271D01*
X14561410Y-15184271D02*
X14570934Y-15203319D01*
X14570934Y-15203319D02*
X14570934Y-15222367D01*
X14570934Y-15222367D02*
X14561410Y-15250938D01*
X14561410Y-15250938D02*
X14447124Y-15365224D01*
X14447124Y-15365224D02*
X14570934Y-15365224D01*
X14809029Y-15365224D02*
X14809029Y-15165224D01*
X14894743Y-15365224D02*
X14894743Y-15260462D01*
X14894743Y-15260462D02*
X14885219Y-15241414D01*
X14885219Y-15241414D02*
X14866172Y-15231890D01*
X14866172Y-15231890D02*
X14837600Y-15231890D01*
X14837600Y-15231890D02*
X14818553Y-15241414D01*
X14818553Y-15241414D02*
X14809029Y-15250938D01*
X15018553Y-15365224D02*
X14999505Y-15355700D01*
X14999505Y-15355700D02*
X14989981Y-15346176D01*
X14989981Y-15346176D02*
X14980457Y-15327128D01*
X14980457Y-15327128D02*
X14980457Y-15269986D01*
X14980457Y-15269986D02*
X14989981Y-15250938D01*
X14989981Y-15250938D02*
X14999505Y-15241414D01*
X14999505Y-15241414D02*
X15018553Y-15231890D01*
X15018553Y-15231890D02*
X15047124Y-15231890D01*
X15047124Y-15231890D02*
X15066172Y-15241414D01*
X15066172Y-15241414D02*
X15075696Y-15250938D01*
X15075696Y-15250938D02*
X15085219Y-15269986D01*
X15085219Y-15269986D02*
X15085219Y-15327128D01*
X15085219Y-15327128D02*
X15075696Y-15346176D01*
X15075696Y-15346176D02*
X15066172Y-15355700D01*
X15066172Y-15355700D02*
X15047124Y-15365224D01*
X15047124Y-15365224D02*
X15018553Y-15365224D01*
X15199505Y-15365224D02*
X15180457Y-15355700D01*
X15180457Y-15355700D02*
X15170934Y-15336652D01*
X15170934Y-15336652D02*
X15170934Y-15165224D01*
X15351886Y-15355700D02*
X15332838Y-15365224D01*
X15332838Y-15365224D02*
X15294743Y-15365224D01*
X15294743Y-15365224D02*
X15275696Y-15355700D01*
X15275696Y-15355700D02*
X15266172Y-15336652D01*
X15266172Y-15336652D02*
X15266172Y-15260462D01*
X15266172Y-15260462D02*
X15275696Y-15241414D01*
X15275696Y-15241414D02*
X15294743Y-15231890D01*
X15294743Y-15231890D02*
X15332838Y-15231890D01*
X15332838Y-15231890D02*
X15351886Y-15241414D01*
X15351886Y-15241414D02*
X15361410Y-15260462D01*
X15361410Y-15260462D02*
X15361410Y-15279509D01*
X15361410Y-15279509D02*
X15266172Y-15298557D01*
X15437600Y-15355700D02*
X15456648Y-15365224D01*
X15456648Y-15365224D02*
X15494743Y-15365224D01*
X15494743Y-15365224D02*
X15513791Y-15355700D01*
X15513791Y-15355700D02*
X15523315Y-15336652D01*
X15523315Y-15336652D02*
X15523315Y-15327128D01*
X15523315Y-15327128D02*
X15513791Y-15308081D01*
X15513791Y-15308081D02*
X15494743Y-15298557D01*
X15494743Y-15298557D02*
X15466172Y-15298557D01*
X15466172Y-15298557D02*
X15447124Y-15289033D01*
X15447124Y-15289033D02*
X15437600Y-15269986D01*
X15437600Y-15269986D02*
X15437600Y-15260462D01*
X15437600Y-15260462D02*
X15447124Y-15241414D01*
X15447124Y-15241414D02*
X15466172Y-15231890D01*
X15466172Y-15231890D02*
X15494743Y-15231890D01*
X15494743Y-15231890D02*
X15513791Y-15241414D01*
X15589981Y-15441414D02*
X15599505Y-15431890D01*
X15599505Y-15431890D02*
X15618553Y-15403319D01*
X15618553Y-15403319D02*
X15628077Y-15384271D01*
X15628077Y-15384271D02*
X15637600Y-15355700D01*
X15637600Y-15355700D02*
X15647124Y-15308081D01*
X15647124Y-15308081D02*
X15647124Y-15269986D01*
X15647124Y-15269986D02*
X15637600Y-15222367D01*
X15637600Y-15222367D02*
X15628077Y-15193795D01*
X15628077Y-15193795D02*
X15618553Y-15174748D01*
X15618553Y-15174748D02*
X15599505Y-15146176D01*
X15599505Y-15146176D02*
X15589981Y-15136652D01*
D13*
X10586600Y-15485700D02*
X10586600Y-15587700D01*
X10535600Y-15536700D02*
X10637600Y-15536700D01*
D11*
X10989981Y-15629224D02*
X10875695Y-15629224D01*
X10932838Y-15629224D02*
X10932838Y-15429224D01*
X10932838Y-15429224D02*
X10913790Y-15457795D01*
X10913790Y-15457795D02*
X10894743Y-15476843D01*
X10894743Y-15476843D02*
X10875695Y-15486367D01*
X11075695Y-15610176D02*
X11085219Y-15619700D01*
X11085219Y-15619700D02*
X11075695Y-15629224D01*
X11075695Y-15629224D02*
X11066171Y-15619700D01*
X11066171Y-15619700D02*
X11075695Y-15610176D01*
X11075695Y-15610176D02*
X11075695Y-15629224D01*
X11209028Y-15429224D02*
X11228076Y-15429224D01*
X11228076Y-15429224D02*
X11247124Y-15438748D01*
X11247124Y-15438748D02*
X11256648Y-15448271D01*
X11256648Y-15448271D02*
X11266171Y-15467319D01*
X11266171Y-15467319D02*
X11275695Y-15505414D01*
X11275695Y-15505414D02*
X11275695Y-15553033D01*
X11275695Y-15553033D02*
X11266171Y-15591128D01*
X11266171Y-15591128D02*
X11256648Y-15610176D01*
X11256648Y-15610176D02*
X11247124Y-15619700D01*
X11247124Y-15619700D02*
X11228076Y-15629224D01*
X11228076Y-15629224D02*
X11209028Y-15629224D01*
X11209028Y-15629224D02*
X11189981Y-15619700D01*
X11189981Y-15619700D02*
X11180457Y-15610176D01*
X11180457Y-15610176D02*
X11170933Y-15591128D01*
X11170933Y-15591128D02*
X11161410Y-15553033D01*
X11161410Y-15553033D02*
X11161410Y-15505414D01*
X11161410Y-15505414D02*
X11170933Y-15467319D01*
X11170933Y-15467319D02*
X11180457Y-15448271D01*
X11180457Y-15448271D02*
X11189981Y-15438748D01*
X11189981Y-15438748D02*
X11209028Y-15429224D01*
X11351886Y-15448271D02*
X11361409Y-15438748D01*
X11361409Y-15438748D02*
X11380457Y-15429224D01*
X11380457Y-15429224D02*
X11428076Y-15429224D01*
X11428076Y-15429224D02*
X11447124Y-15438748D01*
X11447124Y-15438748D02*
X11456648Y-15448271D01*
X11456648Y-15448271D02*
X11466171Y-15467319D01*
X11466171Y-15467319D02*
X11466171Y-15486367D01*
X11466171Y-15486367D02*
X11456648Y-15514938D01*
X11456648Y-15514938D02*
X11342362Y-15629224D01*
X11342362Y-15629224D02*
X11466171Y-15629224D01*
X11589981Y-15429224D02*
X11609029Y-15429224D01*
X11609029Y-15429224D02*
X11628076Y-15438748D01*
X11628076Y-15438748D02*
X11637600Y-15448271D01*
X11637600Y-15448271D02*
X11647124Y-15467319D01*
X11647124Y-15467319D02*
X11656648Y-15505414D01*
X11656648Y-15505414D02*
X11656648Y-15553033D01*
X11656648Y-15553033D02*
X11647124Y-15591128D01*
X11647124Y-15591128D02*
X11637600Y-15610176D01*
X11637600Y-15610176D02*
X11628076Y-15619700D01*
X11628076Y-15619700D02*
X11609029Y-15629224D01*
X11609029Y-15629224D02*
X11589981Y-15629224D01*
X11589981Y-15629224D02*
X11570933Y-15619700D01*
X11570933Y-15619700D02*
X11561409Y-15610176D01*
X11561409Y-15610176D02*
X11551886Y-15591128D01*
X11551886Y-15591128D02*
X11542362Y-15553033D01*
X11542362Y-15553033D02*
X11542362Y-15505414D01*
X11542362Y-15505414D02*
X11551886Y-15467319D01*
X11551886Y-15467319D02*
X11561409Y-15448271D01*
X11561409Y-15448271D02*
X11570933Y-15438748D01*
X11570933Y-15438748D02*
X11589981Y-15429224D01*
X11742362Y-15629224D02*
X11742362Y-15495890D01*
X11742362Y-15514938D02*
X11751886Y-15505414D01*
X11751886Y-15505414D02*
X11770933Y-15495890D01*
X11770933Y-15495890D02*
X11799505Y-15495890D01*
X11799505Y-15495890D02*
X11818552Y-15505414D01*
X11818552Y-15505414D02*
X11828076Y-15524462D01*
X11828076Y-15524462D02*
X11828076Y-15629224D01*
X11828076Y-15524462D02*
X11837600Y-15505414D01*
X11837600Y-15505414D02*
X11856648Y-15495890D01*
X11856648Y-15495890D02*
X11885219Y-15495890D01*
X11885219Y-15495890D02*
X11904267Y-15505414D01*
X11904267Y-15505414D02*
X11913790Y-15524462D01*
X11913790Y-15524462D02*
X11913790Y-15629224D01*
X12009029Y-15629224D02*
X12009029Y-15495890D01*
X12009029Y-15514938D02*
X12018552Y-15505414D01*
X12018552Y-15505414D02*
X12037600Y-15495890D01*
X12037600Y-15495890D02*
X12066171Y-15495890D01*
X12066171Y-15495890D02*
X12085219Y-15505414D01*
X12085219Y-15505414D02*
X12094743Y-15524462D01*
X12094743Y-15524462D02*
X12094743Y-15629224D01*
X12094743Y-15524462D02*
X12104267Y-15505414D01*
X12104267Y-15505414D02*
X12123314Y-15495890D01*
X12123314Y-15495890D02*
X12151886Y-15495890D01*
X12151886Y-15495890D02*
X12170933Y-15505414D01*
X12170933Y-15505414D02*
X12180457Y-15524462D01*
X12180457Y-15524462D02*
X12180457Y-15629224D01*
X12570933Y-15419700D02*
X12399505Y-15676843D01*
X12828076Y-15429224D02*
X12847124Y-15429224D01*
X12847124Y-15429224D02*
X12866172Y-15438748D01*
X12866172Y-15438748D02*
X12875695Y-15448271D01*
X12875695Y-15448271D02*
X12885219Y-15467319D01*
X12885219Y-15467319D02*
X12894743Y-15505414D01*
X12894743Y-15505414D02*
X12894743Y-15553033D01*
X12894743Y-15553033D02*
X12885219Y-15591128D01*
X12885219Y-15591128D02*
X12875695Y-15610176D01*
X12875695Y-15610176D02*
X12866172Y-15619700D01*
X12866172Y-15619700D02*
X12847124Y-15629224D01*
X12847124Y-15629224D02*
X12828076Y-15629224D01*
X12828076Y-15629224D02*
X12809029Y-15619700D01*
X12809029Y-15619700D02*
X12799505Y-15610176D01*
X12799505Y-15610176D02*
X12789981Y-15591128D01*
X12789981Y-15591128D02*
X12780457Y-15553033D01*
X12780457Y-15553033D02*
X12780457Y-15505414D01*
X12780457Y-15505414D02*
X12789981Y-15467319D01*
X12789981Y-15467319D02*
X12799505Y-15448271D01*
X12799505Y-15448271D02*
X12809029Y-15438748D01*
X12809029Y-15438748D02*
X12828076Y-15429224D01*
X12980457Y-15610176D02*
X12989981Y-15619700D01*
X12989981Y-15619700D02*
X12980457Y-15629224D01*
X12980457Y-15629224D02*
X12970933Y-15619700D01*
X12970933Y-15619700D02*
X12980457Y-15610176D01*
X12980457Y-15610176D02*
X12980457Y-15629224D01*
X13113791Y-15429224D02*
X13132838Y-15429224D01*
X13132838Y-15429224D02*
X13151886Y-15438748D01*
X13151886Y-15438748D02*
X13161410Y-15448271D01*
X13161410Y-15448271D02*
X13170933Y-15467319D01*
X13170933Y-15467319D02*
X13180457Y-15505414D01*
X13180457Y-15505414D02*
X13180457Y-15553033D01*
X13180457Y-15553033D02*
X13170933Y-15591128D01*
X13170933Y-15591128D02*
X13161410Y-15610176D01*
X13161410Y-15610176D02*
X13151886Y-15619700D01*
X13151886Y-15619700D02*
X13132838Y-15629224D01*
X13132838Y-15629224D02*
X13113791Y-15629224D01*
X13113791Y-15629224D02*
X13094743Y-15619700D01*
X13094743Y-15619700D02*
X13085219Y-15610176D01*
X13085219Y-15610176D02*
X13075695Y-15591128D01*
X13075695Y-15591128D02*
X13066172Y-15553033D01*
X13066172Y-15553033D02*
X13066172Y-15505414D01*
X13066172Y-15505414D02*
X13075695Y-15467319D01*
X13075695Y-15467319D02*
X13085219Y-15448271D01*
X13085219Y-15448271D02*
X13094743Y-15438748D01*
X13094743Y-15438748D02*
X13113791Y-15429224D01*
X13351886Y-15495890D02*
X13351886Y-15629224D01*
X13304267Y-15419700D02*
X13256648Y-15562557D01*
X13256648Y-15562557D02*
X13380457Y-15562557D01*
X13494743Y-15429224D02*
X13513791Y-15429224D01*
X13513791Y-15429224D02*
X13532838Y-15438748D01*
X13532838Y-15438748D02*
X13542362Y-15448271D01*
X13542362Y-15448271D02*
X13551886Y-15467319D01*
X13551886Y-15467319D02*
X13561410Y-15505414D01*
X13561410Y-15505414D02*
X13561410Y-15553033D01*
X13561410Y-15553033D02*
X13551886Y-15591128D01*
X13551886Y-15591128D02*
X13542362Y-15610176D01*
X13542362Y-15610176D02*
X13532838Y-15619700D01*
X13532838Y-15619700D02*
X13513791Y-15629224D01*
X13513791Y-15629224D02*
X13494743Y-15629224D01*
X13494743Y-15629224D02*
X13475695Y-15619700D01*
X13475695Y-15619700D02*
X13466172Y-15610176D01*
X13466172Y-15610176D02*
X13456648Y-15591128D01*
X13456648Y-15591128D02*
X13447124Y-15553033D01*
X13447124Y-15553033D02*
X13447124Y-15505414D01*
X13447124Y-15505414D02*
X13456648Y-15467319D01*
X13456648Y-15467319D02*
X13466172Y-15448271D01*
X13466172Y-15448271D02*
X13475695Y-15438748D01*
X13475695Y-15438748D02*
X13494743Y-15429224D01*
X13637600Y-15448271D02*
X13647124Y-15438748D01*
X13647124Y-15438748D02*
X13666172Y-15429224D01*
X13666172Y-15429224D02*
X13713791Y-15429224D01*
X13713791Y-15429224D02*
X13732838Y-15438748D01*
X13732838Y-15438748D02*
X13742362Y-15448271D01*
X13742362Y-15448271D02*
X13751886Y-15467319D01*
X13751886Y-15467319D02*
X13751886Y-15486367D01*
X13751886Y-15486367D02*
X13742362Y-15514938D01*
X13742362Y-15514938D02*
X13628076Y-15629224D01*
X13628076Y-15629224D02*
X13751886Y-15629224D01*
X13828076Y-15429224D02*
X13828076Y-15467319D01*
X13904267Y-15429224D02*
X13904267Y-15467319D01*
X14199505Y-15705414D02*
X14189981Y-15695890D01*
X14189981Y-15695890D02*
X14170934Y-15667319D01*
X14170934Y-15667319D02*
X14161410Y-15648271D01*
X14161410Y-15648271D02*
X14151886Y-15619700D01*
X14151886Y-15619700D02*
X14142362Y-15572081D01*
X14142362Y-15572081D02*
X14142362Y-15533986D01*
X14142362Y-15533986D02*
X14151886Y-15486367D01*
X14151886Y-15486367D02*
X14161410Y-15457795D01*
X14161410Y-15457795D02*
X14170934Y-15438748D01*
X14170934Y-15438748D02*
X14189981Y-15410176D01*
X14189981Y-15410176D02*
X14199505Y-15400652D01*
X14361410Y-15495890D02*
X14361410Y-15629224D01*
X14313791Y-15419700D02*
X14266172Y-15562557D01*
X14266172Y-15562557D02*
X14389981Y-15562557D01*
X14447124Y-15429224D02*
X14570934Y-15429224D01*
X14570934Y-15429224D02*
X14504267Y-15505414D01*
X14504267Y-15505414D02*
X14532838Y-15505414D01*
X14532838Y-15505414D02*
X14551886Y-15514938D01*
X14551886Y-15514938D02*
X14561410Y-15524462D01*
X14561410Y-15524462D02*
X14570934Y-15543509D01*
X14570934Y-15543509D02*
X14570934Y-15591128D01*
X14570934Y-15591128D02*
X14561410Y-15610176D01*
X14561410Y-15610176D02*
X14551886Y-15619700D01*
X14551886Y-15619700D02*
X14532838Y-15629224D01*
X14532838Y-15629224D02*
X14475695Y-15629224D01*
X14475695Y-15629224D02*
X14456648Y-15619700D01*
X14456648Y-15619700D02*
X14447124Y-15610176D01*
X14809029Y-15629224D02*
X14809029Y-15429224D01*
X14894743Y-15629224D02*
X14894743Y-15524462D01*
X14894743Y-15524462D02*
X14885219Y-15505414D01*
X14885219Y-15505414D02*
X14866172Y-15495890D01*
X14866172Y-15495890D02*
X14837600Y-15495890D01*
X14837600Y-15495890D02*
X14818553Y-15505414D01*
X14818553Y-15505414D02*
X14809029Y-15514938D01*
X15018553Y-15629224D02*
X14999505Y-15619700D01*
X14999505Y-15619700D02*
X14989981Y-15610176D01*
X14989981Y-15610176D02*
X14980457Y-15591128D01*
X14980457Y-15591128D02*
X14980457Y-15533986D01*
X14980457Y-15533986D02*
X14989981Y-15514938D01*
X14989981Y-15514938D02*
X14999505Y-15505414D01*
X14999505Y-15505414D02*
X15018553Y-15495890D01*
X15018553Y-15495890D02*
X15047124Y-15495890D01*
X15047124Y-15495890D02*
X15066172Y-15505414D01*
X15066172Y-15505414D02*
X15075696Y-15514938D01*
X15075696Y-15514938D02*
X15085219Y-15533986D01*
X15085219Y-15533986D02*
X15085219Y-15591128D01*
X15085219Y-15591128D02*
X15075696Y-15610176D01*
X15075696Y-15610176D02*
X15066172Y-15619700D01*
X15066172Y-15619700D02*
X15047124Y-15629224D01*
X15047124Y-15629224D02*
X15018553Y-15629224D01*
X15199505Y-15629224D02*
X15180457Y-15619700D01*
X15180457Y-15619700D02*
X15170934Y-15600652D01*
X15170934Y-15600652D02*
X15170934Y-15429224D01*
X15351886Y-15619700D02*
X15332838Y-15629224D01*
X15332838Y-15629224D02*
X15294743Y-15629224D01*
X15294743Y-15629224D02*
X15275696Y-15619700D01*
X15275696Y-15619700D02*
X15266172Y-15600652D01*
X15266172Y-15600652D02*
X15266172Y-15524462D01*
X15266172Y-15524462D02*
X15275696Y-15505414D01*
X15275696Y-15505414D02*
X15294743Y-15495890D01*
X15294743Y-15495890D02*
X15332838Y-15495890D01*
X15332838Y-15495890D02*
X15351886Y-15505414D01*
X15351886Y-15505414D02*
X15361410Y-15524462D01*
X15361410Y-15524462D02*
X15361410Y-15543509D01*
X15361410Y-15543509D02*
X15266172Y-15562557D01*
X15437600Y-15619700D02*
X15456648Y-15629224D01*
X15456648Y-15629224D02*
X15494743Y-15629224D01*
X15494743Y-15629224D02*
X15513791Y-15619700D01*
X15513791Y-15619700D02*
X15523315Y-15600652D01*
X15523315Y-15600652D02*
X15523315Y-15591128D01*
X15523315Y-15591128D02*
X15513791Y-15572081D01*
X15513791Y-15572081D02*
X15494743Y-15562557D01*
X15494743Y-15562557D02*
X15466172Y-15562557D01*
X15466172Y-15562557D02*
X15447124Y-15553033D01*
X15447124Y-15553033D02*
X15437600Y-15533986D01*
X15437600Y-15533986D02*
X15437600Y-15524462D01*
X15437600Y-15524462D02*
X15447124Y-15505414D01*
X15447124Y-15505414D02*
X15466172Y-15495890D01*
X15466172Y-15495890D02*
X15494743Y-15495890D01*
X15494743Y-15495890D02*
X15513791Y-15505414D01*
X15589981Y-15705414D02*
X15599505Y-15695890D01*
X15599505Y-15695890D02*
X15618553Y-15667319D01*
X15618553Y-15667319D02*
X15628077Y-15648271D01*
X15628077Y-15648271D02*
X15637600Y-15619700D01*
X15637600Y-15619700D02*
X15647124Y-15572081D01*
X15647124Y-15572081D02*
X15647124Y-15533986D01*
X15647124Y-15533986D02*
X15637600Y-15486367D01*
X15637600Y-15486367D02*
X15628077Y-15457795D01*
X15628077Y-15457795D02*
X15618553Y-15438748D01*
X15618553Y-15438748D02*
X15599505Y-15410176D01*
X15599505Y-15410176D02*
X15589981Y-15400652D01*
D14*
X10621491Y-15839591D02*
X10621491Y-15761809D01*
X10543709Y-15761809D01*
X10543709Y-15839591D01*
X10621491Y-15839591D01*
D11*
X10989981Y-15893224D02*
X10875695Y-15893224D01*
X10932838Y-15893224D02*
X10932838Y-15693224D01*
X10932838Y-15693224D02*
X10913790Y-15721795D01*
X10913790Y-15721795D02*
X10894743Y-15740843D01*
X10894743Y-15740843D02*
X10875695Y-15750367D01*
X11075695Y-15874176D02*
X11085219Y-15883700D01*
X11085219Y-15883700D02*
X11075695Y-15893224D01*
X11075695Y-15893224D02*
X11066171Y-15883700D01*
X11066171Y-15883700D02*
X11075695Y-15874176D01*
X11075695Y-15874176D02*
X11075695Y-15893224D01*
X11275695Y-15893224D02*
X11161410Y-15893224D01*
X11218552Y-15893224D02*
X11218552Y-15693224D01*
X11218552Y-15693224D02*
X11199505Y-15721795D01*
X11199505Y-15721795D02*
X11180457Y-15740843D01*
X11180457Y-15740843D02*
X11161410Y-15750367D01*
X11399505Y-15693224D02*
X11418552Y-15693224D01*
X11418552Y-15693224D02*
X11437600Y-15702748D01*
X11437600Y-15702748D02*
X11447124Y-15712271D01*
X11447124Y-15712271D02*
X11456648Y-15731319D01*
X11456648Y-15731319D02*
X11466171Y-15769414D01*
X11466171Y-15769414D02*
X11466171Y-15817033D01*
X11466171Y-15817033D02*
X11456648Y-15855128D01*
X11456648Y-15855128D02*
X11447124Y-15874176D01*
X11447124Y-15874176D02*
X11437600Y-15883700D01*
X11437600Y-15883700D02*
X11418552Y-15893224D01*
X11418552Y-15893224D02*
X11399505Y-15893224D01*
X11399505Y-15893224D02*
X11380457Y-15883700D01*
X11380457Y-15883700D02*
X11370933Y-15874176D01*
X11370933Y-15874176D02*
X11361409Y-15855128D01*
X11361409Y-15855128D02*
X11351886Y-15817033D01*
X11351886Y-15817033D02*
X11351886Y-15769414D01*
X11351886Y-15769414D02*
X11361409Y-15731319D01*
X11361409Y-15731319D02*
X11370933Y-15712271D01*
X11370933Y-15712271D02*
X11380457Y-15702748D01*
X11380457Y-15702748D02*
X11399505Y-15693224D01*
X11589981Y-15693224D02*
X11609029Y-15693224D01*
X11609029Y-15693224D02*
X11628076Y-15702748D01*
X11628076Y-15702748D02*
X11637600Y-15712271D01*
X11637600Y-15712271D02*
X11647124Y-15731319D01*
X11647124Y-15731319D02*
X11656648Y-15769414D01*
X11656648Y-15769414D02*
X11656648Y-15817033D01*
X11656648Y-15817033D02*
X11647124Y-15855128D01*
X11647124Y-15855128D02*
X11637600Y-15874176D01*
X11637600Y-15874176D02*
X11628076Y-15883700D01*
X11628076Y-15883700D02*
X11609029Y-15893224D01*
X11609029Y-15893224D02*
X11589981Y-15893224D01*
X11589981Y-15893224D02*
X11570933Y-15883700D01*
X11570933Y-15883700D02*
X11561409Y-15874176D01*
X11561409Y-15874176D02*
X11551886Y-15855128D01*
X11551886Y-15855128D02*
X11542362Y-15817033D01*
X11542362Y-15817033D02*
X11542362Y-15769414D01*
X11542362Y-15769414D02*
X11551886Y-15731319D01*
X11551886Y-15731319D02*
X11561409Y-15712271D01*
X11561409Y-15712271D02*
X11570933Y-15702748D01*
X11570933Y-15702748D02*
X11589981Y-15693224D01*
X11742362Y-15893224D02*
X11742362Y-15759890D01*
X11742362Y-15778938D02*
X11751886Y-15769414D01*
X11751886Y-15769414D02*
X11770933Y-15759890D01*
X11770933Y-15759890D02*
X11799505Y-15759890D01*
X11799505Y-15759890D02*
X11818552Y-15769414D01*
X11818552Y-15769414D02*
X11828076Y-15788462D01*
X11828076Y-15788462D02*
X11828076Y-15893224D01*
X11828076Y-15788462D02*
X11837600Y-15769414D01*
X11837600Y-15769414D02*
X11856648Y-15759890D01*
X11856648Y-15759890D02*
X11885219Y-15759890D01*
X11885219Y-15759890D02*
X11904267Y-15769414D01*
X11904267Y-15769414D02*
X11913790Y-15788462D01*
X11913790Y-15788462D02*
X11913790Y-15893224D01*
X12009029Y-15893224D02*
X12009029Y-15759890D01*
X12009029Y-15778938D02*
X12018552Y-15769414D01*
X12018552Y-15769414D02*
X12037600Y-15759890D01*
X12037600Y-15759890D02*
X12066171Y-15759890D01*
X12066171Y-15759890D02*
X12085219Y-15769414D01*
X12085219Y-15769414D02*
X12094743Y-15788462D01*
X12094743Y-15788462D02*
X12094743Y-15893224D01*
X12094743Y-15788462D02*
X12104267Y-15769414D01*
X12104267Y-15769414D02*
X12123314Y-15759890D01*
X12123314Y-15759890D02*
X12151886Y-15759890D01*
X12151886Y-15759890D02*
X12170933Y-15769414D01*
X12170933Y-15769414D02*
X12180457Y-15788462D01*
X12180457Y-15788462D02*
X12180457Y-15893224D01*
X12570933Y-15683700D02*
X12399505Y-15940843D01*
X12828076Y-15693224D02*
X12847124Y-15693224D01*
X12847124Y-15693224D02*
X12866172Y-15702748D01*
X12866172Y-15702748D02*
X12875695Y-15712271D01*
X12875695Y-15712271D02*
X12885219Y-15731319D01*
X12885219Y-15731319D02*
X12894743Y-15769414D01*
X12894743Y-15769414D02*
X12894743Y-15817033D01*
X12894743Y-15817033D02*
X12885219Y-15855128D01*
X12885219Y-15855128D02*
X12875695Y-15874176D01*
X12875695Y-15874176D02*
X12866172Y-15883700D01*
X12866172Y-15883700D02*
X12847124Y-15893224D01*
X12847124Y-15893224D02*
X12828076Y-15893224D01*
X12828076Y-15893224D02*
X12809029Y-15883700D01*
X12809029Y-15883700D02*
X12799505Y-15874176D01*
X12799505Y-15874176D02*
X12789981Y-15855128D01*
X12789981Y-15855128D02*
X12780457Y-15817033D01*
X12780457Y-15817033D02*
X12780457Y-15769414D01*
X12780457Y-15769414D02*
X12789981Y-15731319D01*
X12789981Y-15731319D02*
X12799505Y-15712271D01*
X12799505Y-15712271D02*
X12809029Y-15702748D01*
X12809029Y-15702748D02*
X12828076Y-15693224D01*
X12980457Y-15874176D02*
X12989981Y-15883700D01*
X12989981Y-15883700D02*
X12980457Y-15893224D01*
X12980457Y-15893224D02*
X12970933Y-15883700D01*
X12970933Y-15883700D02*
X12980457Y-15874176D01*
X12980457Y-15874176D02*
X12980457Y-15893224D01*
X13113791Y-15693224D02*
X13132838Y-15693224D01*
X13132838Y-15693224D02*
X13151886Y-15702748D01*
X13151886Y-15702748D02*
X13161410Y-15712271D01*
X13161410Y-15712271D02*
X13170933Y-15731319D01*
X13170933Y-15731319D02*
X13180457Y-15769414D01*
X13180457Y-15769414D02*
X13180457Y-15817033D01*
X13180457Y-15817033D02*
X13170933Y-15855128D01*
X13170933Y-15855128D02*
X13161410Y-15874176D01*
X13161410Y-15874176D02*
X13151886Y-15883700D01*
X13151886Y-15883700D02*
X13132838Y-15893224D01*
X13132838Y-15893224D02*
X13113791Y-15893224D01*
X13113791Y-15893224D02*
X13094743Y-15883700D01*
X13094743Y-15883700D02*
X13085219Y-15874176D01*
X13085219Y-15874176D02*
X13075695Y-15855128D01*
X13075695Y-15855128D02*
X13066172Y-15817033D01*
X13066172Y-15817033D02*
X13066172Y-15769414D01*
X13066172Y-15769414D02*
X13075695Y-15731319D01*
X13075695Y-15731319D02*
X13085219Y-15712271D01*
X13085219Y-15712271D02*
X13094743Y-15702748D01*
X13094743Y-15702748D02*
X13113791Y-15693224D01*
X13351886Y-15759890D02*
X13351886Y-15893224D01*
X13304267Y-15683700D02*
X13256648Y-15826557D01*
X13256648Y-15826557D02*
X13380457Y-15826557D01*
X13437600Y-15693224D02*
X13561410Y-15693224D01*
X13561410Y-15693224D02*
X13494743Y-15769414D01*
X13494743Y-15769414D02*
X13523314Y-15769414D01*
X13523314Y-15769414D02*
X13542362Y-15778938D01*
X13542362Y-15778938D02*
X13551886Y-15788462D01*
X13551886Y-15788462D02*
X13561410Y-15807509D01*
X13561410Y-15807509D02*
X13561410Y-15855128D01*
X13561410Y-15855128D02*
X13551886Y-15874176D01*
X13551886Y-15874176D02*
X13542362Y-15883700D01*
X13542362Y-15883700D02*
X13523314Y-15893224D01*
X13523314Y-15893224D02*
X13466172Y-15893224D01*
X13466172Y-15893224D02*
X13447124Y-15883700D01*
X13447124Y-15883700D02*
X13437600Y-15874176D01*
X13628076Y-15693224D02*
X13751886Y-15693224D01*
X13751886Y-15693224D02*
X13685219Y-15769414D01*
X13685219Y-15769414D02*
X13713791Y-15769414D01*
X13713791Y-15769414D02*
X13732838Y-15778938D01*
X13732838Y-15778938D02*
X13742362Y-15788462D01*
X13742362Y-15788462D02*
X13751886Y-15807509D01*
X13751886Y-15807509D02*
X13751886Y-15855128D01*
X13751886Y-15855128D02*
X13742362Y-15874176D01*
X13742362Y-15874176D02*
X13732838Y-15883700D01*
X13732838Y-15883700D02*
X13713791Y-15893224D01*
X13713791Y-15893224D02*
X13656648Y-15893224D01*
X13656648Y-15893224D02*
X13637600Y-15883700D01*
X13637600Y-15883700D02*
X13628076Y-15874176D01*
X13828076Y-15693224D02*
X13828076Y-15731319D01*
X13904267Y-15693224D02*
X13904267Y-15731319D01*
X14199505Y-15969414D02*
X14189981Y-15959890D01*
X14189981Y-15959890D02*
X14170934Y-15931319D01*
X14170934Y-15931319D02*
X14161410Y-15912271D01*
X14161410Y-15912271D02*
X14151886Y-15883700D01*
X14151886Y-15883700D02*
X14142362Y-15836081D01*
X14142362Y-15836081D02*
X14142362Y-15797986D01*
X14142362Y-15797986D02*
X14151886Y-15750367D01*
X14151886Y-15750367D02*
X14161410Y-15721795D01*
X14161410Y-15721795D02*
X14170934Y-15702748D01*
X14170934Y-15702748D02*
X14189981Y-15674176D01*
X14189981Y-15674176D02*
X14199505Y-15664652D01*
X14266172Y-15712271D02*
X14275695Y-15702748D01*
X14275695Y-15702748D02*
X14294743Y-15693224D01*
X14294743Y-15693224D02*
X14342362Y-15693224D01*
X14342362Y-15693224D02*
X14361410Y-15702748D01*
X14361410Y-15702748D02*
X14370934Y-15712271D01*
X14370934Y-15712271D02*
X14380457Y-15731319D01*
X14380457Y-15731319D02*
X14380457Y-15750367D01*
X14380457Y-15750367D02*
X14370934Y-15778938D01*
X14370934Y-15778938D02*
X14256648Y-15893224D01*
X14256648Y-15893224D02*
X14380457Y-15893224D01*
X14618553Y-15893224D02*
X14618553Y-15693224D01*
X14704267Y-15893224D02*
X14704267Y-15788462D01*
X14704267Y-15788462D02*
X14694743Y-15769414D01*
X14694743Y-15769414D02*
X14675696Y-15759890D01*
X14675696Y-15759890D02*
X14647124Y-15759890D01*
X14647124Y-15759890D02*
X14628076Y-15769414D01*
X14628076Y-15769414D02*
X14618553Y-15778938D01*
X14828076Y-15893224D02*
X14809029Y-15883700D01*
X14809029Y-15883700D02*
X14799505Y-15874176D01*
X14799505Y-15874176D02*
X14789981Y-15855128D01*
X14789981Y-15855128D02*
X14789981Y-15797986D01*
X14789981Y-15797986D02*
X14799505Y-15778938D01*
X14799505Y-15778938D02*
X14809029Y-15769414D01*
X14809029Y-15769414D02*
X14828076Y-15759890D01*
X14828076Y-15759890D02*
X14856648Y-15759890D01*
X14856648Y-15759890D02*
X14875696Y-15769414D01*
X14875696Y-15769414D02*
X14885219Y-15778938D01*
X14885219Y-15778938D02*
X14894743Y-15797986D01*
X14894743Y-15797986D02*
X14894743Y-15855128D01*
X14894743Y-15855128D02*
X14885219Y-15874176D01*
X14885219Y-15874176D02*
X14875696Y-15883700D01*
X14875696Y-15883700D02*
X14856648Y-15893224D01*
X14856648Y-15893224D02*
X14828076Y-15893224D01*
X15009029Y-15893224D02*
X14989981Y-15883700D01*
X14989981Y-15883700D02*
X14980457Y-15864652D01*
X14980457Y-15864652D02*
X14980457Y-15693224D01*
X15161410Y-15883700D02*
X15142362Y-15893224D01*
X15142362Y-15893224D02*
X15104267Y-15893224D01*
X15104267Y-15893224D02*
X15085219Y-15883700D01*
X15085219Y-15883700D02*
X15075696Y-15864652D01*
X15075696Y-15864652D02*
X15075696Y-15788462D01*
X15075696Y-15788462D02*
X15085219Y-15769414D01*
X15085219Y-15769414D02*
X15104267Y-15759890D01*
X15104267Y-15759890D02*
X15142362Y-15759890D01*
X15142362Y-15759890D02*
X15161410Y-15769414D01*
X15161410Y-15769414D02*
X15170934Y-15788462D01*
X15170934Y-15788462D02*
X15170934Y-15807509D01*
X15170934Y-15807509D02*
X15075696Y-15826557D01*
X15247124Y-15883700D02*
X15266172Y-15893224D01*
X15266172Y-15893224D02*
X15304267Y-15893224D01*
X15304267Y-15893224D02*
X15323315Y-15883700D01*
X15323315Y-15883700D02*
X15332838Y-15864652D01*
X15332838Y-15864652D02*
X15332838Y-15855128D01*
X15332838Y-15855128D02*
X15323315Y-15836081D01*
X15323315Y-15836081D02*
X15304267Y-15826557D01*
X15304267Y-15826557D02*
X15275696Y-15826557D01*
X15275696Y-15826557D02*
X15256648Y-15817033D01*
X15256648Y-15817033D02*
X15247124Y-15797986D01*
X15247124Y-15797986D02*
X15247124Y-15788462D01*
X15247124Y-15788462D02*
X15256648Y-15769414D01*
X15256648Y-15769414D02*
X15275696Y-15759890D01*
X15275696Y-15759890D02*
X15304267Y-15759890D01*
X15304267Y-15759890D02*
X15323315Y-15769414D01*
X15399505Y-15969414D02*
X15409029Y-15959890D01*
X15409029Y-15959890D02*
X15428077Y-15931319D01*
X15428077Y-15931319D02*
X15437600Y-15912271D01*
X15437600Y-15912271D02*
X15447124Y-15883700D01*
X15447124Y-15883700D02*
X15456648Y-15836081D01*
X15456648Y-15836081D02*
X15456648Y-15797986D01*
X15456648Y-15797986D02*
X15447124Y-15750367D01*
X15447124Y-15750367D02*
X15437600Y-15721795D01*
X15437600Y-15721795D02*
X15428077Y-15702748D01*
X15428077Y-15702748D02*
X15409029Y-15674176D01*
X15409029Y-15674176D02*
X15399505Y-15664652D01*
D15*
X10578100Y-16124200D02*
X10637600Y-16064700D01*
X10578100Y-16005200D01*
X10518600Y-16064700D01*
X10578100Y-16124200D01*
D11*
X10989981Y-16157224D02*
X10875695Y-16157224D01*
X10932838Y-16157224D02*
X10932838Y-15957224D01*
X10932838Y-15957224D02*
X10913790Y-15985795D01*
X10913790Y-15985795D02*
X10894743Y-16004843D01*
X10894743Y-16004843D02*
X10875695Y-16014367D01*
X11075695Y-16138176D02*
X11085219Y-16147700D01*
X11085219Y-16147700D02*
X11075695Y-16157224D01*
X11075695Y-16157224D02*
X11066171Y-16147700D01*
X11066171Y-16147700D02*
X11075695Y-16138176D01*
X11075695Y-16138176D02*
X11075695Y-16157224D01*
X11275695Y-16157224D02*
X11161410Y-16157224D01*
X11218552Y-16157224D02*
X11218552Y-15957224D01*
X11218552Y-15957224D02*
X11199505Y-15985795D01*
X11199505Y-15985795D02*
X11180457Y-16004843D01*
X11180457Y-16004843D02*
X11161410Y-16014367D01*
X11370933Y-16157224D02*
X11409028Y-16157224D01*
X11409028Y-16157224D02*
X11428076Y-16147700D01*
X11428076Y-16147700D02*
X11437600Y-16138176D01*
X11437600Y-16138176D02*
X11456648Y-16109605D01*
X11456648Y-16109605D02*
X11466171Y-16071509D01*
X11466171Y-16071509D02*
X11466171Y-15995319D01*
X11466171Y-15995319D02*
X11456648Y-15976271D01*
X11456648Y-15976271D02*
X11447124Y-15966748D01*
X11447124Y-15966748D02*
X11428076Y-15957224D01*
X11428076Y-15957224D02*
X11389981Y-15957224D01*
X11389981Y-15957224D02*
X11370933Y-15966748D01*
X11370933Y-15966748D02*
X11361409Y-15976271D01*
X11361409Y-15976271D02*
X11351886Y-15995319D01*
X11351886Y-15995319D02*
X11351886Y-16042938D01*
X11351886Y-16042938D02*
X11361409Y-16061986D01*
X11361409Y-16061986D02*
X11370933Y-16071509D01*
X11370933Y-16071509D02*
X11389981Y-16081033D01*
X11389981Y-16081033D02*
X11428076Y-16081033D01*
X11428076Y-16081033D02*
X11447124Y-16071509D01*
X11447124Y-16071509D02*
X11456648Y-16061986D01*
X11456648Y-16061986D02*
X11466171Y-16042938D01*
X11589981Y-15957224D02*
X11609029Y-15957224D01*
X11609029Y-15957224D02*
X11628076Y-15966748D01*
X11628076Y-15966748D02*
X11637600Y-15976271D01*
X11637600Y-15976271D02*
X11647124Y-15995319D01*
X11647124Y-15995319D02*
X11656648Y-16033414D01*
X11656648Y-16033414D02*
X11656648Y-16081033D01*
X11656648Y-16081033D02*
X11647124Y-16119128D01*
X11647124Y-16119128D02*
X11637600Y-16138176D01*
X11637600Y-16138176D02*
X11628076Y-16147700D01*
X11628076Y-16147700D02*
X11609029Y-16157224D01*
X11609029Y-16157224D02*
X11589981Y-16157224D01*
X11589981Y-16157224D02*
X11570933Y-16147700D01*
X11570933Y-16147700D02*
X11561409Y-16138176D01*
X11561409Y-16138176D02*
X11551886Y-16119128D01*
X11551886Y-16119128D02*
X11542362Y-16081033D01*
X11542362Y-16081033D02*
X11542362Y-16033414D01*
X11542362Y-16033414D02*
X11551886Y-15995319D01*
X11551886Y-15995319D02*
X11561409Y-15976271D01*
X11561409Y-15976271D02*
X11570933Y-15966748D01*
X11570933Y-15966748D02*
X11589981Y-15957224D01*
X11742362Y-16157224D02*
X11742362Y-16023890D01*
X11742362Y-16042938D02*
X11751886Y-16033414D01*
X11751886Y-16033414D02*
X11770933Y-16023890D01*
X11770933Y-16023890D02*
X11799505Y-16023890D01*
X11799505Y-16023890D02*
X11818552Y-16033414D01*
X11818552Y-16033414D02*
X11828076Y-16052462D01*
X11828076Y-16052462D02*
X11828076Y-16157224D01*
X11828076Y-16052462D02*
X11837600Y-16033414D01*
X11837600Y-16033414D02*
X11856648Y-16023890D01*
X11856648Y-16023890D02*
X11885219Y-16023890D01*
X11885219Y-16023890D02*
X11904267Y-16033414D01*
X11904267Y-16033414D02*
X11913790Y-16052462D01*
X11913790Y-16052462D02*
X11913790Y-16157224D01*
X12009029Y-16157224D02*
X12009029Y-16023890D01*
X12009029Y-16042938D02*
X12018552Y-16033414D01*
X12018552Y-16033414D02*
X12037600Y-16023890D01*
X12037600Y-16023890D02*
X12066171Y-16023890D01*
X12066171Y-16023890D02*
X12085219Y-16033414D01*
X12085219Y-16033414D02*
X12094743Y-16052462D01*
X12094743Y-16052462D02*
X12094743Y-16157224D01*
X12094743Y-16052462D02*
X12104267Y-16033414D01*
X12104267Y-16033414D02*
X12123314Y-16023890D01*
X12123314Y-16023890D02*
X12151886Y-16023890D01*
X12151886Y-16023890D02*
X12170933Y-16033414D01*
X12170933Y-16033414D02*
X12180457Y-16052462D01*
X12180457Y-16052462D02*
X12180457Y-16157224D01*
X12570933Y-15947700D02*
X12399505Y-16204843D01*
X12828076Y-15957224D02*
X12847124Y-15957224D01*
X12847124Y-15957224D02*
X12866172Y-15966748D01*
X12866172Y-15966748D02*
X12875695Y-15976271D01*
X12875695Y-15976271D02*
X12885219Y-15995319D01*
X12885219Y-15995319D02*
X12894743Y-16033414D01*
X12894743Y-16033414D02*
X12894743Y-16081033D01*
X12894743Y-16081033D02*
X12885219Y-16119128D01*
X12885219Y-16119128D02*
X12875695Y-16138176D01*
X12875695Y-16138176D02*
X12866172Y-16147700D01*
X12866172Y-16147700D02*
X12847124Y-16157224D01*
X12847124Y-16157224D02*
X12828076Y-16157224D01*
X12828076Y-16157224D02*
X12809029Y-16147700D01*
X12809029Y-16147700D02*
X12799505Y-16138176D01*
X12799505Y-16138176D02*
X12789981Y-16119128D01*
X12789981Y-16119128D02*
X12780457Y-16081033D01*
X12780457Y-16081033D02*
X12780457Y-16033414D01*
X12780457Y-16033414D02*
X12789981Y-15995319D01*
X12789981Y-15995319D02*
X12799505Y-15976271D01*
X12799505Y-15976271D02*
X12809029Y-15966748D01*
X12809029Y-15966748D02*
X12828076Y-15957224D01*
X12980457Y-16138176D02*
X12989981Y-16147700D01*
X12989981Y-16147700D02*
X12980457Y-16157224D01*
X12980457Y-16157224D02*
X12970933Y-16147700D01*
X12970933Y-16147700D02*
X12980457Y-16138176D01*
X12980457Y-16138176D02*
X12980457Y-16157224D01*
X13113791Y-15957224D02*
X13132838Y-15957224D01*
X13132838Y-15957224D02*
X13151886Y-15966748D01*
X13151886Y-15966748D02*
X13161410Y-15976271D01*
X13161410Y-15976271D02*
X13170933Y-15995319D01*
X13170933Y-15995319D02*
X13180457Y-16033414D01*
X13180457Y-16033414D02*
X13180457Y-16081033D01*
X13180457Y-16081033D02*
X13170933Y-16119128D01*
X13170933Y-16119128D02*
X13161410Y-16138176D01*
X13161410Y-16138176D02*
X13151886Y-16147700D01*
X13151886Y-16147700D02*
X13132838Y-16157224D01*
X13132838Y-16157224D02*
X13113791Y-16157224D01*
X13113791Y-16157224D02*
X13094743Y-16147700D01*
X13094743Y-16147700D02*
X13085219Y-16138176D01*
X13085219Y-16138176D02*
X13075695Y-16119128D01*
X13075695Y-16119128D02*
X13066172Y-16081033D01*
X13066172Y-16081033D02*
X13066172Y-16033414D01*
X13066172Y-16033414D02*
X13075695Y-15995319D01*
X13075695Y-15995319D02*
X13085219Y-15976271D01*
X13085219Y-15976271D02*
X13094743Y-15966748D01*
X13094743Y-15966748D02*
X13113791Y-15957224D01*
X13351886Y-16023890D02*
X13351886Y-16157224D01*
X13304267Y-15947700D02*
X13256648Y-16090557D01*
X13256648Y-16090557D02*
X13380457Y-16090557D01*
X13542362Y-15957224D02*
X13504267Y-15957224D01*
X13504267Y-15957224D02*
X13485219Y-15966748D01*
X13485219Y-15966748D02*
X13475695Y-15976271D01*
X13475695Y-15976271D02*
X13456648Y-16004843D01*
X13456648Y-16004843D02*
X13447124Y-16042938D01*
X13447124Y-16042938D02*
X13447124Y-16119128D01*
X13447124Y-16119128D02*
X13456648Y-16138176D01*
X13456648Y-16138176D02*
X13466172Y-16147700D01*
X13466172Y-16147700D02*
X13485219Y-16157224D01*
X13485219Y-16157224D02*
X13523314Y-16157224D01*
X13523314Y-16157224D02*
X13542362Y-16147700D01*
X13542362Y-16147700D02*
X13551886Y-16138176D01*
X13551886Y-16138176D02*
X13561410Y-16119128D01*
X13561410Y-16119128D02*
X13561410Y-16071509D01*
X13561410Y-16071509D02*
X13551886Y-16052462D01*
X13551886Y-16052462D02*
X13542362Y-16042938D01*
X13542362Y-16042938D02*
X13523314Y-16033414D01*
X13523314Y-16033414D02*
X13485219Y-16033414D01*
X13485219Y-16033414D02*
X13466172Y-16042938D01*
X13466172Y-16042938D02*
X13456648Y-16052462D01*
X13456648Y-16052462D02*
X13447124Y-16071509D01*
X13656648Y-16157224D02*
X13694743Y-16157224D01*
X13694743Y-16157224D02*
X13713791Y-16147700D01*
X13713791Y-16147700D02*
X13723314Y-16138176D01*
X13723314Y-16138176D02*
X13742362Y-16109605D01*
X13742362Y-16109605D02*
X13751886Y-16071509D01*
X13751886Y-16071509D02*
X13751886Y-15995319D01*
X13751886Y-15995319D02*
X13742362Y-15976271D01*
X13742362Y-15976271D02*
X13732838Y-15966748D01*
X13732838Y-15966748D02*
X13713791Y-15957224D01*
X13713791Y-15957224D02*
X13675695Y-15957224D01*
X13675695Y-15957224D02*
X13656648Y-15966748D01*
X13656648Y-15966748D02*
X13647124Y-15976271D01*
X13647124Y-15976271D02*
X13637600Y-15995319D01*
X13637600Y-15995319D02*
X13637600Y-16042938D01*
X13637600Y-16042938D02*
X13647124Y-16061986D01*
X13647124Y-16061986D02*
X13656648Y-16071509D01*
X13656648Y-16071509D02*
X13675695Y-16081033D01*
X13675695Y-16081033D02*
X13713791Y-16081033D01*
X13713791Y-16081033D02*
X13732838Y-16071509D01*
X13732838Y-16071509D02*
X13742362Y-16061986D01*
X13742362Y-16061986D02*
X13751886Y-16042938D01*
X13828076Y-15957224D02*
X13828076Y-15995319D01*
X13904267Y-15957224D02*
X13904267Y-15995319D01*
X14199505Y-16233414D02*
X14189981Y-16223890D01*
X14189981Y-16223890D02*
X14170934Y-16195319D01*
X14170934Y-16195319D02*
X14161410Y-16176271D01*
X14161410Y-16176271D02*
X14151886Y-16147700D01*
X14151886Y-16147700D02*
X14142362Y-16100081D01*
X14142362Y-16100081D02*
X14142362Y-16061986D01*
X14142362Y-16061986D02*
X14151886Y-16014367D01*
X14151886Y-16014367D02*
X14161410Y-15985795D01*
X14161410Y-15985795D02*
X14170934Y-15966748D01*
X14170934Y-15966748D02*
X14189981Y-15938176D01*
X14189981Y-15938176D02*
X14199505Y-15928652D01*
X14361410Y-15957224D02*
X14323314Y-15957224D01*
X14323314Y-15957224D02*
X14304267Y-15966748D01*
X14304267Y-15966748D02*
X14294743Y-15976271D01*
X14294743Y-15976271D02*
X14275695Y-16004843D01*
X14275695Y-16004843D02*
X14266172Y-16042938D01*
X14266172Y-16042938D02*
X14266172Y-16119128D01*
X14266172Y-16119128D02*
X14275695Y-16138176D01*
X14275695Y-16138176D02*
X14285219Y-16147700D01*
X14285219Y-16147700D02*
X14304267Y-16157224D01*
X14304267Y-16157224D02*
X14342362Y-16157224D01*
X14342362Y-16157224D02*
X14361410Y-16147700D01*
X14361410Y-16147700D02*
X14370934Y-16138176D01*
X14370934Y-16138176D02*
X14380457Y-16119128D01*
X14380457Y-16119128D02*
X14380457Y-16071509D01*
X14380457Y-16071509D02*
X14370934Y-16052462D01*
X14370934Y-16052462D02*
X14361410Y-16042938D01*
X14361410Y-16042938D02*
X14342362Y-16033414D01*
X14342362Y-16033414D02*
X14304267Y-16033414D01*
X14304267Y-16033414D02*
X14285219Y-16042938D01*
X14285219Y-16042938D02*
X14275695Y-16052462D01*
X14275695Y-16052462D02*
X14266172Y-16071509D01*
X14551886Y-16023890D02*
X14551886Y-16157224D01*
X14504267Y-15947700D02*
X14456648Y-16090557D01*
X14456648Y-16090557D02*
X14580457Y-16090557D01*
X14809029Y-16157224D02*
X14809029Y-15957224D01*
X14894743Y-16157224D02*
X14894743Y-16052462D01*
X14894743Y-16052462D02*
X14885219Y-16033414D01*
X14885219Y-16033414D02*
X14866172Y-16023890D01*
X14866172Y-16023890D02*
X14837600Y-16023890D01*
X14837600Y-16023890D02*
X14818553Y-16033414D01*
X14818553Y-16033414D02*
X14809029Y-16042938D01*
X15018553Y-16157224D02*
X14999505Y-16147700D01*
X14999505Y-16147700D02*
X14989981Y-16138176D01*
X14989981Y-16138176D02*
X14980457Y-16119128D01*
X14980457Y-16119128D02*
X14980457Y-16061986D01*
X14980457Y-16061986D02*
X14989981Y-16042938D01*
X14989981Y-16042938D02*
X14999505Y-16033414D01*
X14999505Y-16033414D02*
X15018553Y-16023890D01*
X15018553Y-16023890D02*
X15047124Y-16023890D01*
X15047124Y-16023890D02*
X15066172Y-16033414D01*
X15066172Y-16033414D02*
X15075696Y-16042938D01*
X15075696Y-16042938D02*
X15085219Y-16061986D01*
X15085219Y-16061986D02*
X15085219Y-16119128D01*
X15085219Y-16119128D02*
X15075696Y-16138176D01*
X15075696Y-16138176D02*
X15066172Y-16147700D01*
X15066172Y-16147700D02*
X15047124Y-16157224D01*
X15047124Y-16157224D02*
X15018553Y-16157224D01*
X15199505Y-16157224D02*
X15180457Y-16147700D01*
X15180457Y-16147700D02*
X15170934Y-16128652D01*
X15170934Y-16128652D02*
X15170934Y-15957224D01*
X15351886Y-16147700D02*
X15332838Y-16157224D01*
X15332838Y-16157224D02*
X15294743Y-16157224D01*
X15294743Y-16157224D02*
X15275696Y-16147700D01*
X15275696Y-16147700D02*
X15266172Y-16128652D01*
X15266172Y-16128652D02*
X15266172Y-16052462D01*
X15266172Y-16052462D02*
X15275696Y-16033414D01*
X15275696Y-16033414D02*
X15294743Y-16023890D01*
X15294743Y-16023890D02*
X15332838Y-16023890D01*
X15332838Y-16023890D02*
X15351886Y-16033414D01*
X15351886Y-16033414D02*
X15361410Y-16052462D01*
X15361410Y-16052462D02*
X15361410Y-16071509D01*
X15361410Y-16071509D02*
X15266172Y-16090557D01*
X15437600Y-16147700D02*
X15456648Y-16157224D01*
X15456648Y-16157224D02*
X15494743Y-16157224D01*
X15494743Y-16157224D02*
X15513791Y-16147700D01*
X15513791Y-16147700D02*
X15523315Y-16128652D01*
X15523315Y-16128652D02*
X15523315Y-16119128D01*
X15523315Y-16119128D02*
X15513791Y-16100081D01*
X15513791Y-16100081D02*
X15494743Y-16090557D01*
X15494743Y-16090557D02*
X15466172Y-16090557D01*
X15466172Y-16090557D02*
X15447124Y-16081033D01*
X15447124Y-16081033D02*
X15437600Y-16061986D01*
X15437600Y-16061986D02*
X15437600Y-16052462D01*
X15437600Y-16052462D02*
X15447124Y-16033414D01*
X15447124Y-16033414D02*
X15466172Y-16023890D01*
X15466172Y-16023890D02*
X15494743Y-16023890D01*
X15494743Y-16023890D02*
X15513791Y-16033414D01*
X15589981Y-16233414D02*
X15599505Y-16223890D01*
X15599505Y-16223890D02*
X15618553Y-16195319D01*
X15618553Y-16195319D02*
X15628077Y-16176271D01*
X15628077Y-16176271D02*
X15637600Y-16147700D01*
X15637600Y-16147700D02*
X15647124Y-16100081D01*
X15647124Y-16100081D02*
X15647124Y-16061986D01*
X15647124Y-16061986D02*
X15637600Y-16014367D01*
X15637600Y-16014367D02*
X15628077Y-15985795D01*
X15628077Y-15985795D02*
X15618553Y-15966748D01*
X15618553Y-15966748D02*
X15599505Y-15938176D01*
X15599505Y-15938176D02*
X15589981Y-15928652D01*
D16*
X10485600Y-16252700D02*
X10637600Y-16404700D01*
X10637600Y-16252700D02*
X10485600Y-16404700D01*
X10637600Y-16328700D02*
G75*
G03*
X10637600Y-16328700I-76000J0D01*
G01*
D11*
X10989981Y-16421224D02*
X10875695Y-16421224D01*
X10932838Y-16421224D02*
X10932838Y-16221224D01*
X10932838Y-16221224D02*
X10913790Y-16249795D01*
X10913790Y-16249795D02*
X10894743Y-16268843D01*
X10894743Y-16268843D02*
X10875695Y-16278367D01*
X11075695Y-16402176D02*
X11085219Y-16411700D01*
X11085219Y-16411700D02*
X11075695Y-16421224D01*
X11075695Y-16421224D02*
X11066171Y-16411700D01*
X11066171Y-16411700D02*
X11075695Y-16402176D01*
X11075695Y-16402176D02*
X11075695Y-16421224D01*
X11266171Y-16221224D02*
X11170933Y-16221224D01*
X11170933Y-16221224D02*
X11161410Y-16316462D01*
X11161410Y-16316462D02*
X11170933Y-16306938D01*
X11170933Y-16306938D02*
X11189981Y-16297414D01*
X11189981Y-16297414D02*
X11237600Y-16297414D01*
X11237600Y-16297414D02*
X11256648Y-16306938D01*
X11256648Y-16306938D02*
X11266171Y-16316462D01*
X11266171Y-16316462D02*
X11275695Y-16335509D01*
X11275695Y-16335509D02*
X11275695Y-16383128D01*
X11275695Y-16383128D02*
X11266171Y-16402176D01*
X11266171Y-16402176D02*
X11256648Y-16411700D01*
X11256648Y-16411700D02*
X11237600Y-16421224D01*
X11237600Y-16421224D02*
X11189981Y-16421224D01*
X11189981Y-16421224D02*
X11170933Y-16411700D01*
X11170933Y-16411700D02*
X11161410Y-16402176D01*
X11351886Y-16240271D02*
X11361409Y-16230748D01*
X11361409Y-16230748D02*
X11380457Y-16221224D01*
X11380457Y-16221224D02*
X11428076Y-16221224D01*
X11428076Y-16221224D02*
X11447124Y-16230748D01*
X11447124Y-16230748D02*
X11456648Y-16240271D01*
X11456648Y-16240271D02*
X11466171Y-16259319D01*
X11466171Y-16259319D02*
X11466171Y-16278367D01*
X11466171Y-16278367D02*
X11456648Y-16306938D01*
X11456648Y-16306938D02*
X11342362Y-16421224D01*
X11342362Y-16421224D02*
X11466171Y-16421224D01*
X11589981Y-16221224D02*
X11609029Y-16221224D01*
X11609029Y-16221224D02*
X11628076Y-16230748D01*
X11628076Y-16230748D02*
X11637600Y-16240271D01*
X11637600Y-16240271D02*
X11647124Y-16259319D01*
X11647124Y-16259319D02*
X11656648Y-16297414D01*
X11656648Y-16297414D02*
X11656648Y-16345033D01*
X11656648Y-16345033D02*
X11647124Y-16383128D01*
X11647124Y-16383128D02*
X11637600Y-16402176D01*
X11637600Y-16402176D02*
X11628076Y-16411700D01*
X11628076Y-16411700D02*
X11609029Y-16421224D01*
X11609029Y-16421224D02*
X11589981Y-16421224D01*
X11589981Y-16421224D02*
X11570933Y-16411700D01*
X11570933Y-16411700D02*
X11561409Y-16402176D01*
X11561409Y-16402176D02*
X11551886Y-16383128D01*
X11551886Y-16383128D02*
X11542362Y-16345033D01*
X11542362Y-16345033D02*
X11542362Y-16297414D01*
X11542362Y-16297414D02*
X11551886Y-16259319D01*
X11551886Y-16259319D02*
X11561409Y-16240271D01*
X11561409Y-16240271D02*
X11570933Y-16230748D01*
X11570933Y-16230748D02*
X11589981Y-16221224D01*
X11742362Y-16421224D02*
X11742362Y-16287890D01*
X11742362Y-16306938D02*
X11751886Y-16297414D01*
X11751886Y-16297414D02*
X11770933Y-16287890D01*
X11770933Y-16287890D02*
X11799505Y-16287890D01*
X11799505Y-16287890D02*
X11818552Y-16297414D01*
X11818552Y-16297414D02*
X11828076Y-16316462D01*
X11828076Y-16316462D02*
X11828076Y-16421224D01*
X11828076Y-16316462D02*
X11837600Y-16297414D01*
X11837600Y-16297414D02*
X11856648Y-16287890D01*
X11856648Y-16287890D02*
X11885219Y-16287890D01*
X11885219Y-16287890D02*
X11904267Y-16297414D01*
X11904267Y-16297414D02*
X11913790Y-16316462D01*
X11913790Y-16316462D02*
X11913790Y-16421224D01*
X12009029Y-16421224D02*
X12009029Y-16287890D01*
X12009029Y-16306938D02*
X12018552Y-16297414D01*
X12018552Y-16297414D02*
X12037600Y-16287890D01*
X12037600Y-16287890D02*
X12066171Y-16287890D01*
X12066171Y-16287890D02*
X12085219Y-16297414D01*
X12085219Y-16297414D02*
X12094743Y-16316462D01*
X12094743Y-16316462D02*
X12094743Y-16421224D01*
X12094743Y-16316462D02*
X12104267Y-16297414D01*
X12104267Y-16297414D02*
X12123314Y-16287890D01*
X12123314Y-16287890D02*
X12151886Y-16287890D01*
X12151886Y-16287890D02*
X12170933Y-16297414D01*
X12170933Y-16297414D02*
X12180457Y-16316462D01*
X12180457Y-16316462D02*
X12180457Y-16421224D01*
X12570933Y-16211700D02*
X12399505Y-16468843D01*
X12828076Y-16221224D02*
X12847124Y-16221224D01*
X12847124Y-16221224D02*
X12866172Y-16230748D01*
X12866172Y-16230748D02*
X12875695Y-16240271D01*
X12875695Y-16240271D02*
X12885219Y-16259319D01*
X12885219Y-16259319D02*
X12894743Y-16297414D01*
X12894743Y-16297414D02*
X12894743Y-16345033D01*
X12894743Y-16345033D02*
X12885219Y-16383128D01*
X12885219Y-16383128D02*
X12875695Y-16402176D01*
X12875695Y-16402176D02*
X12866172Y-16411700D01*
X12866172Y-16411700D02*
X12847124Y-16421224D01*
X12847124Y-16421224D02*
X12828076Y-16421224D01*
X12828076Y-16421224D02*
X12809029Y-16411700D01*
X12809029Y-16411700D02*
X12799505Y-16402176D01*
X12799505Y-16402176D02*
X12789981Y-16383128D01*
X12789981Y-16383128D02*
X12780457Y-16345033D01*
X12780457Y-16345033D02*
X12780457Y-16297414D01*
X12780457Y-16297414D02*
X12789981Y-16259319D01*
X12789981Y-16259319D02*
X12799505Y-16240271D01*
X12799505Y-16240271D02*
X12809029Y-16230748D01*
X12809029Y-16230748D02*
X12828076Y-16221224D01*
X12980457Y-16402176D02*
X12989981Y-16411700D01*
X12989981Y-16411700D02*
X12980457Y-16421224D01*
X12980457Y-16421224D02*
X12970933Y-16411700D01*
X12970933Y-16411700D02*
X12980457Y-16402176D01*
X12980457Y-16402176D02*
X12980457Y-16421224D01*
X13113791Y-16221224D02*
X13132838Y-16221224D01*
X13132838Y-16221224D02*
X13151886Y-16230748D01*
X13151886Y-16230748D02*
X13161410Y-16240271D01*
X13161410Y-16240271D02*
X13170933Y-16259319D01*
X13170933Y-16259319D02*
X13180457Y-16297414D01*
X13180457Y-16297414D02*
X13180457Y-16345033D01*
X13180457Y-16345033D02*
X13170933Y-16383128D01*
X13170933Y-16383128D02*
X13161410Y-16402176D01*
X13161410Y-16402176D02*
X13151886Y-16411700D01*
X13151886Y-16411700D02*
X13132838Y-16421224D01*
X13132838Y-16421224D02*
X13113791Y-16421224D01*
X13113791Y-16421224D02*
X13094743Y-16411700D01*
X13094743Y-16411700D02*
X13085219Y-16402176D01*
X13085219Y-16402176D02*
X13075695Y-16383128D01*
X13075695Y-16383128D02*
X13066172Y-16345033D01*
X13066172Y-16345033D02*
X13066172Y-16297414D01*
X13066172Y-16297414D02*
X13075695Y-16259319D01*
X13075695Y-16259319D02*
X13085219Y-16240271D01*
X13085219Y-16240271D02*
X13094743Y-16230748D01*
X13094743Y-16230748D02*
X13113791Y-16221224D01*
X13361410Y-16221224D02*
X13266172Y-16221224D01*
X13266172Y-16221224D02*
X13256648Y-16316462D01*
X13256648Y-16316462D02*
X13266172Y-16306938D01*
X13266172Y-16306938D02*
X13285219Y-16297414D01*
X13285219Y-16297414D02*
X13332838Y-16297414D01*
X13332838Y-16297414D02*
X13351886Y-16306938D01*
X13351886Y-16306938D02*
X13361410Y-16316462D01*
X13361410Y-16316462D02*
X13370933Y-16335509D01*
X13370933Y-16335509D02*
X13370933Y-16383128D01*
X13370933Y-16383128D02*
X13361410Y-16402176D01*
X13361410Y-16402176D02*
X13351886Y-16411700D01*
X13351886Y-16411700D02*
X13332838Y-16421224D01*
X13332838Y-16421224D02*
X13285219Y-16421224D01*
X13285219Y-16421224D02*
X13266172Y-16411700D01*
X13266172Y-16411700D02*
X13256648Y-16402176D01*
X13466172Y-16421224D02*
X13504267Y-16421224D01*
X13504267Y-16421224D02*
X13523314Y-16411700D01*
X13523314Y-16411700D02*
X13532838Y-16402176D01*
X13532838Y-16402176D02*
X13551886Y-16373605D01*
X13551886Y-16373605D02*
X13561410Y-16335509D01*
X13561410Y-16335509D02*
X13561410Y-16259319D01*
X13561410Y-16259319D02*
X13551886Y-16240271D01*
X13551886Y-16240271D02*
X13542362Y-16230748D01*
X13542362Y-16230748D02*
X13523314Y-16221224D01*
X13523314Y-16221224D02*
X13485219Y-16221224D01*
X13485219Y-16221224D02*
X13466172Y-16230748D01*
X13466172Y-16230748D02*
X13456648Y-16240271D01*
X13456648Y-16240271D02*
X13447124Y-16259319D01*
X13447124Y-16259319D02*
X13447124Y-16306938D01*
X13447124Y-16306938D02*
X13456648Y-16325986D01*
X13456648Y-16325986D02*
X13466172Y-16335509D01*
X13466172Y-16335509D02*
X13485219Y-16345033D01*
X13485219Y-16345033D02*
X13523314Y-16345033D01*
X13523314Y-16345033D02*
X13542362Y-16335509D01*
X13542362Y-16335509D02*
X13551886Y-16325986D01*
X13551886Y-16325986D02*
X13561410Y-16306938D01*
X13675695Y-16306938D02*
X13656648Y-16297414D01*
X13656648Y-16297414D02*
X13647124Y-16287890D01*
X13647124Y-16287890D02*
X13637600Y-16268843D01*
X13637600Y-16268843D02*
X13637600Y-16259319D01*
X13637600Y-16259319D02*
X13647124Y-16240271D01*
X13647124Y-16240271D02*
X13656648Y-16230748D01*
X13656648Y-16230748D02*
X13675695Y-16221224D01*
X13675695Y-16221224D02*
X13713791Y-16221224D01*
X13713791Y-16221224D02*
X13732838Y-16230748D01*
X13732838Y-16230748D02*
X13742362Y-16240271D01*
X13742362Y-16240271D02*
X13751886Y-16259319D01*
X13751886Y-16259319D02*
X13751886Y-16268843D01*
X13751886Y-16268843D02*
X13742362Y-16287890D01*
X13742362Y-16287890D02*
X13732838Y-16297414D01*
X13732838Y-16297414D02*
X13713791Y-16306938D01*
X13713791Y-16306938D02*
X13675695Y-16306938D01*
X13675695Y-16306938D02*
X13656648Y-16316462D01*
X13656648Y-16316462D02*
X13647124Y-16325986D01*
X13647124Y-16325986D02*
X13637600Y-16345033D01*
X13637600Y-16345033D02*
X13637600Y-16383128D01*
X13637600Y-16383128D02*
X13647124Y-16402176D01*
X13647124Y-16402176D02*
X13656648Y-16411700D01*
X13656648Y-16411700D02*
X13675695Y-16421224D01*
X13675695Y-16421224D02*
X13713791Y-16421224D01*
X13713791Y-16421224D02*
X13732838Y-16411700D01*
X13732838Y-16411700D02*
X13742362Y-16402176D01*
X13742362Y-16402176D02*
X13751886Y-16383128D01*
X13751886Y-16383128D02*
X13751886Y-16345033D01*
X13751886Y-16345033D02*
X13742362Y-16325986D01*
X13742362Y-16325986D02*
X13732838Y-16316462D01*
X13732838Y-16316462D02*
X13713791Y-16306938D01*
X13828076Y-16221224D02*
X13828076Y-16259319D01*
X13904267Y-16221224D02*
X13904267Y-16259319D01*
X14199505Y-16497414D02*
X14189981Y-16487890D01*
X14189981Y-16487890D02*
X14170934Y-16459319D01*
X14170934Y-16459319D02*
X14161410Y-16440271D01*
X14161410Y-16440271D02*
X14151886Y-16411700D01*
X14151886Y-16411700D02*
X14142362Y-16364081D01*
X14142362Y-16364081D02*
X14142362Y-16325986D01*
X14142362Y-16325986D02*
X14151886Y-16278367D01*
X14151886Y-16278367D02*
X14161410Y-16249795D01*
X14161410Y-16249795D02*
X14170934Y-16230748D01*
X14170934Y-16230748D02*
X14189981Y-16202176D01*
X14189981Y-16202176D02*
X14199505Y-16192652D01*
X14266172Y-16240271D02*
X14275695Y-16230748D01*
X14275695Y-16230748D02*
X14294743Y-16221224D01*
X14294743Y-16221224D02*
X14342362Y-16221224D01*
X14342362Y-16221224D02*
X14361410Y-16230748D01*
X14361410Y-16230748D02*
X14370934Y-16240271D01*
X14370934Y-16240271D02*
X14380457Y-16259319D01*
X14380457Y-16259319D02*
X14380457Y-16278367D01*
X14380457Y-16278367D02*
X14370934Y-16306938D01*
X14370934Y-16306938D02*
X14256648Y-16421224D01*
X14256648Y-16421224D02*
X14380457Y-16421224D01*
X14618553Y-16421224D02*
X14618553Y-16221224D01*
X14704267Y-16421224D02*
X14704267Y-16316462D01*
X14704267Y-16316462D02*
X14694743Y-16297414D01*
X14694743Y-16297414D02*
X14675696Y-16287890D01*
X14675696Y-16287890D02*
X14647124Y-16287890D01*
X14647124Y-16287890D02*
X14628076Y-16297414D01*
X14628076Y-16297414D02*
X14618553Y-16306938D01*
X14828076Y-16421224D02*
X14809029Y-16411700D01*
X14809029Y-16411700D02*
X14799505Y-16402176D01*
X14799505Y-16402176D02*
X14789981Y-16383128D01*
X14789981Y-16383128D02*
X14789981Y-16325986D01*
X14789981Y-16325986D02*
X14799505Y-16306938D01*
X14799505Y-16306938D02*
X14809029Y-16297414D01*
X14809029Y-16297414D02*
X14828076Y-16287890D01*
X14828076Y-16287890D02*
X14856648Y-16287890D01*
X14856648Y-16287890D02*
X14875696Y-16297414D01*
X14875696Y-16297414D02*
X14885219Y-16306938D01*
X14885219Y-16306938D02*
X14894743Y-16325986D01*
X14894743Y-16325986D02*
X14894743Y-16383128D01*
X14894743Y-16383128D02*
X14885219Y-16402176D01*
X14885219Y-16402176D02*
X14875696Y-16411700D01*
X14875696Y-16411700D02*
X14856648Y-16421224D01*
X14856648Y-16421224D02*
X14828076Y-16421224D01*
X15009029Y-16421224D02*
X14989981Y-16411700D01*
X14989981Y-16411700D02*
X14980457Y-16392652D01*
X14980457Y-16392652D02*
X14980457Y-16221224D01*
X15161410Y-16411700D02*
X15142362Y-16421224D01*
X15142362Y-16421224D02*
X15104267Y-16421224D01*
X15104267Y-16421224D02*
X15085219Y-16411700D01*
X15085219Y-16411700D02*
X15075696Y-16392652D01*
X15075696Y-16392652D02*
X15075696Y-16316462D01*
X15075696Y-16316462D02*
X15085219Y-16297414D01*
X15085219Y-16297414D02*
X15104267Y-16287890D01*
X15104267Y-16287890D02*
X15142362Y-16287890D01*
X15142362Y-16287890D02*
X15161410Y-16297414D01*
X15161410Y-16297414D02*
X15170934Y-16316462D01*
X15170934Y-16316462D02*
X15170934Y-16335509D01*
X15170934Y-16335509D02*
X15075696Y-16354557D01*
X15247124Y-16411700D02*
X15266172Y-16421224D01*
X15266172Y-16421224D02*
X15304267Y-16421224D01*
X15304267Y-16421224D02*
X15323315Y-16411700D01*
X15323315Y-16411700D02*
X15332838Y-16392652D01*
X15332838Y-16392652D02*
X15332838Y-16383128D01*
X15332838Y-16383128D02*
X15323315Y-16364081D01*
X15323315Y-16364081D02*
X15304267Y-16354557D01*
X15304267Y-16354557D02*
X15275696Y-16354557D01*
X15275696Y-16354557D02*
X15256648Y-16345033D01*
X15256648Y-16345033D02*
X15247124Y-16325986D01*
X15247124Y-16325986D02*
X15247124Y-16316462D01*
X15247124Y-16316462D02*
X15256648Y-16297414D01*
X15256648Y-16297414D02*
X15275696Y-16287890D01*
X15275696Y-16287890D02*
X15304267Y-16287890D01*
X15304267Y-16287890D02*
X15323315Y-16297414D01*
X15399505Y-16497414D02*
X15409029Y-16487890D01*
X15409029Y-16487890D02*
X15428077Y-16459319D01*
X15428077Y-16459319D02*
X15437600Y-16440271D01*
X15437600Y-16440271D02*
X15447124Y-16411700D01*
X15447124Y-16411700D02*
X15456648Y-16364081D01*
X15456648Y-16364081D02*
X15456648Y-16325986D01*
X15456648Y-16325986D02*
X15447124Y-16278367D01*
X15447124Y-16278367D02*
X15437600Y-16249795D01*
X15437600Y-16249795D02*
X15428077Y-16230748D01*
X15428077Y-16230748D02*
X15409029Y-16202176D01*
X15409029Y-16202176D02*
X15399505Y-16192652D01*
M02*
