%TF.GenerationSoftware,KiCad,Pcbnew,7.0.1*%
%TF.CreationDate,2023-08-26T14:00:44-05:00*%
%TF.ProjectId,Shift Register Mosfet Array V2,53686966-7420-4526-9567-697374657220,rev?*%
%TF.SameCoordinates,Original*%
%TF.FileFunction,Drillmap*%
%TF.FilePolarity,Positive*%
%FSLAX45Y45*%
G04 Gerber Fmt 4.5, Leading zero omitted, Abs format (unit mm)*
G04 Created by KiCad (PCBNEW 7.0.1) date 2023-08-26 14:00:44*
%MOMM*%
%LPD*%
G01*
G04 APERTURE LIST*
%ADD10C,0.100000*%
%ADD11C,0.200000*%
%ADD12C,0.320000*%
G04 APERTURE END LIST*
D10*
X15400000Y-12300000D02*
G75*
G03*
X16000000Y-11700000I0J600000D01*
G01*
X6850000Y-8400000D02*
G75*
G03*
X6250000Y-9000000I0J-600000D01*
G01*
X6250000Y-9000000D02*
X6250000Y-11700000D01*
X15400000Y-8400000D02*
X6850000Y-8400000D01*
X6850000Y-12300000D02*
X15400000Y-12300000D01*
X6250000Y-11700000D02*
G75*
G03*
X6850000Y-12300000I600000J0D01*
G01*
X16000000Y-9000000D02*
G75*
G03*
X15400000Y-8400000I-600000J0D01*
G01*
X16000000Y-11700000D02*
X16000000Y-9000000D01*
D11*
D12*
X6690000Y-11540000D02*
X7010000Y-11860000D01*
X7010000Y-11540000D02*
X6690000Y-11860000D01*
X7240000Y-8890000D02*
X7560000Y-9210000D01*
X7560000Y-8890000D02*
X7240000Y-9210000D01*
X14690000Y-8890000D02*
X15010000Y-9210000D01*
X15010000Y-8890000D02*
X14690000Y-9210000D01*
X15240000Y-11540000D02*
X15560000Y-11860000D01*
X15560000Y-11540000D02*
X15240000Y-11860000D01*
D11*
X6492619Y-12617524D02*
X6492619Y-12417524D01*
X6492619Y-12417524D02*
X6540238Y-12417524D01*
X6540238Y-12417524D02*
X6568809Y-12427048D01*
X6568809Y-12427048D02*
X6587857Y-12446095D01*
X6587857Y-12446095D02*
X6597381Y-12465143D01*
X6597381Y-12465143D02*
X6606905Y-12503238D01*
X6606905Y-12503238D02*
X6606905Y-12531809D01*
X6606905Y-12531809D02*
X6597381Y-12569905D01*
X6597381Y-12569905D02*
X6587857Y-12588952D01*
X6587857Y-12588952D02*
X6568809Y-12608000D01*
X6568809Y-12608000D02*
X6540238Y-12617524D01*
X6540238Y-12617524D02*
X6492619Y-12617524D01*
X6692619Y-12617524D02*
X6692619Y-12484190D01*
X6692619Y-12522286D02*
X6702143Y-12503238D01*
X6702143Y-12503238D02*
X6711667Y-12493714D01*
X6711667Y-12493714D02*
X6730714Y-12484190D01*
X6730714Y-12484190D02*
X6749762Y-12484190D01*
X6816428Y-12617524D02*
X6816428Y-12484190D01*
X6816428Y-12417524D02*
X6806905Y-12427048D01*
X6806905Y-12427048D02*
X6816428Y-12436571D01*
X6816428Y-12436571D02*
X6825952Y-12427048D01*
X6825952Y-12427048D02*
X6816428Y-12417524D01*
X6816428Y-12417524D02*
X6816428Y-12436571D01*
X6940238Y-12617524D02*
X6921190Y-12608000D01*
X6921190Y-12608000D02*
X6911667Y-12588952D01*
X6911667Y-12588952D02*
X6911667Y-12417524D01*
X7045000Y-12617524D02*
X7025952Y-12608000D01*
X7025952Y-12608000D02*
X7016428Y-12588952D01*
X7016428Y-12588952D02*
X7016428Y-12417524D01*
X7273571Y-12617524D02*
X7273571Y-12417524D01*
X7273571Y-12417524D02*
X7340238Y-12560381D01*
X7340238Y-12560381D02*
X7406905Y-12417524D01*
X7406905Y-12417524D02*
X7406905Y-12617524D01*
X7587857Y-12617524D02*
X7587857Y-12512762D01*
X7587857Y-12512762D02*
X7578333Y-12493714D01*
X7578333Y-12493714D02*
X7559286Y-12484190D01*
X7559286Y-12484190D02*
X7521190Y-12484190D01*
X7521190Y-12484190D02*
X7502143Y-12493714D01*
X7587857Y-12608000D02*
X7568809Y-12617524D01*
X7568809Y-12617524D02*
X7521190Y-12617524D01*
X7521190Y-12617524D02*
X7502143Y-12608000D01*
X7502143Y-12608000D02*
X7492619Y-12588952D01*
X7492619Y-12588952D02*
X7492619Y-12569905D01*
X7492619Y-12569905D02*
X7502143Y-12550857D01*
X7502143Y-12550857D02*
X7521190Y-12541333D01*
X7521190Y-12541333D02*
X7568809Y-12541333D01*
X7568809Y-12541333D02*
X7587857Y-12531809D01*
X7683095Y-12484190D02*
X7683095Y-12684190D01*
X7683095Y-12493714D02*
X7702143Y-12484190D01*
X7702143Y-12484190D02*
X7740238Y-12484190D01*
X7740238Y-12484190D02*
X7759286Y-12493714D01*
X7759286Y-12493714D02*
X7768809Y-12503238D01*
X7768809Y-12503238D02*
X7778333Y-12522286D01*
X7778333Y-12522286D02*
X7778333Y-12579428D01*
X7778333Y-12579428D02*
X7768809Y-12598476D01*
X7768809Y-12598476D02*
X7759286Y-12608000D01*
X7759286Y-12608000D02*
X7740238Y-12617524D01*
X7740238Y-12617524D02*
X7702143Y-12617524D01*
X7702143Y-12617524D02*
X7683095Y-12608000D01*
X7864048Y-12598476D02*
X7873571Y-12608000D01*
X7873571Y-12608000D02*
X7864048Y-12617524D01*
X7864048Y-12617524D02*
X7854524Y-12608000D01*
X7854524Y-12608000D02*
X7864048Y-12598476D01*
X7864048Y-12598476D02*
X7864048Y-12617524D01*
X7864048Y-12493714D02*
X7873571Y-12503238D01*
X7873571Y-12503238D02*
X7864048Y-12512762D01*
X7864048Y-12512762D02*
X7854524Y-12503238D01*
X7854524Y-12503238D02*
X7864048Y-12493714D01*
X7864048Y-12493714D02*
X7864048Y-12512762D01*
X6045000Y-12845000D02*
X6245000Y-13045000D01*
X6245000Y-12845000D02*
X6045000Y-13045000D01*
X6473571Y-12837524D02*
X6597381Y-12837524D01*
X6597381Y-12837524D02*
X6530714Y-12913714D01*
X6530714Y-12913714D02*
X6559286Y-12913714D01*
X6559286Y-12913714D02*
X6578333Y-12923238D01*
X6578333Y-12923238D02*
X6587857Y-12932762D01*
X6587857Y-12932762D02*
X6597381Y-12951809D01*
X6597381Y-12951809D02*
X6597381Y-12999428D01*
X6597381Y-12999428D02*
X6587857Y-13018476D01*
X6587857Y-13018476D02*
X6578333Y-13028000D01*
X6578333Y-13028000D02*
X6559286Y-13037524D01*
X6559286Y-13037524D02*
X6502143Y-13037524D01*
X6502143Y-13037524D02*
X6483095Y-13028000D01*
X6483095Y-13028000D02*
X6473571Y-13018476D01*
X6683095Y-13018476D02*
X6692619Y-13028000D01*
X6692619Y-13028000D02*
X6683095Y-13037524D01*
X6683095Y-13037524D02*
X6673571Y-13028000D01*
X6673571Y-13028000D02*
X6683095Y-13018476D01*
X6683095Y-13018476D02*
X6683095Y-13037524D01*
X6768809Y-12856571D02*
X6778333Y-12847048D01*
X6778333Y-12847048D02*
X6797381Y-12837524D01*
X6797381Y-12837524D02*
X6845000Y-12837524D01*
X6845000Y-12837524D02*
X6864048Y-12847048D01*
X6864048Y-12847048D02*
X6873571Y-12856571D01*
X6873571Y-12856571D02*
X6883095Y-12875619D01*
X6883095Y-12875619D02*
X6883095Y-12894667D01*
X6883095Y-12894667D02*
X6873571Y-12923238D01*
X6873571Y-12923238D02*
X6759286Y-13037524D01*
X6759286Y-13037524D02*
X6883095Y-13037524D01*
X7006905Y-12837524D02*
X7025952Y-12837524D01*
X7025952Y-12837524D02*
X7045000Y-12847048D01*
X7045000Y-12847048D02*
X7054524Y-12856571D01*
X7054524Y-12856571D02*
X7064048Y-12875619D01*
X7064048Y-12875619D02*
X7073571Y-12913714D01*
X7073571Y-12913714D02*
X7073571Y-12961333D01*
X7073571Y-12961333D02*
X7064048Y-12999428D01*
X7064048Y-12999428D02*
X7054524Y-13018476D01*
X7054524Y-13018476D02*
X7045000Y-13028000D01*
X7045000Y-13028000D02*
X7025952Y-13037524D01*
X7025952Y-13037524D02*
X7006905Y-13037524D01*
X7006905Y-13037524D02*
X6987857Y-13028000D01*
X6987857Y-13028000D02*
X6978333Y-13018476D01*
X6978333Y-13018476D02*
X6968809Y-12999428D01*
X6968809Y-12999428D02*
X6959286Y-12961333D01*
X6959286Y-12961333D02*
X6959286Y-12913714D01*
X6959286Y-12913714D02*
X6968809Y-12875619D01*
X6968809Y-12875619D02*
X6978333Y-12856571D01*
X6978333Y-12856571D02*
X6987857Y-12847048D01*
X6987857Y-12847048D02*
X7006905Y-12837524D01*
X7197381Y-12837524D02*
X7216429Y-12837524D01*
X7216429Y-12837524D02*
X7235476Y-12847048D01*
X7235476Y-12847048D02*
X7245000Y-12856571D01*
X7245000Y-12856571D02*
X7254524Y-12875619D01*
X7254524Y-12875619D02*
X7264048Y-12913714D01*
X7264048Y-12913714D02*
X7264048Y-12961333D01*
X7264048Y-12961333D02*
X7254524Y-12999428D01*
X7254524Y-12999428D02*
X7245000Y-13018476D01*
X7245000Y-13018476D02*
X7235476Y-13028000D01*
X7235476Y-13028000D02*
X7216429Y-13037524D01*
X7216429Y-13037524D02*
X7197381Y-13037524D01*
X7197381Y-13037524D02*
X7178333Y-13028000D01*
X7178333Y-13028000D02*
X7168809Y-13018476D01*
X7168809Y-13018476D02*
X7159286Y-12999428D01*
X7159286Y-12999428D02*
X7149762Y-12961333D01*
X7149762Y-12961333D02*
X7149762Y-12913714D01*
X7149762Y-12913714D02*
X7159286Y-12875619D01*
X7159286Y-12875619D02*
X7168809Y-12856571D01*
X7168809Y-12856571D02*
X7178333Y-12847048D01*
X7178333Y-12847048D02*
X7197381Y-12837524D01*
X7349762Y-13037524D02*
X7349762Y-12904190D01*
X7349762Y-12923238D02*
X7359286Y-12913714D01*
X7359286Y-12913714D02*
X7378333Y-12904190D01*
X7378333Y-12904190D02*
X7406905Y-12904190D01*
X7406905Y-12904190D02*
X7425952Y-12913714D01*
X7425952Y-12913714D02*
X7435476Y-12932762D01*
X7435476Y-12932762D02*
X7435476Y-13037524D01*
X7435476Y-12932762D02*
X7445000Y-12913714D01*
X7445000Y-12913714D02*
X7464048Y-12904190D01*
X7464048Y-12904190D02*
X7492619Y-12904190D01*
X7492619Y-12904190D02*
X7511667Y-12913714D01*
X7511667Y-12913714D02*
X7521190Y-12932762D01*
X7521190Y-12932762D02*
X7521190Y-13037524D01*
X7616429Y-13037524D02*
X7616429Y-12904190D01*
X7616429Y-12923238D02*
X7625952Y-12913714D01*
X7625952Y-12913714D02*
X7645000Y-12904190D01*
X7645000Y-12904190D02*
X7673571Y-12904190D01*
X7673571Y-12904190D02*
X7692619Y-12913714D01*
X7692619Y-12913714D02*
X7702143Y-12932762D01*
X7702143Y-12932762D02*
X7702143Y-13037524D01*
X7702143Y-12932762D02*
X7711667Y-12913714D01*
X7711667Y-12913714D02*
X7730714Y-12904190D01*
X7730714Y-12904190D02*
X7759286Y-12904190D01*
X7759286Y-12904190D02*
X7778333Y-12913714D01*
X7778333Y-12913714D02*
X7787857Y-12932762D01*
X7787857Y-12932762D02*
X7787857Y-13037524D01*
X8178333Y-12828000D02*
X8006905Y-13085143D01*
X8435476Y-12837524D02*
X8454524Y-12837524D01*
X8454524Y-12837524D02*
X8473572Y-12847048D01*
X8473572Y-12847048D02*
X8483095Y-12856571D01*
X8483095Y-12856571D02*
X8492619Y-12875619D01*
X8492619Y-12875619D02*
X8502143Y-12913714D01*
X8502143Y-12913714D02*
X8502143Y-12961333D01*
X8502143Y-12961333D02*
X8492619Y-12999428D01*
X8492619Y-12999428D02*
X8483095Y-13018476D01*
X8483095Y-13018476D02*
X8473572Y-13028000D01*
X8473572Y-13028000D02*
X8454524Y-13037524D01*
X8454524Y-13037524D02*
X8435476Y-13037524D01*
X8435476Y-13037524D02*
X8416429Y-13028000D01*
X8416429Y-13028000D02*
X8406905Y-13018476D01*
X8406905Y-13018476D02*
X8397381Y-12999428D01*
X8397381Y-12999428D02*
X8387857Y-12961333D01*
X8387857Y-12961333D02*
X8387857Y-12913714D01*
X8387857Y-12913714D02*
X8397381Y-12875619D01*
X8397381Y-12875619D02*
X8406905Y-12856571D01*
X8406905Y-12856571D02*
X8416429Y-12847048D01*
X8416429Y-12847048D02*
X8435476Y-12837524D01*
X8587857Y-13018476D02*
X8597381Y-13028000D01*
X8597381Y-13028000D02*
X8587857Y-13037524D01*
X8587857Y-13037524D02*
X8578334Y-13028000D01*
X8578334Y-13028000D02*
X8587857Y-13018476D01*
X8587857Y-13018476D02*
X8587857Y-13037524D01*
X8787857Y-13037524D02*
X8673572Y-13037524D01*
X8730714Y-13037524D02*
X8730714Y-12837524D01*
X8730714Y-12837524D02*
X8711667Y-12866095D01*
X8711667Y-12866095D02*
X8692619Y-12885143D01*
X8692619Y-12885143D02*
X8673572Y-12894667D01*
X8864048Y-12856571D02*
X8873572Y-12847048D01*
X8873572Y-12847048D02*
X8892619Y-12837524D01*
X8892619Y-12837524D02*
X8940238Y-12837524D01*
X8940238Y-12837524D02*
X8959286Y-12847048D01*
X8959286Y-12847048D02*
X8968810Y-12856571D01*
X8968810Y-12856571D02*
X8978334Y-12875619D01*
X8978334Y-12875619D02*
X8978334Y-12894667D01*
X8978334Y-12894667D02*
X8968810Y-12923238D01*
X8968810Y-12923238D02*
X8854524Y-13037524D01*
X8854524Y-13037524D02*
X8978334Y-13037524D01*
X9149762Y-12837524D02*
X9111667Y-12837524D01*
X9111667Y-12837524D02*
X9092619Y-12847048D01*
X9092619Y-12847048D02*
X9083095Y-12856571D01*
X9083095Y-12856571D02*
X9064048Y-12885143D01*
X9064048Y-12885143D02*
X9054524Y-12923238D01*
X9054524Y-12923238D02*
X9054524Y-12999428D01*
X9054524Y-12999428D02*
X9064048Y-13018476D01*
X9064048Y-13018476D02*
X9073572Y-13028000D01*
X9073572Y-13028000D02*
X9092619Y-13037524D01*
X9092619Y-13037524D02*
X9130715Y-13037524D01*
X9130715Y-13037524D02*
X9149762Y-13028000D01*
X9149762Y-13028000D02*
X9159286Y-13018476D01*
X9159286Y-13018476D02*
X9168810Y-12999428D01*
X9168810Y-12999428D02*
X9168810Y-12951809D01*
X9168810Y-12951809D02*
X9159286Y-12932762D01*
X9159286Y-12932762D02*
X9149762Y-12923238D01*
X9149762Y-12923238D02*
X9130715Y-12913714D01*
X9130715Y-12913714D02*
X9092619Y-12913714D01*
X9092619Y-12913714D02*
X9073572Y-12923238D01*
X9073572Y-12923238D02*
X9064048Y-12932762D01*
X9064048Y-12932762D02*
X9054524Y-12951809D01*
X9292619Y-12837524D02*
X9311667Y-12837524D01*
X9311667Y-12837524D02*
X9330715Y-12847048D01*
X9330715Y-12847048D02*
X9340238Y-12856571D01*
X9340238Y-12856571D02*
X9349762Y-12875619D01*
X9349762Y-12875619D02*
X9359286Y-12913714D01*
X9359286Y-12913714D02*
X9359286Y-12961333D01*
X9359286Y-12961333D02*
X9349762Y-12999428D01*
X9349762Y-12999428D02*
X9340238Y-13018476D01*
X9340238Y-13018476D02*
X9330715Y-13028000D01*
X9330715Y-13028000D02*
X9311667Y-13037524D01*
X9311667Y-13037524D02*
X9292619Y-13037524D01*
X9292619Y-13037524D02*
X9273572Y-13028000D01*
X9273572Y-13028000D02*
X9264048Y-13018476D01*
X9264048Y-13018476D02*
X9254524Y-12999428D01*
X9254524Y-12999428D02*
X9245000Y-12961333D01*
X9245000Y-12961333D02*
X9245000Y-12913714D01*
X9245000Y-12913714D02*
X9254524Y-12875619D01*
X9254524Y-12875619D02*
X9264048Y-12856571D01*
X9264048Y-12856571D02*
X9273572Y-12847048D01*
X9273572Y-12847048D02*
X9292619Y-12837524D01*
X9435476Y-12837524D02*
X9435476Y-12875619D01*
X9511667Y-12837524D02*
X9511667Y-12875619D01*
X9806905Y-13113714D02*
X9797381Y-13104190D01*
X9797381Y-13104190D02*
X9778334Y-13075619D01*
X9778334Y-13075619D02*
X9768810Y-13056571D01*
X9768810Y-13056571D02*
X9759286Y-13028000D01*
X9759286Y-13028000D02*
X9749762Y-12980381D01*
X9749762Y-12980381D02*
X9749762Y-12942286D01*
X9749762Y-12942286D02*
X9759286Y-12894667D01*
X9759286Y-12894667D02*
X9768810Y-12866095D01*
X9768810Y-12866095D02*
X9778334Y-12847048D01*
X9778334Y-12847048D02*
X9797381Y-12818476D01*
X9797381Y-12818476D02*
X9806905Y-12808952D01*
X9968810Y-12904190D02*
X9968810Y-13037524D01*
X9921191Y-12828000D02*
X9873572Y-12970857D01*
X9873572Y-12970857D02*
X9997381Y-12970857D01*
X10225953Y-13037524D02*
X10225953Y-12837524D01*
X10311667Y-13037524D02*
X10311667Y-12932762D01*
X10311667Y-12932762D02*
X10302143Y-12913714D01*
X10302143Y-12913714D02*
X10283096Y-12904190D01*
X10283096Y-12904190D02*
X10254524Y-12904190D01*
X10254524Y-12904190D02*
X10235477Y-12913714D01*
X10235477Y-12913714D02*
X10225953Y-12923238D01*
X10435477Y-13037524D02*
X10416429Y-13028000D01*
X10416429Y-13028000D02*
X10406905Y-13018476D01*
X10406905Y-13018476D02*
X10397381Y-12999428D01*
X10397381Y-12999428D02*
X10397381Y-12942286D01*
X10397381Y-12942286D02*
X10406905Y-12923238D01*
X10406905Y-12923238D02*
X10416429Y-12913714D01*
X10416429Y-12913714D02*
X10435477Y-12904190D01*
X10435477Y-12904190D02*
X10464048Y-12904190D01*
X10464048Y-12904190D02*
X10483096Y-12913714D01*
X10483096Y-12913714D02*
X10492619Y-12923238D01*
X10492619Y-12923238D02*
X10502143Y-12942286D01*
X10502143Y-12942286D02*
X10502143Y-12999428D01*
X10502143Y-12999428D02*
X10492619Y-13018476D01*
X10492619Y-13018476D02*
X10483096Y-13028000D01*
X10483096Y-13028000D02*
X10464048Y-13037524D01*
X10464048Y-13037524D02*
X10435477Y-13037524D01*
X10616429Y-13037524D02*
X10597381Y-13028000D01*
X10597381Y-13028000D02*
X10587858Y-13008952D01*
X10587858Y-13008952D02*
X10587858Y-12837524D01*
X10768810Y-13028000D02*
X10749762Y-13037524D01*
X10749762Y-13037524D02*
X10711667Y-13037524D01*
X10711667Y-13037524D02*
X10692619Y-13028000D01*
X10692619Y-13028000D02*
X10683096Y-13008952D01*
X10683096Y-13008952D02*
X10683096Y-12932762D01*
X10683096Y-12932762D02*
X10692619Y-12913714D01*
X10692619Y-12913714D02*
X10711667Y-12904190D01*
X10711667Y-12904190D02*
X10749762Y-12904190D01*
X10749762Y-12904190D02*
X10768810Y-12913714D01*
X10768810Y-12913714D02*
X10778334Y-12932762D01*
X10778334Y-12932762D02*
X10778334Y-12951809D01*
X10778334Y-12951809D02*
X10683096Y-12970857D01*
X10854524Y-13028000D02*
X10873572Y-13037524D01*
X10873572Y-13037524D02*
X10911667Y-13037524D01*
X10911667Y-13037524D02*
X10930715Y-13028000D01*
X10930715Y-13028000D02*
X10940239Y-13008952D01*
X10940239Y-13008952D02*
X10940239Y-12999428D01*
X10940239Y-12999428D02*
X10930715Y-12980381D01*
X10930715Y-12980381D02*
X10911667Y-12970857D01*
X10911667Y-12970857D02*
X10883096Y-12970857D01*
X10883096Y-12970857D02*
X10864048Y-12961333D01*
X10864048Y-12961333D02*
X10854524Y-12942286D01*
X10854524Y-12942286D02*
X10854524Y-12932762D01*
X10854524Y-12932762D02*
X10864048Y-12913714D01*
X10864048Y-12913714D02*
X10883096Y-12904190D01*
X10883096Y-12904190D02*
X10911667Y-12904190D01*
X10911667Y-12904190D02*
X10930715Y-12913714D01*
X11006905Y-13113714D02*
X11016429Y-13104190D01*
X11016429Y-13104190D02*
X11035477Y-13075619D01*
X11035477Y-13075619D02*
X11045000Y-13056571D01*
X11045000Y-13056571D02*
X11054524Y-13028000D01*
X11054524Y-13028000D02*
X11064048Y-12980381D01*
X11064048Y-12980381D02*
X11064048Y-12942286D01*
X11064048Y-12942286D02*
X11054524Y-12894667D01*
X11054524Y-12894667D02*
X11045000Y-12866095D01*
X11045000Y-12866095D02*
X11035477Y-12847048D01*
X11035477Y-12847048D02*
X11016429Y-12818476D01*
X11016429Y-12818476D02*
X11006905Y-12808952D01*
X11368810Y-13113714D02*
X11359286Y-13104190D01*
X11359286Y-13104190D02*
X11340238Y-13075619D01*
X11340238Y-13075619D02*
X11330715Y-13056571D01*
X11330715Y-13056571D02*
X11321191Y-13028000D01*
X11321191Y-13028000D02*
X11311667Y-12980381D01*
X11311667Y-12980381D02*
X11311667Y-12942286D01*
X11311667Y-12942286D02*
X11321191Y-12894667D01*
X11321191Y-12894667D02*
X11330715Y-12866095D01*
X11330715Y-12866095D02*
X11340238Y-12847048D01*
X11340238Y-12847048D02*
X11359286Y-12818476D01*
X11359286Y-12818476D02*
X11368810Y-12808952D01*
X11445000Y-12904190D02*
X11445000Y-13037524D01*
X11445000Y-12923238D02*
X11454524Y-12913714D01*
X11454524Y-12913714D02*
X11473572Y-12904190D01*
X11473572Y-12904190D02*
X11502143Y-12904190D01*
X11502143Y-12904190D02*
X11521191Y-12913714D01*
X11521191Y-12913714D02*
X11530715Y-12932762D01*
X11530715Y-12932762D02*
X11530715Y-13037524D01*
X11654524Y-13037524D02*
X11635477Y-13028000D01*
X11635477Y-13028000D02*
X11625953Y-13018476D01*
X11625953Y-13018476D02*
X11616429Y-12999428D01*
X11616429Y-12999428D02*
X11616429Y-12942286D01*
X11616429Y-12942286D02*
X11625953Y-12923238D01*
X11625953Y-12923238D02*
X11635477Y-12913714D01*
X11635477Y-12913714D02*
X11654524Y-12904190D01*
X11654524Y-12904190D02*
X11683096Y-12904190D01*
X11683096Y-12904190D02*
X11702143Y-12913714D01*
X11702143Y-12913714D02*
X11711667Y-12923238D01*
X11711667Y-12923238D02*
X11721191Y-12942286D01*
X11721191Y-12942286D02*
X11721191Y-12999428D01*
X11721191Y-12999428D02*
X11711667Y-13018476D01*
X11711667Y-13018476D02*
X11702143Y-13028000D01*
X11702143Y-13028000D02*
X11683096Y-13037524D01*
X11683096Y-13037524D02*
X11654524Y-13037524D01*
X11778334Y-12904190D02*
X11854524Y-12904190D01*
X11806905Y-12837524D02*
X11806905Y-13008952D01*
X11806905Y-13008952D02*
X11816429Y-13028000D01*
X11816429Y-13028000D02*
X11835477Y-13037524D01*
X11835477Y-13037524D02*
X11854524Y-13037524D01*
X12073572Y-12904190D02*
X12073572Y-13104190D01*
X12073572Y-12913714D02*
X12092619Y-12904190D01*
X12092619Y-12904190D02*
X12130715Y-12904190D01*
X12130715Y-12904190D02*
X12149762Y-12913714D01*
X12149762Y-12913714D02*
X12159286Y-12923238D01*
X12159286Y-12923238D02*
X12168810Y-12942286D01*
X12168810Y-12942286D02*
X12168810Y-12999428D01*
X12168810Y-12999428D02*
X12159286Y-13018476D01*
X12159286Y-13018476D02*
X12149762Y-13028000D01*
X12149762Y-13028000D02*
X12130715Y-13037524D01*
X12130715Y-13037524D02*
X12092619Y-13037524D01*
X12092619Y-13037524D02*
X12073572Y-13028000D01*
X12283096Y-13037524D02*
X12264048Y-13028000D01*
X12264048Y-13028000D02*
X12254524Y-13008952D01*
X12254524Y-13008952D02*
X12254524Y-12837524D01*
X12445000Y-13037524D02*
X12445000Y-12932762D01*
X12445000Y-12932762D02*
X12435477Y-12913714D01*
X12435477Y-12913714D02*
X12416429Y-12904190D01*
X12416429Y-12904190D02*
X12378334Y-12904190D01*
X12378334Y-12904190D02*
X12359286Y-12913714D01*
X12445000Y-13028000D02*
X12425953Y-13037524D01*
X12425953Y-13037524D02*
X12378334Y-13037524D01*
X12378334Y-13037524D02*
X12359286Y-13028000D01*
X12359286Y-13028000D02*
X12349762Y-13008952D01*
X12349762Y-13008952D02*
X12349762Y-12989905D01*
X12349762Y-12989905D02*
X12359286Y-12970857D01*
X12359286Y-12970857D02*
X12378334Y-12961333D01*
X12378334Y-12961333D02*
X12425953Y-12961333D01*
X12425953Y-12961333D02*
X12445000Y-12951809D01*
X12511667Y-12904190D02*
X12587858Y-12904190D01*
X12540239Y-12837524D02*
X12540239Y-13008952D01*
X12540239Y-13008952D02*
X12549762Y-13028000D01*
X12549762Y-13028000D02*
X12568810Y-13037524D01*
X12568810Y-13037524D02*
X12587858Y-13037524D01*
X12730715Y-13028000D02*
X12711667Y-13037524D01*
X12711667Y-13037524D02*
X12673572Y-13037524D01*
X12673572Y-13037524D02*
X12654524Y-13028000D01*
X12654524Y-13028000D02*
X12645000Y-13008952D01*
X12645000Y-13008952D02*
X12645000Y-12932762D01*
X12645000Y-12932762D02*
X12654524Y-12913714D01*
X12654524Y-12913714D02*
X12673572Y-12904190D01*
X12673572Y-12904190D02*
X12711667Y-12904190D01*
X12711667Y-12904190D02*
X12730715Y-12913714D01*
X12730715Y-12913714D02*
X12740239Y-12932762D01*
X12740239Y-12932762D02*
X12740239Y-12951809D01*
X12740239Y-12951809D02*
X12645000Y-12970857D01*
X12911667Y-13037524D02*
X12911667Y-12837524D01*
X12911667Y-13028000D02*
X12892620Y-13037524D01*
X12892620Y-13037524D02*
X12854524Y-13037524D01*
X12854524Y-13037524D02*
X12835477Y-13028000D01*
X12835477Y-13028000D02*
X12825953Y-13018476D01*
X12825953Y-13018476D02*
X12816429Y-12999428D01*
X12816429Y-12999428D02*
X12816429Y-12942286D01*
X12816429Y-12942286D02*
X12825953Y-12923238D01*
X12825953Y-12923238D02*
X12835477Y-12913714D01*
X12835477Y-12913714D02*
X12854524Y-12904190D01*
X12854524Y-12904190D02*
X12892620Y-12904190D01*
X12892620Y-12904190D02*
X12911667Y-12913714D01*
X12987858Y-13113714D02*
X12997381Y-13104190D01*
X12997381Y-13104190D02*
X13016429Y-13075619D01*
X13016429Y-13075619D02*
X13025953Y-13056571D01*
X13025953Y-13056571D02*
X13035477Y-13028000D01*
X13035477Y-13028000D02*
X13045000Y-12980381D01*
X13045000Y-12980381D02*
X13045000Y-12942286D01*
X13045000Y-12942286D02*
X13035477Y-12894667D01*
X13035477Y-12894667D02*
X13025953Y-12866095D01*
X13025953Y-12866095D02*
X13016429Y-12847048D01*
X13016429Y-12847048D02*
X12997381Y-12818476D01*
X12997381Y-12818476D02*
X12987858Y-12808952D01*
M02*
