G04 #@! TF.GenerationSoftware,KiCad,Pcbnew,7.0.1*
G04 #@! TF.CreationDate,2023-08-26T14:00:19-05:00*
G04 #@! TF.ProjectId,Shift Register Mosfet Array V2,53686966-7420-4526-9567-697374657220,rev?*
G04 #@! TF.SameCoordinates,Original*
G04 #@! TF.FileFunction,Legend,Top*
G04 #@! TF.FilePolarity,Positive*
%FSLAX46Y46*%
G04 Gerber Fmt 4.6, Leading zero omitted, Abs format (unit mm)*
G04 Created by KiCad (PCBNEW 7.0.1) date 2023-08-26 14:00:19*
%MOMM*%
%LPD*%
G01*
G04 APERTURE LIST*
G04 Aperture macros list*
%AMRoundRect*
0 Rectangle with rounded corners*
0 $1 Rounding radius*
0 $2 $3 $4 $5 $6 $7 $8 $9 X,Y pos of 4 corners*
0 Add a 4 corners polygon primitive as box body*
4,1,4,$2,$3,$4,$5,$6,$7,$8,$9,$2,$3,0*
0 Add four circle primitives for the rounded corners*
1,1,$1+$1,$2,$3*
1,1,$1+$1,$4,$5*
1,1,$1+$1,$6,$7*
1,1,$1+$1,$8,$9*
0 Add four rect primitives between the rounded corners*
20,1,$1+$1,$2,$3,$4,$5,0*
20,1,$1+$1,$4,$5,$6,$7,0*
20,1,$1+$1,$6,$7,$8,$9,0*
20,1,$1+$1,$8,$9,$2,$3,0*%
G04 Aperture macros list end*
%ADD10C,0.150000*%
%ADD11C,0.120000*%
%ADD12RoundRect,0.250000X-0.450000X0.350000X-0.450000X-0.350000X0.450000X-0.350000X0.450000X0.350000X0*%
%ADD13O,1.700000X1.700000*%
%ADD14R,1.700000X1.700000*%
%ADD15RoundRect,0.250000X-0.845000X0.620000X-0.845000X-0.620000X0.845000X-0.620000X0.845000X0.620000X0*%
%ADD16O,2.190000X1.740000*%
%ADD17RoundRect,0.250000X0.620000X0.845000X-0.620000X0.845000X-0.620000X-0.845000X0.620000X-0.845000X0*%
%ADD18O,1.740000X2.190000*%
%ADD19RoundRect,0.250000X0.350000X0.450000X-0.350000X0.450000X-0.350000X-0.450000X0.350000X-0.450000X0*%
%ADD20R,2.000000X1.905000*%
%ADD21O,2.000000X1.905000*%
%ADD22RoundRect,0.250000X-0.475000X0.337500X-0.475000X-0.337500X0.475000X-0.337500X0.475000X0.337500X0*%
%ADD23RoundRect,0.250000X1.500000X0.650000X-1.500000X0.650000X-1.500000X-0.650000X1.500000X-0.650000X0*%
%ADD24C,3.200000*%
%ADD25RoundRect,0.250000X0.845000X-0.620000X0.845000X0.620000X-0.845000X0.620000X-0.845000X-0.620000X0*%
%ADD26RoundRect,0.250001X0.624999X-0.462499X0.624999X0.462499X-0.624999X0.462499X-0.624999X-0.462499X0*%
%ADD27RoundRect,0.150000X0.150000X-0.825000X0.150000X0.825000X-0.150000X0.825000X-0.150000X-0.825000X0*%
G04 APERTURE END LIST*
D10*
X155500000Y-85500000D02*
X156000000Y-86000000D01*
X156000000Y-86000000D02*
X155500000Y-85500000D01*
X156000000Y-86000000D02*
X154000000Y-86000000D01*
X67000000Y-86000000D02*
X67500000Y-86500000D01*
X67000000Y-86000000D02*
X69000000Y-86000000D01*
X67500000Y-86500000D02*
X67000000Y-86000000D01*
X67500000Y-85500000D02*
X67000000Y-86000000D01*
X155500000Y-86500000D02*
X156000000Y-86000000D01*
X78119048Y-118891666D02*
X78880953Y-118891666D01*
X78500000Y-119272619D02*
X78500000Y-118510714D01*
X63285714Y-108919678D02*
X63214286Y-108883964D01*
X63214286Y-108883964D02*
X63107143Y-108883964D01*
X63107143Y-108883964D02*
X63000000Y-108919678D01*
X63000000Y-108919678D02*
X62928571Y-108991107D01*
X62928571Y-108991107D02*
X62892857Y-109062535D01*
X62892857Y-109062535D02*
X62857143Y-109205392D01*
X62857143Y-109205392D02*
X62857143Y-109312535D01*
X62857143Y-109312535D02*
X62892857Y-109455392D01*
X62892857Y-109455392D02*
X62928571Y-109526821D01*
X62928571Y-109526821D02*
X63000000Y-109598250D01*
X63000000Y-109598250D02*
X63107143Y-109633964D01*
X63107143Y-109633964D02*
X63178571Y-109633964D01*
X63178571Y-109633964D02*
X63285714Y-109598250D01*
X63285714Y-109598250D02*
X63321428Y-109562535D01*
X63321428Y-109562535D02*
X63321428Y-109312535D01*
X63321428Y-109312535D02*
X63178571Y-109312535D01*
X63642857Y-109633964D02*
X63642857Y-108883964D01*
X63642857Y-108883964D02*
X64071428Y-109633964D01*
X64071428Y-109633964D02*
X64071428Y-108883964D01*
X64428571Y-109633964D02*
X64428571Y-108883964D01*
X64428571Y-108883964D02*
X64607142Y-108883964D01*
X64607142Y-108883964D02*
X64714285Y-108919678D01*
X64714285Y-108919678D02*
X64785714Y-108991107D01*
X64785714Y-108991107D02*
X64821428Y-109062535D01*
X64821428Y-109062535D02*
X64857142Y-109205392D01*
X64857142Y-109205392D02*
X64857142Y-109312535D01*
X64857142Y-109312535D02*
X64821428Y-109455392D01*
X64821428Y-109455392D02*
X64785714Y-109526821D01*
X64785714Y-109526821D02*
X64714285Y-109598250D01*
X64714285Y-109598250D02*
X64607142Y-109633964D01*
X64607142Y-109633964D02*
X64428571Y-109633964D01*
X113119048Y-118744666D02*
X113880953Y-118744666D01*
X83166048Y-118764666D02*
X83927953Y-118764666D01*
X85706048Y-118764666D02*
X86467953Y-118764666D01*
X86087000Y-119145619D02*
X86087000Y-118383714D01*
X97992048Y-118744666D02*
X98753953Y-118744666D01*
X98373000Y-119125619D02*
X98373000Y-118363714D01*
X63285714Y-99346964D02*
X63285714Y-98596964D01*
X63285714Y-98596964D02*
X63464285Y-98596964D01*
X63464285Y-98596964D02*
X63571428Y-98632678D01*
X63571428Y-98632678D02*
X63642857Y-98704107D01*
X63642857Y-98704107D02*
X63678571Y-98775535D01*
X63678571Y-98775535D02*
X63714285Y-98918392D01*
X63714285Y-98918392D02*
X63714285Y-99025535D01*
X63714285Y-99025535D02*
X63678571Y-99168392D01*
X63678571Y-99168392D02*
X63642857Y-99239821D01*
X63642857Y-99239821D02*
X63571428Y-99311250D01*
X63571428Y-99311250D02*
X63464285Y-99346964D01*
X63464285Y-99346964D02*
X63285714Y-99346964D01*
X64035714Y-99346964D02*
X64035714Y-98596964D01*
X64392857Y-99346964D02*
X64392857Y-98596964D01*
X64392857Y-98596964D02*
X64821428Y-99346964D01*
X64821428Y-99346964D02*
X64821428Y-98596964D01*
X156273428Y-91492964D02*
X155844857Y-91492964D01*
X156059142Y-91492964D02*
X156059142Y-90742964D01*
X156059142Y-90742964D02*
X155987714Y-90850107D01*
X155987714Y-90850107D02*
X155916285Y-90921535D01*
X155916285Y-90921535D02*
X155844857Y-90957250D01*
X156559143Y-90814392D02*
X156594857Y-90778678D01*
X156594857Y-90778678D02*
X156666286Y-90742964D01*
X156666286Y-90742964D02*
X156844857Y-90742964D01*
X156844857Y-90742964D02*
X156916286Y-90778678D01*
X156916286Y-90778678D02*
X156952000Y-90814392D01*
X156952000Y-90814392D02*
X156987714Y-90885821D01*
X156987714Y-90885821D02*
X156987714Y-90957250D01*
X156987714Y-90957250D02*
X156952000Y-91064392D01*
X156952000Y-91064392D02*
X156523428Y-91492964D01*
X156523428Y-91492964D02*
X156987714Y-91492964D01*
X157202000Y-90742964D02*
X157452000Y-91492964D01*
X157452000Y-91492964D02*
X157702000Y-90742964D01*
X64785714Y-93632678D02*
X64714286Y-93596964D01*
X64714286Y-93596964D02*
X64607143Y-93596964D01*
X64607143Y-93596964D02*
X64500000Y-93632678D01*
X64500000Y-93632678D02*
X64428571Y-93704107D01*
X64428571Y-93704107D02*
X64392857Y-93775535D01*
X64392857Y-93775535D02*
X64357143Y-93918392D01*
X64357143Y-93918392D02*
X64357143Y-94025535D01*
X64357143Y-94025535D02*
X64392857Y-94168392D01*
X64392857Y-94168392D02*
X64428571Y-94239821D01*
X64428571Y-94239821D02*
X64500000Y-94311250D01*
X64500000Y-94311250D02*
X64607143Y-94346964D01*
X64607143Y-94346964D02*
X64678571Y-94346964D01*
X64678571Y-94346964D02*
X64785714Y-94311250D01*
X64785714Y-94311250D02*
X64821428Y-94275535D01*
X64821428Y-94275535D02*
X64821428Y-94025535D01*
X64821428Y-94025535D02*
X64678571Y-94025535D01*
X65142857Y-94346964D02*
X65142857Y-93596964D01*
X65142857Y-93596964D02*
X65571428Y-94346964D01*
X65571428Y-94346964D02*
X65571428Y-93596964D01*
X65928571Y-94346964D02*
X65928571Y-93596964D01*
X65928571Y-93596964D02*
X66107142Y-93596964D01*
X66107142Y-93596964D02*
X66214285Y-93632678D01*
X66214285Y-93632678D02*
X66285714Y-93704107D01*
X66285714Y-93704107D02*
X66321428Y-93775535D01*
X66321428Y-93775535D02*
X66357142Y-93918392D01*
X66357142Y-93918392D02*
X66357142Y-94025535D01*
X66357142Y-94025535D02*
X66321428Y-94168392D01*
X66321428Y-94168392D02*
X66285714Y-94239821D01*
X66285714Y-94239821D02*
X66214285Y-94311250D01*
X66214285Y-94311250D02*
X66107142Y-94346964D01*
X66107142Y-94346964D02*
X65928571Y-94346964D01*
X95579048Y-118744666D02*
X96340953Y-118744666D01*
X95960000Y-119125619D02*
X95960000Y-118363714D01*
X88119048Y-118764666D02*
X88880953Y-118764666D01*
X88500000Y-119145619D02*
X88500000Y-118383714D01*
X104608761Y-120383857D02*
X104513523Y-120336238D01*
X104513523Y-120336238D02*
X104418285Y-120241000D01*
X104418285Y-120241000D02*
X104275428Y-120098142D01*
X104275428Y-120098142D02*
X104180190Y-120050523D01*
X104180190Y-120050523D02*
X104084952Y-120050523D01*
X104132571Y-120288619D02*
X104037333Y-120241000D01*
X104037333Y-120241000D02*
X103942095Y-120145761D01*
X103942095Y-120145761D02*
X103894476Y-119955285D01*
X103894476Y-119955285D02*
X103894476Y-119621952D01*
X103894476Y-119621952D02*
X103942095Y-119431476D01*
X103942095Y-119431476D02*
X104037333Y-119336238D01*
X104037333Y-119336238D02*
X104132571Y-119288619D01*
X104132571Y-119288619D02*
X104323047Y-119288619D01*
X104323047Y-119288619D02*
X104418285Y-119336238D01*
X104418285Y-119336238D02*
X104513523Y-119431476D01*
X104513523Y-119431476D02*
X104561142Y-119621952D01*
X104561142Y-119621952D02*
X104561142Y-119955285D01*
X104561142Y-119955285D02*
X104513523Y-120145761D01*
X104513523Y-120145761D02*
X104418285Y-120241000D01*
X104418285Y-120241000D02*
X104323047Y-120288619D01*
X104323047Y-120288619D02*
X104132571Y-120288619D01*
X104894476Y-119288619D02*
X105513523Y-119288619D01*
X105513523Y-119288619D02*
X105180190Y-119669571D01*
X105180190Y-119669571D02*
X105323047Y-119669571D01*
X105323047Y-119669571D02*
X105418285Y-119717190D01*
X105418285Y-119717190D02*
X105465904Y-119764809D01*
X105465904Y-119764809D02*
X105513523Y-119860047D01*
X105513523Y-119860047D02*
X105513523Y-120098142D01*
X105513523Y-120098142D02*
X105465904Y-120193380D01*
X105465904Y-120193380D02*
X105418285Y-120241000D01*
X105418285Y-120241000D02*
X105323047Y-120288619D01*
X105323047Y-120288619D02*
X105037333Y-120288619D01*
X105037333Y-120288619D02*
X104942095Y-120241000D01*
X104942095Y-120241000D02*
X104894476Y-120193380D01*
X133119048Y-118784666D02*
X133880953Y-118784666D01*
X62928571Y-106216964D02*
X63178571Y-106966964D01*
X63178571Y-106966964D02*
X63428571Y-106216964D01*
X64107142Y-106895535D02*
X64071428Y-106931250D01*
X64071428Y-106931250D02*
X63964285Y-106966964D01*
X63964285Y-106966964D02*
X63892857Y-106966964D01*
X63892857Y-106966964D02*
X63785714Y-106931250D01*
X63785714Y-106931250D02*
X63714285Y-106859821D01*
X63714285Y-106859821D02*
X63678571Y-106788392D01*
X63678571Y-106788392D02*
X63642857Y-106645535D01*
X63642857Y-106645535D02*
X63642857Y-106538392D01*
X63642857Y-106538392D02*
X63678571Y-106395535D01*
X63678571Y-106395535D02*
X63714285Y-106324107D01*
X63714285Y-106324107D02*
X63785714Y-106252678D01*
X63785714Y-106252678D02*
X63892857Y-106216964D01*
X63892857Y-106216964D02*
X63964285Y-106216964D01*
X63964285Y-106216964D02*
X64071428Y-106252678D01*
X64071428Y-106252678D02*
X64107142Y-106288392D01*
X64857142Y-106895535D02*
X64821428Y-106931250D01*
X64821428Y-106931250D02*
X64714285Y-106966964D01*
X64714285Y-106966964D02*
X64642857Y-106966964D01*
X64642857Y-106966964D02*
X64535714Y-106931250D01*
X64535714Y-106931250D02*
X64464285Y-106859821D01*
X64464285Y-106859821D02*
X64428571Y-106788392D01*
X64428571Y-106788392D02*
X64392857Y-106645535D01*
X64392857Y-106645535D02*
X64392857Y-106538392D01*
X64392857Y-106538392D02*
X64428571Y-106395535D01*
X64428571Y-106395535D02*
X64464285Y-106324107D01*
X64464285Y-106324107D02*
X64535714Y-106252678D01*
X64535714Y-106252678D02*
X64642857Y-106216964D01*
X64642857Y-106216964D02*
X64714285Y-106216964D01*
X64714285Y-106216964D02*
X64821428Y-106252678D01*
X64821428Y-106252678D02*
X64857142Y-106288392D01*
X156273428Y-88992964D02*
X155844857Y-88992964D01*
X156059142Y-88992964D02*
X156059142Y-88242964D01*
X156059142Y-88242964D02*
X155987714Y-88350107D01*
X155987714Y-88350107D02*
X155916285Y-88421535D01*
X155916285Y-88421535D02*
X155844857Y-88457250D01*
X156559143Y-88314392D02*
X156594857Y-88278678D01*
X156594857Y-88278678D02*
X156666286Y-88242964D01*
X156666286Y-88242964D02*
X156844857Y-88242964D01*
X156844857Y-88242964D02*
X156916286Y-88278678D01*
X156916286Y-88278678D02*
X156952000Y-88314392D01*
X156952000Y-88314392D02*
X156987714Y-88385821D01*
X156987714Y-88385821D02*
X156987714Y-88457250D01*
X156987714Y-88457250D02*
X156952000Y-88564392D01*
X156952000Y-88564392D02*
X156523428Y-88992964D01*
X156523428Y-88992964D02*
X156987714Y-88992964D01*
X157202000Y-88242964D02*
X157452000Y-88992964D01*
X157452000Y-88992964D02*
X157702000Y-88242964D01*
X135659048Y-118784666D02*
X136420953Y-118784666D01*
X136040000Y-119165619D02*
X136040000Y-118403714D01*
X114674761Y-120363857D02*
X114579523Y-120316238D01*
X114579523Y-120316238D02*
X114484285Y-120221000D01*
X114484285Y-120221000D02*
X114341428Y-120078142D01*
X114341428Y-120078142D02*
X114246190Y-120030523D01*
X114246190Y-120030523D02*
X114150952Y-120030523D01*
X114198571Y-120268619D02*
X114103333Y-120221000D01*
X114103333Y-120221000D02*
X114008095Y-120125761D01*
X114008095Y-120125761D02*
X113960476Y-119935285D01*
X113960476Y-119935285D02*
X113960476Y-119601952D01*
X113960476Y-119601952D02*
X114008095Y-119411476D01*
X114008095Y-119411476D02*
X114103333Y-119316238D01*
X114103333Y-119316238D02*
X114198571Y-119268619D01*
X114198571Y-119268619D02*
X114389047Y-119268619D01*
X114389047Y-119268619D02*
X114484285Y-119316238D01*
X114484285Y-119316238D02*
X114579523Y-119411476D01*
X114579523Y-119411476D02*
X114627142Y-119601952D01*
X114627142Y-119601952D02*
X114627142Y-119935285D01*
X114627142Y-119935285D02*
X114579523Y-120125761D01*
X114579523Y-120125761D02*
X114484285Y-120221000D01*
X114484285Y-120221000D02*
X114389047Y-120268619D01*
X114389047Y-120268619D02*
X114198571Y-120268619D01*
X115484285Y-119601952D02*
X115484285Y-120268619D01*
X115246190Y-119221000D02*
X115008095Y-119935285D01*
X115008095Y-119935285D02*
X115627142Y-119935285D01*
X105593048Y-118764666D02*
X106354953Y-118764666D01*
X105974000Y-119145619D02*
X105974000Y-118383714D01*
X73166048Y-118891666D02*
X73927953Y-118891666D01*
X121214285Y-88478928D02*
X122214285Y-88478928D01*
X122214285Y-88478928D02*
X121571428Y-89978928D01*
X123428571Y-88978928D02*
X123428571Y-89978928D01*
X123071428Y-88407500D02*
X122714285Y-89478928D01*
X122714285Y-89478928D02*
X123642856Y-89478928D01*
X124214284Y-89978928D02*
X124214284Y-88478928D01*
X124857142Y-89978928D02*
X124857142Y-89193214D01*
X124857142Y-89193214D02*
X124785713Y-89050357D01*
X124785713Y-89050357D02*
X124642856Y-88978928D01*
X124642856Y-88978928D02*
X124428570Y-88978928D01*
X124428570Y-88978928D02*
X124285713Y-89050357D01*
X124285713Y-89050357D02*
X124214284Y-89121785D01*
X126214285Y-89907500D02*
X126071427Y-89978928D01*
X126071427Y-89978928D02*
X125785713Y-89978928D01*
X125785713Y-89978928D02*
X125642856Y-89907500D01*
X125642856Y-89907500D02*
X125571427Y-89836071D01*
X125571427Y-89836071D02*
X125499999Y-89693214D01*
X125499999Y-89693214D02*
X125499999Y-89264642D01*
X125499999Y-89264642D02*
X125571427Y-89121785D01*
X125571427Y-89121785D02*
X125642856Y-89050357D01*
X125642856Y-89050357D02*
X125785713Y-88978928D01*
X125785713Y-88978928D02*
X126071427Y-88978928D01*
X126071427Y-88978928D02*
X126214285Y-89050357D01*
X127571427Y-88478928D02*
X126857141Y-88478928D01*
X126857141Y-88478928D02*
X126785713Y-89193214D01*
X126785713Y-89193214D02*
X126857141Y-89121785D01*
X126857141Y-89121785D02*
X126999999Y-89050357D01*
X126999999Y-89050357D02*
X127357141Y-89050357D01*
X127357141Y-89050357D02*
X127499999Y-89121785D01*
X127499999Y-89121785D02*
X127571427Y-89193214D01*
X127571427Y-89193214D02*
X127642856Y-89336071D01*
X127642856Y-89336071D02*
X127642856Y-89693214D01*
X127642856Y-89693214D02*
X127571427Y-89836071D01*
X127571427Y-89836071D02*
X127499999Y-89907500D01*
X127499999Y-89907500D02*
X127357141Y-89978928D01*
X127357141Y-89978928D02*
X126999999Y-89978928D01*
X126999999Y-89978928D02*
X126857141Y-89907500D01*
X126857141Y-89907500D02*
X126785713Y-89836071D01*
X128357141Y-89978928D02*
X128642855Y-89978928D01*
X128642855Y-89978928D02*
X128785712Y-89907500D01*
X128785712Y-89907500D02*
X128857141Y-89836071D01*
X128857141Y-89836071D02*
X128999998Y-89621785D01*
X128999998Y-89621785D02*
X129071427Y-89336071D01*
X129071427Y-89336071D02*
X129071427Y-88764642D01*
X129071427Y-88764642D02*
X128999998Y-88621785D01*
X128999998Y-88621785D02*
X128928570Y-88550357D01*
X128928570Y-88550357D02*
X128785712Y-88478928D01*
X128785712Y-88478928D02*
X128499998Y-88478928D01*
X128499998Y-88478928D02*
X128357141Y-88550357D01*
X128357141Y-88550357D02*
X128285712Y-88621785D01*
X128285712Y-88621785D02*
X128214284Y-88764642D01*
X128214284Y-88764642D02*
X128214284Y-89121785D01*
X128214284Y-89121785D02*
X128285712Y-89264642D01*
X128285712Y-89264642D02*
X128357141Y-89336071D01*
X128357141Y-89336071D02*
X128499998Y-89407500D01*
X128499998Y-89407500D02*
X128785712Y-89407500D01*
X128785712Y-89407500D02*
X128928570Y-89336071D01*
X128928570Y-89336071D02*
X128999998Y-89264642D01*
X128999998Y-89264642D02*
X129071427Y-89121785D01*
X130428569Y-88478928D02*
X129714283Y-88478928D01*
X129714283Y-88478928D02*
X129642855Y-89193214D01*
X129642855Y-89193214D02*
X129714283Y-89121785D01*
X129714283Y-89121785D02*
X129857141Y-89050357D01*
X129857141Y-89050357D02*
X130214283Y-89050357D01*
X130214283Y-89050357D02*
X130357141Y-89121785D01*
X130357141Y-89121785D02*
X130428569Y-89193214D01*
X130428569Y-89193214D02*
X130499998Y-89336071D01*
X130499998Y-89336071D02*
X130499998Y-89693214D01*
X130499998Y-89693214D02*
X130428569Y-89836071D01*
X130428569Y-89836071D02*
X130357141Y-89907500D01*
X130357141Y-89907500D02*
X130214283Y-89978928D01*
X130214283Y-89978928D02*
X129857141Y-89978928D01*
X129857141Y-89978928D02*
X129714283Y-89907500D01*
X129714283Y-89907500D02*
X129642855Y-89836071D01*
X132285711Y-89978928D02*
X132285711Y-88978928D01*
X132285711Y-89121785D02*
X132357140Y-89050357D01*
X132357140Y-89050357D02*
X132499997Y-88978928D01*
X132499997Y-88978928D02*
X132714283Y-88978928D01*
X132714283Y-88978928D02*
X132857140Y-89050357D01*
X132857140Y-89050357D02*
X132928569Y-89193214D01*
X132928569Y-89193214D02*
X132928569Y-89978928D01*
X132928569Y-89193214D02*
X132999997Y-89050357D01*
X132999997Y-89050357D02*
X133142854Y-88978928D01*
X133142854Y-88978928D02*
X133357140Y-88978928D01*
X133357140Y-88978928D02*
X133499997Y-89050357D01*
X133499997Y-89050357D02*
X133571426Y-89193214D01*
X133571426Y-89193214D02*
X133571426Y-89978928D01*
X134499997Y-89978928D02*
X134357140Y-89907500D01*
X134357140Y-89907500D02*
X134285711Y-89836071D01*
X134285711Y-89836071D02*
X134214283Y-89693214D01*
X134214283Y-89693214D02*
X134214283Y-89264642D01*
X134214283Y-89264642D02*
X134285711Y-89121785D01*
X134285711Y-89121785D02*
X134357140Y-89050357D01*
X134357140Y-89050357D02*
X134499997Y-88978928D01*
X134499997Y-88978928D02*
X134714283Y-88978928D01*
X134714283Y-88978928D02*
X134857140Y-89050357D01*
X134857140Y-89050357D02*
X134928569Y-89121785D01*
X134928569Y-89121785D02*
X134999997Y-89264642D01*
X134999997Y-89264642D02*
X134999997Y-89693214D01*
X134999997Y-89693214D02*
X134928569Y-89836071D01*
X134928569Y-89836071D02*
X134857140Y-89907500D01*
X134857140Y-89907500D02*
X134714283Y-89978928D01*
X134714283Y-89978928D02*
X134499997Y-89978928D01*
X135571426Y-89907500D02*
X135714283Y-89978928D01*
X135714283Y-89978928D02*
X135999997Y-89978928D01*
X135999997Y-89978928D02*
X136142854Y-89907500D01*
X136142854Y-89907500D02*
X136214283Y-89764642D01*
X136214283Y-89764642D02*
X136214283Y-89693214D01*
X136214283Y-89693214D02*
X136142854Y-89550357D01*
X136142854Y-89550357D02*
X135999997Y-89478928D01*
X135999997Y-89478928D02*
X135785712Y-89478928D01*
X135785712Y-89478928D02*
X135642854Y-89407500D01*
X135642854Y-89407500D02*
X135571426Y-89264642D01*
X135571426Y-89264642D02*
X135571426Y-89193214D01*
X135571426Y-89193214D02*
X135642854Y-89050357D01*
X135642854Y-89050357D02*
X135785712Y-88978928D01*
X135785712Y-88978928D02*
X135999997Y-88978928D01*
X135999997Y-88978928D02*
X136142854Y-89050357D01*
X136642855Y-88978928D02*
X137214283Y-88978928D01*
X136857140Y-89978928D02*
X136857140Y-88693214D01*
X136857140Y-88693214D02*
X136928569Y-88550357D01*
X136928569Y-88550357D02*
X137071426Y-88478928D01*
X137071426Y-88478928D02*
X137214283Y-88478928D01*
X138285712Y-89907500D02*
X138142855Y-89978928D01*
X138142855Y-89978928D02*
X137857141Y-89978928D01*
X137857141Y-89978928D02*
X137714283Y-89907500D01*
X137714283Y-89907500D02*
X137642855Y-89764642D01*
X137642855Y-89764642D02*
X137642855Y-89193214D01*
X137642855Y-89193214D02*
X137714283Y-89050357D01*
X137714283Y-89050357D02*
X137857141Y-88978928D01*
X137857141Y-88978928D02*
X138142855Y-88978928D01*
X138142855Y-88978928D02*
X138285712Y-89050357D01*
X138285712Y-89050357D02*
X138357141Y-89193214D01*
X138357141Y-89193214D02*
X138357141Y-89336071D01*
X138357141Y-89336071D02*
X137642855Y-89478928D01*
X138785712Y-88978928D02*
X139357140Y-88978928D01*
X138999997Y-88478928D02*
X138999997Y-89764642D01*
X138999997Y-89764642D02*
X139071426Y-89907500D01*
X139071426Y-89907500D02*
X139214283Y-89978928D01*
X139214283Y-89978928D02*
X139357140Y-89978928D01*
X122000000Y-92408928D02*
X122000000Y-91623214D01*
X122000000Y-91623214D02*
X121928571Y-91480357D01*
X121928571Y-91480357D02*
X121785714Y-91408928D01*
X121785714Y-91408928D02*
X121500000Y-91408928D01*
X121500000Y-91408928D02*
X121357142Y-91480357D01*
X122000000Y-92337500D02*
X121857142Y-92408928D01*
X121857142Y-92408928D02*
X121500000Y-92408928D01*
X121500000Y-92408928D02*
X121357142Y-92337500D01*
X121357142Y-92337500D02*
X121285714Y-92194642D01*
X121285714Y-92194642D02*
X121285714Y-92051785D01*
X121285714Y-92051785D02*
X121357142Y-91908928D01*
X121357142Y-91908928D02*
X121500000Y-91837500D01*
X121500000Y-91837500D02*
X121857142Y-91837500D01*
X121857142Y-91837500D02*
X122000000Y-91766071D01*
X122714285Y-92408928D02*
X122714285Y-91408928D01*
X122714285Y-91694642D02*
X122785714Y-91551785D01*
X122785714Y-91551785D02*
X122857143Y-91480357D01*
X122857143Y-91480357D02*
X123000000Y-91408928D01*
X123000000Y-91408928D02*
X123142857Y-91408928D01*
X123642856Y-92408928D02*
X123642856Y-91408928D01*
X123642856Y-91694642D02*
X123714285Y-91551785D01*
X123714285Y-91551785D02*
X123785714Y-91480357D01*
X123785714Y-91480357D02*
X123928571Y-91408928D01*
X123928571Y-91408928D02*
X124071428Y-91408928D01*
X125214285Y-92408928D02*
X125214285Y-91623214D01*
X125214285Y-91623214D02*
X125142856Y-91480357D01*
X125142856Y-91480357D02*
X124999999Y-91408928D01*
X124999999Y-91408928D02*
X124714285Y-91408928D01*
X124714285Y-91408928D02*
X124571427Y-91480357D01*
X125214285Y-92337500D02*
X125071427Y-92408928D01*
X125071427Y-92408928D02*
X124714285Y-92408928D01*
X124714285Y-92408928D02*
X124571427Y-92337500D01*
X124571427Y-92337500D02*
X124499999Y-92194642D01*
X124499999Y-92194642D02*
X124499999Y-92051785D01*
X124499999Y-92051785D02*
X124571427Y-91908928D01*
X124571427Y-91908928D02*
X124714285Y-91837500D01*
X124714285Y-91837500D02*
X125071427Y-91837500D01*
X125071427Y-91837500D02*
X125214285Y-91766071D01*
X125785713Y-91408928D02*
X126142856Y-92408928D01*
X126499999Y-91408928D02*
X126142856Y-92408928D01*
X126142856Y-92408928D02*
X125999999Y-92766071D01*
X125999999Y-92766071D02*
X125928570Y-92837500D01*
X125928570Y-92837500D02*
X125785713Y-92908928D01*
X128071427Y-91408928D02*
X128428570Y-92408928D01*
X128428570Y-92408928D02*
X128785713Y-91408928D01*
X129285713Y-91051785D02*
X129357141Y-90980357D01*
X129357141Y-90980357D02*
X129499999Y-90908928D01*
X129499999Y-90908928D02*
X129857141Y-90908928D01*
X129857141Y-90908928D02*
X129999999Y-90980357D01*
X129999999Y-90980357D02*
X130071427Y-91051785D01*
X130071427Y-91051785D02*
X130142856Y-91194642D01*
X130142856Y-91194642D02*
X130142856Y-91337500D01*
X130142856Y-91337500D02*
X130071427Y-91551785D01*
X130071427Y-91551785D02*
X129214284Y-92408928D01*
X129214284Y-92408928D02*
X130142856Y-92408928D01*
X74721761Y-120510857D02*
X74626523Y-120463238D01*
X74626523Y-120463238D02*
X74531285Y-120368000D01*
X74531285Y-120368000D02*
X74388428Y-120225142D01*
X74388428Y-120225142D02*
X74293190Y-120177523D01*
X74293190Y-120177523D02*
X74197952Y-120177523D01*
X74245571Y-120415619D02*
X74150333Y-120368000D01*
X74150333Y-120368000D02*
X74055095Y-120272761D01*
X74055095Y-120272761D02*
X74007476Y-120082285D01*
X74007476Y-120082285D02*
X74007476Y-119748952D01*
X74007476Y-119748952D02*
X74055095Y-119558476D01*
X74055095Y-119558476D02*
X74150333Y-119463238D01*
X74150333Y-119463238D02*
X74245571Y-119415619D01*
X74245571Y-119415619D02*
X74436047Y-119415619D01*
X74436047Y-119415619D02*
X74531285Y-119463238D01*
X74531285Y-119463238D02*
X74626523Y-119558476D01*
X74626523Y-119558476D02*
X74674142Y-119748952D01*
X74674142Y-119748952D02*
X74674142Y-120082285D01*
X74674142Y-120082285D02*
X74626523Y-120272761D01*
X74626523Y-120272761D02*
X74531285Y-120368000D01*
X74531285Y-120368000D02*
X74436047Y-120415619D01*
X74436047Y-120415619D02*
X74245571Y-120415619D01*
X75293190Y-119415619D02*
X75388428Y-119415619D01*
X75388428Y-119415619D02*
X75483666Y-119463238D01*
X75483666Y-119463238D02*
X75531285Y-119510857D01*
X75531285Y-119510857D02*
X75578904Y-119606095D01*
X75578904Y-119606095D02*
X75626523Y-119796571D01*
X75626523Y-119796571D02*
X75626523Y-120034666D01*
X75626523Y-120034666D02*
X75578904Y-120225142D01*
X75578904Y-120225142D02*
X75531285Y-120320380D01*
X75531285Y-120320380D02*
X75483666Y-120368000D01*
X75483666Y-120368000D02*
X75388428Y-120415619D01*
X75388428Y-120415619D02*
X75293190Y-120415619D01*
X75293190Y-120415619D02*
X75197952Y-120368000D01*
X75197952Y-120368000D02*
X75150333Y-120320380D01*
X75150333Y-120320380D02*
X75102714Y-120225142D01*
X75102714Y-120225142D02*
X75055095Y-120034666D01*
X75055095Y-120034666D02*
X75055095Y-119796571D01*
X75055095Y-119796571D02*
X75102714Y-119606095D01*
X75102714Y-119606095D02*
X75150333Y-119510857D01*
X75150333Y-119510857D02*
X75197952Y-119463238D01*
X75197952Y-119463238D02*
X75293190Y-119415619D01*
X69642857Y-85693928D02*
X70214285Y-85693928D01*
X69857142Y-85193928D02*
X69857142Y-86479642D01*
X69857142Y-86479642D02*
X69928571Y-86622500D01*
X69928571Y-86622500D02*
X70071428Y-86693928D01*
X70071428Y-86693928D02*
X70214285Y-86693928D01*
X70928571Y-86693928D02*
X70785714Y-86622500D01*
X70785714Y-86622500D02*
X70714285Y-86551071D01*
X70714285Y-86551071D02*
X70642857Y-86408214D01*
X70642857Y-86408214D02*
X70642857Y-85979642D01*
X70642857Y-85979642D02*
X70714285Y-85836785D01*
X70714285Y-85836785D02*
X70785714Y-85765357D01*
X70785714Y-85765357D02*
X70928571Y-85693928D01*
X70928571Y-85693928D02*
X71142857Y-85693928D01*
X71142857Y-85693928D02*
X71285714Y-85765357D01*
X71285714Y-85765357D02*
X71357143Y-85836785D01*
X71357143Y-85836785D02*
X71428571Y-85979642D01*
X71428571Y-85979642D02*
X71428571Y-86408214D01*
X71428571Y-86408214D02*
X71357143Y-86551071D01*
X71357143Y-86551071D02*
X71285714Y-86622500D01*
X71285714Y-86622500D02*
X71142857Y-86693928D01*
X71142857Y-86693928D02*
X70928571Y-86693928D01*
X73214285Y-86693928D02*
X73214285Y-85693928D01*
X73214285Y-85836785D02*
X73285714Y-85765357D01*
X73285714Y-85765357D02*
X73428571Y-85693928D01*
X73428571Y-85693928D02*
X73642857Y-85693928D01*
X73642857Y-85693928D02*
X73785714Y-85765357D01*
X73785714Y-85765357D02*
X73857143Y-85908214D01*
X73857143Y-85908214D02*
X73857143Y-86693928D01*
X73857143Y-85908214D02*
X73928571Y-85765357D01*
X73928571Y-85765357D02*
X74071428Y-85693928D01*
X74071428Y-85693928D02*
X74285714Y-85693928D01*
X74285714Y-85693928D02*
X74428571Y-85765357D01*
X74428571Y-85765357D02*
X74500000Y-85908214D01*
X74500000Y-85908214D02*
X74500000Y-86693928D01*
X75857143Y-86622500D02*
X75714285Y-86693928D01*
X75714285Y-86693928D02*
X75428571Y-86693928D01*
X75428571Y-86693928D02*
X75285714Y-86622500D01*
X75285714Y-86622500D02*
X75214285Y-86551071D01*
X75214285Y-86551071D02*
X75142857Y-86408214D01*
X75142857Y-86408214D02*
X75142857Y-85979642D01*
X75142857Y-85979642D02*
X75214285Y-85836785D01*
X75214285Y-85836785D02*
X75285714Y-85765357D01*
X75285714Y-85765357D02*
X75428571Y-85693928D01*
X75428571Y-85693928D02*
X75714285Y-85693928D01*
X75714285Y-85693928D02*
X75857143Y-85765357D01*
X77142857Y-85693928D02*
X77142857Y-86693928D01*
X76499999Y-85693928D02*
X76499999Y-86479642D01*
X76499999Y-86479642D02*
X76571428Y-86622500D01*
X76571428Y-86622500D02*
X76714285Y-86693928D01*
X76714285Y-86693928D02*
X76928571Y-86693928D01*
X76928571Y-86693928D02*
X77071428Y-86622500D01*
X77071428Y-86622500D02*
X77142857Y-86551071D01*
X156273428Y-93278678D02*
X156202000Y-93242964D01*
X156202000Y-93242964D02*
X156094857Y-93242964D01*
X156094857Y-93242964D02*
X155987714Y-93278678D01*
X155987714Y-93278678D02*
X155916285Y-93350107D01*
X155916285Y-93350107D02*
X155880571Y-93421535D01*
X155880571Y-93421535D02*
X155844857Y-93564392D01*
X155844857Y-93564392D02*
X155844857Y-93671535D01*
X155844857Y-93671535D02*
X155880571Y-93814392D01*
X155880571Y-93814392D02*
X155916285Y-93885821D01*
X155916285Y-93885821D02*
X155987714Y-93957250D01*
X155987714Y-93957250D02*
X156094857Y-93992964D01*
X156094857Y-93992964D02*
X156166285Y-93992964D01*
X156166285Y-93992964D02*
X156273428Y-93957250D01*
X156273428Y-93957250D02*
X156309142Y-93921535D01*
X156309142Y-93921535D02*
X156309142Y-93671535D01*
X156309142Y-93671535D02*
X156166285Y-93671535D01*
X156630571Y-93992964D02*
X156630571Y-93242964D01*
X156630571Y-93242964D02*
X157059142Y-93992964D01*
X157059142Y-93992964D02*
X157059142Y-93242964D01*
X157416285Y-93992964D02*
X157416285Y-93242964D01*
X157416285Y-93242964D02*
X157594856Y-93242964D01*
X157594856Y-93242964D02*
X157701999Y-93278678D01*
X157701999Y-93278678D02*
X157773428Y-93350107D01*
X157773428Y-93350107D02*
X157809142Y-93421535D01*
X157809142Y-93421535D02*
X157844856Y-93564392D01*
X157844856Y-93564392D02*
X157844856Y-93671535D01*
X157844856Y-93671535D02*
X157809142Y-93814392D01*
X157809142Y-93814392D02*
X157773428Y-93885821D01*
X157773428Y-93885821D02*
X157701999Y-93957250D01*
X157701999Y-93957250D02*
X157594856Y-93992964D01*
X157594856Y-93992964D02*
X157416285Y-93992964D01*
X64785714Y-96132678D02*
X64714286Y-96096964D01*
X64714286Y-96096964D02*
X64607143Y-96096964D01*
X64607143Y-96096964D02*
X64500000Y-96132678D01*
X64500000Y-96132678D02*
X64428571Y-96204107D01*
X64428571Y-96204107D02*
X64392857Y-96275535D01*
X64392857Y-96275535D02*
X64357143Y-96418392D01*
X64357143Y-96418392D02*
X64357143Y-96525535D01*
X64357143Y-96525535D02*
X64392857Y-96668392D01*
X64392857Y-96668392D02*
X64428571Y-96739821D01*
X64428571Y-96739821D02*
X64500000Y-96811250D01*
X64500000Y-96811250D02*
X64607143Y-96846964D01*
X64607143Y-96846964D02*
X64678571Y-96846964D01*
X64678571Y-96846964D02*
X64785714Y-96811250D01*
X64785714Y-96811250D02*
X64821428Y-96775535D01*
X64821428Y-96775535D02*
X64821428Y-96525535D01*
X64821428Y-96525535D02*
X64678571Y-96525535D01*
X65142857Y-96846964D02*
X65142857Y-96096964D01*
X65142857Y-96096964D02*
X65571428Y-96846964D01*
X65571428Y-96846964D02*
X65571428Y-96096964D01*
X65928571Y-96846964D02*
X65928571Y-96096964D01*
X65928571Y-96096964D02*
X66107142Y-96096964D01*
X66107142Y-96096964D02*
X66214285Y-96132678D01*
X66214285Y-96132678D02*
X66285714Y-96204107D01*
X66285714Y-96204107D02*
X66321428Y-96275535D01*
X66321428Y-96275535D02*
X66357142Y-96418392D01*
X66357142Y-96418392D02*
X66357142Y-96525535D01*
X66357142Y-96525535D02*
X66321428Y-96668392D01*
X66321428Y-96668392D02*
X66285714Y-96739821D01*
X66285714Y-96739821D02*
X66214285Y-96811250D01*
X66214285Y-96811250D02*
X66107142Y-96846964D01*
X66107142Y-96846964D02*
X65928571Y-96846964D01*
X75706048Y-118891666D02*
X76467953Y-118891666D01*
X76087000Y-119272619D02*
X76087000Y-118510714D01*
X134674761Y-120403857D02*
X134579523Y-120356238D01*
X134579523Y-120356238D02*
X134484285Y-120261000D01*
X134484285Y-120261000D02*
X134341428Y-120118142D01*
X134341428Y-120118142D02*
X134246190Y-120070523D01*
X134246190Y-120070523D02*
X134150952Y-120070523D01*
X134198571Y-120308619D02*
X134103333Y-120261000D01*
X134103333Y-120261000D02*
X134008095Y-120165761D01*
X134008095Y-120165761D02*
X133960476Y-119975285D01*
X133960476Y-119975285D02*
X133960476Y-119641952D01*
X133960476Y-119641952D02*
X134008095Y-119451476D01*
X134008095Y-119451476D02*
X134103333Y-119356238D01*
X134103333Y-119356238D02*
X134198571Y-119308619D01*
X134198571Y-119308619D02*
X134389047Y-119308619D01*
X134389047Y-119308619D02*
X134484285Y-119356238D01*
X134484285Y-119356238D02*
X134579523Y-119451476D01*
X134579523Y-119451476D02*
X134627142Y-119641952D01*
X134627142Y-119641952D02*
X134627142Y-119975285D01*
X134627142Y-119975285D02*
X134579523Y-120165761D01*
X134579523Y-120165761D02*
X134484285Y-120261000D01*
X134484285Y-120261000D02*
X134389047Y-120308619D01*
X134389047Y-120308619D02*
X134198571Y-120308619D01*
X135484285Y-119308619D02*
X135293809Y-119308619D01*
X135293809Y-119308619D02*
X135198571Y-119356238D01*
X135198571Y-119356238D02*
X135150952Y-119403857D01*
X135150952Y-119403857D02*
X135055714Y-119546714D01*
X135055714Y-119546714D02*
X135008095Y-119737190D01*
X135008095Y-119737190D02*
X135008095Y-120118142D01*
X135008095Y-120118142D02*
X135055714Y-120213380D01*
X135055714Y-120213380D02*
X135103333Y-120261000D01*
X135103333Y-120261000D02*
X135198571Y-120308619D01*
X135198571Y-120308619D02*
X135389047Y-120308619D01*
X135389047Y-120308619D02*
X135484285Y-120261000D01*
X135484285Y-120261000D02*
X135531904Y-120213380D01*
X135531904Y-120213380D02*
X135579523Y-120118142D01*
X135579523Y-120118142D02*
X135579523Y-119880047D01*
X135579523Y-119880047D02*
X135531904Y-119784809D01*
X135531904Y-119784809D02*
X135484285Y-119737190D01*
X135484285Y-119737190D02*
X135389047Y-119689571D01*
X135389047Y-119689571D02*
X135198571Y-119689571D01*
X135198571Y-119689571D02*
X135103333Y-119737190D01*
X135103333Y-119737190D02*
X135055714Y-119784809D01*
X135055714Y-119784809D02*
X135008095Y-119880047D01*
X93039048Y-118744666D02*
X93800953Y-118744666D01*
X124674761Y-120383857D02*
X124579523Y-120336238D01*
X124579523Y-120336238D02*
X124484285Y-120241000D01*
X124484285Y-120241000D02*
X124341428Y-120098142D01*
X124341428Y-120098142D02*
X124246190Y-120050523D01*
X124246190Y-120050523D02*
X124150952Y-120050523D01*
X124198571Y-120288619D02*
X124103333Y-120241000D01*
X124103333Y-120241000D02*
X124008095Y-120145761D01*
X124008095Y-120145761D02*
X123960476Y-119955285D01*
X123960476Y-119955285D02*
X123960476Y-119621952D01*
X123960476Y-119621952D02*
X124008095Y-119431476D01*
X124008095Y-119431476D02*
X124103333Y-119336238D01*
X124103333Y-119336238D02*
X124198571Y-119288619D01*
X124198571Y-119288619D02*
X124389047Y-119288619D01*
X124389047Y-119288619D02*
X124484285Y-119336238D01*
X124484285Y-119336238D02*
X124579523Y-119431476D01*
X124579523Y-119431476D02*
X124627142Y-119621952D01*
X124627142Y-119621952D02*
X124627142Y-119955285D01*
X124627142Y-119955285D02*
X124579523Y-120145761D01*
X124579523Y-120145761D02*
X124484285Y-120241000D01*
X124484285Y-120241000D02*
X124389047Y-120288619D01*
X124389047Y-120288619D02*
X124198571Y-120288619D01*
X125531904Y-119288619D02*
X125055714Y-119288619D01*
X125055714Y-119288619D02*
X125008095Y-119764809D01*
X125008095Y-119764809D02*
X125055714Y-119717190D01*
X125055714Y-119717190D02*
X125150952Y-119669571D01*
X125150952Y-119669571D02*
X125389047Y-119669571D01*
X125389047Y-119669571D02*
X125484285Y-119717190D01*
X125484285Y-119717190D02*
X125531904Y-119764809D01*
X125531904Y-119764809D02*
X125579523Y-119860047D01*
X125579523Y-119860047D02*
X125579523Y-120098142D01*
X125579523Y-120098142D02*
X125531904Y-120193380D01*
X125531904Y-120193380D02*
X125484285Y-120241000D01*
X125484285Y-120241000D02*
X125389047Y-120288619D01*
X125389047Y-120288619D02*
X125150952Y-120288619D01*
X125150952Y-120288619D02*
X125055714Y-120241000D01*
X125055714Y-120241000D02*
X125008095Y-120193380D01*
X145659048Y-118764666D02*
X146420953Y-118764666D01*
X146040000Y-119145619D02*
X146040000Y-118383714D01*
X103053048Y-118764666D02*
X103814953Y-118764666D01*
X144674761Y-120383857D02*
X144579523Y-120336238D01*
X144579523Y-120336238D02*
X144484285Y-120241000D01*
X144484285Y-120241000D02*
X144341428Y-120098142D01*
X144341428Y-120098142D02*
X144246190Y-120050523D01*
X144246190Y-120050523D02*
X144150952Y-120050523D01*
X144198571Y-120288619D02*
X144103333Y-120241000D01*
X144103333Y-120241000D02*
X144008095Y-120145761D01*
X144008095Y-120145761D02*
X143960476Y-119955285D01*
X143960476Y-119955285D02*
X143960476Y-119621952D01*
X143960476Y-119621952D02*
X144008095Y-119431476D01*
X144008095Y-119431476D02*
X144103333Y-119336238D01*
X144103333Y-119336238D02*
X144198571Y-119288619D01*
X144198571Y-119288619D02*
X144389047Y-119288619D01*
X144389047Y-119288619D02*
X144484285Y-119336238D01*
X144484285Y-119336238D02*
X144579523Y-119431476D01*
X144579523Y-119431476D02*
X144627142Y-119621952D01*
X144627142Y-119621952D02*
X144627142Y-119955285D01*
X144627142Y-119955285D02*
X144579523Y-120145761D01*
X144579523Y-120145761D02*
X144484285Y-120241000D01*
X144484285Y-120241000D02*
X144389047Y-120288619D01*
X144389047Y-120288619D02*
X144198571Y-120288619D01*
X144960476Y-119288619D02*
X145627142Y-119288619D01*
X145627142Y-119288619D02*
X145198571Y-120288619D01*
X157658571Y-99346964D02*
X157658571Y-98596964D01*
X157658571Y-98596964D02*
X157837142Y-98596964D01*
X157837142Y-98596964D02*
X157944285Y-98632678D01*
X157944285Y-98632678D02*
X158015714Y-98704107D01*
X158015714Y-98704107D02*
X158051428Y-98775535D01*
X158051428Y-98775535D02*
X158087142Y-98918392D01*
X158087142Y-98918392D02*
X158087142Y-99025535D01*
X158087142Y-99025535D02*
X158051428Y-99168392D01*
X158051428Y-99168392D02*
X158015714Y-99239821D01*
X158015714Y-99239821D02*
X157944285Y-99311250D01*
X157944285Y-99311250D02*
X157837142Y-99346964D01*
X157837142Y-99346964D02*
X157658571Y-99346964D01*
X158408571Y-99346964D02*
X158408571Y-98596964D01*
X158765714Y-99346964D02*
X158765714Y-98596964D01*
X158765714Y-98596964D02*
X159194285Y-99346964D01*
X159194285Y-99346964D02*
X159194285Y-98596964D01*
X157551428Y-106216964D02*
X157801428Y-106966964D01*
X157801428Y-106966964D02*
X158051428Y-106216964D01*
X158729999Y-106895535D02*
X158694285Y-106931250D01*
X158694285Y-106931250D02*
X158587142Y-106966964D01*
X158587142Y-106966964D02*
X158515714Y-106966964D01*
X158515714Y-106966964D02*
X158408571Y-106931250D01*
X158408571Y-106931250D02*
X158337142Y-106859821D01*
X158337142Y-106859821D02*
X158301428Y-106788392D01*
X158301428Y-106788392D02*
X158265714Y-106645535D01*
X158265714Y-106645535D02*
X158265714Y-106538392D01*
X158265714Y-106538392D02*
X158301428Y-106395535D01*
X158301428Y-106395535D02*
X158337142Y-106324107D01*
X158337142Y-106324107D02*
X158408571Y-106252678D01*
X158408571Y-106252678D02*
X158515714Y-106216964D01*
X158515714Y-106216964D02*
X158587142Y-106216964D01*
X158587142Y-106216964D02*
X158694285Y-106252678D01*
X158694285Y-106252678D02*
X158729999Y-106288392D01*
X159479999Y-106895535D02*
X159444285Y-106931250D01*
X159444285Y-106931250D02*
X159337142Y-106966964D01*
X159337142Y-106966964D02*
X159265714Y-106966964D01*
X159265714Y-106966964D02*
X159158571Y-106931250D01*
X159158571Y-106931250D02*
X159087142Y-106859821D01*
X159087142Y-106859821D02*
X159051428Y-106788392D01*
X159051428Y-106788392D02*
X159015714Y-106645535D01*
X159015714Y-106645535D02*
X159015714Y-106538392D01*
X159015714Y-106538392D02*
X159051428Y-106395535D01*
X159051428Y-106395535D02*
X159087142Y-106324107D01*
X159087142Y-106324107D02*
X159158571Y-106252678D01*
X159158571Y-106252678D02*
X159265714Y-106216964D01*
X159265714Y-106216964D02*
X159337142Y-106216964D01*
X159337142Y-106216964D02*
X159444285Y-106252678D01*
X159444285Y-106252678D02*
X159479999Y-106288392D01*
X94594761Y-120363857D02*
X94499523Y-120316238D01*
X94499523Y-120316238D02*
X94404285Y-120221000D01*
X94404285Y-120221000D02*
X94261428Y-120078142D01*
X94261428Y-120078142D02*
X94166190Y-120030523D01*
X94166190Y-120030523D02*
X94070952Y-120030523D01*
X94118571Y-120268619D02*
X94023333Y-120221000D01*
X94023333Y-120221000D02*
X93928095Y-120125761D01*
X93928095Y-120125761D02*
X93880476Y-119935285D01*
X93880476Y-119935285D02*
X93880476Y-119601952D01*
X93880476Y-119601952D02*
X93928095Y-119411476D01*
X93928095Y-119411476D02*
X94023333Y-119316238D01*
X94023333Y-119316238D02*
X94118571Y-119268619D01*
X94118571Y-119268619D02*
X94309047Y-119268619D01*
X94309047Y-119268619D02*
X94404285Y-119316238D01*
X94404285Y-119316238D02*
X94499523Y-119411476D01*
X94499523Y-119411476D02*
X94547142Y-119601952D01*
X94547142Y-119601952D02*
X94547142Y-119935285D01*
X94547142Y-119935285D02*
X94499523Y-120125761D01*
X94499523Y-120125761D02*
X94404285Y-120221000D01*
X94404285Y-120221000D02*
X94309047Y-120268619D01*
X94309047Y-120268619D02*
X94118571Y-120268619D01*
X94928095Y-119363857D02*
X94975714Y-119316238D01*
X94975714Y-119316238D02*
X95070952Y-119268619D01*
X95070952Y-119268619D02*
X95309047Y-119268619D01*
X95309047Y-119268619D02*
X95404285Y-119316238D01*
X95404285Y-119316238D02*
X95451904Y-119363857D01*
X95451904Y-119363857D02*
X95499523Y-119459095D01*
X95499523Y-119459095D02*
X95499523Y-119554333D01*
X95499523Y-119554333D02*
X95451904Y-119697190D01*
X95451904Y-119697190D02*
X94880476Y-120268619D01*
X94880476Y-120268619D02*
X95499523Y-120268619D01*
X118072048Y-118744666D02*
X118833953Y-118744666D01*
X118453000Y-119125619D02*
X118453000Y-118363714D01*
X138072048Y-118784666D02*
X138833953Y-118784666D01*
X138453000Y-119165619D02*
X138453000Y-118403714D01*
X158015714Y-101886964D02*
X157658571Y-101886964D01*
X157658571Y-101886964D02*
X157658571Y-101136964D01*
X158694285Y-101815535D02*
X158658571Y-101851250D01*
X158658571Y-101851250D02*
X158551428Y-101886964D01*
X158551428Y-101886964D02*
X158480000Y-101886964D01*
X158480000Y-101886964D02*
X158372857Y-101851250D01*
X158372857Y-101851250D02*
X158301428Y-101779821D01*
X158301428Y-101779821D02*
X158265714Y-101708392D01*
X158265714Y-101708392D02*
X158230000Y-101565535D01*
X158230000Y-101565535D02*
X158230000Y-101458392D01*
X158230000Y-101458392D02*
X158265714Y-101315535D01*
X158265714Y-101315535D02*
X158301428Y-101244107D01*
X158301428Y-101244107D02*
X158372857Y-101172678D01*
X158372857Y-101172678D02*
X158480000Y-101136964D01*
X158480000Y-101136964D02*
X158551428Y-101136964D01*
X158551428Y-101136964D02*
X158658571Y-101172678D01*
X158658571Y-101172678D02*
X158694285Y-101208392D01*
X159015714Y-101886964D02*
X159015714Y-101136964D01*
X159015714Y-101494107D02*
X159444285Y-101494107D01*
X159444285Y-101886964D02*
X159444285Y-101136964D01*
X156273428Y-95778678D02*
X156202000Y-95742964D01*
X156202000Y-95742964D02*
X156094857Y-95742964D01*
X156094857Y-95742964D02*
X155987714Y-95778678D01*
X155987714Y-95778678D02*
X155916285Y-95850107D01*
X155916285Y-95850107D02*
X155880571Y-95921535D01*
X155880571Y-95921535D02*
X155844857Y-96064392D01*
X155844857Y-96064392D02*
X155844857Y-96171535D01*
X155844857Y-96171535D02*
X155880571Y-96314392D01*
X155880571Y-96314392D02*
X155916285Y-96385821D01*
X155916285Y-96385821D02*
X155987714Y-96457250D01*
X155987714Y-96457250D02*
X156094857Y-96492964D01*
X156094857Y-96492964D02*
X156166285Y-96492964D01*
X156166285Y-96492964D02*
X156273428Y-96457250D01*
X156273428Y-96457250D02*
X156309142Y-96421535D01*
X156309142Y-96421535D02*
X156309142Y-96171535D01*
X156309142Y-96171535D02*
X156166285Y-96171535D01*
X156630571Y-96492964D02*
X156630571Y-95742964D01*
X156630571Y-95742964D02*
X157059142Y-96492964D01*
X157059142Y-96492964D02*
X157059142Y-95742964D01*
X157416285Y-96492964D02*
X157416285Y-95742964D01*
X157416285Y-95742964D02*
X157594856Y-95742964D01*
X157594856Y-95742964D02*
X157701999Y-95778678D01*
X157701999Y-95778678D02*
X157773428Y-95850107D01*
X157773428Y-95850107D02*
X157809142Y-95921535D01*
X157809142Y-95921535D02*
X157844856Y-96064392D01*
X157844856Y-96064392D02*
X157844856Y-96171535D01*
X157844856Y-96171535D02*
X157809142Y-96314392D01*
X157809142Y-96314392D02*
X157773428Y-96385821D01*
X157773428Y-96385821D02*
X157701999Y-96457250D01*
X157701999Y-96457250D02*
X157594856Y-96492964D01*
X157594856Y-96492964D02*
X157416285Y-96492964D01*
X84721761Y-120383857D02*
X84626523Y-120336238D01*
X84626523Y-120336238D02*
X84531285Y-120241000D01*
X84531285Y-120241000D02*
X84388428Y-120098142D01*
X84388428Y-120098142D02*
X84293190Y-120050523D01*
X84293190Y-120050523D02*
X84197952Y-120050523D01*
X84245571Y-120288619D02*
X84150333Y-120241000D01*
X84150333Y-120241000D02*
X84055095Y-120145761D01*
X84055095Y-120145761D02*
X84007476Y-119955285D01*
X84007476Y-119955285D02*
X84007476Y-119621952D01*
X84007476Y-119621952D02*
X84055095Y-119431476D01*
X84055095Y-119431476D02*
X84150333Y-119336238D01*
X84150333Y-119336238D02*
X84245571Y-119288619D01*
X84245571Y-119288619D02*
X84436047Y-119288619D01*
X84436047Y-119288619D02*
X84531285Y-119336238D01*
X84531285Y-119336238D02*
X84626523Y-119431476D01*
X84626523Y-119431476D02*
X84674142Y-119621952D01*
X84674142Y-119621952D02*
X84674142Y-119955285D01*
X84674142Y-119955285D02*
X84626523Y-120145761D01*
X84626523Y-120145761D02*
X84531285Y-120241000D01*
X84531285Y-120241000D02*
X84436047Y-120288619D01*
X84436047Y-120288619D02*
X84245571Y-120288619D01*
X85626523Y-120288619D02*
X85055095Y-120288619D01*
X85340809Y-120288619D02*
X85340809Y-119288619D01*
X85340809Y-119288619D02*
X85245571Y-119431476D01*
X85245571Y-119431476D02*
X85150333Y-119526714D01*
X85150333Y-119526714D02*
X85055095Y-119574333D01*
X128072048Y-118764666D02*
X128833953Y-118764666D01*
X128453000Y-119145619D02*
X128453000Y-118383714D01*
X64999999Y-89346964D02*
X64571428Y-89346964D01*
X64785713Y-89346964D02*
X64785713Y-88596964D01*
X64785713Y-88596964D02*
X64714285Y-88704107D01*
X64714285Y-88704107D02*
X64642856Y-88775535D01*
X64642856Y-88775535D02*
X64571428Y-88811250D01*
X65285714Y-88668392D02*
X65321428Y-88632678D01*
X65321428Y-88632678D02*
X65392857Y-88596964D01*
X65392857Y-88596964D02*
X65571428Y-88596964D01*
X65571428Y-88596964D02*
X65642857Y-88632678D01*
X65642857Y-88632678D02*
X65678571Y-88668392D01*
X65678571Y-88668392D02*
X65714285Y-88739821D01*
X65714285Y-88739821D02*
X65714285Y-88811250D01*
X65714285Y-88811250D02*
X65678571Y-88918392D01*
X65678571Y-88918392D02*
X65249999Y-89346964D01*
X65249999Y-89346964D02*
X65714285Y-89346964D01*
X65928571Y-88596964D02*
X66178571Y-89346964D01*
X66178571Y-89346964D02*
X66428571Y-88596964D01*
X63245999Y-104355535D02*
X63210285Y-104391250D01*
X63210285Y-104391250D02*
X63103142Y-104426964D01*
X63103142Y-104426964D02*
X63031714Y-104426964D01*
X63031714Y-104426964D02*
X62924571Y-104391250D01*
X62924571Y-104391250D02*
X62853142Y-104319821D01*
X62853142Y-104319821D02*
X62817428Y-104248392D01*
X62817428Y-104248392D02*
X62781714Y-104105535D01*
X62781714Y-104105535D02*
X62781714Y-103998392D01*
X62781714Y-103998392D02*
X62817428Y-103855535D01*
X62817428Y-103855535D02*
X62853142Y-103784107D01*
X62853142Y-103784107D02*
X62924571Y-103712678D01*
X62924571Y-103712678D02*
X63031714Y-103676964D01*
X63031714Y-103676964D02*
X63103142Y-103676964D01*
X63103142Y-103676964D02*
X63210285Y-103712678D01*
X63210285Y-103712678D02*
X63245999Y-103748392D01*
X63924571Y-104426964D02*
X63567428Y-104426964D01*
X63567428Y-104426964D02*
X63567428Y-103676964D01*
X64174571Y-104426964D02*
X64174571Y-103676964D01*
X64603142Y-104426964D02*
X64281714Y-103998392D01*
X64603142Y-103676964D02*
X64174571Y-104105535D01*
X125659048Y-118764666D02*
X126420953Y-118764666D01*
X126040000Y-119145619D02*
X126040000Y-118383714D01*
X143119048Y-118764666D02*
X143880953Y-118764666D01*
X148072048Y-118764666D02*
X148833953Y-118764666D01*
X148453000Y-119145619D02*
X148453000Y-118383714D01*
X64999999Y-91846964D02*
X64571428Y-91846964D01*
X64785713Y-91846964D02*
X64785713Y-91096964D01*
X64785713Y-91096964D02*
X64714285Y-91204107D01*
X64714285Y-91204107D02*
X64642856Y-91275535D01*
X64642856Y-91275535D02*
X64571428Y-91311250D01*
X65285714Y-91168392D02*
X65321428Y-91132678D01*
X65321428Y-91132678D02*
X65392857Y-91096964D01*
X65392857Y-91096964D02*
X65571428Y-91096964D01*
X65571428Y-91096964D02*
X65642857Y-91132678D01*
X65642857Y-91132678D02*
X65678571Y-91168392D01*
X65678571Y-91168392D02*
X65714285Y-91239821D01*
X65714285Y-91239821D02*
X65714285Y-91311250D01*
X65714285Y-91311250D02*
X65678571Y-91418392D01*
X65678571Y-91418392D02*
X65249999Y-91846964D01*
X65249999Y-91846964D02*
X65714285Y-91846964D01*
X65928571Y-91096964D02*
X66178571Y-91846964D01*
X66178571Y-91846964D02*
X66428571Y-91096964D01*
X138142857Y-85693928D02*
X138714285Y-85693928D01*
X138357142Y-85193928D02*
X138357142Y-86479642D01*
X138357142Y-86479642D02*
X138428571Y-86622500D01*
X138428571Y-86622500D02*
X138571428Y-86693928D01*
X138571428Y-86693928D02*
X138714285Y-86693928D01*
X139428571Y-86693928D02*
X139285714Y-86622500D01*
X139285714Y-86622500D02*
X139214285Y-86551071D01*
X139214285Y-86551071D02*
X139142857Y-86408214D01*
X139142857Y-86408214D02*
X139142857Y-85979642D01*
X139142857Y-85979642D02*
X139214285Y-85836785D01*
X139214285Y-85836785D02*
X139285714Y-85765357D01*
X139285714Y-85765357D02*
X139428571Y-85693928D01*
X139428571Y-85693928D02*
X139642857Y-85693928D01*
X139642857Y-85693928D02*
X139785714Y-85765357D01*
X139785714Y-85765357D02*
X139857143Y-85836785D01*
X139857143Y-85836785D02*
X139928571Y-85979642D01*
X139928571Y-85979642D02*
X139928571Y-86408214D01*
X139928571Y-86408214D02*
X139857143Y-86551071D01*
X139857143Y-86551071D02*
X139785714Y-86622500D01*
X139785714Y-86622500D02*
X139642857Y-86693928D01*
X139642857Y-86693928D02*
X139428571Y-86693928D01*
X141714285Y-85693928D02*
X141714285Y-86693928D01*
X141714285Y-85836785D02*
X141785714Y-85765357D01*
X141785714Y-85765357D02*
X141928571Y-85693928D01*
X141928571Y-85693928D02*
X142142857Y-85693928D01*
X142142857Y-85693928D02*
X142285714Y-85765357D01*
X142285714Y-85765357D02*
X142357143Y-85908214D01*
X142357143Y-85908214D02*
X142357143Y-86693928D01*
X143642857Y-86622500D02*
X143500000Y-86693928D01*
X143500000Y-86693928D02*
X143214286Y-86693928D01*
X143214286Y-86693928D02*
X143071428Y-86622500D01*
X143071428Y-86622500D02*
X143000000Y-86479642D01*
X143000000Y-86479642D02*
X143000000Y-85908214D01*
X143000000Y-85908214D02*
X143071428Y-85765357D01*
X143071428Y-85765357D02*
X143214286Y-85693928D01*
X143214286Y-85693928D02*
X143500000Y-85693928D01*
X143500000Y-85693928D02*
X143642857Y-85765357D01*
X143642857Y-85765357D02*
X143714286Y-85908214D01*
X143714286Y-85908214D02*
X143714286Y-86051071D01*
X143714286Y-86051071D02*
X143000000Y-86193928D01*
X144214285Y-86693928D02*
X145000000Y-85693928D01*
X144214285Y-85693928D02*
X145000000Y-86693928D01*
X145357143Y-85693928D02*
X145928571Y-85693928D01*
X145571428Y-85193928D02*
X145571428Y-86479642D01*
X145571428Y-86479642D02*
X145642857Y-86622500D01*
X145642857Y-86622500D02*
X145785714Y-86693928D01*
X145785714Y-86693928D02*
X145928571Y-86693928D01*
X147571428Y-86693928D02*
X147571428Y-85193928D01*
X147571428Y-85765357D02*
X147714286Y-85693928D01*
X147714286Y-85693928D02*
X148000000Y-85693928D01*
X148000000Y-85693928D02*
X148142857Y-85765357D01*
X148142857Y-85765357D02*
X148214286Y-85836785D01*
X148214286Y-85836785D02*
X148285714Y-85979642D01*
X148285714Y-85979642D02*
X148285714Y-86408214D01*
X148285714Y-86408214D02*
X148214286Y-86551071D01*
X148214286Y-86551071D02*
X148142857Y-86622500D01*
X148142857Y-86622500D02*
X148000000Y-86693928D01*
X148000000Y-86693928D02*
X147714286Y-86693928D01*
X147714286Y-86693928D02*
X147571428Y-86622500D01*
X149142857Y-86693928D02*
X149000000Y-86622500D01*
X149000000Y-86622500D02*
X148928571Y-86551071D01*
X148928571Y-86551071D02*
X148857143Y-86408214D01*
X148857143Y-86408214D02*
X148857143Y-85979642D01*
X148857143Y-85979642D02*
X148928571Y-85836785D01*
X148928571Y-85836785D02*
X149000000Y-85765357D01*
X149000000Y-85765357D02*
X149142857Y-85693928D01*
X149142857Y-85693928D02*
X149357143Y-85693928D01*
X149357143Y-85693928D02*
X149500000Y-85765357D01*
X149500000Y-85765357D02*
X149571429Y-85836785D01*
X149571429Y-85836785D02*
X149642857Y-85979642D01*
X149642857Y-85979642D02*
X149642857Y-86408214D01*
X149642857Y-86408214D02*
X149571429Y-86551071D01*
X149571429Y-86551071D02*
X149500000Y-86622500D01*
X149500000Y-86622500D02*
X149357143Y-86693928D01*
X149357143Y-86693928D02*
X149142857Y-86693928D01*
X150928572Y-86693928D02*
X150928572Y-85908214D01*
X150928572Y-85908214D02*
X150857143Y-85765357D01*
X150857143Y-85765357D02*
X150714286Y-85693928D01*
X150714286Y-85693928D02*
X150428572Y-85693928D01*
X150428572Y-85693928D02*
X150285714Y-85765357D01*
X150928572Y-86622500D02*
X150785714Y-86693928D01*
X150785714Y-86693928D02*
X150428572Y-86693928D01*
X150428572Y-86693928D02*
X150285714Y-86622500D01*
X150285714Y-86622500D02*
X150214286Y-86479642D01*
X150214286Y-86479642D02*
X150214286Y-86336785D01*
X150214286Y-86336785D02*
X150285714Y-86193928D01*
X150285714Y-86193928D02*
X150428572Y-86122500D01*
X150428572Y-86122500D02*
X150785714Y-86122500D01*
X150785714Y-86122500D02*
X150928572Y-86051071D01*
X151642857Y-86693928D02*
X151642857Y-85693928D01*
X151642857Y-85979642D02*
X151714286Y-85836785D01*
X151714286Y-85836785D02*
X151785715Y-85765357D01*
X151785715Y-85765357D02*
X151928572Y-85693928D01*
X151928572Y-85693928D02*
X152071429Y-85693928D01*
X153214286Y-86693928D02*
X153214286Y-85193928D01*
X153214286Y-86622500D02*
X153071428Y-86693928D01*
X153071428Y-86693928D02*
X152785714Y-86693928D01*
X152785714Y-86693928D02*
X152642857Y-86622500D01*
X152642857Y-86622500D02*
X152571428Y-86551071D01*
X152571428Y-86551071D02*
X152500000Y-86408214D01*
X152500000Y-86408214D02*
X152500000Y-85979642D01*
X152500000Y-85979642D02*
X152571428Y-85836785D01*
X152571428Y-85836785D02*
X152642857Y-85765357D01*
X152642857Y-85765357D02*
X152785714Y-85693928D01*
X152785714Y-85693928D02*
X153071428Y-85693928D01*
X153071428Y-85693928D02*
X153214286Y-85765357D01*
X115659048Y-118744666D02*
X116420953Y-118744666D01*
X116040000Y-119125619D02*
X116040000Y-118363714D01*
X123119048Y-118764666D02*
X123880953Y-118764666D01*
X108006048Y-118764666D02*
X108767953Y-118764666D01*
X108387000Y-119145619D02*
X108387000Y-118383714D01*
X63392857Y-101886964D02*
X63035714Y-101886964D01*
X63035714Y-101886964D02*
X63035714Y-101136964D01*
X64071428Y-101815535D02*
X64035714Y-101851250D01*
X64035714Y-101851250D02*
X63928571Y-101886964D01*
X63928571Y-101886964D02*
X63857143Y-101886964D01*
X63857143Y-101886964D02*
X63750000Y-101851250D01*
X63750000Y-101851250D02*
X63678571Y-101779821D01*
X63678571Y-101779821D02*
X63642857Y-101708392D01*
X63642857Y-101708392D02*
X63607143Y-101565535D01*
X63607143Y-101565535D02*
X63607143Y-101458392D01*
X63607143Y-101458392D02*
X63642857Y-101315535D01*
X63642857Y-101315535D02*
X63678571Y-101244107D01*
X63678571Y-101244107D02*
X63750000Y-101172678D01*
X63750000Y-101172678D02*
X63857143Y-101136964D01*
X63857143Y-101136964D02*
X63928571Y-101136964D01*
X63928571Y-101136964D02*
X64035714Y-101172678D01*
X64035714Y-101172678D02*
X64071428Y-101208392D01*
X64392857Y-101886964D02*
X64392857Y-101136964D01*
X64392857Y-101494107D02*
X64821428Y-101494107D01*
X64821428Y-101886964D02*
X64821428Y-101136964D01*
X157833142Y-104355535D02*
X157797428Y-104391250D01*
X157797428Y-104391250D02*
X157690285Y-104426964D01*
X157690285Y-104426964D02*
X157618857Y-104426964D01*
X157618857Y-104426964D02*
X157511714Y-104391250D01*
X157511714Y-104391250D02*
X157440285Y-104319821D01*
X157440285Y-104319821D02*
X157404571Y-104248392D01*
X157404571Y-104248392D02*
X157368857Y-104105535D01*
X157368857Y-104105535D02*
X157368857Y-103998392D01*
X157368857Y-103998392D02*
X157404571Y-103855535D01*
X157404571Y-103855535D02*
X157440285Y-103784107D01*
X157440285Y-103784107D02*
X157511714Y-103712678D01*
X157511714Y-103712678D02*
X157618857Y-103676964D01*
X157618857Y-103676964D02*
X157690285Y-103676964D01*
X157690285Y-103676964D02*
X157797428Y-103712678D01*
X157797428Y-103712678D02*
X157833142Y-103748392D01*
X158511714Y-104426964D02*
X158154571Y-104426964D01*
X158154571Y-104426964D02*
X158154571Y-103676964D01*
X158761714Y-104426964D02*
X158761714Y-103676964D01*
X159190285Y-104426964D02*
X158868857Y-103998392D01*
X159190285Y-103676964D02*
X158761714Y-104105535D01*
X158051428Y-108919678D02*
X157980000Y-108883964D01*
X157980000Y-108883964D02*
X157872857Y-108883964D01*
X157872857Y-108883964D02*
X157765714Y-108919678D01*
X157765714Y-108919678D02*
X157694285Y-108991107D01*
X157694285Y-108991107D02*
X157658571Y-109062535D01*
X157658571Y-109062535D02*
X157622857Y-109205392D01*
X157622857Y-109205392D02*
X157622857Y-109312535D01*
X157622857Y-109312535D02*
X157658571Y-109455392D01*
X157658571Y-109455392D02*
X157694285Y-109526821D01*
X157694285Y-109526821D02*
X157765714Y-109598250D01*
X157765714Y-109598250D02*
X157872857Y-109633964D01*
X157872857Y-109633964D02*
X157944285Y-109633964D01*
X157944285Y-109633964D02*
X158051428Y-109598250D01*
X158051428Y-109598250D02*
X158087142Y-109562535D01*
X158087142Y-109562535D02*
X158087142Y-109312535D01*
X158087142Y-109312535D02*
X157944285Y-109312535D01*
X158408571Y-109633964D02*
X158408571Y-108883964D01*
X158408571Y-108883964D02*
X158837142Y-109633964D01*
X158837142Y-109633964D02*
X158837142Y-108883964D01*
X159194285Y-109633964D02*
X159194285Y-108883964D01*
X159194285Y-108883964D02*
X159372856Y-108883964D01*
X159372856Y-108883964D02*
X159479999Y-108919678D01*
X159479999Y-108919678D02*
X159551428Y-108991107D01*
X159551428Y-108991107D02*
X159587142Y-109062535D01*
X159587142Y-109062535D02*
X159622856Y-109205392D01*
X159622856Y-109205392D02*
X159622856Y-109312535D01*
X159622856Y-109312535D02*
X159587142Y-109455392D01*
X159587142Y-109455392D02*
X159551428Y-109526821D01*
X159551428Y-109526821D02*
X159479999Y-109598250D01*
X159479999Y-109598250D02*
X159372856Y-109633964D01*
X159372856Y-109633964D02*
X159194285Y-109633964D01*
X90833333Y-89962619D02*
X90500000Y-89486428D01*
X90261905Y-89962619D02*
X90261905Y-88962619D01*
X90261905Y-88962619D02*
X90642857Y-88962619D01*
X90642857Y-88962619D02*
X90738095Y-89010238D01*
X90738095Y-89010238D02*
X90785714Y-89057857D01*
X90785714Y-89057857D02*
X90833333Y-89153095D01*
X90833333Y-89153095D02*
X90833333Y-89295952D01*
X90833333Y-89295952D02*
X90785714Y-89391190D01*
X90785714Y-89391190D02*
X90738095Y-89438809D01*
X90738095Y-89438809D02*
X90642857Y-89486428D01*
X90642857Y-89486428D02*
X90261905Y-89486428D01*
X91309524Y-89962619D02*
X91500000Y-89962619D01*
X91500000Y-89962619D02*
X91595238Y-89915000D01*
X91595238Y-89915000D02*
X91642857Y-89867380D01*
X91642857Y-89867380D02*
X91738095Y-89724523D01*
X91738095Y-89724523D02*
X91785714Y-89534047D01*
X91785714Y-89534047D02*
X91785714Y-89153095D01*
X91785714Y-89153095D02*
X91738095Y-89057857D01*
X91738095Y-89057857D02*
X91690476Y-89010238D01*
X91690476Y-89010238D02*
X91595238Y-88962619D01*
X91595238Y-88962619D02*
X91404762Y-88962619D01*
X91404762Y-88962619D02*
X91309524Y-89010238D01*
X91309524Y-89010238D02*
X91261905Y-89057857D01*
X91261905Y-89057857D02*
X91214286Y-89153095D01*
X91214286Y-89153095D02*
X91214286Y-89391190D01*
X91214286Y-89391190D02*
X91261905Y-89486428D01*
X91261905Y-89486428D02*
X91309524Y-89534047D01*
X91309524Y-89534047D02*
X91404762Y-89581666D01*
X91404762Y-89581666D02*
X91595238Y-89581666D01*
X91595238Y-89581666D02*
X91690476Y-89534047D01*
X91690476Y-89534047D02*
X91738095Y-89486428D01*
X91738095Y-89486428D02*
X91785714Y-89391190D01*
X85112619Y-100142857D02*
X84636428Y-100476190D01*
X85112619Y-100714285D02*
X84112619Y-100714285D01*
X84112619Y-100714285D02*
X84112619Y-100333333D01*
X84112619Y-100333333D02*
X84160238Y-100238095D01*
X84160238Y-100238095D02*
X84207857Y-100190476D01*
X84207857Y-100190476D02*
X84303095Y-100142857D01*
X84303095Y-100142857D02*
X84445952Y-100142857D01*
X84445952Y-100142857D02*
X84541190Y-100190476D01*
X84541190Y-100190476D02*
X84588809Y-100238095D01*
X84588809Y-100238095D02*
X84636428Y-100333333D01*
X84636428Y-100333333D02*
X84636428Y-100714285D01*
X85112619Y-99190476D02*
X85112619Y-99761904D01*
X85112619Y-99476190D02*
X84112619Y-99476190D01*
X84112619Y-99476190D02*
X84255476Y-99571428D01*
X84255476Y-99571428D02*
X84350714Y-99666666D01*
X84350714Y-99666666D02*
X84398333Y-99761904D01*
X85112619Y-98238095D02*
X85112619Y-98809523D01*
X85112619Y-98523809D02*
X84112619Y-98523809D01*
X84112619Y-98523809D02*
X84255476Y-98619047D01*
X84255476Y-98619047D02*
X84350714Y-98714285D01*
X84350714Y-98714285D02*
X84398333Y-98809523D01*
X145112619Y-100142857D02*
X144636428Y-100476190D01*
X145112619Y-100714285D02*
X144112619Y-100714285D01*
X144112619Y-100714285D02*
X144112619Y-100333333D01*
X144112619Y-100333333D02*
X144160238Y-100238095D01*
X144160238Y-100238095D02*
X144207857Y-100190476D01*
X144207857Y-100190476D02*
X144303095Y-100142857D01*
X144303095Y-100142857D02*
X144445952Y-100142857D01*
X144445952Y-100142857D02*
X144541190Y-100190476D01*
X144541190Y-100190476D02*
X144588809Y-100238095D01*
X144588809Y-100238095D02*
X144636428Y-100333333D01*
X144636428Y-100333333D02*
X144636428Y-100714285D01*
X145112619Y-99190476D02*
X145112619Y-99761904D01*
X145112619Y-99476190D02*
X144112619Y-99476190D01*
X144112619Y-99476190D02*
X144255476Y-99571428D01*
X144255476Y-99571428D02*
X144350714Y-99666666D01*
X144350714Y-99666666D02*
X144398333Y-99761904D01*
X144112619Y-98857142D02*
X144112619Y-98190476D01*
X144112619Y-98190476D02*
X145112619Y-98619047D01*
X137833333Y-95462619D02*
X137500000Y-94986428D01*
X137261905Y-95462619D02*
X137261905Y-94462619D01*
X137261905Y-94462619D02*
X137642857Y-94462619D01*
X137642857Y-94462619D02*
X137738095Y-94510238D01*
X137738095Y-94510238D02*
X137785714Y-94557857D01*
X137785714Y-94557857D02*
X137833333Y-94653095D01*
X137833333Y-94653095D02*
X137833333Y-94795952D01*
X137833333Y-94795952D02*
X137785714Y-94891190D01*
X137785714Y-94891190D02*
X137738095Y-94938809D01*
X137738095Y-94938809D02*
X137642857Y-94986428D01*
X137642857Y-94986428D02*
X137261905Y-94986428D01*
X138166667Y-94462619D02*
X138833333Y-94462619D01*
X138833333Y-94462619D02*
X138404762Y-95462619D01*
X147833333Y-95462619D02*
X147500000Y-94986428D01*
X147261905Y-95462619D02*
X147261905Y-94462619D01*
X147261905Y-94462619D02*
X147642857Y-94462619D01*
X147642857Y-94462619D02*
X147738095Y-94510238D01*
X147738095Y-94510238D02*
X147785714Y-94557857D01*
X147785714Y-94557857D02*
X147833333Y-94653095D01*
X147833333Y-94653095D02*
X147833333Y-94795952D01*
X147833333Y-94795952D02*
X147785714Y-94891190D01*
X147785714Y-94891190D02*
X147738095Y-94938809D01*
X147738095Y-94938809D02*
X147642857Y-94986428D01*
X147642857Y-94986428D02*
X147261905Y-94986428D01*
X148404762Y-94891190D02*
X148309524Y-94843571D01*
X148309524Y-94843571D02*
X148261905Y-94795952D01*
X148261905Y-94795952D02*
X148214286Y-94700714D01*
X148214286Y-94700714D02*
X148214286Y-94653095D01*
X148214286Y-94653095D02*
X148261905Y-94557857D01*
X148261905Y-94557857D02*
X148309524Y-94510238D01*
X148309524Y-94510238D02*
X148404762Y-94462619D01*
X148404762Y-94462619D02*
X148595238Y-94462619D01*
X148595238Y-94462619D02*
X148690476Y-94510238D01*
X148690476Y-94510238D02*
X148738095Y-94557857D01*
X148738095Y-94557857D02*
X148785714Y-94653095D01*
X148785714Y-94653095D02*
X148785714Y-94700714D01*
X148785714Y-94700714D02*
X148738095Y-94795952D01*
X148738095Y-94795952D02*
X148690476Y-94843571D01*
X148690476Y-94843571D02*
X148595238Y-94891190D01*
X148595238Y-94891190D02*
X148404762Y-94891190D01*
X148404762Y-94891190D02*
X148309524Y-94938809D01*
X148309524Y-94938809D02*
X148261905Y-94986428D01*
X148261905Y-94986428D02*
X148214286Y-95081666D01*
X148214286Y-95081666D02*
X148214286Y-95272142D01*
X148214286Y-95272142D02*
X148261905Y-95367380D01*
X148261905Y-95367380D02*
X148309524Y-95415000D01*
X148309524Y-95415000D02*
X148404762Y-95462619D01*
X148404762Y-95462619D02*
X148595238Y-95462619D01*
X148595238Y-95462619D02*
X148690476Y-95415000D01*
X148690476Y-95415000D02*
X148738095Y-95367380D01*
X148738095Y-95367380D02*
X148785714Y-95272142D01*
X148785714Y-95272142D02*
X148785714Y-95081666D01*
X148785714Y-95081666D02*
X148738095Y-94986428D01*
X148738095Y-94986428D02*
X148690476Y-94938809D01*
X148690476Y-94938809D02*
X148595238Y-94891190D01*
X99803333Y-92419876D02*
X99755714Y-92467496D01*
X99755714Y-92467496D02*
X99612857Y-92515115D01*
X99612857Y-92515115D02*
X99517619Y-92515115D01*
X99517619Y-92515115D02*
X99374762Y-92467496D01*
X99374762Y-92467496D02*
X99279524Y-92372257D01*
X99279524Y-92372257D02*
X99231905Y-92277019D01*
X99231905Y-92277019D02*
X99184286Y-92086543D01*
X99184286Y-92086543D02*
X99184286Y-91943686D01*
X99184286Y-91943686D02*
X99231905Y-91753210D01*
X99231905Y-91753210D02*
X99279524Y-91657972D01*
X99279524Y-91657972D02*
X99374762Y-91562734D01*
X99374762Y-91562734D02*
X99517619Y-91515115D01*
X99517619Y-91515115D02*
X99612857Y-91515115D01*
X99612857Y-91515115D02*
X99755714Y-91562734D01*
X99755714Y-91562734D02*
X99803333Y-91610353D01*
X100136667Y-91515115D02*
X100755714Y-91515115D01*
X100755714Y-91515115D02*
X100422381Y-91896067D01*
X100422381Y-91896067D02*
X100565238Y-91896067D01*
X100565238Y-91896067D02*
X100660476Y-91943686D01*
X100660476Y-91943686D02*
X100708095Y-91991305D01*
X100708095Y-91991305D02*
X100755714Y-92086543D01*
X100755714Y-92086543D02*
X100755714Y-92324638D01*
X100755714Y-92324638D02*
X100708095Y-92419876D01*
X100708095Y-92419876D02*
X100660476Y-92467496D01*
X100660476Y-92467496D02*
X100565238Y-92515115D01*
X100565238Y-92515115D02*
X100279524Y-92515115D01*
X100279524Y-92515115D02*
X100184286Y-92467496D01*
X100184286Y-92467496D02*
X100136667Y-92419876D01*
X77833333Y-95462619D02*
X77500000Y-94986428D01*
X77261905Y-95462619D02*
X77261905Y-94462619D01*
X77261905Y-94462619D02*
X77642857Y-94462619D01*
X77642857Y-94462619D02*
X77738095Y-94510238D01*
X77738095Y-94510238D02*
X77785714Y-94557857D01*
X77785714Y-94557857D02*
X77833333Y-94653095D01*
X77833333Y-94653095D02*
X77833333Y-94795952D01*
X77833333Y-94795952D02*
X77785714Y-94891190D01*
X77785714Y-94891190D02*
X77738095Y-94938809D01*
X77738095Y-94938809D02*
X77642857Y-94986428D01*
X77642857Y-94986428D02*
X77261905Y-94986428D01*
X78785714Y-95462619D02*
X78214286Y-95462619D01*
X78500000Y-95462619D02*
X78500000Y-94462619D01*
X78500000Y-94462619D02*
X78404762Y-94605476D01*
X78404762Y-94605476D02*
X78309524Y-94700714D01*
X78309524Y-94700714D02*
X78214286Y-94748333D01*
X135112619Y-100142857D02*
X134636428Y-100476190D01*
X135112619Y-100714285D02*
X134112619Y-100714285D01*
X134112619Y-100714285D02*
X134112619Y-100333333D01*
X134112619Y-100333333D02*
X134160238Y-100238095D01*
X134160238Y-100238095D02*
X134207857Y-100190476D01*
X134207857Y-100190476D02*
X134303095Y-100142857D01*
X134303095Y-100142857D02*
X134445952Y-100142857D01*
X134445952Y-100142857D02*
X134541190Y-100190476D01*
X134541190Y-100190476D02*
X134588809Y-100238095D01*
X134588809Y-100238095D02*
X134636428Y-100333333D01*
X134636428Y-100333333D02*
X134636428Y-100714285D01*
X135112619Y-99190476D02*
X135112619Y-99761904D01*
X135112619Y-99476190D02*
X134112619Y-99476190D01*
X134112619Y-99476190D02*
X134255476Y-99571428D01*
X134255476Y-99571428D02*
X134350714Y-99666666D01*
X134350714Y-99666666D02*
X134398333Y-99761904D01*
X134112619Y-98333333D02*
X134112619Y-98523809D01*
X134112619Y-98523809D02*
X134160238Y-98619047D01*
X134160238Y-98619047D02*
X134207857Y-98666666D01*
X134207857Y-98666666D02*
X134350714Y-98761904D01*
X134350714Y-98761904D02*
X134541190Y-98809523D01*
X134541190Y-98809523D02*
X134922142Y-98809523D01*
X134922142Y-98809523D02*
X135017380Y-98761904D01*
X135017380Y-98761904D02*
X135065000Y-98714285D01*
X135065000Y-98714285D02*
X135112619Y-98619047D01*
X135112619Y-98619047D02*
X135112619Y-98428571D01*
X135112619Y-98428571D02*
X135065000Y-98333333D01*
X135065000Y-98333333D02*
X135017380Y-98285714D01*
X135017380Y-98285714D02*
X134922142Y-98238095D01*
X134922142Y-98238095D02*
X134684047Y-98238095D01*
X134684047Y-98238095D02*
X134588809Y-98285714D01*
X134588809Y-98285714D02*
X134541190Y-98333333D01*
X134541190Y-98333333D02*
X134493571Y-98428571D01*
X134493571Y-98428571D02*
X134493571Y-98619047D01*
X134493571Y-98619047D02*
X134541190Y-98714285D01*
X134541190Y-98714285D02*
X134588809Y-98761904D01*
X134588809Y-98761904D02*
X134684047Y-98809523D01*
X102293333Y-92419876D02*
X102245714Y-92467496D01*
X102245714Y-92467496D02*
X102102857Y-92515115D01*
X102102857Y-92515115D02*
X102007619Y-92515115D01*
X102007619Y-92515115D02*
X101864762Y-92467496D01*
X101864762Y-92467496D02*
X101769524Y-92372257D01*
X101769524Y-92372257D02*
X101721905Y-92277019D01*
X101721905Y-92277019D02*
X101674286Y-92086543D01*
X101674286Y-92086543D02*
X101674286Y-91943686D01*
X101674286Y-91943686D02*
X101721905Y-91753210D01*
X101721905Y-91753210D02*
X101769524Y-91657972D01*
X101769524Y-91657972D02*
X101864762Y-91562734D01*
X101864762Y-91562734D02*
X102007619Y-91515115D01*
X102007619Y-91515115D02*
X102102857Y-91515115D01*
X102102857Y-91515115D02*
X102245714Y-91562734D01*
X102245714Y-91562734D02*
X102293333Y-91610353D01*
X103245714Y-92515115D02*
X102674286Y-92515115D01*
X102960000Y-92515115D02*
X102960000Y-91515115D01*
X102960000Y-91515115D02*
X102864762Y-91657972D01*
X102864762Y-91657972D02*
X102769524Y-91753210D01*
X102769524Y-91753210D02*
X102674286Y-91800829D01*
X87833333Y-95462619D02*
X87500000Y-94986428D01*
X87261905Y-95462619D02*
X87261905Y-94462619D01*
X87261905Y-94462619D02*
X87642857Y-94462619D01*
X87642857Y-94462619D02*
X87738095Y-94510238D01*
X87738095Y-94510238D02*
X87785714Y-94557857D01*
X87785714Y-94557857D02*
X87833333Y-94653095D01*
X87833333Y-94653095D02*
X87833333Y-94795952D01*
X87833333Y-94795952D02*
X87785714Y-94891190D01*
X87785714Y-94891190D02*
X87738095Y-94938809D01*
X87738095Y-94938809D02*
X87642857Y-94986428D01*
X87642857Y-94986428D02*
X87261905Y-94986428D01*
X88214286Y-94557857D02*
X88261905Y-94510238D01*
X88261905Y-94510238D02*
X88357143Y-94462619D01*
X88357143Y-94462619D02*
X88595238Y-94462619D01*
X88595238Y-94462619D02*
X88690476Y-94510238D01*
X88690476Y-94510238D02*
X88738095Y-94557857D01*
X88738095Y-94557857D02*
X88785714Y-94653095D01*
X88785714Y-94653095D02*
X88785714Y-94748333D01*
X88785714Y-94748333D02*
X88738095Y-94891190D01*
X88738095Y-94891190D02*
X88166667Y-95462619D01*
X88166667Y-95462619D02*
X88785714Y-95462619D01*
X107833333Y-95462619D02*
X107500000Y-94986428D01*
X107261905Y-95462619D02*
X107261905Y-94462619D01*
X107261905Y-94462619D02*
X107642857Y-94462619D01*
X107642857Y-94462619D02*
X107738095Y-94510238D01*
X107738095Y-94510238D02*
X107785714Y-94557857D01*
X107785714Y-94557857D02*
X107833333Y-94653095D01*
X107833333Y-94653095D02*
X107833333Y-94795952D01*
X107833333Y-94795952D02*
X107785714Y-94891190D01*
X107785714Y-94891190D02*
X107738095Y-94938809D01*
X107738095Y-94938809D02*
X107642857Y-94986428D01*
X107642857Y-94986428D02*
X107261905Y-94986428D01*
X108690476Y-94795952D02*
X108690476Y-95462619D01*
X108452381Y-94415000D02*
X108214286Y-95129285D01*
X108214286Y-95129285D02*
X108833333Y-95129285D01*
X141642619Y-105750594D02*
X140642619Y-105750594D01*
X140642619Y-105750594D02*
X140642619Y-105512499D01*
X140642619Y-105512499D02*
X140690238Y-105369642D01*
X140690238Y-105369642D02*
X140785476Y-105274404D01*
X140785476Y-105274404D02*
X140880714Y-105226785D01*
X140880714Y-105226785D02*
X141071190Y-105179166D01*
X141071190Y-105179166D02*
X141214047Y-105179166D01*
X141214047Y-105179166D02*
X141404523Y-105226785D01*
X141404523Y-105226785D02*
X141499761Y-105274404D01*
X141499761Y-105274404D02*
X141595000Y-105369642D01*
X141595000Y-105369642D02*
X141642619Y-105512499D01*
X141642619Y-105512499D02*
X141642619Y-105750594D01*
X141642619Y-104702975D02*
X141642619Y-104512499D01*
X141642619Y-104512499D02*
X141595000Y-104417261D01*
X141595000Y-104417261D02*
X141547380Y-104369642D01*
X141547380Y-104369642D02*
X141404523Y-104274404D01*
X141404523Y-104274404D02*
X141214047Y-104226785D01*
X141214047Y-104226785D02*
X140833095Y-104226785D01*
X140833095Y-104226785D02*
X140737857Y-104274404D01*
X140737857Y-104274404D02*
X140690238Y-104322023D01*
X140690238Y-104322023D02*
X140642619Y-104417261D01*
X140642619Y-104417261D02*
X140642619Y-104607737D01*
X140642619Y-104607737D02*
X140690238Y-104702975D01*
X140690238Y-104702975D02*
X140737857Y-104750594D01*
X140737857Y-104750594D02*
X140833095Y-104798213D01*
X140833095Y-104798213D02*
X141071190Y-104798213D01*
X141071190Y-104798213D02*
X141166428Y-104750594D01*
X141166428Y-104750594D02*
X141214047Y-104702975D01*
X141214047Y-104702975D02*
X141261666Y-104607737D01*
X141261666Y-104607737D02*
X141261666Y-104417261D01*
X141261666Y-104417261D02*
X141214047Y-104322023D01*
X141214047Y-104322023D02*
X141166428Y-104274404D01*
X141166428Y-104274404D02*
X141071190Y-104226785D01*
X101642619Y-105750594D02*
X100642619Y-105750594D01*
X100642619Y-105750594D02*
X100642619Y-105512499D01*
X100642619Y-105512499D02*
X100690238Y-105369642D01*
X100690238Y-105369642D02*
X100785476Y-105274404D01*
X100785476Y-105274404D02*
X100880714Y-105226785D01*
X100880714Y-105226785D02*
X101071190Y-105179166D01*
X101071190Y-105179166D02*
X101214047Y-105179166D01*
X101214047Y-105179166D02*
X101404523Y-105226785D01*
X101404523Y-105226785D02*
X101499761Y-105274404D01*
X101499761Y-105274404D02*
X101595000Y-105369642D01*
X101595000Y-105369642D02*
X101642619Y-105512499D01*
X101642619Y-105512499D02*
X101642619Y-105750594D01*
X100642619Y-104274404D02*
X100642619Y-104750594D01*
X100642619Y-104750594D02*
X101118809Y-104798213D01*
X101118809Y-104798213D02*
X101071190Y-104750594D01*
X101071190Y-104750594D02*
X101023571Y-104655356D01*
X101023571Y-104655356D02*
X101023571Y-104417261D01*
X101023571Y-104417261D02*
X101071190Y-104322023D01*
X101071190Y-104322023D02*
X101118809Y-104274404D01*
X101118809Y-104274404D02*
X101214047Y-104226785D01*
X101214047Y-104226785D02*
X101452142Y-104226785D01*
X101452142Y-104226785D02*
X101547380Y-104274404D01*
X101547380Y-104274404D02*
X101595000Y-104322023D01*
X101595000Y-104322023D02*
X101642619Y-104417261D01*
X101642619Y-104417261D02*
X101642619Y-104655356D01*
X101642619Y-104655356D02*
X101595000Y-104750594D01*
X101595000Y-104750594D02*
X101547380Y-104798213D01*
X121642619Y-105750594D02*
X120642619Y-105750594D01*
X120642619Y-105750594D02*
X120642619Y-105512499D01*
X120642619Y-105512499D02*
X120690238Y-105369642D01*
X120690238Y-105369642D02*
X120785476Y-105274404D01*
X120785476Y-105274404D02*
X120880714Y-105226785D01*
X120880714Y-105226785D02*
X121071190Y-105179166D01*
X121071190Y-105179166D02*
X121214047Y-105179166D01*
X121214047Y-105179166D02*
X121404523Y-105226785D01*
X121404523Y-105226785D02*
X121499761Y-105274404D01*
X121499761Y-105274404D02*
X121595000Y-105369642D01*
X121595000Y-105369642D02*
X121642619Y-105512499D01*
X121642619Y-105512499D02*
X121642619Y-105750594D01*
X120642619Y-104845832D02*
X120642619Y-104179166D01*
X120642619Y-104179166D02*
X121642619Y-104607737D01*
X111642619Y-105750594D02*
X110642619Y-105750594D01*
X110642619Y-105750594D02*
X110642619Y-105512499D01*
X110642619Y-105512499D02*
X110690238Y-105369642D01*
X110690238Y-105369642D02*
X110785476Y-105274404D01*
X110785476Y-105274404D02*
X110880714Y-105226785D01*
X110880714Y-105226785D02*
X111071190Y-105179166D01*
X111071190Y-105179166D02*
X111214047Y-105179166D01*
X111214047Y-105179166D02*
X111404523Y-105226785D01*
X111404523Y-105226785D02*
X111499761Y-105274404D01*
X111499761Y-105274404D02*
X111595000Y-105369642D01*
X111595000Y-105369642D02*
X111642619Y-105512499D01*
X111642619Y-105512499D02*
X111642619Y-105750594D01*
X110642619Y-104322023D02*
X110642619Y-104512499D01*
X110642619Y-104512499D02*
X110690238Y-104607737D01*
X110690238Y-104607737D02*
X110737857Y-104655356D01*
X110737857Y-104655356D02*
X110880714Y-104750594D01*
X110880714Y-104750594D02*
X111071190Y-104798213D01*
X111071190Y-104798213D02*
X111452142Y-104798213D01*
X111452142Y-104798213D02*
X111547380Y-104750594D01*
X111547380Y-104750594D02*
X111595000Y-104702975D01*
X111595000Y-104702975D02*
X111642619Y-104607737D01*
X111642619Y-104607737D02*
X111642619Y-104417261D01*
X111642619Y-104417261D02*
X111595000Y-104322023D01*
X111595000Y-104322023D02*
X111547380Y-104274404D01*
X111547380Y-104274404D02*
X111452142Y-104226785D01*
X111452142Y-104226785D02*
X111214047Y-104226785D01*
X111214047Y-104226785D02*
X111118809Y-104274404D01*
X111118809Y-104274404D02*
X111071190Y-104322023D01*
X111071190Y-104322023D02*
X111023571Y-104417261D01*
X111023571Y-104417261D02*
X111023571Y-104607737D01*
X111023571Y-104607737D02*
X111071190Y-104702975D01*
X111071190Y-104702975D02*
X111118809Y-104750594D01*
X111118809Y-104750594D02*
X111214047Y-104798213D01*
X95112619Y-100142857D02*
X94636428Y-100476190D01*
X95112619Y-100714285D02*
X94112619Y-100714285D01*
X94112619Y-100714285D02*
X94112619Y-100333333D01*
X94112619Y-100333333D02*
X94160238Y-100238095D01*
X94160238Y-100238095D02*
X94207857Y-100190476D01*
X94207857Y-100190476D02*
X94303095Y-100142857D01*
X94303095Y-100142857D02*
X94445952Y-100142857D01*
X94445952Y-100142857D02*
X94541190Y-100190476D01*
X94541190Y-100190476D02*
X94588809Y-100238095D01*
X94588809Y-100238095D02*
X94636428Y-100333333D01*
X94636428Y-100333333D02*
X94636428Y-100714285D01*
X95112619Y-99190476D02*
X95112619Y-99761904D01*
X95112619Y-99476190D02*
X94112619Y-99476190D01*
X94112619Y-99476190D02*
X94255476Y-99571428D01*
X94255476Y-99571428D02*
X94350714Y-99666666D01*
X94350714Y-99666666D02*
X94398333Y-99761904D01*
X94207857Y-98809523D02*
X94160238Y-98761904D01*
X94160238Y-98761904D02*
X94112619Y-98666666D01*
X94112619Y-98666666D02*
X94112619Y-98428571D01*
X94112619Y-98428571D02*
X94160238Y-98333333D01*
X94160238Y-98333333D02*
X94207857Y-98285714D01*
X94207857Y-98285714D02*
X94303095Y-98238095D01*
X94303095Y-98238095D02*
X94398333Y-98238095D01*
X94398333Y-98238095D02*
X94541190Y-98285714D01*
X94541190Y-98285714D02*
X95112619Y-98857142D01*
X95112619Y-98857142D02*
X95112619Y-98238095D01*
X115112619Y-100142857D02*
X114636428Y-100476190D01*
X115112619Y-100714285D02*
X114112619Y-100714285D01*
X114112619Y-100714285D02*
X114112619Y-100333333D01*
X114112619Y-100333333D02*
X114160238Y-100238095D01*
X114160238Y-100238095D02*
X114207857Y-100190476D01*
X114207857Y-100190476D02*
X114303095Y-100142857D01*
X114303095Y-100142857D02*
X114445952Y-100142857D01*
X114445952Y-100142857D02*
X114541190Y-100190476D01*
X114541190Y-100190476D02*
X114588809Y-100238095D01*
X114588809Y-100238095D02*
X114636428Y-100333333D01*
X114636428Y-100333333D02*
X114636428Y-100714285D01*
X115112619Y-99190476D02*
X115112619Y-99761904D01*
X115112619Y-99476190D02*
X114112619Y-99476190D01*
X114112619Y-99476190D02*
X114255476Y-99571428D01*
X114255476Y-99571428D02*
X114350714Y-99666666D01*
X114350714Y-99666666D02*
X114398333Y-99761904D01*
X114445952Y-98333333D02*
X115112619Y-98333333D01*
X114065000Y-98571428D02*
X114779285Y-98809523D01*
X114779285Y-98809523D02*
X114779285Y-98190476D01*
X127833333Y-95462619D02*
X127500000Y-94986428D01*
X127261905Y-95462619D02*
X127261905Y-94462619D01*
X127261905Y-94462619D02*
X127642857Y-94462619D01*
X127642857Y-94462619D02*
X127738095Y-94510238D01*
X127738095Y-94510238D02*
X127785714Y-94557857D01*
X127785714Y-94557857D02*
X127833333Y-94653095D01*
X127833333Y-94653095D02*
X127833333Y-94795952D01*
X127833333Y-94795952D02*
X127785714Y-94891190D01*
X127785714Y-94891190D02*
X127738095Y-94938809D01*
X127738095Y-94938809D02*
X127642857Y-94986428D01*
X127642857Y-94986428D02*
X127261905Y-94986428D01*
X128690476Y-94462619D02*
X128500000Y-94462619D01*
X128500000Y-94462619D02*
X128404762Y-94510238D01*
X128404762Y-94510238D02*
X128357143Y-94557857D01*
X128357143Y-94557857D02*
X128261905Y-94700714D01*
X128261905Y-94700714D02*
X128214286Y-94891190D01*
X128214286Y-94891190D02*
X128214286Y-95272142D01*
X128214286Y-95272142D02*
X128261905Y-95367380D01*
X128261905Y-95367380D02*
X128309524Y-95415000D01*
X128309524Y-95415000D02*
X128404762Y-95462619D01*
X128404762Y-95462619D02*
X128595238Y-95462619D01*
X128595238Y-95462619D02*
X128690476Y-95415000D01*
X128690476Y-95415000D02*
X128738095Y-95367380D01*
X128738095Y-95367380D02*
X128785714Y-95272142D01*
X128785714Y-95272142D02*
X128785714Y-95034047D01*
X128785714Y-95034047D02*
X128738095Y-94938809D01*
X128738095Y-94938809D02*
X128690476Y-94891190D01*
X128690476Y-94891190D02*
X128595238Y-94843571D01*
X128595238Y-94843571D02*
X128404762Y-94843571D01*
X128404762Y-94843571D02*
X128309524Y-94891190D01*
X128309524Y-94891190D02*
X128261905Y-94938809D01*
X128261905Y-94938809D02*
X128214286Y-95034047D01*
X75112619Y-100142857D02*
X74636428Y-100476190D01*
X75112619Y-100714285D02*
X74112619Y-100714285D01*
X74112619Y-100714285D02*
X74112619Y-100333333D01*
X74112619Y-100333333D02*
X74160238Y-100238095D01*
X74160238Y-100238095D02*
X74207857Y-100190476D01*
X74207857Y-100190476D02*
X74303095Y-100142857D01*
X74303095Y-100142857D02*
X74445952Y-100142857D01*
X74445952Y-100142857D02*
X74541190Y-100190476D01*
X74541190Y-100190476D02*
X74588809Y-100238095D01*
X74588809Y-100238095D02*
X74636428Y-100333333D01*
X74636428Y-100333333D02*
X74636428Y-100714285D01*
X75112619Y-99190476D02*
X75112619Y-99761904D01*
X75112619Y-99476190D02*
X74112619Y-99476190D01*
X74112619Y-99476190D02*
X74255476Y-99571428D01*
X74255476Y-99571428D02*
X74350714Y-99666666D01*
X74350714Y-99666666D02*
X74398333Y-99761904D01*
X74112619Y-98571428D02*
X74112619Y-98476190D01*
X74112619Y-98476190D02*
X74160238Y-98380952D01*
X74160238Y-98380952D02*
X74207857Y-98333333D01*
X74207857Y-98333333D02*
X74303095Y-98285714D01*
X74303095Y-98285714D02*
X74493571Y-98238095D01*
X74493571Y-98238095D02*
X74731666Y-98238095D01*
X74731666Y-98238095D02*
X74922142Y-98285714D01*
X74922142Y-98285714D02*
X75017380Y-98333333D01*
X75017380Y-98333333D02*
X75065000Y-98380952D01*
X75065000Y-98380952D02*
X75112619Y-98476190D01*
X75112619Y-98476190D02*
X75112619Y-98571428D01*
X75112619Y-98571428D02*
X75065000Y-98666666D01*
X75065000Y-98666666D02*
X75017380Y-98714285D01*
X75017380Y-98714285D02*
X74922142Y-98761904D01*
X74922142Y-98761904D02*
X74731666Y-98809523D01*
X74731666Y-98809523D02*
X74493571Y-98809523D01*
X74493571Y-98809523D02*
X74303095Y-98761904D01*
X74303095Y-98761904D02*
X74207857Y-98714285D01*
X74207857Y-98714285D02*
X74160238Y-98666666D01*
X74160238Y-98666666D02*
X74112619Y-98571428D01*
X97833333Y-95462619D02*
X97500000Y-94986428D01*
X97261905Y-95462619D02*
X97261905Y-94462619D01*
X97261905Y-94462619D02*
X97642857Y-94462619D01*
X97642857Y-94462619D02*
X97738095Y-94510238D01*
X97738095Y-94510238D02*
X97785714Y-94557857D01*
X97785714Y-94557857D02*
X97833333Y-94653095D01*
X97833333Y-94653095D02*
X97833333Y-94795952D01*
X97833333Y-94795952D02*
X97785714Y-94891190D01*
X97785714Y-94891190D02*
X97738095Y-94938809D01*
X97738095Y-94938809D02*
X97642857Y-94986428D01*
X97642857Y-94986428D02*
X97261905Y-94986428D01*
X98166667Y-94462619D02*
X98785714Y-94462619D01*
X98785714Y-94462619D02*
X98452381Y-94843571D01*
X98452381Y-94843571D02*
X98595238Y-94843571D01*
X98595238Y-94843571D02*
X98690476Y-94891190D01*
X98690476Y-94891190D02*
X98738095Y-94938809D01*
X98738095Y-94938809D02*
X98785714Y-95034047D01*
X98785714Y-95034047D02*
X98785714Y-95272142D01*
X98785714Y-95272142D02*
X98738095Y-95367380D01*
X98738095Y-95367380D02*
X98690476Y-95415000D01*
X98690476Y-95415000D02*
X98595238Y-95462619D01*
X98595238Y-95462619D02*
X98309524Y-95462619D01*
X98309524Y-95462619D02*
X98214286Y-95415000D01*
X98214286Y-95415000D02*
X98166667Y-95367380D01*
X131642619Y-105750594D02*
X130642619Y-105750594D01*
X130642619Y-105750594D02*
X130642619Y-105512499D01*
X130642619Y-105512499D02*
X130690238Y-105369642D01*
X130690238Y-105369642D02*
X130785476Y-105274404D01*
X130785476Y-105274404D02*
X130880714Y-105226785D01*
X130880714Y-105226785D02*
X131071190Y-105179166D01*
X131071190Y-105179166D02*
X131214047Y-105179166D01*
X131214047Y-105179166D02*
X131404523Y-105226785D01*
X131404523Y-105226785D02*
X131499761Y-105274404D01*
X131499761Y-105274404D02*
X131595000Y-105369642D01*
X131595000Y-105369642D02*
X131642619Y-105512499D01*
X131642619Y-105512499D02*
X131642619Y-105750594D01*
X131071190Y-104607737D02*
X131023571Y-104702975D01*
X131023571Y-104702975D02*
X130975952Y-104750594D01*
X130975952Y-104750594D02*
X130880714Y-104798213D01*
X130880714Y-104798213D02*
X130833095Y-104798213D01*
X130833095Y-104798213D02*
X130737857Y-104750594D01*
X130737857Y-104750594D02*
X130690238Y-104702975D01*
X130690238Y-104702975D02*
X130642619Y-104607737D01*
X130642619Y-104607737D02*
X130642619Y-104417261D01*
X130642619Y-104417261D02*
X130690238Y-104322023D01*
X130690238Y-104322023D02*
X130737857Y-104274404D01*
X130737857Y-104274404D02*
X130833095Y-104226785D01*
X130833095Y-104226785D02*
X130880714Y-104226785D01*
X130880714Y-104226785D02*
X130975952Y-104274404D01*
X130975952Y-104274404D02*
X131023571Y-104322023D01*
X131023571Y-104322023D02*
X131071190Y-104417261D01*
X131071190Y-104417261D02*
X131071190Y-104607737D01*
X131071190Y-104607737D02*
X131118809Y-104702975D01*
X131118809Y-104702975D02*
X131166428Y-104750594D01*
X131166428Y-104750594D02*
X131261666Y-104798213D01*
X131261666Y-104798213D02*
X131452142Y-104798213D01*
X131452142Y-104798213D02*
X131547380Y-104750594D01*
X131547380Y-104750594D02*
X131595000Y-104702975D01*
X131595000Y-104702975D02*
X131642619Y-104607737D01*
X131642619Y-104607737D02*
X131642619Y-104417261D01*
X131642619Y-104417261D02*
X131595000Y-104322023D01*
X131595000Y-104322023D02*
X131547380Y-104274404D01*
X131547380Y-104274404D02*
X131452142Y-104226785D01*
X131452142Y-104226785D02*
X131261666Y-104226785D01*
X131261666Y-104226785D02*
X131166428Y-104274404D01*
X131166428Y-104274404D02*
X131118809Y-104322023D01*
X131118809Y-104322023D02*
X131071190Y-104417261D01*
X105112619Y-100142857D02*
X104636428Y-100476190D01*
X105112619Y-100714285D02*
X104112619Y-100714285D01*
X104112619Y-100714285D02*
X104112619Y-100333333D01*
X104112619Y-100333333D02*
X104160238Y-100238095D01*
X104160238Y-100238095D02*
X104207857Y-100190476D01*
X104207857Y-100190476D02*
X104303095Y-100142857D01*
X104303095Y-100142857D02*
X104445952Y-100142857D01*
X104445952Y-100142857D02*
X104541190Y-100190476D01*
X104541190Y-100190476D02*
X104588809Y-100238095D01*
X104588809Y-100238095D02*
X104636428Y-100333333D01*
X104636428Y-100333333D02*
X104636428Y-100714285D01*
X105112619Y-99190476D02*
X105112619Y-99761904D01*
X105112619Y-99476190D02*
X104112619Y-99476190D01*
X104112619Y-99476190D02*
X104255476Y-99571428D01*
X104255476Y-99571428D02*
X104350714Y-99666666D01*
X104350714Y-99666666D02*
X104398333Y-99761904D01*
X104112619Y-98857142D02*
X104112619Y-98238095D01*
X104112619Y-98238095D02*
X104493571Y-98571428D01*
X104493571Y-98571428D02*
X104493571Y-98428571D01*
X104493571Y-98428571D02*
X104541190Y-98333333D01*
X104541190Y-98333333D02*
X104588809Y-98285714D01*
X104588809Y-98285714D02*
X104684047Y-98238095D01*
X104684047Y-98238095D02*
X104922142Y-98238095D01*
X104922142Y-98238095D02*
X105017380Y-98285714D01*
X105017380Y-98285714D02*
X105065000Y-98333333D01*
X105065000Y-98333333D02*
X105112619Y-98428571D01*
X105112619Y-98428571D02*
X105112619Y-98714285D01*
X105112619Y-98714285D02*
X105065000Y-98809523D01*
X105065000Y-98809523D02*
X105017380Y-98857142D01*
X112738095Y-89462619D02*
X112738095Y-90272142D01*
X112738095Y-90272142D02*
X112785714Y-90367380D01*
X112785714Y-90367380D02*
X112833333Y-90415000D01*
X112833333Y-90415000D02*
X112928571Y-90462619D01*
X112928571Y-90462619D02*
X113119047Y-90462619D01*
X113119047Y-90462619D02*
X113214285Y-90415000D01*
X113214285Y-90415000D02*
X113261904Y-90367380D01*
X113261904Y-90367380D02*
X113309523Y-90272142D01*
X113309523Y-90272142D02*
X113309523Y-89462619D01*
X114309523Y-90462619D02*
X113738095Y-90462619D01*
X114023809Y-90462619D02*
X114023809Y-89462619D01*
X114023809Y-89462619D02*
X113928571Y-89605476D01*
X113928571Y-89605476D02*
X113833333Y-89700714D01*
X113833333Y-89700714D02*
X113738095Y-89748333D01*
X117833333Y-95462619D02*
X117500000Y-94986428D01*
X117261905Y-95462619D02*
X117261905Y-94462619D01*
X117261905Y-94462619D02*
X117642857Y-94462619D01*
X117642857Y-94462619D02*
X117738095Y-94510238D01*
X117738095Y-94510238D02*
X117785714Y-94557857D01*
X117785714Y-94557857D02*
X117833333Y-94653095D01*
X117833333Y-94653095D02*
X117833333Y-94795952D01*
X117833333Y-94795952D02*
X117785714Y-94891190D01*
X117785714Y-94891190D02*
X117738095Y-94938809D01*
X117738095Y-94938809D02*
X117642857Y-94986428D01*
X117642857Y-94986428D02*
X117261905Y-94986428D01*
X118738095Y-94462619D02*
X118261905Y-94462619D01*
X118261905Y-94462619D02*
X118214286Y-94938809D01*
X118214286Y-94938809D02*
X118261905Y-94891190D01*
X118261905Y-94891190D02*
X118357143Y-94843571D01*
X118357143Y-94843571D02*
X118595238Y-94843571D01*
X118595238Y-94843571D02*
X118690476Y-94891190D01*
X118690476Y-94891190D02*
X118738095Y-94938809D01*
X118738095Y-94938809D02*
X118785714Y-95034047D01*
X118785714Y-95034047D02*
X118785714Y-95272142D01*
X118785714Y-95272142D02*
X118738095Y-95367380D01*
X118738095Y-95367380D02*
X118690476Y-95415000D01*
X118690476Y-95415000D02*
X118595238Y-95462619D01*
X118595238Y-95462619D02*
X118357143Y-95462619D01*
X118357143Y-95462619D02*
X118261905Y-95415000D01*
X118261905Y-95415000D02*
X118214286Y-95367380D01*
X97303333Y-92419876D02*
X97255714Y-92467496D01*
X97255714Y-92467496D02*
X97112857Y-92515115D01*
X97112857Y-92515115D02*
X97017619Y-92515115D01*
X97017619Y-92515115D02*
X96874762Y-92467496D01*
X96874762Y-92467496D02*
X96779524Y-92372257D01*
X96779524Y-92372257D02*
X96731905Y-92277019D01*
X96731905Y-92277019D02*
X96684286Y-92086543D01*
X96684286Y-92086543D02*
X96684286Y-91943686D01*
X96684286Y-91943686D02*
X96731905Y-91753210D01*
X96731905Y-91753210D02*
X96779524Y-91657972D01*
X96779524Y-91657972D02*
X96874762Y-91562734D01*
X96874762Y-91562734D02*
X97017619Y-91515115D01*
X97017619Y-91515115D02*
X97112857Y-91515115D01*
X97112857Y-91515115D02*
X97255714Y-91562734D01*
X97255714Y-91562734D02*
X97303333Y-91610353D01*
X98160476Y-91848448D02*
X98160476Y-92515115D01*
X97922381Y-91467496D02*
X97684286Y-92181781D01*
X97684286Y-92181781D02*
X98303333Y-92181781D01*
X106867380Y-85666666D02*
X106915000Y-85714285D01*
X106915000Y-85714285D02*
X106962619Y-85857142D01*
X106962619Y-85857142D02*
X106962619Y-85952380D01*
X106962619Y-85952380D02*
X106915000Y-86095237D01*
X106915000Y-86095237D02*
X106819761Y-86190475D01*
X106819761Y-86190475D02*
X106724523Y-86238094D01*
X106724523Y-86238094D02*
X106534047Y-86285713D01*
X106534047Y-86285713D02*
X106391190Y-86285713D01*
X106391190Y-86285713D02*
X106200714Y-86238094D01*
X106200714Y-86238094D02*
X106105476Y-86190475D01*
X106105476Y-86190475D02*
X106010238Y-86095237D01*
X106010238Y-86095237D02*
X105962619Y-85952380D01*
X105962619Y-85952380D02*
X105962619Y-85857142D01*
X105962619Y-85857142D02*
X106010238Y-85714285D01*
X106010238Y-85714285D02*
X106057857Y-85666666D01*
X106057857Y-85285713D02*
X106010238Y-85238094D01*
X106010238Y-85238094D02*
X105962619Y-85142856D01*
X105962619Y-85142856D02*
X105962619Y-84904761D01*
X105962619Y-84904761D02*
X106010238Y-84809523D01*
X106010238Y-84809523D02*
X106057857Y-84761904D01*
X106057857Y-84761904D02*
X106153095Y-84714285D01*
X106153095Y-84714285D02*
X106248333Y-84714285D01*
X106248333Y-84714285D02*
X106391190Y-84761904D01*
X106391190Y-84761904D02*
X106962619Y-85333332D01*
X106962619Y-85333332D02*
X106962619Y-84714285D01*
X125112619Y-100142857D02*
X124636428Y-100476190D01*
X125112619Y-100714285D02*
X124112619Y-100714285D01*
X124112619Y-100714285D02*
X124112619Y-100333333D01*
X124112619Y-100333333D02*
X124160238Y-100238095D01*
X124160238Y-100238095D02*
X124207857Y-100190476D01*
X124207857Y-100190476D02*
X124303095Y-100142857D01*
X124303095Y-100142857D02*
X124445952Y-100142857D01*
X124445952Y-100142857D02*
X124541190Y-100190476D01*
X124541190Y-100190476D02*
X124588809Y-100238095D01*
X124588809Y-100238095D02*
X124636428Y-100333333D01*
X124636428Y-100333333D02*
X124636428Y-100714285D01*
X125112619Y-99190476D02*
X125112619Y-99761904D01*
X125112619Y-99476190D02*
X124112619Y-99476190D01*
X124112619Y-99476190D02*
X124255476Y-99571428D01*
X124255476Y-99571428D02*
X124350714Y-99666666D01*
X124350714Y-99666666D02*
X124398333Y-99761904D01*
X124112619Y-98285714D02*
X124112619Y-98761904D01*
X124112619Y-98761904D02*
X124588809Y-98809523D01*
X124588809Y-98809523D02*
X124541190Y-98761904D01*
X124541190Y-98761904D02*
X124493571Y-98666666D01*
X124493571Y-98666666D02*
X124493571Y-98428571D01*
X124493571Y-98428571D02*
X124541190Y-98333333D01*
X124541190Y-98333333D02*
X124588809Y-98285714D01*
X124588809Y-98285714D02*
X124684047Y-98238095D01*
X124684047Y-98238095D02*
X124922142Y-98238095D01*
X124922142Y-98238095D02*
X125017380Y-98285714D01*
X125017380Y-98285714D02*
X125065000Y-98333333D01*
X125065000Y-98333333D02*
X125112619Y-98428571D01*
X125112619Y-98428571D02*
X125112619Y-98666666D01*
X125112619Y-98666666D02*
X125065000Y-98761904D01*
X125065000Y-98761904D02*
X125017380Y-98809523D01*
D11*
X92765000Y-89272936D02*
X92765000Y-89727064D01*
X94235000Y-89272936D02*
X94235000Y-89727064D01*
X155330000Y-95110000D02*
X155330000Y-87430000D01*
X155330000Y-97710000D02*
X154000000Y-97710000D01*
X155330000Y-95110000D02*
X152670000Y-95110000D01*
X155330000Y-87430000D02*
X152670000Y-87430000D01*
X155330000Y-96380000D02*
X155330000Y-97710000D01*
X152670000Y-95110000D02*
X152670000Y-87430000D01*
X83735000Y-99272936D02*
X83735000Y-99727064D01*
X82265000Y-99272936D02*
X82265000Y-99727064D01*
X156000000Y-97250000D02*
X152000000Y-97250000D01*
X157030000Y-97540000D02*
X151010000Y-97540000D01*
X151010000Y-97540000D02*
X151010000Y-110460000D01*
X157030000Y-98120000D02*
X156430000Y-98120000D01*
X156430000Y-98120000D02*
X156430000Y-99720000D01*
X152010000Y-98920000D02*
X152540000Y-99170000D01*
X152010000Y-98920000D02*
X152010000Y-109080000D01*
X151010000Y-98920000D02*
X152010000Y-98920000D01*
X152540000Y-99170000D02*
X152540000Y-108830000D01*
X151010000Y-99170000D02*
X152010000Y-99170000D01*
X156430000Y-99720000D02*
X157030000Y-99720000D01*
X157030000Y-100660000D02*
X156430000Y-100660000D01*
X156430000Y-100660000D02*
X156430000Y-102260000D01*
X156430000Y-102260000D02*
X157030000Y-102260000D01*
X157030000Y-103200000D02*
X156430000Y-103200000D01*
X156430000Y-103200000D02*
X156430000Y-104800000D01*
X156430000Y-104800000D02*
X157030000Y-104800000D01*
X157030000Y-105740000D02*
X156430000Y-105740000D01*
X156430000Y-105740000D02*
X156430000Y-107340000D01*
X156430000Y-107340000D02*
X157030000Y-107340000D01*
X157030000Y-108280000D02*
X156430000Y-108280000D01*
X156430000Y-108280000D02*
X156430000Y-109880000D01*
X152540000Y-108830000D02*
X152010000Y-109080000D01*
X151010000Y-108830000D02*
X152010000Y-108830000D01*
X152010000Y-109080000D02*
X151010000Y-109080000D01*
X156430000Y-109880000D02*
X157030000Y-109880000D01*
X157030000Y-110460000D02*
X157030000Y-97540000D01*
X151010000Y-110460000D02*
X157030000Y-110460000D01*
X147710000Y-117000000D02*
X147710000Y-113000000D01*
X147420000Y-118030000D02*
X147420000Y-112010000D01*
X147420000Y-112010000D02*
X142120000Y-112010000D01*
X146840000Y-118030000D02*
X146840000Y-117430000D01*
X146840000Y-117430000D02*
X145240000Y-117430000D01*
X146040000Y-113010000D02*
X145790000Y-113540000D01*
X146040000Y-113010000D02*
X143500000Y-113010000D01*
X146040000Y-112010000D02*
X146040000Y-113010000D01*
X145790000Y-113540000D02*
X143750000Y-113540000D01*
X145790000Y-112010000D02*
X145790000Y-113010000D01*
X145240000Y-117430000D02*
X145240000Y-118030000D01*
X144300000Y-118030000D02*
X144300000Y-117430000D01*
X144300000Y-117430000D02*
X142700000Y-117430000D01*
X143750000Y-113540000D02*
X143500000Y-113010000D01*
X143750000Y-112010000D02*
X143750000Y-113010000D01*
X143500000Y-113010000D02*
X143500000Y-112010000D01*
X142700000Y-117430000D02*
X142700000Y-118030000D01*
X142120000Y-118030000D02*
X147420000Y-118030000D01*
X142120000Y-112010000D02*
X142120000Y-118030000D01*
X143735000Y-99272936D02*
X143735000Y-99727064D01*
X142265000Y-99272936D02*
X142265000Y-99727064D01*
X138227064Y-97235000D02*
X137772936Y-97235000D01*
X138227064Y-95765000D02*
X137772936Y-95765000D01*
X110325000Y-97840000D02*
X105684000Y-97840000D01*
X110325000Y-97840000D02*
X110325000Y-108080000D01*
X108815000Y-97840000D02*
X108815000Y-108080000D01*
X105684000Y-97840000D02*
X105684000Y-108080000D01*
X110325000Y-101110000D02*
X108815000Y-101110000D01*
X110325000Y-104811000D02*
X108815000Y-104811000D01*
X110325000Y-108080000D02*
X105684000Y-108080000D01*
X120270000Y-97880000D02*
X115629000Y-97880000D01*
X120270000Y-97880000D02*
X120270000Y-108120000D01*
X118760000Y-97880000D02*
X118760000Y-108120000D01*
X115629000Y-97880000D02*
X115629000Y-108120000D01*
X120270000Y-101150000D02*
X118760000Y-101150000D01*
X120270000Y-104851000D02*
X118760000Y-104851000D01*
X120270000Y-108120000D02*
X115629000Y-108120000D01*
X129830000Y-116330000D02*
X128500000Y-116330000D01*
X129830000Y-115000000D02*
X129830000Y-116330000D01*
X129830000Y-113730000D02*
X129830000Y-113670000D01*
X129830000Y-113730000D02*
X127170000Y-113730000D01*
X129830000Y-113670000D02*
X127170000Y-113670000D01*
X127170000Y-113730000D02*
X127170000Y-113670000D01*
X148227064Y-97235000D02*
X147772936Y-97235000D01*
X148227064Y-95765000D02*
X147772936Y-95765000D01*
X100705000Y-89253744D02*
X100705000Y-89776248D01*
X99235000Y-89253744D02*
X99235000Y-89776248D01*
X78227064Y-97235000D02*
X77772936Y-97235000D01*
X78227064Y-95765000D02*
X77772936Y-95765000D01*
X90325000Y-97880000D02*
X85684000Y-97880000D01*
X90325000Y-97880000D02*
X90325000Y-108120000D01*
X88815000Y-97880000D02*
X88815000Y-108120000D01*
X85684000Y-97880000D02*
X85684000Y-108120000D01*
X90325000Y-101150000D02*
X88815000Y-101150000D01*
X90325000Y-104851000D02*
X88815000Y-104851000D01*
X90325000Y-108120000D02*
X85684000Y-108120000D01*
X133735000Y-99272936D02*
X133735000Y-99727064D01*
X132265000Y-99272936D02*
X132265000Y-99727064D01*
X90510000Y-111650000D02*
X90510000Y-108350000D01*
X90510000Y-111650000D02*
X83500000Y-111650000D01*
X90510000Y-108350000D02*
X83500000Y-108350000D01*
X103205000Y-89253744D02*
X103205000Y-89776248D01*
X101735000Y-89253744D02*
X101735000Y-89776248D01*
X130270000Y-97840000D02*
X125629000Y-97840000D01*
X130270000Y-97840000D02*
X130270000Y-108080000D01*
X128760000Y-97840000D02*
X128760000Y-108080000D01*
X125629000Y-97840000D02*
X125629000Y-108080000D01*
X130270000Y-101110000D02*
X128760000Y-101110000D01*
X130270000Y-104811000D02*
X128760000Y-104811000D01*
X130270000Y-108080000D02*
X125629000Y-108080000D01*
X80510000Y-111650000D02*
X80510000Y-108350000D01*
X80510000Y-111650000D02*
X73500000Y-111650000D01*
X80510000Y-108350000D02*
X73500000Y-108350000D01*
X137710000Y-117000000D02*
X137710000Y-113000000D01*
X137420000Y-118030000D02*
X137420000Y-112010000D01*
X137420000Y-112010000D02*
X132120000Y-112010000D01*
X136840000Y-118030000D02*
X136840000Y-117430000D01*
X136840000Y-117430000D02*
X135240000Y-117430000D01*
X136040000Y-113010000D02*
X135790000Y-113540000D01*
X136040000Y-113010000D02*
X133500000Y-113010000D01*
X136040000Y-112010000D02*
X136040000Y-113010000D01*
X135790000Y-113540000D02*
X133750000Y-113540000D01*
X135790000Y-112010000D02*
X135790000Y-113010000D01*
X135240000Y-117430000D02*
X135240000Y-118030000D01*
X134300000Y-118030000D02*
X134300000Y-117430000D01*
X134300000Y-117430000D02*
X132700000Y-117430000D01*
X133750000Y-113540000D02*
X133500000Y-113010000D01*
X133750000Y-112010000D02*
X133750000Y-113010000D01*
X133500000Y-113010000D02*
X133500000Y-112010000D01*
X132700000Y-117430000D02*
X132700000Y-118030000D01*
X132120000Y-118030000D02*
X137420000Y-118030000D01*
X132120000Y-112010000D02*
X132120000Y-118030000D01*
X149830000Y-116330000D02*
X148500000Y-116330000D01*
X149830000Y-115000000D02*
X149830000Y-116330000D01*
X149830000Y-113730000D02*
X149830000Y-113670000D01*
X149830000Y-113730000D02*
X147170000Y-113730000D01*
X149830000Y-113670000D02*
X147170000Y-113670000D01*
X147170000Y-113730000D02*
X147170000Y-113670000D01*
X89830000Y-116330000D02*
X88500000Y-116330000D01*
X89830000Y-115000000D02*
X89830000Y-116330000D01*
X89830000Y-113730000D02*
X89830000Y-113670000D01*
X89830000Y-113730000D02*
X87170000Y-113730000D01*
X89830000Y-113670000D02*
X87170000Y-113670000D01*
X87170000Y-113730000D02*
X87170000Y-113670000D01*
X66520000Y-110980000D02*
X70520000Y-110980000D01*
X65490000Y-110690000D02*
X71510000Y-110690000D01*
X71510000Y-110690000D02*
X71510000Y-97770000D01*
X65490000Y-110110000D02*
X66090000Y-110110000D01*
X66090000Y-110110000D02*
X66090000Y-108510000D01*
X70510000Y-109310000D02*
X69980000Y-109060000D01*
X70510000Y-109310000D02*
X70510000Y-99150000D01*
X71510000Y-109310000D02*
X70510000Y-109310000D01*
X69980000Y-109060000D02*
X69980000Y-99400000D01*
X71510000Y-109060000D02*
X70510000Y-109060000D01*
X66090000Y-108510000D02*
X65490000Y-108510000D01*
X65490000Y-107570000D02*
X66090000Y-107570000D01*
X66090000Y-107570000D02*
X66090000Y-105970000D01*
X66090000Y-105970000D02*
X65490000Y-105970000D01*
X65490000Y-105030000D02*
X66090000Y-105030000D01*
X66090000Y-105030000D02*
X66090000Y-103430000D01*
X66090000Y-103430000D02*
X65490000Y-103430000D01*
X65490000Y-102490000D02*
X66090000Y-102490000D01*
X66090000Y-102490000D02*
X66090000Y-100890000D01*
X66090000Y-100890000D02*
X65490000Y-100890000D01*
X65490000Y-99950000D02*
X66090000Y-99950000D01*
X66090000Y-99950000D02*
X66090000Y-98350000D01*
X69980000Y-99400000D02*
X70510000Y-99150000D01*
X71510000Y-99400000D02*
X70510000Y-99400000D01*
X70510000Y-99150000D02*
X71510000Y-99150000D01*
X66090000Y-98350000D02*
X65490000Y-98350000D01*
X65490000Y-97770000D02*
X65490000Y-110690000D01*
X71510000Y-97770000D02*
X65490000Y-97770000D01*
X117710000Y-117000000D02*
X117710000Y-113000000D01*
X117420000Y-118030000D02*
X117420000Y-112010000D01*
X117420000Y-112010000D02*
X112120000Y-112010000D01*
X116840000Y-118030000D02*
X116840000Y-117430000D01*
X116840000Y-117430000D02*
X115240000Y-117430000D01*
X116040000Y-113010000D02*
X115790000Y-113540000D01*
X116040000Y-113010000D02*
X113500000Y-113010000D01*
X116040000Y-112010000D02*
X116040000Y-113010000D01*
X115790000Y-113540000D02*
X113750000Y-113540000D01*
X115790000Y-112010000D02*
X115790000Y-113010000D01*
X115240000Y-117430000D02*
X115240000Y-118030000D01*
X114300000Y-118030000D02*
X114300000Y-117430000D01*
X114300000Y-117430000D02*
X112700000Y-117430000D01*
X113750000Y-113540000D02*
X113500000Y-113010000D01*
X113750000Y-112010000D02*
X113750000Y-113010000D01*
X113500000Y-113010000D02*
X113500000Y-112010000D01*
X112700000Y-117430000D02*
X112700000Y-118030000D01*
X112120000Y-118030000D02*
X117420000Y-118030000D01*
X112120000Y-112010000D02*
X112120000Y-118030000D01*
X79830000Y-116330000D02*
X78500000Y-116330000D01*
X79830000Y-115000000D02*
X79830000Y-116330000D01*
X79830000Y-113730000D02*
X79830000Y-113670000D01*
X79830000Y-113730000D02*
X77170000Y-113730000D01*
X79830000Y-113670000D02*
X77170000Y-113670000D01*
X77170000Y-113730000D02*
X77170000Y-113670000D01*
X88227064Y-97235000D02*
X87772936Y-97235000D01*
X88227064Y-95765000D02*
X87772936Y-95765000D01*
X108227064Y-97235000D02*
X107772936Y-97235000D01*
X108227064Y-95765000D02*
X107772936Y-95765000D01*
X150510000Y-111650000D02*
X150510000Y-108350000D01*
X150510000Y-111650000D02*
X143500000Y-111650000D01*
X150510000Y-108350000D02*
X143500000Y-108350000D01*
X141865000Y-107472500D02*
X144135000Y-107472500D01*
X144135000Y-107472500D02*
X144135000Y-103412500D01*
X141865000Y-103412500D02*
X141865000Y-107472500D01*
X101865000Y-107472500D02*
X104135000Y-107472500D01*
X104135000Y-107472500D02*
X104135000Y-103412500D01*
X101865000Y-103412500D02*
X101865000Y-107472500D01*
X77710000Y-117000000D02*
X77710000Y-113000000D01*
X77420000Y-118030000D02*
X77420000Y-112010000D01*
X77420000Y-112010000D02*
X72120000Y-112010000D01*
X76840000Y-118030000D02*
X76840000Y-117430000D01*
X76840000Y-117430000D02*
X75240000Y-117430000D01*
X76040000Y-113010000D02*
X75790000Y-113540000D01*
X76040000Y-113010000D02*
X73500000Y-113010000D01*
X76040000Y-112010000D02*
X76040000Y-113010000D01*
X75790000Y-113540000D02*
X73750000Y-113540000D01*
X75790000Y-112010000D02*
X75790000Y-113010000D01*
X75240000Y-117430000D02*
X75240000Y-118030000D01*
X74300000Y-118030000D02*
X74300000Y-117430000D01*
X74300000Y-117430000D02*
X72700000Y-117430000D01*
X73750000Y-113540000D02*
X73500000Y-113010000D01*
X73750000Y-112010000D02*
X73750000Y-113010000D01*
X73500000Y-113010000D02*
X73500000Y-112010000D01*
X72700000Y-117430000D02*
X72700000Y-118030000D01*
X72120000Y-118030000D02*
X77420000Y-118030000D01*
X72120000Y-112010000D02*
X72120000Y-118030000D01*
X121865000Y-107472500D02*
X124135000Y-107472500D01*
X124135000Y-107472500D02*
X124135000Y-103412500D01*
X121865000Y-103412500D02*
X121865000Y-107472500D01*
X150325000Y-97880000D02*
X145684000Y-97880000D01*
X150325000Y-97880000D02*
X150325000Y-108120000D01*
X148815000Y-97880000D02*
X148815000Y-108120000D01*
X145684000Y-97880000D02*
X145684000Y-108120000D01*
X150325000Y-101150000D02*
X148815000Y-101150000D01*
X150325000Y-104851000D02*
X148815000Y-104851000D01*
X150325000Y-108120000D02*
X145684000Y-108120000D01*
X130510000Y-111650000D02*
X130510000Y-108350000D01*
X130510000Y-111650000D02*
X123500000Y-111650000D01*
X130510000Y-108350000D02*
X123500000Y-108350000D01*
X120510000Y-111650000D02*
X120510000Y-108350000D01*
X120510000Y-111650000D02*
X113500000Y-111650000D01*
X120510000Y-108350000D02*
X113500000Y-108350000D01*
X109830000Y-116330000D02*
X108500000Y-116330000D01*
X109830000Y-115000000D02*
X109830000Y-116330000D01*
X109830000Y-113730000D02*
X109830000Y-113670000D01*
X109830000Y-113730000D02*
X107170000Y-113730000D01*
X109830000Y-113670000D02*
X107170000Y-113670000D01*
X107170000Y-113730000D02*
X107170000Y-113670000D01*
X127710000Y-117000000D02*
X127710000Y-113000000D01*
X127420000Y-118030000D02*
X127420000Y-112010000D01*
X127420000Y-112010000D02*
X122120000Y-112010000D01*
X126840000Y-118030000D02*
X126840000Y-117430000D01*
X126840000Y-117430000D02*
X125240000Y-117430000D01*
X126040000Y-113010000D02*
X125790000Y-113540000D01*
X126040000Y-113010000D02*
X123500000Y-113010000D01*
X126040000Y-112010000D02*
X126040000Y-113010000D01*
X125790000Y-113540000D02*
X123750000Y-113540000D01*
X125790000Y-112010000D02*
X125790000Y-113010000D01*
X125240000Y-117430000D02*
X125240000Y-118030000D01*
X124300000Y-118030000D02*
X124300000Y-117430000D01*
X124300000Y-117430000D02*
X122700000Y-117430000D01*
X123750000Y-113540000D02*
X123500000Y-113010000D01*
X123750000Y-112010000D02*
X123750000Y-113010000D01*
X123500000Y-113010000D02*
X123500000Y-112010000D01*
X122700000Y-117430000D02*
X122700000Y-118030000D01*
X122120000Y-118030000D02*
X127420000Y-118030000D01*
X122120000Y-112010000D02*
X122120000Y-118030000D01*
X119830000Y-116330000D02*
X118500000Y-116330000D01*
X119830000Y-115000000D02*
X119830000Y-116330000D01*
X119830000Y-113730000D02*
X119830000Y-113670000D01*
X119830000Y-113730000D02*
X117170000Y-113730000D01*
X119830000Y-113670000D02*
X117170000Y-113670000D01*
X117170000Y-113730000D02*
X117170000Y-113670000D01*
X140510000Y-111650000D02*
X140510000Y-108350000D01*
X140510000Y-111650000D02*
X133500000Y-111650000D01*
X140510000Y-108350000D02*
X133500000Y-108350000D01*
X111865000Y-107472500D02*
X114135000Y-107472500D01*
X114135000Y-107472500D02*
X114135000Y-103412500D01*
X111865000Y-103412500D02*
X111865000Y-107472500D01*
X110510000Y-111650000D02*
X110510000Y-108350000D01*
X110510000Y-111650000D02*
X103500000Y-111650000D01*
X110510000Y-108350000D02*
X103500000Y-108350000D01*
X81865000Y-107447500D02*
X84135000Y-107447500D01*
X84135000Y-107447500D02*
X84135000Y-103387500D01*
X81865000Y-103387500D02*
X81865000Y-107447500D01*
X93735000Y-99272936D02*
X93735000Y-99727064D01*
X92265000Y-99272936D02*
X92265000Y-99727064D01*
X140325000Y-97880000D02*
X135684000Y-97880000D01*
X140325000Y-97880000D02*
X140325000Y-108120000D01*
X138815000Y-97880000D02*
X138815000Y-108120000D01*
X135684000Y-97880000D02*
X135684000Y-108120000D01*
X140325000Y-101150000D02*
X138815000Y-101150000D01*
X140325000Y-104851000D02*
X138815000Y-104851000D01*
X140325000Y-108120000D02*
X135684000Y-108120000D01*
X113735000Y-99272936D02*
X113735000Y-99727064D01*
X112265000Y-99272936D02*
X112265000Y-99727064D01*
X107710000Y-117000000D02*
X107710000Y-113000000D01*
X107420000Y-118030000D02*
X107420000Y-112010000D01*
X107420000Y-112010000D02*
X102120000Y-112010000D01*
X106840000Y-118030000D02*
X106840000Y-117430000D01*
X106840000Y-117430000D02*
X105240000Y-117430000D01*
X106040000Y-113010000D02*
X105790000Y-113540000D01*
X106040000Y-113010000D02*
X103500000Y-113010000D01*
X106040000Y-112010000D02*
X106040000Y-113010000D01*
X105790000Y-113540000D02*
X103750000Y-113540000D01*
X105790000Y-112010000D02*
X105790000Y-113010000D01*
X105240000Y-117430000D02*
X105240000Y-118030000D01*
X104300000Y-118030000D02*
X104300000Y-117430000D01*
X104300000Y-117430000D02*
X102700000Y-117430000D01*
X103750000Y-113540000D02*
X103500000Y-113010000D01*
X103750000Y-112010000D02*
X103750000Y-113010000D01*
X103500000Y-113010000D02*
X103500000Y-112010000D01*
X102700000Y-117430000D02*
X102700000Y-118030000D01*
X102120000Y-118030000D02*
X107420000Y-118030000D01*
X102120000Y-112010000D02*
X102120000Y-118030000D01*
X100325000Y-97840000D02*
X95684000Y-97840000D01*
X100325000Y-97840000D02*
X100325000Y-108080000D01*
X98815000Y-97840000D02*
X98815000Y-108080000D01*
X95684000Y-97840000D02*
X95684000Y-108080000D01*
X100325000Y-101110000D02*
X98815000Y-101110000D01*
X100325000Y-104811000D02*
X98815000Y-104811000D01*
X100325000Y-108080000D02*
X95684000Y-108080000D01*
X128227064Y-97235000D02*
X127772936Y-97235000D01*
X128227064Y-95765000D02*
X127772936Y-95765000D01*
X87710000Y-117000000D02*
X87710000Y-113000000D01*
X87420000Y-118030000D02*
X87420000Y-112010000D01*
X87420000Y-112010000D02*
X82120000Y-112010000D01*
X86840000Y-118030000D02*
X86840000Y-117430000D01*
X86840000Y-117430000D02*
X85240000Y-117430000D01*
X86040000Y-113010000D02*
X85790000Y-113540000D01*
X86040000Y-113010000D02*
X83500000Y-113010000D01*
X86040000Y-112010000D02*
X86040000Y-113010000D01*
X85790000Y-113540000D02*
X83750000Y-113540000D01*
X85790000Y-112010000D02*
X85790000Y-113010000D01*
X85240000Y-117430000D02*
X85240000Y-118030000D01*
X84300000Y-118030000D02*
X84300000Y-117430000D01*
X84300000Y-117430000D02*
X82700000Y-117430000D01*
X83750000Y-113540000D02*
X83500000Y-113010000D01*
X83750000Y-112010000D02*
X83750000Y-113010000D01*
X83500000Y-113010000D02*
X83500000Y-112010000D01*
X82700000Y-117430000D02*
X82700000Y-118030000D01*
X82120000Y-118030000D02*
X87420000Y-118030000D01*
X82120000Y-112010000D02*
X82120000Y-118030000D01*
X73735000Y-99272936D02*
X73735000Y-99727064D01*
X72265000Y-99272936D02*
X72265000Y-99727064D01*
X98227064Y-97235000D02*
X97772936Y-97235000D01*
X98227064Y-95765000D02*
X97772936Y-95765000D01*
X131865000Y-107472500D02*
X134135000Y-107472500D01*
X134135000Y-107472500D02*
X134135000Y-103412500D01*
X131865000Y-103412500D02*
X131865000Y-107472500D01*
X100510000Y-111650000D02*
X100510000Y-108350000D01*
X100510000Y-111650000D02*
X93500000Y-111650000D01*
X100510000Y-108350000D02*
X93500000Y-108350000D01*
X103735000Y-99272936D02*
X103735000Y-99727064D01*
X102265000Y-99272936D02*
X102265000Y-99727064D01*
X139830000Y-116330000D02*
X138500000Y-116330000D01*
X139830000Y-115000000D02*
X139830000Y-116330000D01*
X139830000Y-113730000D02*
X139830000Y-113670000D01*
X139830000Y-113730000D02*
X137170000Y-113730000D01*
X139830000Y-113670000D02*
X137170000Y-113670000D01*
X137170000Y-113730000D02*
X137170000Y-113670000D01*
X108440000Y-89975000D02*
X108440000Y-93425000D01*
X108440000Y-89975000D02*
X108440000Y-88025000D01*
X118560000Y-89975000D02*
X118560000Y-91925000D01*
X118560000Y-89975000D02*
X118560000Y-88025000D01*
X80325000Y-97840000D02*
X75684000Y-97840000D01*
X80325000Y-97840000D02*
X80325000Y-108080000D01*
X78815000Y-97840000D02*
X78815000Y-108080000D01*
X75684000Y-97840000D02*
X75684000Y-108080000D01*
X80325000Y-101110000D02*
X78815000Y-101110000D01*
X80325000Y-104811000D02*
X78815000Y-104811000D01*
X80325000Y-108080000D02*
X75684000Y-108080000D01*
X71865000Y-107472500D02*
X74135000Y-107472500D01*
X74135000Y-107472500D02*
X74135000Y-103412500D01*
X71865000Y-103412500D02*
X71865000Y-107472500D01*
X118227064Y-97235000D02*
X117772936Y-97235000D01*
X118227064Y-95765000D02*
X117772936Y-95765000D01*
X98195000Y-89253744D02*
X98195000Y-89776248D01*
X96725000Y-89253744D02*
X96725000Y-89776248D01*
X97710000Y-117000000D02*
X97710000Y-113000000D01*
X97420000Y-118030000D02*
X97420000Y-112010000D01*
X97420000Y-112010000D02*
X92120000Y-112010000D01*
X96840000Y-118030000D02*
X96840000Y-117430000D01*
X96840000Y-117430000D02*
X95240000Y-117430000D01*
X96040000Y-113010000D02*
X95790000Y-113540000D01*
X96040000Y-113010000D02*
X93500000Y-113010000D01*
X96040000Y-112010000D02*
X96040000Y-113010000D01*
X95790000Y-113540000D02*
X93750000Y-113540000D01*
X95790000Y-112010000D02*
X95790000Y-113010000D01*
X95240000Y-117430000D02*
X95240000Y-118030000D01*
X94300000Y-118030000D02*
X94300000Y-117430000D01*
X94300000Y-117430000D02*
X92700000Y-117430000D01*
X93750000Y-113540000D02*
X93500000Y-113010000D01*
X93750000Y-112010000D02*
X93750000Y-113010000D01*
X93500000Y-113010000D02*
X93500000Y-112010000D01*
X92700000Y-117430000D02*
X92700000Y-118030000D01*
X92120000Y-118030000D02*
X97420000Y-118030000D01*
X92120000Y-112010000D02*
X92120000Y-118030000D01*
X91865000Y-107472500D02*
X94135000Y-107472500D01*
X94135000Y-107472500D02*
X94135000Y-103412500D01*
X91865000Y-103412500D02*
X91865000Y-107472500D01*
X107235000Y-88238748D02*
X107235000Y-88761252D01*
X105765000Y-88238748D02*
X105765000Y-88761252D01*
X99830000Y-116330000D02*
X98500000Y-116330000D01*
X99830000Y-115000000D02*
X99830000Y-116330000D01*
X99830000Y-113730000D02*
X99830000Y-113670000D01*
X99830000Y-113730000D02*
X97170000Y-113730000D01*
X99830000Y-113670000D02*
X97170000Y-113670000D01*
X97170000Y-113730000D02*
X97170000Y-113670000D01*
X123735000Y-99272936D02*
X123735000Y-99727064D01*
X122265000Y-99272936D02*
X122265000Y-99727064D01*
X67190000Y-87660000D02*
X68520000Y-87660000D01*
X67190000Y-88990000D02*
X67190000Y-87660000D01*
X67190000Y-90260000D02*
X67190000Y-97940000D01*
X67190000Y-90260000D02*
X69850000Y-90260000D01*
X67190000Y-97940000D02*
X69850000Y-97940000D01*
X69850000Y-90260000D02*
X69850000Y-97940000D01*
%LPC*%
D12*
X93500000Y-90500000D03*
X93500000Y-88500000D03*
D13*
X154000000Y-88760000D03*
X154000000Y-91300000D03*
X154000000Y-93840000D03*
D14*
X154000000Y-96380000D03*
D12*
X83000000Y-98500000D03*
X83000000Y-100500000D03*
D15*
X154000000Y-98920000D03*
D16*
X154000000Y-101460000D03*
X154000000Y-104000000D03*
X154000000Y-106540000D03*
X154000000Y-109080000D03*
D17*
X146040000Y-115000000D03*
D18*
X143500000Y-115000000D03*
D12*
X143000000Y-98500000D03*
X143000000Y-100500000D03*
D19*
X139000000Y-96500000D03*
X137000000Y-96500000D03*
D20*
X107055000Y-100420000D03*
D21*
X107055000Y-102960000D03*
X107055000Y-105500000D03*
D20*
X117000000Y-100460000D03*
D21*
X117000000Y-103000000D03*
X117000000Y-105540000D03*
D14*
X128500000Y-115000000D03*
D19*
X149000000Y-96500000D03*
X147000000Y-96500000D03*
D22*
X99970000Y-88477496D03*
X99970000Y-90552496D03*
D19*
X79000000Y-96500000D03*
X77000000Y-96500000D03*
D20*
X87055000Y-100460000D03*
D21*
X87055000Y-103000000D03*
X87055000Y-105540000D03*
D12*
X133000000Y-98500000D03*
X133000000Y-100500000D03*
D23*
X88500000Y-110000000D03*
X83500000Y-110000000D03*
D22*
X102470000Y-88477496D03*
X102470000Y-90552496D03*
D20*
X127000000Y-100420000D03*
D21*
X127000000Y-102960000D03*
X127000000Y-105500000D03*
D23*
X78500000Y-110000000D03*
X73500000Y-110000000D03*
D17*
X136040000Y-115000000D03*
D18*
X133500000Y-115000000D03*
D14*
X148500000Y-115000000D03*
D24*
X68500000Y-117000000D03*
D14*
X88500000Y-115000000D03*
D25*
X68520000Y-109310000D03*
D16*
X68520000Y-106770000D03*
X68520000Y-104230000D03*
X68520000Y-101690000D03*
X68520000Y-99150000D03*
D17*
X116040000Y-115000000D03*
D18*
X113500000Y-115000000D03*
D14*
X78500000Y-115000000D03*
D19*
X89000000Y-96500000D03*
X87000000Y-96500000D03*
X109000000Y-96500000D03*
X107000000Y-96500000D03*
D23*
X148500000Y-110000000D03*
X143500000Y-110000000D03*
D26*
X143000000Y-106500000D03*
X143000000Y-103525000D03*
X103000000Y-106500000D03*
X103000000Y-103525000D03*
D17*
X76040000Y-115000000D03*
D18*
X73500000Y-115000000D03*
D26*
X123000000Y-106500000D03*
X123000000Y-103525000D03*
D20*
X147055000Y-100460000D03*
D21*
X147055000Y-103000000D03*
X147055000Y-105540000D03*
D23*
X128500000Y-110000000D03*
X123500000Y-110000000D03*
X118500000Y-110000000D03*
X113500000Y-110000000D03*
D14*
X108500000Y-115000000D03*
D17*
X126040000Y-115000000D03*
D18*
X123500000Y-115000000D03*
D14*
X118500000Y-115000000D03*
D23*
X138500000Y-110000000D03*
X133500000Y-110000000D03*
D26*
X113000000Y-106500000D03*
X113000000Y-103525000D03*
D23*
X108500000Y-110000000D03*
X103500000Y-110000000D03*
D26*
X83000000Y-106475000D03*
X83000000Y-103500000D03*
D24*
X154000000Y-117000000D03*
D12*
X93000000Y-98500000D03*
X93000000Y-100500000D03*
D20*
X137055000Y-100460000D03*
D21*
X137055000Y-103000000D03*
X137055000Y-105540000D03*
D12*
X113000000Y-98500000D03*
X113000000Y-100500000D03*
D17*
X106040000Y-115000000D03*
D18*
X103500000Y-115000000D03*
D20*
X97055000Y-100420000D03*
D21*
X97055000Y-102960000D03*
X97055000Y-105500000D03*
D19*
X129000000Y-96500000D03*
X127000000Y-96500000D03*
D17*
X86040000Y-115000000D03*
D18*
X83500000Y-115000000D03*
D12*
X73000000Y-98500000D03*
X73000000Y-100500000D03*
D19*
X99000000Y-96500000D03*
X97000000Y-96500000D03*
D26*
X133000000Y-106500000D03*
X133000000Y-103525000D03*
D23*
X98500000Y-110000000D03*
X93500000Y-110000000D03*
D24*
X74000000Y-90500000D03*
D12*
X103000000Y-98500000D03*
X103000000Y-100500000D03*
D14*
X138500000Y-115000000D03*
D27*
X109055000Y-92450000D03*
X110325000Y-92450000D03*
X111595000Y-92450000D03*
X112865000Y-92450000D03*
X114135000Y-92450000D03*
X115405000Y-92450000D03*
X116675000Y-92450000D03*
X117945000Y-92450000D03*
X117945000Y-87500000D03*
X116675000Y-87500000D03*
X115405000Y-87500000D03*
X114135000Y-87500000D03*
X112865000Y-87500000D03*
X111595000Y-87500000D03*
X110325000Y-87500000D03*
X109055000Y-87500000D03*
D20*
X77055000Y-100420000D03*
D21*
X77055000Y-102960000D03*
X77055000Y-105500000D03*
D26*
X73000000Y-106500000D03*
X73000000Y-103525000D03*
D24*
X148500000Y-90500000D03*
D19*
X119000000Y-96500000D03*
X117000000Y-96500000D03*
D22*
X97460000Y-88477496D03*
X97460000Y-90552496D03*
D17*
X96040000Y-115000000D03*
D18*
X93500000Y-115000000D03*
D26*
X93000000Y-106500000D03*
X93000000Y-103525000D03*
D22*
X106500000Y-87462500D03*
X106500000Y-89537500D03*
D14*
X98500000Y-115000000D03*
D12*
X123000000Y-98500000D03*
X123000000Y-100500000D03*
D14*
X68520000Y-88990000D03*
D13*
X68520000Y-91530000D03*
X68520000Y-94070000D03*
X68520000Y-96610000D03*
M02*
