G04 #@! TF.GenerationSoftware,KiCad,Pcbnew,7.0.1*
G04 #@! TF.CreationDate,2023-08-26T14:00:19-05:00*
G04 #@! TF.ProjectId,Shift Register Mosfet Array V2,53686966-7420-4526-9567-697374657220,rev?*
G04 #@! TF.SameCoordinates,Original*
G04 #@! TF.FileFunction,Copper,L1,Top*
G04 #@! TF.FilePolarity,Positive*
%FSLAX46Y46*%
G04 Gerber Fmt 4.6, Leading zero omitted, Abs format (unit mm)*
G04 Created by KiCad (PCBNEW 7.0.1) date 2023-08-26 14:00:19*
%MOMM*%
%LPD*%
G01*
G04 APERTURE LIST*
G04 Aperture macros list*
%AMRoundRect*
0 Rectangle with rounded corners*
0 $1 Rounding radius*
0 $2 $3 $4 $5 $6 $7 $8 $9 X,Y pos of 4 corners*
0 Add a 4 corners polygon primitive as box body*
4,1,4,$2,$3,$4,$5,$6,$7,$8,$9,$2,$3,0*
0 Add four circle primitives for the rounded corners*
1,1,$1+$1,$2,$3*
1,1,$1+$1,$4,$5*
1,1,$1+$1,$6,$7*
1,1,$1+$1,$8,$9*
0 Add four rect primitives between the rounded corners*
20,1,$1+$1,$2,$3,$4,$5,0*
20,1,$1+$1,$4,$5,$6,$7,0*
20,1,$1+$1,$6,$7,$8,$9,0*
20,1,$1+$1,$8,$9,$2,$3,0*%
G04 Aperture macros list end*
G04 #@! TA.AperFunction,SMDPad,CuDef*
%ADD10RoundRect,0.250000X-0.450000X0.350000X-0.450000X-0.350000X0.450000X-0.350000X0.450000X0.350000X0*%
G04 #@! TD*
G04 #@! TA.AperFunction,ComponentPad*
%ADD11O,1.700000X1.700000*%
G04 #@! TD*
G04 #@! TA.AperFunction,ComponentPad*
%ADD12R,1.700000X1.700000*%
G04 #@! TD*
G04 #@! TA.AperFunction,ComponentPad*
%ADD13RoundRect,0.250000X-0.845000X0.620000X-0.845000X-0.620000X0.845000X-0.620000X0.845000X0.620000X0*%
G04 #@! TD*
G04 #@! TA.AperFunction,ComponentPad*
%ADD14O,2.190000X1.740000*%
G04 #@! TD*
G04 #@! TA.AperFunction,ComponentPad*
%ADD15RoundRect,0.250000X0.620000X0.845000X-0.620000X0.845000X-0.620000X-0.845000X0.620000X-0.845000X0*%
G04 #@! TD*
G04 #@! TA.AperFunction,ComponentPad*
%ADD16O,1.740000X2.190000*%
G04 #@! TD*
G04 #@! TA.AperFunction,SMDPad,CuDef*
%ADD17RoundRect,0.250000X0.350000X0.450000X-0.350000X0.450000X-0.350000X-0.450000X0.350000X-0.450000X0*%
G04 #@! TD*
G04 #@! TA.AperFunction,ComponentPad*
%ADD18R,2.000000X1.905000*%
G04 #@! TD*
G04 #@! TA.AperFunction,ComponentPad*
%ADD19O,2.000000X1.905000*%
G04 #@! TD*
G04 #@! TA.AperFunction,SMDPad,CuDef*
%ADD20RoundRect,0.250000X-0.475000X0.337500X-0.475000X-0.337500X0.475000X-0.337500X0.475000X0.337500X0*%
G04 #@! TD*
G04 #@! TA.AperFunction,SMDPad,CuDef*
%ADD21RoundRect,0.250000X1.500000X0.650000X-1.500000X0.650000X-1.500000X-0.650000X1.500000X-0.650000X0*%
G04 #@! TD*
G04 #@! TA.AperFunction,ComponentPad*
%ADD22RoundRect,0.250000X0.845000X-0.620000X0.845000X0.620000X-0.845000X0.620000X-0.845000X-0.620000X0*%
G04 #@! TD*
G04 #@! TA.AperFunction,SMDPad,CuDef*
%ADD23RoundRect,0.250001X0.624999X-0.462499X0.624999X0.462499X-0.624999X0.462499X-0.624999X-0.462499X0*%
G04 #@! TD*
G04 #@! TA.AperFunction,SMDPad,CuDef*
%ADD24RoundRect,0.150000X0.150000X-0.825000X0.150000X0.825000X-0.150000X0.825000X-0.150000X-0.825000X0*%
G04 #@! TD*
G04 #@! TA.AperFunction,ViaPad*
%ADD25C,0.800000*%
G04 #@! TD*
G04 #@! TA.AperFunction,Conductor*
%ADD26C,1.500000*%
G04 #@! TD*
G04 #@! TA.AperFunction,Conductor*
%ADD27C,0.300000*%
G04 #@! TD*
G04 APERTURE END LIST*
D10*
X93500000Y-90500000D03*
X93500000Y-88500000D03*
D11*
X154000000Y-88760000D03*
X154000000Y-91300000D03*
X154000000Y-93840000D03*
D12*
X154000000Y-96380000D03*
D10*
X83000000Y-98500000D03*
X83000000Y-100500000D03*
D13*
X154000000Y-98920000D03*
D14*
X154000000Y-101460000D03*
X154000000Y-104000000D03*
X154000000Y-106540000D03*
X154000000Y-109080000D03*
D15*
X146040000Y-115000000D03*
D16*
X143500000Y-115000000D03*
D10*
X143000000Y-98500000D03*
X143000000Y-100500000D03*
D17*
X139000000Y-96500000D03*
X137000000Y-96500000D03*
D18*
X107055000Y-100420000D03*
D19*
X107055000Y-102960000D03*
X107055000Y-105500000D03*
D18*
X117000000Y-100460000D03*
D19*
X117000000Y-103000000D03*
X117000000Y-105540000D03*
D12*
X128500000Y-115000000D03*
D17*
X149000000Y-96500000D03*
X147000000Y-96500000D03*
D20*
X99970000Y-88477496D03*
X99970000Y-90552496D03*
D17*
X79000000Y-96500000D03*
X77000000Y-96500000D03*
D18*
X87055000Y-100460000D03*
D19*
X87055000Y-103000000D03*
X87055000Y-105540000D03*
D10*
X133000000Y-98500000D03*
X133000000Y-100500000D03*
D21*
X88500000Y-110000000D03*
X83500000Y-110000000D03*
D20*
X102470000Y-88477496D03*
X102470000Y-90552496D03*
D18*
X127000000Y-100420000D03*
D19*
X127000000Y-102960000D03*
X127000000Y-105500000D03*
D21*
X78500000Y-110000000D03*
X73500000Y-110000000D03*
D15*
X136040000Y-115000000D03*
D16*
X133500000Y-115000000D03*
D12*
X148500000Y-115000000D03*
X88500000Y-115000000D03*
D22*
X68520000Y-109310000D03*
D14*
X68520000Y-106770000D03*
X68520000Y-104230000D03*
X68520000Y-101690000D03*
X68520000Y-99150000D03*
D15*
X116040000Y-115000000D03*
D16*
X113500000Y-115000000D03*
D12*
X78500000Y-115000000D03*
D17*
X89000000Y-96500000D03*
X87000000Y-96500000D03*
X109000000Y-96500000D03*
X107000000Y-96500000D03*
D21*
X148500000Y-110000000D03*
X143500000Y-110000000D03*
D23*
X143000000Y-106500000D03*
X143000000Y-103525000D03*
X103000000Y-106500000D03*
X103000000Y-103525000D03*
D15*
X76040000Y-115000000D03*
D16*
X73500000Y-115000000D03*
D23*
X123000000Y-106500000D03*
X123000000Y-103525000D03*
D18*
X147055000Y-100460000D03*
D19*
X147055000Y-103000000D03*
X147055000Y-105540000D03*
D21*
X128500000Y-110000000D03*
X123500000Y-110000000D03*
X118500000Y-110000000D03*
X113500000Y-110000000D03*
D12*
X108500000Y-115000000D03*
D15*
X126040000Y-115000000D03*
D16*
X123500000Y-115000000D03*
D12*
X118500000Y-115000000D03*
D21*
X138500000Y-110000000D03*
X133500000Y-110000000D03*
D23*
X113000000Y-106500000D03*
X113000000Y-103525000D03*
D21*
X108500000Y-110000000D03*
X103500000Y-110000000D03*
D23*
X83000000Y-106475000D03*
X83000000Y-103500000D03*
D10*
X93000000Y-98500000D03*
X93000000Y-100500000D03*
D18*
X137055000Y-100460000D03*
D19*
X137055000Y-103000000D03*
X137055000Y-105540000D03*
D10*
X113000000Y-98500000D03*
X113000000Y-100500000D03*
D15*
X106040000Y-115000000D03*
D16*
X103500000Y-115000000D03*
D18*
X97055000Y-100420000D03*
D19*
X97055000Y-102960000D03*
X97055000Y-105500000D03*
D17*
X129000000Y-96500000D03*
X127000000Y-96500000D03*
D15*
X86040000Y-115000000D03*
D16*
X83500000Y-115000000D03*
D10*
X73000000Y-98500000D03*
X73000000Y-100500000D03*
D17*
X99000000Y-96500000D03*
X97000000Y-96500000D03*
D23*
X133000000Y-106500000D03*
X133000000Y-103525000D03*
D21*
X98500000Y-110000000D03*
X93500000Y-110000000D03*
D10*
X103000000Y-98500000D03*
X103000000Y-100500000D03*
D12*
X138500000Y-115000000D03*
D24*
X109055000Y-92450000D03*
X110325000Y-92450000D03*
X111595000Y-92450000D03*
X112865000Y-92450000D03*
X114135000Y-92450000D03*
X115405000Y-92450000D03*
X116675000Y-92450000D03*
X117945000Y-92450000D03*
X117945000Y-87500000D03*
X116675000Y-87500000D03*
X115405000Y-87500000D03*
X114135000Y-87500000D03*
X112865000Y-87500000D03*
X111595000Y-87500000D03*
X110325000Y-87500000D03*
X109055000Y-87500000D03*
D18*
X77055000Y-100420000D03*
D19*
X77055000Y-102960000D03*
X77055000Y-105500000D03*
D23*
X73000000Y-106500000D03*
X73000000Y-103525000D03*
D17*
X119000000Y-96500000D03*
X117000000Y-96500000D03*
D20*
X97460000Y-88477496D03*
X97460000Y-90552496D03*
D15*
X96040000Y-115000000D03*
D16*
X93500000Y-115000000D03*
D23*
X93000000Y-106500000D03*
X93000000Y-103525000D03*
D20*
X106500000Y-87462500D03*
X106500000Y-89537500D03*
D12*
X98500000Y-115000000D03*
D10*
X123000000Y-98500000D03*
X123000000Y-100500000D03*
D12*
X68520000Y-88990000D03*
D11*
X68520000Y-91530000D03*
X68520000Y-94070000D03*
X68520000Y-96610000D03*
D25*
X106500000Y-89500000D03*
X118000000Y-92500000D03*
X116675000Y-87500000D03*
X109055000Y-87500000D03*
X108338577Y-88838576D03*
X142000000Y-90375500D03*
X78500000Y-86940500D03*
X71000000Y-95500000D03*
X115405000Y-87500000D03*
X115000000Y-85000000D03*
X87000000Y-96500000D03*
X97000000Y-96500000D03*
X107000000Y-96500000D03*
X117000000Y-96500000D03*
X127000000Y-96500000D03*
X147000000Y-96500000D03*
X77000000Y-96500000D03*
X137000000Y-96500000D03*
X112865000Y-87500000D03*
D26*
X76040000Y-115000000D02*
X76040000Y-112460000D01*
D27*
X102470000Y-88477496D02*
X102470000Y-88411000D01*
X97407504Y-90500000D02*
X97460000Y-90552496D01*
X93500000Y-90500000D02*
X97407504Y-90500000D01*
X108000001Y-88500000D02*
X108338577Y-88838576D01*
X104522496Y-88500000D02*
X108000001Y-88500000D01*
X102470000Y-90552496D02*
X104522496Y-88500000D01*
X102470000Y-88411000D02*
X103940500Y-86940500D01*
X99970000Y-88477496D02*
X97460000Y-88477496D01*
X102470000Y-88477496D02*
X99970000Y-88477496D01*
X99970000Y-90552496D02*
X97460000Y-90552496D01*
X102470000Y-90552496D02*
X99970000Y-90552496D01*
X116675000Y-87912107D02*
X116675000Y-87500000D01*
X119138393Y-90375500D02*
X116675000Y-87912107D01*
X142000000Y-90375500D02*
X119138393Y-90375500D01*
D26*
X154000000Y-91300000D02*
X154000000Y-88760000D01*
X152797919Y-91300000D02*
X154000000Y-91300000D01*
X152000000Y-92097919D02*
X152797919Y-91300000D01*
X152000000Y-96138478D02*
X152000000Y-92097919D01*
D27*
X156445000Y-99960000D02*
X156445000Y-87832309D01*
X154945000Y-101460000D02*
X156445000Y-99960000D01*
X154000000Y-101460000D02*
X154945000Y-101460000D01*
X152500000Y-102500000D02*
X154000000Y-104000000D01*
X155945000Y-99288528D02*
X155093528Y-100140000D01*
X155093528Y-100140000D02*
X153369659Y-100140000D01*
X153369659Y-100140000D02*
X152500000Y-101009659D01*
X152500000Y-101009659D02*
X152500000Y-102500000D01*
X155945000Y-88039415D02*
X155945000Y-99288528D01*
X155445000Y-88246522D02*
X155445000Y-97475000D01*
X155445000Y-97475000D02*
X154000000Y-98920000D01*
X156445000Y-87832309D02*
X154112691Y-85500000D01*
X154112691Y-85500000D02*
X115722893Y-85500000D01*
X106500000Y-89500000D02*
X106500000Y-89537500D01*
X116675000Y-87500000D02*
X116675000Y-88330661D01*
X109017500Y-87462500D02*
X109055000Y-87500000D01*
X71000000Y-104290000D02*
X71000000Y-95500000D01*
X106462500Y-87500000D02*
X106500000Y-87462500D01*
X104500000Y-87500000D02*
X106462500Y-87500000D01*
X78500000Y-86940500D02*
X103940500Y-86940500D01*
X68520000Y-106770000D02*
X71000000Y-104290000D01*
X106500000Y-87462500D02*
X109017500Y-87462500D01*
X103940500Y-86940500D02*
X104500000Y-87500000D01*
D26*
X73500000Y-107000000D02*
X73000000Y-106500000D01*
X76540000Y-102960000D02*
X77055000Y-102960000D01*
X73000000Y-106500000D02*
X76540000Y-102960000D01*
X73500000Y-110000000D02*
X73500000Y-115000000D01*
X73500000Y-110000000D02*
X73500000Y-107000000D01*
D27*
X73000000Y-103525000D02*
X73000000Y-100500000D01*
D26*
X83000000Y-109500000D02*
X83500000Y-110000000D01*
X83000000Y-106475000D02*
X86475000Y-103000000D01*
X86475000Y-103000000D02*
X87055000Y-103000000D01*
X83500000Y-110000000D02*
X83500000Y-115000000D01*
X83000000Y-106475000D02*
X83000000Y-109500000D01*
D27*
X83000000Y-103500000D02*
X83000000Y-100500000D01*
D26*
X93500000Y-115000000D02*
X93500000Y-110000000D01*
X93500000Y-107000000D02*
X93000000Y-106500000D01*
X93500000Y-110000000D02*
X93500000Y-107000000D01*
X93000000Y-106500000D02*
X96540000Y-102960000D01*
X96540000Y-102960000D02*
X97055000Y-102960000D01*
D27*
X93000000Y-100500000D02*
X93000000Y-103525000D01*
D26*
X103500000Y-110000000D02*
X103500000Y-107000000D01*
X103000000Y-106500000D02*
X106540000Y-102960000D01*
X103500000Y-107000000D02*
X103000000Y-106500000D01*
X106540000Y-102960000D02*
X107055000Y-102960000D01*
X103500000Y-115000000D02*
X103500000Y-110000000D01*
D27*
X103000000Y-103525000D02*
X103000000Y-100500000D01*
D26*
X113000000Y-106500000D02*
X116500000Y-103000000D01*
X113500000Y-115000000D02*
X113500000Y-110000000D01*
X116500000Y-103000000D02*
X117000000Y-103000000D01*
X113500000Y-107000000D02*
X113000000Y-106500000D01*
X113500000Y-110000000D02*
X113500000Y-107000000D01*
D27*
X113000000Y-103525000D02*
X113000000Y-100500000D01*
D26*
X123500000Y-110000000D02*
X123500000Y-107000000D01*
X123500000Y-107000000D02*
X123000000Y-106500000D01*
X123000000Y-106500000D02*
X126540000Y-102960000D01*
X126540000Y-102960000D02*
X127000000Y-102960000D01*
X123500000Y-115000000D02*
X123500000Y-110000000D01*
D27*
X123000000Y-103525000D02*
X123000000Y-100500000D01*
D26*
X133000000Y-106500000D02*
X136500000Y-103000000D01*
X133500000Y-115000000D02*
X133500000Y-110000000D01*
X136500000Y-103000000D02*
X137055000Y-103000000D01*
X133500000Y-107000000D02*
X133000000Y-106500000D01*
X133500000Y-110000000D02*
X133500000Y-107000000D01*
D27*
X133000000Y-103525000D02*
X133000000Y-100500000D01*
D26*
X143000000Y-106500000D02*
X146500000Y-103000000D01*
X143500000Y-110000000D02*
X143500000Y-107000000D01*
X143500000Y-107000000D02*
X143000000Y-106500000D01*
X146500000Y-103000000D02*
X147055000Y-103000000D01*
X143500000Y-115000000D02*
X143500000Y-110000000D01*
D27*
X143000000Y-103525000D02*
X143000000Y-100500000D01*
D26*
X86040000Y-112460000D02*
X88500000Y-110000000D01*
X78500000Y-115000000D02*
X80645000Y-117145000D01*
X86040000Y-115000000D02*
X88500000Y-115000000D01*
X106040000Y-115000000D02*
X108500000Y-115000000D01*
X116040000Y-115000000D02*
X116040000Y-112460000D01*
X124295290Y-117145000D02*
X126040000Y-115400290D01*
X130645000Y-117145000D02*
X134295290Y-117145000D01*
X118500000Y-115000000D02*
X120645000Y-117145000D01*
X76040000Y-115000000D02*
X78500000Y-115000000D01*
X80645000Y-117145000D02*
X84295290Y-117145000D01*
X126040000Y-115000000D02*
X126040000Y-112460000D01*
X82917500Y-98417500D02*
X83000000Y-98500000D01*
X96040000Y-112460000D02*
X98500000Y-110000000D01*
X114295290Y-117145000D02*
X116040000Y-115400290D01*
X126040000Y-115000000D02*
X128500000Y-115000000D01*
X68520000Y-88990000D02*
X68520000Y-91530000D01*
X106040000Y-115000000D02*
X106040000Y-112460000D01*
X88500000Y-115000000D02*
X90645000Y-117145000D01*
X138500000Y-115000000D02*
X140645000Y-117145000D01*
X116040000Y-115000000D02*
X118500000Y-115000000D01*
X120645000Y-117145000D02*
X124295290Y-117145000D01*
X96040000Y-115000000D02*
X96040000Y-112460000D01*
X149888478Y-98250000D02*
X149888478Y-108611522D01*
X108500000Y-115000000D02*
X110645000Y-117145000D01*
X90645000Y-117145000D02*
X94295290Y-117145000D01*
X110645000Y-117145000D02*
X114295290Y-117145000D01*
X94295290Y-117145000D02*
X96040000Y-115400290D01*
X73000000Y-94807919D02*
X69722081Y-91530000D01*
X83042500Y-98457500D02*
X92957500Y-98457500D01*
X86040000Y-115000000D02*
X86040000Y-112460000D01*
X142917500Y-98417500D02*
X143000000Y-98500000D01*
X86040000Y-115400290D02*
X86040000Y-115000000D01*
X106040000Y-116460000D02*
X106040000Y-115000000D01*
X134295290Y-117145000D02*
X136040000Y-115400290D01*
X78500000Y-110000000D02*
X80000000Y-108500000D01*
X98500000Y-115000000D02*
X100645000Y-117145000D01*
X136040000Y-115000000D02*
X136040000Y-112460000D01*
X149888478Y-98250000D02*
X152000000Y-96138478D01*
X105355000Y-117145000D02*
X106040000Y-116460000D01*
X93000000Y-98500000D02*
X93082500Y-98417500D01*
X106040000Y-112460000D02*
X108500000Y-110000000D01*
X149888478Y-108611522D02*
X148500000Y-110000000D01*
X69722081Y-91530000D02*
X68520000Y-91530000D01*
X126040000Y-115400290D02*
X126040000Y-115000000D01*
X83000000Y-98500000D02*
X83042500Y-98457500D01*
X146040000Y-115000000D02*
X146040000Y-112460000D01*
X76040000Y-112460000D02*
X78500000Y-110000000D01*
X136040000Y-112460000D02*
X138500000Y-110000000D01*
X73000000Y-98500000D02*
X73082500Y-98417500D01*
X144295290Y-117145000D02*
X146040000Y-115400290D01*
X73000000Y-98500000D02*
X73000000Y-94807919D01*
X116040000Y-115400290D02*
X116040000Y-115000000D01*
X146040000Y-112460000D02*
X148500000Y-110000000D01*
X73082500Y-98417500D02*
X80000000Y-98417500D01*
X100645000Y-117145000D02*
X105355000Y-117145000D01*
X128500000Y-115000000D02*
X130645000Y-117145000D01*
X93082500Y-98417500D02*
X142917500Y-98417500D01*
X84295290Y-117145000D02*
X86040000Y-115400290D01*
X146040000Y-115000000D02*
X148500000Y-115000000D01*
X80000000Y-98417500D02*
X82917500Y-98417500D01*
X136040000Y-115000000D02*
X138500000Y-115000000D01*
X136040000Y-115400290D02*
X136040000Y-115000000D01*
X143250000Y-98250000D02*
X149888478Y-98250000D01*
X140645000Y-117145000D02*
X144295290Y-117145000D01*
X92957500Y-98457500D02*
X93000000Y-98500000D01*
X96040000Y-115400290D02*
X96040000Y-115000000D01*
X80000000Y-108500000D02*
X80000000Y-98417500D01*
X126040000Y-112460000D02*
X128500000Y-110000000D01*
X143000000Y-98500000D02*
X143250000Y-98250000D01*
X116040000Y-112460000D02*
X118500000Y-110000000D01*
X96040000Y-115000000D02*
X98500000Y-115000000D01*
X146040000Y-115400290D02*
X146040000Y-115000000D01*
D27*
X68292894Y-85000000D02*
X115000000Y-85000000D01*
X69965000Y-101084659D02*
X69250341Y-100370000D01*
X65790000Y-98370341D02*
X65790000Y-87502893D01*
X69965000Y-102785000D02*
X69965000Y-101084659D01*
X65790000Y-87502894D02*
X68292894Y-85000000D01*
X116000000Y-86000000D02*
X115405000Y-86595000D01*
X68520000Y-104230000D02*
X69965000Y-102785000D01*
X155945000Y-88039415D02*
X153905585Y-86000000D01*
X69250341Y-100370000D02*
X67789659Y-100370000D01*
X67789659Y-100370000D02*
X65790000Y-98370341D01*
X153905585Y-86000000D02*
X116000000Y-86000000D01*
X115405000Y-86595000D02*
X115405000Y-87500000D01*
X115310661Y-84250000D02*
X115750000Y-84689339D01*
X115750000Y-84689339D02*
X115750000Y-85472893D01*
X115722893Y-85500000D02*
X114135000Y-87087893D01*
X65290000Y-98685000D02*
X65290000Y-87295788D01*
X68335788Y-84250000D02*
X115310661Y-84250000D01*
X65290000Y-87295788D02*
X68335788Y-84250000D01*
X68295000Y-101690000D02*
X65290000Y-98685000D01*
X114135000Y-87087893D02*
X114135000Y-87500000D01*
X68520000Y-101690000D02*
X68295000Y-101690000D01*
X115750000Y-85472893D02*
X115722893Y-85500000D01*
X66290000Y-87710000D02*
X67825000Y-86175000D01*
X111595000Y-87087893D02*
X111595000Y-87500000D01*
X66290000Y-96920000D02*
X66290000Y-87710000D01*
X67825000Y-86175000D02*
X110682107Y-86175000D01*
X68520000Y-99150000D02*
X66290000Y-96920000D01*
X110682107Y-86175000D02*
X111595000Y-87087893D01*
X118105000Y-87340000D02*
X154538478Y-87340000D01*
X154538478Y-87340000D02*
X155445000Y-88246522D01*
X117945000Y-87500000D02*
X118105000Y-87340000D01*
X110325000Y-87912107D02*
X103787107Y-94450000D01*
X81050000Y-94450000D02*
X79000000Y-96500000D01*
X103787107Y-94450000D02*
X81050000Y-94450000D01*
X110325000Y-87500000D02*
X110325000Y-87912107D01*
X89000000Y-96500000D02*
X90550000Y-94950000D01*
X106555000Y-94950000D02*
X109055000Y-92450000D01*
X90550000Y-94950000D02*
X106555000Y-94950000D01*
X100050000Y-95450000D02*
X99000000Y-96500000D01*
X110325000Y-92450000D02*
X110325000Y-92862107D01*
X110325000Y-92862107D02*
X107737107Y-95450000D01*
X107737107Y-95450000D02*
X100050000Y-95450000D01*
X111595000Y-93905000D02*
X109000000Y-96500000D01*
X111595000Y-92450000D02*
X111595000Y-93905000D01*
X117950000Y-95450000D02*
X114050000Y-95450000D01*
X114000000Y-95500000D02*
X112865000Y-94365000D01*
X114050000Y-95450000D02*
X114000000Y-95500000D01*
X119000000Y-96500000D02*
X117950000Y-95450000D01*
X112865000Y-94365000D02*
X112865000Y-92450000D01*
X116222893Y-94950000D02*
X127450000Y-94950000D01*
X127450000Y-94950000D02*
X129000000Y-96500000D01*
X114135000Y-92862107D02*
X116222893Y-94950000D01*
X114135000Y-92450000D02*
X114135000Y-92862107D01*
X136950000Y-94450000D02*
X139000000Y-96500000D01*
X116992893Y-94450000D02*
X136950000Y-94450000D01*
X115405000Y-92450000D02*
X115405000Y-92862107D01*
X115405000Y-92862107D02*
X116992893Y-94450000D01*
X116675000Y-92450000D02*
X116675000Y-93175000D01*
X116675000Y-93175000D02*
X117450000Y-93950000D01*
X146450000Y-93950000D02*
X149000000Y-96500000D01*
X117450000Y-93950000D02*
X146450000Y-93950000D01*
G04 #@! TA.AperFunction,Conductor*
G36*
X154002442Y-84000596D02*
G01*
X154008703Y-84000841D01*
X154241171Y-84009975D01*
X154241419Y-84010051D01*
X154241420Y-84009985D01*
X154241531Y-84009989D01*
X154472173Y-84019529D01*
X154481571Y-84020278D01*
X154723187Y-84048876D01*
X154952341Y-84077440D01*
X154961183Y-84078870D01*
X155199560Y-84126286D01*
X155200339Y-84126445D01*
X155426298Y-84173824D01*
X155434444Y-84175824D01*
X155668182Y-84241745D01*
X155669753Y-84242200D01*
X155890895Y-84308037D01*
X155898400Y-84310535D01*
X156126259Y-84394597D01*
X156128273Y-84395362D01*
X156343145Y-84479205D01*
X156349963Y-84482104D01*
X156570464Y-84583756D01*
X156572903Y-84584914D01*
X156780180Y-84686245D01*
X156786241Y-84689421D01*
X156998057Y-84808044D01*
X157000853Y-84809659D01*
X157199040Y-84927753D01*
X157204420Y-84931150D01*
X157406284Y-85066031D01*
X157409373Y-85068166D01*
X157597098Y-85202199D01*
X157601768Y-85205704D01*
X157680682Y-85267914D01*
X157792387Y-85355976D01*
X157795748Y-85358722D01*
X157971759Y-85507796D01*
X157975764Y-85511341D01*
X158140925Y-85664015D01*
X158153973Y-85676076D01*
X158157483Y-85679451D01*
X158320547Y-85842515D01*
X158323922Y-85846025D01*
X158488657Y-86024234D01*
X158492208Y-86028246D01*
X158624521Y-86184467D01*
X158641266Y-86204238D01*
X158644022Y-86207611D01*
X158794285Y-86398218D01*
X158797810Y-86402915D01*
X158931814Y-86590599D01*
X158933982Y-86593737D01*
X159068845Y-86795574D01*
X159072259Y-86800980D01*
X159158228Y-86945255D01*
X159190298Y-86999074D01*
X159191964Y-87001959D01*
X159198934Y-87014404D01*
X159310495Y-87213611D01*
X159310559Y-87213724D01*
X159313771Y-87219853D01*
X159415059Y-87427042D01*
X159416268Y-87429589D01*
X159517890Y-87650026D01*
X159520797Y-87656864D01*
X159604608Y-87871653D01*
X159605427Y-87873809D01*
X159689457Y-88101582D01*
X159691966Y-88109119D01*
X159757777Y-88330173D01*
X159758276Y-88331896D01*
X159824166Y-88565524D01*
X159826183Y-88573736D01*
X159873506Y-88799430D01*
X159873762Y-88800686D01*
X159921127Y-89038810D01*
X159922558Y-89047663D01*
X159951103Y-89276658D01*
X159951195Y-89277421D01*
X159979717Y-89518401D01*
X159980471Y-89527852D01*
X159990014Y-89758577D01*
X159990024Y-89758833D01*
X159999404Y-89997557D01*
X159999500Y-90002425D01*
X159999500Y-116997575D01*
X159999404Y-117002444D01*
X159990024Y-117241167D01*
X159990014Y-117241422D01*
X159980471Y-117472146D01*
X159979717Y-117481597D01*
X159951195Y-117722577D01*
X159951103Y-117723340D01*
X159922558Y-117952335D01*
X159921127Y-117961188D01*
X159873762Y-118199312D01*
X159873506Y-118200568D01*
X159826183Y-118426262D01*
X159824166Y-118434474D01*
X159758276Y-118668102D01*
X159757777Y-118669825D01*
X159691966Y-118890879D01*
X159689457Y-118898416D01*
X159605427Y-119126189D01*
X159604608Y-119128345D01*
X159520797Y-119343134D01*
X159517890Y-119349972D01*
X159416268Y-119570409D01*
X159415059Y-119572956D01*
X159313771Y-119780145D01*
X159310559Y-119786274D01*
X159191964Y-119998039D01*
X159190298Y-120000924D01*
X159072266Y-120199007D01*
X159068845Y-120204424D01*
X158933982Y-120406261D01*
X158931797Y-120409424D01*
X158797823Y-120597066D01*
X158794285Y-120601780D01*
X158644022Y-120792387D01*
X158641266Y-120795760D01*
X158492224Y-120971734D01*
X158488657Y-120975764D01*
X158323922Y-121153973D01*
X158320547Y-121157483D01*
X158157483Y-121320547D01*
X158153973Y-121323922D01*
X157975764Y-121488657D01*
X157971734Y-121492224D01*
X157795760Y-121641266D01*
X157792387Y-121644022D01*
X157601780Y-121794285D01*
X157597066Y-121797823D01*
X157409424Y-121931797D01*
X157406261Y-121933982D01*
X157204424Y-122068845D01*
X157199007Y-122072266D01*
X157000924Y-122190298D01*
X156998039Y-122191964D01*
X156786274Y-122310559D01*
X156780145Y-122313771D01*
X156572956Y-122415059D01*
X156570409Y-122416268D01*
X156349972Y-122517890D01*
X156343134Y-122520797D01*
X156128345Y-122604608D01*
X156126189Y-122605427D01*
X155898416Y-122689457D01*
X155890879Y-122691966D01*
X155669825Y-122757777D01*
X155668102Y-122758276D01*
X155434474Y-122824166D01*
X155426262Y-122826183D01*
X155200568Y-122873506D01*
X155199312Y-122873762D01*
X154961188Y-122921127D01*
X154952335Y-122922558D01*
X154723340Y-122951103D01*
X154722577Y-122951195D01*
X154481597Y-122979717D01*
X154472146Y-122980471D01*
X154241422Y-122990014D01*
X154241167Y-122990024D01*
X154009467Y-122999128D01*
X154002442Y-122999404D01*
X153997575Y-122999500D01*
X68502425Y-122999500D01*
X68497557Y-122999404D01*
X68258832Y-122990024D01*
X68258579Y-122989946D01*
X68258577Y-122990014D01*
X68027852Y-122980471D01*
X68018401Y-122979717D01*
X67777421Y-122951195D01*
X67776658Y-122951103D01*
X67547663Y-122922558D01*
X67538810Y-122921127D01*
X67300686Y-122873762D01*
X67299430Y-122873506D01*
X67073736Y-122826183D01*
X67065524Y-122824166D01*
X66831896Y-122758276D01*
X66830173Y-122757777D01*
X66609119Y-122691966D01*
X66601582Y-122689457D01*
X66373809Y-122605427D01*
X66371653Y-122604608D01*
X66156864Y-122520797D01*
X66150026Y-122517890D01*
X65929589Y-122416268D01*
X65927042Y-122415059D01*
X65719853Y-122313771D01*
X65713732Y-122310563D01*
X65586754Y-122239452D01*
X65501959Y-122191964D01*
X65499100Y-122190313D01*
X65300980Y-122072259D01*
X65295574Y-122068845D01*
X65093737Y-121933982D01*
X65090599Y-121931814D01*
X64902915Y-121797810D01*
X64898218Y-121794285D01*
X64707611Y-121644022D01*
X64704238Y-121641266D01*
X64528246Y-121492208D01*
X64524234Y-121488657D01*
X64346025Y-121323922D01*
X64342515Y-121320547D01*
X64179451Y-121157483D01*
X64176076Y-121153973D01*
X64011341Y-120975764D01*
X64007796Y-120971759D01*
X63858722Y-120795748D01*
X63855976Y-120792387D01*
X63705713Y-120601780D01*
X63702199Y-120597098D01*
X63568166Y-120409373D01*
X63566031Y-120406284D01*
X63431150Y-120204420D01*
X63427753Y-120199040D01*
X63309659Y-120000853D01*
X63308034Y-119998039D01*
X63189421Y-119786241D01*
X63186245Y-119780180D01*
X63084914Y-119572903D01*
X63083756Y-119570464D01*
X62982104Y-119349963D01*
X62979201Y-119343134D01*
X62895362Y-119128273D01*
X62894597Y-119126259D01*
X62810535Y-118898400D01*
X62808037Y-118890895D01*
X62742200Y-118669753D01*
X62741745Y-118668182D01*
X62675824Y-118434444D01*
X62673824Y-118426298D01*
X62626445Y-118200339D01*
X62626286Y-118199560D01*
X62578870Y-117961183D01*
X62577440Y-117952335D01*
X62548876Y-117723187D01*
X62520278Y-117481571D01*
X62519529Y-117472173D01*
X62509975Y-117241166D01*
X62503162Y-117067764D01*
X66645787Y-117067764D01*
X66675413Y-117337016D01*
X66709998Y-117469304D01*
X66743928Y-117599088D01*
X66797720Y-117725670D01*
X66849871Y-117848392D01*
X66990982Y-118079611D01*
X67121968Y-118237007D01*
X67164255Y-118287820D01*
X67365998Y-118468582D01*
X67591910Y-118618044D01*
X67698211Y-118667875D01*
X67837177Y-118733021D01*
X68096562Y-118811058D01*
X68096569Y-118811060D01*
X68364561Y-118850500D01*
X68567631Y-118850500D01*
X68567634Y-118850500D01*
X68770156Y-118835677D01*
X68770155Y-118835677D01*
X69034553Y-118776780D01*
X69287558Y-118680014D01*
X69523777Y-118547441D01*
X69738177Y-118381888D01*
X69926186Y-118186881D01*
X70083799Y-117966579D01*
X70207656Y-117725675D01*
X70295118Y-117469305D01*
X70344319Y-117202933D01*
X70354212Y-116932235D01*
X70324586Y-116662982D01*
X70256072Y-116400912D01*
X70150130Y-116151610D01*
X70009018Y-115920390D01*
X70009017Y-115920388D01*
X69835746Y-115712181D01*
X69803422Y-115683219D01*
X69634002Y-115531418D01*
X69408090Y-115381956D01*
X69408086Y-115381954D01*
X69162822Y-115266978D01*
X68903437Y-115188941D01*
X68903431Y-115188940D01*
X68635439Y-115149500D01*
X68432369Y-115149500D01*
X68432366Y-115149500D01*
X68229843Y-115164322D01*
X67965449Y-115223219D01*
X67712441Y-115319986D01*
X67476223Y-115452559D01*
X67261825Y-115618109D01*
X67073813Y-115813120D01*
X66916201Y-116033420D01*
X66792342Y-116274329D01*
X66704881Y-116530695D01*
X66655680Y-116797066D01*
X66645787Y-117067764D01*
X62503162Y-117067764D01*
X62500596Y-117002443D01*
X62500500Y-116997575D01*
X62500500Y-109685000D01*
X66925001Y-109685000D01*
X66925001Y-109979979D01*
X66935493Y-110082695D01*
X66990642Y-110249122D01*
X67082683Y-110398345D01*
X67206654Y-110522316D01*
X67355877Y-110614357D01*
X67522303Y-110669506D01*
X67625021Y-110680000D01*
X68145000Y-110680000D01*
X68145000Y-109685000D01*
X68895000Y-109685000D01*
X68895000Y-110679999D01*
X69414979Y-110679999D01*
X69517695Y-110669506D01*
X69684122Y-110614357D01*
X69833345Y-110522316D01*
X69957316Y-110398345D01*
X70049357Y-110249122D01*
X70104506Y-110082696D01*
X70115000Y-109979979D01*
X70115000Y-109685000D01*
X68895000Y-109685000D01*
X68145000Y-109685000D01*
X66925001Y-109685000D01*
X62500500Y-109685000D01*
X62500500Y-90002424D01*
X62500596Y-89997556D01*
X62503093Y-89934005D01*
X62509991Y-89758427D01*
X62510491Y-89746342D01*
X62519529Y-89527822D01*
X62520278Y-89518432D01*
X62548869Y-89276868D01*
X62577442Y-89047650D01*
X62578868Y-89038825D01*
X62626313Y-88800302D01*
X62626430Y-88799730D01*
X62673826Y-88573687D01*
X62675820Y-88565569D01*
X62741770Y-88331727D01*
X62742178Y-88330318D01*
X62808043Y-88109085D01*
X62810529Y-88101617D01*
X62894623Y-87873669D01*
X62895334Y-87871799D01*
X62979215Y-87656830D01*
X62982093Y-87650059D01*
X63083790Y-87429461D01*
X63084881Y-87427162D01*
X63186260Y-87219789D01*
X63189405Y-87213788D01*
X63308082Y-87001874D01*
X63309621Y-86999209D01*
X63427774Y-86800923D01*
X63431127Y-86795613D01*
X63566073Y-86593654D01*
X63568123Y-86590686D01*
X63702228Y-86402860D01*
X63705673Y-86398271D01*
X63856004Y-86207576D01*
X63858676Y-86204305D01*
X64007835Y-86028194D01*
X64011302Y-86024277D01*
X64176126Y-85845971D01*
X64179400Y-85842567D01*
X64342566Y-85679401D01*
X64345971Y-85676126D01*
X64524277Y-85511302D01*
X64528194Y-85507835D01*
X64704305Y-85358676D01*
X64707576Y-85356004D01*
X64898271Y-85205673D01*
X64902860Y-85202228D01*
X65090686Y-85068123D01*
X65093654Y-85066073D01*
X65295613Y-84931127D01*
X65300923Y-84927774D01*
X65499209Y-84809621D01*
X65501874Y-84808082D01*
X65713788Y-84689405D01*
X65719789Y-84686260D01*
X65927162Y-84584881D01*
X65929461Y-84583790D01*
X66150059Y-84482093D01*
X66156830Y-84479215D01*
X66371799Y-84395334D01*
X66373669Y-84394623D01*
X66601617Y-84310529D01*
X66609085Y-84308043D01*
X66830318Y-84242178D01*
X66831727Y-84241770D01*
X67065569Y-84175820D01*
X67073694Y-84173825D01*
X67195358Y-84148315D01*
X67258143Y-84151432D01*
X67311334Y-84184942D01*
X67341254Y-84240231D01*
X67340215Y-84303088D01*
X67308482Y-84357357D01*
X64890484Y-86775356D01*
X64873831Y-86788698D01*
X64824133Y-86841621D01*
X64821427Y-86844414D01*
X64801083Y-86864759D01*
X64798376Y-86868248D01*
X64790807Y-86877109D01*
X64759551Y-86910395D01*
X64749322Y-86929000D01*
X64738645Y-86945255D01*
X64725636Y-86962026D01*
X64707506Y-87003920D01*
X64702370Y-87014404D01*
X64680372Y-87054420D01*
X64675091Y-87074987D01*
X64668791Y-87093388D01*
X64660364Y-87112862D01*
X64653223Y-87157949D01*
X64650855Y-87169386D01*
X64639500Y-87213612D01*
X64639500Y-87234833D01*
X64637973Y-87254232D01*
X64634653Y-87275191D01*
X64638950Y-87320649D01*
X64639500Y-87332318D01*
X64639500Y-98599495D01*
X64637158Y-98620704D01*
X64639439Y-98693262D01*
X64639500Y-98697157D01*
X64639500Y-98725926D01*
X64640053Y-98730307D01*
X64640968Y-98741940D01*
X64642402Y-98787569D01*
X64648323Y-98807950D01*
X64652267Y-98826995D01*
X64654928Y-98848059D01*
X64671737Y-98890515D01*
X64675520Y-98901563D01*
X64688256Y-98945400D01*
X64699061Y-98963670D01*
X64707621Y-98981143D01*
X64715432Y-99000871D01*
X64718981Y-99005756D01*
X64742267Y-99037808D01*
X64748673Y-99047560D01*
X64771919Y-99086865D01*
X64771921Y-99086867D01*
X64786925Y-99101871D01*
X64799562Y-99116667D01*
X64812037Y-99133837D01*
X64833813Y-99151852D01*
X64847212Y-99162936D01*
X64855854Y-99170800D01*
X66929321Y-101244267D01*
X66961963Y-101301977D01*
X66960205Y-101368256D01*
X66950417Y-101400216D01*
X66936798Y-101506572D01*
X66922935Y-101614831D01*
X66920784Y-101631627D01*
X66930685Y-101864704D01*
X66979836Y-102092767D01*
X67066819Y-102309231D01*
X67066821Y-102309235D01*
X67189138Y-102507891D01*
X67315436Y-102651394D01*
X67343270Y-102683019D01*
X67524776Y-102829576D01*
X67565101Y-102852103D01*
X67610217Y-102895343D01*
X67628515Y-102955094D01*
X67615350Y-103016182D01*
X67574064Y-103063092D01*
X67430912Y-103159846D01*
X67262483Y-103321272D01*
X67123760Y-103508838D01*
X67018730Y-103717152D01*
X66985612Y-103825293D01*
X66950417Y-103940220D01*
X66920829Y-104171279D01*
X66920784Y-104171627D01*
X66930685Y-104404704D01*
X66979836Y-104632767D01*
X67066819Y-104849231D01*
X67066821Y-104849235D01*
X67189138Y-105047891D01*
X67257002Y-105125000D01*
X67343270Y-105223019D01*
X67524776Y-105369576D01*
X67565101Y-105392103D01*
X67610217Y-105435343D01*
X67628515Y-105495094D01*
X67615350Y-105556182D01*
X67574064Y-105603092D01*
X67430912Y-105699846D01*
X67262483Y-105861272D01*
X67123760Y-106048838D01*
X67018730Y-106257152D01*
X66985612Y-106365293D01*
X66950417Y-106480220D01*
X66924552Y-106682206D01*
X66920784Y-106711627D01*
X66930685Y-106944704D01*
X66979836Y-107172767D01*
X67066819Y-107389231D01*
X67066821Y-107389235D01*
X67189138Y-107587891D01*
X67335447Y-107754131D01*
X67343270Y-107763019D01*
X67383230Y-107795285D01*
X67421557Y-107848546D01*
X67427337Y-107913908D01*
X67398953Y-107973069D01*
X67366256Y-107994861D01*
X67368213Y-107998034D01*
X67206654Y-108097683D01*
X67082683Y-108221654D01*
X66990642Y-108370877D01*
X66935493Y-108537303D01*
X66925000Y-108640021D01*
X66925000Y-108935000D01*
X70114999Y-108935000D01*
X70114999Y-108640021D01*
X70104506Y-108537304D01*
X70049357Y-108370877D01*
X69957316Y-108221654D01*
X69833345Y-108097683D01*
X69671787Y-107998034D01*
X69673573Y-107995137D01*
X69642622Y-107974975D01*
X69613546Y-107919004D01*
X69615765Y-107855971D01*
X69648702Y-107802185D01*
X69777516Y-107678728D01*
X69916240Y-107491161D01*
X70021270Y-107282847D01*
X70089583Y-107059780D01*
X70119216Y-106828376D01*
X70109314Y-106595293D01*
X70060164Y-106367235D01*
X70028367Y-106288107D01*
X70019430Y-106241002D01*
X70029034Y-106194022D01*
X70055743Y-106154201D01*
X71399513Y-104810431D01*
X71416162Y-104797094D01*
X71417936Y-104795204D01*
X71417940Y-104795202D01*
X71465898Y-104744130D01*
X71468546Y-104741398D01*
X71488912Y-104721034D01*
X71491612Y-104717551D01*
X71499188Y-104708680D01*
X71530448Y-104675393D01*
X71540672Y-104656793D01*
X71551351Y-104640536D01*
X71564363Y-104623763D01*
X71582498Y-104581852D01*
X71587633Y-104571374D01*
X71617177Y-104517637D01*
X71620476Y-104519450D01*
X71637936Y-104488554D01*
X71693583Y-104455934D01*
X71758086Y-104455679D01*
X71813990Y-104487857D01*
X71906344Y-104580211D01*
X72055663Y-104672313D01*
X72222202Y-104727499D01*
X72324992Y-104738000D01*
X72694164Y-104738000D01*
X72750459Y-104751515D01*
X72794482Y-104789115D01*
X72816637Y-104842602D01*
X72812095Y-104900318D01*
X72781845Y-104949681D01*
X72480845Y-105250681D01*
X72440617Y-105277561D01*
X72393164Y-105287000D01*
X72324992Y-105287000D01*
X72222202Y-105297500D01*
X72055663Y-105352686D01*
X71906344Y-105444788D01*
X71782288Y-105568844D01*
X71690186Y-105718163D01*
X71635000Y-105884702D01*
X71624500Y-105987492D01*
X71624500Y-107012508D01*
X71635000Y-107115297D01*
X71690186Y-107281836D01*
X71782288Y-107431155D01*
X71906344Y-107555211D01*
X72055663Y-107647313D01*
X72055665Y-107647313D01*
X72055666Y-107647314D01*
X72164505Y-107683379D01*
X72208829Y-107709258D01*
X72238877Y-107750869D01*
X72249500Y-107801085D01*
X72249500Y-108475501D01*
X72232887Y-108537501D01*
X72187500Y-108582888D01*
X72125500Y-108599501D01*
X71949991Y-108599501D01*
X71847203Y-108610000D01*
X71680665Y-108665186D01*
X71531342Y-108757288D01*
X71407288Y-108881342D01*
X71315186Y-109030665D01*
X71260000Y-109197202D01*
X71249500Y-109299990D01*
X71249500Y-110700008D01*
X71260000Y-110802796D01*
X71315186Y-110969334D01*
X71407288Y-111118657D01*
X71531342Y-111242711D01*
X71531344Y-111242712D01*
X71680666Y-111334814D01*
X71792017Y-111371712D01*
X71847202Y-111389999D01*
X71949991Y-111400500D01*
X72125500Y-111400500D01*
X72187500Y-111417113D01*
X72232887Y-111462500D01*
X72249500Y-111524500D01*
X72249500Y-114179109D01*
X72242417Y-114220418D01*
X72168925Y-114428418D01*
X72129500Y-114658351D01*
X72129500Y-115283220D01*
X72144329Y-115457451D01*
X72203114Y-115683220D01*
X72299207Y-115895801D01*
X72392222Y-116033421D01*
X72429847Y-116089088D01*
X72591272Y-116257516D01*
X72778839Y-116396240D01*
X72987153Y-116501270D01*
X73210220Y-116569583D01*
X73441624Y-116599216D01*
X73674707Y-116589314D01*
X73902765Y-116540164D01*
X74119235Y-116453179D01*
X74317891Y-116330862D01*
X74493018Y-116176731D01*
X74524911Y-116137231D01*
X74578178Y-116098902D01*
X74643547Y-116093126D01*
X74702710Y-116121521D01*
X74724344Y-116153993D01*
X74727578Y-116151999D01*
X74735185Y-116164333D01*
X74735186Y-116164334D01*
X74755818Y-116197785D01*
X74827288Y-116313657D01*
X74951342Y-116437711D01*
X74962505Y-116444596D01*
X75100666Y-116529814D01*
X75186975Y-116558414D01*
X75267202Y-116584999D01*
X75277703Y-116586071D01*
X75369991Y-116595500D01*
X76710008Y-116595499D01*
X76812797Y-116584999D01*
X76979334Y-116529814D01*
X77128656Y-116437712D01*
X77252712Y-116313656D01*
X77252713Y-116313653D01*
X77254431Y-116311936D01*
X77304353Y-116281506D01*
X77362669Y-116277333D01*
X77390359Y-116289188D01*
X77390965Y-116287565D01*
X77407666Y-116293794D01*
X77407669Y-116293796D01*
X77542517Y-116344091D01*
X77602127Y-116350500D01*
X78030663Y-116350499D01*
X78078116Y-116359938D01*
X78118343Y-116386817D01*
X78917390Y-117185865D01*
X79706186Y-117974661D01*
X79715452Y-117985029D01*
X79737493Y-118012667D01*
X79787387Y-118056259D01*
X79793483Y-118061958D01*
X79800470Y-118068945D01*
X79813245Y-118079610D01*
X79831789Y-118095092D01*
X79833904Y-118096899D01*
X79907004Y-118160765D01*
X79910763Y-118163011D01*
X79926624Y-118174265D01*
X79929981Y-118177068D01*
X79971397Y-118200568D01*
X80014450Y-118224997D01*
X80016854Y-118226397D01*
X80100236Y-118276215D01*
X80100239Y-118276216D01*
X80104323Y-118277749D01*
X80121953Y-118285996D01*
X80125168Y-118287820D01*
X80125755Y-118288153D01*
X80217468Y-118320245D01*
X80219998Y-118321162D01*
X80310976Y-118355307D01*
X80314972Y-118356032D01*
X80315269Y-118356086D01*
X80334088Y-118361053D01*
X80338217Y-118362498D01*
X80434251Y-118377707D01*
X80436847Y-118378149D01*
X80500369Y-118389677D01*
X80532452Y-118395500D01*
X80532453Y-118395500D01*
X80536830Y-118395500D01*
X80556226Y-118397026D01*
X80560540Y-118397710D01*
X80655299Y-118395583D01*
X80657622Y-118395531D01*
X80660404Y-118395500D01*
X84218104Y-118395500D01*
X84231988Y-118396280D01*
X84267116Y-118400238D01*
X84267116Y-118400237D01*
X84267117Y-118400238D01*
X84333224Y-118395780D01*
X84341564Y-118395500D01*
X84351440Y-118395500D01*
X84351445Y-118395500D01*
X84392090Y-118391841D01*
X84394794Y-118391628D01*
X84491702Y-118385096D01*
X84495942Y-118384027D01*
X84515127Y-118380768D01*
X84519478Y-118380377D01*
X84613146Y-118354525D01*
X84615756Y-118353836D01*
X84709973Y-118330096D01*
X84713948Y-118328290D01*
X84732251Y-118321655D01*
X84736457Y-118320494D01*
X84736457Y-118320493D01*
X84736460Y-118320493D01*
X84824029Y-118278321D01*
X84826455Y-118277187D01*
X84914916Y-118237007D01*
X84918499Y-118234524D01*
X84935329Y-118224723D01*
X84939263Y-118222829D01*
X85017898Y-118165696D01*
X85020071Y-118164155D01*
X85099944Y-118108820D01*
X85103030Y-118105732D01*
X85117833Y-118093089D01*
X85121368Y-118090522D01*
X85188529Y-118020275D01*
X85190386Y-118018376D01*
X86576945Y-116631817D01*
X86617173Y-116604938D01*
X86664626Y-116595499D01*
X86710009Y-116595499D01*
X86761402Y-116590248D01*
X86812797Y-116584999D01*
X86979334Y-116529814D01*
X87128656Y-116437712D01*
X87252712Y-116313656D01*
X87252713Y-116313653D01*
X87254431Y-116311936D01*
X87304353Y-116281506D01*
X87362669Y-116277333D01*
X87390359Y-116289188D01*
X87390965Y-116287565D01*
X87407666Y-116293794D01*
X87407669Y-116293796D01*
X87542517Y-116344091D01*
X87602127Y-116350500D01*
X88030663Y-116350499D01*
X88078116Y-116359938D01*
X88118343Y-116386817D01*
X88917390Y-117185865D01*
X89706186Y-117974661D01*
X89715452Y-117985029D01*
X89737493Y-118012667D01*
X89787387Y-118056259D01*
X89793483Y-118061958D01*
X89800470Y-118068945D01*
X89813245Y-118079610D01*
X89831789Y-118095092D01*
X89833904Y-118096899D01*
X89907004Y-118160765D01*
X89910763Y-118163011D01*
X89926624Y-118174265D01*
X89929981Y-118177068D01*
X89971397Y-118200568D01*
X90014450Y-118224997D01*
X90016854Y-118226397D01*
X90100236Y-118276215D01*
X90100239Y-118276216D01*
X90104323Y-118277749D01*
X90121953Y-118285996D01*
X90125168Y-118287820D01*
X90125755Y-118288153D01*
X90217468Y-118320245D01*
X90219998Y-118321162D01*
X90310976Y-118355307D01*
X90314972Y-118356032D01*
X90315269Y-118356086D01*
X90334088Y-118361053D01*
X90338217Y-118362498D01*
X90434251Y-118377707D01*
X90436847Y-118378149D01*
X90500369Y-118389677D01*
X90532452Y-118395500D01*
X90532453Y-118395500D01*
X90536830Y-118395500D01*
X90556226Y-118397026D01*
X90560540Y-118397710D01*
X90655299Y-118395583D01*
X90657622Y-118395531D01*
X90660404Y-118395500D01*
X94218104Y-118395500D01*
X94231988Y-118396280D01*
X94267116Y-118400238D01*
X94267116Y-118400237D01*
X94267117Y-118400238D01*
X94333224Y-118395780D01*
X94341564Y-118395500D01*
X94351440Y-118395500D01*
X94351445Y-118395500D01*
X94392090Y-118391841D01*
X94394794Y-118391628D01*
X94491702Y-118385096D01*
X94495942Y-118384027D01*
X94515127Y-118380768D01*
X94519478Y-118380377D01*
X94613146Y-118354525D01*
X94615756Y-118353836D01*
X94709973Y-118330096D01*
X94713948Y-118328290D01*
X94732251Y-118321655D01*
X94736457Y-118320494D01*
X94736457Y-118320493D01*
X94736460Y-118320493D01*
X94824029Y-118278321D01*
X94826455Y-118277187D01*
X94914916Y-118237007D01*
X94918499Y-118234524D01*
X94935329Y-118224723D01*
X94939263Y-118222829D01*
X95017898Y-118165696D01*
X95020071Y-118164155D01*
X95099944Y-118108820D01*
X95103030Y-118105732D01*
X95117833Y-118093089D01*
X95121368Y-118090522D01*
X95188529Y-118020275D01*
X95190386Y-118018376D01*
X96576944Y-116631818D01*
X96617173Y-116604938D01*
X96664626Y-116595499D01*
X96710009Y-116595499D01*
X96761402Y-116590248D01*
X96812797Y-116584999D01*
X96979334Y-116529814D01*
X97128656Y-116437712D01*
X97252712Y-116313656D01*
X97252713Y-116313653D01*
X97254431Y-116311936D01*
X97304353Y-116281506D01*
X97362669Y-116277333D01*
X97390359Y-116289188D01*
X97390965Y-116287565D01*
X97407666Y-116293794D01*
X97407669Y-116293796D01*
X97542517Y-116344091D01*
X97602127Y-116350500D01*
X98030663Y-116350499D01*
X98078116Y-116359938D01*
X98118343Y-116386817D01*
X98917390Y-117185865D01*
X99706186Y-117974661D01*
X99715452Y-117985029D01*
X99737493Y-118012667D01*
X99787387Y-118056259D01*
X99793483Y-118061958D01*
X99800470Y-118068945D01*
X99813245Y-118079610D01*
X99831789Y-118095092D01*
X99833904Y-118096899D01*
X99907004Y-118160765D01*
X99910763Y-118163011D01*
X99926624Y-118174265D01*
X99929981Y-118177068D01*
X99971397Y-118200568D01*
X100014450Y-118224997D01*
X100016854Y-118226397D01*
X100100236Y-118276215D01*
X100100239Y-118276216D01*
X100104323Y-118277749D01*
X100121953Y-118285996D01*
X100125168Y-118287820D01*
X100125755Y-118288153D01*
X100217468Y-118320245D01*
X100219998Y-118321162D01*
X100310976Y-118355307D01*
X100314972Y-118356032D01*
X100315269Y-118356086D01*
X100334088Y-118361053D01*
X100338217Y-118362498D01*
X100434251Y-118377707D01*
X100436847Y-118378149D01*
X100500369Y-118389677D01*
X100532452Y-118395500D01*
X100532453Y-118395500D01*
X100536830Y-118395500D01*
X100556226Y-118397026D01*
X100560540Y-118397710D01*
X100655299Y-118395583D01*
X100657622Y-118395531D01*
X100660404Y-118395500D01*
X105277814Y-118395500D01*
X105291698Y-118396280D01*
X105326826Y-118400238D01*
X105326826Y-118400237D01*
X105326827Y-118400238D01*
X105392934Y-118395780D01*
X105401274Y-118395500D01*
X105411150Y-118395500D01*
X105411155Y-118395500D01*
X105451800Y-118391841D01*
X105454504Y-118391628D01*
X105551412Y-118385096D01*
X105555652Y-118384027D01*
X105574837Y-118380768D01*
X105579188Y-118380377D01*
X105672856Y-118354525D01*
X105675466Y-118353836D01*
X105769683Y-118330096D01*
X105773658Y-118328290D01*
X105791961Y-118321655D01*
X105796167Y-118320494D01*
X105796167Y-118320493D01*
X105796170Y-118320493D01*
X105883739Y-118278321D01*
X105886165Y-118277187D01*
X105974626Y-118237007D01*
X105978209Y-118234524D01*
X105995039Y-118224723D01*
X105998973Y-118222829D01*
X106077608Y-118165696D01*
X106079781Y-118164155D01*
X106159654Y-118108820D01*
X106162740Y-118105732D01*
X106177543Y-118093089D01*
X106181078Y-118090522D01*
X106248239Y-118020275D01*
X106250096Y-118018376D01*
X106869667Y-117398805D01*
X106880016Y-117389557D01*
X106907666Y-117367508D01*
X106951267Y-117317601D01*
X106956956Y-117311517D01*
X106963944Y-117304530D01*
X106990099Y-117273200D01*
X106991856Y-117271143D01*
X107055765Y-117197996D01*
X107058002Y-117194251D01*
X107069269Y-117178370D01*
X107072068Y-117175019D01*
X107120008Y-117090529D01*
X107121375Y-117088182D01*
X107171214Y-117004765D01*
X107171215Y-117004764D01*
X107172749Y-117000674D01*
X107180998Y-116983041D01*
X107183153Y-116979245D01*
X107215253Y-116887507D01*
X107216153Y-116885023D01*
X107250307Y-116794024D01*
X107251087Y-116789723D01*
X107256052Y-116770913D01*
X107257498Y-116766783D01*
X107272708Y-116670746D01*
X107273144Y-116668181D01*
X107290500Y-116572547D01*
X107290500Y-116568170D01*
X107292027Y-116548771D01*
X107292710Y-116544460D01*
X107290531Y-116447378D01*
X107290500Y-116444596D01*
X107290500Y-116428688D01*
X107304624Y-116371213D01*
X107343780Y-116326832D01*
X107399046Y-116305655D01*
X107457832Y-116312505D01*
X107542517Y-116344091D01*
X107602127Y-116350500D01*
X108030663Y-116350499D01*
X108078116Y-116359938D01*
X108118343Y-116386817D01*
X108917390Y-117185865D01*
X109706186Y-117974661D01*
X109715452Y-117985029D01*
X109737493Y-118012667D01*
X109787387Y-118056259D01*
X109793483Y-118061958D01*
X109800470Y-118068945D01*
X109813245Y-118079610D01*
X109831789Y-118095092D01*
X109833904Y-118096899D01*
X109907004Y-118160765D01*
X109910763Y-118163011D01*
X109926624Y-118174265D01*
X109929981Y-118177068D01*
X109971397Y-118200568D01*
X110014450Y-118224997D01*
X110016854Y-118226397D01*
X110100236Y-118276215D01*
X110100239Y-118276216D01*
X110104323Y-118277749D01*
X110121953Y-118285996D01*
X110125168Y-118287820D01*
X110125755Y-118288153D01*
X110217468Y-118320245D01*
X110219998Y-118321162D01*
X110310976Y-118355307D01*
X110314972Y-118356032D01*
X110315269Y-118356086D01*
X110334088Y-118361053D01*
X110338217Y-118362498D01*
X110434251Y-118377707D01*
X110436847Y-118378149D01*
X110500369Y-118389677D01*
X110532452Y-118395500D01*
X110532453Y-118395500D01*
X110536830Y-118395500D01*
X110556226Y-118397026D01*
X110560540Y-118397710D01*
X110655299Y-118395583D01*
X110657622Y-118395531D01*
X110660404Y-118395500D01*
X114218104Y-118395500D01*
X114231988Y-118396280D01*
X114267116Y-118400238D01*
X114267116Y-118400237D01*
X114267117Y-118400238D01*
X114333224Y-118395780D01*
X114341564Y-118395500D01*
X114351440Y-118395500D01*
X114351445Y-118395500D01*
X114392090Y-118391841D01*
X114394794Y-118391628D01*
X114491702Y-118385096D01*
X114495942Y-118384027D01*
X114515127Y-118380768D01*
X114519478Y-118380377D01*
X114613146Y-118354525D01*
X114615756Y-118353836D01*
X114709973Y-118330096D01*
X114713948Y-118328290D01*
X114732251Y-118321655D01*
X114736457Y-118320494D01*
X114736457Y-118320493D01*
X114736460Y-118320493D01*
X114824029Y-118278321D01*
X114826455Y-118277187D01*
X114914916Y-118237007D01*
X114918499Y-118234524D01*
X114935329Y-118224723D01*
X114939263Y-118222829D01*
X115017898Y-118165696D01*
X115020071Y-118164155D01*
X115099944Y-118108820D01*
X115103030Y-118105732D01*
X115117833Y-118093089D01*
X115121368Y-118090522D01*
X115188529Y-118020275D01*
X115190386Y-118018376D01*
X116576944Y-116631818D01*
X116617173Y-116604938D01*
X116664626Y-116595499D01*
X116710009Y-116595499D01*
X116761402Y-116590248D01*
X116812797Y-116584999D01*
X116979334Y-116529814D01*
X117128656Y-116437712D01*
X117252712Y-116313656D01*
X117252713Y-116313653D01*
X117254431Y-116311936D01*
X117304353Y-116281506D01*
X117362669Y-116277333D01*
X117390359Y-116289188D01*
X117390965Y-116287565D01*
X117407666Y-116293794D01*
X117407669Y-116293796D01*
X117542517Y-116344091D01*
X117602127Y-116350500D01*
X118030663Y-116350499D01*
X118078116Y-116359938D01*
X118118343Y-116386817D01*
X118917390Y-117185865D01*
X119706186Y-117974661D01*
X119715452Y-117985029D01*
X119737493Y-118012667D01*
X119787387Y-118056259D01*
X119793483Y-118061958D01*
X119800470Y-118068945D01*
X119813245Y-118079610D01*
X119831789Y-118095092D01*
X119833904Y-118096899D01*
X119907004Y-118160765D01*
X119910763Y-118163011D01*
X119926624Y-118174265D01*
X119929981Y-118177068D01*
X119971397Y-118200568D01*
X120014450Y-118224997D01*
X120016854Y-118226397D01*
X120100236Y-118276215D01*
X120100239Y-118276216D01*
X120104323Y-118277749D01*
X120121953Y-118285996D01*
X120125168Y-118287820D01*
X120125755Y-118288153D01*
X120217468Y-118320245D01*
X120219998Y-118321162D01*
X120310976Y-118355307D01*
X120314972Y-118356032D01*
X120315269Y-118356086D01*
X120334088Y-118361053D01*
X120338217Y-118362498D01*
X120434251Y-118377707D01*
X120436847Y-118378149D01*
X120500369Y-118389677D01*
X120532452Y-118395500D01*
X120532453Y-118395500D01*
X120536830Y-118395500D01*
X120556226Y-118397026D01*
X120560540Y-118397710D01*
X120655299Y-118395583D01*
X120657622Y-118395531D01*
X120660404Y-118395500D01*
X124218104Y-118395500D01*
X124231988Y-118396280D01*
X124267116Y-118400238D01*
X124267116Y-118400237D01*
X124267117Y-118400238D01*
X124333224Y-118395780D01*
X124341564Y-118395500D01*
X124351440Y-118395500D01*
X124351445Y-118395500D01*
X124392090Y-118391841D01*
X124394794Y-118391628D01*
X124491702Y-118385096D01*
X124495942Y-118384027D01*
X124515127Y-118380768D01*
X124519478Y-118380377D01*
X124613146Y-118354525D01*
X124615756Y-118353836D01*
X124709973Y-118330096D01*
X124713948Y-118328290D01*
X124732251Y-118321655D01*
X124736457Y-118320494D01*
X124736457Y-118320493D01*
X124736460Y-118320493D01*
X124824029Y-118278321D01*
X124826455Y-118277187D01*
X124914916Y-118237007D01*
X124918499Y-118234524D01*
X124935329Y-118224723D01*
X124939263Y-118222829D01*
X125017898Y-118165696D01*
X125020071Y-118164155D01*
X125099944Y-118108820D01*
X125103030Y-118105732D01*
X125117833Y-118093089D01*
X125121368Y-118090522D01*
X125188529Y-118020275D01*
X125190386Y-118018376D01*
X126576944Y-116631818D01*
X126617173Y-116604938D01*
X126664626Y-116595499D01*
X126710009Y-116595499D01*
X126761402Y-116590248D01*
X126812797Y-116584999D01*
X126979334Y-116529814D01*
X127128656Y-116437712D01*
X127252712Y-116313656D01*
X127252713Y-116313653D01*
X127254431Y-116311936D01*
X127304353Y-116281506D01*
X127362669Y-116277333D01*
X127390359Y-116289188D01*
X127390965Y-116287565D01*
X127407666Y-116293794D01*
X127407669Y-116293796D01*
X127542517Y-116344091D01*
X127602127Y-116350500D01*
X128030663Y-116350499D01*
X128078116Y-116359938D01*
X128118343Y-116386817D01*
X128917390Y-117185865D01*
X129706186Y-117974661D01*
X129715452Y-117985029D01*
X129737493Y-118012667D01*
X129787387Y-118056259D01*
X129793483Y-118061958D01*
X129800470Y-118068945D01*
X129813245Y-118079610D01*
X129831789Y-118095092D01*
X129833904Y-118096899D01*
X129907004Y-118160765D01*
X129910763Y-118163011D01*
X129926624Y-118174265D01*
X129929981Y-118177068D01*
X129971397Y-118200568D01*
X130014450Y-118224997D01*
X130016854Y-118226397D01*
X130100236Y-118276215D01*
X130100239Y-118276216D01*
X130104323Y-118277749D01*
X130121953Y-118285996D01*
X130125168Y-118287820D01*
X130125755Y-118288153D01*
X130217468Y-118320245D01*
X130219998Y-118321162D01*
X130310976Y-118355307D01*
X130314972Y-118356032D01*
X130315269Y-118356086D01*
X130334088Y-118361053D01*
X130338217Y-118362498D01*
X130434251Y-118377707D01*
X130436847Y-118378149D01*
X130500369Y-118389677D01*
X130532452Y-118395500D01*
X130532453Y-118395500D01*
X130536830Y-118395500D01*
X130556226Y-118397026D01*
X130560540Y-118397710D01*
X130655299Y-118395583D01*
X130657622Y-118395531D01*
X130660404Y-118395500D01*
X134218104Y-118395500D01*
X134231988Y-118396280D01*
X134267116Y-118400238D01*
X134267116Y-118400237D01*
X134267117Y-118400238D01*
X134333224Y-118395780D01*
X134341564Y-118395500D01*
X134351440Y-118395500D01*
X134351445Y-118395500D01*
X134392090Y-118391841D01*
X134394794Y-118391628D01*
X134491702Y-118385096D01*
X134495942Y-118384027D01*
X134515127Y-118380768D01*
X134519478Y-118380377D01*
X134613146Y-118354525D01*
X134615756Y-118353836D01*
X134709973Y-118330096D01*
X134713948Y-118328290D01*
X134732251Y-118321655D01*
X134736457Y-118320494D01*
X134736457Y-118320493D01*
X134736460Y-118320493D01*
X134824029Y-118278321D01*
X134826455Y-118277187D01*
X134914916Y-118237007D01*
X134918499Y-118234524D01*
X134935329Y-118224723D01*
X134939263Y-118222829D01*
X135017898Y-118165696D01*
X135020071Y-118164155D01*
X135099944Y-118108820D01*
X135103030Y-118105732D01*
X135117833Y-118093089D01*
X135121368Y-118090522D01*
X135188529Y-118020275D01*
X135190386Y-118018376D01*
X136576944Y-116631818D01*
X136617173Y-116604938D01*
X136664626Y-116595499D01*
X136710009Y-116595499D01*
X136761402Y-116590248D01*
X136812797Y-116584999D01*
X136979334Y-116529814D01*
X137128656Y-116437712D01*
X137252712Y-116313656D01*
X137252713Y-116313653D01*
X137254431Y-116311936D01*
X137304353Y-116281506D01*
X137362669Y-116277333D01*
X137390359Y-116289188D01*
X137390965Y-116287565D01*
X137407666Y-116293794D01*
X137407669Y-116293796D01*
X137542517Y-116344091D01*
X137602127Y-116350500D01*
X138030663Y-116350499D01*
X138078116Y-116359938D01*
X138118343Y-116386817D01*
X138917390Y-117185865D01*
X139706186Y-117974661D01*
X139715452Y-117985029D01*
X139737493Y-118012667D01*
X139787387Y-118056259D01*
X139793483Y-118061958D01*
X139800470Y-118068945D01*
X139813245Y-118079610D01*
X139831789Y-118095092D01*
X139833904Y-118096899D01*
X139907004Y-118160765D01*
X139910763Y-118163011D01*
X139926624Y-118174265D01*
X139929981Y-118177068D01*
X139971397Y-118200568D01*
X140014450Y-118224997D01*
X140016854Y-118226397D01*
X140100236Y-118276215D01*
X140100239Y-118276216D01*
X140104323Y-118277749D01*
X140121953Y-118285996D01*
X140125168Y-118287820D01*
X140125755Y-118288153D01*
X140217468Y-118320245D01*
X140219998Y-118321162D01*
X140310976Y-118355307D01*
X140314972Y-118356032D01*
X140315269Y-118356086D01*
X140334088Y-118361053D01*
X140338217Y-118362498D01*
X140434251Y-118377707D01*
X140436847Y-118378149D01*
X140500369Y-118389677D01*
X140532452Y-118395500D01*
X140532453Y-118395500D01*
X140536830Y-118395500D01*
X140556226Y-118397026D01*
X140560540Y-118397710D01*
X140655299Y-118395583D01*
X140657622Y-118395531D01*
X140660404Y-118395500D01*
X144218104Y-118395500D01*
X144231988Y-118396280D01*
X144267116Y-118400238D01*
X144267116Y-118400237D01*
X144267117Y-118400238D01*
X144333224Y-118395780D01*
X144341564Y-118395500D01*
X144351440Y-118395500D01*
X144351445Y-118395500D01*
X144392090Y-118391841D01*
X144394794Y-118391628D01*
X144491702Y-118385096D01*
X144495942Y-118384027D01*
X144515127Y-118380768D01*
X144519478Y-118380377D01*
X144613146Y-118354525D01*
X144615756Y-118353836D01*
X144709973Y-118330096D01*
X144713948Y-118328290D01*
X144732251Y-118321655D01*
X144736457Y-118320494D01*
X144736457Y-118320493D01*
X144736460Y-118320493D01*
X144824029Y-118278321D01*
X144826455Y-118277187D01*
X144914916Y-118237007D01*
X144918499Y-118234524D01*
X144935329Y-118224723D01*
X144939263Y-118222829D01*
X145017898Y-118165696D01*
X145020071Y-118164155D01*
X145099944Y-118108820D01*
X145103030Y-118105732D01*
X145117833Y-118093089D01*
X145121368Y-118090522D01*
X145188529Y-118020275D01*
X145190386Y-118018376D01*
X146140998Y-117067764D01*
X152145787Y-117067764D01*
X152175413Y-117337016D01*
X152209998Y-117469304D01*
X152243928Y-117599088D01*
X152297720Y-117725670D01*
X152349871Y-117848392D01*
X152490982Y-118079611D01*
X152621968Y-118237007D01*
X152664255Y-118287820D01*
X152865998Y-118468582D01*
X153091910Y-118618044D01*
X153198211Y-118667875D01*
X153337177Y-118733021D01*
X153596562Y-118811058D01*
X153596569Y-118811060D01*
X153864561Y-118850500D01*
X154067631Y-118850500D01*
X154067634Y-118850500D01*
X154270156Y-118835677D01*
X154270155Y-118835677D01*
X154534553Y-118776780D01*
X154787558Y-118680014D01*
X155023777Y-118547441D01*
X155238177Y-118381888D01*
X155426186Y-118186881D01*
X155583799Y-117966579D01*
X155707656Y-117725675D01*
X155795118Y-117469305D01*
X155844319Y-117202933D01*
X155854212Y-116932235D01*
X155824586Y-116662982D01*
X155756072Y-116400912D01*
X155650130Y-116151610D01*
X155509018Y-115920390D01*
X155509017Y-115920388D01*
X155335746Y-115712181D01*
X155303422Y-115683219D01*
X155134002Y-115531418D01*
X154908090Y-115381956D01*
X154908086Y-115381954D01*
X154662822Y-115266978D01*
X154403437Y-115188941D01*
X154403431Y-115188940D01*
X154135439Y-115149500D01*
X153932369Y-115149500D01*
X153932366Y-115149500D01*
X153729843Y-115164322D01*
X153465449Y-115223219D01*
X153212441Y-115319986D01*
X152976223Y-115452559D01*
X152761825Y-115618109D01*
X152573813Y-115813120D01*
X152416201Y-116033420D01*
X152292342Y-116274329D01*
X152204881Y-116530695D01*
X152155680Y-116797066D01*
X152145787Y-117067764D01*
X146140998Y-117067764D01*
X146576944Y-116631818D01*
X146617173Y-116604938D01*
X146664626Y-116595499D01*
X146710009Y-116595499D01*
X146761402Y-116590248D01*
X146812797Y-116584999D01*
X146979334Y-116529814D01*
X147128656Y-116437712D01*
X147252712Y-116313656D01*
X147252713Y-116313653D01*
X147254431Y-116311936D01*
X147304353Y-116281506D01*
X147362669Y-116277333D01*
X147390359Y-116289188D01*
X147390965Y-116287565D01*
X147407666Y-116293794D01*
X147407669Y-116293796D01*
X147542517Y-116344091D01*
X147602127Y-116350500D01*
X149397872Y-116350499D01*
X149457483Y-116344091D01*
X149592331Y-116293796D01*
X149707546Y-116207546D01*
X149793796Y-116092331D01*
X149844091Y-115957483D01*
X149850500Y-115897873D01*
X149850499Y-114102128D01*
X149844091Y-114042517D01*
X149793796Y-113907669D01*
X149707546Y-113792454D01*
X149592331Y-113706204D01*
X149457483Y-113655909D01*
X149397873Y-113649500D01*
X149397869Y-113649500D01*
X147602130Y-113649500D01*
X147542515Y-113655909D01*
X147457833Y-113687494D01*
X147399046Y-113694345D01*
X147343780Y-113673168D01*
X147304624Y-113628787D01*
X147290500Y-113571312D01*
X147290500Y-113029336D01*
X147299939Y-112981883D01*
X147326819Y-112941655D01*
X148831655Y-111436818D01*
X148871883Y-111409938D01*
X148919336Y-111400499D01*
X150050009Y-111400499D01*
X150101402Y-111395248D01*
X150152797Y-111389999D01*
X150319334Y-111334814D01*
X150468656Y-111242712D01*
X150592712Y-111118656D01*
X150684814Y-110969334D01*
X150739999Y-110802797D01*
X150750500Y-110700009D01*
X150750499Y-109572027D01*
X150758405Y-109528459D01*
X150781115Y-109490447D01*
X150799745Y-109469123D01*
X150805434Y-109463039D01*
X150812422Y-109456052D01*
X150813300Y-109455000D01*
X152454364Y-109455000D01*
X152460316Y-109482620D01*
X152547267Y-109699005D01*
X152669543Y-109897594D01*
X152823618Y-110072657D01*
X153005057Y-110219160D01*
X153208653Y-110332895D01*
X153428545Y-110410588D01*
X153625000Y-110444274D01*
X153625000Y-109455000D01*
X154375000Y-109455000D01*
X154375000Y-110442186D01*
X154457364Y-110435176D01*
X154683054Y-110376410D01*
X154895557Y-110280353D01*
X155088772Y-110149763D01*
X155257139Y-109988396D01*
X155395812Y-109800898D01*
X155500803Y-109592660D01*
X155542962Y-109455000D01*
X154375000Y-109455000D01*
X153625000Y-109455000D01*
X152454364Y-109455000D01*
X150813300Y-109455000D01*
X150838577Y-109424722D01*
X150840334Y-109422665D01*
X150875184Y-109382777D01*
X150904240Y-109349522D01*
X150904241Y-109349520D01*
X150904243Y-109349518D01*
X150906480Y-109345773D01*
X150917747Y-109329892D01*
X150920546Y-109326541D01*
X150968486Y-109242051D01*
X150969853Y-109239704D01*
X151004509Y-109181699D01*
X151019693Y-109156286D01*
X151021227Y-109152196D01*
X151029476Y-109134563D01*
X151031631Y-109130767D01*
X151063731Y-109039029D01*
X151064631Y-109036545D01*
X151098785Y-108945546D01*
X151099565Y-108941245D01*
X151104530Y-108922435D01*
X151105976Y-108918305D01*
X151121186Y-108822268D01*
X151121622Y-108819703D01*
X151138978Y-108724069D01*
X151138978Y-108719692D01*
X151140505Y-108700293D01*
X151141188Y-108695982D01*
X151139009Y-108598900D01*
X151138978Y-108596118D01*
X151138978Y-98819336D01*
X151148417Y-98771883D01*
X151175297Y-98731655D01*
X151505366Y-98401586D01*
X152496382Y-97410568D01*
X152549126Y-97379274D01*
X152610419Y-97377085D01*
X152665264Y-97404538D01*
X152700243Y-97454918D01*
X152706647Y-97472090D01*
X152739373Y-97515806D01*
X152763615Y-97579090D01*
X152750966Y-97645668D01*
X152705205Y-97695654D01*
X152686341Y-97707289D01*
X152562288Y-97831342D01*
X152470186Y-97980665D01*
X152415000Y-98147202D01*
X152404500Y-98249990D01*
X152404500Y-99590008D01*
X152415000Y-99692796D01*
X152470187Y-99859337D01*
X152517976Y-99936817D01*
X152535732Y-99988713D01*
X152529364Y-100043191D01*
X152500118Y-100089593D01*
X152100484Y-100489227D01*
X152083831Y-100502569D01*
X152034133Y-100555492D01*
X152031427Y-100558285D01*
X152011083Y-100578630D01*
X152008376Y-100582119D01*
X152000807Y-100590980D01*
X151969551Y-100624266D01*
X151959322Y-100642871D01*
X151948645Y-100659126D01*
X151935636Y-100675897D01*
X151917506Y-100717791D01*
X151912370Y-100728275D01*
X151890372Y-100768291D01*
X151885091Y-100788858D01*
X151878791Y-100807259D01*
X151870364Y-100826733D01*
X151863223Y-100871820D01*
X151860855Y-100883257D01*
X151849500Y-100927483D01*
X151849500Y-100948704D01*
X151847973Y-100968103D01*
X151844653Y-100989062D01*
X151848950Y-101034520D01*
X151849500Y-101046189D01*
X151849500Y-102414495D01*
X151847158Y-102435704D01*
X151849439Y-102508262D01*
X151849500Y-102512157D01*
X151849500Y-102540926D01*
X151850053Y-102545307D01*
X151850968Y-102556940D01*
X151852402Y-102602569D01*
X151858323Y-102622950D01*
X151862267Y-102641995D01*
X151864928Y-102663059D01*
X151881737Y-102705515D01*
X151885520Y-102716563D01*
X151898256Y-102760400D01*
X151909061Y-102778670D01*
X151917621Y-102796143D01*
X151925432Y-102815871D01*
X151938648Y-102834062D01*
X151952267Y-102852808D01*
X151958673Y-102862560D01*
X151981919Y-102901865D01*
X151981921Y-102901867D01*
X151996925Y-102916871D01*
X152009564Y-102931669D01*
X152022037Y-102948837D01*
X152057212Y-102977936D01*
X152065854Y-102985800D01*
X152462071Y-103382017D01*
X152494714Y-103439728D01*
X152492955Y-103506007D01*
X152430417Y-103710217D01*
X152400784Y-103941627D01*
X152410685Y-104174704D01*
X152459836Y-104402767D01*
X152531806Y-104581870D01*
X152546821Y-104619235D01*
X152669138Y-104817891D01*
X152794056Y-104959826D01*
X152823270Y-104993019D01*
X153004776Y-105139576D01*
X153045101Y-105162103D01*
X153090217Y-105205343D01*
X153108515Y-105265094D01*
X153095350Y-105326182D01*
X153054064Y-105373092D01*
X152910912Y-105469846D01*
X152742483Y-105631272D01*
X152603760Y-105818838D01*
X152498730Y-106027152D01*
X152430417Y-106250219D01*
X152400784Y-106481627D01*
X152410685Y-106714704D01*
X152459836Y-106942767D01*
X152519119Y-107090297D01*
X152546821Y-107159235D01*
X152666124Y-107352996D01*
X152669139Y-107357892D01*
X152823270Y-107533019D01*
X153004776Y-107679576D01*
X153045590Y-107702376D01*
X153090706Y-107745616D01*
X153109004Y-107805367D01*
X153095839Y-107866455D01*
X153054553Y-107913365D01*
X152911227Y-108010236D01*
X152742860Y-108171603D01*
X152604187Y-108359101D01*
X152499196Y-108567339D01*
X152457038Y-108705000D01*
X155545636Y-108705000D01*
X155539683Y-108677379D01*
X155452732Y-108460994D01*
X155330456Y-108262405D01*
X155176381Y-108087342D01*
X154994940Y-107940837D01*
X154954433Y-107918209D01*
X154909318Y-107874970D01*
X154891020Y-107815218D01*
X154904185Y-107754131D01*
X154945469Y-107707222D01*
X155089088Y-107610153D01*
X155257516Y-107448728D01*
X155396240Y-107261161D01*
X155501270Y-107052847D01*
X155569583Y-106829780D01*
X155599216Y-106598376D01*
X155589314Y-106365293D01*
X155540164Y-106137235D01*
X155535432Y-106125460D01*
X155453180Y-105920768D01*
X155453179Y-105920765D01*
X155330862Y-105722109D01*
X155176731Y-105546982D01*
X155172845Y-105543844D01*
X154995221Y-105400421D01*
X154954897Y-105377895D01*
X154909782Y-105334655D01*
X154891484Y-105274904D01*
X154904649Y-105213816D01*
X154945933Y-105166909D01*
X155089088Y-105070153D01*
X155257516Y-104908728D01*
X155396240Y-104721161D01*
X155501270Y-104512847D01*
X155569583Y-104289780D01*
X155599216Y-104058376D01*
X155589314Y-103825293D01*
X155540164Y-103597235D01*
X155540127Y-103597144D01*
X155453180Y-103380768D01*
X155453179Y-103380765D01*
X155330862Y-103182109D01*
X155176731Y-103006982D01*
X155176729Y-103006980D01*
X154995221Y-102860421D01*
X154954897Y-102837895D01*
X154909782Y-102794655D01*
X154891484Y-102734904D01*
X154904649Y-102673816D01*
X154945933Y-102626909D01*
X155089088Y-102530153D01*
X155257516Y-102368728D01*
X155396240Y-102181161D01*
X155501270Y-101972847D01*
X155558074Y-101787356D01*
X155588956Y-101735988D01*
X156844513Y-100480431D01*
X156861162Y-100467094D01*
X156862936Y-100465204D01*
X156862940Y-100465202D01*
X156910898Y-100414130D01*
X156913546Y-100411398D01*
X156933911Y-100391035D01*
X156936611Y-100387552D01*
X156944187Y-100378681D01*
X156975448Y-100345393D01*
X156985675Y-100326787D01*
X156996348Y-100310539D01*
X157009362Y-100293764D01*
X157027495Y-100251857D01*
X157032625Y-100241387D01*
X157054627Y-100201368D01*
X157059903Y-100180813D01*
X157066206Y-100162402D01*
X157074635Y-100142927D01*
X157081777Y-100097825D01*
X157084140Y-100086418D01*
X157095500Y-100042177D01*
X157095500Y-100020949D01*
X157097027Y-100001550D01*
X157097715Y-99997205D01*
X157100346Y-99980595D01*
X157096050Y-99935148D01*
X157095500Y-99923479D01*
X157095500Y-87917814D01*
X157097841Y-87896604D01*
X157095561Y-87824047D01*
X157095500Y-87820152D01*
X157095500Y-87791390D01*
X157095500Y-87791384D01*
X157094946Y-87787004D01*
X157094030Y-87775363D01*
X157092597Y-87729740D01*
X157086675Y-87709357D01*
X157082732Y-87690320D01*
X157080071Y-87669251D01*
X157063263Y-87626800D01*
X157059480Y-87615751D01*
X157046744Y-87571911D01*
X157035937Y-87553638D01*
X157027382Y-87536175D01*
X157019568Y-87516438D01*
X156992733Y-87479502D01*
X156986325Y-87469745D01*
X156963084Y-87430447D01*
X156959679Y-87427042D01*
X156948068Y-87415431D01*
X156935435Y-87400639D01*
X156922963Y-87383472D01*
X156887779Y-87354365D01*
X156879140Y-87346503D01*
X154633125Y-85100488D01*
X154619782Y-85083833D01*
X154566857Y-85034134D01*
X154564060Y-85031423D01*
X154543725Y-85011088D01*
X154540238Y-85008383D01*
X154531362Y-85000801D01*
X154498085Y-84969552D01*
X154479484Y-84959326D01*
X154463223Y-84948645D01*
X154446455Y-84935638D01*
X154404561Y-84917508D01*
X154394070Y-84912369D01*
X154354058Y-84890372D01*
X154333491Y-84885091D01*
X154315089Y-84878791D01*
X154295615Y-84870364D01*
X154250528Y-84863223D01*
X154239089Y-84860854D01*
X154194869Y-84849500D01*
X154194868Y-84849500D01*
X154173646Y-84849500D01*
X154154247Y-84847973D01*
X154133287Y-84844653D01*
X154133286Y-84844653D01*
X154111249Y-84846736D01*
X154087830Y-84848950D01*
X154076161Y-84849500D01*
X116526019Y-84849500D01*
X116465147Y-84833531D01*
X116419954Y-84789736D01*
X116402080Y-84729396D01*
X116400561Y-84681077D01*
X116400500Y-84677181D01*
X116400500Y-84648420D01*
X116400500Y-84648414D01*
X116399946Y-84644034D01*
X116399030Y-84632393D01*
X116397597Y-84586770D01*
X116391675Y-84566387D01*
X116387732Y-84547350D01*
X116385071Y-84526281D01*
X116368264Y-84483831D01*
X116364483Y-84472787D01*
X116351745Y-84428943D01*
X116351744Y-84428942D01*
X116351744Y-84428940D01*
X116340934Y-84410661D01*
X116332380Y-84393201D01*
X116324568Y-84373468D01*
X116297723Y-84336519D01*
X116291332Y-84326790D01*
X116268081Y-84287474D01*
X116253068Y-84272461D01*
X116240435Y-84257669D01*
X116227962Y-84240500D01*
X116203233Y-84220043D01*
X116167564Y-84171592D01*
X116158900Y-84112055D01*
X116179280Y-84055447D01*
X116223907Y-84015096D01*
X116282274Y-84000500D01*
X153997575Y-84000500D01*
X154002442Y-84000596D01*
G37*
G04 #@! TD.AperFunction*
G04 #@! TA.AperFunction,Conductor*
G36*
X141803824Y-99681597D02*
G01*
X141847898Y-99719407D01*
X141869925Y-99773137D01*
X141865074Y-99831004D01*
X141810000Y-99997202D01*
X141799500Y-100099990D01*
X141799500Y-100900008D01*
X141810000Y-101002796D01*
X141865186Y-101169334D01*
X141957288Y-101318657D01*
X142081342Y-101442711D01*
X142225709Y-101531757D01*
X142230666Y-101534814D01*
X142264505Y-101546027D01*
X142308830Y-101571906D01*
X142338877Y-101613518D01*
X142349500Y-101663733D01*
X142349500Y-102197519D01*
X142334929Y-102255840D01*
X142294639Y-102300455D01*
X142238100Y-102320877D01*
X142222202Y-102322500D01*
X142055663Y-102377686D01*
X141906344Y-102469788D01*
X141782288Y-102593844D01*
X141690186Y-102743163D01*
X141635000Y-102909702D01*
X141624500Y-103012492D01*
X141624500Y-104037508D01*
X141635000Y-104140297D01*
X141690186Y-104306836D01*
X141782288Y-104456155D01*
X141906344Y-104580211D01*
X142055663Y-104672313D01*
X142222202Y-104727499D01*
X142324992Y-104738000D01*
X142694164Y-104738000D01*
X142750459Y-104751515D01*
X142794482Y-104789115D01*
X142816637Y-104842602D01*
X142812095Y-104900318D01*
X142781845Y-104949681D01*
X142480845Y-105250681D01*
X142440617Y-105277561D01*
X142393164Y-105287000D01*
X142324992Y-105287000D01*
X142222202Y-105297500D01*
X142055663Y-105352686D01*
X141906344Y-105444788D01*
X141782288Y-105568844D01*
X141690186Y-105718163D01*
X141635000Y-105884702D01*
X141624500Y-105987492D01*
X141624500Y-107012508D01*
X141635000Y-107115297D01*
X141690186Y-107281836D01*
X141782288Y-107431155D01*
X141906344Y-107555211D01*
X142055663Y-107647313D01*
X142055665Y-107647313D01*
X142055666Y-107647314D01*
X142164505Y-107683379D01*
X142208829Y-107709258D01*
X142238877Y-107750869D01*
X142249500Y-107801085D01*
X142249500Y-108475501D01*
X142232887Y-108537501D01*
X142187500Y-108582888D01*
X142125500Y-108599501D01*
X141949991Y-108599501D01*
X141847203Y-108610000D01*
X141680665Y-108665186D01*
X141531342Y-108757288D01*
X141407288Y-108881342D01*
X141315186Y-109030665D01*
X141260000Y-109197202D01*
X141249500Y-109299990D01*
X141249500Y-110700008D01*
X141260000Y-110802796D01*
X141315186Y-110969334D01*
X141407288Y-111118657D01*
X141531342Y-111242711D01*
X141531344Y-111242712D01*
X141680666Y-111334814D01*
X141792017Y-111371712D01*
X141847202Y-111389999D01*
X141949991Y-111400500D01*
X142125500Y-111400500D01*
X142187500Y-111417113D01*
X142232887Y-111462500D01*
X142249500Y-111524500D01*
X142249500Y-114179109D01*
X142242417Y-114220418D01*
X142168925Y-114428418D01*
X142129500Y-114658351D01*
X142129500Y-115283220D01*
X142144329Y-115457451D01*
X142203114Y-115683217D01*
X142219481Y-115719425D01*
X142230146Y-115779705D01*
X142210674Y-115837741D01*
X142165810Y-115879390D01*
X142106488Y-115894500D01*
X141214336Y-115894500D01*
X141166883Y-115885061D01*
X141126655Y-115858181D01*
X139886818Y-114618344D01*
X139859938Y-114578116D01*
X139850499Y-114530663D01*
X139850499Y-114102130D01*
X139850499Y-114102128D01*
X139844091Y-114042517D01*
X139793796Y-113907669D01*
X139707546Y-113792454D01*
X139592331Y-113706204D01*
X139457483Y-113655909D01*
X139397873Y-113649500D01*
X139397869Y-113649500D01*
X137602130Y-113649500D01*
X137542515Y-113655909D01*
X137457833Y-113687494D01*
X137399046Y-113694345D01*
X137343780Y-113673168D01*
X137304624Y-113628787D01*
X137290500Y-113571312D01*
X137290500Y-113029336D01*
X137299939Y-112981883D01*
X137326819Y-112941655D01*
X138831655Y-111436818D01*
X138871883Y-111409938D01*
X138919336Y-111400499D01*
X140050009Y-111400499D01*
X140101402Y-111395248D01*
X140152797Y-111389999D01*
X140319334Y-111334814D01*
X140468656Y-111242712D01*
X140592712Y-111118656D01*
X140684814Y-110969334D01*
X140739999Y-110802797D01*
X140750500Y-110700009D01*
X140750499Y-109299992D01*
X140750151Y-109296590D01*
X140739999Y-109197203D01*
X140717511Y-109129340D01*
X140684814Y-109030666D01*
X140592712Y-108881344D01*
X140592711Y-108881342D01*
X140468657Y-108757288D01*
X140319334Y-108665186D01*
X140152797Y-108610000D01*
X140050009Y-108599500D01*
X136949991Y-108599500D01*
X136847203Y-108610000D01*
X136680665Y-108665186D01*
X136531342Y-108757288D01*
X136407288Y-108881342D01*
X136315186Y-109030665D01*
X136260000Y-109197202D01*
X136249500Y-109299991D01*
X136249500Y-110430662D01*
X136240061Y-110478115D01*
X136213181Y-110518343D01*
X135962180Y-110769343D01*
X135912817Y-110799593D01*
X135855101Y-110804135D01*
X135801614Y-110781980D01*
X135764014Y-110737957D01*
X135750499Y-110681666D01*
X135750499Y-109299992D01*
X135750151Y-109296590D01*
X135739999Y-109197203D01*
X135717511Y-109129340D01*
X135684814Y-109030666D01*
X135592712Y-108881344D01*
X135592711Y-108881342D01*
X135468657Y-108757288D01*
X135319334Y-108665186D01*
X135152797Y-108610000D01*
X135050009Y-108599500D01*
X134874500Y-108599500D01*
X134812500Y-108582887D01*
X134767113Y-108537500D01*
X134750500Y-108475500D01*
X134750500Y-107077186D01*
X134751280Y-107063302D01*
X134755238Y-107028173D01*
X134750781Y-106962068D01*
X134750500Y-106953726D01*
X134750500Y-106943850D01*
X134750403Y-106942767D01*
X134746839Y-106903178D01*
X134746630Y-106900516D01*
X134740096Y-106803588D01*
X134739028Y-106799352D01*
X134735768Y-106780169D01*
X134735377Y-106775812D01*
X134709527Y-106682150D01*
X134708832Y-106679517D01*
X134701897Y-106651994D01*
X134702606Y-106588709D01*
X134734455Y-106534017D01*
X135396930Y-105871542D01*
X135450455Y-105840022D01*
X135512556Y-105838417D01*
X135567642Y-105867133D01*
X135601888Y-105918962D01*
X135672781Y-106125462D01*
X135787348Y-106337164D01*
X135935201Y-106527126D01*
X136112292Y-106690151D01*
X136313819Y-106821815D01*
X136534255Y-106918506D01*
X136680000Y-106955415D01*
X136680000Y-105915000D01*
X137430000Y-105915000D01*
X137430000Y-106955415D01*
X137575744Y-106918506D01*
X137796180Y-106821815D01*
X137997707Y-106690151D01*
X138174798Y-106527126D01*
X138322651Y-106337164D01*
X138437219Y-106125460D01*
X138509471Y-105915000D01*
X137430000Y-105915000D01*
X136680000Y-105915000D01*
X136680000Y-105289000D01*
X136696613Y-105227000D01*
X136742000Y-105181613D01*
X136804000Y-105165000D01*
X138509471Y-105165000D01*
X138509471Y-105164999D01*
X138437219Y-104954539D01*
X138322651Y-104742835D01*
X138174798Y-104552873D01*
X137997704Y-104389846D01*
X137973614Y-104374107D01*
X137932380Y-104329315D01*
X137917435Y-104270297D01*
X137932381Y-104211279D01*
X137973612Y-104166490D01*
X137998010Y-104150551D01*
X138175171Y-103987463D01*
X138323072Y-103797439D01*
X138437679Y-103585664D01*
X138515866Y-103357913D01*
X138555500Y-103120399D01*
X138555500Y-102879601D01*
X138515866Y-102642087D01*
X138437679Y-102414336D01*
X138323072Y-102202561D01*
X138212165Y-102060067D01*
X138188312Y-102007641D01*
X138190720Y-101950091D01*
X138218870Y-101899838D01*
X138266685Y-101867726D01*
X138297331Y-101856296D01*
X138412546Y-101770046D01*
X138498796Y-101654831D01*
X138549091Y-101519983D01*
X138555500Y-101460373D01*
X138555499Y-99791999D01*
X138572112Y-99730000D01*
X138617499Y-99684613D01*
X138679499Y-99668000D01*
X141747368Y-99668000D01*
X141803824Y-99681597D01*
G37*
G04 #@! TD.AperFunction*
G04 #@! TA.AperFunction,Conductor*
G36*
X131803824Y-99681597D02*
G01*
X131847898Y-99719407D01*
X131869925Y-99773137D01*
X131865074Y-99831004D01*
X131810000Y-99997202D01*
X131799500Y-100099990D01*
X131799500Y-100900008D01*
X131810000Y-101002796D01*
X131865186Y-101169334D01*
X131957288Y-101318657D01*
X132081342Y-101442711D01*
X132225709Y-101531757D01*
X132230666Y-101534814D01*
X132264505Y-101546027D01*
X132308830Y-101571906D01*
X132338877Y-101613518D01*
X132349500Y-101663733D01*
X132349500Y-102197519D01*
X132334929Y-102255840D01*
X132294639Y-102300455D01*
X132238100Y-102320877D01*
X132222202Y-102322500D01*
X132055663Y-102377686D01*
X131906344Y-102469788D01*
X131782288Y-102593844D01*
X131690186Y-102743163D01*
X131635000Y-102909702D01*
X131624500Y-103012492D01*
X131624500Y-104037508D01*
X131635000Y-104140297D01*
X131690186Y-104306836D01*
X131782288Y-104456155D01*
X131906344Y-104580211D01*
X132055663Y-104672313D01*
X132222202Y-104727499D01*
X132324992Y-104738000D01*
X132694164Y-104738000D01*
X132750459Y-104751515D01*
X132794482Y-104789115D01*
X132816637Y-104842602D01*
X132812095Y-104900318D01*
X132781845Y-104949681D01*
X132480845Y-105250681D01*
X132440617Y-105277561D01*
X132393164Y-105287000D01*
X132324992Y-105287000D01*
X132222202Y-105297500D01*
X132055663Y-105352686D01*
X131906344Y-105444788D01*
X131782288Y-105568844D01*
X131690186Y-105718163D01*
X131635000Y-105884702D01*
X131624500Y-105987492D01*
X131624500Y-107012508D01*
X131635000Y-107115297D01*
X131690186Y-107281836D01*
X131782288Y-107431155D01*
X131906344Y-107555211D01*
X132055663Y-107647313D01*
X132055665Y-107647313D01*
X132055666Y-107647314D01*
X132164505Y-107683379D01*
X132208829Y-107709258D01*
X132238877Y-107750869D01*
X132249500Y-107801085D01*
X132249500Y-108475501D01*
X132232887Y-108537501D01*
X132187500Y-108582888D01*
X132125500Y-108599501D01*
X131949991Y-108599501D01*
X131847203Y-108610000D01*
X131680665Y-108665186D01*
X131531342Y-108757288D01*
X131407288Y-108881342D01*
X131315186Y-109030665D01*
X131260000Y-109197202D01*
X131249500Y-109299990D01*
X131249500Y-110700008D01*
X131260000Y-110802796D01*
X131315186Y-110969334D01*
X131407288Y-111118657D01*
X131531342Y-111242711D01*
X131531344Y-111242712D01*
X131680666Y-111334814D01*
X131792017Y-111371712D01*
X131847202Y-111389999D01*
X131949991Y-111400500D01*
X132125500Y-111400500D01*
X132187500Y-111417113D01*
X132232887Y-111462500D01*
X132249500Y-111524500D01*
X132249500Y-114179109D01*
X132242417Y-114220418D01*
X132168925Y-114428418D01*
X132129500Y-114658351D01*
X132129500Y-115283220D01*
X132144329Y-115457451D01*
X132203114Y-115683217D01*
X132219481Y-115719425D01*
X132230146Y-115779705D01*
X132210674Y-115837741D01*
X132165810Y-115879390D01*
X132106488Y-115894500D01*
X131214336Y-115894500D01*
X131166883Y-115885061D01*
X131126655Y-115858181D01*
X129886818Y-114618344D01*
X129859938Y-114578116D01*
X129850499Y-114530663D01*
X129850499Y-114102130D01*
X129850499Y-114102128D01*
X129844091Y-114042517D01*
X129793796Y-113907669D01*
X129707546Y-113792454D01*
X129592331Y-113706204D01*
X129457483Y-113655909D01*
X129397873Y-113649500D01*
X129397869Y-113649500D01*
X127602130Y-113649500D01*
X127542515Y-113655909D01*
X127457833Y-113687494D01*
X127399046Y-113694345D01*
X127343780Y-113673168D01*
X127304624Y-113628787D01*
X127290500Y-113571312D01*
X127290500Y-113029336D01*
X127299939Y-112981883D01*
X127326819Y-112941655D01*
X128831655Y-111436818D01*
X128871883Y-111409938D01*
X128919336Y-111400499D01*
X130050009Y-111400499D01*
X130101402Y-111395248D01*
X130152797Y-111389999D01*
X130319334Y-111334814D01*
X130468656Y-111242712D01*
X130592712Y-111118656D01*
X130684814Y-110969334D01*
X130739999Y-110802797D01*
X130750500Y-110700009D01*
X130750499Y-109299992D01*
X130750151Y-109296590D01*
X130739999Y-109197203D01*
X130717511Y-109129340D01*
X130684814Y-109030666D01*
X130592712Y-108881344D01*
X130592711Y-108881342D01*
X130468657Y-108757288D01*
X130319334Y-108665186D01*
X130152797Y-108610000D01*
X130050009Y-108599500D01*
X126949991Y-108599500D01*
X126847203Y-108610000D01*
X126680665Y-108665186D01*
X126531342Y-108757288D01*
X126407288Y-108881342D01*
X126315186Y-109030665D01*
X126260000Y-109197202D01*
X126249500Y-109299991D01*
X126249500Y-110430662D01*
X126240061Y-110478115D01*
X126213181Y-110518343D01*
X125962180Y-110769343D01*
X125912817Y-110799593D01*
X125855101Y-110804135D01*
X125801614Y-110781980D01*
X125764014Y-110737957D01*
X125750499Y-110681666D01*
X125750499Y-109299992D01*
X125750151Y-109296590D01*
X125739999Y-109197203D01*
X125717511Y-109129340D01*
X125684814Y-109030666D01*
X125592712Y-108881344D01*
X125592711Y-108881342D01*
X125468657Y-108757288D01*
X125319334Y-108665186D01*
X125152797Y-108610000D01*
X125050009Y-108599500D01*
X124874500Y-108599500D01*
X124812500Y-108582887D01*
X124767113Y-108537500D01*
X124750500Y-108475500D01*
X124750500Y-107077186D01*
X124751280Y-107063302D01*
X124755238Y-107028173D01*
X124750781Y-106962068D01*
X124750500Y-106953726D01*
X124750500Y-106943850D01*
X124750403Y-106942767D01*
X124746839Y-106903178D01*
X124746630Y-106900516D01*
X124740096Y-106803588D01*
X124739028Y-106799352D01*
X124735768Y-106780169D01*
X124735377Y-106775812D01*
X124709527Y-106682150D01*
X124708832Y-106679517D01*
X124701897Y-106651994D01*
X124702606Y-106588709D01*
X124734455Y-106534017D01*
X125366209Y-105902263D01*
X125419734Y-105870743D01*
X125481835Y-105869138D01*
X125536921Y-105897854D01*
X125571167Y-105949683D01*
X125617781Y-106085462D01*
X125732348Y-106297164D01*
X125880201Y-106487126D01*
X126057292Y-106650151D01*
X126258819Y-106781815D01*
X126479255Y-106878506D01*
X126625000Y-106915415D01*
X126625000Y-105875000D01*
X127375000Y-105875000D01*
X127375000Y-106915415D01*
X127520744Y-106878506D01*
X127741180Y-106781815D01*
X127942707Y-106650151D01*
X128119798Y-106487126D01*
X128267651Y-106297164D01*
X128382219Y-106085460D01*
X128454471Y-105875000D01*
X127375000Y-105875000D01*
X126625000Y-105875000D01*
X126625000Y-105249000D01*
X126641613Y-105187000D01*
X126687000Y-105141613D01*
X126749000Y-105125000D01*
X128454471Y-105125000D01*
X128454471Y-105124999D01*
X128382219Y-104914539D01*
X128267651Y-104702835D01*
X128119798Y-104512873D01*
X127942704Y-104349846D01*
X127918614Y-104334107D01*
X127877380Y-104289315D01*
X127862435Y-104230297D01*
X127877381Y-104171279D01*
X127918612Y-104126490D01*
X127943010Y-104110551D01*
X128120171Y-103947463D01*
X128268072Y-103757439D01*
X128382679Y-103545664D01*
X128460866Y-103317913D01*
X128500500Y-103080399D01*
X128500500Y-102839601D01*
X128460866Y-102602087D01*
X128382679Y-102374336D01*
X128268072Y-102162561D01*
X128157165Y-102020067D01*
X128133312Y-101967641D01*
X128135720Y-101910091D01*
X128163870Y-101859838D01*
X128211685Y-101827726D01*
X128242331Y-101816296D01*
X128357546Y-101730046D01*
X128443796Y-101614831D01*
X128494091Y-101479983D01*
X128500500Y-101420373D01*
X128500499Y-99791999D01*
X128517112Y-99730000D01*
X128562499Y-99684613D01*
X128624499Y-99668000D01*
X131747368Y-99668000D01*
X131803824Y-99681597D01*
G37*
G04 #@! TD.AperFunction*
G04 #@! TA.AperFunction,Conductor*
G36*
X121803824Y-99681597D02*
G01*
X121847898Y-99719407D01*
X121869925Y-99773137D01*
X121865074Y-99831004D01*
X121810000Y-99997202D01*
X121799500Y-100099990D01*
X121799500Y-100900008D01*
X121810000Y-101002796D01*
X121865186Y-101169334D01*
X121957288Y-101318657D01*
X122081342Y-101442711D01*
X122225709Y-101531757D01*
X122230666Y-101534814D01*
X122264505Y-101546027D01*
X122308830Y-101571906D01*
X122338877Y-101613518D01*
X122349500Y-101663733D01*
X122349500Y-102197519D01*
X122334929Y-102255840D01*
X122294639Y-102300455D01*
X122238100Y-102320877D01*
X122222202Y-102322500D01*
X122055663Y-102377686D01*
X121906344Y-102469788D01*
X121782288Y-102593844D01*
X121690186Y-102743163D01*
X121635000Y-102909702D01*
X121624500Y-103012492D01*
X121624500Y-104037508D01*
X121635000Y-104140297D01*
X121690186Y-104306836D01*
X121782288Y-104456155D01*
X121906344Y-104580211D01*
X122055663Y-104672313D01*
X122222202Y-104727499D01*
X122324992Y-104738000D01*
X122694164Y-104738000D01*
X122750459Y-104751515D01*
X122794482Y-104789115D01*
X122816637Y-104842602D01*
X122812095Y-104900318D01*
X122781845Y-104949681D01*
X122480845Y-105250681D01*
X122440617Y-105277561D01*
X122393164Y-105287000D01*
X122324992Y-105287000D01*
X122222202Y-105297500D01*
X122055663Y-105352686D01*
X121906344Y-105444788D01*
X121782288Y-105568844D01*
X121690186Y-105718163D01*
X121635000Y-105884702D01*
X121624500Y-105987492D01*
X121624500Y-107012508D01*
X121635000Y-107115297D01*
X121690186Y-107281836D01*
X121782288Y-107431155D01*
X121906344Y-107555211D01*
X122055663Y-107647313D01*
X122055665Y-107647313D01*
X122055666Y-107647314D01*
X122164505Y-107683379D01*
X122208829Y-107709258D01*
X122238877Y-107750869D01*
X122249500Y-107801085D01*
X122249500Y-108475501D01*
X122232887Y-108537501D01*
X122187500Y-108582888D01*
X122125500Y-108599501D01*
X121949991Y-108599501D01*
X121847203Y-108610000D01*
X121680665Y-108665186D01*
X121531342Y-108757288D01*
X121407288Y-108881342D01*
X121315186Y-109030665D01*
X121260000Y-109197202D01*
X121249500Y-109299990D01*
X121249500Y-110700008D01*
X121260000Y-110802796D01*
X121315186Y-110969334D01*
X121407288Y-111118657D01*
X121531342Y-111242711D01*
X121531344Y-111242712D01*
X121680666Y-111334814D01*
X121792017Y-111371712D01*
X121847202Y-111389999D01*
X121949991Y-111400500D01*
X122125500Y-111400500D01*
X122187500Y-111417113D01*
X122232887Y-111462500D01*
X122249500Y-111524500D01*
X122249500Y-114179109D01*
X122242417Y-114220418D01*
X122168925Y-114428418D01*
X122129500Y-114658351D01*
X122129500Y-115283220D01*
X122144329Y-115457451D01*
X122203114Y-115683217D01*
X122219481Y-115719425D01*
X122230146Y-115779705D01*
X122210674Y-115837741D01*
X122165810Y-115879390D01*
X122106488Y-115894500D01*
X121214336Y-115894500D01*
X121166883Y-115885061D01*
X121126655Y-115858181D01*
X119886818Y-114618344D01*
X119859938Y-114578116D01*
X119850499Y-114530663D01*
X119850499Y-114102130D01*
X119850499Y-114102128D01*
X119844091Y-114042517D01*
X119793796Y-113907669D01*
X119707546Y-113792454D01*
X119592331Y-113706204D01*
X119457483Y-113655909D01*
X119397873Y-113649500D01*
X119397869Y-113649500D01*
X117602130Y-113649500D01*
X117542515Y-113655909D01*
X117457833Y-113687494D01*
X117399046Y-113694345D01*
X117343780Y-113673168D01*
X117304624Y-113628787D01*
X117290500Y-113571312D01*
X117290500Y-113029336D01*
X117299939Y-112981883D01*
X117326819Y-112941655D01*
X118831655Y-111436818D01*
X118871883Y-111409938D01*
X118919336Y-111400499D01*
X120050009Y-111400499D01*
X120101402Y-111395248D01*
X120152797Y-111389999D01*
X120319334Y-111334814D01*
X120468656Y-111242712D01*
X120592712Y-111118656D01*
X120684814Y-110969334D01*
X120739999Y-110802797D01*
X120750500Y-110700009D01*
X120750499Y-109299992D01*
X120750151Y-109296590D01*
X120739999Y-109197203D01*
X120717511Y-109129340D01*
X120684814Y-109030666D01*
X120592712Y-108881344D01*
X120592711Y-108881342D01*
X120468657Y-108757288D01*
X120319334Y-108665186D01*
X120152797Y-108610000D01*
X120050009Y-108599500D01*
X116949991Y-108599500D01*
X116847203Y-108610000D01*
X116680665Y-108665186D01*
X116531342Y-108757288D01*
X116407288Y-108881342D01*
X116315186Y-109030665D01*
X116260000Y-109197202D01*
X116249500Y-109299991D01*
X116249500Y-110430662D01*
X116240061Y-110478115D01*
X116213181Y-110518343D01*
X115962180Y-110769343D01*
X115912817Y-110799593D01*
X115855101Y-110804135D01*
X115801614Y-110781980D01*
X115764014Y-110737957D01*
X115750499Y-110681666D01*
X115750499Y-109299992D01*
X115750151Y-109296590D01*
X115739999Y-109197203D01*
X115717511Y-109129340D01*
X115684814Y-109030666D01*
X115592712Y-108881344D01*
X115592711Y-108881342D01*
X115468657Y-108757288D01*
X115319334Y-108665186D01*
X115152797Y-108610000D01*
X115050009Y-108599500D01*
X114874500Y-108599500D01*
X114812500Y-108582887D01*
X114767113Y-108537500D01*
X114750500Y-108475500D01*
X114750500Y-107077186D01*
X114751280Y-107063302D01*
X114755238Y-107028173D01*
X114750781Y-106962068D01*
X114750500Y-106953726D01*
X114750500Y-106943850D01*
X114750403Y-106942767D01*
X114746839Y-106903178D01*
X114746630Y-106900516D01*
X114740096Y-106803588D01*
X114739028Y-106799352D01*
X114735768Y-106780169D01*
X114735377Y-106775812D01*
X114709527Y-106682150D01*
X114708832Y-106679517D01*
X114701897Y-106651994D01*
X114702606Y-106588709D01*
X114734455Y-106534017D01*
X115355986Y-105912486D01*
X115409511Y-105880966D01*
X115471612Y-105879361D01*
X115526698Y-105908077D01*
X115560944Y-105959906D01*
X115617781Y-106125462D01*
X115732348Y-106337164D01*
X115880201Y-106527126D01*
X116057292Y-106690151D01*
X116258819Y-106821815D01*
X116479255Y-106918506D01*
X116625000Y-106955415D01*
X116625000Y-105915000D01*
X117375000Y-105915000D01*
X117375000Y-106955415D01*
X117520744Y-106918506D01*
X117741180Y-106821815D01*
X117942707Y-106690151D01*
X118119798Y-106527126D01*
X118267651Y-106337164D01*
X118382219Y-106125460D01*
X118454471Y-105915000D01*
X117375000Y-105915000D01*
X116625000Y-105915000D01*
X116625000Y-105289000D01*
X116641613Y-105227000D01*
X116687000Y-105181613D01*
X116749000Y-105165000D01*
X118454471Y-105165000D01*
X118454471Y-105164999D01*
X118382219Y-104954539D01*
X118267651Y-104742835D01*
X118119798Y-104552873D01*
X117942704Y-104389846D01*
X117918614Y-104374107D01*
X117877380Y-104329315D01*
X117862435Y-104270297D01*
X117877381Y-104211279D01*
X117918612Y-104166490D01*
X117943010Y-104150551D01*
X118120171Y-103987463D01*
X118268072Y-103797439D01*
X118382679Y-103585664D01*
X118460866Y-103357913D01*
X118500500Y-103120399D01*
X118500500Y-102879601D01*
X118460866Y-102642087D01*
X118382679Y-102414336D01*
X118268072Y-102202561D01*
X118157165Y-102060067D01*
X118133312Y-102007641D01*
X118135720Y-101950091D01*
X118163870Y-101899838D01*
X118211685Y-101867726D01*
X118242331Y-101856296D01*
X118357546Y-101770046D01*
X118443796Y-101654831D01*
X118494091Y-101519983D01*
X118500500Y-101460373D01*
X118500499Y-99791999D01*
X118517112Y-99730000D01*
X118562499Y-99684613D01*
X118624499Y-99668000D01*
X121747368Y-99668000D01*
X121803824Y-99681597D01*
G37*
G04 #@! TD.AperFunction*
G04 #@! TA.AperFunction,Conductor*
G36*
X111803824Y-99681597D02*
G01*
X111847898Y-99719407D01*
X111869925Y-99773137D01*
X111865074Y-99831004D01*
X111810000Y-99997202D01*
X111799500Y-100099990D01*
X111799500Y-100900008D01*
X111810000Y-101002796D01*
X111865186Y-101169334D01*
X111957288Y-101318657D01*
X112081342Y-101442711D01*
X112225709Y-101531757D01*
X112230666Y-101534814D01*
X112264505Y-101546027D01*
X112308830Y-101571906D01*
X112338877Y-101613518D01*
X112349500Y-101663733D01*
X112349500Y-102197519D01*
X112334929Y-102255840D01*
X112294639Y-102300455D01*
X112238100Y-102320877D01*
X112222202Y-102322500D01*
X112055663Y-102377686D01*
X111906344Y-102469788D01*
X111782288Y-102593844D01*
X111690186Y-102743163D01*
X111635000Y-102909702D01*
X111624500Y-103012492D01*
X111624500Y-104037508D01*
X111635000Y-104140297D01*
X111690186Y-104306836D01*
X111782288Y-104456155D01*
X111906344Y-104580211D01*
X112055663Y-104672313D01*
X112222202Y-104727499D01*
X112324992Y-104738000D01*
X112694164Y-104738000D01*
X112750459Y-104751515D01*
X112794482Y-104789115D01*
X112816637Y-104842602D01*
X112812095Y-104900318D01*
X112781845Y-104949681D01*
X112480845Y-105250681D01*
X112440617Y-105277561D01*
X112393164Y-105287000D01*
X112324992Y-105287000D01*
X112222202Y-105297500D01*
X112055663Y-105352686D01*
X111906344Y-105444788D01*
X111782288Y-105568844D01*
X111690186Y-105718163D01*
X111635000Y-105884702D01*
X111624500Y-105987492D01*
X111624500Y-107012508D01*
X111635000Y-107115297D01*
X111690186Y-107281836D01*
X111782288Y-107431155D01*
X111906344Y-107555211D01*
X112055663Y-107647313D01*
X112055665Y-107647313D01*
X112055666Y-107647314D01*
X112164505Y-107683379D01*
X112208829Y-107709258D01*
X112238877Y-107750869D01*
X112249500Y-107801085D01*
X112249500Y-108475501D01*
X112232887Y-108537501D01*
X112187500Y-108582888D01*
X112125500Y-108599501D01*
X111949991Y-108599501D01*
X111847203Y-108610000D01*
X111680665Y-108665186D01*
X111531342Y-108757288D01*
X111407288Y-108881342D01*
X111315186Y-109030665D01*
X111260000Y-109197202D01*
X111249500Y-109299990D01*
X111249500Y-110700008D01*
X111260000Y-110802796D01*
X111315186Y-110969334D01*
X111407288Y-111118657D01*
X111531342Y-111242711D01*
X111531344Y-111242712D01*
X111680666Y-111334814D01*
X111792017Y-111371712D01*
X111847202Y-111389999D01*
X111949991Y-111400500D01*
X112125500Y-111400500D01*
X112187500Y-111417113D01*
X112232887Y-111462500D01*
X112249500Y-111524500D01*
X112249500Y-114179109D01*
X112242417Y-114220418D01*
X112168925Y-114428418D01*
X112129500Y-114658351D01*
X112129500Y-115283220D01*
X112144329Y-115457451D01*
X112203114Y-115683217D01*
X112219481Y-115719425D01*
X112230146Y-115779705D01*
X112210674Y-115837741D01*
X112165810Y-115879390D01*
X112106488Y-115894500D01*
X111214336Y-115894500D01*
X111166883Y-115885061D01*
X111126655Y-115858181D01*
X109886818Y-114618344D01*
X109859938Y-114578116D01*
X109850499Y-114530663D01*
X109850499Y-114102130D01*
X109850499Y-114102128D01*
X109844091Y-114042517D01*
X109793796Y-113907669D01*
X109707546Y-113792454D01*
X109592331Y-113706204D01*
X109457483Y-113655909D01*
X109397873Y-113649500D01*
X109397869Y-113649500D01*
X107602130Y-113649500D01*
X107542515Y-113655909D01*
X107457833Y-113687494D01*
X107399046Y-113694345D01*
X107343780Y-113673168D01*
X107304624Y-113628787D01*
X107290500Y-113571312D01*
X107290500Y-113029336D01*
X107299939Y-112981883D01*
X107326819Y-112941655D01*
X108831655Y-111436818D01*
X108871883Y-111409938D01*
X108919336Y-111400499D01*
X110050009Y-111400499D01*
X110101402Y-111395248D01*
X110152797Y-111389999D01*
X110319334Y-111334814D01*
X110468656Y-111242712D01*
X110592712Y-111118656D01*
X110684814Y-110969334D01*
X110739999Y-110802797D01*
X110750500Y-110700009D01*
X110750499Y-109299992D01*
X110750151Y-109296590D01*
X110739999Y-109197203D01*
X110717511Y-109129340D01*
X110684814Y-109030666D01*
X110592712Y-108881344D01*
X110592711Y-108881342D01*
X110468657Y-108757288D01*
X110319334Y-108665186D01*
X110152797Y-108610000D01*
X110050009Y-108599500D01*
X106949991Y-108599500D01*
X106847203Y-108610000D01*
X106680665Y-108665186D01*
X106531342Y-108757288D01*
X106407288Y-108881342D01*
X106315186Y-109030665D01*
X106260000Y-109197202D01*
X106249500Y-109299991D01*
X106249500Y-110430662D01*
X106240061Y-110478115D01*
X106213181Y-110518343D01*
X105962180Y-110769343D01*
X105912817Y-110799593D01*
X105855101Y-110804135D01*
X105801614Y-110781980D01*
X105764014Y-110737957D01*
X105750499Y-110681666D01*
X105750499Y-109299992D01*
X105750151Y-109296590D01*
X105739999Y-109197203D01*
X105717511Y-109129340D01*
X105684814Y-109030666D01*
X105592712Y-108881344D01*
X105592711Y-108881342D01*
X105468657Y-108757288D01*
X105319334Y-108665186D01*
X105152797Y-108610000D01*
X105050009Y-108599500D01*
X104874500Y-108599500D01*
X104812500Y-108582887D01*
X104767113Y-108537500D01*
X104750500Y-108475500D01*
X104750500Y-107077186D01*
X104751280Y-107063302D01*
X104755238Y-107028173D01*
X104750781Y-106962068D01*
X104750500Y-106953726D01*
X104750500Y-106943850D01*
X104750403Y-106942767D01*
X104746839Y-106903178D01*
X104746630Y-106900516D01*
X104740096Y-106803588D01*
X104739028Y-106799352D01*
X104735768Y-106780169D01*
X104735377Y-106775812D01*
X104709527Y-106682150D01*
X104708832Y-106679517D01*
X104701897Y-106651994D01*
X104702606Y-106588709D01*
X104734455Y-106534017D01*
X105407153Y-105861319D01*
X105460678Y-105829799D01*
X105522779Y-105828194D01*
X105577865Y-105856910D01*
X105612111Y-105908740D01*
X105672780Y-106085460D01*
X105787348Y-106297164D01*
X105935201Y-106487126D01*
X106112292Y-106650151D01*
X106313819Y-106781815D01*
X106534255Y-106878506D01*
X106680000Y-106915415D01*
X106680000Y-105875000D01*
X107430000Y-105875000D01*
X107430000Y-106915415D01*
X107575744Y-106878506D01*
X107796180Y-106781815D01*
X107997707Y-106650151D01*
X108174798Y-106487126D01*
X108322651Y-106297164D01*
X108437219Y-106085460D01*
X108509471Y-105875000D01*
X107430000Y-105875000D01*
X106680000Y-105875000D01*
X106680000Y-105249000D01*
X106696613Y-105187000D01*
X106742000Y-105141613D01*
X106804000Y-105125000D01*
X108509471Y-105125000D01*
X108509471Y-105124999D01*
X108437219Y-104914539D01*
X108322651Y-104702835D01*
X108174798Y-104512873D01*
X107997704Y-104349846D01*
X107973614Y-104334107D01*
X107932380Y-104289315D01*
X107917435Y-104230297D01*
X107932381Y-104171279D01*
X107973612Y-104126490D01*
X107998010Y-104110551D01*
X108175171Y-103947463D01*
X108323072Y-103757439D01*
X108437679Y-103545664D01*
X108515866Y-103317913D01*
X108555500Y-103080399D01*
X108555500Y-102839601D01*
X108515866Y-102602087D01*
X108437679Y-102374336D01*
X108323072Y-102162561D01*
X108212165Y-102020067D01*
X108188312Y-101967641D01*
X108190720Y-101910091D01*
X108218870Y-101859838D01*
X108266685Y-101827726D01*
X108297331Y-101816296D01*
X108412546Y-101730046D01*
X108498796Y-101614831D01*
X108549091Y-101479983D01*
X108555500Y-101420373D01*
X108555499Y-99791999D01*
X108572112Y-99730000D01*
X108617499Y-99684613D01*
X108679499Y-99668000D01*
X111747368Y-99668000D01*
X111803824Y-99681597D01*
G37*
G04 #@! TD.AperFunction*
G04 #@! TA.AperFunction,Conductor*
G36*
X101803824Y-99681597D02*
G01*
X101847898Y-99719407D01*
X101869925Y-99773137D01*
X101865074Y-99831004D01*
X101810000Y-99997202D01*
X101799500Y-100099990D01*
X101799500Y-100900008D01*
X101810000Y-101002796D01*
X101865186Y-101169334D01*
X101957288Y-101318657D01*
X102081342Y-101442711D01*
X102225709Y-101531757D01*
X102230666Y-101534814D01*
X102264505Y-101546027D01*
X102308830Y-101571906D01*
X102338877Y-101613518D01*
X102349500Y-101663733D01*
X102349500Y-102197519D01*
X102334929Y-102255840D01*
X102294639Y-102300455D01*
X102238100Y-102320877D01*
X102222202Y-102322500D01*
X102055663Y-102377686D01*
X101906344Y-102469788D01*
X101782288Y-102593844D01*
X101690186Y-102743163D01*
X101635000Y-102909702D01*
X101624500Y-103012492D01*
X101624500Y-104037508D01*
X101635000Y-104140297D01*
X101690186Y-104306836D01*
X101782288Y-104456155D01*
X101906344Y-104580211D01*
X102055663Y-104672313D01*
X102222202Y-104727499D01*
X102324992Y-104738000D01*
X102694164Y-104738000D01*
X102750459Y-104751515D01*
X102794482Y-104789115D01*
X102816637Y-104842602D01*
X102812095Y-104900318D01*
X102781845Y-104949681D01*
X102480845Y-105250681D01*
X102440617Y-105277561D01*
X102393164Y-105287000D01*
X102324992Y-105287000D01*
X102222202Y-105297500D01*
X102055663Y-105352686D01*
X101906344Y-105444788D01*
X101782288Y-105568844D01*
X101690186Y-105718163D01*
X101635000Y-105884702D01*
X101624500Y-105987492D01*
X101624500Y-107012508D01*
X101635000Y-107115297D01*
X101690186Y-107281836D01*
X101782288Y-107431155D01*
X101906344Y-107555211D01*
X102055663Y-107647313D01*
X102055665Y-107647313D01*
X102055666Y-107647314D01*
X102164505Y-107683379D01*
X102208829Y-107709258D01*
X102238877Y-107750869D01*
X102249500Y-107801085D01*
X102249500Y-108475501D01*
X102232887Y-108537501D01*
X102187500Y-108582888D01*
X102125500Y-108599501D01*
X101949991Y-108599501D01*
X101847203Y-108610000D01*
X101680665Y-108665186D01*
X101531342Y-108757288D01*
X101407288Y-108881342D01*
X101315186Y-109030665D01*
X101260000Y-109197202D01*
X101249500Y-109299990D01*
X101249500Y-110700008D01*
X101260000Y-110802796D01*
X101315186Y-110969334D01*
X101407288Y-111118657D01*
X101531342Y-111242711D01*
X101531344Y-111242712D01*
X101680666Y-111334814D01*
X101792017Y-111371712D01*
X101847202Y-111389999D01*
X101949991Y-111400500D01*
X102125500Y-111400500D01*
X102187500Y-111417113D01*
X102232887Y-111462500D01*
X102249500Y-111524500D01*
X102249500Y-114179109D01*
X102242417Y-114220418D01*
X102168925Y-114428418D01*
X102129500Y-114658351D01*
X102129500Y-115283220D01*
X102144329Y-115457451D01*
X102203114Y-115683217D01*
X102219481Y-115719425D01*
X102230146Y-115779705D01*
X102210674Y-115837741D01*
X102165810Y-115879390D01*
X102106488Y-115894500D01*
X101214336Y-115894500D01*
X101166883Y-115885061D01*
X101126655Y-115858181D01*
X99886818Y-114618344D01*
X99859938Y-114578116D01*
X99850499Y-114530663D01*
X99850499Y-114102130D01*
X99850499Y-114102128D01*
X99844091Y-114042517D01*
X99793796Y-113907669D01*
X99707546Y-113792454D01*
X99592331Y-113706204D01*
X99457483Y-113655909D01*
X99397873Y-113649500D01*
X99397869Y-113649500D01*
X97602130Y-113649500D01*
X97542515Y-113655909D01*
X97457833Y-113687494D01*
X97399046Y-113694345D01*
X97343780Y-113673168D01*
X97304624Y-113628787D01*
X97290500Y-113571312D01*
X97290500Y-113029336D01*
X97299939Y-112981883D01*
X97326819Y-112941655D01*
X98831655Y-111436818D01*
X98871883Y-111409938D01*
X98919336Y-111400499D01*
X100050009Y-111400499D01*
X100101402Y-111395248D01*
X100152797Y-111389999D01*
X100319334Y-111334814D01*
X100468656Y-111242712D01*
X100592712Y-111118656D01*
X100684814Y-110969334D01*
X100739999Y-110802797D01*
X100750500Y-110700009D01*
X100750499Y-109299992D01*
X100750151Y-109296590D01*
X100739999Y-109197203D01*
X100717511Y-109129340D01*
X100684814Y-109030666D01*
X100592712Y-108881344D01*
X100592711Y-108881342D01*
X100468657Y-108757288D01*
X100319334Y-108665186D01*
X100152797Y-108610000D01*
X100050009Y-108599500D01*
X96949991Y-108599500D01*
X96847203Y-108610000D01*
X96680665Y-108665186D01*
X96531342Y-108757288D01*
X96407288Y-108881342D01*
X96315186Y-109030665D01*
X96260000Y-109197202D01*
X96249500Y-109299991D01*
X96249500Y-110430662D01*
X96240061Y-110478115D01*
X96213181Y-110518343D01*
X95962180Y-110769343D01*
X95912817Y-110799593D01*
X95855101Y-110804135D01*
X95801614Y-110781980D01*
X95764014Y-110737957D01*
X95750499Y-110681666D01*
X95750499Y-109299992D01*
X95750151Y-109296590D01*
X95739999Y-109197203D01*
X95717511Y-109129340D01*
X95684814Y-109030666D01*
X95592712Y-108881344D01*
X95592711Y-108881342D01*
X95468657Y-108757288D01*
X95319334Y-108665186D01*
X95152797Y-108610000D01*
X95050009Y-108599500D01*
X94874500Y-108599500D01*
X94812500Y-108582887D01*
X94767113Y-108537500D01*
X94750500Y-108475500D01*
X94750500Y-107077186D01*
X94751280Y-107063302D01*
X94755238Y-107028173D01*
X94750781Y-106962068D01*
X94750500Y-106953726D01*
X94750500Y-106943850D01*
X94750403Y-106942767D01*
X94746839Y-106903178D01*
X94746630Y-106900516D01*
X94740096Y-106803588D01*
X94739028Y-106799352D01*
X94735768Y-106780169D01*
X94735377Y-106775812D01*
X94709527Y-106682150D01*
X94708832Y-106679517D01*
X94701897Y-106651994D01*
X94702606Y-106588709D01*
X94734455Y-106534017D01*
X95407153Y-105861319D01*
X95460678Y-105829799D01*
X95522779Y-105828194D01*
X95577865Y-105856910D01*
X95612111Y-105908740D01*
X95672780Y-106085460D01*
X95787348Y-106297164D01*
X95935201Y-106487126D01*
X96112292Y-106650151D01*
X96313819Y-106781815D01*
X96534255Y-106878506D01*
X96680000Y-106915415D01*
X96680000Y-105875000D01*
X97430000Y-105875000D01*
X97430000Y-106915415D01*
X97575744Y-106878506D01*
X97796180Y-106781815D01*
X97997707Y-106650151D01*
X98174798Y-106487126D01*
X98322651Y-106297164D01*
X98437219Y-106085460D01*
X98509471Y-105875000D01*
X97430000Y-105875000D01*
X96680000Y-105875000D01*
X96680000Y-105249000D01*
X96696613Y-105187000D01*
X96742000Y-105141613D01*
X96804000Y-105125000D01*
X98509471Y-105125000D01*
X98509471Y-105124999D01*
X98437219Y-104914539D01*
X98322651Y-104702835D01*
X98174798Y-104512873D01*
X97997704Y-104349846D01*
X97973614Y-104334107D01*
X97932380Y-104289315D01*
X97917435Y-104230297D01*
X97932381Y-104171279D01*
X97973612Y-104126490D01*
X97998010Y-104110551D01*
X98175171Y-103947463D01*
X98323072Y-103757439D01*
X98437679Y-103545664D01*
X98515866Y-103317913D01*
X98555500Y-103080399D01*
X98555500Y-102839601D01*
X98515866Y-102602087D01*
X98437679Y-102374336D01*
X98323072Y-102162561D01*
X98212165Y-102020067D01*
X98188312Y-101967641D01*
X98190720Y-101910091D01*
X98218870Y-101859838D01*
X98266685Y-101827726D01*
X98297331Y-101816296D01*
X98412546Y-101730046D01*
X98498796Y-101614831D01*
X98549091Y-101479983D01*
X98555500Y-101420373D01*
X98555499Y-99791999D01*
X98572112Y-99730000D01*
X98617499Y-99684613D01*
X98679499Y-99668000D01*
X101747368Y-99668000D01*
X101803824Y-99681597D01*
G37*
G04 #@! TD.AperFunction*
G04 #@! TA.AperFunction,Conductor*
G36*
X91790569Y-99721597D02*
G01*
X91834643Y-99759407D01*
X91856670Y-99813137D01*
X91851819Y-99871004D01*
X91810000Y-99997202D01*
X91799500Y-100099990D01*
X91799500Y-100900008D01*
X91810000Y-101002796D01*
X91865186Y-101169334D01*
X91957288Y-101318657D01*
X92081342Y-101442711D01*
X92225709Y-101531757D01*
X92230666Y-101534814D01*
X92264505Y-101546027D01*
X92308830Y-101571906D01*
X92338877Y-101613518D01*
X92349500Y-101663733D01*
X92349500Y-102197519D01*
X92334929Y-102255840D01*
X92294639Y-102300455D01*
X92238100Y-102320877D01*
X92222202Y-102322500D01*
X92055663Y-102377686D01*
X91906344Y-102469788D01*
X91782288Y-102593844D01*
X91690186Y-102743163D01*
X91635000Y-102909702D01*
X91624500Y-103012492D01*
X91624500Y-104037508D01*
X91635000Y-104140297D01*
X91690186Y-104306836D01*
X91782288Y-104456155D01*
X91906344Y-104580211D01*
X92055663Y-104672313D01*
X92222202Y-104727499D01*
X92324992Y-104738000D01*
X92694164Y-104738000D01*
X92750459Y-104751515D01*
X92794482Y-104789115D01*
X92816637Y-104842602D01*
X92812095Y-104900318D01*
X92781845Y-104949681D01*
X92480845Y-105250681D01*
X92440617Y-105277561D01*
X92393164Y-105287000D01*
X92324992Y-105287000D01*
X92222202Y-105297500D01*
X92055663Y-105352686D01*
X91906344Y-105444788D01*
X91782288Y-105568844D01*
X91690186Y-105718163D01*
X91635000Y-105884702D01*
X91624500Y-105987492D01*
X91624500Y-107012508D01*
X91635000Y-107115297D01*
X91690186Y-107281836D01*
X91782288Y-107431155D01*
X91906344Y-107555211D01*
X92055663Y-107647313D01*
X92055665Y-107647313D01*
X92055666Y-107647314D01*
X92164505Y-107683379D01*
X92208829Y-107709258D01*
X92238877Y-107750869D01*
X92249500Y-107801085D01*
X92249500Y-108475501D01*
X92232887Y-108537501D01*
X92187500Y-108582888D01*
X92125500Y-108599501D01*
X91949991Y-108599501D01*
X91847203Y-108610000D01*
X91680665Y-108665186D01*
X91531342Y-108757288D01*
X91407288Y-108881342D01*
X91315186Y-109030665D01*
X91260000Y-109197202D01*
X91249500Y-109299990D01*
X91249500Y-110700008D01*
X91260000Y-110802796D01*
X91315186Y-110969334D01*
X91407288Y-111118657D01*
X91531342Y-111242711D01*
X91531344Y-111242712D01*
X91680666Y-111334814D01*
X91792017Y-111371712D01*
X91847202Y-111389999D01*
X91949991Y-111400500D01*
X92125500Y-111400500D01*
X92187500Y-111417113D01*
X92232887Y-111462500D01*
X92249500Y-111524500D01*
X92249500Y-114179109D01*
X92242417Y-114220418D01*
X92168925Y-114428418D01*
X92129500Y-114658351D01*
X92129500Y-115283220D01*
X92144329Y-115457451D01*
X92203114Y-115683217D01*
X92219481Y-115719425D01*
X92230146Y-115779705D01*
X92210674Y-115837741D01*
X92165810Y-115879390D01*
X92106488Y-115894500D01*
X91214336Y-115894500D01*
X91166883Y-115885061D01*
X91126655Y-115858181D01*
X89886818Y-114618344D01*
X89859938Y-114578116D01*
X89850499Y-114530663D01*
X89850499Y-114102130D01*
X89850499Y-114102128D01*
X89844091Y-114042517D01*
X89793796Y-113907669D01*
X89707546Y-113792454D01*
X89592331Y-113706204D01*
X89457483Y-113655909D01*
X89397873Y-113649500D01*
X89397869Y-113649500D01*
X87602130Y-113649500D01*
X87542515Y-113655909D01*
X87457833Y-113687494D01*
X87399046Y-113694345D01*
X87343780Y-113673168D01*
X87304624Y-113628787D01*
X87290500Y-113571312D01*
X87290500Y-113029336D01*
X87299939Y-112981883D01*
X87326819Y-112941655D01*
X88831655Y-111436818D01*
X88871883Y-111409938D01*
X88919336Y-111400499D01*
X90050009Y-111400499D01*
X90101402Y-111395248D01*
X90152797Y-111389999D01*
X90319334Y-111334814D01*
X90468656Y-111242712D01*
X90592712Y-111118656D01*
X90684814Y-110969334D01*
X90739999Y-110802797D01*
X90750500Y-110700009D01*
X90750499Y-109299992D01*
X90750151Y-109296590D01*
X90739999Y-109197203D01*
X90717511Y-109129340D01*
X90684814Y-109030666D01*
X90592712Y-108881344D01*
X90592711Y-108881342D01*
X90468657Y-108757288D01*
X90319334Y-108665186D01*
X90152797Y-108610000D01*
X90050009Y-108599500D01*
X86949991Y-108599500D01*
X86847203Y-108610000D01*
X86680665Y-108665186D01*
X86531342Y-108757288D01*
X86407288Y-108881342D01*
X86315186Y-109030665D01*
X86260000Y-109197202D01*
X86249500Y-109299991D01*
X86249500Y-110430662D01*
X86240061Y-110478115D01*
X86213181Y-110518343D01*
X85962180Y-110769343D01*
X85912817Y-110799593D01*
X85855101Y-110804135D01*
X85801614Y-110781980D01*
X85764014Y-110737957D01*
X85750499Y-110681666D01*
X85750499Y-109299992D01*
X85750151Y-109296590D01*
X85739999Y-109197203D01*
X85717511Y-109129340D01*
X85684814Y-109030666D01*
X85592712Y-108881344D01*
X85592711Y-108881342D01*
X85468657Y-108757288D01*
X85319334Y-108665186D01*
X85152797Y-108610000D01*
X85050009Y-108599500D01*
X84374500Y-108599500D01*
X84312500Y-108582887D01*
X84267113Y-108537500D01*
X84250500Y-108475500D01*
X84250500Y-107388162D01*
X84268962Y-107323064D01*
X84309814Y-107256834D01*
X84364999Y-107090297D01*
X84375500Y-106987508D01*
X84375500Y-106919336D01*
X84384939Y-106871883D01*
X84411819Y-106831655D01*
X84654765Y-106588709D01*
X85390541Y-105852932D01*
X85444066Y-105821412D01*
X85506167Y-105819807D01*
X85561253Y-105848523D01*
X85595499Y-105900352D01*
X85672781Y-106125462D01*
X85787348Y-106337164D01*
X85935201Y-106527126D01*
X86112292Y-106690151D01*
X86313819Y-106821815D01*
X86534255Y-106918506D01*
X86680000Y-106955415D01*
X86680000Y-105915000D01*
X87430000Y-105915000D01*
X87430000Y-106955415D01*
X87575744Y-106918506D01*
X87796180Y-106821815D01*
X87997707Y-106690151D01*
X88174798Y-106527126D01*
X88322651Y-106337164D01*
X88437219Y-106125460D01*
X88509471Y-105915000D01*
X87430000Y-105915000D01*
X86680000Y-105915000D01*
X86680000Y-105289000D01*
X86696613Y-105227000D01*
X86742000Y-105181613D01*
X86804000Y-105165000D01*
X88509471Y-105165000D01*
X88509471Y-105164999D01*
X88437219Y-104954539D01*
X88322651Y-104742835D01*
X88174798Y-104552873D01*
X87997704Y-104389846D01*
X87973614Y-104374107D01*
X87932380Y-104329315D01*
X87917435Y-104270297D01*
X87932381Y-104211279D01*
X87973612Y-104166490D01*
X87998010Y-104150551D01*
X88175171Y-103987463D01*
X88323072Y-103797439D01*
X88437679Y-103585664D01*
X88515866Y-103357913D01*
X88555500Y-103120399D01*
X88555500Y-102879601D01*
X88515866Y-102642087D01*
X88437679Y-102414336D01*
X88323072Y-102202561D01*
X88212165Y-102060067D01*
X88188312Y-102007641D01*
X88190720Y-101950091D01*
X88218870Y-101899838D01*
X88266685Y-101867726D01*
X88297331Y-101856296D01*
X88412546Y-101770046D01*
X88498796Y-101654831D01*
X88549091Y-101519983D01*
X88555500Y-101460373D01*
X88555499Y-99831999D01*
X88572112Y-99770000D01*
X88617499Y-99724613D01*
X88679499Y-99708000D01*
X91734113Y-99708000D01*
X91790569Y-99721597D01*
G37*
G04 #@! TD.AperFunction*
G04 #@! TA.AperFunction,Conductor*
G36*
X147368000Y-105181613D02*
G01*
X147413387Y-105227000D01*
X147430000Y-105289000D01*
X147430000Y-106955415D01*
X147575744Y-106918506D01*
X147796180Y-106821815D01*
X147997707Y-106690151D01*
X148174798Y-106527126D01*
X148322651Y-106337164D01*
X148404923Y-106185140D01*
X148449626Y-106138163D01*
X148511928Y-106120174D01*
X148574790Y-106136093D01*
X148621022Y-106181566D01*
X148637978Y-106244157D01*
X148637978Y-108042186D01*
X148628539Y-108089639D01*
X148601659Y-108129867D01*
X148168344Y-108563181D01*
X148128116Y-108590061D01*
X148080663Y-108599500D01*
X146949991Y-108599500D01*
X146847203Y-108610000D01*
X146680665Y-108665186D01*
X146531342Y-108757288D01*
X146407288Y-108881342D01*
X146315186Y-109030665D01*
X146260000Y-109197202D01*
X146249500Y-109299991D01*
X146249500Y-110430662D01*
X146240061Y-110478115D01*
X146213181Y-110518343D01*
X145962180Y-110769343D01*
X145912817Y-110799593D01*
X145855101Y-110804135D01*
X145801614Y-110781980D01*
X145764014Y-110737957D01*
X145750499Y-110681666D01*
X145750499Y-109299992D01*
X145750151Y-109296590D01*
X145739999Y-109197203D01*
X145717511Y-109129340D01*
X145684814Y-109030666D01*
X145592712Y-108881344D01*
X145592711Y-108881342D01*
X145468657Y-108757288D01*
X145319334Y-108665186D01*
X145152797Y-108610000D01*
X145050009Y-108599500D01*
X144874500Y-108599500D01*
X144812500Y-108582887D01*
X144767113Y-108537500D01*
X144750500Y-108475500D01*
X144750500Y-107077186D01*
X144751280Y-107063302D01*
X144755238Y-107028173D01*
X144750781Y-106962068D01*
X144750500Y-106953726D01*
X144750500Y-106943850D01*
X144750403Y-106942767D01*
X144746839Y-106903178D01*
X144746630Y-106900516D01*
X144740096Y-106803588D01*
X144739028Y-106799352D01*
X144735768Y-106780169D01*
X144735377Y-106775812D01*
X144709527Y-106682150D01*
X144708832Y-106679517D01*
X144701897Y-106651994D01*
X144702606Y-106588709D01*
X144734455Y-106534017D01*
X145396930Y-105871542D01*
X145450455Y-105840022D01*
X145512556Y-105838417D01*
X145567642Y-105867133D01*
X145601888Y-105918962D01*
X145672781Y-106125462D01*
X145787348Y-106337164D01*
X145935201Y-106527126D01*
X146112292Y-106690151D01*
X146313819Y-106821815D01*
X146534255Y-106918506D01*
X146680000Y-106955415D01*
X146680000Y-105289000D01*
X146696613Y-105227000D01*
X146742000Y-105181613D01*
X146804000Y-105165000D01*
X147306000Y-105165000D01*
X147368000Y-105181613D01*
G37*
G04 #@! TD.AperFunction*
G04 #@! TA.AperFunction,Conductor*
G36*
X77368000Y-105141613D02*
G01*
X77413387Y-105187000D01*
X77430000Y-105249000D01*
X77430000Y-106915415D01*
X77575744Y-106878506D01*
X77796180Y-106781815D01*
X77997707Y-106650151D01*
X78174798Y-106487126D01*
X78322651Y-106297164D01*
X78437219Y-106085460D01*
X78508219Y-105878651D01*
X78547731Y-105822333D01*
X78611180Y-105795744D01*
X78679038Y-105807067D01*
X78730416Y-105852818D01*
X78749500Y-105918914D01*
X78749500Y-107930663D01*
X78740061Y-107978116D01*
X78713181Y-108018344D01*
X78168343Y-108563181D01*
X78128115Y-108590061D01*
X78080662Y-108599500D01*
X76949991Y-108599500D01*
X76847203Y-108610000D01*
X76680665Y-108665186D01*
X76531342Y-108757288D01*
X76407288Y-108881342D01*
X76315186Y-109030665D01*
X76260000Y-109197202D01*
X76249500Y-109299991D01*
X76249500Y-110430662D01*
X76240061Y-110478115D01*
X76213181Y-110518343D01*
X75962180Y-110769343D01*
X75912817Y-110799593D01*
X75855101Y-110804135D01*
X75801614Y-110781980D01*
X75764014Y-110737957D01*
X75750499Y-110681666D01*
X75750499Y-109299992D01*
X75750151Y-109296590D01*
X75739999Y-109197203D01*
X75717511Y-109129340D01*
X75684814Y-109030666D01*
X75592712Y-108881344D01*
X75592711Y-108881342D01*
X75468657Y-108757288D01*
X75319334Y-108665186D01*
X75152797Y-108610000D01*
X75050009Y-108599500D01*
X74874500Y-108599500D01*
X74812500Y-108582887D01*
X74767113Y-108537500D01*
X74750500Y-108475500D01*
X74750500Y-107077186D01*
X74751280Y-107063302D01*
X74755238Y-107028173D01*
X74750781Y-106962068D01*
X74750500Y-106953726D01*
X74750500Y-106943850D01*
X74750403Y-106942767D01*
X74746839Y-106903178D01*
X74746630Y-106900516D01*
X74740096Y-106803588D01*
X74739028Y-106799352D01*
X74735768Y-106780169D01*
X74735377Y-106775812D01*
X74709527Y-106682150D01*
X74708832Y-106679517D01*
X74701897Y-106651994D01*
X74702606Y-106588709D01*
X74734455Y-106534017D01*
X75407153Y-105861319D01*
X75460678Y-105829799D01*
X75522779Y-105828194D01*
X75577865Y-105856910D01*
X75612111Y-105908740D01*
X75672780Y-106085460D01*
X75787348Y-106297164D01*
X75935201Y-106487126D01*
X76112292Y-106650151D01*
X76313819Y-106781815D01*
X76534255Y-106878506D01*
X76680000Y-106915415D01*
X76680000Y-105249000D01*
X76696613Y-105187000D01*
X76742000Y-105141613D01*
X76804000Y-105125000D01*
X77306000Y-105125000D01*
X77368000Y-105141613D01*
G37*
G04 #@! TD.AperFunction*
G04 #@! TA.AperFunction,Conductor*
G36*
X70034029Y-93610422D02*
G01*
X70840976Y-94417369D01*
X70873480Y-94474527D01*
X70872189Y-94540268D01*
X70837466Y-94596106D01*
X70779076Y-94626340D01*
X70720197Y-94638855D01*
X70547269Y-94715848D01*
X70394129Y-94827110D01*
X70267466Y-94967783D01*
X70172820Y-95131715D01*
X70114326Y-95311742D01*
X70094540Y-95500000D01*
X70114326Y-95688257D01*
X70172820Y-95868284D01*
X70267464Y-96032213D01*
X70267467Y-96032216D01*
X70317651Y-96087951D01*
X70341264Y-96126484D01*
X70349500Y-96170922D01*
X70349500Y-98925827D01*
X70335013Y-98983990D01*
X70294937Y-99028562D01*
X70238636Y-99049129D01*
X70179266Y-99040885D01*
X70130699Y-99005756D01*
X70104283Y-98951951D01*
X70102871Y-98945400D01*
X70060164Y-98747235D01*
X70053903Y-98731655D01*
X69989005Y-98570149D01*
X69973179Y-98530765D01*
X69850862Y-98332109D01*
X69696731Y-98156982D01*
X69696729Y-98156980D01*
X69515223Y-98010423D01*
X69330962Y-97907489D01*
X69286116Y-97864684D01*
X69267595Y-97805520D01*
X69280030Y-97744785D01*
X69320312Y-97697660D01*
X69391081Y-97648106D01*
X69558106Y-97481081D01*
X69693600Y-97287576D01*
X69793430Y-97073491D01*
X69817142Y-96985000D01*
X68269000Y-96985000D01*
X68207000Y-96968387D01*
X68161613Y-96923000D01*
X68145000Y-96861000D01*
X68145000Y-94445000D01*
X68895000Y-94445000D01*
X68895000Y-96235000D01*
X69817142Y-96235000D01*
X69817141Y-96234999D01*
X69793430Y-96146507D01*
X69693599Y-95932421D01*
X69558109Y-95738921D01*
X69391081Y-95571893D01*
X69204968Y-95441575D01*
X69166103Y-95397257D01*
X69152092Y-95340000D01*
X69166103Y-95282743D01*
X69204968Y-95238425D01*
X69391081Y-95108106D01*
X69558106Y-94941081D01*
X69693600Y-94747576D01*
X69793430Y-94533491D01*
X69817142Y-94445000D01*
X68895000Y-94445000D01*
X68145000Y-94445000D01*
X68145000Y-93819000D01*
X68161613Y-93757000D01*
X68207000Y-93711613D01*
X68269000Y-93695000D01*
X69817142Y-93695000D01*
X69826573Y-93682709D01*
X69826573Y-93666010D01*
X69858667Y-93610422D01*
X69914254Y-93578328D01*
X69978442Y-93578328D01*
X70034029Y-93610422D01*
G37*
G04 #@! TD.AperFunction*
G04 #@! TA.AperFunction,Conductor*
G36*
X77529018Y-86840015D02*
G01*
X77573604Y-86880160D01*
X77594124Y-86936539D01*
X77594540Y-86940498D01*
X77594540Y-86940500D01*
X77606513Y-87054420D01*
X77614326Y-87128757D01*
X77672820Y-87308784D01*
X77767466Y-87472716D01*
X77894129Y-87613389D01*
X78047269Y-87724651D01*
X78220197Y-87801644D01*
X78405352Y-87841000D01*
X78405354Y-87841000D01*
X78594646Y-87841000D01*
X78594648Y-87841000D01*
X78718084Y-87814762D01*
X78779803Y-87801644D01*
X78952730Y-87724651D01*
X79104092Y-87614680D01*
X79138657Y-87597069D01*
X79176975Y-87591000D01*
X92291426Y-87591000D01*
X92354205Y-87608067D01*
X92399703Y-87654568D01*
X92415396Y-87717705D01*
X92396965Y-87780097D01*
X92365641Y-87830880D01*
X92310493Y-87997303D01*
X92300000Y-88100021D01*
X92300000Y-88125000D01*
X94699999Y-88125000D01*
X94699999Y-88100021D01*
X94689506Y-87997304D01*
X94634358Y-87830879D01*
X94603035Y-87780097D01*
X94584604Y-87717705D01*
X94600297Y-87654568D01*
X94645795Y-87608067D01*
X94708574Y-87591000D01*
X96219668Y-87591000D01*
X96282447Y-87608066D01*
X96327945Y-87654568D01*
X96343639Y-87717704D01*
X96325207Y-87780096D01*
X96300186Y-87820661D01*
X96245000Y-87987198D01*
X96234500Y-88089986D01*
X96234500Y-88865004D01*
X96245000Y-88967792D01*
X96300186Y-89134330D01*
X96392288Y-89283653D01*
X96516342Y-89407707D01*
X96519176Y-89409455D01*
X96562357Y-89454559D01*
X96578082Y-89514989D01*
X96562363Y-89575420D01*
X96519186Y-89620529D01*
X96516348Y-89622279D01*
X96392286Y-89746342D01*
X96364991Y-89790596D01*
X96319884Y-89833777D01*
X96259452Y-89849500D01*
X94715638Y-89849500D01*
X94655206Y-89833777D01*
X94610099Y-89790596D01*
X94542713Y-89681345D01*
X94512975Y-89651607D01*
X94448693Y-89587325D01*
X94416601Y-89531740D01*
X94416601Y-89467552D01*
X94448696Y-89411964D01*
X94542316Y-89318344D01*
X94634357Y-89169122D01*
X94689506Y-89002696D01*
X94700000Y-88899979D01*
X94700000Y-88875000D01*
X92300001Y-88875000D01*
X92300001Y-88899979D01*
X92310493Y-89002695D01*
X92365642Y-89169122D01*
X92457683Y-89318345D01*
X92551303Y-89411965D01*
X92583397Y-89467552D01*
X92583397Y-89531739D01*
X92551304Y-89587327D01*
X92457287Y-89681344D01*
X92365186Y-89830665D01*
X92310000Y-89997202D01*
X92299500Y-90099990D01*
X92299500Y-90900008D01*
X92310000Y-91002796D01*
X92365186Y-91169334D01*
X92457288Y-91318657D01*
X92581342Y-91442711D01*
X92581344Y-91442712D01*
X92730666Y-91534814D01*
X92804744Y-91559361D01*
X92897202Y-91589999D01*
X92907702Y-91591071D01*
X92999991Y-91600500D01*
X94000008Y-91600499D01*
X94102797Y-91589999D01*
X94269334Y-91534814D01*
X94418656Y-91442712D01*
X94542712Y-91318656D01*
X94601440Y-91223442D01*
X94610099Y-91209404D01*
X94655206Y-91166223D01*
X94715638Y-91150500D01*
X96194693Y-91150500D01*
X96255125Y-91166223D01*
X96300231Y-91209403D01*
X96310265Y-91225670D01*
X96392288Y-91358653D01*
X96516342Y-91482707D01*
X96516344Y-91482708D01*
X96665666Y-91574810D01*
X96777016Y-91611708D01*
X96832202Y-91629995D01*
X96842702Y-91631067D01*
X96934991Y-91640496D01*
X97985008Y-91640495D01*
X98087797Y-91629995D01*
X98254334Y-91574810D01*
X98403656Y-91482708D01*
X98527712Y-91358652D01*
X98567224Y-91294592D01*
X98587389Y-91261900D01*
X98632496Y-91218719D01*
X98692928Y-91202996D01*
X98737072Y-91202996D01*
X98797504Y-91218719D01*
X98842611Y-91261900D01*
X98902288Y-91358653D01*
X99026342Y-91482707D01*
X99026344Y-91482708D01*
X99175666Y-91574810D01*
X99287016Y-91611708D01*
X99342202Y-91629995D01*
X99352702Y-91631067D01*
X99444991Y-91640496D01*
X100495008Y-91640495D01*
X100597797Y-91629995D01*
X100764334Y-91574810D01*
X100913656Y-91482708D01*
X101037712Y-91358652D01*
X101077224Y-91294592D01*
X101097389Y-91261900D01*
X101142496Y-91218719D01*
X101202928Y-91202996D01*
X101237072Y-91202996D01*
X101297504Y-91218719D01*
X101342611Y-91261900D01*
X101402288Y-91358653D01*
X101526342Y-91482707D01*
X101526344Y-91482708D01*
X101675666Y-91574810D01*
X101787016Y-91611708D01*
X101842202Y-91629995D01*
X101852702Y-91631067D01*
X101944991Y-91640496D01*
X102995008Y-91640495D01*
X103097797Y-91629995D01*
X103264334Y-91574810D01*
X103413656Y-91482708D01*
X103537712Y-91358652D01*
X103629814Y-91209330D01*
X103684999Y-91042793D01*
X103695500Y-90940005D01*
X103695499Y-90298302D01*
X103704938Y-90250850D01*
X103731815Y-90210625D01*
X104755622Y-89186819D01*
X104795851Y-89159939D01*
X104843304Y-89150500D01*
X105211638Y-89150500D01*
X105259091Y-89159939D01*
X105262924Y-89162500D01*
X106751000Y-89162500D01*
X106813000Y-89179113D01*
X106858387Y-89224500D01*
X106875000Y-89286500D01*
X106875000Y-89788500D01*
X106858387Y-89850500D01*
X106813000Y-89895887D01*
X106751000Y-89912500D01*
X105275001Y-89912500D01*
X105275001Y-89924979D01*
X105285493Y-90027695D01*
X105340642Y-90194122D01*
X105432683Y-90343345D01*
X105556654Y-90467316D01*
X105705877Y-90559357D01*
X105872303Y-90614506D01*
X105975020Y-90624999D01*
X106392797Y-90624999D01*
X106449092Y-90638514D01*
X106493115Y-90676113D01*
X106515270Y-90729601D01*
X106510728Y-90787317D01*
X106480478Y-90836680D01*
X103553980Y-93763181D01*
X103513752Y-93790061D01*
X103466299Y-93799500D01*
X81135505Y-93799500D01*
X81114294Y-93797158D01*
X81041724Y-93799439D01*
X81037829Y-93799500D01*
X81009074Y-93799500D01*
X81004701Y-93800052D01*
X80993069Y-93800967D01*
X80947428Y-93802401D01*
X80927043Y-93808324D01*
X80907994Y-93812269D01*
X80886943Y-93814928D01*
X80844489Y-93831736D01*
X80833443Y-93835518D01*
X80789599Y-93848256D01*
X80771330Y-93859061D01*
X80753862Y-93867618D01*
X80742463Y-93872132D01*
X80734126Y-93875433D01*
X80697191Y-93902266D01*
X80687435Y-93908675D01*
X80648135Y-93931918D01*
X80633125Y-93946928D01*
X80618336Y-93959558D01*
X80601164Y-93972034D01*
X80572057Y-94007218D01*
X80564196Y-94015856D01*
X79316871Y-95263181D01*
X79276643Y-95290061D01*
X79229190Y-95299500D01*
X78599991Y-95299500D01*
X78497203Y-95310000D01*
X78330665Y-95365186D01*
X78181342Y-95457288D01*
X78087681Y-95550950D01*
X78032094Y-95583044D01*
X77967906Y-95583044D01*
X77912319Y-95550950D01*
X77818657Y-95457288D01*
X77669334Y-95365186D01*
X77502797Y-95310000D01*
X77400009Y-95299500D01*
X76599991Y-95299500D01*
X76497203Y-95310000D01*
X76330665Y-95365186D01*
X76181342Y-95457288D01*
X76057288Y-95581342D01*
X75965186Y-95730665D01*
X75910000Y-95897202D01*
X75899500Y-95999990D01*
X75899500Y-97000010D01*
X75902605Y-97030400D01*
X75890591Y-97097576D01*
X75844854Y-97148222D01*
X75779247Y-97167000D01*
X74374500Y-97167000D01*
X74312500Y-97150387D01*
X74267113Y-97105000D01*
X74250500Y-97043000D01*
X74250500Y-94885105D01*
X74251280Y-94871220D01*
X74255238Y-94836091D01*
X74250781Y-94769982D01*
X74250500Y-94761641D01*
X74250500Y-94751767D01*
X74247869Y-94722534D01*
X74246844Y-94711143D01*
X74246630Y-94708417D01*
X74240097Y-94611507D01*
X74239028Y-94607265D01*
X74235768Y-94588074D01*
X74235377Y-94583733D01*
X74235377Y-94583731D01*
X74209513Y-94490019D01*
X74208855Y-94487528D01*
X74185096Y-94393236D01*
X74183285Y-94389250D01*
X74176656Y-94370965D01*
X74175493Y-94366749D01*
X74133332Y-94279202D01*
X74132181Y-94276742D01*
X74092007Y-94188294D01*
X74089519Y-94184703D01*
X74079723Y-94167880D01*
X74077829Y-94163946D01*
X74020706Y-94085323D01*
X74019128Y-94083099D01*
X73963820Y-94003265D01*
X73960734Y-94000179D01*
X73948091Y-93985377D01*
X73945522Y-93981841D01*
X73875299Y-93914701D01*
X73873310Y-93912755D01*
X70660897Y-90700342D01*
X70651631Y-90689974D01*
X70629587Y-90662332D01*
X70579684Y-90618732D01*
X70573588Y-90613033D01*
X70566608Y-90606053D01*
X70535336Y-90579945D01*
X70533221Y-90578139D01*
X70521346Y-90567764D01*
X72145787Y-90567764D01*
X72175413Y-90837016D01*
X72215854Y-90991704D01*
X72243928Y-91099088D01*
X72337235Y-91318657D01*
X72349871Y-91348392D01*
X72490982Y-91579611D01*
X72647928Y-91768201D01*
X72664255Y-91787820D01*
X72865998Y-91968582D01*
X73091910Y-92118044D01*
X73198211Y-92167875D01*
X73337177Y-92233021D01*
X73596562Y-92311058D01*
X73596569Y-92311060D01*
X73864561Y-92350500D01*
X74067631Y-92350500D01*
X74067634Y-92350500D01*
X74270156Y-92335677D01*
X74293154Y-92330554D01*
X74534553Y-92276780D01*
X74787558Y-92180014D01*
X75023777Y-92047441D01*
X75238177Y-91881888D01*
X75426186Y-91686881D01*
X75583799Y-91466579D01*
X75707656Y-91225675D01*
X75795118Y-90969305D01*
X75844319Y-90702933D01*
X75854212Y-90432235D01*
X75824586Y-90162982D01*
X75756072Y-89900912D01*
X75650130Y-89651610D01*
X75574583Y-89527822D01*
X75509017Y-89420388D01*
X75335746Y-89212181D01*
X75329807Y-89206860D01*
X75134002Y-89031418D01*
X74908090Y-88881956D01*
X74893252Y-88875000D01*
X74662822Y-88766978D01*
X74403437Y-88688941D01*
X74403431Y-88688940D01*
X74135439Y-88649500D01*
X73932369Y-88649500D01*
X73932366Y-88649500D01*
X73729843Y-88664322D01*
X73465449Y-88723219D01*
X73212441Y-88819986D01*
X72976223Y-88952559D01*
X72761825Y-89118109D01*
X72573813Y-89313120D01*
X72416201Y-89533420D01*
X72292342Y-89774329D01*
X72204881Y-90030695D01*
X72155680Y-90297066D01*
X72145787Y-90567764D01*
X70521346Y-90567764D01*
X70508890Y-90556882D01*
X70460077Y-90514235D01*
X70456317Y-90511988D01*
X70440451Y-90500730D01*
X70437099Y-90497931D01*
X70352629Y-90450001D01*
X70350226Y-90448601D01*
X70266846Y-90398785D01*
X70262752Y-90397249D01*
X70245127Y-90389003D01*
X70241326Y-90386847D01*
X70241325Y-90386846D01*
X70241324Y-90386846D01*
X70149649Y-90354767D01*
X70147035Y-90353819D01*
X70056109Y-90319694D01*
X70056106Y-90319693D01*
X70056105Y-90319693D01*
X70051802Y-90318911D01*
X70032998Y-90313948D01*
X70028863Y-90312501D01*
X69932928Y-90297306D01*
X69930186Y-90296840D01*
X69883627Y-90288391D01*
X69827029Y-90262177D01*
X69790354Y-90211723D01*
X69782882Y-90149798D01*
X69806501Y-90092075D01*
X69813796Y-90082331D01*
X69864091Y-89947483D01*
X69870500Y-89887873D01*
X69870499Y-88092128D01*
X69864091Y-88032517D01*
X69813796Y-87897669D01*
X69727546Y-87782454D01*
X69612331Y-87696204D01*
X69477483Y-87645909D01*
X69417873Y-87639500D01*
X69417869Y-87639500D01*
X67622125Y-87639500D01*
X67588759Y-87643087D01*
X67528872Y-87634693D01*
X67480076Y-87598972D01*
X67453978Y-87544420D01*
X67456785Y-87484013D01*
X67487825Y-87432119D01*
X68058126Y-86861818D01*
X68098354Y-86834939D01*
X68145807Y-86825500D01*
X77470803Y-86825500D01*
X77529018Y-86840015D01*
G37*
G04 #@! TD.AperFunction*
G04 #@! TA.AperFunction,Conductor*
G36*
X154313000Y-93481613D02*
G01*
X154358387Y-93527000D01*
X154375000Y-93589000D01*
X154375000Y-96631000D01*
X154358387Y-96693000D01*
X154313000Y-96738387D01*
X154251000Y-96755000D01*
X153749000Y-96755000D01*
X153687000Y-96738387D01*
X153641613Y-96693000D01*
X153625000Y-96631000D01*
X153625000Y-93589000D01*
X153641613Y-93527000D01*
X153687000Y-93481613D01*
X153749000Y-93465000D01*
X154251000Y-93465000D01*
X154313000Y-93481613D01*
G37*
G04 #@! TD.AperFunction*
G04 #@! TA.AperFunction,Conductor*
G36*
X152733714Y-88005786D02*
G01*
X152778652Y-88047875D01*
X152797806Y-88106391D01*
X152786453Y-88166905D01*
X152726097Y-88296336D01*
X152664936Y-88524592D01*
X152644340Y-88760000D01*
X152664936Y-88995407D01*
X152726097Y-89223665D01*
X152737882Y-89248937D01*
X152749500Y-89301341D01*
X152749500Y-89934005D01*
X152734251Y-89993580D01*
X152692256Y-90038502D01*
X152633842Y-90057723D01*
X152616053Y-90058923D01*
X152601505Y-90059904D01*
X152597263Y-90060973D01*
X152578100Y-90064229D01*
X152573736Y-90064622D01*
X152573733Y-90064622D01*
X152573731Y-90064623D01*
X152480056Y-90090475D01*
X152477414Y-90091172D01*
X152383235Y-90114903D01*
X152379247Y-90116715D01*
X152360973Y-90123340D01*
X152356751Y-90124505D01*
X152269236Y-90166649D01*
X152266719Y-90167827D01*
X152178288Y-90207995D01*
X152174693Y-90210486D01*
X152157891Y-90220270D01*
X152153947Y-90222169D01*
X152075380Y-90279250D01*
X152073114Y-90280858D01*
X151993261Y-90336182D01*
X151990161Y-90339282D01*
X151975381Y-90351906D01*
X151971839Y-90354479D01*
X151904722Y-90424677D01*
X151902778Y-90426665D01*
X151170343Y-91159100D01*
X151159980Y-91168362D01*
X151132335Y-91190410D01*
X151088735Y-91240311D01*
X151083050Y-91246392D01*
X151076059Y-91253383D01*
X151049928Y-91284683D01*
X151048124Y-91286795D01*
X150984235Y-91359922D01*
X150981986Y-91363686D01*
X150970739Y-91379536D01*
X150967932Y-91382898D01*
X150919978Y-91467409D01*
X150918604Y-91469768D01*
X150882619Y-91530000D01*
X150868782Y-91553160D01*
X150867246Y-91557254D01*
X150859009Y-91574863D01*
X150856847Y-91578672D01*
X150824762Y-91670363D01*
X150823814Y-91672976D01*
X150789691Y-91763897D01*
X150788910Y-91768201D01*
X150783950Y-91786996D01*
X150782501Y-91791136D01*
X150767304Y-91887085D01*
X150766838Y-91889826D01*
X150749500Y-91985369D01*
X150749500Y-91989749D01*
X150747973Y-92009148D01*
X150747290Y-92013458D01*
X150749469Y-92110559D01*
X150749500Y-92113341D01*
X150749500Y-95569142D01*
X150740061Y-95616595D01*
X150713181Y-95656823D01*
X150309998Y-96060004D01*
X150249595Y-96093286D01*
X150180754Y-96089150D01*
X150124769Y-96048876D01*
X150098959Y-95984925D01*
X150089999Y-95897203D01*
X150034814Y-95730666D01*
X149962914Y-95614097D01*
X149942711Y-95581342D01*
X149818657Y-95457288D01*
X149669334Y-95365186D01*
X149502797Y-95310000D01*
X149400009Y-95299500D01*
X148770808Y-95299500D01*
X148723355Y-95290061D01*
X148683127Y-95263181D01*
X146970434Y-93550488D01*
X146957091Y-93533833D01*
X146904166Y-93484134D01*
X146901369Y-93481423D01*
X146881034Y-93461088D01*
X146877547Y-93458383D01*
X146868671Y-93450801D01*
X146835394Y-93419552D01*
X146816793Y-93409326D01*
X146800532Y-93398645D01*
X146783764Y-93385638D01*
X146741870Y-93367508D01*
X146731379Y-93362369D01*
X146691367Y-93340372D01*
X146670800Y-93335091D01*
X146652398Y-93328791D01*
X146632924Y-93320364D01*
X146587837Y-93313223D01*
X146576398Y-93310854D01*
X146532178Y-93299500D01*
X146532177Y-93299500D01*
X146510955Y-93299500D01*
X146491556Y-93297973D01*
X146470596Y-93294653D01*
X146470595Y-93294653D01*
X146448558Y-93296736D01*
X146425139Y-93298950D01*
X146413470Y-93299500D01*
X118869000Y-93299500D01*
X118807000Y-93282887D01*
X118761613Y-93237500D01*
X118745000Y-93175500D01*
X118745000Y-92750000D01*
X117769000Y-92750000D01*
X117707000Y-92733387D01*
X117661613Y-92688000D01*
X117645000Y-92626000D01*
X117645000Y-90991704D01*
X118245000Y-90991704D01*
X118245000Y-92150000D01*
X118745000Y-92150000D01*
X118745000Y-91559361D01*
X118742099Y-91522506D01*
X118696282Y-91364802D01*
X118612682Y-91223442D01*
X118496557Y-91107317D01*
X118355199Y-91023718D01*
X118245000Y-90991704D01*
X117645000Y-90991704D01*
X117534800Y-91023718D01*
X117379961Y-91115291D01*
X117379022Y-91113703D01*
X117342440Y-91134821D01*
X117278256Y-91134819D01*
X117241212Y-91113430D01*
X117240348Y-91114893D01*
X117085397Y-91023255D01*
X116927572Y-90977402D01*
X116905444Y-90975660D01*
X116890694Y-90974500D01*
X116459306Y-90974500D01*
X116447014Y-90975467D01*
X116422427Y-90977402D01*
X116264602Y-91023255D01*
X116109652Y-91114893D01*
X116108721Y-91113319D01*
X116072094Y-91134467D01*
X116007906Y-91134467D01*
X115971278Y-91113319D01*
X115970348Y-91114893D01*
X115815397Y-91023255D01*
X115657572Y-90977402D01*
X115635444Y-90975660D01*
X115620694Y-90974500D01*
X115189306Y-90974500D01*
X115177014Y-90975467D01*
X115152427Y-90977402D01*
X114994602Y-91023255D01*
X114839652Y-91114893D01*
X114838721Y-91113319D01*
X114802094Y-91134467D01*
X114737906Y-91134467D01*
X114701278Y-91113319D01*
X114700348Y-91114893D01*
X114545397Y-91023255D01*
X114387572Y-90977402D01*
X114365444Y-90975660D01*
X114350694Y-90974500D01*
X113919306Y-90974500D01*
X113907014Y-90975467D01*
X113882427Y-90977402D01*
X113724602Y-91023255D01*
X113569652Y-91114893D01*
X113568721Y-91113319D01*
X113532094Y-91134467D01*
X113467906Y-91134467D01*
X113431278Y-91113319D01*
X113430348Y-91114893D01*
X113275397Y-91023255D01*
X113117572Y-90977402D01*
X113095444Y-90975660D01*
X113080694Y-90974500D01*
X112649306Y-90974500D01*
X112637014Y-90975467D01*
X112612427Y-90977402D01*
X112454602Y-91023255D01*
X112299652Y-91114893D01*
X112298721Y-91113319D01*
X112262094Y-91134467D01*
X112197906Y-91134467D01*
X112161278Y-91113319D01*
X112160348Y-91114893D01*
X112005397Y-91023255D01*
X111847572Y-90977402D01*
X111825444Y-90975660D01*
X111810694Y-90974500D01*
X111379306Y-90974500D01*
X111367014Y-90975467D01*
X111342427Y-90977402D01*
X111184602Y-91023255D01*
X111029652Y-91114893D01*
X111028721Y-91113319D01*
X110992094Y-91134467D01*
X110927906Y-91134467D01*
X110891278Y-91113319D01*
X110890348Y-91114893D01*
X110735397Y-91023255D01*
X110577572Y-90977402D01*
X110555444Y-90975660D01*
X110540694Y-90974500D01*
X110109306Y-90974500D01*
X110097014Y-90975467D01*
X110072427Y-90977402D01*
X109914602Y-91023255D01*
X109759652Y-91114893D01*
X109758721Y-91113319D01*
X109722094Y-91134467D01*
X109657906Y-91134467D01*
X109621278Y-91113319D01*
X109620348Y-91114893D01*
X109465397Y-91023255D01*
X109307572Y-90977402D01*
X109285444Y-90975660D01*
X109270694Y-90974500D01*
X108839306Y-90974500D01*
X108827014Y-90975467D01*
X108802427Y-90977402D01*
X108644602Y-91023255D01*
X108503134Y-91106919D01*
X108386919Y-91223134D01*
X108303255Y-91364602D01*
X108257402Y-91522427D01*
X108256427Y-91534814D01*
X108254662Y-91557254D01*
X108254500Y-91559308D01*
X108254500Y-92279192D01*
X108245061Y-92326645D01*
X108218181Y-92366873D01*
X106321873Y-94263181D01*
X106281645Y-94290061D01*
X106234192Y-94299500D01*
X105156915Y-94299500D01*
X105100620Y-94285985D01*
X105056597Y-94248385D01*
X105034442Y-94194898D01*
X105038984Y-94137182D01*
X105069234Y-94087819D01*
X110145234Y-89011819D01*
X110185462Y-88984939D01*
X110232915Y-88975500D01*
X110540692Y-88975500D01*
X110540694Y-88975500D01*
X110577569Y-88972598D01*
X110735398Y-88926744D01*
X110876865Y-88843081D01*
X110876865Y-88843080D01*
X110890348Y-88835107D01*
X110891278Y-88836680D01*
X110927906Y-88815533D01*
X110992094Y-88815533D01*
X111028721Y-88836680D01*
X111029652Y-88835107D01*
X111043134Y-88843080D01*
X111043135Y-88843081D01*
X111184601Y-88926743D01*
X111184602Y-88926744D01*
X111342427Y-88972597D01*
X111342431Y-88972598D01*
X111379306Y-88975500D01*
X111810692Y-88975500D01*
X111810694Y-88975500D01*
X111847569Y-88972598D01*
X112005398Y-88926744D01*
X112146865Y-88843081D01*
X112146865Y-88843080D01*
X112160348Y-88835107D01*
X112161278Y-88836680D01*
X112197906Y-88815533D01*
X112262094Y-88815533D01*
X112298721Y-88836680D01*
X112299652Y-88835107D01*
X112313134Y-88843080D01*
X112313135Y-88843081D01*
X112454601Y-88926743D01*
X112454602Y-88926744D01*
X112612427Y-88972597D01*
X112612431Y-88972598D01*
X112649306Y-88975500D01*
X113080692Y-88975500D01*
X113080694Y-88975500D01*
X113117569Y-88972598D01*
X113275398Y-88926744D01*
X113416865Y-88843081D01*
X113416865Y-88843080D01*
X113430348Y-88835107D01*
X113431278Y-88836680D01*
X113467906Y-88815533D01*
X113532094Y-88815533D01*
X113568721Y-88836680D01*
X113569652Y-88835107D01*
X113583134Y-88843080D01*
X113583135Y-88843081D01*
X113724601Y-88926743D01*
X113724602Y-88926744D01*
X113882427Y-88972597D01*
X113882431Y-88972598D01*
X113919306Y-88975500D01*
X114350692Y-88975500D01*
X114350694Y-88975500D01*
X114387569Y-88972598D01*
X114545398Y-88926744D01*
X114686865Y-88843081D01*
X114686865Y-88843080D01*
X114700348Y-88835107D01*
X114701278Y-88836680D01*
X114737906Y-88815533D01*
X114802094Y-88815533D01*
X114838721Y-88836680D01*
X114839652Y-88835107D01*
X114853134Y-88843080D01*
X114853135Y-88843081D01*
X114994601Y-88926743D01*
X114994602Y-88926744D01*
X115152427Y-88972597D01*
X115152431Y-88972598D01*
X115189306Y-88975500D01*
X115620692Y-88975500D01*
X115620694Y-88975500D01*
X115657569Y-88972598D01*
X115815398Y-88926744D01*
X115956865Y-88843081D01*
X115956865Y-88843080D01*
X115970348Y-88835107D01*
X115971278Y-88836680D01*
X116007906Y-88815533D01*
X116072094Y-88815533D01*
X116108721Y-88836680D01*
X116109652Y-88835107D01*
X116123134Y-88843080D01*
X116123135Y-88843081D01*
X116264601Y-88926743D01*
X116264602Y-88926744D01*
X116422427Y-88972597D01*
X116422431Y-88972598D01*
X116459306Y-88975500D01*
X116572112Y-88975500D01*
X116595346Y-88977695D01*
X116633830Y-88985037D01*
X116633830Y-88985036D01*
X116633831Y-88985037D01*
X116650256Y-88984003D01*
X116760614Y-88977060D01*
X116812231Y-88984820D01*
X116856081Y-89013134D01*
X118617957Y-90775009D01*
X118631302Y-90791667D01*
X118684241Y-90841379D01*
X118687037Y-90844089D01*
X118707359Y-90864411D01*
X118710835Y-90867107D01*
X118719713Y-90874690D01*
X118753000Y-90905948D01*
X118771605Y-90916176D01*
X118787859Y-90926853D01*
X118804630Y-90939863D01*
X118846537Y-90957997D01*
X118857011Y-90963128D01*
X118897025Y-90985127D01*
X118917590Y-90990406D01*
X118935986Y-90996705D01*
X118955467Y-91005136D01*
X119000571Y-91012279D01*
X119011990Y-91014644D01*
X119056216Y-91026000D01*
X119077438Y-91026000D01*
X119096836Y-91027526D01*
X119117798Y-91030847D01*
X119159712Y-91026884D01*
X119163254Y-91026550D01*
X119174923Y-91026000D01*
X141323025Y-91026000D01*
X141361343Y-91032069D01*
X141395907Y-91049680D01*
X141547270Y-91159651D01*
X141547271Y-91159651D01*
X141547272Y-91159652D01*
X141720197Y-91236644D01*
X141905352Y-91276000D01*
X141905354Y-91276000D01*
X142094646Y-91276000D01*
X142094648Y-91276000D01*
X142247783Y-91243450D01*
X142279803Y-91236644D01*
X142452730Y-91159651D01*
X142486906Y-91134821D01*
X142605870Y-91048389D01*
X142732533Y-90907716D01*
X142827179Y-90743784D01*
X142853644Y-90662334D01*
X142884372Y-90567764D01*
X146645787Y-90567764D01*
X146675413Y-90837016D01*
X146715854Y-90991704D01*
X146743928Y-91099088D01*
X146837235Y-91318657D01*
X146849871Y-91348392D01*
X146990982Y-91579611D01*
X147147928Y-91768201D01*
X147164255Y-91787820D01*
X147365998Y-91968582D01*
X147591910Y-92118044D01*
X147698211Y-92167875D01*
X147837177Y-92233021D01*
X148096562Y-92311058D01*
X148096569Y-92311060D01*
X148364561Y-92350500D01*
X148567631Y-92350500D01*
X148567634Y-92350500D01*
X148770156Y-92335677D01*
X148793154Y-92330554D01*
X149034553Y-92276780D01*
X149287558Y-92180014D01*
X149523777Y-92047441D01*
X149738177Y-91881888D01*
X149926186Y-91686881D01*
X150083799Y-91466579D01*
X150207656Y-91225675D01*
X150295118Y-90969305D01*
X150344319Y-90702933D01*
X150354212Y-90432235D01*
X150324586Y-90162982D01*
X150256072Y-89900912D01*
X150150130Y-89651610D01*
X150074583Y-89527822D01*
X150009017Y-89420388D01*
X149835746Y-89212181D01*
X149829807Y-89206860D01*
X149634002Y-89031418D01*
X149408090Y-88881956D01*
X149393252Y-88875000D01*
X149162822Y-88766978D01*
X148903437Y-88688941D01*
X148903431Y-88688940D01*
X148635439Y-88649500D01*
X148432369Y-88649500D01*
X148432366Y-88649500D01*
X148229843Y-88664322D01*
X147965449Y-88723219D01*
X147712441Y-88819986D01*
X147476223Y-88952559D01*
X147261825Y-89118109D01*
X147073813Y-89313120D01*
X146916201Y-89533420D01*
X146792342Y-89774329D01*
X146704881Y-90030695D01*
X146655680Y-90297066D01*
X146645787Y-90567764D01*
X142884372Y-90567764D01*
X142885674Y-90563756D01*
X142905460Y-90375500D01*
X142885674Y-90187244D01*
X142854228Y-90090463D01*
X142827179Y-90007215D01*
X142732533Y-89843283D01*
X142605870Y-89702610D01*
X142452730Y-89591348D01*
X142279802Y-89514355D01*
X142094648Y-89475000D01*
X142094646Y-89475000D01*
X141905354Y-89475000D01*
X141905352Y-89475000D01*
X141720197Y-89514355D01*
X141547272Y-89591347D01*
X141507107Y-89620529D01*
X141395907Y-89701319D01*
X141361343Y-89718931D01*
X141323025Y-89725000D01*
X119459201Y-89725000D01*
X119411748Y-89715561D01*
X119371520Y-89688681D01*
X118599073Y-88916234D01*
X118566979Y-88860645D01*
X118566980Y-88796456D01*
X118599073Y-88740872D01*
X118613081Y-88726865D01*
X118696744Y-88585398D01*
X118742598Y-88427569D01*
X118745500Y-88390694D01*
X118745500Y-88114500D01*
X118762113Y-88052500D01*
X118807500Y-88007113D01*
X118869500Y-87990500D01*
X152674071Y-87990500D01*
X152733714Y-88005786D01*
G37*
G04 #@! TD.AperFunction*
M02*
