M48
; DRILL file {KiCad 7.0.1} date Sat Aug 26 14:00:40 2023
; FORMAT={-:-/ absolute / metric / decimal}
; #@! TF.CreationDate,2023-08-26T14:00:40-05:00
; #@! TF.GenerationSoftware,Kicad,Pcbnew,7.0.1
; #@! TF.FileFunction,Plated,1,2,PTH
FMAT,2
METRIC
; #@! TA.AperFunction,Plated,PTH,ViaDrill
T1C0.400
; #@! TA.AperFunction,Plated,PTH,ComponentDrill
T2C1.000
; #@! TA.AperFunction,Plated,PTH,ComponentDrill
T3C1.100
; #@! TA.AperFunction,Plated,PTH,ComponentDrill
T4C1.190
%
G90
G05
T1
X71.0Y-95.5
X77.0Y-96.5
X78.5Y-86.941
X87.0Y-96.5
X97.0Y-96.5
X106.5Y-89.5
X107.0Y-96.5
X108.339Y-88.839
X109.055Y-87.5
X112.865Y-87.5
X115.0Y-85.0
X115.405Y-87.5
X116.675Y-87.5
X117.0Y-96.5
X118.0Y-92.5
X127.0Y-96.5
X137.0Y-96.5
X142.0Y-90.376
X147.0Y-96.5
T2
X68.52Y-88.99
X68.52Y-91.53
X68.52Y-94.07
X68.52Y-96.61
X78.5Y-115.0
X88.5Y-115.0
X98.5Y-115.0
X108.5Y-115.0
X118.5Y-115.0
X128.5Y-115.0
X138.5Y-115.0
X148.5Y-115.0
X154.0Y-88.76
X154.0Y-91.3
X154.0Y-93.84
X154.0Y-96.38
T3
X77.055Y-100.42
X77.055Y-102.96
X77.055Y-105.5
X87.055Y-100.46
X87.055Y-103.0
X87.055Y-105.54
X97.055Y-100.42
X97.055Y-102.96
X97.055Y-105.5
X107.055Y-100.42
X107.055Y-102.96
X107.055Y-105.5
X117.0Y-100.46
X117.0Y-103.0
X117.0Y-105.54
X127.0Y-100.42
X127.0Y-102.96
X127.0Y-105.5
X137.055Y-100.46
X137.055Y-103.0
X137.055Y-105.54
X147.055Y-100.46
X147.055Y-103.0
X147.055Y-105.54
T4
X68.52Y-99.15
X68.52Y-101.69
X68.52Y-104.23
X68.52Y-106.77
X68.52Y-109.31
X73.5Y-115.0
X76.04Y-115.0
X83.5Y-115.0
X86.04Y-115.0
X93.5Y-115.0
X96.04Y-115.0
X103.5Y-115.0
X106.04Y-115.0
X113.5Y-115.0
X116.04Y-115.0
X123.5Y-115.0
X126.04Y-115.0
X133.5Y-115.0
X136.04Y-115.0
X143.5Y-115.0
X146.04Y-115.0
X154.0Y-98.92
X154.0Y-101.46
X154.0Y-104.0
X154.0Y-106.54
X154.0Y-109.08
T0
M30
