G04 #@! TF.GenerationSoftware,KiCad,Pcbnew,7.0.1*
G04 #@! TF.CreationDate,2023-08-26T14:00:20-05:00*
G04 #@! TF.ProjectId,Shift Register Mosfet Array V2,53686966-7420-4526-9567-697374657220,rev?*
G04 #@! TF.SameCoordinates,Original*
G04 #@! TF.FileFunction,Soldermask,Bot*
G04 #@! TF.FilePolarity,Negative*
%FSLAX46Y46*%
G04 Gerber Fmt 4.6, Leading zero omitted, Abs format (unit mm)*
G04 Created by KiCad (PCBNEW 7.0.1) date 2023-08-26 14:00:20*
%MOMM*%
%LPD*%
G01*
G04 APERTURE LIST*
G04 Aperture macros list*
%AMRoundRect*
0 Rectangle with rounded corners*
0 $1 Rounding radius*
0 $2 $3 $4 $5 $6 $7 $8 $9 X,Y pos of 4 corners*
0 Add a 4 corners polygon primitive as box body*
4,1,4,$2,$3,$4,$5,$6,$7,$8,$9,$2,$3,0*
0 Add four circle primitives for the rounded corners*
1,1,$1+$1,$2,$3*
1,1,$1+$1,$4,$5*
1,1,$1+$1,$6,$7*
1,1,$1+$1,$8,$9*
0 Add four rect primitives between the rounded corners*
20,1,$1+$1,$2,$3,$4,$5,0*
20,1,$1+$1,$4,$5,$6,$7,0*
20,1,$1+$1,$6,$7,$8,$9,0*
20,1,$1+$1,$8,$9,$2,$3,0*%
G04 Aperture macros list end*
%ADD10O,1.700000X1.700000*%
%ADD11R,1.700000X1.700000*%
%ADD12RoundRect,0.250000X-0.845000X0.620000X-0.845000X-0.620000X0.845000X-0.620000X0.845000X0.620000X0*%
%ADD13O,2.190000X1.740000*%
%ADD14RoundRect,0.250000X0.620000X0.845000X-0.620000X0.845000X-0.620000X-0.845000X0.620000X-0.845000X0*%
%ADD15O,1.740000X2.190000*%
%ADD16R,2.000000X1.905000*%
%ADD17O,2.000000X1.905000*%
%ADD18C,3.200000*%
%ADD19RoundRect,0.250000X0.845000X-0.620000X0.845000X0.620000X-0.845000X0.620000X-0.845000X-0.620000X0*%
G04 APERTURE END LIST*
D10*
X154000000Y-88760000D03*
X154000000Y-91300000D03*
X154000000Y-93840000D03*
D11*
X154000000Y-96380000D03*
D12*
X154000000Y-98920000D03*
D13*
X154000000Y-101460000D03*
X154000000Y-104000000D03*
X154000000Y-106540000D03*
X154000000Y-109080000D03*
D14*
X146040000Y-115000000D03*
D15*
X143500000Y-115000000D03*
D16*
X107055000Y-100420000D03*
D17*
X107055000Y-102960000D03*
X107055000Y-105500000D03*
D16*
X117000000Y-100460000D03*
D17*
X117000000Y-103000000D03*
X117000000Y-105540000D03*
D11*
X128500000Y-115000000D03*
D16*
X87055000Y-100460000D03*
D17*
X87055000Y-103000000D03*
X87055000Y-105540000D03*
D16*
X127000000Y-100420000D03*
D17*
X127000000Y-102960000D03*
X127000000Y-105500000D03*
D14*
X136040000Y-115000000D03*
D15*
X133500000Y-115000000D03*
D11*
X148500000Y-115000000D03*
D18*
X68500000Y-117000000D03*
D11*
X88500000Y-115000000D03*
D19*
X68520000Y-109310000D03*
D13*
X68520000Y-106770000D03*
X68520000Y-104230000D03*
X68520000Y-101690000D03*
X68520000Y-99150000D03*
D14*
X116040000Y-115000000D03*
D15*
X113500000Y-115000000D03*
D11*
X78500000Y-115000000D03*
D14*
X76040000Y-115000000D03*
D15*
X73500000Y-115000000D03*
D16*
X147055000Y-100460000D03*
D17*
X147055000Y-103000000D03*
X147055000Y-105540000D03*
D11*
X108500000Y-115000000D03*
D14*
X126040000Y-115000000D03*
D15*
X123500000Y-115000000D03*
D11*
X118500000Y-115000000D03*
D18*
X154000000Y-117000000D03*
D16*
X137055000Y-100460000D03*
D17*
X137055000Y-103000000D03*
X137055000Y-105540000D03*
D14*
X106040000Y-115000000D03*
D15*
X103500000Y-115000000D03*
D16*
X97055000Y-100420000D03*
D17*
X97055000Y-102960000D03*
X97055000Y-105500000D03*
D14*
X86040000Y-115000000D03*
D15*
X83500000Y-115000000D03*
D18*
X74000000Y-90500000D03*
D11*
X138500000Y-115000000D03*
D16*
X77055000Y-100420000D03*
D17*
X77055000Y-102960000D03*
X77055000Y-105500000D03*
D18*
X148500000Y-90500000D03*
D14*
X96040000Y-115000000D03*
D15*
X93500000Y-115000000D03*
D11*
X98500000Y-115000000D03*
X68520000Y-88990000D03*
D10*
X68520000Y-91530000D03*
X68520000Y-94070000D03*
X68520000Y-96610000D03*
M02*
