M48
; DRILL file {KiCad 7.0.1} date Sat Aug 26 14:24:10 2023
; FORMAT={-:-/ absolute / metric / decimal}
; #@! TF.CreationDate,2023-08-26T14:24:10-05:00
; #@! TF.GenerationSoftware,Kicad,Pcbnew,7.0.1
; #@! TF.FileFunction,Plated,1,2,PTH
FMAT,2
METRIC
; #@! TA.AperFunction,Plated,PTH,ViaDrill
T1C0.400
; #@! TA.AperFunction,Plated,PTH,ComponentDrill
T2C1.000
; #@! TA.AperFunction,Plated,PTH,ComponentDrill
T3C1.190
%
G90
G05
T1
X146.558Y-84.963
X154.175Y-85.025
X155.445Y-85.025
X155.448Y-89.916
X159.1Y-89.775
T2
X118.15Y-102.31
X128.15Y-102.31
X138.15Y-102.31
X148.15Y-102.31
X158.15Y-102.31
X168.15Y-102.31
X178.15Y-102.31
X188.15Y-102.31
T3
X113.15Y-102.31
X114.71Y-83.23
X114.71Y-85.77
X114.71Y-88.31
X114.71Y-90.85
X114.71Y-93.39
X115.69Y-102.31
X123.15Y-102.31
X125.69Y-102.31
X133.15Y-102.31
X135.69Y-102.31
X143.15Y-102.31
X145.69Y-102.31
X153.15Y-102.31
X155.69Y-102.31
X163.15Y-102.31
X165.69Y-102.31
X173.15Y-102.31
X175.69Y-102.31
X183.15Y-102.31
X184.17Y-83.23
X184.17Y-85.77
X184.17Y-88.31
X184.17Y-90.85
X184.17Y-93.39
X185.69Y-102.31
T0
M30
