G04 #@! TF.GenerationSoftware,KiCad,Pcbnew,7.0.1*
G04 #@! TF.CreationDate,2023-07-05T13:56:38-05:00*
G04 #@! TF.ProjectId,shift in breakout board,73686966-7420-4696-9e20-627265616b6f,rev?*
G04 #@! TF.SameCoordinates,Original*
G04 #@! TF.FileFunction,Copper,L2,Bot*
G04 #@! TF.FilePolarity,Positive*
%FSLAX46Y46*%
G04 Gerber Fmt 4.6, Leading zero omitted, Abs format (unit mm)*
G04 Created by KiCad (PCBNEW 7.0.1) date 2023-07-05 13:56:38*
%MOMM*%
%LPD*%
G01*
G04 APERTURE LIST*
G04 Aperture macros list*
%AMRoundRect*
0 Rectangle with rounded corners*
0 $1 Rounding radius*
0 $2 $3 $4 $5 $6 $7 $8 $9 X,Y pos of 4 corners*
0 Add a 4 corners polygon primitive as box body*
4,1,4,$2,$3,$4,$5,$6,$7,$8,$9,$2,$3,0*
0 Add four circle primitives for the rounded corners*
1,1,$1+$1,$2,$3*
1,1,$1+$1,$4,$5*
1,1,$1+$1,$6,$7*
1,1,$1+$1,$8,$9*
0 Add four rect primitives between the rounded corners*
20,1,$1+$1,$2,$3,$4,$5,0*
20,1,$1+$1,$4,$5,$6,$7,0*
20,1,$1+$1,$6,$7,$8,$9,0*
20,1,$1+$1,$8,$9,$2,$3,0*%
%AMFreePoly0*
4,1,19,0.500000,-0.750000,0.000000,-0.750000,0.000000,-0.744911,-0.071157,-0.744911,-0.207708,-0.704816,-0.327430,-0.627875,-0.420627,-0.520320,-0.479746,-0.390866,-0.500000,-0.250000,-0.500000,0.250000,-0.479746,0.390866,-0.420627,0.520320,-0.327430,0.627875,-0.207708,0.704816,-0.071157,0.744911,0.000000,0.744911,0.000000,0.750000,0.500000,0.750000,0.500000,-0.750000,0.500000,-0.750000,
$1*%
%AMFreePoly1*
4,1,19,0.000000,0.744911,0.071157,0.744911,0.207708,0.704816,0.327430,0.627875,0.420627,0.520320,0.479746,0.390866,0.500000,0.250000,0.500000,-0.250000,0.479746,-0.390866,0.420627,-0.520320,0.327430,-0.627875,0.207708,-0.704816,0.071157,-0.744911,0.000000,-0.744911,0.000000,-0.750000,-0.500000,-0.750000,-0.500000,0.750000,0.000000,0.750000,0.000000,0.744911,0.000000,0.744911,
$1*%
%AMFreePoly2*
4,1,19,0.550000,-0.750000,0.000000,-0.750000,0.000000,-0.744911,-0.071157,-0.744911,-0.207708,-0.704816,-0.327430,-0.627875,-0.420627,-0.520320,-0.479746,-0.390866,-0.500000,-0.250000,-0.500000,0.250000,-0.479746,0.390866,-0.420627,0.520320,-0.327430,0.627875,-0.207708,0.704816,-0.071157,0.744911,0.000000,0.744911,0.000000,0.750000,0.550000,0.750000,0.550000,-0.750000,0.550000,-0.750000,
$1*%
%AMFreePoly3*
4,1,19,0.000000,0.744911,0.071157,0.744911,0.207708,0.704816,0.327430,0.627875,0.420627,0.520320,0.479746,0.390866,0.500000,0.250000,0.500000,-0.250000,0.479746,-0.390866,0.420627,-0.520320,0.327430,-0.627875,0.207708,-0.704816,0.071157,-0.744911,0.000000,-0.744911,0.000000,-0.750000,-0.550000,-0.750000,-0.550000,0.750000,0.000000,0.750000,0.000000,0.744911,0.000000,0.744911,
$1*%
G04 Aperture macros list end*
G04 #@! TA.AperFunction,ComponentPad*
%ADD10R,1.700000X1.700000*%
G04 #@! TD*
G04 #@! TA.AperFunction,ComponentPad*
%ADD11RoundRect,0.250000X0.620000X0.845000X-0.620000X0.845000X-0.620000X-0.845000X0.620000X-0.845000X0*%
G04 #@! TD*
G04 #@! TA.AperFunction,ComponentPad*
%ADD12O,1.740000X2.190000*%
G04 #@! TD*
G04 #@! TA.AperFunction,ComponentPad*
%ADD13C,1.400000*%
G04 #@! TD*
G04 #@! TA.AperFunction,ComponentPad*
%ADD14O,1.400000X1.400000*%
G04 #@! TD*
G04 #@! TA.AperFunction,ComponentPad*
%ADD15RoundRect,0.250000X-0.620000X-0.845000X0.620000X-0.845000X0.620000X0.845000X-0.620000X0.845000X0*%
G04 #@! TD*
G04 #@! TA.AperFunction,ComponentPad*
%ADD16RoundRect,0.250000X-0.845000X0.620000X-0.845000X-0.620000X0.845000X-0.620000X0.845000X0.620000X0*%
G04 #@! TD*
G04 #@! TA.AperFunction,ComponentPad*
%ADD17O,2.190000X1.740000*%
G04 #@! TD*
G04 #@! TA.AperFunction,ComponentPad*
%ADD18RoundRect,0.250000X0.845000X-0.620000X0.845000X0.620000X-0.845000X0.620000X-0.845000X-0.620000X0*%
G04 #@! TD*
G04 #@! TA.AperFunction,ComponentPad*
%ADD19C,1.600000*%
G04 #@! TD*
G04 #@! TA.AperFunction,ComponentPad*
%ADD20R,1.600000X1.600000*%
G04 #@! TD*
G04 #@! TA.AperFunction,ComponentPad*
%ADD21O,1.600000X1.600000*%
G04 #@! TD*
G04 #@! TA.AperFunction,SMDPad,CuDef*
%ADD22FreePoly0,180.000000*%
G04 #@! TD*
G04 #@! TA.AperFunction,SMDPad,CuDef*
%ADD23FreePoly1,180.000000*%
G04 #@! TD*
G04 #@! TA.AperFunction,SMDPad,CuDef*
%ADD24FreePoly2,180.000000*%
G04 #@! TD*
G04 #@! TA.AperFunction,SMDPad,CuDef*
%ADD25R,1.000000X1.500000*%
G04 #@! TD*
G04 #@! TA.AperFunction,SMDPad,CuDef*
%ADD26FreePoly3,180.000000*%
G04 #@! TD*
G04 #@! TA.AperFunction,ViaPad*
%ADD27C,0.800000*%
G04 #@! TD*
G04 #@! TA.AperFunction,Conductor*
%ADD28C,0.500000*%
G04 #@! TD*
G04 #@! TA.AperFunction,Conductor*
%ADD29C,0.250000*%
G04 #@! TD*
G04 APERTURE END LIST*
D10*
X195580000Y-86360000D03*
D11*
X166370000Y-86360000D03*
D12*
X163830000Y-86360000D03*
D13*
X170180000Y-63500000D03*
D14*
X177800000Y-63500000D03*
D13*
X170180000Y-78740000D03*
D14*
X177800000Y-78740000D03*
D15*
X182880000Y-58420000D03*
D12*
X185420000Y-58420000D03*
D13*
X170180000Y-81280000D03*
D14*
X177800000Y-81280000D03*
D11*
X193040000Y-86360000D03*
D12*
X190500000Y-86360000D03*
D10*
X168910000Y-86360000D03*
D15*
X165100000Y-58420000D03*
D12*
X167640000Y-58420000D03*
D11*
X175260000Y-86360000D03*
D12*
X172720000Y-86360000D03*
D13*
X187960000Y-81280000D03*
D14*
X180340000Y-81280000D03*
D10*
X171450000Y-58420000D03*
D11*
X184150000Y-86360000D03*
D12*
X181610000Y-86360000D03*
D10*
X177800000Y-86360000D03*
D13*
X170180000Y-66040000D03*
D14*
X177800000Y-66040000D03*
D10*
X186690000Y-86360000D03*
D13*
X187960000Y-63500000D03*
D14*
X180340000Y-63500000D03*
D16*
X198628000Y-67310000D03*
D17*
X198628000Y-69850000D03*
X198628000Y-72390000D03*
X198628000Y-74930000D03*
X198628000Y-77470000D03*
D10*
X189230000Y-58420000D03*
X162560000Y-58420000D03*
D15*
X173990000Y-58420000D03*
D12*
X176530000Y-58420000D03*
D13*
X187960000Y-78740000D03*
D14*
X180340000Y-78740000D03*
D18*
X160020000Y-77470000D03*
D17*
X160020000Y-74930000D03*
X160020000Y-72390000D03*
X160020000Y-69850000D03*
X160020000Y-67310000D03*
D13*
X187960000Y-66040000D03*
D14*
X180340000Y-66040000D03*
D19*
X165608000Y-68754000D03*
X165608000Y-63754000D03*
D10*
X180340000Y-58420000D03*
D15*
X191770000Y-58420000D03*
D12*
X194310000Y-58420000D03*
D20*
X170180000Y-76200000D03*
D21*
X172720000Y-76200000D03*
X175260000Y-76200000D03*
X177800000Y-76200000D03*
X180340000Y-76200000D03*
X182880000Y-76200000D03*
X185420000Y-76200000D03*
X187960000Y-76200000D03*
X187960000Y-68580000D03*
X185420000Y-68580000D03*
X182880000Y-68580000D03*
X180340000Y-68580000D03*
X177800000Y-68580000D03*
X175260000Y-68580000D03*
X172720000Y-68580000D03*
X170180000Y-68580000D03*
D22*
X183545000Y-71755000D03*
D23*
X182245000Y-71755000D03*
D24*
X185420000Y-83820000D03*
D25*
X184120000Y-83820000D03*
D26*
X182820000Y-83820000D03*
D24*
X185450000Y-78740000D03*
D25*
X184150000Y-78740000D03*
D26*
X182850000Y-78740000D03*
D27*
X170180000Y-70485000D03*
X173355000Y-71755000D03*
X184150000Y-83820000D03*
X184150000Y-78740000D03*
D28*
X182245000Y-71168604D02*
X184833604Y-68580000D01*
X182245000Y-71755000D02*
X182245000Y-71168604D01*
X184833604Y-68580000D02*
X185420000Y-68580000D01*
X181755000Y-74131396D02*
X183545000Y-72341396D01*
X183545000Y-71755000D02*
X183545000Y-71785000D01*
X173492233Y-68580000D02*
X172720000Y-68580000D01*
X179377233Y-74465000D02*
X173492233Y-68580000D01*
X183545000Y-71785000D02*
X187960000Y-76200000D01*
X181755000Y-74465000D02*
X179377233Y-74465000D01*
X183545000Y-72341396D02*
X183545000Y-71755000D01*
X185450000Y-83790000D02*
X185450000Y-78740000D01*
X187960000Y-76200000D02*
X187960000Y-76230000D01*
X185420000Y-83820000D02*
X185450000Y-83790000D01*
X187960000Y-76230000D02*
X185450000Y-78740000D01*
X181755000Y-74465000D02*
X181755000Y-74131396D01*
X160174000Y-70004000D02*
X166524000Y-70004000D01*
X166524000Y-70004000D02*
X172720000Y-76200000D01*
X160020000Y-69850000D02*
X160174000Y-70004000D01*
X187960000Y-68580000D02*
X186710000Y-67330000D01*
X186710000Y-67330000D02*
X172466000Y-67330000D01*
X172446000Y-67310000D02*
X172466000Y-67330000D01*
X160020000Y-67310000D02*
X172446000Y-67310000D01*
X173355000Y-71755000D02*
X176550000Y-74950000D01*
X177422233Y-77590000D02*
X181689059Y-77590000D01*
X182850000Y-83790000D02*
X182850000Y-78740000D01*
X170180000Y-70485000D02*
X170180000Y-68580000D01*
X181689059Y-77590000D02*
X182839059Y-78740000D01*
X182820000Y-83820000D02*
X182850000Y-83790000D01*
X182839059Y-78740000D02*
X182850000Y-78740000D01*
X176550000Y-76717767D02*
X177422233Y-77590000D01*
X176550000Y-74950000D02*
X176550000Y-76717767D01*
X195371000Y-77024000D02*
X198182000Y-77024000D01*
X194310000Y-77470000D02*
X185420000Y-68580000D01*
X194925000Y-77470000D02*
X194310000Y-77470000D01*
X198182000Y-77024000D02*
X198628000Y-77470000D01*
X194925000Y-77470000D02*
X195371000Y-77024000D01*
D29*
X184120000Y-83820000D02*
X184150000Y-83820000D01*
D28*
X176650000Y-62350000D02*
X162690000Y-62350000D01*
X158475000Y-78379949D02*
X159985051Y-79890000D01*
X162690000Y-62350000D02*
X158475000Y-66565000D01*
X180340000Y-66040000D02*
X180340000Y-63500000D01*
X159985051Y-79890000D02*
X176650000Y-79890000D01*
X177800000Y-63500000D02*
X180340000Y-63500000D01*
X176650000Y-79890000D02*
X177800000Y-78740000D01*
X177800000Y-63500000D02*
X177800000Y-66040000D01*
X158475000Y-66565000D02*
X158475000Y-78379949D01*
X177800000Y-66040000D02*
X180340000Y-66040000D01*
X177800000Y-63500000D02*
X176650000Y-62350000D01*
X194310000Y-80264000D02*
X197925762Y-80264000D01*
X190500000Y-84074000D02*
X194310000Y-80264000D01*
X190500000Y-86360000D02*
X190500000Y-84074000D01*
X197925762Y-80264000D02*
X200173000Y-78016762D01*
X200173000Y-78016762D02*
X200173000Y-64283000D01*
X200173000Y-64283000D02*
X194310000Y-58420000D01*
M02*
