G04 #@! TF.GenerationSoftware,KiCad,Pcbnew,7.0.1*
G04 #@! TF.CreationDate,2023-07-05T13:56:38-05:00*
G04 #@! TF.ProjectId,shift in breakout board,73686966-7420-4696-9e20-627265616b6f,rev?*
G04 #@! TF.SameCoordinates,Original*
G04 #@! TF.FileFunction,Soldermask,Top*
G04 #@! TF.FilePolarity,Negative*
%FSLAX46Y46*%
G04 Gerber Fmt 4.6, Leading zero omitted, Abs format (unit mm)*
G04 Created by KiCad (PCBNEW 7.0.1) date 2023-07-05 13:56:38*
%MOMM*%
%LPD*%
G01*
G04 APERTURE LIST*
G04 Aperture macros list*
%AMRoundRect*
0 Rectangle with rounded corners*
0 $1 Rounding radius*
0 $2 $3 $4 $5 $6 $7 $8 $9 X,Y pos of 4 corners*
0 Add a 4 corners polygon primitive as box body*
4,1,4,$2,$3,$4,$5,$6,$7,$8,$9,$2,$3,0*
0 Add four circle primitives for the rounded corners*
1,1,$1+$1,$2,$3*
1,1,$1+$1,$4,$5*
1,1,$1+$1,$6,$7*
1,1,$1+$1,$8,$9*
0 Add four rect primitives between the rounded corners*
20,1,$1+$1,$2,$3,$4,$5,0*
20,1,$1+$1,$4,$5,$6,$7,0*
20,1,$1+$1,$6,$7,$8,$9,0*
20,1,$1+$1,$8,$9,$2,$3,0*%
G04 Aperture macros list end*
%ADD10R,1.700000X1.700000*%
%ADD11RoundRect,0.250000X0.620000X0.845000X-0.620000X0.845000X-0.620000X-0.845000X0.620000X-0.845000X0*%
%ADD12O,1.740000X2.190000*%
%ADD13C,1.400000*%
%ADD14O,1.400000X1.400000*%
%ADD15RoundRect,0.250000X-0.620000X-0.845000X0.620000X-0.845000X0.620000X0.845000X-0.620000X0.845000X0*%
%ADD16C,3.200000*%
%ADD17RoundRect,0.250000X-0.845000X0.620000X-0.845000X-0.620000X0.845000X-0.620000X0.845000X0.620000X0*%
%ADD18O,2.190000X1.740000*%
%ADD19RoundRect,0.250000X0.845000X-0.620000X0.845000X0.620000X-0.845000X0.620000X-0.845000X-0.620000X0*%
%ADD20C,1.600000*%
%ADD21R,1.600000X1.600000*%
%ADD22O,1.600000X1.600000*%
G04 APERTURE END LIST*
D10*
X195580000Y-86360000D03*
D11*
X166370000Y-86360000D03*
D12*
X163830000Y-86360000D03*
D13*
X170180000Y-63500000D03*
D14*
X177800000Y-63500000D03*
D13*
X170180000Y-78740000D03*
D14*
X177800000Y-78740000D03*
D15*
X182880000Y-58420000D03*
D12*
X185420000Y-58420000D03*
D13*
X170180000Y-81280000D03*
D14*
X177800000Y-81280000D03*
D11*
X193040000Y-86360000D03*
D12*
X190500000Y-86360000D03*
D16*
X157422000Y-57376000D03*
D10*
X168910000Y-86360000D03*
D15*
X165100000Y-58420000D03*
D12*
X167640000Y-58420000D03*
D11*
X175260000Y-86360000D03*
D12*
X172720000Y-86360000D03*
D13*
X187960000Y-81280000D03*
D14*
X180340000Y-81280000D03*
D10*
X171450000Y-58420000D03*
D11*
X184150000Y-86360000D03*
D12*
X181610000Y-86360000D03*
D10*
X177800000Y-86360000D03*
D13*
X170180000Y-66040000D03*
D14*
X177800000Y-66040000D03*
D10*
X186690000Y-86360000D03*
D13*
X187960000Y-63500000D03*
D14*
X180340000Y-63500000D03*
D17*
X198628000Y-67310000D03*
D18*
X198628000Y-69850000D03*
X198628000Y-72390000D03*
X198628000Y-74930000D03*
X198628000Y-77470000D03*
D10*
X189230000Y-58420000D03*
X162560000Y-58420000D03*
D15*
X173990000Y-58420000D03*
D12*
X176530000Y-58420000D03*
D16*
X201422000Y-87376000D03*
D13*
X187960000Y-78740000D03*
D14*
X180340000Y-78740000D03*
D19*
X160020000Y-77470000D03*
D18*
X160020000Y-74930000D03*
X160020000Y-72390000D03*
X160020000Y-69850000D03*
X160020000Y-67310000D03*
D13*
X187960000Y-66040000D03*
D14*
X180340000Y-66040000D03*
D16*
X201422000Y-57376000D03*
D20*
X165608000Y-68754000D03*
X165608000Y-63754000D03*
D10*
X180340000Y-58420000D03*
D15*
X191770000Y-58420000D03*
D12*
X194310000Y-58420000D03*
D21*
X170180000Y-76200000D03*
D22*
X172720000Y-76200000D03*
X175260000Y-76200000D03*
X177800000Y-76200000D03*
X180340000Y-76200000D03*
X182880000Y-76200000D03*
X185420000Y-76200000D03*
X187960000Y-76200000D03*
X187960000Y-68580000D03*
X185420000Y-68580000D03*
X182880000Y-68580000D03*
X180340000Y-68580000D03*
X177800000Y-68580000D03*
X175260000Y-68580000D03*
X172720000Y-68580000D03*
X170180000Y-68580000D03*
D16*
X157422000Y-87376000D03*
M02*
