G04 #@! TF.GenerationSoftware,KiCad,Pcbnew,7.0.1*
G04 #@! TF.CreationDate,2023-08-26T14:23:56-05:00*
G04 #@! TF.ProjectId,Shift In Breakout Board V2,53686966-7420-4496-9e20-427265616b6f,rev?*
G04 #@! TF.SameCoordinates,Original*
G04 #@! TF.FileFunction,Legend,Top*
G04 #@! TF.FilePolarity,Positive*
%FSLAX46Y46*%
G04 Gerber Fmt 4.6, Leading zero omitted, Abs format (unit mm)*
G04 Created by KiCad (PCBNEW 7.0.1) date 2023-08-26 14:23:56*
%MOMM*%
%LPD*%
G01*
G04 APERTURE LIST*
G04 Aperture macros list*
%AMRoundRect*
0 Rectangle with rounded corners*
0 $1 Rounding radius*
0 $2 $3 $4 $5 $6 $7 $8 $9 X,Y pos of 4 corners*
0 Add a 4 corners polygon primitive as box body*
4,1,4,$2,$3,$4,$5,$6,$7,$8,$9,$2,$3,0*
0 Add four circle primitives for the rounded corners*
1,1,$1+$1,$2,$3*
1,1,$1+$1,$4,$5*
1,1,$1+$1,$6,$7*
1,1,$1+$1,$8,$9*
0 Add four rect primitives between the rounded corners*
20,1,$1+$1,$2,$3,$4,$5,0*
20,1,$1+$1,$4,$5,$6,$7,0*
20,1,$1+$1,$6,$7,$8,$9,0*
20,1,$1+$1,$8,$9,$2,$3,0*%
%AMFreePoly0*
4,1,19,0.500000,-0.750000,0.000000,-0.750000,0.000000,-0.744911,-0.071157,-0.744911,-0.207708,-0.704816,-0.327430,-0.627875,-0.420627,-0.520320,-0.479746,-0.390866,-0.500000,-0.250000,-0.500000,0.250000,-0.479746,0.390866,-0.420627,0.520320,-0.327430,0.627875,-0.207708,0.704816,-0.071157,0.744911,0.000000,0.744911,0.000000,0.750000,0.500000,0.750000,0.500000,-0.750000,0.500000,-0.750000,
$1*%
%AMFreePoly1*
4,1,19,0.000000,0.744911,0.071157,0.744911,0.207708,0.704816,0.327430,0.627875,0.420627,0.520320,0.479746,0.390866,0.500000,0.250000,0.500000,-0.250000,0.479746,-0.390866,0.420627,-0.520320,0.327430,-0.627875,0.207708,-0.704816,0.071157,-0.744911,0.000000,-0.744911,0.000000,-0.750000,-0.500000,-0.750000,-0.500000,0.750000,0.000000,0.750000,0.000000,0.744911,0.000000,0.744911,
$1*%
G04 Aperture macros list end*
%ADD10C,0.150000*%
%ADD11C,0.200000*%
%ADD12C,0.120000*%
%ADD13RoundRect,0.150000X-0.150000X0.825000X-0.150000X-0.825000X0.150000X-0.825000X0.150000X0.825000X0*%
%ADD14RoundRect,0.250000X0.350000X0.450000X-0.350000X0.450000X-0.350000X-0.450000X0.350000X-0.450000X0*%
%ADD15RoundRect,0.250000X0.620000X0.845000X-0.620000X0.845000X-0.620000X-0.845000X0.620000X-0.845000X0*%
%ADD16O,1.740000X2.190000*%
%ADD17RoundRect,0.250000X-0.845000X0.620000X-0.845000X-0.620000X0.845000X-0.620000X0.845000X0.620000X0*%
%ADD18O,2.190000X1.740000*%
%ADD19RoundRect,0.250000X-0.350000X-0.450000X0.350000X-0.450000X0.350000X0.450000X-0.350000X0.450000X0*%
%ADD20R,1.700000X1.700000*%
%ADD21RoundRect,0.250000X0.845000X-0.620000X0.845000X0.620000X-0.845000X0.620000X-0.845000X-0.620000X0*%
%ADD22C,3.200000*%
%ADD23FreePoly0,270.000000*%
%ADD24FreePoly1,270.000000*%
%ADD25RoundRect,0.250000X0.475000X-0.337500X0.475000X0.337500X-0.475000X0.337500X-0.475000X-0.337500X0*%
G04 APERTURE END LIST*
D10*
X118900000Y-92800000D02*
X119900000Y-93800000D01*
X177450000Y-92850000D02*
X176450000Y-91850000D01*
X173950000Y-92850000D02*
X177450000Y-92850000D01*
X177450000Y-92850000D02*
X176450000Y-93850000D01*
X122400000Y-92800000D02*
X118900000Y-92800000D01*
X118900000Y-92800000D02*
X119900000Y-91800000D01*
X110227329Y-82524338D02*
X111227329Y-82524338D01*
X110274949Y-82524338D02*
X110227329Y-82452909D01*
X110227329Y-82452909D02*
X110227329Y-82310052D01*
X110227329Y-82310052D02*
X110274949Y-82238623D01*
X110274949Y-82238623D02*
X110322568Y-82202909D01*
X110322568Y-82202909D02*
X110417806Y-82167195D01*
X110417806Y-82167195D02*
X110703520Y-82167195D01*
X110703520Y-82167195D02*
X110798758Y-82202909D01*
X110798758Y-82202909D02*
X110846377Y-82238623D01*
X110846377Y-82238623D02*
X110893996Y-82310052D01*
X110893996Y-82310052D02*
X110893996Y-82452909D01*
X110893996Y-82452909D02*
X110846377Y-82524338D01*
X111227329Y-83024337D02*
X111227329Y-83167194D01*
X111227329Y-83167194D02*
X111179710Y-83238623D01*
X111179710Y-83238623D02*
X111084472Y-83310051D01*
X111084472Y-83310051D02*
X110893996Y-83345766D01*
X110893996Y-83345766D02*
X110560663Y-83345766D01*
X110560663Y-83345766D02*
X110370187Y-83310051D01*
X110370187Y-83310051D02*
X110274949Y-83238623D01*
X110274949Y-83238623D02*
X110227329Y-83167194D01*
X110227329Y-83167194D02*
X110227329Y-83024337D01*
X110227329Y-83024337D02*
X110274949Y-82952909D01*
X110274949Y-82952909D02*
X110370187Y-82881480D01*
X110370187Y-82881480D02*
X110560663Y-82845766D01*
X110560663Y-82845766D02*
X110893996Y-82845766D01*
X110893996Y-82845766D02*
X111084472Y-82881480D01*
X111084472Y-82881480D02*
X111179710Y-82952909D01*
X111179710Y-82952909D02*
X111227329Y-83024337D01*
X110893996Y-83988623D02*
X110227329Y-83988623D01*
X110893996Y-83667194D02*
X110370187Y-83667194D01*
X110370187Y-83667194D02*
X110274949Y-83702908D01*
X110274949Y-83702908D02*
X110227329Y-83774337D01*
X110227329Y-83774337D02*
X110227329Y-83881480D01*
X110227329Y-83881480D02*
X110274949Y-83952908D01*
X110274949Y-83952908D02*
X110322568Y-83988623D01*
X110893996Y-84238622D02*
X110893996Y-84524336D01*
X111227329Y-84345765D02*
X110370187Y-84345765D01*
X110370187Y-84345765D02*
X110274949Y-84381479D01*
X110274949Y-84381479D02*
X110227329Y-84452908D01*
X110227329Y-84452908D02*
X110227329Y-84524336D01*
X188652568Y-83667193D02*
X187652568Y-83667193D01*
X188604949Y-83667193D02*
X188652568Y-83738621D01*
X188652568Y-83738621D02*
X188652568Y-83881478D01*
X188652568Y-83881478D02*
X188604949Y-83952907D01*
X188604949Y-83952907D02*
X188557329Y-83988621D01*
X188557329Y-83988621D02*
X188462091Y-84024335D01*
X188462091Y-84024335D02*
X188176377Y-84024335D01*
X188176377Y-84024335D02*
X188081139Y-83988621D01*
X188081139Y-83988621D02*
X188033520Y-83952907D01*
X188033520Y-83952907D02*
X187985901Y-83881478D01*
X187985901Y-83881478D02*
X187985901Y-83738621D01*
X187985901Y-83738621D02*
X188033520Y-83667193D01*
X188652568Y-83310050D02*
X187652568Y-83310050D01*
X187985901Y-82952907D02*
X188652568Y-82952907D01*
X188081139Y-82952907D02*
X188033520Y-82917193D01*
X188033520Y-82917193D02*
X187985901Y-82845764D01*
X187985901Y-82845764D02*
X187985901Y-82738621D01*
X187985901Y-82738621D02*
X188033520Y-82667193D01*
X188033520Y-82667193D02*
X188128758Y-82631479D01*
X188128758Y-82631479D02*
X188652568Y-82631479D01*
X172428044Y-105820289D02*
X172332806Y-105772670D01*
X172332806Y-105772670D02*
X172189949Y-105772670D01*
X172189949Y-105772670D02*
X172047092Y-105820289D01*
X172047092Y-105820289D02*
X171951854Y-105915527D01*
X171951854Y-105915527D02*
X171904235Y-106010765D01*
X171904235Y-106010765D02*
X171856616Y-106201241D01*
X171856616Y-106201241D02*
X171856616Y-106344098D01*
X171856616Y-106344098D02*
X171904235Y-106534574D01*
X171904235Y-106534574D02*
X171951854Y-106629812D01*
X171951854Y-106629812D02*
X172047092Y-106725051D01*
X172047092Y-106725051D02*
X172189949Y-106772670D01*
X172189949Y-106772670D02*
X172285187Y-106772670D01*
X172285187Y-106772670D02*
X172428044Y-106725051D01*
X172428044Y-106725051D02*
X172475663Y-106677431D01*
X172475663Y-106677431D02*
X172475663Y-106344098D01*
X172475663Y-106344098D02*
X172285187Y-106344098D01*
X172904235Y-106772670D02*
X172904235Y-105772670D01*
X172904235Y-105772670D02*
X173475663Y-106772670D01*
X173475663Y-106772670D02*
X173475663Y-105772670D01*
X173951854Y-106772670D02*
X173951854Y-105772670D01*
X173951854Y-105772670D02*
X174189949Y-105772670D01*
X174189949Y-105772670D02*
X174332806Y-105820289D01*
X174332806Y-105820289D02*
X174428044Y-105915527D01*
X174428044Y-105915527D02*
X174475663Y-106010765D01*
X174475663Y-106010765D02*
X174523282Y-106201241D01*
X174523282Y-106201241D02*
X174523282Y-106344098D01*
X174523282Y-106344098D02*
X174475663Y-106534574D01*
X174475663Y-106534574D02*
X174428044Y-106629812D01*
X174428044Y-106629812D02*
X174332806Y-106725051D01*
X174332806Y-106725051D02*
X174189949Y-106772670D01*
X174189949Y-106772670D02*
X173951854Y-106772670D01*
X122428044Y-105820289D02*
X122332806Y-105772670D01*
X122332806Y-105772670D02*
X122189949Y-105772670D01*
X122189949Y-105772670D02*
X122047092Y-105820289D01*
X122047092Y-105820289D02*
X121951854Y-105915527D01*
X121951854Y-105915527D02*
X121904235Y-106010765D01*
X121904235Y-106010765D02*
X121856616Y-106201241D01*
X121856616Y-106201241D02*
X121856616Y-106344098D01*
X121856616Y-106344098D02*
X121904235Y-106534574D01*
X121904235Y-106534574D02*
X121951854Y-106629812D01*
X121951854Y-106629812D02*
X122047092Y-106725051D01*
X122047092Y-106725051D02*
X122189949Y-106772670D01*
X122189949Y-106772670D02*
X122285187Y-106772670D01*
X122285187Y-106772670D02*
X122428044Y-106725051D01*
X122428044Y-106725051D02*
X122475663Y-106677431D01*
X122475663Y-106677431D02*
X122475663Y-106344098D01*
X122475663Y-106344098D02*
X122285187Y-106344098D01*
X122904235Y-106772670D02*
X122904235Y-105772670D01*
X122904235Y-105772670D02*
X123475663Y-106772670D01*
X123475663Y-106772670D02*
X123475663Y-105772670D01*
X123951854Y-106772670D02*
X123951854Y-105772670D01*
X123951854Y-105772670D02*
X124189949Y-105772670D01*
X124189949Y-105772670D02*
X124332806Y-105820289D01*
X124332806Y-105820289D02*
X124428044Y-105915527D01*
X124428044Y-105915527D02*
X124475663Y-106010765D01*
X124475663Y-106010765D02*
X124523282Y-106201241D01*
X124523282Y-106201241D02*
X124523282Y-106344098D01*
X124523282Y-106344098D02*
X124475663Y-106534574D01*
X124475663Y-106534574D02*
X124428044Y-106629812D01*
X124428044Y-106629812D02*
X124332806Y-106725051D01*
X124332806Y-106725051D02*
X124189949Y-106772670D01*
X124189949Y-106772670D02*
X123951854Y-106772670D01*
X188604949Y-86131479D02*
X188652568Y-86202907D01*
X188652568Y-86202907D02*
X188652568Y-86345764D01*
X188652568Y-86345764D02*
X188604949Y-86417193D01*
X188604949Y-86417193D02*
X188557329Y-86452907D01*
X188557329Y-86452907D02*
X188462091Y-86488621D01*
X188462091Y-86488621D02*
X188176377Y-86488621D01*
X188176377Y-86488621D02*
X188081139Y-86452907D01*
X188081139Y-86452907D02*
X188033520Y-86417193D01*
X188033520Y-86417193D02*
X187985901Y-86345764D01*
X187985901Y-86345764D02*
X187985901Y-86202907D01*
X187985901Y-86202907D02*
X188033520Y-86131479D01*
X188652568Y-85702907D02*
X188604949Y-85774336D01*
X188604949Y-85774336D02*
X188509710Y-85810050D01*
X188509710Y-85810050D02*
X187652568Y-85810050D01*
X188652568Y-85417193D02*
X187652568Y-85417193D01*
X188271615Y-85345765D02*
X188652568Y-85131479D01*
X187985901Y-85131479D02*
X188366853Y-85417193D01*
X187700187Y-93881479D02*
X187652568Y-93952908D01*
X187652568Y-93952908D02*
X187652568Y-94060050D01*
X187652568Y-94060050D02*
X187700187Y-94167193D01*
X187700187Y-94167193D02*
X187795425Y-94238622D01*
X187795425Y-94238622D02*
X187890663Y-94274336D01*
X187890663Y-94274336D02*
X188081139Y-94310050D01*
X188081139Y-94310050D02*
X188223996Y-94310050D01*
X188223996Y-94310050D02*
X188414472Y-94274336D01*
X188414472Y-94274336D02*
X188509710Y-94238622D01*
X188509710Y-94238622D02*
X188604949Y-94167193D01*
X188604949Y-94167193D02*
X188652568Y-94060050D01*
X188652568Y-94060050D02*
X188652568Y-93988622D01*
X188652568Y-93988622D02*
X188604949Y-93881479D01*
X188604949Y-93881479D02*
X188557329Y-93845765D01*
X188557329Y-93845765D02*
X188223996Y-93845765D01*
X188223996Y-93845765D02*
X188223996Y-93988622D01*
X188652568Y-93524336D02*
X187652568Y-93524336D01*
X187652568Y-93524336D02*
X188652568Y-93095765D01*
X188652568Y-93095765D02*
X187652568Y-93095765D01*
X188652568Y-92738622D02*
X187652568Y-92738622D01*
X187652568Y-92738622D02*
X187652568Y-92560051D01*
X187652568Y-92560051D02*
X187700187Y-92452908D01*
X187700187Y-92452908D02*
X187795425Y-92381479D01*
X187795425Y-92381479D02*
X187890663Y-92345765D01*
X187890663Y-92345765D02*
X188081139Y-92310051D01*
X188081139Y-92310051D02*
X188223996Y-92310051D01*
X188223996Y-92310051D02*
X188414472Y-92345765D01*
X188414472Y-92345765D02*
X188509710Y-92381479D01*
X188509710Y-92381479D02*
X188604949Y-92452908D01*
X188604949Y-92452908D02*
X188652568Y-92560051D01*
X188652568Y-92560051D02*
X188652568Y-92738622D01*
X185951854Y-106772670D02*
X185951854Y-105772670D01*
X185951854Y-105772670D02*
X186189949Y-105772670D01*
X186189949Y-105772670D02*
X186332806Y-105820289D01*
X186332806Y-105820289D02*
X186428044Y-105915527D01*
X186428044Y-105915527D02*
X186475663Y-106010765D01*
X186475663Y-106010765D02*
X186523282Y-106201241D01*
X186523282Y-106201241D02*
X186523282Y-106344098D01*
X186523282Y-106344098D02*
X186475663Y-106534574D01*
X186475663Y-106534574D02*
X186428044Y-106629812D01*
X186428044Y-106629812D02*
X186332806Y-106725051D01*
X186332806Y-106725051D02*
X186189949Y-106772670D01*
X186189949Y-106772670D02*
X185951854Y-106772670D01*
X186856616Y-105772670D02*
X187523282Y-105772670D01*
X187523282Y-105772670D02*
X187094711Y-106772670D01*
X123042857Y-92616428D02*
X123614285Y-92616428D01*
X123257142Y-92116428D02*
X123257142Y-93402142D01*
X123257142Y-93402142D02*
X123328571Y-93545000D01*
X123328571Y-93545000D02*
X123471428Y-93616428D01*
X123471428Y-93616428D02*
X123614285Y-93616428D01*
X124328571Y-93616428D02*
X124185714Y-93545000D01*
X124185714Y-93545000D02*
X124114285Y-93473571D01*
X124114285Y-93473571D02*
X124042857Y-93330714D01*
X124042857Y-93330714D02*
X124042857Y-92902142D01*
X124042857Y-92902142D02*
X124114285Y-92759285D01*
X124114285Y-92759285D02*
X124185714Y-92687857D01*
X124185714Y-92687857D02*
X124328571Y-92616428D01*
X124328571Y-92616428D02*
X124542857Y-92616428D01*
X124542857Y-92616428D02*
X124685714Y-92687857D01*
X124685714Y-92687857D02*
X124757143Y-92759285D01*
X124757143Y-92759285D02*
X124828571Y-92902142D01*
X124828571Y-92902142D02*
X124828571Y-93330714D01*
X124828571Y-93330714D02*
X124757143Y-93473571D01*
X124757143Y-93473571D02*
X124685714Y-93545000D01*
X124685714Y-93545000D02*
X124542857Y-93616428D01*
X124542857Y-93616428D02*
X124328571Y-93616428D01*
X126614285Y-93616428D02*
X126614285Y-92616428D01*
X126614285Y-92759285D02*
X126685714Y-92687857D01*
X126685714Y-92687857D02*
X126828571Y-92616428D01*
X126828571Y-92616428D02*
X127042857Y-92616428D01*
X127042857Y-92616428D02*
X127185714Y-92687857D01*
X127185714Y-92687857D02*
X127257143Y-92830714D01*
X127257143Y-92830714D02*
X127257143Y-93616428D01*
X127257143Y-92830714D02*
X127328571Y-92687857D01*
X127328571Y-92687857D02*
X127471428Y-92616428D01*
X127471428Y-92616428D02*
X127685714Y-92616428D01*
X127685714Y-92616428D02*
X127828571Y-92687857D01*
X127828571Y-92687857D02*
X127900000Y-92830714D01*
X127900000Y-92830714D02*
X127900000Y-93616428D01*
X129257143Y-93545000D02*
X129114285Y-93616428D01*
X129114285Y-93616428D02*
X128828571Y-93616428D01*
X128828571Y-93616428D02*
X128685714Y-93545000D01*
X128685714Y-93545000D02*
X128614285Y-93473571D01*
X128614285Y-93473571D02*
X128542857Y-93330714D01*
X128542857Y-93330714D02*
X128542857Y-92902142D01*
X128542857Y-92902142D02*
X128614285Y-92759285D01*
X128614285Y-92759285D02*
X128685714Y-92687857D01*
X128685714Y-92687857D02*
X128828571Y-92616428D01*
X128828571Y-92616428D02*
X129114285Y-92616428D01*
X129114285Y-92616428D02*
X129257143Y-92687857D01*
X130542857Y-92616428D02*
X130542857Y-93616428D01*
X129899999Y-92616428D02*
X129899999Y-93402142D01*
X129899999Y-93402142D02*
X129971428Y-93545000D01*
X129971428Y-93545000D02*
X130114285Y-93616428D01*
X130114285Y-93616428D02*
X130328571Y-93616428D01*
X130328571Y-93616428D02*
X130471428Y-93545000D01*
X130471428Y-93545000D02*
X130542857Y-93473571D01*
X135951854Y-106772670D02*
X135951854Y-105772670D01*
X135951854Y-105772670D02*
X136189949Y-105772670D01*
X136189949Y-105772670D02*
X136332806Y-105820289D01*
X136332806Y-105820289D02*
X136428044Y-105915527D01*
X136428044Y-105915527D02*
X136475663Y-106010765D01*
X136475663Y-106010765D02*
X136523282Y-106201241D01*
X136523282Y-106201241D02*
X136523282Y-106344098D01*
X136523282Y-106344098D02*
X136475663Y-106534574D01*
X136475663Y-106534574D02*
X136428044Y-106629812D01*
X136428044Y-106629812D02*
X136332806Y-106725051D01*
X136332806Y-106725051D02*
X136189949Y-106772670D01*
X136189949Y-106772670D02*
X135951854Y-106772670D01*
X136904235Y-105867908D02*
X136951854Y-105820289D01*
X136951854Y-105820289D02*
X137047092Y-105772670D01*
X137047092Y-105772670D02*
X137285187Y-105772670D01*
X137285187Y-105772670D02*
X137380425Y-105820289D01*
X137380425Y-105820289D02*
X137428044Y-105867908D01*
X137428044Y-105867908D02*
X137475663Y-105963146D01*
X137475663Y-105963146D02*
X137475663Y-106058384D01*
X137475663Y-106058384D02*
X137428044Y-106201241D01*
X137428044Y-106201241D02*
X136856616Y-106772670D01*
X136856616Y-106772670D02*
X137475663Y-106772670D01*
X175951854Y-106772670D02*
X175951854Y-105772670D01*
X175951854Y-105772670D02*
X176189949Y-105772670D01*
X176189949Y-105772670D02*
X176332806Y-105820289D01*
X176332806Y-105820289D02*
X176428044Y-105915527D01*
X176428044Y-105915527D02*
X176475663Y-106010765D01*
X176475663Y-106010765D02*
X176523282Y-106201241D01*
X176523282Y-106201241D02*
X176523282Y-106344098D01*
X176523282Y-106344098D02*
X176475663Y-106534574D01*
X176475663Y-106534574D02*
X176428044Y-106629812D01*
X176428044Y-106629812D02*
X176332806Y-106725051D01*
X176332806Y-106725051D02*
X176189949Y-106772670D01*
X176189949Y-106772670D02*
X175951854Y-106772670D01*
X177380425Y-105772670D02*
X177189949Y-105772670D01*
X177189949Y-105772670D02*
X177094711Y-105820289D01*
X177094711Y-105820289D02*
X177047092Y-105867908D01*
X177047092Y-105867908D02*
X176951854Y-106010765D01*
X176951854Y-106010765D02*
X176904235Y-106201241D01*
X176904235Y-106201241D02*
X176904235Y-106582193D01*
X176904235Y-106582193D02*
X176951854Y-106677431D01*
X176951854Y-106677431D02*
X176999473Y-106725051D01*
X176999473Y-106725051D02*
X177094711Y-106772670D01*
X177094711Y-106772670D02*
X177285187Y-106772670D01*
X177285187Y-106772670D02*
X177380425Y-106725051D01*
X177380425Y-106725051D02*
X177428044Y-106677431D01*
X177428044Y-106677431D02*
X177475663Y-106582193D01*
X177475663Y-106582193D02*
X177475663Y-106344098D01*
X177475663Y-106344098D02*
X177428044Y-106248860D01*
X177428044Y-106248860D02*
X177380425Y-106201241D01*
X177380425Y-106201241D02*
X177285187Y-106153622D01*
X177285187Y-106153622D02*
X177094711Y-106153622D01*
X177094711Y-106153622D02*
X176999473Y-106201241D01*
X176999473Y-106201241D02*
X176951854Y-106248860D01*
X176951854Y-106248860D02*
X176904235Y-106344098D01*
X145951854Y-106772670D02*
X145951854Y-105772670D01*
X145951854Y-105772670D02*
X146189949Y-105772670D01*
X146189949Y-105772670D02*
X146332806Y-105820289D01*
X146332806Y-105820289D02*
X146428044Y-105915527D01*
X146428044Y-105915527D02*
X146475663Y-106010765D01*
X146475663Y-106010765D02*
X146523282Y-106201241D01*
X146523282Y-106201241D02*
X146523282Y-106344098D01*
X146523282Y-106344098D02*
X146475663Y-106534574D01*
X146475663Y-106534574D02*
X146428044Y-106629812D01*
X146428044Y-106629812D02*
X146332806Y-106725051D01*
X146332806Y-106725051D02*
X146189949Y-106772670D01*
X146189949Y-106772670D02*
X145951854Y-106772670D01*
X146856616Y-105772670D02*
X147475663Y-105772670D01*
X147475663Y-105772670D02*
X147142330Y-106153622D01*
X147142330Y-106153622D02*
X147285187Y-106153622D01*
X147285187Y-106153622D02*
X147380425Y-106201241D01*
X147380425Y-106201241D02*
X147428044Y-106248860D01*
X147428044Y-106248860D02*
X147475663Y-106344098D01*
X147475663Y-106344098D02*
X147475663Y-106582193D01*
X147475663Y-106582193D02*
X147428044Y-106677431D01*
X147428044Y-106677431D02*
X147380425Y-106725051D01*
X147380425Y-106725051D02*
X147285187Y-106772670D01*
X147285187Y-106772670D02*
X146999473Y-106772670D01*
X146999473Y-106772670D02*
X146904235Y-106725051D01*
X146904235Y-106725051D02*
X146856616Y-106677431D01*
X166242857Y-90536428D02*
X166814285Y-90536428D01*
X166457142Y-90036428D02*
X166457142Y-91322142D01*
X166457142Y-91322142D02*
X166528571Y-91465000D01*
X166528571Y-91465000D02*
X166671428Y-91536428D01*
X166671428Y-91536428D02*
X166814285Y-91536428D01*
X167528571Y-91536428D02*
X167385714Y-91465000D01*
X167385714Y-91465000D02*
X167314285Y-91393571D01*
X167314285Y-91393571D02*
X167242857Y-91250714D01*
X167242857Y-91250714D02*
X167242857Y-90822142D01*
X167242857Y-90822142D02*
X167314285Y-90679285D01*
X167314285Y-90679285D02*
X167385714Y-90607857D01*
X167385714Y-90607857D02*
X167528571Y-90536428D01*
X167528571Y-90536428D02*
X167742857Y-90536428D01*
X167742857Y-90536428D02*
X167885714Y-90607857D01*
X167885714Y-90607857D02*
X167957143Y-90679285D01*
X167957143Y-90679285D02*
X168028571Y-90822142D01*
X168028571Y-90822142D02*
X168028571Y-91250714D01*
X168028571Y-91250714D02*
X167957143Y-91393571D01*
X167957143Y-91393571D02*
X167885714Y-91465000D01*
X167885714Y-91465000D02*
X167742857Y-91536428D01*
X167742857Y-91536428D02*
X167528571Y-91536428D01*
X169814285Y-90536428D02*
X169814285Y-91536428D01*
X169814285Y-90679285D02*
X169885714Y-90607857D01*
X169885714Y-90607857D02*
X170028571Y-90536428D01*
X170028571Y-90536428D02*
X170242857Y-90536428D01*
X170242857Y-90536428D02*
X170385714Y-90607857D01*
X170385714Y-90607857D02*
X170457143Y-90750714D01*
X170457143Y-90750714D02*
X170457143Y-91536428D01*
X171742857Y-91465000D02*
X171600000Y-91536428D01*
X171600000Y-91536428D02*
X171314286Y-91536428D01*
X171314286Y-91536428D02*
X171171428Y-91465000D01*
X171171428Y-91465000D02*
X171100000Y-91322142D01*
X171100000Y-91322142D02*
X171100000Y-90750714D01*
X171100000Y-90750714D02*
X171171428Y-90607857D01*
X171171428Y-90607857D02*
X171314286Y-90536428D01*
X171314286Y-90536428D02*
X171600000Y-90536428D01*
X171600000Y-90536428D02*
X171742857Y-90607857D01*
X171742857Y-90607857D02*
X171814286Y-90750714D01*
X171814286Y-90750714D02*
X171814286Y-90893571D01*
X171814286Y-90893571D02*
X171100000Y-91036428D01*
X172314285Y-91536428D02*
X173100000Y-90536428D01*
X172314285Y-90536428D02*
X173100000Y-91536428D01*
X173457143Y-90536428D02*
X174028571Y-90536428D01*
X173671428Y-90036428D02*
X173671428Y-91322142D01*
X173671428Y-91322142D02*
X173742857Y-91465000D01*
X173742857Y-91465000D02*
X173885714Y-91536428D01*
X173885714Y-91536428D02*
X174028571Y-91536428D01*
X166457142Y-93966428D02*
X166457142Y-92466428D01*
X166457142Y-93037857D02*
X166600000Y-92966428D01*
X166600000Y-92966428D02*
X166885714Y-92966428D01*
X166885714Y-92966428D02*
X167028571Y-93037857D01*
X167028571Y-93037857D02*
X167100000Y-93109285D01*
X167100000Y-93109285D02*
X167171428Y-93252142D01*
X167171428Y-93252142D02*
X167171428Y-93680714D01*
X167171428Y-93680714D02*
X167100000Y-93823571D01*
X167100000Y-93823571D02*
X167028571Y-93895000D01*
X167028571Y-93895000D02*
X166885714Y-93966428D01*
X166885714Y-93966428D02*
X166600000Y-93966428D01*
X166600000Y-93966428D02*
X166457142Y-93895000D01*
X168028571Y-93966428D02*
X167885714Y-93895000D01*
X167885714Y-93895000D02*
X167814285Y-93823571D01*
X167814285Y-93823571D02*
X167742857Y-93680714D01*
X167742857Y-93680714D02*
X167742857Y-93252142D01*
X167742857Y-93252142D02*
X167814285Y-93109285D01*
X167814285Y-93109285D02*
X167885714Y-93037857D01*
X167885714Y-93037857D02*
X168028571Y-92966428D01*
X168028571Y-92966428D02*
X168242857Y-92966428D01*
X168242857Y-92966428D02*
X168385714Y-93037857D01*
X168385714Y-93037857D02*
X168457143Y-93109285D01*
X168457143Y-93109285D02*
X168528571Y-93252142D01*
X168528571Y-93252142D02*
X168528571Y-93680714D01*
X168528571Y-93680714D02*
X168457143Y-93823571D01*
X168457143Y-93823571D02*
X168385714Y-93895000D01*
X168385714Y-93895000D02*
X168242857Y-93966428D01*
X168242857Y-93966428D02*
X168028571Y-93966428D01*
X169814286Y-93966428D02*
X169814286Y-93180714D01*
X169814286Y-93180714D02*
X169742857Y-93037857D01*
X169742857Y-93037857D02*
X169600000Y-92966428D01*
X169600000Y-92966428D02*
X169314286Y-92966428D01*
X169314286Y-92966428D02*
X169171428Y-93037857D01*
X169814286Y-93895000D02*
X169671428Y-93966428D01*
X169671428Y-93966428D02*
X169314286Y-93966428D01*
X169314286Y-93966428D02*
X169171428Y-93895000D01*
X169171428Y-93895000D02*
X169100000Y-93752142D01*
X169100000Y-93752142D02*
X169100000Y-93609285D01*
X169100000Y-93609285D02*
X169171428Y-93466428D01*
X169171428Y-93466428D02*
X169314286Y-93395000D01*
X169314286Y-93395000D02*
X169671428Y-93395000D01*
X169671428Y-93395000D02*
X169814286Y-93323571D01*
X170528571Y-93966428D02*
X170528571Y-92966428D01*
X170528571Y-93252142D02*
X170600000Y-93109285D01*
X170600000Y-93109285D02*
X170671429Y-93037857D01*
X170671429Y-93037857D02*
X170814286Y-92966428D01*
X170814286Y-92966428D02*
X170957143Y-92966428D01*
X172100000Y-93966428D02*
X172100000Y-92466428D01*
X172100000Y-93895000D02*
X171957142Y-93966428D01*
X171957142Y-93966428D02*
X171671428Y-93966428D01*
X171671428Y-93966428D02*
X171528571Y-93895000D01*
X171528571Y-93895000D02*
X171457142Y-93823571D01*
X171457142Y-93823571D02*
X171385714Y-93680714D01*
X171385714Y-93680714D02*
X171385714Y-93252142D01*
X171385714Y-93252142D02*
X171457142Y-93109285D01*
X171457142Y-93109285D02*
X171528571Y-93037857D01*
X171528571Y-93037857D02*
X171671428Y-92966428D01*
X171671428Y-92966428D02*
X171957142Y-92966428D01*
X171957142Y-92966428D02*
X172100000Y-93037857D01*
X111179710Y-92738622D02*
X111227329Y-92667194D01*
X111227329Y-92667194D02*
X111227329Y-92560051D01*
X111227329Y-92560051D02*
X111179710Y-92452908D01*
X111179710Y-92452908D02*
X111084472Y-92381479D01*
X111084472Y-92381479D02*
X110989234Y-92345765D01*
X110989234Y-92345765D02*
X110798758Y-92310051D01*
X110798758Y-92310051D02*
X110655901Y-92310051D01*
X110655901Y-92310051D02*
X110465425Y-92345765D01*
X110465425Y-92345765D02*
X110370187Y-92381479D01*
X110370187Y-92381479D02*
X110274949Y-92452908D01*
X110274949Y-92452908D02*
X110227329Y-92560051D01*
X110227329Y-92560051D02*
X110227329Y-92631479D01*
X110227329Y-92631479D02*
X110274949Y-92738622D01*
X110274949Y-92738622D02*
X110322568Y-92774336D01*
X110322568Y-92774336D02*
X110655901Y-92774336D01*
X110655901Y-92774336D02*
X110655901Y-92631479D01*
X110227329Y-93095765D02*
X111227329Y-93095765D01*
X111227329Y-93095765D02*
X110227329Y-93524336D01*
X110227329Y-93524336D02*
X111227329Y-93524336D01*
X110227329Y-93881479D02*
X111227329Y-93881479D01*
X111227329Y-93881479D02*
X111227329Y-94060050D01*
X111227329Y-94060050D02*
X111179710Y-94167193D01*
X111179710Y-94167193D02*
X111084472Y-94238622D01*
X111084472Y-94238622D02*
X110989234Y-94274336D01*
X110989234Y-94274336D02*
X110798758Y-94310050D01*
X110798758Y-94310050D02*
X110655901Y-94310050D01*
X110655901Y-94310050D02*
X110465425Y-94274336D01*
X110465425Y-94274336D02*
X110370187Y-94238622D01*
X110370187Y-94238622D02*
X110274949Y-94167193D01*
X110274949Y-94167193D02*
X110227329Y-94060050D01*
X110227329Y-94060050D02*
X110227329Y-93881479D01*
X187652568Y-91810050D02*
X188652568Y-91560050D01*
X188652568Y-91560050D02*
X187652568Y-91310050D01*
X188557329Y-90631479D02*
X188604949Y-90667193D01*
X188604949Y-90667193D02*
X188652568Y-90774336D01*
X188652568Y-90774336D02*
X188652568Y-90845764D01*
X188652568Y-90845764D02*
X188604949Y-90952907D01*
X188604949Y-90952907D02*
X188509710Y-91024336D01*
X188509710Y-91024336D02*
X188414472Y-91060050D01*
X188414472Y-91060050D02*
X188223996Y-91095764D01*
X188223996Y-91095764D02*
X188081139Y-91095764D01*
X188081139Y-91095764D02*
X187890663Y-91060050D01*
X187890663Y-91060050D02*
X187795425Y-91024336D01*
X187795425Y-91024336D02*
X187700187Y-90952907D01*
X187700187Y-90952907D02*
X187652568Y-90845764D01*
X187652568Y-90845764D02*
X187652568Y-90774336D01*
X187652568Y-90774336D02*
X187700187Y-90667193D01*
X187700187Y-90667193D02*
X187747806Y-90631479D01*
X188557329Y-89881479D02*
X188604949Y-89917193D01*
X188604949Y-89917193D02*
X188652568Y-90024336D01*
X188652568Y-90024336D02*
X188652568Y-90095764D01*
X188652568Y-90095764D02*
X188604949Y-90202907D01*
X188604949Y-90202907D02*
X188509710Y-90274336D01*
X188509710Y-90274336D02*
X188414472Y-90310050D01*
X188414472Y-90310050D02*
X188223996Y-90345764D01*
X188223996Y-90345764D02*
X188081139Y-90345764D01*
X188081139Y-90345764D02*
X187890663Y-90310050D01*
X187890663Y-90310050D02*
X187795425Y-90274336D01*
X187795425Y-90274336D02*
X187700187Y-90202907D01*
X187700187Y-90202907D02*
X187652568Y-90095764D01*
X187652568Y-90095764D02*
X187652568Y-90024336D01*
X187652568Y-90024336D02*
X187700187Y-89917193D01*
X187700187Y-89917193D02*
X187747806Y-89881479D01*
X111227329Y-89810051D02*
X110227329Y-90060051D01*
X110227329Y-90060051D02*
X111227329Y-90310051D01*
X110322568Y-90988622D02*
X110274949Y-90952908D01*
X110274949Y-90952908D02*
X110227329Y-90845765D01*
X110227329Y-90845765D02*
X110227329Y-90774337D01*
X110227329Y-90774337D02*
X110274949Y-90667194D01*
X110274949Y-90667194D02*
X110370187Y-90595765D01*
X110370187Y-90595765D02*
X110465425Y-90560051D01*
X110465425Y-90560051D02*
X110655901Y-90524337D01*
X110655901Y-90524337D02*
X110798758Y-90524337D01*
X110798758Y-90524337D02*
X110989234Y-90560051D01*
X110989234Y-90560051D02*
X111084472Y-90595765D01*
X111084472Y-90595765D02*
X111179710Y-90667194D01*
X111179710Y-90667194D02*
X111227329Y-90774337D01*
X111227329Y-90774337D02*
X111227329Y-90845765D01*
X111227329Y-90845765D02*
X111179710Y-90952908D01*
X111179710Y-90952908D02*
X111132091Y-90988622D01*
X110322568Y-91738622D02*
X110274949Y-91702908D01*
X110274949Y-91702908D02*
X110227329Y-91595765D01*
X110227329Y-91595765D02*
X110227329Y-91524337D01*
X110227329Y-91524337D02*
X110274949Y-91417194D01*
X110274949Y-91417194D02*
X110370187Y-91345765D01*
X110370187Y-91345765D02*
X110465425Y-91310051D01*
X110465425Y-91310051D02*
X110655901Y-91274337D01*
X110655901Y-91274337D02*
X110798758Y-91274337D01*
X110798758Y-91274337D02*
X110989234Y-91310051D01*
X110989234Y-91310051D02*
X111084472Y-91345765D01*
X111084472Y-91345765D02*
X111179710Y-91417194D01*
X111179710Y-91417194D02*
X111227329Y-91524337D01*
X111227329Y-91524337D02*
X111227329Y-91595765D01*
X111227329Y-91595765D02*
X111179710Y-91702908D01*
X111179710Y-91702908D02*
X111132091Y-91738622D01*
X115951854Y-106772670D02*
X115951854Y-105772670D01*
X115951854Y-105772670D02*
X116189949Y-105772670D01*
X116189949Y-105772670D02*
X116332806Y-105820289D01*
X116332806Y-105820289D02*
X116428044Y-105915527D01*
X116428044Y-105915527D02*
X116475663Y-106010765D01*
X116475663Y-106010765D02*
X116523282Y-106201241D01*
X116523282Y-106201241D02*
X116523282Y-106344098D01*
X116523282Y-106344098D02*
X116475663Y-106534574D01*
X116475663Y-106534574D02*
X116428044Y-106629812D01*
X116428044Y-106629812D02*
X116332806Y-106725051D01*
X116332806Y-106725051D02*
X116189949Y-106772670D01*
X116189949Y-106772670D02*
X115951854Y-106772670D01*
X117142330Y-105772670D02*
X117237568Y-105772670D01*
X117237568Y-105772670D02*
X117332806Y-105820289D01*
X117332806Y-105820289D02*
X117380425Y-105867908D01*
X117380425Y-105867908D02*
X117428044Y-105963146D01*
X117428044Y-105963146D02*
X117475663Y-106153622D01*
X117475663Y-106153622D02*
X117475663Y-106391717D01*
X117475663Y-106391717D02*
X117428044Y-106582193D01*
X117428044Y-106582193D02*
X117380425Y-106677431D01*
X117380425Y-106677431D02*
X117332806Y-106725051D01*
X117332806Y-106725051D02*
X117237568Y-106772670D01*
X117237568Y-106772670D02*
X117142330Y-106772670D01*
X117142330Y-106772670D02*
X117047092Y-106725051D01*
X117047092Y-106725051D02*
X116999473Y-106677431D01*
X116999473Y-106677431D02*
X116951854Y-106582193D01*
X116951854Y-106582193D02*
X116904235Y-106391717D01*
X116904235Y-106391717D02*
X116904235Y-106153622D01*
X116904235Y-106153622D02*
X116951854Y-105963146D01*
X116951854Y-105963146D02*
X116999473Y-105867908D01*
X116999473Y-105867908D02*
X117047092Y-105820289D01*
X117047092Y-105820289D02*
X117142330Y-105772670D01*
X125951854Y-106772670D02*
X125951854Y-105772670D01*
X125951854Y-105772670D02*
X126189949Y-105772670D01*
X126189949Y-105772670D02*
X126332806Y-105820289D01*
X126332806Y-105820289D02*
X126428044Y-105915527D01*
X126428044Y-105915527D02*
X126475663Y-106010765D01*
X126475663Y-106010765D02*
X126523282Y-106201241D01*
X126523282Y-106201241D02*
X126523282Y-106344098D01*
X126523282Y-106344098D02*
X126475663Y-106534574D01*
X126475663Y-106534574D02*
X126428044Y-106629812D01*
X126428044Y-106629812D02*
X126332806Y-106725051D01*
X126332806Y-106725051D02*
X126189949Y-106772670D01*
X126189949Y-106772670D02*
X125951854Y-106772670D01*
X127475663Y-106772670D02*
X126904235Y-106772670D01*
X127189949Y-106772670D02*
X127189949Y-105772670D01*
X127189949Y-105772670D02*
X127094711Y-105915527D01*
X127094711Y-105915527D02*
X126999473Y-106010765D01*
X126999473Y-106010765D02*
X126904235Y-106058384D01*
X142428044Y-105820289D02*
X142332806Y-105772670D01*
X142332806Y-105772670D02*
X142189949Y-105772670D01*
X142189949Y-105772670D02*
X142047092Y-105820289D01*
X142047092Y-105820289D02*
X141951854Y-105915527D01*
X141951854Y-105915527D02*
X141904235Y-106010765D01*
X141904235Y-106010765D02*
X141856616Y-106201241D01*
X141856616Y-106201241D02*
X141856616Y-106344098D01*
X141856616Y-106344098D02*
X141904235Y-106534574D01*
X141904235Y-106534574D02*
X141951854Y-106629812D01*
X141951854Y-106629812D02*
X142047092Y-106725051D01*
X142047092Y-106725051D02*
X142189949Y-106772670D01*
X142189949Y-106772670D02*
X142285187Y-106772670D01*
X142285187Y-106772670D02*
X142428044Y-106725051D01*
X142428044Y-106725051D02*
X142475663Y-106677431D01*
X142475663Y-106677431D02*
X142475663Y-106344098D01*
X142475663Y-106344098D02*
X142285187Y-106344098D01*
X142904235Y-106772670D02*
X142904235Y-105772670D01*
X142904235Y-105772670D02*
X143475663Y-106772670D01*
X143475663Y-106772670D02*
X143475663Y-105772670D01*
X143951854Y-106772670D02*
X143951854Y-105772670D01*
X143951854Y-105772670D02*
X144189949Y-105772670D01*
X144189949Y-105772670D02*
X144332806Y-105820289D01*
X144332806Y-105820289D02*
X144428044Y-105915527D01*
X144428044Y-105915527D02*
X144475663Y-106010765D01*
X144475663Y-106010765D02*
X144523282Y-106201241D01*
X144523282Y-106201241D02*
X144523282Y-106344098D01*
X144523282Y-106344098D02*
X144475663Y-106534574D01*
X144475663Y-106534574D02*
X144428044Y-106629812D01*
X144428044Y-106629812D02*
X144332806Y-106725051D01*
X144332806Y-106725051D02*
X144189949Y-106772670D01*
X144189949Y-106772670D02*
X143951854Y-106772670D01*
X152428044Y-105820289D02*
X152332806Y-105772670D01*
X152332806Y-105772670D02*
X152189949Y-105772670D01*
X152189949Y-105772670D02*
X152047092Y-105820289D01*
X152047092Y-105820289D02*
X151951854Y-105915527D01*
X151951854Y-105915527D02*
X151904235Y-106010765D01*
X151904235Y-106010765D02*
X151856616Y-106201241D01*
X151856616Y-106201241D02*
X151856616Y-106344098D01*
X151856616Y-106344098D02*
X151904235Y-106534574D01*
X151904235Y-106534574D02*
X151951854Y-106629812D01*
X151951854Y-106629812D02*
X152047092Y-106725051D01*
X152047092Y-106725051D02*
X152189949Y-106772670D01*
X152189949Y-106772670D02*
X152285187Y-106772670D01*
X152285187Y-106772670D02*
X152428044Y-106725051D01*
X152428044Y-106725051D02*
X152475663Y-106677431D01*
X152475663Y-106677431D02*
X152475663Y-106344098D01*
X152475663Y-106344098D02*
X152285187Y-106344098D01*
X152904235Y-106772670D02*
X152904235Y-105772670D01*
X152904235Y-105772670D02*
X153475663Y-106772670D01*
X153475663Y-106772670D02*
X153475663Y-105772670D01*
X153951854Y-106772670D02*
X153951854Y-105772670D01*
X153951854Y-105772670D02*
X154189949Y-105772670D01*
X154189949Y-105772670D02*
X154332806Y-105820289D01*
X154332806Y-105820289D02*
X154428044Y-105915527D01*
X154428044Y-105915527D02*
X154475663Y-106010765D01*
X154475663Y-106010765D02*
X154523282Y-106201241D01*
X154523282Y-106201241D02*
X154523282Y-106344098D01*
X154523282Y-106344098D02*
X154475663Y-106534574D01*
X154475663Y-106534574D02*
X154428044Y-106629812D01*
X154428044Y-106629812D02*
X154332806Y-106725051D01*
X154332806Y-106725051D02*
X154189949Y-106772670D01*
X154189949Y-106772670D02*
X153951854Y-106772670D01*
D11*
X164071428Y-83386428D02*
X163928571Y-83315000D01*
X163928571Y-83315000D02*
X163857142Y-83243571D01*
X163857142Y-83243571D02*
X163785714Y-83100714D01*
X163785714Y-83100714D02*
X163785714Y-82672142D01*
X163785714Y-82672142D02*
X163857142Y-82529285D01*
X163857142Y-82529285D02*
X163928571Y-82457857D01*
X163928571Y-82457857D02*
X164071428Y-82386428D01*
X164071428Y-82386428D02*
X164285714Y-82386428D01*
X164285714Y-82386428D02*
X164428571Y-82457857D01*
X164428571Y-82457857D02*
X164500000Y-82529285D01*
X164500000Y-82529285D02*
X164571428Y-82672142D01*
X164571428Y-82672142D02*
X164571428Y-83100714D01*
X164571428Y-83100714D02*
X164500000Y-83243571D01*
X164500000Y-83243571D02*
X164428571Y-83315000D01*
X164428571Y-83315000D02*
X164285714Y-83386428D01*
X164285714Y-83386428D02*
X164071428Y-83386428D01*
X165857143Y-83386428D02*
X165857143Y-81886428D01*
X165857143Y-83315000D02*
X165714285Y-83386428D01*
X165714285Y-83386428D02*
X165428571Y-83386428D01*
X165428571Y-83386428D02*
X165285714Y-83315000D01*
X165285714Y-83315000D02*
X165214285Y-83243571D01*
X165214285Y-83243571D02*
X165142857Y-83100714D01*
X165142857Y-83100714D02*
X165142857Y-82672142D01*
X165142857Y-82672142D02*
X165214285Y-82529285D01*
X165214285Y-82529285D02*
X165285714Y-82457857D01*
X165285714Y-82457857D02*
X165428571Y-82386428D01*
X165428571Y-82386428D02*
X165714285Y-82386428D01*
X165714285Y-82386428D02*
X165857143Y-82457857D01*
X167214286Y-83386428D02*
X167214286Y-81886428D01*
X167214286Y-83315000D02*
X167071428Y-83386428D01*
X167071428Y-83386428D02*
X166785714Y-83386428D01*
X166785714Y-83386428D02*
X166642857Y-83315000D01*
X166642857Y-83315000D02*
X166571428Y-83243571D01*
X166571428Y-83243571D02*
X166500000Y-83100714D01*
X166500000Y-83100714D02*
X166500000Y-82672142D01*
X166500000Y-82672142D02*
X166571428Y-82529285D01*
X166571428Y-82529285D02*
X166642857Y-82457857D01*
X166642857Y-82457857D02*
X166785714Y-82386428D01*
X166785714Y-82386428D02*
X167071428Y-82386428D01*
X167071428Y-82386428D02*
X167214286Y-82457857D01*
X169071428Y-83386428D02*
X169071428Y-82386428D01*
X169071428Y-82672142D02*
X169142857Y-82529285D01*
X169142857Y-82529285D02*
X169214286Y-82457857D01*
X169214286Y-82457857D02*
X169357143Y-82386428D01*
X169357143Y-82386428D02*
X169500000Y-82386428D01*
X170571428Y-83315000D02*
X170428571Y-83386428D01*
X170428571Y-83386428D02*
X170142857Y-83386428D01*
X170142857Y-83386428D02*
X169999999Y-83315000D01*
X169999999Y-83315000D02*
X169928571Y-83172142D01*
X169928571Y-83172142D02*
X169928571Y-82600714D01*
X169928571Y-82600714D02*
X169999999Y-82457857D01*
X169999999Y-82457857D02*
X170142857Y-82386428D01*
X170142857Y-82386428D02*
X170428571Y-82386428D01*
X170428571Y-82386428D02*
X170571428Y-82457857D01*
X170571428Y-82457857D02*
X170642857Y-82600714D01*
X170642857Y-82600714D02*
X170642857Y-82743571D01*
X170642857Y-82743571D02*
X169928571Y-82886428D01*
X171214285Y-83315000D02*
X171357142Y-83386428D01*
X171357142Y-83386428D02*
X171642856Y-83386428D01*
X171642856Y-83386428D02*
X171785713Y-83315000D01*
X171785713Y-83315000D02*
X171857142Y-83172142D01*
X171857142Y-83172142D02*
X171857142Y-83100714D01*
X171857142Y-83100714D02*
X171785713Y-82957857D01*
X171785713Y-82957857D02*
X171642856Y-82886428D01*
X171642856Y-82886428D02*
X171428571Y-82886428D01*
X171428571Y-82886428D02*
X171285713Y-82815000D01*
X171285713Y-82815000D02*
X171214285Y-82672142D01*
X171214285Y-82672142D02*
X171214285Y-82600714D01*
X171214285Y-82600714D02*
X171285713Y-82457857D01*
X171285713Y-82457857D02*
X171428571Y-82386428D01*
X171428571Y-82386428D02*
X171642856Y-82386428D01*
X171642856Y-82386428D02*
X171785713Y-82457857D01*
X172499999Y-83386428D02*
X172499999Y-82386428D01*
X172499999Y-81886428D02*
X172428571Y-81957857D01*
X172428571Y-81957857D02*
X172499999Y-82029285D01*
X172499999Y-82029285D02*
X172571428Y-81957857D01*
X172571428Y-81957857D02*
X172499999Y-81886428D01*
X172499999Y-81886428D02*
X172499999Y-82029285D01*
X173142857Y-83315000D02*
X173285714Y-83386428D01*
X173285714Y-83386428D02*
X173571428Y-83386428D01*
X173571428Y-83386428D02*
X173714285Y-83315000D01*
X173714285Y-83315000D02*
X173785714Y-83172142D01*
X173785714Y-83172142D02*
X173785714Y-83100714D01*
X173785714Y-83100714D02*
X173714285Y-82957857D01*
X173714285Y-82957857D02*
X173571428Y-82886428D01*
X173571428Y-82886428D02*
X173357143Y-82886428D01*
X173357143Y-82886428D02*
X173214285Y-82815000D01*
X173214285Y-82815000D02*
X173142857Y-82672142D01*
X173142857Y-82672142D02*
X173142857Y-82600714D01*
X173142857Y-82600714D02*
X173214285Y-82457857D01*
X173214285Y-82457857D02*
X173357143Y-82386428D01*
X173357143Y-82386428D02*
X173571428Y-82386428D01*
X173571428Y-82386428D02*
X173714285Y-82457857D01*
X174214286Y-82386428D02*
X174785714Y-82386428D01*
X174428571Y-81886428D02*
X174428571Y-83172142D01*
X174428571Y-83172142D02*
X174500000Y-83315000D01*
X174500000Y-83315000D02*
X174642857Y-83386428D01*
X174642857Y-83386428D02*
X174785714Y-83386428D01*
X175500000Y-83386428D02*
X175357143Y-83315000D01*
X175357143Y-83315000D02*
X175285714Y-83243571D01*
X175285714Y-83243571D02*
X175214286Y-83100714D01*
X175214286Y-83100714D02*
X175214286Y-82672142D01*
X175214286Y-82672142D02*
X175285714Y-82529285D01*
X175285714Y-82529285D02*
X175357143Y-82457857D01*
X175357143Y-82457857D02*
X175500000Y-82386428D01*
X175500000Y-82386428D02*
X175714286Y-82386428D01*
X175714286Y-82386428D02*
X175857143Y-82457857D01*
X175857143Y-82457857D02*
X175928572Y-82529285D01*
X175928572Y-82529285D02*
X176000000Y-82672142D01*
X176000000Y-82672142D02*
X176000000Y-83100714D01*
X176000000Y-83100714D02*
X175928572Y-83243571D01*
X175928572Y-83243571D02*
X175857143Y-83315000D01*
X175857143Y-83315000D02*
X175714286Y-83386428D01*
X175714286Y-83386428D02*
X175500000Y-83386428D01*
X176642857Y-83386428D02*
X176642857Y-82386428D01*
X176642857Y-82672142D02*
X176714286Y-82529285D01*
X176714286Y-82529285D02*
X176785715Y-82457857D01*
X176785715Y-82457857D02*
X176928572Y-82386428D01*
X176928572Y-82386428D02*
X177071429Y-82386428D01*
X177500000Y-83315000D02*
X177642857Y-83386428D01*
X177642857Y-83386428D02*
X177928571Y-83386428D01*
X177928571Y-83386428D02*
X178071428Y-83315000D01*
X178071428Y-83315000D02*
X178142857Y-83172142D01*
X178142857Y-83172142D02*
X178142857Y-83100714D01*
X178142857Y-83100714D02*
X178071428Y-82957857D01*
X178071428Y-82957857D02*
X177928571Y-82886428D01*
X177928571Y-82886428D02*
X177714286Y-82886428D01*
X177714286Y-82886428D02*
X177571428Y-82815000D01*
X177571428Y-82815000D02*
X177500000Y-82672142D01*
X177500000Y-82672142D02*
X177500000Y-82600714D01*
X177500000Y-82600714D02*
X177571428Y-82457857D01*
X177571428Y-82457857D02*
X177714286Y-82386428D01*
X177714286Y-82386428D02*
X177928571Y-82386428D01*
X177928571Y-82386428D02*
X178071428Y-82457857D01*
X164500000Y-85816428D02*
X164500000Y-85030714D01*
X164500000Y-85030714D02*
X164428571Y-84887857D01*
X164428571Y-84887857D02*
X164285714Y-84816428D01*
X164285714Y-84816428D02*
X164000000Y-84816428D01*
X164000000Y-84816428D02*
X163857142Y-84887857D01*
X164500000Y-85745000D02*
X164357142Y-85816428D01*
X164357142Y-85816428D02*
X164000000Y-85816428D01*
X164000000Y-85816428D02*
X163857142Y-85745000D01*
X163857142Y-85745000D02*
X163785714Y-85602142D01*
X163785714Y-85602142D02*
X163785714Y-85459285D01*
X163785714Y-85459285D02*
X163857142Y-85316428D01*
X163857142Y-85316428D02*
X164000000Y-85245000D01*
X164000000Y-85245000D02*
X164357142Y-85245000D01*
X164357142Y-85245000D02*
X164500000Y-85173571D01*
X165214285Y-85816428D02*
X165214285Y-84816428D01*
X165214285Y-85102142D02*
X165285714Y-84959285D01*
X165285714Y-84959285D02*
X165357143Y-84887857D01*
X165357143Y-84887857D02*
X165500000Y-84816428D01*
X165500000Y-84816428D02*
X165642857Y-84816428D01*
X166714285Y-85745000D02*
X166571428Y-85816428D01*
X166571428Y-85816428D02*
X166285714Y-85816428D01*
X166285714Y-85816428D02*
X166142856Y-85745000D01*
X166142856Y-85745000D02*
X166071428Y-85602142D01*
X166071428Y-85602142D02*
X166071428Y-85030714D01*
X166071428Y-85030714D02*
X166142856Y-84887857D01*
X166142856Y-84887857D02*
X166285714Y-84816428D01*
X166285714Y-84816428D02*
X166571428Y-84816428D01*
X166571428Y-84816428D02*
X166714285Y-84887857D01*
X166714285Y-84887857D02*
X166785714Y-85030714D01*
X166785714Y-85030714D02*
X166785714Y-85173571D01*
X166785714Y-85173571D02*
X166071428Y-85316428D01*
X168571427Y-84816428D02*
X168571427Y-86316428D01*
X168571427Y-84887857D02*
X168714285Y-84816428D01*
X168714285Y-84816428D02*
X168999999Y-84816428D01*
X168999999Y-84816428D02*
X169142856Y-84887857D01*
X169142856Y-84887857D02*
X169214285Y-84959285D01*
X169214285Y-84959285D02*
X169285713Y-85102142D01*
X169285713Y-85102142D02*
X169285713Y-85530714D01*
X169285713Y-85530714D02*
X169214285Y-85673571D01*
X169214285Y-85673571D02*
X169142856Y-85745000D01*
X169142856Y-85745000D02*
X168999999Y-85816428D01*
X168999999Y-85816428D02*
X168714285Y-85816428D01*
X168714285Y-85816428D02*
X168571427Y-85745000D01*
X170571428Y-84816428D02*
X170571428Y-85816428D01*
X169928570Y-84816428D02*
X169928570Y-85602142D01*
X169928570Y-85602142D02*
X169999999Y-85745000D01*
X169999999Y-85745000D02*
X170142856Y-85816428D01*
X170142856Y-85816428D02*
X170357142Y-85816428D01*
X170357142Y-85816428D02*
X170499999Y-85745000D01*
X170499999Y-85745000D02*
X170571428Y-85673571D01*
X171499999Y-85816428D02*
X171357142Y-85745000D01*
X171357142Y-85745000D02*
X171285713Y-85602142D01*
X171285713Y-85602142D02*
X171285713Y-84316428D01*
X172285713Y-85816428D02*
X172142856Y-85745000D01*
X172142856Y-85745000D02*
X172071427Y-85602142D01*
X172071427Y-85602142D02*
X172071427Y-84316428D01*
X172857141Y-85245000D02*
X173999999Y-85245000D01*
X175357142Y-84816428D02*
X175357142Y-85816428D01*
X174714284Y-84816428D02*
X174714284Y-85602142D01*
X174714284Y-85602142D02*
X174785713Y-85745000D01*
X174785713Y-85745000D02*
X174928570Y-85816428D01*
X174928570Y-85816428D02*
X175142856Y-85816428D01*
X175142856Y-85816428D02*
X175285713Y-85745000D01*
X175285713Y-85745000D02*
X175357142Y-85673571D01*
X176071427Y-84816428D02*
X176071427Y-86316428D01*
X176071427Y-84887857D02*
X176214285Y-84816428D01*
X176214285Y-84816428D02*
X176499999Y-84816428D01*
X176499999Y-84816428D02*
X176642856Y-84887857D01*
X176642856Y-84887857D02*
X176714285Y-84959285D01*
X176714285Y-84959285D02*
X176785713Y-85102142D01*
X176785713Y-85102142D02*
X176785713Y-85530714D01*
X176785713Y-85530714D02*
X176714285Y-85673571D01*
X176714285Y-85673571D02*
X176642856Y-85745000D01*
X176642856Y-85745000D02*
X176499999Y-85816428D01*
X176499999Y-85816428D02*
X176214285Y-85816428D01*
X176214285Y-85816428D02*
X176071427Y-85745000D01*
X177357142Y-85745000D02*
X177499999Y-85816428D01*
X177499999Y-85816428D02*
X177785713Y-85816428D01*
X177785713Y-85816428D02*
X177928570Y-85745000D01*
X177928570Y-85745000D02*
X177999999Y-85602142D01*
X177999999Y-85602142D02*
X177999999Y-85530714D01*
X177999999Y-85530714D02*
X177928570Y-85387857D01*
X177928570Y-85387857D02*
X177785713Y-85316428D01*
X177785713Y-85316428D02*
X177571428Y-85316428D01*
X177571428Y-85316428D02*
X177428570Y-85245000D01*
X177428570Y-85245000D02*
X177357142Y-85102142D01*
X177357142Y-85102142D02*
X177357142Y-85030714D01*
X177357142Y-85030714D02*
X177428570Y-84887857D01*
X177428570Y-84887857D02*
X177571428Y-84816428D01*
X177571428Y-84816428D02*
X177785713Y-84816428D01*
X177785713Y-84816428D02*
X177928570Y-84887857D01*
D10*
X162428044Y-105820289D02*
X162332806Y-105772670D01*
X162332806Y-105772670D02*
X162189949Y-105772670D01*
X162189949Y-105772670D02*
X162047092Y-105820289D01*
X162047092Y-105820289D02*
X161951854Y-105915527D01*
X161951854Y-105915527D02*
X161904235Y-106010765D01*
X161904235Y-106010765D02*
X161856616Y-106201241D01*
X161856616Y-106201241D02*
X161856616Y-106344098D01*
X161856616Y-106344098D02*
X161904235Y-106534574D01*
X161904235Y-106534574D02*
X161951854Y-106629812D01*
X161951854Y-106629812D02*
X162047092Y-106725051D01*
X162047092Y-106725051D02*
X162189949Y-106772670D01*
X162189949Y-106772670D02*
X162285187Y-106772670D01*
X162285187Y-106772670D02*
X162428044Y-106725051D01*
X162428044Y-106725051D02*
X162475663Y-106677431D01*
X162475663Y-106677431D02*
X162475663Y-106344098D01*
X162475663Y-106344098D02*
X162285187Y-106344098D01*
X162904235Y-106772670D02*
X162904235Y-105772670D01*
X162904235Y-105772670D02*
X163475663Y-106772670D01*
X163475663Y-106772670D02*
X163475663Y-105772670D01*
X163951854Y-106772670D02*
X163951854Y-105772670D01*
X163951854Y-105772670D02*
X164189949Y-105772670D01*
X164189949Y-105772670D02*
X164332806Y-105820289D01*
X164332806Y-105820289D02*
X164428044Y-105915527D01*
X164428044Y-105915527D02*
X164475663Y-106010765D01*
X164475663Y-106010765D02*
X164523282Y-106201241D01*
X164523282Y-106201241D02*
X164523282Y-106344098D01*
X164523282Y-106344098D02*
X164475663Y-106534574D01*
X164475663Y-106534574D02*
X164428044Y-106629812D01*
X164428044Y-106629812D02*
X164332806Y-106725051D01*
X164332806Y-106725051D02*
X164189949Y-106772670D01*
X164189949Y-106772670D02*
X163951854Y-106772670D01*
X112428044Y-105820289D02*
X112332806Y-105772670D01*
X112332806Y-105772670D02*
X112189949Y-105772670D01*
X112189949Y-105772670D02*
X112047092Y-105820289D01*
X112047092Y-105820289D02*
X111951854Y-105915527D01*
X111951854Y-105915527D02*
X111904235Y-106010765D01*
X111904235Y-106010765D02*
X111856616Y-106201241D01*
X111856616Y-106201241D02*
X111856616Y-106344098D01*
X111856616Y-106344098D02*
X111904235Y-106534574D01*
X111904235Y-106534574D02*
X111951854Y-106629812D01*
X111951854Y-106629812D02*
X112047092Y-106725051D01*
X112047092Y-106725051D02*
X112189949Y-106772670D01*
X112189949Y-106772670D02*
X112285187Y-106772670D01*
X112285187Y-106772670D02*
X112428044Y-106725051D01*
X112428044Y-106725051D02*
X112475663Y-106677431D01*
X112475663Y-106677431D02*
X112475663Y-106344098D01*
X112475663Y-106344098D02*
X112285187Y-106344098D01*
X112904235Y-106772670D02*
X112904235Y-105772670D01*
X112904235Y-105772670D02*
X113475663Y-106772670D01*
X113475663Y-106772670D02*
X113475663Y-105772670D01*
X113951854Y-106772670D02*
X113951854Y-105772670D01*
X113951854Y-105772670D02*
X114189949Y-105772670D01*
X114189949Y-105772670D02*
X114332806Y-105820289D01*
X114332806Y-105820289D02*
X114428044Y-105915527D01*
X114428044Y-105915527D02*
X114475663Y-106010765D01*
X114475663Y-106010765D02*
X114523282Y-106201241D01*
X114523282Y-106201241D02*
X114523282Y-106344098D01*
X114523282Y-106344098D02*
X114475663Y-106534574D01*
X114475663Y-106534574D02*
X114428044Y-106629812D01*
X114428044Y-106629812D02*
X114332806Y-106725051D01*
X114332806Y-106725051D02*
X114189949Y-106772670D01*
X114189949Y-106772670D02*
X113951854Y-106772670D01*
X155951854Y-106772670D02*
X155951854Y-105772670D01*
X155951854Y-105772670D02*
X156189949Y-105772670D01*
X156189949Y-105772670D02*
X156332806Y-105820289D01*
X156332806Y-105820289D02*
X156428044Y-105915527D01*
X156428044Y-105915527D02*
X156475663Y-106010765D01*
X156475663Y-106010765D02*
X156523282Y-106201241D01*
X156523282Y-106201241D02*
X156523282Y-106344098D01*
X156523282Y-106344098D02*
X156475663Y-106534574D01*
X156475663Y-106534574D02*
X156428044Y-106629812D01*
X156428044Y-106629812D02*
X156332806Y-106725051D01*
X156332806Y-106725051D02*
X156189949Y-106772670D01*
X156189949Y-106772670D02*
X155951854Y-106772670D01*
X157380425Y-106106003D02*
X157380425Y-106772670D01*
X157142330Y-105725051D02*
X156904235Y-106439336D01*
X156904235Y-106439336D02*
X157523282Y-106439336D01*
X188652568Y-89238621D02*
X188604949Y-89310050D01*
X188604949Y-89310050D02*
X188509710Y-89345764D01*
X188509710Y-89345764D02*
X187652568Y-89345764D01*
X188652568Y-88845764D02*
X188604949Y-88917193D01*
X188604949Y-88917193D02*
X188557329Y-88952907D01*
X188557329Y-88952907D02*
X188462091Y-88988621D01*
X188462091Y-88988621D02*
X188176377Y-88988621D01*
X188176377Y-88988621D02*
X188081139Y-88952907D01*
X188081139Y-88952907D02*
X188033520Y-88917193D01*
X188033520Y-88917193D02*
X187985901Y-88845764D01*
X187985901Y-88845764D02*
X187985901Y-88738621D01*
X187985901Y-88738621D02*
X188033520Y-88667193D01*
X188033520Y-88667193D02*
X188081139Y-88631479D01*
X188081139Y-88631479D02*
X188176377Y-88595764D01*
X188176377Y-88595764D02*
X188462091Y-88595764D01*
X188462091Y-88595764D02*
X188557329Y-88631479D01*
X188557329Y-88631479D02*
X188604949Y-88667193D01*
X188604949Y-88667193D02*
X188652568Y-88738621D01*
X188652568Y-88738621D02*
X188652568Y-88845764D01*
X188652568Y-87952908D02*
X188128758Y-87952908D01*
X188128758Y-87952908D02*
X188033520Y-87988622D01*
X188033520Y-87988622D02*
X187985901Y-88060050D01*
X187985901Y-88060050D02*
X187985901Y-88202908D01*
X187985901Y-88202908D02*
X188033520Y-88274336D01*
X188604949Y-87952908D02*
X188652568Y-88024336D01*
X188652568Y-88024336D02*
X188652568Y-88202908D01*
X188652568Y-88202908D02*
X188604949Y-88274336D01*
X188604949Y-88274336D02*
X188509710Y-88310050D01*
X188509710Y-88310050D02*
X188414472Y-88310050D01*
X188414472Y-88310050D02*
X188319234Y-88274336D01*
X188319234Y-88274336D02*
X188271615Y-88202908D01*
X188271615Y-88202908D02*
X188271615Y-88024336D01*
X188271615Y-88024336D02*
X188223996Y-87952908D01*
X188652568Y-87274337D02*
X187652568Y-87274337D01*
X188604949Y-87274337D02*
X188652568Y-87345765D01*
X188652568Y-87345765D02*
X188652568Y-87488622D01*
X188652568Y-87488622D02*
X188604949Y-87560051D01*
X188604949Y-87560051D02*
X188557329Y-87595765D01*
X188557329Y-87595765D02*
X188462091Y-87631479D01*
X188462091Y-87631479D02*
X188176377Y-87631479D01*
X188176377Y-87631479D02*
X188081139Y-87595765D01*
X188081139Y-87595765D02*
X188033520Y-87560051D01*
X188033520Y-87560051D02*
X187985901Y-87488622D01*
X187985901Y-87488622D02*
X187985901Y-87345765D01*
X187985901Y-87345765D02*
X188033520Y-87274337D01*
X182428044Y-105820289D02*
X182332806Y-105772670D01*
X182332806Y-105772670D02*
X182189949Y-105772670D01*
X182189949Y-105772670D02*
X182047092Y-105820289D01*
X182047092Y-105820289D02*
X181951854Y-105915527D01*
X181951854Y-105915527D02*
X181904235Y-106010765D01*
X181904235Y-106010765D02*
X181856616Y-106201241D01*
X181856616Y-106201241D02*
X181856616Y-106344098D01*
X181856616Y-106344098D02*
X181904235Y-106534574D01*
X181904235Y-106534574D02*
X181951854Y-106629812D01*
X181951854Y-106629812D02*
X182047092Y-106725051D01*
X182047092Y-106725051D02*
X182189949Y-106772670D01*
X182189949Y-106772670D02*
X182285187Y-106772670D01*
X182285187Y-106772670D02*
X182428044Y-106725051D01*
X182428044Y-106725051D02*
X182475663Y-106677431D01*
X182475663Y-106677431D02*
X182475663Y-106344098D01*
X182475663Y-106344098D02*
X182285187Y-106344098D01*
X182904235Y-106772670D02*
X182904235Y-105772670D01*
X182904235Y-105772670D02*
X183475663Y-106772670D01*
X183475663Y-106772670D02*
X183475663Y-105772670D01*
X183951854Y-106772670D02*
X183951854Y-105772670D01*
X183951854Y-105772670D02*
X184189949Y-105772670D01*
X184189949Y-105772670D02*
X184332806Y-105820289D01*
X184332806Y-105820289D02*
X184428044Y-105915527D01*
X184428044Y-105915527D02*
X184475663Y-106010765D01*
X184475663Y-106010765D02*
X184523282Y-106201241D01*
X184523282Y-106201241D02*
X184523282Y-106344098D01*
X184523282Y-106344098D02*
X184475663Y-106534574D01*
X184475663Y-106534574D02*
X184428044Y-106629812D01*
X184428044Y-106629812D02*
X184332806Y-106725051D01*
X184332806Y-106725051D02*
X184189949Y-106772670D01*
X184189949Y-106772670D02*
X183951854Y-106772670D01*
X110274949Y-85488623D02*
X110227329Y-85417194D01*
X110227329Y-85417194D02*
X110227329Y-85274337D01*
X110227329Y-85274337D02*
X110274949Y-85202908D01*
X110274949Y-85202908D02*
X110322568Y-85167194D01*
X110322568Y-85167194D02*
X110417806Y-85131480D01*
X110417806Y-85131480D02*
X110703520Y-85131480D01*
X110703520Y-85131480D02*
X110798758Y-85167194D01*
X110798758Y-85167194D02*
X110846377Y-85202908D01*
X110846377Y-85202908D02*
X110893996Y-85274337D01*
X110893996Y-85274337D02*
X110893996Y-85417194D01*
X110893996Y-85417194D02*
X110846377Y-85488623D01*
X110227329Y-85917194D02*
X110274949Y-85845765D01*
X110274949Y-85845765D02*
X110370187Y-85810051D01*
X110370187Y-85810051D02*
X111227329Y-85810051D01*
X110227329Y-86202908D02*
X111227329Y-86202908D01*
X110608282Y-86274337D02*
X110227329Y-86488622D01*
X110893996Y-86488622D02*
X110513044Y-86202908D01*
X132428044Y-105820289D02*
X132332806Y-105772670D01*
X132332806Y-105772670D02*
X132189949Y-105772670D01*
X132189949Y-105772670D02*
X132047092Y-105820289D01*
X132047092Y-105820289D02*
X131951854Y-105915527D01*
X131951854Y-105915527D02*
X131904235Y-106010765D01*
X131904235Y-106010765D02*
X131856616Y-106201241D01*
X131856616Y-106201241D02*
X131856616Y-106344098D01*
X131856616Y-106344098D02*
X131904235Y-106534574D01*
X131904235Y-106534574D02*
X131951854Y-106629812D01*
X131951854Y-106629812D02*
X132047092Y-106725051D01*
X132047092Y-106725051D02*
X132189949Y-106772670D01*
X132189949Y-106772670D02*
X132285187Y-106772670D01*
X132285187Y-106772670D02*
X132428044Y-106725051D01*
X132428044Y-106725051D02*
X132475663Y-106677431D01*
X132475663Y-106677431D02*
X132475663Y-106344098D01*
X132475663Y-106344098D02*
X132285187Y-106344098D01*
X132904235Y-106772670D02*
X132904235Y-105772670D01*
X132904235Y-105772670D02*
X133475663Y-106772670D01*
X133475663Y-106772670D02*
X133475663Y-105772670D01*
X133951854Y-106772670D02*
X133951854Y-105772670D01*
X133951854Y-105772670D02*
X134189949Y-105772670D01*
X134189949Y-105772670D02*
X134332806Y-105820289D01*
X134332806Y-105820289D02*
X134428044Y-105915527D01*
X134428044Y-105915527D02*
X134475663Y-106010765D01*
X134475663Y-106010765D02*
X134523282Y-106201241D01*
X134523282Y-106201241D02*
X134523282Y-106344098D01*
X134523282Y-106344098D02*
X134475663Y-106534574D01*
X134475663Y-106534574D02*
X134428044Y-106629812D01*
X134428044Y-106629812D02*
X134332806Y-106725051D01*
X134332806Y-106725051D02*
X134189949Y-106772670D01*
X134189949Y-106772670D02*
X133951854Y-106772670D01*
X165951854Y-106772670D02*
X165951854Y-105772670D01*
X165951854Y-105772670D02*
X166189949Y-105772670D01*
X166189949Y-105772670D02*
X166332806Y-105820289D01*
X166332806Y-105820289D02*
X166428044Y-105915527D01*
X166428044Y-105915527D02*
X166475663Y-106010765D01*
X166475663Y-106010765D02*
X166523282Y-106201241D01*
X166523282Y-106201241D02*
X166523282Y-106344098D01*
X166523282Y-106344098D02*
X166475663Y-106534574D01*
X166475663Y-106534574D02*
X166428044Y-106629812D01*
X166428044Y-106629812D02*
X166332806Y-106725051D01*
X166332806Y-106725051D02*
X166189949Y-106772670D01*
X166189949Y-106772670D02*
X165951854Y-106772670D01*
X167428044Y-105772670D02*
X166951854Y-105772670D01*
X166951854Y-105772670D02*
X166904235Y-106248860D01*
X166904235Y-106248860D02*
X166951854Y-106201241D01*
X166951854Y-106201241D02*
X167047092Y-106153622D01*
X167047092Y-106153622D02*
X167285187Y-106153622D01*
X167285187Y-106153622D02*
X167380425Y-106201241D01*
X167380425Y-106201241D02*
X167428044Y-106248860D01*
X167428044Y-106248860D02*
X167475663Y-106344098D01*
X167475663Y-106344098D02*
X167475663Y-106582193D01*
X167475663Y-106582193D02*
X167428044Y-106677431D01*
X167428044Y-106677431D02*
X167380425Y-106725051D01*
X167380425Y-106725051D02*
X167285187Y-106772670D01*
X167285187Y-106772670D02*
X167047092Y-106772670D01*
X167047092Y-106772670D02*
X166951854Y-106725051D01*
X166951854Y-106725051D02*
X166904235Y-106677431D01*
X120285714Y-82815000D02*
X120428571Y-82886428D01*
X120428571Y-82886428D02*
X120714285Y-82886428D01*
X120714285Y-82886428D02*
X120857142Y-82815000D01*
X120857142Y-82815000D02*
X120928571Y-82672142D01*
X120928571Y-82672142D02*
X120928571Y-82600714D01*
X120928571Y-82600714D02*
X120857142Y-82457857D01*
X120857142Y-82457857D02*
X120714285Y-82386428D01*
X120714285Y-82386428D02*
X120500000Y-82386428D01*
X120500000Y-82386428D02*
X120357142Y-82315000D01*
X120357142Y-82315000D02*
X120285714Y-82172142D01*
X120285714Y-82172142D02*
X120285714Y-82100714D01*
X120285714Y-82100714D02*
X120357142Y-81957857D01*
X120357142Y-81957857D02*
X120500000Y-81886428D01*
X120500000Y-81886428D02*
X120714285Y-81886428D01*
X120714285Y-81886428D02*
X120857142Y-81957857D01*
X121571428Y-82886428D02*
X121571428Y-81386428D01*
X122214286Y-82886428D02*
X122214286Y-82100714D01*
X122214286Y-82100714D02*
X122142857Y-81957857D01*
X122142857Y-81957857D02*
X122000000Y-81886428D01*
X122000000Y-81886428D02*
X121785714Y-81886428D01*
X121785714Y-81886428D02*
X121642857Y-81957857D01*
X121642857Y-81957857D02*
X121571428Y-82029285D01*
X122928571Y-82886428D02*
X122928571Y-81886428D01*
X122928571Y-81386428D02*
X122857143Y-81457857D01*
X122857143Y-81457857D02*
X122928571Y-81529285D01*
X122928571Y-81529285D02*
X123000000Y-81457857D01*
X123000000Y-81457857D02*
X122928571Y-81386428D01*
X122928571Y-81386428D02*
X122928571Y-81529285D01*
X123428572Y-81886428D02*
X124000000Y-81886428D01*
X123642857Y-82886428D02*
X123642857Y-81600714D01*
X123642857Y-81600714D02*
X123714286Y-81457857D01*
X123714286Y-81457857D02*
X123857143Y-81386428D01*
X123857143Y-81386428D02*
X124000000Y-81386428D01*
X124285715Y-81886428D02*
X124857143Y-81886428D01*
X124500000Y-81386428D02*
X124500000Y-82672142D01*
X124500000Y-82672142D02*
X124571429Y-82815000D01*
X124571429Y-82815000D02*
X124714286Y-82886428D01*
X124714286Y-82886428D02*
X124857143Y-82886428D01*
X126500000Y-82886428D02*
X126500000Y-81886428D01*
X126500000Y-82172142D02*
X126571429Y-82029285D01*
X126571429Y-82029285D02*
X126642858Y-81957857D01*
X126642858Y-81957857D02*
X126785715Y-81886428D01*
X126785715Y-81886428D02*
X126928572Y-81886428D01*
X128000000Y-82815000D02*
X127857143Y-82886428D01*
X127857143Y-82886428D02*
X127571429Y-82886428D01*
X127571429Y-82886428D02*
X127428571Y-82815000D01*
X127428571Y-82815000D02*
X127357143Y-82672142D01*
X127357143Y-82672142D02*
X127357143Y-82100714D01*
X127357143Y-82100714D02*
X127428571Y-81957857D01*
X127428571Y-81957857D02*
X127571429Y-81886428D01*
X127571429Y-81886428D02*
X127857143Y-81886428D01*
X127857143Y-81886428D02*
X128000000Y-81957857D01*
X128000000Y-81957857D02*
X128071429Y-82100714D01*
X128071429Y-82100714D02*
X128071429Y-82243571D01*
X128071429Y-82243571D02*
X127357143Y-82386428D01*
X129357143Y-81886428D02*
X129357143Y-83100714D01*
X129357143Y-83100714D02*
X129285714Y-83243571D01*
X129285714Y-83243571D02*
X129214285Y-83315000D01*
X129214285Y-83315000D02*
X129071428Y-83386428D01*
X129071428Y-83386428D02*
X128857143Y-83386428D01*
X128857143Y-83386428D02*
X128714285Y-83315000D01*
X129357143Y-82815000D02*
X129214285Y-82886428D01*
X129214285Y-82886428D02*
X128928571Y-82886428D01*
X128928571Y-82886428D02*
X128785714Y-82815000D01*
X128785714Y-82815000D02*
X128714285Y-82743571D01*
X128714285Y-82743571D02*
X128642857Y-82600714D01*
X128642857Y-82600714D02*
X128642857Y-82172142D01*
X128642857Y-82172142D02*
X128714285Y-82029285D01*
X128714285Y-82029285D02*
X128785714Y-81957857D01*
X128785714Y-81957857D02*
X128928571Y-81886428D01*
X128928571Y-81886428D02*
X129214285Y-81886428D01*
X129214285Y-81886428D02*
X129357143Y-81957857D01*
X130071428Y-82886428D02*
X130071428Y-81886428D01*
X130071428Y-81386428D02*
X130000000Y-81457857D01*
X130000000Y-81457857D02*
X130071428Y-81529285D01*
X130071428Y-81529285D02*
X130142857Y-81457857D01*
X130142857Y-81457857D02*
X130071428Y-81386428D01*
X130071428Y-81386428D02*
X130071428Y-81529285D01*
X130714286Y-82815000D02*
X130857143Y-82886428D01*
X130857143Y-82886428D02*
X131142857Y-82886428D01*
X131142857Y-82886428D02*
X131285714Y-82815000D01*
X131285714Y-82815000D02*
X131357143Y-82672142D01*
X131357143Y-82672142D02*
X131357143Y-82600714D01*
X131357143Y-82600714D02*
X131285714Y-82457857D01*
X131285714Y-82457857D02*
X131142857Y-82386428D01*
X131142857Y-82386428D02*
X130928572Y-82386428D01*
X130928572Y-82386428D02*
X130785714Y-82315000D01*
X130785714Y-82315000D02*
X130714286Y-82172142D01*
X130714286Y-82172142D02*
X130714286Y-82100714D01*
X130714286Y-82100714D02*
X130785714Y-81957857D01*
X130785714Y-81957857D02*
X130928572Y-81886428D01*
X130928572Y-81886428D02*
X131142857Y-81886428D01*
X131142857Y-81886428D02*
X131285714Y-81957857D01*
X131785715Y-81886428D02*
X132357143Y-81886428D01*
X132000000Y-81386428D02*
X132000000Y-82672142D01*
X132000000Y-82672142D02*
X132071429Y-82815000D01*
X132071429Y-82815000D02*
X132214286Y-82886428D01*
X132214286Y-82886428D02*
X132357143Y-82886428D01*
X133428572Y-82815000D02*
X133285715Y-82886428D01*
X133285715Y-82886428D02*
X133000001Y-82886428D01*
X133000001Y-82886428D02*
X132857143Y-82815000D01*
X132857143Y-82815000D02*
X132785715Y-82672142D01*
X132785715Y-82672142D02*
X132785715Y-82100714D01*
X132785715Y-82100714D02*
X132857143Y-81957857D01*
X132857143Y-81957857D02*
X133000001Y-81886428D01*
X133000001Y-81886428D02*
X133285715Y-81886428D01*
X133285715Y-81886428D02*
X133428572Y-81957857D01*
X133428572Y-81957857D02*
X133500001Y-82100714D01*
X133500001Y-82100714D02*
X133500001Y-82243571D01*
X133500001Y-82243571D02*
X132785715Y-82386428D01*
X134142857Y-82886428D02*
X134142857Y-81886428D01*
X134142857Y-82172142D02*
X134214286Y-82029285D01*
X134214286Y-82029285D02*
X134285715Y-81957857D01*
X134285715Y-81957857D02*
X134428572Y-81886428D01*
X134428572Y-81886428D02*
X134571429Y-81886428D01*
X120357142Y-85316428D02*
X120357142Y-84316428D01*
X120357142Y-83816428D02*
X120285714Y-83887857D01*
X120285714Y-83887857D02*
X120357142Y-83959285D01*
X120357142Y-83959285D02*
X120428571Y-83887857D01*
X120428571Y-83887857D02*
X120357142Y-83816428D01*
X120357142Y-83816428D02*
X120357142Y-83959285D01*
X121071428Y-84316428D02*
X121071428Y-85316428D01*
X121071428Y-84459285D02*
X121142857Y-84387857D01*
X121142857Y-84387857D02*
X121285714Y-84316428D01*
X121285714Y-84316428D02*
X121500000Y-84316428D01*
X121500000Y-84316428D02*
X121642857Y-84387857D01*
X121642857Y-84387857D02*
X121714286Y-84530714D01*
X121714286Y-84530714D02*
X121714286Y-85316428D01*
X122428571Y-84316428D02*
X122428571Y-85816428D01*
X122428571Y-84387857D02*
X122571429Y-84316428D01*
X122571429Y-84316428D02*
X122857143Y-84316428D01*
X122857143Y-84316428D02*
X123000000Y-84387857D01*
X123000000Y-84387857D02*
X123071429Y-84459285D01*
X123071429Y-84459285D02*
X123142857Y-84602142D01*
X123142857Y-84602142D02*
X123142857Y-85030714D01*
X123142857Y-85030714D02*
X123071429Y-85173571D01*
X123071429Y-85173571D02*
X123000000Y-85245000D01*
X123000000Y-85245000D02*
X122857143Y-85316428D01*
X122857143Y-85316428D02*
X122571429Y-85316428D01*
X122571429Y-85316428D02*
X122428571Y-85245000D01*
X124428572Y-84316428D02*
X124428572Y-85316428D01*
X123785714Y-84316428D02*
X123785714Y-85102142D01*
X123785714Y-85102142D02*
X123857143Y-85245000D01*
X123857143Y-85245000D02*
X124000000Y-85316428D01*
X124000000Y-85316428D02*
X124214286Y-85316428D01*
X124214286Y-85316428D02*
X124357143Y-85245000D01*
X124357143Y-85245000D02*
X124428572Y-85173571D01*
X124928572Y-84316428D02*
X125500000Y-84316428D01*
X125142857Y-83816428D02*
X125142857Y-85102142D01*
X125142857Y-85102142D02*
X125214286Y-85245000D01*
X125214286Y-85245000D02*
X125357143Y-85316428D01*
X125357143Y-85316428D02*
X125500000Y-85316428D01*
X127000000Y-84316428D02*
X127357143Y-85316428D01*
X127357143Y-85316428D02*
X127714286Y-84316428D01*
X128214286Y-83959285D02*
X128285714Y-83887857D01*
X128285714Y-83887857D02*
X128428572Y-83816428D01*
X128428572Y-83816428D02*
X128785714Y-83816428D01*
X128785714Y-83816428D02*
X128928572Y-83887857D01*
X128928572Y-83887857D02*
X129000000Y-83959285D01*
X129000000Y-83959285D02*
X129071429Y-84102142D01*
X129071429Y-84102142D02*
X129071429Y-84245000D01*
X129071429Y-84245000D02*
X129000000Y-84459285D01*
X129000000Y-84459285D02*
X128142857Y-85316428D01*
X128142857Y-85316428D02*
X129071429Y-85316428D01*
X131738095Y-86590952D02*
X131738095Y-87448095D01*
X131738095Y-87448095D02*
X131690476Y-87543333D01*
X131690476Y-87543333D02*
X131595238Y-87590952D01*
X131595238Y-87590952D02*
X131547619Y-87590952D01*
X131738095Y-86257619D02*
X131690476Y-86305238D01*
X131690476Y-86305238D02*
X131738095Y-86352857D01*
X131738095Y-86352857D02*
X131785714Y-86305238D01*
X131785714Y-86305238D02*
X131738095Y-86257619D01*
X131738095Y-86257619D02*
X131738095Y-86352857D01*
X132642856Y-86590952D02*
X132642856Y-87257619D01*
X132214285Y-86590952D02*
X132214285Y-87114761D01*
X132214285Y-87114761D02*
X132261904Y-87210000D01*
X132261904Y-87210000D02*
X132357142Y-87257619D01*
X132357142Y-87257619D02*
X132499999Y-87257619D01*
X132499999Y-87257619D02*
X132595237Y-87210000D01*
X132595237Y-87210000D02*
X132642856Y-87162380D01*
X133119047Y-87257619D02*
X133119047Y-86590952D01*
X133119047Y-86686190D02*
X133166666Y-86638571D01*
X133166666Y-86638571D02*
X133261904Y-86590952D01*
X133261904Y-86590952D02*
X133404761Y-86590952D01*
X133404761Y-86590952D02*
X133499999Y-86638571D01*
X133499999Y-86638571D02*
X133547618Y-86733809D01*
X133547618Y-86733809D02*
X133547618Y-87257619D01*
X133547618Y-86733809D02*
X133595237Y-86638571D01*
X133595237Y-86638571D02*
X133690475Y-86590952D01*
X133690475Y-86590952D02*
X133833332Y-86590952D01*
X133833332Y-86590952D02*
X133928571Y-86638571D01*
X133928571Y-86638571D02*
X133976190Y-86733809D01*
X133976190Y-86733809D02*
X133976190Y-87257619D01*
X134452380Y-86590952D02*
X134452380Y-87590952D01*
X134452380Y-86638571D02*
X134547618Y-86590952D01*
X134547618Y-86590952D02*
X134738094Y-86590952D01*
X134738094Y-86590952D02*
X134833332Y-86638571D01*
X134833332Y-86638571D02*
X134880951Y-86686190D01*
X134880951Y-86686190D02*
X134928570Y-86781428D01*
X134928570Y-86781428D02*
X134928570Y-87067142D01*
X134928570Y-87067142D02*
X134880951Y-87162380D01*
X134880951Y-87162380D02*
X134833332Y-87210000D01*
X134833332Y-87210000D02*
X134738094Y-87257619D01*
X134738094Y-87257619D02*
X134547618Y-87257619D01*
X134547618Y-87257619D02*
X134452380Y-87210000D01*
X136119047Y-87257619D02*
X136119047Y-86590952D01*
X136119047Y-86257619D02*
X136071428Y-86305238D01*
X136071428Y-86305238D02*
X136119047Y-86352857D01*
X136119047Y-86352857D02*
X136166666Y-86305238D01*
X136166666Y-86305238D02*
X136119047Y-86257619D01*
X136119047Y-86257619D02*
X136119047Y-86352857D01*
X136452380Y-86590952D02*
X136833332Y-86590952D01*
X136595237Y-87257619D02*
X136595237Y-86400476D01*
X136595237Y-86400476D02*
X136642856Y-86305238D01*
X136642856Y-86305238D02*
X136738094Y-86257619D01*
X136738094Y-86257619D02*
X136833332Y-86257619D01*
X137928571Y-86590952D02*
X137928571Y-87257619D01*
X137928571Y-86686190D02*
X137976190Y-86638571D01*
X137976190Y-86638571D02*
X138071428Y-86590952D01*
X138071428Y-86590952D02*
X138214285Y-86590952D01*
X138214285Y-86590952D02*
X138309523Y-86638571D01*
X138309523Y-86638571D02*
X138357142Y-86733809D01*
X138357142Y-86733809D02*
X138357142Y-87257619D01*
X138976190Y-87257619D02*
X138880952Y-87210000D01*
X138880952Y-87210000D02*
X138833333Y-87162380D01*
X138833333Y-87162380D02*
X138785714Y-87067142D01*
X138785714Y-87067142D02*
X138785714Y-86781428D01*
X138785714Y-86781428D02*
X138833333Y-86686190D01*
X138833333Y-86686190D02*
X138880952Y-86638571D01*
X138880952Y-86638571D02*
X138976190Y-86590952D01*
X138976190Y-86590952D02*
X139119047Y-86590952D01*
X139119047Y-86590952D02*
X139214285Y-86638571D01*
X139214285Y-86638571D02*
X139261904Y-86686190D01*
X139261904Y-86686190D02*
X139309523Y-86781428D01*
X139309523Y-86781428D02*
X139309523Y-87067142D01*
X139309523Y-87067142D02*
X139261904Y-87162380D01*
X139261904Y-87162380D02*
X139214285Y-87210000D01*
X139214285Y-87210000D02*
X139119047Y-87257619D01*
X139119047Y-87257619D02*
X138976190Y-87257619D01*
X132357143Y-88877619D02*
X132357143Y-88210952D01*
X132357143Y-87877619D02*
X132309524Y-87925238D01*
X132309524Y-87925238D02*
X132357143Y-87972857D01*
X132357143Y-87972857D02*
X132404762Y-87925238D01*
X132404762Y-87925238D02*
X132357143Y-87877619D01*
X132357143Y-87877619D02*
X132357143Y-87972857D01*
X132833333Y-88210952D02*
X132833333Y-88877619D01*
X132833333Y-88306190D02*
X132880952Y-88258571D01*
X132880952Y-88258571D02*
X132976190Y-88210952D01*
X132976190Y-88210952D02*
X133119047Y-88210952D01*
X133119047Y-88210952D02*
X133214285Y-88258571D01*
X133214285Y-88258571D02*
X133261904Y-88353809D01*
X133261904Y-88353809D02*
X133261904Y-88877619D01*
X134166666Y-88830000D02*
X134071428Y-88877619D01*
X134071428Y-88877619D02*
X133880952Y-88877619D01*
X133880952Y-88877619D02*
X133785714Y-88830000D01*
X133785714Y-88830000D02*
X133738095Y-88782380D01*
X133738095Y-88782380D02*
X133690476Y-88687142D01*
X133690476Y-88687142D02*
X133690476Y-88401428D01*
X133690476Y-88401428D02*
X133738095Y-88306190D01*
X133738095Y-88306190D02*
X133785714Y-88258571D01*
X133785714Y-88258571D02*
X133880952Y-88210952D01*
X133880952Y-88210952D02*
X134071428Y-88210952D01*
X134071428Y-88210952D02*
X134166666Y-88258571D01*
X134738095Y-88877619D02*
X134642857Y-88830000D01*
X134642857Y-88830000D02*
X134595238Y-88782380D01*
X134595238Y-88782380D02*
X134547619Y-88687142D01*
X134547619Y-88687142D02*
X134547619Y-88401428D01*
X134547619Y-88401428D02*
X134595238Y-88306190D01*
X134595238Y-88306190D02*
X134642857Y-88258571D01*
X134642857Y-88258571D02*
X134738095Y-88210952D01*
X134738095Y-88210952D02*
X134880952Y-88210952D01*
X134880952Y-88210952D02*
X134976190Y-88258571D01*
X134976190Y-88258571D02*
X135023809Y-88306190D01*
X135023809Y-88306190D02*
X135071428Y-88401428D01*
X135071428Y-88401428D02*
X135071428Y-88687142D01*
X135071428Y-88687142D02*
X135023809Y-88782380D01*
X135023809Y-88782380D02*
X134976190Y-88830000D01*
X134976190Y-88830000D02*
X134880952Y-88877619D01*
X134880952Y-88877619D02*
X134738095Y-88877619D01*
X135500000Y-88877619D02*
X135500000Y-88210952D01*
X135500000Y-88306190D02*
X135547619Y-88258571D01*
X135547619Y-88258571D02*
X135642857Y-88210952D01*
X135642857Y-88210952D02*
X135785714Y-88210952D01*
X135785714Y-88210952D02*
X135880952Y-88258571D01*
X135880952Y-88258571D02*
X135928571Y-88353809D01*
X135928571Y-88353809D02*
X135928571Y-88877619D01*
X135928571Y-88353809D02*
X135976190Y-88258571D01*
X135976190Y-88258571D02*
X136071428Y-88210952D01*
X136071428Y-88210952D02*
X136214285Y-88210952D01*
X136214285Y-88210952D02*
X136309524Y-88258571D01*
X136309524Y-88258571D02*
X136357143Y-88353809D01*
X136357143Y-88353809D02*
X136357143Y-88877619D01*
X136833333Y-88877619D02*
X136833333Y-88210952D01*
X136833333Y-87877619D02*
X136785714Y-87925238D01*
X136785714Y-87925238D02*
X136833333Y-87972857D01*
X136833333Y-87972857D02*
X136880952Y-87925238D01*
X136880952Y-87925238D02*
X136833333Y-87877619D01*
X136833333Y-87877619D02*
X136833333Y-87972857D01*
X137309523Y-88210952D02*
X137309523Y-88877619D01*
X137309523Y-88306190D02*
X137357142Y-88258571D01*
X137357142Y-88258571D02*
X137452380Y-88210952D01*
X137452380Y-88210952D02*
X137595237Y-88210952D01*
X137595237Y-88210952D02*
X137690475Y-88258571D01*
X137690475Y-88258571D02*
X137738094Y-88353809D01*
X137738094Y-88353809D02*
X137738094Y-88877619D01*
X138642856Y-88210952D02*
X138642856Y-89020476D01*
X138642856Y-89020476D02*
X138595237Y-89115714D01*
X138595237Y-89115714D02*
X138547618Y-89163333D01*
X138547618Y-89163333D02*
X138452380Y-89210952D01*
X138452380Y-89210952D02*
X138309523Y-89210952D01*
X138309523Y-89210952D02*
X138214285Y-89163333D01*
X138642856Y-88830000D02*
X138547618Y-88877619D01*
X138547618Y-88877619D02*
X138357142Y-88877619D01*
X138357142Y-88877619D02*
X138261904Y-88830000D01*
X138261904Y-88830000D02*
X138214285Y-88782380D01*
X138214285Y-88782380D02*
X138166666Y-88687142D01*
X138166666Y-88687142D02*
X138166666Y-88401428D01*
X138166666Y-88401428D02*
X138214285Y-88306190D01*
X138214285Y-88306190D02*
X138261904Y-88258571D01*
X138261904Y-88258571D02*
X138357142Y-88210952D01*
X138357142Y-88210952D02*
X138547618Y-88210952D01*
X138547618Y-88210952D02*
X138642856Y-88258571D01*
X110227329Y-87381480D02*
X110274949Y-87310051D01*
X110274949Y-87310051D02*
X110370187Y-87274337D01*
X110370187Y-87274337D02*
X111227329Y-87274337D01*
X110227329Y-87774337D02*
X110274949Y-87702908D01*
X110274949Y-87702908D02*
X110322568Y-87667194D01*
X110322568Y-87667194D02*
X110417806Y-87631480D01*
X110417806Y-87631480D02*
X110703520Y-87631480D01*
X110703520Y-87631480D02*
X110798758Y-87667194D01*
X110798758Y-87667194D02*
X110846377Y-87702908D01*
X110846377Y-87702908D02*
X110893996Y-87774337D01*
X110893996Y-87774337D02*
X110893996Y-87881480D01*
X110893996Y-87881480D02*
X110846377Y-87952908D01*
X110846377Y-87952908D02*
X110798758Y-87988623D01*
X110798758Y-87988623D02*
X110703520Y-88024337D01*
X110703520Y-88024337D02*
X110417806Y-88024337D01*
X110417806Y-88024337D02*
X110322568Y-87988623D01*
X110322568Y-87988623D02*
X110274949Y-87952908D01*
X110274949Y-87952908D02*
X110227329Y-87881480D01*
X110227329Y-87881480D02*
X110227329Y-87774337D01*
X110227329Y-88667194D02*
X110751139Y-88667194D01*
X110751139Y-88667194D02*
X110846377Y-88631479D01*
X110846377Y-88631479D02*
X110893996Y-88560051D01*
X110893996Y-88560051D02*
X110893996Y-88417194D01*
X110893996Y-88417194D02*
X110846377Y-88345765D01*
X110274949Y-88667194D02*
X110227329Y-88595765D01*
X110227329Y-88595765D02*
X110227329Y-88417194D01*
X110227329Y-88417194D02*
X110274949Y-88345765D01*
X110274949Y-88345765D02*
X110370187Y-88310051D01*
X110370187Y-88310051D02*
X110465425Y-88310051D01*
X110465425Y-88310051D02*
X110560663Y-88345765D01*
X110560663Y-88345765D02*
X110608282Y-88417194D01*
X110608282Y-88417194D02*
X110608282Y-88595765D01*
X110608282Y-88595765D02*
X110655901Y-88667194D01*
X110227329Y-89345765D02*
X111227329Y-89345765D01*
X110274949Y-89345765D02*
X110227329Y-89274336D01*
X110227329Y-89274336D02*
X110227329Y-89131479D01*
X110227329Y-89131479D02*
X110274949Y-89060050D01*
X110274949Y-89060050D02*
X110322568Y-89024336D01*
X110322568Y-89024336D02*
X110417806Y-88988622D01*
X110417806Y-88988622D02*
X110703520Y-88988622D01*
X110703520Y-88988622D02*
X110798758Y-89024336D01*
X110798758Y-89024336D02*
X110846377Y-89060050D01*
X110846377Y-89060050D02*
X110893996Y-89131479D01*
X110893996Y-89131479D02*
X110893996Y-89274336D01*
X110893996Y-89274336D02*
X110846377Y-89345765D01*
X156362619Y-88261904D02*
X157172142Y-88261904D01*
X157172142Y-88261904D02*
X157267380Y-88214285D01*
X157267380Y-88214285D02*
X157315000Y-88166666D01*
X157315000Y-88166666D02*
X157362619Y-88071428D01*
X157362619Y-88071428D02*
X157362619Y-87880952D01*
X157362619Y-87880952D02*
X157315000Y-87785714D01*
X157315000Y-87785714D02*
X157267380Y-87738095D01*
X157267380Y-87738095D02*
X157172142Y-87690476D01*
X157172142Y-87690476D02*
X156362619Y-87690476D01*
X156457857Y-87261904D02*
X156410238Y-87214285D01*
X156410238Y-87214285D02*
X156362619Y-87119047D01*
X156362619Y-87119047D02*
X156362619Y-86880952D01*
X156362619Y-86880952D02*
X156410238Y-86785714D01*
X156410238Y-86785714D02*
X156457857Y-86738095D01*
X156457857Y-86738095D02*
X156553095Y-86690476D01*
X156553095Y-86690476D02*
X156648333Y-86690476D01*
X156648333Y-86690476D02*
X156791190Y-86738095D01*
X156791190Y-86738095D02*
X157362619Y-87309523D01*
X157362619Y-87309523D02*
X157362619Y-86690476D01*
X133023282Y-96772670D02*
X132689949Y-96296479D01*
X132451854Y-96772670D02*
X132451854Y-95772670D01*
X132451854Y-95772670D02*
X132832806Y-95772670D01*
X132832806Y-95772670D02*
X132928044Y-95820289D01*
X132928044Y-95820289D02*
X132975663Y-95867908D01*
X132975663Y-95867908D02*
X133023282Y-95963146D01*
X133023282Y-95963146D02*
X133023282Y-96106003D01*
X133023282Y-96106003D02*
X132975663Y-96201241D01*
X132975663Y-96201241D02*
X132928044Y-96248860D01*
X132928044Y-96248860D02*
X132832806Y-96296479D01*
X132832806Y-96296479D02*
X132451854Y-96296479D01*
X133880425Y-95772670D02*
X133689949Y-95772670D01*
X133689949Y-95772670D02*
X133594711Y-95820289D01*
X133594711Y-95820289D02*
X133547092Y-95867908D01*
X133547092Y-95867908D02*
X133451854Y-96010765D01*
X133451854Y-96010765D02*
X133404235Y-96201241D01*
X133404235Y-96201241D02*
X133404235Y-96582193D01*
X133404235Y-96582193D02*
X133451854Y-96677431D01*
X133451854Y-96677431D02*
X133499473Y-96725051D01*
X133499473Y-96725051D02*
X133594711Y-96772670D01*
X133594711Y-96772670D02*
X133785187Y-96772670D01*
X133785187Y-96772670D02*
X133880425Y-96725051D01*
X133880425Y-96725051D02*
X133928044Y-96677431D01*
X133928044Y-96677431D02*
X133975663Y-96582193D01*
X133975663Y-96582193D02*
X133975663Y-96344098D01*
X133975663Y-96344098D02*
X133928044Y-96248860D01*
X133928044Y-96248860D02*
X133880425Y-96201241D01*
X133880425Y-96201241D02*
X133785187Y-96153622D01*
X133785187Y-96153622D02*
X133594711Y-96153622D01*
X133594711Y-96153622D02*
X133499473Y-96201241D01*
X133499473Y-96201241D02*
X133451854Y-96248860D01*
X133451854Y-96248860D02*
X133404235Y-96344098D01*
X113023282Y-96772670D02*
X112689949Y-96296479D01*
X112451854Y-96772670D02*
X112451854Y-95772670D01*
X112451854Y-95772670D02*
X112832806Y-95772670D01*
X112832806Y-95772670D02*
X112928044Y-95820289D01*
X112928044Y-95820289D02*
X112975663Y-95867908D01*
X112975663Y-95867908D02*
X113023282Y-95963146D01*
X113023282Y-95963146D02*
X113023282Y-96106003D01*
X113023282Y-96106003D02*
X112975663Y-96201241D01*
X112975663Y-96201241D02*
X112928044Y-96248860D01*
X112928044Y-96248860D02*
X112832806Y-96296479D01*
X112832806Y-96296479D02*
X112451854Y-96296479D01*
X113404235Y-95867908D02*
X113451854Y-95820289D01*
X113451854Y-95820289D02*
X113547092Y-95772670D01*
X113547092Y-95772670D02*
X113785187Y-95772670D01*
X113785187Y-95772670D02*
X113880425Y-95820289D01*
X113880425Y-95820289D02*
X113928044Y-95867908D01*
X113928044Y-95867908D02*
X113975663Y-95963146D01*
X113975663Y-95963146D02*
X113975663Y-96058384D01*
X113975663Y-96058384D02*
X113928044Y-96201241D01*
X113928044Y-96201241D02*
X113356616Y-96772670D01*
X113356616Y-96772670D02*
X113975663Y-96772670D01*
X167047091Y-96772670D02*
X166713758Y-96296479D01*
X166475663Y-96772670D02*
X166475663Y-95772670D01*
X166475663Y-95772670D02*
X166856615Y-95772670D01*
X166856615Y-95772670D02*
X166951853Y-95820289D01*
X166951853Y-95820289D02*
X166999472Y-95867908D01*
X166999472Y-95867908D02*
X167047091Y-95963146D01*
X167047091Y-95963146D02*
X167047091Y-96106003D01*
X167047091Y-96106003D02*
X166999472Y-96201241D01*
X166999472Y-96201241D02*
X166951853Y-96248860D01*
X166951853Y-96248860D02*
X166856615Y-96296479D01*
X166856615Y-96296479D02*
X166475663Y-96296479D01*
X167999472Y-96772670D02*
X167428044Y-96772670D01*
X167713758Y-96772670D02*
X167713758Y-95772670D01*
X167713758Y-95772670D02*
X167618520Y-95915527D01*
X167618520Y-95915527D02*
X167523282Y-96010765D01*
X167523282Y-96010765D02*
X167428044Y-96058384D01*
X168951853Y-96772670D02*
X168380425Y-96772670D01*
X168666139Y-96772670D02*
X168666139Y-95772670D01*
X168666139Y-95772670D02*
X168570901Y-95915527D01*
X168570901Y-95915527D02*
X168475663Y-96010765D01*
X168475663Y-96010765D02*
X168380425Y-96058384D01*
X162547091Y-96772670D02*
X162213758Y-96296479D01*
X161975663Y-96772670D02*
X161975663Y-95772670D01*
X161975663Y-95772670D02*
X162356615Y-95772670D01*
X162356615Y-95772670D02*
X162451853Y-95820289D01*
X162451853Y-95820289D02*
X162499472Y-95867908D01*
X162499472Y-95867908D02*
X162547091Y-95963146D01*
X162547091Y-95963146D02*
X162547091Y-96106003D01*
X162547091Y-96106003D02*
X162499472Y-96201241D01*
X162499472Y-96201241D02*
X162451853Y-96248860D01*
X162451853Y-96248860D02*
X162356615Y-96296479D01*
X162356615Y-96296479D02*
X161975663Y-96296479D01*
X163499472Y-96772670D02*
X162928044Y-96772670D01*
X163213758Y-96772670D02*
X163213758Y-95772670D01*
X163213758Y-95772670D02*
X163118520Y-95915527D01*
X163118520Y-95915527D02*
X163023282Y-96010765D01*
X163023282Y-96010765D02*
X162928044Y-96058384D01*
X163880425Y-95867908D02*
X163928044Y-95820289D01*
X163928044Y-95820289D02*
X164023282Y-95772670D01*
X164023282Y-95772670D02*
X164261377Y-95772670D01*
X164261377Y-95772670D02*
X164356615Y-95820289D01*
X164356615Y-95820289D02*
X164404234Y-95867908D01*
X164404234Y-95867908D02*
X164451853Y-95963146D01*
X164451853Y-95963146D02*
X164451853Y-96058384D01*
X164451853Y-96058384D02*
X164404234Y-96201241D01*
X164404234Y-96201241D02*
X163832806Y-96772670D01*
X163832806Y-96772670D02*
X164451853Y-96772670D01*
X161467380Y-88904166D02*
X161515000Y-88951785D01*
X161515000Y-88951785D02*
X161562619Y-89094642D01*
X161562619Y-89094642D02*
X161562619Y-89189880D01*
X161562619Y-89189880D02*
X161515000Y-89332737D01*
X161515000Y-89332737D02*
X161419761Y-89427975D01*
X161419761Y-89427975D02*
X161324523Y-89475594D01*
X161324523Y-89475594D02*
X161134047Y-89523213D01*
X161134047Y-89523213D02*
X160991190Y-89523213D01*
X160991190Y-89523213D02*
X160800714Y-89475594D01*
X160800714Y-89475594D02*
X160705476Y-89427975D01*
X160705476Y-89427975D02*
X160610238Y-89332737D01*
X160610238Y-89332737D02*
X160562619Y-89189880D01*
X160562619Y-89189880D02*
X160562619Y-89094642D01*
X160562619Y-89094642D02*
X160610238Y-88951785D01*
X160610238Y-88951785D02*
X160657857Y-88904166D01*
X160657857Y-88523213D02*
X160610238Y-88475594D01*
X160610238Y-88475594D02*
X160562619Y-88380356D01*
X160562619Y-88380356D02*
X160562619Y-88142261D01*
X160562619Y-88142261D02*
X160610238Y-88047023D01*
X160610238Y-88047023D02*
X160657857Y-87999404D01*
X160657857Y-87999404D02*
X160753095Y-87951785D01*
X160753095Y-87951785D02*
X160848333Y-87951785D01*
X160848333Y-87951785D02*
X160991190Y-87999404D01*
X160991190Y-87999404D02*
X161562619Y-88570832D01*
X161562619Y-88570832D02*
X161562619Y-87951785D01*
X117523282Y-96772670D02*
X117189949Y-96296479D01*
X116951854Y-96772670D02*
X116951854Y-95772670D01*
X116951854Y-95772670D02*
X117332806Y-95772670D01*
X117332806Y-95772670D02*
X117428044Y-95820289D01*
X117428044Y-95820289D02*
X117475663Y-95867908D01*
X117475663Y-95867908D02*
X117523282Y-95963146D01*
X117523282Y-95963146D02*
X117523282Y-96106003D01*
X117523282Y-96106003D02*
X117475663Y-96201241D01*
X117475663Y-96201241D02*
X117428044Y-96248860D01*
X117428044Y-96248860D02*
X117332806Y-96296479D01*
X117332806Y-96296479D02*
X116951854Y-96296479D01*
X118475663Y-96772670D02*
X117904235Y-96772670D01*
X118189949Y-96772670D02*
X118189949Y-95772670D01*
X118189949Y-95772670D02*
X118094711Y-95915527D01*
X118094711Y-95915527D02*
X117999473Y-96010765D01*
X117999473Y-96010765D02*
X117904235Y-96058384D01*
X152547091Y-96772670D02*
X152213758Y-96296479D01*
X151975663Y-96772670D02*
X151975663Y-95772670D01*
X151975663Y-95772670D02*
X152356615Y-95772670D01*
X152356615Y-95772670D02*
X152451853Y-95820289D01*
X152451853Y-95820289D02*
X152499472Y-95867908D01*
X152499472Y-95867908D02*
X152547091Y-95963146D01*
X152547091Y-95963146D02*
X152547091Y-96106003D01*
X152547091Y-96106003D02*
X152499472Y-96201241D01*
X152499472Y-96201241D02*
X152451853Y-96248860D01*
X152451853Y-96248860D02*
X152356615Y-96296479D01*
X152356615Y-96296479D02*
X151975663Y-96296479D01*
X153499472Y-96772670D02*
X152928044Y-96772670D01*
X153213758Y-96772670D02*
X153213758Y-95772670D01*
X153213758Y-95772670D02*
X153118520Y-95915527D01*
X153118520Y-95915527D02*
X153023282Y-96010765D01*
X153023282Y-96010765D02*
X152928044Y-96058384D01*
X154118520Y-95772670D02*
X154213758Y-95772670D01*
X154213758Y-95772670D02*
X154308996Y-95820289D01*
X154308996Y-95820289D02*
X154356615Y-95867908D01*
X154356615Y-95867908D02*
X154404234Y-95963146D01*
X154404234Y-95963146D02*
X154451853Y-96153622D01*
X154451853Y-96153622D02*
X154451853Y-96391717D01*
X154451853Y-96391717D02*
X154404234Y-96582193D01*
X154404234Y-96582193D02*
X154356615Y-96677431D01*
X154356615Y-96677431D02*
X154308996Y-96725051D01*
X154308996Y-96725051D02*
X154213758Y-96772670D01*
X154213758Y-96772670D02*
X154118520Y-96772670D01*
X154118520Y-96772670D02*
X154023282Y-96725051D01*
X154023282Y-96725051D02*
X153975663Y-96677431D01*
X153975663Y-96677431D02*
X153928044Y-96582193D01*
X153928044Y-96582193D02*
X153880425Y-96391717D01*
X153880425Y-96391717D02*
X153880425Y-96153622D01*
X153880425Y-96153622D02*
X153928044Y-95963146D01*
X153928044Y-95963146D02*
X153975663Y-95867908D01*
X153975663Y-95867908D02*
X154023282Y-95820289D01*
X154023282Y-95820289D02*
X154118520Y-95772670D01*
X127523282Y-96772670D02*
X127189949Y-96296479D01*
X126951854Y-96772670D02*
X126951854Y-95772670D01*
X126951854Y-95772670D02*
X127332806Y-95772670D01*
X127332806Y-95772670D02*
X127428044Y-95820289D01*
X127428044Y-95820289D02*
X127475663Y-95867908D01*
X127475663Y-95867908D02*
X127523282Y-95963146D01*
X127523282Y-95963146D02*
X127523282Y-96106003D01*
X127523282Y-96106003D02*
X127475663Y-96201241D01*
X127475663Y-96201241D02*
X127428044Y-96248860D01*
X127428044Y-96248860D02*
X127332806Y-96296479D01*
X127332806Y-96296479D02*
X126951854Y-96296479D01*
X127856616Y-95772670D02*
X128475663Y-95772670D01*
X128475663Y-95772670D02*
X128142330Y-96153622D01*
X128142330Y-96153622D02*
X128285187Y-96153622D01*
X128285187Y-96153622D02*
X128380425Y-96201241D01*
X128380425Y-96201241D02*
X128428044Y-96248860D01*
X128428044Y-96248860D02*
X128475663Y-96344098D01*
X128475663Y-96344098D02*
X128475663Y-96582193D01*
X128475663Y-96582193D02*
X128428044Y-96677431D01*
X128428044Y-96677431D02*
X128380425Y-96725051D01*
X128380425Y-96725051D02*
X128285187Y-96772670D01*
X128285187Y-96772670D02*
X127999473Y-96772670D01*
X127999473Y-96772670D02*
X127904235Y-96725051D01*
X127904235Y-96725051D02*
X127856616Y-96677431D01*
X147523282Y-96772670D02*
X147189949Y-96296479D01*
X146951854Y-96772670D02*
X146951854Y-95772670D01*
X146951854Y-95772670D02*
X147332806Y-95772670D01*
X147332806Y-95772670D02*
X147428044Y-95820289D01*
X147428044Y-95820289D02*
X147475663Y-95867908D01*
X147475663Y-95867908D02*
X147523282Y-95963146D01*
X147523282Y-95963146D02*
X147523282Y-96106003D01*
X147523282Y-96106003D02*
X147475663Y-96201241D01*
X147475663Y-96201241D02*
X147428044Y-96248860D01*
X147428044Y-96248860D02*
X147332806Y-96296479D01*
X147332806Y-96296479D02*
X146951854Y-96296479D01*
X147856616Y-95772670D02*
X148523282Y-95772670D01*
X148523282Y-95772670D02*
X148094711Y-96772670D01*
X182547091Y-96772670D02*
X182213758Y-96296479D01*
X181975663Y-96772670D02*
X181975663Y-95772670D01*
X181975663Y-95772670D02*
X182356615Y-95772670D01*
X182356615Y-95772670D02*
X182451853Y-95820289D01*
X182451853Y-95820289D02*
X182499472Y-95867908D01*
X182499472Y-95867908D02*
X182547091Y-95963146D01*
X182547091Y-95963146D02*
X182547091Y-96106003D01*
X182547091Y-96106003D02*
X182499472Y-96201241D01*
X182499472Y-96201241D02*
X182451853Y-96248860D01*
X182451853Y-96248860D02*
X182356615Y-96296479D01*
X182356615Y-96296479D02*
X181975663Y-96296479D01*
X183499472Y-96772670D02*
X182928044Y-96772670D01*
X183213758Y-96772670D02*
X183213758Y-95772670D01*
X183213758Y-95772670D02*
X183118520Y-95915527D01*
X183118520Y-95915527D02*
X183023282Y-96010765D01*
X183023282Y-96010765D02*
X182928044Y-96058384D01*
X184356615Y-95772670D02*
X184166139Y-95772670D01*
X184166139Y-95772670D02*
X184070901Y-95820289D01*
X184070901Y-95820289D02*
X184023282Y-95867908D01*
X184023282Y-95867908D02*
X183928044Y-96010765D01*
X183928044Y-96010765D02*
X183880425Y-96201241D01*
X183880425Y-96201241D02*
X183880425Y-96582193D01*
X183880425Y-96582193D02*
X183928044Y-96677431D01*
X183928044Y-96677431D02*
X183975663Y-96725051D01*
X183975663Y-96725051D02*
X184070901Y-96772670D01*
X184070901Y-96772670D02*
X184261377Y-96772670D01*
X184261377Y-96772670D02*
X184356615Y-96725051D01*
X184356615Y-96725051D02*
X184404234Y-96677431D01*
X184404234Y-96677431D02*
X184451853Y-96582193D01*
X184451853Y-96582193D02*
X184451853Y-96344098D01*
X184451853Y-96344098D02*
X184404234Y-96248860D01*
X184404234Y-96248860D02*
X184356615Y-96201241D01*
X184356615Y-96201241D02*
X184261377Y-96153622D01*
X184261377Y-96153622D02*
X184070901Y-96153622D01*
X184070901Y-96153622D02*
X183975663Y-96201241D01*
X183975663Y-96201241D02*
X183928044Y-96248860D01*
X183928044Y-96248860D02*
X183880425Y-96344098D01*
X123023282Y-96772670D02*
X122689949Y-96296479D01*
X122451854Y-96772670D02*
X122451854Y-95772670D01*
X122451854Y-95772670D02*
X122832806Y-95772670D01*
X122832806Y-95772670D02*
X122928044Y-95820289D01*
X122928044Y-95820289D02*
X122975663Y-95867908D01*
X122975663Y-95867908D02*
X123023282Y-95963146D01*
X123023282Y-95963146D02*
X123023282Y-96106003D01*
X123023282Y-96106003D02*
X122975663Y-96201241D01*
X122975663Y-96201241D02*
X122928044Y-96248860D01*
X122928044Y-96248860D02*
X122832806Y-96296479D01*
X122832806Y-96296479D02*
X122451854Y-96296479D01*
X123880425Y-96106003D02*
X123880425Y-96772670D01*
X123642330Y-95725051D02*
X123404235Y-96439336D01*
X123404235Y-96439336D02*
X124023282Y-96439336D01*
X137523282Y-96772670D02*
X137189949Y-96296479D01*
X136951854Y-96772670D02*
X136951854Y-95772670D01*
X136951854Y-95772670D02*
X137332806Y-95772670D01*
X137332806Y-95772670D02*
X137428044Y-95820289D01*
X137428044Y-95820289D02*
X137475663Y-95867908D01*
X137475663Y-95867908D02*
X137523282Y-95963146D01*
X137523282Y-95963146D02*
X137523282Y-96106003D01*
X137523282Y-96106003D02*
X137475663Y-96201241D01*
X137475663Y-96201241D02*
X137428044Y-96248860D01*
X137428044Y-96248860D02*
X137332806Y-96296479D01*
X137332806Y-96296479D02*
X136951854Y-96296479D01*
X138428044Y-95772670D02*
X137951854Y-95772670D01*
X137951854Y-95772670D02*
X137904235Y-96248860D01*
X137904235Y-96248860D02*
X137951854Y-96201241D01*
X137951854Y-96201241D02*
X138047092Y-96153622D01*
X138047092Y-96153622D02*
X138285187Y-96153622D01*
X138285187Y-96153622D02*
X138380425Y-96201241D01*
X138380425Y-96201241D02*
X138428044Y-96248860D01*
X138428044Y-96248860D02*
X138475663Y-96344098D01*
X138475663Y-96344098D02*
X138475663Y-96582193D01*
X138475663Y-96582193D02*
X138428044Y-96677431D01*
X138428044Y-96677431D02*
X138380425Y-96725051D01*
X138380425Y-96725051D02*
X138285187Y-96772670D01*
X138285187Y-96772670D02*
X138047092Y-96772670D01*
X138047092Y-96772670D02*
X137951854Y-96725051D01*
X137951854Y-96725051D02*
X137904235Y-96677431D01*
X172547091Y-96772670D02*
X172213758Y-96296479D01*
X171975663Y-96772670D02*
X171975663Y-95772670D01*
X171975663Y-95772670D02*
X172356615Y-95772670D01*
X172356615Y-95772670D02*
X172451853Y-95820289D01*
X172451853Y-95820289D02*
X172499472Y-95867908D01*
X172499472Y-95867908D02*
X172547091Y-95963146D01*
X172547091Y-95963146D02*
X172547091Y-96106003D01*
X172547091Y-96106003D02*
X172499472Y-96201241D01*
X172499472Y-96201241D02*
X172451853Y-96248860D01*
X172451853Y-96248860D02*
X172356615Y-96296479D01*
X172356615Y-96296479D02*
X171975663Y-96296479D01*
X173499472Y-96772670D02*
X172928044Y-96772670D01*
X173213758Y-96772670D02*
X173213758Y-95772670D01*
X173213758Y-95772670D02*
X173118520Y-95915527D01*
X173118520Y-95915527D02*
X173023282Y-96010765D01*
X173023282Y-96010765D02*
X172928044Y-96058384D01*
X174356615Y-96106003D02*
X174356615Y-96772670D01*
X174118520Y-95725051D02*
X173880425Y-96439336D01*
X173880425Y-96439336D02*
X174499472Y-96439336D01*
X157523282Y-96772670D02*
X157189949Y-96296479D01*
X156951854Y-96772670D02*
X156951854Y-95772670D01*
X156951854Y-95772670D02*
X157332806Y-95772670D01*
X157332806Y-95772670D02*
X157428044Y-95820289D01*
X157428044Y-95820289D02*
X157475663Y-95867908D01*
X157475663Y-95867908D02*
X157523282Y-95963146D01*
X157523282Y-95963146D02*
X157523282Y-96106003D01*
X157523282Y-96106003D02*
X157475663Y-96201241D01*
X157475663Y-96201241D02*
X157428044Y-96248860D01*
X157428044Y-96248860D02*
X157332806Y-96296479D01*
X157332806Y-96296479D02*
X156951854Y-96296479D01*
X157999473Y-96772670D02*
X158189949Y-96772670D01*
X158189949Y-96772670D02*
X158285187Y-96725051D01*
X158285187Y-96725051D02*
X158332806Y-96677431D01*
X158332806Y-96677431D02*
X158428044Y-96534574D01*
X158428044Y-96534574D02*
X158475663Y-96344098D01*
X158475663Y-96344098D02*
X158475663Y-95963146D01*
X158475663Y-95963146D02*
X158428044Y-95867908D01*
X158428044Y-95867908D02*
X158380425Y-95820289D01*
X158380425Y-95820289D02*
X158285187Y-95772670D01*
X158285187Y-95772670D02*
X158094711Y-95772670D01*
X158094711Y-95772670D02*
X157999473Y-95820289D01*
X157999473Y-95820289D02*
X157951854Y-95867908D01*
X157951854Y-95867908D02*
X157904235Y-95963146D01*
X157904235Y-95963146D02*
X157904235Y-96201241D01*
X157904235Y-96201241D02*
X157951854Y-96296479D01*
X157951854Y-96296479D02*
X157999473Y-96344098D01*
X157999473Y-96344098D02*
X158094711Y-96391717D01*
X158094711Y-96391717D02*
X158285187Y-96391717D01*
X158285187Y-96391717D02*
X158380425Y-96344098D01*
X158380425Y-96344098D02*
X158428044Y-96296479D01*
X158428044Y-96296479D02*
X158475663Y-96201241D01*
X143023282Y-96772670D02*
X142689949Y-96296479D01*
X142451854Y-96772670D02*
X142451854Y-95772670D01*
X142451854Y-95772670D02*
X142832806Y-95772670D01*
X142832806Y-95772670D02*
X142928044Y-95820289D01*
X142928044Y-95820289D02*
X142975663Y-95867908D01*
X142975663Y-95867908D02*
X143023282Y-95963146D01*
X143023282Y-95963146D02*
X143023282Y-96106003D01*
X143023282Y-96106003D02*
X142975663Y-96201241D01*
X142975663Y-96201241D02*
X142928044Y-96248860D01*
X142928044Y-96248860D02*
X142832806Y-96296479D01*
X142832806Y-96296479D02*
X142451854Y-96296479D01*
X143594711Y-96201241D02*
X143499473Y-96153622D01*
X143499473Y-96153622D02*
X143451854Y-96106003D01*
X143451854Y-96106003D02*
X143404235Y-96010765D01*
X143404235Y-96010765D02*
X143404235Y-95963146D01*
X143404235Y-95963146D02*
X143451854Y-95867908D01*
X143451854Y-95867908D02*
X143499473Y-95820289D01*
X143499473Y-95820289D02*
X143594711Y-95772670D01*
X143594711Y-95772670D02*
X143785187Y-95772670D01*
X143785187Y-95772670D02*
X143880425Y-95820289D01*
X143880425Y-95820289D02*
X143928044Y-95867908D01*
X143928044Y-95867908D02*
X143975663Y-95963146D01*
X143975663Y-95963146D02*
X143975663Y-96010765D01*
X143975663Y-96010765D02*
X143928044Y-96106003D01*
X143928044Y-96106003D02*
X143880425Y-96153622D01*
X143880425Y-96153622D02*
X143785187Y-96201241D01*
X143785187Y-96201241D02*
X143594711Y-96201241D01*
X143594711Y-96201241D02*
X143499473Y-96248860D01*
X143499473Y-96248860D02*
X143451854Y-96296479D01*
X143451854Y-96296479D02*
X143404235Y-96391717D01*
X143404235Y-96391717D02*
X143404235Y-96582193D01*
X143404235Y-96582193D02*
X143451854Y-96677431D01*
X143451854Y-96677431D02*
X143499473Y-96725051D01*
X143499473Y-96725051D02*
X143594711Y-96772670D01*
X143594711Y-96772670D02*
X143785187Y-96772670D01*
X143785187Y-96772670D02*
X143880425Y-96725051D01*
X143880425Y-96725051D02*
X143928044Y-96677431D01*
X143928044Y-96677431D02*
X143975663Y-96582193D01*
X143975663Y-96582193D02*
X143975663Y-96391717D01*
X143975663Y-96391717D02*
X143928044Y-96296479D01*
X143928044Y-96296479D02*
X143880425Y-96248860D01*
X143880425Y-96248860D02*
X143785187Y-96201241D01*
X177047091Y-96722670D02*
X176713758Y-96246479D01*
X176475663Y-96722670D02*
X176475663Y-95722670D01*
X176475663Y-95722670D02*
X176856615Y-95722670D01*
X176856615Y-95722670D02*
X176951853Y-95770289D01*
X176951853Y-95770289D02*
X176999472Y-95817908D01*
X176999472Y-95817908D02*
X177047091Y-95913146D01*
X177047091Y-95913146D02*
X177047091Y-96056003D01*
X177047091Y-96056003D02*
X176999472Y-96151241D01*
X176999472Y-96151241D02*
X176951853Y-96198860D01*
X176951853Y-96198860D02*
X176856615Y-96246479D01*
X176856615Y-96246479D02*
X176475663Y-96246479D01*
X177999472Y-96722670D02*
X177428044Y-96722670D01*
X177713758Y-96722670D02*
X177713758Y-95722670D01*
X177713758Y-95722670D02*
X177618520Y-95865527D01*
X177618520Y-95865527D02*
X177523282Y-95960765D01*
X177523282Y-95960765D02*
X177428044Y-96008384D01*
X178332806Y-95722670D02*
X178951853Y-95722670D01*
X178951853Y-95722670D02*
X178618520Y-96103622D01*
X178618520Y-96103622D02*
X178761377Y-96103622D01*
X178761377Y-96103622D02*
X178856615Y-96151241D01*
X178856615Y-96151241D02*
X178904234Y-96198860D01*
X178904234Y-96198860D02*
X178951853Y-96294098D01*
X178951853Y-96294098D02*
X178951853Y-96532193D01*
X178951853Y-96532193D02*
X178904234Y-96627431D01*
X178904234Y-96627431D02*
X178856615Y-96675051D01*
X178856615Y-96675051D02*
X178761377Y-96722670D01*
X178761377Y-96722670D02*
X178475663Y-96722670D01*
X178475663Y-96722670D02*
X178380425Y-96675051D01*
X178380425Y-96675051D02*
X178332806Y-96627431D01*
X187047091Y-96722670D02*
X186713758Y-96246479D01*
X186475663Y-96722670D02*
X186475663Y-95722670D01*
X186475663Y-95722670D02*
X186856615Y-95722670D01*
X186856615Y-95722670D02*
X186951853Y-95770289D01*
X186951853Y-95770289D02*
X186999472Y-95817908D01*
X186999472Y-95817908D02*
X187047091Y-95913146D01*
X187047091Y-95913146D02*
X187047091Y-96056003D01*
X187047091Y-96056003D02*
X186999472Y-96151241D01*
X186999472Y-96151241D02*
X186951853Y-96198860D01*
X186951853Y-96198860D02*
X186856615Y-96246479D01*
X186856615Y-96246479D02*
X186475663Y-96246479D01*
X187999472Y-96722670D02*
X187428044Y-96722670D01*
X187713758Y-96722670D02*
X187713758Y-95722670D01*
X187713758Y-95722670D02*
X187618520Y-95865527D01*
X187618520Y-95865527D02*
X187523282Y-95960765D01*
X187523282Y-95960765D02*
X187428044Y-96008384D01*
X188904234Y-95722670D02*
X188428044Y-95722670D01*
X188428044Y-95722670D02*
X188380425Y-96198860D01*
X188380425Y-96198860D02*
X188428044Y-96151241D01*
X188428044Y-96151241D02*
X188523282Y-96103622D01*
X188523282Y-96103622D02*
X188761377Y-96103622D01*
X188761377Y-96103622D02*
X188856615Y-96151241D01*
X188856615Y-96151241D02*
X188904234Y-96198860D01*
X188904234Y-96198860D02*
X188951853Y-96294098D01*
X188951853Y-96294098D02*
X188951853Y-96532193D01*
X188951853Y-96532193D02*
X188904234Y-96627431D01*
X188904234Y-96627431D02*
X188856615Y-96675051D01*
X188856615Y-96675051D02*
X188761377Y-96722670D01*
X188761377Y-96722670D02*
X188523282Y-96722670D01*
X188523282Y-96722670D02*
X188428044Y-96675051D01*
X188428044Y-96675051D02*
X188380425Y-96627431D01*
D12*
X145940000Y-87500000D02*
X145940000Y-85550000D01*
X156060000Y-87500000D02*
X156060000Y-89450000D01*
X145940000Y-87500000D02*
X145940000Y-89450000D01*
X156060000Y-87500000D02*
X156060000Y-84050000D01*
X133417013Y-98545051D02*
X132962885Y-98545051D01*
X133417013Y-97075051D02*
X132962885Y-97075051D01*
X113417013Y-98545051D02*
X112962885Y-98545051D01*
X113417013Y-97075051D02*
X112962885Y-97075051D01*
X157359949Y-104310051D02*
X157359949Y-100310051D01*
X157069949Y-105340051D02*
X157069949Y-99320051D01*
X157069949Y-99320051D02*
X151769949Y-99320051D01*
X156489949Y-105340051D02*
X156489949Y-104740051D01*
X156489949Y-104740051D02*
X154889949Y-104740051D01*
X155689949Y-100320051D02*
X155439949Y-100850051D01*
X155689949Y-100320051D02*
X153149949Y-100320051D01*
X155689949Y-99320051D02*
X155689949Y-100320051D01*
X155439949Y-100850051D02*
X153399949Y-100850051D01*
X155439949Y-99320051D02*
X155439949Y-100320051D01*
X154889949Y-104740051D02*
X154889949Y-105340051D01*
X153949949Y-105340051D02*
X153949949Y-104740051D01*
X153949949Y-104740051D02*
X152349949Y-104740051D01*
X153399949Y-100850051D02*
X153149949Y-100320051D01*
X153399949Y-99320051D02*
X153399949Y-100320051D01*
X153149949Y-100320051D02*
X153149949Y-99320051D01*
X152349949Y-104740051D02*
X152349949Y-105340051D01*
X151769949Y-105340051D02*
X157069949Y-105340051D01*
X151769949Y-99320051D02*
X151769949Y-105340051D01*
X186169949Y-81560051D02*
X182169949Y-81560051D01*
X187199949Y-81850051D02*
X181179949Y-81850051D01*
X181179949Y-81850051D02*
X181179949Y-94770051D01*
X187199949Y-82430051D02*
X186599949Y-82430051D01*
X186599949Y-82430051D02*
X186599949Y-84030051D01*
X182179949Y-83230051D02*
X182709949Y-83480051D01*
X182179949Y-83230051D02*
X182179949Y-93390051D01*
X181179949Y-83230051D02*
X182179949Y-83230051D01*
X182709949Y-83480051D02*
X182709949Y-93140051D01*
X181179949Y-83480051D02*
X182179949Y-83480051D01*
X186599949Y-84030051D02*
X187199949Y-84030051D01*
X187199949Y-84970051D02*
X186599949Y-84970051D01*
X186599949Y-84970051D02*
X186599949Y-86570051D01*
X186599949Y-86570051D02*
X187199949Y-86570051D01*
X187199949Y-87510051D02*
X186599949Y-87510051D01*
X186599949Y-87510051D02*
X186599949Y-89110051D01*
X186599949Y-89110051D02*
X187199949Y-89110051D01*
X187199949Y-90050051D02*
X186599949Y-90050051D01*
X186599949Y-90050051D02*
X186599949Y-91650051D01*
X186599949Y-91650051D02*
X187199949Y-91650051D01*
X187199949Y-92590051D02*
X186599949Y-92590051D01*
X186599949Y-92590051D02*
X186599949Y-94190051D01*
X182709949Y-93140051D02*
X182179949Y-93390051D01*
X181179949Y-93140051D02*
X182179949Y-93140051D01*
X182179949Y-93390051D02*
X181179949Y-93390051D01*
X186599949Y-94190051D02*
X187199949Y-94190051D01*
X187199949Y-94770051D02*
X187199949Y-81850051D01*
X181179949Y-94770051D02*
X187199949Y-94770051D01*
X137359949Y-104310051D02*
X137359949Y-100310051D01*
X137069949Y-105340051D02*
X137069949Y-99320051D01*
X137069949Y-99320051D02*
X131769949Y-99320051D01*
X136489949Y-105340051D02*
X136489949Y-104740051D01*
X136489949Y-104740051D02*
X134889949Y-104740051D01*
X135689949Y-100320051D02*
X135439949Y-100850051D01*
X135689949Y-100320051D02*
X133149949Y-100320051D01*
X135689949Y-99320051D02*
X135689949Y-100320051D01*
X135439949Y-100850051D02*
X133399949Y-100850051D01*
X135439949Y-99320051D02*
X135439949Y-100320051D01*
X134889949Y-104740051D02*
X134889949Y-105340051D01*
X133949949Y-105340051D02*
X133949949Y-104740051D01*
X133949949Y-104740051D02*
X132349949Y-104740051D01*
X133399949Y-100850051D02*
X133149949Y-100320051D01*
X133399949Y-99320051D02*
X133399949Y-100320051D01*
X133149949Y-100320051D02*
X133149949Y-99320051D01*
X132349949Y-104740051D02*
X132349949Y-105340051D01*
X131769949Y-105340051D02*
X137069949Y-105340051D01*
X131769949Y-99320051D02*
X131769949Y-105340051D01*
X167462885Y-97075051D02*
X167917013Y-97075051D01*
X167462885Y-98545051D02*
X167917013Y-98545051D01*
X127359949Y-104310051D02*
X127359949Y-100310051D01*
X127069949Y-105340051D02*
X127069949Y-99320051D01*
X127069949Y-99320051D02*
X121769949Y-99320051D01*
X126489949Y-105340051D02*
X126489949Y-104740051D01*
X126489949Y-104740051D02*
X124889949Y-104740051D01*
X125689949Y-100320051D02*
X125439949Y-100850051D01*
X125689949Y-100320051D02*
X123149949Y-100320051D01*
X125689949Y-99320051D02*
X125689949Y-100320051D01*
X125439949Y-100850051D02*
X123399949Y-100850051D01*
X125439949Y-99320051D02*
X125439949Y-100320051D01*
X124889949Y-104740051D02*
X124889949Y-105340051D01*
X123949949Y-105340051D02*
X123949949Y-104740051D01*
X123949949Y-104740051D02*
X122349949Y-104740051D01*
X123399949Y-100850051D02*
X123149949Y-100320051D01*
X123399949Y-99320051D02*
X123399949Y-100320051D01*
X123149949Y-100320051D02*
X123149949Y-99320051D01*
X122349949Y-104740051D02*
X122349949Y-105340051D01*
X121769949Y-105340051D02*
X127069949Y-105340051D01*
X121769949Y-99320051D02*
X121769949Y-105340051D01*
X136819949Y-100980051D02*
X138149949Y-100980051D01*
X136819949Y-102310051D02*
X136819949Y-100980051D01*
X136819949Y-103580051D02*
X136819949Y-103640051D01*
X136819949Y-103580051D02*
X139479949Y-103580051D01*
X136819949Y-103640051D02*
X139479949Y-103640051D01*
X139479949Y-103580051D02*
X139479949Y-103640051D01*
X126819949Y-100980051D02*
X128149949Y-100980051D01*
X126819949Y-102310051D02*
X126819949Y-100980051D01*
X126819949Y-103580051D02*
X126819949Y-103640051D01*
X126819949Y-103580051D02*
X129479949Y-103580051D01*
X126819949Y-103640051D02*
X129479949Y-103640051D01*
X129479949Y-103580051D02*
X129479949Y-103640051D01*
X167359949Y-104310051D02*
X167359949Y-100310051D01*
X167069949Y-105340051D02*
X167069949Y-99320051D01*
X167069949Y-99320051D02*
X161769949Y-99320051D01*
X166489949Y-105340051D02*
X166489949Y-104740051D01*
X166489949Y-104740051D02*
X164889949Y-104740051D01*
X165689949Y-100320051D02*
X165439949Y-100850051D01*
X165689949Y-100320051D02*
X163149949Y-100320051D01*
X165689949Y-99320051D02*
X165689949Y-100320051D01*
X165439949Y-100850051D02*
X163399949Y-100850051D01*
X165439949Y-99320051D02*
X165439949Y-100320051D01*
X164889949Y-104740051D02*
X164889949Y-105340051D01*
X163949949Y-105340051D02*
X163949949Y-104740051D01*
X163949949Y-104740051D02*
X162349949Y-104740051D01*
X163399949Y-100850051D02*
X163149949Y-100320051D01*
X163399949Y-99320051D02*
X163399949Y-100320051D01*
X163149949Y-100320051D02*
X163149949Y-99320051D01*
X162349949Y-104740051D02*
X162349949Y-105340051D01*
X161769949Y-105340051D02*
X167069949Y-105340051D01*
X161769949Y-99320051D02*
X161769949Y-105340051D01*
X112709949Y-95060051D02*
X116709949Y-95060051D01*
X111679949Y-94770051D02*
X117699949Y-94770051D01*
X117699949Y-94770051D02*
X117699949Y-81850051D01*
X111679949Y-94190051D02*
X112279949Y-94190051D01*
X112279949Y-94190051D02*
X112279949Y-92590051D01*
X116699949Y-93390051D02*
X116169949Y-93140051D01*
X116699949Y-93390051D02*
X116699949Y-83230051D01*
X117699949Y-93390051D02*
X116699949Y-93390051D01*
X116169949Y-93140051D02*
X116169949Y-83480051D01*
X117699949Y-93140051D02*
X116699949Y-93140051D01*
X112279949Y-92590051D02*
X111679949Y-92590051D01*
X111679949Y-91650051D02*
X112279949Y-91650051D01*
X112279949Y-91650051D02*
X112279949Y-90050051D01*
X112279949Y-90050051D02*
X111679949Y-90050051D01*
X111679949Y-89110051D02*
X112279949Y-89110051D01*
X112279949Y-89110051D02*
X112279949Y-87510051D01*
X112279949Y-87510051D02*
X111679949Y-87510051D01*
X111679949Y-86570051D02*
X112279949Y-86570051D01*
X112279949Y-86570051D02*
X112279949Y-84970051D01*
X112279949Y-84970051D02*
X111679949Y-84970051D01*
X111679949Y-84030051D02*
X112279949Y-84030051D01*
X112279949Y-84030051D02*
X112279949Y-82430051D01*
X116169949Y-83480051D02*
X116699949Y-83230051D01*
X117699949Y-83480051D02*
X116699949Y-83480051D01*
X116699949Y-83230051D02*
X117699949Y-83230051D01*
X112279949Y-82430051D02*
X111679949Y-82430051D01*
X111679949Y-81850051D02*
X111679949Y-94770051D01*
X117699949Y-81850051D02*
X111679949Y-81850051D01*
X116819949Y-100980051D02*
X118149949Y-100980051D01*
X116819949Y-102310051D02*
X116819949Y-100980051D01*
X116819949Y-103580051D02*
X116819949Y-103640051D01*
X116819949Y-103580051D02*
X119479949Y-103580051D01*
X116819949Y-103640051D02*
X119479949Y-103640051D01*
X119479949Y-103580051D02*
X119479949Y-103640051D01*
X142067000Y-85580000D02*
X142667000Y-85580000D01*
X143367000Y-86280000D02*
X143367000Y-87680000D01*
X141367000Y-87680000D02*
X141367000Y-86280000D01*
X142667000Y-88380000D02*
X142067000Y-88380000D01*
X143367000Y-86280000D02*
G75*
G03*
X142667000Y-85580000I-699999J1D01*
G01*
X142067000Y-85580000D02*
G75*
G03*
X141367000Y-86280000I-1J-699999D01*
G01*
X142667000Y-88380000D02*
G75*
G03*
X143367000Y-87680000I0J700000D01*
G01*
X141367000Y-87680000D02*
G75*
G03*
X142067000Y-88380000I700000J0D01*
G01*
X177359949Y-104310051D02*
X177359949Y-100310051D01*
X177069949Y-105340051D02*
X177069949Y-99320051D01*
X177069949Y-99320051D02*
X171769949Y-99320051D01*
X176489949Y-105340051D02*
X176489949Y-104740051D01*
X176489949Y-104740051D02*
X174889949Y-104740051D01*
X175689949Y-100320051D02*
X175439949Y-100850051D01*
X175689949Y-100320051D02*
X173149949Y-100320051D01*
X175689949Y-99320051D02*
X175689949Y-100320051D01*
X175439949Y-100850051D02*
X173399949Y-100850051D01*
X175439949Y-99320051D02*
X175439949Y-100320051D01*
X174889949Y-104740051D02*
X174889949Y-105340051D01*
X173949949Y-105340051D02*
X173949949Y-104740051D01*
X173949949Y-104740051D02*
X172349949Y-104740051D01*
X173399949Y-100850051D02*
X173149949Y-100320051D01*
X173399949Y-99320051D02*
X173399949Y-100320051D01*
X173149949Y-100320051D02*
X173149949Y-99320051D01*
X172349949Y-104740051D02*
X172349949Y-105340051D01*
X171769949Y-105340051D02*
X177069949Y-105340051D01*
X171769949Y-99320051D02*
X171769949Y-105340051D01*
X163417013Y-98545051D02*
X162962885Y-98545051D01*
X163417013Y-97075051D02*
X162962885Y-97075051D01*
X176819949Y-100980051D02*
X178149949Y-100980051D01*
X176819949Y-102310051D02*
X176819949Y-100980051D01*
X176819949Y-103580051D02*
X176819949Y-103640051D01*
X176819949Y-103580051D02*
X179479949Y-103580051D01*
X176819949Y-103640051D02*
X179479949Y-103640051D01*
X179479949Y-103580051D02*
X179479949Y-103640051D01*
X158365000Y-88998752D02*
X158365000Y-88476248D01*
X159835000Y-88998752D02*
X159835000Y-88476248D01*
X146819949Y-100980051D02*
X148149949Y-100980051D01*
X146819949Y-102310051D02*
X146819949Y-100980051D01*
X146819949Y-103580051D02*
X146819949Y-103640051D01*
X146819949Y-103580051D02*
X149479949Y-103580051D01*
X146819949Y-103640051D02*
X149479949Y-103640051D01*
X149479949Y-103580051D02*
X149479949Y-103640051D01*
X117462885Y-97075051D02*
X117917013Y-97075051D01*
X117462885Y-98545051D02*
X117917013Y-98545051D01*
X153417013Y-98545051D02*
X152962885Y-98545051D01*
X153417013Y-97075051D02*
X152962885Y-97075051D01*
X186819949Y-100980051D02*
X188149949Y-100980051D01*
X186819949Y-102310051D02*
X186819949Y-100980051D01*
X186819949Y-103580051D02*
X186819949Y-103640051D01*
X186819949Y-103580051D02*
X189479949Y-103580051D01*
X186819949Y-103640051D02*
X189479949Y-103640051D01*
X189479949Y-103580051D02*
X189479949Y-103640051D01*
X166819949Y-100980051D02*
X168149949Y-100980051D01*
X166819949Y-102310051D02*
X166819949Y-100980051D01*
X166819949Y-103580051D02*
X166819949Y-103640051D01*
X166819949Y-103580051D02*
X169479949Y-103580051D01*
X166819949Y-103640051D02*
X169479949Y-103640051D01*
X169479949Y-103580051D02*
X169479949Y-103640051D01*
X127462885Y-97075051D02*
X127917013Y-97075051D01*
X127462885Y-98545051D02*
X127917013Y-98545051D01*
X117359949Y-104310051D02*
X117359949Y-100310051D01*
X117069949Y-105340051D02*
X117069949Y-99320051D01*
X117069949Y-99320051D02*
X111769949Y-99320051D01*
X116489949Y-105340051D02*
X116489949Y-104740051D01*
X116489949Y-104740051D02*
X114889949Y-104740051D01*
X115689949Y-100320051D02*
X115439949Y-100850051D01*
X115689949Y-100320051D02*
X113149949Y-100320051D01*
X115689949Y-99320051D02*
X115689949Y-100320051D01*
X115439949Y-100850051D02*
X113399949Y-100850051D01*
X115439949Y-99320051D02*
X115439949Y-100320051D01*
X114889949Y-104740051D02*
X114889949Y-105340051D01*
X113949949Y-105340051D02*
X113949949Y-104740051D01*
X113949949Y-104740051D02*
X112349949Y-104740051D01*
X113399949Y-100850051D02*
X113149949Y-100320051D01*
X113399949Y-99320051D02*
X113399949Y-100320051D01*
X113149949Y-100320051D02*
X113149949Y-99320051D01*
X112349949Y-104740051D02*
X112349949Y-105340051D01*
X111769949Y-105340051D02*
X117069949Y-105340051D01*
X111769949Y-99320051D02*
X111769949Y-105340051D01*
X147462885Y-97075051D02*
X147917013Y-97075051D01*
X147462885Y-98545051D02*
X147917013Y-98545051D01*
X183417013Y-98545051D02*
X182962885Y-98545051D01*
X183417013Y-97075051D02*
X182962885Y-97075051D01*
X123417013Y-98545051D02*
X122962885Y-98545051D01*
X123417013Y-97075051D02*
X122962885Y-97075051D01*
X137462885Y-97075051D02*
X137917013Y-97075051D01*
X137462885Y-98545051D02*
X137917013Y-98545051D01*
X173417013Y-98545051D02*
X172962885Y-98545051D01*
X173417013Y-97075051D02*
X172962885Y-97075051D01*
X187359949Y-104310051D02*
X187359949Y-100310051D01*
X187069949Y-105340051D02*
X187069949Y-99320051D01*
X187069949Y-99320051D02*
X181769949Y-99320051D01*
X186489949Y-105340051D02*
X186489949Y-104740051D01*
X186489949Y-104740051D02*
X184889949Y-104740051D01*
X185689949Y-100320051D02*
X185439949Y-100850051D01*
X185689949Y-100320051D02*
X183149949Y-100320051D01*
X185689949Y-99320051D02*
X185689949Y-100320051D01*
X185439949Y-100850051D02*
X183399949Y-100850051D01*
X185439949Y-99320051D02*
X185439949Y-100320051D01*
X184889949Y-104740051D02*
X184889949Y-105340051D01*
X183949949Y-105340051D02*
X183949949Y-104740051D01*
X183949949Y-104740051D02*
X182349949Y-104740051D01*
X183399949Y-100850051D02*
X183149949Y-100320051D01*
X183399949Y-99320051D02*
X183399949Y-100320051D01*
X183149949Y-100320051D02*
X183149949Y-99320051D01*
X182349949Y-104740051D02*
X182349949Y-105340051D01*
X181769949Y-105340051D02*
X187069949Y-105340051D01*
X181769949Y-99320051D02*
X181769949Y-105340051D01*
X157462885Y-97075051D02*
X157917013Y-97075051D01*
X157462885Y-98545051D02*
X157917013Y-98545051D01*
X143417013Y-98545051D02*
X142962885Y-98545051D01*
X143417013Y-97075051D02*
X142962885Y-97075051D01*
X177462885Y-97075051D02*
X177917013Y-97075051D01*
X177462885Y-98545051D02*
X177917013Y-98545051D01*
X147359949Y-104310051D02*
X147359949Y-100310051D01*
X147069949Y-105340051D02*
X147069949Y-99320051D01*
X147069949Y-99320051D02*
X141769949Y-99320051D01*
X146489949Y-105340051D02*
X146489949Y-104740051D01*
X146489949Y-104740051D02*
X144889949Y-104740051D01*
X145689949Y-100320051D02*
X145439949Y-100850051D01*
X145689949Y-100320051D02*
X143149949Y-100320051D01*
X145689949Y-99320051D02*
X145689949Y-100320051D01*
X145439949Y-100850051D02*
X143399949Y-100850051D01*
X145439949Y-99320051D02*
X145439949Y-100320051D01*
X144889949Y-104740051D02*
X144889949Y-105340051D01*
X143949949Y-105340051D02*
X143949949Y-104740051D01*
X143949949Y-104740051D02*
X142349949Y-104740051D01*
X143399949Y-100850051D02*
X143149949Y-100320051D01*
X143399949Y-99320051D02*
X143399949Y-100320051D01*
X143149949Y-100320051D02*
X143149949Y-99320051D01*
X142349949Y-104740051D02*
X142349949Y-105340051D01*
X141769949Y-105340051D02*
X147069949Y-105340051D01*
X141769949Y-99320051D02*
X141769949Y-105340051D01*
X187462885Y-97075051D02*
X187917013Y-97075051D01*
X187462885Y-98545051D02*
X187917013Y-98545051D01*
X156819949Y-100980051D02*
X158149949Y-100980051D01*
X156819949Y-102310051D02*
X156819949Y-100980051D01*
X156819949Y-103580051D02*
X156819949Y-103640051D01*
X156819949Y-103580051D02*
X159479949Y-103580051D01*
X156819949Y-103640051D02*
X159479949Y-103640051D01*
X159479949Y-103580051D02*
X159479949Y-103640051D01*
%LPC*%
D13*
X155445000Y-85025000D03*
X154175000Y-85025000D03*
X152905000Y-85025000D03*
X151635000Y-85025000D03*
X150365000Y-85025000D03*
X149095000Y-85025000D03*
X147825000Y-85025000D03*
X146555000Y-85025000D03*
X146555000Y-89975000D03*
X147825000Y-89975000D03*
X149095000Y-89975000D03*
X150365000Y-89975000D03*
X151635000Y-89975000D03*
X152905000Y-89975000D03*
X154175000Y-89975000D03*
X155445000Y-89975000D03*
D14*
X134189949Y-97810051D03*
X132189949Y-97810051D03*
X114189949Y-97810051D03*
X112189949Y-97810051D03*
D15*
X155689949Y-102310051D03*
D16*
X153149949Y-102310051D03*
D17*
X184169949Y-83230051D03*
D18*
X184169949Y-85770051D03*
X184169949Y-88310051D03*
X184169949Y-90850051D03*
X184169949Y-93390051D03*
D15*
X135689949Y-102310051D03*
D16*
X133149949Y-102310051D03*
D19*
X166689949Y-97810051D03*
X168689949Y-97810051D03*
D15*
X125689949Y-102310051D03*
D16*
X123149949Y-102310051D03*
D20*
X138149949Y-102310051D03*
X128149949Y-102310051D03*
D15*
X165689949Y-102310051D03*
D16*
X163149949Y-102310051D03*
D21*
X114709949Y-93390051D03*
D18*
X114709949Y-90850051D03*
X114709949Y-88310051D03*
X114709949Y-85770051D03*
X114709949Y-83230051D03*
D22*
X177189949Y-88310051D03*
D20*
X118149949Y-102310051D03*
D23*
X142367000Y-86330000D03*
D24*
X142367000Y-87630000D03*
D15*
X175689949Y-102310051D03*
D16*
X173149949Y-102310051D03*
D14*
X164189949Y-97810051D03*
X162189949Y-97810051D03*
D20*
X178149949Y-102310051D03*
D25*
X159100000Y-89775000D03*
X159100000Y-87700000D03*
D20*
X148149949Y-102310051D03*
D19*
X116689949Y-97810051D03*
X118689949Y-97810051D03*
D14*
X154189949Y-97810051D03*
X152189949Y-97810051D03*
D20*
X188149949Y-102310051D03*
X168149949Y-102310051D03*
D19*
X126689949Y-97810051D03*
X128689949Y-97810051D03*
D15*
X115689949Y-102310051D03*
D16*
X113149949Y-102310051D03*
D19*
X146689949Y-97810051D03*
X148689949Y-97810051D03*
D14*
X184189949Y-97810051D03*
X182189949Y-97810051D03*
X124189949Y-97810051D03*
X122189949Y-97810051D03*
D19*
X136689949Y-97810051D03*
X138689949Y-97810051D03*
D14*
X174189949Y-97810051D03*
X172189949Y-97810051D03*
D15*
X185689949Y-102310051D03*
D16*
X183149949Y-102310051D03*
D19*
X156689949Y-97810051D03*
X158689949Y-97810051D03*
D14*
X144189949Y-97810051D03*
X142189949Y-97810051D03*
D19*
X176689949Y-97810051D03*
X178689949Y-97810051D03*
D15*
X145689949Y-102310051D03*
D16*
X143149949Y-102310051D03*
D19*
X186689949Y-97810051D03*
X188689949Y-97810051D03*
D22*
X121689949Y-88310051D03*
D20*
X158149949Y-102310051D03*
M02*
