%TF.GenerationSoftware,KiCad,Pcbnew,7.0.1*%
%TF.CreationDate,2023-07-05T13:56:53-05:00*%
%TF.ProjectId,shift in breakout board,73686966-7420-4696-9e20-627265616b6f,rev?*%
%TF.SameCoordinates,Original*%
%TF.FileFunction,Drillmap*%
%TF.FilePolarity,Positive*%
%FSLAX45Y45*%
G04 Gerber Fmt 4.5, Leading zero omitted, Abs format (unit mm)*
G04 Created by KiCad (PCBNEW 7.0.1) date 2023-07-05 13:56:53*
%MOMM*%
%LPD*%
G01*
G04 APERTURE LIST*
%ADD10C,0.100000*%
%ADD11C,0.200000*%
%ADD12C,0.320000*%
G04 APERTURE END LIST*
D10*
X15646400Y-9144000D02*
X20142200Y-9144000D01*
X20142200Y-5334000D02*
X15646400Y-5334000D01*
X15240000Y-8737600D02*
G75*
G03*
X15646400Y-9144000I406400J0D01*
G01*
X20142200Y-9144000D02*
G75*
G03*
X20548600Y-8737600I0J406400D01*
G01*
X15240000Y-5740400D02*
X15240000Y-8737600D01*
X15646400Y-5334000D02*
G75*
G03*
X15240000Y-5740400I0J-406400D01*
G01*
X20548600Y-5740400D02*
G75*
G03*
X20142200Y-5334000I-406400J0D01*
G01*
X20548600Y-8737600D02*
X20548600Y-5740400D01*
D11*
D12*
X15582200Y-5577600D02*
X15902200Y-5897600D01*
X15902200Y-5577600D02*
X15582200Y-5897600D01*
X15582200Y-8577600D02*
X15902200Y-8897600D01*
X15902200Y-8577600D02*
X15582200Y-8897600D01*
X19982200Y-5577600D02*
X20302200Y-5897600D01*
X20302200Y-5577600D02*
X19982200Y-5897600D01*
X19982200Y-8577600D02*
X20302200Y-8897600D01*
X20302200Y-8577600D02*
X19982200Y-8897600D01*
D11*
X15482619Y-9461524D02*
X15482619Y-9261524D01*
X15482619Y-9261524D02*
X15530238Y-9261524D01*
X15530238Y-9261524D02*
X15558809Y-9271048D01*
X15558809Y-9271048D02*
X15577857Y-9290095D01*
X15577857Y-9290095D02*
X15587381Y-9309143D01*
X15587381Y-9309143D02*
X15596905Y-9347238D01*
X15596905Y-9347238D02*
X15596905Y-9375810D01*
X15596905Y-9375810D02*
X15587381Y-9413905D01*
X15587381Y-9413905D02*
X15577857Y-9432952D01*
X15577857Y-9432952D02*
X15558809Y-9452000D01*
X15558809Y-9452000D02*
X15530238Y-9461524D01*
X15530238Y-9461524D02*
X15482619Y-9461524D01*
X15682619Y-9461524D02*
X15682619Y-9328190D01*
X15682619Y-9366286D02*
X15692143Y-9347238D01*
X15692143Y-9347238D02*
X15701667Y-9337714D01*
X15701667Y-9337714D02*
X15720714Y-9328190D01*
X15720714Y-9328190D02*
X15739762Y-9328190D01*
X15806428Y-9461524D02*
X15806428Y-9328190D01*
X15806428Y-9261524D02*
X15796905Y-9271048D01*
X15796905Y-9271048D02*
X15806428Y-9280571D01*
X15806428Y-9280571D02*
X15815952Y-9271048D01*
X15815952Y-9271048D02*
X15806428Y-9261524D01*
X15806428Y-9261524D02*
X15806428Y-9280571D01*
X15930238Y-9461524D02*
X15911190Y-9452000D01*
X15911190Y-9452000D02*
X15901667Y-9432952D01*
X15901667Y-9432952D02*
X15901667Y-9261524D01*
X16035000Y-9461524D02*
X16015952Y-9452000D01*
X16015952Y-9452000D02*
X16006428Y-9432952D01*
X16006428Y-9432952D02*
X16006428Y-9261524D01*
X16263571Y-9461524D02*
X16263571Y-9261524D01*
X16263571Y-9261524D02*
X16330238Y-9404381D01*
X16330238Y-9404381D02*
X16396905Y-9261524D01*
X16396905Y-9261524D02*
X16396905Y-9461524D01*
X16577857Y-9461524D02*
X16577857Y-9356762D01*
X16577857Y-9356762D02*
X16568333Y-9337714D01*
X16568333Y-9337714D02*
X16549286Y-9328190D01*
X16549286Y-9328190D02*
X16511190Y-9328190D01*
X16511190Y-9328190D02*
X16492143Y-9337714D01*
X16577857Y-9452000D02*
X16558809Y-9461524D01*
X16558809Y-9461524D02*
X16511190Y-9461524D01*
X16511190Y-9461524D02*
X16492143Y-9452000D01*
X16492143Y-9452000D02*
X16482619Y-9432952D01*
X16482619Y-9432952D02*
X16482619Y-9413905D01*
X16482619Y-9413905D02*
X16492143Y-9394857D01*
X16492143Y-9394857D02*
X16511190Y-9385333D01*
X16511190Y-9385333D02*
X16558809Y-9385333D01*
X16558809Y-9385333D02*
X16577857Y-9375810D01*
X16673095Y-9328190D02*
X16673095Y-9528190D01*
X16673095Y-9337714D02*
X16692143Y-9328190D01*
X16692143Y-9328190D02*
X16730238Y-9328190D01*
X16730238Y-9328190D02*
X16749286Y-9337714D01*
X16749286Y-9337714D02*
X16758809Y-9347238D01*
X16758809Y-9347238D02*
X16768333Y-9366286D01*
X16768333Y-9366286D02*
X16768333Y-9423429D01*
X16768333Y-9423429D02*
X16758809Y-9442476D01*
X16758809Y-9442476D02*
X16749286Y-9452000D01*
X16749286Y-9452000D02*
X16730238Y-9461524D01*
X16730238Y-9461524D02*
X16692143Y-9461524D01*
X16692143Y-9461524D02*
X16673095Y-9452000D01*
X16854048Y-9442476D02*
X16863571Y-9452000D01*
X16863571Y-9452000D02*
X16854048Y-9461524D01*
X16854048Y-9461524D02*
X16844524Y-9452000D01*
X16844524Y-9452000D02*
X16854048Y-9442476D01*
X16854048Y-9442476D02*
X16854048Y-9461524D01*
X16854048Y-9337714D02*
X16863571Y-9347238D01*
X16863571Y-9347238D02*
X16854048Y-9356762D01*
X16854048Y-9356762D02*
X16844524Y-9347238D01*
X16844524Y-9347238D02*
X16854048Y-9337714D01*
X16854048Y-9337714D02*
X16854048Y-9356762D01*
X15035000Y-9689000D02*
X15235000Y-9889000D01*
X15235000Y-9689000D02*
X15035000Y-9889000D01*
X15463571Y-9681524D02*
X15587381Y-9681524D01*
X15587381Y-9681524D02*
X15520714Y-9757714D01*
X15520714Y-9757714D02*
X15549286Y-9757714D01*
X15549286Y-9757714D02*
X15568333Y-9767238D01*
X15568333Y-9767238D02*
X15577857Y-9776762D01*
X15577857Y-9776762D02*
X15587381Y-9795810D01*
X15587381Y-9795810D02*
X15587381Y-9843429D01*
X15587381Y-9843429D02*
X15577857Y-9862476D01*
X15577857Y-9862476D02*
X15568333Y-9872000D01*
X15568333Y-9872000D02*
X15549286Y-9881524D01*
X15549286Y-9881524D02*
X15492143Y-9881524D01*
X15492143Y-9881524D02*
X15473095Y-9872000D01*
X15473095Y-9872000D02*
X15463571Y-9862476D01*
X15673095Y-9862476D02*
X15682619Y-9872000D01*
X15682619Y-9872000D02*
X15673095Y-9881524D01*
X15673095Y-9881524D02*
X15663571Y-9872000D01*
X15663571Y-9872000D02*
X15673095Y-9862476D01*
X15673095Y-9862476D02*
X15673095Y-9881524D01*
X15758809Y-9700571D02*
X15768333Y-9691048D01*
X15768333Y-9691048D02*
X15787381Y-9681524D01*
X15787381Y-9681524D02*
X15835000Y-9681524D01*
X15835000Y-9681524D02*
X15854048Y-9691048D01*
X15854048Y-9691048D02*
X15863571Y-9700571D01*
X15863571Y-9700571D02*
X15873095Y-9719619D01*
X15873095Y-9719619D02*
X15873095Y-9738667D01*
X15873095Y-9738667D02*
X15863571Y-9767238D01*
X15863571Y-9767238D02*
X15749286Y-9881524D01*
X15749286Y-9881524D02*
X15873095Y-9881524D01*
X15996905Y-9681524D02*
X16015952Y-9681524D01*
X16015952Y-9681524D02*
X16035000Y-9691048D01*
X16035000Y-9691048D02*
X16044524Y-9700571D01*
X16044524Y-9700571D02*
X16054048Y-9719619D01*
X16054048Y-9719619D02*
X16063571Y-9757714D01*
X16063571Y-9757714D02*
X16063571Y-9805333D01*
X16063571Y-9805333D02*
X16054048Y-9843429D01*
X16054048Y-9843429D02*
X16044524Y-9862476D01*
X16044524Y-9862476D02*
X16035000Y-9872000D01*
X16035000Y-9872000D02*
X16015952Y-9881524D01*
X16015952Y-9881524D02*
X15996905Y-9881524D01*
X15996905Y-9881524D02*
X15977857Y-9872000D01*
X15977857Y-9872000D02*
X15968333Y-9862476D01*
X15968333Y-9862476D02*
X15958809Y-9843429D01*
X15958809Y-9843429D02*
X15949286Y-9805333D01*
X15949286Y-9805333D02*
X15949286Y-9757714D01*
X15949286Y-9757714D02*
X15958809Y-9719619D01*
X15958809Y-9719619D02*
X15968333Y-9700571D01*
X15968333Y-9700571D02*
X15977857Y-9691048D01*
X15977857Y-9691048D02*
X15996905Y-9681524D01*
X16187381Y-9681524D02*
X16206429Y-9681524D01*
X16206429Y-9681524D02*
X16225476Y-9691048D01*
X16225476Y-9691048D02*
X16235000Y-9700571D01*
X16235000Y-9700571D02*
X16244524Y-9719619D01*
X16244524Y-9719619D02*
X16254048Y-9757714D01*
X16254048Y-9757714D02*
X16254048Y-9805333D01*
X16254048Y-9805333D02*
X16244524Y-9843429D01*
X16244524Y-9843429D02*
X16235000Y-9862476D01*
X16235000Y-9862476D02*
X16225476Y-9872000D01*
X16225476Y-9872000D02*
X16206429Y-9881524D01*
X16206429Y-9881524D02*
X16187381Y-9881524D01*
X16187381Y-9881524D02*
X16168333Y-9872000D01*
X16168333Y-9872000D02*
X16158809Y-9862476D01*
X16158809Y-9862476D02*
X16149286Y-9843429D01*
X16149286Y-9843429D02*
X16139762Y-9805333D01*
X16139762Y-9805333D02*
X16139762Y-9757714D01*
X16139762Y-9757714D02*
X16149286Y-9719619D01*
X16149286Y-9719619D02*
X16158809Y-9700571D01*
X16158809Y-9700571D02*
X16168333Y-9691048D01*
X16168333Y-9691048D02*
X16187381Y-9681524D01*
X16339762Y-9881524D02*
X16339762Y-9748190D01*
X16339762Y-9767238D02*
X16349286Y-9757714D01*
X16349286Y-9757714D02*
X16368333Y-9748190D01*
X16368333Y-9748190D02*
X16396905Y-9748190D01*
X16396905Y-9748190D02*
X16415952Y-9757714D01*
X16415952Y-9757714D02*
X16425476Y-9776762D01*
X16425476Y-9776762D02*
X16425476Y-9881524D01*
X16425476Y-9776762D02*
X16435000Y-9757714D01*
X16435000Y-9757714D02*
X16454048Y-9748190D01*
X16454048Y-9748190D02*
X16482619Y-9748190D01*
X16482619Y-9748190D02*
X16501667Y-9757714D01*
X16501667Y-9757714D02*
X16511190Y-9776762D01*
X16511190Y-9776762D02*
X16511190Y-9881524D01*
X16606429Y-9881524D02*
X16606429Y-9748190D01*
X16606429Y-9767238D02*
X16615952Y-9757714D01*
X16615952Y-9757714D02*
X16635000Y-9748190D01*
X16635000Y-9748190D02*
X16663571Y-9748190D01*
X16663571Y-9748190D02*
X16682619Y-9757714D01*
X16682619Y-9757714D02*
X16692143Y-9776762D01*
X16692143Y-9776762D02*
X16692143Y-9881524D01*
X16692143Y-9776762D02*
X16701667Y-9757714D01*
X16701667Y-9757714D02*
X16720714Y-9748190D01*
X16720714Y-9748190D02*
X16749286Y-9748190D01*
X16749286Y-9748190D02*
X16768333Y-9757714D01*
X16768333Y-9757714D02*
X16777857Y-9776762D01*
X16777857Y-9776762D02*
X16777857Y-9881524D01*
X17168333Y-9672000D02*
X16996905Y-9929143D01*
X17425476Y-9681524D02*
X17444524Y-9681524D01*
X17444524Y-9681524D02*
X17463572Y-9691048D01*
X17463572Y-9691048D02*
X17473095Y-9700571D01*
X17473095Y-9700571D02*
X17482619Y-9719619D01*
X17482619Y-9719619D02*
X17492143Y-9757714D01*
X17492143Y-9757714D02*
X17492143Y-9805333D01*
X17492143Y-9805333D02*
X17482619Y-9843429D01*
X17482619Y-9843429D02*
X17473095Y-9862476D01*
X17473095Y-9862476D02*
X17463572Y-9872000D01*
X17463572Y-9872000D02*
X17444524Y-9881524D01*
X17444524Y-9881524D02*
X17425476Y-9881524D01*
X17425476Y-9881524D02*
X17406429Y-9872000D01*
X17406429Y-9872000D02*
X17396905Y-9862476D01*
X17396905Y-9862476D02*
X17387381Y-9843429D01*
X17387381Y-9843429D02*
X17377857Y-9805333D01*
X17377857Y-9805333D02*
X17377857Y-9757714D01*
X17377857Y-9757714D02*
X17387381Y-9719619D01*
X17387381Y-9719619D02*
X17396905Y-9700571D01*
X17396905Y-9700571D02*
X17406429Y-9691048D01*
X17406429Y-9691048D02*
X17425476Y-9681524D01*
X17577857Y-9862476D02*
X17587381Y-9872000D01*
X17587381Y-9872000D02*
X17577857Y-9881524D01*
X17577857Y-9881524D02*
X17568334Y-9872000D01*
X17568334Y-9872000D02*
X17577857Y-9862476D01*
X17577857Y-9862476D02*
X17577857Y-9881524D01*
X17777857Y-9881524D02*
X17663572Y-9881524D01*
X17720714Y-9881524D02*
X17720714Y-9681524D01*
X17720714Y-9681524D02*
X17701667Y-9710095D01*
X17701667Y-9710095D02*
X17682619Y-9729143D01*
X17682619Y-9729143D02*
X17663572Y-9738667D01*
X17854048Y-9700571D02*
X17863572Y-9691048D01*
X17863572Y-9691048D02*
X17882619Y-9681524D01*
X17882619Y-9681524D02*
X17930238Y-9681524D01*
X17930238Y-9681524D02*
X17949286Y-9691048D01*
X17949286Y-9691048D02*
X17958810Y-9700571D01*
X17958810Y-9700571D02*
X17968334Y-9719619D01*
X17968334Y-9719619D02*
X17968334Y-9738667D01*
X17968334Y-9738667D02*
X17958810Y-9767238D01*
X17958810Y-9767238D02*
X17844524Y-9881524D01*
X17844524Y-9881524D02*
X17968334Y-9881524D01*
X18139762Y-9681524D02*
X18101667Y-9681524D01*
X18101667Y-9681524D02*
X18082619Y-9691048D01*
X18082619Y-9691048D02*
X18073095Y-9700571D01*
X18073095Y-9700571D02*
X18054048Y-9729143D01*
X18054048Y-9729143D02*
X18044524Y-9767238D01*
X18044524Y-9767238D02*
X18044524Y-9843429D01*
X18044524Y-9843429D02*
X18054048Y-9862476D01*
X18054048Y-9862476D02*
X18063572Y-9872000D01*
X18063572Y-9872000D02*
X18082619Y-9881524D01*
X18082619Y-9881524D02*
X18120715Y-9881524D01*
X18120715Y-9881524D02*
X18139762Y-9872000D01*
X18139762Y-9872000D02*
X18149286Y-9862476D01*
X18149286Y-9862476D02*
X18158810Y-9843429D01*
X18158810Y-9843429D02*
X18158810Y-9795810D01*
X18158810Y-9795810D02*
X18149286Y-9776762D01*
X18149286Y-9776762D02*
X18139762Y-9767238D01*
X18139762Y-9767238D02*
X18120715Y-9757714D01*
X18120715Y-9757714D02*
X18082619Y-9757714D01*
X18082619Y-9757714D02*
X18063572Y-9767238D01*
X18063572Y-9767238D02*
X18054048Y-9776762D01*
X18054048Y-9776762D02*
X18044524Y-9795810D01*
X18282619Y-9681524D02*
X18301667Y-9681524D01*
X18301667Y-9681524D02*
X18320715Y-9691048D01*
X18320715Y-9691048D02*
X18330238Y-9700571D01*
X18330238Y-9700571D02*
X18339762Y-9719619D01*
X18339762Y-9719619D02*
X18349286Y-9757714D01*
X18349286Y-9757714D02*
X18349286Y-9805333D01*
X18349286Y-9805333D02*
X18339762Y-9843429D01*
X18339762Y-9843429D02*
X18330238Y-9862476D01*
X18330238Y-9862476D02*
X18320715Y-9872000D01*
X18320715Y-9872000D02*
X18301667Y-9881524D01*
X18301667Y-9881524D02*
X18282619Y-9881524D01*
X18282619Y-9881524D02*
X18263572Y-9872000D01*
X18263572Y-9872000D02*
X18254048Y-9862476D01*
X18254048Y-9862476D02*
X18244524Y-9843429D01*
X18244524Y-9843429D02*
X18235000Y-9805333D01*
X18235000Y-9805333D02*
X18235000Y-9757714D01*
X18235000Y-9757714D02*
X18244524Y-9719619D01*
X18244524Y-9719619D02*
X18254048Y-9700571D01*
X18254048Y-9700571D02*
X18263572Y-9691048D01*
X18263572Y-9691048D02*
X18282619Y-9681524D01*
X18425476Y-9681524D02*
X18425476Y-9719619D01*
X18501667Y-9681524D02*
X18501667Y-9719619D01*
X18796905Y-9957714D02*
X18787381Y-9948190D01*
X18787381Y-9948190D02*
X18768334Y-9919619D01*
X18768334Y-9919619D02*
X18758810Y-9900571D01*
X18758810Y-9900571D02*
X18749286Y-9872000D01*
X18749286Y-9872000D02*
X18739762Y-9824381D01*
X18739762Y-9824381D02*
X18739762Y-9786286D01*
X18739762Y-9786286D02*
X18749286Y-9738667D01*
X18749286Y-9738667D02*
X18758810Y-9710095D01*
X18758810Y-9710095D02*
X18768334Y-9691048D01*
X18768334Y-9691048D02*
X18787381Y-9662476D01*
X18787381Y-9662476D02*
X18796905Y-9652952D01*
X18958810Y-9748190D02*
X18958810Y-9881524D01*
X18911191Y-9672000D02*
X18863572Y-9814857D01*
X18863572Y-9814857D02*
X18987381Y-9814857D01*
X19215953Y-9881524D02*
X19215953Y-9681524D01*
X19301667Y-9881524D02*
X19301667Y-9776762D01*
X19301667Y-9776762D02*
X19292143Y-9757714D01*
X19292143Y-9757714D02*
X19273096Y-9748190D01*
X19273096Y-9748190D02*
X19244524Y-9748190D01*
X19244524Y-9748190D02*
X19225477Y-9757714D01*
X19225477Y-9757714D02*
X19215953Y-9767238D01*
X19425477Y-9881524D02*
X19406429Y-9872000D01*
X19406429Y-9872000D02*
X19396905Y-9862476D01*
X19396905Y-9862476D02*
X19387381Y-9843429D01*
X19387381Y-9843429D02*
X19387381Y-9786286D01*
X19387381Y-9786286D02*
X19396905Y-9767238D01*
X19396905Y-9767238D02*
X19406429Y-9757714D01*
X19406429Y-9757714D02*
X19425477Y-9748190D01*
X19425477Y-9748190D02*
X19454048Y-9748190D01*
X19454048Y-9748190D02*
X19473096Y-9757714D01*
X19473096Y-9757714D02*
X19482619Y-9767238D01*
X19482619Y-9767238D02*
X19492143Y-9786286D01*
X19492143Y-9786286D02*
X19492143Y-9843429D01*
X19492143Y-9843429D02*
X19482619Y-9862476D01*
X19482619Y-9862476D02*
X19473096Y-9872000D01*
X19473096Y-9872000D02*
X19454048Y-9881524D01*
X19454048Y-9881524D02*
X19425477Y-9881524D01*
X19606429Y-9881524D02*
X19587381Y-9872000D01*
X19587381Y-9872000D02*
X19577858Y-9852952D01*
X19577858Y-9852952D02*
X19577858Y-9681524D01*
X19758810Y-9872000D02*
X19739762Y-9881524D01*
X19739762Y-9881524D02*
X19701667Y-9881524D01*
X19701667Y-9881524D02*
X19682619Y-9872000D01*
X19682619Y-9872000D02*
X19673096Y-9852952D01*
X19673096Y-9852952D02*
X19673096Y-9776762D01*
X19673096Y-9776762D02*
X19682619Y-9757714D01*
X19682619Y-9757714D02*
X19701667Y-9748190D01*
X19701667Y-9748190D02*
X19739762Y-9748190D01*
X19739762Y-9748190D02*
X19758810Y-9757714D01*
X19758810Y-9757714D02*
X19768334Y-9776762D01*
X19768334Y-9776762D02*
X19768334Y-9795810D01*
X19768334Y-9795810D02*
X19673096Y-9814857D01*
X19844524Y-9872000D02*
X19863572Y-9881524D01*
X19863572Y-9881524D02*
X19901667Y-9881524D01*
X19901667Y-9881524D02*
X19920715Y-9872000D01*
X19920715Y-9872000D02*
X19930239Y-9852952D01*
X19930239Y-9852952D02*
X19930239Y-9843429D01*
X19930239Y-9843429D02*
X19920715Y-9824381D01*
X19920715Y-9824381D02*
X19901667Y-9814857D01*
X19901667Y-9814857D02*
X19873096Y-9814857D01*
X19873096Y-9814857D02*
X19854048Y-9805333D01*
X19854048Y-9805333D02*
X19844524Y-9786286D01*
X19844524Y-9786286D02*
X19844524Y-9776762D01*
X19844524Y-9776762D02*
X19854048Y-9757714D01*
X19854048Y-9757714D02*
X19873096Y-9748190D01*
X19873096Y-9748190D02*
X19901667Y-9748190D01*
X19901667Y-9748190D02*
X19920715Y-9757714D01*
X19996905Y-9957714D02*
X20006429Y-9948190D01*
X20006429Y-9948190D02*
X20025477Y-9919619D01*
X20025477Y-9919619D02*
X20035000Y-9900571D01*
X20035000Y-9900571D02*
X20044524Y-9872000D01*
X20044524Y-9872000D02*
X20054048Y-9824381D01*
X20054048Y-9824381D02*
X20054048Y-9786286D01*
X20054048Y-9786286D02*
X20044524Y-9738667D01*
X20044524Y-9738667D02*
X20035000Y-9710095D01*
X20035000Y-9710095D02*
X20025477Y-9691048D01*
X20025477Y-9691048D02*
X20006429Y-9662476D01*
X20006429Y-9662476D02*
X19996905Y-9652952D01*
X20358810Y-9957714D02*
X20349286Y-9948190D01*
X20349286Y-9948190D02*
X20330239Y-9919619D01*
X20330239Y-9919619D02*
X20320715Y-9900571D01*
X20320715Y-9900571D02*
X20311191Y-9872000D01*
X20311191Y-9872000D02*
X20301667Y-9824381D01*
X20301667Y-9824381D02*
X20301667Y-9786286D01*
X20301667Y-9786286D02*
X20311191Y-9738667D01*
X20311191Y-9738667D02*
X20320715Y-9710095D01*
X20320715Y-9710095D02*
X20330239Y-9691048D01*
X20330239Y-9691048D02*
X20349286Y-9662476D01*
X20349286Y-9662476D02*
X20358810Y-9652952D01*
X20435000Y-9748190D02*
X20435000Y-9881524D01*
X20435000Y-9767238D02*
X20444524Y-9757714D01*
X20444524Y-9757714D02*
X20463572Y-9748190D01*
X20463572Y-9748190D02*
X20492143Y-9748190D01*
X20492143Y-9748190D02*
X20511191Y-9757714D01*
X20511191Y-9757714D02*
X20520715Y-9776762D01*
X20520715Y-9776762D02*
X20520715Y-9881524D01*
X20644524Y-9881524D02*
X20625477Y-9872000D01*
X20625477Y-9872000D02*
X20615953Y-9862476D01*
X20615953Y-9862476D02*
X20606429Y-9843429D01*
X20606429Y-9843429D02*
X20606429Y-9786286D01*
X20606429Y-9786286D02*
X20615953Y-9767238D01*
X20615953Y-9767238D02*
X20625477Y-9757714D01*
X20625477Y-9757714D02*
X20644524Y-9748190D01*
X20644524Y-9748190D02*
X20673096Y-9748190D01*
X20673096Y-9748190D02*
X20692143Y-9757714D01*
X20692143Y-9757714D02*
X20701667Y-9767238D01*
X20701667Y-9767238D02*
X20711191Y-9786286D01*
X20711191Y-9786286D02*
X20711191Y-9843429D01*
X20711191Y-9843429D02*
X20701667Y-9862476D01*
X20701667Y-9862476D02*
X20692143Y-9872000D01*
X20692143Y-9872000D02*
X20673096Y-9881524D01*
X20673096Y-9881524D02*
X20644524Y-9881524D01*
X20768334Y-9748190D02*
X20844524Y-9748190D01*
X20796905Y-9681524D02*
X20796905Y-9852952D01*
X20796905Y-9852952D02*
X20806429Y-9872000D01*
X20806429Y-9872000D02*
X20825477Y-9881524D01*
X20825477Y-9881524D02*
X20844524Y-9881524D01*
X21063572Y-9748190D02*
X21063572Y-9948190D01*
X21063572Y-9757714D02*
X21082620Y-9748190D01*
X21082620Y-9748190D02*
X21120715Y-9748190D01*
X21120715Y-9748190D02*
X21139762Y-9757714D01*
X21139762Y-9757714D02*
X21149286Y-9767238D01*
X21149286Y-9767238D02*
X21158810Y-9786286D01*
X21158810Y-9786286D02*
X21158810Y-9843429D01*
X21158810Y-9843429D02*
X21149286Y-9862476D01*
X21149286Y-9862476D02*
X21139762Y-9872000D01*
X21139762Y-9872000D02*
X21120715Y-9881524D01*
X21120715Y-9881524D02*
X21082620Y-9881524D01*
X21082620Y-9881524D02*
X21063572Y-9872000D01*
X21273096Y-9881524D02*
X21254048Y-9872000D01*
X21254048Y-9872000D02*
X21244524Y-9852952D01*
X21244524Y-9852952D02*
X21244524Y-9681524D01*
X21435001Y-9881524D02*
X21435001Y-9776762D01*
X21435001Y-9776762D02*
X21425477Y-9757714D01*
X21425477Y-9757714D02*
X21406429Y-9748190D01*
X21406429Y-9748190D02*
X21368334Y-9748190D01*
X21368334Y-9748190D02*
X21349286Y-9757714D01*
X21435001Y-9872000D02*
X21415953Y-9881524D01*
X21415953Y-9881524D02*
X21368334Y-9881524D01*
X21368334Y-9881524D02*
X21349286Y-9872000D01*
X21349286Y-9872000D02*
X21339762Y-9852952D01*
X21339762Y-9852952D02*
X21339762Y-9833905D01*
X21339762Y-9833905D02*
X21349286Y-9814857D01*
X21349286Y-9814857D02*
X21368334Y-9805333D01*
X21368334Y-9805333D02*
X21415953Y-9805333D01*
X21415953Y-9805333D02*
X21435001Y-9795810D01*
X21501667Y-9748190D02*
X21577858Y-9748190D01*
X21530239Y-9681524D02*
X21530239Y-9852952D01*
X21530239Y-9852952D02*
X21539762Y-9872000D01*
X21539762Y-9872000D02*
X21558810Y-9881524D01*
X21558810Y-9881524D02*
X21577858Y-9881524D01*
X21720715Y-9872000D02*
X21701667Y-9881524D01*
X21701667Y-9881524D02*
X21663572Y-9881524D01*
X21663572Y-9881524D02*
X21644524Y-9872000D01*
X21644524Y-9872000D02*
X21635001Y-9852952D01*
X21635001Y-9852952D02*
X21635001Y-9776762D01*
X21635001Y-9776762D02*
X21644524Y-9757714D01*
X21644524Y-9757714D02*
X21663572Y-9748190D01*
X21663572Y-9748190D02*
X21701667Y-9748190D01*
X21701667Y-9748190D02*
X21720715Y-9757714D01*
X21720715Y-9757714D02*
X21730239Y-9776762D01*
X21730239Y-9776762D02*
X21730239Y-9795810D01*
X21730239Y-9795810D02*
X21635001Y-9814857D01*
X21901667Y-9881524D02*
X21901667Y-9681524D01*
X21901667Y-9872000D02*
X21882620Y-9881524D01*
X21882620Y-9881524D02*
X21844524Y-9881524D01*
X21844524Y-9881524D02*
X21825477Y-9872000D01*
X21825477Y-9872000D02*
X21815953Y-9862476D01*
X21815953Y-9862476D02*
X21806429Y-9843429D01*
X21806429Y-9843429D02*
X21806429Y-9786286D01*
X21806429Y-9786286D02*
X21815953Y-9767238D01*
X21815953Y-9767238D02*
X21825477Y-9757714D01*
X21825477Y-9757714D02*
X21844524Y-9748190D01*
X21844524Y-9748190D02*
X21882620Y-9748190D01*
X21882620Y-9748190D02*
X21901667Y-9757714D01*
X21977858Y-9957714D02*
X21987382Y-9948190D01*
X21987382Y-9948190D02*
X22006429Y-9919619D01*
X22006429Y-9919619D02*
X22015953Y-9900571D01*
X22015953Y-9900571D02*
X22025477Y-9872000D01*
X22025477Y-9872000D02*
X22035001Y-9824381D01*
X22035001Y-9824381D02*
X22035001Y-9786286D01*
X22035001Y-9786286D02*
X22025477Y-9738667D01*
X22025477Y-9738667D02*
X22015953Y-9710095D01*
X22015953Y-9710095D02*
X22006429Y-9691048D01*
X22006429Y-9691048D02*
X21987382Y-9662476D01*
X21987382Y-9662476D02*
X21977858Y-9652952D01*
M02*
