G04 #@! TF.GenerationSoftware,KiCad,Pcbnew,7.0.1*
G04 #@! TF.CreationDate,2025-03-09T11:20:59-05:00*
G04 #@! TF.ProjectId,Shift Register Mosfet Array V3,53686966-7420-4526-9567-697374657220,rev?*
G04 #@! TF.SameCoordinates,Original*
G04 #@! TF.FileFunction,Copper,L1,Top*
G04 #@! TF.FilePolarity,Positive*
%FSLAX46Y46*%
G04 Gerber Fmt 4.6, Leading zero omitted, Abs format (unit mm)*
G04 Created by KiCad (PCBNEW 7.0.1) date 2025-03-09 11:20:59*
%MOMM*%
%LPD*%
G01*
G04 APERTURE LIST*
G04 Aperture macros list*
%AMRoundRect*
0 Rectangle with rounded corners*
0 $1 Rounding radius*
0 $2 $3 $4 $5 $6 $7 $8 $9 X,Y pos of 4 corners*
0 Add a 4 corners polygon primitive as box body*
4,1,4,$2,$3,$4,$5,$6,$7,$8,$9,$2,$3,0*
0 Add four circle primitives for the rounded corners*
1,1,$1+$1,$2,$3*
1,1,$1+$1,$4,$5*
1,1,$1+$1,$6,$7*
1,1,$1+$1,$8,$9*
0 Add four rect primitives between the rounded corners*
20,1,$1+$1,$2,$3,$4,$5,0*
20,1,$1+$1,$4,$5,$6,$7,0*
20,1,$1+$1,$6,$7,$8,$9,0*
20,1,$1+$1,$8,$9,$2,$3,0*%
G04 Aperture macros list end*
G04 #@! TA.AperFunction,SMDPad,CuDef*
%ADD10RoundRect,0.250000X-0.475000X0.337500X-0.475000X-0.337500X0.475000X-0.337500X0.475000X0.337500X0*%
G04 #@! TD*
G04 #@! TA.AperFunction,SMDPad,CuDef*
%ADD11RoundRect,0.250000X-0.450000X0.350000X-0.450000X-0.350000X0.450000X-0.350000X0.450000X0.350000X0*%
G04 #@! TD*
G04 #@! TA.AperFunction,ComponentPad*
%ADD12R,1.700000X1.700000*%
G04 #@! TD*
G04 #@! TA.AperFunction,ComponentPad*
%ADD13O,1.700000X1.700000*%
G04 #@! TD*
G04 #@! TA.AperFunction,SMDPad,CuDef*
%ADD14RoundRect,0.150000X0.150000X-0.825000X0.150000X0.825000X-0.150000X0.825000X-0.150000X-0.825000X0*%
G04 #@! TD*
G04 #@! TA.AperFunction,SMDPad,CuDef*
%ADD15RoundRect,0.250000X-0.300000X2.050000X-0.300000X-2.050000X0.300000X-2.050000X0.300000X2.050000X0*%
G04 #@! TD*
G04 #@! TA.AperFunction,SMDPad,CuDef*
%ADD16RoundRect,0.250000X-2.375000X2.025000X-2.375000X-2.025000X2.375000X-2.025000X2.375000X2.025000X0*%
G04 #@! TD*
G04 #@! TA.AperFunction,SMDPad,CuDef*
%ADD17RoundRect,0.250002X-5.149998X4.449998X-5.149998X-4.449998X5.149998X-4.449998X5.149998X4.449998X0*%
G04 #@! TD*
G04 #@! TA.AperFunction,ComponentPad*
%ADD18RoundRect,0.250000X0.620000X0.845000X-0.620000X0.845000X-0.620000X-0.845000X0.620000X-0.845000X0*%
G04 #@! TD*
G04 #@! TA.AperFunction,ComponentPad*
%ADD19O,1.740000X2.190000*%
G04 #@! TD*
G04 #@! TA.AperFunction,SMDPad,CuDef*
%ADD20RoundRect,0.250000X1.500000X0.650000X-1.500000X0.650000X-1.500000X-0.650000X1.500000X-0.650000X0*%
G04 #@! TD*
G04 #@! TA.AperFunction,SMDPad,CuDef*
%ADD21RoundRect,0.250000X0.450000X-0.350000X0.450000X0.350000X-0.450000X0.350000X-0.450000X-0.350000X0*%
G04 #@! TD*
G04 #@! TA.AperFunction,SMDPad,CuDef*
%ADD22RoundRect,0.250001X-0.462499X-0.624999X0.462499X-0.624999X0.462499X0.624999X-0.462499X0.624999X0*%
G04 #@! TD*
G04 #@! TA.AperFunction,ViaPad*
%ADD23C,0.800000*%
G04 #@! TD*
G04 #@! TA.AperFunction,Conductor*
%ADD24C,0.500000*%
G04 #@! TD*
G04 #@! TA.AperFunction,Conductor*
%ADD25C,2.000000*%
G04 #@! TD*
G04 #@! TA.AperFunction,Conductor*
%ADD26C,1.000000*%
G04 #@! TD*
G04 #@! TA.AperFunction,Conductor*
%ADD27C,0.300000*%
G04 #@! TD*
G04 #@! TA.AperFunction,Conductor*
%ADD28C,1.500000*%
G04 #@! TD*
G04 APERTURE END LIST*
D10*
X111252000Y-99081500D03*
X111252000Y-97006500D03*
D11*
X116586000Y-98060000D03*
X116586000Y-100060000D03*
D10*
X120650000Y-98054500D03*
X120650000Y-100129500D03*
D11*
X122682000Y-100076000D03*
X122682000Y-98076000D03*
D12*
X135890000Y-96690000D03*
D13*
X138430000Y-96690000D03*
X140970000Y-96690000D03*
X143510000Y-96690000D03*
X146050000Y-96690000D03*
X148590000Y-96690000D03*
X87376000Y-96944000D03*
X84836000Y-96944000D03*
X82296000Y-96944000D03*
X79756000Y-96944000D03*
X77216000Y-96944000D03*
D12*
X74676000Y-96944000D03*
D14*
X99822000Y-95250000D03*
X101092000Y-95250000D03*
X102362000Y-95250000D03*
X103632000Y-95250000D03*
X104902000Y-95250000D03*
X106172000Y-95250000D03*
X107442000Y-95250000D03*
X108712000Y-95250000D03*
X108712000Y-100200000D03*
X107442000Y-100200000D03*
X106172000Y-100200000D03*
X104902000Y-100200000D03*
X103632000Y-100200000D03*
X102362000Y-100200000D03*
X101092000Y-100200000D03*
X99822000Y-100200000D03*
D15*
X126708000Y-107363000D03*
D16*
X126473000Y-118938000D03*
X132023000Y-118938000D03*
D17*
X129248000Y-116513000D03*
D16*
X126473000Y-114088000D03*
X132023000Y-114088000D03*
D15*
X131788000Y-107363000D03*
D18*
X136332000Y-129968000D03*
D19*
X133792000Y-129968000D03*
D12*
X138792000Y-129968000D03*
X118792000Y-129968000D03*
D18*
X116332000Y-129968000D03*
D19*
X113792000Y-129968000D03*
D20*
X88792000Y-124968000D03*
X83792000Y-124968000D03*
X78792000Y-124968000D03*
X73792000Y-124968000D03*
D12*
X108792000Y-129968000D03*
D18*
X106332000Y-129968000D03*
D19*
X103792000Y-129968000D03*
D12*
X128792000Y-129968000D03*
D18*
X126332000Y-129968000D03*
D19*
X123792000Y-129968000D03*
D20*
X148792000Y-124968000D03*
X143792000Y-124968000D03*
D18*
X86332000Y-129968000D03*
D19*
X83792000Y-129968000D03*
D12*
X88792000Y-129968000D03*
D20*
X128792000Y-124968000D03*
X123792000Y-124968000D03*
X118792000Y-124968000D03*
X113792000Y-124968000D03*
X138792000Y-124968000D03*
X133792000Y-124968000D03*
X108792000Y-124968000D03*
X103792000Y-124968000D03*
D12*
X98792000Y-129968000D03*
D18*
X96332000Y-129968000D03*
D19*
X93792000Y-129968000D03*
D12*
X78792000Y-129968000D03*
D19*
X73792000Y-129968000D03*
D18*
X76332000Y-129968000D03*
D20*
X98792000Y-124968000D03*
X93792000Y-124968000D03*
D18*
X146332000Y-129968000D03*
D19*
X143792000Y-129968000D03*
D12*
X148792000Y-129968000D03*
D15*
X107950000Y-107297000D03*
D16*
X108185000Y-114022000D03*
X102635000Y-114022000D03*
D17*
X105410000Y-116447000D03*
D16*
X108185000Y-118872000D03*
X102635000Y-118872000D03*
D15*
X102870000Y-107297000D03*
D11*
X112776000Y-105950000D03*
X112776000Y-107950000D03*
D15*
X119869000Y-107363000D03*
D16*
X120104000Y-114088000D03*
X114554000Y-114088000D03*
D17*
X117329000Y-116513000D03*
D16*
X120104000Y-118938000D03*
X114554000Y-118938000D03*
D15*
X114789000Y-107363000D03*
D21*
X145796000Y-107950000D03*
X145796000Y-105950000D03*
X74168000Y-107934000D03*
X74168000Y-105934000D03*
D11*
X88726000Y-135112000D03*
X88726000Y-137112000D03*
D15*
X79013000Y-107321000D03*
D16*
X78778000Y-118896000D03*
X84328000Y-118896000D03*
D17*
X81553000Y-116471000D03*
D16*
X78778000Y-114046000D03*
X84328000Y-114046000D03*
D15*
X84093000Y-107321000D03*
D11*
X148924000Y-135096000D03*
X148924000Y-137096000D03*
X65024000Y-108188000D03*
X65024000Y-106188000D03*
D21*
X157480000Y-107950000D03*
X157480000Y-105950000D03*
D11*
X138764000Y-135096000D03*
X138764000Y-137096000D03*
X88900000Y-105950000D03*
X88900000Y-107950000D03*
X148590000Y-105950000D03*
X148590000Y-107950000D03*
D22*
X103712000Y-136858000D03*
X106687000Y-136858000D03*
D11*
X76962000Y-105918000D03*
X76962000Y-107918000D03*
D21*
X109982000Y-107950000D03*
X109982000Y-105950000D03*
D22*
X143844000Y-136858000D03*
X146819000Y-136858000D03*
D21*
X86106000Y-107934000D03*
X86106000Y-105934000D03*
D11*
X100838000Y-105950000D03*
X100838000Y-107950000D03*
D15*
X150508000Y-107363000D03*
D16*
X150273000Y-118938000D03*
X155823000Y-118938000D03*
D17*
X153048000Y-116513000D03*
D16*
X150273000Y-114088000D03*
X155823000Y-114088000D03*
D15*
X155588000Y-107363000D03*
D22*
X123778000Y-136858000D03*
X126753000Y-136858000D03*
D11*
X118952000Y-135096000D03*
X118952000Y-137096000D03*
X98886000Y-135112000D03*
X98886000Y-137112000D03*
D22*
X113872000Y-136858000D03*
X116847000Y-136858000D03*
X83646000Y-136858000D03*
X86621000Y-136858000D03*
D15*
X143688000Y-107363000D03*
D16*
X143923000Y-114088000D03*
X138373000Y-114088000D03*
D17*
X141148000Y-116513000D03*
D16*
X143923000Y-118938000D03*
X138373000Y-118938000D03*
D15*
X138608000Y-107363000D03*
D21*
X133858000Y-107950000D03*
X133858000Y-105950000D03*
D15*
X96031000Y-107297000D03*
D16*
X96266000Y-114022000D03*
X90716000Y-114022000D03*
D17*
X93491000Y-116447000D03*
D16*
X96266000Y-118872000D03*
X90716000Y-118872000D03*
D15*
X90951000Y-107297000D03*
D11*
X108792000Y-135080000D03*
X108792000Y-137080000D03*
D22*
X133684000Y-136858000D03*
X136659000Y-136858000D03*
D11*
X79074000Y-137112000D03*
X79074000Y-135112000D03*
D21*
X98044000Y-107950000D03*
X98044000Y-105950000D03*
D22*
X93806000Y-136858000D03*
X96781000Y-136858000D03*
D12*
X68834000Y-131318000D03*
D13*
X68834000Y-128778000D03*
X68834000Y-126238000D03*
X68834000Y-123698000D03*
D15*
X72155000Y-107297000D03*
D16*
X72390000Y-114022000D03*
X66840000Y-114022000D03*
D17*
X69615000Y-116447000D03*
D16*
X72390000Y-118872000D03*
X66840000Y-118872000D03*
D15*
X67075000Y-107297000D03*
D22*
X73813000Y-136858000D03*
X76788000Y-136858000D03*
D21*
X121920000Y-107918000D03*
X121920000Y-105918000D03*
D11*
X124714000Y-107950000D03*
X124714000Y-105950000D03*
X136652000Y-105950000D03*
X136652000Y-107950000D03*
X128858000Y-135112000D03*
X128858000Y-137112000D03*
D12*
X154178000Y-123698000D03*
D13*
X154178000Y-126238000D03*
X154178000Y-128778000D03*
X154178000Y-131318000D03*
D23*
X100838000Y-105918000D03*
X76962000Y-105918000D03*
X88900000Y-105918000D03*
X112776000Y-105918000D03*
X124714000Y-105918000D03*
X122682000Y-98044000D03*
X108712000Y-100076000D03*
X111252000Y-99060000D03*
X150622000Y-108966000D03*
X150622000Y-107188000D03*
X150622000Y-105664000D03*
X138684000Y-108966000D03*
X138684000Y-107188000D03*
X138684000Y-105664000D03*
X126746000Y-108966000D03*
X126746000Y-107188000D03*
X126746000Y-105664000D03*
X114808000Y-108966000D03*
X114808000Y-107188000D03*
X114808000Y-105664000D03*
X102870000Y-108966000D03*
X102870000Y-107188000D03*
X102870000Y-105664000D03*
X90932000Y-108966000D03*
X90932000Y-107188000D03*
X90932000Y-105664000D03*
X78994000Y-107188000D03*
X78994000Y-108966000D03*
X78994000Y-105664000D03*
X67056000Y-107188000D03*
X67056000Y-108966000D03*
X67056000Y-105664000D03*
X104902000Y-95250000D03*
X111252000Y-97028000D03*
X107442000Y-95250000D03*
D24*
X107442000Y-99646472D02*
X107442000Y-100200000D01*
X108313472Y-98775000D02*
X107442000Y-99646472D01*
D25*
X83792000Y-124968000D02*
X83792000Y-119432000D01*
X88792000Y-129968000D02*
X88792000Y-124968000D01*
D24*
X109110528Y-98775000D02*
X108313472Y-98775000D01*
X108635000Y-107297000D02*
X109982000Y-105950000D01*
X107950000Y-107297000D02*
X108635000Y-107297000D01*
D26*
X148924000Y-130100000D02*
X148792000Y-129968000D01*
X148924000Y-135096000D02*
X148924000Y-130100000D01*
X148686000Y-136858000D02*
X148924000Y-137096000D01*
X146819000Y-136858000D02*
X148686000Y-136858000D01*
X143792000Y-136806000D02*
X143844000Y-136858000D01*
X143792000Y-129968000D02*
X143792000Y-136806000D01*
X138764000Y-129996000D02*
X138792000Y-129968000D01*
X138764000Y-135096000D02*
X138764000Y-129996000D01*
X138526000Y-136858000D02*
X138764000Y-137096000D01*
X136659000Y-136858000D02*
X138526000Y-136858000D01*
X133792000Y-136750000D02*
X133684000Y-136858000D01*
X133792000Y-129968000D02*
X133792000Y-136750000D01*
X128604000Y-136858000D02*
X128858000Y-137112000D01*
X126753000Y-136858000D02*
X128604000Y-136858000D01*
X123792000Y-136844000D02*
X123778000Y-136858000D01*
X123792000Y-129968000D02*
X123792000Y-136844000D01*
X118952000Y-130128000D02*
X118792000Y-129968000D01*
X118952000Y-135096000D02*
X118952000Y-130128000D01*
X118714000Y-136858000D02*
X118952000Y-137096000D01*
X116847000Y-136858000D02*
X118714000Y-136858000D01*
X113792000Y-136778000D02*
X113872000Y-136858000D01*
X113792000Y-129968000D02*
X113792000Y-136778000D01*
X108792000Y-135080000D02*
X108792000Y-129968000D01*
X108570000Y-136858000D02*
X108792000Y-137080000D01*
X106687000Y-136858000D02*
X108570000Y-136858000D01*
X103792000Y-136778000D02*
X103712000Y-136858000D01*
X103792000Y-129968000D02*
X103792000Y-136778000D01*
X98886000Y-130062000D02*
X98792000Y-129968000D01*
X98886000Y-135112000D02*
X98886000Y-130062000D01*
X98632000Y-136858000D02*
X98886000Y-137112000D01*
X96781000Y-136858000D02*
X98632000Y-136858000D01*
X93792000Y-136844000D02*
X93806000Y-136858000D01*
X93792000Y-129968000D02*
X93792000Y-136844000D01*
X88726000Y-130034000D02*
X88792000Y-129968000D01*
X88726000Y-135112000D02*
X88726000Y-130034000D01*
X88472000Y-136858000D02*
X88726000Y-137112000D01*
X86621000Y-136858000D02*
X88472000Y-136858000D01*
X83792000Y-129968000D02*
X83792000Y-136712000D01*
X83792000Y-136712000D02*
X83646000Y-136858000D01*
X79074000Y-130250000D02*
X78792000Y-129968000D01*
X79074000Y-135112000D02*
X79074000Y-130250000D01*
X78820000Y-136858000D02*
X79074000Y-137112000D01*
X76788000Y-136858000D02*
X78820000Y-136858000D01*
X73792000Y-136837000D02*
X73813000Y-136858000D01*
X73792000Y-129968000D02*
X73792000Y-136837000D01*
D25*
X83792000Y-129968000D02*
X83792000Y-124968000D01*
X93792000Y-129968000D02*
X93792000Y-124968000D01*
X103792000Y-129968000D02*
X103792000Y-124968000D01*
X113792000Y-129968000D02*
X113792000Y-124968000D01*
X123792000Y-129968000D02*
X123792000Y-124968000D01*
X133792000Y-129968000D02*
X133792000Y-124968000D01*
X143792000Y-129968000D02*
X143792000Y-124968000D01*
X148792000Y-129968000D02*
X148792000Y-124968000D01*
X146332000Y-129968000D02*
X148792000Y-129968000D01*
X138792000Y-129968000D02*
X138792000Y-124968000D01*
X136332000Y-129968000D02*
X138792000Y-129968000D01*
X128792000Y-129968000D02*
X128792000Y-124968000D01*
X126332000Y-129968000D02*
X128792000Y-129968000D01*
X118792000Y-129968000D02*
X118792000Y-124968000D01*
X116332000Y-129968000D02*
X118792000Y-129968000D01*
X108792000Y-129968000D02*
X108792000Y-124968000D01*
X106332000Y-129968000D02*
X108792000Y-129968000D01*
X98792000Y-129968000D02*
X98792000Y-124968000D01*
X96332000Y-129968000D02*
X98792000Y-129968000D01*
X86332000Y-129968000D02*
X88792000Y-129968000D01*
X76332000Y-129968000D02*
X78792000Y-129968000D01*
X78792000Y-124968000D02*
X78792000Y-129968000D01*
X73792000Y-124968000D02*
X73792000Y-129968000D01*
X73792000Y-120274000D02*
X72390000Y-118872000D01*
X73792000Y-124968000D02*
X73792000Y-120274000D01*
X83792000Y-119432000D02*
X84328000Y-118896000D01*
X93792000Y-124968000D02*
X93792000Y-121346000D01*
X93792000Y-121346000D02*
X96266000Y-118872000D01*
X103792000Y-120029000D02*
X102635000Y-118872000D01*
X103792000Y-124968000D02*
X103792000Y-120029000D01*
X113792000Y-124968000D02*
X113792000Y-120050000D01*
X113792000Y-120050000D02*
X117329000Y-116513000D01*
X126473000Y-122287000D02*
X126473000Y-118938000D01*
X123792000Y-124968000D02*
X126473000Y-122287000D01*
X138373000Y-120387000D02*
X138373000Y-118938000D01*
X133792000Y-124968000D02*
X138373000Y-120387000D01*
X148505000Y-122513000D02*
X150273000Y-120745000D01*
X150273000Y-120745000D02*
X150273000Y-118938000D01*
X146497000Y-122513000D02*
X148505000Y-122513000D01*
X144042000Y-124968000D02*
X146497000Y-122513000D01*
X143792000Y-124968000D02*
X144042000Y-124968000D01*
D24*
X101092000Y-100838000D02*
X101092000Y-100200000D01*
X97383000Y-104547000D02*
X101092000Y-100838000D01*
X95441051Y-104547000D02*
X97383000Y-104547000D01*
X94742000Y-105246051D02*
X95441051Y-104547000D01*
X94742000Y-101792000D02*
X97598000Y-101792000D01*
X91268051Y-101792000D02*
X94742000Y-101792000D01*
X97598000Y-101792000D02*
X99060000Y-100330000D01*
X87630000Y-105430051D02*
X91268051Y-101792000D01*
X101092000Y-95803528D02*
X101092000Y-95250000D01*
X89662000Y-101092000D02*
X95803528Y-101092000D01*
X86206975Y-104547025D02*
X89662000Y-101092000D01*
X85998503Y-104547025D02*
X86206975Y-104547025D01*
X85974528Y-104571000D02*
X85998503Y-104547025D01*
X95803528Y-101092000D02*
X101092000Y-95803528D01*
X138430000Y-96690000D02*
X138430000Y-96630000D01*
X138430000Y-96630000D02*
X137050000Y-95250000D01*
X111252000Y-97028000D02*
X111252000Y-97006500D01*
X135890000Y-96690000D02*
X135274000Y-96074000D01*
X87376000Y-96944000D02*
X91195000Y-93125000D01*
X123169949Y-96774000D02*
X121930500Y-96774000D01*
X103632000Y-94645000D02*
X103632000Y-95250000D01*
X102362000Y-94696472D02*
X102362000Y-95250000D01*
X143510000Y-96690000D02*
X140645000Y-93825000D01*
X102112000Y-93125000D02*
X103632000Y-94645000D01*
X115019000Y-95969000D02*
X109816528Y-95969000D01*
X91195000Y-93125000D02*
X102112000Y-93125000D01*
X127995949Y-101600000D02*
X123169949Y-96774000D01*
X84975000Y-91725000D02*
X79756000Y-96944000D01*
X146050000Y-96690000D02*
X146050000Y-101346000D01*
X145796000Y-101600000D02*
X127995949Y-101600000D01*
X146050000Y-101346000D02*
X145796000Y-101600000D01*
X121930500Y-96774000D02*
X120650000Y-98054500D01*
X127995949Y-101600000D02*
X116336051Y-101600000D01*
X137050000Y-95250000D02*
X108712000Y-95250000D01*
X106172000Y-94696472D02*
X103200528Y-91725000D01*
X107442000Y-100200000D02*
X107442000Y-100753528D01*
X87522000Y-99630000D02*
X93472000Y-99630000D01*
X103200528Y-91725000D02*
X84975000Y-91725000D01*
X106172000Y-95250000D02*
X106172000Y-94696472D01*
X116336051Y-101600000D02*
X111742551Y-97006500D01*
X106172000Y-94476000D02*
X106172000Y-95250000D01*
X111742551Y-97006500D02*
X111252000Y-97028000D01*
X115436000Y-98910000D02*
X116586000Y-100060000D01*
X106823000Y-93825000D02*
X106172000Y-94476000D01*
X116524000Y-96074000D02*
X115824000Y-96774000D01*
X109816528Y-95969000D02*
X109011528Y-96774000D01*
X115824000Y-96774000D02*
X115436000Y-97162000D01*
X146050000Y-96690000D02*
X140385000Y-91025000D01*
X103632000Y-95803528D02*
X103632000Y-95250000D01*
X109011528Y-96774000D02*
X104602472Y-96774000D01*
X104602472Y-96774000D02*
X103632000Y-95803528D01*
X135274000Y-96074000D02*
X116524000Y-96074000D01*
X140645000Y-93825000D02*
X106823000Y-93825000D01*
X99822000Y-100200000D02*
X99210051Y-100200000D01*
X115824000Y-96774000D02*
X115019000Y-95969000D01*
X102630528Y-92425000D02*
X86815000Y-92425000D01*
X104902000Y-95250000D02*
X104902000Y-94696472D01*
X115436000Y-97162000D02*
X115436000Y-98910000D01*
X86815000Y-92425000D02*
X82296000Y-96944000D01*
X104902000Y-94696472D02*
X102630528Y-92425000D01*
X83135000Y-91025000D02*
X77216000Y-96944000D01*
X140385000Y-91025000D02*
X83135000Y-91025000D01*
X93472000Y-99630000D02*
X99277000Y-93825000D01*
X94742000Y-100330000D02*
X99822000Y-95250000D01*
X77216000Y-96944000D02*
X77216000Y-99822000D01*
X77216000Y-99822000D02*
X77724000Y-100330000D01*
X77724000Y-100330000D02*
X94742000Y-100330000D01*
X84836000Y-96944000D02*
X87522000Y-99630000D01*
X99277000Y-93825000D02*
X101490528Y-93825000D01*
X101490528Y-93825000D02*
X102362000Y-94696472D01*
X116586000Y-98060000D02*
X120644500Y-98060000D01*
X122628500Y-100129500D02*
X122682000Y-100076000D01*
X120650000Y-100129500D02*
X122628500Y-100129500D01*
X120580500Y-100060000D02*
X120650000Y-100129500D01*
X116586000Y-100060000D02*
X120580500Y-100060000D01*
X120644500Y-98060000D02*
X120650000Y-98054500D01*
X106172000Y-102108000D02*
X106172000Y-100200000D01*
X110671849Y-102870000D02*
X106934000Y-102870000D01*
X106934000Y-102870000D02*
X106172000Y-102108000D01*
X135502000Y-105804051D02*
X133610949Y-103913000D01*
X135502000Y-106800000D02*
X135502000Y-105804051D01*
X136652000Y-107950000D02*
X135502000Y-106800000D01*
X133610949Y-103913000D02*
X111714849Y-103913000D01*
X111714849Y-103913000D02*
X110671849Y-102870000D01*
X123564000Y-106800000D02*
X124714000Y-107950000D01*
X111424899Y-104613000D02*
X122866949Y-104613000D01*
X110505899Y-103694000D02*
X111424899Y-104613000D01*
X106207950Y-103694000D02*
X110505899Y-103694000D01*
X122866949Y-104613000D02*
X123564000Y-105310051D01*
X104902000Y-102388050D02*
X106207950Y-103694000D01*
X104902000Y-100200000D02*
X104902000Y-102388050D01*
X123564000Y-105310051D02*
X123564000Y-106800000D01*
X110215949Y-104394000D02*
X105918000Y-104394000D01*
X111626000Y-105804051D02*
X110215949Y-104394000D01*
X103632000Y-102108000D02*
X103632000Y-100200000D01*
X111626000Y-106800000D02*
X111626000Y-105804051D01*
X105918000Y-104394000D02*
X103632000Y-102108000D01*
X113548528Y-103213000D02*
X109110528Y-98775000D01*
X144848949Y-103213000D02*
X113548528Y-103213000D01*
X147440000Y-105804051D02*
X144848949Y-103213000D01*
X147440000Y-106800000D02*
X147440000Y-105804051D01*
X148590000Y-107950000D02*
X147440000Y-106800000D01*
X102362000Y-102636051D02*
X102362000Y-100200000D01*
X75318000Y-106784000D02*
X74168000Y-107934000D01*
X75318000Y-105664000D02*
X75318000Y-106784000D01*
X85974528Y-104571000D02*
X76411000Y-104571000D01*
X76411000Y-104571000D02*
X75318000Y-105664000D01*
X87630000Y-106410000D02*
X86106000Y-107934000D01*
X87630000Y-105430051D02*
X87630000Y-106410000D01*
X94742000Y-105246051D02*
X94742000Y-109947000D01*
D27*
X90402472Y-109947000D02*
X94742000Y-109947000D01*
X94742000Y-109947000D02*
X96579528Y-109947000D01*
D24*
X99688000Y-106800000D02*
X100838000Y-107950000D01*
X99688000Y-105310051D02*
X99688000Y-106800000D01*
X102362000Y-102636051D02*
X99688000Y-105310051D01*
X111626000Y-106800000D02*
X112776000Y-107950000D01*
D27*
X155588000Y-107363000D02*
X156067000Y-107363000D01*
X156067000Y-107363000D02*
X157480000Y-105950000D01*
X157480000Y-108966000D02*
X157480000Y-107950000D01*
X156433000Y-110013000D02*
X157480000Y-108966000D01*
X149959472Y-110013000D02*
X156433000Y-110013000D01*
X148590000Y-108643528D02*
X149959472Y-110013000D01*
X148590000Y-107950000D02*
X148590000Y-108643528D01*
X148590000Y-105950000D02*
X149095000Y-105950000D01*
X144383000Y-107363000D02*
X145796000Y-105950000D01*
X143688000Y-107363000D02*
X144383000Y-107363000D01*
X145796000Y-108453528D02*
X145796000Y-107950000D01*
X144013528Y-110236000D02*
X145796000Y-108453528D01*
X136652000Y-108605528D02*
X138282472Y-110236000D01*
X136652000Y-107950000D02*
X136652000Y-108605528D01*
X138282472Y-110236000D02*
X144013528Y-110236000D01*
X136652000Y-105950000D02*
X137195000Y-105950000D01*
X132445000Y-107363000D02*
X133858000Y-105950000D01*
X131788000Y-107363000D02*
X132445000Y-107363000D01*
X133858000Y-108491528D02*
X133858000Y-107950000D01*
X132336528Y-110013000D02*
X133858000Y-108491528D01*
X126159472Y-110013000D02*
X132336528Y-110013000D01*
X124714000Y-108567528D02*
X126159472Y-110013000D01*
X124714000Y-107950000D02*
X124714000Y-108567528D01*
X120475000Y-107363000D02*
X121920000Y-105918000D01*
X119869000Y-107363000D02*
X120475000Y-107363000D01*
X120619000Y-110013000D02*
X121920000Y-108712000D01*
X121920000Y-108712000D02*
X121920000Y-107918000D01*
X114240472Y-110013000D02*
X120619000Y-110013000D01*
X112776000Y-108548528D02*
X114240472Y-110013000D01*
X112776000Y-107950000D02*
X112776000Y-108548528D01*
X108498528Y-109947000D02*
X109982000Y-108463528D01*
X102321472Y-109947000D02*
X108498528Y-109947000D01*
X100838000Y-108463528D02*
X102321472Y-109947000D01*
X100838000Y-107950000D02*
X100838000Y-108463528D01*
X109982000Y-108463528D02*
X109982000Y-107950000D01*
X96697000Y-107297000D02*
X98044000Y-105950000D01*
X96031000Y-107297000D02*
X96697000Y-107297000D01*
X96579528Y-109947000D02*
X98044000Y-108482528D01*
X98044000Y-108482528D02*
X98044000Y-107950000D01*
X88900000Y-108444528D02*
X90402472Y-109947000D01*
X88900000Y-107950000D02*
X88900000Y-108444528D01*
X78464472Y-109971000D02*
X84641528Y-109971000D01*
X86106000Y-108506528D02*
X86106000Y-107934000D01*
X76962000Y-108468528D02*
X78464472Y-109971000D01*
X76962000Y-107918000D02*
X76962000Y-108468528D01*
X84641528Y-109971000D02*
X86106000Y-108506528D01*
X84719000Y-107321000D02*
X86106000Y-105934000D01*
X84093000Y-107321000D02*
X84719000Y-107321000D01*
X72805000Y-107297000D02*
X74168000Y-105934000D01*
X72155000Y-107297000D02*
X72805000Y-107297000D01*
X74168000Y-108712000D02*
X74168000Y-107934000D01*
X72933000Y-109947000D02*
X74168000Y-108712000D01*
X66526472Y-109947000D02*
X72933000Y-109947000D01*
X65024000Y-108444528D02*
X66526472Y-109947000D01*
X65024000Y-108188000D02*
X65024000Y-108444528D01*
D28*
X143792000Y-124968000D02*
X144243000Y-124968000D01*
X148590000Y-120524478D02*
X148590000Y-120166000D01*
X113792000Y-120050000D02*
X117075000Y-116767000D01*
X103792000Y-118596000D02*
X105645000Y-116743000D01*
X93792000Y-117166000D02*
X94215000Y-116743000D01*
X83792000Y-117774000D02*
X82785000Y-116767000D01*
X73792000Y-119142000D02*
X71393000Y-116743000D01*
X128858000Y-130034000D02*
X128792000Y-129968000D01*
X83646000Y-130114000D02*
X83792000Y-129968000D01*
X73813000Y-129989000D02*
X73792000Y-129968000D01*
D27*
X78852000Y-137366000D02*
X79074000Y-137588000D01*
G04 #@! TA.AperFunction,Conductor*
G36*
X144534172Y-103972939D02*
G01*
X144574400Y-103999819D01*
X145232352Y-104657771D01*
X145263966Y-104711620D01*
X145265329Y-104774048D01*
X145236094Y-104829225D01*
X145183675Y-104863158D01*
X145026665Y-104915186D01*
X144877341Y-105007289D01*
X144866926Y-105017704D01*
X144819956Y-105047148D01*
X144764849Y-105053182D01*
X144712620Y-105034601D01*
X144673708Y-104995117D01*
X144672815Y-104993669D01*
X144672814Y-104993666D01*
X144592560Y-104863553D01*
X144580711Y-104844342D01*
X144456657Y-104720288D01*
X144307334Y-104628186D01*
X144140797Y-104573000D01*
X144047535Y-104563473D01*
X144038008Y-104562500D01*
X143337991Y-104562500D01*
X143235203Y-104573000D01*
X143068665Y-104628186D01*
X142919342Y-104720288D01*
X142795288Y-104844342D01*
X142703186Y-104993665D01*
X142648000Y-105160202D01*
X142637500Y-105262990D01*
X142637501Y-109461500D01*
X142620888Y-109523500D01*
X142575501Y-109568887D01*
X142513501Y-109585500D01*
X139782000Y-109585500D01*
X139720000Y-109568887D01*
X139674613Y-109523500D01*
X139658000Y-109461500D01*
X139658000Y-107863000D01*
X138232000Y-107863000D01*
X138170000Y-107846387D01*
X138124613Y-107801000D01*
X138108000Y-107739000D01*
X138108000Y-104589169D01*
X139108000Y-104589169D01*
X139108000Y-106863000D01*
X139657999Y-106863000D01*
X139657999Y-105263021D01*
X139647506Y-105160304D01*
X139592357Y-104993877D01*
X139500316Y-104844654D01*
X139376345Y-104720683D01*
X139227122Y-104628642D01*
X139108000Y-104589169D01*
X138108000Y-104589169D01*
X137988877Y-104628642D01*
X137839654Y-104720683D01*
X137715683Y-104844654D01*
X137667880Y-104922155D01*
X137621192Y-104966202D01*
X137558736Y-104981005D01*
X137497245Y-104962596D01*
X137421119Y-104915641D01*
X137254696Y-104860493D01*
X137152000Y-104850002D01*
X137152000Y-106326000D01*
X137135387Y-106388000D01*
X137090000Y-106433387D01*
X137028000Y-106450000D01*
X136376500Y-106450000D01*
X136314500Y-106433387D01*
X136269113Y-106388000D01*
X136252500Y-106326000D01*
X136252500Y-105867757D01*
X136253809Y-105849787D01*
X136254338Y-105846169D01*
X136257289Y-105826028D01*
X136252972Y-105776682D01*
X136252500Y-105765875D01*
X136252500Y-105760340D01*
X136248903Y-105729572D01*
X136248536Y-105725980D01*
X136248021Y-105720097D01*
X136241999Y-105651254D01*
X136241998Y-105651252D01*
X136241889Y-105650000D01*
X136237672Y-105630981D01*
X136211592Y-105559325D01*
X136210408Y-105555919D01*
X136198133Y-105518877D01*
X136186814Y-105484717D01*
X136186813Y-105484716D01*
X136186417Y-105483519D01*
X136177929Y-105465987D01*
X136177237Y-105464935D01*
X136177237Y-105464934D01*
X136172397Y-105457575D01*
X136157209Y-105425004D01*
X136152000Y-105389440D01*
X136152000Y-104850003D01*
X136151999Y-104850002D01*
X136049304Y-104860493D01*
X135882877Y-104915642D01*
X135837727Y-104943491D01*
X135785831Y-104961247D01*
X135731352Y-104954879D01*
X135684950Y-104925633D01*
X134934498Y-104175181D01*
X134904248Y-104125818D01*
X134899706Y-104068102D01*
X134921861Y-104014615D01*
X134965884Y-103977015D01*
X135022179Y-103963500D01*
X144486719Y-103963500D01*
X144534172Y-103972939D01*
G37*
G04 #@! TD.AperFunction*
G04 #@! TA.AperFunction,Conductor*
G36*
X130847438Y-104680566D02*
G01*
X130892936Y-104727068D01*
X130908630Y-104790204D01*
X130890198Y-104852596D01*
X130803186Y-104993665D01*
X130748000Y-105160202D01*
X130739268Y-105245683D01*
X130737500Y-105262991D01*
X130737500Y-107280666D01*
X130737501Y-109238500D01*
X130720888Y-109300500D01*
X130675501Y-109345887D01*
X130613501Y-109362500D01*
X127882000Y-109362500D01*
X127820000Y-109345887D01*
X127774613Y-109300500D01*
X127758000Y-109238500D01*
X127758000Y-107863000D01*
X126332000Y-107863000D01*
X126270000Y-107846387D01*
X126224613Y-107801000D01*
X126208000Y-107739000D01*
X126208000Y-106987000D01*
X126224613Y-106925000D01*
X126270000Y-106879613D01*
X126332000Y-106863000D01*
X127757999Y-106863000D01*
X127757999Y-105263021D01*
X127747506Y-105160304D01*
X127692357Y-104993877D01*
X127605215Y-104852596D01*
X127586783Y-104790204D01*
X127602477Y-104727068D01*
X127647975Y-104680566D01*
X127710754Y-104663500D01*
X130784659Y-104663500D01*
X130847438Y-104680566D01*
G37*
G04 #@! TD.AperFunction*
G04 #@! TA.AperFunction,Conductor*
G36*
X118756500Y-105380113D02*
G01*
X118801887Y-105425500D01*
X118818500Y-105487500D01*
X118818501Y-109238500D01*
X118801888Y-109300500D01*
X118756501Y-109345887D01*
X118694501Y-109362500D01*
X115963000Y-109362500D01*
X115901000Y-109345887D01*
X115855613Y-109300500D01*
X115839000Y-109238500D01*
X115839000Y-107863000D01*
X114413000Y-107863000D01*
X114351000Y-107846387D01*
X114305613Y-107801000D01*
X114289000Y-107739000D01*
X114289000Y-106987000D01*
X114305613Y-106925000D01*
X114351000Y-106879613D01*
X114413000Y-106863000D01*
X115838999Y-106863000D01*
X115838999Y-105487500D01*
X115855612Y-105425500D01*
X115900999Y-105380113D01*
X115962999Y-105363500D01*
X118694500Y-105363500D01*
X118756500Y-105380113D01*
G37*
G04 #@! TD.AperFunction*
G04 #@! TA.AperFunction,Conductor*
G36*
X82980500Y-105338113D02*
G01*
X83025887Y-105383500D01*
X83042500Y-105445500D01*
X83042501Y-109196500D01*
X83025888Y-109258500D01*
X82980501Y-109303887D01*
X82918501Y-109320500D01*
X80187000Y-109320500D01*
X80125000Y-109303887D01*
X80079613Y-109258500D01*
X80063000Y-109196500D01*
X80063000Y-107821000D01*
X78637000Y-107821000D01*
X78575000Y-107804387D01*
X78529613Y-107759000D01*
X78513000Y-107697000D01*
X78513000Y-106945000D01*
X78529613Y-106883000D01*
X78575000Y-106837613D01*
X78637000Y-106821000D01*
X80062999Y-106821000D01*
X80062999Y-105445500D01*
X80079612Y-105383500D01*
X80124999Y-105338113D01*
X80186999Y-105321500D01*
X82918500Y-105321500D01*
X82980500Y-105338113D01*
G37*
G04 #@! TD.AperFunction*
G04 #@! TA.AperFunction,Conductor*
G36*
X103285873Y-102823241D02*
G01*
X105342267Y-104879634D01*
X105354048Y-104893266D01*
X105368387Y-104912526D01*
X105368390Y-104912530D01*
X105406355Y-104944386D01*
X105414317Y-104951684D01*
X105418224Y-104955591D01*
X105442542Y-104974819D01*
X105445298Y-104977063D01*
X105502786Y-105025302D01*
X105502788Y-105025303D01*
X105503757Y-105026116D01*
X105520177Y-105036576D01*
X105521321Y-105037109D01*
X105521323Y-105037111D01*
X105589357Y-105068835D01*
X105592456Y-105070335D01*
X105659567Y-105104040D01*
X105660704Y-105104611D01*
X105679084Y-105110998D01*
X105680321Y-105111253D01*
X105680327Y-105111256D01*
X105753862Y-105126439D01*
X105757209Y-105127181D01*
X105830279Y-105144500D01*
X105830281Y-105144500D01*
X105831505Y-105144790D01*
X105850876Y-105146769D01*
X105852140Y-105146732D01*
X105852144Y-105146733D01*
X105927110Y-105144552D01*
X105930716Y-105144500D01*
X106775500Y-105144500D01*
X106837500Y-105161113D01*
X106882887Y-105206500D01*
X106899500Y-105268500D01*
X106899500Y-107245288D01*
X106899501Y-109172500D01*
X106882888Y-109234500D01*
X106837501Y-109279887D01*
X106775501Y-109296500D01*
X104044000Y-109296500D01*
X103982000Y-109279887D01*
X103936613Y-109234500D01*
X103920000Y-109172500D01*
X103920000Y-107797000D01*
X102494000Y-107797000D01*
X102432000Y-107780387D01*
X102386613Y-107735000D01*
X102370000Y-107673000D01*
X102370000Y-104523169D01*
X103370000Y-104523169D01*
X103370000Y-106797000D01*
X103919999Y-106797000D01*
X103919999Y-105197021D01*
X103909506Y-105094304D01*
X103854357Y-104927877D01*
X103762316Y-104778654D01*
X103638345Y-104654683D01*
X103489122Y-104562642D01*
X103370000Y-104523169D01*
X102370000Y-104523169D01*
X102250877Y-104562642D01*
X102101654Y-104654683D01*
X101977682Y-104778655D01*
X101879445Y-104937922D01*
X101832758Y-104981970D01*
X101770301Y-104996773D01*
X101708811Y-104978364D01*
X101607122Y-104915642D01*
X101449928Y-104863553D01*
X101397509Y-104829620D01*
X101368274Y-104774443D01*
X101369637Y-104712015D01*
X101401248Y-104658169D01*
X102847642Y-103211775D01*
X102861260Y-103200005D01*
X102880530Y-103185661D01*
X102912376Y-103147707D01*
X102919662Y-103139755D01*
X102923591Y-103135828D01*
X102942833Y-103111490D01*
X102945090Y-103108721D01*
X102959853Y-103091126D01*
X102993302Y-103051265D01*
X102993303Y-103051262D01*
X102994115Y-103050295D01*
X103004573Y-103033878D01*
X103005106Y-103032733D01*
X103005111Y-103032728D01*
X103036833Y-102964697D01*
X103038362Y-102961539D01*
X103072040Y-102894484D01*
X103072040Y-102894483D01*
X103072612Y-102893345D01*
X103079949Y-102872237D01*
X103085391Y-102860572D01*
X103088854Y-102862187D01*
X103106756Y-102827163D01*
X103162616Y-102792135D01*
X103228534Y-102790692D01*
X103285873Y-102823241D01*
G37*
G04 #@! TD.AperFunction*
G04 #@! TA.AperFunction,Conductor*
G36*
X99176891Y-101449837D02*
G01*
X99210161Y-101483107D01*
X99242255Y-101538694D01*
X99242255Y-101602882D01*
X99210161Y-101658469D01*
X97108451Y-103760181D01*
X97068223Y-103787061D01*
X97020770Y-103796500D01*
X95504757Y-103796500D01*
X95486787Y-103795191D01*
X95472904Y-103793157D01*
X95463028Y-103791711D01*
X95463027Y-103791711D01*
X95413685Y-103796028D01*
X95402878Y-103796500D01*
X95397342Y-103796500D01*
X95366534Y-103800100D01*
X95362951Y-103800466D01*
X95287001Y-103807111D01*
X95267973Y-103811329D01*
X95196321Y-103837407D01*
X95192920Y-103838589D01*
X95120531Y-103862578D01*
X95102978Y-103871076D01*
X95039287Y-103912965D01*
X95036249Y-103914901D01*
X94971328Y-103954947D01*
X94956214Y-103967258D01*
X94903883Y-104022725D01*
X94901371Y-104025311D01*
X94256359Y-104670322D01*
X94242728Y-104682102D01*
X94223469Y-104696440D01*
X94191633Y-104734380D01*
X94184341Y-104742340D01*
X94180408Y-104746273D01*
X94161176Y-104770596D01*
X94158902Y-104773388D01*
X94109894Y-104831795D01*
X94099418Y-104848238D01*
X94067192Y-104917345D01*
X94065622Y-104920587D01*
X94031393Y-104988743D01*
X94024996Y-105007149D01*
X94009573Y-105081839D01*
X94008793Y-105085356D01*
X93991208Y-105159556D01*
X93989229Y-105178929D01*
X93991448Y-105255182D01*
X93991500Y-105258788D01*
X93991500Y-109172500D01*
X93974887Y-109234500D01*
X93929500Y-109279887D01*
X93867500Y-109296500D01*
X92125000Y-109296500D01*
X92063000Y-109279887D01*
X92017613Y-109234500D01*
X92001000Y-109172500D01*
X92001000Y-107797000D01*
X90575000Y-107797000D01*
X90513000Y-107780387D01*
X90467613Y-107735000D01*
X90451000Y-107673000D01*
X90451000Y-104523169D01*
X91451000Y-104523169D01*
X91451000Y-106797000D01*
X92000999Y-106797000D01*
X92000999Y-105197021D01*
X91990506Y-105094304D01*
X91935357Y-104927877D01*
X91843316Y-104778654D01*
X91719345Y-104654683D01*
X91570122Y-104562642D01*
X91451000Y-104523169D01*
X90451000Y-104523169D01*
X90331877Y-104562642D01*
X90182654Y-104654683D01*
X90058683Y-104778654D01*
X89959034Y-104940213D01*
X89957790Y-104939445D01*
X89940079Y-104968626D01*
X89893543Y-104998745D01*
X89838534Y-105005579D01*
X89786043Y-104987760D01*
X89669120Y-104915641D01*
X89511928Y-104863553D01*
X89459509Y-104829620D01*
X89430274Y-104774443D01*
X89431637Y-104712015D01*
X89463248Y-104658170D01*
X91542599Y-102578819D01*
X91582828Y-102551939D01*
X91630281Y-102542500D01*
X94654279Y-102542500D01*
X94785709Y-102542500D01*
X97534294Y-102542500D01*
X97552264Y-102543809D01*
X97556320Y-102544402D01*
X97576023Y-102547289D01*
X97625368Y-102542972D01*
X97636176Y-102542500D01*
X97641706Y-102542500D01*
X97641709Y-102542500D01*
X97672550Y-102538894D01*
X97676031Y-102538539D01*
X97750797Y-102531999D01*
X97750797Y-102531998D01*
X97752052Y-102531889D01*
X97771062Y-102527674D01*
X97772250Y-102527241D01*
X97772255Y-102527241D01*
X97842820Y-102501557D01*
X97846095Y-102500419D01*
X97917334Y-102476814D01*
X97917336Y-102476812D01*
X97918536Y-102476415D01*
X97936063Y-102467929D01*
X97937112Y-102467238D01*
X97937117Y-102467237D01*
X97999806Y-102426005D01*
X98002798Y-102424099D01*
X98066656Y-102384712D01*
X98066656Y-102384711D01*
X98067729Y-102384050D01*
X98082824Y-102371753D01*
X98083692Y-102370832D01*
X98083696Y-102370830D01*
X98135185Y-102316253D01*
X98137631Y-102313735D01*
X99001531Y-101449835D01*
X99057116Y-101417743D01*
X99121304Y-101417743D01*
X99176891Y-101449837D01*
G37*
G04 #@! TD.AperFunction*
G04 #@! TA.AperFunction,Conductor*
G36*
X108950000Y-99916613D02*
G01*
X108995387Y-99962000D01*
X109012000Y-100024000D01*
X109012000Y-101658296D01*
X109122199Y-101626281D01*
X109263557Y-101542682D01*
X109379682Y-101426557D01*
X109463282Y-101285197D01*
X109509099Y-101127493D01*
X109512000Y-101090639D01*
X109512000Y-100537202D01*
X109525515Y-100480907D01*
X109563115Y-100436884D01*
X109616602Y-100414729D01*
X109674318Y-100419271D01*
X109723681Y-100449521D01*
X112224979Y-102950819D01*
X112255229Y-103000182D01*
X112259771Y-103057898D01*
X112237616Y-103111385D01*
X112193593Y-103148985D01*
X112137298Y-103162500D01*
X112077078Y-103162500D01*
X112029625Y-103153061D01*
X111989397Y-103126181D01*
X111247577Y-102384360D01*
X111235795Y-102370727D01*
X111233646Y-102367841D01*
X111221459Y-102351470D01*
X111207788Y-102339999D01*
X111183515Y-102319631D01*
X111175540Y-102312323D01*
X111171631Y-102308414D01*
X111171630Y-102308413D01*
X111171626Y-102308409D01*
X111147272Y-102289152D01*
X111144496Y-102286890D01*
X111086100Y-102237890D01*
X111069670Y-102227422D01*
X111000540Y-102195186D01*
X110997296Y-102193615D01*
X110929155Y-102159394D01*
X110910752Y-102152997D01*
X110909522Y-102152743D01*
X110836055Y-102137572D01*
X110832541Y-102136794D01*
X110758339Y-102119208D01*
X110738970Y-102117229D01*
X110662718Y-102119448D01*
X110659112Y-102119500D01*
X107296229Y-102119500D01*
X107248776Y-102110061D01*
X107208548Y-102083181D01*
X106979157Y-101853789D01*
X106946930Y-101797699D01*
X106947336Y-101733012D01*
X106980266Y-101677331D01*
X107036756Y-101645812D01*
X107101433Y-101647031D01*
X107189431Y-101672598D01*
X107226306Y-101675500D01*
X107657692Y-101675500D01*
X107657694Y-101675500D01*
X107694569Y-101672598D01*
X107852398Y-101626744D01*
X107961499Y-101562222D01*
X108007349Y-101535107D01*
X108008213Y-101536569D01*
X108045254Y-101515182D01*
X108109444Y-101515179D01*
X108146020Y-101536296D01*
X108146960Y-101534709D01*
X108301800Y-101626281D01*
X108412000Y-101658296D01*
X108412000Y-100024000D01*
X108428613Y-99962000D01*
X108474000Y-99916613D01*
X108536000Y-99900000D01*
X108888000Y-99900000D01*
X108950000Y-99916613D01*
G37*
G04 #@! TD.AperFunction*
G04 #@! TA.AperFunction,Conductor*
G36*
X112252274Y-98590939D02*
G01*
X112292502Y-98617819D01*
X115760320Y-102085637D01*
X115772102Y-102099270D01*
X115786441Y-102118530D01*
X115791742Y-102122978D01*
X115824388Y-102150372D01*
X115832362Y-102157680D01*
X115836272Y-102161590D01*
X115860588Y-102180816D01*
X115863387Y-102183096D01*
X115931939Y-102240618D01*
X115930245Y-102242636D01*
X115962381Y-102271573D01*
X115981918Y-102334175D01*
X115966793Y-102397986D01*
X115921238Y-102445159D01*
X115857993Y-102462500D01*
X113910757Y-102462500D01*
X113863304Y-102453061D01*
X113823076Y-102426181D01*
X111769978Y-100373083D01*
X111736697Y-100312680D01*
X111740832Y-100243839D01*
X111781106Y-100187854D01*
X111845059Y-100162044D01*
X111879695Y-100158506D01*
X112046122Y-100103357D01*
X112195345Y-100011316D01*
X112319316Y-99887345D01*
X112411357Y-99738122D01*
X112463257Y-99581500D01*
X111029758Y-99581500D01*
X110982305Y-99572061D01*
X110942077Y-99545181D01*
X110788319Y-99391423D01*
X110761439Y-99351195D01*
X110752000Y-99303742D01*
X110752000Y-98705500D01*
X110768613Y-98643500D01*
X110814000Y-98598113D01*
X110876000Y-98581500D01*
X112204821Y-98581500D01*
X112252274Y-98590939D01*
G37*
G04 #@! TD.AperFunction*
G04 #@! TA.AperFunction,Conductor*
G36*
X154002442Y-88996596D02*
G01*
X154008703Y-88996841D01*
X154241171Y-89005975D01*
X154241419Y-89006051D01*
X154241420Y-89005985D01*
X154241531Y-89005989D01*
X154472173Y-89015529D01*
X154481571Y-89016278D01*
X154723187Y-89044876D01*
X154952341Y-89073440D01*
X154961183Y-89074870D01*
X155199560Y-89122286D01*
X155200339Y-89122445D01*
X155426298Y-89169824D01*
X155434444Y-89171824D01*
X155668182Y-89237745D01*
X155669753Y-89238200D01*
X155890895Y-89304037D01*
X155898400Y-89306535D01*
X156126259Y-89390597D01*
X156128273Y-89391362D01*
X156343145Y-89475205D01*
X156349963Y-89478104D01*
X156570464Y-89579756D01*
X156572903Y-89580914D01*
X156780180Y-89682245D01*
X156786241Y-89685421D01*
X156998057Y-89804044D01*
X157000853Y-89805659D01*
X157199040Y-89923753D01*
X157204420Y-89927150D01*
X157406284Y-90062031D01*
X157409373Y-90064166D01*
X157597098Y-90198199D01*
X157601768Y-90201704D01*
X157680682Y-90263914D01*
X157792387Y-90351976D01*
X157795748Y-90354722D01*
X157971759Y-90503796D01*
X157975764Y-90507341D01*
X158153973Y-90672076D01*
X158157483Y-90675451D01*
X158320547Y-90838515D01*
X158323922Y-90842025D01*
X158488657Y-91020234D01*
X158492208Y-91024246D01*
X158641266Y-91200238D01*
X158644022Y-91203611D01*
X158794285Y-91394218D01*
X158797810Y-91398915D01*
X158931814Y-91586599D01*
X158933982Y-91589737D01*
X159068845Y-91791574D01*
X159072259Y-91796980D01*
X159185594Y-91987181D01*
X159190298Y-91995074D01*
X159191964Y-91997959D01*
X159310559Y-92209724D01*
X159313771Y-92215853D01*
X159415059Y-92423042D01*
X159416268Y-92425589D01*
X159517890Y-92646026D01*
X159520797Y-92652864D01*
X159604608Y-92867653D01*
X159605427Y-92869809D01*
X159689457Y-93097582D01*
X159691966Y-93105119D01*
X159757777Y-93326173D01*
X159758276Y-93327896D01*
X159824166Y-93561524D01*
X159826183Y-93569736D01*
X159873506Y-93795430D01*
X159873762Y-93796686D01*
X159921127Y-94034810D01*
X159922558Y-94043663D01*
X159951103Y-94272658D01*
X159951195Y-94273421D01*
X159979717Y-94514401D01*
X159980471Y-94523852D01*
X159990014Y-94754577D01*
X159990024Y-94754833D01*
X159999403Y-94993537D01*
X159999499Y-94998452D01*
X159983500Y-136903603D01*
X159983404Y-136908424D01*
X159974024Y-137147166D01*
X159974014Y-137147422D01*
X159964471Y-137378146D01*
X159963717Y-137387597D01*
X159935195Y-137628577D01*
X159935103Y-137629340D01*
X159906558Y-137858335D01*
X159905127Y-137867188D01*
X159857762Y-138105312D01*
X159857506Y-138106568D01*
X159810183Y-138332262D01*
X159808166Y-138340474D01*
X159742276Y-138574102D01*
X159741777Y-138575825D01*
X159675966Y-138796879D01*
X159673457Y-138804416D01*
X159589427Y-139032189D01*
X159588608Y-139034345D01*
X159504797Y-139249134D01*
X159501890Y-139255972D01*
X159400268Y-139476409D01*
X159399059Y-139478956D01*
X159297771Y-139686145D01*
X159294559Y-139692274D01*
X159175964Y-139904039D01*
X159174298Y-139906924D01*
X159056266Y-140105007D01*
X159052845Y-140110424D01*
X158917982Y-140312261D01*
X158915797Y-140315424D01*
X158781823Y-140503066D01*
X158778285Y-140507780D01*
X158628022Y-140698387D01*
X158625266Y-140701760D01*
X158476224Y-140877734D01*
X158472657Y-140881764D01*
X158307922Y-141059973D01*
X158304547Y-141063483D01*
X158141483Y-141226547D01*
X158137973Y-141229922D01*
X157959764Y-141394657D01*
X157955734Y-141398224D01*
X157779760Y-141547266D01*
X157776387Y-141550022D01*
X157585780Y-141700285D01*
X157581066Y-141703823D01*
X157393424Y-141837797D01*
X157390261Y-141839982D01*
X157188424Y-141974845D01*
X157183007Y-141978266D01*
X156984924Y-142096298D01*
X156982039Y-142097964D01*
X156770274Y-142216559D01*
X156764145Y-142219771D01*
X156556956Y-142321059D01*
X156554409Y-142322268D01*
X156333972Y-142423890D01*
X156327134Y-142426797D01*
X156112345Y-142510608D01*
X156110189Y-142511427D01*
X155882416Y-142595457D01*
X155874879Y-142597966D01*
X155653825Y-142663777D01*
X155652102Y-142664276D01*
X155418474Y-142730166D01*
X155410262Y-142732183D01*
X155184568Y-142779506D01*
X155183312Y-142779762D01*
X154945188Y-142827127D01*
X154936335Y-142828558D01*
X154707340Y-142857103D01*
X154706577Y-142857195D01*
X154465597Y-142885717D01*
X154456146Y-142886471D01*
X154225422Y-142896014D01*
X154225167Y-142896024D01*
X153993467Y-142905128D01*
X153986442Y-142905404D01*
X153981575Y-142905500D01*
X68486425Y-142905500D01*
X68481557Y-142905404D01*
X68242832Y-142896024D01*
X68242579Y-142895946D01*
X68242577Y-142896014D01*
X68011852Y-142886471D01*
X68002401Y-142885717D01*
X67761421Y-142857195D01*
X67760658Y-142857103D01*
X67531663Y-142828558D01*
X67522810Y-142827127D01*
X67284686Y-142779762D01*
X67283430Y-142779506D01*
X67057736Y-142732183D01*
X67049524Y-142730166D01*
X66815896Y-142664276D01*
X66814173Y-142663777D01*
X66593119Y-142597966D01*
X66585582Y-142595457D01*
X66357809Y-142511427D01*
X66355653Y-142510608D01*
X66140864Y-142426797D01*
X66134026Y-142423890D01*
X65913589Y-142322268D01*
X65911042Y-142321059D01*
X65703853Y-142219771D01*
X65697732Y-142216563D01*
X65570754Y-142145452D01*
X65485959Y-142097964D01*
X65483100Y-142096313D01*
X65284980Y-141978259D01*
X65279574Y-141974845D01*
X65077737Y-141839982D01*
X65074599Y-141837814D01*
X64886915Y-141703810D01*
X64882218Y-141700285D01*
X64691611Y-141550022D01*
X64688238Y-141547266D01*
X64512246Y-141398208D01*
X64508234Y-141394657D01*
X64330025Y-141229922D01*
X64326515Y-141226547D01*
X64163451Y-141063483D01*
X64160076Y-141059973D01*
X63995341Y-140881764D01*
X63991796Y-140877759D01*
X63842722Y-140701748D01*
X63839976Y-140698387D01*
X63689713Y-140507780D01*
X63686199Y-140503098D01*
X63552166Y-140315373D01*
X63550031Y-140312284D01*
X63415150Y-140110420D01*
X63411753Y-140105040D01*
X63293659Y-139906853D01*
X63292034Y-139904039D01*
X63173421Y-139692241D01*
X63170245Y-139686180D01*
X63068914Y-139478903D01*
X63067756Y-139476464D01*
X62966104Y-139255963D01*
X62963201Y-139249134D01*
X62879362Y-139034273D01*
X62878597Y-139032259D01*
X62794535Y-138804400D01*
X62792037Y-138796895D01*
X62726200Y-138575753D01*
X62725745Y-138574182D01*
X62659824Y-138340444D01*
X62657824Y-138332298D01*
X62610445Y-138106339D01*
X62610286Y-138105560D01*
X62562870Y-137867183D01*
X62561440Y-137858335D01*
X62551842Y-137781334D01*
X62532876Y-137629187D01*
X62504278Y-137387571D01*
X62503529Y-137378173D01*
X62493975Y-137147166D01*
X62487162Y-136973764D01*
X66629787Y-136973764D01*
X66659413Y-137243016D01*
X66659414Y-137243018D01*
X66727928Y-137505088D01*
X66833870Y-137754390D01*
X66833871Y-137754392D01*
X66974982Y-137985611D01*
X67128431Y-138169999D01*
X67148255Y-138193820D01*
X67349998Y-138374582D01*
X67575910Y-138524044D01*
X67682211Y-138573876D01*
X67821177Y-138639021D01*
X68080562Y-138717058D01*
X68080569Y-138717060D01*
X68348561Y-138756500D01*
X68551631Y-138756500D01*
X68551634Y-138756500D01*
X68754156Y-138741677D01*
X68754156Y-138741676D01*
X69018553Y-138682780D01*
X69271558Y-138586014D01*
X69507777Y-138453441D01*
X69722177Y-138287888D01*
X69910186Y-138092881D01*
X70067799Y-137872579D01*
X70191656Y-137631675D01*
X70279118Y-137375305D01*
X70328319Y-137108933D01*
X70338212Y-136838235D01*
X70308586Y-136568982D01*
X70240072Y-136306912D01*
X70134130Y-136057610D01*
X70045476Y-135912346D01*
X69993017Y-135826388D01*
X69819746Y-135618181D01*
X69781855Y-135584231D01*
X69618002Y-135437418D01*
X69392090Y-135287956D01*
X69392086Y-135287954D01*
X69146822Y-135172978D01*
X68887437Y-135094941D01*
X68887431Y-135094940D01*
X68619439Y-135055500D01*
X68416369Y-135055500D01*
X68416366Y-135055500D01*
X68213843Y-135070322D01*
X67949449Y-135129219D01*
X67696441Y-135225986D01*
X67460223Y-135358559D01*
X67245825Y-135524109D01*
X67057813Y-135719120D01*
X66900201Y-135939420D01*
X66827820Y-136080203D01*
X66782019Y-136169288D01*
X66776342Y-136180329D01*
X66688881Y-136436695D01*
X66639680Y-136703066D01*
X66629787Y-136973764D01*
X62487162Y-136973764D01*
X62484595Y-136908424D01*
X62484500Y-136903584D01*
X62487602Y-128778000D01*
X67478340Y-128778000D01*
X67498936Y-129013407D01*
X67543709Y-129180502D01*
X67560097Y-129241663D01*
X67659965Y-129455830D01*
X67795505Y-129649401D01*
X67795508Y-129649404D01*
X67917430Y-129771326D01*
X67948726Y-129824072D01*
X67950915Y-129885365D01*
X67923462Y-129940209D01*
X67873083Y-129975189D01*
X67741669Y-130024204D01*
X67626454Y-130110454D01*
X67540204Y-130225668D01*
X67489909Y-130360515D01*
X67489909Y-130360517D01*
X67485504Y-130401493D01*
X67483500Y-130420130D01*
X67483500Y-132215869D01*
X67489909Y-132275483D01*
X67540204Y-132410331D01*
X67626454Y-132525546D01*
X67741669Y-132611796D01*
X67876517Y-132662091D01*
X67936127Y-132668500D01*
X69731872Y-132668499D01*
X69791483Y-132662091D01*
X69926331Y-132611796D01*
X70041546Y-132525546D01*
X70127796Y-132410331D01*
X70178091Y-132275483D01*
X70184500Y-132215873D01*
X70184499Y-130420128D01*
X70178091Y-130360517D01*
X70127796Y-130225669D01*
X70041546Y-130110454D01*
X69926331Y-130024204D01*
X69864898Y-130001291D01*
X69794916Y-129975189D01*
X69744537Y-129940209D01*
X69717084Y-129885365D01*
X69719273Y-129824072D01*
X69750566Y-129771329D01*
X69872495Y-129649401D01*
X70008035Y-129455830D01*
X70107903Y-129241663D01*
X70169063Y-129013408D01*
X70189659Y-128778000D01*
X70169063Y-128542592D01*
X70107903Y-128314337D01*
X70008035Y-128100171D01*
X69872495Y-127906599D01*
X69705401Y-127739505D01*
X69519402Y-127609267D01*
X69480539Y-127564951D01*
X69466528Y-127507694D01*
X69480539Y-127450437D01*
X69519405Y-127406119D01*
X69705078Y-127276109D01*
X69872106Y-127109081D01*
X70007600Y-126915576D01*
X70090406Y-126738000D01*
X67577593Y-126738000D01*
X67660399Y-126915576D01*
X67795893Y-127109081D01*
X67962918Y-127276106D01*
X68148595Y-127406119D01*
X68187460Y-127450437D01*
X68201471Y-127507694D01*
X68187460Y-127564951D01*
X68148595Y-127609269D01*
X67962595Y-127739508D01*
X67795505Y-127906598D01*
X67659965Y-128100170D01*
X67560097Y-128314336D01*
X67498936Y-128542592D01*
X67478340Y-128778000D01*
X62487602Y-128778000D01*
X62489351Y-124198000D01*
X67577593Y-124198000D01*
X67660399Y-124375576D01*
X67795893Y-124569081D01*
X67962918Y-124736106D01*
X68149031Y-124866425D01*
X68187896Y-124910743D01*
X68201907Y-124968000D01*
X68187896Y-125025257D01*
X68149031Y-125069575D01*
X67962918Y-125199893D01*
X67795890Y-125366921D01*
X67660400Y-125560421D01*
X67577594Y-125737999D01*
X67577594Y-125738000D01*
X68334000Y-125738000D01*
X68334000Y-124198000D01*
X69334000Y-124198000D01*
X69334000Y-125738000D01*
X70090406Y-125738000D01*
X70090405Y-125737999D01*
X70007599Y-125560421D01*
X69872109Y-125366921D01*
X69705081Y-125199893D01*
X69518968Y-125069575D01*
X69480103Y-125025257D01*
X69466092Y-124968000D01*
X69480103Y-124910743D01*
X69518968Y-124866425D01*
X69705081Y-124736106D01*
X69872106Y-124569081D01*
X70007600Y-124375576D01*
X70090406Y-124198000D01*
X69334000Y-124198000D01*
X68334000Y-124198000D01*
X67577593Y-124198000D01*
X62489351Y-124198000D01*
X62489733Y-123198000D01*
X67577594Y-123198000D01*
X68334000Y-123198000D01*
X68334000Y-122441595D01*
X68333999Y-122441594D01*
X68156421Y-122524400D01*
X67962921Y-122659890D01*
X67795890Y-122826921D01*
X67660400Y-123020421D01*
X67577594Y-123197999D01*
X67577594Y-123198000D01*
X62489733Y-123198000D01*
X62490022Y-122441593D01*
X69334000Y-122441593D01*
X69334000Y-123198000D01*
X70090406Y-123198000D01*
X70090405Y-123197999D01*
X70007599Y-123020421D01*
X69872109Y-122826921D01*
X69705081Y-122659893D01*
X69511576Y-122524399D01*
X69334000Y-122441593D01*
X62490022Y-122441593D01*
X62490592Y-120947008D01*
X63714500Y-120947008D01*
X63725000Y-121049796D01*
X63780186Y-121216334D01*
X63872288Y-121365657D01*
X63996342Y-121489711D01*
X63996344Y-121489712D01*
X64145666Y-121581814D01*
X64257016Y-121618712D01*
X64312202Y-121636999D01*
X64337205Y-121639553D01*
X64396925Y-121645654D01*
X64404233Y-121647499D01*
X64408665Y-121647499D01*
X64421280Y-121648142D01*
X64428432Y-121648873D01*
X64436384Y-121647499D01*
X69954722Y-121647499D01*
X69954734Y-121647500D01*
X69964991Y-121647500D01*
X72167500Y-121647500D01*
X72229500Y-121664113D01*
X72274887Y-121709500D01*
X72291500Y-121771500D01*
X72291500Y-123450465D01*
X72276929Y-123508786D01*
X72236640Y-123553400D01*
X72180101Y-123573823D01*
X72139203Y-123578000D01*
X71972665Y-123633186D01*
X71823342Y-123725288D01*
X71699288Y-123849342D01*
X71607186Y-123998665D01*
X71552000Y-124165202D01*
X71541500Y-124267990D01*
X71541500Y-125668008D01*
X71552000Y-125770796D01*
X71607186Y-125937334D01*
X71699288Y-126086657D01*
X71823342Y-126210711D01*
X71823344Y-126210712D01*
X71972666Y-126302814D01*
X72084017Y-126339712D01*
X72139202Y-126357999D01*
X72152566Y-126359364D01*
X72180101Y-126362177D01*
X72236639Y-126382599D01*
X72276929Y-126427214D01*
X72291500Y-126485535D01*
X72291500Y-130030073D01*
X72306891Y-130215816D01*
X72306891Y-130215819D01*
X72306892Y-130215821D01*
X72367937Y-130456881D01*
X72390886Y-130509199D01*
X72467825Y-130684604D01*
X72467827Y-130684607D01*
X72603836Y-130892785D01*
X72623732Y-130914398D01*
X72635231Y-130928937D01*
X72721847Y-131057088D01*
X72746290Y-131082592D01*
X72757023Y-131093790D01*
X72782558Y-131133356D01*
X72791500Y-131179590D01*
X72791500Y-135679271D01*
X72782061Y-135726724D01*
X72765233Y-135751908D01*
X72765397Y-135752009D01*
X72665686Y-135913663D01*
X72610500Y-136080202D01*
X72600000Y-136182992D01*
X72600000Y-137533008D01*
X72610500Y-137635797D01*
X72665686Y-137802336D01*
X72757788Y-137951655D01*
X72881844Y-138075711D01*
X73031163Y-138167813D01*
X73197702Y-138222999D01*
X73300492Y-138233500D01*
X74325508Y-138233500D01*
X74428297Y-138222999D01*
X74444484Y-138217635D01*
X74594834Y-138167814D01*
X74654822Y-138130813D01*
X74744155Y-138075711D01*
X74868211Y-137951655D01*
X74960313Y-137802336D01*
X74967273Y-137781334D01*
X75015499Y-137635797D01*
X75026000Y-137533008D01*
X75026000Y-136182992D01*
X75015499Y-136080203D01*
X75008012Y-136057610D01*
X74960313Y-135913663D01*
X74868212Y-135764345D01*
X74828820Y-135724954D01*
X74801939Y-135684725D01*
X74792500Y-135637272D01*
X74792500Y-131189085D01*
X74808754Y-131127711D01*
X74853255Y-131082426D01*
X74914337Y-131065104D01*
X74975985Y-131080285D01*
X75022039Y-131123989D01*
X75027185Y-131132333D01*
X75027186Y-131132334D01*
X75029117Y-131135465D01*
X75119288Y-131281657D01*
X75243342Y-131405711D01*
X75245996Y-131407348D01*
X75392666Y-131497814D01*
X75491306Y-131530500D01*
X75559202Y-131552999D01*
X75563206Y-131553408D01*
X75661991Y-131563500D01*
X77002008Y-131563499D01*
X77104797Y-131552999D01*
X77271334Y-131497814D01*
X77288931Y-131486960D01*
X77354025Y-131468500D01*
X77949500Y-131468500D01*
X78011500Y-131485113D01*
X78056887Y-131530500D01*
X78073500Y-131592500D01*
X78073500Y-134199769D01*
X78064061Y-134247222D01*
X78037181Y-134287450D01*
X78031288Y-134293342D01*
X77939186Y-134442665D01*
X77884000Y-134609202D01*
X77873500Y-134711991D01*
X77873500Y-135513315D01*
X77856433Y-135576094D01*
X77809931Y-135621593D01*
X77746795Y-135637285D01*
X77684403Y-135618853D01*
X77569836Y-135548186D01*
X77403297Y-135493000D01*
X77300508Y-135482500D01*
X76275492Y-135482500D01*
X76172702Y-135493000D01*
X76006163Y-135548186D01*
X75856844Y-135640288D01*
X75732788Y-135764344D01*
X75640686Y-135913663D01*
X75585500Y-136080202D01*
X75575000Y-136182992D01*
X75575000Y-137533008D01*
X75585500Y-137635797D01*
X75640686Y-137802336D01*
X75732788Y-137951655D01*
X75856844Y-138075711D01*
X76006163Y-138167813D01*
X76172702Y-138222999D01*
X76275492Y-138233500D01*
X77300508Y-138233500D01*
X77403297Y-138222999D01*
X77419484Y-138217635D01*
X77569834Y-138167814D01*
X77629822Y-138130813D01*
X77719155Y-138075711D01*
X77853460Y-137941407D01*
X77854158Y-137942105D01*
X77879547Y-137916339D01*
X77931779Y-137897752D01*
X77986890Y-137903785D01*
X78033863Y-137933232D01*
X78155342Y-138054711D01*
X78155344Y-138054712D01*
X78304666Y-138146814D01*
X78416016Y-138183712D01*
X78471202Y-138201999D01*
X78480729Y-138202972D01*
X78573991Y-138212500D01*
X78853524Y-138212499D01*
X78875308Y-138217010D01*
X78875598Y-138215184D01*
X78891072Y-138217634D01*
X78891073Y-138217635D01*
X79053405Y-138243346D01*
X79217029Y-138227879D01*
X79239385Y-138219830D01*
X79281389Y-138212499D01*
X79574009Y-138212499D01*
X79625402Y-138207248D01*
X79676797Y-138201999D01*
X79843334Y-138146814D01*
X79992656Y-138054712D01*
X80116712Y-137930656D01*
X80208814Y-137781334D01*
X80263999Y-137614797D01*
X80274500Y-137512009D01*
X80274499Y-136711992D01*
X80272864Y-136695991D01*
X80263999Y-136609203D01*
X80250671Y-136568982D01*
X80208814Y-136442666D01*
X80116712Y-136293344D01*
X80023047Y-136199679D01*
X79990955Y-136144094D01*
X79990955Y-136079906D01*
X80023047Y-136024320D01*
X80116712Y-135930656D01*
X80208814Y-135781334D01*
X80263999Y-135614797D01*
X80274500Y-135512009D01*
X80274499Y-134711992D01*
X80272864Y-134695991D01*
X80263999Y-134609203D01*
X80253395Y-134577202D01*
X80208814Y-134442666D01*
X80116712Y-134293344D01*
X80116711Y-134293342D01*
X80110819Y-134287450D01*
X80083939Y-134247222D01*
X80074500Y-134199769D01*
X80074500Y-131112989D01*
X80082318Y-131069656D01*
X80122016Y-130963220D01*
X80136091Y-130925483D01*
X80142500Y-130865873D01*
X80142499Y-130656557D01*
X80157445Y-130597538D01*
X80170828Y-130572810D01*
X80189387Y-130518745D01*
X80193103Y-130509220D01*
X80216063Y-130456881D01*
X80230091Y-130401482D01*
X80233014Y-130391666D01*
X80251571Y-130337614D01*
X80251571Y-130337613D01*
X80260978Y-130281237D01*
X80263079Y-130271219D01*
X80277107Y-130215825D01*
X80277107Y-130215824D01*
X80277108Y-130215821D01*
X80281827Y-130158859D01*
X80283094Y-130148696D01*
X80290344Y-130105257D01*
X80292500Y-130092335D01*
X80292500Y-129843665D01*
X80292500Y-126485535D01*
X80307071Y-126427214D01*
X80347360Y-126382600D01*
X80403899Y-126362177D01*
X80432144Y-126359291D01*
X80444797Y-126357999D01*
X80611334Y-126302814D01*
X80760656Y-126210712D01*
X80884712Y-126086656D01*
X80976814Y-125937334D01*
X81031999Y-125770797D01*
X81042500Y-125668009D01*
X81042499Y-124267992D01*
X81031999Y-124165203D01*
X80976814Y-123998666D01*
X80884712Y-123849344D01*
X80884711Y-123849342D01*
X80760657Y-123725288D01*
X80611334Y-123633186D01*
X80444797Y-123578000D01*
X80342009Y-123567500D01*
X79354373Y-123567500D01*
X79314110Y-123560781D01*
X79161615Y-123508429D01*
X78916335Y-123467500D01*
X78667665Y-123467500D01*
X78422384Y-123508429D01*
X78269888Y-123560781D01*
X78229625Y-123567500D01*
X77241991Y-123567500D01*
X77139203Y-123578000D01*
X76972665Y-123633186D01*
X76823342Y-123725288D01*
X76699288Y-123849342D01*
X76607186Y-123998665D01*
X76552000Y-124165202D01*
X76541500Y-124267990D01*
X76541500Y-125668008D01*
X76552000Y-125770796D01*
X76607186Y-125937334D01*
X76699288Y-126086657D01*
X76823342Y-126210711D01*
X76823344Y-126210712D01*
X76972666Y-126302814D01*
X77084017Y-126339712D01*
X77139202Y-126357999D01*
X77152566Y-126359364D01*
X77180101Y-126362177D01*
X77236639Y-126382599D01*
X77276929Y-126427214D01*
X77291500Y-126485535D01*
X77291500Y-128273148D01*
X77277903Y-128329604D01*
X77240093Y-128373678D01*
X77186362Y-128395705D01*
X77128495Y-128390854D01*
X77118504Y-128387543D01*
X77104795Y-128383000D01*
X77002009Y-128372500D01*
X75661991Y-128372500D01*
X75559203Y-128383000D01*
X75489609Y-128406061D01*
X75455502Y-128417364D01*
X75397637Y-128422215D01*
X75343907Y-128400188D01*
X75306097Y-128356114D01*
X75292500Y-128299658D01*
X75292500Y-126485535D01*
X75307071Y-126427214D01*
X75347360Y-126382600D01*
X75403899Y-126362177D01*
X75432144Y-126359291D01*
X75444797Y-126357999D01*
X75611334Y-126302814D01*
X75760656Y-126210712D01*
X75884712Y-126086656D01*
X75976814Y-125937334D01*
X76031999Y-125770797D01*
X76042500Y-125668009D01*
X76042499Y-124267992D01*
X76031999Y-124165203D01*
X75976814Y-123998666D01*
X75884712Y-123849344D01*
X75884711Y-123849342D01*
X75760657Y-123725288D01*
X75611334Y-123633186D01*
X75444797Y-123578000D01*
X75411010Y-123574549D01*
X75403898Y-123573822D01*
X75347361Y-123553401D01*
X75307071Y-123508786D01*
X75292500Y-123450465D01*
X75292500Y-121482230D01*
X75301939Y-121434777D01*
X75328820Y-121394548D01*
X75333712Y-121389656D01*
X75357712Y-121365656D01*
X75449814Y-121216334D01*
X75462318Y-121178599D01*
X75495455Y-121126917D01*
X75549324Y-121097464D01*
X75610720Y-121097464D01*
X75664590Y-121126915D01*
X75697729Y-121178599D01*
X75718186Y-121240334D01*
X75718187Y-121240335D01*
X75810288Y-121389657D01*
X75934342Y-121513711D01*
X75934344Y-121513712D01*
X76083666Y-121605814D01*
X76177776Y-121636999D01*
X76250202Y-121660999D01*
X76275205Y-121663553D01*
X76334925Y-121669654D01*
X76342233Y-121671499D01*
X76346665Y-121671499D01*
X76359280Y-121672142D01*
X76366432Y-121672873D01*
X76374384Y-121671499D01*
X81892722Y-121671499D01*
X81892734Y-121671500D01*
X81902991Y-121671500D01*
X82167500Y-121671500D01*
X82229500Y-121688113D01*
X82274887Y-121733500D01*
X82291500Y-121795500D01*
X82291500Y-123450465D01*
X82276929Y-123508786D01*
X82236640Y-123553400D01*
X82180101Y-123573823D01*
X82139203Y-123578000D01*
X81972665Y-123633186D01*
X81823342Y-123725288D01*
X81699288Y-123849342D01*
X81607186Y-123998665D01*
X81552000Y-124165202D01*
X81541500Y-124267990D01*
X81541500Y-125668008D01*
X81552000Y-125770796D01*
X81607186Y-125937334D01*
X81699288Y-126086657D01*
X81823342Y-126210711D01*
X81823344Y-126210712D01*
X81972666Y-126302814D01*
X82084017Y-126339712D01*
X82139202Y-126357999D01*
X82152566Y-126359364D01*
X82180101Y-126362177D01*
X82236639Y-126382599D01*
X82276929Y-126427214D01*
X82291500Y-126485535D01*
X82291500Y-130030073D01*
X82306891Y-130215816D01*
X82306891Y-130215819D01*
X82306892Y-130215821D01*
X82367937Y-130456881D01*
X82390886Y-130509199D01*
X82467825Y-130684604D01*
X82467827Y-130684607D01*
X82603836Y-130892785D01*
X82623732Y-130914398D01*
X82635231Y-130928937D01*
X82721847Y-131057088D01*
X82746290Y-131082592D01*
X82757023Y-131093790D01*
X82782558Y-131133356D01*
X82791500Y-131179590D01*
X82791500Y-135523800D01*
X82775778Y-135584231D01*
X82732598Y-135629338D01*
X82714843Y-135640289D01*
X82590788Y-135764344D01*
X82498686Y-135913663D01*
X82443500Y-136080202D01*
X82433000Y-136182992D01*
X82433000Y-137533008D01*
X82443500Y-137635797D01*
X82498686Y-137802336D01*
X82590788Y-137951655D01*
X82714844Y-138075711D01*
X82864163Y-138167813D01*
X83030702Y-138222999D01*
X83133492Y-138233500D01*
X84158508Y-138233500D01*
X84261297Y-138222999D01*
X84277484Y-138217635D01*
X84427834Y-138167814D01*
X84487822Y-138130813D01*
X84577155Y-138075711D01*
X84701211Y-137951655D01*
X84793313Y-137802336D01*
X84800273Y-137781334D01*
X84848499Y-137635797D01*
X84859000Y-137533008D01*
X84859000Y-136182992D01*
X84848499Y-136080203D01*
X84841012Y-136057610D01*
X84798794Y-135930204D01*
X84792500Y-135891200D01*
X84792500Y-131189085D01*
X84808754Y-131127711D01*
X84853255Y-131082426D01*
X84914337Y-131065104D01*
X84975985Y-131080285D01*
X85022039Y-131123989D01*
X85027185Y-131132333D01*
X85027186Y-131132334D01*
X85029117Y-131135465D01*
X85119288Y-131281657D01*
X85243342Y-131405711D01*
X85245996Y-131407348D01*
X85392666Y-131497814D01*
X85491306Y-131530500D01*
X85559202Y-131552999D01*
X85563206Y-131553408D01*
X85661991Y-131563500D01*
X87002008Y-131563499D01*
X87104797Y-131552999D01*
X87271334Y-131497814D01*
X87288931Y-131486960D01*
X87354025Y-131468500D01*
X87601500Y-131468500D01*
X87663500Y-131485113D01*
X87708887Y-131530500D01*
X87725500Y-131592500D01*
X87725500Y-134199769D01*
X87716061Y-134247222D01*
X87689181Y-134287450D01*
X87683288Y-134293342D01*
X87591186Y-134442665D01*
X87536000Y-134609202D01*
X87525500Y-134711991D01*
X87525500Y-135417113D01*
X87511903Y-135473569D01*
X87474093Y-135517643D01*
X87420363Y-135539670D01*
X87362496Y-135534819D01*
X87236297Y-135493000D01*
X87133508Y-135482500D01*
X86108492Y-135482500D01*
X86005702Y-135493000D01*
X85839163Y-135548186D01*
X85689844Y-135640288D01*
X85565788Y-135764344D01*
X85473686Y-135913663D01*
X85418500Y-136080202D01*
X85408000Y-136182992D01*
X85408000Y-137533008D01*
X85418500Y-137635797D01*
X85473686Y-137802336D01*
X85565788Y-137951655D01*
X85689844Y-138075711D01*
X85839163Y-138167813D01*
X86005702Y-138222999D01*
X86108492Y-138233500D01*
X87133508Y-138233500D01*
X87236297Y-138222999D01*
X87252484Y-138217635D01*
X87402834Y-138167814D01*
X87462822Y-138130813D01*
X87552152Y-138075713D01*
X87552152Y-138075712D01*
X87552155Y-138075711D01*
X87602569Y-138025296D01*
X87658155Y-137993204D01*
X87722343Y-137993204D01*
X87777931Y-138025299D01*
X87807344Y-138054712D01*
X87956666Y-138146814D01*
X88068016Y-138183712D01*
X88123202Y-138201999D01*
X88133702Y-138203071D01*
X88225991Y-138212500D01*
X89226008Y-138212499D01*
X89328797Y-138201999D01*
X89495334Y-138146814D01*
X89644656Y-138054712D01*
X89768712Y-137930656D01*
X89860814Y-137781334D01*
X89915999Y-137614797D01*
X89926500Y-137512009D01*
X89926499Y-136711992D01*
X89924864Y-136695991D01*
X89915999Y-136609203D01*
X89902671Y-136568982D01*
X89860814Y-136442666D01*
X89768712Y-136293344D01*
X89675047Y-136199679D01*
X89642955Y-136144094D01*
X89642955Y-136079906D01*
X89675047Y-136024320D01*
X89768712Y-135930656D01*
X89860814Y-135781334D01*
X89915999Y-135614797D01*
X89926500Y-135512009D01*
X89926499Y-134711992D01*
X89924864Y-134695991D01*
X89915999Y-134609203D01*
X89905395Y-134577202D01*
X89860814Y-134442666D01*
X89768712Y-134293344D01*
X89768711Y-134293342D01*
X89762819Y-134287450D01*
X89735939Y-134247222D01*
X89726500Y-134199769D01*
X89726500Y-131406758D01*
X89736512Y-131357945D01*
X89764930Y-131317015D01*
X89807165Y-131290576D01*
X89884331Y-131261796D01*
X89999546Y-131175546D01*
X90085796Y-131060331D01*
X90136091Y-130925483D01*
X90142500Y-130865873D01*
X90142499Y-130656557D01*
X90157445Y-130597538D01*
X90170828Y-130572810D01*
X90189387Y-130518745D01*
X90193103Y-130509220D01*
X90216063Y-130456881D01*
X90230091Y-130401482D01*
X90233014Y-130391666D01*
X90251571Y-130337614D01*
X90251571Y-130337613D01*
X90260978Y-130281237D01*
X90263079Y-130271219D01*
X90277107Y-130215825D01*
X90277107Y-130215824D01*
X90277108Y-130215821D01*
X90281827Y-130158859D01*
X90283094Y-130148696D01*
X90290344Y-130105257D01*
X90292500Y-130092335D01*
X90292500Y-129843665D01*
X90292500Y-126485535D01*
X90307071Y-126427214D01*
X90347360Y-126382600D01*
X90403899Y-126362177D01*
X90432144Y-126359291D01*
X90444797Y-126357999D01*
X90611334Y-126302814D01*
X90760656Y-126210712D01*
X90884712Y-126086656D01*
X90976814Y-125937334D01*
X91031999Y-125770797D01*
X91042500Y-125668009D01*
X91042499Y-124267992D01*
X91031999Y-124165203D01*
X90976814Y-123998666D01*
X90884712Y-123849344D01*
X90884711Y-123849342D01*
X90760657Y-123725288D01*
X90611334Y-123633186D01*
X90444797Y-123578000D01*
X90342009Y-123567500D01*
X89354373Y-123567500D01*
X89314110Y-123560781D01*
X89161615Y-123508429D01*
X88916335Y-123467500D01*
X88667665Y-123467500D01*
X88422384Y-123508429D01*
X88269888Y-123560781D01*
X88229625Y-123567500D01*
X87241991Y-123567500D01*
X87139203Y-123578000D01*
X86972665Y-123633186D01*
X86823342Y-123725288D01*
X86699288Y-123849342D01*
X86607186Y-123998665D01*
X86552000Y-124165202D01*
X86541500Y-124267990D01*
X86541500Y-125668008D01*
X86552000Y-125770796D01*
X86607186Y-125937334D01*
X86699288Y-126086657D01*
X86823342Y-126210711D01*
X86823344Y-126210712D01*
X86972666Y-126302814D01*
X87084017Y-126339712D01*
X87139202Y-126357999D01*
X87152566Y-126359364D01*
X87180101Y-126362177D01*
X87236639Y-126382599D01*
X87276929Y-126427214D01*
X87291500Y-126485535D01*
X87291500Y-128273148D01*
X87277903Y-128329604D01*
X87240093Y-128373678D01*
X87186362Y-128395705D01*
X87128495Y-128390854D01*
X87118504Y-128387543D01*
X87104795Y-128383000D01*
X87002009Y-128372500D01*
X85661991Y-128372500D01*
X85559203Y-128383000D01*
X85489609Y-128406061D01*
X85455502Y-128417364D01*
X85397637Y-128422215D01*
X85343907Y-128400188D01*
X85306097Y-128356114D01*
X85292500Y-128299658D01*
X85292500Y-126485535D01*
X85307071Y-126427214D01*
X85347360Y-126382600D01*
X85403899Y-126362177D01*
X85432144Y-126359291D01*
X85444797Y-126357999D01*
X85611334Y-126302814D01*
X85760656Y-126210712D01*
X85884712Y-126086656D01*
X85976814Y-125937334D01*
X86031999Y-125770797D01*
X86042500Y-125668009D01*
X86042499Y-124267992D01*
X86031999Y-124165203D01*
X85976814Y-123998666D01*
X85884712Y-123849344D01*
X85884711Y-123849342D01*
X85760657Y-123725288D01*
X85611334Y-123633186D01*
X85444797Y-123578000D01*
X85411010Y-123574549D01*
X85403898Y-123573822D01*
X85347361Y-123553401D01*
X85307071Y-123508786D01*
X85292500Y-123450465D01*
X85292500Y-121795499D01*
X85309113Y-121733499D01*
X85354500Y-121688112D01*
X85416500Y-121671499D01*
X86753009Y-121671499D01*
X86804402Y-121666248D01*
X86855797Y-121660999D01*
X87022334Y-121605814D01*
X87171656Y-121513712D01*
X87295712Y-121389656D01*
X87387814Y-121240334D01*
X87408271Y-121178597D01*
X87441408Y-121126916D01*
X87495278Y-121097464D01*
X87556673Y-121097464D01*
X87610543Y-121126915D01*
X87643681Y-121178598D01*
X87644190Y-121180132D01*
X87656186Y-121216335D01*
X87748288Y-121365657D01*
X87872342Y-121489711D01*
X87872344Y-121489712D01*
X88021666Y-121581814D01*
X88133016Y-121618712D01*
X88188202Y-121636999D01*
X88213205Y-121639553D01*
X88272925Y-121645654D01*
X88280236Y-121647500D01*
X88284672Y-121647500D01*
X88297274Y-121648142D01*
X88304433Y-121648873D01*
X88312391Y-121647500D01*
X92167500Y-121647500D01*
X92229500Y-121664113D01*
X92274887Y-121709500D01*
X92291500Y-121771500D01*
X92291500Y-123450465D01*
X92276929Y-123508786D01*
X92236640Y-123553400D01*
X92180101Y-123573823D01*
X92139203Y-123578000D01*
X91972665Y-123633186D01*
X91823342Y-123725288D01*
X91699288Y-123849342D01*
X91607186Y-123998665D01*
X91552000Y-124165202D01*
X91541500Y-124267990D01*
X91541500Y-125668008D01*
X91552000Y-125770796D01*
X91607186Y-125937334D01*
X91699288Y-126086657D01*
X91823342Y-126210711D01*
X91823344Y-126210712D01*
X91972666Y-126302814D01*
X92084017Y-126339712D01*
X92139202Y-126357999D01*
X92152566Y-126359364D01*
X92180101Y-126362177D01*
X92236639Y-126382599D01*
X92276929Y-126427214D01*
X92291500Y-126485535D01*
X92291500Y-130030073D01*
X92306891Y-130215816D01*
X92306891Y-130215819D01*
X92306892Y-130215821D01*
X92367937Y-130456881D01*
X92390886Y-130509199D01*
X92467825Y-130684604D01*
X92467827Y-130684607D01*
X92603836Y-130892785D01*
X92623732Y-130914398D01*
X92635231Y-130928937D01*
X92721847Y-131057088D01*
X92746290Y-131082592D01*
X92757023Y-131093790D01*
X92782558Y-131133356D01*
X92791500Y-131179590D01*
X92791500Y-135672271D01*
X92782061Y-135719724D01*
X92755181Y-135759952D01*
X92750788Y-135764344D01*
X92658686Y-135913663D01*
X92603500Y-136080202D01*
X92593000Y-136182992D01*
X92593000Y-137533008D01*
X92603500Y-137635797D01*
X92658686Y-137802336D01*
X92750788Y-137951655D01*
X92874844Y-138075711D01*
X93024163Y-138167813D01*
X93190702Y-138222999D01*
X93293492Y-138233500D01*
X94318508Y-138233500D01*
X94421297Y-138222999D01*
X94437484Y-138217635D01*
X94587834Y-138167814D01*
X94647822Y-138130813D01*
X94737155Y-138075711D01*
X94861211Y-137951655D01*
X94953313Y-137802336D01*
X94960273Y-137781334D01*
X95008499Y-137635797D01*
X95019000Y-137533008D01*
X95019000Y-136182992D01*
X95008499Y-136080203D01*
X95001012Y-136057610D01*
X94953313Y-135913663D01*
X94861212Y-135764345D01*
X94828820Y-135731954D01*
X94801939Y-135691725D01*
X94792500Y-135644272D01*
X94792500Y-131189085D01*
X94808754Y-131127711D01*
X94853255Y-131082426D01*
X94914337Y-131065104D01*
X94975985Y-131080285D01*
X95022039Y-131123989D01*
X95027185Y-131132333D01*
X95027186Y-131132334D01*
X95029117Y-131135465D01*
X95119288Y-131281657D01*
X95243342Y-131405711D01*
X95245996Y-131407348D01*
X95392666Y-131497814D01*
X95491306Y-131530500D01*
X95559202Y-131552999D01*
X95563206Y-131553408D01*
X95661991Y-131563500D01*
X97002008Y-131563499D01*
X97104797Y-131552999D01*
X97271334Y-131497814D01*
X97288931Y-131486960D01*
X97354025Y-131468500D01*
X97761500Y-131468500D01*
X97823500Y-131485113D01*
X97868887Y-131530500D01*
X97885500Y-131592500D01*
X97885500Y-134199769D01*
X97876061Y-134247222D01*
X97849181Y-134287450D01*
X97843288Y-134293342D01*
X97751186Y-134442665D01*
X97696000Y-134609202D01*
X97685500Y-134711991D01*
X97685500Y-135417113D01*
X97671903Y-135473569D01*
X97634093Y-135517643D01*
X97580363Y-135539670D01*
X97522496Y-135534819D01*
X97396297Y-135493000D01*
X97293508Y-135482500D01*
X96268492Y-135482500D01*
X96165702Y-135493000D01*
X95999163Y-135548186D01*
X95849844Y-135640288D01*
X95725788Y-135764344D01*
X95633686Y-135913663D01*
X95578500Y-136080202D01*
X95568000Y-136182992D01*
X95568000Y-137533008D01*
X95578500Y-137635797D01*
X95633686Y-137802336D01*
X95725788Y-137951655D01*
X95849844Y-138075711D01*
X95999163Y-138167813D01*
X96165702Y-138222999D01*
X96268492Y-138233500D01*
X97293508Y-138233500D01*
X97396297Y-138222999D01*
X97412484Y-138217635D01*
X97562834Y-138167814D01*
X97622822Y-138130813D01*
X97712152Y-138075713D01*
X97712152Y-138075712D01*
X97712155Y-138075711D01*
X97762569Y-138025296D01*
X97818155Y-137993204D01*
X97882343Y-137993204D01*
X97937931Y-138025299D01*
X97967344Y-138054712D01*
X98116666Y-138146814D01*
X98228016Y-138183712D01*
X98283202Y-138201999D01*
X98293702Y-138203071D01*
X98385991Y-138212500D01*
X99386008Y-138212499D01*
X99488797Y-138201999D01*
X99655334Y-138146814D01*
X99804656Y-138054712D01*
X99928712Y-137930656D01*
X100020814Y-137781334D01*
X100075999Y-137614797D01*
X100086500Y-137512009D01*
X100086499Y-136711992D01*
X100084864Y-136695991D01*
X100075999Y-136609203D01*
X100062671Y-136568982D01*
X100020814Y-136442666D01*
X99928712Y-136293344D01*
X99835047Y-136199679D01*
X99802955Y-136144094D01*
X99802955Y-136079906D01*
X99835047Y-136024320D01*
X99928712Y-135930656D01*
X100020814Y-135781334D01*
X100075999Y-135614797D01*
X100086500Y-135512009D01*
X100086499Y-134711992D01*
X100084864Y-134695991D01*
X100075999Y-134609203D01*
X100065395Y-134577202D01*
X100020814Y-134442666D01*
X99928712Y-134293344D01*
X99928711Y-134293342D01*
X99922819Y-134287450D01*
X99895939Y-134247222D01*
X99886500Y-134199769D01*
X99886500Y-131322242D01*
X99899616Y-131266738D01*
X99936189Y-131222975D01*
X99981460Y-131189085D01*
X99999546Y-131175546D01*
X100085796Y-131060331D01*
X100136091Y-130925483D01*
X100142500Y-130865873D01*
X100142499Y-130656557D01*
X100157445Y-130597538D01*
X100170828Y-130572810D01*
X100189387Y-130518745D01*
X100193103Y-130509220D01*
X100216063Y-130456881D01*
X100230091Y-130401482D01*
X100233014Y-130391666D01*
X100251571Y-130337614D01*
X100251571Y-130337613D01*
X100260978Y-130281237D01*
X100263079Y-130271219D01*
X100277107Y-130215825D01*
X100277107Y-130215824D01*
X100277108Y-130215821D01*
X100281827Y-130158859D01*
X100283094Y-130148696D01*
X100290344Y-130105257D01*
X100292500Y-130092335D01*
X100292500Y-129843665D01*
X100292500Y-126485535D01*
X100307071Y-126427214D01*
X100347360Y-126382600D01*
X100403899Y-126362177D01*
X100432144Y-126359291D01*
X100444797Y-126357999D01*
X100611334Y-126302814D01*
X100760656Y-126210712D01*
X100884712Y-126086656D01*
X100976814Y-125937334D01*
X101031999Y-125770797D01*
X101042500Y-125668009D01*
X101042499Y-124267992D01*
X101031999Y-124165203D01*
X100976814Y-123998666D01*
X100884712Y-123849344D01*
X100884711Y-123849342D01*
X100760657Y-123725288D01*
X100611334Y-123633186D01*
X100444797Y-123578000D01*
X100342009Y-123567500D01*
X99354373Y-123567500D01*
X99314110Y-123560781D01*
X99161615Y-123508429D01*
X98916335Y-123467500D01*
X98667665Y-123467500D01*
X98422384Y-123508429D01*
X98269888Y-123560781D01*
X98229625Y-123567500D01*
X97241991Y-123567500D01*
X97139203Y-123578000D01*
X96972665Y-123633186D01*
X96823342Y-123725288D01*
X96699288Y-123849342D01*
X96607186Y-123998665D01*
X96552000Y-124165202D01*
X96541500Y-124267990D01*
X96541500Y-125668008D01*
X96552000Y-125770796D01*
X96607186Y-125937334D01*
X96699288Y-126086657D01*
X96823342Y-126210711D01*
X96823344Y-126210712D01*
X96972666Y-126302814D01*
X97084017Y-126339712D01*
X97139202Y-126357999D01*
X97152566Y-126359364D01*
X97180101Y-126362177D01*
X97236639Y-126382599D01*
X97276929Y-126427214D01*
X97291500Y-126485535D01*
X97291500Y-128273148D01*
X97277903Y-128329604D01*
X97240093Y-128373678D01*
X97186362Y-128395705D01*
X97128495Y-128390854D01*
X97118504Y-128387543D01*
X97104795Y-128383000D01*
X97002009Y-128372500D01*
X95661991Y-128372500D01*
X95559203Y-128383000D01*
X95489609Y-128406061D01*
X95455502Y-128417364D01*
X95397637Y-128422215D01*
X95343907Y-128400188D01*
X95306097Y-128356114D01*
X95292500Y-128299658D01*
X95292500Y-126485535D01*
X95307071Y-126427214D01*
X95347360Y-126382600D01*
X95403899Y-126362177D01*
X95432144Y-126359291D01*
X95444797Y-126357999D01*
X95611334Y-126302814D01*
X95760656Y-126210712D01*
X95884712Y-126086656D01*
X95976814Y-125937334D01*
X96031999Y-125770797D01*
X96042500Y-125668009D01*
X96042499Y-124267992D01*
X96031999Y-124165203D01*
X95976814Y-123998666D01*
X95884712Y-123849344D01*
X95884711Y-123849342D01*
X95760657Y-123725288D01*
X95611334Y-123633186D01*
X95444797Y-123578000D01*
X95411010Y-123574549D01*
X95403898Y-123573822D01*
X95347361Y-123553401D01*
X95307071Y-123508786D01*
X95292500Y-123450465D01*
X95292500Y-122018890D01*
X95301939Y-121971437D01*
X95328819Y-121931209D01*
X95576209Y-121683818D01*
X95616437Y-121656938D01*
X95663890Y-121647499D01*
X98691009Y-121647499D01*
X98742402Y-121642249D01*
X98793797Y-121636999D01*
X98960334Y-121581814D01*
X99109656Y-121489712D01*
X99233712Y-121365656D01*
X99325814Y-121216334D01*
X99332794Y-121195268D01*
X99365932Y-121143584D01*
X99419802Y-121114132D01*
X99481198Y-121114132D01*
X99535068Y-121143584D01*
X99568205Y-121195268D01*
X99575186Y-121216334D01*
X99589990Y-121240335D01*
X99667288Y-121365657D01*
X99791342Y-121489711D01*
X99791344Y-121489712D01*
X99940666Y-121581814D01*
X100052016Y-121618712D01*
X100107202Y-121636999D01*
X100132205Y-121639553D01*
X100191925Y-121645654D01*
X100199236Y-121647500D01*
X100203672Y-121647500D01*
X100216274Y-121648142D01*
X100223433Y-121648873D01*
X100231391Y-121647500D01*
X102167500Y-121647500D01*
X102229500Y-121664113D01*
X102274887Y-121709500D01*
X102291500Y-121771500D01*
X102291500Y-123450465D01*
X102276929Y-123508786D01*
X102236640Y-123553400D01*
X102180101Y-123573823D01*
X102139203Y-123578000D01*
X101972665Y-123633186D01*
X101823342Y-123725288D01*
X101699288Y-123849342D01*
X101607186Y-123998665D01*
X101552000Y-124165202D01*
X101541500Y-124267990D01*
X101541500Y-125668008D01*
X101552000Y-125770796D01*
X101607186Y-125937334D01*
X101699288Y-126086657D01*
X101823342Y-126210711D01*
X101823344Y-126210712D01*
X101972666Y-126302814D01*
X102084017Y-126339712D01*
X102139202Y-126357999D01*
X102152566Y-126359364D01*
X102180101Y-126362177D01*
X102236639Y-126382599D01*
X102276929Y-126427214D01*
X102291500Y-126485535D01*
X102291500Y-130030073D01*
X102306891Y-130215816D01*
X102306891Y-130215819D01*
X102306892Y-130215821D01*
X102367937Y-130456881D01*
X102390886Y-130509199D01*
X102467825Y-130684604D01*
X102467827Y-130684607D01*
X102603836Y-130892785D01*
X102623732Y-130914398D01*
X102635231Y-130928937D01*
X102721847Y-131057088D01*
X102746290Y-131082592D01*
X102757023Y-131093790D01*
X102782558Y-131133356D01*
X102791500Y-131179590D01*
X102791500Y-135578272D01*
X102782061Y-135625725D01*
X102755183Y-135665950D01*
X102729409Y-135691725D01*
X102656786Y-135764347D01*
X102564686Y-135913663D01*
X102509500Y-136080202D01*
X102499000Y-136182992D01*
X102499000Y-137533008D01*
X102509500Y-137635797D01*
X102564686Y-137802336D01*
X102656788Y-137951655D01*
X102780844Y-138075711D01*
X102930163Y-138167813D01*
X103096702Y-138222999D01*
X103199492Y-138233500D01*
X104224508Y-138233500D01*
X104327297Y-138222999D01*
X104343484Y-138217635D01*
X104493834Y-138167814D01*
X104553822Y-138130813D01*
X104643155Y-138075711D01*
X104767211Y-137951655D01*
X104859313Y-137802336D01*
X104866273Y-137781334D01*
X104914499Y-137635797D01*
X104925000Y-137533008D01*
X104925000Y-136182992D01*
X104914499Y-136080203D01*
X104907012Y-136057610D01*
X104859313Y-135913663D01*
X104810962Y-135835275D01*
X104792500Y-135770178D01*
X104792500Y-131189085D01*
X104808754Y-131127711D01*
X104853255Y-131082426D01*
X104914337Y-131065104D01*
X104975985Y-131080285D01*
X105022039Y-131123989D01*
X105027185Y-131132333D01*
X105027186Y-131132334D01*
X105029117Y-131135465D01*
X105119288Y-131281657D01*
X105243342Y-131405711D01*
X105245996Y-131407348D01*
X105392666Y-131497814D01*
X105491306Y-131530500D01*
X105559202Y-131552999D01*
X105563206Y-131553408D01*
X105661991Y-131563500D01*
X107002008Y-131563499D01*
X107104797Y-131552999D01*
X107271334Y-131497814D01*
X107288931Y-131486960D01*
X107354025Y-131468500D01*
X107667500Y-131468500D01*
X107729500Y-131485113D01*
X107774887Y-131530500D01*
X107791500Y-131592500D01*
X107791500Y-134167769D01*
X107782061Y-134215222D01*
X107755181Y-134255450D01*
X107749288Y-134261342D01*
X107657186Y-134410665D01*
X107602000Y-134577202D01*
X107591500Y-134679991D01*
X107591500Y-135417113D01*
X107577903Y-135473569D01*
X107540093Y-135517643D01*
X107486363Y-135539670D01*
X107428496Y-135534819D01*
X107302297Y-135493000D01*
X107199508Y-135482500D01*
X106174492Y-135482500D01*
X106071702Y-135493000D01*
X105905163Y-135548186D01*
X105755844Y-135640288D01*
X105631788Y-135764344D01*
X105539686Y-135913663D01*
X105484500Y-136080202D01*
X105474000Y-136182992D01*
X105474000Y-137533008D01*
X105484500Y-137635797D01*
X105539686Y-137802336D01*
X105631788Y-137951655D01*
X105755844Y-138075711D01*
X105905163Y-138167813D01*
X106071702Y-138222999D01*
X106174492Y-138233500D01*
X107199508Y-138233500D01*
X107302297Y-138222999D01*
X107318484Y-138217635D01*
X107468834Y-138167814D01*
X107528822Y-138130813D01*
X107618152Y-138075713D01*
X107618152Y-138075712D01*
X107618155Y-138075711D01*
X107684569Y-138009296D01*
X107740156Y-137977204D01*
X107804344Y-137977205D01*
X107859932Y-138009300D01*
X107873343Y-138022712D01*
X107959270Y-138075711D01*
X108022666Y-138114814D01*
X108134016Y-138151712D01*
X108189202Y-138169999D01*
X108199703Y-138171071D01*
X108291991Y-138180500D01*
X109292008Y-138180499D01*
X109394797Y-138169999D01*
X109561334Y-138114814D01*
X109710656Y-138022712D01*
X109834712Y-137898656D01*
X109926814Y-137749334D01*
X109981999Y-137582797D01*
X109992500Y-137480009D01*
X109992499Y-136679992D01*
X109981999Y-136577203D01*
X109926814Y-136410666D01*
X109880762Y-136336004D01*
X109834713Y-136261345D01*
X109834712Y-136261344D01*
X109741047Y-136167679D01*
X109708955Y-136112094D01*
X109708955Y-136047906D01*
X109741047Y-135992320D01*
X109834712Y-135898656D01*
X109926814Y-135749334D01*
X109981999Y-135582797D01*
X109992500Y-135480009D01*
X109992499Y-134679992D01*
X109981999Y-134577203D01*
X109926814Y-134410666D01*
X109854450Y-134293344D01*
X109834711Y-134261342D01*
X109828819Y-134255450D01*
X109801939Y-134215222D01*
X109792500Y-134167769D01*
X109792500Y-131382142D01*
X109802512Y-131333330D01*
X109830929Y-131292400D01*
X109873165Y-131265961D01*
X109875651Y-131265033D01*
X109884331Y-131261796D01*
X109999546Y-131175546D01*
X110085796Y-131060331D01*
X110136091Y-130925483D01*
X110142500Y-130865873D01*
X110142499Y-130656557D01*
X110157445Y-130597538D01*
X110170828Y-130572810D01*
X110189387Y-130518745D01*
X110193103Y-130509220D01*
X110216063Y-130456881D01*
X110230091Y-130401482D01*
X110233014Y-130391666D01*
X110251571Y-130337614D01*
X110251571Y-130337613D01*
X110260978Y-130281237D01*
X110263079Y-130271219D01*
X110277107Y-130215825D01*
X110277107Y-130215824D01*
X110277108Y-130215821D01*
X110281827Y-130158859D01*
X110283094Y-130148696D01*
X110290344Y-130105257D01*
X110292500Y-130092335D01*
X110292500Y-129843665D01*
X110292500Y-126485535D01*
X110307071Y-126427214D01*
X110347360Y-126382600D01*
X110403899Y-126362177D01*
X110432144Y-126359291D01*
X110444797Y-126357999D01*
X110611334Y-126302814D01*
X110760656Y-126210712D01*
X110884712Y-126086656D01*
X110976814Y-125937334D01*
X111031999Y-125770797D01*
X111042500Y-125668009D01*
X111042499Y-124267992D01*
X111031999Y-124165203D01*
X110976814Y-123998666D01*
X110884712Y-123849344D01*
X110884711Y-123849342D01*
X110760657Y-123725288D01*
X110611334Y-123633186D01*
X110444797Y-123578000D01*
X110342009Y-123567500D01*
X109354373Y-123567500D01*
X109314110Y-123560781D01*
X109161615Y-123508429D01*
X108916335Y-123467500D01*
X108667665Y-123467500D01*
X108422384Y-123508429D01*
X108269888Y-123560781D01*
X108229625Y-123567500D01*
X107241991Y-123567500D01*
X107139203Y-123578000D01*
X106972665Y-123633186D01*
X106823342Y-123725288D01*
X106699288Y-123849342D01*
X106607186Y-123998665D01*
X106552000Y-124165202D01*
X106541500Y-124267990D01*
X106541500Y-125668008D01*
X106552000Y-125770796D01*
X106607186Y-125937334D01*
X106699288Y-126086657D01*
X106823342Y-126210711D01*
X106823344Y-126210712D01*
X106972666Y-126302814D01*
X107084017Y-126339712D01*
X107139202Y-126357999D01*
X107152566Y-126359364D01*
X107180101Y-126362177D01*
X107236639Y-126382599D01*
X107276929Y-126427214D01*
X107291500Y-126485535D01*
X107291500Y-128273148D01*
X107277903Y-128329604D01*
X107240093Y-128373678D01*
X107186362Y-128395705D01*
X107128495Y-128390854D01*
X107118504Y-128387543D01*
X107104795Y-128383000D01*
X107002009Y-128372500D01*
X105661991Y-128372500D01*
X105559203Y-128383000D01*
X105489609Y-128406061D01*
X105455502Y-128417364D01*
X105397637Y-128422215D01*
X105343907Y-128400188D01*
X105306097Y-128356114D01*
X105292500Y-128299658D01*
X105292500Y-126485535D01*
X105307071Y-126427214D01*
X105347360Y-126382600D01*
X105403899Y-126362177D01*
X105432144Y-126359291D01*
X105444797Y-126357999D01*
X105611334Y-126302814D01*
X105760656Y-126210712D01*
X105884712Y-126086656D01*
X105976814Y-125937334D01*
X106031999Y-125770797D01*
X106042500Y-125668009D01*
X106042499Y-124267992D01*
X106031999Y-124165203D01*
X105976814Y-123998666D01*
X105884712Y-123849344D01*
X105884711Y-123849342D01*
X105760657Y-123725288D01*
X105611334Y-123633186D01*
X105444797Y-123578000D01*
X105411010Y-123574549D01*
X105403898Y-123573822D01*
X105347361Y-123553401D01*
X105307071Y-123508786D01*
X105292500Y-123450465D01*
X105292500Y-121771500D01*
X105309113Y-121709500D01*
X105354500Y-121664113D01*
X105416500Y-121647500D01*
X105724250Y-121647499D01*
X105759985Y-121647499D01*
X105759991Y-121647500D01*
X110610008Y-121647499D01*
X110712797Y-121636999D01*
X110879334Y-121581814D01*
X111028656Y-121489712D01*
X111152712Y-121365656D01*
X111244814Y-121216334D01*
X111244814Y-121216333D01*
X111252422Y-121203999D01*
X111255288Y-121205767D01*
X111273957Y-121176620D01*
X111327827Y-121147142D01*
X111389235Y-121147125D01*
X111443121Y-121176574D01*
X111476269Y-121228266D01*
X111494186Y-121282334D01*
X111529479Y-121339554D01*
X111586288Y-121431657D01*
X111710342Y-121555711D01*
X111710344Y-121555712D01*
X111859666Y-121647814D01*
X111968319Y-121683818D01*
X112026202Y-121702999D01*
X112037900Y-121704194D01*
X112110925Y-121711654D01*
X112118236Y-121713500D01*
X112122672Y-121713500D01*
X112135274Y-121714142D01*
X112142433Y-121714873D01*
X112150391Y-121713500D01*
X112167500Y-121713500D01*
X112229500Y-121730113D01*
X112274887Y-121775500D01*
X112291500Y-121837500D01*
X112291500Y-123450465D01*
X112276929Y-123508786D01*
X112236640Y-123553400D01*
X112180101Y-123573823D01*
X112139203Y-123578000D01*
X111972665Y-123633186D01*
X111823342Y-123725288D01*
X111699288Y-123849342D01*
X111607186Y-123998665D01*
X111552000Y-124165202D01*
X111541500Y-124267990D01*
X111541500Y-125668008D01*
X111552000Y-125770796D01*
X111607186Y-125937334D01*
X111699288Y-126086657D01*
X111823342Y-126210711D01*
X111823344Y-126210712D01*
X111972666Y-126302814D01*
X112084017Y-126339712D01*
X112139202Y-126357999D01*
X112152566Y-126359364D01*
X112180101Y-126362177D01*
X112236639Y-126382599D01*
X112276929Y-126427214D01*
X112291500Y-126485535D01*
X112291500Y-130030073D01*
X112306891Y-130215816D01*
X112306891Y-130215819D01*
X112306892Y-130215821D01*
X112367937Y-130456881D01*
X112390886Y-130509199D01*
X112467825Y-130684604D01*
X112467827Y-130684607D01*
X112603836Y-130892785D01*
X112623732Y-130914398D01*
X112635231Y-130928937D01*
X112721847Y-131057088D01*
X112746290Y-131082592D01*
X112757023Y-131093790D01*
X112782558Y-131133356D01*
X112791500Y-131179590D01*
X112791500Y-135770178D01*
X112773038Y-135835275D01*
X112724686Y-135913663D01*
X112669500Y-136080202D01*
X112659000Y-136182992D01*
X112659000Y-137533008D01*
X112669500Y-137635797D01*
X112724686Y-137802336D01*
X112816788Y-137951655D01*
X112940844Y-138075711D01*
X113090163Y-138167813D01*
X113256702Y-138222999D01*
X113359492Y-138233500D01*
X114384508Y-138233500D01*
X114487297Y-138222999D01*
X114503484Y-138217635D01*
X114653834Y-138167814D01*
X114713822Y-138130813D01*
X114803155Y-138075711D01*
X114927211Y-137951655D01*
X115019313Y-137802336D01*
X115026273Y-137781334D01*
X115074499Y-137635797D01*
X115085000Y-137533008D01*
X115085000Y-136182992D01*
X115074499Y-136080203D01*
X115067012Y-136057610D01*
X115019313Y-135913663D01*
X114927213Y-135764347D01*
X114881985Y-135719119D01*
X114828816Y-135665950D01*
X114801939Y-135625725D01*
X114792500Y-135578272D01*
X114792500Y-131189085D01*
X114808754Y-131127711D01*
X114853255Y-131082426D01*
X114914337Y-131065104D01*
X114975985Y-131080285D01*
X115022039Y-131123989D01*
X115027185Y-131132333D01*
X115027186Y-131132334D01*
X115029117Y-131135465D01*
X115119288Y-131281657D01*
X115243342Y-131405711D01*
X115245996Y-131407348D01*
X115392666Y-131497814D01*
X115491306Y-131530500D01*
X115559202Y-131552999D01*
X115563206Y-131553408D01*
X115661991Y-131563500D01*
X117002008Y-131563499D01*
X117104797Y-131552999D01*
X117271334Y-131497814D01*
X117288931Y-131486960D01*
X117354025Y-131468500D01*
X117827500Y-131468500D01*
X117889500Y-131485113D01*
X117934887Y-131530500D01*
X117951500Y-131592500D01*
X117951500Y-134183769D01*
X117942061Y-134231222D01*
X117915181Y-134271450D01*
X117909288Y-134277342D01*
X117817186Y-134426665D01*
X117762000Y-134593202D01*
X117751500Y-134695991D01*
X117751500Y-135417113D01*
X117737903Y-135473569D01*
X117700093Y-135517643D01*
X117646363Y-135539670D01*
X117588496Y-135534819D01*
X117462297Y-135493000D01*
X117359508Y-135482500D01*
X116334492Y-135482500D01*
X116231702Y-135493000D01*
X116065163Y-135548186D01*
X115915844Y-135640288D01*
X115791788Y-135764344D01*
X115699686Y-135913663D01*
X115644500Y-136080202D01*
X115634000Y-136182992D01*
X115634000Y-137533008D01*
X115644500Y-137635797D01*
X115699686Y-137802336D01*
X115791788Y-137951655D01*
X115915844Y-138075711D01*
X116065163Y-138167813D01*
X116231702Y-138222999D01*
X116334492Y-138233500D01*
X117359508Y-138233500D01*
X117462297Y-138222999D01*
X117478484Y-138217635D01*
X117628834Y-138167814D01*
X117628836Y-138167813D01*
X117778151Y-138075714D01*
X117778152Y-138075712D01*
X117778155Y-138075711D01*
X117836569Y-138017296D01*
X117892153Y-137985205D01*
X117956341Y-137985204D01*
X118011929Y-138017298D01*
X118033342Y-138038711D01*
X118059284Y-138054712D01*
X118182666Y-138130814D01*
X118294017Y-138167712D01*
X118349202Y-138185999D01*
X118359702Y-138187071D01*
X118451991Y-138196500D01*
X119452008Y-138196499D01*
X119554797Y-138185999D01*
X119721334Y-138130814D01*
X119870656Y-138038712D01*
X119994712Y-137914656D01*
X120086814Y-137765334D01*
X120141999Y-137598797D01*
X120152500Y-137496009D01*
X120152499Y-136695992D01*
X120150864Y-136679991D01*
X120141999Y-136593203D01*
X120133973Y-136568982D01*
X120086814Y-136426666D01*
X120012950Y-136306912D01*
X119994713Y-136277345D01*
X119978712Y-136261344D01*
X119901047Y-136183679D01*
X119868955Y-136128094D01*
X119868955Y-136063906D01*
X119901047Y-136008320D01*
X119994712Y-135914656D01*
X120086814Y-135765334D01*
X120141999Y-135598797D01*
X120152500Y-135496009D01*
X120152499Y-134695992D01*
X120150864Y-134679991D01*
X120141999Y-134593203D01*
X120136697Y-134577202D01*
X120086814Y-134426666D01*
X120004580Y-134293342D01*
X119994711Y-134277342D01*
X119988819Y-134271450D01*
X119961939Y-134231222D01*
X119952500Y-134183769D01*
X119952500Y-131272834D01*
X119965617Y-131217328D01*
X119991039Y-131186909D01*
X119999544Y-131175547D01*
X119999546Y-131175546D01*
X120085796Y-131060331D01*
X120136091Y-130925483D01*
X120142500Y-130865873D01*
X120142499Y-130656557D01*
X120157445Y-130597538D01*
X120170828Y-130572810D01*
X120189387Y-130518745D01*
X120193103Y-130509220D01*
X120216063Y-130456881D01*
X120230091Y-130401482D01*
X120233014Y-130391666D01*
X120251571Y-130337614D01*
X120251571Y-130337613D01*
X120260978Y-130281237D01*
X120263079Y-130271219D01*
X120277107Y-130215825D01*
X120277107Y-130215824D01*
X120277108Y-130215821D01*
X120281827Y-130158859D01*
X120283094Y-130148696D01*
X120290344Y-130105257D01*
X120292500Y-130092335D01*
X120292500Y-129843665D01*
X120292500Y-126485535D01*
X120307071Y-126427214D01*
X120347360Y-126382600D01*
X120403899Y-126362177D01*
X120432144Y-126359291D01*
X120444797Y-126357999D01*
X120611334Y-126302814D01*
X120760656Y-126210712D01*
X120884712Y-126086656D01*
X120976814Y-125937334D01*
X121031999Y-125770797D01*
X121042500Y-125668009D01*
X121042499Y-124267992D01*
X121031999Y-124165203D01*
X120976814Y-123998666D01*
X120884712Y-123849344D01*
X120884711Y-123849342D01*
X120760657Y-123725288D01*
X120611334Y-123633186D01*
X120444797Y-123578000D01*
X120342009Y-123567500D01*
X119354373Y-123567500D01*
X119314110Y-123560781D01*
X119161615Y-123508429D01*
X118916335Y-123467500D01*
X118667665Y-123467500D01*
X118422384Y-123508429D01*
X118269888Y-123560781D01*
X118229625Y-123567500D01*
X117241991Y-123567500D01*
X117139203Y-123578000D01*
X116972665Y-123633186D01*
X116823342Y-123725288D01*
X116699288Y-123849342D01*
X116607186Y-123998665D01*
X116552000Y-124165202D01*
X116541500Y-124267990D01*
X116541500Y-125668008D01*
X116552000Y-125770796D01*
X116607186Y-125937334D01*
X116699288Y-126086657D01*
X116823342Y-126210711D01*
X116823344Y-126210712D01*
X116972666Y-126302814D01*
X117084017Y-126339712D01*
X117139202Y-126357999D01*
X117152566Y-126359364D01*
X117180101Y-126362177D01*
X117236639Y-126382599D01*
X117276929Y-126427214D01*
X117291500Y-126485535D01*
X117291500Y-128273148D01*
X117277903Y-128329604D01*
X117240093Y-128373678D01*
X117186362Y-128395705D01*
X117128495Y-128390854D01*
X117118504Y-128387543D01*
X117104795Y-128383000D01*
X117002009Y-128372500D01*
X115661991Y-128372500D01*
X115559203Y-128383000D01*
X115489609Y-128406061D01*
X115455502Y-128417364D01*
X115397637Y-128422215D01*
X115343907Y-128400188D01*
X115306097Y-128356114D01*
X115292500Y-128299658D01*
X115292500Y-126485535D01*
X115307071Y-126427214D01*
X115347360Y-126382600D01*
X115403899Y-126362177D01*
X115432144Y-126359291D01*
X115444797Y-126357999D01*
X115611334Y-126302814D01*
X115760656Y-126210712D01*
X115884712Y-126086656D01*
X115976814Y-125937334D01*
X116031999Y-125770797D01*
X116042500Y-125668009D01*
X116042499Y-124267992D01*
X116031999Y-124165203D01*
X115976814Y-123998666D01*
X115884712Y-123849344D01*
X115884711Y-123849342D01*
X115760657Y-123725288D01*
X115611334Y-123633186D01*
X115444797Y-123578000D01*
X115411010Y-123574549D01*
X115403898Y-123573822D01*
X115347361Y-123553401D01*
X115307071Y-123508786D01*
X115292500Y-123450465D01*
X115292500Y-121837500D01*
X115309113Y-121775500D01*
X115354500Y-121730113D01*
X115416500Y-121713500D01*
X117496563Y-121713499D01*
X117678985Y-121713499D01*
X117678991Y-121713500D01*
X122529008Y-121713499D01*
X122631797Y-121702999D01*
X122798334Y-121647814D01*
X122947656Y-121555712D01*
X123071712Y-121431656D01*
X123163814Y-121282334D01*
X123170794Y-121261268D01*
X123203932Y-121209584D01*
X123257802Y-121180132D01*
X123319198Y-121180132D01*
X123373068Y-121209584D01*
X123406205Y-121261268D01*
X123413186Y-121282334D01*
X123459236Y-121356994D01*
X123505288Y-121431657D01*
X123629342Y-121555711D01*
X123629344Y-121555712D01*
X123778666Y-121647814D01*
X123887319Y-121683818D01*
X123945202Y-121702999D01*
X123956900Y-121704194D01*
X124029925Y-121711654D01*
X124037233Y-121713499D01*
X124041664Y-121713499D01*
X124054278Y-121714142D01*
X124061432Y-121714873D01*
X124069384Y-121713499D01*
X124625110Y-121713499D01*
X124681404Y-121727014D01*
X124725427Y-121764614D01*
X124747582Y-121818101D01*
X124743040Y-121875817D01*
X124712790Y-121925180D01*
X123106789Y-123531181D01*
X123066561Y-123558061D01*
X123019108Y-123567500D01*
X122241991Y-123567500D01*
X122139203Y-123578000D01*
X121972665Y-123633186D01*
X121823342Y-123725288D01*
X121699288Y-123849342D01*
X121607186Y-123998665D01*
X121552000Y-124165202D01*
X121541500Y-124267990D01*
X121541500Y-125668008D01*
X121552000Y-125770796D01*
X121607186Y-125937334D01*
X121699288Y-126086657D01*
X121823342Y-126210711D01*
X121823344Y-126210712D01*
X121972666Y-126302814D01*
X122084017Y-126339712D01*
X122139202Y-126357999D01*
X122152566Y-126359364D01*
X122180101Y-126362177D01*
X122236639Y-126382599D01*
X122276929Y-126427214D01*
X122291500Y-126485535D01*
X122291500Y-130030073D01*
X122306891Y-130215816D01*
X122306891Y-130215819D01*
X122306892Y-130215821D01*
X122367937Y-130456881D01*
X122390886Y-130509199D01*
X122467825Y-130684604D01*
X122467827Y-130684607D01*
X122603836Y-130892785D01*
X122623732Y-130914398D01*
X122635231Y-130928937D01*
X122721847Y-131057088D01*
X122746290Y-131082592D01*
X122757023Y-131093790D01*
X122782558Y-131133356D01*
X122791500Y-131179590D01*
X122791500Y-135644272D01*
X122782061Y-135691725D01*
X122755180Y-135731954D01*
X122722787Y-135764345D01*
X122630686Y-135913663D01*
X122575500Y-136080202D01*
X122565000Y-136182992D01*
X122565000Y-137533008D01*
X122575500Y-137635797D01*
X122630686Y-137802336D01*
X122722788Y-137951655D01*
X122846844Y-138075711D01*
X122996163Y-138167813D01*
X123162702Y-138222999D01*
X123265492Y-138233500D01*
X124290508Y-138233500D01*
X124393297Y-138222999D01*
X124409484Y-138217635D01*
X124559834Y-138167814D01*
X124619822Y-138130813D01*
X124709155Y-138075711D01*
X124833211Y-137951655D01*
X124925313Y-137802336D01*
X124932273Y-137781334D01*
X124980499Y-137635797D01*
X124991000Y-137533008D01*
X125540000Y-137533008D01*
X125550500Y-137635797D01*
X125605686Y-137802336D01*
X125697788Y-137951655D01*
X125821844Y-138075711D01*
X125971163Y-138167813D01*
X126137702Y-138222999D01*
X126240492Y-138233500D01*
X127265508Y-138233500D01*
X127368297Y-138222999D01*
X127384484Y-138217635D01*
X127534834Y-138167814D01*
X127594822Y-138130813D01*
X127684152Y-138075713D01*
X127684152Y-138075712D01*
X127684155Y-138075711D01*
X127734569Y-138025296D01*
X127790155Y-137993204D01*
X127854343Y-137993204D01*
X127909931Y-138025299D01*
X127939344Y-138054712D01*
X128088666Y-138146814D01*
X128200016Y-138183712D01*
X128255202Y-138201999D01*
X128265702Y-138203071D01*
X128357991Y-138212500D01*
X129358008Y-138212499D01*
X129460797Y-138201999D01*
X129627334Y-138146814D01*
X129776656Y-138054712D01*
X129900712Y-137930656D01*
X129992814Y-137781334D01*
X130047999Y-137614797D01*
X130058500Y-137512009D01*
X130058499Y-136711992D01*
X130056864Y-136695991D01*
X130047999Y-136609203D01*
X130034671Y-136568982D01*
X129992814Y-136442666D01*
X129900712Y-136293344D01*
X129807047Y-136199679D01*
X129774955Y-136144094D01*
X129774955Y-136079906D01*
X129807047Y-136024320D01*
X129900712Y-135930656D01*
X129992814Y-135781334D01*
X130047999Y-135614797D01*
X130058500Y-135512009D01*
X130058499Y-134711992D01*
X130056864Y-134695991D01*
X130047999Y-134609203D01*
X130037395Y-134577202D01*
X129992814Y-134442666D01*
X129900712Y-134293344D01*
X129900711Y-134293342D01*
X129776657Y-134169288D01*
X129627334Y-134077186D01*
X129460797Y-134022000D01*
X129358009Y-134011500D01*
X128357991Y-134011500D01*
X128255203Y-134022000D01*
X128088665Y-134077186D01*
X127939342Y-134169288D01*
X127815288Y-134293342D01*
X127723186Y-134442665D01*
X127668000Y-134609202D01*
X127657500Y-134711991D01*
X127657500Y-135417113D01*
X127643903Y-135473569D01*
X127606093Y-135517643D01*
X127552363Y-135539670D01*
X127494496Y-135534819D01*
X127368297Y-135493000D01*
X127265508Y-135482500D01*
X126240492Y-135482500D01*
X126137702Y-135493000D01*
X125971163Y-135548186D01*
X125821844Y-135640288D01*
X125697788Y-135764344D01*
X125605686Y-135913663D01*
X125550500Y-136080202D01*
X125540000Y-136182992D01*
X125540000Y-137533008D01*
X124991000Y-137533008D01*
X124991000Y-136182992D01*
X124980499Y-136080203D01*
X124973012Y-136057610D01*
X124925313Y-135913663D01*
X124833211Y-135764344D01*
X124828819Y-135759952D01*
X124801939Y-135719724D01*
X124792500Y-135672271D01*
X124792500Y-131189085D01*
X124808754Y-131127711D01*
X124853255Y-131082426D01*
X124914337Y-131065104D01*
X124975985Y-131080285D01*
X125022039Y-131123989D01*
X125027185Y-131132333D01*
X125027186Y-131132334D01*
X125029117Y-131135465D01*
X125119288Y-131281657D01*
X125243342Y-131405711D01*
X125245996Y-131407348D01*
X125392666Y-131497814D01*
X125491306Y-131530500D01*
X125559202Y-131552999D01*
X125563206Y-131553408D01*
X125661991Y-131563500D01*
X127002008Y-131563499D01*
X127104797Y-131552999D01*
X127271334Y-131497814D01*
X127288931Y-131486960D01*
X127354025Y-131468500D01*
X128916333Y-131468500D01*
X128916335Y-131468500D01*
X128972705Y-131459092D01*
X128982859Y-131457827D01*
X129039821Y-131453108D01*
X129095221Y-131439078D01*
X129105237Y-131436978D01*
X129161614Y-131427571D01*
X129215668Y-131409013D01*
X129225482Y-131406091D01*
X129280881Y-131392063D01*
X129333204Y-131369110D01*
X129342753Y-131365385D01*
X129364766Y-131357827D01*
X129396810Y-131346828D01*
X129421541Y-131333443D01*
X129480559Y-131318499D01*
X129689870Y-131318499D01*
X129689872Y-131318499D01*
X129749483Y-131312091D01*
X129884331Y-131261796D01*
X129999546Y-131175546D01*
X130085796Y-131060331D01*
X130136091Y-130925483D01*
X130142500Y-130865873D01*
X130142499Y-130656557D01*
X130157445Y-130597538D01*
X130170828Y-130572810D01*
X130189387Y-130518745D01*
X130193103Y-130509220D01*
X130216063Y-130456881D01*
X130230091Y-130401482D01*
X130233014Y-130391666D01*
X130251571Y-130337614D01*
X130251571Y-130337613D01*
X130260978Y-130281237D01*
X130263079Y-130271219D01*
X130277107Y-130215825D01*
X130277107Y-130215824D01*
X130277108Y-130215821D01*
X130281827Y-130158859D01*
X130283094Y-130148696D01*
X130290344Y-130105257D01*
X130292500Y-130092335D01*
X130292500Y-129843665D01*
X130292500Y-126485535D01*
X130307071Y-126427214D01*
X130347360Y-126382600D01*
X130403899Y-126362177D01*
X130432144Y-126359291D01*
X130444797Y-126357999D01*
X130611334Y-126302814D01*
X130760656Y-126210712D01*
X130884712Y-126086656D01*
X130976814Y-125937334D01*
X131031999Y-125770797D01*
X131042500Y-125668009D01*
X131042499Y-124267992D01*
X131031999Y-124165203D01*
X130976814Y-123998666D01*
X130884712Y-123849344D01*
X130884711Y-123849342D01*
X130760657Y-123725288D01*
X130611334Y-123633186D01*
X130444797Y-123578000D01*
X130342009Y-123567500D01*
X129354373Y-123567500D01*
X129314110Y-123560781D01*
X129161615Y-123508429D01*
X128916335Y-123467500D01*
X128667665Y-123467500D01*
X128422384Y-123508429D01*
X128334963Y-123538441D01*
X128269887Y-123560781D01*
X128229626Y-123567500D01*
X127616396Y-123567500D01*
X127561017Y-123554447D01*
X127517298Y-123518035D01*
X127494442Y-123465931D01*
X127497262Y-123409105D01*
X127525164Y-123359520D01*
X127528571Y-123355819D01*
X127554248Y-123327924D01*
X127557725Y-123324301D01*
X127577902Y-123304125D01*
X127596311Y-123282387D01*
X127599690Y-123278563D01*
X127661160Y-123211789D01*
X127661164Y-123211785D01*
X127674006Y-123192126D01*
X127683188Y-123179813D01*
X127698366Y-123161894D01*
X127744848Y-123083884D01*
X127747505Y-123079627D01*
X127797173Y-123003607D01*
X127806604Y-122982105D01*
X127813635Y-122968445D01*
X127825656Y-122948273D01*
X127858663Y-122863679D01*
X127860600Y-122859005D01*
X127897063Y-122775881D01*
X127902826Y-122753117D01*
X127907516Y-122738483D01*
X127909820Y-122732578D01*
X127916050Y-122716614D01*
X127934678Y-122627772D01*
X127935824Y-122622816D01*
X127958108Y-122534821D01*
X127958971Y-122524400D01*
X127960047Y-122511426D01*
X127962263Y-122496217D01*
X127967081Y-122473238D01*
X127968389Y-122441595D01*
X127970831Y-122382543D01*
X127971149Y-122377428D01*
X127973500Y-122349068D01*
X127973500Y-122320596D01*
X127973606Y-122315471D01*
X127977357Y-122224780D01*
X127974452Y-122201473D01*
X127973500Y-122186135D01*
X127973500Y-121837500D01*
X127990113Y-121775500D01*
X128035500Y-121730113D01*
X128097500Y-121713500D01*
X129473810Y-121713499D01*
X129597985Y-121713499D01*
X129597991Y-121713500D01*
X134448008Y-121713499D01*
X134550797Y-121702999D01*
X134628726Y-121677175D01*
X134694212Y-121673743D01*
X134752294Y-121704194D01*
X134786722Y-121760010D01*
X134787867Y-121825580D01*
X134755408Y-121882563D01*
X133106789Y-123531181D01*
X133066561Y-123558061D01*
X133019108Y-123567500D01*
X132241991Y-123567500D01*
X132139203Y-123578000D01*
X131972665Y-123633186D01*
X131823342Y-123725288D01*
X131699288Y-123849342D01*
X131607186Y-123998665D01*
X131552000Y-124165202D01*
X131541500Y-124267990D01*
X131541500Y-125668008D01*
X131552000Y-125770796D01*
X131607186Y-125937334D01*
X131699288Y-126086657D01*
X131823342Y-126210711D01*
X131823344Y-126210712D01*
X131972666Y-126302814D01*
X132084017Y-126339712D01*
X132139202Y-126357999D01*
X132152566Y-126359364D01*
X132180101Y-126362177D01*
X132236639Y-126382599D01*
X132276929Y-126427214D01*
X132291500Y-126485535D01*
X132291500Y-130030073D01*
X132306891Y-130215816D01*
X132306891Y-130215819D01*
X132306892Y-130215821D01*
X132367937Y-130456881D01*
X132390886Y-130509199D01*
X132467825Y-130684604D01*
X132467827Y-130684607D01*
X132603836Y-130892785D01*
X132623732Y-130914398D01*
X132635231Y-130928937D01*
X132721847Y-131057088D01*
X132746290Y-131082592D01*
X132757023Y-131093790D01*
X132782558Y-131133356D01*
X132791500Y-131179590D01*
X132791500Y-135550271D01*
X132782061Y-135597724D01*
X132755181Y-135637952D01*
X132628788Y-135764344D01*
X132536686Y-135913663D01*
X132481500Y-136080202D01*
X132471000Y-136182992D01*
X132471000Y-137533008D01*
X132481500Y-137635797D01*
X132536686Y-137802336D01*
X132628788Y-137951655D01*
X132752844Y-138075711D01*
X132902163Y-138167813D01*
X133068702Y-138222999D01*
X133171492Y-138233500D01*
X134196508Y-138233500D01*
X134299297Y-138222999D01*
X134315484Y-138217635D01*
X134465834Y-138167814D01*
X134525822Y-138130813D01*
X134615155Y-138075711D01*
X134739211Y-137951655D01*
X134831313Y-137802336D01*
X134838273Y-137781334D01*
X134886499Y-137635797D01*
X134897000Y-137533008D01*
X134897000Y-136182992D01*
X134886499Y-136080203D01*
X134879012Y-136057610D01*
X134831314Y-135913666D01*
X134810962Y-135880671D01*
X134792500Y-135815573D01*
X134792500Y-131189085D01*
X134808754Y-131127711D01*
X134853255Y-131082426D01*
X134914337Y-131065104D01*
X134975985Y-131080285D01*
X135022039Y-131123989D01*
X135027185Y-131132333D01*
X135027186Y-131132334D01*
X135029117Y-131135465D01*
X135119288Y-131281657D01*
X135243342Y-131405711D01*
X135245996Y-131407348D01*
X135392666Y-131497814D01*
X135491306Y-131530500D01*
X135559202Y-131552999D01*
X135563206Y-131553408D01*
X135661991Y-131563500D01*
X137002008Y-131563499D01*
X137104797Y-131552999D01*
X137271334Y-131497814D01*
X137288931Y-131486960D01*
X137354025Y-131468500D01*
X137639500Y-131468500D01*
X137701500Y-131485113D01*
X137746887Y-131530500D01*
X137763500Y-131592500D01*
X137763500Y-134183769D01*
X137754061Y-134231222D01*
X137727181Y-134271450D01*
X137721288Y-134277342D01*
X137629186Y-134426665D01*
X137574000Y-134593202D01*
X137563500Y-134695991D01*
X137563500Y-135417113D01*
X137549903Y-135473569D01*
X137512093Y-135517643D01*
X137458363Y-135539670D01*
X137400496Y-135534819D01*
X137274297Y-135493000D01*
X137171508Y-135482500D01*
X136146492Y-135482500D01*
X136043702Y-135493000D01*
X135877163Y-135548186D01*
X135727844Y-135640288D01*
X135603788Y-135764344D01*
X135511686Y-135913663D01*
X135456500Y-136080202D01*
X135446000Y-136182992D01*
X135446000Y-137533008D01*
X135456500Y-137635797D01*
X135511686Y-137802336D01*
X135603788Y-137951655D01*
X135727844Y-138075711D01*
X135877163Y-138167813D01*
X136043702Y-138222999D01*
X136146492Y-138233500D01*
X137171508Y-138233500D01*
X137274297Y-138222999D01*
X137290484Y-138217635D01*
X137440834Y-138167814D01*
X137440836Y-138167813D01*
X137590151Y-138075714D01*
X137590152Y-138075712D01*
X137590155Y-138075711D01*
X137648569Y-138017296D01*
X137704153Y-137985205D01*
X137768341Y-137985204D01*
X137823929Y-138017298D01*
X137845342Y-138038711D01*
X137871284Y-138054712D01*
X137994666Y-138130814D01*
X138106017Y-138167712D01*
X138161202Y-138185999D01*
X138171702Y-138187071D01*
X138263991Y-138196500D01*
X139264008Y-138196499D01*
X139366797Y-138185999D01*
X139533334Y-138130814D01*
X139682656Y-138038712D01*
X139806712Y-137914656D01*
X139898814Y-137765334D01*
X139953999Y-137598797D01*
X139964500Y-137496009D01*
X139964499Y-136695992D01*
X139962864Y-136679991D01*
X139953999Y-136593203D01*
X139945973Y-136568982D01*
X139898814Y-136426666D01*
X139824950Y-136306912D01*
X139806713Y-136277345D01*
X139790712Y-136261344D01*
X139713047Y-136183679D01*
X139680955Y-136128094D01*
X139680955Y-136063906D01*
X139713047Y-136008320D01*
X139806712Y-135914656D01*
X139898814Y-135765334D01*
X139953999Y-135598797D01*
X139964500Y-135496009D01*
X139964499Y-134695992D01*
X139962864Y-134679991D01*
X139953999Y-134593203D01*
X139948697Y-134577202D01*
X139898814Y-134426666D01*
X139816580Y-134293342D01*
X139806711Y-134277342D01*
X139800819Y-134271450D01*
X139773939Y-134231222D01*
X139764500Y-134183769D01*
X139764500Y-131392585D01*
X139774512Y-131343772D01*
X139802930Y-131302842D01*
X139845166Y-131276403D01*
X139884331Y-131261796D01*
X139999546Y-131175546D01*
X140085796Y-131060331D01*
X140136091Y-130925483D01*
X140142500Y-130865873D01*
X140142499Y-130656557D01*
X140157445Y-130597538D01*
X140170828Y-130572810D01*
X140189387Y-130518745D01*
X140193103Y-130509220D01*
X140216063Y-130456881D01*
X140230091Y-130401482D01*
X140233014Y-130391666D01*
X140251571Y-130337614D01*
X140251571Y-130337613D01*
X140260978Y-130281237D01*
X140263079Y-130271219D01*
X140277107Y-130215825D01*
X140277107Y-130215824D01*
X140277108Y-130215821D01*
X140281827Y-130158859D01*
X140283094Y-130148696D01*
X140290344Y-130105257D01*
X140292500Y-130092335D01*
X140292500Y-129843665D01*
X140292500Y-126485535D01*
X140307071Y-126427214D01*
X140347360Y-126382600D01*
X140403899Y-126362177D01*
X140432144Y-126359291D01*
X140444797Y-126357999D01*
X140611334Y-126302814D01*
X140760656Y-126210712D01*
X140884712Y-126086656D01*
X140976814Y-125937334D01*
X141031999Y-125770797D01*
X141042500Y-125668009D01*
X141042499Y-124267992D01*
X141031999Y-124165203D01*
X140976814Y-123998666D01*
X140884712Y-123849344D01*
X140884711Y-123849342D01*
X140760657Y-123725288D01*
X140611334Y-123633186D01*
X140444797Y-123578000D01*
X140342009Y-123567500D01*
X139354373Y-123567500D01*
X139314110Y-123560781D01*
X139161615Y-123508429D01*
X138916335Y-123467500D01*
X138667665Y-123467500D01*
X138422384Y-123508429D01*
X138334963Y-123538441D01*
X138269887Y-123560781D01*
X138229626Y-123567500D01*
X137613888Y-123567500D01*
X137557593Y-123553985D01*
X137513570Y-123516385D01*
X137491415Y-123462898D01*
X137495957Y-123405182D01*
X137526207Y-123355819D01*
X139132208Y-121749818D01*
X139172436Y-121722938D01*
X139219889Y-121713499D01*
X141497985Y-121713499D01*
X141497991Y-121713500D01*
X144875109Y-121713499D01*
X144931404Y-121727014D01*
X144975427Y-121764614D01*
X144997582Y-121818101D01*
X144993040Y-121875817D01*
X144962790Y-121925180D01*
X143382052Y-123505918D01*
X143324816Y-123538441D01*
X143303120Y-123543936D01*
X143273209Y-123557056D01*
X143223400Y-123567500D01*
X142241991Y-123567500D01*
X142139203Y-123578000D01*
X141972665Y-123633186D01*
X141823342Y-123725288D01*
X141699288Y-123849342D01*
X141607186Y-123998665D01*
X141552000Y-124165202D01*
X141541500Y-124267990D01*
X141541500Y-125668008D01*
X141552000Y-125770796D01*
X141607186Y-125937334D01*
X141699288Y-126086657D01*
X141823342Y-126210711D01*
X141823344Y-126210712D01*
X141972666Y-126302814D01*
X142084017Y-126339712D01*
X142139202Y-126357999D01*
X142152566Y-126359364D01*
X142180101Y-126362177D01*
X142236639Y-126382599D01*
X142276929Y-126427214D01*
X142291500Y-126485535D01*
X142291500Y-130030073D01*
X142306891Y-130215816D01*
X142306891Y-130215819D01*
X142306892Y-130215821D01*
X142367937Y-130456881D01*
X142390886Y-130509199D01*
X142467825Y-130684604D01*
X142467827Y-130684607D01*
X142603836Y-130892785D01*
X142623732Y-130914398D01*
X142635231Y-130928937D01*
X142721847Y-131057088D01*
X142746290Y-131082592D01*
X142757023Y-131093790D01*
X142782558Y-131133356D01*
X142791500Y-131179590D01*
X142791500Y-135724783D01*
X142773038Y-135789880D01*
X142696686Y-135913663D01*
X142641500Y-136080202D01*
X142631000Y-136182992D01*
X142631000Y-137533008D01*
X142641500Y-137635797D01*
X142696686Y-137802336D01*
X142788788Y-137951655D01*
X142912844Y-138075711D01*
X143062163Y-138167813D01*
X143228702Y-138222999D01*
X143331492Y-138233500D01*
X144356508Y-138233500D01*
X144459297Y-138222999D01*
X144475484Y-138217635D01*
X144625834Y-138167814D01*
X144685822Y-138130813D01*
X144775155Y-138075711D01*
X144899211Y-137951655D01*
X144991313Y-137802336D01*
X144998273Y-137781334D01*
X145046499Y-137635797D01*
X145057000Y-137533008D01*
X145057000Y-136182992D01*
X145046499Y-136080203D01*
X145039012Y-136057610D01*
X144991313Y-135913663D01*
X144899213Y-135764347D01*
X144865500Y-135730634D01*
X144828816Y-135693950D01*
X144801939Y-135653725D01*
X144792500Y-135606272D01*
X144792500Y-131189085D01*
X144808754Y-131127711D01*
X144853255Y-131082426D01*
X144914337Y-131065104D01*
X144975985Y-131080285D01*
X145022039Y-131123989D01*
X145027185Y-131132333D01*
X145027186Y-131132334D01*
X145029117Y-131135465D01*
X145119288Y-131281657D01*
X145243342Y-131405711D01*
X145245996Y-131407348D01*
X145392666Y-131497814D01*
X145491306Y-131530500D01*
X145559202Y-131552999D01*
X145563206Y-131553408D01*
X145661991Y-131563500D01*
X147002008Y-131563499D01*
X147104797Y-131552999D01*
X147271334Y-131497814D01*
X147288931Y-131486960D01*
X147354025Y-131468500D01*
X147799500Y-131468500D01*
X147861500Y-131485113D01*
X147906887Y-131530500D01*
X147923500Y-131592500D01*
X147923500Y-134183769D01*
X147914061Y-134231222D01*
X147887181Y-134271450D01*
X147881288Y-134277342D01*
X147789186Y-134426665D01*
X147734000Y-134593202D01*
X147723500Y-134695991D01*
X147723500Y-135417113D01*
X147709903Y-135473569D01*
X147672093Y-135517643D01*
X147618363Y-135539670D01*
X147560496Y-135534819D01*
X147434297Y-135493000D01*
X147331508Y-135482500D01*
X146306492Y-135482500D01*
X146203702Y-135493000D01*
X146037163Y-135548186D01*
X145887844Y-135640288D01*
X145763788Y-135764344D01*
X145671686Y-135913663D01*
X145616500Y-136080202D01*
X145606000Y-136182992D01*
X145606000Y-137533008D01*
X145616500Y-137635797D01*
X145671686Y-137802336D01*
X145763788Y-137951655D01*
X145887844Y-138075711D01*
X146037163Y-138167813D01*
X146203702Y-138222999D01*
X146306492Y-138233500D01*
X147331508Y-138233500D01*
X147434297Y-138222999D01*
X147450484Y-138217635D01*
X147600834Y-138167814D01*
X147600836Y-138167813D01*
X147750151Y-138075714D01*
X147750152Y-138075712D01*
X147750155Y-138075711D01*
X147808569Y-138017296D01*
X147864153Y-137985205D01*
X147928341Y-137985204D01*
X147983929Y-138017298D01*
X148005342Y-138038711D01*
X148031284Y-138054712D01*
X148154666Y-138130814D01*
X148266017Y-138167712D01*
X148321202Y-138185999D01*
X148331702Y-138187071D01*
X148423991Y-138196500D01*
X149424008Y-138196499D01*
X149526797Y-138185999D01*
X149693334Y-138130814D01*
X149842656Y-138038712D01*
X149966712Y-137914656D01*
X150058814Y-137765334D01*
X150113999Y-137598797D01*
X150124500Y-137496009D01*
X150124499Y-136973764D01*
X152129787Y-136973764D01*
X152159413Y-137243016D01*
X152159414Y-137243018D01*
X152227928Y-137505088D01*
X152333870Y-137754390D01*
X152333871Y-137754392D01*
X152474982Y-137985611D01*
X152628431Y-138169999D01*
X152648255Y-138193820D01*
X152849998Y-138374582D01*
X153075910Y-138524044D01*
X153182211Y-138573876D01*
X153321177Y-138639021D01*
X153580562Y-138717058D01*
X153580569Y-138717060D01*
X153848561Y-138756500D01*
X154051631Y-138756500D01*
X154051634Y-138756500D01*
X154254156Y-138741677D01*
X154254156Y-138741676D01*
X154518553Y-138682780D01*
X154771558Y-138586014D01*
X155007777Y-138453441D01*
X155222177Y-138287888D01*
X155410186Y-138092881D01*
X155567799Y-137872579D01*
X155691656Y-137631675D01*
X155779118Y-137375305D01*
X155828319Y-137108933D01*
X155838212Y-136838235D01*
X155808586Y-136568982D01*
X155740072Y-136306912D01*
X155634130Y-136057610D01*
X155545476Y-135912346D01*
X155493017Y-135826388D01*
X155319746Y-135618181D01*
X155281855Y-135584231D01*
X155118002Y-135437418D01*
X154892090Y-135287956D01*
X154892086Y-135287954D01*
X154646822Y-135172978D01*
X154387437Y-135094941D01*
X154387431Y-135094940D01*
X154119439Y-135055500D01*
X153916369Y-135055500D01*
X153916366Y-135055500D01*
X153713843Y-135070322D01*
X153449449Y-135129219D01*
X153196441Y-135225986D01*
X152960223Y-135358559D01*
X152745825Y-135524109D01*
X152557813Y-135719120D01*
X152400201Y-135939420D01*
X152327820Y-136080203D01*
X152282019Y-136169288D01*
X152276342Y-136180329D01*
X152188881Y-136436695D01*
X152139680Y-136703066D01*
X152129787Y-136973764D01*
X150124499Y-136973764D01*
X150124499Y-136695992D01*
X150122864Y-136679991D01*
X150113999Y-136593203D01*
X150105973Y-136568982D01*
X150058814Y-136426666D01*
X149984950Y-136306912D01*
X149966713Y-136277345D01*
X149950712Y-136261344D01*
X149873047Y-136183679D01*
X149840955Y-136128094D01*
X149840955Y-136063906D01*
X149873047Y-136008320D01*
X149966712Y-135914656D01*
X150058814Y-135765334D01*
X150113999Y-135598797D01*
X150124500Y-135496009D01*
X150124499Y-134695992D01*
X150122864Y-134679991D01*
X150113999Y-134593203D01*
X150108697Y-134577202D01*
X150058814Y-134426666D01*
X149976580Y-134293342D01*
X149966711Y-134277342D01*
X149960819Y-134271450D01*
X149933939Y-134231222D01*
X149924500Y-134183769D01*
X149924500Y-131318000D01*
X152822340Y-131318000D01*
X152842936Y-131553407D01*
X152887709Y-131720501D01*
X152904097Y-131781663D01*
X153003965Y-131995830D01*
X153139505Y-132189401D01*
X153306599Y-132356495D01*
X153500170Y-132492035D01*
X153714337Y-132591903D01*
X153942592Y-132653063D01*
X154178000Y-132673659D01*
X154413408Y-132653063D01*
X154641663Y-132591903D01*
X154855830Y-132492035D01*
X155049401Y-132356495D01*
X155216495Y-132189401D01*
X155352035Y-131995830D01*
X155451903Y-131781663D01*
X155513063Y-131553408D01*
X155533659Y-131318000D01*
X155513063Y-131082592D01*
X155451903Y-130854337D01*
X155352035Y-130640171D01*
X155216495Y-130446599D01*
X155049401Y-130279505D01*
X154863839Y-130149573D01*
X154824975Y-130105257D01*
X154810964Y-130048000D01*
X154824975Y-129990743D01*
X154863839Y-129946426D01*
X155049401Y-129816495D01*
X155216495Y-129649401D01*
X155352035Y-129455830D01*
X155451903Y-129241663D01*
X155513063Y-129013408D01*
X155533659Y-128778000D01*
X155513063Y-128542592D01*
X155451903Y-128314337D01*
X155352035Y-128100171D01*
X155216495Y-127906599D01*
X155049401Y-127739505D01*
X154863402Y-127609267D01*
X154824539Y-127564951D01*
X154810528Y-127507694D01*
X154824539Y-127450437D01*
X154863405Y-127406119D01*
X155049078Y-127276109D01*
X155216106Y-127109081D01*
X155351600Y-126915576D01*
X155434406Y-126738000D01*
X152921593Y-126738000D01*
X153004399Y-126915576D01*
X153139893Y-127109081D01*
X153306918Y-127276106D01*
X153492595Y-127406119D01*
X153531460Y-127450437D01*
X153545471Y-127507694D01*
X153531460Y-127564951D01*
X153492595Y-127609269D01*
X153306595Y-127739508D01*
X153139505Y-127906598D01*
X153003965Y-128100170D01*
X152904097Y-128314336D01*
X152842936Y-128542592D01*
X152822340Y-128777999D01*
X152842936Y-129013407D01*
X152887709Y-129180502D01*
X152904097Y-129241663D01*
X153003965Y-129455830D01*
X153139505Y-129649401D01*
X153306599Y-129816495D01*
X153492160Y-129946426D01*
X153531024Y-129990743D01*
X153545035Y-130048000D01*
X153531024Y-130105257D01*
X153492159Y-130149575D01*
X153306595Y-130279508D01*
X153139505Y-130446598D01*
X153003965Y-130640170D01*
X152904097Y-130854336D01*
X152842936Y-131082592D01*
X152822340Y-131318000D01*
X149924500Y-131318000D01*
X149924500Y-131293795D01*
X149937616Y-131238291D01*
X149974189Y-131194528D01*
X149981460Y-131189085D01*
X149999546Y-131175546D01*
X150085796Y-131060331D01*
X150136091Y-130925483D01*
X150142500Y-130865873D01*
X150142499Y-130656557D01*
X150157445Y-130597538D01*
X150170828Y-130572810D01*
X150189387Y-130518745D01*
X150193103Y-130509220D01*
X150216063Y-130456881D01*
X150230091Y-130401482D01*
X150233014Y-130391666D01*
X150251571Y-130337614D01*
X150251571Y-130337613D01*
X150260978Y-130281237D01*
X150263079Y-130271219D01*
X150277107Y-130215825D01*
X150277107Y-130215824D01*
X150277108Y-130215821D01*
X150281827Y-130158859D01*
X150283094Y-130148696D01*
X150290344Y-130105257D01*
X150292500Y-130092335D01*
X150292500Y-129843665D01*
X150292500Y-126485535D01*
X150307071Y-126427214D01*
X150347360Y-126382600D01*
X150403899Y-126362177D01*
X150432144Y-126359291D01*
X150444797Y-126357999D01*
X150611334Y-126302814D01*
X150760656Y-126210712D01*
X150884712Y-126086656D01*
X150976814Y-125937334D01*
X151031999Y-125770797D01*
X151042500Y-125668009D01*
X151042499Y-124267992D01*
X151035349Y-124198000D01*
X152828000Y-124198000D01*
X152828000Y-124595824D01*
X152834402Y-124655375D01*
X152884647Y-124790089D01*
X152970811Y-124905188D01*
X153085910Y-124991352D01*
X153217987Y-125040614D01*
X153268366Y-125075593D01*
X153295819Y-125130438D01*
X153293630Y-125191730D01*
X153262335Y-125244477D01*
X153139888Y-125366924D01*
X153004400Y-125560421D01*
X152921594Y-125737999D01*
X152921594Y-125738000D01*
X153678000Y-125738000D01*
X153678000Y-124198000D01*
X154678000Y-124198000D01*
X154678000Y-125738000D01*
X155434406Y-125738000D01*
X155434405Y-125737999D01*
X155351599Y-125560421D01*
X155216109Y-125366921D01*
X155093665Y-125244477D01*
X155062369Y-125191731D01*
X155060180Y-125130438D01*
X155087633Y-125075593D01*
X155138013Y-125040614D01*
X155270088Y-124991352D01*
X155385188Y-124905188D01*
X155471352Y-124790089D01*
X155521597Y-124655375D01*
X155528000Y-124595824D01*
X155528000Y-124198000D01*
X154678000Y-124198000D01*
X153678000Y-124198000D01*
X152828000Y-124198000D01*
X151035349Y-124198000D01*
X151031999Y-124165203D01*
X150976814Y-123998666D01*
X150884712Y-123849344D01*
X150884711Y-123849342D01*
X150760657Y-123725288D01*
X150611334Y-123633186D01*
X150444797Y-123578000D01*
X150342009Y-123567500D01*
X149871889Y-123567500D01*
X149815594Y-123553985D01*
X149771571Y-123516385D01*
X149749416Y-123462898D01*
X149753958Y-123405182D01*
X149784208Y-123355819D01*
X149942027Y-123198000D01*
X152828000Y-123198000D01*
X153678000Y-123198000D01*
X153678000Y-122348000D01*
X154678000Y-122348000D01*
X154678000Y-123198000D01*
X155528000Y-123198000D01*
X155528000Y-122800176D01*
X155521597Y-122740624D01*
X155471352Y-122605910D01*
X155385188Y-122490811D01*
X155270089Y-122404647D01*
X155135375Y-122354402D01*
X155075824Y-122348000D01*
X154678000Y-122348000D01*
X153678000Y-122348000D01*
X153280176Y-122348000D01*
X153220624Y-122354402D01*
X153085910Y-122404647D01*
X152970811Y-122490811D01*
X152884647Y-122605910D01*
X152834402Y-122740624D01*
X152828000Y-122800176D01*
X152828000Y-123198000D01*
X149942027Y-123198000D01*
X150136421Y-123003606D01*
X151262697Y-121877328D01*
X151274199Y-121867171D01*
X151292744Y-121852738D01*
X151354247Y-121785926D01*
X151357725Y-121782301D01*
X151377902Y-121762125D01*
X151381936Y-121757361D01*
X151424414Y-121724998D01*
X151476562Y-121713499D01*
X153397985Y-121713499D01*
X153397991Y-121713500D01*
X158248008Y-121713499D01*
X158350797Y-121702999D01*
X158517334Y-121647814D01*
X158666656Y-121555712D01*
X158790712Y-121431656D01*
X158882814Y-121282334D01*
X158937999Y-121115797D01*
X158948500Y-121013009D01*
X158948500Y-118941925D01*
X158948499Y-116163014D01*
X158948500Y-116163009D01*
X158948499Y-112012992D01*
X158937999Y-111910203D01*
X158882814Y-111743666D01*
X158790712Y-111594344D01*
X158790711Y-111594342D01*
X158666657Y-111470288D01*
X158517334Y-111378186D01*
X158350797Y-111323000D01*
X158248009Y-111312500D01*
X158248007Y-111312500D01*
X152698014Y-111312500D01*
X152698009Y-111312500D01*
X147847991Y-111312500D01*
X147745203Y-111323000D01*
X147578665Y-111378186D01*
X147429342Y-111470288D01*
X147305288Y-111594342D01*
X147205578Y-111756001D01*
X147203674Y-111754826D01*
X147182567Y-111787747D01*
X147128697Y-111817198D01*
X147067303Y-111817198D01*
X147013433Y-111787747D01*
X146992325Y-111754826D01*
X146990422Y-111756001D01*
X146890711Y-111594342D01*
X146766657Y-111470288D01*
X146617334Y-111378186D01*
X146450797Y-111323000D01*
X146348009Y-111312500D01*
X146348007Y-111312500D01*
X140798014Y-111312500D01*
X140798009Y-111312500D01*
X135947991Y-111312500D01*
X135845203Y-111323000D01*
X135678665Y-111378186D01*
X135529342Y-111470288D01*
X135405288Y-111594342D01*
X135305578Y-111756001D01*
X135303674Y-111754826D01*
X135282567Y-111787747D01*
X135228697Y-111817198D01*
X135167303Y-111817198D01*
X135113433Y-111787747D01*
X135092325Y-111754826D01*
X135090422Y-111756001D01*
X134990711Y-111594342D01*
X134866657Y-111470288D01*
X134717334Y-111378186D01*
X134550797Y-111323000D01*
X134448009Y-111312500D01*
X134448007Y-111312500D01*
X128898014Y-111312500D01*
X128898009Y-111312500D01*
X124047991Y-111312500D01*
X123945203Y-111323000D01*
X123778665Y-111378186D01*
X123629342Y-111470288D01*
X123505288Y-111594342D01*
X123413186Y-111743665D01*
X123406206Y-111764731D01*
X123373067Y-111816415D01*
X123319198Y-111845867D01*
X123257802Y-111845867D01*
X123203933Y-111816415D01*
X123170794Y-111764731D01*
X123167512Y-111754826D01*
X123163814Y-111743666D01*
X123071712Y-111594344D01*
X123071711Y-111594342D01*
X122947657Y-111470288D01*
X122798334Y-111378186D01*
X122631797Y-111323000D01*
X122529009Y-111312500D01*
X122529007Y-111312500D01*
X116979014Y-111312500D01*
X116979009Y-111312500D01*
X112128991Y-111312500D01*
X112026203Y-111323000D01*
X111859665Y-111378186D01*
X111710342Y-111470288D01*
X111586288Y-111594342D01*
X111486578Y-111756001D01*
X111483713Y-111754234D01*
X111464994Y-111783423D01*
X111411124Y-111812869D01*
X111349731Y-111812866D01*
X111295865Y-111783413D01*
X111262729Y-111731731D01*
X111252767Y-111701667D01*
X111244814Y-111677666D01*
X111152712Y-111528344D01*
X111152711Y-111528342D01*
X111028657Y-111404288D01*
X110879334Y-111312186D01*
X110712797Y-111257000D01*
X110610009Y-111246500D01*
X110610007Y-111246500D01*
X105060014Y-111246500D01*
X105060009Y-111246500D01*
X100209991Y-111246500D01*
X100107203Y-111257000D01*
X99940665Y-111312186D01*
X99791342Y-111404288D01*
X99667288Y-111528342D01*
X99575185Y-111677666D01*
X99568204Y-111698733D01*
X99535064Y-111750416D01*
X99481194Y-111779867D01*
X99419799Y-111779866D01*
X99365930Y-111750413D01*
X99332794Y-111698732D01*
X99325814Y-111677666D01*
X99233712Y-111528344D01*
X99233711Y-111528342D01*
X99109657Y-111404288D01*
X98960334Y-111312186D01*
X98793797Y-111257000D01*
X98691009Y-111246500D01*
X98691007Y-111246500D01*
X93141014Y-111246500D01*
X93141009Y-111246500D01*
X88290991Y-111246500D01*
X88188203Y-111257000D01*
X88021665Y-111312186D01*
X87872342Y-111404288D01*
X87748288Y-111528342D01*
X87656184Y-111677667D01*
X87635728Y-111739399D01*
X87602590Y-111791083D01*
X87548720Y-111820534D01*
X87487325Y-111820534D01*
X87433455Y-111791082D01*
X87400317Y-111739398D01*
X87387814Y-111701666D01*
X87295712Y-111552344D01*
X87295711Y-111552342D01*
X87171657Y-111428288D01*
X87022334Y-111336186D01*
X86855797Y-111281000D01*
X86753009Y-111270500D01*
X86753007Y-111270500D01*
X81203014Y-111270500D01*
X81203009Y-111270500D01*
X76352991Y-111270500D01*
X76250203Y-111281000D01*
X76083665Y-111336186D01*
X75934342Y-111428288D01*
X75810288Y-111552342D01*
X75718185Y-111701667D01*
X75705681Y-111739401D01*
X75672543Y-111791084D01*
X75618673Y-111820535D01*
X75557278Y-111820535D01*
X75503408Y-111791083D01*
X75470270Y-111739399D01*
X75457767Y-111701667D01*
X75449814Y-111677666D01*
X75357712Y-111528344D01*
X75357711Y-111528342D01*
X75233657Y-111404288D01*
X75084334Y-111312186D01*
X74917797Y-111257000D01*
X74815009Y-111246500D01*
X74815007Y-111246500D01*
X69265014Y-111246500D01*
X69265009Y-111246500D01*
X64414991Y-111246500D01*
X64312203Y-111257000D01*
X64145665Y-111312186D01*
X63996342Y-111404288D01*
X63872288Y-111528342D01*
X63780186Y-111677663D01*
X63762270Y-111731731D01*
X63758315Y-111743667D01*
X63754228Y-111756001D01*
X63725000Y-111844204D01*
X63714500Y-111946993D01*
X63714500Y-120947008D01*
X62490592Y-120947008D01*
X62495310Y-108588008D01*
X63823500Y-108588008D01*
X63834000Y-108690796D01*
X63889186Y-108857334D01*
X63981288Y-109006657D01*
X64105342Y-109130711D01*
X64134872Y-109148925D01*
X64254666Y-109222814D01*
X64360458Y-109257870D01*
X64421202Y-109277999D01*
X64430729Y-109278972D01*
X64523991Y-109288500D01*
X64896663Y-109288499D01*
X64944116Y-109297938D01*
X64984344Y-109324818D01*
X66006036Y-110346510D01*
X66019384Y-110363169D01*
X66072303Y-110412864D01*
X66075100Y-110415575D01*
X66095433Y-110435908D01*
X66098914Y-110438608D01*
X66107797Y-110446194D01*
X66141079Y-110477448D01*
X66146067Y-110480190D01*
X66159676Y-110487672D01*
X66175936Y-110498352D01*
X66192708Y-110511362D01*
X66234612Y-110529495D01*
X66245092Y-110534629D01*
X66285104Y-110556627D01*
X66305667Y-110561906D01*
X66324070Y-110568207D01*
X66343545Y-110576635D01*
X66388647Y-110583778D01*
X66400042Y-110586137D01*
X66444295Y-110597500D01*
X66465523Y-110597500D01*
X66484921Y-110599026D01*
X66505877Y-110602346D01*
X66551323Y-110598050D01*
X66562993Y-110597500D01*
X72847495Y-110597500D01*
X72868704Y-110599841D01*
X72871294Y-110599759D01*
X72871296Y-110599760D01*
X72941262Y-110597560D01*
X72945157Y-110597500D01*
X72973920Y-110597500D01*
X72973925Y-110597500D01*
X72978302Y-110596946D01*
X72989941Y-110596030D01*
X73035569Y-110594597D01*
X73055949Y-110588675D01*
X73074989Y-110584732D01*
X73096058Y-110582071D01*
X73138520Y-110565258D01*
X73149557Y-110561480D01*
X73193398Y-110548744D01*
X73211670Y-110537936D01*
X73229136Y-110529380D01*
X73248871Y-110521568D01*
X73285816Y-110494725D01*
X73295548Y-110488332D01*
X73334865Y-110465081D01*
X73349874Y-110450071D01*
X73364663Y-110437439D01*
X73381837Y-110424963D01*
X73410946Y-110389774D01*
X73418790Y-110381154D01*
X74567510Y-109232433D01*
X74584164Y-109219092D01*
X74585937Y-109217203D01*
X74585940Y-109217202D01*
X74633913Y-109166114D01*
X74636561Y-109163382D01*
X74656911Y-109143034D01*
X74659615Y-109139546D01*
X74667184Y-109130684D01*
X74698448Y-109097393D01*
X74708217Y-109079621D01*
X74737557Y-109044048D01*
X74777869Y-109021655D01*
X74937334Y-108968814D01*
X75086656Y-108876712D01*
X75210712Y-108752656D01*
X75302814Y-108603334D01*
X75357999Y-108436797D01*
X75368500Y-108334009D01*
X75368499Y-107846228D01*
X75377938Y-107798776D01*
X75404816Y-107758550D01*
X75549820Y-107613546D01*
X75599182Y-107583297D01*
X75656898Y-107578755D01*
X75710385Y-107600910D01*
X75747985Y-107644933D01*
X75761500Y-107701228D01*
X75761500Y-108318008D01*
X75772000Y-108420796D01*
X75827186Y-108587334D01*
X75919288Y-108736657D01*
X76043342Y-108860711D01*
X76069284Y-108876712D01*
X76192666Y-108952814D01*
X76304017Y-108989712D01*
X76359202Y-109007999D01*
X76369702Y-109009071D01*
X76461991Y-109018500D01*
X76540663Y-109018499D01*
X76588115Y-109027938D01*
X76628344Y-109054818D01*
X77944036Y-110370510D01*
X77957384Y-110387169D01*
X78010303Y-110436864D01*
X78013100Y-110439575D01*
X78033433Y-110459908D01*
X78036914Y-110462608D01*
X78045797Y-110470194D01*
X78079079Y-110501448D01*
X78089723Y-110507299D01*
X78097676Y-110511672D01*
X78113936Y-110522352D01*
X78130708Y-110535362D01*
X78172612Y-110553495D01*
X78183092Y-110558629D01*
X78223104Y-110580627D01*
X78243667Y-110585906D01*
X78262070Y-110592207D01*
X78281545Y-110600635D01*
X78326647Y-110607778D01*
X78338042Y-110610137D01*
X78382295Y-110621500D01*
X78403523Y-110621500D01*
X78422921Y-110623026D01*
X78443877Y-110626346D01*
X78489323Y-110622050D01*
X78500993Y-110621500D01*
X84556023Y-110621500D01*
X84577232Y-110623841D01*
X84579822Y-110623759D01*
X84579824Y-110623760D01*
X84649790Y-110621560D01*
X84653685Y-110621500D01*
X84682448Y-110621500D01*
X84682453Y-110621500D01*
X84686830Y-110620946D01*
X84698469Y-110620030D01*
X84744097Y-110618597D01*
X84764477Y-110612675D01*
X84783517Y-110608732D01*
X84804586Y-110606071D01*
X84847048Y-110589258D01*
X84858085Y-110585480D01*
X84901926Y-110572744D01*
X84920198Y-110561936D01*
X84937664Y-110553380D01*
X84957399Y-110545568D01*
X84994344Y-110518725D01*
X85004076Y-110512332D01*
X85043393Y-110489081D01*
X85058402Y-110474071D01*
X85073191Y-110461439D01*
X85090365Y-110448963D01*
X85119474Y-110413774D01*
X85127318Y-110405154D01*
X86461655Y-109070817D01*
X86501883Y-109043938D01*
X86549336Y-109034499D01*
X86606009Y-109034499D01*
X86678440Y-109027100D01*
X86708797Y-109023999D01*
X86875334Y-108968814D01*
X87024656Y-108876712D01*
X87148712Y-108752656D01*
X87240814Y-108603334D01*
X87295999Y-108436797D01*
X87306500Y-108334009D01*
X87306499Y-107846228D01*
X87315938Y-107798776D01*
X87342815Y-107758551D01*
X87487821Y-107613545D01*
X87537182Y-107583297D01*
X87594898Y-107578755D01*
X87648385Y-107600910D01*
X87685985Y-107644933D01*
X87699500Y-107701228D01*
X87699500Y-108350008D01*
X87710000Y-108452796D01*
X87765186Y-108619334D01*
X87857288Y-108768657D01*
X87981342Y-108892711D01*
X87981344Y-108892712D01*
X88130666Y-108984814D01*
X88241839Y-109021653D01*
X88297202Y-109039999D01*
X88306729Y-109040972D01*
X88399991Y-109050500D01*
X88534663Y-109050499D01*
X88582115Y-109059938D01*
X88622344Y-109086818D01*
X89882036Y-110346510D01*
X89895384Y-110363169D01*
X89948303Y-110412864D01*
X89951100Y-110415575D01*
X89971433Y-110435908D01*
X89974914Y-110438608D01*
X89983797Y-110446194D01*
X90017079Y-110477448D01*
X90022067Y-110480190D01*
X90035676Y-110487672D01*
X90051936Y-110498352D01*
X90068708Y-110511362D01*
X90110612Y-110529495D01*
X90121092Y-110534629D01*
X90161104Y-110556627D01*
X90181667Y-110561906D01*
X90200070Y-110568207D01*
X90219545Y-110576635D01*
X90264647Y-110583778D01*
X90276042Y-110586137D01*
X90320295Y-110597500D01*
X90341523Y-110597500D01*
X90360921Y-110599026D01*
X90381877Y-110602346D01*
X90427323Y-110598050D01*
X90438993Y-110597500D01*
X94334475Y-110597500D01*
X94396474Y-110614112D01*
X94411914Y-110623027D01*
X94433535Y-110635510D01*
X94442719Y-110640812D01*
X94610790Y-110691130D01*
X94777250Y-110700825D01*
X94785934Y-110701331D01*
X94785934Y-110701330D01*
X94785935Y-110701331D01*
X94958711Y-110670865D01*
X95105283Y-110607640D01*
X95154395Y-110597500D01*
X96494023Y-110597500D01*
X96515232Y-110599841D01*
X96517822Y-110599759D01*
X96517824Y-110599760D01*
X96587790Y-110597560D01*
X96591685Y-110597500D01*
X96620448Y-110597500D01*
X96620453Y-110597500D01*
X96624830Y-110596946D01*
X96636469Y-110596030D01*
X96682097Y-110594597D01*
X96702477Y-110588675D01*
X96721517Y-110584732D01*
X96742586Y-110582071D01*
X96785048Y-110565258D01*
X96796085Y-110561480D01*
X96839926Y-110548744D01*
X96858198Y-110537936D01*
X96875664Y-110529380D01*
X96895399Y-110521568D01*
X96932344Y-110494725D01*
X96942076Y-110488332D01*
X96981393Y-110465081D01*
X96996402Y-110450071D01*
X97011191Y-110437439D01*
X97028365Y-110424963D01*
X97057474Y-110389774D01*
X97065318Y-110381154D01*
X98359655Y-109086818D01*
X98399883Y-109059938D01*
X98447336Y-109050499D01*
X98544009Y-109050499D01*
X98595402Y-109045249D01*
X98646797Y-109039999D01*
X98813334Y-108984814D01*
X98962656Y-108892712D01*
X99086712Y-108768656D01*
X99178814Y-108619334D01*
X99233999Y-108452797D01*
X99244500Y-108350009D01*
X99244499Y-107717227D01*
X99258014Y-107660933D01*
X99295614Y-107616910D01*
X99349101Y-107594755D01*
X99406817Y-107599297D01*
X99456180Y-107629547D01*
X99601181Y-107774548D01*
X99628061Y-107814776D01*
X99637500Y-107862229D01*
X99637500Y-108350008D01*
X99648000Y-108452796D01*
X99703186Y-108619334D01*
X99795288Y-108768657D01*
X99919342Y-108892711D01*
X99919344Y-108892712D01*
X100068666Y-108984814D01*
X100179839Y-109021653D01*
X100235202Y-109039999D01*
X100244729Y-109040972D01*
X100337991Y-109050500D01*
X100453663Y-109050499D01*
X100501115Y-109059938D01*
X100541344Y-109086818D01*
X101801036Y-110346510D01*
X101814384Y-110363169D01*
X101867303Y-110412864D01*
X101870100Y-110415575D01*
X101890433Y-110435908D01*
X101893914Y-110438608D01*
X101902797Y-110446194D01*
X101936079Y-110477448D01*
X101941067Y-110480190D01*
X101954676Y-110487672D01*
X101970936Y-110498352D01*
X101987708Y-110511362D01*
X102029612Y-110529495D01*
X102040092Y-110534629D01*
X102080104Y-110556627D01*
X102100667Y-110561906D01*
X102119070Y-110568207D01*
X102138545Y-110576635D01*
X102183647Y-110583778D01*
X102195042Y-110586137D01*
X102239295Y-110597500D01*
X102260523Y-110597500D01*
X102279921Y-110599026D01*
X102300877Y-110602346D01*
X102346323Y-110598050D01*
X102357993Y-110597500D01*
X108413023Y-110597500D01*
X108434232Y-110599841D01*
X108436822Y-110599759D01*
X108436824Y-110599760D01*
X108506790Y-110597560D01*
X108510685Y-110597500D01*
X108539448Y-110597500D01*
X108539453Y-110597500D01*
X108543830Y-110596946D01*
X108555469Y-110596030D01*
X108601097Y-110594597D01*
X108621477Y-110588675D01*
X108640517Y-110584732D01*
X108661586Y-110582071D01*
X108704048Y-110565258D01*
X108715085Y-110561480D01*
X108758926Y-110548744D01*
X108777198Y-110537936D01*
X108794664Y-110529380D01*
X108814399Y-110521568D01*
X108851344Y-110494725D01*
X108861076Y-110488332D01*
X108900393Y-110465081D01*
X108915402Y-110450071D01*
X108930191Y-110437439D01*
X108947365Y-110424963D01*
X108976474Y-110389774D01*
X108984318Y-110381154D01*
X110278655Y-109086818D01*
X110318883Y-109059938D01*
X110366336Y-109050499D01*
X110482009Y-109050499D01*
X110533402Y-109045249D01*
X110584797Y-109039999D01*
X110751334Y-108984814D01*
X110900656Y-108892712D01*
X111024712Y-108768656D01*
X111116814Y-108619334D01*
X111171999Y-108452797D01*
X111182500Y-108350009D01*
X111182499Y-107717227D01*
X111196014Y-107660933D01*
X111233614Y-107616910D01*
X111287101Y-107594755D01*
X111344817Y-107599297D01*
X111394180Y-107629547D01*
X111539181Y-107774548D01*
X111566061Y-107814776D01*
X111575500Y-107862229D01*
X111575500Y-108350008D01*
X111586000Y-108452796D01*
X111641186Y-108619334D01*
X111733288Y-108768657D01*
X111857342Y-108892711D01*
X111857344Y-108892712D01*
X112006666Y-108984814D01*
X112117839Y-109021653D01*
X112173202Y-109039999D01*
X112184897Y-109041193D01*
X112275991Y-109050500D01*
X112306663Y-109050499D01*
X112354114Y-109059937D01*
X112394344Y-109086818D01*
X113720036Y-110412510D01*
X113733384Y-110429169D01*
X113786303Y-110478864D01*
X113789100Y-110481575D01*
X113809433Y-110501908D01*
X113812914Y-110504608D01*
X113821797Y-110512194D01*
X113855079Y-110543448D01*
X113864713Y-110548744D01*
X113873676Y-110553672D01*
X113889936Y-110564352D01*
X113906708Y-110577362D01*
X113948608Y-110595493D01*
X113959092Y-110600629D01*
X113999104Y-110622627D01*
X114019667Y-110627906D01*
X114038070Y-110634207D01*
X114057545Y-110642635D01*
X114102647Y-110649778D01*
X114114042Y-110652137D01*
X114158295Y-110663500D01*
X114179523Y-110663500D01*
X114198921Y-110665026D01*
X114219877Y-110668346D01*
X114265323Y-110664050D01*
X114276993Y-110663500D01*
X120533495Y-110663500D01*
X120554704Y-110665841D01*
X120557294Y-110665759D01*
X120557296Y-110665760D01*
X120627262Y-110663560D01*
X120631157Y-110663500D01*
X120659920Y-110663500D01*
X120659925Y-110663500D01*
X120664302Y-110662946D01*
X120675941Y-110662030D01*
X120721569Y-110660597D01*
X120741949Y-110654675D01*
X120760989Y-110650732D01*
X120782058Y-110648071D01*
X120824520Y-110631258D01*
X120835557Y-110627480D01*
X120879398Y-110614744D01*
X120897670Y-110603936D01*
X120915136Y-110595380D01*
X120934871Y-110587568D01*
X120971816Y-110560725D01*
X120981548Y-110554332D01*
X121020865Y-110531081D01*
X121035874Y-110516071D01*
X121050663Y-110503439D01*
X121067837Y-110490963D01*
X121096946Y-110455774D01*
X121104790Y-110447154D01*
X122319513Y-109232431D01*
X122336162Y-109219094D01*
X122337936Y-109217204D01*
X122337940Y-109217202D01*
X122385898Y-109166130D01*
X122388546Y-109163398D01*
X122408911Y-109143035D01*
X122411611Y-109139552D01*
X122419187Y-109130681D01*
X122450448Y-109097393D01*
X122460670Y-109078796D01*
X122471356Y-109062530D01*
X122473367Y-109059938D01*
X122484363Y-109045763D01*
X122484363Y-109045762D01*
X122487358Y-109041902D01*
X122513740Y-109016662D01*
X122546324Y-109000202D01*
X122689334Y-108952814D01*
X122838656Y-108860712D01*
X122962712Y-108736656D01*
X123054814Y-108587334D01*
X123109999Y-108420797D01*
X123120500Y-108318009D01*
X123120499Y-107717226D01*
X123134014Y-107660933D01*
X123171614Y-107616910D01*
X123225101Y-107594755D01*
X123282817Y-107599297D01*
X123332180Y-107629547D01*
X123477181Y-107774548D01*
X123504061Y-107814776D01*
X123513500Y-107862229D01*
X123513500Y-108350008D01*
X123524000Y-108452796D01*
X123579186Y-108619334D01*
X123671288Y-108768657D01*
X123795342Y-108892711D01*
X123795344Y-108892712D01*
X123944666Y-108984814D01*
X124055839Y-109021653D01*
X124111202Y-109039999D01*
X124124399Y-109041347D01*
X124213991Y-109050500D01*
X124225660Y-109050499D01*
X124273113Y-109059937D01*
X124313344Y-109086818D01*
X125639036Y-110412510D01*
X125652384Y-110429169D01*
X125705303Y-110478864D01*
X125708100Y-110481575D01*
X125728433Y-110501908D01*
X125731914Y-110504608D01*
X125740800Y-110512197D01*
X125774079Y-110543448D01*
X125792678Y-110553673D01*
X125808938Y-110564354D01*
X125825708Y-110577362D01*
X125836588Y-110582070D01*
X125867601Y-110595491D01*
X125878092Y-110600630D01*
X125918104Y-110622627D01*
X125938668Y-110627906D01*
X125957073Y-110634208D01*
X125976546Y-110642635D01*
X126021646Y-110649778D01*
X126033053Y-110652140D01*
X126077295Y-110663500D01*
X126098523Y-110663500D01*
X126117921Y-110665026D01*
X126138877Y-110668346D01*
X126184323Y-110664050D01*
X126195993Y-110663500D01*
X132251023Y-110663500D01*
X132272232Y-110665841D01*
X132274822Y-110665759D01*
X132274824Y-110665760D01*
X132344790Y-110663560D01*
X132348685Y-110663500D01*
X132377448Y-110663500D01*
X132377453Y-110663500D01*
X132381830Y-110662946D01*
X132393469Y-110662030D01*
X132439097Y-110660597D01*
X132459477Y-110654675D01*
X132478517Y-110650732D01*
X132499586Y-110648071D01*
X132542048Y-110631258D01*
X132553085Y-110627480D01*
X132596926Y-110614744D01*
X132615198Y-110603936D01*
X132632664Y-110595380D01*
X132652399Y-110587568D01*
X132689344Y-110560725D01*
X132699076Y-110554332D01*
X132738393Y-110531081D01*
X132753402Y-110516071D01*
X132768191Y-110503439D01*
X132785365Y-110490963D01*
X132814474Y-110455774D01*
X132822318Y-110447154D01*
X134182655Y-109086818D01*
X134222883Y-109059938D01*
X134270336Y-109050499D01*
X134358009Y-109050499D01*
X134409402Y-109045249D01*
X134460797Y-109039999D01*
X134627334Y-108984814D01*
X134776656Y-108892712D01*
X134900712Y-108768656D01*
X134992814Y-108619334D01*
X135047999Y-108452797D01*
X135058500Y-108350009D01*
X135058499Y-107717227D01*
X135072014Y-107660933D01*
X135109614Y-107616910D01*
X135163101Y-107594755D01*
X135220817Y-107599297D01*
X135270180Y-107629547D01*
X135415181Y-107774548D01*
X135442061Y-107814776D01*
X135451500Y-107862229D01*
X135451500Y-108350008D01*
X135462000Y-108452796D01*
X135517186Y-108619334D01*
X135609288Y-108768657D01*
X135733342Y-108892711D01*
X135733344Y-108892712D01*
X135882666Y-108984814D01*
X135993839Y-109021653D01*
X136049202Y-109039999D01*
X136057795Y-109040876D01*
X136134376Y-109048700D01*
X136169656Y-109057677D01*
X136200810Y-109076513D01*
X136204574Y-109079627D01*
X136209217Y-109083468D01*
X136217854Y-109091328D01*
X137762036Y-110635510D01*
X137775384Y-110652169D01*
X137828303Y-110701864D01*
X137831100Y-110704575D01*
X137851434Y-110724909D01*
X137854915Y-110727609D01*
X137863798Y-110735195D01*
X137897079Y-110766448D01*
X137915670Y-110776668D01*
X137931934Y-110787351D01*
X137948707Y-110800362D01*
X137990610Y-110818495D01*
X138001098Y-110823633D01*
X138041104Y-110845627D01*
X138061669Y-110850906D01*
X138080065Y-110857205D01*
X138099546Y-110865636D01*
X138144650Y-110872779D01*
X138156069Y-110875144D01*
X138200295Y-110886500D01*
X138221517Y-110886500D01*
X138240915Y-110888026D01*
X138261877Y-110891347D01*
X138307335Y-110887049D01*
X138319003Y-110886500D01*
X143928023Y-110886500D01*
X143949232Y-110888841D01*
X143951822Y-110888759D01*
X143951824Y-110888760D01*
X144021790Y-110886560D01*
X144025685Y-110886500D01*
X144054448Y-110886500D01*
X144054453Y-110886500D01*
X144058830Y-110885946D01*
X144070469Y-110885030D01*
X144116097Y-110883597D01*
X144136477Y-110877675D01*
X144155517Y-110873732D01*
X144176586Y-110871071D01*
X144219048Y-110854258D01*
X144230085Y-110850480D01*
X144273926Y-110837744D01*
X144292198Y-110826936D01*
X144309664Y-110818380D01*
X144329399Y-110810568D01*
X144366344Y-110783725D01*
X144376076Y-110777332D01*
X144415393Y-110754081D01*
X144430402Y-110739071D01*
X144445191Y-110726439D01*
X144462365Y-110713963D01*
X144491474Y-110678774D01*
X144499318Y-110670154D01*
X146082655Y-109086818D01*
X146122883Y-109059938D01*
X146170336Y-109050499D01*
X146296009Y-109050499D01*
X146347402Y-109045249D01*
X146398797Y-109039999D01*
X146565334Y-108984814D01*
X146714656Y-108892712D01*
X146838712Y-108768656D01*
X146930814Y-108619334D01*
X146985999Y-108452797D01*
X146996500Y-108350009D01*
X146996499Y-107717227D01*
X147010014Y-107660933D01*
X147047614Y-107616910D01*
X147101101Y-107594755D01*
X147158817Y-107599297D01*
X147208180Y-107629547D01*
X147353181Y-107774548D01*
X147380061Y-107814776D01*
X147389500Y-107862229D01*
X147389500Y-108350008D01*
X147400000Y-108452796D01*
X147455186Y-108619334D01*
X147547288Y-108768657D01*
X147671342Y-108892711D01*
X147671344Y-108892712D01*
X147820666Y-108984814D01*
X147987203Y-109039999D01*
X148025809Y-109043942D01*
X148075053Y-109059823D01*
X148102145Y-109084182D01*
X148147212Y-109121464D01*
X148155854Y-109129328D01*
X149439036Y-110412510D01*
X149452384Y-110429169D01*
X149505303Y-110478864D01*
X149508100Y-110481575D01*
X149528433Y-110501908D01*
X149531914Y-110504608D01*
X149540797Y-110512194D01*
X149574079Y-110543448D01*
X149592671Y-110553669D01*
X149608934Y-110564352D01*
X149625706Y-110577362D01*
X149625707Y-110577362D01*
X149625708Y-110577363D01*
X149667619Y-110595499D01*
X149678100Y-110600634D01*
X149718104Y-110622627D01*
X149738651Y-110627902D01*
X149738655Y-110627903D01*
X149757066Y-110634206D01*
X149776546Y-110642636D01*
X149821650Y-110649779D01*
X149833069Y-110652144D01*
X149877295Y-110663500D01*
X149898517Y-110663500D01*
X149917915Y-110665026D01*
X149938877Y-110668347D01*
X149980791Y-110664384D01*
X149984333Y-110664050D01*
X149996002Y-110663500D01*
X156347495Y-110663500D01*
X156368704Y-110665841D01*
X156371294Y-110665759D01*
X156371296Y-110665760D01*
X156441262Y-110663560D01*
X156445157Y-110663500D01*
X156473920Y-110663500D01*
X156473925Y-110663500D01*
X156478302Y-110662946D01*
X156489941Y-110662030D01*
X156535569Y-110660597D01*
X156555949Y-110654675D01*
X156574989Y-110650732D01*
X156596058Y-110648071D01*
X156638520Y-110631258D01*
X156649557Y-110627480D01*
X156693398Y-110614744D01*
X156711670Y-110603936D01*
X156729136Y-110595380D01*
X156748871Y-110587568D01*
X156785816Y-110560725D01*
X156795548Y-110554332D01*
X156834865Y-110531081D01*
X156849874Y-110516071D01*
X156864663Y-110503439D01*
X156881837Y-110490963D01*
X156910946Y-110455774D01*
X156918790Y-110447154D01*
X157879513Y-109486431D01*
X157896162Y-109473094D01*
X157897936Y-109471204D01*
X157897940Y-109471202D01*
X157945898Y-109420130D01*
X157948546Y-109417398D01*
X157968912Y-109397034D01*
X157971612Y-109393551D01*
X157979188Y-109384680D01*
X158010448Y-109351393D01*
X158020672Y-109332793D01*
X158031351Y-109316536D01*
X158044363Y-109299763D01*
X158062498Y-109257852D01*
X158067633Y-109247374D01*
X158089626Y-109207370D01*
X158094903Y-109186815D01*
X158101208Y-109168399D01*
X158109636Y-109148926D01*
X158116778Y-109103824D01*
X158119148Y-109092386D01*
X158119154Y-109092365D01*
X158120395Y-109087529D01*
X158149861Y-109033750D01*
X158201491Y-109000667D01*
X158249334Y-108984814D01*
X158398656Y-108892712D01*
X158522712Y-108768656D01*
X158614814Y-108619334D01*
X158669999Y-108452797D01*
X158680500Y-108350009D01*
X158680499Y-107549992D01*
X158669999Y-107447203D01*
X158614814Y-107280666D01*
X158522712Y-107131344D01*
X158429047Y-107037679D01*
X158396955Y-106982094D01*
X158396955Y-106917906D01*
X158429047Y-106862320D01*
X158522712Y-106768656D01*
X158614814Y-106619334D01*
X158669999Y-106452797D01*
X158680500Y-106350009D01*
X158680499Y-105549992D01*
X158673707Y-105483507D01*
X158669999Y-105447203D01*
X158654614Y-105400774D01*
X158614814Y-105280666D01*
X158552843Y-105180195D01*
X158522711Y-105131342D01*
X158398657Y-105007288D01*
X158249334Y-104915186D01*
X158082797Y-104860000D01*
X157980009Y-104849500D01*
X156979991Y-104849500D01*
X156877203Y-104860000D01*
X156710663Y-104915187D01*
X156681275Y-104933313D01*
X156619784Y-104951721D01*
X156557328Y-104936917D01*
X156510642Y-104892869D01*
X156506419Y-104886023D01*
X156492560Y-104863553D01*
X156480711Y-104844342D01*
X156356657Y-104720288D01*
X156207334Y-104628186D01*
X156040797Y-104573000D01*
X155947535Y-104563473D01*
X155938008Y-104562500D01*
X155237991Y-104562500D01*
X155135203Y-104573000D01*
X154968665Y-104628186D01*
X154819342Y-104720288D01*
X154695288Y-104844342D01*
X154603186Y-104993665D01*
X154548000Y-105160202D01*
X154539268Y-105245683D01*
X154537500Y-105262991D01*
X154537500Y-107280666D01*
X154537501Y-109238500D01*
X154520888Y-109300500D01*
X154475501Y-109345887D01*
X154413501Y-109362500D01*
X151682000Y-109362500D01*
X151620000Y-109345887D01*
X151574613Y-109300500D01*
X151558000Y-109238500D01*
X151558000Y-107863000D01*
X150132000Y-107863000D01*
X150070000Y-107846387D01*
X150024613Y-107801000D01*
X150008000Y-107739000D01*
X150008000Y-104589169D01*
X151008000Y-104589169D01*
X151008000Y-106863000D01*
X151557999Y-106863000D01*
X151557999Y-105263021D01*
X151547506Y-105160304D01*
X151492357Y-104993877D01*
X151400316Y-104844654D01*
X151276345Y-104720683D01*
X151127122Y-104628642D01*
X151008000Y-104589169D01*
X150008000Y-104589169D01*
X149888877Y-104628642D01*
X149739654Y-104720683D01*
X149615681Y-104844656D01*
X149578353Y-104905175D01*
X149531665Y-104949223D01*
X149469209Y-104964026D01*
X149407718Y-104945617D01*
X149359120Y-104915641D01*
X149192696Y-104860493D01*
X149090000Y-104850002D01*
X149090000Y-106326000D01*
X149073387Y-106388000D01*
X149028000Y-106433387D01*
X148966000Y-106450000D01*
X148314500Y-106450000D01*
X148252500Y-106433387D01*
X148207113Y-106388000D01*
X148190500Y-106326000D01*
X148190500Y-105867757D01*
X148191809Y-105849787D01*
X148192338Y-105846169D01*
X148195289Y-105826028D01*
X148190972Y-105776682D01*
X148190500Y-105765878D01*
X148190500Y-105760342D01*
X148186903Y-105729572D01*
X148186897Y-105729522D01*
X148186534Y-105725966D01*
X148179888Y-105649993D01*
X148175673Y-105630981D01*
X148149577Y-105559285D01*
X148148414Y-105555941D01*
X148124813Y-105484716D01*
X148124810Y-105484711D01*
X148124411Y-105483507D01*
X148115928Y-105465984D01*
X148110400Y-105457579D01*
X148095209Y-105425004D01*
X148090000Y-105389440D01*
X148090000Y-104850003D01*
X148089999Y-104850002D01*
X147987304Y-104860493D01*
X147820878Y-104915642D01*
X147775725Y-104943492D01*
X147723829Y-104961248D01*
X147669351Y-104954879D01*
X147622949Y-104925633D01*
X146689486Y-103992170D01*
X145424677Y-102727360D01*
X145412895Y-102713727D01*
X145404095Y-102701907D01*
X145398559Y-102694470D01*
X145360616Y-102662631D01*
X145352640Y-102655323D01*
X145348731Y-102651414D01*
X145348726Y-102651409D01*
X145324372Y-102632152D01*
X145321596Y-102629890D01*
X145253062Y-102572383D01*
X145254755Y-102570364D01*
X145222618Y-102541427D01*
X145203081Y-102478825D01*
X145218206Y-102415014D01*
X145263761Y-102367841D01*
X145327006Y-102350500D01*
X145732294Y-102350500D01*
X145750264Y-102351809D01*
X145754320Y-102352402D01*
X145774023Y-102355289D01*
X145823368Y-102350972D01*
X145834176Y-102350500D01*
X145839706Y-102350500D01*
X145839709Y-102350500D01*
X145870550Y-102346894D01*
X145874031Y-102346539D01*
X145948797Y-102339999D01*
X145948797Y-102339998D01*
X145950052Y-102339889D01*
X145969062Y-102335674D01*
X145970250Y-102335241D01*
X145970255Y-102335241D01*
X146040820Y-102309557D01*
X146044095Y-102308419D01*
X146115334Y-102284814D01*
X146115336Y-102284812D01*
X146116536Y-102284415D01*
X146134063Y-102275929D01*
X146135112Y-102275238D01*
X146135117Y-102275237D01*
X146197806Y-102234005D01*
X146200798Y-102232099D01*
X146264656Y-102192712D01*
X146264656Y-102192711D01*
X146265729Y-102192050D01*
X146280824Y-102179753D01*
X146281692Y-102178832D01*
X146281696Y-102178830D01*
X146333188Y-102124250D01*
X146335634Y-102121732D01*
X146535641Y-101921724D01*
X146549260Y-101909954D01*
X146568530Y-101895610D01*
X146600380Y-101857651D01*
X146607668Y-101849697D01*
X146611590Y-101845777D01*
X146630863Y-101821399D01*
X146633030Y-101818739D01*
X146681302Y-101761214D01*
X146681303Y-101761210D01*
X146682119Y-101760239D01*
X146692575Y-101743825D01*
X146693109Y-101742679D01*
X146693111Y-101742677D01*
X146724816Y-101674682D01*
X146726369Y-101671475D01*
X146760040Y-101604433D01*
X146760040Y-101604429D01*
X146760610Y-101603296D01*
X146766999Y-101584917D01*
X146771685Y-101562222D01*
X146782431Y-101510171D01*
X146783186Y-101506767D01*
X146800500Y-101433721D01*
X146800500Y-101433719D01*
X146800790Y-101432495D01*
X146802769Y-101413123D01*
X146802732Y-101411859D01*
X146802733Y-101411856D01*
X146800552Y-101336889D01*
X146800500Y-101333284D01*
X146800500Y-97877701D01*
X146814511Y-97820444D01*
X146853374Y-97776127D01*
X146921401Y-97728495D01*
X147088495Y-97561401D01*
X147218732Y-97375402D01*
X147263048Y-97336539D01*
X147320305Y-97322528D01*
X147377562Y-97336539D01*
X147421880Y-97375404D01*
X147551893Y-97561081D01*
X147718918Y-97728106D01*
X147912423Y-97863600D01*
X148089999Y-97946406D01*
X148090000Y-97946407D01*
X148090000Y-97190000D01*
X149090000Y-97190000D01*
X149090000Y-97946406D01*
X149267576Y-97863600D01*
X149461081Y-97728106D01*
X149628106Y-97561081D01*
X149763600Y-97367576D01*
X149846406Y-97190000D01*
X149090000Y-97190000D01*
X148090000Y-97190000D01*
X148090000Y-95433595D01*
X148089999Y-95433594D01*
X147912421Y-95516400D01*
X147718921Y-95651890D01*
X147551893Y-95818918D01*
X147421880Y-96004596D01*
X147377562Y-96043461D01*
X147320305Y-96057472D01*
X147263048Y-96043461D01*
X147218730Y-96004595D01*
X147149347Y-95905505D01*
X147088495Y-95818599D01*
X146921401Y-95651505D01*
X146727830Y-95515965D01*
X146551183Y-95433593D01*
X149090000Y-95433593D01*
X149090000Y-96190000D01*
X149846406Y-96190000D01*
X149846405Y-96189999D01*
X149763599Y-96012421D01*
X149628109Y-95818921D01*
X149461081Y-95651893D01*
X149267576Y-95516399D01*
X149090000Y-95433593D01*
X146551183Y-95433593D01*
X146513663Y-95416097D01*
X146417812Y-95390414D01*
X146285407Y-95354936D01*
X146049999Y-95334340D01*
X145836985Y-95352977D01*
X145783768Y-95345971D01*
X145738497Y-95317130D01*
X145485131Y-95063764D01*
X152145787Y-95063764D01*
X152175413Y-95333016D01*
X152201708Y-95433593D01*
X152243928Y-95595088D01*
X152318243Y-95769965D01*
X152349871Y-95844392D01*
X152490982Y-96075611D01*
X152649567Y-96266171D01*
X152664255Y-96283820D01*
X152865998Y-96464582D01*
X153091910Y-96614044D01*
X153131274Y-96632497D01*
X153337177Y-96729021D01*
X153546096Y-96791875D01*
X153596569Y-96807060D01*
X153864561Y-96846500D01*
X154067631Y-96846500D01*
X154067634Y-96846500D01*
X154270156Y-96831677D01*
X154270155Y-96831677D01*
X154534553Y-96772780D01*
X154787558Y-96676014D01*
X155023777Y-96543441D01*
X155238177Y-96377888D01*
X155426186Y-96182881D01*
X155583799Y-95962579D01*
X155707656Y-95721675D01*
X155795118Y-95465305D01*
X155844319Y-95198933D01*
X155854212Y-94928235D01*
X155824586Y-94658982D01*
X155756072Y-94396912D01*
X155650130Y-94147610D01*
X155509018Y-93916390D01*
X155509017Y-93916388D01*
X155335746Y-93708181D01*
X155230758Y-93614112D01*
X155134002Y-93527418D01*
X154908090Y-93377956D01*
X154882511Y-93365965D01*
X154662822Y-93262978D01*
X154403437Y-93184941D01*
X154403431Y-93184940D01*
X154135439Y-93145500D01*
X153932369Y-93145500D01*
X153932366Y-93145500D01*
X153729843Y-93160322D01*
X153465449Y-93219219D01*
X153212441Y-93315986D01*
X152976223Y-93448559D01*
X152761825Y-93614109D01*
X152573813Y-93809120D01*
X152416201Y-94029420D01*
X152292342Y-94270329D01*
X152204881Y-94526695D01*
X152155680Y-94793066D01*
X152145787Y-95063764D01*
X145485131Y-95063764D01*
X140960728Y-90539360D01*
X140948946Y-90525727D01*
X140934609Y-90506469D01*
X140896666Y-90474631D01*
X140888691Y-90467323D01*
X140884782Y-90463414D01*
X140884777Y-90463409D01*
X140860423Y-90444152D01*
X140857647Y-90441890D01*
X140799251Y-90392890D01*
X140782821Y-90382422D01*
X140713691Y-90350186D01*
X140710447Y-90348615D01*
X140642306Y-90314394D01*
X140623903Y-90307997D01*
X140549211Y-90292574D01*
X140545692Y-90291794D01*
X140471490Y-90274208D01*
X140452121Y-90272229D01*
X140375869Y-90274448D01*
X140372263Y-90274500D01*
X83198706Y-90274500D01*
X83180736Y-90273191D01*
X83166853Y-90271157D01*
X83156977Y-90269711D01*
X83156976Y-90269711D01*
X83107631Y-90274028D01*
X83096824Y-90274500D01*
X83091291Y-90274500D01*
X83060501Y-90278098D01*
X83056917Y-90278464D01*
X82980961Y-90285109D01*
X82961921Y-90289330D01*
X82890232Y-90315421D01*
X82886831Y-90316603D01*
X82814479Y-90340579D01*
X82796925Y-90349077D01*
X82733228Y-90390970D01*
X82730190Y-90392905D01*
X82665281Y-90432943D01*
X82650164Y-90445256D01*
X82597848Y-90500708D01*
X82595336Y-90503294D01*
X77527500Y-95571130D01*
X77482229Y-95599971D01*
X77429011Y-95606977D01*
X77215999Y-95588340D01*
X76980592Y-95608936D01*
X76752336Y-95670097D01*
X76538170Y-95769965D01*
X76344601Y-95905503D01*
X76222285Y-96027819D01*
X76169539Y-96059114D01*
X76108246Y-96061303D01*
X76053401Y-96033850D01*
X76018422Y-95983471D01*
X75969352Y-95851911D01*
X75883188Y-95736811D01*
X75768089Y-95650647D01*
X75633375Y-95600402D01*
X75573824Y-95594000D01*
X75176000Y-95594000D01*
X75176000Y-98294000D01*
X75573824Y-98294000D01*
X75633375Y-98287597D01*
X75768089Y-98237352D01*
X75883188Y-98151188D01*
X75969352Y-98036089D01*
X76018422Y-97904528D01*
X76053401Y-97854149D01*
X76108246Y-97826696D01*
X76169539Y-97828885D01*
X76222285Y-97860181D01*
X76344599Y-97982495D01*
X76412625Y-98030127D01*
X76451489Y-98074444D01*
X76465500Y-98131701D01*
X76465500Y-99758294D01*
X76464191Y-99776264D01*
X76460711Y-99800023D01*
X76465028Y-99849369D01*
X76465500Y-99860176D01*
X76465500Y-99865708D01*
X76469098Y-99896496D01*
X76469464Y-99900081D01*
X76474881Y-99962000D01*
X76476110Y-99976041D01*
X76480329Y-99995071D01*
X76480758Y-99996251D01*
X76480759Y-99996255D01*
X76506413Y-100066742D01*
X76507582Y-100070107D01*
X76531580Y-100142524D01*
X76540075Y-100160072D01*
X76581979Y-100223784D01*
X76583889Y-100226782D01*
X76594411Y-100243839D01*
X76623952Y-100291732D01*
X76636253Y-100306831D01*
X76691710Y-100359152D01*
X76694297Y-100361665D01*
X77148268Y-100815635D01*
X77160044Y-100829260D01*
X77174390Y-100848530D01*
X77212355Y-100880386D01*
X77220317Y-100887684D01*
X77224224Y-100891591D01*
X77248537Y-100910815D01*
X77251337Y-100913096D01*
X77309754Y-100962115D01*
X77326165Y-100972569D01*
X77327319Y-100973107D01*
X77327323Y-100973110D01*
X77395328Y-101004821D01*
X77398451Y-101006333D01*
X77449680Y-101032061D01*
X77466704Y-101040611D01*
X77485084Y-101046998D01*
X77486321Y-101047253D01*
X77486327Y-101047256D01*
X77559862Y-101062439D01*
X77563209Y-101063181D01*
X77636279Y-101080500D01*
X77636281Y-101080500D01*
X77637505Y-101080790D01*
X77656876Y-101082769D01*
X77658140Y-101082732D01*
X77658144Y-101082733D01*
X77733110Y-101080552D01*
X77736716Y-101080500D01*
X88312770Y-101080500D01*
X88369065Y-101094015D01*
X88413088Y-101131615D01*
X88435243Y-101185102D01*
X88430701Y-101242818D01*
X88400451Y-101292181D01*
X85921343Y-103771287D01*
X85886068Y-103795987D01*
X85849225Y-103805860D01*
X85847228Y-103806522D01*
X85844500Y-103807126D01*
X85844473Y-103807134D01*
X85844463Y-103807134D01*
X85825430Y-103811354D01*
X85824249Y-103811783D01*
X85824248Y-103811784D01*
X85820842Y-103813023D01*
X85778436Y-103820500D01*
X76474706Y-103820500D01*
X76456736Y-103819191D01*
X76442853Y-103817157D01*
X76432977Y-103815711D01*
X76432976Y-103815711D01*
X76383634Y-103820028D01*
X76372827Y-103820500D01*
X76367291Y-103820500D01*
X76336483Y-103824100D01*
X76332900Y-103824466D01*
X76256950Y-103831111D01*
X76237922Y-103835329D01*
X76166270Y-103861407D01*
X76162869Y-103862589D01*
X76090480Y-103886578D01*
X76072927Y-103895076D01*
X76009236Y-103936965D01*
X76006198Y-103938901D01*
X75941277Y-103978947D01*
X75926163Y-103991258D01*
X75873832Y-104046725D01*
X75871320Y-104049311D01*
X75054593Y-104866037D01*
X74995508Y-104899014D01*
X74927908Y-104896062D01*
X74770797Y-104844000D01*
X74668009Y-104833500D01*
X73667991Y-104833500D01*
X73565203Y-104844000D01*
X73398665Y-104899186D01*
X73303965Y-104957597D01*
X73242474Y-104976006D01*
X73180017Y-104961202D01*
X73133330Y-104917154D01*
X73132397Y-104915642D01*
X73084130Y-104837388D01*
X73047711Y-104778342D01*
X72923657Y-104654288D01*
X72774334Y-104562186D01*
X72607797Y-104507000D01*
X72514535Y-104497473D01*
X72505008Y-104496500D01*
X71804991Y-104496500D01*
X71702203Y-104507000D01*
X71535665Y-104562186D01*
X71386342Y-104654288D01*
X71262288Y-104778342D01*
X71170186Y-104927665D01*
X71115000Y-105094202D01*
X71108324Y-105159556D01*
X71104500Y-105196991D01*
X71104500Y-107245288D01*
X71104501Y-109172500D01*
X71087888Y-109234500D01*
X71042501Y-109279887D01*
X70980501Y-109296500D01*
X68249000Y-109296500D01*
X68187000Y-109279887D01*
X68141613Y-109234500D01*
X68125000Y-109172500D01*
X68125000Y-107797000D01*
X66699000Y-107797000D01*
X66637000Y-107780387D01*
X66591613Y-107735000D01*
X66575000Y-107673000D01*
X66575000Y-104523169D01*
X67575000Y-104523169D01*
X67575000Y-106797000D01*
X68124999Y-106797000D01*
X68124999Y-105197021D01*
X68114506Y-105094304D01*
X68059357Y-104927877D01*
X67967316Y-104778654D01*
X67843345Y-104654683D01*
X67694122Y-104562642D01*
X67575000Y-104523169D01*
X66575000Y-104523169D01*
X66455877Y-104562642D01*
X66306654Y-104654683D01*
X66182683Y-104778654D01*
X66090642Y-104927877D01*
X66031222Y-105107195D01*
X66030699Y-105107022D01*
X66013999Y-105152137D01*
X65967010Y-105192593D01*
X65906308Y-105205241D01*
X65847071Y-105186919D01*
X65793119Y-105153641D01*
X65626696Y-105098493D01*
X65524000Y-105088002D01*
X65524000Y-106564000D01*
X65507387Y-106626000D01*
X65462000Y-106671387D01*
X65400000Y-106688000D01*
X63834219Y-106688000D01*
X63834493Y-106690695D01*
X63889642Y-106857122D01*
X63981683Y-107006345D01*
X64075303Y-107099965D01*
X64107397Y-107155552D01*
X64107397Y-107219739D01*
X64075304Y-107275327D01*
X63981287Y-107369344D01*
X63889186Y-107518665D01*
X63834000Y-107685202D01*
X63823500Y-107787990D01*
X63823500Y-108588008D01*
X62495310Y-108588008D01*
X62496417Y-105687999D01*
X63834218Y-105687999D01*
X63834219Y-105688000D01*
X64524000Y-105688000D01*
X64524000Y-105088003D01*
X64523999Y-105088002D01*
X64421304Y-105098493D01*
X64254877Y-105153642D01*
X64105654Y-105245683D01*
X63981683Y-105369654D01*
X63889642Y-105518877D01*
X63834493Y-105685304D01*
X63834218Y-105687999D01*
X62496417Y-105687999D01*
X62499564Y-97444000D01*
X73326000Y-97444000D01*
X73326000Y-97841824D01*
X73332402Y-97901375D01*
X73382647Y-98036089D01*
X73468811Y-98151188D01*
X73583910Y-98237352D01*
X73718624Y-98287597D01*
X73778176Y-98294000D01*
X74176000Y-98294000D01*
X74176000Y-97444000D01*
X73326000Y-97444000D01*
X62499564Y-97444000D01*
X62500473Y-95063764D01*
X66645787Y-95063764D01*
X66675413Y-95333016D01*
X66701708Y-95433593D01*
X66743928Y-95595088D01*
X66818243Y-95769965D01*
X66849871Y-95844392D01*
X66990982Y-96075611D01*
X67149567Y-96266171D01*
X67164255Y-96283820D01*
X67365998Y-96464582D01*
X67591910Y-96614044D01*
X67631274Y-96632497D01*
X67837177Y-96729021D01*
X68046096Y-96791875D01*
X68096569Y-96807060D01*
X68364561Y-96846500D01*
X68567631Y-96846500D01*
X68567634Y-96846500D01*
X68770156Y-96831677D01*
X68770155Y-96831677D01*
X69034553Y-96772780D01*
X69287558Y-96676014D01*
X69523777Y-96543441D01*
X69652558Y-96444000D01*
X73326000Y-96444000D01*
X74176000Y-96444000D01*
X74176000Y-95594000D01*
X73778176Y-95594000D01*
X73718624Y-95600402D01*
X73583910Y-95650647D01*
X73468811Y-95736811D01*
X73382647Y-95851910D01*
X73332402Y-95986624D01*
X73326000Y-96046176D01*
X73326000Y-96444000D01*
X69652558Y-96444000D01*
X69738177Y-96377888D01*
X69926186Y-96182881D01*
X70083799Y-95962579D01*
X70207656Y-95721675D01*
X70295118Y-95465305D01*
X70344319Y-95198933D01*
X70354212Y-94928235D01*
X70324586Y-94658982D01*
X70256072Y-94396912D01*
X70150130Y-94147610D01*
X70009018Y-93916390D01*
X70009017Y-93916388D01*
X69835746Y-93708181D01*
X69730758Y-93614112D01*
X69634002Y-93527418D01*
X69408090Y-93377956D01*
X69382511Y-93365965D01*
X69162822Y-93262978D01*
X68903437Y-93184941D01*
X68903431Y-93184940D01*
X68635439Y-93145500D01*
X68432369Y-93145500D01*
X68432366Y-93145500D01*
X68229843Y-93160322D01*
X67965449Y-93219219D01*
X67712441Y-93315986D01*
X67476223Y-93448559D01*
X67261825Y-93614109D01*
X67073813Y-93809120D01*
X66916201Y-94029420D01*
X66792342Y-94270329D01*
X66704881Y-94526695D01*
X66655680Y-94793066D01*
X66645787Y-95063764D01*
X62500473Y-95063764D01*
X62500498Y-94998395D01*
X62500594Y-94993579D01*
X62500596Y-94993537D01*
X62509988Y-94754472D01*
X62519529Y-94523822D01*
X62520278Y-94514432D01*
X62548869Y-94272868D01*
X62577442Y-94043650D01*
X62578868Y-94034825D01*
X62626313Y-93796302D01*
X62626430Y-93795730D01*
X62673826Y-93569687D01*
X62675820Y-93561569D01*
X62741770Y-93327727D01*
X62742178Y-93326318D01*
X62808043Y-93105085D01*
X62810529Y-93097617D01*
X62894623Y-92869669D01*
X62895334Y-92867799D01*
X62979215Y-92652830D01*
X62982093Y-92646059D01*
X63083790Y-92425461D01*
X63084881Y-92423162D01*
X63186260Y-92215789D01*
X63189405Y-92209788D01*
X63308082Y-91997874D01*
X63309621Y-91995209D01*
X63427774Y-91796923D01*
X63431127Y-91791613D01*
X63566073Y-91589654D01*
X63568123Y-91586686D01*
X63702228Y-91398860D01*
X63705673Y-91394271D01*
X63856004Y-91203576D01*
X63858676Y-91200305D01*
X64007835Y-91024194D01*
X64011302Y-91020277D01*
X64176126Y-90841972D01*
X64179401Y-90838567D01*
X64342566Y-90675401D01*
X64345971Y-90672126D01*
X64524277Y-90507302D01*
X64528194Y-90503835D01*
X64704305Y-90354676D01*
X64707576Y-90352004D01*
X64898271Y-90201673D01*
X64902860Y-90198228D01*
X65090686Y-90064123D01*
X65093654Y-90062073D01*
X65295613Y-89927127D01*
X65300923Y-89923774D01*
X65499209Y-89805621D01*
X65501874Y-89804082D01*
X65713788Y-89685405D01*
X65719789Y-89682260D01*
X65927162Y-89580881D01*
X65929461Y-89579790D01*
X66150059Y-89478093D01*
X66156830Y-89475215D01*
X66371799Y-89391334D01*
X66373669Y-89390623D01*
X66601617Y-89306529D01*
X66609085Y-89304043D01*
X66830318Y-89238178D01*
X66831727Y-89237770D01*
X67065569Y-89171820D01*
X67073687Y-89169826D01*
X67299730Y-89122430D01*
X67300302Y-89122313D01*
X67538825Y-89074868D01*
X67547650Y-89073442D01*
X67776868Y-89044869D01*
X68018432Y-89016278D01*
X68027822Y-89015529D01*
X68258428Y-89005991D01*
X68258577Y-89005985D01*
X68258579Y-89006044D01*
X68258823Y-89005975D01*
X68497556Y-88996596D01*
X68502424Y-88996500D01*
X153997575Y-88996500D01*
X154002442Y-88996596D01*
G37*
G04 #@! TD.AperFunction*
M02*
