%TF.GenerationSoftware,KiCad,Pcbnew,7.0.1*%
%TF.CreationDate,2025-03-09T11:22:31-05:00*%
%TF.ProjectId,Shift Register Mosfet Array V3,53686966-7420-4526-9567-697374657220,rev?*%
%TF.SameCoordinates,Original*%
%TF.FileFunction,Drillmap*%
%TF.FilePolarity,Positive*%
%FSLAX45Y45*%
G04 Gerber Fmt 4.5, Leading zero omitted, Abs format (unit mm)*
G04 Created by KiCad (PCBNEW 7.0.1) date 2025-03-09 11:22:31*
%MOMM*%
%LPD*%
G01*
G04 APERTURE LIST*
%ADD10C,0.100000*%
%ADD11C,0.200000*%
%ADD12C,0.040000*%
%ADD13C,0.119000*%
G04 APERTURE END LIST*
D10*
X15400000Y-8899600D02*
X6850000Y-8899600D01*
X16000000Y-9499600D02*
G75*
G03*
X15400000Y-8899600I-600000J0D01*
G01*
X6850000Y-8899600D02*
G75*
G03*
X6250000Y-9499600I0J-600000D01*
G01*
X6848400Y-14290600D02*
X15398400Y-14290600D01*
X15398400Y-14290600D02*
G75*
G03*
X15998400Y-13690600I0J600000D01*
G01*
X6250000Y-9499600D02*
X6248400Y-13690600D01*
X6248400Y-13690600D02*
G75*
G03*
X6848400Y-14290600I600000J0D01*
G01*
X15998400Y-13690600D02*
X16000000Y-9499600D01*
D11*
D12*
X6685600Y-10546400D02*
X6725600Y-10586400D01*
X6725600Y-10546400D02*
X6685600Y-10586400D01*
X6685600Y-10698800D02*
X6725600Y-10738800D01*
X6725600Y-10698800D02*
X6685600Y-10738800D01*
X6685600Y-10876600D02*
X6725600Y-10916600D01*
X6725600Y-10876600D02*
X6685600Y-10916600D01*
X7676200Y-10571800D02*
X7716200Y-10611800D01*
X7716200Y-10571800D02*
X7676200Y-10611800D01*
X7879400Y-10546400D02*
X7919400Y-10586400D01*
X7919400Y-10546400D02*
X7879400Y-10586400D01*
X7879400Y-10698800D02*
X7919400Y-10738800D01*
X7919400Y-10698800D02*
X7879400Y-10738800D01*
X7879400Y-10876600D02*
X7919400Y-10916600D01*
X7919400Y-10876600D02*
X7879400Y-10916600D01*
X8870000Y-10571800D02*
X8910000Y-10611800D01*
X8910000Y-10571800D02*
X8870000Y-10611800D01*
X9073200Y-10546400D02*
X9113200Y-10586400D01*
X9113200Y-10546400D02*
X9073200Y-10586400D01*
X9073200Y-10698800D02*
X9113200Y-10738800D01*
X9113200Y-10698800D02*
X9073200Y-10738800D01*
X9073200Y-10876600D02*
X9113200Y-10916600D01*
X9113200Y-10876600D02*
X9073200Y-10916600D01*
X10063800Y-10571800D02*
X10103800Y-10611800D01*
X10103800Y-10571800D02*
X10063800Y-10611800D01*
X10267000Y-10546400D02*
X10307000Y-10586400D01*
X10307000Y-10546400D02*
X10267000Y-10586400D01*
X10267000Y-10698800D02*
X10307000Y-10738800D01*
X10307000Y-10698800D02*
X10267000Y-10738800D01*
X10267000Y-10876600D02*
X10307000Y-10916600D01*
X10307000Y-10876600D02*
X10267000Y-10916600D01*
X10470200Y-9505000D02*
X10510200Y-9545000D01*
X10510200Y-9505000D02*
X10470200Y-9545000D01*
X10724200Y-9505000D02*
X10764200Y-9545000D01*
X10764200Y-9505000D02*
X10724200Y-9545000D01*
X10851200Y-9987600D02*
X10891200Y-10027600D01*
X10891200Y-9987600D02*
X10851200Y-10027600D01*
X11105200Y-9682800D02*
X11145200Y-9722800D01*
X11145200Y-9682800D02*
X11105200Y-9722800D01*
X11105200Y-9886000D02*
X11145200Y-9926000D01*
X11145200Y-9886000D02*
X11105200Y-9926000D01*
X11257600Y-10571800D02*
X11297600Y-10611800D01*
X11297600Y-10571800D02*
X11257600Y-10611800D01*
X11460800Y-10546400D02*
X11500800Y-10586400D01*
X11500800Y-10546400D02*
X11460800Y-10586400D01*
X11460800Y-10698800D02*
X11500800Y-10738800D01*
X11500800Y-10698800D02*
X11460800Y-10738800D01*
X11460800Y-10876600D02*
X11500800Y-10916600D01*
X11500800Y-10876600D02*
X11460800Y-10916600D01*
X12248200Y-9784400D02*
X12288200Y-9824400D01*
X12288200Y-9784400D02*
X12248200Y-9824400D01*
X12451400Y-10571800D02*
X12491400Y-10611800D01*
X12491400Y-10571800D02*
X12451400Y-10611800D01*
X12654600Y-10546400D02*
X12694600Y-10586400D01*
X12694600Y-10546400D02*
X12654600Y-10586400D01*
X12654600Y-10698800D02*
X12694600Y-10738800D01*
X12694600Y-10698800D02*
X12654600Y-10738800D01*
X12654600Y-10876600D02*
X12694600Y-10916600D01*
X12694600Y-10876600D02*
X12654600Y-10916600D01*
X13848400Y-10546400D02*
X13888400Y-10586400D01*
X13888400Y-10546400D02*
X13848400Y-10586400D01*
X13848400Y-10698800D02*
X13888400Y-10738800D01*
X13888400Y-10698800D02*
X13848400Y-10738800D01*
X13848400Y-10876600D02*
X13888400Y-10916600D01*
X13888400Y-10876600D02*
X13848400Y-10916600D01*
X15042200Y-10546400D02*
X15082200Y-10586400D01*
X15082200Y-10546400D02*
X15042200Y-10586400D01*
X15042200Y-10698800D02*
X15082200Y-10738800D01*
X15082200Y-10698800D02*
X15042200Y-10738800D01*
X15042200Y-10876600D02*
X15082200Y-10916600D01*
X15082200Y-10876600D02*
X15042200Y-10916600D01*
D10*
X6933400Y-12369800D02*
G75*
G03*
X6933400Y-12369800I-50000J0D01*
G01*
X6933400Y-12623800D02*
G75*
G03*
X6933400Y-12623800I-50000J0D01*
G01*
X6933400Y-12877800D02*
G75*
G03*
X6933400Y-12877800I-50000J0D01*
G01*
X6933400Y-13131800D02*
G75*
G03*
X6933400Y-13131800I-50000J0D01*
G01*
X7517600Y-9694400D02*
G75*
G03*
X7517600Y-9694400I-50000J0D01*
G01*
X7771600Y-9694400D02*
G75*
G03*
X7771600Y-9694400I-50000J0D01*
G01*
X7929200Y-12996800D02*
G75*
G03*
X7929200Y-12996800I-50000J0D01*
G01*
X8025600Y-9694400D02*
G75*
G03*
X8025600Y-9694400I-50000J0D01*
G01*
X8279600Y-9694400D02*
G75*
G03*
X8279600Y-9694400I-50000J0D01*
G01*
X8533600Y-9694400D02*
G75*
G03*
X8533600Y-9694400I-50000J0D01*
G01*
X8787600Y-9694400D02*
G75*
G03*
X8787600Y-9694400I-50000J0D01*
G01*
X8929200Y-12996800D02*
G75*
G03*
X8929200Y-12996800I-50000J0D01*
G01*
X9929200Y-12996800D02*
G75*
G03*
X9929200Y-12996800I-50000J0D01*
G01*
X10929200Y-12996800D02*
G75*
G03*
X10929200Y-12996800I-50000J0D01*
G01*
X11929200Y-12996800D02*
G75*
G03*
X11929200Y-12996800I-50000J0D01*
G01*
X12929200Y-12996800D02*
G75*
G03*
X12929200Y-12996800I-50000J0D01*
G01*
X13639000Y-9669000D02*
G75*
G03*
X13639000Y-9669000I-50000J0D01*
G01*
X13893000Y-9669000D02*
G75*
G03*
X13893000Y-9669000I-50000J0D01*
G01*
X13929200Y-12996800D02*
G75*
G03*
X13929200Y-12996800I-50000J0D01*
G01*
X14147000Y-9669000D02*
G75*
G03*
X14147000Y-9669000I-50000J0D01*
G01*
X14401000Y-9669000D02*
G75*
G03*
X14401000Y-9669000I-50000J0D01*
G01*
X14655000Y-9669000D02*
G75*
G03*
X14655000Y-9669000I-50000J0D01*
G01*
X14909000Y-9669000D02*
G75*
G03*
X14909000Y-9669000I-50000J0D01*
G01*
X14929200Y-12996800D02*
G75*
G03*
X14929200Y-12996800I-50000J0D01*
G01*
X15467800Y-12369800D02*
G75*
G03*
X15467800Y-12369800I-50000J0D01*
G01*
X15467800Y-12623800D02*
G75*
G03*
X15467800Y-12623800I-50000J0D01*
G01*
X15467800Y-12877800D02*
G75*
G03*
X15467800Y-12877800I-50000J0D01*
G01*
X15467800Y-13131800D02*
G75*
G03*
X15467800Y-13131800I-50000J0D01*
G01*
D13*
X7379200Y-12937300D02*
X7379200Y-13056300D01*
X7319700Y-12996800D02*
X7438700Y-12996800D01*
X7633200Y-12937300D02*
X7633200Y-13056300D01*
X7573700Y-12996800D02*
X7692700Y-12996800D01*
X8379200Y-12937300D02*
X8379200Y-13056300D01*
X8319700Y-12996800D02*
X8438700Y-12996800D01*
X8633200Y-12937300D02*
X8633200Y-13056300D01*
X8573700Y-12996800D02*
X8692700Y-12996800D01*
X9379200Y-12937300D02*
X9379200Y-13056300D01*
X9319700Y-12996800D02*
X9438700Y-12996800D01*
X9633200Y-12937300D02*
X9633200Y-13056300D01*
X9573700Y-12996800D02*
X9692700Y-12996800D01*
X10379200Y-12937300D02*
X10379200Y-13056300D01*
X10319700Y-12996800D02*
X10438700Y-12996800D01*
X10633200Y-12937300D02*
X10633200Y-13056300D01*
X10573700Y-12996800D02*
X10692700Y-12996800D01*
X11379200Y-12937300D02*
X11379200Y-13056300D01*
X11319700Y-12996800D02*
X11438700Y-12996800D01*
X11633200Y-12937300D02*
X11633200Y-13056300D01*
X11573700Y-12996800D02*
X11692700Y-12996800D01*
X12379200Y-12937300D02*
X12379200Y-13056300D01*
X12319700Y-12996800D02*
X12438700Y-12996800D01*
X12633200Y-12937300D02*
X12633200Y-13056300D01*
X12573700Y-12996800D02*
X12692700Y-12996800D01*
X13379200Y-12937300D02*
X13379200Y-13056300D01*
X13319700Y-12996800D02*
X13438700Y-12996800D01*
X13633200Y-12937300D02*
X13633200Y-13056300D01*
X13573700Y-12996800D02*
X13692700Y-12996800D01*
X14379200Y-12937300D02*
X14379200Y-13056300D01*
X14319700Y-12996800D02*
X14438700Y-12996800D01*
X14633200Y-12937300D02*
X14633200Y-13056300D01*
X14573700Y-12996800D02*
X14692700Y-12996800D01*
D11*
X6491019Y-14608124D02*
X6491019Y-14408124D01*
X6491019Y-14408124D02*
X6538638Y-14408124D01*
X6538638Y-14408124D02*
X6567209Y-14417648D01*
X6567209Y-14417648D02*
X6586257Y-14436695D01*
X6586257Y-14436695D02*
X6595781Y-14455743D01*
X6595781Y-14455743D02*
X6605305Y-14493838D01*
X6605305Y-14493838D02*
X6605305Y-14522409D01*
X6605305Y-14522409D02*
X6595781Y-14560505D01*
X6595781Y-14560505D02*
X6586257Y-14579552D01*
X6586257Y-14579552D02*
X6567209Y-14598600D01*
X6567209Y-14598600D02*
X6538638Y-14608124D01*
X6538638Y-14608124D02*
X6491019Y-14608124D01*
X6691019Y-14608124D02*
X6691019Y-14474790D01*
X6691019Y-14512886D02*
X6700543Y-14493838D01*
X6700543Y-14493838D02*
X6710067Y-14484314D01*
X6710067Y-14484314D02*
X6729114Y-14474790D01*
X6729114Y-14474790D02*
X6748162Y-14474790D01*
X6814828Y-14608124D02*
X6814828Y-14474790D01*
X6814828Y-14408124D02*
X6805305Y-14417648D01*
X6805305Y-14417648D02*
X6814828Y-14427171D01*
X6814828Y-14427171D02*
X6824352Y-14417648D01*
X6824352Y-14417648D02*
X6814828Y-14408124D01*
X6814828Y-14408124D02*
X6814828Y-14427171D01*
X6938638Y-14608124D02*
X6919590Y-14598600D01*
X6919590Y-14598600D02*
X6910067Y-14579552D01*
X6910067Y-14579552D02*
X6910067Y-14408124D01*
X7043400Y-14608124D02*
X7024352Y-14598600D01*
X7024352Y-14598600D02*
X7014828Y-14579552D01*
X7014828Y-14579552D02*
X7014828Y-14408124D01*
X7271971Y-14608124D02*
X7271971Y-14408124D01*
X7271971Y-14408124D02*
X7338638Y-14550981D01*
X7338638Y-14550981D02*
X7405305Y-14408124D01*
X7405305Y-14408124D02*
X7405305Y-14608124D01*
X7586257Y-14608124D02*
X7586257Y-14503362D01*
X7586257Y-14503362D02*
X7576733Y-14484314D01*
X7576733Y-14484314D02*
X7557686Y-14474790D01*
X7557686Y-14474790D02*
X7519590Y-14474790D01*
X7519590Y-14474790D02*
X7500543Y-14484314D01*
X7586257Y-14598600D02*
X7567209Y-14608124D01*
X7567209Y-14608124D02*
X7519590Y-14608124D01*
X7519590Y-14608124D02*
X7500543Y-14598600D01*
X7500543Y-14598600D02*
X7491019Y-14579552D01*
X7491019Y-14579552D02*
X7491019Y-14560505D01*
X7491019Y-14560505D02*
X7500543Y-14541457D01*
X7500543Y-14541457D02*
X7519590Y-14531933D01*
X7519590Y-14531933D02*
X7567209Y-14531933D01*
X7567209Y-14531933D02*
X7586257Y-14522409D01*
X7681495Y-14474790D02*
X7681495Y-14674790D01*
X7681495Y-14484314D02*
X7700543Y-14474790D01*
X7700543Y-14474790D02*
X7738638Y-14474790D01*
X7738638Y-14474790D02*
X7757686Y-14484314D01*
X7757686Y-14484314D02*
X7767209Y-14493838D01*
X7767209Y-14493838D02*
X7776733Y-14512886D01*
X7776733Y-14512886D02*
X7776733Y-14570028D01*
X7776733Y-14570028D02*
X7767209Y-14589076D01*
X7767209Y-14589076D02*
X7757686Y-14598600D01*
X7757686Y-14598600D02*
X7738638Y-14608124D01*
X7738638Y-14608124D02*
X7700543Y-14608124D01*
X7700543Y-14608124D02*
X7681495Y-14598600D01*
X7862448Y-14589076D02*
X7871971Y-14598600D01*
X7871971Y-14598600D02*
X7862448Y-14608124D01*
X7862448Y-14608124D02*
X7852924Y-14598600D01*
X7852924Y-14598600D02*
X7862448Y-14589076D01*
X7862448Y-14589076D02*
X7862448Y-14608124D01*
X7862448Y-14484314D02*
X7871971Y-14493838D01*
X7871971Y-14493838D02*
X7862448Y-14503362D01*
X7862448Y-14503362D02*
X7852924Y-14493838D01*
X7852924Y-14493838D02*
X7862448Y-14484314D01*
X7862448Y-14484314D02*
X7862448Y-14503362D01*
D12*
X6203400Y-14915600D02*
X6243400Y-14955600D01*
X6243400Y-14915600D02*
X6203400Y-14955600D01*
D11*
X6529114Y-14828124D02*
X6548162Y-14828124D01*
X6548162Y-14828124D02*
X6567209Y-14837648D01*
X6567209Y-14837648D02*
X6576733Y-14847171D01*
X6576733Y-14847171D02*
X6586257Y-14866219D01*
X6586257Y-14866219D02*
X6595781Y-14904314D01*
X6595781Y-14904314D02*
X6595781Y-14951933D01*
X6595781Y-14951933D02*
X6586257Y-14990028D01*
X6586257Y-14990028D02*
X6576733Y-15009076D01*
X6576733Y-15009076D02*
X6567209Y-15018600D01*
X6567209Y-15018600D02*
X6548162Y-15028124D01*
X6548162Y-15028124D02*
X6529114Y-15028124D01*
X6529114Y-15028124D02*
X6510067Y-15018600D01*
X6510067Y-15018600D02*
X6500543Y-15009076D01*
X6500543Y-15009076D02*
X6491019Y-14990028D01*
X6491019Y-14990028D02*
X6481495Y-14951933D01*
X6481495Y-14951933D02*
X6481495Y-14904314D01*
X6481495Y-14904314D02*
X6491019Y-14866219D01*
X6491019Y-14866219D02*
X6500543Y-14847171D01*
X6500543Y-14847171D02*
X6510067Y-14837648D01*
X6510067Y-14837648D02*
X6529114Y-14828124D01*
X6681495Y-15009076D02*
X6691019Y-15018600D01*
X6691019Y-15018600D02*
X6681495Y-15028124D01*
X6681495Y-15028124D02*
X6671971Y-15018600D01*
X6671971Y-15018600D02*
X6681495Y-15009076D01*
X6681495Y-15009076D02*
X6681495Y-15028124D01*
X6862448Y-14894790D02*
X6862448Y-15028124D01*
X6814828Y-14818600D02*
X6767209Y-14961457D01*
X6767209Y-14961457D02*
X6891019Y-14961457D01*
X7005305Y-14828124D02*
X7024352Y-14828124D01*
X7024352Y-14828124D02*
X7043400Y-14837648D01*
X7043400Y-14837648D02*
X7052924Y-14847171D01*
X7052924Y-14847171D02*
X7062448Y-14866219D01*
X7062448Y-14866219D02*
X7071971Y-14904314D01*
X7071971Y-14904314D02*
X7071971Y-14951933D01*
X7071971Y-14951933D02*
X7062448Y-14990028D01*
X7062448Y-14990028D02*
X7052924Y-15009076D01*
X7052924Y-15009076D02*
X7043400Y-15018600D01*
X7043400Y-15018600D02*
X7024352Y-15028124D01*
X7024352Y-15028124D02*
X7005305Y-15028124D01*
X7005305Y-15028124D02*
X6986257Y-15018600D01*
X6986257Y-15018600D02*
X6976733Y-15009076D01*
X6976733Y-15009076D02*
X6967209Y-14990028D01*
X6967209Y-14990028D02*
X6957686Y-14951933D01*
X6957686Y-14951933D02*
X6957686Y-14904314D01*
X6957686Y-14904314D02*
X6967209Y-14866219D01*
X6967209Y-14866219D02*
X6976733Y-14847171D01*
X6976733Y-14847171D02*
X6986257Y-14837648D01*
X6986257Y-14837648D02*
X7005305Y-14828124D01*
X7195781Y-14828124D02*
X7214829Y-14828124D01*
X7214829Y-14828124D02*
X7233876Y-14837648D01*
X7233876Y-14837648D02*
X7243400Y-14847171D01*
X7243400Y-14847171D02*
X7252924Y-14866219D01*
X7252924Y-14866219D02*
X7262448Y-14904314D01*
X7262448Y-14904314D02*
X7262448Y-14951933D01*
X7262448Y-14951933D02*
X7252924Y-14990028D01*
X7252924Y-14990028D02*
X7243400Y-15009076D01*
X7243400Y-15009076D02*
X7233876Y-15018600D01*
X7233876Y-15018600D02*
X7214829Y-15028124D01*
X7214829Y-15028124D02*
X7195781Y-15028124D01*
X7195781Y-15028124D02*
X7176733Y-15018600D01*
X7176733Y-15018600D02*
X7167209Y-15009076D01*
X7167209Y-15009076D02*
X7157686Y-14990028D01*
X7157686Y-14990028D02*
X7148162Y-14951933D01*
X7148162Y-14951933D02*
X7148162Y-14904314D01*
X7148162Y-14904314D02*
X7157686Y-14866219D01*
X7157686Y-14866219D02*
X7167209Y-14847171D01*
X7167209Y-14847171D02*
X7176733Y-14837648D01*
X7176733Y-14837648D02*
X7195781Y-14828124D01*
X7348162Y-15028124D02*
X7348162Y-14894790D01*
X7348162Y-14913838D02*
X7357686Y-14904314D01*
X7357686Y-14904314D02*
X7376733Y-14894790D01*
X7376733Y-14894790D02*
X7405305Y-14894790D01*
X7405305Y-14894790D02*
X7424352Y-14904314D01*
X7424352Y-14904314D02*
X7433876Y-14923362D01*
X7433876Y-14923362D02*
X7433876Y-15028124D01*
X7433876Y-14923362D02*
X7443400Y-14904314D01*
X7443400Y-14904314D02*
X7462448Y-14894790D01*
X7462448Y-14894790D02*
X7491019Y-14894790D01*
X7491019Y-14894790D02*
X7510067Y-14904314D01*
X7510067Y-14904314D02*
X7519590Y-14923362D01*
X7519590Y-14923362D02*
X7519590Y-15028124D01*
X7614829Y-15028124D02*
X7614829Y-14894790D01*
X7614829Y-14913838D02*
X7624352Y-14904314D01*
X7624352Y-14904314D02*
X7643400Y-14894790D01*
X7643400Y-14894790D02*
X7671971Y-14894790D01*
X7671971Y-14894790D02*
X7691019Y-14904314D01*
X7691019Y-14904314D02*
X7700543Y-14923362D01*
X7700543Y-14923362D02*
X7700543Y-15028124D01*
X7700543Y-14923362D02*
X7710067Y-14904314D01*
X7710067Y-14904314D02*
X7729114Y-14894790D01*
X7729114Y-14894790D02*
X7757686Y-14894790D01*
X7757686Y-14894790D02*
X7776733Y-14904314D01*
X7776733Y-14904314D02*
X7786257Y-14923362D01*
X7786257Y-14923362D02*
X7786257Y-15028124D01*
X8176733Y-14818600D02*
X8005305Y-15075743D01*
X8433876Y-14828124D02*
X8452924Y-14828124D01*
X8452924Y-14828124D02*
X8471972Y-14837648D01*
X8471972Y-14837648D02*
X8481495Y-14847171D01*
X8481495Y-14847171D02*
X8491019Y-14866219D01*
X8491019Y-14866219D02*
X8500543Y-14904314D01*
X8500543Y-14904314D02*
X8500543Y-14951933D01*
X8500543Y-14951933D02*
X8491019Y-14990028D01*
X8491019Y-14990028D02*
X8481495Y-15009076D01*
X8481495Y-15009076D02*
X8471972Y-15018600D01*
X8471972Y-15018600D02*
X8452924Y-15028124D01*
X8452924Y-15028124D02*
X8433876Y-15028124D01*
X8433876Y-15028124D02*
X8414829Y-15018600D01*
X8414829Y-15018600D02*
X8405305Y-15009076D01*
X8405305Y-15009076D02*
X8395781Y-14990028D01*
X8395781Y-14990028D02*
X8386257Y-14951933D01*
X8386257Y-14951933D02*
X8386257Y-14904314D01*
X8386257Y-14904314D02*
X8395781Y-14866219D01*
X8395781Y-14866219D02*
X8405305Y-14847171D01*
X8405305Y-14847171D02*
X8414829Y-14837648D01*
X8414829Y-14837648D02*
X8433876Y-14828124D01*
X8586257Y-15009076D02*
X8595781Y-15018600D01*
X8595781Y-15018600D02*
X8586257Y-15028124D01*
X8586257Y-15028124D02*
X8576734Y-15018600D01*
X8576734Y-15018600D02*
X8586257Y-15009076D01*
X8586257Y-15009076D02*
X8586257Y-15028124D01*
X8719591Y-14828124D02*
X8738638Y-14828124D01*
X8738638Y-14828124D02*
X8757686Y-14837648D01*
X8757686Y-14837648D02*
X8767210Y-14847171D01*
X8767210Y-14847171D02*
X8776734Y-14866219D01*
X8776734Y-14866219D02*
X8786257Y-14904314D01*
X8786257Y-14904314D02*
X8786257Y-14951933D01*
X8786257Y-14951933D02*
X8776734Y-14990028D01*
X8776734Y-14990028D02*
X8767210Y-15009076D01*
X8767210Y-15009076D02*
X8757686Y-15018600D01*
X8757686Y-15018600D02*
X8738638Y-15028124D01*
X8738638Y-15028124D02*
X8719591Y-15028124D01*
X8719591Y-15028124D02*
X8700543Y-15018600D01*
X8700543Y-15018600D02*
X8691019Y-15009076D01*
X8691019Y-15009076D02*
X8681495Y-14990028D01*
X8681495Y-14990028D02*
X8671972Y-14951933D01*
X8671972Y-14951933D02*
X8671972Y-14904314D01*
X8671972Y-14904314D02*
X8681495Y-14866219D01*
X8681495Y-14866219D02*
X8691019Y-14847171D01*
X8691019Y-14847171D02*
X8700543Y-14837648D01*
X8700543Y-14837648D02*
X8719591Y-14828124D01*
X8976734Y-15028124D02*
X8862448Y-15028124D01*
X8919591Y-15028124D02*
X8919591Y-14828124D01*
X8919591Y-14828124D02*
X8900543Y-14856695D01*
X8900543Y-14856695D02*
X8881495Y-14875743D01*
X8881495Y-14875743D02*
X8862448Y-14885267D01*
X9157686Y-14828124D02*
X9062448Y-14828124D01*
X9062448Y-14828124D02*
X9052924Y-14923362D01*
X9052924Y-14923362D02*
X9062448Y-14913838D01*
X9062448Y-14913838D02*
X9081495Y-14904314D01*
X9081495Y-14904314D02*
X9129115Y-14904314D01*
X9129115Y-14904314D02*
X9148162Y-14913838D01*
X9148162Y-14913838D02*
X9157686Y-14923362D01*
X9157686Y-14923362D02*
X9167210Y-14942409D01*
X9167210Y-14942409D02*
X9167210Y-14990028D01*
X9167210Y-14990028D02*
X9157686Y-15009076D01*
X9157686Y-15009076D02*
X9148162Y-15018600D01*
X9148162Y-15018600D02*
X9129115Y-15028124D01*
X9129115Y-15028124D02*
X9081495Y-15028124D01*
X9081495Y-15028124D02*
X9062448Y-15018600D01*
X9062448Y-15018600D02*
X9052924Y-15009076D01*
X9233876Y-14828124D02*
X9367210Y-14828124D01*
X9367210Y-14828124D02*
X9281495Y-15028124D01*
X9433876Y-14828124D02*
X9433876Y-14866219D01*
X9510067Y-14828124D02*
X9510067Y-14866219D01*
X9805305Y-15104314D02*
X9795781Y-15094790D01*
X9795781Y-15094790D02*
X9776734Y-15066219D01*
X9776734Y-15066219D02*
X9767210Y-15047171D01*
X9767210Y-15047171D02*
X9757686Y-15018600D01*
X9757686Y-15018600D02*
X9748162Y-14970981D01*
X9748162Y-14970981D02*
X9748162Y-14932886D01*
X9748162Y-14932886D02*
X9757686Y-14885267D01*
X9757686Y-14885267D02*
X9767210Y-14856695D01*
X9767210Y-14856695D02*
X9776734Y-14837648D01*
X9776734Y-14837648D02*
X9795781Y-14809076D01*
X9795781Y-14809076D02*
X9805305Y-14799552D01*
X9862448Y-14828124D02*
X9986257Y-14828124D01*
X9986257Y-14828124D02*
X9919591Y-14904314D01*
X9919591Y-14904314D02*
X9948162Y-14904314D01*
X9948162Y-14904314D02*
X9967210Y-14913838D01*
X9967210Y-14913838D02*
X9976734Y-14923362D01*
X9976734Y-14923362D02*
X9986257Y-14942409D01*
X9986257Y-14942409D02*
X9986257Y-14990028D01*
X9986257Y-14990028D02*
X9976734Y-15009076D01*
X9976734Y-15009076D02*
X9967210Y-15018600D01*
X9967210Y-15018600D02*
X9948162Y-15028124D01*
X9948162Y-15028124D02*
X9891019Y-15028124D01*
X9891019Y-15028124D02*
X9871972Y-15018600D01*
X9871972Y-15018600D02*
X9862448Y-15009076D01*
X10167210Y-14828124D02*
X10071972Y-14828124D01*
X10071972Y-14828124D02*
X10062448Y-14923362D01*
X10062448Y-14923362D02*
X10071972Y-14913838D01*
X10071972Y-14913838D02*
X10091019Y-14904314D01*
X10091019Y-14904314D02*
X10138638Y-14904314D01*
X10138638Y-14904314D02*
X10157686Y-14913838D01*
X10157686Y-14913838D02*
X10167210Y-14923362D01*
X10167210Y-14923362D02*
X10176734Y-14942409D01*
X10176734Y-14942409D02*
X10176734Y-14990028D01*
X10176734Y-14990028D02*
X10167210Y-15009076D01*
X10167210Y-15009076D02*
X10157686Y-15018600D01*
X10157686Y-15018600D02*
X10138638Y-15028124D01*
X10138638Y-15028124D02*
X10091019Y-15028124D01*
X10091019Y-15028124D02*
X10071972Y-15018600D01*
X10071972Y-15018600D02*
X10062448Y-15009076D01*
X10414829Y-15028124D02*
X10414829Y-14828124D01*
X10500543Y-15028124D02*
X10500543Y-14923362D01*
X10500543Y-14923362D02*
X10491019Y-14904314D01*
X10491019Y-14904314D02*
X10471972Y-14894790D01*
X10471972Y-14894790D02*
X10443400Y-14894790D01*
X10443400Y-14894790D02*
X10424353Y-14904314D01*
X10424353Y-14904314D02*
X10414829Y-14913838D01*
X10624353Y-15028124D02*
X10605305Y-15018600D01*
X10605305Y-15018600D02*
X10595781Y-15009076D01*
X10595781Y-15009076D02*
X10586258Y-14990028D01*
X10586258Y-14990028D02*
X10586258Y-14932886D01*
X10586258Y-14932886D02*
X10595781Y-14913838D01*
X10595781Y-14913838D02*
X10605305Y-14904314D01*
X10605305Y-14904314D02*
X10624353Y-14894790D01*
X10624353Y-14894790D02*
X10652924Y-14894790D01*
X10652924Y-14894790D02*
X10671972Y-14904314D01*
X10671972Y-14904314D02*
X10681496Y-14913838D01*
X10681496Y-14913838D02*
X10691019Y-14932886D01*
X10691019Y-14932886D02*
X10691019Y-14990028D01*
X10691019Y-14990028D02*
X10681496Y-15009076D01*
X10681496Y-15009076D02*
X10671972Y-15018600D01*
X10671972Y-15018600D02*
X10652924Y-15028124D01*
X10652924Y-15028124D02*
X10624353Y-15028124D01*
X10805305Y-15028124D02*
X10786258Y-15018600D01*
X10786258Y-15018600D02*
X10776734Y-14999552D01*
X10776734Y-14999552D02*
X10776734Y-14828124D01*
X10957686Y-15018600D02*
X10938639Y-15028124D01*
X10938639Y-15028124D02*
X10900543Y-15028124D01*
X10900543Y-15028124D02*
X10881496Y-15018600D01*
X10881496Y-15018600D02*
X10871972Y-14999552D01*
X10871972Y-14999552D02*
X10871972Y-14923362D01*
X10871972Y-14923362D02*
X10881496Y-14904314D01*
X10881496Y-14904314D02*
X10900543Y-14894790D01*
X10900543Y-14894790D02*
X10938639Y-14894790D01*
X10938639Y-14894790D02*
X10957686Y-14904314D01*
X10957686Y-14904314D02*
X10967210Y-14923362D01*
X10967210Y-14923362D02*
X10967210Y-14942409D01*
X10967210Y-14942409D02*
X10871972Y-14961457D01*
X11043400Y-15018600D02*
X11062448Y-15028124D01*
X11062448Y-15028124D02*
X11100543Y-15028124D01*
X11100543Y-15028124D02*
X11119591Y-15018600D01*
X11119591Y-15018600D02*
X11129115Y-14999552D01*
X11129115Y-14999552D02*
X11129115Y-14990028D01*
X11129115Y-14990028D02*
X11119591Y-14970981D01*
X11119591Y-14970981D02*
X11100543Y-14961457D01*
X11100543Y-14961457D02*
X11071972Y-14961457D01*
X11071972Y-14961457D02*
X11052924Y-14951933D01*
X11052924Y-14951933D02*
X11043400Y-14932886D01*
X11043400Y-14932886D02*
X11043400Y-14923362D01*
X11043400Y-14923362D02*
X11052924Y-14904314D01*
X11052924Y-14904314D02*
X11071972Y-14894790D01*
X11071972Y-14894790D02*
X11100543Y-14894790D01*
X11100543Y-14894790D02*
X11119591Y-14904314D01*
X11195781Y-15104314D02*
X11205305Y-15094790D01*
X11205305Y-15094790D02*
X11224353Y-15066219D01*
X11224353Y-15066219D02*
X11233877Y-15047171D01*
X11233877Y-15047171D02*
X11243400Y-15018600D01*
X11243400Y-15018600D02*
X11252924Y-14970981D01*
X11252924Y-14970981D02*
X11252924Y-14932886D01*
X11252924Y-14932886D02*
X11243400Y-14885267D01*
X11243400Y-14885267D02*
X11233877Y-14856695D01*
X11233877Y-14856695D02*
X11224353Y-14837648D01*
X11224353Y-14837648D02*
X11205305Y-14809076D01*
X11205305Y-14809076D02*
X11195781Y-14799552D01*
D10*
X6243400Y-15199600D02*
G75*
G03*
X6243400Y-15199600I-50000J0D01*
G01*
D11*
X6595781Y-15292124D02*
X6481495Y-15292124D01*
X6538638Y-15292124D02*
X6538638Y-15092124D01*
X6538638Y-15092124D02*
X6519590Y-15120695D01*
X6519590Y-15120695D02*
X6500543Y-15139743D01*
X6500543Y-15139743D02*
X6481495Y-15149267D01*
X6681495Y-15273076D02*
X6691019Y-15282600D01*
X6691019Y-15282600D02*
X6681495Y-15292124D01*
X6681495Y-15292124D02*
X6671971Y-15282600D01*
X6671971Y-15282600D02*
X6681495Y-15273076D01*
X6681495Y-15273076D02*
X6681495Y-15292124D01*
X6814828Y-15092124D02*
X6833876Y-15092124D01*
X6833876Y-15092124D02*
X6852924Y-15101648D01*
X6852924Y-15101648D02*
X6862448Y-15111171D01*
X6862448Y-15111171D02*
X6871971Y-15130219D01*
X6871971Y-15130219D02*
X6881495Y-15168314D01*
X6881495Y-15168314D02*
X6881495Y-15215933D01*
X6881495Y-15215933D02*
X6871971Y-15254028D01*
X6871971Y-15254028D02*
X6862448Y-15273076D01*
X6862448Y-15273076D02*
X6852924Y-15282600D01*
X6852924Y-15282600D02*
X6833876Y-15292124D01*
X6833876Y-15292124D02*
X6814828Y-15292124D01*
X6814828Y-15292124D02*
X6795781Y-15282600D01*
X6795781Y-15282600D02*
X6786257Y-15273076D01*
X6786257Y-15273076D02*
X6776733Y-15254028D01*
X6776733Y-15254028D02*
X6767209Y-15215933D01*
X6767209Y-15215933D02*
X6767209Y-15168314D01*
X6767209Y-15168314D02*
X6776733Y-15130219D01*
X6776733Y-15130219D02*
X6786257Y-15111171D01*
X6786257Y-15111171D02*
X6795781Y-15101648D01*
X6795781Y-15101648D02*
X6814828Y-15092124D01*
X7005305Y-15092124D02*
X7024352Y-15092124D01*
X7024352Y-15092124D02*
X7043400Y-15101648D01*
X7043400Y-15101648D02*
X7052924Y-15111171D01*
X7052924Y-15111171D02*
X7062448Y-15130219D01*
X7062448Y-15130219D02*
X7071971Y-15168314D01*
X7071971Y-15168314D02*
X7071971Y-15215933D01*
X7071971Y-15215933D02*
X7062448Y-15254028D01*
X7062448Y-15254028D02*
X7052924Y-15273076D01*
X7052924Y-15273076D02*
X7043400Y-15282600D01*
X7043400Y-15282600D02*
X7024352Y-15292124D01*
X7024352Y-15292124D02*
X7005305Y-15292124D01*
X7005305Y-15292124D02*
X6986257Y-15282600D01*
X6986257Y-15282600D02*
X6976733Y-15273076D01*
X6976733Y-15273076D02*
X6967209Y-15254028D01*
X6967209Y-15254028D02*
X6957686Y-15215933D01*
X6957686Y-15215933D02*
X6957686Y-15168314D01*
X6957686Y-15168314D02*
X6967209Y-15130219D01*
X6967209Y-15130219D02*
X6976733Y-15111171D01*
X6976733Y-15111171D02*
X6986257Y-15101648D01*
X6986257Y-15101648D02*
X7005305Y-15092124D01*
X7195781Y-15092124D02*
X7214829Y-15092124D01*
X7214829Y-15092124D02*
X7233876Y-15101648D01*
X7233876Y-15101648D02*
X7243400Y-15111171D01*
X7243400Y-15111171D02*
X7252924Y-15130219D01*
X7252924Y-15130219D02*
X7262448Y-15168314D01*
X7262448Y-15168314D02*
X7262448Y-15215933D01*
X7262448Y-15215933D02*
X7252924Y-15254028D01*
X7252924Y-15254028D02*
X7243400Y-15273076D01*
X7243400Y-15273076D02*
X7233876Y-15282600D01*
X7233876Y-15282600D02*
X7214829Y-15292124D01*
X7214829Y-15292124D02*
X7195781Y-15292124D01*
X7195781Y-15292124D02*
X7176733Y-15282600D01*
X7176733Y-15282600D02*
X7167209Y-15273076D01*
X7167209Y-15273076D02*
X7157686Y-15254028D01*
X7157686Y-15254028D02*
X7148162Y-15215933D01*
X7148162Y-15215933D02*
X7148162Y-15168314D01*
X7148162Y-15168314D02*
X7157686Y-15130219D01*
X7157686Y-15130219D02*
X7167209Y-15111171D01*
X7167209Y-15111171D02*
X7176733Y-15101648D01*
X7176733Y-15101648D02*
X7195781Y-15092124D01*
X7348162Y-15292124D02*
X7348162Y-15158790D01*
X7348162Y-15177838D02*
X7357686Y-15168314D01*
X7357686Y-15168314D02*
X7376733Y-15158790D01*
X7376733Y-15158790D02*
X7405305Y-15158790D01*
X7405305Y-15158790D02*
X7424352Y-15168314D01*
X7424352Y-15168314D02*
X7433876Y-15187362D01*
X7433876Y-15187362D02*
X7433876Y-15292124D01*
X7433876Y-15187362D02*
X7443400Y-15168314D01*
X7443400Y-15168314D02*
X7462448Y-15158790D01*
X7462448Y-15158790D02*
X7491019Y-15158790D01*
X7491019Y-15158790D02*
X7510067Y-15168314D01*
X7510067Y-15168314D02*
X7519590Y-15187362D01*
X7519590Y-15187362D02*
X7519590Y-15292124D01*
X7614829Y-15292124D02*
X7614829Y-15158790D01*
X7614829Y-15177838D02*
X7624352Y-15168314D01*
X7624352Y-15168314D02*
X7643400Y-15158790D01*
X7643400Y-15158790D02*
X7671971Y-15158790D01*
X7671971Y-15158790D02*
X7691019Y-15168314D01*
X7691019Y-15168314D02*
X7700543Y-15187362D01*
X7700543Y-15187362D02*
X7700543Y-15292124D01*
X7700543Y-15187362D02*
X7710067Y-15168314D01*
X7710067Y-15168314D02*
X7729114Y-15158790D01*
X7729114Y-15158790D02*
X7757686Y-15158790D01*
X7757686Y-15158790D02*
X7776733Y-15168314D01*
X7776733Y-15168314D02*
X7786257Y-15187362D01*
X7786257Y-15187362D02*
X7786257Y-15292124D01*
X8176733Y-15082600D02*
X8005305Y-15339743D01*
X8433876Y-15092124D02*
X8452924Y-15092124D01*
X8452924Y-15092124D02*
X8471972Y-15101648D01*
X8471972Y-15101648D02*
X8481495Y-15111171D01*
X8481495Y-15111171D02*
X8491019Y-15130219D01*
X8491019Y-15130219D02*
X8500543Y-15168314D01*
X8500543Y-15168314D02*
X8500543Y-15215933D01*
X8500543Y-15215933D02*
X8491019Y-15254028D01*
X8491019Y-15254028D02*
X8481495Y-15273076D01*
X8481495Y-15273076D02*
X8471972Y-15282600D01*
X8471972Y-15282600D02*
X8452924Y-15292124D01*
X8452924Y-15292124D02*
X8433876Y-15292124D01*
X8433876Y-15292124D02*
X8414829Y-15282600D01*
X8414829Y-15282600D02*
X8405305Y-15273076D01*
X8405305Y-15273076D02*
X8395781Y-15254028D01*
X8395781Y-15254028D02*
X8386257Y-15215933D01*
X8386257Y-15215933D02*
X8386257Y-15168314D01*
X8386257Y-15168314D02*
X8395781Y-15130219D01*
X8395781Y-15130219D02*
X8405305Y-15111171D01*
X8405305Y-15111171D02*
X8414829Y-15101648D01*
X8414829Y-15101648D02*
X8433876Y-15092124D01*
X8586257Y-15273076D02*
X8595781Y-15282600D01*
X8595781Y-15282600D02*
X8586257Y-15292124D01*
X8586257Y-15292124D02*
X8576734Y-15282600D01*
X8576734Y-15282600D02*
X8586257Y-15273076D01*
X8586257Y-15273076D02*
X8586257Y-15292124D01*
X8719591Y-15092124D02*
X8738638Y-15092124D01*
X8738638Y-15092124D02*
X8757686Y-15101648D01*
X8757686Y-15101648D02*
X8767210Y-15111171D01*
X8767210Y-15111171D02*
X8776734Y-15130219D01*
X8776734Y-15130219D02*
X8786257Y-15168314D01*
X8786257Y-15168314D02*
X8786257Y-15215933D01*
X8786257Y-15215933D02*
X8776734Y-15254028D01*
X8776734Y-15254028D02*
X8767210Y-15273076D01*
X8767210Y-15273076D02*
X8757686Y-15282600D01*
X8757686Y-15282600D02*
X8738638Y-15292124D01*
X8738638Y-15292124D02*
X8719591Y-15292124D01*
X8719591Y-15292124D02*
X8700543Y-15282600D01*
X8700543Y-15282600D02*
X8691019Y-15273076D01*
X8691019Y-15273076D02*
X8681495Y-15254028D01*
X8681495Y-15254028D02*
X8671972Y-15215933D01*
X8671972Y-15215933D02*
X8671972Y-15168314D01*
X8671972Y-15168314D02*
X8681495Y-15130219D01*
X8681495Y-15130219D02*
X8691019Y-15111171D01*
X8691019Y-15111171D02*
X8700543Y-15101648D01*
X8700543Y-15101648D02*
X8719591Y-15092124D01*
X8852924Y-15092124D02*
X8976734Y-15092124D01*
X8976734Y-15092124D02*
X8910067Y-15168314D01*
X8910067Y-15168314D02*
X8938638Y-15168314D01*
X8938638Y-15168314D02*
X8957686Y-15177838D01*
X8957686Y-15177838D02*
X8967210Y-15187362D01*
X8967210Y-15187362D02*
X8976734Y-15206409D01*
X8976734Y-15206409D02*
X8976734Y-15254028D01*
X8976734Y-15254028D02*
X8967210Y-15273076D01*
X8967210Y-15273076D02*
X8957686Y-15282600D01*
X8957686Y-15282600D02*
X8938638Y-15292124D01*
X8938638Y-15292124D02*
X8881495Y-15292124D01*
X8881495Y-15292124D02*
X8862448Y-15282600D01*
X8862448Y-15282600D02*
X8852924Y-15273076D01*
X9071972Y-15292124D02*
X9110067Y-15292124D01*
X9110067Y-15292124D02*
X9129115Y-15282600D01*
X9129115Y-15282600D02*
X9138638Y-15273076D01*
X9138638Y-15273076D02*
X9157686Y-15244505D01*
X9157686Y-15244505D02*
X9167210Y-15206409D01*
X9167210Y-15206409D02*
X9167210Y-15130219D01*
X9167210Y-15130219D02*
X9157686Y-15111171D01*
X9157686Y-15111171D02*
X9148162Y-15101648D01*
X9148162Y-15101648D02*
X9129115Y-15092124D01*
X9129115Y-15092124D02*
X9091019Y-15092124D01*
X9091019Y-15092124D02*
X9071972Y-15101648D01*
X9071972Y-15101648D02*
X9062448Y-15111171D01*
X9062448Y-15111171D02*
X9052924Y-15130219D01*
X9052924Y-15130219D02*
X9052924Y-15177838D01*
X9052924Y-15177838D02*
X9062448Y-15196886D01*
X9062448Y-15196886D02*
X9071972Y-15206409D01*
X9071972Y-15206409D02*
X9091019Y-15215933D01*
X9091019Y-15215933D02*
X9129115Y-15215933D01*
X9129115Y-15215933D02*
X9148162Y-15206409D01*
X9148162Y-15206409D02*
X9157686Y-15196886D01*
X9157686Y-15196886D02*
X9167210Y-15177838D01*
X9338638Y-15158790D02*
X9338638Y-15292124D01*
X9291019Y-15082600D02*
X9243400Y-15225457D01*
X9243400Y-15225457D02*
X9367210Y-15225457D01*
X9433876Y-15092124D02*
X9433876Y-15130219D01*
X9510067Y-15092124D02*
X9510067Y-15130219D01*
X9805305Y-15368314D02*
X9795781Y-15358790D01*
X9795781Y-15358790D02*
X9776734Y-15330219D01*
X9776734Y-15330219D02*
X9767210Y-15311171D01*
X9767210Y-15311171D02*
X9757686Y-15282600D01*
X9757686Y-15282600D02*
X9748162Y-15234981D01*
X9748162Y-15234981D02*
X9748162Y-15196886D01*
X9748162Y-15196886D02*
X9757686Y-15149267D01*
X9757686Y-15149267D02*
X9767210Y-15120695D01*
X9767210Y-15120695D02*
X9776734Y-15101648D01*
X9776734Y-15101648D02*
X9795781Y-15073076D01*
X9795781Y-15073076D02*
X9805305Y-15063552D01*
X9871972Y-15111171D02*
X9881496Y-15101648D01*
X9881496Y-15101648D02*
X9900543Y-15092124D01*
X9900543Y-15092124D02*
X9948162Y-15092124D01*
X9948162Y-15092124D02*
X9967210Y-15101648D01*
X9967210Y-15101648D02*
X9976734Y-15111171D01*
X9976734Y-15111171D02*
X9986257Y-15130219D01*
X9986257Y-15130219D02*
X9986257Y-15149267D01*
X9986257Y-15149267D02*
X9976734Y-15177838D01*
X9976734Y-15177838D02*
X9862448Y-15292124D01*
X9862448Y-15292124D02*
X9986257Y-15292124D01*
X10100543Y-15177838D02*
X10081496Y-15168314D01*
X10081496Y-15168314D02*
X10071972Y-15158790D01*
X10071972Y-15158790D02*
X10062448Y-15139743D01*
X10062448Y-15139743D02*
X10062448Y-15130219D01*
X10062448Y-15130219D02*
X10071972Y-15111171D01*
X10071972Y-15111171D02*
X10081496Y-15101648D01*
X10081496Y-15101648D02*
X10100543Y-15092124D01*
X10100543Y-15092124D02*
X10138638Y-15092124D01*
X10138638Y-15092124D02*
X10157686Y-15101648D01*
X10157686Y-15101648D02*
X10167210Y-15111171D01*
X10167210Y-15111171D02*
X10176734Y-15130219D01*
X10176734Y-15130219D02*
X10176734Y-15139743D01*
X10176734Y-15139743D02*
X10167210Y-15158790D01*
X10167210Y-15158790D02*
X10157686Y-15168314D01*
X10157686Y-15168314D02*
X10138638Y-15177838D01*
X10138638Y-15177838D02*
X10100543Y-15177838D01*
X10100543Y-15177838D02*
X10081496Y-15187362D01*
X10081496Y-15187362D02*
X10071972Y-15196886D01*
X10071972Y-15196886D02*
X10062448Y-15215933D01*
X10062448Y-15215933D02*
X10062448Y-15254028D01*
X10062448Y-15254028D02*
X10071972Y-15273076D01*
X10071972Y-15273076D02*
X10081496Y-15282600D01*
X10081496Y-15282600D02*
X10100543Y-15292124D01*
X10100543Y-15292124D02*
X10138638Y-15292124D01*
X10138638Y-15292124D02*
X10157686Y-15282600D01*
X10157686Y-15282600D02*
X10167210Y-15273076D01*
X10167210Y-15273076D02*
X10176734Y-15254028D01*
X10176734Y-15254028D02*
X10176734Y-15215933D01*
X10176734Y-15215933D02*
X10167210Y-15196886D01*
X10167210Y-15196886D02*
X10157686Y-15187362D01*
X10157686Y-15187362D02*
X10138638Y-15177838D01*
X10414829Y-15292124D02*
X10414829Y-15092124D01*
X10500543Y-15292124D02*
X10500543Y-15187362D01*
X10500543Y-15187362D02*
X10491019Y-15168314D01*
X10491019Y-15168314D02*
X10471972Y-15158790D01*
X10471972Y-15158790D02*
X10443400Y-15158790D01*
X10443400Y-15158790D02*
X10424353Y-15168314D01*
X10424353Y-15168314D02*
X10414829Y-15177838D01*
X10624353Y-15292124D02*
X10605305Y-15282600D01*
X10605305Y-15282600D02*
X10595781Y-15273076D01*
X10595781Y-15273076D02*
X10586258Y-15254028D01*
X10586258Y-15254028D02*
X10586258Y-15196886D01*
X10586258Y-15196886D02*
X10595781Y-15177838D01*
X10595781Y-15177838D02*
X10605305Y-15168314D01*
X10605305Y-15168314D02*
X10624353Y-15158790D01*
X10624353Y-15158790D02*
X10652924Y-15158790D01*
X10652924Y-15158790D02*
X10671972Y-15168314D01*
X10671972Y-15168314D02*
X10681496Y-15177838D01*
X10681496Y-15177838D02*
X10691019Y-15196886D01*
X10691019Y-15196886D02*
X10691019Y-15254028D01*
X10691019Y-15254028D02*
X10681496Y-15273076D01*
X10681496Y-15273076D02*
X10671972Y-15282600D01*
X10671972Y-15282600D02*
X10652924Y-15292124D01*
X10652924Y-15292124D02*
X10624353Y-15292124D01*
X10805305Y-15292124D02*
X10786258Y-15282600D01*
X10786258Y-15282600D02*
X10776734Y-15263552D01*
X10776734Y-15263552D02*
X10776734Y-15092124D01*
X10957686Y-15282600D02*
X10938639Y-15292124D01*
X10938639Y-15292124D02*
X10900543Y-15292124D01*
X10900543Y-15292124D02*
X10881496Y-15282600D01*
X10881496Y-15282600D02*
X10871972Y-15263552D01*
X10871972Y-15263552D02*
X10871972Y-15187362D01*
X10871972Y-15187362D02*
X10881496Y-15168314D01*
X10881496Y-15168314D02*
X10900543Y-15158790D01*
X10900543Y-15158790D02*
X10938639Y-15158790D01*
X10938639Y-15158790D02*
X10957686Y-15168314D01*
X10957686Y-15168314D02*
X10967210Y-15187362D01*
X10967210Y-15187362D02*
X10967210Y-15206409D01*
X10967210Y-15206409D02*
X10871972Y-15225457D01*
X11043400Y-15282600D02*
X11062448Y-15292124D01*
X11062448Y-15292124D02*
X11100543Y-15292124D01*
X11100543Y-15292124D02*
X11119591Y-15282600D01*
X11119591Y-15282600D02*
X11129115Y-15263552D01*
X11129115Y-15263552D02*
X11129115Y-15254028D01*
X11129115Y-15254028D02*
X11119591Y-15234981D01*
X11119591Y-15234981D02*
X11100543Y-15225457D01*
X11100543Y-15225457D02*
X11071972Y-15225457D01*
X11071972Y-15225457D02*
X11052924Y-15215933D01*
X11052924Y-15215933D02*
X11043400Y-15196886D01*
X11043400Y-15196886D02*
X11043400Y-15187362D01*
X11043400Y-15187362D02*
X11052924Y-15168314D01*
X11052924Y-15168314D02*
X11071972Y-15158790D01*
X11071972Y-15158790D02*
X11100543Y-15158790D01*
X11100543Y-15158790D02*
X11119591Y-15168314D01*
X11195781Y-15368314D02*
X11205305Y-15358790D01*
X11205305Y-15358790D02*
X11224353Y-15330219D01*
X11224353Y-15330219D02*
X11233877Y-15311171D01*
X11233877Y-15311171D02*
X11243400Y-15282600D01*
X11243400Y-15282600D02*
X11252924Y-15234981D01*
X11252924Y-15234981D02*
X11252924Y-15196886D01*
X11252924Y-15196886D02*
X11243400Y-15149267D01*
X11243400Y-15149267D02*
X11233877Y-15120695D01*
X11233877Y-15120695D02*
X11224353Y-15101648D01*
X11224353Y-15101648D02*
X11205305Y-15073076D01*
X11205305Y-15073076D02*
X11195781Y-15063552D01*
D13*
X6183900Y-15404100D02*
X6183900Y-15523100D01*
X6124400Y-15463600D02*
X6243400Y-15463600D01*
D11*
X6595781Y-15556124D02*
X6481495Y-15556124D01*
X6538638Y-15556124D02*
X6538638Y-15356124D01*
X6538638Y-15356124D02*
X6519590Y-15384695D01*
X6519590Y-15384695D02*
X6500543Y-15403743D01*
X6500543Y-15403743D02*
X6481495Y-15413267D01*
X6681495Y-15537076D02*
X6691019Y-15546600D01*
X6691019Y-15546600D02*
X6681495Y-15556124D01*
X6681495Y-15556124D02*
X6671971Y-15546600D01*
X6671971Y-15546600D02*
X6681495Y-15537076D01*
X6681495Y-15537076D02*
X6681495Y-15556124D01*
X6881495Y-15556124D02*
X6767209Y-15556124D01*
X6824352Y-15556124D02*
X6824352Y-15356124D01*
X6824352Y-15356124D02*
X6805305Y-15384695D01*
X6805305Y-15384695D02*
X6786257Y-15403743D01*
X6786257Y-15403743D02*
X6767209Y-15413267D01*
X6976733Y-15556124D02*
X7014828Y-15556124D01*
X7014828Y-15556124D02*
X7033876Y-15546600D01*
X7033876Y-15546600D02*
X7043400Y-15537076D01*
X7043400Y-15537076D02*
X7062448Y-15508505D01*
X7062448Y-15508505D02*
X7071971Y-15470409D01*
X7071971Y-15470409D02*
X7071971Y-15394219D01*
X7071971Y-15394219D02*
X7062448Y-15375171D01*
X7062448Y-15375171D02*
X7052924Y-15365648D01*
X7052924Y-15365648D02*
X7033876Y-15356124D01*
X7033876Y-15356124D02*
X6995781Y-15356124D01*
X6995781Y-15356124D02*
X6976733Y-15365648D01*
X6976733Y-15365648D02*
X6967209Y-15375171D01*
X6967209Y-15375171D02*
X6957686Y-15394219D01*
X6957686Y-15394219D02*
X6957686Y-15441838D01*
X6957686Y-15441838D02*
X6967209Y-15460886D01*
X6967209Y-15460886D02*
X6976733Y-15470409D01*
X6976733Y-15470409D02*
X6995781Y-15479933D01*
X6995781Y-15479933D02*
X7033876Y-15479933D01*
X7033876Y-15479933D02*
X7052924Y-15470409D01*
X7052924Y-15470409D02*
X7062448Y-15460886D01*
X7062448Y-15460886D02*
X7071971Y-15441838D01*
X7195781Y-15356124D02*
X7214829Y-15356124D01*
X7214829Y-15356124D02*
X7233876Y-15365648D01*
X7233876Y-15365648D02*
X7243400Y-15375171D01*
X7243400Y-15375171D02*
X7252924Y-15394219D01*
X7252924Y-15394219D02*
X7262448Y-15432314D01*
X7262448Y-15432314D02*
X7262448Y-15479933D01*
X7262448Y-15479933D02*
X7252924Y-15518028D01*
X7252924Y-15518028D02*
X7243400Y-15537076D01*
X7243400Y-15537076D02*
X7233876Y-15546600D01*
X7233876Y-15546600D02*
X7214829Y-15556124D01*
X7214829Y-15556124D02*
X7195781Y-15556124D01*
X7195781Y-15556124D02*
X7176733Y-15546600D01*
X7176733Y-15546600D02*
X7167209Y-15537076D01*
X7167209Y-15537076D02*
X7157686Y-15518028D01*
X7157686Y-15518028D02*
X7148162Y-15479933D01*
X7148162Y-15479933D02*
X7148162Y-15432314D01*
X7148162Y-15432314D02*
X7157686Y-15394219D01*
X7157686Y-15394219D02*
X7167209Y-15375171D01*
X7167209Y-15375171D02*
X7176733Y-15365648D01*
X7176733Y-15365648D02*
X7195781Y-15356124D01*
X7348162Y-15556124D02*
X7348162Y-15422790D01*
X7348162Y-15441838D02*
X7357686Y-15432314D01*
X7357686Y-15432314D02*
X7376733Y-15422790D01*
X7376733Y-15422790D02*
X7405305Y-15422790D01*
X7405305Y-15422790D02*
X7424352Y-15432314D01*
X7424352Y-15432314D02*
X7433876Y-15451362D01*
X7433876Y-15451362D02*
X7433876Y-15556124D01*
X7433876Y-15451362D02*
X7443400Y-15432314D01*
X7443400Y-15432314D02*
X7462448Y-15422790D01*
X7462448Y-15422790D02*
X7491019Y-15422790D01*
X7491019Y-15422790D02*
X7510067Y-15432314D01*
X7510067Y-15432314D02*
X7519590Y-15451362D01*
X7519590Y-15451362D02*
X7519590Y-15556124D01*
X7614829Y-15556124D02*
X7614829Y-15422790D01*
X7614829Y-15441838D02*
X7624352Y-15432314D01*
X7624352Y-15432314D02*
X7643400Y-15422790D01*
X7643400Y-15422790D02*
X7671971Y-15422790D01*
X7671971Y-15422790D02*
X7691019Y-15432314D01*
X7691019Y-15432314D02*
X7700543Y-15451362D01*
X7700543Y-15451362D02*
X7700543Y-15556124D01*
X7700543Y-15451362D02*
X7710067Y-15432314D01*
X7710067Y-15432314D02*
X7729114Y-15422790D01*
X7729114Y-15422790D02*
X7757686Y-15422790D01*
X7757686Y-15422790D02*
X7776733Y-15432314D01*
X7776733Y-15432314D02*
X7786257Y-15451362D01*
X7786257Y-15451362D02*
X7786257Y-15556124D01*
X8176733Y-15346600D02*
X8005305Y-15603743D01*
X8433876Y-15356124D02*
X8452924Y-15356124D01*
X8452924Y-15356124D02*
X8471972Y-15365648D01*
X8471972Y-15365648D02*
X8481495Y-15375171D01*
X8481495Y-15375171D02*
X8491019Y-15394219D01*
X8491019Y-15394219D02*
X8500543Y-15432314D01*
X8500543Y-15432314D02*
X8500543Y-15479933D01*
X8500543Y-15479933D02*
X8491019Y-15518028D01*
X8491019Y-15518028D02*
X8481495Y-15537076D01*
X8481495Y-15537076D02*
X8471972Y-15546600D01*
X8471972Y-15546600D02*
X8452924Y-15556124D01*
X8452924Y-15556124D02*
X8433876Y-15556124D01*
X8433876Y-15556124D02*
X8414829Y-15546600D01*
X8414829Y-15546600D02*
X8405305Y-15537076D01*
X8405305Y-15537076D02*
X8395781Y-15518028D01*
X8395781Y-15518028D02*
X8386257Y-15479933D01*
X8386257Y-15479933D02*
X8386257Y-15432314D01*
X8386257Y-15432314D02*
X8395781Y-15394219D01*
X8395781Y-15394219D02*
X8405305Y-15375171D01*
X8405305Y-15375171D02*
X8414829Y-15365648D01*
X8414829Y-15365648D02*
X8433876Y-15356124D01*
X8586257Y-15537076D02*
X8595781Y-15546600D01*
X8595781Y-15546600D02*
X8586257Y-15556124D01*
X8586257Y-15556124D02*
X8576734Y-15546600D01*
X8576734Y-15546600D02*
X8586257Y-15537076D01*
X8586257Y-15537076D02*
X8586257Y-15556124D01*
X8719591Y-15356124D02*
X8738638Y-15356124D01*
X8738638Y-15356124D02*
X8757686Y-15365648D01*
X8757686Y-15365648D02*
X8767210Y-15375171D01*
X8767210Y-15375171D02*
X8776734Y-15394219D01*
X8776734Y-15394219D02*
X8786257Y-15432314D01*
X8786257Y-15432314D02*
X8786257Y-15479933D01*
X8786257Y-15479933D02*
X8776734Y-15518028D01*
X8776734Y-15518028D02*
X8767210Y-15537076D01*
X8767210Y-15537076D02*
X8757686Y-15546600D01*
X8757686Y-15546600D02*
X8738638Y-15556124D01*
X8738638Y-15556124D02*
X8719591Y-15556124D01*
X8719591Y-15556124D02*
X8700543Y-15546600D01*
X8700543Y-15546600D02*
X8691019Y-15537076D01*
X8691019Y-15537076D02*
X8681495Y-15518028D01*
X8681495Y-15518028D02*
X8671972Y-15479933D01*
X8671972Y-15479933D02*
X8671972Y-15432314D01*
X8671972Y-15432314D02*
X8681495Y-15394219D01*
X8681495Y-15394219D02*
X8691019Y-15375171D01*
X8691019Y-15375171D02*
X8700543Y-15365648D01*
X8700543Y-15365648D02*
X8719591Y-15356124D01*
X8957686Y-15422790D02*
X8957686Y-15556124D01*
X8910067Y-15346600D02*
X8862448Y-15489457D01*
X8862448Y-15489457D02*
X8986257Y-15489457D01*
X9148162Y-15356124D02*
X9110067Y-15356124D01*
X9110067Y-15356124D02*
X9091019Y-15365648D01*
X9091019Y-15365648D02*
X9081495Y-15375171D01*
X9081495Y-15375171D02*
X9062448Y-15403743D01*
X9062448Y-15403743D02*
X9052924Y-15441838D01*
X9052924Y-15441838D02*
X9052924Y-15518028D01*
X9052924Y-15518028D02*
X9062448Y-15537076D01*
X9062448Y-15537076D02*
X9071972Y-15546600D01*
X9071972Y-15546600D02*
X9091019Y-15556124D01*
X9091019Y-15556124D02*
X9129115Y-15556124D01*
X9129115Y-15556124D02*
X9148162Y-15546600D01*
X9148162Y-15546600D02*
X9157686Y-15537076D01*
X9157686Y-15537076D02*
X9167210Y-15518028D01*
X9167210Y-15518028D02*
X9167210Y-15470409D01*
X9167210Y-15470409D02*
X9157686Y-15451362D01*
X9157686Y-15451362D02*
X9148162Y-15441838D01*
X9148162Y-15441838D02*
X9129115Y-15432314D01*
X9129115Y-15432314D02*
X9091019Y-15432314D01*
X9091019Y-15432314D02*
X9071972Y-15441838D01*
X9071972Y-15441838D02*
X9062448Y-15451362D01*
X9062448Y-15451362D02*
X9052924Y-15470409D01*
X9262448Y-15556124D02*
X9300543Y-15556124D01*
X9300543Y-15556124D02*
X9319591Y-15546600D01*
X9319591Y-15546600D02*
X9329115Y-15537076D01*
X9329115Y-15537076D02*
X9348162Y-15508505D01*
X9348162Y-15508505D02*
X9357686Y-15470409D01*
X9357686Y-15470409D02*
X9357686Y-15394219D01*
X9357686Y-15394219D02*
X9348162Y-15375171D01*
X9348162Y-15375171D02*
X9338638Y-15365648D01*
X9338638Y-15365648D02*
X9319591Y-15356124D01*
X9319591Y-15356124D02*
X9281495Y-15356124D01*
X9281495Y-15356124D02*
X9262448Y-15365648D01*
X9262448Y-15365648D02*
X9252924Y-15375171D01*
X9252924Y-15375171D02*
X9243400Y-15394219D01*
X9243400Y-15394219D02*
X9243400Y-15441838D01*
X9243400Y-15441838D02*
X9252924Y-15460886D01*
X9252924Y-15460886D02*
X9262448Y-15470409D01*
X9262448Y-15470409D02*
X9281495Y-15479933D01*
X9281495Y-15479933D02*
X9319591Y-15479933D01*
X9319591Y-15479933D02*
X9338638Y-15470409D01*
X9338638Y-15470409D02*
X9348162Y-15460886D01*
X9348162Y-15460886D02*
X9357686Y-15441838D01*
X9433876Y-15356124D02*
X9433876Y-15394219D01*
X9510067Y-15356124D02*
X9510067Y-15394219D01*
X9805305Y-15632314D02*
X9795781Y-15622790D01*
X9795781Y-15622790D02*
X9776734Y-15594219D01*
X9776734Y-15594219D02*
X9767210Y-15575171D01*
X9767210Y-15575171D02*
X9757686Y-15546600D01*
X9757686Y-15546600D02*
X9748162Y-15498981D01*
X9748162Y-15498981D02*
X9748162Y-15460886D01*
X9748162Y-15460886D02*
X9757686Y-15413267D01*
X9757686Y-15413267D02*
X9767210Y-15384695D01*
X9767210Y-15384695D02*
X9776734Y-15365648D01*
X9776734Y-15365648D02*
X9795781Y-15337076D01*
X9795781Y-15337076D02*
X9805305Y-15327552D01*
X9986257Y-15556124D02*
X9871972Y-15556124D01*
X9929115Y-15556124D02*
X9929115Y-15356124D01*
X9929115Y-15356124D02*
X9910067Y-15384695D01*
X9910067Y-15384695D02*
X9891019Y-15403743D01*
X9891019Y-15403743D02*
X9871972Y-15413267D01*
X10157686Y-15356124D02*
X10119591Y-15356124D01*
X10119591Y-15356124D02*
X10100543Y-15365648D01*
X10100543Y-15365648D02*
X10091019Y-15375171D01*
X10091019Y-15375171D02*
X10071972Y-15403743D01*
X10071972Y-15403743D02*
X10062448Y-15441838D01*
X10062448Y-15441838D02*
X10062448Y-15518028D01*
X10062448Y-15518028D02*
X10071972Y-15537076D01*
X10071972Y-15537076D02*
X10081496Y-15546600D01*
X10081496Y-15546600D02*
X10100543Y-15556124D01*
X10100543Y-15556124D02*
X10138638Y-15556124D01*
X10138638Y-15556124D02*
X10157686Y-15546600D01*
X10157686Y-15546600D02*
X10167210Y-15537076D01*
X10167210Y-15537076D02*
X10176734Y-15518028D01*
X10176734Y-15518028D02*
X10176734Y-15470409D01*
X10176734Y-15470409D02*
X10167210Y-15451362D01*
X10167210Y-15451362D02*
X10157686Y-15441838D01*
X10157686Y-15441838D02*
X10138638Y-15432314D01*
X10138638Y-15432314D02*
X10100543Y-15432314D01*
X10100543Y-15432314D02*
X10081496Y-15441838D01*
X10081496Y-15441838D02*
X10071972Y-15451362D01*
X10071972Y-15451362D02*
X10062448Y-15470409D01*
X10414829Y-15556124D02*
X10414829Y-15356124D01*
X10500543Y-15556124D02*
X10500543Y-15451362D01*
X10500543Y-15451362D02*
X10491019Y-15432314D01*
X10491019Y-15432314D02*
X10471972Y-15422790D01*
X10471972Y-15422790D02*
X10443400Y-15422790D01*
X10443400Y-15422790D02*
X10424353Y-15432314D01*
X10424353Y-15432314D02*
X10414829Y-15441838D01*
X10624353Y-15556124D02*
X10605305Y-15546600D01*
X10605305Y-15546600D02*
X10595781Y-15537076D01*
X10595781Y-15537076D02*
X10586258Y-15518028D01*
X10586258Y-15518028D02*
X10586258Y-15460886D01*
X10586258Y-15460886D02*
X10595781Y-15441838D01*
X10595781Y-15441838D02*
X10605305Y-15432314D01*
X10605305Y-15432314D02*
X10624353Y-15422790D01*
X10624353Y-15422790D02*
X10652924Y-15422790D01*
X10652924Y-15422790D02*
X10671972Y-15432314D01*
X10671972Y-15432314D02*
X10681496Y-15441838D01*
X10681496Y-15441838D02*
X10691019Y-15460886D01*
X10691019Y-15460886D02*
X10691019Y-15518028D01*
X10691019Y-15518028D02*
X10681496Y-15537076D01*
X10681496Y-15537076D02*
X10671972Y-15546600D01*
X10671972Y-15546600D02*
X10652924Y-15556124D01*
X10652924Y-15556124D02*
X10624353Y-15556124D01*
X10805305Y-15556124D02*
X10786258Y-15546600D01*
X10786258Y-15546600D02*
X10776734Y-15527552D01*
X10776734Y-15527552D02*
X10776734Y-15356124D01*
X10957686Y-15546600D02*
X10938639Y-15556124D01*
X10938639Y-15556124D02*
X10900543Y-15556124D01*
X10900543Y-15556124D02*
X10881496Y-15546600D01*
X10881496Y-15546600D02*
X10871972Y-15527552D01*
X10871972Y-15527552D02*
X10871972Y-15451362D01*
X10871972Y-15451362D02*
X10881496Y-15432314D01*
X10881496Y-15432314D02*
X10900543Y-15422790D01*
X10900543Y-15422790D02*
X10938639Y-15422790D01*
X10938639Y-15422790D02*
X10957686Y-15432314D01*
X10957686Y-15432314D02*
X10967210Y-15451362D01*
X10967210Y-15451362D02*
X10967210Y-15470409D01*
X10967210Y-15470409D02*
X10871972Y-15489457D01*
X11043400Y-15546600D02*
X11062448Y-15556124D01*
X11062448Y-15556124D02*
X11100543Y-15556124D01*
X11100543Y-15556124D02*
X11119591Y-15546600D01*
X11119591Y-15546600D02*
X11129115Y-15527552D01*
X11129115Y-15527552D02*
X11129115Y-15518028D01*
X11129115Y-15518028D02*
X11119591Y-15498981D01*
X11119591Y-15498981D02*
X11100543Y-15489457D01*
X11100543Y-15489457D02*
X11071972Y-15489457D01*
X11071972Y-15489457D02*
X11052924Y-15479933D01*
X11052924Y-15479933D02*
X11043400Y-15460886D01*
X11043400Y-15460886D02*
X11043400Y-15451362D01*
X11043400Y-15451362D02*
X11052924Y-15432314D01*
X11052924Y-15432314D02*
X11071972Y-15422790D01*
X11071972Y-15422790D02*
X11100543Y-15422790D01*
X11100543Y-15422790D02*
X11119591Y-15432314D01*
X11195781Y-15632314D02*
X11205305Y-15622790D01*
X11205305Y-15622790D02*
X11224353Y-15594219D01*
X11224353Y-15594219D02*
X11233877Y-15575171D01*
X11233877Y-15575171D02*
X11243400Y-15546600D01*
X11243400Y-15546600D02*
X11252924Y-15498981D01*
X11252924Y-15498981D02*
X11252924Y-15460886D01*
X11252924Y-15460886D02*
X11243400Y-15413267D01*
X11243400Y-15413267D02*
X11233877Y-15384695D01*
X11233877Y-15384695D02*
X11224353Y-15365648D01*
X11224353Y-15365648D02*
X11205305Y-15337076D01*
X11205305Y-15337076D02*
X11195781Y-15327552D01*
M02*
