G04 #@! TF.GenerationSoftware,KiCad,Pcbnew,7.0.1*
G04 #@! TF.CreationDate,2025-03-09T11:20:59-05:00*
G04 #@! TF.ProjectId,Shift Register Mosfet Array V3,53686966-7420-4526-9567-697374657220,rev?*
G04 #@! TF.SameCoordinates,Original*
G04 #@! TF.FileFunction,Soldermask,Bot*
G04 #@! TF.FilePolarity,Negative*
%FSLAX46Y46*%
G04 Gerber Fmt 4.6, Leading zero omitted, Abs format (unit mm)*
G04 Created by KiCad (PCBNEW 7.0.1) date 2025-03-09 11:20:59*
%MOMM*%
%LPD*%
G01*
G04 APERTURE LIST*
G04 Aperture macros list*
%AMRoundRect*
0 Rectangle with rounded corners*
0 $1 Rounding radius*
0 $2 $3 $4 $5 $6 $7 $8 $9 X,Y pos of 4 corners*
0 Add a 4 corners polygon primitive as box body*
4,1,4,$2,$3,$4,$5,$6,$7,$8,$9,$2,$3,0*
0 Add four circle primitives for the rounded corners*
1,1,$1+$1,$2,$3*
1,1,$1+$1,$4,$5*
1,1,$1+$1,$6,$7*
1,1,$1+$1,$8,$9*
0 Add four rect primitives between the rounded corners*
20,1,$1+$1,$2,$3,$4,$5,0*
20,1,$1+$1,$4,$5,$6,$7,0*
20,1,$1+$1,$6,$7,$8,$9,0*
20,1,$1+$1,$8,$9,$2,$3,0*%
G04 Aperture macros list end*
%ADD10C,3.200000*%
%ADD11R,1.700000X1.700000*%
%ADD12O,1.700000X1.700000*%
%ADD13RoundRect,0.250000X0.620000X0.845000X-0.620000X0.845000X-0.620000X-0.845000X0.620000X-0.845000X0*%
%ADD14O,1.740000X2.190000*%
G04 APERTURE END LIST*
D10*
X68500000Y-94996000D03*
D11*
X135890000Y-96690000D03*
D12*
X138430000Y-96690000D03*
X140970000Y-96690000D03*
X143510000Y-96690000D03*
X146050000Y-96690000D03*
X148590000Y-96690000D03*
X87376000Y-96944000D03*
X84836000Y-96944000D03*
X82296000Y-96944000D03*
X79756000Y-96944000D03*
X77216000Y-96944000D03*
D11*
X74676000Y-96944000D03*
D10*
X154000000Y-94996000D03*
D13*
X136332000Y-129968000D03*
D14*
X133792000Y-129968000D03*
D11*
X138792000Y-129968000D03*
X118792000Y-129968000D03*
D13*
X116332000Y-129968000D03*
D14*
X113792000Y-129968000D03*
D11*
X108792000Y-129968000D03*
D13*
X106332000Y-129968000D03*
D14*
X103792000Y-129968000D03*
D11*
X128792000Y-129968000D03*
D13*
X126332000Y-129968000D03*
D14*
X123792000Y-129968000D03*
D13*
X86332000Y-129968000D03*
D14*
X83792000Y-129968000D03*
D11*
X88792000Y-129968000D03*
X98792000Y-129968000D03*
D13*
X96332000Y-129968000D03*
D14*
X93792000Y-129968000D03*
D11*
X78792000Y-129968000D03*
D14*
X73792000Y-129968000D03*
D13*
X76332000Y-129968000D03*
X146332000Y-129968000D03*
D14*
X143792000Y-129968000D03*
D11*
X148792000Y-129968000D03*
D10*
X68484000Y-136906000D03*
X153984000Y-136906000D03*
D11*
X68834000Y-131318000D03*
D12*
X68834000Y-128778000D03*
X68834000Y-126238000D03*
X68834000Y-123698000D03*
D11*
X154178000Y-123698000D03*
D12*
X154178000Y-126238000D03*
X154178000Y-128778000D03*
X154178000Y-131318000D03*
M02*
