%TF.GenerationSoftware,KiCad,Pcbnew,7.0.1*%
%TF.CreationDate,2025-03-09T11:22:31-05:00*%
%TF.ProjectId,Shift Register Mosfet Array V3,53686966-7420-4526-9567-697374657220,rev?*%
%TF.SameCoordinates,Original*%
%TF.FileFunction,Drillmap*%
%TF.FilePolarity,Positive*%
%FSLAX45Y45*%
G04 Gerber Fmt 4.5, Leading zero omitted, Abs format (unit mm)*
G04 Created by KiCad (PCBNEW 7.0.1) date 2025-03-09 11:22:31*
%MOMM*%
%LPD*%
G01*
G04 APERTURE LIST*
%ADD10C,0.100000*%
%ADD11C,0.200000*%
%ADD12C,0.320000*%
G04 APERTURE END LIST*
D10*
X15400000Y-8899600D02*
X6850000Y-8899600D01*
X16000000Y-9499600D02*
G75*
G03*
X15400000Y-8899600I-600000J0D01*
G01*
X6850000Y-8899600D02*
G75*
G03*
X6250000Y-9499600I0J-600000D01*
G01*
X6848400Y-14290600D02*
X15398400Y-14290600D01*
X15398400Y-14290600D02*
G75*
G03*
X15998400Y-13690600I0J600000D01*
G01*
X6250000Y-9499600D02*
X6248400Y-13690600D01*
X6248400Y-13690600D02*
G75*
G03*
X6848400Y-14290600I600000J0D01*
G01*
X15998400Y-13690600D02*
X16000000Y-9499600D01*
D11*
D12*
X6688400Y-13530600D02*
X7008400Y-13850600D01*
X7008400Y-13530600D02*
X6688400Y-13850600D01*
X6690000Y-9339600D02*
X7010000Y-9659600D01*
X7010000Y-9339600D02*
X6690000Y-9659600D01*
X15238400Y-13530600D02*
X15558400Y-13850600D01*
X15558400Y-13530600D02*
X15238400Y-13850600D01*
X15240000Y-9339600D02*
X15560000Y-9659600D01*
X15560000Y-9339600D02*
X15240000Y-9659600D01*
D11*
X6491019Y-14608124D02*
X6491019Y-14408124D01*
X6491019Y-14408124D02*
X6538638Y-14408124D01*
X6538638Y-14408124D02*
X6567209Y-14417648D01*
X6567209Y-14417648D02*
X6586257Y-14436695D01*
X6586257Y-14436695D02*
X6595781Y-14455743D01*
X6595781Y-14455743D02*
X6605305Y-14493838D01*
X6605305Y-14493838D02*
X6605305Y-14522409D01*
X6605305Y-14522409D02*
X6595781Y-14560505D01*
X6595781Y-14560505D02*
X6586257Y-14579552D01*
X6586257Y-14579552D02*
X6567209Y-14598600D01*
X6567209Y-14598600D02*
X6538638Y-14608124D01*
X6538638Y-14608124D02*
X6491019Y-14608124D01*
X6691019Y-14608124D02*
X6691019Y-14474790D01*
X6691019Y-14512886D02*
X6700543Y-14493838D01*
X6700543Y-14493838D02*
X6710067Y-14484314D01*
X6710067Y-14484314D02*
X6729114Y-14474790D01*
X6729114Y-14474790D02*
X6748162Y-14474790D01*
X6814828Y-14608124D02*
X6814828Y-14474790D01*
X6814828Y-14408124D02*
X6805305Y-14417648D01*
X6805305Y-14417648D02*
X6814828Y-14427171D01*
X6814828Y-14427171D02*
X6824352Y-14417648D01*
X6824352Y-14417648D02*
X6814828Y-14408124D01*
X6814828Y-14408124D02*
X6814828Y-14427171D01*
X6938638Y-14608124D02*
X6919590Y-14598600D01*
X6919590Y-14598600D02*
X6910067Y-14579552D01*
X6910067Y-14579552D02*
X6910067Y-14408124D01*
X7043400Y-14608124D02*
X7024352Y-14598600D01*
X7024352Y-14598600D02*
X7014828Y-14579552D01*
X7014828Y-14579552D02*
X7014828Y-14408124D01*
X7271971Y-14608124D02*
X7271971Y-14408124D01*
X7271971Y-14408124D02*
X7338638Y-14550981D01*
X7338638Y-14550981D02*
X7405305Y-14408124D01*
X7405305Y-14408124D02*
X7405305Y-14608124D01*
X7586257Y-14608124D02*
X7586257Y-14503362D01*
X7586257Y-14503362D02*
X7576733Y-14484314D01*
X7576733Y-14484314D02*
X7557686Y-14474790D01*
X7557686Y-14474790D02*
X7519590Y-14474790D01*
X7519590Y-14474790D02*
X7500543Y-14484314D01*
X7586257Y-14598600D02*
X7567209Y-14608124D01*
X7567209Y-14608124D02*
X7519590Y-14608124D01*
X7519590Y-14608124D02*
X7500543Y-14598600D01*
X7500543Y-14598600D02*
X7491019Y-14579552D01*
X7491019Y-14579552D02*
X7491019Y-14560505D01*
X7491019Y-14560505D02*
X7500543Y-14541457D01*
X7500543Y-14541457D02*
X7519590Y-14531933D01*
X7519590Y-14531933D02*
X7567209Y-14531933D01*
X7567209Y-14531933D02*
X7586257Y-14522409D01*
X7681495Y-14474790D02*
X7681495Y-14674790D01*
X7681495Y-14484314D02*
X7700543Y-14474790D01*
X7700543Y-14474790D02*
X7738638Y-14474790D01*
X7738638Y-14474790D02*
X7757686Y-14484314D01*
X7757686Y-14484314D02*
X7767209Y-14493838D01*
X7767209Y-14493838D02*
X7776733Y-14512886D01*
X7776733Y-14512886D02*
X7776733Y-14570028D01*
X7776733Y-14570028D02*
X7767209Y-14589076D01*
X7767209Y-14589076D02*
X7757686Y-14598600D01*
X7757686Y-14598600D02*
X7738638Y-14608124D01*
X7738638Y-14608124D02*
X7700543Y-14608124D01*
X7700543Y-14608124D02*
X7681495Y-14598600D01*
X7862448Y-14589076D02*
X7871971Y-14598600D01*
X7871971Y-14598600D02*
X7862448Y-14608124D01*
X7862448Y-14608124D02*
X7852924Y-14598600D01*
X7852924Y-14598600D02*
X7862448Y-14589076D01*
X7862448Y-14589076D02*
X7862448Y-14608124D01*
X7862448Y-14484314D02*
X7871971Y-14493838D01*
X7871971Y-14493838D02*
X7862448Y-14503362D01*
X7862448Y-14503362D02*
X7852924Y-14493838D01*
X7852924Y-14493838D02*
X7862448Y-14484314D01*
X7862448Y-14484314D02*
X7862448Y-14503362D01*
X6043400Y-14835600D02*
X6243400Y-15035600D01*
X6243400Y-14835600D02*
X6043400Y-15035600D01*
X6471971Y-14828124D02*
X6595781Y-14828124D01*
X6595781Y-14828124D02*
X6529114Y-14904314D01*
X6529114Y-14904314D02*
X6557686Y-14904314D01*
X6557686Y-14904314D02*
X6576733Y-14913838D01*
X6576733Y-14913838D02*
X6586257Y-14923362D01*
X6586257Y-14923362D02*
X6595781Y-14942409D01*
X6595781Y-14942409D02*
X6595781Y-14990028D01*
X6595781Y-14990028D02*
X6586257Y-15009076D01*
X6586257Y-15009076D02*
X6576733Y-15018600D01*
X6576733Y-15018600D02*
X6557686Y-15028124D01*
X6557686Y-15028124D02*
X6500543Y-15028124D01*
X6500543Y-15028124D02*
X6481495Y-15018600D01*
X6481495Y-15018600D02*
X6471971Y-15009076D01*
X6681495Y-15009076D02*
X6691019Y-15018600D01*
X6691019Y-15018600D02*
X6681495Y-15028124D01*
X6681495Y-15028124D02*
X6671971Y-15018600D01*
X6671971Y-15018600D02*
X6681495Y-15009076D01*
X6681495Y-15009076D02*
X6681495Y-15028124D01*
X6767209Y-14847171D02*
X6776733Y-14837648D01*
X6776733Y-14837648D02*
X6795781Y-14828124D01*
X6795781Y-14828124D02*
X6843400Y-14828124D01*
X6843400Y-14828124D02*
X6862448Y-14837648D01*
X6862448Y-14837648D02*
X6871971Y-14847171D01*
X6871971Y-14847171D02*
X6881495Y-14866219D01*
X6881495Y-14866219D02*
X6881495Y-14885267D01*
X6881495Y-14885267D02*
X6871971Y-14913838D01*
X6871971Y-14913838D02*
X6757686Y-15028124D01*
X6757686Y-15028124D02*
X6881495Y-15028124D01*
X7005305Y-14828124D02*
X7024352Y-14828124D01*
X7024352Y-14828124D02*
X7043400Y-14837648D01*
X7043400Y-14837648D02*
X7052924Y-14847171D01*
X7052924Y-14847171D02*
X7062448Y-14866219D01*
X7062448Y-14866219D02*
X7071971Y-14904314D01*
X7071971Y-14904314D02*
X7071971Y-14951933D01*
X7071971Y-14951933D02*
X7062448Y-14990028D01*
X7062448Y-14990028D02*
X7052924Y-15009076D01*
X7052924Y-15009076D02*
X7043400Y-15018600D01*
X7043400Y-15018600D02*
X7024352Y-15028124D01*
X7024352Y-15028124D02*
X7005305Y-15028124D01*
X7005305Y-15028124D02*
X6986257Y-15018600D01*
X6986257Y-15018600D02*
X6976733Y-15009076D01*
X6976733Y-15009076D02*
X6967209Y-14990028D01*
X6967209Y-14990028D02*
X6957686Y-14951933D01*
X6957686Y-14951933D02*
X6957686Y-14904314D01*
X6957686Y-14904314D02*
X6967209Y-14866219D01*
X6967209Y-14866219D02*
X6976733Y-14847171D01*
X6976733Y-14847171D02*
X6986257Y-14837648D01*
X6986257Y-14837648D02*
X7005305Y-14828124D01*
X7195781Y-14828124D02*
X7214829Y-14828124D01*
X7214829Y-14828124D02*
X7233876Y-14837648D01*
X7233876Y-14837648D02*
X7243400Y-14847171D01*
X7243400Y-14847171D02*
X7252924Y-14866219D01*
X7252924Y-14866219D02*
X7262448Y-14904314D01*
X7262448Y-14904314D02*
X7262448Y-14951933D01*
X7262448Y-14951933D02*
X7252924Y-14990028D01*
X7252924Y-14990028D02*
X7243400Y-15009076D01*
X7243400Y-15009076D02*
X7233876Y-15018600D01*
X7233876Y-15018600D02*
X7214829Y-15028124D01*
X7214829Y-15028124D02*
X7195781Y-15028124D01*
X7195781Y-15028124D02*
X7176733Y-15018600D01*
X7176733Y-15018600D02*
X7167209Y-15009076D01*
X7167209Y-15009076D02*
X7157686Y-14990028D01*
X7157686Y-14990028D02*
X7148162Y-14951933D01*
X7148162Y-14951933D02*
X7148162Y-14904314D01*
X7148162Y-14904314D02*
X7157686Y-14866219D01*
X7157686Y-14866219D02*
X7167209Y-14847171D01*
X7167209Y-14847171D02*
X7176733Y-14837648D01*
X7176733Y-14837648D02*
X7195781Y-14828124D01*
X7348162Y-15028124D02*
X7348162Y-14894790D01*
X7348162Y-14913838D02*
X7357686Y-14904314D01*
X7357686Y-14904314D02*
X7376733Y-14894790D01*
X7376733Y-14894790D02*
X7405305Y-14894790D01*
X7405305Y-14894790D02*
X7424352Y-14904314D01*
X7424352Y-14904314D02*
X7433876Y-14923362D01*
X7433876Y-14923362D02*
X7433876Y-15028124D01*
X7433876Y-14923362D02*
X7443400Y-14904314D01*
X7443400Y-14904314D02*
X7462448Y-14894790D01*
X7462448Y-14894790D02*
X7491019Y-14894790D01*
X7491019Y-14894790D02*
X7510067Y-14904314D01*
X7510067Y-14904314D02*
X7519590Y-14923362D01*
X7519590Y-14923362D02*
X7519590Y-15028124D01*
X7614829Y-15028124D02*
X7614829Y-14894790D01*
X7614829Y-14913838D02*
X7624352Y-14904314D01*
X7624352Y-14904314D02*
X7643400Y-14894790D01*
X7643400Y-14894790D02*
X7671971Y-14894790D01*
X7671971Y-14894790D02*
X7691019Y-14904314D01*
X7691019Y-14904314D02*
X7700543Y-14923362D01*
X7700543Y-14923362D02*
X7700543Y-15028124D01*
X7700543Y-14923362D02*
X7710067Y-14904314D01*
X7710067Y-14904314D02*
X7729114Y-14894790D01*
X7729114Y-14894790D02*
X7757686Y-14894790D01*
X7757686Y-14894790D02*
X7776733Y-14904314D01*
X7776733Y-14904314D02*
X7786257Y-14923362D01*
X7786257Y-14923362D02*
X7786257Y-15028124D01*
X8176733Y-14818600D02*
X8005305Y-15075743D01*
X8433876Y-14828124D02*
X8452924Y-14828124D01*
X8452924Y-14828124D02*
X8471972Y-14837648D01*
X8471972Y-14837648D02*
X8481495Y-14847171D01*
X8481495Y-14847171D02*
X8491019Y-14866219D01*
X8491019Y-14866219D02*
X8500543Y-14904314D01*
X8500543Y-14904314D02*
X8500543Y-14951933D01*
X8500543Y-14951933D02*
X8491019Y-14990028D01*
X8491019Y-14990028D02*
X8481495Y-15009076D01*
X8481495Y-15009076D02*
X8471972Y-15018600D01*
X8471972Y-15018600D02*
X8452924Y-15028124D01*
X8452924Y-15028124D02*
X8433876Y-15028124D01*
X8433876Y-15028124D02*
X8414829Y-15018600D01*
X8414829Y-15018600D02*
X8405305Y-15009076D01*
X8405305Y-15009076D02*
X8395781Y-14990028D01*
X8395781Y-14990028D02*
X8386257Y-14951933D01*
X8386257Y-14951933D02*
X8386257Y-14904314D01*
X8386257Y-14904314D02*
X8395781Y-14866219D01*
X8395781Y-14866219D02*
X8405305Y-14847171D01*
X8405305Y-14847171D02*
X8414829Y-14837648D01*
X8414829Y-14837648D02*
X8433876Y-14828124D01*
X8586257Y-15009076D02*
X8595781Y-15018600D01*
X8595781Y-15018600D02*
X8586257Y-15028124D01*
X8586257Y-15028124D02*
X8576734Y-15018600D01*
X8576734Y-15018600D02*
X8586257Y-15009076D01*
X8586257Y-15009076D02*
X8586257Y-15028124D01*
X8786257Y-15028124D02*
X8671972Y-15028124D01*
X8729114Y-15028124D02*
X8729114Y-14828124D01*
X8729114Y-14828124D02*
X8710067Y-14856695D01*
X8710067Y-14856695D02*
X8691019Y-14875743D01*
X8691019Y-14875743D02*
X8671972Y-14885267D01*
X8862448Y-14847171D02*
X8871972Y-14837648D01*
X8871972Y-14837648D02*
X8891019Y-14828124D01*
X8891019Y-14828124D02*
X8938638Y-14828124D01*
X8938638Y-14828124D02*
X8957686Y-14837648D01*
X8957686Y-14837648D02*
X8967210Y-14847171D01*
X8967210Y-14847171D02*
X8976734Y-14866219D01*
X8976734Y-14866219D02*
X8976734Y-14885267D01*
X8976734Y-14885267D02*
X8967210Y-14913838D01*
X8967210Y-14913838D02*
X8852924Y-15028124D01*
X8852924Y-15028124D02*
X8976734Y-15028124D01*
X9148162Y-14828124D02*
X9110067Y-14828124D01*
X9110067Y-14828124D02*
X9091019Y-14837648D01*
X9091019Y-14837648D02*
X9081495Y-14847171D01*
X9081495Y-14847171D02*
X9062448Y-14875743D01*
X9062448Y-14875743D02*
X9052924Y-14913838D01*
X9052924Y-14913838D02*
X9052924Y-14990028D01*
X9052924Y-14990028D02*
X9062448Y-15009076D01*
X9062448Y-15009076D02*
X9071972Y-15018600D01*
X9071972Y-15018600D02*
X9091019Y-15028124D01*
X9091019Y-15028124D02*
X9129115Y-15028124D01*
X9129115Y-15028124D02*
X9148162Y-15018600D01*
X9148162Y-15018600D02*
X9157686Y-15009076D01*
X9157686Y-15009076D02*
X9167210Y-14990028D01*
X9167210Y-14990028D02*
X9167210Y-14942409D01*
X9167210Y-14942409D02*
X9157686Y-14923362D01*
X9157686Y-14923362D02*
X9148162Y-14913838D01*
X9148162Y-14913838D02*
X9129115Y-14904314D01*
X9129115Y-14904314D02*
X9091019Y-14904314D01*
X9091019Y-14904314D02*
X9071972Y-14913838D01*
X9071972Y-14913838D02*
X9062448Y-14923362D01*
X9062448Y-14923362D02*
X9052924Y-14942409D01*
X9291019Y-14828124D02*
X9310067Y-14828124D01*
X9310067Y-14828124D02*
X9329115Y-14837648D01*
X9329115Y-14837648D02*
X9338638Y-14847171D01*
X9338638Y-14847171D02*
X9348162Y-14866219D01*
X9348162Y-14866219D02*
X9357686Y-14904314D01*
X9357686Y-14904314D02*
X9357686Y-14951933D01*
X9357686Y-14951933D02*
X9348162Y-14990028D01*
X9348162Y-14990028D02*
X9338638Y-15009076D01*
X9338638Y-15009076D02*
X9329115Y-15018600D01*
X9329115Y-15018600D02*
X9310067Y-15028124D01*
X9310067Y-15028124D02*
X9291019Y-15028124D01*
X9291019Y-15028124D02*
X9271972Y-15018600D01*
X9271972Y-15018600D02*
X9262448Y-15009076D01*
X9262448Y-15009076D02*
X9252924Y-14990028D01*
X9252924Y-14990028D02*
X9243400Y-14951933D01*
X9243400Y-14951933D02*
X9243400Y-14904314D01*
X9243400Y-14904314D02*
X9252924Y-14866219D01*
X9252924Y-14866219D02*
X9262448Y-14847171D01*
X9262448Y-14847171D02*
X9271972Y-14837648D01*
X9271972Y-14837648D02*
X9291019Y-14828124D01*
X9433876Y-14828124D02*
X9433876Y-14866219D01*
X9510067Y-14828124D02*
X9510067Y-14866219D01*
X9805305Y-15104314D02*
X9795781Y-15094790D01*
X9795781Y-15094790D02*
X9776734Y-15066219D01*
X9776734Y-15066219D02*
X9767210Y-15047171D01*
X9767210Y-15047171D02*
X9757686Y-15018600D01*
X9757686Y-15018600D02*
X9748162Y-14970981D01*
X9748162Y-14970981D02*
X9748162Y-14932886D01*
X9748162Y-14932886D02*
X9757686Y-14885267D01*
X9757686Y-14885267D02*
X9767210Y-14856695D01*
X9767210Y-14856695D02*
X9776734Y-14837648D01*
X9776734Y-14837648D02*
X9795781Y-14809076D01*
X9795781Y-14809076D02*
X9805305Y-14799552D01*
X9967210Y-14894790D02*
X9967210Y-15028124D01*
X9919591Y-14818600D02*
X9871972Y-14961457D01*
X9871972Y-14961457D02*
X9995781Y-14961457D01*
X10224353Y-15028124D02*
X10224353Y-14828124D01*
X10310067Y-15028124D02*
X10310067Y-14923362D01*
X10310067Y-14923362D02*
X10300543Y-14904314D01*
X10300543Y-14904314D02*
X10281496Y-14894790D01*
X10281496Y-14894790D02*
X10252924Y-14894790D01*
X10252924Y-14894790D02*
X10233877Y-14904314D01*
X10233877Y-14904314D02*
X10224353Y-14913838D01*
X10433877Y-15028124D02*
X10414829Y-15018600D01*
X10414829Y-15018600D02*
X10405305Y-15009076D01*
X10405305Y-15009076D02*
X10395781Y-14990028D01*
X10395781Y-14990028D02*
X10395781Y-14932886D01*
X10395781Y-14932886D02*
X10405305Y-14913838D01*
X10405305Y-14913838D02*
X10414829Y-14904314D01*
X10414829Y-14904314D02*
X10433877Y-14894790D01*
X10433877Y-14894790D02*
X10462448Y-14894790D01*
X10462448Y-14894790D02*
X10481496Y-14904314D01*
X10481496Y-14904314D02*
X10491019Y-14913838D01*
X10491019Y-14913838D02*
X10500543Y-14932886D01*
X10500543Y-14932886D02*
X10500543Y-14990028D01*
X10500543Y-14990028D02*
X10491019Y-15009076D01*
X10491019Y-15009076D02*
X10481496Y-15018600D01*
X10481496Y-15018600D02*
X10462448Y-15028124D01*
X10462448Y-15028124D02*
X10433877Y-15028124D01*
X10614829Y-15028124D02*
X10595781Y-15018600D01*
X10595781Y-15018600D02*
X10586258Y-14999552D01*
X10586258Y-14999552D02*
X10586258Y-14828124D01*
X10767210Y-15018600D02*
X10748162Y-15028124D01*
X10748162Y-15028124D02*
X10710067Y-15028124D01*
X10710067Y-15028124D02*
X10691019Y-15018600D01*
X10691019Y-15018600D02*
X10681496Y-14999552D01*
X10681496Y-14999552D02*
X10681496Y-14923362D01*
X10681496Y-14923362D02*
X10691019Y-14904314D01*
X10691019Y-14904314D02*
X10710067Y-14894790D01*
X10710067Y-14894790D02*
X10748162Y-14894790D01*
X10748162Y-14894790D02*
X10767210Y-14904314D01*
X10767210Y-14904314D02*
X10776734Y-14923362D01*
X10776734Y-14923362D02*
X10776734Y-14942409D01*
X10776734Y-14942409D02*
X10681496Y-14961457D01*
X10852924Y-15018600D02*
X10871972Y-15028124D01*
X10871972Y-15028124D02*
X10910067Y-15028124D01*
X10910067Y-15028124D02*
X10929115Y-15018600D01*
X10929115Y-15018600D02*
X10938639Y-14999552D01*
X10938639Y-14999552D02*
X10938639Y-14990028D01*
X10938639Y-14990028D02*
X10929115Y-14970981D01*
X10929115Y-14970981D02*
X10910067Y-14961457D01*
X10910067Y-14961457D02*
X10881496Y-14961457D01*
X10881496Y-14961457D02*
X10862448Y-14951933D01*
X10862448Y-14951933D02*
X10852924Y-14932886D01*
X10852924Y-14932886D02*
X10852924Y-14923362D01*
X10852924Y-14923362D02*
X10862448Y-14904314D01*
X10862448Y-14904314D02*
X10881496Y-14894790D01*
X10881496Y-14894790D02*
X10910067Y-14894790D01*
X10910067Y-14894790D02*
X10929115Y-14904314D01*
X11005305Y-15104314D02*
X11014829Y-15094790D01*
X11014829Y-15094790D02*
X11033877Y-15066219D01*
X11033877Y-15066219D02*
X11043400Y-15047171D01*
X11043400Y-15047171D02*
X11052924Y-15018600D01*
X11052924Y-15018600D02*
X11062448Y-14970981D01*
X11062448Y-14970981D02*
X11062448Y-14932886D01*
X11062448Y-14932886D02*
X11052924Y-14885267D01*
X11052924Y-14885267D02*
X11043400Y-14856695D01*
X11043400Y-14856695D02*
X11033877Y-14837648D01*
X11033877Y-14837648D02*
X11014829Y-14809076D01*
X11014829Y-14809076D02*
X11005305Y-14799552D01*
X11367210Y-15104314D02*
X11357686Y-15094790D01*
X11357686Y-15094790D02*
X11338638Y-15066219D01*
X11338638Y-15066219D02*
X11329115Y-15047171D01*
X11329115Y-15047171D02*
X11319591Y-15018600D01*
X11319591Y-15018600D02*
X11310067Y-14970981D01*
X11310067Y-14970981D02*
X11310067Y-14932886D01*
X11310067Y-14932886D02*
X11319591Y-14885267D01*
X11319591Y-14885267D02*
X11329115Y-14856695D01*
X11329115Y-14856695D02*
X11338638Y-14837648D01*
X11338638Y-14837648D02*
X11357686Y-14809076D01*
X11357686Y-14809076D02*
X11367210Y-14799552D01*
X11443400Y-14894790D02*
X11443400Y-15028124D01*
X11443400Y-14913838D02*
X11452924Y-14904314D01*
X11452924Y-14904314D02*
X11471972Y-14894790D01*
X11471972Y-14894790D02*
X11500543Y-14894790D01*
X11500543Y-14894790D02*
X11519591Y-14904314D01*
X11519591Y-14904314D02*
X11529115Y-14923362D01*
X11529115Y-14923362D02*
X11529115Y-15028124D01*
X11652924Y-15028124D02*
X11633877Y-15018600D01*
X11633877Y-15018600D02*
X11624353Y-15009076D01*
X11624353Y-15009076D02*
X11614829Y-14990028D01*
X11614829Y-14990028D02*
X11614829Y-14932886D01*
X11614829Y-14932886D02*
X11624353Y-14913838D01*
X11624353Y-14913838D02*
X11633877Y-14904314D01*
X11633877Y-14904314D02*
X11652924Y-14894790D01*
X11652924Y-14894790D02*
X11681496Y-14894790D01*
X11681496Y-14894790D02*
X11700543Y-14904314D01*
X11700543Y-14904314D02*
X11710067Y-14913838D01*
X11710067Y-14913838D02*
X11719591Y-14932886D01*
X11719591Y-14932886D02*
X11719591Y-14990028D01*
X11719591Y-14990028D02*
X11710067Y-15009076D01*
X11710067Y-15009076D02*
X11700543Y-15018600D01*
X11700543Y-15018600D02*
X11681496Y-15028124D01*
X11681496Y-15028124D02*
X11652924Y-15028124D01*
X11776734Y-14894790D02*
X11852924Y-14894790D01*
X11805305Y-14828124D02*
X11805305Y-14999552D01*
X11805305Y-14999552D02*
X11814829Y-15018600D01*
X11814829Y-15018600D02*
X11833877Y-15028124D01*
X11833877Y-15028124D02*
X11852924Y-15028124D01*
X12071972Y-14894790D02*
X12071972Y-15094790D01*
X12071972Y-14904314D02*
X12091019Y-14894790D01*
X12091019Y-14894790D02*
X12129115Y-14894790D01*
X12129115Y-14894790D02*
X12148162Y-14904314D01*
X12148162Y-14904314D02*
X12157686Y-14913838D01*
X12157686Y-14913838D02*
X12167210Y-14932886D01*
X12167210Y-14932886D02*
X12167210Y-14990028D01*
X12167210Y-14990028D02*
X12157686Y-15009076D01*
X12157686Y-15009076D02*
X12148162Y-15018600D01*
X12148162Y-15018600D02*
X12129115Y-15028124D01*
X12129115Y-15028124D02*
X12091019Y-15028124D01*
X12091019Y-15028124D02*
X12071972Y-15018600D01*
X12281496Y-15028124D02*
X12262448Y-15018600D01*
X12262448Y-15018600D02*
X12252924Y-14999552D01*
X12252924Y-14999552D02*
X12252924Y-14828124D01*
X12443400Y-15028124D02*
X12443400Y-14923362D01*
X12443400Y-14923362D02*
X12433877Y-14904314D01*
X12433877Y-14904314D02*
X12414829Y-14894790D01*
X12414829Y-14894790D02*
X12376734Y-14894790D01*
X12376734Y-14894790D02*
X12357686Y-14904314D01*
X12443400Y-15018600D02*
X12424353Y-15028124D01*
X12424353Y-15028124D02*
X12376734Y-15028124D01*
X12376734Y-15028124D02*
X12357686Y-15018600D01*
X12357686Y-15018600D02*
X12348162Y-14999552D01*
X12348162Y-14999552D02*
X12348162Y-14980505D01*
X12348162Y-14980505D02*
X12357686Y-14961457D01*
X12357686Y-14961457D02*
X12376734Y-14951933D01*
X12376734Y-14951933D02*
X12424353Y-14951933D01*
X12424353Y-14951933D02*
X12443400Y-14942409D01*
X12510067Y-14894790D02*
X12586258Y-14894790D01*
X12538639Y-14828124D02*
X12538639Y-14999552D01*
X12538639Y-14999552D02*
X12548162Y-15018600D01*
X12548162Y-15018600D02*
X12567210Y-15028124D01*
X12567210Y-15028124D02*
X12586258Y-15028124D01*
X12729115Y-15018600D02*
X12710067Y-15028124D01*
X12710067Y-15028124D02*
X12671972Y-15028124D01*
X12671972Y-15028124D02*
X12652924Y-15018600D01*
X12652924Y-15018600D02*
X12643400Y-14999552D01*
X12643400Y-14999552D02*
X12643400Y-14923362D01*
X12643400Y-14923362D02*
X12652924Y-14904314D01*
X12652924Y-14904314D02*
X12671972Y-14894790D01*
X12671972Y-14894790D02*
X12710067Y-14894790D01*
X12710067Y-14894790D02*
X12729115Y-14904314D01*
X12729115Y-14904314D02*
X12738639Y-14923362D01*
X12738639Y-14923362D02*
X12738639Y-14942409D01*
X12738639Y-14942409D02*
X12643400Y-14961457D01*
X12910067Y-15028124D02*
X12910067Y-14828124D01*
X12910067Y-15018600D02*
X12891020Y-15028124D01*
X12891020Y-15028124D02*
X12852924Y-15028124D01*
X12852924Y-15028124D02*
X12833877Y-15018600D01*
X12833877Y-15018600D02*
X12824353Y-15009076D01*
X12824353Y-15009076D02*
X12814829Y-14990028D01*
X12814829Y-14990028D02*
X12814829Y-14932886D01*
X12814829Y-14932886D02*
X12824353Y-14913838D01*
X12824353Y-14913838D02*
X12833877Y-14904314D01*
X12833877Y-14904314D02*
X12852924Y-14894790D01*
X12852924Y-14894790D02*
X12891020Y-14894790D01*
X12891020Y-14894790D02*
X12910067Y-14904314D01*
X12986258Y-15104314D02*
X12995781Y-15094790D01*
X12995781Y-15094790D02*
X13014829Y-15066219D01*
X13014829Y-15066219D02*
X13024353Y-15047171D01*
X13024353Y-15047171D02*
X13033877Y-15018600D01*
X13033877Y-15018600D02*
X13043400Y-14970981D01*
X13043400Y-14970981D02*
X13043400Y-14932886D01*
X13043400Y-14932886D02*
X13033877Y-14885267D01*
X13033877Y-14885267D02*
X13024353Y-14856695D01*
X13024353Y-14856695D02*
X13014829Y-14837648D01*
X13014829Y-14837648D02*
X12995781Y-14809076D01*
X12995781Y-14809076D02*
X12986258Y-14799552D01*
M02*
