M48
; DRILL file {KiCad 7.0.1} date Sun Mar  9 11:22:09 2025
; FORMAT={-:-/ absolute / metric / decimal}
; #@! TF.CreationDate,2025-03-09T11:22:09-05:00
; #@! TF.GenerationSoftware,Kicad,Pcbnew,7.0.1
; #@! TF.FileFunction,Plated,1,2,PTH
FMAT,2
METRIC
; #@! TA.AperFunction,Plated,PTH,ViaDrill
T1C0.400
; #@! TA.AperFunction,Plated,PTH,ComponentDrill
T2C1.000
; #@! TA.AperFunction,Plated,PTH,ComponentDrill
T3C1.190
%
G90
G05
T1
X67.056Y-105.664
X67.056Y-107.188
X67.056Y-108.966
X76.962Y-105.918
X78.994Y-105.664
X78.994Y-107.188
X78.994Y-108.966
X88.9Y-105.918
X90.932Y-105.664
X90.932Y-107.188
X90.932Y-108.966
X100.838Y-105.918
X102.87Y-105.664
X102.87Y-107.188
X102.87Y-108.966
X104.902Y-95.25
X107.442Y-95.25
X108.712Y-100.076
X111.252Y-97.028
X111.252Y-99.06
X112.776Y-105.918
X114.808Y-105.664
X114.808Y-107.188
X114.808Y-108.966
X122.682Y-98.044
X124.714Y-105.918
X126.746Y-105.664
X126.746Y-107.188
X126.746Y-108.966
X138.684Y-105.664
X138.684Y-107.188
X138.684Y-108.966
X150.622Y-105.664
X150.622Y-107.188
X150.622Y-108.966
T2
X68.834Y-123.698
X68.834Y-126.238
X68.834Y-128.778
X68.834Y-131.318
X74.676Y-96.944
X77.216Y-96.944
X78.792Y-129.968
X79.756Y-96.944
X82.296Y-96.944
X84.836Y-96.944
X87.376Y-96.944
X88.792Y-129.968
X98.792Y-129.968
X108.792Y-129.968
X118.792Y-129.968
X128.792Y-129.968
X135.89Y-96.69
X138.43Y-96.69
X138.792Y-129.968
X140.97Y-96.69
X143.51Y-96.69
X146.05Y-96.69
X148.59Y-96.69
X148.792Y-129.968
X154.178Y-123.698
X154.178Y-126.238
X154.178Y-128.778
X154.178Y-131.318
T3
X73.792Y-129.968
X76.332Y-129.968
X83.792Y-129.968
X86.332Y-129.968
X93.792Y-129.968
X96.332Y-129.968
X103.792Y-129.968
X106.332Y-129.968
X113.792Y-129.968
X116.332Y-129.968
X123.792Y-129.968
X126.332Y-129.968
X133.792Y-129.968
X136.332Y-129.968
X143.792Y-129.968
X146.332Y-129.968
T0
M30
