G04 #@! TF.GenerationSoftware,KiCad,Pcbnew,7.0.1*
G04 #@! TF.CreationDate,2025-03-09T11:20:59-05:00*
G04 #@! TF.ProjectId,Shift Register Mosfet Array V3,53686966-7420-4526-9567-697374657220,rev?*
G04 #@! TF.SameCoordinates,Original*
G04 #@! TF.FileFunction,Copper,L2,Bot*
G04 #@! TF.FilePolarity,Positive*
%FSLAX46Y46*%
G04 Gerber Fmt 4.6, Leading zero omitted, Abs format (unit mm)*
G04 Created by KiCad (PCBNEW 7.0.1) date 2025-03-09 11:20:59*
%MOMM*%
%LPD*%
G01*
G04 APERTURE LIST*
G04 Aperture macros list*
%AMRoundRect*
0 Rectangle with rounded corners*
0 $1 Rounding radius*
0 $2 $3 $4 $5 $6 $7 $8 $9 X,Y pos of 4 corners*
0 Add a 4 corners polygon primitive as box body*
4,1,4,$2,$3,$4,$5,$6,$7,$8,$9,$2,$3,0*
0 Add four circle primitives for the rounded corners*
1,1,$1+$1,$2,$3*
1,1,$1+$1,$4,$5*
1,1,$1+$1,$6,$7*
1,1,$1+$1,$8,$9*
0 Add four rect primitives between the rounded corners*
20,1,$1+$1,$2,$3,$4,$5,0*
20,1,$1+$1,$4,$5,$6,$7,0*
20,1,$1+$1,$6,$7,$8,$9,0*
20,1,$1+$1,$8,$9,$2,$3,0*%
G04 Aperture macros list end*
G04 #@! TA.AperFunction,ComponentPad*
%ADD10R,1.700000X1.700000*%
G04 #@! TD*
G04 #@! TA.AperFunction,ComponentPad*
%ADD11O,1.700000X1.700000*%
G04 #@! TD*
G04 #@! TA.AperFunction,ComponentPad*
%ADD12RoundRect,0.250000X0.620000X0.845000X-0.620000X0.845000X-0.620000X-0.845000X0.620000X-0.845000X0*%
G04 #@! TD*
G04 #@! TA.AperFunction,ComponentPad*
%ADD13O,1.740000X2.190000*%
G04 #@! TD*
G04 #@! TA.AperFunction,ViaPad*
%ADD14C,0.800000*%
G04 #@! TD*
G04 #@! TA.AperFunction,Conductor*
%ADD15C,2.500000*%
G04 #@! TD*
G04 #@! TA.AperFunction,Conductor*
%ADD16C,0.500000*%
G04 #@! TD*
G04 APERTURE END LIST*
D10*
X135890000Y-96690000D03*
D11*
X138430000Y-96690000D03*
X140970000Y-96690000D03*
X143510000Y-96690000D03*
X146050000Y-96690000D03*
X148590000Y-96690000D03*
X87376000Y-96944000D03*
X84836000Y-96944000D03*
X82296000Y-96944000D03*
X79756000Y-96944000D03*
X77216000Y-96944000D03*
D10*
X74676000Y-96944000D03*
D12*
X136332000Y-129968000D03*
D13*
X133792000Y-129968000D03*
D10*
X138792000Y-129968000D03*
X118792000Y-129968000D03*
D12*
X116332000Y-129968000D03*
D13*
X113792000Y-129968000D03*
D10*
X108792000Y-129968000D03*
D12*
X106332000Y-129968000D03*
D13*
X103792000Y-129968000D03*
D10*
X128792000Y-129968000D03*
D12*
X126332000Y-129968000D03*
D13*
X123792000Y-129968000D03*
D12*
X86332000Y-129968000D03*
D13*
X83792000Y-129968000D03*
D10*
X88792000Y-129968000D03*
X98792000Y-129968000D03*
D12*
X96332000Y-129968000D03*
D13*
X93792000Y-129968000D03*
D10*
X78792000Y-129968000D03*
D13*
X73792000Y-129968000D03*
D12*
X76332000Y-129968000D03*
X146332000Y-129968000D03*
D13*
X143792000Y-129968000D03*
D10*
X148792000Y-129968000D03*
X68834000Y-131318000D03*
D11*
X68834000Y-128778000D03*
X68834000Y-126238000D03*
X68834000Y-123698000D03*
D10*
X154178000Y-123698000D03*
D11*
X154178000Y-126238000D03*
X154178000Y-128778000D03*
X154178000Y-131318000D03*
D14*
X100838000Y-105918000D03*
X76962000Y-105918000D03*
X88900000Y-105918000D03*
X112776000Y-105918000D03*
X124714000Y-105918000D03*
X122682000Y-98044000D03*
X108712000Y-100076000D03*
X111252000Y-99060000D03*
X150622000Y-108966000D03*
X150622000Y-107188000D03*
X150622000Y-105664000D03*
X138684000Y-108966000D03*
X138684000Y-107188000D03*
X138684000Y-105664000D03*
X126746000Y-108966000D03*
X126746000Y-107188000D03*
X126746000Y-105664000D03*
X114808000Y-108966000D03*
X114808000Y-107188000D03*
X114808000Y-105664000D03*
X102870000Y-108966000D03*
X102870000Y-107188000D03*
X102870000Y-105664000D03*
X90932000Y-108966000D03*
X90932000Y-107188000D03*
X90932000Y-105664000D03*
X78994000Y-107188000D03*
X78994000Y-108966000D03*
X78994000Y-105664000D03*
X67056000Y-107188000D03*
X67056000Y-108966000D03*
X67056000Y-105664000D03*
X104902000Y-95250000D03*
X111252000Y-97028000D03*
X107442000Y-95250000D03*
D15*
X76147000Y-132613000D02*
X78792000Y-129968000D01*
X70129000Y-132613000D02*
X76147000Y-132613000D01*
X68834000Y-131318000D02*
X70129000Y-132613000D01*
X68834000Y-128778000D02*
X68834000Y-131318000D01*
X81437000Y-132613000D02*
X78792000Y-129968000D01*
X86147000Y-132613000D02*
X81437000Y-132613000D01*
X88792000Y-129968000D02*
X86147000Y-132613000D01*
X91437000Y-132613000D02*
X88792000Y-129968000D01*
X96147000Y-132613000D02*
X91437000Y-132613000D01*
X98792000Y-129968000D02*
X96147000Y-132613000D01*
X106147000Y-132613000D02*
X101437000Y-132613000D01*
X108792000Y-129968000D02*
X106147000Y-132613000D01*
X101437000Y-132613000D02*
X98792000Y-129968000D01*
X111437000Y-132613000D02*
X108792000Y-129968000D01*
X116147000Y-132613000D02*
X111437000Y-132613000D01*
X118792000Y-129968000D02*
X116147000Y-132613000D01*
X121437000Y-132613000D02*
X118792000Y-129968000D01*
X126147000Y-132613000D02*
X121437000Y-132613000D01*
X128792000Y-129968000D02*
X126147000Y-132613000D01*
X131437000Y-132613000D02*
X128792000Y-129968000D01*
X136147000Y-132613000D02*
X131437000Y-132613000D01*
X138792000Y-129968000D02*
X136147000Y-132613000D01*
X146147000Y-132613000D02*
X148792000Y-129968000D01*
X141437000Y-132613000D02*
X146147000Y-132613000D01*
X138792000Y-129968000D02*
X141437000Y-132613000D01*
X154178000Y-131318000D02*
X150142000Y-131318000D01*
X150142000Y-131318000D02*
X148792000Y-129968000D01*
X154178000Y-128778000D02*
X154178000Y-131318000D01*
D16*
X105752000Y-94400000D02*
X138680000Y-94400000D01*
X138680000Y-94400000D02*
X140970000Y-96690000D01*
X111252000Y-97028000D02*
X109220000Y-97028000D01*
X109220000Y-97028000D02*
X107442000Y-95250000D01*
X104902000Y-95250000D02*
X105752000Y-94400000D01*
G04 #@! TA.AperFunction,Conductor*
G36*
X154002442Y-88996596D02*
G01*
X154008703Y-88996841D01*
X154241171Y-89005975D01*
X154241419Y-89006051D01*
X154241420Y-89005985D01*
X154241531Y-89005989D01*
X154472173Y-89015529D01*
X154481571Y-89016278D01*
X154723187Y-89044876D01*
X154952341Y-89073440D01*
X154961183Y-89074870D01*
X155199560Y-89122286D01*
X155200339Y-89122445D01*
X155426298Y-89169824D01*
X155434444Y-89171824D01*
X155668182Y-89237745D01*
X155669753Y-89238200D01*
X155890895Y-89304037D01*
X155898400Y-89306535D01*
X156126259Y-89390597D01*
X156128273Y-89391362D01*
X156343145Y-89475205D01*
X156349963Y-89478104D01*
X156570464Y-89579756D01*
X156572903Y-89580914D01*
X156780180Y-89682245D01*
X156786241Y-89685421D01*
X156998057Y-89804044D01*
X157000853Y-89805659D01*
X157199040Y-89923753D01*
X157204420Y-89927150D01*
X157406284Y-90062031D01*
X157409373Y-90064166D01*
X157597098Y-90198199D01*
X157601768Y-90201704D01*
X157680682Y-90263914D01*
X157792387Y-90351976D01*
X157795748Y-90354722D01*
X157971759Y-90503796D01*
X157975764Y-90507341D01*
X158153973Y-90672076D01*
X158157483Y-90675451D01*
X158320547Y-90838515D01*
X158323922Y-90842025D01*
X158488657Y-91020234D01*
X158492208Y-91024246D01*
X158641266Y-91200238D01*
X158644022Y-91203611D01*
X158794285Y-91394218D01*
X158797810Y-91398915D01*
X158931814Y-91586599D01*
X158933982Y-91589737D01*
X159068845Y-91791574D01*
X159072266Y-91796991D01*
X159190298Y-91995074D01*
X159191964Y-91997959D01*
X159310559Y-92209724D01*
X159313771Y-92215853D01*
X159415059Y-92423042D01*
X159416268Y-92425589D01*
X159517890Y-92646026D01*
X159520797Y-92652864D01*
X159604608Y-92867653D01*
X159605427Y-92869809D01*
X159689457Y-93097582D01*
X159691966Y-93105119D01*
X159757777Y-93326173D01*
X159758276Y-93327896D01*
X159824166Y-93561524D01*
X159826183Y-93569736D01*
X159873506Y-93795430D01*
X159873762Y-93796686D01*
X159921127Y-94034810D01*
X159922558Y-94043663D01*
X159951103Y-94272658D01*
X159951195Y-94273421D01*
X159979717Y-94514401D01*
X159980471Y-94523852D01*
X159990014Y-94754577D01*
X159990024Y-94754833D01*
X159999403Y-94993537D01*
X159999499Y-94998452D01*
X159983500Y-136903603D01*
X159983404Y-136908424D01*
X159974024Y-137147166D01*
X159974014Y-137147422D01*
X159964471Y-137378146D01*
X159963717Y-137387597D01*
X159935195Y-137628577D01*
X159935103Y-137629340D01*
X159906558Y-137858335D01*
X159905127Y-137867188D01*
X159857762Y-138105312D01*
X159857506Y-138106568D01*
X159810183Y-138332262D01*
X159808166Y-138340474D01*
X159742276Y-138574102D01*
X159741777Y-138575825D01*
X159675966Y-138796879D01*
X159673457Y-138804416D01*
X159589427Y-139032189D01*
X159588608Y-139034345D01*
X159504797Y-139249134D01*
X159501890Y-139255972D01*
X159400268Y-139476409D01*
X159399059Y-139478956D01*
X159297771Y-139686145D01*
X159294559Y-139692274D01*
X159175964Y-139904039D01*
X159174298Y-139906924D01*
X159056266Y-140105007D01*
X159052845Y-140110424D01*
X158917982Y-140312261D01*
X158915797Y-140315424D01*
X158781823Y-140503066D01*
X158778285Y-140507780D01*
X158628022Y-140698387D01*
X158625266Y-140701760D01*
X158476224Y-140877734D01*
X158472657Y-140881764D01*
X158307922Y-141059973D01*
X158304547Y-141063483D01*
X158141483Y-141226547D01*
X158137973Y-141229922D01*
X157959764Y-141394657D01*
X157955734Y-141398224D01*
X157779760Y-141547266D01*
X157776387Y-141550022D01*
X157585780Y-141700285D01*
X157581066Y-141703823D01*
X157393424Y-141837797D01*
X157390261Y-141839982D01*
X157188424Y-141974845D01*
X157183007Y-141978266D01*
X156984924Y-142096298D01*
X156982039Y-142097964D01*
X156770274Y-142216559D01*
X156764145Y-142219771D01*
X156556956Y-142321059D01*
X156554409Y-142322268D01*
X156333972Y-142423890D01*
X156327134Y-142426797D01*
X156112345Y-142510608D01*
X156110189Y-142511427D01*
X155882416Y-142595457D01*
X155874879Y-142597966D01*
X155653825Y-142663777D01*
X155652102Y-142664276D01*
X155418474Y-142730166D01*
X155410262Y-142732183D01*
X155184568Y-142779506D01*
X155183312Y-142779762D01*
X154945188Y-142827127D01*
X154936335Y-142828558D01*
X154707340Y-142857103D01*
X154706577Y-142857195D01*
X154465597Y-142885717D01*
X154456146Y-142886471D01*
X154225422Y-142896014D01*
X154225167Y-142896024D01*
X153993467Y-142905128D01*
X153986442Y-142905404D01*
X153981575Y-142905500D01*
X68486425Y-142905500D01*
X68481557Y-142905404D01*
X68242832Y-142896024D01*
X68242579Y-142895946D01*
X68242577Y-142896014D01*
X68011852Y-142886471D01*
X68002401Y-142885717D01*
X67761421Y-142857195D01*
X67760658Y-142857103D01*
X67531663Y-142828558D01*
X67522810Y-142827127D01*
X67284686Y-142779762D01*
X67283430Y-142779506D01*
X67057736Y-142732183D01*
X67049524Y-142730166D01*
X66815896Y-142664276D01*
X66814173Y-142663777D01*
X66593119Y-142597966D01*
X66585582Y-142595457D01*
X66357809Y-142511427D01*
X66355653Y-142510608D01*
X66140864Y-142426797D01*
X66134026Y-142423890D01*
X65913589Y-142322268D01*
X65911042Y-142321059D01*
X65703853Y-142219771D01*
X65697732Y-142216563D01*
X65570754Y-142145452D01*
X65485959Y-142097964D01*
X65483100Y-142096313D01*
X65284980Y-141978259D01*
X65279574Y-141974845D01*
X65077737Y-141839982D01*
X65074599Y-141837814D01*
X64886915Y-141703810D01*
X64882218Y-141700285D01*
X64691611Y-141550022D01*
X64688238Y-141547266D01*
X64512246Y-141398208D01*
X64508234Y-141394657D01*
X64330025Y-141229922D01*
X64326515Y-141226547D01*
X64163451Y-141063483D01*
X64160076Y-141059973D01*
X63995341Y-140881764D01*
X63991796Y-140877759D01*
X63842722Y-140701748D01*
X63839976Y-140698387D01*
X63689713Y-140507780D01*
X63686199Y-140503098D01*
X63552166Y-140315373D01*
X63550031Y-140312284D01*
X63415150Y-140110420D01*
X63411753Y-140105040D01*
X63293659Y-139906853D01*
X63292034Y-139904039D01*
X63173421Y-139692241D01*
X63170245Y-139686180D01*
X63068914Y-139478903D01*
X63067756Y-139476464D01*
X62966104Y-139255963D01*
X62963201Y-139249134D01*
X62879362Y-139034273D01*
X62878597Y-139032259D01*
X62794535Y-138804400D01*
X62792037Y-138796895D01*
X62726200Y-138575753D01*
X62725745Y-138574182D01*
X62659824Y-138340444D01*
X62657824Y-138332298D01*
X62610445Y-138106339D01*
X62610286Y-138105560D01*
X62562870Y-137867183D01*
X62561440Y-137858335D01*
X62532876Y-137629187D01*
X62504278Y-137387571D01*
X62503529Y-137378173D01*
X62493975Y-137147166D01*
X62487162Y-136973764D01*
X66629787Y-136973764D01*
X66659413Y-137243016D01*
X66659414Y-137243018D01*
X66727928Y-137505088D01*
X66781720Y-137631670D01*
X66833871Y-137754392D01*
X66974982Y-137985611D01*
X67148253Y-138193818D01*
X67148255Y-138193820D01*
X67349998Y-138374582D01*
X67575910Y-138524044D01*
X67682211Y-138573876D01*
X67821177Y-138639021D01*
X68080562Y-138717058D01*
X68080569Y-138717060D01*
X68348561Y-138756500D01*
X68551631Y-138756500D01*
X68551634Y-138756500D01*
X68754156Y-138741677D01*
X68754156Y-138741676D01*
X69018553Y-138682780D01*
X69271558Y-138586014D01*
X69507777Y-138453441D01*
X69722177Y-138287888D01*
X69910186Y-138092881D01*
X70067799Y-137872579D01*
X70191656Y-137631675D01*
X70279118Y-137375305D01*
X70328319Y-137108933D01*
X70333259Y-136973764D01*
X152129787Y-136973764D01*
X152159413Y-137243016D01*
X152159414Y-137243018D01*
X152227928Y-137505088D01*
X152281720Y-137631670D01*
X152333871Y-137754392D01*
X152474982Y-137985611D01*
X152648253Y-138193818D01*
X152648255Y-138193820D01*
X152849998Y-138374582D01*
X153075910Y-138524044D01*
X153182211Y-138573876D01*
X153321177Y-138639021D01*
X153580562Y-138717058D01*
X153580569Y-138717060D01*
X153848561Y-138756500D01*
X154051631Y-138756500D01*
X154051634Y-138756500D01*
X154254156Y-138741677D01*
X154254156Y-138741676D01*
X154518553Y-138682780D01*
X154771558Y-138586014D01*
X155007777Y-138453441D01*
X155222177Y-138287888D01*
X155410186Y-138092881D01*
X155567799Y-137872579D01*
X155691656Y-137631675D01*
X155779118Y-137375305D01*
X155828319Y-137108933D01*
X155838212Y-136838235D01*
X155808586Y-136568982D01*
X155740072Y-136306912D01*
X155634130Y-136057610D01*
X155493018Y-135826390D01*
X155493017Y-135826388D01*
X155319746Y-135618181D01*
X155214758Y-135524112D01*
X155118002Y-135437418D01*
X154892090Y-135287956D01*
X154892086Y-135287954D01*
X154646822Y-135172978D01*
X154387437Y-135094941D01*
X154387431Y-135094940D01*
X154119439Y-135055500D01*
X153916369Y-135055500D01*
X153916366Y-135055500D01*
X153713843Y-135070322D01*
X153449449Y-135129219D01*
X153196441Y-135225986D01*
X152960223Y-135358559D01*
X152745825Y-135524109D01*
X152557813Y-135719120D01*
X152400201Y-135939420D01*
X152276342Y-136180329D01*
X152188881Y-136436695D01*
X152139680Y-136703066D01*
X152129787Y-136973764D01*
X70333259Y-136973764D01*
X70338212Y-136838235D01*
X70308586Y-136568982D01*
X70240072Y-136306912D01*
X70134130Y-136057610D01*
X69993018Y-135826390D01*
X69993017Y-135826388D01*
X69819746Y-135618181D01*
X69714758Y-135524112D01*
X69618002Y-135437418D01*
X69392090Y-135287956D01*
X69392086Y-135287954D01*
X69146822Y-135172978D01*
X68887437Y-135094941D01*
X68887431Y-135094940D01*
X68619439Y-135055500D01*
X68416369Y-135055500D01*
X68416366Y-135055500D01*
X68213843Y-135070322D01*
X67949449Y-135129219D01*
X67696441Y-135225986D01*
X67460223Y-135358559D01*
X67245825Y-135524109D01*
X67057813Y-135719120D01*
X66900201Y-135939420D01*
X66776342Y-136180329D01*
X66688881Y-136436695D01*
X66639680Y-136703066D01*
X66629787Y-136973764D01*
X62487162Y-136973764D01*
X62484595Y-136908424D01*
X62484500Y-136903584D01*
X62486607Y-131383637D01*
X67079818Y-131383637D01*
X67090580Y-131479152D01*
X67091013Y-131483768D01*
X67098197Y-131579627D01*
X67103964Y-131604893D01*
X67106293Y-131618601D01*
X67109194Y-131644348D01*
X67134069Y-131737185D01*
X67135185Y-131741683D01*
X67156581Y-131835420D01*
X67166047Y-131859540D01*
X67170391Y-131872742D01*
X67177098Y-131897773D01*
X67215537Y-131985876D01*
X67217311Y-131990158D01*
X67252432Y-132079644D01*
X67265387Y-132102082D01*
X67271652Y-132114492D01*
X67282016Y-132138247D01*
X67333162Y-132219645D01*
X67335555Y-132223617D01*
X67383613Y-132306856D01*
X67399767Y-132327112D01*
X67407812Y-132338451D01*
X67421601Y-132360396D01*
X67484314Y-132433269D01*
X67487273Y-132436841D01*
X67547192Y-132511978D01*
X67617657Y-132577360D01*
X67620996Y-132580577D01*
X68866421Y-133826002D01*
X68869638Y-133829341D01*
X68935019Y-133899805D01*
X69010189Y-133959750D01*
X69013729Y-133962684D01*
X69086603Y-134025398D01*
X69108547Y-134039186D01*
X69119884Y-134047229D01*
X69140143Y-134063386D01*
X69140146Y-134063388D01*
X69223377Y-134111441D01*
X69227349Y-134113834D01*
X69308755Y-134164985D01*
X69332509Y-134175349D01*
X69344921Y-134181615D01*
X69367352Y-134194565D01*
X69367357Y-134194568D01*
X69456853Y-134229692D01*
X69461055Y-134231432D01*
X69549226Y-134269901D01*
X69568261Y-134275001D01*
X69574262Y-134276609D01*
X69587470Y-134280955D01*
X69611584Y-134290420D01*
X69705277Y-134311805D01*
X69709774Y-134312920D01*
X69802650Y-134337806D01*
X69828413Y-134340708D01*
X69842109Y-134343036D01*
X69867370Y-134348802D01*
X69963222Y-134355984D01*
X69967810Y-134356414D01*
X70063364Y-134367181D01*
X70159416Y-134363586D01*
X70164052Y-134363500D01*
X76111957Y-134363500D01*
X76116592Y-134363586D01*
X76167066Y-134365475D01*
X76212635Y-134367181D01*
X76212635Y-134367180D01*
X76212636Y-134367181D01*
X76308168Y-134356416D01*
X76312771Y-134355984D01*
X76408630Y-134348802D01*
X76431674Y-134343541D01*
X76433895Y-134343035D01*
X76447606Y-134340706D01*
X76473342Y-134337806D01*
X76473342Y-134337805D01*
X76473350Y-134337805D01*
X76566263Y-134312908D01*
X76570666Y-134311817D01*
X76664416Y-134290420D01*
X76688550Y-134280947D01*
X76701724Y-134276611D01*
X76726775Y-134269900D01*
X76814889Y-134231455D01*
X76819111Y-134229706D01*
X76908643Y-134194568D01*
X76931095Y-134181604D01*
X76943494Y-134175345D01*
X76967247Y-134164983D01*
X77048680Y-134113814D01*
X77052604Y-134111451D01*
X77052622Y-134111441D01*
X77135857Y-134063386D01*
X77156118Y-134047227D01*
X77167452Y-134039186D01*
X77189397Y-134025398D01*
X77262314Y-133962645D01*
X77265805Y-133959753D01*
X77340981Y-133899805D01*
X77406361Y-133829340D01*
X77409550Y-133826029D01*
X78704322Y-132531258D01*
X78759905Y-132499167D01*
X78824093Y-132499167D01*
X78879680Y-132531261D01*
X80174421Y-133826002D01*
X80177638Y-133829341D01*
X80243019Y-133899805D01*
X80318189Y-133959750D01*
X80321728Y-133962683D01*
X80394603Y-134025398D01*
X80416542Y-134039183D01*
X80416547Y-134039186D01*
X80427882Y-134047228D01*
X80448143Y-134063386D01*
X80531369Y-134111436D01*
X80535342Y-134113830D01*
X80616748Y-134164981D01*
X80616753Y-134164984D01*
X80640515Y-134175351D01*
X80652921Y-134181615D01*
X80675351Y-134194565D01*
X80675353Y-134194565D01*
X80675357Y-134194568D01*
X80764861Y-134229695D01*
X80769125Y-134231462D01*
X80857226Y-134269900D01*
X80882255Y-134276606D01*
X80895456Y-134280950D01*
X80919584Y-134290420D01*
X81013321Y-134311814D01*
X81017749Y-134312911D01*
X81110650Y-134337805D01*
X81136402Y-134340706D01*
X81150086Y-134343030D01*
X81175370Y-134348802D01*
X81271232Y-134355985D01*
X81275825Y-134356415D01*
X81371364Y-134367181D01*
X81467407Y-134363586D01*
X81472043Y-134363500D01*
X86111957Y-134363500D01*
X86116592Y-134363586D01*
X86167066Y-134365475D01*
X86212635Y-134367181D01*
X86212635Y-134367180D01*
X86212636Y-134367181D01*
X86308168Y-134356416D01*
X86312771Y-134355984D01*
X86408630Y-134348802D01*
X86431674Y-134343541D01*
X86433895Y-134343035D01*
X86447606Y-134340706D01*
X86473342Y-134337806D01*
X86473342Y-134337805D01*
X86473350Y-134337805D01*
X86566263Y-134312908D01*
X86570666Y-134311817D01*
X86664416Y-134290420D01*
X86688550Y-134280947D01*
X86701724Y-134276611D01*
X86726775Y-134269900D01*
X86814889Y-134231455D01*
X86819111Y-134229706D01*
X86908643Y-134194568D01*
X86931095Y-134181604D01*
X86943494Y-134175345D01*
X86967247Y-134164983D01*
X87048680Y-134113814D01*
X87052604Y-134111451D01*
X87052622Y-134111441D01*
X87135857Y-134063386D01*
X87156118Y-134047227D01*
X87167452Y-134039186D01*
X87189397Y-134025398D01*
X87262314Y-133962645D01*
X87265805Y-133959753D01*
X87340981Y-133899805D01*
X87406361Y-133829340D01*
X87409550Y-133826029D01*
X88704322Y-132531258D01*
X88759905Y-132499167D01*
X88824093Y-132499167D01*
X88879680Y-132531261D01*
X90174421Y-133826002D01*
X90177638Y-133829341D01*
X90243019Y-133899805D01*
X90318189Y-133959750D01*
X90321728Y-133962683D01*
X90394603Y-134025398D01*
X90416542Y-134039183D01*
X90416547Y-134039186D01*
X90427882Y-134047228D01*
X90448143Y-134063386D01*
X90531369Y-134111436D01*
X90535342Y-134113830D01*
X90616748Y-134164981D01*
X90616753Y-134164984D01*
X90640515Y-134175351D01*
X90652921Y-134181615D01*
X90675351Y-134194565D01*
X90675353Y-134194565D01*
X90675357Y-134194568D01*
X90764861Y-134229695D01*
X90769125Y-134231462D01*
X90857226Y-134269900D01*
X90882255Y-134276606D01*
X90895456Y-134280950D01*
X90919584Y-134290420D01*
X91013321Y-134311814D01*
X91017749Y-134312911D01*
X91110650Y-134337805D01*
X91136402Y-134340706D01*
X91150086Y-134343030D01*
X91175370Y-134348802D01*
X91271232Y-134355985D01*
X91275825Y-134356415D01*
X91371364Y-134367181D01*
X91467407Y-134363586D01*
X91472043Y-134363500D01*
X96111957Y-134363500D01*
X96116592Y-134363586D01*
X96167066Y-134365475D01*
X96212635Y-134367181D01*
X96212635Y-134367180D01*
X96212636Y-134367181D01*
X96308168Y-134356416D01*
X96312771Y-134355984D01*
X96408630Y-134348802D01*
X96431674Y-134343541D01*
X96433895Y-134343035D01*
X96447606Y-134340706D01*
X96473342Y-134337806D01*
X96473342Y-134337805D01*
X96473350Y-134337805D01*
X96566263Y-134312908D01*
X96570666Y-134311817D01*
X96664416Y-134290420D01*
X96688550Y-134280947D01*
X96701724Y-134276611D01*
X96726775Y-134269900D01*
X96814889Y-134231455D01*
X96819111Y-134229706D01*
X96908643Y-134194568D01*
X96931095Y-134181604D01*
X96943494Y-134175345D01*
X96967247Y-134164983D01*
X97048680Y-134113814D01*
X97052604Y-134111451D01*
X97052622Y-134111441D01*
X97135857Y-134063386D01*
X97156118Y-134047227D01*
X97167452Y-134039186D01*
X97189397Y-134025398D01*
X97262314Y-133962645D01*
X97265805Y-133959753D01*
X97340981Y-133899805D01*
X97406361Y-133829340D01*
X97409550Y-133826029D01*
X98704322Y-132531258D01*
X98759905Y-132499167D01*
X98824093Y-132499167D01*
X98879680Y-132531261D01*
X100174421Y-133826002D01*
X100177638Y-133829341D01*
X100243019Y-133899805D01*
X100318189Y-133959750D01*
X100321728Y-133962683D01*
X100394603Y-134025398D01*
X100416542Y-134039183D01*
X100416547Y-134039186D01*
X100427882Y-134047228D01*
X100448143Y-134063386D01*
X100531369Y-134111436D01*
X100535342Y-134113830D01*
X100616748Y-134164981D01*
X100616753Y-134164984D01*
X100640515Y-134175351D01*
X100652921Y-134181615D01*
X100675351Y-134194565D01*
X100675353Y-134194565D01*
X100675357Y-134194568D01*
X100764861Y-134229695D01*
X100769125Y-134231462D01*
X100857226Y-134269900D01*
X100882255Y-134276606D01*
X100895456Y-134280950D01*
X100919584Y-134290420D01*
X101013321Y-134311814D01*
X101017749Y-134312911D01*
X101110650Y-134337805D01*
X101136402Y-134340706D01*
X101150086Y-134343030D01*
X101175370Y-134348802D01*
X101271232Y-134355985D01*
X101275825Y-134356415D01*
X101371364Y-134367181D01*
X101467407Y-134363586D01*
X101472043Y-134363500D01*
X106111957Y-134363500D01*
X106116592Y-134363586D01*
X106167066Y-134365475D01*
X106212635Y-134367181D01*
X106212635Y-134367180D01*
X106212636Y-134367181D01*
X106308168Y-134356416D01*
X106312771Y-134355984D01*
X106408630Y-134348802D01*
X106431674Y-134343541D01*
X106433895Y-134343035D01*
X106447606Y-134340706D01*
X106473342Y-134337806D01*
X106473342Y-134337805D01*
X106473350Y-134337805D01*
X106566263Y-134312908D01*
X106570666Y-134311817D01*
X106664416Y-134290420D01*
X106688550Y-134280947D01*
X106701724Y-134276611D01*
X106726775Y-134269900D01*
X106814889Y-134231455D01*
X106819111Y-134229706D01*
X106908643Y-134194568D01*
X106931095Y-134181604D01*
X106943494Y-134175345D01*
X106967247Y-134164983D01*
X107048680Y-134113814D01*
X107052604Y-134111451D01*
X107052622Y-134111441D01*
X107135857Y-134063386D01*
X107156118Y-134047227D01*
X107167452Y-134039186D01*
X107189397Y-134025398D01*
X107262314Y-133962645D01*
X107265805Y-133959753D01*
X107340981Y-133899805D01*
X107406361Y-133829340D01*
X107409550Y-133826029D01*
X108704322Y-132531258D01*
X108759905Y-132499167D01*
X108824093Y-132499167D01*
X108879680Y-132531261D01*
X110174421Y-133826002D01*
X110177638Y-133829341D01*
X110243019Y-133899805D01*
X110318189Y-133959750D01*
X110321728Y-133962683D01*
X110394603Y-134025398D01*
X110416542Y-134039183D01*
X110416547Y-134039186D01*
X110427882Y-134047228D01*
X110448143Y-134063386D01*
X110531369Y-134111436D01*
X110535342Y-134113830D01*
X110616748Y-134164981D01*
X110616753Y-134164984D01*
X110640515Y-134175351D01*
X110652921Y-134181615D01*
X110675351Y-134194565D01*
X110675353Y-134194565D01*
X110675357Y-134194568D01*
X110764861Y-134229695D01*
X110769125Y-134231462D01*
X110857226Y-134269900D01*
X110882255Y-134276606D01*
X110895456Y-134280950D01*
X110919584Y-134290420D01*
X111013321Y-134311814D01*
X111017749Y-134312911D01*
X111110650Y-134337805D01*
X111136402Y-134340706D01*
X111150086Y-134343030D01*
X111175370Y-134348802D01*
X111271232Y-134355985D01*
X111275825Y-134356415D01*
X111371364Y-134367181D01*
X111467407Y-134363586D01*
X111472043Y-134363500D01*
X116111957Y-134363500D01*
X116116592Y-134363586D01*
X116167066Y-134365475D01*
X116212635Y-134367181D01*
X116212635Y-134367180D01*
X116212636Y-134367181D01*
X116308168Y-134356416D01*
X116312771Y-134355984D01*
X116408630Y-134348802D01*
X116431674Y-134343541D01*
X116433895Y-134343035D01*
X116447606Y-134340706D01*
X116473342Y-134337806D01*
X116473342Y-134337805D01*
X116473350Y-134337805D01*
X116566263Y-134312908D01*
X116570666Y-134311817D01*
X116664416Y-134290420D01*
X116688550Y-134280947D01*
X116701724Y-134276611D01*
X116726775Y-134269900D01*
X116814889Y-134231455D01*
X116819111Y-134229706D01*
X116908643Y-134194568D01*
X116931095Y-134181604D01*
X116943494Y-134175345D01*
X116967247Y-134164983D01*
X117048680Y-134113814D01*
X117052604Y-134111451D01*
X117052622Y-134111441D01*
X117135857Y-134063386D01*
X117156118Y-134047227D01*
X117167452Y-134039186D01*
X117189397Y-134025398D01*
X117262314Y-133962645D01*
X117265805Y-133959753D01*
X117340981Y-133899805D01*
X117406361Y-133829340D01*
X117409550Y-133826029D01*
X118704322Y-132531258D01*
X118759905Y-132499167D01*
X118824093Y-132499167D01*
X118879680Y-132531261D01*
X120174421Y-133826002D01*
X120177638Y-133829341D01*
X120243019Y-133899805D01*
X120318189Y-133959750D01*
X120321728Y-133962683D01*
X120394603Y-134025398D01*
X120416542Y-134039183D01*
X120416547Y-134039186D01*
X120427882Y-134047228D01*
X120448143Y-134063386D01*
X120531369Y-134111436D01*
X120535342Y-134113830D01*
X120616748Y-134164981D01*
X120616753Y-134164984D01*
X120640515Y-134175351D01*
X120652921Y-134181615D01*
X120675351Y-134194565D01*
X120675353Y-134194565D01*
X120675357Y-134194568D01*
X120764861Y-134229695D01*
X120769125Y-134231462D01*
X120857226Y-134269900D01*
X120882255Y-134276606D01*
X120895456Y-134280950D01*
X120919584Y-134290420D01*
X121013321Y-134311814D01*
X121017749Y-134312911D01*
X121110650Y-134337805D01*
X121136402Y-134340706D01*
X121150086Y-134343030D01*
X121175370Y-134348802D01*
X121271232Y-134355985D01*
X121275825Y-134356415D01*
X121371364Y-134367181D01*
X121467407Y-134363586D01*
X121472043Y-134363500D01*
X126111957Y-134363500D01*
X126116592Y-134363586D01*
X126167066Y-134365475D01*
X126212635Y-134367181D01*
X126212635Y-134367180D01*
X126212636Y-134367181D01*
X126308168Y-134356416D01*
X126312771Y-134355984D01*
X126408630Y-134348802D01*
X126431674Y-134343541D01*
X126433895Y-134343035D01*
X126447606Y-134340706D01*
X126473342Y-134337806D01*
X126473342Y-134337805D01*
X126473350Y-134337805D01*
X126566263Y-134312908D01*
X126570666Y-134311817D01*
X126664416Y-134290420D01*
X126688550Y-134280947D01*
X126701724Y-134276611D01*
X126726775Y-134269900D01*
X126814889Y-134231455D01*
X126819111Y-134229706D01*
X126908643Y-134194568D01*
X126931095Y-134181604D01*
X126943494Y-134175345D01*
X126967247Y-134164983D01*
X127048680Y-134113814D01*
X127052604Y-134111451D01*
X127052622Y-134111441D01*
X127135857Y-134063386D01*
X127156118Y-134047227D01*
X127167452Y-134039186D01*
X127189397Y-134025398D01*
X127262314Y-133962645D01*
X127265805Y-133959753D01*
X127340981Y-133899805D01*
X127406361Y-133829340D01*
X127409550Y-133826029D01*
X128704322Y-132531258D01*
X128759905Y-132499167D01*
X128824093Y-132499167D01*
X128879680Y-132531261D01*
X130174421Y-133826002D01*
X130177638Y-133829341D01*
X130243019Y-133899805D01*
X130318189Y-133959750D01*
X130321728Y-133962683D01*
X130394603Y-134025398D01*
X130416542Y-134039183D01*
X130416547Y-134039186D01*
X130427882Y-134047228D01*
X130448143Y-134063386D01*
X130531369Y-134111436D01*
X130535342Y-134113830D01*
X130616748Y-134164981D01*
X130616753Y-134164984D01*
X130640515Y-134175351D01*
X130652921Y-134181615D01*
X130675351Y-134194565D01*
X130675353Y-134194565D01*
X130675357Y-134194568D01*
X130764861Y-134229695D01*
X130769125Y-134231462D01*
X130857226Y-134269900D01*
X130882255Y-134276606D01*
X130895456Y-134280950D01*
X130919584Y-134290420D01*
X131013321Y-134311814D01*
X131017749Y-134312911D01*
X131110650Y-134337805D01*
X131136402Y-134340706D01*
X131150086Y-134343030D01*
X131175370Y-134348802D01*
X131271232Y-134355985D01*
X131275825Y-134356415D01*
X131371364Y-134367181D01*
X131467407Y-134363586D01*
X131472043Y-134363500D01*
X136111957Y-134363500D01*
X136116592Y-134363586D01*
X136167066Y-134365475D01*
X136212635Y-134367181D01*
X136212635Y-134367180D01*
X136212636Y-134367181D01*
X136308168Y-134356416D01*
X136312771Y-134355984D01*
X136408630Y-134348802D01*
X136431674Y-134343541D01*
X136433895Y-134343035D01*
X136447606Y-134340706D01*
X136473342Y-134337806D01*
X136473342Y-134337805D01*
X136473350Y-134337805D01*
X136566263Y-134312908D01*
X136570666Y-134311817D01*
X136664416Y-134290420D01*
X136688550Y-134280947D01*
X136701724Y-134276611D01*
X136726775Y-134269900D01*
X136814889Y-134231455D01*
X136819111Y-134229706D01*
X136908643Y-134194568D01*
X136931095Y-134181604D01*
X136943494Y-134175345D01*
X136967247Y-134164983D01*
X137048680Y-134113814D01*
X137052604Y-134111451D01*
X137052622Y-134111441D01*
X137135857Y-134063386D01*
X137156118Y-134047227D01*
X137167452Y-134039186D01*
X137189397Y-134025398D01*
X137262314Y-133962645D01*
X137265805Y-133959753D01*
X137340981Y-133899805D01*
X137406361Y-133829340D01*
X137409550Y-133826029D01*
X138704322Y-132531258D01*
X138759905Y-132499167D01*
X138824093Y-132499167D01*
X138879680Y-132531261D01*
X140174421Y-133826002D01*
X140177638Y-133829341D01*
X140243019Y-133899805D01*
X140318189Y-133959750D01*
X140321728Y-133962683D01*
X140394603Y-134025398D01*
X140416542Y-134039183D01*
X140416547Y-134039186D01*
X140427882Y-134047228D01*
X140448143Y-134063386D01*
X140531369Y-134111436D01*
X140535342Y-134113830D01*
X140616748Y-134164981D01*
X140616753Y-134164984D01*
X140640515Y-134175351D01*
X140652921Y-134181615D01*
X140675351Y-134194565D01*
X140675353Y-134194565D01*
X140675357Y-134194568D01*
X140764861Y-134229695D01*
X140769125Y-134231462D01*
X140857226Y-134269900D01*
X140882255Y-134276606D01*
X140895456Y-134280950D01*
X140919584Y-134290420D01*
X141013321Y-134311814D01*
X141017749Y-134312911D01*
X141110650Y-134337805D01*
X141136402Y-134340706D01*
X141150086Y-134343030D01*
X141175370Y-134348802D01*
X141271232Y-134355985D01*
X141275825Y-134356415D01*
X141371364Y-134367181D01*
X141467407Y-134363586D01*
X141472043Y-134363500D01*
X146111957Y-134363500D01*
X146116592Y-134363586D01*
X146167066Y-134365475D01*
X146212635Y-134367181D01*
X146212635Y-134367180D01*
X146212636Y-134367181D01*
X146308168Y-134356416D01*
X146312771Y-134355984D01*
X146408630Y-134348802D01*
X146431674Y-134343541D01*
X146433895Y-134343035D01*
X146447606Y-134340706D01*
X146473342Y-134337806D01*
X146473342Y-134337805D01*
X146473350Y-134337805D01*
X146566263Y-134312908D01*
X146570666Y-134311817D01*
X146664416Y-134290420D01*
X146688550Y-134280947D01*
X146701724Y-134276611D01*
X146726775Y-134269900D01*
X146814889Y-134231455D01*
X146819111Y-134229706D01*
X146908643Y-134194568D01*
X146931095Y-134181604D01*
X146943494Y-134175345D01*
X146967247Y-134164983D01*
X147048680Y-134113814D01*
X147052604Y-134111451D01*
X147052622Y-134111441D01*
X147135857Y-134063386D01*
X147156118Y-134047227D01*
X147167452Y-134039186D01*
X147189397Y-134025398D01*
X147262314Y-133962645D01*
X147265805Y-133959753D01*
X147340981Y-133899805D01*
X147406361Y-133829340D01*
X147409550Y-133826029D01*
X148704310Y-132531269D01*
X148761391Y-132498786D01*
X148827058Y-132500014D01*
X148882887Y-132534610D01*
X148948019Y-132604805D01*
X149023184Y-132664748D01*
X149026753Y-132667705D01*
X149099603Y-132730397D01*
X149121542Y-132744182D01*
X149132880Y-132752226D01*
X149153143Y-132768386D01*
X149236406Y-132816457D01*
X149240358Y-132818838D01*
X149321753Y-132869983D01*
X149339959Y-132877925D01*
X149345506Y-132880346D01*
X149357904Y-132886604D01*
X149380357Y-132899568D01*
X149469866Y-132934697D01*
X149474086Y-132936445D01*
X149562225Y-132974900D01*
X149587256Y-132981606D01*
X149600459Y-132985951D01*
X149624584Y-132995420D01*
X149718301Y-133016810D01*
X149722781Y-133017920D01*
X149815649Y-133042805D01*
X149828034Y-133044200D01*
X149841395Y-133045706D01*
X149855100Y-133048034D01*
X149880370Y-133053802D01*
X149976256Y-133060986D01*
X149980824Y-133061414D01*
X150076363Y-133072180D01*
X150172389Y-133068586D01*
X150177025Y-133068500D01*
X154309178Y-133068500D01*
X154309182Y-133068500D01*
X154369577Y-133059396D01*
X154378720Y-133058366D01*
X154439630Y-133053802D01*
X154487808Y-133042805D01*
X154499151Y-133040216D01*
X154508258Y-133038492D01*
X154568615Y-133029396D01*
X154626973Y-133011393D01*
X154635863Y-133009011D01*
X154695416Y-132995420D01*
X154752253Y-132973111D01*
X154760975Y-132970059D01*
X154819323Y-132952063D01*
X154858951Y-132932978D01*
X154874323Y-132925576D01*
X154882824Y-132921867D01*
X154939643Y-132899568D01*
X154962080Y-132886614D01*
X154992505Y-132869048D01*
X155000705Y-132864714D01*
X155018856Y-132855972D01*
X155055704Y-132838228D01*
X155106150Y-132803833D01*
X155113992Y-132798907D01*
X155166857Y-132768386D01*
X155214596Y-132730314D01*
X155222035Y-132724824D01*
X155272479Y-132690433D01*
X155317237Y-132648901D01*
X155324239Y-132642876D01*
X155371981Y-132604805D01*
X155413518Y-132560037D01*
X155420037Y-132553518D01*
X155464805Y-132511981D01*
X155502876Y-132464239D01*
X155508901Y-132457237D01*
X155550433Y-132412479D01*
X155584824Y-132362035D01*
X155590314Y-132354596D01*
X155628386Y-132306857D01*
X155658908Y-132253990D01*
X155663833Y-132246150D01*
X155698228Y-132195704D01*
X155724714Y-132140705D01*
X155729048Y-132132505D01*
X155759566Y-132079646D01*
X155759567Y-132079644D01*
X155759568Y-132079643D01*
X155781867Y-132022823D01*
X155785576Y-132014323D01*
X155799275Y-131985876D01*
X155812063Y-131959323D01*
X155830059Y-131900975D01*
X155833111Y-131892253D01*
X155855420Y-131835416D01*
X155869011Y-131775863D01*
X155871393Y-131766973D01*
X155889396Y-131708615D01*
X155898492Y-131648258D01*
X155900216Y-131639151D01*
X155913800Y-131579637D01*
X155913802Y-131579630D01*
X155918366Y-131518720D01*
X155919396Y-131509577D01*
X155928500Y-131449182D01*
X155928500Y-131186818D01*
X155928500Y-128712506D01*
X155928348Y-128710484D01*
X155914123Y-128520650D01*
X155913802Y-128516370D01*
X155855420Y-128260584D01*
X155845912Y-128236359D01*
X155759568Y-128016358D01*
X155759568Y-128016357D01*
X155628386Y-127789143D01*
X155464805Y-127584019D01*
X155464801Y-127584015D01*
X155272480Y-127405567D01*
X155186324Y-127346826D01*
X155149373Y-127307374D01*
X155132718Y-127255949D01*
X155139523Y-127202325D01*
X155168496Y-127156691D01*
X155216107Y-127109080D01*
X155351600Y-126915576D01*
X155434406Y-126738000D01*
X152921593Y-126738000D01*
X153004399Y-126915576D01*
X153139893Y-127109081D01*
X153187504Y-127156692D01*
X153216476Y-127202326D01*
X153223281Y-127255949D01*
X153206626Y-127307374D01*
X153169676Y-127346826D01*
X153083516Y-127405569D01*
X152891198Y-127584015D01*
X152727613Y-127789143D01*
X152596431Y-128016358D01*
X152500580Y-128260581D01*
X152442197Y-128516372D01*
X152427500Y-128712501D01*
X152427500Y-129443500D01*
X152410887Y-129505500D01*
X152365500Y-129550887D01*
X152303500Y-129567500D01*
X150918442Y-129567500D01*
X150870989Y-129558061D01*
X150830761Y-129531181D01*
X149983479Y-128683898D01*
X149937032Y-128637451D01*
X149936609Y-128637139D01*
X149887917Y-128601202D01*
X149880674Y-128595426D01*
X149834398Y-128555602D01*
X149782702Y-128523120D01*
X149775041Y-128517897D01*
X149770870Y-128514819D01*
X149725933Y-128481654D01*
X149725931Y-128481653D01*
X149725930Y-128481652D01*
X149671964Y-128453130D01*
X149663934Y-128448494D01*
X149612248Y-128416017D01*
X149575312Y-128399902D01*
X149556282Y-128391599D01*
X149547948Y-128387586D01*
X149493973Y-128359059D01*
X149493972Y-128359058D01*
X149493971Y-128359058D01*
X149436353Y-128338896D01*
X149427723Y-128335509D01*
X149371777Y-128311100D01*
X149340100Y-128302612D01*
X149312805Y-128295298D01*
X149303961Y-128292570D01*
X149246333Y-128272406D01*
X149246332Y-128272405D01*
X149246330Y-128272405D01*
X149186352Y-128261056D01*
X149177314Y-128258993D01*
X149118350Y-128243194D01*
X149057684Y-128236359D01*
X149048515Y-128234977D01*
X148988542Y-128223629D01*
X148927548Y-128221347D01*
X148918301Y-128220654D01*
X148857636Y-128213818D01*
X148796637Y-128216101D01*
X148787363Y-128216101D01*
X148726363Y-128213818D01*
X148665696Y-128220654D01*
X148656450Y-128221347D01*
X148595461Y-128223629D01*
X148535483Y-128234977D01*
X148526318Y-128236358D01*
X148465648Y-128243194D01*
X148406685Y-128258993D01*
X148397648Y-128261056D01*
X148337666Y-128272405D01*
X148280038Y-128292570D01*
X148271180Y-128295302D01*
X148212226Y-128311099D01*
X148156281Y-128335507D01*
X148147653Y-128338894D01*
X148090027Y-128359059D01*
X148036055Y-128387583D01*
X148027703Y-128391605D01*
X147971748Y-128416018D01*
X147920056Y-128448498D01*
X147912028Y-128453133D01*
X147858068Y-128481653D01*
X147808954Y-128517899D01*
X147801296Y-128523120D01*
X147749604Y-128555601D01*
X147703330Y-128595422D01*
X147696081Y-128601202D01*
X147664272Y-128624678D01*
X147610647Y-128647283D01*
X147552615Y-128642934D01*
X147502958Y-128612589D01*
X147420657Y-128530288D01*
X147271334Y-128438186D01*
X147104797Y-128383000D01*
X147002009Y-128372500D01*
X145661991Y-128372500D01*
X145559203Y-128383000D01*
X145392665Y-128438186D01*
X145243342Y-128530288D01*
X145119288Y-128654342D01*
X145036028Y-128789330D01*
X145034833Y-128791269D01*
X145019578Y-128816001D01*
X145016637Y-128814187D01*
X144996574Y-128844978D01*
X144940605Y-128874047D01*
X144877576Y-128871825D01*
X144823792Y-128838887D01*
X144790035Y-128803666D01*
X144700728Y-128710484D01*
X144664781Y-128683898D01*
X144513161Y-128571760D01*
X144304847Y-128466730D01*
X144081780Y-128398417D01*
X143850376Y-128368784D01*
X143850372Y-128368784D01*
X143617295Y-128378685D01*
X143389232Y-128427836D01*
X143172768Y-128514819D01*
X142974107Y-128637139D01*
X142798980Y-128791270D01*
X142652423Y-128972776D01*
X142538645Y-129176448D01*
X142460925Y-129396418D01*
X142421500Y-129626351D01*
X142421500Y-130251220D01*
X142436329Y-130425451D01*
X142495114Y-130651217D01*
X142511481Y-130687425D01*
X142522146Y-130747705D01*
X142502674Y-130805741D01*
X142457810Y-130847390D01*
X142398488Y-130862500D01*
X142213443Y-130862500D01*
X142165990Y-130853061D01*
X142125762Y-130826181D01*
X139937032Y-128637451D01*
X139936609Y-128637139D01*
X139887917Y-128601202D01*
X139880674Y-128595426D01*
X139834398Y-128555602D01*
X139782702Y-128523120D01*
X139775041Y-128517897D01*
X139770870Y-128514819D01*
X139725933Y-128481654D01*
X139725931Y-128481653D01*
X139725930Y-128481652D01*
X139671964Y-128453130D01*
X139663934Y-128448494D01*
X139612248Y-128416017D01*
X139575312Y-128399902D01*
X139556282Y-128391599D01*
X139547948Y-128387586D01*
X139493973Y-128359059D01*
X139493972Y-128359058D01*
X139493971Y-128359058D01*
X139436353Y-128338896D01*
X139427723Y-128335509D01*
X139371777Y-128311100D01*
X139340100Y-128302612D01*
X139312805Y-128295298D01*
X139303961Y-128292570D01*
X139246333Y-128272406D01*
X139246332Y-128272405D01*
X139246330Y-128272405D01*
X139186352Y-128261056D01*
X139177314Y-128258993D01*
X139118350Y-128243194D01*
X139057684Y-128236359D01*
X139048515Y-128234977D01*
X138988542Y-128223629D01*
X138927548Y-128221347D01*
X138918301Y-128220654D01*
X138857636Y-128213818D01*
X138796637Y-128216101D01*
X138787363Y-128216101D01*
X138726363Y-128213818D01*
X138665696Y-128220654D01*
X138656450Y-128221347D01*
X138595461Y-128223629D01*
X138535483Y-128234977D01*
X138526318Y-128236358D01*
X138465648Y-128243194D01*
X138406685Y-128258993D01*
X138397648Y-128261056D01*
X138337666Y-128272405D01*
X138280038Y-128292570D01*
X138271180Y-128295302D01*
X138212226Y-128311099D01*
X138156281Y-128335507D01*
X138147653Y-128338894D01*
X138090027Y-128359059D01*
X138036055Y-128387583D01*
X138027703Y-128391605D01*
X137971748Y-128416018D01*
X137920056Y-128448498D01*
X137912028Y-128453133D01*
X137858068Y-128481653D01*
X137808954Y-128517899D01*
X137801296Y-128523120D01*
X137749604Y-128555601D01*
X137703330Y-128595422D01*
X137696081Y-128601202D01*
X137664272Y-128624678D01*
X137610647Y-128647283D01*
X137552615Y-128642934D01*
X137502958Y-128612589D01*
X137420657Y-128530288D01*
X137271334Y-128438186D01*
X137104797Y-128383000D01*
X137002009Y-128372500D01*
X135661991Y-128372500D01*
X135559203Y-128383000D01*
X135392665Y-128438186D01*
X135243342Y-128530288D01*
X135119288Y-128654342D01*
X135036028Y-128789330D01*
X135034833Y-128791269D01*
X135019578Y-128816001D01*
X135016637Y-128814187D01*
X134996574Y-128844978D01*
X134940605Y-128874047D01*
X134877576Y-128871825D01*
X134823792Y-128838887D01*
X134790035Y-128803666D01*
X134700728Y-128710484D01*
X134664781Y-128683898D01*
X134513161Y-128571760D01*
X134304847Y-128466730D01*
X134081780Y-128398417D01*
X133850376Y-128368784D01*
X133850372Y-128368784D01*
X133617295Y-128378685D01*
X133389232Y-128427836D01*
X133172768Y-128514819D01*
X132974107Y-128637139D01*
X132798980Y-128791270D01*
X132652423Y-128972776D01*
X132538645Y-129176448D01*
X132460925Y-129396418D01*
X132421500Y-129626351D01*
X132421500Y-130251220D01*
X132436329Y-130425451D01*
X132495114Y-130651217D01*
X132511481Y-130687425D01*
X132522146Y-130747705D01*
X132502674Y-130805741D01*
X132457810Y-130847390D01*
X132398488Y-130862500D01*
X132213443Y-130862500D01*
X132165990Y-130853061D01*
X132125762Y-130826181D01*
X129937032Y-128637451D01*
X129936609Y-128637139D01*
X129887917Y-128601202D01*
X129880674Y-128595426D01*
X129834398Y-128555602D01*
X129782702Y-128523120D01*
X129775041Y-128517897D01*
X129770870Y-128514819D01*
X129725933Y-128481654D01*
X129725931Y-128481653D01*
X129725930Y-128481652D01*
X129671964Y-128453130D01*
X129663934Y-128448494D01*
X129612248Y-128416017D01*
X129575312Y-128399902D01*
X129556282Y-128391599D01*
X129547948Y-128387586D01*
X129493973Y-128359059D01*
X129493972Y-128359058D01*
X129493971Y-128359058D01*
X129436353Y-128338896D01*
X129427723Y-128335509D01*
X129371777Y-128311100D01*
X129340100Y-128302612D01*
X129312805Y-128295298D01*
X129303961Y-128292570D01*
X129246333Y-128272406D01*
X129246332Y-128272405D01*
X129246330Y-128272405D01*
X129186352Y-128261056D01*
X129177314Y-128258993D01*
X129118350Y-128243194D01*
X129057684Y-128236359D01*
X129048515Y-128234977D01*
X128988542Y-128223629D01*
X128927548Y-128221347D01*
X128918301Y-128220654D01*
X128857636Y-128213818D01*
X128796637Y-128216101D01*
X128787363Y-128216101D01*
X128726363Y-128213818D01*
X128665696Y-128220654D01*
X128656450Y-128221347D01*
X128595461Y-128223629D01*
X128535483Y-128234977D01*
X128526318Y-128236358D01*
X128465648Y-128243194D01*
X128406685Y-128258993D01*
X128397648Y-128261056D01*
X128337666Y-128272405D01*
X128280038Y-128292570D01*
X128271180Y-128295302D01*
X128212226Y-128311099D01*
X128156281Y-128335507D01*
X128147653Y-128338894D01*
X128090027Y-128359059D01*
X128036055Y-128387583D01*
X128027703Y-128391605D01*
X127971748Y-128416018D01*
X127920056Y-128448498D01*
X127912028Y-128453133D01*
X127858068Y-128481653D01*
X127808954Y-128517899D01*
X127801296Y-128523120D01*
X127749604Y-128555601D01*
X127703330Y-128595422D01*
X127696081Y-128601202D01*
X127664272Y-128624678D01*
X127610647Y-128647283D01*
X127552615Y-128642934D01*
X127502958Y-128612589D01*
X127420657Y-128530288D01*
X127271334Y-128438186D01*
X127104797Y-128383000D01*
X127002009Y-128372500D01*
X125661991Y-128372500D01*
X125559203Y-128383000D01*
X125392665Y-128438186D01*
X125243342Y-128530288D01*
X125119288Y-128654342D01*
X125036028Y-128789330D01*
X125034833Y-128791269D01*
X125019578Y-128816001D01*
X125016637Y-128814187D01*
X124996574Y-128844978D01*
X124940605Y-128874047D01*
X124877576Y-128871825D01*
X124823792Y-128838887D01*
X124790035Y-128803666D01*
X124700728Y-128710484D01*
X124664781Y-128683898D01*
X124513161Y-128571760D01*
X124304847Y-128466730D01*
X124081780Y-128398417D01*
X123850376Y-128368784D01*
X123850372Y-128368784D01*
X123617295Y-128378685D01*
X123389232Y-128427836D01*
X123172768Y-128514819D01*
X122974107Y-128637139D01*
X122798980Y-128791270D01*
X122652423Y-128972776D01*
X122538645Y-129176448D01*
X122460925Y-129396418D01*
X122421500Y-129626351D01*
X122421500Y-130251220D01*
X122436329Y-130425451D01*
X122495114Y-130651217D01*
X122511481Y-130687425D01*
X122522146Y-130747705D01*
X122502674Y-130805741D01*
X122457810Y-130847390D01*
X122398488Y-130862500D01*
X122213443Y-130862500D01*
X122165990Y-130853061D01*
X122125762Y-130826181D01*
X119937032Y-128637451D01*
X119936609Y-128637139D01*
X119887917Y-128601202D01*
X119880674Y-128595426D01*
X119834398Y-128555602D01*
X119782702Y-128523120D01*
X119775041Y-128517897D01*
X119770870Y-128514819D01*
X119725933Y-128481654D01*
X119725931Y-128481653D01*
X119725930Y-128481652D01*
X119671964Y-128453130D01*
X119663934Y-128448494D01*
X119612248Y-128416017D01*
X119575312Y-128399902D01*
X119556282Y-128391599D01*
X119547948Y-128387586D01*
X119493973Y-128359059D01*
X119493972Y-128359058D01*
X119493971Y-128359058D01*
X119436353Y-128338896D01*
X119427723Y-128335509D01*
X119371777Y-128311100D01*
X119340100Y-128302612D01*
X119312805Y-128295298D01*
X119303961Y-128292570D01*
X119246333Y-128272406D01*
X119246332Y-128272405D01*
X119246330Y-128272405D01*
X119186352Y-128261056D01*
X119177314Y-128258993D01*
X119118350Y-128243194D01*
X119057684Y-128236359D01*
X119048515Y-128234977D01*
X118988542Y-128223629D01*
X118927548Y-128221347D01*
X118918301Y-128220654D01*
X118857636Y-128213818D01*
X118796637Y-128216101D01*
X118787363Y-128216101D01*
X118726363Y-128213818D01*
X118665696Y-128220654D01*
X118656450Y-128221347D01*
X118595461Y-128223629D01*
X118535483Y-128234977D01*
X118526318Y-128236358D01*
X118465648Y-128243194D01*
X118406685Y-128258993D01*
X118397648Y-128261056D01*
X118337666Y-128272405D01*
X118280038Y-128292570D01*
X118271180Y-128295302D01*
X118212226Y-128311099D01*
X118156281Y-128335507D01*
X118147653Y-128338894D01*
X118090027Y-128359059D01*
X118036055Y-128387583D01*
X118027703Y-128391605D01*
X117971748Y-128416018D01*
X117920056Y-128448498D01*
X117912028Y-128453133D01*
X117858068Y-128481653D01*
X117808954Y-128517899D01*
X117801296Y-128523120D01*
X117749604Y-128555601D01*
X117703330Y-128595422D01*
X117696081Y-128601202D01*
X117664272Y-128624678D01*
X117610647Y-128647283D01*
X117552615Y-128642934D01*
X117502958Y-128612589D01*
X117420657Y-128530288D01*
X117271334Y-128438186D01*
X117104797Y-128383000D01*
X117002009Y-128372500D01*
X115661991Y-128372500D01*
X115559203Y-128383000D01*
X115392665Y-128438186D01*
X115243342Y-128530288D01*
X115119288Y-128654342D01*
X115036028Y-128789330D01*
X115034833Y-128791269D01*
X115019578Y-128816001D01*
X115016637Y-128814187D01*
X114996574Y-128844978D01*
X114940605Y-128874047D01*
X114877576Y-128871825D01*
X114823792Y-128838887D01*
X114790035Y-128803666D01*
X114700728Y-128710484D01*
X114664781Y-128683898D01*
X114513161Y-128571760D01*
X114304847Y-128466730D01*
X114081780Y-128398417D01*
X113850376Y-128368784D01*
X113850372Y-128368784D01*
X113617295Y-128378685D01*
X113389232Y-128427836D01*
X113172768Y-128514819D01*
X112974107Y-128637139D01*
X112798980Y-128791270D01*
X112652423Y-128972776D01*
X112538645Y-129176448D01*
X112460925Y-129396418D01*
X112421500Y-129626351D01*
X112421500Y-130251220D01*
X112436329Y-130425451D01*
X112495114Y-130651217D01*
X112511481Y-130687425D01*
X112522146Y-130747705D01*
X112502674Y-130805741D01*
X112457810Y-130847390D01*
X112398488Y-130862500D01*
X112213443Y-130862500D01*
X112165990Y-130853061D01*
X112125762Y-130826181D01*
X109937032Y-128637451D01*
X109936609Y-128637139D01*
X109887917Y-128601202D01*
X109880674Y-128595426D01*
X109834398Y-128555602D01*
X109782702Y-128523120D01*
X109775041Y-128517897D01*
X109770870Y-128514819D01*
X109725933Y-128481654D01*
X109725931Y-128481653D01*
X109725930Y-128481652D01*
X109671964Y-128453130D01*
X109663934Y-128448494D01*
X109612248Y-128416017D01*
X109575312Y-128399902D01*
X109556282Y-128391599D01*
X109547948Y-128387586D01*
X109493973Y-128359059D01*
X109493972Y-128359058D01*
X109493971Y-128359058D01*
X109436353Y-128338896D01*
X109427723Y-128335509D01*
X109371777Y-128311100D01*
X109340100Y-128302612D01*
X109312805Y-128295298D01*
X109303961Y-128292570D01*
X109246333Y-128272406D01*
X109246332Y-128272405D01*
X109246330Y-128272405D01*
X109186352Y-128261056D01*
X109177314Y-128258993D01*
X109118350Y-128243194D01*
X109057684Y-128236359D01*
X109048515Y-128234977D01*
X108988542Y-128223629D01*
X108927548Y-128221347D01*
X108918301Y-128220654D01*
X108857636Y-128213818D01*
X108796637Y-128216101D01*
X108787363Y-128216101D01*
X108726363Y-128213818D01*
X108665696Y-128220654D01*
X108656450Y-128221347D01*
X108595461Y-128223629D01*
X108535483Y-128234977D01*
X108526318Y-128236358D01*
X108465648Y-128243194D01*
X108406685Y-128258993D01*
X108397648Y-128261056D01*
X108337666Y-128272405D01*
X108280038Y-128292570D01*
X108271180Y-128295302D01*
X108212226Y-128311099D01*
X108156281Y-128335507D01*
X108147653Y-128338894D01*
X108090027Y-128359059D01*
X108036055Y-128387583D01*
X108027703Y-128391605D01*
X107971748Y-128416018D01*
X107920056Y-128448498D01*
X107912028Y-128453133D01*
X107858068Y-128481653D01*
X107808954Y-128517899D01*
X107801296Y-128523120D01*
X107749604Y-128555601D01*
X107703330Y-128595422D01*
X107696081Y-128601202D01*
X107664272Y-128624678D01*
X107610647Y-128647283D01*
X107552615Y-128642934D01*
X107502958Y-128612589D01*
X107420657Y-128530288D01*
X107271334Y-128438186D01*
X107104797Y-128383000D01*
X107002009Y-128372500D01*
X105661991Y-128372500D01*
X105559203Y-128383000D01*
X105392665Y-128438186D01*
X105243342Y-128530288D01*
X105119288Y-128654342D01*
X105036028Y-128789330D01*
X105034833Y-128791269D01*
X105019578Y-128816001D01*
X105016637Y-128814187D01*
X104996574Y-128844978D01*
X104940605Y-128874047D01*
X104877576Y-128871825D01*
X104823792Y-128838887D01*
X104790035Y-128803666D01*
X104700728Y-128710484D01*
X104664781Y-128683898D01*
X104513161Y-128571760D01*
X104304847Y-128466730D01*
X104081780Y-128398417D01*
X103850376Y-128368784D01*
X103850372Y-128368784D01*
X103617295Y-128378685D01*
X103389232Y-128427836D01*
X103172768Y-128514819D01*
X102974107Y-128637139D01*
X102798980Y-128791270D01*
X102652423Y-128972776D01*
X102538645Y-129176448D01*
X102460925Y-129396418D01*
X102421500Y-129626351D01*
X102421500Y-130251220D01*
X102436329Y-130425451D01*
X102495114Y-130651217D01*
X102511481Y-130687425D01*
X102522146Y-130747705D01*
X102502674Y-130805741D01*
X102457810Y-130847390D01*
X102398488Y-130862500D01*
X102213443Y-130862500D01*
X102165990Y-130853061D01*
X102125762Y-130826181D01*
X99937032Y-128637451D01*
X99936609Y-128637139D01*
X99887917Y-128601202D01*
X99880674Y-128595426D01*
X99834398Y-128555602D01*
X99782702Y-128523120D01*
X99775041Y-128517897D01*
X99770870Y-128514819D01*
X99725933Y-128481654D01*
X99725931Y-128481653D01*
X99725930Y-128481652D01*
X99671964Y-128453130D01*
X99663934Y-128448494D01*
X99612248Y-128416017D01*
X99575312Y-128399902D01*
X99556282Y-128391599D01*
X99547948Y-128387586D01*
X99493973Y-128359059D01*
X99493972Y-128359058D01*
X99493971Y-128359058D01*
X99436353Y-128338896D01*
X99427723Y-128335509D01*
X99371777Y-128311100D01*
X99340100Y-128302612D01*
X99312805Y-128295298D01*
X99303961Y-128292570D01*
X99246333Y-128272406D01*
X99246332Y-128272405D01*
X99246330Y-128272405D01*
X99186352Y-128261056D01*
X99177314Y-128258993D01*
X99118350Y-128243194D01*
X99057684Y-128236359D01*
X99048515Y-128234977D01*
X98988542Y-128223629D01*
X98927548Y-128221347D01*
X98918301Y-128220654D01*
X98857636Y-128213818D01*
X98796637Y-128216101D01*
X98787363Y-128216101D01*
X98726363Y-128213818D01*
X98665696Y-128220654D01*
X98656450Y-128221347D01*
X98595461Y-128223629D01*
X98535483Y-128234977D01*
X98526318Y-128236358D01*
X98465648Y-128243194D01*
X98406685Y-128258993D01*
X98397648Y-128261056D01*
X98337666Y-128272405D01*
X98280038Y-128292570D01*
X98271180Y-128295302D01*
X98212226Y-128311099D01*
X98156281Y-128335507D01*
X98147653Y-128338894D01*
X98090027Y-128359059D01*
X98036055Y-128387583D01*
X98027703Y-128391605D01*
X97971748Y-128416018D01*
X97920056Y-128448498D01*
X97912028Y-128453133D01*
X97858068Y-128481653D01*
X97808954Y-128517899D01*
X97801296Y-128523120D01*
X97749604Y-128555601D01*
X97703330Y-128595422D01*
X97696081Y-128601202D01*
X97664272Y-128624678D01*
X97610647Y-128647283D01*
X97552615Y-128642934D01*
X97502958Y-128612589D01*
X97420657Y-128530288D01*
X97271334Y-128438186D01*
X97104797Y-128383000D01*
X97002009Y-128372500D01*
X95661991Y-128372500D01*
X95559203Y-128383000D01*
X95392665Y-128438186D01*
X95243342Y-128530288D01*
X95119288Y-128654342D01*
X95036028Y-128789330D01*
X95034833Y-128791269D01*
X95019578Y-128816001D01*
X95016637Y-128814187D01*
X94996574Y-128844978D01*
X94940605Y-128874047D01*
X94877576Y-128871825D01*
X94823792Y-128838887D01*
X94790035Y-128803666D01*
X94700728Y-128710484D01*
X94664781Y-128683898D01*
X94513161Y-128571760D01*
X94304847Y-128466730D01*
X94081780Y-128398417D01*
X93850376Y-128368784D01*
X93850372Y-128368784D01*
X93617295Y-128378685D01*
X93389232Y-128427836D01*
X93172768Y-128514819D01*
X92974107Y-128637139D01*
X92798980Y-128791270D01*
X92652423Y-128972776D01*
X92538645Y-129176448D01*
X92460925Y-129396418D01*
X92421500Y-129626351D01*
X92421500Y-130251220D01*
X92436329Y-130425451D01*
X92495114Y-130651217D01*
X92511481Y-130687425D01*
X92522146Y-130747705D01*
X92502674Y-130805741D01*
X92457810Y-130847390D01*
X92398488Y-130862500D01*
X92213443Y-130862500D01*
X92165990Y-130853061D01*
X92125762Y-130826181D01*
X89937032Y-128637451D01*
X89936609Y-128637139D01*
X89887917Y-128601202D01*
X89880674Y-128595426D01*
X89834398Y-128555602D01*
X89782702Y-128523120D01*
X89775041Y-128517897D01*
X89770870Y-128514819D01*
X89725933Y-128481654D01*
X89725931Y-128481653D01*
X89725930Y-128481652D01*
X89671964Y-128453130D01*
X89663934Y-128448494D01*
X89612248Y-128416017D01*
X89575312Y-128399902D01*
X89556282Y-128391599D01*
X89547948Y-128387586D01*
X89493973Y-128359059D01*
X89493972Y-128359058D01*
X89493971Y-128359058D01*
X89436353Y-128338896D01*
X89427723Y-128335509D01*
X89371777Y-128311100D01*
X89340100Y-128302612D01*
X89312805Y-128295298D01*
X89303961Y-128292570D01*
X89246333Y-128272406D01*
X89246332Y-128272405D01*
X89246330Y-128272405D01*
X89186352Y-128261056D01*
X89177314Y-128258993D01*
X89118350Y-128243194D01*
X89057684Y-128236359D01*
X89048515Y-128234977D01*
X88988542Y-128223629D01*
X88927548Y-128221347D01*
X88918301Y-128220654D01*
X88857636Y-128213818D01*
X88796637Y-128216101D01*
X88787363Y-128216101D01*
X88726363Y-128213818D01*
X88665696Y-128220654D01*
X88656450Y-128221347D01*
X88595461Y-128223629D01*
X88535483Y-128234977D01*
X88526318Y-128236358D01*
X88465648Y-128243194D01*
X88406685Y-128258993D01*
X88397648Y-128261056D01*
X88337666Y-128272405D01*
X88280038Y-128292570D01*
X88271180Y-128295302D01*
X88212226Y-128311099D01*
X88156281Y-128335507D01*
X88147653Y-128338894D01*
X88090027Y-128359059D01*
X88036055Y-128387583D01*
X88027703Y-128391605D01*
X87971748Y-128416018D01*
X87920056Y-128448498D01*
X87912028Y-128453133D01*
X87858068Y-128481653D01*
X87808954Y-128517899D01*
X87801296Y-128523120D01*
X87749604Y-128555601D01*
X87703330Y-128595422D01*
X87696081Y-128601202D01*
X87664272Y-128624678D01*
X87610647Y-128647283D01*
X87552615Y-128642934D01*
X87502958Y-128612589D01*
X87420657Y-128530288D01*
X87271334Y-128438186D01*
X87104797Y-128383000D01*
X87002009Y-128372500D01*
X85661991Y-128372500D01*
X85559203Y-128383000D01*
X85392665Y-128438186D01*
X85243342Y-128530288D01*
X85119288Y-128654342D01*
X85036028Y-128789330D01*
X85034833Y-128791269D01*
X85019578Y-128816001D01*
X85016637Y-128814187D01*
X84996574Y-128844978D01*
X84940605Y-128874047D01*
X84877576Y-128871825D01*
X84823792Y-128838887D01*
X84790035Y-128803666D01*
X84700728Y-128710484D01*
X84664781Y-128683898D01*
X84513161Y-128571760D01*
X84304847Y-128466730D01*
X84081780Y-128398417D01*
X83850376Y-128368784D01*
X83850372Y-128368784D01*
X83617295Y-128378685D01*
X83389232Y-128427836D01*
X83172768Y-128514819D01*
X82974107Y-128637139D01*
X82798980Y-128791270D01*
X82652423Y-128972776D01*
X82538645Y-129176448D01*
X82460925Y-129396418D01*
X82421500Y-129626351D01*
X82421500Y-130251220D01*
X82436329Y-130425451D01*
X82495114Y-130651217D01*
X82511481Y-130687425D01*
X82522146Y-130747705D01*
X82502674Y-130805741D01*
X82457810Y-130847390D01*
X82398488Y-130862500D01*
X82213443Y-130862500D01*
X82165990Y-130853061D01*
X82125762Y-130826181D01*
X79937032Y-128637451D01*
X79936609Y-128637139D01*
X79887917Y-128601202D01*
X79880674Y-128595426D01*
X79834398Y-128555602D01*
X79782702Y-128523120D01*
X79775041Y-128517897D01*
X79770870Y-128514819D01*
X79725933Y-128481654D01*
X79725931Y-128481653D01*
X79725930Y-128481652D01*
X79671964Y-128453130D01*
X79663934Y-128448494D01*
X79612248Y-128416017D01*
X79575312Y-128399902D01*
X79556282Y-128391599D01*
X79547948Y-128387586D01*
X79493973Y-128359059D01*
X79493972Y-128359058D01*
X79493971Y-128359058D01*
X79436353Y-128338896D01*
X79427723Y-128335509D01*
X79371777Y-128311100D01*
X79340100Y-128302612D01*
X79312805Y-128295298D01*
X79303961Y-128292570D01*
X79246333Y-128272406D01*
X79246332Y-128272405D01*
X79246330Y-128272405D01*
X79186352Y-128261056D01*
X79177314Y-128258993D01*
X79118350Y-128243194D01*
X79057684Y-128236359D01*
X79048515Y-128234977D01*
X78988542Y-128223629D01*
X78927548Y-128221347D01*
X78918301Y-128220654D01*
X78857636Y-128213818D01*
X78796637Y-128216101D01*
X78787363Y-128216101D01*
X78726363Y-128213818D01*
X78665696Y-128220654D01*
X78656450Y-128221347D01*
X78595461Y-128223629D01*
X78535483Y-128234977D01*
X78526318Y-128236358D01*
X78465648Y-128243194D01*
X78406685Y-128258993D01*
X78397648Y-128261056D01*
X78337666Y-128272405D01*
X78280038Y-128292570D01*
X78271180Y-128295302D01*
X78212226Y-128311099D01*
X78156281Y-128335507D01*
X78147653Y-128338894D01*
X78090027Y-128359059D01*
X78036055Y-128387583D01*
X78027703Y-128391605D01*
X77971748Y-128416018D01*
X77920056Y-128448498D01*
X77912028Y-128453133D01*
X77858068Y-128481653D01*
X77808954Y-128517899D01*
X77801296Y-128523120D01*
X77749604Y-128555601D01*
X77703330Y-128595422D01*
X77696081Y-128601202D01*
X77664272Y-128624678D01*
X77610647Y-128647283D01*
X77552615Y-128642934D01*
X77502958Y-128612589D01*
X77420657Y-128530288D01*
X77271334Y-128438186D01*
X77104797Y-128383000D01*
X77002009Y-128372500D01*
X75661991Y-128372500D01*
X75559203Y-128383000D01*
X75392665Y-128438186D01*
X75243342Y-128530288D01*
X75119288Y-128654342D01*
X75036028Y-128789330D01*
X75034833Y-128791269D01*
X75019578Y-128816001D01*
X75016637Y-128814187D01*
X74996574Y-128844978D01*
X74940605Y-128874047D01*
X74877576Y-128871825D01*
X74823792Y-128838887D01*
X74790035Y-128803666D01*
X74700728Y-128710484D01*
X74664781Y-128683898D01*
X74513161Y-128571760D01*
X74304847Y-128466730D01*
X74081780Y-128398417D01*
X73850376Y-128368784D01*
X73850372Y-128368784D01*
X73617295Y-128378685D01*
X73389232Y-128427836D01*
X73172768Y-128514819D01*
X72974107Y-128637139D01*
X72798980Y-128791270D01*
X72652423Y-128972776D01*
X72538645Y-129176448D01*
X72460925Y-129396418D01*
X72421500Y-129626351D01*
X72421500Y-130251220D01*
X72436329Y-130425451D01*
X72495114Y-130651217D01*
X72511481Y-130687425D01*
X72522146Y-130747705D01*
X72502674Y-130805741D01*
X72457810Y-130847390D01*
X72398488Y-130862500D01*
X70905443Y-130862500D01*
X70857990Y-130853061D01*
X70817762Y-130826181D01*
X70620819Y-130629238D01*
X70593939Y-130589010D01*
X70584500Y-130541557D01*
X70584500Y-128712501D01*
X70570123Y-128520650D01*
X70569802Y-128516370D01*
X70511420Y-128260584D01*
X70501912Y-128236359D01*
X70415568Y-128016358D01*
X70415568Y-128016357D01*
X70284386Y-127789143D01*
X70120805Y-127584019D01*
X70120801Y-127584015D01*
X69928480Y-127405567D01*
X69842324Y-127346826D01*
X69805373Y-127307374D01*
X69788718Y-127255949D01*
X69795523Y-127202325D01*
X69824496Y-127156691D01*
X69872107Y-127109080D01*
X70007600Y-126915576D01*
X70090406Y-126738000D01*
X67577593Y-126738000D01*
X67660399Y-126915576D01*
X67795893Y-127109081D01*
X67843504Y-127156692D01*
X67872476Y-127202326D01*
X67879281Y-127255949D01*
X67862626Y-127307374D01*
X67825676Y-127346826D01*
X67739516Y-127405569D01*
X67547198Y-127584015D01*
X67383613Y-127789143D01*
X67252431Y-128016358D01*
X67156580Y-128260581D01*
X67098197Y-128516372D01*
X67083500Y-128712501D01*
X67083500Y-131282957D01*
X67083413Y-131287595D01*
X67079818Y-131383637D01*
X62486607Y-131383637D01*
X62489350Y-124198000D01*
X67577593Y-124198000D01*
X67660399Y-124375576D01*
X67795893Y-124569081D01*
X67962918Y-124736106D01*
X68149031Y-124866425D01*
X68187896Y-124910743D01*
X68201907Y-124968000D01*
X68187896Y-125025257D01*
X68149031Y-125069575D01*
X67962918Y-125199893D01*
X67795890Y-125366921D01*
X67660400Y-125560421D01*
X67577594Y-125737999D01*
X67577594Y-125738000D01*
X68334000Y-125738000D01*
X68334000Y-124198000D01*
X69334000Y-124198000D01*
X69334000Y-125738000D01*
X70090406Y-125738000D01*
X70090405Y-125737999D01*
X70007599Y-125560421D01*
X69872109Y-125366921D01*
X69705081Y-125199893D01*
X69518968Y-125069575D01*
X69480103Y-125025257D01*
X69466092Y-124968000D01*
X69480103Y-124910743D01*
X69518968Y-124866425D01*
X69705081Y-124736106D01*
X69872106Y-124569081D01*
X70007600Y-124375576D01*
X70090406Y-124198000D01*
X152828000Y-124198000D01*
X152828000Y-124595824D01*
X152834402Y-124655375D01*
X152884647Y-124790089D01*
X152970811Y-124905188D01*
X153085910Y-124991352D01*
X153217987Y-125040614D01*
X153268366Y-125075593D01*
X153295819Y-125130438D01*
X153293630Y-125191730D01*
X153262335Y-125244477D01*
X153139888Y-125366924D01*
X153004400Y-125560421D01*
X152921594Y-125737999D01*
X152921594Y-125738000D01*
X153678000Y-125738000D01*
X153678000Y-124198000D01*
X154678000Y-124198000D01*
X154678000Y-125738000D01*
X155434406Y-125738000D01*
X155434405Y-125737999D01*
X155351599Y-125560421D01*
X155216109Y-125366921D01*
X155093665Y-125244477D01*
X155062369Y-125191731D01*
X155060180Y-125130438D01*
X155087633Y-125075593D01*
X155138013Y-125040614D01*
X155270088Y-124991352D01*
X155385188Y-124905188D01*
X155471352Y-124790089D01*
X155521597Y-124655375D01*
X155528000Y-124595824D01*
X155528000Y-124198000D01*
X154678000Y-124198000D01*
X153678000Y-124198000D01*
X152828000Y-124198000D01*
X70090406Y-124198000D01*
X69334000Y-124198000D01*
X68334000Y-124198000D01*
X67577593Y-124198000D01*
X62489350Y-124198000D01*
X62489732Y-123198000D01*
X67577594Y-123198000D01*
X68334000Y-123198000D01*
X68334000Y-122441595D01*
X68333999Y-122441594D01*
X68156421Y-122524400D01*
X67962921Y-122659890D01*
X67795890Y-122826921D01*
X67660400Y-123020421D01*
X67577594Y-123197999D01*
X67577594Y-123198000D01*
X62489732Y-123198000D01*
X62490021Y-122441593D01*
X69334000Y-122441593D01*
X69334000Y-123198000D01*
X70090406Y-123198000D01*
X152828000Y-123198000D01*
X153678000Y-123198000D01*
X153678000Y-122348000D01*
X154678000Y-122348000D01*
X154678000Y-123198000D01*
X155528000Y-123198000D01*
X155528000Y-122800176D01*
X155521597Y-122740624D01*
X155471352Y-122605910D01*
X155385188Y-122490811D01*
X155270089Y-122404647D01*
X155135375Y-122354402D01*
X155075824Y-122348000D01*
X154678000Y-122348000D01*
X153678000Y-122348000D01*
X153280176Y-122348000D01*
X153220624Y-122354402D01*
X153085910Y-122404647D01*
X152970811Y-122490811D01*
X152884647Y-122605910D01*
X152834402Y-122740624D01*
X152828000Y-122800176D01*
X152828000Y-123198000D01*
X70090406Y-123198000D01*
X70090405Y-123197999D01*
X70007599Y-123020421D01*
X69872109Y-122826921D01*
X69705081Y-122659893D01*
X69511576Y-122524399D01*
X69334000Y-122441593D01*
X62490021Y-122441593D01*
X62499564Y-97444000D01*
X73326000Y-97444000D01*
X73326000Y-97841824D01*
X73332402Y-97901375D01*
X73382647Y-98036089D01*
X73468811Y-98151188D01*
X73583910Y-98237352D01*
X73718624Y-98287597D01*
X73778176Y-98294000D01*
X74176000Y-98294000D01*
X75176000Y-98294000D01*
X75573824Y-98294000D01*
X75633375Y-98287597D01*
X75768089Y-98237352D01*
X75883188Y-98151188D01*
X75969352Y-98036089D01*
X76018422Y-97904528D01*
X76053401Y-97854149D01*
X76108246Y-97826696D01*
X76169539Y-97828885D01*
X76222285Y-97860181D01*
X76344599Y-97982495D01*
X76538170Y-98118035D01*
X76752337Y-98217903D01*
X76980592Y-98279063D01*
X77216000Y-98299659D01*
X77451408Y-98279063D01*
X77679663Y-98217903D01*
X77893830Y-98118035D01*
X78087401Y-97982495D01*
X78254495Y-97815401D01*
X78384428Y-97629837D01*
X78428742Y-97590975D01*
X78485999Y-97576964D01*
X78543255Y-97590974D01*
X78587573Y-97629839D01*
X78717505Y-97815401D01*
X78884599Y-97982495D01*
X79078170Y-98118035D01*
X79292337Y-98217903D01*
X79520592Y-98279063D01*
X79756000Y-98299659D01*
X79991408Y-98279063D01*
X80219663Y-98217903D01*
X80433830Y-98118035D01*
X80627401Y-97982495D01*
X80794495Y-97815401D01*
X80924428Y-97629837D01*
X80968742Y-97590975D01*
X81025999Y-97576964D01*
X81083255Y-97590974D01*
X81127573Y-97629839D01*
X81257505Y-97815401D01*
X81424599Y-97982495D01*
X81618170Y-98118035D01*
X81832337Y-98217903D01*
X82060592Y-98279063D01*
X82296000Y-98299659D01*
X82531408Y-98279063D01*
X82759663Y-98217903D01*
X82973830Y-98118035D01*
X83167401Y-97982495D01*
X83334495Y-97815401D01*
X83464428Y-97629837D01*
X83508742Y-97590975D01*
X83565999Y-97576964D01*
X83623255Y-97590974D01*
X83667573Y-97629839D01*
X83797505Y-97815401D01*
X83964599Y-97982495D01*
X84158170Y-98118035D01*
X84372337Y-98217903D01*
X84600592Y-98279063D01*
X84836000Y-98299659D01*
X85071408Y-98279063D01*
X85299663Y-98217903D01*
X85513830Y-98118035D01*
X85707401Y-97982495D01*
X85874495Y-97815401D01*
X86004428Y-97629837D01*
X86048742Y-97590975D01*
X86105999Y-97576964D01*
X86163255Y-97590974D01*
X86207573Y-97629839D01*
X86337505Y-97815401D01*
X86504599Y-97982495D01*
X86698170Y-98118035D01*
X86912337Y-98217903D01*
X87140592Y-98279063D01*
X87376000Y-98299659D01*
X87611408Y-98279063D01*
X87839663Y-98217903D01*
X88053830Y-98118035D01*
X88247401Y-97982495D01*
X88414495Y-97815401D01*
X88550035Y-97621830D01*
X88649903Y-97407663D01*
X88711063Y-97179408D01*
X88731659Y-96944000D01*
X88711063Y-96708592D01*
X88649903Y-96480337D01*
X88550035Y-96266171D01*
X88414495Y-96072599D01*
X88247401Y-95905505D01*
X88053830Y-95769965D01*
X87839663Y-95670097D01*
X87770276Y-95651505D01*
X87611407Y-95608936D01*
X87376000Y-95588340D01*
X87140592Y-95608936D01*
X86912336Y-95670097D01*
X86698170Y-95769965D01*
X86504598Y-95905505D01*
X86337508Y-96072595D01*
X86207574Y-96258160D01*
X86163255Y-96297026D01*
X86105999Y-96311036D01*
X86048742Y-96297025D01*
X86004426Y-96258161D01*
X85874495Y-96072599D01*
X85707401Y-95905505D01*
X85513830Y-95769965D01*
X85299663Y-95670097D01*
X85230276Y-95651505D01*
X85071407Y-95608936D01*
X84836000Y-95588340D01*
X84600592Y-95608936D01*
X84372336Y-95670097D01*
X84158170Y-95769965D01*
X83964598Y-95905505D01*
X83797508Y-96072595D01*
X83667574Y-96258160D01*
X83623255Y-96297026D01*
X83565999Y-96311036D01*
X83508742Y-96297025D01*
X83464426Y-96258161D01*
X83334495Y-96072599D01*
X83167401Y-95905505D01*
X82973830Y-95769965D01*
X82759663Y-95670097D01*
X82690276Y-95651505D01*
X82531407Y-95608936D01*
X82296000Y-95588340D01*
X82060592Y-95608936D01*
X81832336Y-95670097D01*
X81618170Y-95769965D01*
X81424598Y-95905505D01*
X81257508Y-96072595D01*
X81127574Y-96258160D01*
X81083255Y-96297026D01*
X81025999Y-96311036D01*
X80968742Y-96297025D01*
X80924426Y-96258161D01*
X80794495Y-96072599D01*
X80627401Y-95905505D01*
X80433830Y-95769965D01*
X80219663Y-95670097D01*
X80150276Y-95651505D01*
X79991407Y-95608936D01*
X79756000Y-95588340D01*
X79520592Y-95608936D01*
X79292336Y-95670097D01*
X79078170Y-95769965D01*
X78884598Y-95905505D01*
X78717508Y-96072595D01*
X78587574Y-96258160D01*
X78543255Y-96297026D01*
X78485999Y-96311036D01*
X78428742Y-96297025D01*
X78384426Y-96258161D01*
X78254495Y-96072599D01*
X78087401Y-95905505D01*
X77893830Y-95769965D01*
X77679663Y-95670097D01*
X77610276Y-95651505D01*
X77451407Y-95608936D01*
X77216000Y-95588340D01*
X76980592Y-95608936D01*
X76752336Y-95670097D01*
X76538170Y-95769965D01*
X76344601Y-95905503D01*
X76222285Y-96027819D01*
X76169539Y-96059114D01*
X76108246Y-96061303D01*
X76053401Y-96033850D01*
X76018422Y-95983471D01*
X75969352Y-95851911D01*
X75883188Y-95736811D01*
X75768089Y-95650647D01*
X75633375Y-95600402D01*
X75573824Y-95594000D01*
X75176000Y-95594000D01*
X75176000Y-98294000D01*
X74176000Y-98294000D01*
X74176000Y-97444000D01*
X73326000Y-97444000D01*
X62499564Y-97444000D01*
X62500473Y-95063764D01*
X66645787Y-95063764D01*
X66675413Y-95333016D01*
X66699257Y-95424218D01*
X66743928Y-95595088D01*
X66818243Y-95769965D01*
X66849871Y-95844392D01*
X66990982Y-96075611D01*
X67158995Y-96277500D01*
X67164255Y-96283820D01*
X67365998Y-96464582D01*
X67591910Y-96614044D01*
X67689335Y-96659715D01*
X67837177Y-96729021D01*
X68096562Y-96807058D01*
X68096569Y-96807060D01*
X68364561Y-96846500D01*
X68567631Y-96846500D01*
X68567634Y-96846500D01*
X68770156Y-96831677D01*
X68770155Y-96831677D01*
X69034553Y-96772780D01*
X69287558Y-96676014D01*
X69523777Y-96543441D01*
X69652558Y-96444000D01*
X73326000Y-96444000D01*
X74176000Y-96444000D01*
X74176000Y-95594000D01*
X73778176Y-95594000D01*
X73718624Y-95600402D01*
X73583910Y-95650647D01*
X73468811Y-95736811D01*
X73382647Y-95851910D01*
X73332402Y-95986624D01*
X73326000Y-96046176D01*
X73326000Y-96444000D01*
X69652558Y-96444000D01*
X69738177Y-96377888D01*
X69926186Y-96182881D01*
X70083799Y-95962579D01*
X70207656Y-95721675D01*
X70295118Y-95465305D01*
X70334887Y-95249999D01*
X103996540Y-95249999D01*
X104016326Y-95438257D01*
X104074820Y-95618284D01*
X104169466Y-95782216D01*
X104296129Y-95922889D01*
X104449269Y-96034151D01*
X104622197Y-96111144D01*
X104807352Y-96150500D01*
X104807354Y-96150500D01*
X104996646Y-96150500D01*
X104996648Y-96150500D01*
X105120084Y-96124262D01*
X105181803Y-96111144D01*
X105354730Y-96034151D01*
X105507871Y-95922888D01*
X105634533Y-95782216D01*
X105729179Y-95618284D01*
X105784522Y-95447955D01*
X105814769Y-95398597D01*
X106026547Y-95186819D01*
X106066776Y-95159939D01*
X106114229Y-95150500D01*
X106414432Y-95150500D01*
X106472646Y-95165015D01*
X106517233Y-95205160D01*
X106537752Y-95261538D01*
X106545265Y-95333016D01*
X106556326Y-95438257D01*
X106614820Y-95618284D01*
X106709466Y-95782216D01*
X106836129Y-95922889D01*
X106989269Y-96034151D01*
X107162193Y-96111143D01*
X107162196Y-96111143D01*
X107162197Y-96111144D01*
X107227333Y-96124988D01*
X107260714Y-96137303D01*
X107289228Y-96158596D01*
X108644269Y-97513637D01*
X108656051Y-97527270D01*
X108670389Y-97546529D01*
X108708337Y-97578372D01*
X108716311Y-97585680D01*
X108720221Y-97589590D01*
X108744537Y-97608816D01*
X108747336Y-97611096D01*
X108805752Y-97660113D01*
X108822179Y-97670578D01*
X108891320Y-97702819D01*
X108894567Y-97704391D01*
X108962699Y-97738609D01*
X108981087Y-97745000D01*
X108982323Y-97745255D01*
X108982327Y-97745257D01*
X109055856Y-97760438D01*
X109059290Y-97761200D01*
X109105416Y-97772133D01*
X109133506Y-97778791D01*
X109152879Y-97780770D01*
X109154141Y-97780733D01*
X109154145Y-97780734D01*
X109226534Y-97778627D01*
X109229132Y-97778552D01*
X109232738Y-97778500D01*
X110712663Y-97778500D01*
X110750982Y-97784569D01*
X110785550Y-97802183D01*
X110799271Y-97812152D01*
X110972197Y-97889144D01*
X111157352Y-97928500D01*
X111157354Y-97928500D01*
X111346646Y-97928500D01*
X111346648Y-97928500D01*
X111492279Y-97897545D01*
X111531803Y-97889144D01*
X111704730Y-97812151D01*
X111745775Y-97782330D01*
X111857870Y-97700889D01*
X111984533Y-97560216D01*
X112079179Y-97396284D01*
X112098591Y-97336539D01*
X112137674Y-97216256D01*
X112157460Y-97028000D01*
X112137674Y-96839744D01*
X112084475Y-96676014D01*
X112079179Y-96659715D01*
X111984533Y-96495783D01*
X111857870Y-96355110D01*
X111704730Y-96243848D01*
X111531802Y-96166855D01*
X111346648Y-96127500D01*
X111346646Y-96127500D01*
X111157354Y-96127500D01*
X111157352Y-96127500D01*
X110972197Y-96166855D01*
X110799271Y-96243847D01*
X110785550Y-96253817D01*
X110750982Y-96271431D01*
X110712663Y-96277500D01*
X109582229Y-96277500D01*
X109534776Y-96268061D01*
X109494548Y-96241181D01*
X108615549Y-95362181D01*
X108585299Y-95312818D01*
X108580757Y-95255102D01*
X108602912Y-95201615D01*
X108646935Y-95164015D01*
X108703230Y-95150500D01*
X134769142Y-95150500D01*
X134834685Y-95169238D01*
X134880419Y-95219789D01*
X134892523Y-95286874D01*
X134867338Y-95350220D01*
X134812477Y-95390680D01*
X134803076Y-95394187D01*
X134797668Y-95396204D01*
X134682454Y-95482454D01*
X134596204Y-95597668D01*
X134545909Y-95732516D01*
X134539500Y-95792130D01*
X134539500Y-97587869D01*
X134545909Y-97647484D01*
X134565828Y-97700888D01*
X134596204Y-97782331D01*
X134682454Y-97897546D01*
X134797669Y-97983796D01*
X134932517Y-98034091D01*
X134992127Y-98040500D01*
X136787872Y-98040499D01*
X136847483Y-98034091D01*
X136982331Y-97983796D01*
X137097546Y-97897546D01*
X137183796Y-97782331D01*
X137232810Y-97650916D01*
X137267789Y-97600537D01*
X137322634Y-97573084D01*
X137383927Y-97575273D01*
X137436673Y-97606569D01*
X137558599Y-97728495D01*
X137752170Y-97864035D01*
X137966337Y-97963903D01*
X138194592Y-98025063D01*
X138430000Y-98045659D01*
X138665408Y-98025063D01*
X138893663Y-97963903D01*
X139107830Y-97864035D01*
X139301401Y-97728495D01*
X139468495Y-97561401D01*
X139598426Y-97375839D01*
X139642743Y-97336975D01*
X139700000Y-97322964D01*
X139757257Y-97336975D01*
X139801573Y-97375839D01*
X139931505Y-97561401D01*
X140098599Y-97728495D01*
X140292170Y-97864035D01*
X140506337Y-97963903D01*
X140734592Y-98025063D01*
X140970000Y-98045659D01*
X141205408Y-98025063D01*
X141433663Y-97963903D01*
X141647830Y-97864035D01*
X141841401Y-97728495D01*
X142008495Y-97561401D01*
X142138426Y-97375839D01*
X142182743Y-97336975D01*
X142240000Y-97322964D01*
X142297257Y-97336975D01*
X142341573Y-97375839D01*
X142471505Y-97561401D01*
X142638599Y-97728495D01*
X142832170Y-97864035D01*
X143046337Y-97963903D01*
X143274592Y-98025063D01*
X143510000Y-98045659D01*
X143745408Y-98025063D01*
X143973663Y-97963903D01*
X144187830Y-97864035D01*
X144381401Y-97728495D01*
X144548495Y-97561401D01*
X144678426Y-97375839D01*
X144722743Y-97336975D01*
X144780000Y-97322964D01*
X144837257Y-97336975D01*
X144881573Y-97375839D01*
X145011505Y-97561401D01*
X145178599Y-97728495D01*
X145372170Y-97864035D01*
X145586337Y-97963903D01*
X145814592Y-98025063D01*
X146050000Y-98045659D01*
X146285408Y-98025063D01*
X146513663Y-97963903D01*
X146727830Y-97864035D01*
X146921401Y-97728495D01*
X147088495Y-97561401D01*
X147218732Y-97375402D01*
X147263048Y-97336539D01*
X147320305Y-97322528D01*
X147377562Y-97336539D01*
X147421880Y-97375404D01*
X147551893Y-97561081D01*
X147718918Y-97728106D01*
X147912423Y-97863600D01*
X148089999Y-97946406D01*
X148090000Y-97946407D01*
X148090000Y-97190000D01*
X149090000Y-97190000D01*
X149090000Y-97946406D01*
X149267576Y-97863600D01*
X149461081Y-97728106D01*
X149628106Y-97561081D01*
X149763600Y-97367576D01*
X149846406Y-97190000D01*
X149090000Y-97190000D01*
X148090000Y-97190000D01*
X148090000Y-95433595D01*
X148089999Y-95433594D01*
X147912421Y-95516400D01*
X147718921Y-95651890D01*
X147551893Y-95818918D01*
X147421880Y-96004596D01*
X147377562Y-96043461D01*
X147320305Y-96057472D01*
X147263048Y-96043461D01*
X147218730Y-96004595D01*
X147161519Y-95922889D01*
X147088495Y-95818599D01*
X146921401Y-95651505D01*
X146727830Y-95515965D01*
X146551183Y-95433593D01*
X149090000Y-95433593D01*
X149090000Y-96190000D01*
X149846406Y-96190000D01*
X149846405Y-96189999D01*
X149763599Y-96012421D01*
X149628109Y-95818921D01*
X149461081Y-95651893D01*
X149267576Y-95516399D01*
X149090000Y-95433593D01*
X146551183Y-95433593D01*
X146513663Y-95416097D01*
X146448344Y-95398595D01*
X146285407Y-95354936D01*
X146050000Y-95334340D01*
X145814592Y-95354936D01*
X145586336Y-95416097D01*
X145372170Y-95515965D01*
X145178598Y-95651505D01*
X145011505Y-95818598D01*
X144881575Y-96004159D01*
X144837257Y-96043025D01*
X144780000Y-96057036D01*
X144722743Y-96043025D01*
X144678425Y-96004159D01*
X144609347Y-95905505D01*
X144548495Y-95818599D01*
X144381401Y-95651505D01*
X144187830Y-95515965D01*
X143973663Y-95416097D01*
X143908344Y-95398595D01*
X143745407Y-95354936D01*
X143510000Y-95334340D01*
X143274592Y-95354936D01*
X143046336Y-95416097D01*
X142832170Y-95515965D01*
X142638598Y-95651505D01*
X142471505Y-95818598D01*
X142341575Y-96004159D01*
X142297257Y-96043025D01*
X142240000Y-96057036D01*
X142182743Y-96043025D01*
X142138425Y-96004159D01*
X142069347Y-95905505D01*
X142008495Y-95818599D01*
X141841401Y-95651505D01*
X141647830Y-95515965D01*
X141433663Y-95416097D01*
X141368344Y-95398595D01*
X141205407Y-95354936D01*
X140969999Y-95334340D01*
X140756986Y-95352977D01*
X140703769Y-95345971D01*
X140658498Y-95317130D01*
X140405132Y-95063764D01*
X152145787Y-95063764D01*
X152175413Y-95333016D01*
X152199257Y-95424218D01*
X152243928Y-95595088D01*
X152318243Y-95769965D01*
X152349871Y-95844392D01*
X152490982Y-96075611D01*
X152658995Y-96277500D01*
X152664255Y-96283820D01*
X152865998Y-96464582D01*
X153091910Y-96614044D01*
X153189335Y-96659715D01*
X153337177Y-96729021D01*
X153596562Y-96807058D01*
X153596569Y-96807060D01*
X153864561Y-96846500D01*
X154067631Y-96846500D01*
X154067634Y-96846500D01*
X154270156Y-96831677D01*
X154270155Y-96831677D01*
X154534553Y-96772780D01*
X154787558Y-96676014D01*
X155023777Y-96543441D01*
X155238177Y-96377888D01*
X155426186Y-96182881D01*
X155583799Y-95962579D01*
X155707656Y-95721675D01*
X155795118Y-95465305D01*
X155844319Y-95198933D01*
X155854212Y-94928235D01*
X155824586Y-94658982D01*
X155756072Y-94396912D01*
X155650130Y-94147610D01*
X155509018Y-93916390D01*
X155509017Y-93916388D01*
X155335746Y-93708181D01*
X155314778Y-93689394D01*
X155134002Y-93527418D01*
X154908090Y-93377956D01*
X154882511Y-93365965D01*
X154662822Y-93262978D01*
X154403437Y-93184941D01*
X154403431Y-93184940D01*
X154135439Y-93145500D01*
X153932369Y-93145500D01*
X153932366Y-93145500D01*
X153729843Y-93160322D01*
X153465449Y-93219219D01*
X153212441Y-93315986D01*
X152976223Y-93448559D01*
X152761825Y-93614109D01*
X152573813Y-93809120D01*
X152416201Y-94029420D01*
X152292342Y-94270329D01*
X152204881Y-94526695D01*
X152155680Y-94793066D01*
X152145787Y-95063764D01*
X140405132Y-95063764D01*
X139255728Y-93914360D01*
X139243946Y-93900727D01*
X139229609Y-93881469D01*
X139191666Y-93849631D01*
X139183691Y-93842323D01*
X139179782Y-93838414D01*
X139179777Y-93838409D01*
X139155423Y-93819152D01*
X139152647Y-93816890D01*
X139094251Y-93767890D01*
X139077821Y-93757422D01*
X139008691Y-93725186D01*
X139005447Y-93723615D01*
X138937306Y-93689394D01*
X138918903Y-93682997D01*
X138844211Y-93667574D01*
X138840692Y-93666794D01*
X138766490Y-93649208D01*
X138747121Y-93647229D01*
X138670869Y-93649448D01*
X138667263Y-93649500D01*
X105815707Y-93649500D01*
X105797738Y-93648191D01*
X105773977Y-93644711D01*
X105724631Y-93649028D01*
X105713824Y-93649500D01*
X105708291Y-93649500D01*
X105677501Y-93653098D01*
X105673917Y-93653464D01*
X105597961Y-93660109D01*
X105578921Y-93664330D01*
X105507232Y-93690421D01*
X105503831Y-93691603D01*
X105431474Y-93715580D01*
X105413927Y-93724075D01*
X105350221Y-93765975D01*
X105347181Y-93767912D01*
X105282280Y-93807944D01*
X105267165Y-93820256D01*
X105214832Y-93875725D01*
X105212320Y-93878311D01*
X104749229Y-94341402D01*
X104720716Y-94362694D01*
X104687329Y-94375011D01*
X104622197Y-94388855D01*
X104449269Y-94465848D01*
X104296129Y-94577110D01*
X104169466Y-94717783D01*
X104074820Y-94881715D01*
X104016326Y-95061742D01*
X103996540Y-95249999D01*
X70334887Y-95249999D01*
X70344319Y-95198933D01*
X70354212Y-94928235D01*
X70324586Y-94658982D01*
X70256072Y-94396912D01*
X70150130Y-94147610D01*
X70009018Y-93916390D01*
X70009017Y-93916388D01*
X69835746Y-93708181D01*
X69814778Y-93689394D01*
X69634002Y-93527418D01*
X69408090Y-93377956D01*
X69382511Y-93365965D01*
X69162822Y-93262978D01*
X68903437Y-93184941D01*
X68903431Y-93184940D01*
X68635439Y-93145500D01*
X68432369Y-93145500D01*
X68432366Y-93145500D01*
X68229843Y-93160322D01*
X67965449Y-93219219D01*
X67712441Y-93315986D01*
X67476223Y-93448559D01*
X67261825Y-93614109D01*
X67073813Y-93809120D01*
X66916201Y-94029420D01*
X66792342Y-94270329D01*
X66704881Y-94526695D01*
X66655680Y-94793066D01*
X66645787Y-95063764D01*
X62500473Y-95063764D01*
X62500498Y-94998395D01*
X62500594Y-94993579D01*
X62500596Y-94993537D01*
X62509988Y-94754472D01*
X62519529Y-94523822D01*
X62520278Y-94514432D01*
X62548869Y-94272868D01*
X62577442Y-94043650D01*
X62578868Y-94034825D01*
X62626313Y-93796302D01*
X62626430Y-93795730D01*
X62673826Y-93569687D01*
X62675820Y-93561569D01*
X62741770Y-93327727D01*
X62742178Y-93326318D01*
X62808043Y-93105085D01*
X62810529Y-93097617D01*
X62894623Y-92869669D01*
X62895334Y-92867799D01*
X62979215Y-92652830D01*
X62982093Y-92646059D01*
X63083790Y-92425461D01*
X63084881Y-92423162D01*
X63186260Y-92215789D01*
X63189405Y-92209788D01*
X63308082Y-91997874D01*
X63309621Y-91995209D01*
X63427774Y-91796923D01*
X63431127Y-91791613D01*
X63566073Y-91589654D01*
X63568123Y-91586686D01*
X63702228Y-91398860D01*
X63705673Y-91394271D01*
X63856004Y-91203576D01*
X63858676Y-91200305D01*
X64007835Y-91024194D01*
X64011302Y-91020277D01*
X64176126Y-90841972D01*
X64179401Y-90838567D01*
X64342566Y-90675401D01*
X64345971Y-90672126D01*
X64524277Y-90507302D01*
X64528194Y-90503835D01*
X64704305Y-90354676D01*
X64707576Y-90352004D01*
X64898271Y-90201673D01*
X64902860Y-90198228D01*
X65090686Y-90064123D01*
X65093654Y-90062073D01*
X65295613Y-89927127D01*
X65300923Y-89923774D01*
X65499209Y-89805621D01*
X65501874Y-89804082D01*
X65713788Y-89685405D01*
X65719789Y-89682260D01*
X65927162Y-89580881D01*
X65929461Y-89579790D01*
X66150059Y-89478093D01*
X66156830Y-89475215D01*
X66371799Y-89391334D01*
X66373669Y-89390623D01*
X66601617Y-89306529D01*
X66609085Y-89304043D01*
X66830318Y-89238178D01*
X66831727Y-89237770D01*
X67065569Y-89171820D01*
X67073687Y-89169826D01*
X67299730Y-89122430D01*
X67300302Y-89122313D01*
X67538825Y-89074868D01*
X67547650Y-89073442D01*
X67776868Y-89044869D01*
X68018432Y-89016278D01*
X68027822Y-89015529D01*
X68258428Y-89005991D01*
X68258577Y-89005985D01*
X68258579Y-89006044D01*
X68258823Y-89005975D01*
X68497556Y-88996596D01*
X68502424Y-88996500D01*
X153997575Y-88996500D01*
X154002442Y-88996596D01*
G37*
G04 #@! TD.AperFunction*
M02*
