%TF.GenerationSoftware,KiCad,Pcbnew,7.0.1*%
%TF.CreationDate,2023-08-26T15:59:39-05:00*%
%TF.ProjectId,Single Mosfet Board,53696e67-6c65-4204-9d6f-736665742042,rev?*%
%TF.SameCoordinates,Original*%
%TF.FileFunction,Drillmap*%
%TF.FilePolarity,Positive*%
%FSLAX45Y45*%
G04 Gerber Fmt 4.5, Leading zero omitted, Abs format (unit mm)*
G04 Created by KiCad (PCBNEW 7.0.1) date 2023-08-26 15:59:39*
%MOMM*%
%LPD*%
G01*
G04 APERTURE LIST*
%ADD10C,0.100000*%
%ADD11C,0.200000*%
%ADD12C,0.320000*%
G04 APERTURE END LIST*
D10*
X15100000Y-9450000D02*
X15100000Y-7525000D01*
X13100000Y-9800000D02*
X14750000Y-9800000D01*
X12750000Y-7525000D02*
X12750000Y-9450000D01*
X14750000Y-7175000D02*
X13100000Y-7175000D01*
X14750000Y-9800000D02*
G75*
G03*
X15100000Y-9450000I0J350000D01*
G01*
X13100000Y-7175000D02*
G75*
G03*
X12750000Y-7525000I0J-350000D01*
G01*
X15100000Y-7525000D02*
G75*
G03*
X14750000Y-7175000I-350000J0D01*
G01*
X12750000Y-9450000D02*
G75*
G03*
X13100000Y-9800000I350000J0D01*
G01*
D11*
D12*
X12940000Y-9290000D02*
X13260000Y-9610000D01*
X13260000Y-9290000D02*
X12940000Y-9610000D01*
X14590000Y-7365000D02*
X14910000Y-7685000D01*
X14910000Y-7365000D02*
X14590000Y-7685000D01*
D11*
X12992619Y-10117524D02*
X12992619Y-9917524D01*
X12992619Y-9917524D02*
X13040238Y-9917524D01*
X13040238Y-9917524D02*
X13068809Y-9927048D01*
X13068809Y-9927048D02*
X13087857Y-9946095D01*
X13087857Y-9946095D02*
X13097381Y-9965143D01*
X13097381Y-9965143D02*
X13106905Y-10003238D01*
X13106905Y-10003238D02*
X13106905Y-10031810D01*
X13106905Y-10031810D02*
X13097381Y-10069905D01*
X13097381Y-10069905D02*
X13087857Y-10088952D01*
X13087857Y-10088952D02*
X13068809Y-10108000D01*
X13068809Y-10108000D02*
X13040238Y-10117524D01*
X13040238Y-10117524D02*
X12992619Y-10117524D01*
X13192619Y-10117524D02*
X13192619Y-9984190D01*
X13192619Y-10022286D02*
X13202143Y-10003238D01*
X13202143Y-10003238D02*
X13211667Y-9993714D01*
X13211667Y-9993714D02*
X13230714Y-9984190D01*
X13230714Y-9984190D02*
X13249762Y-9984190D01*
X13316428Y-10117524D02*
X13316428Y-9984190D01*
X13316428Y-9917524D02*
X13306905Y-9927048D01*
X13306905Y-9927048D02*
X13316428Y-9936571D01*
X13316428Y-9936571D02*
X13325952Y-9927048D01*
X13325952Y-9927048D02*
X13316428Y-9917524D01*
X13316428Y-9917524D02*
X13316428Y-9936571D01*
X13440238Y-10117524D02*
X13421190Y-10108000D01*
X13421190Y-10108000D02*
X13411667Y-10088952D01*
X13411667Y-10088952D02*
X13411667Y-9917524D01*
X13545000Y-10117524D02*
X13525952Y-10108000D01*
X13525952Y-10108000D02*
X13516428Y-10088952D01*
X13516428Y-10088952D02*
X13516428Y-9917524D01*
X13773571Y-10117524D02*
X13773571Y-9917524D01*
X13773571Y-9917524D02*
X13840238Y-10060381D01*
X13840238Y-10060381D02*
X13906905Y-9917524D01*
X13906905Y-9917524D02*
X13906905Y-10117524D01*
X14087857Y-10117524D02*
X14087857Y-10012762D01*
X14087857Y-10012762D02*
X14078333Y-9993714D01*
X14078333Y-9993714D02*
X14059286Y-9984190D01*
X14059286Y-9984190D02*
X14021190Y-9984190D01*
X14021190Y-9984190D02*
X14002143Y-9993714D01*
X14087857Y-10108000D02*
X14068809Y-10117524D01*
X14068809Y-10117524D02*
X14021190Y-10117524D01*
X14021190Y-10117524D02*
X14002143Y-10108000D01*
X14002143Y-10108000D02*
X13992619Y-10088952D01*
X13992619Y-10088952D02*
X13992619Y-10069905D01*
X13992619Y-10069905D02*
X14002143Y-10050857D01*
X14002143Y-10050857D02*
X14021190Y-10041333D01*
X14021190Y-10041333D02*
X14068809Y-10041333D01*
X14068809Y-10041333D02*
X14087857Y-10031810D01*
X14183095Y-9984190D02*
X14183095Y-10184190D01*
X14183095Y-9993714D02*
X14202143Y-9984190D01*
X14202143Y-9984190D02*
X14240238Y-9984190D01*
X14240238Y-9984190D02*
X14259286Y-9993714D01*
X14259286Y-9993714D02*
X14268809Y-10003238D01*
X14268809Y-10003238D02*
X14278333Y-10022286D01*
X14278333Y-10022286D02*
X14278333Y-10079429D01*
X14278333Y-10079429D02*
X14268809Y-10098476D01*
X14268809Y-10098476D02*
X14259286Y-10108000D01*
X14259286Y-10108000D02*
X14240238Y-10117524D01*
X14240238Y-10117524D02*
X14202143Y-10117524D01*
X14202143Y-10117524D02*
X14183095Y-10108000D01*
X14364048Y-10098476D02*
X14373571Y-10108000D01*
X14373571Y-10108000D02*
X14364048Y-10117524D01*
X14364048Y-10117524D02*
X14354524Y-10108000D01*
X14354524Y-10108000D02*
X14364048Y-10098476D01*
X14364048Y-10098476D02*
X14364048Y-10117524D01*
X14364048Y-9993714D02*
X14373571Y-10003238D01*
X14373571Y-10003238D02*
X14364048Y-10012762D01*
X14364048Y-10012762D02*
X14354524Y-10003238D01*
X14354524Y-10003238D02*
X14364048Y-9993714D01*
X14364048Y-9993714D02*
X14364048Y-10012762D01*
X12545000Y-10345000D02*
X12745000Y-10545000D01*
X12745000Y-10345000D02*
X12545000Y-10545000D01*
X12973571Y-10337524D02*
X13097381Y-10337524D01*
X13097381Y-10337524D02*
X13030714Y-10413714D01*
X13030714Y-10413714D02*
X13059286Y-10413714D01*
X13059286Y-10413714D02*
X13078333Y-10423238D01*
X13078333Y-10423238D02*
X13087857Y-10432762D01*
X13087857Y-10432762D02*
X13097381Y-10451810D01*
X13097381Y-10451810D02*
X13097381Y-10499429D01*
X13097381Y-10499429D02*
X13087857Y-10518476D01*
X13087857Y-10518476D02*
X13078333Y-10528000D01*
X13078333Y-10528000D02*
X13059286Y-10537524D01*
X13059286Y-10537524D02*
X13002143Y-10537524D01*
X13002143Y-10537524D02*
X12983095Y-10528000D01*
X12983095Y-10528000D02*
X12973571Y-10518476D01*
X13183095Y-10518476D02*
X13192619Y-10528000D01*
X13192619Y-10528000D02*
X13183095Y-10537524D01*
X13183095Y-10537524D02*
X13173571Y-10528000D01*
X13173571Y-10528000D02*
X13183095Y-10518476D01*
X13183095Y-10518476D02*
X13183095Y-10537524D01*
X13268809Y-10356571D02*
X13278333Y-10347048D01*
X13278333Y-10347048D02*
X13297381Y-10337524D01*
X13297381Y-10337524D02*
X13345000Y-10337524D01*
X13345000Y-10337524D02*
X13364048Y-10347048D01*
X13364048Y-10347048D02*
X13373571Y-10356571D01*
X13373571Y-10356571D02*
X13383095Y-10375619D01*
X13383095Y-10375619D02*
X13383095Y-10394667D01*
X13383095Y-10394667D02*
X13373571Y-10423238D01*
X13373571Y-10423238D02*
X13259286Y-10537524D01*
X13259286Y-10537524D02*
X13383095Y-10537524D01*
X13506905Y-10337524D02*
X13525952Y-10337524D01*
X13525952Y-10337524D02*
X13545000Y-10347048D01*
X13545000Y-10347048D02*
X13554524Y-10356571D01*
X13554524Y-10356571D02*
X13564048Y-10375619D01*
X13564048Y-10375619D02*
X13573571Y-10413714D01*
X13573571Y-10413714D02*
X13573571Y-10461333D01*
X13573571Y-10461333D02*
X13564048Y-10499429D01*
X13564048Y-10499429D02*
X13554524Y-10518476D01*
X13554524Y-10518476D02*
X13545000Y-10528000D01*
X13545000Y-10528000D02*
X13525952Y-10537524D01*
X13525952Y-10537524D02*
X13506905Y-10537524D01*
X13506905Y-10537524D02*
X13487857Y-10528000D01*
X13487857Y-10528000D02*
X13478333Y-10518476D01*
X13478333Y-10518476D02*
X13468809Y-10499429D01*
X13468809Y-10499429D02*
X13459286Y-10461333D01*
X13459286Y-10461333D02*
X13459286Y-10413714D01*
X13459286Y-10413714D02*
X13468809Y-10375619D01*
X13468809Y-10375619D02*
X13478333Y-10356571D01*
X13478333Y-10356571D02*
X13487857Y-10347048D01*
X13487857Y-10347048D02*
X13506905Y-10337524D01*
X13697381Y-10337524D02*
X13716429Y-10337524D01*
X13716429Y-10337524D02*
X13735476Y-10347048D01*
X13735476Y-10347048D02*
X13745000Y-10356571D01*
X13745000Y-10356571D02*
X13754524Y-10375619D01*
X13754524Y-10375619D02*
X13764048Y-10413714D01*
X13764048Y-10413714D02*
X13764048Y-10461333D01*
X13764048Y-10461333D02*
X13754524Y-10499429D01*
X13754524Y-10499429D02*
X13745000Y-10518476D01*
X13745000Y-10518476D02*
X13735476Y-10528000D01*
X13735476Y-10528000D02*
X13716429Y-10537524D01*
X13716429Y-10537524D02*
X13697381Y-10537524D01*
X13697381Y-10537524D02*
X13678333Y-10528000D01*
X13678333Y-10528000D02*
X13668809Y-10518476D01*
X13668809Y-10518476D02*
X13659286Y-10499429D01*
X13659286Y-10499429D02*
X13649762Y-10461333D01*
X13649762Y-10461333D02*
X13649762Y-10413714D01*
X13649762Y-10413714D02*
X13659286Y-10375619D01*
X13659286Y-10375619D02*
X13668809Y-10356571D01*
X13668809Y-10356571D02*
X13678333Y-10347048D01*
X13678333Y-10347048D02*
X13697381Y-10337524D01*
X13849762Y-10537524D02*
X13849762Y-10404190D01*
X13849762Y-10423238D02*
X13859286Y-10413714D01*
X13859286Y-10413714D02*
X13878333Y-10404190D01*
X13878333Y-10404190D02*
X13906905Y-10404190D01*
X13906905Y-10404190D02*
X13925952Y-10413714D01*
X13925952Y-10413714D02*
X13935476Y-10432762D01*
X13935476Y-10432762D02*
X13935476Y-10537524D01*
X13935476Y-10432762D02*
X13945000Y-10413714D01*
X13945000Y-10413714D02*
X13964048Y-10404190D01*
X13964048Y-10404190D02*
X13992619Y-10404190D01*
X13992619Y-10404190D02*
X14011667Y-10413714D01*
X14011667Y-10413714D02*
X14021190Y-10432762D01*
X14021190Y-10432762D02*
X14021190Y-10537524D01*
X14116429Y-10537524D02*
X14116429Y-10404190D01*
X14116429Y-10423238D02*
X14125952Y-10413714D01*
X14125952Y-10413714D02*
X14145000Y-10404190D01*
X14145000Y-10404190D02*
X14173571Y-10404190D01*
X14173571Y-10404190D02*
X14192619Y-10413714D01*
X14192619Y-10413714D02*
X14202143Y-10432762D01*
X14202143Y-10432762D02*
X14202143Y-10537524D01*
X14202143Y-10432762D02*
X14211667Y-10413714D01*
X14211667Y-10413714D02*
X14230714Y-10404190D01*
X14230714Y-10404190D02*
X14259286Y-10404190D01*
X14259286Y-10404190D02*
X14278333Y-10413714D01*
X14278333Y-10413714D02*
X14287857Y-10432762D01*
X14287857Y-10432762D02*
X14287857Y-10537524D01*
X14678333Y-10328000D02*
X14506905Y-10585143D01*
X14935476Y-10337524D02*
X14954524Y-10337524D01*
X14954524Y-10337524D02*
X14973572Y-10347048D01*
X14973572Y-10347048D02*
X14983095Y-10356571D01*
X14983095Y-10356571D02*
X14992619Y-10375619D01*
X14992619Y-10375619D02*
X15002143Y-10413714D01*
X15002143Y-10413714D02*
X15002143Y-10461333D01*
X15002143Y-10461333D02*
X14992619Y-10499429D01*
X14992619Y-10499429D02*
X14983095Y-10518476D01*
X14983095Y-10518476D02*
X14973572Y-10528000D01*
X14973572Y-10528000D02*
X14954524Y-10537524D01*
X14954524Y-10537524D02*
X14935476Y-10537524D01*
X14935476Y-10537524D02*
X14916429Y-10528000D01*
X14916429Y-10528000D02*
X14906905Y-10518476D01*
X14906905Y-10518476D02*
X14897381Y-10499429D01*
X14897381Y-10499429D02*
X14887857Y-10461333D01*
X14887857Y-10461333D02*
X14887857Y-10413714D01*
X14887857Y-10413714D02*
X14897381Y-10375619D01*
X14897381Y-10375619D02*
X14906905Y-10356571D01*
X14906905Y-10356571D02*
X14916429Y-10347048D01*
X14916429Y-10347048D02*
X14935476Y-10337524D01*
X15087857Y-10518476D02*
X15097381Y-10528000D01*
X15097381Y-10528000D02*
X15087857Y-10537524D01*
X15087857Y-10537524D02*
X15078333Y-10528000D01*
X15078333Y-10528000D02*
X15087857Y-10518476D01*
X15087857Y-10518476D02*
X15087857Y-10537524D01*
X15287857Y-10537524D02*
X15173572Y-10537524D01*
X15230714Y-10537524D02*
X15230714Y-10337524D01*
X15230714Y-10337524D02*
X15211667Y-10366095D01*
X15211667Y-10366095D02*
X15192619Y-10385143D01*
X15192619Y-10385143D02*
X15173572Y-10394667D01*
X15364048Y-10356571D02*
X15373572Y-10347048D01*
X15373572Y-10347048D02*
X15392619Y-10337524D01*
X15392619Y-10337524D02*
X15440238Y-10337524D01*
X15440238Y-10337524D02*
X15459286Y-10347048D01*
X15459286Y-10347048D02*
X15468810Y-10356571D01*
X15468810Y-10356571D02*
X15478333Y-10375619D01*
X15478333Y-10375619D02*
X15478333Y-10394667D01*
X15478333Y-10394667D02*
X15468810Y-10423238D01*
X15468810Y-10423238D02*
X15354524Y-10537524D01*
X15354524Y-10537524D02*
X15478333Y-10537524D01*
X15649762Y-10337524D02*
X15611667Y-10337524D01*
X15611667Y-10337524D02*
X15592619Y-10347048D01*
X15592619Y-10347048D02*
X15583095Y-10356571D01*
X15583095Y-10356571D02*
X15564048Y-10385143D01*
X15564048Y-10385143D02*
X15554524Y-10423238D01*
X15554524Y-10423238D02*
X15554524Y-10499429D01*
X15554524Y-10499429D02*
X15564048Y-10518476D01*
X15564048Y-10518476D02*
X15573572Y-10528000D01*
X15573572Y-10528000D02*
X15592619Y-10537524D01*
X15592619Y-10537524D02*
X15630714Y-10537524D01*
X15630714Y-10537524D02*
X15649762Y-10528000D01*
X15649762Y-10528000D02*
X15659286Y-10518476D01*
X15659286Y-10518476D02*
X15668810Y-10499429D01*
X15668810Y-10499429D02*
X15668810Y-10451810D01*
X15668810Y-10451810D02*
X15659286Y-10432762D01*
X15659286Y-10432762D02*
X15649762Y-10423238D01*
X15649762Y-10423238D02*
X15630714Y-10413714D01*
X15630714Y-10413714D02*
X15592619Y-10413714D01*
X15592619Y-10413714D02*
X15573572Y-10423238D01*
X15573572Y-10423238D02*
X15564048Y-10432762D01*
X15564048Y-10432762D02*
X15554524Y-10451810D01*
X15792619Y-10337524D02*
X15811667Y-10337524D01*
X15811667Y-10337524D02*
X15830714Y-10347048D01*
X15830714Y-10347048D02*
X15840238Y-10356571D01*
X15840238Y-10356571D02*
X15849762Y-10375619D01*
X15849762Y-10375619D02*
X15859286Y-10413714D01*
X15859286Y-10413714D02*
X15859286Y-10461333D01*
X15859286Y-10461333D02*
X15849762Y-10499429D01*
X15849762Y-10499429D02*
X15840238Y-10518476D01*
X15840238Y-10518476D02*
X15830714Y-10528000D01*
X15830714Y-10528000D02*
X15811667Y-10537524D01*
X15811667Y-10537524D02*
X15792619Y-10537524D01*
X15792619Y-10537524D02*
X15773572Y-10528000D01*
X15773572Y-10528000D02*
X15764048Y-10518476D01*
X15764048Y-10518476D02*
X15754524Y-10499429D01*
X15754524Y-10499429D02*
X15745000Y-10461333D01*
X15745000Y-10461333D02*
X15745000Y-10413714D01*
X15745000Y-10413714D02*
X15754524Y-10375619D01*
X15754524Y-10375619D02*
X15764048Y-10356571D01*
X15764048Y-10356571D02*
X15773572Y-10347048D01*
X15773572Y-10347048D02*
X15792619Y-10337524D01*
X15935476Y-10337524D02*
X15935476Y-10375619D01*
X16011667Y-10337524D02*
X16011667Y-10375619D01*
X16306905Y-10613714D02*
X16297381Y-10604190D01*
X16297381Y-10604190D02*
X16278334Y-10575619D01*
X16278334Y-10575619D02*
X16268810Y-10556571D01*
X16268810Y-10556571D02*
X16259286Y-10528000D01*
X16259286Y-10528000D02*
X16249762Y-10480381D01*
X16249762Y-10480381D02*
X16249762Y-10442286D01*
X16249762Y-10442286D02*
X16259286Y-10394667D01*
X16259286Y-10394667D02*
X16268810Y-10366095D01*
X16268810Y-10366095D02*
X16278334Y-10347048D01*
X16278334Y-10347048D02*
X16297381Y-10318476D01*
X16297381Y-10318476D02*
X16306905Y-10308952D01*
X16373572Y-10356571D02*
X16383095Y-10347048D01*
X16383095Y-10347048D02*
X16402143Y-10337524D01*
X16402143Y-10337524D02*
X16449762Y-10337524D01*
X16449762Y-10337524D02*
X16468810Y-10347048D01*
X16468810Y-10347048D02*
X16478334Y-10356571D01*
X16478334Y-10356571D02*
X16487857Y-10375619D01*
X16487857Y-10375619D02*
X16487857Y-10394667D01*
X16487857Y-10394667D02*
X16478334Y-10423238D01*
X16478334Y-10423238D02*
X16364048Y-10537524D01*
X16364048Y-10537524D02*
X16487857Y-10537524D01*
X16725953Y-10537524D02*
X16725953Y-10337524D01*
X16811667Y-10537524D02*
X16811667Y-10432762D01*
X16811667Y-10432762D02*
X16802143Y-10413714D01*
X16802143Y-10413714D02*
X16783096Y-10404190D01*
X16783096Y-10404190D02*
X16754524Y-10404190D01*
X16754524Y-10404190D02*
X16735476Y-10413714D01*
X16735476Y-10413714D02*
X16725953Y-10423238D01*
X16935477Y-10537524D02*
X16916429Y-10528000D01*
X16916429Y-10528000D02*
X16906905Y-10518476D01*
X16906905Y-10518476D02*
X16897381Y-10499429D01*
X16897381Y-10499429D02*
X16897381Y-10442286D01*
X16897381Y-10442286D02*
X16906905Y-10423238D01*
X16906905Y-10423238D02*
X16916429Y-10413714D01*
X16916429Y-10413714D02*
X16935477Y-10404190D01*
X16935477Y-10404190D02*
X16964048Y-10404190D01*
X16964048Y-10404190D02*
X16983096Y-10413714D01*
X16983096Y-10413714D02*
X16992619Y-10423238D01*
X16992619Y-10423238D02*
X17002143Y-10442286D01*
X17002143Y-10442286D02*
X17002143Y-10499429D01*
X17002143Y-10499429D02*
X16992619Y-10518476D01*
X16992619Y-10518476D02*
X16983096Y-10528000D01*
X16983096Y-10528000D02*
X16964048Y-10537524D01*
X16964048Y-10537524D02*
X16935477Y-10537524D01*
X17116429Y-10537524D02*
X17097381Y-10528000D01*
X17097381Y-10528000D02*
X17087858Y-10508952D01*
X17087858Y-10508952D02*
X17087858Y-10337524D01*
X17268810Y-10528000D02*
X17249762Y-10537524D01*
X17249762Y-10537524D02*
X17211667Y-10537524D01*
X17211667Y-10537524D02*
X17192619Y-10528000D01*
X17192619Y-10528000D02*
X17183096Y-10508952D01*
X17183096Y-10508952D02*
X17183096Y-10432762D01*
X17183096Y-10432762D02*
X17192619Y-10413714D01*
X17192619Y-10413714D02*
X17211667Y-10404190D01*
X17211667Y-10404190D02*
X17249762Y-10404190D01*
X17249762Y-10404190D02*
X17268810Y-10413714D01*
X17268810Y-10413714D02*
X17278334Y-10432762D01*
X17278334Y-10432762D02*
X17278334Y-10451810D01*
X17278334Y-10451810D02*
X17183096Y-10470857D01*
X17354524Y-10528000D02*
X17373572Y-10537524D01*
X17373572Y-10537524D02*
X17411667Y-10537524D01*
X17411667Y-10537524D02*
X17430715Y-10528000D01*
X17430715Y-10528000D02*
X17440239Y-10508952D01*
X17440239Y-10508952D02*
X17440239Y-10499429D01*
X17440239Y-10499429D02*
X17430715Y-10480381D01*
X17430715Y-10480381D02*
X17411667Y-10470857D01*
X17411667Y-10470857D02*
X17383096Y-10470857D01*
X17383096Y-10470857D02*
X17364048Y-10461333D01*
X17364048Y-10461333D02*
X17354524Y-10442286D01*
X17354524Y-10442286D02*
X17354524Y-10432762D01*
X17354524Y-10432762D02*
X17364048Y-10413714D01*
X17364048Y-10413714D02*
X17383096Y-10404190D01*
X17383096Y-10404190D02*
X17411667Y-10404190D01*
X17411667Y-10404190D02*
X17430715Y-10413714D01*
X17506905Y-10613714D02*
X17516429Y-10604190D01*
X17516429Y-10604190D02*
X17535477Y-10575619D01*
X17535477Y-10575619D02*
X17545000Y-10556571D01*
X17545000Y-10556571D02*
X17554524Y-10528000D01*
X17554524Y-10528000D02*
X17564048Y-10480381D01*
X17564048Y-10480381D02*
X17564048Y-10442286D01*
X17564048Y-10442286D02*
X17554524Y-10394667D01*
X17554524Y-10394667D02*
X17545000Y-10366095D01*
X17545000Y-10366095D02*
X17535477Y-10347048D01*
X17535477Y-10347048D02*
X17516429Y-10318476D01*
X17516429Y-10318476D02*
X17506905Y-10308952D01*
X17868810Y-10613714D02*
X17859286Y-10604190D01*
X17859286Y-10604190D02*
X17840239Y-10575619D01*
X17840239Y-10575619D02*
X17830715Y-10556571D01*
X17830715Y-10556571D02*
X17821191Y-10528000D01*
X17821191Y-10528000D02*
X17811667Y-10480381D01*
X17811667Y-10480381D02*
X17811667Y-10442286D01*
X17811667Y-10442286D02*
X17821191Y-10394667D01*
X17821191Y-10394667D02*
X17830715Y-10366095D01*
X17830715Y-10366095D02*
X17840239Y-10347048D01*
X17840239Y-10347048D02*
X17859286Y-10318476D01*
X17859286Y-10318476D02*
X17868810Y-10308952D01*
X17945000Y-10404190D02*
X17945000Y-10537524D01*
X17945000Y-10423238D02*
X17954524Y-10413714D01*
X17954524Y-10413714D02*
X17973572Y-10404190D01*
X17973572Y-10404190D02*
X18002143Y-10404190D01*
X18002143Y-10404190D02*
X18021191Y-10413714D01*
X18021191Y-10413714D02*
X18030715Y-10432762D01*
X18030715Y-10432762D02*
X18030715Y-10537524D01*
X18154524Y-10537524D02*
X18135477Y-10528000D01*
X18135477Y-10528000D02*
X18125953Y-10518476D01*
X18125953Y-10518476D02*
X18116429Y-10499429D01*
X18116429Y-10499429D02*
X18116429Y-10442286D01*
X18116429Y-10442286D02*
X18125953Y-10423238D01*
X18125953Y-10423238D02*
X18135477Y-10413714D01*
X18135477Y-10413714D02*
X18154524Y-10404190D01*
X18154524Y-10404190D02*
X18183096Y-10404190D01*
X18183096Y-10404190D02*
X18202143Y-10413714D01*
X18202143Y-10413714D02*
X18211667Y-10423238D01*
X18211667Y-10423238D02*
X18221191Y-10442286D01*
X18221191Y-10442286D02*
X18221191Y-10499429D01*
X18221191Y-10499429D02*
X18211667Y-10518476D01*
X18211667Y-10518476D02*
X18202143Y-10528000D01*
X18202143Y-10528000D02*
X18183096Y-10537524D01*
X18183096Y-10537524D02*
X18154524Y-10537524D01*
X18278334Y-10404190D02*
X18354524Y-10404190D01*
X18306905Y-10337524D02*
X18306905Y-10508952D01*
X18306905Y-10508952D02*
X18316429Y-10528000D01*
X18316429Y-10528000D02*
X18335477Y-10537524D01*
X18335477Y-10537524D02*
X18354524Y-10537524D01*
X18573572Y-10404190D02*
X18573572Y-10604190D01*
X18573572Y-10413714D02*
X18592620Y-10404190D01*
X18592620Y-10404190D02*
X18630715Y-10404190D01*
X18630715Y-10404190D02*
X18649762Y-10413714D01*
X18649762Y-10413714D02*
X18659286Y-10423238D01*
X18659286Y-10423238D02*
X18668810Y-10442286D01*
X18668810Y-10442286D02*
X18668810Y-10499429D01*
X18668810Y-10499429D02*
X18659286Y-10518476D01*
X18659286Y-10518476D02*
X18649762Y-10528000D01*
X18649762Y-10528000D02*
X18630715Y-10537524D01*
X18630715Y-10537524D02*
X18592620Y-10537524D01*
X18592620Y-10537524D02*
X18573572Y-10528000D01*
X18783096Y-10537524D02*
X18764048Y-10528000D01*
X18764048Y-10528000D02*
X18754524Y-10508952D01*
X18754524Y-10508952D02*
X18754524Y-10337524D01*
X18945001Y-10537524D02*
X18945001Y-10432762D01*
X18945001Y-10432762D02*
X18935477Y-10413714D01*
X18935477Y-10413714D02*
X18916429Y-10404190D01*
X18916429Y-10404190D02*
X18878334Y-10404190D01*
X18878334Y-10404190D02*
X18859286Y-10413714D01*
X18945001Y-10528000D02*
X18925953Y-10537524D01*
X18925953Y-10537524D02*
X18878334Y-10537524D01*
X18878334Y-10537524D02*
X18859286Y-10528000D01*
X18859286Y-10528000D02*
X18849762Y-10508952D01*
X18849762Y-10508952D02*
X18849762Y-10489905D01*
X18849762Y-10489905D02*
X18859286Y-10470857D01*
X18859286Y-10470857D02*
X18878334Y-10461333D01*
X18878334Y-10461333D02*
X18925953Y-10461333D01*
X18925953Y-10461333D02*
X18945001Y-10451810D01*
X19011667Y-10404190D02*
X19087858Y-10404190D01*
X19040239Y-10337524D02*
X19040239Y-10508952D01*
X19040239Y-10508952D02*
X19049762Y-10528000D01*
X19049762Y-10528000D02*
X19068810Y-10537524D01*
X19068810Y-10537524D02*
X19087858Y-10537524D01*
X19230715Y-10528000D02*
X19211667Y-10537524D01*
X19211667Y-10537524D02*
X19173572Y-10537524D01*
X19173572Y-10537524D02*
X19154524Y-10528000D01*
X19154524Y-10528000D02*
X19145001Y-10508952D01*
X19145001Y-10508952D02*
X19145001Y-10432762D01*
X19145001Y-10432762D02*
X19154524Y-10413714D01*
X19154524Y-10413714D02*
X19173572Y-10404190D01*
X19173572Y-10404190D02*
X19211667Y-10404190D01*
X19211667Y-10404190D02*
X19230715Y-10413714D01*
X19230715Y-10413714D02*
X19240239Y-10432762D01*
X19240239Y-10432762D02*
X19240239Y-10451810D01*
X19240239Y-10451810D02*
X19145001Y-10470857D01*
X19411667Y-10537524D02*
X19411667Y-10337524D01*
X19411667Y-10528000D02*
X19392620Y-10537524D01*
X19392620Y-10537524D02*
X19354524Y-10537524D01*
X19354524Y-10537524D02*
X19335477Y-10528000D01*
X19335477Y-10528000D02*
X19325953Y-10518476D01*
X19325953Y-10518476D02*
X19316429Y-10499429D01*
X19316429Y-10499429D02*
X19316429Y-10442286D01*
X19316429Y-10442286D02*
X19325953Y-10423238D01*
X19325953Y-10423238D02*
X19335477Y-10413714D01*
X19335477Y-10413714D02*
X19354524Y-10404190D01*
X19354524Y-10404190D02*
X19392620Y-10404190D01*
X19392620Y-10404190D02*
X19411667Y-10413714D01*
X19487858Y-10613714D02*
X19497382Y-10604190D01*
X19497382Y-10604190D02*
X19516429Y-10575619D01*
X19516429Y-10575619D02*
X19525953Y-10556571D01*
X19525953Y-10556571D02*
X19535477Y-10528000D01*
X19535477Y-10528000D02*
X19545001Y-10480381D01*
X19545001Y-10480381D02*
X19545001Y-10442286D01*
X19545001Y-10442286D02*
X19535477Y-10394667D01*
X19535477Y-10394667D02*
X19525953Y-10366095D01*
X19525953Y-10366095D02*
X19516429Y-10347048D01*
X19516429Y-10347048D02*
X19497382Y-10318476D01*
X19497382Y-10318476D02*
X19487858Y-10308952D01*
M02*
