G04 #@! TF.GenerationSoftware,KiCad,Pcbnew,7.0.1*
G04 #@! TF.CreationDate,2023-08-26T15:59:25-05:00*
G04 #@! TF.ProjectId,Single Mosfet Board,53696e67-6c65-4204-9d6f-736665742042,rev?*
G04 #@! TF.SameCoordinates,Original*
G04 #@! TF.FileFunction,Legend,Top*
G04 #@! TF.FilePolarity,Positive*
%FSLAX46Y46*%
G04 Gerber Fmt 4.6, Leading zero omitted, Abs format (unit mm)*
G04 Created by KiCad (PCBNEW 7.0.1) date 2023-08-26 15:59:25*
%MOMM*%
%LPD*%
G01*
G04 APERTURE LIST*
G04 Aperture macros list*
%AMRoundRect*
0 Rectangle with rounded corners*
0 $1 Rounding radius*
0 $2 $3 $4 $5 $6 $7 $8 $9 X,Y pos of 4 corners*
0 Add a 4 corners polygon primitive as box body*
4,1,4,$2,$3,$4,$5,$6,$7,$8,$9,$2,$3,0*
0 Add four circle primitives for the rounded corners*
1,1,$1+$1,$2,$3*
1,1,$1+$1,$4,$5*
1,1,$1+$1,$6,$7*
1,1,$1+$1,$8,$9*
0 Add four rect primitives between the rounded corners*
20,1,$1+$1,$2,$3,$4,$5,0*
20,1,$1+$1,$4,$5,$6,$7,0*
20,1,$1+$1,$6,$7,$8,$9,0*
20,1,$1+$1,$8,$9,$2,$3,0*%
G04 Aperture macros list end*
%ADD10C,0.100000*%
%ADD11C,0.150000*%
%ADD12C,0.120000*%
%ADD13C,3.200000*%
%ADD14RoundRect,0.250000X-0.450000X0.350000X-0.450000X-0.350000X0.450000X-0.350000X0.450000X0.350000X0*%
%ADD15RoundRect,0.250000X-0.350000X-0.450000X0.350000X-0.450000X0.350000X0.450000X-0.350000X0.450000X0*%
%ADD16R,1.905000X2.000000*%
%ADD17O,1.905000X2.000000*%
%ADD18R,1.700000X1.700000*%
%ADD19O,1.700000X1.700000*%
%ADD20RoundRect,0.250000X-0.620000X-0.845000X0.620000X-0.845000X0.620000X0.845000X-0.620000X0.845000X0*%
%ADD21O,1.740000X2.190000*%
%ADD22RoundRect,0.250000X0.620000X0.845000X-0.620000X0.845000X-0.620000X-0.845000X0.620000X-0.845000X0*%
%ADD23RoundRect,0.250000X-1.500000X-0.650000X1.500000X-0.650000X1.500000X0.650000X-1.500000X0.650000X0*%
%ADD24RoundRect,0.250001X0.624999X-0.462499X0.624999X0.462499X-0.624999X0.462499X-0.624999X-0.462499X0*%
G04 APERTURE END LIST*
D10*
X138640476Y-96858190D02*
X138564286Y-96820095D01*
X138564286Y-96820095D02*
X138450000Y-96820095D01*
X138450000Y-96820095D02*
X138335714Y-96858190D01*
X138335714Y-96858190D02*
X138259524Y-96934380D01*
X138259524Y-96934380D02*
X138221429Y-97010571D01*
X138221429Y-97010571D02*
X138183333Y-97162952D01*
X138183333Y-97162952D02*
X138183333Y-97277238D01*
X138183333Y-97277238D02*
X138221429Y-97429619D01*
X138221429Y-97429619D02*
X138259524Y-97505809D01*
X138259524Y-97505809D02*
X138335714Y-97582000D01*
X138335714Y-97582000D02*
X138450000Y-97620095D01*
X138450000Y-97620095D02*
X138526191Y-97620095D01*
X138526191Y-97620095D02*
X138640476Y-97582000D01*
X138640476Y-97582000D02*
X138678572Y-97543904D01*
X138678572Y-97543904D02*
X138678572Y-97277238D01*
X138678572Y-97277238D02*
X138526191Y-97277238D01*
X139021429Y-97620095D02*
X139021429Y-96820095D01*
X139021429Y-96820095D02*
X139478572Y-97620095D01*
X139478572Y-97620095D02*
X139478572Y-96820095D01*
X139859524Y-97620095D02*
X139859524Y-96820095D01*
X139859524Y-96820095D02*
X140050000Y-96820095D01*
X140050000Y-96820095D02*
X140164286Y-96858190D01*
X140164286Y-96858190D02*
X140240476Y-96934380D01*
X140240476Y-96934380D02*
X140278571Y-97010571D01*
X140278571Y-97010571D02*
X140316667Y-97162952D01*
X140316667Y-97162952D02*
X140316667Y-97277238D01*
X140316667Y-97277238D02*
X140278571Y-97429619D01*
X140278571Y-97429619D02*
X140240476Y-97505809D01*
X140240476Y-97505809D02*
X140164286Y-97582000D01*
X140164286Y-97582000D02*
X140050000Y-97620095D01*
X140050000Y-97620095D02*
X139859524Y-97620095D01*
X141497619Y-97620095D02*
X141650000Y-97620095D01*
X141650000Y-97620095D02*
X141726190Y-97582000D01*
X141726190Y-97582000D02*
X141764286Y-97543904D01*
X141764286Y-97543904D02*
X141840476Y-97429619D01*
X141840476Y-97429619D02*
X141878571Y-97277238D01*
X141878571Y-97277238D02*
X141878571Y-96972476D01*
X141878571Y-96972476D02*
X141840476Y-96896285D01*
X141840476Y-96896285D02*
X141802381Y-96858190D01*
X141802381Y-96858190D02*
X141726190Y-96820095D01*
X141726190Y-96820095D02*
X141573809Y-96820095D01*
X141573809Y-96820095D02*
X141497619Y-96858190D01*
X141497619Y-96858190D02*
X141459524Y-96896285D01*
X141459524Y-96896285D02*
X141421428Y-96972476D01*
X141421428Y-96972476D02*
X141421428Y-97162952D01*
X141421428Y-97162952D02*
X141459524Y-97239142D01*
X141459524Y-97239142D02*
X141497619Y-97277238D01*
X141497619Y-97277238D02*
X141573809Y-97315333D01*
X141573809Y-97315333D02*
X141726190Y-97315333D01*
X141726190Y-97315333D02*
X141802381Y-97277238D01*
X141802381Y-97277238D02*
X141840476Y-97239142D01*
X141840476Y-97239142D02*
X141878571Y-97162952D01*
X142221429Y-97315333D02*
X142830953Y-97315333D01*
X143173809Y-96896285D02*
X143211905Y-96858190D01*
X143211905Y-96858190D02*
X143288095Y-96820095D01*
X143288095Y-96820095D02*
X143478571Y-96820095D01*
X143478571Y-96820095D02*
X143554762Y-96858190D01*
X143554762Y-96858190D02*
X143592857Y-96896285D01*
X143592857Y-96896285D02*
X143630952Y-96972476D01*
X143630952Y-96972476D02*
X143630952Y-97048666D01*
X143630952Y-97048666D02*
X143592857Y-97162952D01*
X143592857Y-97162952D02*
X143135714Y-97620095D01*
X143135714Y-97620095D02*
X143630952Y-97620095D01*
X144316667Y-97086761D02*
X144316667Y-97620095D01*
X144126191Y-96782000D02*
X143935714Y-97353428D01*
X143935714Y-97353428D02*
X144430953Y-97353428D01*
X144621429Y-96820095D02*
X144888096Y-97620095D01*
X144888096Y-97620095D02*
X145154762Y-96820095D01*
X146129904Y-80787619D02*
X146129904Y-80940000D01*
X146129904Y-80940000D02*
X146168000Y-81016190D01*
X146168000Y-81016190D02*
X146206095Y-81054286D01*
X146206095Y-81054286D02*
X146320380Y-81130476D01*
X146320380Y-81130476D02*
X146472761Y-81168571D01*
X146472761Y-81168571D02*
X146777523Y-81168571D01*
X146777523Y-81168571D02*
X146853714Y-81130476D01*
X146853714Y-81130476D02*
X146891809Y-81092381D01*
X146891809Y-81092381D02*
X146929904Y-81016190D01*
X146929904Y-81016190D02*
X146929904Y-80863809D01*
X146929904Y-80863809D02*
X146891809Y-80787619D01*
X146891809Y-80787619D02*
X146853714Y-80749524D01*
X146853714Y-80749524D02*
X146777523Y-80711428D01*
X146777523Y-80711428D02*
X146587047Y-80711428D01*
X146587047Y-80711428D02*
X146510857Y-80749524D01*
X146510857Y-80749524D02*
X146472761Y-80787619D01*
X146472761Y-80787619D02*
X146434666Y-80863809D01*
X146434666Y-80863809D02*
X146434666Y-81016190D01*
X146434666Y-81016190D02*
X146472761Y-81092381D01*
X146472761Y-81092381D02*
X146510857Y-81130476D01*
X146510857Y-81130476D02*
X146587047Y-81168571D01*
X146434666Y-81511429D02*
X146434666Y-82120953D01*
X146853714Y-82463809D02*
X146891809Y-82501905D01*
X146891809Y-82501905D02*
X146929904Y-82578095D01*
X146929904Y-82578095D02*
X146929904Y-82768571D01*
X146929904Y-82768571D02*
X146891809Y-82844762D01*
X146891809Y-82844762D02*
X146853714Y-82882857D01*
X146853714Y-82882857D02*
X146777523Y-82920952D01*
X146777523Y-82920952D02*
X146701333Y-82920952D01*
X146701333Y-82920952D02*
X146587047Y-82882857D01*
X146587047Y-82882857D02*
X146129904Y-82425714D01*
X146129904Y-82425714D02*
X146129904Y-82920952D01*
X146663238Y-83606667D02*
X146129904Y-83606667D01*
X146968000Y-83416191D02*
X146396571Y-83225714D01*
X146396571Y-83225714D02*
X146396571Y-83720953D01*
X146929904Y-83911429D02*
X146129904Y-84178096D01*
X146129904Y-84178096D02*
X146929904Y-84444762D01*
X132370095Y-83672380D02*
X132370095Y-83519999D01*
X132370095Y-83519999D02*
X132332000Y-83443809D01*
X132332000Y-83443809D02*
X132293904Y-83405713D01*
X132293904Y-83405713D02*
X132179619Y-83329523D01*
X132179619Y-83329523D02*
X132027238Y-83291428D01*
X132027238Y-83291428D02*
X131722476Y-83291428D01*
X131722476Y-83291428D02*
X131646285Y-83329523D01*
X131646285Y-83329523D02*
X131608190Y-83367618D01*
X131608190Y-83367618D02*
X131570095Y-83443809D01*
X131570095Y-83443809D02*
X131570095Y-83596190D01*
X131570095Y-83596190D02*
X131608190Y-83672380D01*
X131608190Y-83672380D02*
X131646285Y-83710475D01*
X131646285Y-83710475D02*
X131722476Y-83748571D01*
X131722476Y-83748571D02*
X131912952Y-83748571D01*
X131912952Y-83748571D02*
X131989142Y-83710475D01*
X131989142Y-83710475D02*
X132027238Y-83672380D01*
X132027238Y-83672380D02*
X132065333Y-83596190D01*
X132065333Y-83596190D02*
X132065333Y-83443809D01*
X132065333Y-83443809D02*
X132027238Y-83367618D01*
X132027238Y-83367618D02*
X131989142Y-83329523D01*
X131989142Y-83329523D02*
X131912952Y-83291428D01*
X132065333Y-82948570D02*
X132065333Y-82339047D01*
X131646285Y-81996190D02*
X131608190Y-81958094D01*
X131608190Y-81958094D02*
X131570095Y-81881904D01*
X131570095Y-81881904D02*
X131570095Y-81691428D01*
X131570095Y-81691428D02*
X131608190Y-81615237D01*
X131608190Y-81615237D02*
X131646285Y-81577142D01*
X131646285Y-81577142D02*
X131722476Y-81539047D01*
X131722476Y-81539047D02*
X131798666Y-81539047D01*
X131798666Y-81539047D02*
X131912952Y-81577142D01*
X131912952Y-81577142D02*
X132370095Y-82034285D01*
X132370095Y-82034285D02*
X132370095Y-81539047D01*
X131836761Y-80853332D02*
X132370095Y-80853332D01*
X131532000Y-81043808D02*
X132103428Y-81234285D01*
X132103428Y-81234285D02*
X132103428Y-80739046D01*
X131570095Y-80548570D02*
X132370095Y-80281903D01*
X132370095Y-80281903D02*
X131570095Y-80015237D01*
X131608190Y-87779523D02*
X131570095Y-87855713D01*
X131570095Y-87855713D02*
X131570095Y-87969999D01*
X131570095Y-87969999D02*
X131608190Y-88084285D01*
X131608190Y-88084285D02*
X131684380Y-88160475D01*
X131684380Y-88160475D02*
X131760571Y-88198570D01*
X131760571Y-88198570D02*
X131912952Y-88236666D01*
X131912952Y-88236666D02*
X132027238Y-88236666D01*
X132027238Y-88236666D02*
X132179619Y-88198570D01*
X132179619Y-88198570D02*
X132255809Y-88160475D01*
X132255809Y-88160475D02*
X132332000Y-88084285D01*
X132332000Y-88084285D02*
X132370095Y-87969999D01*
X132370095Y-87969999D02*
X132370095Y-87893808D01*
X132370095Y-87893808D02*
X132332000Y-87779523D01*
X132332000Y-87779523D02*
X132293904Y-87741427D01*
X132293904Y-87741427D02*
X132027238Y-87741427D01*
X132027238Y-87741427D02*
X132027238Y-87893808D01*
X132370095Y-87398570D02*
X131570095Y-87398570D01*
X131570095Y-87398570D02*
X132370095Y-86941427D01*
X132370095Y-86941427D02*
X131570095Y-86941427D01*
X132370095Y-86560475D02*
X131570095Y-86560475D01*
X131570095Y-86560475D02*
X131570095Y-86369999D01*
X131570095Y-86369999D02*
X131608190Y-86255713D01*
X131608190Y-86255713D02*
X131684380Y-86179523D01*
X131684380Y-86179523D02*
X131760571Y-86141428D01*
X131760571Y-86141428D02*
X131912952Y-86103332D01*
X131912952Y-86103332D02*
X132027238Y-86103332D01*
X132027238Y-86103332D02*
X132179619Y-86141428D01*
X132179619Y-86141428D02*
X132255809Y-86179523D01*
X132255809Y-86179523D02*
X132332000Y-86255713D01*
X132332000Y-86255713D02*
X132370095Y-86369999D01*
X132370095Y-86369999D02*
X132370095Y-86560475D01*
X146891809Y-86930476D02*
X146929904Y-86854286D01*
X146929904Y-86854286D02*
X146929904Y-86740000D01*
X146929904Y-86740000D02*
X146891809Y-86625714D01*
X146891809Y-86625714D02*
X146815619Y-86549524D01*
X146815619Y-86549524D02*
X146739428Y-86511429D01*
X146739428Y-86511429D02*
X146587047Y-86473333D01*
X146587047Y-86473333D02*
X146472761Y-86473333D01*
X146472761Y-86473333D02*
X146320380Y-86511429D01*
X146320380Y-86511429D02*
X146244190Y-86549524D01*
X146244190Y-86549524D02*
X146168000Y-86625714D01*
X146168000Y-86625714D02*
X146129904Y-86740000D01*
X146129904Y-86740000D02*
X146129904Y-86816191D01*
X146129904Y-86816191D02*
X146168000Y-86930476D01*
X146168000Y-86930476D02*
X146206095Y-86968572D01*
X146206095Y-86968572D02*
X146472761Y-86968572D01*
X146472761Y-86968572D02*
X146472761Y-86816191D01*
X146129904Y-87311429D02*
X146929904Y-87311429D01*
X146929904Y-87311429D02*
X146129904Y-87768572D01*
X146129904Y-87768572D02*
X146929904Y-87768572D01*
X146129904Y-88149524D02*
X146929904Y-88149524D01*
X146929904Y-88149524D02*
X146929904Y-88340000D01*
X146929904Y-88340000D02*
X146891809Y-88454286D01*
X146891809Y-88454286D02*
X146815619Y-88530476D01*
X146815619Y-88530476D02*
X146739428Y-88568571D01*
X146739428Y-88568571D02*
X146587047Y-88606667D01*
X146587047Y-88606667D02*
X146472761Y-88606667D01*
X146472761Y-88606667D02*
X146320380Y-88568571D01*
X146320380Y-88568571D02*
X146244190Y-88530476D01*
X146244190Y-88530476D02*
X146168000Y-88454286D01*
X146168000Y-88454286D02*
X146129904Y-88340000D01*
X146129904Y-88340000D02*
X146129904Y-88149524D01*
X137330953Y-72870095D02*
X137330953Y-72070095D01*
X137711905Y-72870095D02*
X137711905Y-72070095D01*
X137711905Y-72070095D02*
X138169048Y-72870095D01*
X138169048Y-72870095D02*
X138169048Y-72070095D01*
X141140476Y-72108190D02*
X141064286Y-72070095D01*
X141064286Y-72070095D02*
X140950000Y-72070095D01*
X140950000Y-72070095D02*
X140835714Y-72108190D01*
X140835714Y-72108190D02*
X140759524Y-72184380D01*
X140759524Y-72184380D02*
X140721429Y-72260571D01*
X140721429Y-72260571D02*
X140683333Y-72412952D01*
X140683333Y-72412952D02*
X140683333Y-72527238D01*
X140683333Y-72527238D02*
X140721429Y-72679619D01*
X140721429Y-72679619D02*
X140759524Y-72755809D01*
X140759524Y-72755809D02*
X140835714Y-72832000D01*
X140835714Y-72832000D02*
X140950000Y-72870095D01*
X140950000Y-72870095D02*
X141026191Y-72870095D01*
X141026191Y-72870095D02*
X141140476Y-72832000D01*
X141140476Y-72832000D02*
X141178572Y-72793904D01*
X141178572Y-72793904D02*
X141178572Y-72527238D01*
X141178572Y-72527238D02*
X141026191Y-72527238D01*
X141521429Y-72870095D02*
X141521429Y-72070095D01*
X141521429Y-72070095D02*
X141978572Y-72870095D01*
X141978572Y-72870095D02*
X141978572Y-72070095D01*
X142359524Y-72870095D02*
X142359524Y-72070095D01*
X142359524Y-72070095D02*
X142550000Y-72070095D01*
X142550000Y-72070095D02*
X142664286Y-72108190D01*
X142664286Y-72108190D02*
X142740476Y-72184380D01*
X142740476Y-72184380D02*
X142778571Y-72260571D01*
X142778571Y-72260571D02*
X142816667Y-72412952D01*
X142816667Y-72412952D02*
X142816667Y-72527238D01*
X142816667Y-72527238D02*
X142778571Y-72679619D01*
X142778571Y-72679619D02*
X142740476Y-72755809D01*
X142740476Y-72755809D02*
X142664286Y-72832000D01*
X142664286Y-72832000D02*
X142550000Y-72870095D01*
X142550000Y-72870095D02*
X142359524Y-72870095D01*
D11*
X133583333Y-74962619D02*
X133250000Y-74486428D01*
X133011905Y-74962619D02*
X133011905Y-73962619D01*
X133011905Y-73962619D02*
X133392857Y-73962619D01*
X133392857Y-73962619D02*
X133488095Y-74010238D01*
X133488095Y-74010238D02*
X133535714Y-74057857D01*
X133535714Y-74057857D02*
X133583333Y-74153095D01*
X133583333Y-74153095D02*
X133583333Y-74295952D01*
X133583333Y-74295952D02*
X133535714Y-74391190D01*
X133535714Y-74391190D02*
X133488095Y-74438809D01*
X133488095Y-74438809D02*
X133392857Y-74486428D01*
X133392857Y-74486428D02*
X133011905Y-74486428D01*
X133964286Y-74057857D02*
X134011905Y-74010238D01*
X134011905Y-74010238D02*
X134107143Y-73962619D01*
X134107143Y-73962619D02*
X134345238Y-73962619D01*
X134345238Y-73962619D02*
X134440476Y-74010238D01*
X134440476Y-74010238D02*
X134488095Y-74057857D01*
X134488095Y-74057857D02*
X134535714Y-74153095D01*
X134535714Y-74153095D02*
X134535714Y-74248333D01*
X134535714Y-74248333D02*
X134488095Y-74391190D01*
X134488095Y-74391190D02*
X133916667Y-74962619D01*
X133916667Y-74962619D02*
X134535714Y-74962619D01*
X132453333Y-91582619D02*
X132120000Y-91106428D01*
X131881905Y-91582619D02*
X131881905Y-90582619D01*
X131881905Y-90582619D02*
X132262857Y-90582619D01*
X132262857Y-90582619D02*
X132358095Y-90630238D01*
X132358095Y-90630238D02*
X132405714Y-90677857D01*
X132405714Y-90677857D02*
X132453333Y-90773095D01*
X132453333Y-90773095D02*
X132453333Y-90915952D01*
X132453333Y-90915952D02*
X132405714Y-91011190D01*
X132405714Y-91011190D02*
X132358095Y-91058809D01*
X132358095Y-91058809D02*
X132262857Y-91106428D01*
X132262857Y-91106428D02*
X131881905Y-91106428D01*
X133405714Y-91582619D02*
X132834286Y-91582619D01*
X133120000Y-91582619D02*
X133120000Y-90582619D01*
X133120000Y-90582619D02*
X133024762Y-90725476D01*
X133024762Y-90725476D02*
X132929524Y-90820714D01*
X132929524Y-90820714D02*
X132834286Y-90868333D01*
X144462619Y-89738094D02*
X143462619Y-89738094D01*
X143462619Y-89738094D02*
X143462619Y-89499999D01*
X143462619Y-89499999D02*
X143510238Y-89357142D01*
X143510238Y-89357142D02*
X143605476Y-89261904D01*
X143605476Y-89261904D02*
X143700714Y-89214285D01*
X143700714Y-89214285D02*
X143891190Y-89166666D01*
X143891190Y-89166666D02*
X144034047Y-89166666D01*
X144034047Y-89166666D02*
X144224523Y-89214285D01*
X144224523Y-89214285D02*
X144319761Y-89261904D01*
X144319761Y-89261904D02*
X144415000Y-89357142D01*
X144415000Y-89357142D02*
X144462619Y-89499999D01*
X144462619Y-89499999D02*
X144462619Y-89738094D01*
X143557857Y-88785713D02*
X143510238Y-88738094D01*
X143510238Y-88738094D02*
X143462619Y-88642856D01*
X143462619Y-88642856D02*
X143462619Y-88404761D01*
X143462619Y-88404761D02*
X143510238Y-88309523D01*
X143510238Y-88309523D02*
X143557857Y-88261904D01*
X143557857Y-88261904D02*
X143653095Y-88214285D01*
X143653095Y-88214285D02*
X143748333Y-88214285D01*
X143748333Y-88214285D02*
X143891190Y-88261904D01*
X143891190Y-88261904D02*
X144462619Y-88833332D01*
X144462619Y-88833332D02*
X144462619Y-88214285D01*
X134392619Y-95225594D02*
X133392619Y-95225594D01*
X133392619Y-95225594D02*
X133392619Y-94987499D01*
X133392619Y-94987499D02*
X133440238Y-94844642D01*
X133440238Y-94844642D02*
X133535476Y-94749404D01*
X133535476Y-94749404D02*
X133630714Y-94701785D01*
X133630714Y-94701785D02*
X133821190Y-94654166D01*
X133821190Y-94654166D02*
X133964047Y-94654166D01*
X133964047Y-94654166D02*
X134154523Y-94701785D01*
X134154523Y-94701785D02*
X134249761Y-94749404D01*
X134249761Y-94749404D02*
X134345000Y-94844642D01*
X134345000Y-94844642D02*
X134392619Y-94987499D01*
X134392619Y-94987499D02*
X134392619Y-95225594D01*
X134392619Y-93701785D02*
X134392619Y-94273213D01*
X134392619Y-93987499D02*
X133392619Y-93987499D01*
X133392619Y-93987499D02*
X133535476Y-94082737D01*
X133535476Y-94082737D02*
X133630714Y-94177975D01*
X133630714Y-94177975D02*
X133678333Y-94273213D01*
D12*
X133015000Y-76772936D02*
X133015000Y-77227064D01*
X134485000Y-76772936D02*
X134485000Y-77227064D01*
X135322936Y-90265000D02*
X135777064Y-90265000D01*
X135322936Y-91735000D02*
X135777064Y-91735000D01*
X133840000Y-81480000D02*
X144080000Y-81480000D01*
X137110000Y-81480000D02*
X137110000Y-82990000D01*
X140811000Y-81480000D02*
X140811000Y-82990000D01*
X133840000Y-81480000D02*
X133840000Y-86121000D01*
X133840000Y-86121000D02*
X144080000Y-86121000D01*
X144080000Y-81480000D02*
X144080000Y-86121000D01*
X133840000Y-82990000D02*
X144080000Y-82990000D01*
X147420000Y-87230000D02*
X147420000Y-79550000D01*
X150080000Y-88500000D02*
X150080000Y-89830000D01*
X150080000Y-79550000D02*
X147420000Y-79550000D01*
X150080000Y-87230000D02*
X147420000Y-87230000D01*
X150080000Y-89830000D02*
X148750000Y-89830000D01*
X150080000Y-87230000D02*
X150080000Y-79550000D01*
X135420000Y-74920000D02*
X136750000Y-74920000D01*
X135420000Y-77520000D02*
X138080000Y-77520000D01*
X135420000Y-77580000D02*
X138080000Y-77580000D01*
X138080000Y-77520000D02*
X138080000Y-77580000D01*
X135420000Y-77520000D02*
X135420000Y-77580000D01*
X135420000Y-76250000D02*
X135420000Y-74920000D01*
X137830000Y-79240000D02*
X143130000Y-79240000D01*
X140010000Y-73820000D02*
X140010000Y-73220000D01*
X137540000Y-74250000D02*
X137540000Y-78250000D01*
X137830000Y-73220000D02*
X137830000Y-79240000D01*
X140950000Y-73220000D02*
X140950000Y-73820000D01*
X141750000Y-78240000D02*
X141750000Y-79240000D01*
X141500000Y-79240000D02*
X141500000Y-78240000D01*
X138410000Y-73820000D02*
X140010000Y-73820000D01*
X140950000Y-73820000D02*
X142550000Y-73820000D01*
X141500000Y-77710000D02*
X141750000Y-78240000D01*
X139210000Y-78240000D02*
X141750000Y-78240000D01*
X139210000Y-79240000D02*
X139210000Y-78240000D01*
X139460000Y-79240000D02*
X139460000Y-78240000D01*
X139210000Y-78240000D02*
X139460000Y-77710000D01*
X143130000Y-73220000D02*
X137830000Y-73220000D01*
X138410000Y-73220000D02*
X138410000Y-73820000D01*
X143130000Y-79240000D02*
X143130000Y-73220000D01*
X142550000Y-73820000D02*
X142550000Y-73220000D01*
X139460000Y-77710000D02*
X141500000Y-77710000D01*
X141620000Y-91970000D02*
X139580000Y-91970000D01*
X138530000Y-95860000D02*
X138530000Y-96460000D01*
X137950000Y-90440000D02*
X137950000Y-96460000D01*
X142670000Y-96460000D02*
X142670000Y-95860000D01*
X137950000Y-96460000D02*
X143250000Y-96460000D01*
X141870000Y-91440000D02*
X141620000Y-91970000D01*
X141620000Y-90440000D02*
X141620000Y-91440000D01*
X141870000Y-90440000D02*
X141870000Y-91440000D01*
X141870000Y-91440000D02*
X139330000Y-91440000D01*
X139580000Y-91970000D02*
X139330000Y-91440000D01*
X140130000Y-95860000D02*
X138530000Y-95860000D01*
X142670000Y-95860000D02*
X141070000Y-95860000D01*
X139580000Y-90440000D02*
X139580000Y-91440000D01*
X139330000Y-91440000D02*
X139330000Y-90440000D01*
X140130000Y-96460000D02*
X140130000Y-95860000D01*
X143250000Y-96460000D02*
X143250000Y-90440000D01*
X143540000Y-95430000D02*
X143540000Y-91430000D01*
X141070000Y-95860000D02*
X141070000Y-96460000D01*
X143250000Y-90440000D02*
X137950000Y-90440000D01*
X145660000Y-94760000D02*
X144330000Y-94760000D01*
X145660000Y-92160000D02*
X143000000Y-92160000D01*
X145660000Y-92100000D02*
X143000000Y-92100000D01*
X143000000Y-92160000D02*
X143000000Y-92100000D01*
X145660000Y-92160000D02*
X145660000Y-92100000D01*
X145660000Y-93430000D02*
X145660000Y-94760000D01*
X128420000Y-82150000D02*
X128420000Y-89830000D01*
X128420000Y-79550000D02*
X129750000Y-79550000D01*
X128420000Y-82150000D02*
X131080000Y-82150000D01*
X128420000Y-89830000D02*
X131080000Y-89830000D01*
X128420000Y-80880000D02*
X128420000Y-79550000D01*
X131080000Y-82150000D02*
X131080000Y-89830000D01*
X134290000Y-86600000D02*
X141300000Y-86600000D01*
X134290000Y-86600000D02*
X134290000Y-89900000D01*
X134290000Y-89900000D02*
X141300000Y-89900000D01*
X136885000Y-96947500D02*
X136885000Y-92887500D01*
X134615000Y-96947500D02*
X136885000Y-96947500D01*
X134615000Y-92887500D02*
X134615000Y-96947500D01*
%LPC*%
D13*
X147500000Y-75250000D03*
X131000000Y-94500000D03*
D14*
X133750000Y-78000000D03*
X133750000Y-76000000D03*
D15*
X134550000Y-91000000D03*
X136550000Y-91000000D03*
D16*
X136420000Y-84750000D03*
D17*
X138960000Y-84750000D03*
X141500000Y-84750000D03*
D18*
X148750000Y-88500000D03*
D19*
X148750000Y-85960000D03*
X148750000Y-83420000D03*
X148750000Y-80880000D03*
D18*
X136750000Y-76250000D03*
D20*
X139210000Y-76250000D03*
D21*
X141750000Y-76250000D03*
X139330000Y-93430000D03*
D22*
X141870000Y-93430000D03*
D18*
X144330000Y-93430000D03*
D19*
X129750000Y-88500000D03*
X129750000Y-85960000D03*
X129750000Y-83420000D03*
D18*
X129750000Y-80880000D03*
D23*
X136300000Y-88250000D03*
X141300000Y-88250000D03*
D24*
X135750000Y-95975000D03*
X135750000Y-93000000D03*
M02*
