G04 #@! TF.GenerationSoftware,KiCad,Pcbnew,7.0.1*
G04 #@! TF.CreationDate,2023-08-26T15:59:25-05:00*
G04 #@! TF.ProjectId,Single Mosfet Board,53696e67-6c65-4204-9d6f-736665742042,rev?*
G04 #@! TF.SameCoordinates,Original*
G04 #@! TF.FileFunction,Copper,L2,Bot*
G04 #@! TF.FilePolarity,Positive*
%FSLAX46Y46*%
G04 Gerber Fmt 4.6, Leading zero omitted, Abs format (unit mm)*
G04 Created by KiCad (PCBNEW 7.0.1) date 2023-08-26 15:59:25*
%MOMM*%
%LPD*%
G01*
G04 APERTURE LIST*
G04 Aperture macros list*
%AMRoundRect*
0 Rectangle with rounded corners*
0 $1 Rounding radius*
0 $2 $3 $4 $5 $6 $7 $8 $9 X,Y pos of 4 corners*
0 Add a 4 corners polygon primitive as box body*
4,1,4,$2,$3,$4,$5,$6,$7,$8,$9,$2,$3,0*
0 Add four circle primitives for the rounded corners*
1,1,$1+$1,$2,$3*
1,1,$1+$1,$4,$5*
1,1,$1+$1,$6,$7*
1,1,$1+$1,$8,$9*
0 Add four rect primitives between the rounded corners*
20,1,$1+$1,$2,$3,$4,$5,0*
20,1,$1+$1,$4,$5,$6,$7,0*
20,1,$1+$1,$6,$7,$8,$9,0*
20,1,$1+$1,$8,$9,$2,$3,0*%
G04 Aperture macros list end*
G04 #@! TA.AperFunction,ComponentPad*
%ADD10R,1.905000X2.000000*%
G04 #@! TD*
G04 #@! TA.AperFunction,ComponentPad*
%ADD11O,1.905000X2.000000*%
G04 #@! TD*
G04 #@! TA.AperFunction,ComponentPad*
%ADD12R,1.700000X1.700000*%
G04 #@! TD*
G04 #@! TA.AperFunction,ComponentPad*
%ADD13O,1.700000X1.700000*%
G04 #@! TD*
G04 #@! TA.AperFunction,ComponentPad*
%ADD14RoundRect,0.250000X-0.620000X-0.845000X0.620000X-0.845000X0.620000X0.845000X-0.620000X0.845000X0*%
G04 #@! TD*
G04 #@! TA.AperFunction,ComponentPad*
%ADD15O,1.740000X2.190000*%
G04 #@! TD*
G04 #@! TA.AperFunction,ComponentPad*
%ADD16RoundRect,0.250000X0.620000X0.845000X-0.620000X0.845000X-0.620000X-0.845000X0.620000X-0.845000X0*%
G04 #@! TD*
G04 #@! TA.AperFunction,Conductor*
%ADD17C,1.500000*%
G04 #@! TD*
G04 APERTURE END LIST*
D10*
X136420000Y-84750000D03*
D11*
X138960000Y-84750000D03*
X141500000Y-84750000D03*
D12*
X148750000Y-88500000D03*
D13*
X148750000Y-85960000D03*
X148750000Y-83420000D03*
X148750000Y-80880000D03*
D12*
X136750000Y-76250000D03*
D14*
X139210000Y-76250000D03*
D15*
X141750000Y-76250000D03*
X139330000Y-93430000D03*
D16*
X141870000Y-93430000D03*
D12*
X144330000Y-93430000D03*
D13*
X129750000Y-88500000D03*
X129750000Y-85960000D03*
X129750000Y-83420000D03*
D12*
X129750000Y-80880000D03*
D17*
X129750000Y-80880000D02*
X148750000Y-80880000D01*
X141500000Y-84500000D02*
X141500000Y-84750000D01*
X134112081Y-82800000D02*
X139800000Y-82800000D01*
X139800000Y-82800000D02*
X141500000Y-84500000D01*
X130952081Y-85960000D02*
X134112081Y-82800000D01*
X129750000Y-85960000D02*
X130952081Y-85960000D01*
X129750000Y-88500000D02*
X129750000Y-85960000D01*
X148750000Y-85960000D02*
X148750000Y-88500000D01*
X141500000Y-84750000D02*
X142710000Y-85960000D01*
X142710000Y-85960000D02*
X148750000Y-85960000D01*
G04 #@! TA.AperFunction,Conductor*
G36*
X147503032Y-71750649D02*
G01*
X147507384Y-71750862D01*
X147652450Y-71757989D01*
X147843670Y-71768010D01*
X147855324Y-71769177D01*
X148021254Y-71793791D01*
X148022225Y-71793940D01*
X148194897Y-71821289D01*
X148205570Y-71823465D01*
X148371374Y-71864997D01*
X148373014Y-71865422D01*
X148538880Y-71909866D01*
X148548544Y-71912884D01*
X148652693Y-71950150D01*
X148710526Y-71970843D01*
X148713188Y-71971830D01*
X148746726Y-71984704D01*
X148872097Y-72032829D01*
X148880623Y-72036475D01*
X149036869Y-72110374D01*
X149040055Y-72111939D01*
X149182487Y-72184511D01*
X149191094Y-72188897D01*
X149198547Y-72193023D01*
X149347075Y-72282047D01*
X149350824Y-72284387D01*
X149492670Y-72376503D01*
X149498977Y-72380884D01*
X149638210Y-72484147D01*
X149642365Y-72487367D01*
X149773635Y-72593667D01*
X149778872Y-72598155D01*
X149907389Y-72714636D01*
X149911797Y-72718833D01*
X150031165Y-72838201D01*
X150035362Y-72842609D01*
X150151843Y-72971126D01*
X150156331Y-72976363D01*
X150262620Y-73107619D01*
X150265851Y-73111788D01*
X150369114Y-73251021D01*
X150373512Y-73257353D01*
X150465599Y-73399155D01*
X150467963Y-73402942D01*
X150556975Y-73551451D01*
X150561101Y-73558904D01*
X150638037Y-73709898D01*
X150639647Y-73713176D01*
X150713510Y-73869345D01*
X150717179Y-73877925D01*
X150778168Y-74036810D01*
X150779155Y-74039472D01*
X150837111Y-74201447D01*
X150840135Y-74211128D01*
X150884535Y-74376827D01*
X150885044Y-74378792D01*
X150926526Y-74544398D01*
X150928715Y-74555130D01*
X150956041Y-74727665D01*
X150956226Y-74728867D01*
X150980818Y-74894649D01*
X150981990Y-74906355D01*
X150991989Y-75097157D01*
X150991886Y-75097162D01*
X150992011Y-75097561D01*
X150999351Y-75246967D01*
X150999500Y-75253052D01*
X150999500Y-94496948D01*
X150999351Y-94503033D01*
X150992014Y-94652369D01*
X150991993Y-94652774D01*
X150981990Y-94843644D01*
X150980818Y-94855349D01*
X150956226Y-95021131D01*
X150956041Y-95022333D01*
X150928715Y-95194868D01*
X150926526Y-95205600D01*
X150885044Y-95371206D01*
X150884535Y-95373171D01*
X150840135Y-95538870D01*
X150837111Y-95548551D01*
X150779155Y-95710526D01*
X150778168Y-95713188D01*
X150717179Y-95872073D01*
X150713510Y-95880653D01*
X150639647Y-96036822D01*
X150638037Y-96040100D01*
X150561101Y-96191094D01*
X150556975Y-96198547D01*
X150467963Y-96347056D01*
X150465599Y-96350843D01*
X150373512Y-96492645D01*
X150369114Y-96498977D01*
X150265851Y-96638210D01*
X150262620Y-96642379D01*
X150156331Y-96773635D01*
X150151843Y-96778872D01*
X150035362Y-96907389D01*
X150031165Y-96911797D01*
X149911797Y-97031165D01*
X149907389Y-97035362D01*
X149778872Y-97151843D01*
X149773635Y-97156331D01*
X149642379Y-97262620D01*
X149638210Y-97265851D01*
X149498977Y-97369114D01*
X149492645Y-97373512D01*
X149350843Y-97465599D01*
X149347056Y-97467963D01*
X149198547Y-97556975D01*
X149191094Y-97561101D01*
X149040100Y-97638037D01*
X149036822Y-97639647D01*
X148880653Y-97713510D01*
X148872073Y-97717179D01*
X148713188Y-97778168D01*
X148710526Y-97779155D01*
X148548551Y-97837111D01*
X148538870Y-97840135D01*
X148373171Y-97884535D01*
X148371206Y-97885044D01*
X148205600Y-97926526D01*
X148194868Y-97928715D01*
X148022333Y-97956041D01*
X148021131Y-97956226D01*
X147855349Y-97980818D01*
X147843644Y-97981990D01*
X147652774Y-97991993D01*
X147652369Y-97992014D01*
X147503033Y-97999351D01*
X147496948Y-97999500D01*
X131003052Y-97999500D01*
X130996967Y-97999351D01*
X130847629Y-97992014D01*
X130847224Y-97991993D01*
X130656354Y-97981990D01*
X130644649Y-97980818D01*
X130478867Y-97956226D01*
X130477665Y-97956041D01*
X130305130Y-97928715D01*
X130294398Y-97926526D01*
X130128792Y-97885044D01*
X130126827Y-97884535D01*
X129961128Y-97840135D01*
X129951447Y-97837111D01*
X129789472Y-97779155D01*
X129786810Y-97778168D01*
X129627925Y-97717179D01*
X129619351Y-97713512D01*
X129463176Y-97639647D01*
X129459898Y-97638037D01*
X129308904Y-97561101D01*
X129301451Y-97556975D01*
X129152942Y-97467963D01*
X129149155Y-97465599D01*
X129101996Y-97434973D01*
X129007343Y-97373505D01*
X129001021Y-97369114D01*
X128861788Y-97265851D01*
X128857619Y-97262620D01*
X128726363Y-97156331D01*
X128721126Y-97151843D01*
X128592609Y-97035362D01*
X128588201Y-97031165D01*
X128468833Y-96911797D01*
X128464636Y-96907389D01*
X128348155Y-96778872D01*
X128343667Y-96773635D01*
X128237378Y-96642379D01*
X128234147Y-96638210D01*
X128130884Y-96498977D01*
X128126503Y-96492670D01*
X128034387Y-96350824D01*
X128032035Y-96347056D01*
X127943023Y-96198547D01*
X127938897Y-96191094D01*
X127933251Y-96180013D01*
X127861939Y-96040055D01*
X127860374Y-96036869D01*
X127786475Y-95880623D01*
X127782829Y-95872097D01*
X127721830Y-95713188D01*
X127720843Y-95710526D01*
X127662887Y-95548551D01*
X127659863Y-95538870D01*
X127615422Y-95373014D01*
X127614997Y-95371374D01*
X127573465Y-95205570D01*
X127571289Y-95194897D01*
X127543940Y-95022225D01*
X127543791Y-95021254D01*
X127519177Y-94855324D01*
X127518010Y-94843670D01*
X127507985Y-94652369D01*
X127503829Y-94567764D01*
X129145787Y-94567764D01*
X129175413Y-94837016D01*
X129207517Y-94959813D01*
X129243928Y-95099088D01*
X129289191Y-95205600D01*
X129349871Y-95348392D01*
X129490982Y-95579611D01*
X129602146Y-95713188D01*
X129664255Y-95787820D01*
X129865998Y-95968582D01*
X130091910Y-96118044D01*
X130159338Y-96149653D01*
X130337177Y-96233021D01*
X130596562Y-96311058D01*
X130596569Y-96311060D01*
X130864561Y-96350500D01*
X131067631Y-96350500D01*
X131067634Y-96350500D01*
X131270156Y-96335677D01*
X131270155Y-96335677D01*
X131534553Y-96276780D01*
X131787558Y-96180014D01*
X132023777Y-96047441D01*
X132238177Y-95881888D01*
X132426186Y-95686881D01*
X132583799Y-95466579D01*
X132707656Y-95225675D01*
X132795118Y-94969305D01*
X132844319Y-94702933D01*
X132854212Y-94432235D01*
X132824586Y-94162982D01*
X132756072Y-93900912D01*
X132676311Y-93713220D01*
X137959500Y-93713220D01*
X137974329Y-93887451D01*
X138033114Y-94113220D01*
X138129207Y-94325801D01*
X138248995Y-94503033D01*
X138259847Y-94519088D01*
X138421272Y-94687516D01*
X138608839Y-94826240D01*
X138817153Y-94931270D01*
X139040220Y-94999583D01*
X139271624Y-95029216D01*
X139504707Y-95019314D01*
X139732765Y-94970164D01*
X139949235Y-94883179D01*
X140147891Y-94760862D01*
X140323018Y-94606731D01*
X140354911Y-94567231D01*
X140408178Y-94528902D01*
X140473547Y-94523126D01*
X140532710Y-94551521D01*
X140554344Y-94583993D01*
X140557578Y-94581999D01*
X140565185Y-94594333D01*
X140565186Y-94594334D01*
X140585818Y-94627785D01*
X140657288Y-94743657D01*
X140781342Y-94867711D01*
X140806420Y-94883179D01*
X140930666Y-94959814D01*
X141042017Y-94996712D01*
X141097202Y-95014999D01*
X141107703Y-95016071D01*
X141199991Y-95025500D01*
X142540008Y-95025499D01*
X142642797Y-95014999D01*
X142809334Y-94959814D01*
X142958656Y-94867712D01*
X143082712Y-94743656D01*
X143082715Y-94743650D01*
X143084431Y-94741935D01*
X143134357Y-94711504D01*
X143192678Y-94707333D01*
X143220359Y-94719187D01*
X143220965Y-94717565D01*
X143237666Y-94723794D01*
X143237669Y-94723796D01*
X143372517Y-94774091D01*
X143432127Y-94780500D01*
X145227872Y-94780499D01*
X145287483Y-94774091D01*
X145422331Y-94723796D01*
X145537546Y-94637546D01*
X145623796Y-94522331D01*
X145674091Y-94387483D01*
X145680500Y-94327873D01*
X145680499Y-92532128D01*
X145674091Y-92472517D01*
X145623796Y-92337669D01*
X145537546Y-92222454D01*
X145422331Y-92136204D01*
X145287483Y-92085909D01*
X145227873Y-92079500D01*
X145227869Y-92079500D01*
X143432130Y-92079500D01*
X143372515Y-92085909D01*
X143220964Y-92142434D01*
X143220358Y-92140810D01*
X143192669Y-92152666D01*
X143134353Y-92148493D01*
X143084432Y-92118063D01*
X142958657Y-91992288D01*
X142809334Y-91900186D01*
X142642797Y-91845000D01*
X142540009Y-91834500D01*
X141199991Y-91834500D01*
X141097203Y-91845000D01*
X140930665Y-91900186D01*
X140781342Y-91992288D01*
X140657288Y-92116342D01*
X140599960Y-92209288D01*
X140572833Y-92253269D01*
X140557578Y-92278001D01*
X140554637Y-92276187D01*
X140534574Y-92306978D01*
X140478605Y-92336047D01*
X140415576Y-92333825D01*
X140361792Y-92300887D01*
X140328035Y-92265666D01*
X140238728Y-92172484D01*
X140211932Y-92152666D01*
X140051161Y-92033760D01*
X139842847Y-91928730D01*
X139619780Y-91860417D01*
X139619779Y-91860416D01*
X139388376Y-91830784D01*
X139388372Y-91830784D01*
X139155295Y-91840685D01*
X138927232Y-91889836D01*
X138710768Y-91976819D01*
X138512107Y-92099139D01*
X138336980Y-92253270D01*
X138190423Y-92434776D01*
X138076645Y-92638448D01*
X137998925Y-92858418D01*
X137959500Y-93088351D01*
X137959500Y-93713220D01*
X132676311Y-93713220D01*
X132650130Y-93651610D01*
X132509018Y-93420390D01*
X132509017Y-93420388D01*
X132335746Y-93212181D01*
X132230758Y-93118112D01*
X132134002Y-93031418D01*
X131908090Y-92881956D01*
X131908086Y-92881954D01*
X131662822Y-92766978D01*
X131403437Y-92688941D01*
X131403431Y-92688940D01*
X131135439Y-92649500D01*
X130932369Y-92649500D01*
X130932366Y-92649500D01*
X130729843Y-92664322D01*
X130465449Y-92723219D01*
X130212441Y-92819986D01*
X129976223Y-92952559D01*
X129761825Y-93118109D01*
X129573813Y-93313120D01*
X129416201Y-93533420D01*
X129292342Y-93774329D01*
X129204881Y-94030695D01*
X129155680Y-94297066D01*
X129145787Y-94567764D01*
X127503829Y-94567764D01*
X127500649Y-94503032D01*
X127500500Y-94496949D01*
X127500500Y-88750000D01*
X128419364Y-88750000D01*
X128476569Y-88963492D01*
X128576399Y-89177576D01*
X128711893Y-89371081D01*
X128878918Y-89538106D01*
X129072423Y-89673600D01*
X129286507Y-89773430D01*
X129499999Y-89830635D01*
X129500000Y-89830636D01*
X129500000Y-88750000D01*
X130000000Y-88750000D01*
X130000000Y-89830635D01*
X130213492Y-89773430D01*
X130427576Y-89673600D01*
X130621081Y-89538106D01*
X130788106Y-89371081D01*
X130923600Y-89177576D01*
X131023430Y-88963492D01*
X131080636Y-88750000D01*
X147400000Y-88750000D01*
X147400000Y-89397824D01*
X147406402Y-89457375D01*
X147456647Y-89592089D01*
X147542811Y-89707188D01*
X147657910Y-89793352D01*
X147792624Y-89843597D01*
X147852176Y-89850000D01*
X148500000Y-89850000D01*
X148500000Y-88750000D01*
X149000000Y-88750000D01*
X149000000Y-89850000D01*
X149647824Y-89850000D01*
X149707375Y-89843597D01*
X149842089Y-89793352D01*
X149957188Y-89707188D01*
X150043352Y-89592089D01*
X150093597Y-89457375D01*
X150100000Y-89397824D01*
X150100000Y-88750000D01*
X149000000Y-88750000D01*
X148500000Y-88750000D01*
X147400000Y-88750000D01*
X131080636Y-88750000D01*
X130000000Y-88750000D01*
X129500000Y-88750000D01*
X128419364Y-88750000D01*
X127500500Y-88750000D01*
X127500500Y-86210000D01*
X128419364Y-86210000D01*
X128476569Y-86423492D01*
X128576399Y-86637576D01*
X128711893Y-86831081D01*
X128878918Y-86998106D01*
X129065031Y-87128425D01*
X129103896Y-87172743D01*
X129117907Y-87230000D01*
X129103896Y-87287257D01*
X129065031Y-87331575D01*
X128878918Y-87461893D01*
X128711890Y-87628921D01*
X128576400Y-87822421D01*
X128476569Y-88036507D01*
X128419364Y-88249999D01*
X128419364Y-88250000D01*
X129500000Y-88250000D01*
X129500000Y-86210000D01*
X130000000Y-86210000D01*
X130000000Y-88250000D01*
X131080636Y-88250000D01*
X147400000Y-88250000D01*
X148500000Y-88250000D01*
X148500000Y-86210000D01*
X149000000Y-86210000D01*
X149000000Y-88250000D01*
X150100000Y-88250000D01*
X150100000Y-87602176D01*
X150093597Y-87542624D01*
X150043352Y-87407910D01*
X149957188Y-87292811D01*
X149842088Y-87206647D01*
X149710012Y-87157385D01*
X149659633Y-87122405D01*
X149632180Y-87067561D01*
X149634369Y-87006268D01*
X149665665Y-86953521D01*
X149788109Y-86831077D01*
X149923600Y-86637576D01*
X150023430Y-86423492D01*
X150080636Y-86210000D01*
X149000000Y-86210000D01*
X148500000Y-86210000D01*
X147419364Y-86210000D01*
X147476569Y-86423492D01*
X147576399Y-86637576D01*
X147711893Y-86831081D01*
X147834334Y-86953522D01*
X147865630Y-87006268D01*
X147867819Y-87067561D01*
X147840366Y-87122405D01*
X147789987Y-87157385D01*
X147657911Y-87206647D01*
X147542811Y-87292811D01*
X147456647Y-87407910D01*
X147406402Y-87542624D01*
X147400000Y-87602176D01*
X147400000Y-88250000D01*
X131080636Y-88250000D01*
X131080635Y-88249999D01*
X131023430Y-88036507D01*
X130923599Y-87822421D01*
X130788109Y-87628921D01*
X130621081Y-87461893D01*
X130434968Y-87331575D01*
X130396103Y-87287257D01*
X130382092Y-87230000D01*
X130396103Y-87172743D01*
X130434968Y-87128425D01*
X130621081Y-86998106D01*
X130788106Y-86831081D01*
X130923600Y-86637576D01*
X131023430Y-86423492D01*
X131080636Y-86210000D01*
X130000000Y-86210000D01*
X129500000Y-86210000D01*
X128419364Y-86210000D01*
X127500500Y-86210000D01*
X127500500Y-85797869D01*
X134967000Y-85797869D01*
X134973409Y-85857484D01*
X134994440Y-85913870D01*
X135023704Y-85992331D01*
X135109954Y-86107546D01*
X135225169Y-86193796D01*
X135360017Y-86244091D01*
X135419627Y-86250500D01*
X137420372Y-86250499D01*
X137479983Y-86244091D01*
X137614831Y-86193796D01*
X137730046Y-86107546D01*
X137816296Y-85992331D01*
X137827726Y-85961685D01*
X137859838Y-85913870D01*
X137910091Y-85885720D01*
X137967641Y-85883312D01*
X138020067Y-85907165D01*
X138162561Y-86018072D01*
X138374336Y-86132679D01*
X138602087Y-86210866D01*
X138839601Y-86250500D01*
X139080399Y-86250500D01*
X139317913Y-86210866D01*
X139545664Y-86132679D01*
X139757439Y-86018072D01*
X139947463Y-85870171D01*
X140110551Y-85693010D01*
X140126490Y-85668612D01*
X140171279Y-85627381D01*
X140230297Y-85612435D01*
X140289315Y-85627380D01*
X140334107Y-85668614D01*
X140349846Y-85692704D01*
X140512873Y-85869798D01*
X140702835Y-86017651D01*
X140914539Y-86132219D01*
X141142207Y-86210380D01*
X141249999Y-86228366D01*
X141250000Y-86228367D01*
X141250000Y-85000000D01*
X141750000Y-85000000D01*
X141750000Y-86228366D01*
X141857792Y-86210380D01*
X142085460Y-86132219D01*
X142297164Y-86017651D01*
X142487126Y-85869798D01*
X142650151Y-85692707D01*
X142781815Y-85491180D01*
X142878506Y-85270744D01*
X142937599Y-85037393D01*
X142940697Y-85000000D01*
X141750000Y-85000000D01*
X141250000Y-85000000D01*
X141250000Y-83271634D01*
X141249999Y-83271633D01*
X141750000Y-83271633D01*
X141750000Y-84500000D01*
X142940697Y-84500000D01*
X142937599Y-84462606D01*
X142878506Y-84229255D01*
X142781815Y-84008819D01*
X142650151Y-83807292D01*
X142487126Y-83630201D01*
X142297164Y-83482348D01*
X142085460Y-83367780D01*
X141857792Y-83289619D01*
X141750000Y-83271633D01*
X141249999Y-83271633D01*
X141142207Y-83289619D01*
X140914539Y-83367780D01*
X140702835Y-83482348D01*
X140512873Y-83630201D01*
X140349846Y-83807294D01*
X140334106Y-83831387D01*
X140289314Y-83872619D01*
X140230297Y-83887564D01*
X140171280Y-83872619D01*
X140126490Y-83831387D01*
X140110551Y-83806990D01*
X139947463Y-83629829D01*
X139757439Y-83481928D01*
X139545664Y-83367321D01*
X139545660Y-83367319D01*
X139545659Y-83367319D01*
X139317915Y-83289134D01*
X139080399Y-83249500D01*
X138839601Y-83249500D01*
X138602084Y-83289134D01*
X138374340Y-83367319D01*
X138374336Y-83367320D01*
X138374336Y-83367321D01*
X138162561Y-83481928D01*
X138162559Y-83481928D01*
X138162556Y-83481931D01*
X138020067Y-83592833D01*
X137967639Y-83616687D01*
X137910089Y-83614279D01*
X137859836Y-83586129D01*
X137827725Y-83538313D01*
X137816296Y-83507669D01*
X137730046Y-83392454D01*
X137614831Y-83306204D01*
X137479983Y-83255909D01*
X137420373Y-83249500D01*
X137420369Y-83249500D01*
X135419630Y-83249500D01*
X135360015Y-83255909D01*
X135225169Y-83306204D01*
X135109954Y-83392454D01*
X135023704Y-83507668D01*
X134973409Y-83642516D01*
X134967000Y-83702130D01*
X134967000Y-85797869D01*
X127500500Y-85797869D01*
X127500500Y-83420000D01*
X128394340Y-83420000D01*
X128414936Y-83655407D01*
X128455553Y-83806990D01*
X128476097Y-83883663D01*
X128575965Y-84097830D01*
X128711505Y-84291401D01*
X128878599Y-84458495D01*
X129064597Y-84588732D01*
X129103460Y-84633048D01*
X129117471Y-84690305D01*
X129103461Y-84747561D01*
X129064595Y-84791880D01*
X128878919Y-84921892D01*
X128711890Y-85088921D01*
X128576400Y-85282421D01*
X128476569Y-85496507D01*
X128419364Y-85709999D01*
X128419364Y-85710000D01*
X131080636Y-85710000D01*
X131080635Y-85709999D01*
X131023430Y-85496507D01*
X130923599Y-85282421D01*
X130788109Y-85088921D01*
X130621081Y-84921893D01*
X130435404Y-84791880D01*
X130396539Y-84747562D01*
X130382528Y-84690305D01*
X130396539Y-84633048D01*
X130435402Y-84588732D01*
X130621401Y-84458495D01*
X130788495Y-84291401D01*
X130924035Y-84097830D01*
X131023903Y-83883663D01*
X131085063Y-83655408D01*
X131105659Y-83420000D01*
X131085063Y-83184592D01*
X131023903Y-82956337D01*
X130924035Y-82742171D01*
X130788495Y-82548599D01*
X130666568Y-82426672D01*
X130635273Y-82373927D01*
X130633084Y-82312634D01*
X130660537Y-82257789D01*
X130710916Y-82222810D01*
X130842331Y-82173796D01*
X130867130Y-82155231D01*
X130902280Y-82136845D01*
X130941439Y-82130500D01*
X147843794Y-82130500D01*
X147903910Y-82146047D01*
X147948952Y-82188790D01*
X147967624Y-82248010D01*
X147955245Y-82308858D01*
X147914919Y-82356073D01*
X147889423Y-82373926D01*
X147878595Y-82381508D01*
X147711505Y-82548598D01*
X147575965Y-82742170D01*
X147476097Y-82956336D01*
X147414936Y-83184592D01*
X147394340Y-83420000D01*
X147414936Y-83655407D01*
X147455553Y-83806990D01*
X147476097Y-83883663D01*
X147575965Y-84097830D01*
X147711505Y-84291401D01*
X147878599Y-84458495D01*
X148064597Y-84588732D01*
X148103460Y-84633048D01*
X148117471Y-84690305D01*
X148103461Y-84747561D01*
X148064595Y-84791880D01*
X147878919Y-84921892D01*
X147711890Y-85088921D01*
X147576400Y-85282421D01*
X147476569Y-85496507D01*
X147419364Y-85709999D01*
X147419364Y-85710000D01*
X150080636Y-85710000D01*
X150080635Y-85709999D01*
X150023430Y-85496507D01*
X149923599Y-85282421D01*
X149788109Y-85088921D01*
X149621081Y-84921893D01*
X149435404Y-84791880D01*
X149396539Y-84747562D01*
X149382528Y-84690305D01*
X149396539Y-84633048D01*
X149435402Y-84588732D01*
X149621401Y-84458495D01*
X149788495Y-84291401D01*
X149924035Y-84097830D01*
X150023903Y-83883663D01*
X150085063Y-83655408D01*
X150105659Y-83420000D01*
X150085063Y-83184592D01*
X150023903Y-82956337D01*
X149924035Y-82742171D01*
X149788495Y-82548599D01*
X149621401Y-82381505D01*
X149435839Y-82251573D01*
X149396976Y-82207257D01*
X149382965Y-82150000D01*
X149396976Y-82092743D01*
X149435839Y-82048426D01*
X149621401Y-81918495D01*
X149788495Y-81751401D01*
X149924035Y-81557830D01*
X150023903Y-81343663D01*
X150085063Y-81115408D01*
X150105659Y-80880000D01*
X150085063Y-80644592D01*
X150023903Y-80416337D01*
X149924035Y-80202171D01*
X149788495Y-80008599D01*
X149621401Y-79841505D01*
X149427830Y-79705965D01*
X149213663Y-79606097D01*
X149152501Y-79589709D01*
X148985407Y-79544936D01*
X148749999Y-79524340D01*
X148514592Y-79544936D01*
X148286334Y-79606097D01*
X148261063Y-79617882D01*
X148208659Y-79629500D01*
X130941439Y-79629500D01*
X130902280Y-79623155D01*
X130867129Y-79604768D01*
X130842331Y-79586204D01*
X130707483Y-79535909D01*
X130647873Y-79529500D01*
X130647869Y-79529500D01*
X128852130Y-79529500D01*
X128792515Y-79535909D01*
X128657669Y-79586204D01*
X128542454Y-79672454D01*
X128456204Y-79787668D01*
X128405909Y-79922516D01*
X128399500Y-79982130D01*
X128399500Y-81777869D01*
X128405909Y-81837483D01*
X128456204Y-81972331D01*
X128542454Y-82087546D01*
X128657669Y-82173796D01*
X128747383Y-82207257D01*
X128789082Y-82222810D01*
X128839462Y-82257789D01*
X128866915Y-82312634D01*
X128864726Y-82373926D01*
X128833431Y-82426673D01*
X128711503Y-82548601D01*
X128575965Y-82742170D01*
X128476097Y-82956336D01*
X128414936Y-83184592D01*
X128394340Y-83420000D01*
X127500500Y-83420000D01*
X127500500Y-77147869D01*
X135399500Y-77147869D01*
X135405909Y-77207483D01*
X135456204Y-77342331D01*
X135542454Y-77457546D01*
X135657669Y-77543796D01*
X135792517Y-77594091D01*
X135852127Y-77600500D01*
X137647872Y-77600499D01*
X137707483Y-77594091D01*
X137842331Y-77543796D01*
X137842332Y-77543795D01*
X137859036Y-77537565D01*
X137859641Y-77539187D01*
X137887305Y-77527336D01*
X137945633Y-77531501D01*
X137995566Y-77561935D01*
X138121342Y-77687711D01*
X138121344Y-77687712D01*
X138270666Y-77779814D01*
X138382017Y-77816712D01*
X138437202Y-77834999D01*
X138447702Y-77836071D01*
X138539991Y-77845500D01*
X139880008Y-77845499D01*
X139982797Y-77834999D01*
X140149334Y-77779814D01*
X140298656Y-77687712D01*
X140422712Y-77563656D01*
X140514814Y-77414334D01*
X140514814Y-77414333D01*
X140522422Y-77401999D01*
X140525242Y-77403738D01*
X140545568Y-77372516D01*
X140601542Y-77343422D01*
X140664586Y-77345633D01*
X140718385Y-77378575D01*
X140841603Y-77507139D01*
X141029101Y-77645812D01*
X141237339Y-77750803D01*
X141460326Y-77819092D01*
X141500000Y-77824172D01*
X141500000Y-76500000D01*
X142000000Y-76500000D01*
X142000000Y-77822575D01*
X142152621Y-77789682D01*
X142369005Y-77702732D01*
X142567594Y-77580456D01*
X142742657Y-77426381D01*
X142889160Y-77244942D01*
X143002896Y-77041344D01*
X143080588Y-76821455D01*
X143120000Y-76591606D01*
X143120000Y-76500000D01*
X142000000Y-76500000D01*
X141500000Y-76500000D01*
X141500000Y-74677424D01*
X141347378Y-74710317D01*
X141130994Y-74797267D01*
X140932405Y-74919543D01*
X140757343Y-75073617D01*
X140725273Y-75113334D01*
X140672000Y-75151664D01*
X140606626Y-75157435D01*
X140547462Y-75129030D01*
X140525522Y-75096088D01*
X140522422Y-75098001D01*
X140422711Y-74936342D01*
X140298657Y-74812288D01*
X140149334Y-74720186D01*
X140015470Y-74675827D01*
X142000000Y-74675827D01*
X142000000Y-76000000D01*
X143120000Y-76000000D01*
X143120000Y-75966802D01*
X143105176Y-75792635D01*
X143046410Y-75566945D01*
X142950353Y-75354442D01*
X142925563Y-75317764D01*
X145645787Y-75317764D01*
X145675413Y-75587016D01*
X145743928Y-75849087D01*
X145849871Y-76098392D01*
X145990982Y-76329611D01*
X146080253Y-76436881D01*
X146164255Y-76537820D01*
X146365998Y-76718582D01*
X146591910Y-76868044D01*
X146698211Y-76917876D01*
X146837177Y-76983021D01*
X147096562Y-77061058D01*
X147096569Y-77061060D01*
X147364561Y-77100500D01*
X147567631Y-77100500D01*
X147567634Y-77100500D01*
X147770156Y-77085677D01*
X147770155Y-77085677D01*
X148034553Y-77026780D01*
X148287558Y-76930014D01*
X148523777Y-76797441D01*
X148738177Y-76631888D01*
X148926186Y-76436881D01*
X149083799Y-76216579D01*
X149207656Y-75975675D01*
X149295118Y-75719305D01*
X149344319Y-75452933D01*
X149354212Y-75182235D01*
X149324586Y-74912982D01*
X149256072Y-74650912D01*
X149150130Y-74401610D01*
X149009018Y-74170390D01*
X149009017Y-74170388D01*
X148835746Y-73962181D01*
X148741710Y-73877925D01*
X148634002Y-73781418D01*
X148408090Y-73631956D01*
X148408086Y-73631954D01*
X148162822Y-73516978D01*
X147903437Y-73438941D01*
X147903431Y-73438940D01*
X147635439Y-73399500D01*
X147432369Y-73399500D01*
X147432366Y-73399500D01*
X147229843Y-73414322D01*
X146965449Y-73473219D01*
X146712441Y-73569986D01*
X146476223Y-73702559D01*
X146261825Y-73868109D01*
X146073813Y-74063120D01*
X145916201Y-74283420D01*
X145792342Y-74524329D01*
X145704881Y-74780695D01*
X145655680Y-75047066D01*
X145645787Y-75317764D01*
X142925563Y-75317764D01*
X142819763Y-75161227D01*
X142658396Y-74992860D01*
X142470898Y-74854187D01*
X142262660Y-74749196D01*
X142039673Y-74680907D01*
X142000000Y-74675827D01*
X140015470Y-74675827D01*
X139982797Y-74665000D01*
X139880009Y-74654500D01*
X138539991Y-74654500D01*
X138437203Y-74665000D01*
X138270665Y-74720186D01*
X138121344Y-74812287D01*
X137995567Y-74938064D01*
X137945646Y-74968493D01*
X137887332Y-74972667D01*
X137859640Y-74960811D01*
X137859035Y-74962435D01*
X137842332Y-74956205D01*
X137842331Y-74956204D01*
X137707483Y-74905909D01*
X137647873Y-74899500D01*
X137647869Y-74899500D01*
X135852130Y-74899500D01*
X135792515Y-74905909D01*
X135657669Y-74956204D01*
X135542454Y-75042454D01*
X135456204Y-75157668D01*
X135420628Y-75253051D01*
X135405909Y-75292517D01*
X135403195Y-75317765D01*
X135399500Y-75352130D01*
X135399500Y-77147869D01*
X127500500Y-77147869D01*
X127500500Y-75253051D01*
X127500649Y-75246967D01*
X127507998Y-75097372D01*
X127518010Y-74906327D01*
X127519176Y-74894679D01*
X127543801Y-74728671D01*
X127543929Y-74727842D01*
X127571290Y-74555093D01*
X127573463Y-74544438D01*
X127615016Y-74378551D01*
X127615406Y-74377043D01*
X127659870Y-74211105D01*
X127662880Y-74201469D01*
X127720867Y-74039405D01*
X127721830Y-74036810D01*
X127782836Y-73877883D01*
X127786466Y-73869395D01*
X127860400Y-73713076D01*
X127861912Y-73709997D01*
X127938909Y-73558881D01*
X127943010Y-73551474D01*
X128032078Y-73402873D01*
X128034354Y-73399225D01*
X128126523Y-73257298D01*
X128130860Y-73251055D01*
X128234170Y-73111757D01*
X128237331Y-73107679D01*
X128343698Y-72976325D01*
X128348123Y-72971162D01*
X128464674Y-72842568D01*
X128468793Y-72838242D01*
X128588242Y-72718793D01*
X128592568Y-72714674D01*
X128721162Y-72598123D01*
X128726325Y-72593698D01*
X128857679Y-72487331D01*
X128861757Y-72484170D01*
X129001055Y-72380860D01*
X129007298Y-72376523D01*
X129149225Y-72284354D01*
X129152873Y-72282078D01*
X129301474Y-72193010D01*
X129308881Y-72188909D01*
X129459997Y-72111912D01*
X129463076Y-72110400D01*
X129619395Y-72036466D01*
X129627883Y-72032836D01*
X129786847Y-71971816D01*
X129789405Y-71970867D01*
X129951469Y-71912880D01*
X129961105Y-71909870D01*
X130127043Y-71865406D01*
X130128551Y-71865016D01*
X130294438Y-71823463D01*
X130305093Y-71821290D01*
X130477842Y-71793929D01*
X130478671Y-71793801D01*
X130644679Y-71769176D01*
X130656325Y-71768010D01*
X130847402Y-71757996D01*
X130993747Y-71750807D01*
X130996968Y-71750649D01*
X131003051Y-71750500D01*
X147496949Y-71750500D01*
X147503032Y-71750649D01*
G37*
G04 #@! TD.AperFunction*
M02*
