G04 #@! TF.GenerationSoftware,KiCad,Pcbnew,7.0.1*
G04 #@! TF.CreationDate,2023-08-26T15:59:25-05:00*
G04 #@! TF.ProjectId,Single Mosfet Board,53696e67-6c65-4204-9d6f-736665742042,rev?*
G04 #@! TF.SameCoordinates,Original*
G04 #@! TF.FileFunction,Copper,L1,Top*
G04 #@! TF.FilePolarity,Positive*
%FSLAX46Y46*%
G04 Gerber Fmt 4.6, Leading zero omitted, Abs format (unit mm)*
G04 Created by KiCad (PCBNEW 7.0.1) date 2023-08-26 15:59:25*
%MOMM*%
%LPD*%
G01*
G04 APERTURE LIST*
G04 Aperture macros list*
%AMRoundRect*
0 Rectangle with rounded corners*
0 $1 Rounding radius*
0 $2 $3 $4 $5 $6 $7 $8 $9 X,Y pos of 4 corners*
0 Add a 4 corners polygon primitive as box body*
4,1,4,$2,$3,$4,$5,$6,$7,$8,$9,$2,$3,0*
0 Add four circle primitives for the rounded corners*
1,1,$1+$1,$2,$3*
1,1,$1+$1,$4,$5*
1,1,$1+$1,$6,$7*
1,1,$1+$1,$8,$9*
0 Add four rect primitives between the rounded corners*
20,1,$1+$1,$2,$3,$4,$5,0*
20,1,$1+$1,$4,$5,$6,$7,0*
20,1,$1+$1,$6,$7,$8,$9,0*
20,1,$1+$1,$8,$9,$2,$3,0*%
G04 Aperture macros list end*
G04 #@! TA.AperFunction,SMDPad,CuDef*
%ADD10RoundRect,0.250000X-0.450000X0.350000X-0.450000X-0.350000X0.450000X-0.350000X0.450000X0.350000X0*%
G04 #@! TD*
G04 #@! TA.AperFunction,SMDPad,CuDef*
%ADD11RoundRect,0.250000X-0.350000X-0.450000X0.350000X-0.450000X0.350000X0.450000X-0.350000X0.450000X0*%
G04 #@! TD*
G04 #@! TA.AperFunction,ComponentPad*
%ADD12R,1.905000X2.000000*%
G04 #@! TD*
G04 #@! TA.AperFunction,ComponentPad*
%ADD13O,1.905000X2.000000*%
G04 #@! TD*
G04 #@! TA.AperFunction,ComponentPad*
%ADD14R,1.700000X1.700000*%
G04 #@! TD*
G04 #@! TA.AperFunction,ComponentPad*
%ADD15O,1.700000X1.700000*%
G04 #@! TD*
G04 #@! TA.AperFunction,ComponentPad*
%ADD16RoundRect,0.250000X-0.620000X-0.845000X0.620000X-0.845000X0.620000X0.845000X-0.620000X0.845000X0*%
G04 #@! TD*
G04 #@! TA.AperFunction,ComponentPad*
%ADD17O,1.740000X2.190000*%
G04 #@! TD*
G04 #@! TA.AperFunction,ComponentPad*
%ADD18RoundRect,0.250000X0.620000X0.845000X-0.620000X0.845000X-0.620000X-0.845000X0.620000X-0.845000X0*%
G04 #@! TD*
G04 #@! TA.AperFunction,SMDPad,CuDef*
%ADD19RoundRect,0.250000X-1.500000X-0.650000X1.500000X-0.650000X1.500000X0.650000X-1.500000X0.650000X0*%
G04 #@! TD*
G04 #@! TA.AperFunction,SMDPad,CuDef*
%ADD20RoundRect,0.250001X0.624999X-0.462499X0.624999X0.462499X-0.624999X0.462499X-0.624999X-0.462499X0*%
G04 #@! TD*
G04 #@! TA.AperFunction,Conductor*
%ADD21C,1.500000*%
G04 #@! TD*
G04 #@! TA.AperFunction,Conductor*
%ADD22C,0.350000*%
G04 #@! TD*
G04 APERTURE END LIST*
D10*
X133750000Y-78000000D03*
X133750000Y-76000000D03*
D11*
X134550000Y-91000000D03*
X136550000Y-91000000D03*
D12*
X136420000Y-84750000D03*
D13*
X138960000Y-84750000D03*
X141500000Y-84750000D03*
D14*
X148750000Y-88500000D03*
D15*
X148750000Y-85960000D03*
X148750000Y-83420000D03*
X148750000Y-80880000D03*
D14*
X136750000Y-76250000D03*
D16*
X139210000Y-76250000D03*
D17*
X141750000Y-76250000D03*
X139330000Y-93430000D03*
D18*
X141870000Y-93430000D03*
D14*
X144330000Y-93430000D03*
D15*
X129750000Y-88500000D03*
X129750000Y-85960000D03*
X129750000Y-83420000D03*
D14*
X129750000Y-80880000D03*
D19*
X136300000Y-88250000D03*
X141300000Y-88250000D03*
D20*
X135750000Y-95975000D03*
X135750000Y-93000000D03*
D21*
X139330000Y-90220000D02*
X139330000Y-93430000D01*
X141300000Y-88250000D02*
X139330000Y-90220000D01*
X141500000Y-76500000D02*
X141750000Y-76250000D01*
X141500000Y-84750000D02*
X141500000Y-76500000D01*
X138960000Y-84750000D02*
X138960000Y-85910000D01*
X138960000Y-85910000D02*
X141300000Y-88250000D01*
X144330000Y-86637919D02*
X144330000Y-93430000D01*
X147547919Y-83420000D02*
X144330000Y-86637919D01*
X148750000Y-83420000D02*
X147547919Y-83420000D01*
X131470000Y-83420000D02*
X136300000Y-88250000D01*
X129750000Y-83420000D02*
X131470000Y-83420000D01*
X129750000Y-80880000D02*
X129750000Y-83420000D01*
X144330000Y-93430000D02*
X141870000Y-93430000D01*
X141870000Y-93430000D02*
X141870000Y-93171131D01*
X148750000Y-80880000D02*
X148750000Y-83420000D01*
D22*
X134550000Y-91000000D02*
X134550000Y-90000000D01*
X134550000Y-90000000D02*
X136300000Y-88250000D01*
X136785000Y-95975000D02*
X139330000Y-93430000D01*
X135750000Y-95975000D02*
X136785000Y-95975000D01*
X136550000Y-92200000D02*
X135750000Y-93000000D01*
X136550000Y-91000000D02*
X136550000Y-92200000D01*
X136420000Y-80670000D02*
X136420000Y-84750000D01*
X133750000Y-78000000D02*
X136420000Y-80670000D01*
X134000000Y-76250000D02*
X133750000Y-76000000D01*
X136750000Y-76250000D02*
X134000000Y-76250000D01*
X136750000Y-76250000D02*
X139210000Y-76250000D01*
G04 #@! TA.AperFunction,Conductor*
G36*
X147503032Y-71750649D02*
G01*
X147507384Y-71750862D01*
X147652450Y-71757989D01*
X147843670Y-71768010D01*
X147855324Y-71769177D01*
X148021254Y-71793791D01*
X148022225Y-71793940D01*
X148194897Y-71821289D01*
X148205570Y-71823465D01*
X148371374Y-71864997D01*
X148373014Y-71865422D01*
X148538880Y-71909866D01*
X148548544Y-71912884D01*
X148652693Y-71950150D01*
X148710526Y-71970843D01*
X148713188Y-71971830D01*
X148746726Y-71984704D01*
X148872097Y-72032829D01*
X148880623Y-72036475D01*
X149036869Y-72110374D01*
X149040055Y-72111939D01*
X149182487Y-72184511D01*
X149191094Y-72188897D01*
X149198547Y-72193023D01*
X149347075Y-72282047D01*
X149350824Y-72284387D01*
X149492670Y-72376503D01*
X149498977Y-72380884D01*
X149638210Y-72484147D01*
X149642365Y-72487367D01*
X149773635Y-72593667D01*
X149778872Y-72598155D01*
X149907389Y-72714636D01*
X149911797Y-72718833D01*
X150031165Y-72838201D01*
X150035362Y-72842609D01*
X150151843Y-72971126D01*
X150156331Y-72976363D01*
X150262620Y-73107619D01*
X150265851Y-73111788D01*
X150369114Y-73251021D01*
X150373512Y-73257353D01*
X150465599Y-73399155D01*
X150467963Y-73402942D01*
X150556975Y-73551451D01*
X150561101Y-73558904D01*
X150638037Y-73709898D01*
X150639647Y-73713176D01*
X150713510Y-73869345D01*
X150717179Y-73877925D01*
X150778168Y-74036810D01*
X150779155Y-74039472D01*
X150837111Y-74201447D01*
X150840135Y-74211128D01*
X150884535Y-74376827D01*
X150885044Y-74378792D01*
X150926526Y-74544398D01*
X150928715Y-74555130D01*
X150956041Y-74727665D01*
X150956226Y-74728867D01*
X150980818Y-74894649D01*
X150981990Y-74906355D01*
X150991989Y-75097157D01*
X150991886Y-75097162D01*
X150992011Y-75097561D01*
X150999351Y-75246967D01*
X150999500Y-75253052D01*
X150999500Y-94496948D01*
X150999351Y-94503033D01*
X150992014Y-94652369D01*
X150991993Y-94652774D01*
X150981990Y-94843644D01*
X150980818Y-94855349D01*
X150956226Y-95021131D01*
X150956041Y-95022333D01*
X150928715Y-95194868D01*
X150926526Y-95205600D01*
X150885044Y-95371206D01*
X150884535Y-95373171D01*
X150840135Y-95538870D01*
X150837111Y-95548551D01*
X150779155Y-95710526D01*
X150778168Y-95713188D01*
X150717179Y-95872073D01*
X150713510Y-95880653D01*
X150639647Y-96036822D01*
X150638037Y-96040100D01*
X150561101Y-96191094D01*
X150556975Y-96198547D01*
X150467963Y-96347056D01*
X150465599Y-96350843D01*
X150373512Y-96492645D01*
X150369114Y-96498977D01*
X150265851Y-96638210D01*
X150262620Y-96642379D01*
X150156331Y-96773635D01*
X150151843Y-96778872D01*
X150035362Y-96907389D01*
X150031165Y-96911797D01*
X149911797Y-97031165D01*
X149907389Y-97035362D01*
X149778872Y-97151843D01*
X149773635Y-97156331D01*
X149642379Y-97262620D01*
X149638210Y-97265851D01*
X149498977Y-97369114D01*
X149492645Y-97373512D01*
X149350843Y-97465599D01*
X149347056Y-97467963D01*
X149198547Y-97556975D01*
X149191094Y-97561101D01*
X149040100Y-97638037D01*
X149036822Y-97639647D01*
X148880653Y-97713510D01*
X148872073Y-97717179D01*
X148713188Y-97778168D01*
X148710526Y-97779155D01*
X148548551Y-97837111D01*
X148538870Y-97840135D01*
X148373171Y-97884535D01*
X148371206Y-97885044D01*
X148205600Y-97926526D01*
X148194868Y-97928715D01*
X148022333Y-97956041D01*
X148021131Y-97956226D01*
X147855349Y-97980818D01*
X147843644Y-97981990D01*
X147652774Y-97991993D01*
X147652369Y-97992014D01*
X147503033Y-97999351D01*
X147496948Y-97999500D01*
X131003052Y-97999500D01*
X130996967Y-97999351D01*
X130847629Y-97992014D01*
X130847224Y-97991993D01*
X130656354Y-97981990D01*
X130644649Y-97980818D01*
X130478867Y-97956226D01*
X130477665Y-97956041D01*
X130305130Y-97928715D01*
X130294398Y-97926526D01*
X130128792Y-97885044D01*
X130126827Y-97884535D01*
X129961128Y-97840135D01*
X129951447Y-97837111D01*
X129789472Y-97779155D01*
X129786810Y-97778168D01*
X129627925Y-97717179D01*
X129619351Y-97713512D01*
X129463176Y-97639647D01*
X129459898Y-97638037D01*
X129308904Y-97561101D01*
X129301451Y-97556975D01*
X129152942Y-97467963D01*
X129149155Y-97465599D01*
X129101996Y-97434973D01*
X129007343Y-97373505D01*
X129001021Y-97369114D01*
X128861788Y-97265851D01*
X128857619Y-97262620D01*
X128726363Y-97156331D01*
X128721126Y-97151843D01*
X128592609Y-97035362D01*
X128588201Y-97031165D01*
X128468833Y-96911797D01*
X128464636Y-96907389D01*
X128348155Y-96778872D01*
X128343667Y-96773635D01*
X128237367Y-96642365D01*
X128234147Y-96638210D01*
X128130884Y-96498977D01*
X128126503Y-96492670D01*
X128034387Y-96350824D01*
X128032035Y-96347056D01*
X127943023Y-96198547D01*
X127938897Y-96191094D01*
X127933251Y-96180013D01*
X127861939Y-96040055D01*
X127860374Y-96036869D01*
X127786475Y-95880623D01*
X127782829Y-95872097D01*
X127721830Y-95713188D01*
X127720843Y-95710526D01*
X127662887Y-95548551D01*
X127659863Y-95538870D01*
X127615422Y-95373014D01*
X127614997Y-95371374D01*
X127573465Y-95205570D01*
X127571289Y-95194897D01*
X127543940Y-95022225D01*
X127543791Y-95021254D01*
X127519177Y-94855324D01*
X127518010Y-94843670D01*
X127507985Y-94652369D01*
X127503829Y-94567764D01*
X129145787Y-94567764D01*
X129175413Y-94837016D01*
X129202446Y-94940416D01*
X129243928Y-95099088D01*
X129289191Y-95205600D01*
X129349871Y-95348392D01*
X129490982Y-95579611D01*
X129602146Y-95713188D01*
X129664255Y-95787820D01*
X129865998Y-95968582D01*
X130091910Y-96118044D01*
X130159338Y-96149653D01*
X130337177Y-96233021D01*
X130596562Y-96311058D01*
X130596569Y-96311060D01*
X130864561Y-96350500D01*
X131067631Y-96350500D01*
X131067634Y-96350500D01*
X131270156Y-96335677D01*
X131270155Y-96335677D01*
X131534553Y-96276780D01*
X131787558Y-96180014D01*
X132023777Y-96047441D01*
X132238177Y-95881888D01*
X132426186Y-95686881D01*
X132583799Y-95466579D01*
X132707656Y-95225675D01*
X132795118Y-94969305D01*
X132844319Y-94702933D01*
X132854212Y-94432235D01*
X132824586Y-94162982D01*
X132756072Y-93900912D01*
X132650130Y-93651610D01*
X132509018Y-93420390D01*
X132509017Y-93420388D01*
X132335746Y-93212181D01*
X132230758Y-93118112D01*
X132134002Y-93031418D01*
X131908090Y-92881956D01*
X131908086Y-92881954D01*
X131662822Y-92766978D01*
X131403437Y-92688941D01*
X131403431Y-92688940D01*
X131135439Y-92649500D01*
X130932369Y-92649500D01*
X130932366Y-92649500D01*
X130729843Y-92664322D01*
X130465449Y-92723219D01*
X130212441Y-92819986D01*
X129976223Y-92952559D01*
X129761825Y-93118109D01*
X129573813Y-93313120D01*
X129416201Y-93533420D01*
X129292342Y-93774329D01*
X129204881Y-94030695D01*
X129155680Y-94297066D01*
X129145787Y-94567764D01*
X127503829Y-94567764D01*
X127500649Y-94503032D01*
X127500500Y-94496949D01*
X127500500Y-88750000D01*
X128419364Y-88750000D01*
X128476569Y-88963492D01*
X128576399Y-89177576D01*
X128711893Y-89371081D01*
X128878918Y-89538106D01*
X129072423Y-89673600D01*
X129286507Y-89773430D01*
X129499999Y-89830635D01*
X129500000Y-89830636D01*
X129500000Y-88750000D01*
X130000000Y-88750000D01*
X130000000Y-89830635D01*
X130213492Y-89773430D01*
X130427576Y-89673600D01*
X130621081Y-89538106D01*
X130788106Y-89371081D01*
X130923600Y-89177576D01*
X131023430Y-88963492D01*
X131080636Y-88750000D01*
X130000000Y-88750000D01*
X129500000Y-88750000D01*
X128419364Y-88750000D01*
X127500500Y-88750000D01*
X127500500Y-86210000D01*
X128419364Y-86210000D01*
X128476569Y-86423492D01*
X128576399Y-86637576D01*
X128711893Y-86831081D01*
X128878918Y-86998106D01*
X129065031Y-87128425D01*
X129103896Y-87172743D01*
X129117907Y-87230000D01*
X129103896Y-87287257D01*
X129065031Y-87331575D01*
X128878918Y-87461893D01*
X128711890Y-87628921D01*
X128576400Y-87822421D01*
X128476569Y-88036507D01*
X128419364Y-88249999D01*
X128419364Y-88250000D01*
X129500000Y-88250000D01*
X129500000Y-86210000D01*
X130000000Y-86210000D01*
X130000000Y-88250000D01*
X131080636Y-88250000D01*
X131080635Y-88249999D01*
X131023430Y-88036507D01*
X130923599Y-87822421D01*
X130788109Y-87628921D01*
X130621081Y-87461893D01*
X130434968Y-87331575D01*
X130396103Y-87287257D01*
X130382092Y-87230000D01*
X130396103Y-87172743D01*
X130434968Y-87128425D01*
X130621081Y-86998106D01*
X130788106Y-86831081D01*
X130923600Y-86637576D01*
X131023430Y-86423492D01*
X131080636Y-86210000D01*
X130000000Y-86210000D01*
X129500000Y-86210000D01*
X128419364Y-86210000D01*
X127500500Y-86210000D01*
X127500500Y-83420000D01*
X128394340Y-83420000D01*
X128414936Y-83655407D01*
X128455553Y-83806990D01*
X128476097Y-83883663D01*
X128575965Y-84097830D01*
X128711505Y-84291401D01*
X128878599Y-84458495D01*
X129064597Y-84588732D01*
X129103460Y-84633048D01*
X129117471Y-84690305D01*
X129103461Y-84747561D01*
X129064595Y-84791880D01*
X128878919Y-84921892D01*
X128711890Y-85088921D01*
X128576400Y-85282421D01*
X128476569Y-85496507D01*
X128419364Y-85709999D01*
X128419364Y-85710000D01*
X131080636Y-85710000D01*
X131080635Y-85709999D01*
X131023430Y-85496507D01*
X130923599Y-85282421D01*
X130788109Y-85088921D01*
X130621078Y-84921890D01*
X130584210Y-84896075D01*
X130543883Y-84848858D01*
X130531503Y-84788010D01*
X130550175Y-84728790D01*
X130595217Y-84686047D01*
X130655333Y-84670500D01*
X130900664Y-84670500D01*
X130948117Y-84679939D01*
X130988345Y-84706819D01*
X134013181Y-87731655D01*
X134040061Y-87771883D01*
X134049500Y-87819336D01*
X134049500Y-88950008D01*
X134060000Y-89052796D01*
X134115186Y-89219334D01*
X134162971Y-89296807D01*
X134180727Y-89348703D01*
X134174359Y-89403182D01*
X134145113Y-89449584D01*
X134089424Y-89505273D01*
X134083972Y-89510406D01*
X134040668Y-89548770D01*
X134007800Y-89596387D01*
X134003363Y-89602417D01*
X133967673Y-89647973D01*
X133963824Y-89656524D01*
X133952807Y-89676058D01*
X133947481Y-89683775D01*
X133926965Y-89737868D01*
X133924102Y-89744782D01*
X133900350Y-89797561D01*
X133898825Y-89805882D01*
X133879219Y-89853509D01*
X133841954Y-89889063D01*
X133731341Y-89957289D01*
X133607288Y-90081342D01*
X133515186Y-90230665D01*
X133460000Y-90397202D01*
X133449500Y-90499990D01*
X133449500Y-91500008D01*
X133460000Y-91602796D01*
X133515186Y-91769334D01*
X133607288Y-91918657D01*
X133731342Y-92042711D01*
X133731344Y-92042712D01*
X133880666Y-92134814D01*
X133992016Y-92171712D01*
X134047202Y-92189999D01*
X134056729Y-92190972D01*
X134149991Y-92200500D01*
X134274320Y-92200499D01*
X134330773Y-92214096D01*
X134374848Y-92251905D01*
X134396876Y-92305634D01*
X134392026Y-92363501D01*
X134385000Y-92384703D01*
X134374500Y-92487492D01*
X134374500Y-93512508D01*
X134385000Y-93615297D01*
X134440186Y-93781836D01*
X134532288Y-93931155D01*
X134656344Y-94055211D01*
X134805663Y-94147313D01*
X134972202Y-94202499D01*
X135074992Y-94213000D01*
X136425008Y-94213000D01*
X136527797Y-94202499D01*
X136527796Y-94202499D01*
X136694334Y-94147314D01*
X136843655Y-94055211D01*
X136967711Y-93931155D01*
X137059814Y-93781834D01*
X137114999Y-93615297D01*
X137125500Y-93512508D01*
X137125500Y-92594009D01*
X137131114Y-92557119D01*
X137147449Y-92523570D01*
X137148879Y-92521496D01*
X137152518Y-92516226D01*
X137173036Y-92462122D01*
X137175901Y-92455207D01*
X137199648Y-92402444D01*
X137199648Y-92402443D01*
X137199650Y-92402439D01*
X137201338Y-92393222D01*
X137207364Y-92371608D01*
X137210688Y-92362845D01*
X137217663Y-92305396D01*
X137218790Y-92297993D01*
X137222505Y-92277720D01*
X137229219Y-92241085D01*
X137227146Y-92206826D01*
X137240867Y-92142207D01*
X137285821Y-92093804D01*
X137368656Y-92042712D01*
X137492712Y-91918656D01*
X137584814Y-91769334D01*
X137639999Y-91602797D01*
X137650500Y-91500009D01*
X137650499Y-90499992D01*
X137639999Y-90397203D01*
X137584814Y-90230666D01*
X137492712Y-90081344D01*
X137492711Y-90081342D01*
X137368657Y-89957288D01*
X137243413Y-89880038D01*
X137199709Y-89833984D01*
X137184528Y-89772336D01*
X137201850Y-89711254D01*
X137247135Y-89666753D01*
X137308509Y-89650499D01*
X137850009Y-89650499D01*
X137901402Y-89645249D01*
X137952797Y-89639999D01*
X138002280Y-89623601D01*
X138070378Y-89620769D01*
X138129688Y-89654356D01*
X138162287Y-89714215D01*
X138158325Y-89782260D01*
X138154763Y-89792440D01*
X138153814Y-89795057D01*
X138119691Y-89885978D01*
X138118910Y-89890282D01*
X138113950Y-89909077D01*
X138112501Y-89913217D01*
X138097304Y-90009166D01*
X138096838Y-90011907D01*
X138079500Y-90107450D01*
X138079500Y-90111830D01*
X138077973Y-90131229D01*
X138077290Y-90135539D01*
X138079469Y-90232640D01*
X138079500Y-90235422D01*
X138079500Y-92609109D01*
X138072417Y-92650418D01*
X137998925Y-92858418D01*
X137959500Y-93088351D01*
X137959500Y-93713220D01*
X137964963Y-93777410D01*
X137957882Y-93830473D01*
X137929091Y-93875606D01*
X136938500Y-94866197D01*
X136892098Y-94895444D01*
X136837619Y-94901811D01*
X136785722Y-94884055D01*
X136694332Y-94827685D01*
X136527797Y-94772500D01*
X136425008Y-94762000D01*
X135074992Y-94762000D01*
X134972202Y-94772500D01*
X134805663Y-94827686D01*
X134656344Y-94919788D01*
X134532288Y-95043844D01*
X134440186Y-95193163D01*
X134385000Y-95359702D01*
X134374500Y-95462492D01*
X134374500Y-96487508D01*
X134385000Y-96590297D01*
X134440186Y-96756836D01*
X134532288Y-96906155D01*
X134656344Y-97030211D01*
X134805663Y-97122313D01*
X134972202Y-97177499D01*
X135074992Y-97188000D01*
X136425008Y-97188000D01*
X136527797Y-97177499D01*
X136527797Y-97177498D01*
X136694334Y-97122314D01*
X136843655Y-97030211D01*
X136967711Y-96906155D01*
X137059814Y-96756834D01*
X137110260Y-96604597D01*
X137126548Y-96572255D01*
X137151484Y-96545999D01*
X137182609Y-96521613D01*
X137188581Y-96517219D01*
X137236229Y-96484332D01*
X137274610Y-96441007D01*
X137279711Y-96435588D01*
X138739085Y-94976214D01*
X138796794Y-94943573D01*
X138863070Y-94945331D01*
X139040220Y-94999583D01*
X139271624Y-95029216D01*
X139504707Y-95019314D01*
X139732765Y-94970164D01*
X139949235Y-94883179D01*
X140147891Y-94760862D01*
X140323018Y-94606731D01*
X140354911Y-94567231D01*
X140408178Y-94528902D01*
X140473547Y-94523126D01*
X140532710Y-94551521D01*
X140554344Y-94583993D01*
X140557578Y-94581999D01*
X140565185Y-94594333D01*
X140565186Y-94594334D01*
X140585818Y-94627785D01*
X140657288Y-94743657D01*
X140781342Y-94867711D01*
X140806420Y-94883179D01*
X140930666Y-94959814D01*
X141042017Y-94996712D01*
X141097202Y-95014999D01*
X141107703Y-95016071D01*
X141199991Y-95025500D01*
X142540008Y-95025499D01*
X142642797Y-95014999D01*
X142809334Y-94959814D01*
X142958656Y-94867712D01*
X143082712Y-94743656D01*
X143082713Y-94743653D01*
X143084431Y-94741936D01*
X143134353Y-94711506D01*
X143192669Y-94707333D01*
X143220359Y-94719188D01*
X143220965Y-94717565D01*
X143237666Y-94723794D01*
X143237669Y-94723796D01*
X143372517Y-94774091D01*
X143432127Y-94780500D01*
X145227872Y-94780499D01*
X145287483Y-94774091D01*
X145422331Y-94723796D01*
X145537546Y-94637546D01*
X145623796Y-94522331D01*
X145674091Y-94387483D01*
X145680500Y-94327873D01*
X145680499Y-92532128D01*
X145674091Y-92472517D01*
X145623796Y-92337669D01*
X145605231Y-92312869D01*
X145586845Y-92277720D01*
X145580500Y-92238561D01*
X145580500Y-88750000D01*
X147400000Y-88750000D01*
X147400000Y-89397824D01*
X147406402Y-89457375D01*
X147456647Y-89592089D01*
X147542811Y-89707188D01*
X147657910Y-89793352D01*
X147792624Y-89843597D01*
X147852176Y-89850000D01*
X148500000Y-89850000D01*
X148500000Y-88750000D01*
X149000000Y-88750000D01*
X149000000Y-89850000D01*
X149647824Y-89850000D01*
X149707375Y-89843597D01*
X149842089Y-89793352D01*
X149957188Y-89707188D01*
X150043352Y-89592089D01*
X150093597Y-89457375D01*
X150100000Y-89397824D01*
X150100000Y-88750000D01*
X149000000Y-88750000D01*
X148500000Y-88750000D01*
X147400000Y-88750000D01*
X145580500Y-88750000D01*
X145580500Y-88250000D01*
X147400000Y-88250000D01*
X148500000Y-88250000D01*
X148500000Y-86210000D01*
X149000000Y-86210000D01*
X149000000Y-88250000D01*
X150100000Y-88250000D01*
X150100000Y-87602176D01*
X150093597Y-87542624D01*
X150043352Y-87407910D01*
X149957188Y-87292811D01*
X149842088Y-87206647D01*
X149710012Y-87157385D01*
X149659633Y-87122405D01*
X149632180Y-87067561D01*
X149634369Y-87006268D01*
X149665665Y-86953521D01*
X149788109Y-86831077D01*
X149923600Y-86637576D01*
X150023430Y-86423492D01*
X150080636Y-86210000D01*
X149000000Y-86210000D01*
X148500000Y-86210000D01*
X147419364Y-86210000D01*
X147476569Y-86423492D01*
X147576399Y-86637576D01*
X147711893Y-86831081D01*
X147834334Y-86953522D01*
X147865630Y-87006268D01*
X147867819Y-87067561D01*
X147840366Y-87122405D01*
X147789987Y-87157385D01*
X147657911Y-87206647D01*
X147542811Y-87292811D01*
X147456647Y-87407910D01*
X147406402Y-87542624D01*
X147400000Y-87602176D01*
X147400000Y-88250000D01*
X145580500Y-88250000D01*
X145580500Y-87207255D01*
X145589939Y-87159802D01*
X145616819Y-87119574D01*
X146418599Y-86317794D01*
X147235972Y-85500420D01*
X147291557Y-85468328D01*
X147355744Y-85468328D01*
X147411332Y-85500422D01*
X147443426Y-85556009D01*
X147443426Y-85620196D01*
X147419363Y-85709999D01*
X147419364Y-85710000D01*
X150080636Y-85710000D01*
X150080635Y-85709999D01*
X150023430Y-85496507D01*
X149923599Y-85282421D01*
X149788109Y-85088921D01*
X149621081Y-84921893D01*
X149435404Y-84791880D01*
X149396539Y-84747562D01*
X149382528Y-84690305D01*
X149396539Y-84633048D01*
X149435402Y-84588732D01*
X149621401Y-84458495D01*
X149788495Y-84291401D01*
X149924035Y-84097830D01*
X150023903Y-83883663D01*
X150085063Y-83655408D01*
X150105659Y-83420000D01*
X150085063Y-83184592D01*
X150023903Y-82956337D01*
X150012118Y-82931063D01*
X150000500Y-82878659D01*
X150000500Y-81421341D01*
X150012118Y-81368937D01*
X150023902Y-81343665D01*
X150085063Y-81115407D01*
X150105659Y-80880000D01*
X150085063Y-80644592D01*
X150037628Y-80467561D01*
X150023903Y-80416337D01*
X149924035Y-80202171D01*
X149788495Y-80008599D01*
X149621401Y-79841505D01*
X149427830Y-79705965D01*
X149213663Y-79606097D01*
X149152501Y-79589709D01*
X148985407Y-79544936D01*
X148749999Y-79524340D01*
X148514592Y-79544936D01*
X148286336Y-79606097D01*
X148072170Y-79705965D01*
X147878598Y-79841505D01*
X147711505Y-80008598D01*
X147575965Y-80202170D01*
X147476097Y-80416336D01*
X147414936Y-80644592D01*
X147394340Y-80880000D01*
X147414936Y-81115407D01*
X147476097Y-81343665D01*
X147487882Y-81368937D01*
X147499500Y-81421341D01*
X147499500Y-82054004D01*
X147484251Y-82113579D01*
X147442256Y-82158501D01*
X147383843Y-82177722D01*
X147365405Y-82178965D01*
X147351504Y-82179903D01*
X147347250Y-82180975D01*
X147328088Y-82184230D01*
X147323729Y-82184622D01*
X147230131Y-82210454D01*
X147227443Y-82211164D01*
X147133237Y-82234903D01*
X147129251Y-82236714D01*
X147110969Y-82243342D01*
X147106749Y-82244506D01*
X147019209Y-82286662D01*
X147016692Y-82287840D01*
X146928290Y-82327994D01*
X146924692Y-82330487D01*
X146907898Y-82340267D01*
X146903945Y-82342170D01*
X146825329Y-82399287D01*
X146823062Y-82400895D01*
X146743261Y-82456182D01*
X146740158Y-82459285D01*
X146725383Y-82471904D01*
X146721840Y-82474478D01*
X146654722Y-82544677D01*
X146652778Y-82546665D01*
X143500343Y-85699100D01*
X143489980Y-85708362D01*
X143462335Y-85730410D01*
X143418735Y-85780311D01*
X143413050Y-85786392D01*
X143406059Y-85793383D01*
X143379928Y-85824683D01*
X143378124Y-85826795D01*
X143314235Y-85899922D01*
X143311986Y-85903686D01*
X143300739Y-85919536D01*
X143297932Y-85922898D01*
X143249978Y-86007409D01*
X143248604Y-86009768D01*
X143199719Y-86091590D01*
X143198782Y-86093160D01*
X143197246Y-86097254D01*
X143189009Y-86114863D01*
X143186847Y-86118672D01*
X143154762Y-86210363D01*
X143153814Y-86212976D01*
X143119691Y-86303897D01*
X143118910Y-86308201D01*
X143113950Y-86326996D01*
X143112501Y-86331136D01*
X143097304Y-86427085D01*
X143096838Y-86429826D01*
X143079500Y-86525369D01*
X143079500Y-86529749D01*
X143077973Y-86549148D01*
X143077290Y-86553458D01*
X143079469Y-86650559D01*
X143079500Y-86653341D01*
X143079500Y-86735631D01*
X143060722Y-86801239D01*
X143010075Y-86846976D01*
X142942898Y-86858989D01*
X142850010Y-86849500D01*
X142850009Y-86849500D01*
X141719336Y-86849500D01*
X141671883Y-86840061D01*
X141631655Y-86813181D01*
X141235250Y-86416776D01*
X141202317Y-86357875D01*
X141205106Y-86290451D01*
X141242791Y-86234471D01*
X141250000Y-86228365D01*
X141250000Y-85000000D01*
X141750000Y-85000000D01*
X141750000Y-86228366D01*
X141857792Y-86210380D01*
X142085460Y-86132219D01*
X142297164Y-86017651D01*
X142487126Y-85869798D01*
X142650151Y-85692707D01*
X142781815Y-85491180D01*
X142878506Y-85270744D01*
X142937599Y-85037393D01*
X142940697Y-85000000D01*
X141750000Y-85000000D01*
X141250000Y-85000000D01*
X141250000Y-83271634D01*
X141249999Y-83271633D01*
X141750000Y-83271633D01*
X141750000Y-84500000D01*
X142940697Y-84500000D01*
X142937599Y-84462606D01*
X142878506Y-84229255D01*
X142781815Y-84008819D01*
X142650151Y-83807292D01*
X142487126Y-83630201D01*
X142297164Y-83482348D01*
X142085460Y-83367780D01*
X141857792Y-83289619D01*
X141750000Y-83271633D01*
X141249999Y-83271633D01*
X141142207Y-83289619D01*
X140914539Y-83367780D01*
X140702835Y-83482348D01*
X140512873Y-83630201D01*
X140349846Y-83807294D01*
X140334106Y-83831387D01*
X140289314Y-83872619D01*
X140230297Y-83887564D01*
X140171280Y-83872619D01*
X140126490Y-83831387D01*
X140110551Y-83806990D01*
X139947463Y-83629829D01*
X139757439Y-83481928D01*
X139545664Y-83367321D01*
X139545660Y-83367319D01*
X139545659Y-83367319D01*
X139317915Y-83289134D01*
X139080399Y-83249500D01*
X138839601Y-83249500D01*
X138602084Y-83289134D01*
X138374340Y-83367319D01*
X138374336Y-83367320D01*
X138374336Y-83367321D01*
X138162561Y-83481928D01*
X138162559Y-83481928D01*
X138162556Y-83481931D01*
X138020067Y-83592833D01*
X137967639Y-83616687D01*
X137910089Y-83614279D01*
X137859836Y-83586129D01*
X137827725Y-83538313D01*
X137816296Y-83507669D01*
X137730046Y-83392454D01*
X137614831Y-83306204D01*
X137479983Y-83255909D01*
X137420373Y-83249500D01*
X137420369Y-83249500D01*
X137219500Y-83249500D01*
X137157500Y-83232887D01*
X137112113Y-83187500D01*
X137095500Y-83125500D01*
X137095500Y-80694151D01*
X137095726Y-80686665D01*
X137095823Y-80685059D01*
X137099219Y-80628915D01*
X137088785Y-80571982D01*
X137087663Y-80564603D01*
X137080688Y-80507155D01*
X137080687Y-80507153D01*
X137080687Y-80507151D01*
X137077364Y-80498388D01*
X137071337Y-80476768D01*
X137069650Y-80467561D01*
X137045903Y-80414798D01*
X137043039Y-80407883D01*
X137022518Y-80353774D01*
X137017193Y-80346059D01*
X137006174Y-80326523D01*
X137002326Y-80317972D01*
X136966633Y-80272413D01*
X136962194Y-80266380D01*
X136929331Y-80218769D01*
X136886035Y-80180413D01*
X136880581Y-80175279D01*
X134986818Y-78281517D01*
X134959938Y-78241289D01*
X134950499Y-78193836D01*
X134950499Y-77599991D01*
X134939999Y-77497203D01*
X134926858Y-77457546D01*
X134884814Y-77330666D01*
X134792712Y-77181344D01*
X134792711Y-77181342D01*
X134748550Y-77137181D01*
X134718300Y-77087818D01*
X134713758Y-77030102D01*
X134735913Y-76976615D01*
X134779936Y-76939015D01*
X134836231Y-76925500D01*
X135275501Y-76925500D01*
X135337501Y-76942113D01*
X135382888Y-76987500D01*
X135399501Y-77049500D01*
X135399501Y-77147872D01*
X135405909Y-77207483D01*
X135456204Y-77342331D01*
X135542454Y-77457546D01*
X135657669Y-77543796D01*
X135792517Y-77594091D01*
X135852127Y-77600500D01*
X137647872Y-77600499D01*
X137707483Y-77594091D01*
X137842331Y-77543796D01*
X137842332Y-77543795D01*
X137859036Y-77537565D01*
X137859641Y-77539187D01*
X137887305Y-77527336D01*
X137945633Y-77531501D01*
X137995566Y-77561935D01*
X138121342Y-77687711D01*
X138121344Y-77687712D01*
X138270666Y-77779814D01*
X138382017Y-77816712D01*
X138437202Y-77834999D01*
X138447702Y-77836071D01*
X138539991Y-77845500D01*
X139880008Y-77845499D01*
X139982797Y-77834999D01*
X140149334Y-77779814D01*
X140298656Y-77687712D01*
X140422712Y-77563656D01*
X140514814Y-77414334D01*
X140514814Y-77414333D01*
X140522422Y-77401999D01*
X140525242Y-77403738D01*
X140545568Y-77372516D01*
X140601542Y-77343422D01*
X140664586Y-77345633D01*
X140718385Y-77378575D01*
X140841603Y-77507139D01*
X141029101Y-77645812D01*
X141237339Y-77750803D01*
X141460326Y-77819092D01*
X141500000Y-77824172D01*
X141500000Y-76500000D01*
X142000000Y-76500000D01*
X142000000Y-77822575D01*
X142152621Y-77789682D01*
X142369005Y-77702732D01*
X142567594Y-77580456D01*
X142742657Y-77426381D01*
X142889160Y-77244942D01*
X143002896Y-77041344D01*
X143080588Y-76821455D01*
X143120000Y-76591606D01*
X143120000Y-76500000D01*
X142000000Y-76500000D01*
X141500000Y-76500000D01*
X141500000Y-74677424D01*
X141347378Y-74710317D01*
X141130994Y-74797267D01*
X140932405Y-74919543D01*
X140757343Y-75073617D01*
X140725273Y-75113334D01*
X140672000Y-75151664D01*
X140606626Y-75157435D01*
X140547462Y-75129030D01*
X140525522Y-75096088D01*
X140522422Y-75098001D01*
X140422711Y-74936342D01*
X140298657Y-74812288D01*
X140149334Y-74720186D01*
X140015470Y-74675827D01*
X142000000Y-74675827D01*
X142000000Y-76000000D01*
X143120000Y-76000000D01*
X143120000Y-75966802D01*
X143105176Y-75792635D01*
X143046410Y-75566945D01*
X142950353Y-75354442D01*
X142925563Y-75317764D01*
X145645787Y-75317764D01*
X145675413Y-75587016D01*
X145743928Y-75849087D01*
X145849871Y-76098392D01*
X145990982Y-76329611D01*
X146164253Y-76537818D01*
X146164255Y-76537820D01*
X146365998Y-76718582D01*
X146591910Y-76868044D01*
X146686357Y-76912319D01*
X146837177Y-76983021D01*
X147058145Y-77049500D01*
X147096569Y-77061060D01*
X147364561Y-77100500D01*
X147567631Y-77100500D01*
X147567634Y-77100500D01*
X147770156Y-77085677D01*
X147770155Y-77085677D01*
X148034553Y-77026780D01*
X148287558Y-76930014D01*
X148523777Y-76797441D01*
X148738177Y-76631888D01*
X148926186Y-76436881D01*
X149083799Y-76216579D01*
X149207656Y-75975675D01*
X149295118Y-75719305D01*
X149344319Y-75452933D01*
X149354212Y-75182235D01*
X149324586Y-74912982D01*
X149256072Y-74650912D01*
X149150130Y-74401610D01*
X149009018Y-74170390D01*
X149009017Y-74170388D01*
X148835746Y-73962181D01*
X148741710Y-73877925D01*
X148634002Y-73781418D01*
X148408090Y-73631956D01*
X148408086Y-73631954D01*
X148162822Y-73516978D01*
X147903437Y-73438941D01*
X147903431Y-73438940D01*
X147635439Y-73399500D01*
X147432369Y-73399500D01*
X147432366Y-73399500D01*
X147229843Y-73414322D01*
X146965449Y-73473219D01*
X146712441Y-73569986D01*
X146476223Y-73702559D01*
X146261825Y-73868109D01*
X146073813Y-74063120D01*
X145916201Y-74283420D01*
X145792342Y-74524329D01*
X145704881Y-74780695D01*
X145655680Y-75047066D01*
X145645787Y-75317764D01*
X142925563Y-75317764D01*
X142819763Y-75161227D01*
X142658396Y-74992860D01*
X142470898Y-74854187D01*
X142262660Y-74749196D01*
X142039673Y-74680907D01*
X142000000Y-74675827D01*
X140015470Y-74675827D01*
X139982797Y-74665000D01*
X139880009Y-74654500D01*
X138539991Y-74654500D01*
X138437203Y-74665000D01*
X138270665Y-74720186D01*
X138121344Y-74812287D01*
X137995567Y-74938064D01*
X137945646Y-74968493D01*
X137887332Y-74972667D01*
X137859640Y-74960811D01*
X137859035Y-74962435D01*
X137842332Y-74956205D01*
X137842331Y-74956204D01*
X137707483Y-74905909D01*
X137647873Y-74899500D01*
X137647869Y-74899500D01*
X135852130Y-74899500D01*
X135792515Y-74905909D01*
X135657669Y-74956204D01*
X135542454Y-75042454D01*
X135456204Y-75157668D01*
X135420628Y-75253051D01*
X135405909Y-75292517D01*
X135401808Y-75330666D01*
X135399500Y-75352131D01*
X135399500Y-75450500D01*
X135382887Y-75512500D01*
X135337500Y-75557887D01*
X135275500Y-75574500D01*
X135055154Y-75574500D01*
X135004939Y-75563877D01*
X134963327Y-75533829D01*
X134937448Y-75489504D01*
X134924523Y-75450500D01*
X134884814Y-75330666D01*
X134792712Y-75181344D01*
X134792711Y-75181342D01*
X134668657Y-75057288D01*
X134519334Y-74965186D01*
X134352797Y-74910000D01*
X134250009Y-74899500D01*
X133249991Y-74899500D01*
X133147203Y-74910000D01*
X132980665Y-74965186D01*
X132831342Y-75057288D01*
X132707288Y-75181342D01*
X132615186Y-75330665D01*
X132560000Y-75497202D01*
X132549500Y-75599990D01*
X132549500Y-76400008D01*
X132560000Y-76502796D01*
X132615186Y-76669334D01*
X132707288Y-76818657D01*
X132800950Y-76912319D01*
X132833044Y-76967906D01*
X132833044Y-77032094D01*
X132800950Y-77087681D01*
X132707288Y-77181342D01*
X132615186Y-77330665D01*
X132560000Y-77497202D01*
X132549500Y-77599990D01*
X132549500Y-78400008D01*
X132560000Y-78502796D01*
X132615186Y-78669334D01*
X132707288Y-78818657D01*
X132831342Y-78942711D01*
X132831344Y-78942712D01*
X132980666Y-79034814D01*
X133092017Y-79071712D01*
X133147202Y-79089999D01*
X133156729Y-79090972D01*
X133249991Y-79100500D01*
X133843836Y-79100499D01*
X133891289Y-79109938D01*
X133931517Y-79136818D01*
X135708181Y-80913483D01*
X135735061Y-80953711D01*
X135744500Y-81001164D01*
X135744500Y-83125501D01*
X135727887Y-83187501D01*
X135682500Y-83232888D01*
X135620500Y-83249501D01*
X135419628Y-83249501D01*
X135389822Y-83252704D01*
X135360015Y-83255909D01*
X135225169Y-83306204D01*
X135109954Y-83392454D01*
X135023704Y-83507668D01*
X134973409Y-83642516D01*
X134967000Y-83702131D01*
X134967000Y-84849164D01*
X134953485Y-84905459D01*
X134915885Y-84949482D01*
X134862398Y-84971637D01*
X134804682Y-84967095D01*
X134755319Y-84936845D01*
X132408816Y-82590342D01*
X132399550Y-82579974D01*
X132377506Y-82552332D01*
X132327603Y-82508732D01*
X132321507Y-82503033D01*
X132314527Y-82496053D01*
X132283255Y-82469945D01*
X132281140Y-82468139D01*
X132256809Y-82446882D01*
X132207996Y-82404235D01*
X132204236Y-82401988D01*
X132188370Y-82390730D01*
X132185018Y-82387931D01*
X132100548Y-82340001D01*
X132098145Y-82338601D01*
X132014765Y-82288785D01*
X132010671Y-82287249D01*
X131993046Y-82279003D01*
X131989245Y-82276847D01*
X131989244Y-82276846D01*
X131989243Y-82276846D01*
X131897568Y-82244767D01*
X131894954Y-82243819D01*
X131804028Y-82209694D01*
X131804025Y-82209693D01*
X131804024Y-82209693D01*
X131799721Y-82208911D01*
X131780917Y-82203948D01*
X131776782Y-82202501D01*
X131680847Y-82187306D01*
X131678106Y-82186840D01*
X131582550Y-82169500D01*
X131582547Y-82169500D01*
X131578170Y-82169500D01*
X131558773Y-82167973D01*
X131554460Y-82167290D01*
X131457358Y-82169469D01*
X131454578Y-82169500D01*
X131143917Y-82169500D01*
X131078750Y-82150995D01*
X131033033Y-82101004D01*
X131020411Y-82034447D01*
X131037781Y-81989115D01*
X131037565Y-81989035D01*
X131043794Y-81972333D01*
X131043796Y-81972331D01*
X131094091Y-81837483D01*
X131100500Y-81777873D01*
X131100499Y-79982128D01*
X131094091Y-79922517D01*
X131043796Y-79787669D01*
X130957546Y-79672454D01*
X130842331Y-79586204D01*
X130707483Y-79535909D01*
X130647873Y-79529500D01*
X130647869Y-79529500D01*
X128852130Y-79529500D01*
X128792515Y-79535909D01*
X128657669Y-79586204D01*
X128542454Y-79672454D01*
X128456204Y-79787668D01*
X128405909Y-79922516D01*
X128399500Y-79982130D01*
X128399500Y-81777869D01*
X128405909Y-81837483D01*
X128456204Y-81972331D01*
X128474768Y-81997129D01*
X128493155Y-82032280D01*
X128499500Y-82071439D01*
X128499500Y-82878659D01*
X128487882Y-82931063D01*
X128476097Y-82956334D01*
X128414936Y-83184592D01*
X128394340Y-83420000D01*
X127500500Y-83420000D01*
X127500500Y-75253051D01*
X127500649Y-75246967D01*
X127507998Y-75097372D01*
X127518010Y-74906327D01*
X127519176Y-74894679D01*
X127543801Y-74728671D01*
X127543929Y-74727842D01*
X127571290Y-74555093D01*
X127573463Y-74544438D01*
X127615016Y-74378551D01*
X127615406Y-74377043D01*
X127659870Y-74211105D01*
X127662880Y-74201469D01*
X127720867Y-74039405D01*
X127721830Y-74036810D01*
X127782836Y-73877883D01*
X127786466Y-73869395D01*
X127860400Y-73713076D01*
X127861912Y-73709997D01*
X127938909Y-73558881D01*
X127943010Y-73551474D01*
X128032078Y-73402873D01*
X128034354Y-73399225D01*
X128126523Y-73257298D01*
X128130860Y-73251055D01*
X128234170Y-73111757D01*
X128237331Y-73107679D01*
X128343698Y-72976325D01*
X128348123Y-72971162D01*
X128464674Y-72842568D01*
X128468793Y-72838242D01*
X128588242Y-72718793D01*
X128592568Y-72714674D01*
X128721162Y-72598123D01*
X128726325Y-72593698D01*
X128857679Y-72487331D01*
X128861757Y-72484170D01*
X129001055Y-72380860D01*
X129007298Y-72376523D01*
X129149225Y-72284354D01*
X129152873Y-72282078D01*
X129301474Y-72193010D01*
X129308881Y-72188909D01*
X129459997Y-72111912D01*
X129463076Y-72110400D01*
X129619395Y-72036466D01*
X129627883Y-72032836D01*
X129786847Y-71971816D01*
X129789405Y-71970867D01*
X129951469Y-71912880D01*
X129961105Y-71909870D01*
X130127043Y-71865406D01*
X130128551Y-71865016D01*
X130294438Y-71823463D01*
X130305093Y-71821290D01*
X130477842Y-71793929D01*
X130478671Y-71793801D01*
X130644679Y-71769176D01*
X130656325Y-71768010D01*
X130847402Y-71757996D01*
X130993747Y-71750807D01*
X130996968Y-71750649D01*
X131003051Y-71750500D01*
X147496949Y-71750500D01*
X147503032Y-71750649D01*
G37*
G04 #@! TD.AperFunction*
M02*
